<?xml version='1.0' encoding='utf-8'?>
<svg xmlns:xlink="http://www.w3.org/1999/xlink" class="pygal-chart" id="chart-00abf50a-de8b-407c-b97a-3b5cc35c7daa" viewBox="0 0 800 600" xmlns="http://www.w3.org/2000/svg"><!--Generated with pygal 2.0.11 (etree) ©Kozea 2011-2015 on 2015-12-10--><!--http://pygal.org--><!--http://github.com/Kozea/pygal--><defs><style type="text/css">#chart-00abf50a-de8b-407c-b97a-3b5cc35c7daa{-webkit-user-select:none;-webkit-font-smoothing:antialiased;font-family:Consolas,"Liberation Mono",Menlo,Courier,monospace}#chart-00abf50a-de8b-407c-b97a-3b5cc35c7daa .title{font-family:Consolas,"Liberation Mono",Menlo,Courier,monospace;font-size:16px}#chart-00abf50a-de8b-407c-b97a-3b5cc35c7daa .legends .legend text{font-family:Consolas,"Liberation Mono",Menlo,Courier,monospace;font-size:14px}#chart-00abf50a-de8b-407c-b97a-3b5cc35c7daa .axis text{font-family:Consolas,"Liberation Mono",Menlo,Courier,monospace;font-size:10px}#chart-00abf50a-de8b-407c-b97a-3b5cc35c7daa .axis text.major{font-family:Consolas,"Liberation Mono",Menlo,Courier,monospace;font-size:10px}#chart-00abf50a-de8b-407c-b97a-3b5cc35c7daa .text-overlay text.value{font-family:Consolas,"Liberation Mono",Menlo,Courier,monospace;font-size:16px}#chart-00abf50a-de8b-407c-b97a-3b5cc35c7daa .text-overlay text.label{font-family:Consolas,"Liberation Mono",Menlo,Courier,monospace;font-size:10px}#chart-00abf50a-de8b-407c-b97a-3b5cc35c7daa .tooltip{font-family:Consolas,"Liberation Mono",Menlo,Courier,monospace;font-size:14px}#chart-00abf50a-de8b-407c-b97a-3b5cc35c7daa text.no_data{font-family:Consolas,"Liberation Mono",Menlo,Courier,monospace;font-size:64px}
#chart-00abf50a-de8b-407c-b97a-3b5cc35c7daa{background-color:black}#chart-00abf50a-de8b-407c-b97a-3b5cc35c7daa path,#chart-00abf50a-de8b-407c-b97a-3b5cc35c7daa line,#chart-00abf50a-de8b-407c-b97a-3b5cc35c7daa rect,#chart-00abf50a-de8b-407c-b97a-3b5cc35c7daa circle{-webkit-transition:250ms;-moz-transition:250ms;transition:250ms}#chart-00abf50a-de8b-407c-b97a-3b5cc35c7daa .graph &gt; .background{fill:black}#chart-00abf50a-de8b-407c-b97a-3b5cc35c7daa .plot &gt; .background{fill:#111}#chart-00abf50a-de8b-407c-b97a-3b5cc35c7daa .graph{fill:#999}#chart-00abf50a-de8b-407c-b97a-3b5cc35c7daa text.no_data{fill:#eee}#chart-00abf50a-de8b-407c-b97a-3b5cc35c7daa .title{fill:#eee}#chart-00abf50a-de8b-407c-b97a-3b5cc35c7daa .legends .legend text{fill:#999}#chart-00abf50a-de8b-407c-b97a-3b5cc35c7daa .legends .legend:hover text{fill:#eee}#chart-00abf50a-de8b-407c-b97a-3b5cc35c7daa .axis .line{stroke:#eee}#chart-00abf50a-de8b-407c-b97a-3b5cc35c7daa .axis .guide.line{stroke:#555}#chart-00abf50a-de8b-407c-b97a-3b5cc35c7daa .axis .major.line{stroke:#999}#chart-00abf50a-de8b-407c-b97a-3b5cc35c7daa .axis text.major{fill:#eee}#chart-00abf50a-de8b-407c-b97a-3b5cc35c7daa .axis.y .guides:hover .guide.line,#chart-00abf50a-de8b-407c-b97a-3b5cc35c7daa .line-graph .axis.x .guides:hover .guide.line,#chart-00abf50a-de8b-407c-b97a-3b5cc35c7daa .stackedline-graph .axis.x .guides:hover .guide.line,#chart-00abf50a-de8b-407c-b97a-3b5cc35c7daa .xy-graph .axis.x .guides:hover .guide.line{stroke:#eee}#chart-00abf50a-de8b-407c-b97a-3b5cc35c7daa .axis .guides:hover text{fill:#eee}#chart-00abf50a-de8b-407c-b97a-3b5cc35c7daa .reactive{fill-opacity:.8}#chart-00abf50a-de8b-407c-b97a-3b5cc35c7daa .reactive.active,#chart-00abf50a-de8b-407c-b97a-3b5cc35c7daa .active .reactive{fill-opacity:.4;stroke-width:4}#chart-00abf50a-de8b-407c-b97a-3b5cc35c7daa .series text{fill:#eee}#chart-00abf50a-de8b-407c-b97a-3b5cc35c7daa .tooltip rect{fill:#111;stroke:#eee;-webkit-transition:opacity 250ms;-moz-transition:opacity 250ms;transition:opacity 250ms}#chart-00abf50a-de8b-407c-b97a-3b5cc35c7daa .tooltip .label{fill:#999}#chart-00abf50a-de8b-407c-b97a-3b5cc35c7daa .tooltip .label{fill:#999}#chart-00abf50a-de8b-407c-b97a-3b5cc35c7daa .tooltip .legend{font-size:.8em;fill:#555}#chart-00abf50a-de8b-407c-b97a-3b5cc35c7daa .tooltip .x_label{font-size:.6em;fill:#eee}#chart-00abf50a-de8b-407c-b97a-3b5cc35c7daa .tooltip .xlink{font-size:.5em;text-decoration:underline}#chart-00abf50a-de8b-407c-b97a-3b5cc35c7daa .tooltip .value{font-size:1.5em}#chart-00abf50a-de8b-407c-b97a-3b5cc35c7daa .map-element{fill:#111;stroke:#555 !important}#chart-00abf50a-de8b-407c-b97a-3b5cc35c7daa .map-element .reactive{fill-opacity:inherit}#chart-00abf50a-de8b-407c-b97a-3b5cc35c7daa .color-0,#chart-00abf50a-de8b-407c-b97a-3b5cc35c7daa .color-0 a:visited{stroke:#ff5995;fill:#ff5995}#chart-00abf50a-de8b-407c-b97a-3b5cc35c7daa .text-overlay .color-0 text{fill:black}
#chart-00abf50a-de8b-407c-b97a-3b5cc35c7daa text.no_data{text-anchor:middle}#chart-00abf50a-de8b-407c-b97a-3b5cc35c7daa .guide.line{fill:none}#chart-00abf50a-de8b-407c-b97a-3b5cc35c7daa .centered{text-anchor:middle}#chart-00abf50a-de8b-407c-b97a-3b5cc35c7daa .title{text-anchor:middle}#chart-00abf50a-de8b-407c-b97a-3b5cc35c7daa .legends .legend text{fill-opacity:1}#chart-00abf50a-de8b-407c-b97a-3b5cc35c7daa .axis.x text{text-anchor:middle}#chart-00abf50a-de8b-407c-b97a-3b5cc35c7daa .axis.x:not(.web) text[transform]{text-anchor:start}#chart-00abf50a-de8b-407c-b97a-3b5cc35c7daa .axis.x:not(.web) text[transform].backwards{text-anchor:end}#chart-00abf50a-de8b-407c-b97a-3b5cc35c7daa .axis.y text{text-anchor:end}#chart-00abf50a-de8b-407c-b97a-3b5cc35c7daa .axis.y text[transform].backwards{text-anchor:start}#chart-00abf50a-de8b-407c-b97a-3b5cc35c7daa .axis.y2 text{text-anchor:start}#chart-00abf50a-de8b-407c-b97a-3b5cc35c7daa .axis.y2 text[transform].backwards{text-anchor:end}#chart-00abf50a-de8b-407c-b97a-3b5cc35c7daa .axis .guide.line{stroke-dasharray:4,4}#chart-00abf50a-de8b-407c-b97a-3b5cc35c7daa .axis .major.guide.line{stroke-dasharray:6,6}#chart-00abf50a-de8b-407c-b97a-3b5cc35c7daa .horizontal .axis.y .guide.line,#chart-00abf50a-de8b-407c-b97a-3b5cc35c7daa .horizontal .axis.y2 .guide.line,#chart-00abf50a-de8b-407c-b97a-3b5cc35c7daa .vertical .axis.x .guide.line{opacity:0}#chart-00abf50a-de8b-407c-b97a-3b5cc35c7daa .horizontal .axis.always_show .guide.line,#chart-00abf50a-de8b-407c-b97a-3b5cc35c7daa .vertical .axis.always_show .guide.line{opacity:1 !important}#chart-00abf50a-de8b-407c-b97a-3b5cc35c7daa .axis.y .guides:hover .guide.line,#chart-00abf50a-de8b-407c-b97a-3b5cc35c7daa .axis.y2 .guides:hover .guide.line,#chart-00abf50a-de8b-407c-b97a-3b5cc35c7daa .axis.x .guides:hover .guide.line{opacity:1}#chart-00abf50a-de8b-407c-b97a-3b5cc35c7daa .axis .guides:hover text{opacity:1}#chart-00abf50a-de8b-407c-b97a-3b5cc35c7daa .nofill{fill:none}#chart-00abf50a-de8b-407c-b97a-3b5cc35c7daa .subtle-fill{fill-opacity:.2}#chart-00abf50a-de8b-407c-b97a-3b5cc35c7daa .dot{stroke-width:1px;fill-opacity:1}#chart-00abf50a-de8b-407c-b97a-3b5cc35c7daa .dot.active{stroke-width:5px}#chart-00abf50a-de8b-407c-b97a-3b5cc35c7daa .dot.negative{fill:transparent}#chart-00abf50a-de8b-407c-b97a-3b5cc35c7daa text,#chart-00abf50a-de8b-407c-b97a-3b5cc35c7daa tspan{stroke:none !important}#chart-00abf50a-de8b-407c-b97a-3b5cc35c7daa .series text.active{opacity:1}#chart-00abf50a-de8b-407c-b97a-3b5cc35c7daa .tooltip rect{fill-opacity:.95;stroke-width:.5}#chart-00abf50a-de8b-407c-b97a-3b5cc35c7daa .tooltip text{fill-opacity:1}#chart-00abf50a-de8b-407c-b97a-3b5cc35c7daa .showable{visibility:hidden}#chart-00abf50a-de8b-407c-b97a-3b5cc35c7daa .showable.shown{visibility:visible}</style><script type="text/javascript">window.pygal = window.pygal || {};window.pygal.config = window.pygal.config || {};window.pygal.config['00abf50a-de8b-407c-b97a-3b5cc35c7daa'] = {"spacing": 10, "inner_radius": 0, "order_min": null, "truncate_label": null, "x_title": null, "style": {"foreground_strong": "#eee", "value_colors": [], "title_font_family": "Consolas, \"Liberation Mono\", Menlo, Courier, monospace", "major_guide_stroke_dasharray": "6,6", "background": "black", "value_font_size": 16, "guide_stroke_dasharray": "4,4", "colors": ["#ff5995", "#b6e354", "#feed6c", "#8cedff", "#9e6ffe", "#899ca1", "#f8f8f2", "#bf4646", "#516083", "#f92672", "#82b414", "#fd971f", "#56c2d6", "#808384", "#8c54fe", "#465457"], "legend_font_family": "Consolas, \"Liberation Mono\", Menlo, Courier, monospace", "no_data_font_size": 64, "legend_font_size": 14, "opacity": ".8", "title_font_size": 16, "foreground_subtle": "#555", "label_font_family": "Consolas, \"Liberation Mono\", Menlo, Courier, monospace", "value_label_font_family": "Consolas, \"Liberation Mono\", Menlo, Courier, monospace", "value_font_family": "Consolas, \"Liberation Mono\", Menlo, Courier, monospace", "major_label_font_size": 10, "no_data_font_family": "Consolas, \"Liberation Mono\", Menlo, Courier, monospace", "major_label_font_family": "Consolas, \"Liberation Mono\", Menlo, Courier, monospace", "tooltip_font_size": 14, "label_font_size": 10, "tooltip_font_family": "Consolas, \"Liberation Mono\", Menlo, Courier, monospace", "transition": "250ms", "value_label_font_size": 10, "plot_background": "#111", "opacity_hover": ".4", "font_family": "Consolas, \"Liberation Mono\", Menlo, Courier, monospace", "foreground": "#999"}, "y_labels_major": null, "inverse_y_axis": false, "show_dots": true, "js": ["//kozea.github.io/pygal.js/2.0.x/pygal-tooltips.min.js"], "range": null, "human_readable": false, "margin": 20, "show_x_labels": true, "legend_box_size": 12, "no_data_text": "No data", "strict": false, "show_minor_y_labels": true, "legend_at_bottom": false, "show_only_major_dots": false, "include_x_axis": false, "x_labels": ["Jan", "Feb", "Mar", "Apr", "May", "Jun", "Jul", "Aug", "Sep", "Oct", "Nov", "Dec"], "x_labels_major": null, "x_label_rotation": 0, "disable_xml_declaration": false, "y_title": null, "show_y_guides": true, "max_scale": 16, "margin_right": null, "defs": [], "tooltip_border_radius": 0, "xrange": null, "print_zeroes": true, "show_legend": true, "no_prefix": false, "y_labels_major_every": null, "fill": true, "width": 800, "min_scale": 4, "title": "Nana 51", "half_pie": false, "x_labels_major_count": null, "zero": 0, "margin_bottom": null, "legends": ["Nana"], "secondary_range": null, "margin_top": null, "margin_left": null, "print_labels": false, "legend_at_bottom_columns": null, "print_values": false, "value_formatter": null, "explicit_size": false, "dynamic_print_values": false, "interpolate": "cubic", "box_mode": "extremes", "interpolation_precision": 250, "x_value_formatter": null, "show_y_labels": true, "height": 600, "force_uri_protocol": null, "interpolation_parameters": {}, "dots_size": 2.5, "logarithmic": false, "stroke_style": null, "pretty_print": false, "stack_from_top": false, "stroke": true, "y_label_rotation": 0, "rounded_bars": null, "y_labels": null, "missing_value_fill_truncation": "x", "show_x_guides": false, "x_labels_major_every": null, "truncate_legend": null, "css": ["file://style.css", "file://graph.css"], "tooltip_fancy_mode": true, "y_labels_major_count": null, "show_minor_x_labels": true}</script><script type="text/javascript" xlink:href="//kozea.github.io/pygal.js/2.0.x/pygal-tooltips.min.js" /></defs><title>Nana 51</title><g class="graph line-graph vertical"><rect class="background" height="600" width="800" x="0" y="0" /><g class="plot" transform="translate(133, 46)"><rect class="background" height="514" width="646.4" x="0" y="0" /><g class="axis y"><path class="line" d="M0.000000 514.000000 h646.400000" /><g class="guides"><path class="guide line" d="M0.000000 489.475585 h646.400000" /><text class="" x="-5" y="492.975585404571">290000.0</text><title>290000.0</title></g><g class="guides"><path class="major guide line" d="M0.000000 417.869666 h646.400000" /><text class="major" x="-5" y="421.36966601423">300000.0</text><title>300000.0</title></g><g class="guides"><path class="guide line" d="M0.000000 346.263747 h646.400000" /><text class="" x="-5" y="349.763746623889">310000.0</text><title>310000.0</title></g><g class="guides"><path class="guide line" d="M0.000000 274.657827 h646.400000" /><text class="" x="-5" y="278.157827233548">320000.0</text><title>320000.0</title></g><g class="guides"><path class="guide line" d="M0.000000 203.051908 h646.400000" /><text class="" x="-5" y="206.55190784320695">330000.0</text><title>330000.0</title></g><g class="guides"><path class="guide line" d="M0.000000 131.445988 h646.400000" /><text class="" x="-5" y="134.9459884528659">340000.0</text><title>340000.0</title></g><g class="guides"><path class="major guide line" d="M0.000000 59.840069 h646.400000" /><text class="major" x="-5" y="63.34006906252489">350000.0</text><title>350000.0</title></g></g><g class="axis x"><g class="guides"><path class="line" d="M12.430769 0.000000 v514.000000" /><text class="" x="12.43076923076923" y="529.0">Jan</text></g><g class="guides"><path class="guide line" d="M68.934266 0.000000 v514.000000" /><text class="" x="68.93426573426574" y="529.0">Feb</text></g><g class="guides"><path class="guide line" d="M125.437762 0.000000 v514.000000" /><text class="" x="125.43776223776223" y="529.0">Mar</text></g><g class="guides"><path class="guide line" d="M181.941259 0.000000 v514.000000" /><text class="" x="181.94125874125874" y="529.0">Apr</text></g><g class="guides"><path class="guide line" d="M238.444755 0.000000 v514.000000" /><text class="" x="238.44475524475524" y="529.0">May</text></g><g class="guides"><path class="guide line" d="M294.948252 0.000000 v514.000000" /><text class="" x="294.9482517482517" y="529.0">Jun</text></g><g class="guides"><path class="guide line" d="M351.451748 0.000000 v514.000000" /><text class="" x="351.4517482517482" y="529.0">Jul</text></g><g class="guides"><path class="guide line" d="M407.955245 0.000000 v514.000000" /><text class="" x="407.95524475524473" y="529.0">Aug</text></g><g class="guides"><path class="guide line" d="M464.458741 0.000000 v514.000000" /><text class="" x="464.45874125874127" y="529.0">Sep</text></g><g class="guides"><path class="guide line" d="M520.962238 0.000000 v514.000000" /><text class="" x="520.9622377622377" y="529.0">Oct</text></g><g class="guides"><path class="guide line" d="M577.465734 0.000000 v514.000000" /><text class="" x="577.4657342657342" y="529.0">Nov</text></g><g class="guides"><path class="guide line" d="M633.969231 0.000000 v514.000000" /><text class="" x="633.9692307692308" y="529.0">Dec</text></g></g><g class="series serie-0 color-0"><path class="line reactive" d="M12.430769 514.000000 L12.430769 124.285397 12.656783 123.888549 12.882797 123.491704 13.108811 123.094864 13.334825 122.698031 13.560839 122.301207 13.786853 121.904395 14.012867 121.507598 14.238881 121.110816 14.464895 120.714054 14.690909 120.317312 14.916923 119.920594 15.142937 119.523902 15.368951 119.127238 15.594965 118.730605 15.820979 118.334005 16.046993 117.937440 16.273007 117.540913 16.499021 117.144425 16.725035 116.747980 16.951049 116.351580 17.177063 115.955226 17.403077 115.558922 17.629091 115.162670 17.855105 114.766472 18.081119 114.370330 18.307133 113.974247 18.533147 113.578225 18.759161 113.182267 18.985175 112.786375 19.211189 112.390550 19.437203 111.994797 19.663217 111.599116 19.889231 111.203510 20.115245 110.807982 20.341259 110.412534 20.567273 110.017169 20.793287 109.621888 21.019301 109.226694 21.245315 108.831589 21.471329 108.436576 21.697343 108.041657 21.923357 107.646835 22.149371 107.252111 22.375385 106.857489 22.601399 106.462970 22.827413 106.068557 23.053427 105.674251 23.279441 105.280057 23.505455 104.885975 23.731469 104.492009 23.957483 104.098160 24.183497 103.704431 24.409510 103.310825 24.635524 102.917343 24.861538 102.523988 25.087552 102.130762 25.313566 101.737668 25.539580 101.344708 25.765594 100.951885 25.991608 100.559200 26.217622 100.166656 26.443636 99.774256 26.669650 99.382002 26.895664 98.989896 27.121678 98.597940 27.347692 98.206137 27.573706 97.814489 27.799720 97.422999 28.025734 97.031669 28.251748 96.640501 28.477762 96.249498 28.703776 95.858662 28.929790 95.467995 29.155804 95.077500 29.381818 94.687178 29.607832 94.297033 29.833846 93.907067 30.059860 93.517282 30.285874 93.127680 30.511888 92.738265 30.737902 92.349037 30.963916 91.960000 31.189930 91.571155 31.415944 91.182506 31.641958 90.794054 31.867972 90.405803 32.093986 90.017753 32.320000 89.629908 32.546014 89.242270 32.772028 88.854841 32.998042 88.467624 33.224056 88.080621 33.450070 87.693835 33.676084 87.307267 33.902098 86.920920 34.128112 86.534796 34.354126 86.148899 34.580140 85.763229 34.806154 85.377790 35.032168 84.992583 35.258182 84.607612 35.484196 84.222879 35.710210 83.838385 35.936224 83.454133 36.162238 83.070126 36.388252 82.686366 36.614266 82.302856 36.840280 81.919596 37.066294 81.536591 37.292308 81.153842 37.518322 80.771352 37.744336 80.389123 37.970350 80.007158 38.196364 79.625458 38.422378 79.244026 38.648392 78.862864 38.874406 78.481976 39.100420 78.101362 39.326434 77.721026 39.552448 77.340970 39.778462 76.961196 40.004476 76.581707 40.230490 76.202504 40.456503 75.823591 40.682517 75.444970 40.908531 75.066642 41.134545 74.688611 41.360559 74.310878 41.586573 73.933446 41.812587 73.556318 42.038601 73.179496 42.264615 72.802981 42.490629 72.426777 42.716643 72.050886 42.942657 71.675310 43.168671 71.300051 43.394685 70.925112 43.620699 70.550496 43.846713 70.176204 44.072727 69.802238 44.298741 69.428602 44.524755 69.055298 44.750769 68.682328 44.976783 68.309693 45.202797 67.937398 45.428811 67.565443 45.654825 67.193832 45.880839 66.822567 46.106853 66.451649 46.332867 66.081082 46.558881 65.710868 46.784895 65.341009 47.010909 64.971507 47.236923 64.602365 47.462937 64.233585 47.688951 63.865170 47.914965 63.497122 48.140979 63.129443 48.366993 62.762135 48.593007 62.395202 48.819021 62.028644 49.045035 61.662465 49.271049 61.296668 49.497063 60.931253 49.723077 60.566224 49.949091 60.201584 50.175105 59.837333 50.401119 59.473476 50.627133 59.110013 50.853147 58.746948 51.079161 58.384283 51.305175 58.022020 51.531189 57.660161 51.757203 57.298709 51.983217 56.937666 52.209231 56.577035 52.435245 56.216818 52.661259 55.857017 52.887273 55.497635 53.113287 55.138673 53.339301 54.780135 53.565315 54.422023 53.791329 54.064338 54.017343 53.707084 54.243357 53.350263 54.469371 52.993877 54.695385 52.637928 54.921399 52.282419 55.147413 51.927352 55.373427 51.572729 55.599441 51.218554 55.825455 50.864827 56.051469 50.511552 56.277483 50.158731 56.503497 49.806366 56.729510 49.454460 56.955524 49.103014 57.181538 48.752032 57.407552 48.401516 57.633566 48.051467 57.859580 47.701889 58.085594 47.352784 58.311608 47.004154 58.537622 46.656001 58.763636 46.308327 58.989650 45.961136 59.215664 45.614429 59.441678 45.268210 59.667692 44.922479 59.893706 44.577240 60.119720 44.232494 60.345734 43.888245 60.571748 43.544494 60.797762 43.201245 61.023776 42.858498 61.249790 42.516257 61.475804 42.174525 61.701818 41.833302 61.927832 41.492592 62.153846 41.152397 62.379860 40.812720 62.605874 40.473562 62.831888 40.134926 63.057902 39.796815 63.283916 39.459231 63.509930 39.122175 63.735944 38.785652 63.961958 38.449661 64.187972 38.114208 64.413986 37.779292 64.640000 37.444918 64.866014 37.111087 65.092028 36.777801 65.318042 36.445064 65.544056 36.112876 65.770070 35.781242 65.996084 35.450162 66.222098 35.119640 66.448112 34.789677 66.674126 34.460276 66.900140 34.131440 67.126154 33.803171 67.352168 33.475471 67.578182 33.148342 67.804196 32.821787 68.030210 32.495808 68.256224 32.170408 68.482238 31.845588 68.708252 31.521352 68.934266 31.197701 69.160280 30.874646 69.386294 30.552228 69.612308 30.230495 69.838322 29.909496 70.064336 29.589280 70.290350 29.269896 70.516364 28.951392 70.742378 28.633817 70.968392 28.317220 71.194406 28.001649 71.420420 27.687154 71.646434 27.373782 71.872448 27.061584 72.098462 26.750606 72.324476 26.440899 72.550490 26.132511 72.776503 25.825491 73.002517 25.519887 73.228531 25.215748 73.454545 24.913123 73.680559 24.612061 73.906573 24.312610 74.132587 24.014819 74.358601 23.718737 74.584615 23.424412 74.810629 23.131894 75.036643 22.841231 75.262657 22.552471 75.488671 22.265664 75.714685 21.980858 75.940699 21.698103 76.166713 21.417445 76.392727 21.138936 76.618741 20.862622 76.844755 20.588553 77.070769 20.316778 77.296783 20.047345 77.522797 19.780304 77.748811 19.515702 77.974825 19.253589 78.200839 18.994013 78.426853 18.737023 78.652867 18.482667 78.878881 18.230996 79.104895 17.982056 79.330909 17.735898 79.556923 17.492569 79.782937 17.252118 80.008951 17.014595 80.234965 16.780048 80.460979 16.548525 80.686993 16.320076 80.913007 16.094749 81.139021 15.872592 81.365035 15.653655 81.591049 15.437987 81.817063 15.225635 82.043077 15.016650 82.269091 14.811079 82.495105 14.608971 82.721119 14.410375 82.947133 14.215339 83.173147 14.023914 83.399161 13.836146 83.625175 13.652085 83.851189 13.471780 84.077203 13.295279 84.303217 13.122632 84.529231 12.953886 84.755245 12.789091 84.981259 12.628295 85.207273 12.471547 85.433287 12.318896 85.659301 12.170391 85.885315 12.026080 86.111329 11.886011 86.337343 11.750235 86.563357 11.618799 86.789371 11.491752 87.015385 11.369143 87.241399 11.251021 87.467413 11.137434 87.693427 11.028431 87.919441 10.924061 88.145455 10.824373 88.371469 10.729415 88.597483 10.639236 88.823497 10.553885 89.049510 10.473411 89.275524 10.397861 89.501538 10.327286 89.727552 10.261733 89.953566 10.201252 90.179580 10.145891 90.405594 10.095699 90.631608 10.050725 90.857622 10.011017 91.083636 9.976625 91.309650 9.947596 91.535664 9.923980 91.761678 9.905825 91.987692 9.893180 92.213706 9.886094 92.439720 9.884615 92.665734 9.888793 92.891748 9.898676 93.117762 9.914313 93.343776 9.935752 93.569790 9.963042 93.795804 9.996232 94.021818 10.035371 94.247832 10.080508 94.473846 10.131690 94.699860 10.188967 94.925874 10.252388 95.151888 10.322002 95.377902 10.397856 95.603916 10.480001 95.829930 10.568483 96.055944 10.663353 96.281958 10.764660 96.507972 10.872451 96.733986 10.986775 96.960000 11.107682 97.186014 11.235219 97.412028 11.369437 97.638042 11.510382 97.864056 11.658105 98.090070 11.812654 98.316084 11.974078 98.542098 12.142424 98.768112 12.317743 98.994126 12.500083 99.220140 12.689492 99.446154 12.886020 99.672168 13.089715 99.898182 13.300625 100.124196 13.518800 100.350210 13.744288 100.576224 13.977139 100.802238 14.217399 101.028252 14.465120 101.254266 14.720348 101.480280 14.983134 101.706294 15.253525 101.932308 15.531570 102.158322 15.817319 102.384336 16.110819 102.610350 16.412120 102.836364 16.721271 103.062378 17.038319 103.288392 17.363314 103.514406 17.696305 103.740420 18.037340 103.966434 18.386468 104.192448 18.743738 104.418462 19.109198 104.644476 19.482897 104.870490 19.864884 105.096503 20.255208 105.322517 20.653917 105.548531 21.061061 105.774545 21.476687 106.000559 21.900845 106.226573 22.333583 106.452587 22.774951 106.678601 23.224996 106.904615 23.683767 107.130629 24.151314 107.356643 24.627685 107.582657 25.112929 107.808671 25.607094 108.034685 26.110229 108.260699 26.622384 108.486713 27.143606 108.712727 27.673944 108.938741 28.213447 109.164755 28.762165 109.390769 29.320145 109.616783 29.887436 109.842797 30.464087 110.068811 31.050148 110.294825 31.645665 110.520839 32.250689 110.746853 32.865269 110.972867 33.489451 111.198881 34.123287 111.424895 34.766823 111.650909 35.420110 111.876923 36.083195 112.102937 36.756127 112.328951 37.438956 112.554965 38.131730 112.780979 38.834497 113.006993 39.547307 113.233007 40.270207 113.459021 41.003248 113.685035 41.746477 113.911049 42.499943 114.137063 43.263696 114.363077 44.037783 114.589091 44.822253 114.815105 45.617156 115.041119 46.422540 115.267133 47.238454 115.493147 48.064946 115.719161 48.902065 115.945175 49.749860 116.171189 50.608380 116.397203 51.477673 116.623217 52.357788 116.849231 53.248774 117.075245 54.150680 117.301259 55.063554 117.527273 55.987444 117.753287 56.922401 117.979301 57.868472 118.205315 58.825707 118.431329 59.794153 118.657343 60.773861 118.883357 61.764877 119.109371 62.767252 119.335385 63.781034 119.561399 64.806271 119.787413 65.843013 120.013427 66.891308 120.239441 67.951204 120.465455 69.022752 120.691469 70.105998 120.917483 71.200993 121.143497 72.307784 121.369510 73.426421 121.595524 74.556953 121.821538 75.699427 122.047552 76.853893 122.273566 78.020399 122.499580 79.198995 122.725594 80.389728 122.951608 81.592649 123.177622 82.807804 123.403636 84.035244 123.629650 85.275017 123.855664 86.527171 124.081678 87.791755 124.307692 89.068819 124.533706 90.358410 124.759720 91.660578 124.985734 92.975372 125.211748 94.302839 125.437762 95.643029 125.663776 96.995961 125.889790 98.361535 126.115804 99.739625 126.341818 101.130100 126.567832 102.532832 126.793846 103.947693 127.019860 105.374554 127.245874 106.813287 127.471888 108.263763 127.697902 109.725854 127.923916 111.199430 128.149930 112.684364 128.375944 114.180527 128.601958 115.687790 128.827972 117.206026 129.053986 118.735104 129.280000 120.274897 129.506014 121.825276 129.732028 123.386113 129.958042 124.957279 130.184056 126.538646 130.410070 128.130084 130.636084 129.731466 130.862098 131.342663 131.088112 132.963546 131.314126 134.593987 131.540140 136.233857 131.766154 137.883028 131.992168 139.541372 132.218182 141.208758 132.444196 142.885060 132.670210 144.570148 132.896224 146.263895 133.122238 147.966170 133.348252 149.676847 133.574266 151.395796 133.800280 153.122889 134.026294 154.857997 134.252308 156.600991 134.478322 158.351744 134.704336 160.110127 134.930350 161.876010 135.156364 163.649266 135.382378 165.429766 135.608392 167.217382 135.834406 169.011984 136.060420 170.813444 136.286434 172.621635 136.512448 174.436426 136.738462 176.257691 136.964476 178.085299 137.190490 179.919123 137.416503 181.759034 137.642517 183.604903 137.868531 185.456603 138.094545 187.314004 138.320559 189.176977 138.546573 191.045395 138.772587 192.919129 138.998601 194.798050 139.224615 196.682030 139.450629 198.570939 139.676643 200.464651 139.902657 202.363035 140.128671 204.265964 140.354685 206.173309 140.580699 208.084941 140.806713 210.000732 141.032727 211.920553 141.258741 213.844276 141.484755 215.771772 141.710769 217.702913 141.936783 219.637570 142.162797 221.575615 142.388811 223.516918 142.614825 225.461352 142.840839 227.408788 143.066853 229.359097 143.292867 231.312152 143.518881 233.267822 143.744895 235.225980 143.970909 237.186497 144.196923 239.149245 144.422937 241.114095 144.648951 243.080919 144.874965 245.049587 145.100979 247.019972 145.326993 248.991945 145.553007 250.965378 145.779021 252.940141 146.005035 254.916106 146.231049 256.893145 146.457063 258.871129 146.683077 260.849930 146.909091 262.829419 147.135105 264.809467 147.361119 266.789947 147.587133 268.770729 147.813147 270.751684 148.039161 272.732686 148.265175 274.713603 148.491189 276.694310 148.717203 278.674675 148.943217 280.654572 149.169231 282.633872 149.395245 284.612446 149.621259 286.590165 149.847273 288.566901 150.073287 290.542525 150.299301 292.516910 150.525315 294.489926 150.751329 296.461444 150.977343 298.431337 151.203357 300.399475 151.429371 302.365731 151.655385 304.329975 151.881399 306.292079 152.107413 308.251915 152.333427 310.209354 152.559441 312.164267 152.785455 314.116526 153.011469 316.066002 153.237483 318.012567 153.463497 319.956092 153.689510 321.896449 153.915524 323.833509 154.141538 325.767143 154.367552 327.697224 154.593566 329.623622 154.819580 331.546209 155.045594 333.464857 155.271608 335.379436 155.497622 337.289818 155.723636 339.195876 155.949650 341.097479 156.175664 342.994500 156.401678 344.886811 156.627692 346.774282 156.853706 348.656784 157.079720 350.534191 157.305734 352.406372 157.531748 354.273200 157.757762 356.134545 157.983776 357.990280 158.209790 359.840275 158.435804 361.684403 158.661818 363.522534 158.887832 365.354541 159.113846 367.180294 159.339860 368.999665 159.565874 370.812525 159.791888 372.618746 160.017902 374.418200 160.243916 376.210757 160.469930 377.996290 160.695944 379.774670 160.921958 381.545767 161.147972 383.309454 161.373986 385.065603 161.600000 386.814084 161.826014 388.554769 162.052028 390.287529 162.278042 392.012236 162.504056 393.728762 162.730070 395.436977 162.956084 397.136753 163.182098 398.827963 163.408112 400.510476 163.634126 402.184165 163.860140 403.848901 164.086154 405.504556 164.312168 407.151001 164.538182 408.788107 164.764196 410.415746 164.990210 412.033789 165.216224 413.642108 165.442238 415.240574 165.668252 416.829059 165.894266 418.407434 166.120280 419.975571 166.346294 421.533341 166.572308 423.080615 166.798322 424.617265 167.024336 426.143163 167.250350 427.658179 167.476364 429.162186 167.702378 430.655055 167.928392 432.136656 168.154406 433.606863 168.380420 435.065546 168.606434 436.512576 168.832448 437.947825 169.058462 439.371165 169.284476 440.782466 169.510490 442.181601 169.736503 443.568441 169.962517 444.942857 170.188531 446.304721 170.414545 447.653904 170.640559 448.990278 170.866573 450.313714 171.092587 451.624084 171.318601 452.921258 171.544615 454.205109 171.770629 455.475508 171.996643 456.732326 172.222657 457.975436 172.448671 459.204707 172.674685 460.420012 172.900699 461.621222 173.126713 462.808209 173.352727 463.980844 173.578741 465.138999 173.804755 466.282545 174.030769 467.411353 174.256783 468.525295 174.482797 469.624242 174.708811 470.708067 174.934825 471.776639 175.160839 472.829831 175.386853 473.867515 175.612867 474.889561 175.838881 475.895841 176.064895 476.886226 176.290909 477.860589 176.516923 478.818800 176.742937 479.760731 176.968951 480.686253 177.194965 481.595238 177.420979 482.487558 177.646993 483.363083 177.873007 484.221685 178.099021 485.063236 178.325035 485.887607 178.551049 486.694669 178.777063 487.484295 179.003077 488.256355 179.229091 489.010720 179.455105 489.747264 179.681119 490.465855 179.907133 491.166368 180.133147 491.848671 180.359161 492.512638 180.585175 493.158140 180.811189 493.785048 181.037203 494.393233 181.263217 494.982567 181.489231 495.552921 181.715245 496.104168 181.941259 496.636177 182.167273 497.148863 182.393287 497.642299 182.619301 498.116602 182.845315 498.571890 183.071329 499.008276 183.297343 499.425879 183.523357 499.824814 183.749371 500.205198 183.975385 500.567146 184.201399 500.910775 184.427413 501.236202 184.653427 501.543542 184.879441 501.832912 185.105455 502.104427 185.331469 502.358205 185.557483 502.594361 185.783497 502.813012 186.009510 503.014274 186.235524 503.198263 186.461538 503.365096 186.687552 503.514888 186.913566 503.647756 187.139580 503.763817 187.365594 503.863186 187.591608 503.945979 187.817622 504.012313 188.043636 504.062305 188.269650 504.096070 188.495664 504.113724 188.721678 504.115385 188.947692 504.101167 189.173706 504.071188 189.399720 504.025564 189.625734 503.964410 189.851748 503.887844 190.077762 503.795980 190.303776 503.688937 190.529790 503.566829 190.755804 503.429774 190.981818 503.277886 191.207832 503.111284 191.433846 502.930082 191.659860 502.734397 191.885874 502.524346 192.111888 502.300044 192.337902 502.061608 192.563916 501.809154 192.789930 501.542798 193.015944 501.262657 193.241958 500.968846 193.467972 500.661483 193.693986 500.340683 193.920000 500.006563 194.146014 499.659238 194.372028 499.298825 194.598042 498.925441 194.824056 498.539201 195.050070 498.140221 195.276084 497.728619 195.502098 497.304510 195.728112 496.868011 195.954126 496.419237 196.180140 495.958305 196.406154 495.485332 196.632168 495.000433 196.858182 494.503724 197.084196 493.995323 197.310210 493.475345 197.536224 492.943906 197.762238 492.401123 197.988252 491.847112 198.214266 491.281989 198.440280 490.705870 198.666294 490.118872 198.892308 489.521112 199.118322 488.912704 199.344336 488.293766 199.570350 487.664413 199.796364 487.024762 200.022378 486.374929 200.248392 485.715031 200.474406 485.045184 200.700420 484.365503 200.926434 483.676105 201.152448 482.977107 201.378462 482.268625 201.604476 481.550774 201.830490 480.823671 202.056503 480.087433 202.282517 479.342175 202.508531 478.588015 202.734545 477.825067 202.960559 477.053449 203.186573 476.273276 203.412587 475.484665 203.638601 474.687732 203.864615 473.882593 204.090629 473.069365 204.316643 472.248164 204.542657 471.419106 204.768671 470.582307 204.994685 469.737884 205.220699 468.885952 205.446713 468.026629 205.672727 467.160030 205.898741 466.286271 206.124755 465.405469 206.350769 464.517740 206.576783 463.623201 206.802797 462.721966 207.028811 461.814154 207.254825 460.899880 207.480839 459.979259 207.706853 459.052410 207.932867 458.119447 208.158881 457.180487 208.384895 456.235646 208.610909 455.285041 208.836923 454.328787 209.062937 453.367002 209.288951 452.399800 209.514965 451.427299 209.740979 450.449615 209.966993 449.466864 210.193007 448.479162 210.419021 447.486625 210.645035 446.489370 210.871049 445.487513 211.097063 444.481170 211.323077 443.470457 211.549091 442.455492 211.775105 441.436389 212.001119 440.413265 212.227133 439.386236 212.453147 438.355419 212.679161 437.320931 212.905175 436.282886 213.131189 435.241401 213.357203 434.196594 213.583217 433.148579 213.809231 432.097473 214.035245 431.043392 214.261259 429.986453 214.487273 428.926772 214.713287 427.864465 214.939301 426.799649 215.165315 425.732439 215.391329 424.662951 215.617343 423.591303 215.843357 422.517610 216.069371 421.441989 216.295385 420.364556 216.521399 419.285426 216.747413 418.204717 216.973427 417.122545 217.199441 416.039025 217.425455 414.954274 217.651469 413.868408 217.877483 412.781544 218.103497 411.693798 218.329510 410.605286 218.555524 409.516124 218.781538 408.426429 219.007552 407.336316 219.233566 406.245902 219.459580 405.155304 219.685594 404.064637 219.911608 402.974018 220.137622 401.883562 220.363636 400.793387 220.589650 399.703609 220.815664 398.614343 221.041678 397.525706 221.267692 396.437814 221.493706 395.350784 221.719720 394.264731 221.945734 393.179773 222.171748 392.096024 222.397762 391.013602 222.623776 389.932623 222.849790 388.853202 223.075804 387.775457 223.301818 386.699503 223.527832 385.625457 223.753846 384.553435 223.979860 383.483552 224.205874 382.415926 224.431888 381.350673 224.657902 380.287909 224.883916 379.227750 225.109930 378.170312 225.335944 377.115712 225.561958 376.064066 225.787972 375.015489 226.013986 373.970099 226.240000 372.928012 226.466014 371.889344 226.692028 370.854210 226.918042 369.822728 227.144056 368.795014 227.370070 367.771183 227.596084 366.751353 227.822098 365.735638 228.048112 364.724157 228.274126 363.717024 228.500140 362.714356 228.726154 361.716269 228.952168 360.722880 229.178182 359.734305 229.404196 358.750660 229.630210 357.772061 229.856224 356.798625 230.082238 355.830467 230.308252 354.867704 230.534266 353.910453 230.760280 352.958829 230.986294 352.012949 231.212308 351.072929 231.438322 350.138885 231.664336 349.210934 231.890350 348.289191 232.116364 347.373773 232.342378 346.464797 232.568392 345.562378 232.794406 344.666632 233.020420 343.777677 233.246434 342.895628 233.472448 342.020601 233.698462 341.152713 233.924476 340.292080 234.150490 339.438818 234.376503 338.593043 234.602517 337.754872 234.828531 336.924421 235.054545 336.101807 235.280559 335.287144 235.506573 334.480551 235.732587 333.682142 235.958601 332.892034 236.184615 332.110344 236.410629 331.337187 236.636643 330.572680 236.862657 329.816940 237.088671 329.070081 237.314685 328.332222 237.540699 327.603477 237.766713 326.883963 237.992727 326.173797 238.218741 325.473094 238.444755 324.781971 238.670769 324.100516 238.896783 323.428703 239.122797 322.766481 239.348811 322.113795 239.574825 321.470592 239.800839 320.836819 240.026853 320.212422 240.252867 319.597350 240.478881 318.991547 240.704895 318.394962 240.930909 317.807541 241.156923 317.229230 241.382937 316.659977 241.608951 316.099728 241.834965 315.548430 242.060979 315.006030 242.286993 314.472475 242.513007 313.947711 242.739021 313.431685 242.965035 312.924344 243.191049 312.425634 243.417063 311.935503 243.643077 311.453898 243.869091 310.980764 244.095105 310.516050 244.321119 310.059701 244.547133 309.611664 244.773147 309.171887 244.999161 308.740315 245.225175 308.316896 245.451189 307.901577 245.677203 307.494304 245.903217 307.095025 246.129231 306.703685 246.355245 306.320231 246.581259 305.944612 246.807273 305.576772 247.033287 305.216659 247.259301 304.864221 247.485315 304.519402 247.711329 304.182151 247.937343 303.852415 248.163357 303.530139 248.389371 303.215271 248.615385 302.907757 248.841399 302.607544 249.067413 302.314580 249.293427 302.028810 249.519441 301.750182 249.745455 301.478643 249.971469 301.214138 250.197483 300.956616 250.423497 300.706022 250.649510 300.462304 250.875524 300.225408 251.101538 299.995281 251.327552 299.771870 251.553566 299.555122 251.779580 299.344983 252.005594 299.141400 252.231608 298.944320 252.457622 298.753690 252.683636 298.569456 252.909650 298.391566 253.135664 298.219966 253.361678 298.054603 253.587692 297.895423 253.813706 297.742374 254.039720 297.595402 254.265734 297.454454 254.491748 297.319477 254.717762 297.190418 254.943776 297.067223 255.169790 296.949839 255.395804 296.838213 255.621818 296.732291 255.847832 296.632021 256.073846 296.537350 256.299860 296.448223 256.525874 296.364588 256.751888 296.286392 256.977902 296.213582 257.203916 296.146103 257.429930 296.083903 257.655944 296.026929 257.881958 295.975128 258.107972 295.928446 258.333986 295.886830 258.560000 295.850227 258.786014 295.818584 259.012028 295.791846 259.238042 295.769963 259.464056 295.752879 259.690070 295.740542 259.916084 295.732898 260.142098 295.729895 260.368112 295.731479 260.594126 295.737597 260.820140 295.748195 261.046154 295.763221 261.272168 295.782621 261.498182 295.806343 261.724196 295.834332 261.950210 295.866535 262.176224 295.902900 262.402238 295.943373 262.628252 295.987902 262.854266 296.036431 263.080280 296.088910 263.306294 296.145283 263.532308 296.205499 263.758322 296.269503 263.984336 296.337243 264.210350 296.408666 264.436364 296.483717 264.662378 296.562345 264.888392 296.644495 265.114406 296.730115 265.340420 296.819151 265.566434 296.911551 265.792448 297.007260 266.018462 297.106226 266.244476 297.208395 266.470490 297.313715 266.696503 297.422131 266.922517 297.533591 267.148531 297.648042 267.374545 297.765430 267.600559 297.885703 267.826573 298.008806 268.052587 298.134687 268.278601 298.263292 268.504615 298.394569 268.730629 298.528463 268.956643 298.664923 269.182657 298.803894 269.408671 298.945323 269.634685 299.089158 269.860699 299.235345 270.086713 299.383830 270.312727 299.534561 270.538741 299.687484 270.764755 299.842546 270.990769 299.999694 271.216783 300.158874 271.442797 300.320034 271.668811 300.483121 271.894825 300.648080 272.120839 300.814859 272.346853 300.983404 272.572867 301.153663 272.798881 301.325582 273.024895 301.499108 273.250909 301.674187 273.476923 301.850767 273.702937 302.028794 273.928951 302.208216 274.154965 302.388978 274.380979 302.571027 274.606993 302.754311 274.833007 302.938776 275.059021 303.124369 275.285035 303.311037 275.511049 303.498726 275.737063 303.687383 275.963077 303.876956 276.189091 304.067390 276.415105 304.258633 276.641119 304.450631 276.867133 304.643331 277.093147 304.836681 277.319161 305.030626 277.545175 305.225114 277.771189 305.420090 277.997203 305.615503 278.223217 305.811299 278.449231 306.007425 278.675245 306.203827 278.901259 306.400452 279.127273 306.597247 279.353287 306.794159 279.579301 306.991134 279.805315 307.188120 280.031329 307.385063 280.257343 307.581910 280.483357 307.778607 280.709371 307.975102 280.935385 308.171341 281.161399 308.367272 281.387413 308.562840 281.613427 308.757992 281.839441 308.952676 282.065455 309.146838 282.291469 309.340425 282.517483 309.533384 282.743497 309.725661 282.969510 309.917204 283.195524 310.107958 283.421538 310.297872 283.647552 310.486891 283.873566 310.674962 284.099580 310.862033 284.325594 311.048049 284.551608 311.232959 284.777622 311.416707 285.003636 311.599243 285.229650 311.780511 285.455664 311.960459 285.681678 312.139034 285.907692 312.316182 286.133706 312.491850 286.359720 312.665986 286.585734 312.838535 286.811748 313.009445 287.037762 313.178662 287.263776 313.346133 287.489790 313.511805 287.715804 313.675625 287.941818 313.837539 288.167832 313.997495 288.393846 314.155438 288.619860 314.311317 288.845874 314.465077 289.071888 314.616665 289.297902 314.766028 289.523916 314.913114 289.749930 315.057868 289.975944 315.200238 290.201958 315.340170 290.427972 315.477611 290.653986 315.612508 290.880000 315.744807 291.106014 315.874456 291.332028 316.001401 291.558042 316.125589 291.784056 316.246967 292.010070 316.365481 292.236084 316.481079 292.462098 316.593707 292.688112 316.703312 292.914126 316.809840 293.140140 316.913239 293.366154 317.013455 293.592168 317.110435 293.818182 317.204126 294.044196 317.294474 294.270210 317.381427 294.496224 317.464931 294.722238 317.544932 294.948252 317.621379 295.174266 317.694226 295.400280 317.763468 295.626294 317.829108 295.852308 317.891149 296.078322 317.949593 296.304336 318.004445 296.530350 318.055707 296.756364 318.103383 296.982378 318.147475 297.208392 318.187987 297.434406 318.224922 297.660420 318.258283 297.886434 318.288073 298.112448 318.314295 298.338462 318.336953 298.564476 318.356049 298.790490 318.371587 299.016503 318.383570 299.242517 318.392001 299.468531 318.396883 299.694545 318.398220 299.920559 318.396013 300.146573 318.390268 300.372587 318.380986 300.598601 318.368170 300.824615 318.351825 301.050629 318.331953 301.276643 318.308557 301.502657 318.281641 301.728671 318.251207 301.954685 318.217259 302.180699 318.179799 302.406713 318.138832 302.632727 318.094359 302.858741 318.046385 303.084755 317.994912 303.310769 317.939944 303.536783 317.881483 303.762797 317.819533 303.988811 317.754097 304.214825 317.685179 304.440839 317.612780 304.666853 317.536905 304.892867 317.457556 305.118881 317.374737 305.344895 317.288450 305.570909 317.198700 305.796923 317.105488 306.022937 317.008819 306.248951 316.908695 306.474965 316.805120 306.700979 316.698096 306.926993 316.587627 307.153007 316.473715 307.379021 316.356365 307.605035 316.235579 307.831049 316.111360 308.057063 315.983712 308.283077 315.852637 308.509091 315.718139 308.735105 315.580221 308.961119 315.438886 309.187133 315.294137 309.413147 315.145977 309.639161 314.994410 309.865175 314.839438 310.091189 314.681065 310.317203 314.519294 310.543217 314.354128 310.769231 314.185570 310.995245 314.013623 311.221259 313.838291 311.447273 313.659576 311.673287 313.477482 311.899301 313.292011 312.125315 313.103168 312.351329 312.910955 312.577343 312.715375 312.803357 312.516431 313.029371 312.314127 313.255385 312.108465 313.481399 311.899449 313.707413 311.687083 313.933427 311.471368 314.159441 311.252308 314.385455 311.029907 314.611469 310.804168 314.837483 310.575093 315.063497 310.342686 315.289510 310.106949 315.515524 309.867887 315.741538 309.625502 315.967552 309.379797 316.193566 309.130776 316.419580 308.878441 316.645594 308.622796 316.871608 308.363844 317.097622 308.101589 317.323636 307.836032 317.549650 307.567177 317.775664 307.295028 318.001678 307.019588 318.227692 306.740859 318.453706 306.458845 318.679720 306.173550 318.905734 305.884975 319.131748 305.593125 319.357762 305.298002 319.583776 304.999609 319.809790 304.697951 320.035804 304.393029 320.261818 304.084847 320.487832 303.773408 320.713846 303.458716 320.939860 303.140773 321.165874 302.819582 321.391888 302.495148 321.617902 302.167472 321.843916 301.836558 322.069930 301.502409 322.295944 301.165028 322.521958 300.824419 322.747972 300.480584 322.973986 300.133527 323.200000 299.783251 323.426014 299.429759 323.652028 299.073054 323.878042 298.713139 324.104056 298.350017 324.330070 297.983692 324.556084 297.614166 324.782098 297.241444 325.008112 296.865527 325.234126 296.486419 325.460140 296.104124 325.686154 295.718644 325.912168 295.329982 326.138182 294.938142 326.364196 294.543127 326.590210 294.144939 326.816224 293.743583 327.042238 293.339061 327.268252 292.931376 327.494266 292.520532 327.720280 292.106531 327.946294 291.689377 328.172308 291.269073 328.398322 290.845622 328.624336 290.419027 328.850350 289.989291 329.076364 289.556418 329.302378 289.120410 329.528392 288.681271 329.754406 288.239004 329.980420 287.793612 330.206434 287.345098 330.432448 286.893465 330.658462 286.438717 330.884476 285.980856 331.110490 285.519886 331.336503 285.055810 331.562517 284.588631 331.788531 284.118352 332.014545 283.644976 332.240559 283.168507 332.466573 282.688947 332.692587 282.206300 332.918601 281.720568 333.144615 281.231756 333.370629 280.739866 333.596643 280.244900 333.822657 279.746864 334.048671 279.245759 334.274685 278.741588 334.500699 278.234355 334.726713 277.724063 334.952727 277.210716 335.178741 276.694315 335.404755 276.174865 335.630769 275.652368 335.856783 275.126828 336.082797 274.598248 336.308811 274.066630 336.534825 273.531979 336.760839 272.994297 336.986853 272.453587 337.212867 271.909852 337.438881 271.363097 337.664895 270.813323 337.890909 270.260534 338.116923 269.704732 338.342937 269.145923 338.568951 268.584107 338.794965 268.019289 339.020979 267.451471 339.246993 266.880657 339.473007 266.306850 339.699021 265.730053 339.925035 265.150269 340.151049 264.567502 340.377063 263.981754 340.603077 263.393028 340.829091 262.801328 341.055105 262.206657 341.281119 261.609018 341.507133 261.008414 341.733147 260.404849 341.959161 259.798324 342.185175 259.188845 342.411189 258.576413 342.637203 257.961031 342.863217 257.342704 343.089231 256.721434 343.315245 256.097224 343.541259 255.470078 343.767273 254.839998 343.993287 254.206987 344.219301 253.571050 344.445315 252.932188 344.671329 252.290406 344.897343 251.645705 345.123357 250.998091 345.349371 250.347564 345.575385 249.694129 345.801399 249.037789 346.027413 248.378547 346.253427 247.716406 346.479441 247.051369 346.705455 246.383440 346.931469 245.712621 347.157483 245.038915 347.383497 244.362327 347.609510 243.682858 347.835524 243.000512 348.061538 242.315293 348.287552 241.627202 348.513566 240.936245 348.739580 240.242422 348.965594 239.545739 349.191608 238.846197 349.417622 238.143801 349.643636 237.438553 349.869650 236.730455 350.095664 236.019513 350.321678 235.305728 350.547692 234.589103 350.773706 233.869643 350.999720 233.147349 351.225734 232.422226 351.451748 231.694276 351.677762 230.963513 351.903776 230.229994 352.129790 229.493789 352.355804 228.754964 352.581818 228.013588 352.807832 227.269730 353.033846 226.523457 353.259860 225.774837 353.485874 225.023939 353.711888 224.270831 353.937902 223.515581 354.163916 222.758257 354.389930 221.998927 354.615944 221.237660 354.841958 220.474523 355.067972 219.709585 355.293986 218.942914 355.520000 218.174578 355.746014 217.404645 355.972028 216.633184 356.198042 215.860262 356.424056 215.085948 356.650070 214.310309 356.876084 213.533415 357.102098 212.755333 357.328112 211.976131 357.554126 211.195878 357.780140 210.414641 358.006154 209.632489 358.232168 208.849490 358.458182 208.065712 358.684196 207.281223 358.910210 206.496092 359.136224 205.710386 359.362238 204.924174 359.588252 204.137524 359.814266 203.350504 360.040280 202.563182 360.266294 201.775627 360.492308 200.987906 360.718322 200.200087 360.944336 199.412240 361.170350 198.624431 361.396364 197.836730 361.622378 197.049204 361.848392 196.261921 362.074406 195.474950 362.300420 194.688358 362.526434 193.902215 362.752448 193.116587 362.978462 192.331544 363.204476 191.547153 363.430490 190.763483 363.656503 189.980602 363.882517 189.198577 364.108531 188.417477 364.334545 187.637370 364.560559 186.858325 364.786573 186.080409 365.012587 185.303691 365.238601 184.528239 365.464615 183.754120 365.690629 182.981404 365.916643 182.210158 366.142657 181.440450 366.368671 180.672349 366.594685 179.905923 366.820699 179.141239 367.046713 178.378367 367.272727 177.617373 367.498741 176.858327 367.724755 176.101297 367.950769 175.346350 368.176783 174.593555 368.402797 173.842980 368.628811 173.094693 368.854825 172.348762 369.080839 171.605256 369.306853 170.864243 369.532867 170.125790 369.758881 169.389966 369.984895 168.656839 370.210909 167.926477 370.436923 167.198949 370.662937 166.474322 370.888951 165.752665 371.114965 165.034046 371.340979 164.318533 371.566993 163.606194 371.793007 162.897097 372.019021 162.191311 372.245035 161.488903 372.471049 160.789942 372.697063 160.094496 372.923077 159.402633 373.149091 158.714422 373.375105 158.029929 373.601119 157.349225 373.827133 156.672376 374.053147 155.999451 374.279161 155.330518 374.505175 154.665645 374.731189 154.004900 374.957203 153.348352 375.183217 152.696069 375.409231 152.048119 375.635245 151.404569 375.861259 150.765488 376.087273 150.130945 376.313287 149.501008 376.539301 148.875743 376.765315 148.255221 376.991329 147.639509 377.217343 147.028674 377.443357 146.422786 377.669371 145.821912 377.895385 145.226121 378.121399 144.635480 378.347413 144.050058 378.573427 143.469924 378.799441 142.895144 379.025455 142.325788 379.251469 141.761923 379.477483 141.203618 379.703497 140.650940 379.929510 140.103959 380.155524 139.562741 380.381538 139.027356 380.607552 138.497871 380.833566 137.974355 381.059580 137.456876 381.285594 136.945501 381.511608 136.440299 381.737622 135.941339 381.963636 135.448688 382.189650 134.962414 382.415664 134.482586 382.641678 134.009272 382.867692 133.542540 383.093706 133.082458 383.319720 132.629094 383.545734 132.182517 383.771748 131.742794 383.997762 131.309994 384.223776 130.884185 384.449790 130.465435 384.675804 130.053812 384.901818 129.649385 385.127832 129.252221 385.353846 128.862389 385.579860 128.479956 385.805874 128.104992 386.031888 127.737564 386.257902 127.377740 386.483916 127.025588 386.709930 126.681177 386.935944 126.344575 387.161958 126.015850 387.387972 125.695070 387.613986 125.382303 387.840000 125.077618 388.066014 124.781082 388.292028 124.492764 388.518042 124.212732 388.744056 123.941053 388.970070 123.677797 389.196084 123.423031 389.422098 123.176824 389.648112 122.939244 389.874126 122.710358 390.100140 122.490235 390.326154 122.278943 390.552168 122.076551 390.778182 121.883126 391.004196 121.698737 391.230210 121.523451 391.456224 121.357337 391.682238 121.200463 391.908252 121.052898 392.134266 120.914709 392.360280 120.785964 392.586294 120.666732 392.812308 120.557081 393.038322 120.457079 393.264336 120.366794 393.490350 120.286295 393.716364 120.215648 393.942378 120.154924 394.168392 120.104189 394.394406 120.063512 394.620420 120.032961 394.846434 120.012605 395.072448 120.002511 395.298462 120.002747 395.524476 120.013382 395.750490 120.034484 395.976503 120.066121 396.202517 120.108362 396.428531 120.161273 396.654545 120.224924 396.880559 120.299383 397.106573 120.384717 397.332587 120.480996 397.558601 120.588286 397.784615 120.706657 398.010629 120.836177 398.236643 120.976912 398.462657 121.128933 398.688671 121.292306 398.914685 121.467101 399.140699 121.653385 399.366713 121.851226 399.592727 122.060693 399.818741 122.281853 400.044755 122.514775 400.270769 122.759527 400.496783 123.016178 400.722797 123.284794 400.948811 123.565445 401.174825 123.858199 401.400839 124.163123 401.626853 124.480287 401.852867 124.809757 402.078881 125.151603 402.304895 125.505892 402.530909 125.872693 402.756923 126.252073 402.982937 126.644101 403.208951 127.048846 403.434965 127.466374 403.660979 127.896755 403.886993 128.340056 404.113007 128.796346 404.339021 129.265693 404.565035 129.748164 404.791049 130.243829 405.017063 130.752755 405.243077 131.275011 405.469091 131.810664 405.695105 132.359782 405.921119 132.922435 406.147133 133.498690 406.373147 134.088615 406.599161 134.692278 406.825175 135.309748 407.051189 135.941092 407.277203 136.586380 407.503217 137.245678 407.729231 137.919056 407.955245 138.606580 408.181259 139.308289 408.407273 140.024091 408.633287 140.753865 408.859301 141.497490 409.085315 142.254842 409.311329 143.025801 409.537343 143.810245 409.763357 144.608052 409.989371 145.419100 410.215385 146.243268 410.441399 147.080433 410.667413 147.930474 410.893427 148.793269 411.119441 149.668696 411.345455 150.556634 411.571469 151.456960 411.797483 152.369554 412.023497 153.294292 412.249510 154.231054 412.475524 155.179717 412.701538 156.140161 412.927552 157.112262 413.153566 158.095900 413.379580 159.090952 413.605594 160.097296 413.831608 161.114812 414.057622 162.143376 414.283636 163.182868 414.509650 164.233166 414.735664 165.294147 414.961678 166.365690 415.187692 167.447673 415.413706 168.539975 415.639720 169.642474 415.865734 170.755047 416.091748 171.877573 416.317762 173.009930 416.543776 174.151997 416.769790 175.303652 416.995804 176.464773 417.221818 177.635238 417.447832 178.814925 417.673846 180.003712 417.899860 181.201479 418.125874 182.408102 418.351888 183.623461 418.577902 184.847433 418.803916 186.079897 419.029930 187.320730 419.255944 188.569812 419.481958 189.827020 419.707972 191.092233 419.933986 192.365328 420.160000 193.646184 420.386014 194.934679 420.612028 196.230692 420.838042 197.534101 421.064056 198.844783 421.290070 200.162617 421.516084 201.487482 421.742098 202.819255 421.968112 204.157814 422.194126 205.503039 422.420140 206.854806 422.646154 208.212995 422.872168 209.577484 423.098182 210.948150 423.324196 212.324873 423.550210 213.707529 423.776224 215.095998 424.002238 216.490158 424.228252 217.889886 424.454266 219.295062 424.680280 220.705563 424.906294 222.121267 425.132308 223.542053 425.358322 224.967799 425.584336 226.398383 425.810350 227.833684 426.036364 229.273579 426.262378 230.717947 426.488392 232.166666 426.714406 233.619614 426.940420 235.076670 427.166434 236.537711 427.392448 238.002617 427.618462 239.471264 427.844476 240.943532 428.070490 242.419298 428.296503 243.898441 428.522517 245.380839 428.748531 246.866370 428.974545 248.354913 429.200559 249.846345 429.426573 251.340545 429.652587 252.837391 429.878601 254.336762 430.104615 255.838534 430.330629 257.342588 430.556643 258.848801 430.782657 260.357050 431.008671 261.867215 431.234685 263.379174 431.460699 264.892805 431.686713 266.407985 431.912727 267.924594 432.138741 269.442509 432.364755 270.961609 432.590769 272.481771 432.816783 274.002875 433.042797 275.524798 433.268811 277.047419 433.494825 278.570615 433.720839 280.094266 433.946853 281.618248 434.172867 283.142441 434.398881 284.666723 434.624895 286.190971 434.850909 287.715065 435.076923 289.238881 435.302937 290.762300 435.528951 292.285198 435.754965 293.807453 435.980979 295.328945 436.206993 296.849552 436.433007 298.369151 436.659021 299.887620 436.885035 301.404839 437.111049 302.920685 437.337063 304.435036 437.563077 305.947771 437.789091 307.458768 438.015105 308.967905 438.241119 310.475061 438.467133 311.980112 438.693147 313.482939 438.919161 314.983418 439.145175 316.481429 439.371189 317.976849 439.597203 319.469557 439.823217 320.959430 440.049231 322.446348 440.275245 323.930188 440.501259 325.410828 440.727273 326.888147 440.953287 328.362023 441.179301 329.832334 441.405315 331.298958 441.631329 332.761774 441.857343 334.220660 442.083357 335.675493 442.309371 337.126153 442.535385 338.572518 442.761399 340.014464 442.987413 341.451872 443.213427 342.884619 443.439441 344.312583 443.665455 345.735643 443.891469 347.153676 444.117483 348.566562 444.343497 349.974177 444.569510 351.376401 444.795524 352.773112 445.021538 354.164187 445.247552 355.549506 445.473566 356.928945 445.699580 358.302384 445.925594 359.669701 446.151608 361.030774 446.377622 362.385480 446.603636 363.733699 446.829650 365.075309 447.055664 366.410187 447.281678 367.738213 447.507692 369.059263 447.733706 370.373217 447.959720 371.679953 448.185734 372.979349 448.411748 374.271282 448.637762 375.555632 448.863776 376.832276 449.089790 378.101093 449.315804 379.361961 449.541818 380.614758 449.767832 381.859363 449.993846 383.095653 450.219860 384.323507 450.445874 385.542803 450.671888 386.753419 450.897902 387.955234 451.123916 389.148125 451.349930 390.331971 451.575944 391.506650 451.801958 392.672041 452.027972 393.828021 452.253986 394.974469 452.480000 396.111263 452.706014 397.238281 452.932028 398.355401 453.158042 399.462502 453.384056 400.559462 453.610070 401.646159 453.836084 402.722471 454.062098 403.788277 454.288112 404.843454 454.514126 405.887882 454.740140 406.921437 454.966154 407.943999 455.192168 408.955446 455.418182 409.955655 455.644196 410.944505 455.870210 411.921874 456.096224 412.887641 456.322238 413.841684 456.548252 414.783880 456.774266 415.714109 457.000280 416.632248 457.226294 417.538175 457.452308 418.431769 457.678322 419.312908 457.904336 420.181470 458.130350 421.037334 458.356364 421.880377 458.582378 422.710478 458.808392 423.527515 459.034406 424.331367 459.260420 425.121911 459.486434 425.899025 459.712448 426.662589 459.938462 427.412479 460.164476 428.148575 460.390490 428.870755 460.616503 429.578896 460.842517 430.272877 461.068531 430.952577 461.294545 431.617872 461.520559 432.268643 461.746573 432.904766 461.972587 433.526121 462.198601 434.132585 462.424615 434.724036 462.650629 435.300353 462.876643 435.861414 463.102657 436.407097 463.328671 436.937281 463.554685 437.451843 463.780699 437.950662 464.006713 438.433616 464.232727 438.900583 464.458741 439.351442 464.684755 439.786105 464.910769 440.204624 465.136783 440.607085 465.362797 440.993575 465.588811 441.364179 465.814825 441.718985 466.040839 442.058078 466.266853 442.381544 466.492867 442.689470 466.718881 442.981942 466.944895 443.259047 467.170909 443.520870 467.396923 443.767498 467.622937 443.999017 467.848951 444.215514 468.074965 444.417074 468.300979 444.603784 468.526993 444.775731 468.753007 444.933000 468.979021 445.075678 469.205035 445.203850 469.431049 445.317604 469.657063 445.417026 469.883077 445.502201 470.109091 445.573217 470.335105 445.630158 470.561119 445.673113 470.787133 445.702166 471.013147 445.717404 471.239161 445.718914 471.465175 445.706782 471.691189 445.681093 471.917203 445.641935 472.143217 445.589393 472.369231 445.523554 472.595245 445.444504 472.821259 445.352329 473.047273 445.247115 473.273287 445.128950 473.499301 444.997919 473.725315 444.854107 473.951329 444.697603 474.177343 444.528491 474.403357 444.346859 474.629371 444.152792 474.855385 443.946376 475.081399 443.727699 475.307413 443.496846 475.533427 443.253903 475.759441 442.998957 475.985455 442.732094 476.211469 442.453400 476.437483 442.162962 476.663497 441.860866 476.889510 441.547197 477.115524 441.222043 477.341538 440.885490 477.567552 440.537624 477.793566 440.178530 478.019580 439.808296 478.245594 439.427008 478.471608 439.034752 478.697622 438.631613 478.923636 438.217680 479.149650 437.793037 479.375664 437.357771 479.601678 436.911968 479.827692 436.455715 480.053706 435.989098 480.279720 435.512202 480.505734 435.025116 480.731748 434.527923 480.957762 434.020712 481.183776 433.503567 481.409790 432.976577 481.635804 432.439825 481.861818 431.893400 482.087832 431.337387 482.313846 430.771872 482.539860 430.196942 482.765874 429.612683 482.991888 429.019182 483.217902 428.416524 483.443916 427.804795 483.669930 427.184083 483.895944 426.554473 484.121958 425.916052 484.347972 425.268905 484.573986 424.613120 484.800000 423.948782 485.026014 423.275978 485.252028 422.594793 485.478042 421.905315 485.704056 421.207630 485.930070 420.501823 486.156084 419.787981 486.382098 419.066190 486.608112 418.336537 486.834126 417.599108 487.060140 416.853988 487.286154 416.101265 487.512168 415.341025 487.738182 414.573353 487.964196 413.798337 488.190210 413.016062 488.416224 412.226615 488.642238 411.430081 488.868252 410.626548 489.094266 409.816101 489.320280 408.998827 489.546294 408.174812 489.772308 407.344143 489.998322 406.506904 490.224336 405.663184 490.450350 404.813067 490.676364 403.956641 490.902378 403.093992 491.128392 402.225205 491.354406 401.350368 491.580420 400.469566 491.806434 399.582885 492.032448 398.690413 492.258462 397.792234 492.484476 396.888437 492.710490 395.979105 492.936503 395.064327 493.162517 394.144188 493.388531 393.218775 493.614545 392.288173 493.840559 391.352470 494.066573 390.411751 494.292587 389.466102 494.518601 388.515610 494.744615 387.560362 494.970629 386.600442 495.196643 385.635939 495.422657 384.666937 495.648671 383.693524 495.874685 382.715785 496.100699 381.733806 496.326713 380.747675 496.552727 379.757477 496.778741 378.763298 497.004755 377.765225 497.230769 376.763345 497.456783 375.757742 497.682797 374.748505 497.908811 373.735718 498.134825 372.719468 498.360839 371.699841 498.586853 370.676924 498.812867 369.650804 499.038881 368.621565 499.264895 367.589295 499.490909 366.554079 499.716923 365.516004 499.942937 364.475157 500.168951 363.431623 500.394965 362.385489 500.620979 361.336841 500.846993 360.285766 501.073007 359.232349 501.299021 358.176676 501.525035 357.118835 501.751049 356.058912 501.977063 354.996991 502.203077 353.933161 502.429091 352.867507 502.655105 351.800116 502.881119 350.731073 503.107133 349.660465 503.333147 348.588379 503.559161 347.514899 503.785175 346.440114 504.011189 345.364109 504.237203 344.286970 504.463217 343.208784 504.689231 342.129636 504.915245 341.049614 505.141259 339.968803 505.367273 338.887289 505.593287 337.805160 505.819301 336.722500 506.045315 335.639398 506.271329 334.555937 506.497343 333.472206 506.723357 332.388290 506.949371 331.304276 507.175385 330.220249 507.401399 329.136297 507.627413 328.052504 507.853427 326.968959 508.079441 325.885746 508.305455 324.802952 508.531469 323.720664 508.757483 322.638967 508.983497 321.557948 509.209510 320.477693 509.435524 319.398289 509.661538 318.319822 509.887552 317.242377 510.113566 316.166042 510.339580 315.090902 510.565594 314.017044 510.791608 312.944554 511.017622 311.873518 511.243636 310.804023 511.469650 309.736155 511.695664 308.670000 511.921678 307.605644 512.147692 306.543174 512.373706 305.482676 512.599720 304.424235 512.825734 303.367940 513.051748 302.313875 513.277762 301.262127 513.503776 300.212782 513.729790 299.165927 513.955804 298.121647 514.181818 297.080030 514.407832 296.041161 514.633846 295.005126 514.859860 293.972013 515.085874 292.941906 515.311888 291.914893 515.537902 290.891059 515.763916 289.870491 515.989930 288.853276 516.215944 287.839499 516.441958 286.829246 516.667972 285.822605 516.893986 284.819661 517.120000 283.820500 517.346014 282.825209 517.572028 281.833874 517.798042 280.846581 518.024056 279.863417 518.250070 278.884468 518.476084 277.909820 518.702098 276.939559 518.928112 275.973772 519.154126 275.012545 519.380140 274.055964 519.606154 273.104115 519.832168 272.157085 520.058182 271.214960 520.284196 270.277826 520.510210 269.345770 520.736224 268.418878 520.962238 267.497235 521.188252 266.580915 521.414266 265.669933 521.640280 264.764292 521.866294 263.863994 522.092308 262.969041 522.318322 262.079435 522.544336 261.195179 522.770350 260.316274 522.996364 259.442723 523.222378 258.574528 523.448392 257.711691 523.674406 256.854215 523.900420 256.002101 524.126434 255.155352 524.352448 254.313970 524.578462 253.477957 524.804476 252.647316 525.030490 251.822047 525.256503 251.002155 525.482517 250.187641 525.708531 249.378506 525.934545 248.574754 526.160559 247.776387 526.386573 246.983406 526.612587 246.195814 526.838601 245.413613 527.064615 244.636805 527.290629 243.865392 527.516643 243.099378 527.742657 242.338763 527.968671 241.583550 528.194685 240.833741 528.420699 240.089339 528.646713 239.350345 528.872727 238.616762 529.098741 237.888592 529.324755 237.165837 529.550769 236.448499 529.776783 235.736581 530.002797 235.030084 530.228811 234.329012 530.454825 233.633366 530.680839 232.943147 530.906853 232.258360 531.132867 231.579005 531.358881 230.905084 531.584895 230.236601 531.810909 229.573557 532.036923 228.915955 532.262937 228.263796 532.488951 227.617083 532.714965 226.975818 532.940979 226.340003 533.166993 225.709640 533.393007 225.084732 533.619021 224.465281 533.845035 223.851288 534.071049 223.242757 534.297063 222.639689 534.523077 222.042087 534.749091 221.449952 534.975105 220.863287 535.201119 220.282095 535.427133 219.706376 535.653147 219.136134 535.879161 218.571371 536.105175 218.012088 536.331189 217.458289 536.557203 216.909975 536.783217 216.367148 537.009231 215.829811 537.235245 215.297965 537.461259 214.771614 537.687273 214.250758 537.913287 213.735401 538.139301 213.225545 538.365315 212.721191 538.591329 212.222342 538.817343 211.729001 539.043357 211.241168 539.269371 210.758848 539.495385 210.282040 539.721399 209.810749 539.947413 209.344976 540.173427 208.884723 540.399441 208.429993 540.625455 207.980787 540.851469 207.537108 541.077483 207.098958 541.303497 206.666339 541.529510 206.239253 541.755524 205.817704 541.981538 205.401692 542.207552 204.991219 542.433566 204.586290 542.659580 204.186904 542.885594 203.793065 543.111608 203.404775 543.337622 203.022035 543.563636 202.644849 543.789650 202.273218 544.015664 201.907145 544.241678 201.546631 544.467692 201.191679 544.693706 200.842291 544.919720 200.498469 545.145734 200.160216 545.371748 199.827534 545.597762 199.500424 545.823776 199.178889 546.049790 198.862932 546.275804 198.552553 546.501818 198.247757 546.727832 197.948544 546.953846 197.654917 547.179860 197.366878 547.405874 197.084430 547.631888 196.807574 547.857902 196.536313 548.083916 196.270649 548.309930 196.010584 548.535944 195.756120 548.761958 195.507260 548.987972 195.264005 549.213986 195.026358 549.440000 194.794322 549.666014 194.567897 549.892028 194.347087 550.118042 194.131893 550.344056 193.922319 550.570070 193.718365 550.796084 193.520035 551.022098 193.327330 551.248112 193.140252 551.474126 192.958804 551.700140 192.782989 551.926154 192.612807 552.152168 192.448262 552.378182 192.289355 552.604196 192.136089 552.830210 191.988465 553.056224 191.846487 553.282238 191.710156 553.508252 191.579475 553.734266 191.454445 553.960280 191.335069 554.186294 191.221350 554.412308 191.113288 554.638322 191.010887 554.864336 190.914148 555.090350 190.823075 555.316364 190.737668 555.542378 190.657930 555.768392 190.583864 555.994406 190.515471 556.220420 190.452754 556.446434 190.395715 556.672448 190.344357 556.898462 190.298680 557.124476 190.258688 557.350490 190.224383 557.576503 190.195766 557.802517 190.172841 558.028531 190.155609 558.254545 190.144072 558.480559 190.138233 558.706573 190.138094 558.932587 190.143657 559.158601 190.154924 559.384615 190.171898 559.610629 190.194580 559.836643 190.222973 560.062657 190.257079 560.288671 190.296900 560.514685 190.342438 560.740699 190.393696 560.966713 190.450676 561.192727 190.513380 561.418741 190.581809 561.644755 190.655968 561.870769 190.735856 562.096783 190.821477 562.322797 190.912834 562.548811 191.009927 562.774825 191.112759 563.000839 191.221333 563.226853 191.335651 563.452867 191.455714 563.678881 191.581526 563.904895 191.713087 564.130909 191.850401 564.356923 191.993470 564.582937 192.142296 564.808951 192.296880 565.034965 192.457226 565.260979 192.623334 565.486993 192.795209 565.713007 192.972851 565.939021 193.156263 566.165035 193.345447 566.391049 193.540406 566.617063 193.741141 566.843077 193.947655 567.069091 194.159949 567.295105 194.378027 567.521119 194.601890 567.747133 194.831540 567.973147 195.066980 568.199161 195.308212 568.425175 195.555237 568.651189 195.808059 568.877203 196.066680 569.103217 196.331101 569.329231 196.601325 569.555245 196.877353 569.781259 197.159189 570.007273 197.446834 570.233287 197.740291 570.459301 198.039561 570.685315 198.344648 570.911329 198.655552 571.137343 198.972277 571.363357 199.294824 571.589371 199.623196 571.815385 199.957395 572.041399 200.297423 572.267413 200.643282 572.493427 200.994974 572.719441 201.352502 572.945455 201.715868 573.171469 202.085074 573.397483 202.460122 573.623497 202.841015 573.849510 203.227754 574.075524 203.620342 574.301538 204.018780 574.527552 204.423072 574.753566 204.833220 574.979580 205.249224 575.205594 205.671089 575.431608 206.098815 575.657622 206.532406 575.883636 206.971863 576.109650 207.417188 576.335664 207.868384 576.561678 208.325452 576.787692 208.788396 577.013706 209.257217 577.239720 209.731918 577.465734 210.212500 577.691748 210.698961 577.917762 211.191283 578.143776 211.689442 578.369790 212.193414 578.595804 212.703175 578.821818 213.218703 579.047832 213.739973 579.273846 214.266962 579.499860 214.799647 579.725874 215.338003 579.951888 215.882009 580.177902 216.431639 580.403916 216.986870 580.629930 217.547679 580.855944 218.114043 581.081958 218.685938 581.307972 219.263339 581.533986 219.846225 581.760000 220.434570 581.986014 221.028352 582.212028 221.627547 582.438042 222.232132 582.664056 222.842083 582.890070 223.457376 583.116084 224.077989 583.342098 224.703896 583.568112 225.335076 583.794126 225.971504 584.020140 226.613157 584.246154 227.260011 584.472168 227.912043 584.698182 228.569229 584.924196 229.231545 585.150210 229.898969 585.376224 230.571476 585.602238 231.249044 585.828252 231.931648 586.054266 232.619265 586.280280 233.311872 586.506294 234.009444 586.732308 234.711959 586.958322 235.419392 587.184336 236.131721 587.410350 236.848922 587.636364 237.570971 587.862378 238.297845 588.088392 239.029520 588.314406 239.765973 588.540420 240.507179 588.766434 241.253117 588.992448 242.003761 589.218462 242.759089 589.444476 243.519077 589.670490 244.283701 589.896503 245.052938 590.122517 245.826765 590.348531 246.605157 590.574545 247.388091 590.800559 248.175545 591.026573 248.967494 591.252587 249.763914 591.478601 250.564782 591.704615 251.370075 591.930629 252.179770 592.156643 252.993841 592.382657 253.812267 592.608671 254.635023 592.834685 255.462086 593.060699 256.293433 593.286713 257.129039 593.512727 257.968882 593.738741 258.812938 593.964755 259.661183 594.190769 260.513593 594.416783 261.370146 594.642797 262.230817 594.868811 263.095584 595.094825 263.964422 595.320839 264.837308 595.546853 265.714219 595.772867 266.595131 595.998881 267.480020 596.224895 268.368863 596.450909 269.261637 596.676923 270.158317 596.902937 271.058880 597.128951 271.963304 597.354965 272.871564 597.580979 273.783636 597.806993 274.699497 598.033007 275.619125 598.259021 276.542494 598.485035 277.469582 598.711049 278.400364 598.937063 279.334819 599.163077 280.272921 599.389091 281.214648 599.615105 282.159975 599.841119 283.108880 600.067133 284.061339 600.293147 285.017328 600.519161 285.976824 600.745175 286.939803 600.971189 287.906242 601.197203 288.876116 601.423217 289.849404 601.649231 290.826080 601.875245 291.806122 602.101259 292.789506 602.327273 293.776209 602.553287 294.766206 602.779301 295.759475 603.005315 296.755992 603.231329 297.755733 603.457343 298.758675 603.683357 299.764794 603.909371 300.774066 604.135385 301.786469 604.361399 302.801979 604.587413 303.820572 604.813427 304.842224 605.039441 305.866912 605.265455 306.894613 605.491469 307.925303 605.717483 308.958958 605.943497 309.995555 606.169510 311.035071 606.395524 312.077481 606.621538 313.122763 606.847552 314.170892 607.073566 315.221846 607.299580 316.275600 607.525594 317.332132 607.751608 318.391417 607.977622 319.453432 608.203636 320.518154 608.429650 321.585558 608.655664 322.655623 608.881678 323.728323 609.107692 324.803635 609.333706 325.881537 609.559720 326.962003 609.785734 328.045012 610.011748 329.130539 610.237762 330.218560 610.463776 331.309053 610.689790 332.401994 610.915804 333.497358 611.141818 334.595123 611.367832 335.695266 611.593846 336.797761 611.819860 337.902587 612.045874 339.009719 612.271888 340.119134 612.497902 341.230809 612.723916 342.344719 612.949930 343.460842 613.175944 344.579153 613.401958 345.699630 613.627972 346.822248 613.853986 347.946985 614.080000 349.073816 614.306014 350.202718 614.532028 351.333668 614.758042 352.466642 614.984056 353.601616 615.210070 354.738567 615.436084 355.877472 615.662098 357.018307 615.888112 358.161047 616.114126 359.305671 616.340140 360.452154 616.566154 361.600473 616.792168 362.750604 617.018182 363.902524 617.244196 365.056209 617.470210 366.211635 617.696224 367.368780 617.922238 368.527619 618.148252 369.688129 618.374266 370.850286 618.600280 372.014068 618.826294 373.179449 619.052308 374.346408 619.278322 375.514920 619.504336 376.684962 619.730350 377.856510 619.956364 379.029541 620.182378 380.204031 620.408392 381.379956 620.634406 382.557294 620.860420 383.736020 621.086434 384.916111 621.312448 386.097544 621.538462 387.280295 621.764476 388.464340 621.990490 389.649656 622.216503 390.836220 622.442517 392.024007 622.668531 393.212995 622.894545 394.403159 623.120559 395.594477 623.346573 396.786924 623.572587 397.980478 623.798601 399.175114 624.024615 400.370809 624.250629 401.567540 624.476643 402.765282 624.702657 403.964014 624.928671 405.163710 625.154685 406.364347 625.380699 407.565903 625.606713 408.768353 625.832727 409.971673 626.058741 411.175841 626.284755 412.380833 626.510769 413.586624 626.736783 414.793193 626.962797 416.000514 627.188811 417.208566 627.414825 418.417323 627.640839 419.626763 627.866853 420.836861 628.092867 422.047595 628.318881 423.258942 628.544895 424.470876 628.770909 425.683375 628.996923 426.896416 629.222937 428.109974 629.448951 429.324027 629.674965 430.538550 629.900979 431.753521 630.126993 432.968915 630.353007 434.184709 630.579021 435.400880 630.805035 436.617404 631.031049 437.834257 631.257063 439.051416 631.483077 440.268858 631.709091 441.486559 631.935105 442.704495 632.161119 443.922642 632.387133 445.140978 632.613147 446.359479 632.839161 447.578121 633.065175 448.796881 633.291189 450.015735 633.517203 451.234659 633.743217 452.453631 633.969231 453.672626 633.969231 514.000000" /></g></g><g class="titles"><text class="title plot_title" x="400.0" y="26">Nana 51</text></g><g class="plot overlay" transform="translate(133, 46)"><g class="series serie-0 color-0"><g class="dots"><circle class="dot reactive tooltip-trigger" cx="12.43076923076923" cy="124.28539651383181" r="2.5" /><desc class="value">341000</desc><desc class="x ">12.43076923076923</desc><desc class="y ">124.28539651383181</desc><desc class="x_label">Jan</desc></g><g class="dots"><circle class="dot reactive tooltip-trigger" cx="68.93426573426574" cy="31.197701306388467" r="2.5" /><desc class="value">354000</desc><desc class="x ">68.93426573426574</desc><desc class="y ">31.197701306388467</desc><desc class="x_label">Feb</desc></g><g class="dots"><circle class="dot reactive tooltip-trigger" cx="125.43776223776223" cy="95.64302875769539" r="2.5" /><desc class="value">345000</desc><desc class="x ">125.43776223776223</desc><desc class="y ">95.64302875769539</desc><desc class="x_label">Mar</desc></g><g class="dots"><circle class="dot reactive tooltip-trigger" cx="181.94125874125874" cy="496.63617734360514" r="2.5" /><desc class="value">289000</desc><desc class="x top">181.94125874125874</desc><desc class="y top">496.63617734360514</desc><desc class="x_label">Apr</desc></g><g class="dots"><circle class="dot reactive tooltip-trigger" cx="238.44475524475524" cy="324.78197080678666" r="2.5" /><desc class="value">313000</desc><desc class="x top">238.44475524475524</desc><desc class="y top">324.78197080678666</desc><desc class="x_label">May</desc></g><g class="dots"><circle class="dot reactive tooltip-trigger" cx="294.9482517482517" cy="317.6213788677526" r="2.5" /><desc class="value">314000</desc><desc class="x top">294.9482517482517</desc><desc class="y top">317.6213788677526</desc><desc class="x_label">Jun</desc></g><g class="dots"><circle class="dot reactive tooltip-trigger" cx="351.4517482517482" cy="231.69427559934337" r="2.5" /><desc class="value">326000</desc><desc class="x left">351.4517482517482</desc><desc class="y left">231.69427559934337</desc><desc class="x_label">Jul</desc></g><g class="dots"><circle class="dot reactive tooltip-trigger" cx="407.95524475524473" cy="138.60658039190002" r="2.5" /><desc class="value">339000</desc><desc class="x left">407.95524475524473</desc><desc class="y left">138.60658039190002</desc><desc class="x_label">Aug</desc></g><g class="dots"><circle class="dot reactive tooltip-trigger" cx="464.45874125874127" cy="439.3514418313323" r="2.5" /><desc class="value">297000</desc><desc class="x left top">464.45874125874127</desc><desc class="y left top">439.3514418313323</desc><desc class="x_label">Sep</desc></g><g class="dots"><circle class="dot reactive tooltip-trigger" cx="520.9622377622377" cy="267.49723529451387" r="2.5" /><desc class="value">321000</desc><desc class="x left top">520.9622377622377</desc><desc class="y left top">267.49723529451387</desc><desc class="x_label">Oct</desc></g><g class="dots"><circle class="dot reactive tooltip-trigger" cx="577.4657342657342" cy="210.21249978224103" r="2.5" /><desc class="value">329000</desc><desc class="x left">577.4657342657342</desc><desc class="y left">210.21249978224103</desc><desc class="x_label">Nov</desc></g><g class="dots"><circle class="dot reactive tooltip-trigger" cx="633.9692307692308" cy="453.6726257094005" r="2.5" /><desc class="value">295000</desc><desc class="x left top">633.9692307692308</desc><desc class="y left top">453.6726257094005</desc><desc class="x_label">Dec</desc></g></g></g><g class="plot text-overlay" transform="translate(133, 46)"><g class="series serie-0 color-0" /></g><g class="plot tooltip-overlay" transform="translate(133, 46)"><g class="tooltip" style="opacity: 0" transform="translate(0 0)"><rect class="tooltip-box" height="0" rx="0" ry="0" width="0" /><g class="text" /></g></g><g class="legends" transform="translate(10, 56)"><g class="legend reactive activate-serie" id="activate-serie-0"><rect class="color-0 reactive" height="12" width="12" x="0.0" y="1.0" /><text x="17.0" y="11.2">Nana</text></g></g><g class="legends" transform="translate(790, 56)" /></g></svg>