<?xml version='1.0' encoding='utf-8'?>
<svg xmlns:xlink="http://www.w3.org/1999/xlink" class="pygal-chart" id="chart-719a3184-e6a1-45eb-bdb3-60bd4d475b88" viewBox="0 0 800 600" xmlns="http://www.w3.org/2000/svg"><!--Generated with pygal 2.0.11 (etree) ©Kozea 2011-2015 on 2015-12-10--><!--http://pygal.org--><!--http://github.com/Kozea/pygal--><defs><style type="text/css">#chart-719a3184-e6a1-45eb-bdb3-60bd4d475b88{-webkit-user-select:none;-webkit-font-smoothing:antialiased;font-family:Consolas,"Liberation Mono",Menlo,Courier,monospace}#chart-719a3184-e6a1-45eb-bdb3-60bd4d475b88 .title{font-family:Consolas,"Liberation Mono",Menlo,Courier,monospace;font-size:16px}#chart-719a3184-e6a1-45eb-bdb3-60bd4d475b88 .legends .legend text{font-family:Consolas,"Liberation Mono",Menlo,Courier,monospace;font-size:14px}#chart-719a3184-e6a1-45eb-bdb3-60bd4d475b88 .axis text{font-family:Consolas,"Liberation Mono",Menlo,Courier,monospace;font-size:10px}#chart-719a3184-e6a1-45eb-bdb3-60bd4d475b88 .axis text.major{font-family:Consolas,"Liberation Mono",Menlo,Courier,monospace;font-size:10px}#chart-719a3184-e6a1-45eb-bdb3-60bd4d475b88 .text-overlay text.value{font-family:Consolas,"Liberation Mono",Menlo,Courier,monospace;font-size:16px}#chart-719a3184-e6a1-45eb-bdb3-60bd4d475b88 .text-overlay text.label{font-family:Consolas,"Liberation Mono",Menlo,Courier,monospace;font-size:10px}#chart-719a3184-e6a1-45eb-bdb3-60bd4d475b88 .tooltip{font-family:Consolas,"Liberation Mono",Menlo,Courier,monospace;font-size:14px}#chart-719a3184-e6a1-45eb-bdb3-60bd4d475b88 text.no_data{font-family:Consolas,"Liberation Mono",Menlo,Courier,monospace;font-size:64px}
#chart-719a3184-e6a1-45eb-bdb3-60bd4d475b88{background-color:black}#chart-719a3184-e6a1-45eb-bdb3-60bd4d475b88 path,#chart-719a3184-e6a1-45eb-bdb3-60bd4d475b88 line,#chart-719a3184-e6a1-45eb-bdb3-60bd4d475b88 rect,#chart-719a3184-e6a1-45eb-bdb3-60bd4d475b88 circle{-webkit-transition:250ms;-moz-transition:250ms;transition:250ms}#chart-719a3184-e6a1-45eb-bdb3-60bd4d475b88 .graph &gt; .background{fill:black}#chart-719a3184-e6a1-45eb-bdb3-60bd4d475b88 .plot &gt; .background{fill:#111}#chart-719a3184-e6a1-45eb-bdb3-60bd4d475b88 .graph{fill:#999}#chart-719a3184-e6a1-45eb-bdb3-60bd4d475b88 text.no_data{fill:#eee}#chart-719a3184-e6a1-45eb-bdb3-60bd4d475b88 .title{fill:#eee}#chart-719a3184-e6a1-45eb-bdb3-60bd4d475b88 .legends .legend text{fill:#999}#chart-719a3184-e6a1-45eb-bdb3-60bd4d475b88 .legends .legend:hover text{fill:#eee}#chart-719a3184-e6a1-45eb-bdb3-60bd4d475b88 .axis .line{stroke:#eee}#chart-719a3184-e6a1-45eb-bdb3-60bd4d475b88 .axis .guide.line{stroke:#555}#chart-719a3184-e6a1-45eb-bdb3-60bd4d475b88 .axis .major.line{stroke:#999}#chart-719a3184-e6a1-45eb-bdb3-60bd4d475b88 .axis text.major{fill:#eee}#chart-719a3184-e6a1-45eb-bdb3-60bd4d475b88 .axis.y .guides:hover .guide.line,#chart-719a3184-e6a1-45eb-bdb3-60bd4d475b88 .line-graph .axis.x .guides:hover .guide.line,#chart-719a3184-e6a1-45eb-bdb3-60bd4d475b88 .stackedline-graph .axis.x .guides:hover .guide.line,#chart-719a3184-e6a1-45eb-bdb3-60bd4d475b88 .xy-graph .axis.x .guides:hover .guide.line{stroke:#eee}#chart-719a3184-e6a1-45eb-bdb3-60bd4d475b88 .axis .guides:hover text{fill:#eee}#chart-719a3184-e6a1-45eb-bdb3-60bd4d475b88 .reactive{fill-opacity:.8}#chart-719a3184-e6a1-45eb-bdb3-60bd4d475b88 .reactive.active,#chart-719a3184-e6a1-45eb-bdb3-60bd4d475b88 .active .reactive{fill-opacity:.4;stroke-width:4}#chart-719a3184-e6a1-45eb-bdb3-60bd4d475b88 .series text{fill:#eee}#chart-719a3184-e6a1-45eb-bdb3-60bd4d475b88 .tooltip rect{fill:#111;stroke:#eee;-webkit-transition:opacity 250ms;-moz-transition:opacity 250ms;transition:opacity 250ms}#chart-719a3184-e6a1-45eb-bdb3-60bd4d475b88 .tooltip .label{fill:#999}#chart-719a3184-e6a1-45eb-bdb3-60bd4d475b88 .tooltip .label{fill:#999}#chart-719a3184-e6a1-45eb-bdb3-60bd4d475b88 .tooltip .legend{font-size:.8em;fill:#555}#chart-719a3184-e6a1-45eb-bdb3-60bd4d475b88 .tooltip .x_label{font-size:.6em;fill:#eee}#chart-719a3184-e6a1-45eb-bdb3-60bd4d475b88 .tooltip .xlink{font-size:.5em;text-decoration:underline}#chart-719a3184-e6a1-45eb-bdb3-60bd4d475b88 .tooltip .value{font-size:1.5em}#chart-719a3184-e6a1-45eb-bdb3-60bd4d475b88 .map-element{fill:#111;stroke:#555 !important}#chart-719a3184-e6a1-45eb-bdb3-60bd4d475b88 .map-element .reactive{fill-opacity:inherit}#chart-719a3184-e6a1-45eb-bdb3-60bd4d475b88 .color-0,#chart-719a3184-e6a1-45eb-bdb3-60bd4d475b88 .color-0 a:visited{stroke:#ff5995;fill:#ff5995}#chart-719a3184-e6a1-45eb-bdb3-60bd4d475b88 .text-overlay .color-0 text{fill:black}
#chart-719a3184-e6a1-45eb-bdb3-60bd4d475b88 text.no_data{text-anchor:middle}#chart-719a3184-e6a1-45eb-bdb3-60bd4d475b88 .guide.line{fill:none}#chart-719a3184-e6a1-45eb-bdb3-60bd4d475b88 .centered{text-anchor:middle}#chart-719a3184-e6a1-45eb-bdb3-60bd4d475b88 .title{text-anchor:middle}#chart-719a3184-e6a1-45eb-bdb3-60bd4d475b88 .legends .legend text{fill-opacity:1}#chart-719a3184-e6a1-45eb-bdb3-60bd4d475b88 .axis.x text{text-anchor:middle}#chart-719a3184-e6a1-45eb-bdb3-60bd4d475b88 .axis.x:not(.web) text[transform]{text-anchor:start}#chart-719a3184-e6a1-45eb-bdb3-60bd4d475b88 .axis.x:not(.web) text[transform].backwards{text-anchor:end}#chart-719a3184-e6a1-45eb-bdb3-60bd4d475b88 .axis.y text{text-anchor:end}#chart-719a3184-e6a1-45eb-bdb3-60bd4d475b88 .axis.y text[transform].backwards{text-anchor:start}#chart-719a3184-e6a1-45eb-bdb3-60bd4d475b88 .axis.y2 text{text-anchor:start}#chart-719a3184-e6a1-45eb-bdb3-60bd4d475b88 .axis.y2 text[transform].backwards{text-anchor:end}#chart-719a3184-e6a1-45eb-bdb3-60bd4d475b88 .axis .guide.line{stroke-dasharray:4,4}#chart-719a3184-e6a1-45eb-bdb3-60bd4d475b88 .axis .major.guide.line{stroke-dasharray:6,6}#chart-719a3184-e6a1-45eb-bdb3-60bd4d475b88 .horizontal .axis.y .guide.line,#chart-719a3184-e6a1-45eb-bdb3-60bd4d475b88 .horizontal .axis.y2 .guide.line,#chart-719a3184-e6a1-45eb-bdb3-60bd4d475b88 .vertical .axis.x .guide.line{opacity:0}#chart-719a3184-e6a1-45eb-bdb3-60bd4d475b88 .horizontal .axis.always_show .guide.line,#chart-719a3184-e6a1-45eb-bdb3-60bd4d475b88 .vertical .axis.always_show .guide.line{opacity:1 !important}#chart-719a3184-e6a1-45eb-bdb3-60bd4d475b88 .axis.y .guides:hover .guide.line,#chart-719a3184-e6a1-45eb-bdb3-60bd4d475b88 .axis.y2 .guides:hover .guide.line,#chart-719a3184-e6a1-45eb-bdb3-60bd4d475b88 .axis.x .guides:hover .guide.line{opacity:1}#chart-719a3184-e6a1-45eb-bdb3-60bd4d475b88 .axis .guides:hover text{opacity:1}#chart-719a3184-e6a1-45eb-bdb3-60bd4d475b88 .nofill{fill:none}#chart-719a3184-e6a1-45eb-bdb3-60bd4d475b88 .subtle-fill{fill-opacity:.2}#chart-719a3184-e6a1-45eb-bdb3-60bd4d475b88 .dot{stroke-width:1px;fill-opacity:1}#chart-719a3184-e6a1-45eb-bdb3-60bd4d475b88 .dot.active{stroke-width:5px}#chart-719a3184-e6a1-45eb-bdb3-60bd4d475b88 .dot.negative{fill:transparent}#chart-719a3184-e6a1-45eb-bdb3-60bd4d475b88 text,#chart-719a3184-e6a1-45eb-bdb3-60bd4d475b88 tspan{stroke:none !important}#chart-719a3184-e6a1-45eb-bdb3-60bd4d475b88 .series text.active{opacity:1}#chart-719a3184-e6a1-45eb-bdb3-60bd4d475b88 .tooltip rect{fill-opacity:.95;stroke-width:.5}#chart-719a3184-e6a1-45eb-bdb3-60bd4d475b88 .tooltip text{fill-opacity:1}#chart-719a3184-e6a1-45eb-bdb3-60bd4d475b88 .showable{visibility:hidden}#chart-719a3184-e6a1-45eb-bdb3-60bd4d475b88 .showable.shown{visibility:visible}</style><script type="text/javascript">window.pygal = window.pygal || {};window.pygal.config = window.pygal.config || {};window.pygal.config['719a3184-e6a1-45eb-bdb3-60bd4d475b88'] = {"spacing": 10, "inner_radius": 0, "order_min": null, "truncate_label": null, "x_title": null, "style": {"foreground_strong": "#eee", "value_colors": [], "title_font_family": "Consolas, \"Liberation Mono\", Menlo, Courier, monospace", "major_guide_stroke_dasharray": "6,6", "background": "black", "value_font_size": 16, "guide_stroke_dasharray": "4,4", "colors": ["#ff5995", "#b6e354", "#feed6c", "#8cedff", "#9e6ffe", "#899ca1", "#f8f8f2", "#bf4646", "#516083", "#f92672", "#82b414", "#fd971f", "#56c2d6", "#808384", "#8c54fe", "#465457"], "legend_font_family": "Consolas, \"Liberation Mono\", Menlo, Courier, monospace", "no_data_font_size": 64, "legend_font_size": 14, "opacity": ".8", "title_font_size": 16, "foreground_subtle": "#555", "label_font_family": "Consolas, \"Liberation Mono\", Menlo, Courier, monospace", "value_label_font_family": "Consolas, \"Liberation Mono\", Menlo, Courier, monospace", "value_font_family": "Consolas, \"Liberation Mono\", Menlo, Courier, monospace", "major_label_font_size": 10, "no_data_font_family": "Consolas, \"Liberation Mono\", Menlo, Courier, monospace", "major_label_font_family": "Consolas, \"Liberation Mono\", Menlo, Courier, monospace", "tooltip_font_size": 14, "label_font_size": 10, "tooltip_font_family": "Consolas, \"Liberation Mono\", Menlo, Courier, monospace", "transition": "250ms", "value_label_font_size": 10, "plot_background": "#111", "opacity_hover": ".4", "font_family": "Consolas, \"Liberation Mono\", Menlo, Courier, monospace", "foreground": "#999"}, "y_labels_major": null, "inverse_y_axis": false, "show_dots": true, "js": ["//kozea.github.io/pygal.js/2.0.x/pygal-tooltips.min.js"], "range": null, "human_readable": false, "margin": 20, "show_x_labels": true, "legend_box_size": 12, "no_data_text": "No data", "strict": false, "show_minor_y_labels": true, "legend_at_bottom": false, "show_only_major_dots": false, "include_x_axis": false, "x_labels": ["Jan", "Feb", "Mar", "Apr", "May", "Jun", "Jul", "Aug", "Sep", "Oct", "Nov", "Dec"], "x_labels_major": null, "x_label_rotation": 0, "disable_xml_declaration": false, "y_title": null, "show_y_guides": true, "max_scale": 16, "margin_right": null, "defs": [], "tooltip_border_radius": 0, "xrange": null, "print_zeroes": true, "show_legend": true, "no_prefix": false, "y_labels_major_every": null, "fill": true, "width": 800, "min_scale": 4, "title": "Phra-Khanong 51", "half_pie": false, "x_labels_major_count": null, "zero": 0, "margin_bottom": null, "legends": ["Phra-Khanong"], "secondary_range": null, "margin_top": null, "margin_left": null, "print_labels": false, "legend_at_bottom_columns": null, "print_values": false, "value_formatter": null, "explicit_size": false, "dynamic_print_values": false, "interpolate": "cubic", "box_mode": "extremes", "interpolation_precision": 250, "x_value_formatter": null, "show_y_labels": true, "height": 600, "force_uri_protocol": null, "interpolation_parameters": {}, "dots_size": 2.5, "logarithmic": false, "stroke_style": null, "pretty_print": false, "stack_from_top": false, "stroke": true, "y_label_rotation": 0, "rounded_bars": null, "y_labels": null, "missing_value_fill_truncation": "x", "show_x_guides": false, "x_labels_major_every": null, "truncate_legend": null, "css": ["file://style.css", "file://graph.css"], "tooltip_fancy_mode": true, "y_labels_major_count": null, "show_minor_x_labels": true}</script><script type="text/javascript" xlink:href="//kozea.github.io/pygal.js/2.0.x/pygal-tooltips.min.js" /></defs><title>Phra-Khanong 51</title><g class="graph line-graph vertical"><rect class="background" height="600" width="800" x="0" y="0" /><g class="plot" transform="translate(200, 46)"><rect class="background" height="514" width="579.2" x="0" y="0" /><g class="axis y"><path class="line" d="M0.000000 514.000000 h579.200000" /><g class="guides"><path class="major guide line" d="M0.000000 458.555566 h579.200000" /><text class="major" x="-5" y="462.0555657337648">250000.0</text><title>250000.0</title></g><g class="guides"><path class="guide line" d="M0.000000 373.900669 h579.200000" /><text class="" x="-5" y="377.4006694414725">260000.0</text><title>260000.0</title></g><g class="guides"><path class="guide line" d="M0.000000 289.245773 h579.200000" /><text class="" x="-5" y="292.7457731491801">270000.0</text><title>270000.0</title></g><g class="guides"><path class="guide line" d="M0.000000 204.590877 h579.200000" /><text class="" x="-5" y="208.09087685688763">280000.0</text><title>280000.0</title></g><g class="guides"><path class="guide line" d="M0.000000 119.935981 h579.200000" /><text class="" x="-5" y="123.43598056459524">290000.0</text><title>290000.0</title></g><g class="guides"><path class="major guide line" d="M0.000000 35.281084 h579.200000" /><text class="major" x="-5" y="38.78108427230285">300000.0</text><title>300000.0</title></g></g><g class="axis x"><g class="guides"><path class="line" d="M11.138462 0.000000 v514.000000" /><text class="" x="11.13846153846154" y="529.0">Jan</text></g><g class="guides"><path class="guide line" d="M61.767832 0.000000 v514.000000" /><text class="" x="61.76783216783217" y="529.0">Feb</text></g><g class="guides"><path class="guide line" d="M112.397203 0.000000 v514.000000" /><text class="" x="112.3972027972028" y="529.0">Mar</text></g><g class="guides"><path class="guide line" d="M163.026573 0.000000 v514.000000" /><text class="" x="163.02657342657344" y="529.0">Apr</text></g><g class="guides"><path class="guide line" d="M213.655944 0.000000 v514.000000" /><text class="" x="213.65594405594408" y="529.0">May</text></g><g class="guides"><path class="guide line" d="M264.285315 0.000000 v514.000000" /><text class="" x="264.2853146853147" y="529.0">Jun</text></g><g class="guides"><path class="guide line" d="M314.914685 0.000000 v514.000000" /><text class="" x="314.9146853146853" y="529.0">Jul</text></g><g class="guides"><path class="guide line" d="M365.544056 0.000000 v514.000000" /><text class="" x="365.54405594405597" y="529.0">Aug</text></g><g class="guides"><path class="guide line" d="M416.173427 0.000000 v514.000000" /><text class="" x="416.17342657342664" y="529.0">Sep</text></g><g class="guides"><path class="guide line" d="M466.802797 0.000000 v514.000000" /><text class="" x="466.8027972027973" y="529.0">Oct</text></g><g class="guides"><path class="guide line" d="M517.432168 0.000000 v514.000000" /><text class="" x="517.4321678321678" y="529.0">Nov</text></g><g class="guides"><path class="guide line" d="M568.061538 0.000000 v514.000000" /><text class="" x="568.0615384615386" y="529.0">Dec</text></g></g><g class="series serie-0 color-0"><path class="line reactive" d="M11.138462 514.000000 L11.138462 9.884615 11.340979 10.350258 11.543497 10.815894 11.746014 11.281520 11.948531 11.747128 12.151049 12.212713 12.353566 12.678270 12.556084 13.143793 12.758601 13.609276 12.961119 14.074713 13.163636 14.540099 13.366154 15.005429 13.568671 15.470695 13.771189 15.935894 13.973706 16.401018 14.176224 16.866063 14.378741 17.331022 14.581259 17.795890 14.783776 18.260661 14.986294 18.725330 15.188811 19.189891 15.391329 19.654338 15.593846 20.118665 15.796364 20.582867 15.998881 21.046938 16.201399 21.510873 16.403916 21.974665 16.606434 22.438309 16.808951 22.901799 17.011469 23.365131 17.213986 23.828297 17.416503 24.291292 17.619021 24.754110 17.821538 25.216747 18.024056 25.679196 18.226573 26.141451 18.429091 26.603507 18.631608 27.065358 18.834126 27.526998 19.036643 27.988422 19.239161 28.449624 19.441678 28.910598 19.644196 29.371339 19.846713 29.831841 20.049231 30.292098 20.251748 30.752104 20.454266 31.211855 20.656783 31.671343 20.859301 32.130564 21.061818 32.589512 21.264336 33.048180 21.466853 33.506564 21.669371 33.964658 21.871888 34.422456 22.074406 34.879952 22.276923 35.337140 22.479441 35.794016 22.681958 36.250572 22.884476 36.706805 23.086993 37.162707 23.289510 37.618273 23.492028 38.073497 23.694545 38.528374 23.897063 38.982899 24.099580 39.437065 24.302098 39.890866 24.504615 40.344297 24.707133 40.797353 24.909650 41.250027 25.112168 41.702314 25.314685 42.154208 25.517203 42.605704 25.719720 43.056796 25.922238 43.507477 26.124755 43.957744 26.327273 44.407588 26.529790 44.857006 26.732308 45.305992 26.934825 45.754539 27.137343 46.202641 27.339860 46.650295 27.542378 47.097492 27.744895 47.544229 27.947413 47.990499 28.149930 48.436296 28.352448 48.881615 28.554965 49.326450 28.757483 49.770796 28.960000 50.214646 29.162517 50.657996 29.365035 51.100839 29.567552 51.543169 29.770070 51.984981 29.972587 52.426270 30.175105 52.867029 30.377622 53.307253 30.580140 53.746937 30.782657 54.186073 30.985175 54.624658 31.187692 55.062685 31.390210 55.500148 31.592727 55.937041 31.795245 56.373360 31.997762 56.809098 32.200280 57.244250 32.402797 57.678810 32.605315 58.112772 32.807832 58.546131 33.010350 58.978880 33.212867 59.411015 33.415385 59.842529 33.617902 60.273417 33.820420 60.703673 34.022937 61.133291 34.225455 61.562266 34.427972 61.990593 34.630490 62.418264 34.833007 62.845275 35.035524 63.271620 35.238042 63.697294 35.440559 64.122290 35.643077 64.546602 35.845594 64.970226 36.048112 65.393156 36.250629 65.815385 36.453147 66.236908 36.655664 66.657720 36.858182 67.077814 37.060699 67.497186 37.263217 67.915828 37.465734 68.333737 37.668252 68.750905 37.870769 69.167328 38.073287 69.582999 38.275804 69.997913 38.478322 70.412064 38.680839 70.825447 38.883357 71.238055 39.085874 71.649883 39.288392 72.060926 39.490909 72.471178 39.693427 72.880633 39.895944 73.289285 40.098462 73.697128 40.300979 74.104158 40.503497 74.510367 40.706014 74.915752 40.908531 75.320305 41.111049 75.724021 41.313566 76.126895 41.516084 76.528920 41.718601 76.930092 41.921119 77.330404 42.123636 77.729851 42.326154 78.128426 42.528671 78.526125 42.731189 78.922942 42.933706 79.318870 43.136224 79.713905 43.338741 80.108041 43.541259 80.501271 43.743776 80.893590 43.946294 81.284993 44.148811 81.675473 44.351329 82.065026 44.553846 82.453645 44.756364 82.841325 44.958881 83.228060 45.161399 83.613844 45.363916 83.998671 45.566434 84.382537 45.768951 84.765435 45.971469 85.147359 46.173986 85.528304 46.376503 85.908264 46.579021 86.287234 46.781538 86.665208 46.984056 87.042179 47.186573 87.418143 47.389091 87.793094 47.591608 88.167026 47.794126 88.539933 47.996643 88.911809 48.199161 89.282650 48.401678 89.652448 48.604196 90.021200 48.806713 90.388898 49.009231 90.755537 49.211748 91.121112 49.414266 91.485616 49.616783 91.849044 49.819301 92.211391 50.021818 92.572651 50.224336 92.932817 50.426853 93.291885 50.629371 93.649849 50.831888 94.006702 51.034406 94.362439 51.236923 94.717056 51.439441 95.070544 51.641958 95.422900 51.844476 95.774118 52.046993 96.124191 52.249510 96.473114 52.452028 96.820882 52.654545 97.167488 52.857063 97.512928 53.059580 97.857194 53.262098 98.200282 53.464615 98.542187 53.667133 98.882901 53.869650 99.222420 54.072168 99.560737 54.274685 99.897848 54.477203 100.233746 54.679720 100.568426 54.882238 100.901882 55.084755 101.234109 55.287273 101.565100 55.489790 101.894850 55.692308 102.223353 55.894825 102.550604 56.097343 102.876597 56.299860 103.201325 56.502378 103.524785 56.704895 103.846969 56.907413 104.167873 57.109930 104.487490 57.312448 104.805814 57.514965 105.122841 57.717483 105.438564 57.920000 105.752977 58.122517 106.066076 58.325035 106.377854 58.527552 106.688305 58.730070 106.997425 58.932587 107.305206 59.135105 107.611644 59.337622 107.916733 59.540140 108.220467 59.742657 108.522841 59.945175 108.823848 60.147692 109.123483 60.350210 109.421741 60.552727 109.718615 60.755245 110.014100 60.957762 110.308190 61.160280 110.600880 61.362797 110.892164 61.565315 111.182036 61.767832 111.470491 61.970350 111.757529 62.172867 112.043179 62.375385 112.327476 62.577902 112.610454 62.780420 112.892149 62.982937 113.172596 63.185455 113.451829 63.387972 113.729884 63.590490 114.006795 63.793007 114.282598 63.995524 114.557327 64.198042 114.831018 64.400559 115.103705 64.603077 115.375424 64.805594 115.646208 65.008112 115.916095 65.210629 116.185117 65.413147 116.453310 65.615664 116.720710 65.818182 116.987351 66.020699 117.253268 66.223217 117.518496 66.425734 117.783070 66.628252 118.047025 66.830769 118.310396 67.033287 118.573219 67.235804 118.835526 67.438322 119.097355 67.640839 119.358740 67.843357 119.619715 68.045874 119.880317 68.248392 120.140579 68.450909 120.400536 68.653427 120.660225 68.855944 120.919678 69.058462 121.178933 69.260979 121.438023 69.463497 121.696984 69.666014 121.955850 69.868531 122.214656 70.071049 122.473438 70.273566 122.732231 70.476084 122.991068 70.678601 123.249987 70.881119 123.509020 71.083636 123.768203 71.286154 124.027572 71.488671 124.287161 71.691189 124.547005 71.893706 124.807139 72.096224 125.067599 72.298741 125.328418 72.501259 125.589632 72.703776 125.851277 72.906294 126.113386 73.108811 126.375995 73.311329 126.639139 73.513846 126.902853 73.716364 127.167172 73.918881 127.432130 74.121399 127.697763 74.323916 127.964106 74.526434 128.231194 74.728951 128.499061 74.931469 128.767742 75.133986 129.037274 75.336503 129.307689 75.539021 129.579025 75.741538 129.851314 75.944056 130.124594 76.146573 130.398897 76.349091 130.674260 76.551608 130.950717 76.754126 131.228304 76.956643 131.507054 77.159161 131.787004 77.361678 132.068188 77.564196 132.350642 77.766713 132.634399 77.969231 132.919495 78.171748 133.205966 78.374266 133.493845 78.576783 133.783169 78.779301 134.073971 78.981818 134.366287 79.184336 134.660152 79.386853 134.955601 79.589371 135.252669 79.791888 135.551390 79.994406 135.851801 80.196923 136.153935 80.399441 136.457827 80.601958 136.763513 80.804476 137.071028 81.006993 137.380406 81.209510 137.691683 81.412028 138.004894 81.614545 138.320072 81.817063 138.637254 82.019580 138.956475 82.222098 139.277769 82.424615 139.601171 82.627133 139.926717 82.829650 140.254440 83.032168 140.584377 83.234685 140.916562 83.437203 141.251031 83.639720 141.587817 83.842238 141.926956 84.044755 142.268484 84.247273 142.612434 84.449790 142.958843 84.652308 143.307744 84.854825 143.659173 85.057343 144.013165 85.259860 144.369755 85.462378 144.728978 85.664895 145.090869 85.867413 145.455462 86.069930 145.822793 86.272448 146.192896 86.474965 146.565807 86.677483 146.941561 86.880000 147.320192 87.082517 147.701736 87.285035 148.086227 87.487552 148.473701 87.690070 148.864192 87.892587 149.257736 88.095105 149.654367 88.297622 150.054120 88.500140 150.457030 88.702657 150.863133 88.905175 151.272463 89.107692 151.685055 89.310210 152.100944 89.512727 152.520165 89.715245 152.942754 89.917762 153.368744 90.120280 153.798171 90.322797 154.231071 90.525315 154.667477 90.727832 155.107425 90.930350 155.550950 91.132867 155.998087 91.335385 156.448870 91.537902 156.903336 91.740420 157.361518 91.942937 157.823451 92.145455 158.289172 92.347972 158.758714 92.550490 159.232112 92.753007 159.709403 92.955524 160.190619 93.158042 160.675797 93.360559 161.164972 93.563077 161.658178 93.765594 162.155450 93.968112 162.656824 94.170629 163.162334 94.373147 163.672015 94.575664 164.185903 94.778182 164.704031 94.980699 165.226436 95.183217 165.753152 95.385734 166.284214 95.588252 166.819657 95.790769 167.359516 95.993287 167.903827 96.195804 168.452623 96.398322 169.005940 96.600839 169.563813 96.803357 170.126276 97.005874 170.693366 97.208392 171.265116 97.410909 171.841562 97.613427 172.422739 97.815944 173.008682 98.018462 173.599425 98.220979 174.195004 98.423497 174.795453 98.626014 175.400808 98.828531 176.011103 99.031049 176.626374 99.233566 177.246656 99.436084 177.871982 99.638601 178.502389 99.841119 179.137912 100.043636 179.778584 100.246154 180.424442 100.448671 181.075521 100.651189 181.731854 100.853706 182.393478 101.056224 183.060426 101.258741 183.732735 101.461259 184.410439 101.663776 185.093573 101.866294 185.782171 102.068811 186.476270 102.271329 187.175904 102.473846 187.881108 102.676364 188.591916 102.878881 189.308364 103.081399 190.030487 103.283916 190.758320 103.486434 191.491898 103.688951 192.231255 103.891469 192.976427 104.093986 193.727448 104.296503 194.484354 104.499021 195.247180 104.701538 196.015960 104.904056 196.790729 105.106573 197.571523 105.309091 198.358376 105.511608 199.151324 105.714126 199.950401 105.916643 200.755642 106.119161 201.567083 106.321678 202.384758 106.524196 203.208702 106.726713 204.038950 106.929231 204.875537 107.131748 205.718499 107.334266 206.567869 107.536783 207.423683 107.739301 208.285977 107.941818 209.154784 108.144336 210.030141 108.346853 210.912081 108.549371 211.800640 108.751888 212.695853 108.954406 213.597754 109.156923 214.506380 109.359441 215.421764 109.561958 216.343941 109.764476 217.272948 109.966993 218.208818 110.169510 219.151586 110.372028 220.101288 110.574545 221.057959 110.777063 222.021633 110.979580 222.992345 111.182098 223.970131 111.384615 224.955025 111.587133 225.947063 111.789650 226.946279 111.992168 227.952708 112.194685 228.966385 112.397203 229.987346 112.599720 231.015605 112.802238 232.051100 113.004755 233.093749 113.207273 234.143470 113.409790 235.200180 113.612308 236.263797 113.814825 237.334240 114.017343 238.411426 114.219860 239.495273 114.422378 240.585698 114.624895 241.682620 114.827413 242.785957 115.029930 243.895625 115.232448 245.011544 115.434965 246.133631 115.637483 247.261804 115.840000 248.395980 116.042517 249.536078 116.245035 250.682015 116.447552 251.833709 116.650070 252.991078 116.852587 254.154041 117.055105 255.322513 117.257622 256.496415 117.460140 257.675663 117.662657 258.860175 117.865175 260.049869 118.067692 261.244663 118.270210 262.444475 118.472727 263.649222 118.675245 264.858823 118.877762 266.073195 119.080280 267.292256 119.282797 268.515924 119.485315 269.744117 119.687832 270.976753 119.890350 272.213749 120.092867 273.455024 120.295385 274.700495 120.497902 275.950079 120.700420 277.203696 120.902937 278.461263 121.105455 279.722697 121.307972 280.987916 121.510490 282.256839 121.713007 283.529382 121.915524 284.805465 122.118042 286.085004 122.320559 287.367918 122.523077 288.654125 122.725594 289.943542 122.928112 291.236087 123.130629 292.531678 123.333147 293.830233 123.535664 295.131669 123.738182 296.435905 123.940699 297.742859 124.143217 299.052448 124.345734 300.364589 124.548252 301.679202 124.750769 302.996203 124.953287 304.315511 125.155804 305.637044 125.358322 306.960718 125.560839 308.286453 125.763357 309.614166 125.965874 310.943774 126.168392 312.275196 126.370909 313.608350 126.573427 314.943153 126.775944 316.279523 126.978462 317.617378 127.180979 318.956637 127.383497 320.297215 127.586014 321.639033 127.788531 322.982006 127.991049 324.326054 128.193566 325.671094 128.396084 327.017044 128.598601 328.363822 128.801119 329.711345 129.003636 331.059532 129.206154 332.408300 129.408671 333.757567 129.611189 335.107251 129.813706 336.457270 130.016224 337.807542 130.218741 339.157984 130.421259 340.508515 130.623776 341.859051 130.826294 343.209512 131.028811 344.559815 131.231329 345.909877 131.433846 347.259617 131.636364 348.608952 131.838881 349.957801 132.041399 351.306081 132.243916 352.653709 132.446434 354.000605 132.648951 355.346685 132.851469 356.691867 133.053986 358.036070 133.256503 359.379211 133.459021 360.721208 133.661538 362.061979 133.864056 363.401442 134.066573 364.739514 134.269091 366.076113 134.471608 367.411158 134.674126 368.744565 134.876643 370.076254 135.079161 371.406141 135.281678 372.734145 135.484196 374.060184 135.686713 375.384174 135.889231 376.706035 136.091748 378.025684 136.294266 379.343038 136.496783 380.658016 136.699301 381.970536 136.901818 383.280515 137.104336 384.587871 137.306853 385.892523 137.509371 387.194387 137.711888 388.493381 137.914406 389.789425 138.116923 391.082434 138.319441 392.372328 138.521958 393.659024 138.724476 394.942440 138.926993 396.222494 139.129510 397.499103 139.332028 398.772186 139.534545 400.041660 139.737063 401.307443 139.939580 402.569454 140.142098 403.827609 140.344615 405.081826 140.547133 406.332025 140.749650 407.578121 140.952168 408.820034 141.154685 410.057681 141.357203 411.290979 141.559720 412.519848 141.762238 413.744204 141.964755 414.963965 142.167273 416.179050 142.369790 417.389376 142.572308 418.594860 142.774825 419.795422 142.977343 420.990978 143.179860 422.181446 143.382378 423.366745 143.584895 424.546792 143.787413 425.721505 143.989930 426.890802 144.192448 428.054601 144.394965 429.212819 144.597483 430.365375 144.800000 431.512185 145.002517 432.653169 145.205035 433.788244 145.407552 434.917327 145.610070 436.040337 145.812587 437.157192 146.015105 438.267808 146.217622 439.372105 146.420140 440.470000 146.622657 441.561411 146.825175 442.646255 147.027692 443.724451 147.230210 444.795916 147.432727 445.860568 147.635245 446.918325 147.837762 447.969106 148.040280 449.012827 148.242797 450.049406 148.445315 451.078762 148.647832 452.100812 148.850350 453.115474 149.052867 454.122666 149.255385 455.122306 149.457902 456.114311 149.660420 457.098600 149.862937 458.075090 150.065455 459.043700 150.267972 460.004346 150.470490 460.956947 150.673007 461.901421 150.875524 462.837685 151.078042 463.765658 151.280559 464.685257 151.483077 465.596400 151.685594 466.499005 151.888112 467.392989 152.090629 468.278271 152.293147 469.154769 152.495664 470.022400 152.698182 470.881082 152.900699 471.730733 153.103217 472.571270 153.305734 473.402612 153.508252 474.224677 153.710769 475.037382 153.913287 475.840645 154.115804 476.634385 154.318322 477.418518 154.520839 478.192963 154.723357 478.957637 154.925874 479.712458 155.128392 480.457345 155.330909 481.192215 155.533427 481.916986 155.735944 482.631576 155.938462 483.335902 156.140979 484.029883 156.343497 484.713436 156.546014 485.386479 156.748531 486.048930 156.951049 486.700706 157.153566 487.341727 157.356084 487.971909 157.558601 488.591170 157.761119 489.199429 157.963636 489.796602 158.166154 490.382608 158.368671 490.957366 158.571189 491.520791 158.773706 492.072803 158.976224 492.613319 159.178741 493.142258 159.381259 493.659536 159.583776 494.165072 159.786294 494.658784 159.988811 495.140589 160.191329 495.610405 160.393846 496.068151 160.596364 496.513744 160.798881 496.947101 161.001399 497.368141 161.203916 497.776781 161.406434 498.172940 161.608951 498.556536 161.811469 498.927485 162.013986 499.285706 162.216503 499.631117 162.419021 499.963635 162.621538 500.283179 162.824056 500.589666 163.026573 500.883014 163.229091 501.163166 163.431608 501.430163 163.634126 501.684071 163.836643 501.924956 164.039161 502.152885 164.241678 502.367923 164.444196 502.570137 164.646713 502.759592 164.849231 502.936355 165.051748 503.100493 165.254266 503.252070 165.456783 503.391153 165.659301 503.517809 165.861818 503.632103 166.064336 503.734102 166.266853 503.823871 166.469371 503.901477 166.671888 503.966985 166.874406 504.020463 167.076923 504.061976 167.279441 504.091589 167.481958 504.109370 167.684476 504.115385 167.886993 504.109698 168.089510 504.092378 168.292028 504.063489 168.494545 504.023098 168.697063 503.971271 168.899580 503.908073 169.102098 503.833572 169.304615 503.747833 169.507133 503.650923 169.709650 503.542907 169.912168 503.423851 170.114685 503.293823 170.317203 503.152886 170.519720 503.001109 170.722238 502.838557 170.924755 502.665296 171.127273 502.481392 171.329790 502.286912 171.532308 502.081921 171.734825 501.866485 171.937343 501.640671 172.139860 501.404545 172.342378 501.158173 172.544895 500.901621 172.747413 500.634955 172.949930 500.358241 173.152448 500.071545 173.354965 499.774934 173.557483 499.468473 173.760000 499.152229 173.962517 498.826268 174.165035 498.490656 174.367552 498.145458 174.570070 497.790742 174.772587 497.426573 174.975105 497.053017 175.177622 496.670141 175.380140 496.278010 175.582657 495.876691 175.785175 495.466249 175.987692 495.046751 176.190210 494.618264 176.392727 494.180852 176.595245 493.734582 176.797762 493.279521 177.000280 492.815734 177.202797 492.343288 177.405315 491.862248 177.607832 491.372682 177.810350 490.874653 178.012867 490.368230 178.215385 489.853478 178.417902 489.330463 178.620420 488.799251 178.822937 488.259909 179.025455 487.712502 179.227972 487.157097 179.430490 486.593760 179.633007 486.022556 179.835524 485.443552 180.038042 484.856814 180.240559 484.262409 180.443077 483.660402 180.645594 483.050859 180.848112 482.433846 181.050629 481.809430 181.253147 481.177677 181.455664 480.538653 181.658182 479.892423 181.860699 479.239055 182.063217 478.578614 182.265734 477.911166 182.468252 477.236777 182.670769 476.555514 182.873287 475.867442 183.075804 475.172628 183.278322 474.471138 183.480839 473.763038 183.683357 473.048393 183.885874 472.327271 184.088392 471.599737 184.290909 470.865858 184.493427 470.125699 184.695944 469.379326 184.898462 468.626806 185.100979 467.868205 185.303497 467.103589 185.506014 466.333024 185.708531 465.556575 185.911049 464.774311 186.113566 463.986295 186.316084 463.192595 186.518601 462.393276 186.721119 461.588405 186.923636 460.778048 187.126154 459.962271 187.328671 459.141139 187.531189 458.314720 187.733706 457.483079 187.936224 456.646282 188.138741 455.804396 188.341259 454.957486 188.543776 454.105619 188.746294 453.248861 188.948811 452.387277 189.151329 451.520935 189.353846 450.649899 189.556364 449.774237 189.758881 448.894014 189.961399 448.009297 190.163916 447.120151 190.366434 446.226642 190.568951 445.328837 190.771469 444.426803 190.973986 443.520604 191.176503 442.610307 191.379021 441.695978 191.581538 440.777684 191.784056 439.855490 191.986573 438.929462 192.189091 437.999668 192.391608 437.066171 192.594126 436.129040 192.796643 435.188340 192.999161 434.244136 193.201678 433.296496 193.404196 432.345485 193.606713 431.391170 193.809231 430.433616 194.011748 429.472890 194.214266 428.509057 194.416783 427.542184 194.619301 426.572337 194.821818 425.599582 195.024336 424.623985 195.226853 423.645613 195.429371 422.664531 195.631888 421.680805 195.834406 420.694502 196.036923 419.705687 196.239441 418.714428 196.441958 417.720789 196.644476 416.724838 196.846993 415.726639 197.049510 414.726260 197.252028 413.723766 197.454545 412.719223 197.657063 411.712698 197.859580 410.704257 198.062098 409.693966 198.264615 408.681890 198.467133 407.668097 198.669650 406.652651 198.872168 405.635620 199.074685 404.617069 199.277203 403.597065 199.479720 402.575673 199.682238 401.552960 199.884755 400.528992 200.087273 399.503834 200.289790 398.477554 200.492308 397.450216 200.694825 396.421888 200.897343 395.392635 201.099860 394.362524 201.302378 393.331620 201.504895 392.299989 201.707413 391.267699 201.909930 390.234814 202.112448 389.201402 202.314965 388.167527 202.517483 387.133257 202.720000 386.098657 202.922517 385.063793 203.125035 384.028732 203.327552 382.993540 203.530070 381.958282 203.732587 380.923025 203.935105 379.887835 204.137622 378.852778 204.340140 377.817921 204.542657 376.783329 204.745175 375.749068 204.947692 374.715204 205.150210 373.681804 205.352727 372.648934 205.555245 371.616660 205.757762 370.585048 205.960280 369.554164 206.162797 368.524074 206.365315 367.494844 206.567832 366.466541 206.770350 365.439230 206.972867 364.412978 207.175385 363.387850 207.377902 362.363913 207.580420 361.341234 207.782937 360.319877 207.985455 359.299909 208.187972 358.281397 208.390490 357.264406 208.593007 356.249003 208.795524 355.235253 208.998042 354.223223 209.200559 353.212979 209.403077 352.204586 209.605594 351.198112 209.808112 350.193622 210.010629 349.191182 210.213147 348.190858 210.415664 347.192717 210.618182 346.196825 210.820699 345.203247 211.023217 344.212050 211.225734 343.223300 211.428252 342.237063 211.630769 341.253405 211.833287 340.272392 212.035804 339.294091 212.238322 338.318567 212.440839 337.345886 212.643357 336.376116 212.845874 335.409321 213.048392 334.445568 213.250909 333.484923 213.453427 332.527452 213.655944 331.573221 213.858462 330.622286 214.060979 329.674657 214.263497 328.730333 214.466014 327.789315 214.668531 326.851603 214.871049 325.917196 215.073566 324.986093 215.276084 324.058296 215.478601 323.133802 215.681119 322.212613 215.883636 321.294728 216.086154 320.380147 216.288671 319.468868 216.491189 318.560894 216.693706 317.656222 216.896224 316.754853 217.098741 315.856786 217.301259 314.962022 217.503776 314.070560 217.706294 313.182399 217.908811 312.297540 218.111329 311.415982 218.313846 310.537726 218.516364 309.662770 218.718881 308.791115 218.921399 307.922760 219.123916 307.057705 219.326434 306.195950 219.528951 305.337495 219.731469 304.482339 219.933986 303.630483 220.136503 302.781925 220.339021 301.936666 220.541538 301.094705 220.744056 300.256043 220.946573 299.420678 221.149091 298.588611 221.351608 297.759842 221.554126 296.934370 221.756643 296.112195 221.959161 295.293316 222.161678 294.477735 222.364196 293.665449 222.566713 292.856459 222.769231 292.050766 222.971748 291.248368 223.174266 290.449265 223.376783 289.653457 223.579301 288.860944 223.781818 288.071726 223.984336 287.285802 224.186853 286.503172 224.389371 285.723836 224.591888 284.947794 224.794406 284.175045 224.996923 283.405589 225.199441 282.639426 225.401958 281.876556 225.604476 281.116978 225.806993 280.360693 226.009510 279.607699 226.212028 278.857997 226.414545 278.111587 226.617063 277.368468 226.819580 276.628640 227.022098 275.892102 227.224615 275.158856 227.427133 274.428899 227.629650 273.702233 227.832168 272.978856 228.034685 272.258769 228.237203 271.541971 228.439720 270.828463 228.642238 270.118243 228.844755 269.411312 229.047273 268.707669 229.249790 268.007314 229.452308 267.310247 229.654825 266.616468 229.857343 265.925976 230.059860 265.238772 230.262378 264.554854 230.464895 263.874223 230.667413 263.196879 230.869930 262.522821 231.072448 261.852049 231.274965 261.184562 231.477483 260.520361 231.680000 259.859445 231.882517 259.201815 232.085035 258.547469 232.287552 257.896407 232.490070 257.248630 232.692587 256.604137 232.895105 255.962928 233.097622 255.325002 233.300140 254.690360 233.502657 254.059001 233.705175 253.430924 233.907692 252.806131 234.110210 252.184619 234.312727 251.566390 234.515245 250.951443 234.717762 250.339777 234.920280 249.731393 235.122797 249.126290 235.325315 248.524468 235.527832 247.925927 235.730350 247.330666 235.932867 246.738685 236.135385 246.149985 236.337902 245.564564 236.540420 244.982422 236.742937 244.403560 236.945455 243.827977 237.147972 243.255673 237.350490 242.686647 237.553007 242.120900 237.755524 241.558431 237.958042 240.999239 238.160559 240.443325 238.363077 239.890689 238.565594 239.341329 238.768112 238.795247 238.970629 238.252441 239.173147 237.712911 239.375664 237.176658 239.578182 236.643680 239.780699 236.113979 239.983217 235.587552 240.185734 235.064401 240.388252 234.544525 240.590769 234.027924 240.793287 233.514597 240.995804 233.004544 241.198322 232.497765 241.400839 231.994260 241.603357 231.494029 241.805874 230.997071 242.008392 230.503386 242.210909 230.012974 242.413427 229.525834 242.615944 229.041967 242.818462 228.561371 243.020979 228.084048 243.223497 227.609996 243.426014 227.139215 243.628531 226.671706 243.831049 226.207468 244.033566 225.746500 244.236084 225.288803 244.438601 224.834375 244.641119 224.383218 244.843636 223.935330 245.046154 223.490712 245.248671 223.049363 245.451189 222.611284 245.653706 222.176472 245.856224 221.744930 246.058741 221.316655 246.261259 220.891649 246.463776 220.469910 246.666294 220.051439 246.868811 219.636235 247.071329 219.224298 247.273846 218.815628 247.476364 218.410225 247.678881 218.008088 247.881399 217.609217 248.083916 217.213612 248.286434 216.821273 248.488951 216.432199 248.691469 216.046390 248.893986 215.663846 249.096503 215.284566 249.299021 214.908551 249.501538 214.535801 249.704056 214.166314 249.906573 213.800091 250.109091 213.437131 250.311608 213.077435 250.514126 212.721001 250.716643 212.367831 250.919161 212.017922 251.121678 211.671276 251.324196 211.327893 251.526713 210.987771 251.729231 210.650910 251.931748 210.317311 252.134266 209.986973 252.336783 209.659895 252.539301 209.336079 252.741818 209.015522 252.944336 208.698226 253.146853 208.384190 253.349371 208.073413 253.551888 207.765896 253.754406 207.461637 253.956923 207.160638 254.159441 206.862898 254.361958 206.568415 254.564476 206.277191 254.766993 205.989225 254.969510 205.704517 255.172028 205.423066 255.374545 205.144873 255.577063 204.869936 255.779580 204.598256 255.982098 204.329833 256.184615 204.064666 256.387133 203.802755 256.589650 203.544100 256.792168 203.288700 256.994685 203.036556 257.197203 202.787667 257.399720 202.542033 257.602238 202.299653 257.804755 202.060527 258.007273 201.824656 258.209790 201.592039 258.412308 201.362675 258.614825 201.136565 258.817343 200.913708 259.019860 200.694103 259.222378 200.477752 259.424895 200.264653 259.627413 200.054806 259.829930 199.848211 260.032448 199.644868 260.234965 199.444776 260.437483 199.247936 260.640000 199.054346 260.842517 198.864008 261.045035 198.676920 261.247552 198.493082 261.450070 198.312494 261.652587 198.135156 261.855105 197.961068 262.057622 197.790229 262.260140 197.622639 262.462657 197.458298 262.665175 197.297205 262.867692 197.139361 263.070210 196.984765 263.272727 196.833417 263.475245 196.685317 263.677762 196.540464 263.880280 196.398858 264.082797 196.260499 264.285315 196.125387 264.487832 195.993518 264.690350 195.864872 264.892867 195.739427 265.095385 195.617159 265.297902 195.498047 265.500420 195.382066 265.702937 195.269195 265.905455 195.159410 266.107972 195.052688 266.310490 194.949006 266.513007 194.848343 266.715524 194.750673 266.918042 194.655976 267.120559 194.564227 267.323077 194.475405 267.525594 194.389485 267.728112 194.306446 267.930629 194.226264 268.133147 194.148916 268.335664 194.074380 268.538182 194.002633 268.740699 193.933651 268.943217 193.867412 269.145734 193.803893 269.348252 193.743071 269.550769 193.684923 269.753287 193.629427 269.955804 193.576559 270.158322 193.526296 270.360839 193.478616 270.563357 193.433496 270.765874 193.390912 270.968392 193.350843 271.170909 193.313264 271.373427 193.278154 271.575944 193.245489 271.778462 193.215246 271.980979 193.187403 272.183497 193.161936 272.386014 193.138823 272.588531 193.118041 272.791049 193.099566 272.993566 193.083377 273.196084 193.069449 273.398601 193.057761 273.601119 193.048290 273.803636 193.041011 274.006154 193.035904 274.208671 193.032944 274.411189 193.032108 274.613706 193.033375 274.816224 193.036720 275.018741 193.042122 275.221259 193.049557 275.423776 193.059002 275.626294 193.070434 275.828811 193.083831 276.031329 193.099170 276.233846 193.116427 276.436364 193.135581 276.638881 193.156607 276.841399 193.179483 277.043916 193.204186 277.246434 193.230694 277.448951 193.258983 277.651469 193.289031 277.853986 193.320814 278.056503 193.354310 278.259021 193.389495 278.461538 193.426348 278.664056 193.464845 278.866573 193.504962 279.069091 193.546678 279.271608 193.589970 279.474126 193.634814 279.676643 193.681187 279.879161 193.729067 280.081678 193.778431 280.284196 193.829256 280.486713 193.881519 280.689231 193.935196 280.891748 193.990267 281.094266 194.046706 281.296783 194.104492 281.499301 194.163601 281.701818 194.224011 281.904336 194.285699 282.106853 194.348642 282.309371 194.412817 282.511888 194.478200 282.714406 194.544770 282.916923 194.612504 283.119441 194.681377 283.321958 194.751368 283.524476 194.822454 283.726993 194.894612 283.929510 194.967818 284.132028 195.042051 284.334545 195.117286 284.537063 195.193502 284.739580 195.270674 284.942098 195.348782 285.144615 195.427800 285.347133 195.507708 285.549650 195.588481 285.752168 195.670097 285.954685 195.752532 286.157203 195.835765 286.359720 195.919772 286.562238 196.004530 286.764755 196.090017 286.967273 196.176209 287.169790 196.263083 287.372308 196.350618 287.574825 196.438789 287.777343 196.527574 287.979860 196.616950 288.182378 196.706894 288.384895 196.797383 288.587413 196.888395 288.789930 196.979906 288.992448 197.071893 289.194965 197.164335 289.397483 197.257207 289.600000 197.350487 289.802517 197.444151 290.005035 197.538178 290.207552 197.632545 290.410070 197.727227 290.612587 197.822203 290.815105 197.917449 291.017622 198.012943 291.220140 198.108662 291.422657 198.204583 291.625175 198.300682 291.827692 198.396938 292.030210 198.493327 292.232727 198.589826 292.435245 198.686412 292.637762 198.783063 292.840280 198.879756 293.042797 198.976467 293.245315 199.073174 293.447832 199.169854 293.650350 199.266484 293.852867 199.363041 294.055385 199.459502 294.257902 199.555845 294.460420 199.652046 294.662937 199.748083 294.865455 199.843933 295.067972 199.939572 295.270490 200.034978 295.473007 200.130128 295.675524 200.225000 295.878042 200.319569 296.080559 200.413814 296.283077 200.507711 296.485594 200.601238 296.688112 200.694372 296.890629 200.787089 297.093147 200.879367 297.295664 200.971183 297.498182 201.062514 297.700699 201.153338 297.903217 201.243630 298.105734 201.333369 298.308252 201.422532 298.510769 201.511095 298.713287 201.599036 298.915804 201.686332 299.118322 201.772960 299.320839 201.858897 299.523357 201.944120 299.725874 202.028606 299.928392 202.112333 300.130909 202.195277 300.333427 202.277416 300.535944 202.358726 300.738462 202.439185 300.940979 202.518771 301.143497 202.597459 301.346014 202.675227 301.548531 202.752053 301.751049 202.827913 301.953566 202.902784 302.156084 202.976644 302.358601 203.049470 302.561119 203.121239 302.763636 203.191927 302.966154 203.261513 303.168671 203.329972 303.371189 203.397283 303.573706 203.463422 303.776224 203.528366 303.978741 203.592094 304.181259 203.654580 304.383776 203.715804 304.586294 203.775741 304.788811 203.834370 304.991329 203.891666 305.193846 203.947608 305.396364 204.002172 305.598881 204.055335 305.801399 204.107075 306.003916 204.157368 306.206434 204.206193 306.408951 204.253525 306.611469 204.299342 306.813986 204.343621 307.016503 204.386339 307.219021 204.427474 307.421538 204.467002 307.624056 204.504900 307.826573 204.541146 308.029091 204.575717 308.231608 204.608589 308.434126 204.639741 308.636643 204.669148 308.839161 204.696789 309.041678 204.722640 309.244196 204.746678 309.446713 204.768881 309.649231 204.789225 309.851748 204.807688 310.054266 204.824247 310.256783 204.838879 310.459301 204.851561 310.661818 204.862269 310.864336 204.870982 311.066853 204.877677 311.269371 204.882330 311.471888 204.884918 311.674406 204.885419 311.876923 204.883810 312.079441 204.880067 312.281958 204.874169 312.484476 204.866092 312.686993 204.855813 312.889510 204.843309 313.092028 204.828558 313.294545 204.811536 313.497063 204.792221 313.699580 204.770589 313.902098 204.746618 314.104615 204.720286 314.307133 204.691568 314.509650 204.660443 314.712168 204.626887 314.914685 204.590877 315.117203 204.552398 315.319720 204.511462 315.522238 204.468091 315.724755 204.422304 315.927273 204.374122 316.129790 204.323565 316.332308 204.270653 316.534825 204.215407 316.737343 204.157846 316.939860 204.097991 317.142378 204.035863 317.344895 203.971482 317.547413 203.904867 317.749930 203.836040 317.952448 203.765020 318.154965 203.691829 318.357483 203.616485 318.560000 203.539010 318.762517 203.459423 318.965035 203.377746 319.167552 203.293998 319.370070 203.208199 319.572587 203.120370 319.775105 203.030532 319.977622 202.938704 320.180140 202.844907 320.382657 202.749160 320.585175 202.651485 320.787692 202.551902 320.990210 202.450431 321.192727 202.347092 321.395245 202.241905 321.597762 202.134891 321.800280 202.026070 322.002797 201.915463 322.205315 201.803089 322.407832 201.688969 322.610350 201.573124 322.812867 201.455573 323.015385 201.336337 323.217902 201.215436 323.420420 201.092890 323.622937 200.968720 323.825455 200.842946 324.027972 200.715588 324.230490 200.586667 324.433007 200.456203 324.635524 200.324216 324.838042 200.190726 325.040559 200.055754 325.243077 199.919320 325.445594 199.781445 325.648112 199.642148 325.850629 199.501450 326.053147 199.359371 326.255664 199.215931 326.458182 199.071152 326.660699 198.925052 326.863217 198.777653 327.065734 198.628974 327.268252 198.479036 327.470769 198.327860 327.673287 198.175465 327.875804 198.021871 328.078322 197.867100 328.280839 197.711172 328.483357 197.554105 328.685874 197.395922 328.888392 197.236642 329.090909 197.076286 329.293427 196.914874 329.495944 196.752425 329.698462 196.588961 329.900979 196.424502 330.103497 196.259068 330.306014 196.092679 330.508531 195.925355 330.711049 195.757118 330.913566 195.587986 331.116084 195.417981 331.318601 195.247123 331.521119 195.075432 331.723636 194.902928 331.926154 194.729632 332.128671 194.555563 332.331189 194.380743 332.533706 194.205191 332.736224 194.028929 332.938741 193.851975 333.141259 193.674350 333.343776 193.496075 333.546294 193.317170 333.748811 193.137656 333.951329 192.957551 334.153846 192.776878 334.356364 192.595656 334.558881 192.413905 334.761399 192.231645 334.963916 192.048898 335.166434 191.865683 335.368951 191.682021 335.571469 191.497931 335.773986 191.313434 335.976503 191.128551 336.179021 190.943302 336.381538 190.757706 336.584056 190.571785 336.786573 190.385559 336.989091 190.199047 337.191608 190.012271 337.394126 189.825250 337.596643 189.638004 337.799161 189.450555 338.001678 189.262922 338.204196 189.075126 338.406713 188.887186 338.609231 188.699124 338.811748 188.510959 339.014266 188.322712 339.216783 188.134403 339.419301 187.946053 339.621818 187.757681 339.824336 187.569308 340.026853 187.380954 340.229371 187.192640 340.431888 187.004385 340.634406 186.816211 340.836923 186.628137 341.039441 186.440184 341.241958 186.252372 341.444476 186.064721 341.646993 185.877251 341.849510 185.689984 342.052028 185.502938 342.254545 185.316135 342.457063 185.129595 342.659580 184.943337 342.862098 184.757383 343.064615 184.571753 343.267133 184.386466 343.469650 184.201544 343.672168 184.017006 343.874685 183.832873 344.077203 183.649164 344.279720 183.465901 344.482238 183.283104 344.684755 183.100793 344.887273 182.918988 345.089790 182.737709 345.292308 182.556977 345.494825 182.376812 345.697343 182.197235 345.899860 182.018265 346.102378 181.839923 346.304895 181.662230 346.507413 181.485205 346.709930 181.308869 346.912448 181.133241 347.114965 180.958344 347.317483 180.784196 347.520000 180.610818 347.722517 180.438230 347.925035 180.266452 348.127552 180.095506 348.330070 179.925411 348.532587 179.756187 348.735105 179.587855 348.937622 179.420435 349.140140 179.253947 349.342657 179.088412 349.545175 178.923849 349.747692 178.760280 349.950210 178.597724 350.152727 178.436202 350.355245 178.275735 350.557762 178.116341 350.760280 177.958042 350.962797 177.800858 351.165315 177.644809 351.367832 177.489916 351.570350 177.336198 351.772867 177.183677 351.975385 177.032372 352.177902 176.882303 352.380420 176.733492 352.582937 176.585958 352.785455 176.439721 352.987972 176.294802 353.190490 176.151221 353.393007 176.008999 353.595524 175.868155 353.798042 175.728710 354.000559 175.590685 354.203077 175.454099 354.405594 175.318973 354.608112 175.185327 354.810629 175.053182 355.013147 174.922557 355.215664 174.793473 355.418182 174.665951 355.620699 174.540010 355.823217 174.415671 356.025734 174.292955 356.228252 174.171880 356.430769 174.052469 356.633287 173.934740 356.835804 173.818715 357.038322 173.704414 357.240839 173.591856 357.443357 173.481063 357.645874 173.372054 357.848392 173.264850 358.050909 173.159471 358.253427 173.055937 358.455944 172.954270 358.658462 172.854488 358.860979 172.756612 359.063497 172.660663 359.266014 172.566660 359.468531 172.474625 359.671049 172.384577 359.873566 172.296537 360.076084 172.210525 360.278601 172.126561 360.481119 172.044666 360.683636 171.964859 360.886154 171.887162 361.088671 171.811594 361.291189 171.738176 361.493706 171.666928 361.696224 171.597870 361.898741 171.531023 362.101259 171.466407 362.303776 171.404042 362.506294 171.343948 362.708811 171.286146 362.911329 171.230656 363.113846 171.177499 363.316364 171.126694 363.518881 171.078262 363.721399 171.032224 363.923916 170.988598 364.126434 170.947407 364.328951 170.908670 364.531469 170.872407 364.733986 170.838639 364.936503 170.807385 365.139021 170.778667 365.341538 170.752505 365.544056 170.728918 365.746573 170.707922 365.949091 170.689505 366.151608 170.673653 366.354126 170.660349 366.556643 170.649577 366.759161 170.641320 366.961678 170.635564 367.164196 170.632292 367.366713 170.631488 367.569231 170.633137 367.771748 170.637221 367.974266 170.643725 368.176783 170.652633 368.379301 170.663929 368.581818 170.677597 368.784336 170.693621 368.986853 170.711985 369.189371 170.732673 369.391888 170.755669 369.594406 170.780957 369.796923 170.808520 369.999441 170.838344 370.201958 170.870411 370.404476 170.904707 370.606993 170.941214 370.809510 170.979917 371.012028 171.020800 371.214545 171.063847 371.417063 171.109042 371.619580 171.156368 371.822098 171.205810 372.024615 171.257352 372.227133 171.310978 372.429650 171.366672 372.632168 171.424417 372.834685 171.484198 373.037203 171.545999 373.239720 171.609804 373.442238 171.675596 373.644755 171.743360 373.847273 171.813080 374.049790 171.884740 374.252308 171.958323 374.454825 172.033814 374.657343 172.111196 374.859860 172.190454 375.062378 172.271572 375.264895 172.354534 375.467413 172.439323 375.669930 172.525923 375.872448 172.614319 376.074965 172.704495 376.277483 172.796435 376.480000 172.890122 376.682517 172.985540 376.885035 173.082674 377.087552 173.181508 377.290070 173.282025 377.492587 173.384210 377.695105 173.488046 377.897622 173.593518 378.100140 173.700609 378.302657 173.809304 378.505175 173.919586 378.707692 174.031439 378.910210 174.144848 379.112727 174.259797 379.315245 174.376269 379.517762 174.494248 379.720280 174.613719 379.922797 174.734665 380.125315 174.857070 380.327832 174.980919 380.530350 175.106195 380.732867 175.232883 380.935385 175.360965 381.137902 175.490428 381.340420 175.621253 381.542937 175.753426 381.745455 175.886930 381.947972 176.021750 382.150490 176.157868 382.353007 176.295270 382.555524 176.433939 382.758042 176.573860 382.960559 176.715015 383.163077 176.857390 383.365594 177.000968 383.568112 177.145734 383.770629 177.291670 383.973147 177.438762 384.175664 177.586993 384.378182 177.736347 384.580699 177.886808 384.783217 178.038360 384.985734 178.190988 385.188252 178.344674 385.390769 178.499404 385.593287 178.655161 385.795804 178.811929 385.998322 178.969692 386.200839 179.128434 386.403357 179.288139 386.605874 179.448791 386.808392 179.610374 387.010909 179.772872 387.213427 179.936269 387.415944 180.100549 387.618462 180.265697 387.820979 180.431695 388.023497 180.598528 388.226014 180.766180 388.428531 180.934635 388.631049 181.103877 388.833566 181.273890 389.036084 181.444658 389.238601 181.616165 389.441119 181.788394 389.643636 181.961331 389.846154 182.134958 390.048671 182.309261 390.251189 182.484222 390.453706 182.659826 390.656224 182.836057 390.858741 183.012898 391.061259 183.190335 391.263776 183.368350 391.466294 183.546928 391.668811 183.726053 391.871329 183.905708 392.073846 184.085879 392.276364 184.266548 392.478881 184.447700 392.681399 184.629319 392.883916 184.811388 393.086434 184.993892 393.288951 185.176815 393.491469 185.360140 393.693986 185.543852 393.896503 185.727935 394.099021 185.912373 394.301538 186.097149 394.504056 186.282247 394.706573 186.467653 394.909091 186.653349 395.111608 186.839319 395.314126 187.025549 395.516643 187.212020 395.719161 187.398719 395.921678 187.585628 396.124196 187.772731 396.326713 187.960013 396.529231 188.147458 396.731748 188.335049 396.934266 188.522770 397.136783 188.710606 397.339301 188.898541 397.541818 189.086558 397.744336 189.274642 397.946853 189.462776 398.149371 189.650944 398.351888 189.839131 398.554406 190.027320 398.756923 190.215496 398.959441 190.403642 399.161958 190.591743 399.364476 190.779781 399.566993 190.967743 399.769510 191.155610 399.972028 191.343368 400.174545 191.531001 400.377063 191.718492 400.579580 191.905825 400.782098 192.092984 400.984615 192.279954 401.187133 192.466717 401.389650 192.653260 401.592168 192.839564 401.794685 193.025615 401.997203 193.211396 402.199720 193.396891 402.402238 193.582085 402.604755 193.766960 402.807273 193.951502 403.009790 194.135694 403.212308 194.319521 403.414825 194.502965 403.617343 194.686012 403.819860 194.868645 404.022378 195.050848 404.224895 195.232605 404.427413 195.413900 404.629930 195.594717 404.832448 195.775041 405.034965 195.954854 405.237483 196.134142 405.440000 196.312887 405.642517 196.491075 405.845035 196.668689 406.047552 196.845713 406.250070 197.022131 406.452587 197.197926 406.655105 197.373084 406.857622 197.547588 407.060140 197.721422 407.262657 197.894570 407.465175 198.067016 407.667692 198.238744 407.870210 198.409737 408.072727 198.579981 408.275245 198.749459 408.477762 198.918154 408.680280 199.086052 408.882797 199.253135 409.085315 199.419388 409.287832 199.584795 409.490350 199.749340 409.692867 199.913007 409.895385 200.075780 410.097902 200.237642 410.300420 200.398578 410.502937 200.558572 410.705455 200.717608 410.907972 200.875670 411.110490 201.032742 411.313007 201.188807 411.515524 201.343850 411.718042 201.497855 411.920559 201.650805 412.123077 201.802685 412.325594 201.953479 412.528112 202.103171 412.730629 202.251744 412.933147 202.399183 413.135664 202.545472 413.338182 202.690594 413.540699 202.834535 413.743217 202.977276 413.945734 203.118804 414.148252 203.259100 414.350769 203.398151 414.553287 203.535939 414.755804 203.672449 414.958322 203.807664 415.160839 203.941569 415.363357 204.074148 415.565874 204.205384 415.768392 204.335261 415.970909 204.463764 416.173427 204.590877 416.375944 204.716586 416.578462 204.840894 416.780979 204.963805 416.983497 205.085324 417.186014 205.205455 417.388531 205.324203 417.591049 205.441573 417.793566 205.557570 417.996084 205.672198 418.198601 205.785463 418.401119 205.897368 418.603636 206.007920 418.806154 206.117121 419.008671 206.224978 419.211189 206.331495 419.413706 206.436676 419.616224 206.540527 419.818741 206.643051 420.021259 206.744255 420.223776 206.844142 420.426294 206.942718 420.628811 207.039987 420.831329 207.135953 421.033846 207.230622 421.236364 207.323999 421.438881 207.416087 421.641399 207.506893 421.843916 207.596420 422.046434 207.684673 422.248951 207.771657 422.451469 207.857377 422.653986 207.941838 422.856503 208.025043 423.059021 208.106999 423.261538 208.187710 423.464056 208.267180 423.666573 208.345414 423.869091 208.422417 424.071608 208.498194 424.274126 208.572750 424.476643 208.646089 424.679161 208.718215 424.881678 208.789134 425.084196 208.858851 425.286713 208.927370 425.489231 208.994696 425.691748 209.060833 425.894266 209.125787 426.096783 209.189562 426.299301 209.252163 426.501818 209.313594 426.704336 209.373861 426.906853 209.432968 427.109371 209.490920 427.311888 209.547721 427.514406 209.603377 427.716923 209.657892 427.919441 209.711271 428.121958 209.763518 428.324476 209.814638 428.526993 209.864637 428.729510 209.913518 428.932028 209.961287 429.134545 210.007948 429.337063 210.053507 429.539580 210.097967 429.742098 210.141333 429.944615 210.183611 430.147133 210.224805 430.349650 210.264919 430.552168 210.303959 430.754685 210.341929 430.957203 210.378834 431.159720 210.414679 431.362238 210.449468 431.564755 210.483206 431.767273 210.515899 431.969790 210.547550 432.172308 210.578164 432.374825 210.607747 432.577343 210.636302 432.779860 210.663835 432.982378 210.690351 433.184895 210.715853 433.387413 210.740348 433.589930 210.763839 433.792448 210.786331 433.994965 210.807830 434.197483 210.828339 434.400000 210.847864 434.602517 210.866409 434.805035 210.883980 435.007552 210.900580 435.210070 210.916214 435.412587 210.930888 435.615105 210.944606 435.817622 210.957373 436.020140 210.969193 436.222657 210.980072 436.425175 210.990013 436.627692 210.999023 436.830210 211.007104 437.032727 211.014263 437.235245 211.020504 437.437762 211.025832 437.640280 211.030251 437.842797 211.033766 438.045315 211.036383 438.247832 211.038105 438.450350 211.038937 438.652867 211.038884 438.855385 211.037952 439.057902 211.036144 439.260420 211.033465 439.462937 211.029921 439.665455 211.025515 439.867972 211.020254 440.070490 211.014140 440.273007 211.007180 440.475524 210.999377 440.678042 210.990737 440.880559 210.981264 441.083077 210.970964 441.285594 210.959840 441.488112 210.947898 441.690629 210.935142 441.893147 210.921577 442.095664 210.907208 442.298182 210.892040 442.500699 210.876076 442.703217 210.859323 442.905734 210.841784 443.108252 210.823465 443.310769 210.804371 443.513287 210.784505 443.715804 210.763873 443.918322 210.742479 444.120839 210.720329 444.323357 210.697426 444.525874 210.673777 444.728392 210.649384 444.930909 210.624254 445.133427 210.598391 445.335944 210.571800 445.538462 210.544484 445.740979 210.516450 445.943497 210.487702 446.146014 210.458245 446.348531 210.428083 446.551049 210.397221 446.753566 210.365664 446.956084 210.333416 447.158601 210.300483 447.361119 210.266869 447.563636 210.232579 447.766154 210.197617 447.968671 210.161989 448.171189 210.125698 448.373706 210.088751 448.576224 210.051151 448.778741 210.012903 448.981259 209.974012 449.183776 209.934484 449.386294 209.894321 449.588811 209.853530 449.791329 209.812115 449.993846 209.770081 450.196364 209.727432 450.398881 209.684173 450.601399 209.640309 450.803916 209.595845 451.006434 209.550786 451.208951 209.505135 451.411469 209.458899 451.613986 209.412081 451.816503 209.364687 452.019021 209.316720 452.221538 209.268187 452.424056 209.219092 452.626573 209.169438 452.829091 209.119232 453.031608 209.068478 453.234126 209.017180 453.436643 208.965344 453.639161 208.912974 453.841678 208.860074 454.044196 208.806651 454.246713 208.752707 454.449231 208.698249 454.651748 208.643280 454.854266 208.587806 455.056783 208.531832 455.259301 208.475361 455.461818 208.418399 455.664336 208.360951 455.866853 208.303021 456.069371 208.244614 456.271888 208.185734 456.474406 208.126387 456.676923 208.066578 456.879441 208.006310 457.081958 207.945589 457.284476 207.884420 457.486993 207.822807 457.689510 207.760754 457.892028 207.698268 458.094545 207.635351 458.297063 207.572010 458.499580 207.508249 458.702098 207.444073 458.904615 207.379486 459.107133 207.314493 459.309650 207.249099 459.512168 207.183309 459.714685 207.117127 459.917203 207.050558 460.119720 206.983607 460.322238 206.916278 460.524755 206.848577 460.727273 206.780508 460.929790 206.712076 461.132308 206.643285 461.334825 206.574141 461.537343 206.504648 461.739860 206.434810 461.942378 206.364633 462.144895 206.294121 462.347413 206.223280 462.549930 206.152113 462.752448 206.080625 462.954965 206.008822 463.157483 205.936708 463.360000 205.864288 463.562517 205.791566 463.765035 205.718547 463.967552 205.645236 464.170070 205.571638 464.372587 205.497758 464.575105 205.423599 464.777622 205.349168 464.980140 205.274468 465.182657 205.199504 465.385175 205.124282 465.587692 205.048806 465.790210 204.973080 465.992727 204.897110 466.195245 204.820899 466.397762 204.744454 466.600280 204.667778 466.802797 204.590877 467.005315 204.513755 467.207832 204.436423 467.410350 204.358890 467.612867 204.281166 467.815385 204.203262 468.017902 204.125186 468.220420 204.046950 468.422937 203.968564 468.625455 203.890037 468.827972 203.811379 469.030490 203.732601 469.233007 203.653713 469.435524 203.574724 469.638042 203.495644 469.840559 203.416485 470.043077 203.337255 470.245594 203.257965 470.448112 203.178625 470.650629 203.099245 470.853147 203.019835 471.055664 202.940405 471.258182 202.860964 471.460699 202.781524 471.663217 202.702094 471.865734 202.622684 472.068252 202.543304 472.270769 202.463965 472.473287 202.384676 472.675804 202.305447 472.878322 202.226288 473.080839 202.147210 473.283357 202.068222 473.485874 201.989335 473.688392 201.910559 473.890909 201.831903 474.093427 201.753377 474.295944 201.674993 474.498462 201.596759 474.700979 201.518685 474.903497 201.440783 475.106014 201.363061 475.308531 201.285531 475.511049 201.208201 475.713566 201.131083 475.916084 201.054185 476.118601 200.977518 476.321119 200.901093 476.523636 200.824919 476.726154 200.749005 476.928671 200.673364 477.131189 200.598003 477.333706 200.522934 477.536224 200.448166 477.738741 200.373710 477.941259 200.299575 478.143776 200.225772 478.346294 200.152310 478.548811 200.079200 478.751329 200.006451 478.953846 199.934074 479.156364 199.862079 479.358881 199.790476 479.561399 199.719274 479.763916 199.648485 479.966434 199.578117 480.168951 199.508181 480.371469 199.438687 480.573986 199.369646 480.776503 199.301066 480.979021 199.232959 481.181538 199.165333 481.384056 199.098200 481.586573 199.031569 481.789091 198.965451 481.991608 198.899855 482.194126 198.834791 482.396643 198.770270 482.599161 198.706301 482.801678 198.642895 483.004196 198.580061 483.206713 198.517810 483.409231 198.456151 483.611748 198.395096 483.814266 198.334653 484.016783 198.274833 484.219301 198.215645 484.421818 198.157101 484.624336 198.099209 484.826853 198.041981 485.029371 197.985425 485.231888 197.929553 485.434406 197.874374 485.636923 197.819898 485.839441 197.766135 486.041958 197.713095 486.244476 197.660788 486.446993 197.609225 486.649510 197.558415 486.852028 197.508369 487.054545 197.459096 487.257063 197.410607 487.459580 197.362911 487.662098 197.316019 487.864615 197.269940 488.067133 197.224685 488.269650 197.180264 488.472168 197.136686 488.674685 197.093963 488.877203 197.052103 489.079720 197.011117 489.282238 196.971015 489.484755 196.931807 489.687273 196.893503 489.889790 196.856113 490.092308 196.819648 490.294825 196.784116 490.497343 196.749529 490.699860 196.715896 490.902378 196.683227 491.104895 196.651532 491.307413 196.620822 491.509930 196.591107 491.712448 196.562395 491.914965 196.534699 492.117483 196.508027 492.320000 196.482389 492.522517 196.457796 492.725035 196.434258 492.927552 196.411785 493.130070 196.390386 493.332587 196.370072 493.535105 196.350853 493.737622 196.332739 493.940140 196.315740 494.142657 196.299866 494.345175 196.285127 494.547692 196.271533 494.750210 196.259094 494.952727 196.247821 495.155245 196.237722 495.357762 196.228809 495.560280 196.221091 495.762797 196.214579 495.965315 196.209282 496.167832 196.205210 496.370350 196.202374 496.572867 196.200783 496.775385 196.200448 496.977902 196.201379 497.180420 196.203585 497.382937 196.207077 497.585455 196.211865 497.787972 196.217958 497.990490 196.225368 498.193007 196.234103 498.395524 196.244174 498.598042 196.255591 498.800559 196.268364 499.003077 196.282503 499.205594 196.298019 499.408112 196.314920 499.610629 196.333218 499.813147 196.352922 500.015664 196.374042 500.218182 196.396588 500.420699 196.420571 500.623217 196.446000 500.825734 196.472886 501.028252 196.501238 501.230769 196.531067 501.433287 196.562382 501.635804 196.595194 501.838322 196.629513 502.040839 196.665348 502.243357 196.702711 502.445874 196.741610 502.648392 196.782055 502.850909 196.824058 503.053427 196.867628 503.255944 196.912774 503.458462 196.959508 503.660979 197.007839 503.863497 197.057777 504.066014 197.109332 504.268531 197.162514 504.471049 197.217333 504.673566 197.273800 504.876084 197.331924 505.078601 197.391716 505.281119 197.453184 505.483636 197.516341 505.686154 197.581195 505.888671 197.647756 506.091189 197.716035 506.293706 197.786042 506.496224 197.857786 506.698741 197.931279 506.901259 198.006528 507.103776 198.083546 507.306294 198.162342 507.508811 198.242925 507.711329 198.325307 507.913846 198.409496 508.116364 198.495504 508.318881 198.583339 508.521399 198.673013 508.723916 198.764535 508.926434 198.857915 509.128951 198.953163 509.331469 199.050290 509.533986 199.149305 509.736503 199.250219 509.939021 199.353041 510.141538 199.457781 510.344056 199.564450 510.546573 199.673057 510.749091 199.783613 510.951608 199.896128 511.154126 200.010612 511.356643 200.127074 511.559161 200.245525 511.761678 200.365975 511.964196 200.488433 512.166713 200.612911 512.369231 200.739418 512.571748 200.867963 512.774266 200.998558 512.976783 201.131212 513.179301 201.265935 513.381818 201.402737 513.584336 201.541628 513.786853 201.682619 513.989371 201.825719 514.191888 201.970938 514.394406 202.118287 514.596923 202.267775 514.799441 202.419413 515.001958 202.573210 515.204476 202.729177 515.406993 202.887323 515.609510 203.047659 515.812028 203.210195 516.014545 203.374941 516.217063 203.541906 516.419580 203.711101 516.622098 203.882536 516.824615 204.056221 517.027133 204.232167 517.229650 204.410382 517.432168 204.590877 517.634685 204.773659 517.837203 204.958722 518.039720 205.146057 518.242238 205.335654 518.444755 205.527505 518.647273 205.721601 518.849790 205.917931 519.052308 206.116487 519.254825 206.317261 519.457343 206.520242 519.659860 206.725421 519.862378 206.932790 520.064895 207.142339 520.267413 207.354059 520.469930 207.567941 520.672448 207.783975 520.874965 208.002153 521.077483 208.222466 521.280000 208.444903 521.482517 208.669457 521.685035 208.896118 521.887552 209.124876 522.090070 209.355723 522.292587 209.588650 522.495105 209.823647 522.697622 210.060705 522.900140 210.299814 523.102657 210.540967 523.305175 210.784153 523.507692 211.029364 523.710210 211.276590 523.912727 211.525822 524.115245 211.777051 524.317762 212.030268 524.520280 212.285463 524.722797 212.542628 524.925315 212.801754 525.127832 213.062830 525.330350 213.325849 525.532867 213.590800 525.735385 213.857675 525.937902 214.126465 526.140420 214.397160 526.342937 214.669751 526.545455 214.944230 526.747972 215.220586 526.950490 215.498811 527.153007 215.778896 527.355524 216.060830 527.558042 216.344607 527.760559 216.630215 527.963077 216.917646 528.165594 217.206891 528.368112 217.497941 528.570629 217.790786 528.773147 218.085417 528.975664 218.381826 529.178182 218.680002 529.380699 218.979937 529.583217 219.281622 529.785734 219.585048 529.988252 219.890204 530.190769 220.197083 530.393287 220.505675 530.595804 220.815971 530.798322 221.127961 531.000839 221.441637 531.203357 221.756990 531.405874 222.074009 531.608392 222.392687 531.810909 222.713013 532.013427 223.034979 532.215944 223.358576 532.418462 223.683794 532.620979 224.010625 532.823497 224.339058 533.026014 224.669085 533.228531 225.000697 533.431049 225.333885 533.633566 225.668639 533.836084 226.004951 534.038601 226.342810 534.241119 226.682209 534.443636 227.023137 534.646154 227.365586 534.848671 227.709547 535.051189 228.055009 535.253706 228.401965 535.456224 228.750405 535.658741 229.100320 535.861259 229.451700 536.063776 229.804537 536.266294 230.158822 536.468811 230.514544 536.671329 230.871696 536.873846 231.230267 537.076364 231.590249 537.278881 231.951633 537.481399 232.314409 537.683916 232.678568 537.886434 233.044101 538.088951 233.411000 538.291469 233.779254 538.493986 234.148854 538.696503 234.519792 538.899021 234.892058 539.101538 235.265644 539.304056 235.640539 539.506573 236.016735 539.709091 236.394223 539.911608 236.772993 540.114126 237.153037 540.316643 237.534344 540.519161 237.916907 540.721678 238.300715 540.924196 238.685761 541.126713 239.072033 541.329231 239.459524 541.531748 239.848224 541.734266 240.238124 541.936783 240.629215 542.139301 241.021488 542.341818 241.414933 542.544336 241.809542 542.746853 242.205305 542.949371 242.602213 543.151888 243.000257 543.354406 243.399427 543.556923 243.799715 543.759441 244.201112 543.961958 244.603608 544.164476 245.007194 544.366993 245.411860 544.569510 245.817599 544.772028 246.224400 544.974545 246.632255 545.177063 247.041154 545.379580 247.451088 545.582098 247.862048 545.784615 248.274025 545.987133 248.687010 546.189650 249.100993 546.392168 249.515965 546.594685 249.931917 546.797203 250.348841 546.999720 250.766726 547.202238 251.185564 547.404755 251.605346 547.607273 252.026062 547.809790 252.447703 548.012308 252.870260 548.214825 253.293724 548.417343 253.718086 548.619860 254.143337 548.822378 254.569466 549.024895 254.996466 549.227413 255.424328 549.429930 255.853041 549.632448 256.282596 549.834965 256.712986 550.037483 257.144200 550.240000 257.576229 550.442517 258.009064 550.645035 258.442696 550.847552 258.877116 551.050070 259.312315 551.252587 259.748283 551.455105 260.185012 551.657622 260.622491 551.860140 261.060713 552.062657 261.499667 552.265175 261.939345 552.467692 262.379738 552.670210 262.820836 552.872727 263.262630 553.075245 263.705111 553.277762 264.148271 553.480280 264.592098 553.682797 265.036586 553.885315 265.481723 554.087832 265.927502 554.290350 266.373914 554.492867 266.820947 554.695385 267.268595 554.897902 267.716848 555.100420 268.165695 555.302937 268.615129 555.505455 269.065140 555.707972 269.515719 555.910490 269.966857 556.113007 270.418545 556.315524 270.870773 556.518042 271.323532 556.720559 271.776813 556.923077 272.230608 557.125594 272.684906 557.328112 273.139699 557.530629 273.594977 557.733147 274.050732 557.935664 274.506954 558.138182 274.963634 558.340699 275.420763 558.543217 275.878331 558.745734 276.336330 558.948252 276.794751 559.150769 277.253583 559.353287 277.712819 559.555804 278.172449 559.758322 278.632463 559.960839 279.092853 560.163357 279.553609 560.365874 280.014723 560.568392 280.476185 560.770909 280.937985 560.973427 281.400116 561.175944 281.862567 561.378462 282.325329 561.580979 282.788394 561.783497 283.251752 561.986014 283.715394 562.188531 284.179311 562.391049 284.643493 562.593566 285.107932 562.796084 285.572618 562.998601 286.037542 563.201119 286.502696 563.403636 286.968069 563.606154 287.433653 563.808671 287.899438 564.011189 288.365416 564.213706 288.831577 564.416224 289.297912 564.618741 289.764412 564.821259 290.231068 565.023776 290.697870 565.226294 291.164810 565.428811 291.631878 565.631329 292.099065 565.833846 292.566361 566.036364 293.033759 566.238881 293.501248 566.441399 293.968820 566.643916 294.436465 566.846434 294.904174 567.048951 295.371938 567.251469 295.839748 567.453986 296.307595 567.656503 296.775469 567.859021 297.243361 568.061538 297.711263 568.061538 514.000000" /></g></g><g class="titles"><text class="title plot_title" x="400.0" y="26">Phra-Khanong 51</text></g><g class="plot overlay" transform="translate(200, 46)"><g class="series serie-0 color-0"><g class="dots"><circle class="dot reactive tooltip-trigger" cx="11.13846153846154" cy="9.884615384615131" r="2.5" /><desc class="value">303000</desc><desc class="x ">11.13846153846154</desc><desc class="y ">9.884615384615131</desc><desc class="x_label">Jan</desc></g><g class="dots"><circle class="dot reactive tooltip-trigger" cx="61.76783216783217" cy="111.470490935366" r="2.5" /><desc class="value">291000</desc><desc class="x ">61.76783216783217</desc><desc class="y ">111.470490935366</desc><desc class="x_label">Feb</desc></g><g class="dots"><circle class="dot reactive tooltip-trigger" cx="112.3972027972028" cy="229.98734574457535" r="2.5" /><desc class="value">277000</desc><desc class="x ">112.3972027972028</desc><desc class="y ">229.98734574457535</desc><desc class="x_label">Mar</desc></g><g class="dots"><circle class="dot reactive tooltip-trigger" cx="163.02657342657344" cy="500.883013879911" r="2.5" /><desc class="value">245000</desc><desc class="x top">163.02657342657344</desc><desc class="y top">500.883013879911</desc><desc class="x_label">Apr</desc></g><g class="dots"><circle class="dot reactive tooltip-trigger" cx="213.65594405594408" cy="331.5732212953262" r="2.5" /><desc class="value">265000</desc><desc class="x top">213.65594405594408</desc><desc class="y top">331.5732212953262</desc><desc class="x_label">May</desc></g><g class="dots"><circle class="dot reactive tooltip-trigger" cx="264.2853146853147" cy="196.1253872276584" r="2.5" /><desc class="value">281000</desc><desc class="x ">264.2853146853147</desc><desc class="y ">196.1253872276584</desc><desc class="x_label">Jun</desc></g><g class="dots"><circle class="dot reactive tooltip-trigger" cx="314.9146853146853" cy="204.59087685688763" r="2.5" /><desc class="value">280000</desc><desc class="x left">314.9146853146853</desc><desc class="y left">204.59087685688763</desc><desc class="x_label">Jul</desc></g><g class="dots"><circle class="dot reactive tooltip-trigger" cx="365.54405594405597" cy="170.72891833997068" r="2.5" /><desc class="value">284000</desc><desc class="x left">365.54405594405597</desc><desc class="y left">170.72891833997068</desc><desc class="x_label">Aug</desc></g><g class="dots"><circle class="dot reactive tooltip-trigger" cx="416.17342657342664" cy="204.59087685688763" r="2.5" /><desc class="value">280000</desc><desc class="x left">416.17342657342664</desc><desc class="y left">204.59087685688763</desc><desc class="x_label">Sep</desc></g><g class="dots"><circle class="dot reactive tooltip-trigger" cx="466.8027972027973" cy="204.59087685688763" r="2.5" /><desc class="value">280000</desc><desc class="x left">466.8027972027973</desc><desc class="y left">204.59087685688763</desc><desc class="x_label">Oct</desc></g><g class="dots"><circle class="dot reactive tooltip-trigger" cx="517.4321678321678" cy="204.59087685688763" r="2.5" /><desc class="value">280000</desc><desc class="x left">517.4321678321678</desc><desc class="y left">204.59087685688763</desc><desc class="x_label">Nov</desc></g><g class="dots"><circle class="dot reactive tooltip-trigger" cx="568.0615384615386" cy="297.71126277840926" r="2.5" /><desc class="value">269000</desc><desc class="x left top">568.0615384615386</desc><desc class="y left top">297.71126277840926</desc><desc class="x_label">Dec</desc></g></g></g><g class="plot text-overlay" transform="translate(200, 46)"><g class="series serie-0 color-0" /></g><g class="plot tooltip-overlay" transform="translate(200, 46)"><g class="tooltip" style="opacity: 0" transform="translate(0 0)"><rect class="tooltip-box" height="0" rx="0" ry="0" width="0" /><g class="text" /></g></g><g class="legends" transform="translate(10, 56)"><g class="legend reactive activate-serie" id="activate-serie-0"><rect class="color-0 reactive" height="12" width="12" x="0.0" y="1.0" /><text x="17.0" y="11.2">Phra-Khanong</text></g></g><g class="legends" transform="translate(790, 56)" /></g></svg>