<?xml version='1.0' encoding='utf-8'?>
<svg xmlns:xlink="http://www.w3.org/1999/xlink" class="pygal-chart" id="chart-d2265d31-a79f-4c78-9125-7ae6862175d8" viewBox="0 0 800 600" xmlns="http://www.w3.org/2000/svg"><!--Generated with pygal 2.0.11 (etree) ©Kozea 2011-2015 on 2015-12-10--><!--http://pygal.org--><!--http://github.com/Kozea/pygal--><defs><style type="text/css">#chart-d2265d31-a79f-4c78-9125-7ae6862175d8{-webkit-user-select:none;-webkit-font-smoothing:antialiased;font-family:Consolas,"Liberation Mono",Menlo,Courier,monospace}#chart-d2265d31-a79f-4c78-9125-7ae6862175d8 .title{font-family:Consolas,"Liberation Mono",Menlo,Courier,monospace;font-size:16px}#chart-d2265d31-a79f-4c78-9125-7ae6862175d8 .legends .legend text{font-family:Consolas,"Liberation Mono",Menlo,Courier,monospace;font-size:14px}#chart-d2265d31-a79f-4c78-9125-7ae6862175d8 .axis text{font-family:Consolas,"Liberation Mono",Menlo,Courier,monospace;font-size:10px}#chart-d2265d31-a79f-4c78-9125-7ae6862175d8 .axis text.major{font-family:Consolas,"Liberation Mono",Menlo,Courier,monospace;font-size:10px}#chart-d2265d31-a79f-4c78-9125-7ae6862175d8 .text-overlay text.value{font-family:Consolas,"Liberation Mono",Menlo,Courier,monospace;font-size:16px}#chart-d2265d31-a79f-4c78-9125-7ae6862175d8 .text-overlay text.label{font-family:Consolas,"Liberation Mono",Menlo,Courier,monospace;font-size:10px}#chart-d2265d31-a79f-4c78-9125-7ae6862175d8 .tooltip{font-family:Consolas,"Liberation Mono",Menlo,Courier,monospace;font-size:14px}#chart-d2265d31-a79f-4c78-9125-7ae6862175d8 text.no_data{font-family:Consolas,"Liberation Mono",Menlo,Courier,monospace;font-size:64px}
#chart-d2265d31-a79f-4c78-9125-7ae6862175d8{background-color:black}#chart-d2265d31-a79f-4c78-9125-7ae6862175d8 path,#chart-d2265d31-a79f-4c78-9125-7ae6862175d8 line,#chart-d2265d31-a79f-4c78-9125-7ae6862175d8 rect,#chart-d2265d31-a79f-4c78-9125-7ae6862175d8 circle{-webkit-transition:250ms;-moz-transition:250ms;transition:250ms}#chart-d2265d31-a79f-4c78-9125-7ae6862175d8 .graph &gt; .background{fill:black}#chart-d2265d31-a79f-4c78-9125-7ae6862175d8 .plot &gt; .background{fill:#111}#chart-d2265d31-a79f-4c78-9125-7ae6862175d8 .graph{fill:#999}#chart-d2265d31-a79f-4c78-9125-7ae6862175d8 text.no_data{fill:#eee}#chart-d2265d31-a79f-4c78-9125-7ae6862175d8 .title{fill:#eee}#chart-d2265d31-a79f-4c78-9125-7ae6862175d8 .legends .legend text{fill:#999}#chart-d2265d31-a79f-4c78-9125-7ae6862175d8 .legends .legend:hover text{fill:#eee}#chart-d2265d31-a79f-4c78-9125-7ae6862175d8 .axis .line{stroke:#eee}#chart-d2265d31-a79f-4c78-9125-7ae6862175d8 .axis .guide.line{stroke:#555}#chart-d2265d31-a79f-4c78-9125-7ae6862175d8 .axis .major.line{stroke:#999}#chart-d2265d31-a79f-4c78-9125-7ae6862175d8 .axis text.major{fill:#eee}#chart-d2265d31-a79f-4c78-9125-7ae6862175d8 .axis.y .guides:hover .guide.line,#chart-d2265d31-a79f-4c78-9125-7ae6862175d8 .line-graph .axis.x .guides:hover .guide.line,#chart-d2265d31-a79f-4c78-9125-7ae6862175d8 .stackedline-graph .axis.x .guides:hover .guide.line,#chart-d2265d31-a79f-4c78-9125-7ae6862175d8 .xy-graph .axis.x .guides:hover .guide.line{stroke:#eee}#chart-d2265d31-a79f-4c78-9125-7ae6862175d8 .axis .guides:hover text{fill:#eee}#chart-d2265d31-a79f-4c78-9125-7ae6862175d8 .reactive{fill-opacity:.8}#chart-d2265d31-a79f-4c78-9125-7ae6862175d8 .reactive.active,#chart-d2265d31-a79f-4c78-9125-7ae6862175d8 .active .reactive{fill-opacity:.4;stroke-width:4}#chart-d2265d31-a79f-4c78-9125-7ae6862175d8 .series text{fill:#eee}#chart-d2265d31-a79f-4c78-9125-7ae6862175d8 .tooltip rect{fill:#111;stroke:#eee;-webkit-transition:opacity 250ms;-moz-transition:opacity 250ms;transition:opacity 250ms}#chart-d2265d31-a79f-4c78-9125-7ae6862175d8 .tooltip .label{fill:#999}#chart-d2265d31-a79f-4c78-9125-7ae6862175d8 .tooltip .label{fill:#999}#chart-d2265d31-a79f-4c78-9125-7ae6862175d8 .tooltip .legend{font-size:.8em;fill:#555}#chart-d2265d31-a79f-4c78-9125-7ae6862175d8 .tooltip .x_label{font-size:.6em;fill:#eee}#chart-d2265d31-a79f-4c78-9125-7ae6862175d8 .tooltip .xlink{font-size:.5em;text-decoration:underline}#chart-d2265d31-a79f-4c78-9125-7ae6862175d8 .tooltip .value{font-size:1.5em}#chart-d2265d31-a79f-4c78-9125-7ae6862175d8 .map-element{fill:#111;stroke:#555 !important}#chart-d2265d31-a79f-4c78-9125-7ae6862175d8 .map-element .reactive{fill-opacity:inherit}#chart-d2265d31-a79f-4c78-9125-7ae6862175d8 .color-0,#chart-d2265d31-a79f-4c78-9125-7ae6862175d8 .color-0 a:visited{stroke:#ff5995;fill:#ff5995}#chart-d2265d31-a79f-4c78-9125-7ae6862175d8 .text-overlay .color-0 text{fill:black}
#chart-d2265d31-a79f-4c78-9125-7ae6862175d8 text.no_data{text-anchor:middle}#chart-d2265d31-a79f-4c78-9125-7ae6862175d8 .guide.line{fill:none}#chart-d2265d31-a79f-4c78-9125-7ae6862175d8 .centered{text-anchor:middle}#chart-d2265d31-a79f-4c78-9125-7ae6862175d8 .title{text-anchor:middle}#chart-d2265d31-a79f-4c78-9125-7ae6862175d8 .legends .legend text{fill-opacity:1}#chart-d2265d31-a79f-4c78-9125-7ae6862175d8 .axis.x text{text-anchor:middle}#chart-d2265d31-a79f-4c78-9125-7ae6862175d8 .axis.x:not(.web) text[transform]{text-anchor:start}#chart-d2265d31-a79f-4c78-9125-7ae6862175d8 .axis.x:not(.web) text[transform].backwards{text-anchor:end}#chart-d2265d31-a79f-4c78-9125-7ae6862175d8 .axis.y text{text-anchor:end}#chart-d2265d31-a79f-4c78-9125-7ae6862175d8 .axis.y text[transform].backwards{text-anchor:start}#chart-d2265d31-a79f-4c78-9125-7ae6862175d8 .axis.y2 text{text-anchor:start}#chart-d2265d31-a79f-4c78-9125-7ae6862175d8 .axis.y2 text[transform].backwards{text-anchor:end}#chart-d2265d31-a79f-4c78-9125-7ae6862175d8 .axis .guide.line{stroke-dasharray:4,4}#chart-d2265d31-a79f-4c78-9125-7ae6862175d8 .axis .major.guide.line{stroke-dasharray:6,6}#chart-d2265d31-a79f-4c78-9125-7ae6862175d8 .horizontal .axis.y .guide.line,#chart-d2265d31-a79f-4c78-9125-7ae6862175d8 .horizontal .axis.y2 .guide.line,#chart-d2265d31-a79f-4c78-9125-7ae6862175d8 .vertical .axis.x .guide.line{opacity:0}#chart-d2265d31-a79f-4c78-9125-7ae6862175d8 .horizontal .axis.always_show .guide.line,#chart-d2265d31-a79f-4c78-9125-7ae6862175d8 .vertical .axis.always_show .guide.line{opacity:1 !important}#chart-d2265d31-a79f-4c78-9125-7ae6862175d8 .axis.y .guides:hover .guide.line,#chart-d2265d31-a79f-4c78-9125-7ae6862175d8 .axis.y2 .guides:hover .guide.line,#chart-d2265d31-a79f-4c78-9125-7ae6862175d8 .axis.x .guides:hover .guide.line{opacity:1}#chart-d2265d31-a79f-4c78-9125-7ae6862175d8 .axis .guides:hover text{opacity:1}#chart-d2265d31-a79f-4c78-9125-7ae6862175d8 .nofill{fill:none}#chart-d2265d31-a79f-4c78-9125-7ae6862175d8 .subtle-fill{fill-opacity:.2}#chart-d2265d31-a79f-4c78-9125-7ae6862175d8 .dot{stroke-width:1px;fill-opacity:1}#chart-d2265d31-a79f-4c78-9125-7ae6862175d8 .dot.active{stroke-width:5px}#chart-d2265d31-a79f-4c78-9125-7ae6862175d8 .dot.negative{fill:transparent}#chart-d2265d31-a79f-4c78-9125-7ae6862175d8 text,#chart-d2265d31-a79f-4c78-9125-7ae6862175d8 tspan{stroke:none !important}#chart-d2265d31-a79f-4c78-9125-7ae6862175d8 .series text.active{opacity:1}#chart-d2265d31-a79f-4c78-9125-7ae6862175d8 .tooltip rect{fill-opacity:.95;stroke-width:.5}#chart-d2265d31-a79f-4c78-9125-7ae6862175d8 .tooltip text{fill-opacity:1}#chart-d2265d31-a79f-4c78-9125-7ae6862175d8 .showable{visibility:hidden}#chart-d2265d31-a79f-4c78-9125-7ae6862175d8 .showable.shown{visibility:visible}</style><script type="text/javascript">window.pygal = window.pygal || {};window.pygal.config = window.pygal.config || {};window.pygal.config['d2265d31-a79f-4c78-9125-7ae6862175d8'] = {"value_formatter": null, "stroke_style": null, "show_minor_y_labels": true, "truncate_label": null, "explicit_size": false, "x_labels_major_every": null, "margin_right": null, "height": 600, "max_scale": 16, "x_labels_major_count": null, "logarithmic": false, "show_only_major_dots": false, "y_labels_major_count": null, "title": "Krung-Thon-Buri 53", "force_uri_protocol": null, "width": 800, "x_value_formatter": null, "half_pie": false, "show_x_guides": false, "style": {"background": "black", "major_guide_stroke_dasharray": "6,6", "no_data_font_size": 64, "no_data_font_family": "Consolas, \"Liberation Mono\", Menlo, Courier, monospace", "value_label_font_family": "Consolas, \"Liberation Mono\", Menlo, Courier, monospace", "value_font_size": 16, "legend_font_size": 14, "transition": "250ms", "value_colors": [], "foreground": "#999", "opacity_hover": ".4", "label_font_family": "Consolas, \"Liberation Mono\", Menlo, Courier, monospace", "major_label_font_size": 10, "opacity": ".8", "major_label_font_family": "Consolas, \"Liberation Mono\", Menlo, Courier, monospace", "tooltip_font_family": "Consolas, \"Liberation Mono\", Menlo, Courier, monospace", "font_family": "Consolas, \"Liberation Mono\", Menlo, Courier, monospace", "value_font_family": "Consolas, \"Liberation Mono\", Menlo, Courier, monospace", "colors": ["#ff5995", "#b6e354", "#feed6c", "#8cedff", "#9e6ffe", "#899ca1", "#f8f8f2", "#bf4646", "#516083", "#f92672", "#82b414", "#fd971f", "#56c2d6", "#808384", "#8c54fe", "#465457"], "title_font_size": 16, "foreground_subtle": "#555", "legend_font_family": "Consolas, \"Liberation Mono\", Menlo, Courier, monospace", "plot_background": "#111", "guide_stroke_dasharray": "4,4", "tooltip_font_size": 14, "foreground_strong": "#eee", "label_font_size": 10, "value_label_font_size": 10, "title_font_family": "Consolas, \"Liberation Mono\", Menlo, Courier, monospace"}, "include_x_axis": false, "stroke": true, "interpolation_precision": 250, "inverse_y_axis": false, "js": ["//kozea.github.io/pygal.js/2.0.x/pygal-tooltips.min.js"], "human_readable": false, "y_labels": null, "missing_value_fill_truncation": "x", "no_prefix": false, "disable_xml_declaration": false, "show_y_guides": true, "no_data_text": "No data", "margin": 20, "show_legend": true, "print_zeroes": true, "spacing": 10, "legend_box_size": 12, "tooltip_border_radius": 0, "legends": ["Krung-Thon-Buri"], "y_label_rotation": 0, "order_min": null, "min_scale": 4, "y_labels_major": null, "secondary_range": null, "x_title": null, "show_x_labels": true, "defs": [], "y_title": null, "x_labels": ["Jan", "Feb", "Mar", "Apr", "May", "Jun", "Jul", "Aug", "Sep", "Oct", "Nov", "Dec"], "stack_from_top": false, "print_values": false, "truncate_legend": null, "x_labels_major": null, "css": ["file://style.css", "file://graph.css"], "dots_size": 2.5, "show_y_labels": true, "interpolate": "cubic", "margin_left": null, "print_labels": false, "y_labels_major_every": null, "margin_top": null, "show_minor_x_labels": true, "legend_at_bottom_columns": null, "fill": true, "xrange": null, "strict": false, "zero": 0, "tooltip_fancy_mode": true, "interpolation_parameters": {}, "x_label_rotation": 0, "show_dots": true, "legend_at_bottom": false, "inner_radius": 0, "rounded_bars": null, "range": null, "margin_bottom": null, "box_mode": "extremes", "dynamic_print_values": false, "pretty_print": false}</script><script type="text/javascript" xlink:href="//kozea.github.io/pygal.js/2.0.x/pygal-tooltips.min.js" /></defs><title>Krung-Thon-Buri 53</title><g class="graph line-graph vertical"><rect class="background" height="600" width="800" x="0" y="0" /><g class="plot" transform="translate(226, 46)"><rect class="background" height="514" width="554.0" x="0" y="0" /><g class="axis y"><path class="line" d="M0.000000 514.000000 h554.000000" /><g class="guides"><path class="guide line" d="M0.000000 479.804961 h554.000000" /><text class="" x="-5" y="483.3049606770489">160000.0</text><title>160000.0</title></g><g class="guides"><path class="guide line" d="M0.000000 424.034178 h554.000000" /><text class="" x="-5" y="427.53417799838655">180000.0</text><title>180000.0</title></g><g class="guides"><path class="major guide line" d="M0.000000 368.263395 h554.000000" /><text class="major" x="-5" y="371.76339531972417">200000.0</text><title>200000.0</title></g><g class="guides"><path class="guide line" d="M0.000000 312.492613 h554.000000" /><text class="" x="-5" y="315.9926126410618">220000.0</text><title>220000.0</title></g><g class="guides"><path class="guide line" d="M0.000000 256.721830 h554.000000" /><text class="" x="-5" y="260.2218299623994">240000.0</text><title>240000.0</title></g><g class="guides"><path class="guide line" d="M0.000000 200.951047 h554.000000" /><text class="" x="-5" y="204.451047283737">260000.0</text><title>260000.0</title></g><g class="guides"><path class="guide line" d="M0.000000 145.180265 h554.000000" /><text class="" x="-5" y="148.68026460507468">280000.0</text><title>280000.0</title></g><g class="guides"><path class="major guide line" d="M0.000000 89.409482 h554.000000" /><text class="major" x="-5" y="92.9094819264123">300000.0</text><title>300000.0</title></g><g class="guides"><path class="guide line" d="M0.000000 33.638699 h554.000000" /><text class="" x="-5" y="37.13869924774991">320000.0</text><title>320000.0</title></g></g><g class="axis x"><g class="guides"><path class="line" d="M10.653846 0.000000 v514.000000" /><text class="" x="10.653846153846153" y="529.0">Jan</text></g><g class="guides"><path class="guide line" d="M59.080420 0.000000 v514.000000" /><text class="" x="59.08041958041958" y="529.0">Feb</text></g><g class="guides"><path class="guide line" d="M107.506993 0.000000 v514.000000" /><text class="" x="107.506993006993" y="529.0">Mar</text></g><g class="guides"><path class="guide line" d="M155.933566 0.000000 v514.000000" /><text class="" x="155.93356643356643" y="529.0">Apr</text></g><g class="guides"><path class="guide line" d="M204.360140 0.000000 v514.000000" /><text class="" x="204.36013986013987" y="529.0">May</text></g><g class="guides"><path class="guide line" d="M252.786713 0.000000 v514.000000" /><text class="" x="252.78671328671325" y="529.0">Jun</text></g><g class="guides"><path class="guide line" d="M301.213287 0.000000 v514.000000" /><text class="" x="301.2132867132867" y="529.0">Jul</text></g><g class="guides"><path class="guide line" d="M349.639860 0.000000 v514.000000" /><text class="" x="349.6398601398601" y="529.0">Aug</text></g><g class="guides"><path class="guide line" d="M398.066434 0.000000 v514.000000" /><text class="" x="398.06643356643355" y="529.0">Sep</text></g><g class="guides"><path class="guide line" d="M446.493007 0.000000 v514.000000" /><text class="" x="446.493006993007" y="529.0">Oct</text></g><g class="guides"><path class="guide line" d="M494.919580 0.000000 v514.000000" /><text class="" x="494.9195804195804" y="529.0">Nov</text></g><g class="guides"><path class="guide line" d="M543.346154 0.000000 v514.000000" /><text class="" x="543.3461538461538" y="529.0">Dec</text></g></g><g class="series serie-0 color-0"><path class="line reactive" d="M10.653846 514.000000 L10.653846 233.381757 10.847552 233.649230 11.041259 233.916683 11.234965 234.184099 11.428671 234.451458 11.622378 234.718743 11.816084 234.985933 12.009790 235.253010 12.203497 235.519956 12.397203 235.786752 12.590909 236.053378 12.784615 236.319816 12.978322 236.586048 13.172028 236.852054 13.365734 237.117815 13.559441 237.383314 13.753147 237.648530 13.946853 237.913446 14.140559 238.178042 14.334266 238.442300 14.527972 238.706200 14.721678 238.969725 14.915385 239.232854 15.109091 239.495570 15.302797 239.757854 15.496503 240.019687 15.690210 240.281049 15.883916 240.541923 16.077622 240.802290 16.271329 241.062130 16.465035 241.321424 16.658741 241.580155 16.852448 241.838303 17.046154 242.095850 17.239860 242.352776 17.433566 242.609063 17.627273 242.864692 17.820979 243.119644 18.014685 243.373901 18.208392 243.627443 18.402098 243.880252 18.595804 244.132309 18.789510 244.383596 18.983217 244.634093 19.176923 244.883781 19.370629 245.132643 19.564336 245.380658 19.758042 245.627809 19.951748 245.874076 20.145455 246.119441 20.339161 246.363885 20.532867 246.607388 20.726573 246.849933 20.920280 247.091501 21.113986 247.332072 21.307692 247.571628 21.501399 247.810150 21.695105 248.047619 21.888811 248.284017 22.082517 248.519325 22.276224 248.753523 22.469930 248.986593 22.663636 249.218517 22.857343 249.449275 23.051049 249.678849 23.244755 249.907220 23.438462 250.134368 23.632168 250.360276 23.825874 250.584925 24.019580 250.808295 24.213287 251.030368 24.406993 251.251125 24.600699 251.470548 24.794406 251.688617 24.988112 251.905314 25.181818 252.120619 25.375524 252.334515 25.569231 252.546982 25.762937 252.758001 25.956643 252.967554 26.150350 253.175622 26.344056 253.382186 26.537762 253.587227 26.731469 253.790727 26.925175 253.992667 27.118881 254.193027 27.312587 254.391790 27.506294 254.588936 27.700000 254.784446 27.893706 254.978302 28.087413 255.170485 28.281119 255.360976 28.474825 255.549756 28.668531 255.736807 28.862238 255.922110 29.055944 256.105645 29.249650 256.287395 29.443357 256.467340 29.637063 256.645461 29.830769 256.821741 30.024476 256.996159 30.218182 257.168697 30.411888 257.339336 30.605594 257.508058 30.799301 257.674844 30.993007 257.839675 31.186713 258.002532 31.380420 258.163396 31.574126 258.322248 31.767832 258.479071 31.961538 258.633844 32.155245 258.786549 32.348951 258.937168 32.542657 259.085682 32.736364 259.232071 32.930070 259.376317 33.123776 259.518401 33.317483 259.658304 33.511189 259.796008 33.704895 259.931494 33.898601 260.064742 34.092308 260.195735 34.286014 260.324453 34.479720 260.450878 34.673427 260.574990 34.867133 260.696772 35.060839 260.816203 35.254545 260.933266 35.448252 261.047942 35.641958 261.160211 35.835664 261.270055 36.029371 261.377455 36.223077 261.482393 36.416783 261.584849 36.610490 261.684805 36.804196 261.782242 36.997902 261.877141 37.191608 261.969483 37.385315 262.059250 37.579021 262.146423 37.772727 262.230983 37.966434 262.312910 38.160140 262.392188 38.353846 262.468795 38.547552 262.542715 38.741259 262.613928 38.934965 262.682414 39.128671 262.748156 39.322378 262.811135 39.516084 262.871331 39.709790 262.928727 39.903497 262.983302 40.097203 263.035039 40.290909 263.083919 40.484615 263.129922 40.678322 263.173030 40.872028 263.213225 41.065734 263.250487 41.259441 263.284797 41.453147 263.316137 41.646853 263.344489 41.840559 263.369832 42.034266 263.392149 42.227972 263.411420 42.421678 263.427627 42.615385 263.440751 42.809091 263.450774 43.002797 263.457676 43.196503 263.461438 43.390210 263.462042 43.583916 263.459469 43.777622 263.453701 43.971329 263.444717 44.165035 263.432501 44.358741 263.417032 44.552448 263.398292 44.746154 263.376262 44.939860 263.350924 45.133566 263.322258 45.327273 263.290247 45.520979 263.254870 45.714685 263.216109 45.908392 263.173946 46.102098 263.128362 46.295804 263.079337 46.489510 263.026853 46.683217 262.970892 46.876923 262.911433 47.070629 262.848460 47.264336 262.781952 47.458042 262.711892 47.651748 262.638259 47.845455 262.561036 48.039161 262.480204 48.232867 262.395743 48.426573 262.307636 48.620280 262.215863 48.813986 262.120405 49.007692 262.021244 49.201399 261.918360 49.395105 261.811736 49.588811 261.701352 49.782517 261.587189 49.976224 261.469229 50.169930 261.347453 50.363636 261.221842 50.557343 261.092377 50.751049 260.959039 50.944755 260.821810 51.138462 260.680671 51.332168 260.535603 51.525874 260.386588 51.719580 260.233606 51.913287 260.076638 52.106993 259.915666 52.300699 259.750671 52.494406 259.581635 52.688112 259.408538 52.881818 259.231362 53.075524 259.050087 53.269231 258.864696 53.462937 258.675169 53.656643 258.481487 53.850350 258.283632 54.044056 258.081585 54.237762 257.875327 54.431469 257.664839 54.625175 257.450102 54.818881 257.231099 55.012587 257.007809 55.206294 256.780214 55.400000 256.548296 55.593706 256.312034 55.787413 256.071412 55.981119 255.826410 56.174825 255.577008 56.368531 255.323189 56.562238 255.064933 56.755944 254.802222 56.949650 254.535037 57.143357 254.263359 57.337063 253.987170 57.530769 253.706449 57.724476 253.421180 57.918182 253.131342 58.111888 252.836917 58.305594 252.537887 58.499301 252.234232 58.693007 251.925934 58.886713 251.612974 59.080420 251.295333 59.274126 250.973004 59.467832 250.646026 59.661538 250.314453 59.855245 249.978334 60.048951 249.637722 60.242657 249.292668 60.436364 248.943224 60.630070 248.589441 60.823776 248.231371 61.017483 247.869066 61.211189 247.502577 61.404895 247.131955 61.598601 246.757253 61.792308 246.378522 61.986014 245.995813 62.179720 245.609178 62.373427 245.218669 62.567133 244.824336 62.760839 244.426233 62.954545 244.024410 63.148252 243.618919 63.341958 243.209812 63.535664 242.797139 63.729371 242.380953 63.923077 241.961306 64.116783 241.538248 64.310490 241.111832 64.504196 240.682109 64.697902 240.249130 64.891608 239.812948 65.085315 239.373613 65.279021 238.931178 65.472727 238.485693 65.666434 238.037211 65.860140 237.585783 66.053846 237.131461 66.247552 236.674296 66.441259 236.214340 66.634965 235.751644 66.828671 235.286260 67.022378 234.818240 67.216084 234.347635 67.409790 233.874497 67.603497 233.398877 67.797203 232.920827 67.990909 232.440398 68.184615 231.957643 68.378322 231.472612 68.572028 230.985357 68.765734 230.495930 68.959441 230.004383 69.153147 229.510766 69.346853 229.015132 69.540559 228.517532 69.734266 228.018018 69.927972 227.516641 70.121678 227.013453 70.315385 226.508506 70.509091 226.001851 70.702797 225.493539 70.896503 224.983622 71.090210 224.472152 71.283916 223.959181 71.477622 223.444760 71.671329 222.928940 71.865035 222.411773 72.058741 221.893311 72.252448 221.373605 72.446154 220.852707 72.639860 220.330668 72.833566 219.807541 73.027273 219.283376 73.220979 218.758225 73.414685 218.232140 73.608392 217.705173 73.802098 217.177374 73.995804 216.648796 74.189510 216.119490 74.383217 215.589508 74.576923 215.058901 74.770629 214.527721 74.964336 213.996019 75.158042 213.463847 75.351748 212.931257 75.545455 212.398300 75.739161 211.865028 75.932867 211.331492 76.126573 210.797744 76.320280 210.263835 76.513986 209.729818 76.707692 209.195743 76.901399 208.661663 77.095105 208.127628 77.288811 207.593691 77.482517 207.059902 77.676224 206.526315 77.869930 205.992979 78.063636 205.459947 78.257343 204.927271 78.451049 204.395001 78.644755 203.863190 78.838462 203.331889 79.032168 202.801150 79.225874 202.271024 79.419580 201.741563 79.613287 201.212818 79.806993 200.684841 80.000699 200.157683 80.194406 199.631397 80.388112 199.106034 80.581818 198.581644 80.775524 198.058281 80.969231 197.535995 81.162937 197.014838 81.356643 196.494862 81.550350 195.976118 81.744056 195.458658 81.937762 194.942533 82.131469 194.427796 82.325175 193.914496 82.518881 193.402687 82.712587 192.892420 82.906294 192.383745 83.100000 191.876716 83.293706 191.371383 83.487413 190.867798 83.681119 190.366013 83.874825 189.866079 84.068531 189.368048 84.262238 188.871971 84.455944 188.377900 84.649650 187.885887 84.843357 187.395983 85.037063 186.908239 85.230769 186.422708 85.424476 185.939440 85.618182 185.458488 85.811888 184.979903 86.005594 184.503737 86.199301 184.030040 86.393007 183.558866 86.586713 183.090265 86.780420 182.624289 86.974126 182.160989 87.167832 181.700417 87.361538 181.242625 87.555245 180.787665 87.748951 180.335587 87.942657 179.886443 88.136364 179.440286 88.330070 178.997166 88.523776 178.557135 88.717483 178.120245 88.911189 177.686548 89.104895 177.256094 89.298601 176.828936 89.492308 176.405125 89.686014 175.984712 89.879720 175.567750 90.073427 175.154289 90.267133 174.744382 90.460839 174.338080 90.654545 173.935435 90.848252 173.536497 91.041958 173.141320 91.235664 172.749953 91.429371 172.362450 91.623077 171.978861 91.816783 171.599238 92.010490 171.223633 92.204196 170.852097 92.397902 170.484682 92.591608 170.121439 92.785315 169.762420 92.979021 169.407676 93.172727 169.057260 93.366434 168.711223 93.560140 168.369615 93.753846 168.032490 93.947552 167.699898 94.141259 167.371891 94.334965 167.048521 94.528671 166.729839 94.722378 166.415897 94.916084 166.106746 95.109790 165.802438 95.303497 165.503025 95.497203 165.208557 95.690909 164.919088 95.884615 164.634667 96.078322 164.355348 96.272028 164.081181 96.465734 163.812218 96.659441 163.548511 96.853147 163.290110 97.046853 163.037069 97.240559 162.789438 97.434266 162.547269 97.627972 162.310613 97.821678 162.079522 98.015385 161.854049 98.209091 161.634243 98.402797 161.420157 98.596503 161.211843 98.790210 161.009351 98.983916 160.812735 99.177622 160.622044 99.371329 160.437331 99.565035 160.258648 99.758741 160.086045 99.952448 159.919575 100.146154 159.759289 100.339860 159.605238 100.533566 159.457475 100.727273 159.316051 100.920979 159.181017 101.114685 159.052425 101.308392 158.930327 101.502098 158.814774 101.695804 158.705817 101.889510 158.603509 102.083217 158.507901 102.276923 158.419044 102.470629 158.336990 102.664336 158.261791 102.858042 158.193498 103.051748 158.132163 103.245455 158.077838 103.439161 158.030573 103.632867 157.990421 103.826573 157.957433 104.020280 157.931661 104.213986 157.913156 104.407692 157.901969 104.601399 157.898154 104.795105 157.901760 104.988811 157.912840 105.182517 157.931445 105.376224 157.957627 105.569930 157.991438 105.763636 158.032928 105.957343 158.082150 106.151049 158.139155 106.344755 158.203995 106.538462 158.276721 106.732168 158.357385 106.925874 158.446038 107.119580 158.542732 107.313287 158.647519 107.506993 158.760450 107.700699 158.881563 107.894406 159.010839 108.088112 159.148244 108.281818 159.293747 108.475524 159.447313 108.669231 159.608911 108.862937 159.778507 109.056643 159.956068 109.250350 160.141561 109.444056 160.334954 109.637762 160.536213 109.831469 160.745306 110.025175 160.962199 110.218881 161.186860 110.412587 161.419256 110.606294 161.659354 110.800000 161.907120 110.993706 162.162522 111.187413 162.425528 111.381119 162.696103 111.574825 162.974215 111.768531 163.259832 111.962238 163.552920 112.155944 163.853446 112.349650 164.161378 112.543357 164.476682 112.737063 164.799326 112.930769 165.129276 113.124476 165.466500 113.318182 165.810965 113.511888 166.162637 113.705594 166.521484 113.899301 166.887474 114.093007 167.260572 114.286713 167.640746 114.480420 168.027964 114.674126 168.422192 114.867832 168.823397 115.061538 169.231546 115.255245 169.646607 115.448951 170.068546 115.642657 170.497331 115.836364 170.932928 116.030070 171.375305 116.223776 171.824429 116.417483 172.280267 116.611189 172.742785 116.804895 173.211952 116.998601 173.687734 117.192308 174.170097 117.386014 174.659010 117.579720 175.154439 117.773427 175.656351 117.967133 176.164714 118.160839 176.679494 118.354545 177.200659 118.548252 177.728175 118.741958 178.262010 118.935664 178.802131 119.129371 179.348504 119.323077 179.901097 119.516783 180.459877 119.710490 181.024811 119.904196 181.595866 120.097902 182.173009 120.291608 182.756208 120.485315 183.345428 120.679021 183.940638 120.872727 184.541805 121.066434 185.148895 121.260140 185.761875 121.453846 186.380713 121.647552 187.005375 121.841259 187.635829 122.034965 188.272042 122.228671 188.913981 122.422378 189.561613 122.616084 190.214905 122.809790 190.873824 123.003497 191.538337 123.197203 192.208411 123.390909 192.884013 123.584615 193.565111 123.778322 194.251671 123.972028 194.943661 124.165734 195.641047 124.359441 196.343797 124.553147 197.051877 124.746853 197.765256 124.940559 198.483899 125.134266 199.207773 125.327972 199.936847 125.521678 200.671087 125.715385 201.410460 125.909091 202.154933 126.102797 202.904473 126.296503 203.659048 126.490210 204.418624 126.683916 205.183168 126.877622 205.952648 127.071329 206.727030 127.265035 207.506282 127.458741 208.290370 127.652448 209.079263 127.846154 209.872926 128.039860 210.671327 128.233566 211.474433 128.427273 212.282211 128.620979 213.094628 128.814685 213.911652 129.008392 214.733248 129.202098 215.559385 129.395804 216.390029 129.589510 217.225148 129.783217 218.064708 129.976923 218.908677 130.170629 219.757021 130.364336 220.609708 130.558042 221.466705 130.751748 222.327979 130.945455 223.193496 131.139161 224.063225 131.332867 224.937131 131.526573 225.815183 131.720280 226.697347 131.913986 227.583590 132.107692 228.473879 132.301399 229.368182 132.495105 230.266465 132.688811 231.168696 132.882517 232.074841 133.076224 232.984868 133.269930 233.898744 133.463636 234.816436 133.657343 235.737910 133.851049 236.663134 134.044755 237.592075 134.238462 238.524701 134.432168 239.460977 134.625874 240.400872 134.819580 241.344352 135.013287 242.291384 135.206993 243.241936 135.400699 244.195974 135.594406 245.153465 135.788112 246.114378 135.981818 247.078678 136.175524 248.046332 136.369231 249.017309 136.562937 249.991574 136.756643 250.969095 136.950350 251.949840 137.144056 252.933774 137.337762 253.920865 137.531469 254.911081 137.725175 255.904388 137.918881 256.900753 138.112587 257.900144 138.306294 258.902527 138.500000 259.907870 138.693706 260.916139 138.887413 261.927303 139.081119 262.941326 139.274825 263.958178 139.468531 264.977824 139.662238 266.000233 139.855944 267.025370 140.049650 268.053204 140.243357 269.083701 140.437063 270.116828 140.630769 271.152552 140.824476 272.190841 141.018182 273.231661 141.211888 274.274979 141.405594 275.320764 141.599301 276.368980 141.793007 277.419597 141.986713 278.472580 142.180420 279.527897 142.374126 280.585515 142.567832 281.645401 142.761538 282.707522 142.955245 283.771845 143.148951 284.838338 143.342657 285.906966 143.536364 286.977698 143.730070 288.050500 143.923776 289.125340 144.117483 290.202184 144.311189 291.281000 144.504895 292.361754 144.698601 293.444414 144.892308 294.528947 145.086014 295.615320 145.279720 296.703500 145.473427 297.793453 145.667133 298.885148 145.860839 299.978551 146.054545 301.073629 146.248252 302.170350 146.441958 303.268679 146.635664 304.368585 146.829371 305.470035 147.023077 306.572995 147.216783 307.677432 147.410490 308.783315 147.604196 309.890609 147.797902 310.999282 147.991608 312.109300 148.185315 313.220632 148.379021 314.333244 148.572727 315.447103 148.766434 316.562175 148.960140 317.678430 149.153846 318.795832 149.347552 319.914350 149.541259 321.033950 149.734965 322.154599 149.928671 323.276266 150.122378 324.398915 150.316084 325.522516 150.509790 326.647034 150.703497 327.772437 150.897203 328.898692 151.090909 330.025766 151.284615 331.153626 151.478322 332.282239 151.672028 333.411572 151.865734 334.541592 152.059441 335.672267 152.253147 336.803563 152.446853 337.935448 152.640559 339.067888 152.834266 340.200850 153.027972 341.334302 153.221678 342.468211 153.415385 343.602544 153.609091 344.737267 153.802797 345.872349 153.996503 347.007755 154.190210 348.143453 154.383916 349.279411 154.577622 350.415595 154.771329 351.551972 154.965035 352.688509 155.158741 353.825173 155.352448 354.961932 155.546154 356.098753 155.739860 357.235602 155.933566 358.372447 156.127273 359.509250 156.320979 360.645955 156.514685 361.782500 156.708392 362.918826 156.902098 364.054870 157.095804 365.190573 157.289510 366.325874 157.483217 367.460710 157.676923 368.595022 157.870629 369.728749 158.064336 370.861830 158.258042 371.994203 158.451748 373.125808 158.645455 374.256584 158.839161 375.386470 159.032867 376.515406 159.226573 377.643329 159.420280 378.770180 159.613986 379.895898 159.807692 381.020421 160.001399 382.143689 160.195105 383.265641 160.388811 384.386215 160.582517 385.505352 160.776224 386.622989 160.969930 387.739067 161.163636 388.853524 161.357343 389.966299 161.551049 391.077332 161.744755 392.186561 161.938462 393.293926 162.132168 394.399366 162.325874 395.502820 162.519580 396.604226 162.713287 397.703525 162.906993 398.800655 163.100699 399.895555 163.294406 400.988164 163.488112 402.078422 163.681818 403.166267 163.875524 404.251639 164.069231 405.334477 164.262937 406.414720 164.456643 407.492306 164.650350 408.567176 164.844056 409.639267 165.037762 410.708520 165.231469 411.774874 165.425175 412.838266 165.618881 413.898638 165.812587 414.955926 166.006294 416.010072 166.200000 417.061013 166.393706 418.108690 166.587413 419.153040 166.781119 420.194003 166.974825 421.231519 167.168531 422.265526 167.362238 423.295963 167.555944 424.322770 167.749650 425.345886 167.943357 426.365249 168.137063 427.380799 168.330769 428.392474 168.524476 429.400215 168.718182 430.403960 168.911888 431.403648 169.105594 432.399219 169.299301 433.390611 169.493007 434.377763 169.686713 435.360615 169.880420 436.339105 170.074126 437.313174 170.267832 438.282759 170.461538 439.247800 170.655245 440.208236 170.848951 441.164007 171.042657 442.115051 171.236364 443.061307 171.430070 444.002714 171.623776 444.939212 171.817483 445.870740 172.011189 446.797237 172.204895 447.718641 172.398601 448.634893 172.592308 449.545930 172.786014 450.451693 172.979720 451.352119 173.173427 452.247150 173.367133 453.136722 173.560839 454.020776 173.754545 454.899251 173.948252 455.772086 174.141958 456.639219 174.335664 457.500590 174.529371 458.356139 174.723077 459.205803 174.916783 460.049523 175.110490 460.887237 175.304196 461.718885 175.497902 462.544405 175.691608 463.363736 175.885315 464.176819 176.079021 464.983591 176.272727 465.783992 176.466434 466.577961 176.660140 467.365437 176.853846 468.146360 177.047552 468.920668 177.241259 469.688300 177.434965 470.449196 177.628671 471.203294 177.822378 471.950534 178.016084 472.690855 178.209790 473.424195 178.403497 474.150495 178.597203 474.869693 178.790909 475.581728 178.984615 476.286539 179.178322 476.984066 179.372028 477.674247 179.565734 478.357022 179.759441 479.032329 179.953147 479.700109 180.146853 480.360299 180.340559 481.012839 180.534266 481.657668 180.727972 482.294725 180.921678 482.923950 181.115385 483.545281 181.309091 484.158657 181.502797 484.764019 181.696503 485.361303 181.890210 485.950451 182.083916 486.531400 182.277622 487.104090 182.471329 487.668461 182.665035 488.224450 182.858741 488.771998 183.052448 489.311043 183.246154 489.841525 183.439860 490.363382 183.633566 490.876553 183.827273 491.380979 184.020979 491.876597 184.214685 492.363348 184.408392 492.841169 184.602098 493.310000 184.795804 493.769781 184.989510 494.220450 185.183217 494.661947 185.376923 495.094210 185.570629 495.517178 185.764336 495.930792 185.958042 496.334989 186.151748 496.729709 186.345455 497.114891 186.539161 497.490474 186.732867 497.856398 186.926573 498.212600 187.120280 498.559022 187.313986 498.895600 187.507692 499.222276 187.701399 499.538987 187.895105 499.845672 188.088811 500.142272 188.282517 500.428725 188.476224 500.704970 188.669930 500.970946 188.863636 501.226592 189.057343 501.471848 189.251049 501.706652 189.444755 501.930944 189.638462 502.144662 189.832168 502.347747 190.025874 502.540136 190.219580 502.721769 190.413287 502.892585 190.606993 503.052523 190.800699 503.201523 190.994406 503.339523 191.188112 503.466463 191.381818 503.582281 191.575524 503.686917 191.769231 503.780309 191.962937 503.862397 192.156643 503.933121 192.350350 503.992418 192.544056 504.040229 192.737762 504.076492 192.931469 504.101146 193.125175 504.114130 193.318881 504.115385 193.512587 504.104847 193.706294 504.082458 193.900000 504.048155 194.093706 504.001879 194.287413 503.943567 194.481119 503.873160 194.674825 503.790596 194.868531 503.695814 195.062238 503.588753 195.255944 503.469353 195.449650 503.337553 195.643357 503.193292 195.837063 503.036508 196.030769 502.867141 196.224476 502.685130 196.418182 502.490415 196.611888 502.282933 196.805594 502.062625 196.999301 501.829430 197.193007 501.583285 197.386713 501.324132 197.580420 501.051908 197.774126 500.766553 197.967832 500.468006 198.161538 500.156206 198.355245 499.831092 198.548951 499.492603 198.742657 499.140678 198.936364 498.775257 199.130070 498.396279 199.323776 498.003682 199.517483 497.597405 199.711189 497.177389 199.904895 496.743571 200.098601 496.295891 200.292308 495.834289 200.486014 495.358702 200.679720 494.869071 200.873427 494.365334 201.067133 493.847431 201.260839 493.315300 201.454545 492.768881 201.648252 492.208113 201.841958 491.632935 202.035664 491.043285 202.229371 490.439104 202.423077 489.820330 202.616783 489.186902 202.810490 488.538759 203.004196 487.875841 203.197902 487.198086 203.391608 486.505434 203.585315 485.797824 203.779021 485.075195 203.972727 484.337485 204.166434 483.584635 204.360140 482.816583 204.553846 482.033297 204.747552 481.234865 204.941259 480.421403 205.134965 479.593026 205.328671 478.749851 205.522378 477.891993 205.716084 477.019570 205.909790 476.132696 206.103497 475.231489 206.297203 474.316064 206.490909 473.386538 206.684615 472.443026 206.878322 471.485645 207.072028 470.514511 207.265734 469.529740 207.459441 468.531448 207.653147 467.519751 207.846853 466.494765 208.040559 465.456607 208.234266 464.405393 208.427972 463.341238 208.621678 462.264258 208.815385 461.174571 209.009091 460.072292 209.202797 458.957537 209.396503 457.830423 209.590210 456.691064 209.783916 455.539579 209.977622 454.376082 210.171329 453.200689 210.365035 452.013518 210.558741 450.814684 210.752448 449.604303 210.946154 448.382491 211.139860 447.149364 211.333566 445.905040 211.527273 444.649632 211.720979 443.383259 211.914685 442.106035 212.108392 440.818078 212.302098 439.519502 212.495804 438.210425 212.689510 436.890962 212.883217 435.561230 213.076923 434.221344 213.270629 432.871421 213.464336 431.511577 213.658042 430.141928 213.851748 428.762590 214.045455 427.373679 214.239161 425.975312 214.432867 424.567604 214.626573 423.150672 214.820280 421.724631 215.013986 420.289599 215.207692 418.845690 215.401399 417.393021 215.595105 415.931709 215.788811 414.461869 215.982517 412.983617 216.176224 411.497070 216.369930 410.002344 216.563636 408.499554 216.757343 406.988818 216.951049 405.470250 217.144755 403.943968 217.338462 402.410087 217.532168 400.868724 217.725874 399.319994 217.919580 397.764013 218.113287 396.200899 218.306993 394.630766 218.500699 393.053732 218.694406 391.469912 218.888112 389.879421 219.081818 388.282378 219.275524 386.678897 219.469231 385.069094 219.662937 383.453087 219.856643 381.830990 220.050350 380.202920 220.244056 378.568994 220.437762 376.929327 220.631469 375.284035 220.825175 373.633235 221.018881 371.977042 221.212587 370.315573 221.406294 368.648944 221.600000 366.977271 221.793706 365.300670 221.987413 363.619257 222.181119 361.933149 222.374825 360.242461 222.568531 358.547310 222.762238 356.847812 222.955944 355.144082 223.149650 353.436238 223.343357 351.724394 223.537063 350.008668 223.730769 348.289175 223.924476 346.566032 224.118182 344.839354 224.311888 343.109258 224.505594 341.375860 224.699301 339.639276 224.893007 337.899622 225.086713 336.157014 225.280420 334.411568 225.474126 332.663401 225.667832 330.912629 225.861538 329.159367 226.055245 327.403732 226.248951 325.645840 226.442657 323.885807 226.636364 322.123749 226.830070 320.359782 227.023776 318.594023 227.217483 316.826588 227.411189 315.057592 227.604895 313.287152 227.798601 311.515384 227.992308 309.742404 228.186014 307.968328 228.379720 306.193273 228.573427 304.417353 228.767133 302.640687 228.960839 300.863389 229.154545 299.085576 229.348252 297.307363 229.541958 295.528868 229.735664 293.750206 229.929371 291.971493 230.123077 290.192846 230.316783 288.414380 230.510490 286.636211 230.704196 284.858457 230.897902 283.081232 231.091608 281.304654 231.285315 279.528837 231.479021 277.753899 231.672727 275.979955 231.866434 274.207122 232.060140 272.435515 232.253846 270.665251 232.447552 268.896446 232.641259 267.129216 232.834965 265.363676 233.028671 263.599945 233.222378 261.838136 233.416084 260.078367 233.609790 258.320754 233.803497 256.565412 233.997203 254.812458 234.190909 253.062008 234.384615 251.314178 234.578322 249.569085 234.772028 247.826844 234.965734 246.087571 235.159441 244.351383 235.353147 242.618395 235.546853 240.888724 235.740559 239.162487 235.934266 237.439798 236.127972 235.720774 236.321678 234.005532 236.515385 232.294187 236.709091 230.586856 236.902797 228.883655 237.096503 227.184699 237.290210 225.490105 237.483916 223.799989 237.677622 222.114468 237.871329 220.433656 238.065035 218.757671 238.258741 217.086629 238.452448 215.420645 238.646154 213.759836 238.839860 212.104318 239.033566 210.454207 239.227273 208.809619 239.420979 207.170671 239.614685 205.537477 239.808392 203.910156 240.002098 202.288822 240.195804 200.673591 240.389510 199.064581 240.583217 197.461906 240.776923 195.865684 240.970629 194.276030 241.164336 192.693060 241.358042 191.116891 241.551748 189.547639 241.745455 187.985419 241.939161 186.430348 242.132867 184.882542 242.326573 183.342117 242.520280 181.809189 242.713986 180.283875 242.907692 178.766290 243.101399 177.256551 243.295105 175.754773 243.488811 174.261073 243.682517 172.775568 243.876224 171.298372 244.069930 169.829602 244.263636 168.369375 244.457343 166.917806 244.651049 165.475012 244.844755 164.041109 245.038462 162.616212 245.232168 161.200439 245.425874 159.793904 245.619580 158.396725 245.813287 157.009016 246.006993 155.630896 246.200699 154.262479 246.394406 152.903881 246.588112 151.555219 246.781818 150.216610 246.975524 148.888168 247.169231 147.570010 247.362937 146.262253 247.556643 144.965012 247.750350 143.678404 247.944056 142.402544 248.137762 141.137549 248.331469 139.883535 248.525175 138.640618 248.718881 137.408914 248.912587 136.188540 249.106294 134.979611 249.300000 133.782243 249.493706 132.596553 249.687413 131.422657 249.881119 130.260670 250.074825 129.110710 250.268531 127.972891 250.462238 126.847331 250.655944 125.734146 250.849650 124.633450 251.043357 123.545362 251.237063 122.469996 251.430769 121.407469 251.624476 120.357897 251.818182 119.321396 252.011888 118.298082 252.205594 117.288072 252.399301 116.291481 252.593007 115.308425 252.786713 114.339022 252.980420 113.383354 253.174126 112.441379 253.367832 111.513022 253.561538 110.598207 253.755245 109.696859 253.948951 108.808904 254.142657 107.934266 254.336364 107.072869 254.530070 106.224640 254.723776 105.389502 254.917483 104.567381 255.111189 103.758201 255.304895 102.961888 255.498601 102.178365 255.692308 101.407559 255.886014 100.649394 256.079720 99.903795 256.273427 99.170686 256.467133 98.449993 256.660839 97.741640 256.854545 97.045553 257.048252 96.361656 257.241958 95.689874 257.435664 95.030132 257.629371 94.382354 257.823077 93.746467 258.016783 93.122394 258.210490 92.510060 258.404196 91.909391 258.597902 91.320311 258.791608 90.742745 258.985315 90.176618 259.179021 89.621855 259.372727 89.078381 259.566434 88.546120 259.760140 88.024997 259.953846 87.514938 260.147552 87.015867 260.341259 86.527709 260.534965 86.050390 260.728671 85.583833 260.922378 85.127963 261.116084 84.682706 261.309790 84.247987 261.503497 83.823730 261.697203 83.409860 261.890909 83.006302 262.084615 82.612981 262.278322 82.229822 262.472028 81.856750 262.665734 81.493689 262.859441 81.140565 263.053147 80.797302 263.246853 80.463825 263.440559 80.140059 263.634266 79.825930 263.827972 79.521361 264.021678 79.226277 264.215385 78.940605 264.409091 78.664267 264.602797 78.397190 264.796503 78.139298 264.990210 77.890517 265.183916 77.650770 265.377622 77.419983 265.571329 77.198081 265.765035 76.984988 265.958741 76.780630 266.152448 76.584931 266.346154 76.397816 266.539860 76.219210 266.733566 76.049038 266.927273 75.887225 267.120979 75.733696 267.314685 75.588375 267.508392 75.451188 267.702098 75.322059 267.895804 75.200913 268.089510 75.087675 268.283217 74.982271 268.476923 74.884624 268.670629 74.794659 268.864336 74.712302 269.058042 74.637478 269.251748 74.570111 269.445455 74.510126 269.639161 74.457448 269.832867 74.412003 270.026573 74.373713 270.220280 74.342506 270.413986 74.318305 270.607692 74.301036 270.801399 74.290623 270.995105 74.286991 271.188811 74.290065 271.382517 74.299770 271.576224 74.316031 271.769930 74.338772 271.963636 74.367920 272.157343 74.403397 272.351049 74.445130 272.544755 74.493043 272.738462 74.547061 272.932168 74.607109 273.125874 74.673112 273.319580 74.744994 273.513287 74.822681 273.706993 74.906098 273.900699 74.995168 274.094406 75.089818 274.288112 75.189972 274.481818 75.295555 274.675524 75.406492 274.869231 75.522707 275.062937 75.644126 275.256643 75.770673 275.450350 75.902274 275.644056 76.038853 275.837762 76.180334 276.031469 76.326644 276.225175 76.477707 276.418881 76.633447 276.612587 76.793790 276.806294 76.958660 277.000000 77.127982 277.193706 77.301682 277.387413 77.479684 277.581119 77.661912 277.774825 77.848293 277.968531 78.038750 278.162238 78.233208 278.355944 78.431593 278.549650 78.633830 278.743357 78.839842 278.937063 79.049556 279.130769 79.262895 279.324476 79.479785 279.518182 79.700151 279.711888 79.923917 279.905594 80.151009 280.099301 80.381351 280.293007 80.614869 280.486713 80.851486 280.680420 81.091128 280.874126 81.333720 281.067832 81.579187 281.261538 81.827453 281.455245 82.078444 281.648951 82.332084 281.842657 82.588298 282.036364 82.847011 282.230070 83.108148 282.423776 83.371634 282.617483 83.637393 282.811189 83.905351 283.004895 84.175433 283.198601 84.447562 283.392308 84.721665 283.586014 84.997666 283.779720 85.275490 283.973427 85.555061 284.167133 85.836306 284.360839 86.119147 284.554545 86.403512 284.748252 86.689323 284.941958 86.976507 285.135664 87.264987 285.329371 87.554690 285.523077 87.845539 285.716783 88.137460 285.910490 88.430378 286.104196 88.724217 286.297902 89.018902 286.491608 89.314358 286.685315 89.610511 286.879021 89.907284 287.072727 90.204603 287.266434 90.502393 287.460140 90.800578 287.653846 91.099083 287.847552 91.397834 288.041259 91.696755 288.234965 91.995771 288.428671 92.294807 288.622378 92.593788 288.816084 92.892639 289.009790 93.191284 289.203497 93.489648 289.397203 93.787656 289.590909 94.085234 289.784615 94.382306 289.978322 94.678797 290.172028 94.974631 290.365734 95.269734 290.559441 95.564031 290.753147 95.857446 290.946853 96.149904 291.140559 96.441330 291.334266 96.731650 291.527972 97.020787 291.721678 97.308667 291.915385 97.595215 292.109091 97.880355 292.302797 98.164013 292.496503 98.446113 292.690210 98.726580 292.883916 99.005339 293.077622 99.282315 293.271329 99.557433 293.465035 99.830617 293.658741 100.101793 293.852448 100.370885 294.046154 100.637819 294.239860 100.902519 294.433566 101.164909 294.627273 101.424916 294.820979 101.682463 295.014685 101.937476 295.208392 102.189880 295.402098 102.439599 295.595804 102.686558 295.789510 102.930682 295.983217 103.171897 296.176923 103.410126 296.370629 103.645295 296.564336 103.877328 296.758042 104.106152 296.951748 104.331689 297.145455 104.553866 297.339161 104.772607 297.532867 104.987837 297.726573 105.199480 297.920280 105.407463 298.113986 105.611709 298.307692 105.812144 298.501399 106.008692 298.695105 106.201278 298.888811 106.389828 299.082517 106.574265 299.276224 106.754516 299.469930 106.930504 299.663636 107.102154 299.857343 107.269393 300.051049 107.432143 300.244755 107.590331 300.438462 107.743881 300.632168 107.892718 300.825874 108.036767 301.019580 108.175953 301.213287 108.310200 301.406993 108.439451 301.600699 108.563717 301.794406 108.683027 301.988112 108.797409 302.181818 108.906892 302.375524 109.011504 302.569231 109.111275 302.762937 109.206231 302.956643 109.296403 303.150350 109.381819 303.344056 109.462507 303.537762 109.538496 303.731469 109.609814 303.925175 109.676490 304.118881 109.738553 304.312587 109.796031 304.506294 109.848953 304.700000 109.897347 304.893706 109.941242 305.087413 109.980667 305.281119 110.015650 305.474825 110.046219 305.668531 110.072404 305.862238 110.094232 306.055944 110.111733 306.249650 110.124935 306.443357 110.133866 306.637063 110.138555 306.830769 110.139031 307.024476 110.135323 307.218182 110.127458 307.411888 110.115466 307.605594 110.099375 307.799301 110.079213 307.993007 110.055009 308.186713 110.026793 308.380420 109.994591 308.574126 109.958434 308.767832 109.918349 308.961538 109.874365 309.155245 109.826511 309.348951 109.774815 309.542657 109.719306 309.736364 109.660012 309.930070 109.596962 310.123776 109.530185 310.317483 109.459709 310.511189 109.385562 310.704895 109.307774 310.898601 109.226373 311.092308 109.141387 311.286014 109.052845 311.479720 108.960776 311.673427 108.865207 311.867133 108.766169 312.060839 108.663689 312.254545 108.557796 312.448252 108.448518 312.641958 108.335885 312.835664 108.219924 313.029371 108.100664 313.223077 107.978135 313.416783 107.852363 313.610490 107.723379 313.804196 107.591210 313.997902 107.455885 314.191608 107.317433 314.385315 107.175882 314.579021 107.031261 314.772727 106.883598 314.966434 106.732923 315.160140 106.579263 315.353846 106.422647 315.547552 106.263104 315.741259 106.100662 315.934965 105.935350 316.128671 105.767197 316.322378 105.596231 316.516084 105.422480 316.709790 105.245974 316.903497 105.066740 317.097203 104.884808 317.290909 104.700206 317.484615 104.512962 317.678322 104.323105 317.872028 104.130665 318.065734 103.935668 318.259441 103.738144 318.453147 103.538122 318.646853 103.335630 318.840559 103.130696 319.034266 102.923349 319.227972 102.713618 319.421678 102.501532 319.615385 102.287118 319.809091 102.070406 320.002797 101.851424 320.196503 101.630201 320.390210 101.406765 320.583916 101.181144 320.777622 100.953368 320.971329 100.723465 321.165035 100.491464 321.358741 100.257392 321.552448 100.021279 321.746154 99.783154 321.939860 99.543044 322.133566 99.300979 322.327273 99.056987 322.520979 98.811096 322.714685 98.563336 322.908392 98.313734 323.102098 98.062320 323.295804 97.809121 323.489510 97.554167 323.683217 97.297487 323.876923 97.039107 324.070629 96.779058 324.264336 96.517368 324.458042 96.254065 324.651748 95.989178 324.845455 95.722736 325.039161 95.454766 325.232867 95.185299 325.426573 94.914361 325.620280 94.641983 325.813986 94.368192 326.007692 94.093016 326.201399 93.816486 326.395105 93.538629 326.588811 93.259473 326.782517 92.979048 326.976224 92.697381 327.169930 92.414502 327.363636 92.130439 327.557343 91.845221 327.751049 91.558876 327.944755 91.271433 328.138462 90.982920 328.332168 90.693366 328.525874 90.402800 328.719580 90.111249 328.913287 89.818744 329.106993 89.525311 329.300699 89.230981 329.494406 88.935781 329.688112 88.639739 329.881818 88.342886 330.075524 88.045249 330.269231 87.746856 330.462937 87.447737 330.656643 87.147919 330.850350 86.847432 331.044056 86.546304 331.237762 86.244564 331.431469 85.942240 331.625175 85.639360 331.818881 85.335955 332.012587 85.032050 332.206294 84.727677 332.400000 84.422863 332.593706 84.117636 332.787413 83.812025 332.981119 83.506060 333.174825 83.199768 333.368531 82.893177 333.562238 82.586318 333.755944 82.279217 333.949650 81.971905 334.143357 81.664408 334.337063 81.356757 334.530769 81.048978 334.724476 80.741102 334.918182 80.433157 335.111888 80.125171 335.305594 79.817172 335.499301 79.509190 335.693007 79.201253 335.886713 78.893389 336.080420 78.585628 336.274126 78.277997 336.467832 77.970525 336.661538 77.663242 336.855245 77.356174 337.048951 77.049352 337.242657 76.742803 337.436364 76.436556 337.630070 76.130640 337.823776 75.825084 338.017483 75.519915 338.211189 75.215163 338.404895 74.910856 338.598601 74.607022 338.792308 74.303690 338.986014 74.000890 339.179720 73.698649 339.373427 73.396995 339.567133 73.095958 339.760839 72.795567 339.954545 72.495848 340.148252 72.196833 340.341958 71.898548 340.535664 71.601022 340.729371 71.304284 340.923077 71.008363 341.116783 70.713287 341.310490 70.419085 341.504196 70.125785 341.697902 69.833416 341.891608 69.542007 342.085315 69.251585 342.279021 68.962180 342.472727 68.673820 342.666434 68.386535 342.860140 68.100351 343.053846 67.815298 343.247552 67.531405 343.441259 67.248700 343.634965 66.967212 343.828671 66.686968 344.022378 66.407999 344.216084 66.130332 344.409790 65.853996 344.603497 65.579020 344.797203 65.305432 344.990909 65.033260 345.184615 64.762534 345.378322 64.493281 345.572028 64.225531 345.765734 63.959313 345.959441 63.694653 346.153147 63.431582 346.346853 63.170128 346.540559 62.910319 346.734266 62.652184 346.927972 62.395751 347.121678 62.141050 347.315385 61.888108 347.509091 61.636954 347.702797 61.387618 347.896503 61.140126 348.090210 60.894509 348.283916 60.650794 348.477622 60.409011 348.671329 60.169187 348.865035 59.931351 349.058741 59.695532 349.252448 59.461759 349.446154 59.230059 349.639860 59.000463 349.833566 58.772991 350.027273 58.547645 350.220979 58.324416 350.414685 58.103299 350.608392 57.884287 350.802098 57.667374 350.995804 57.452553 351.189510 57.239817 351.383217 57.029160 351.576923 56.820576 351.770629 56.614058 351.964336 56.409599 352.158042 56.207194 352.351748 56.006834 352.545455 55.808515 352.739161 55.612229 352.932867 55.417969 353.126573 55.225731 353.320280 55.035505 353.513986 54.847288 353.707692 54.661071 353.901399 54.476848 354.095105 54.294613 354.288811 54.114359 354.482517 53.936080 354.676224 53.759769 354.869930 53.585420 355.063636 53.413026 355.257343 53.242580 355.451049 53.074077 355.644755 52.907509 355.838462 52.742870 356.032168 52.580153 356.225874 52.419353 356.419580 52.260462 356.613287 52.103474 356.806993 51.948383 357.000699 51.795181 357.194406 51.643863 357.388112 51.494422 357.581818 51.346851 357.775524 51.201144 357.969231 51.057295 358.162937 50.915296 358.356643 50.775141 358.550350 50.636824 358.744056 50.500339 358.937762 50.365678 359.131469 50.232835 359.325175 50.101804 359.518881 49.972578 359.712587 49.845151 359.906294 49.719516 360.100000 49.595666 360.293706 49.473596 360.487413 49.353298 360.681119 49.234766 360.874825 49.117994 361.068531 49.002974 361.262238 48.889701 361.455944 48.778168 361.649650 48.668369 361.843357 48.560296 362.037063 48.453944 362.230769 48.349306 362.424476 48.246375 362.618182 48.145144 362.811888 48.045609 363.005594 47.947761 363.199301 47.851594 363.393007 47.757102 363.586713 47.664278 363.780420 47.573116 363.974126 47.483609 364.167832 47.395750 364.361538 47.309534 364.555245 47.224954 364.748951 47.142002 364.942657 47.060673 365.136364 46.980961 365.330070 46.902857 365.523776 46.826357 365.717483 46.751453 365.911189 46.678140 366.104895 46.606409 366.298601 46.536256 366.492308 46.467673 366.686014 46.400654 366.879720 46.335192 367.073427 46.271281 367.267133 46.208915 367.460839 46.148086 367.654545 46.088789 367.848252 46.031016 368.041958 45.974762 368.235664 45.920019 368.429371 45.866782 368.623077 45.815043 368.816783 45.764796 369.010490 45.716035 369.204196 45.668754 369.397902 45.622944 369.591608 45.578601 369.785315 45.535718 369.979021 45.494287 370.172727 45.454303 370.366434 45.415759 370.560140 45.378649 370.753846 45.342965 370.947552 45.308702 371.141259 45.275853 371.334965 45.244411 371.528671 45.214370 371.722378 45.185724 371.916084 45.158465 372.109790 45.132588 372.303497 45.108085 372.497203 45.084951 372.690909 45.063178 372.884615 45.042761 373.078322 45.023693 373.272028 45.005966 373.465734 44.989575 373.659441 44.974514 373.853147 44.960775 374.046853 44.948352 374.240559 44.937239 374.434266 44.927429 374.627972 44.918915 374.821678 44.911692 375.015385 44.905752 375.209091 44.901088 375.402797 44.897696 375.596503 44.895567 375.790210 44.894696 375.983916 44.895076 376.177622 44.896700 376.371329 44.899562 376.565035 44.903655 376.758741 44.908973 376.952448 44.915510 377.146154 44.923258 377.339860 44.932211 377.533566 44.942363 377.727273 44.953708 377.920979 44.966238 378.114685 44.979947 378.308392 44.994829 378.502098 45.010877 378.695804 45.028085 378.889510 45.046446 379.083217 45.065953 379.276923 45.086601 379.470629 45.108382 379.664336 45.131290 379.858042 45.155318 380.051748 45.180461 380.245455 45.206711 380.439161 45.234061 380.632867 45.262507 380.826573 45.292040 381.020280 45.322654 381.213986 45.354344 381.407692 45.387102 381.601399 45.420921 381.795105 45.455796 381.988811 45.491720 382.182517 45.528685 382.376224 45.566687 382.569930 45.605718 382.763636 45.645771 382.957343 45.686841 383.151049 45.728920 383.344755 45.772003 383.538462 45.816082 383.732168 45.861151 383.925874 45.907203 384.119580 45.954233 384.313287 46.002233 384.506993 46.051197 384.700699 46.101119 384.894406 46.151992 385.088112 46.203809 385.281818 46.256564 385.475524 46.310250 385.669231 46.364862 385.862937 46.420391 386.056643 46.476833 386.250350 46.534180 386.444056 46.592425 386.637762 46.651563 386.831469 46.711587 387.025175 46.772490 387.218881 46.834265 387.412587 46.896907 387.606294 46.960408 387.800000 47.024763 387.993706 47.089964 388.187413 47.156006 388.381119 47.222880 388.574825 47.290583 388.768531 47.359105 388.962238 47.428442 389.155944 47.498586 389.349650 47.569531 389.543357 47.641270 389.737063 47.713798 389.930769 47.787107 390.124476 47.861191 390.318182 47.936043 390.511888 48.011657 390.705594 48.088026 390.899301 48.165144 391.093007 48.243005 391.286713 48.321601 391.480420 48.400927 391.674126 48.480975 391.867832 48.561740 392.061538 48.643214 392.255245 48.725391 392.448951 48.808265 392.642657 48.891830 392.836364 48.976077 393.030070 49.061002 393.223776 49.146598 393.417483 49.232857 393.611189 49.319775 393.804895 49.407343 393.998601 49.495555 394.192308 49.584406 394.386014 49.673888 394.579720 49.763995 394.773427 49.854720 394.967133 49.946057 395.160839 50.038000 395.354545 50.130541 395.548252 50.223675 395.741958 50.317395 395.935664 50.411694 396.129371 50.506565 396.323077 50.602003 396.516783 50.698001 396.710490 50.794552 396.904196 50.891649 397.097902 50.989287 397.291608 51.087458 397.485315 51.186157 397.679021 51.285376 397.872727 51.385109 398.066434 51.485350 398.260140 51.586091 398.453846 51.687321 398.647552 51.789029 398.841259 51.891204 399.034965 51.993833 399.228671 52.096906 399.422378 52.200411 399.616084 52.304335 399.809790 52.408669 400.003497 52.513399 400.197203 52.618514 400.390909 52.724004 400.584615 52.829856 400.778322 52.936059 400.972028 53.042601 401.165734 53.149471 401.359441 53.256656 401.553147 53.364147 401.746853 53.471930 401.940559 53.579995 402.134266 53.688330 402.327972 53.796923 402.521678 53.905763 402.715385 54.014839 402.909091 54.124138 403.102797 54.233649 403.296503 54.343360 403.490210 54.453261 403.683916 54.563339 403.877622 54.673583 404.071329 54.783982 404.265035 54.894523 404.458741 55.005195 404.652448 55.115987 404.846154 55.226887 405.039860 55.337884 405.233566 55.448966 405.427273 55.560121 405.620979 55.671338 405.814685 55.782606 406.008392 55.893912 406.202098 56.005245 406.395804 56.116595 406.589510 56.227948 406.783217 56.339294 406.976923 56.450620 407.170629 56.561917 407.364336 56.673171 407.558042 56.784371 407.751748 56.895506 407.945455 57.006565 408.139161 57.117535 408.332867 57.228405 408.526573 57.339164 408.720280 57.449800 408.913986 57.560301 409.107692 57.670656 409.301399 57.780854 409.495105 57.890882 409.688811 58.000729 409.882517 58.110384 410.076224 58.219835 410.269930 58.329071 410.463636 58.438080 410.657343 58.546850 410.851049 58.655370 411.044755 58.763628 411.238462 58.871613 411.432168 58.979313 411.625874 59.086717 411.819580 59.193813 412.013287 59.300590 412.206993 59.407035 412.400699 59.513138 412.594406 59.618887 412.788112 59.724270 412.981818 59.829276 413.175524 59.933893 413.369231 60.038109 413.562937 60.141914 413.756643 60.245295 413.950350 60.348242 414.144056 60.450741 414.337762 60.552783 414.531469 60.654354 414.725175 60.755445 414.918881 60.856043 415.112587 60.956136 415.306294 61.055714 415.500000 61.154763 415.693706 61.253274 415.887413 61.351235 416.081119 61.448633 416.274825 61.545457 416.468531 61.641696 416.662238 61.737339 416.855944 61.832373 417.049650 61.926787 417.243357 62.020569 417.437063 62.113709 417.630769 62.206194 417.824476 62.298013 418.018182 62.389154 418.211888 62.479605 418.405594 62.569356 418.599301 62.658395 418.793007 62.746709 418.986713 62.834289 419.180420 62.921121 419.374126 63.007194 419.567832 63.092497 419.761538 63.177019 419.955245 63.260747 420.148951 63.343670 420.342657 63.425777 420.536364 63.507057 420.730070 63.587496 420.923776 63.667085 421.117483 63.745810 421.311189 63.823662 421.504895 63.900628 421.698601 63.976697 421.892308 64.051857 422.086014 64.126096 422.279720 64.199404 422.473427 64.271768 422.667133 64.343176 422.860839 64.413619 423.054545 64.483083 423.248252 64.551557 423.441958 64.619030 423.635664 64.685490 423.829371 64.750926 424.023077 64.815326 424.216783 64.878678 424.410490 64.940971 424.604196 65.002194 424.797902 65.062334 424.991608 65.121381 425.185315 65.179322 425.379021 65.236147 425.572727 65.291843 425.766434 65.346399 425.960140 65.399803 426.153846 65.452045 426.347552 65.503112 426.541259 65.552992 426.734965 65.601675 426.928671 65.649149 427.122378 65.695401 427.316084 65.740421 427.509790 65.784198 427.703497 65.826718 427.897203 65.867972 428.090909 65.907947 428.284615 65.946632 428.478322 65.984015 428.672028 66.020084 428.865734 66.054829 429.059441 66.088237 429.253147 66.120298 429.446853 66.150999 429.640559 66.180328 429.834266 66.208275 430.027972 66.234828 430.221678 66.259975 430.415385 66.283705 430.609091 66.306006 430.802797 66.326866 430.996503 66.346275 431.190210 66.364220 431.383916 66.380689 431.577622 66.395672 431.771329 66.409157 431.965035 66.421132 432.158741 66.431586 432.352448 66.440507 432.546154 66.447883 432.739860 66.453704 432.933566 66.457956 433.127273 66.460630 433.320979 66.461713 433.514685 66.461194 433.708392 66.459061 433.902098 66.455303 434.095804 66.449907 434.289510 66.442864 434.483217 66.434160 434.676923 66.423785 434.870629 66.411726 435.064336 66.397973 435.258042 66.382514 435.451748 66.365336 435.645455 66.346430 435.839161 66.325783 436.032867 66.303383 436.226573 66.279219 436.420280 66.253279 436.613986 66.225553 436.807692 66.196027 437.001399 66.164692 437.195105 66.131534 437.388811 66.096544 437.582517 66.059708 437.776224 66.021016 437.969930 65.980456 438.163636 65.938016 438.357343 65.893685 438.551049 65.847452 438.744755 65.799304 438.938462 65.749230 439.132168 65.697219 439.325874 65.643259 439.519580 65.587339 439.713287 65.529446 439.906993 65.469570 440.100699 65.407699 440.294406 65.343821 440.488112 65.277925 440.681818 65.209999 440.875524 65.140031 441.069231 65.068011 441.262937 64.993926 441.456643 64.917765 441.650350 64.839517 441.844056 64.759169 442.037762 64.676711 442.231469 64.592130 442.425175 64.505416 442.618881 64.416556 442.812587 64.325539 443.006294 64.232354 443.200000 64.136989 443.393706 64.039432 443.587413 63.939672 443.781119 63.837697 443.974825 63.733496 444.168531 63.627057 444.362238 63.518369 444.555944 63.407419 444.749650 63.294197 444.943357 63.178692 445.137063 63.060890 445.330769 62.940781 445.524476 62.818354 445.718182 62.693596 445.911888 62.566497 446.105594 62.437044 446.299301 62.305226 446.493007 62.171032 446.686713 62.034455 446.880420 61.895512 447.074126 61.754224 447.267832 61.610613 447.461538 61.464701 447.655245 61.316511 447.848951 61.166062 448.042657 61.013378 448.236364 60.858479 448.430070 60.701389 448.623776 60.542128 448.817483 60.380718 449.011189 60.217181 449.204895 60.051539 449.398601 59.883813 449.592308 59.714025 449.786014 59.542198 449.979720 59.368352 450.173427 59.192510 450.367133 59.014693 450.560839 58.834923 450.754545 58.653222 450.948252 58.469611 451.141958 58.284113 451.335664 58.096748 451.529371 57.907540 451.723077 57.716509 451.916783 57.523677 452.110490 57.329066 452.304196 57.132699 452.497902 56.934595 452.691608 56.734778 452.885315 56.533269 453.079021 56.330090 453.272727 56.125263 453.466434 55.918808 453.660140 55.710749 453.853846 55.501107 454.047552 55.289903 454.241259 55.077160 454.434965 54.862898 454.628671 54.647141 454.822378 54.429909 455.016084 54.211225 455.209790 53.991109 455.403497 53.769585 455.597203 53.546673 455.790909 53.322395 455.984615 53.096774 456.178322 52.869831 456.372028 52.641587 456.565734 52.412064 456.759441 52.181285 456.953147 51.949271 457.146853 51.716043 457.340559 51.481624 457.534266 51.246035 457.727972 51.009297 457.921678 50.771434 458.115385 50.532466 458.309091 50.292415 458.502797 50.051303 458.696503 49.809151 458.890210 49.565982 459.083916 49.321818 459.277622 49.076679 459.471329 48.830588 459.665035 48.583567 459.858741 48.335636 460.052448 48.086819 460.246154 47.837136 460.439860 47.586610 460.633566 47.335262 460.827273 47.083114 461.020979 46.830188 461.214685 46.576505 461.408392 46.322088 461.602098 46.066957 461.795804 45.811136 461.989510 45.554645 462.183217 45.297506 462.376923 45.039741 462.570629 44.781372 462.764336 44.522420 462.958042 44.262908 463.151748 44.002857 463.345455 43.742288 463.539161 43.481224 463.732867 43.219687 463.926573 42.957697 464.120280 42.695277 464.313986 42.432449 464.507692 42.169234 464.701399 41.905654 464.895105 41.641731 465.088811 41.377487 465.282517 41.112943 465.476224 40.848121 465.669930 40.583043 465.863636 40.317730 466.057343 40.052205 466.251049 39.786489 466.444755 39.520604 466.638462 39.254571 466.832168 38.988413 467.025874 38.722151 467.219580 38.455807 467.413287 38.189402 467.606993 37.922959 467.800699 37.656499 467.994406 37.390044 468.188112 37.123615 468.381818 36.857235 468.575524 36.590925 468.769231 36.324707 468.962937 36.058603 469.156643 35.792634 469.350350 35.526822 469.544056 35.261189 469.737762 34.995757 469.931469 34.730547 470.125175 34.465582 470.318881 34.200882 470.512587 33.936470 470.706294 33.672368 470.900000 33.408596 471.093706 33.145178 471.287413 32.882135 471.481119 32.619487 471.674825 32.357259 471.868531 32.095470 472.062238 31.834142 472.255944 31.573299 472.449650 31.312960 472.643357 31.053149 472.837063 30.793886 473.030769 30.535194 473.224476 30.277094 473.418182 30.019608 473.611888 29.762758 473.805594 29.506565 473.999301 29.251052 474.193007 28.996240 474.386713 28.742150 474.580420 28.488805 474.774126 28.236226 474.967832 27.984436 475.161538 27.733455 475.355245 27.483306 475.548951 27.234010 475.742657 26.985589 475.936364 26.738065 476.130070 26.491459 476.323776 26.245794 476.517483 26.001091 476.711189 25.757371 476.904895 25.514658 477.098601 25.272971 477.292308 25.032334 477.486014 24.792767 477.679720 24.554294 477.873427 24.316934 478.067133 24.080711 478.260839 23.845645 478.454545 23.611759 478.648252 23.379075 478.841958 23.147614 479.035664 22.917397 479.229371 22.688447 479.423077 22.460786 479.616783 22.234435 479.810490 22.009415 480.004196 21.785749 480.197902 21.563459 480.391608 21.342566 480.585315 21.123092 480.779021 20.905058 480.972727 20.688487 481.166434 20.473400 481.360140 20.259819 481.553846 20.047766 481.747552 19.837262 481.941259 19.628329 482.134965 19.420989 482.328671 19.215264 482.522378 19.011176 482.716084 18.808745 482.909790 18.607995 483.103497 18.408946 483.297203 18.211621 483.490909 18.016041 483.684615 17.822228 483.878322 17.630204 484.072028 17.439990 484.265734 17.251609 484.459441 17.065081 484.653147 16.880430 484.846853 16.697676 485.040559 16.516841 485.234266 16.337947 485.427972 16.161016 485.621678 15.986069 485.815385 15.813129 486.009091 15.642216 486.202797 15.473354 486.396503 15.306563 486.590210 15.141865 486.783916 14.979283 486.977622 14.818837 487.171329 14.660550 487.365035 14.504443 487.558741 14.350538 487.752448 14.198857 487.946154 14.049421 488.139860 13.902253 488.333566 13.757374 488.527273 13.614806 488.720979 13.474571 488.914685 13.336689 489.108392 13.201184 489.302098 13.068077 489.495804 12.937389 489.689510 12.809143 489.883217 12.683360 490.076923 12.560062 490.270629 12.439270 490.464336 12.321007 490.658042 12.205294 490.851748 12.092152 491.045455 11.981605 491.239161 11.873673 491.432867 11.768377 491.626573 11.665741 491.820280 11.565786 492.013986 11.468533 492.207692 11.374004 492.401399 11.282221 492.595105 11.193206 492.788811 11.106980 492.982517 11.023565 493.176224 10.942984 493.369930 10.865257 493.563636 10.790406 493.757343 10.718454 493.951049 10.649421 494.144755 10.583331 494.338462 10.520204 494.532168 10.460062 494.725874 10.402927 494.919580 10.348820 495.113287 10.297759 495.306993 10.249736 495.500699 10.204739 495.694406 10.162756 495.888112 10.123774 496.081818 10.087782 496.275524 10.054767 496.469231 10.024718 496.662937 9.997621 496.856643 9.973465 497.050350 9.952237 497.244056 9.933926 497.437762 9.918518 497.631469 9.906003 497.825175 9.896367 498.018881 9.889599 498.212587 9.885685 498.406294 9.884615 498.600000 9.886376 498.793706 9.890956 498.987413 9.898341 499.181119 9.908522 499.374825 9.921484 499.568531 9.937216 499.762238 9.955705 499.955944 9.976941 500.149650 10.000909 500.343357 10.027598 500.537063 10.056996 500.730769 10.089091 500.924476 10.123871 501.118182 10.161322 501.311888 10.201433 501.505594 10.244193 501.699301 10.289588 501.893007 10.337606 502.086713 10.388236 502.280420 10.441464 502.474126 10.497280 502.667832 10.555670 502.861538 10.616622 503.055245 10.680125 503.248951 10.746165 503.442657 10.814732 503.636364 10.885812 503.830070 10.959393 504.023776 11.035464 504.217483 11.114012 504.411189 11.195024 504.604895 11.278489 504.798601 11.364394 504.992308 11.452728 505.186014 11.543477 505.379720 11.636631 505.573427 11.732176 505.767133 11.830100 505.960839 11.930392 506.154545 12.033038 506.348252 12.138027 506.541958 12.245347 506.735664 12.354985 506.929371 12.466930 507.123077 12.581168 507.316783 12.697688 507.510490 12.816478 507.704196 12.937525 507.897902 13.060817 508.091608 13.186342 508.285315 13.314088 508.479021 13.444042 508.672727 13.576193 508.866434 13.710528 509.060140 13.847035 509.253846 13.985701 509.447552 14.126515 509.641259 14.269465 509.834965 14.414538 510.028671 14.561721 510.222378 14.711003 510.416084 14.862372 510.609790 15.015815 510.803497 15.171321 510.997203 15.328876 511.190909 15.488469 511.384615 15.650087 511.578322 15.813719 511.772028 15.979352 511.965734 16.146974 512.159441 16.316572 512.353147 16.488135 512.546853 16.661651 512.740559 16.837106 512.934266 17.014490 513.127972 17.193789 513.321678 17.374991 513.515385 17.558085 513.709091 17.743058 513.902797 17.929898 514.096503 18.118593 514.290210 18.309130 514.483916 18.501497 514.677622 18.695682 514.871329 18.891674 515.065035 19.089459 515.258741 19.289025 515.452448 19.490361 515.646154 19.693454 515.839860 19.898292 516.033566 20.104862 516.227273 20.313153 516.420979 20.523152 516.614685 20.734847 516.808392 20.948226 517.002098 21.163277 517.195804 21.379987 517.389510 21.598345 517.583217 21.818338 517.776923 22.039953 517.970629 22.263179 518.164336 22.488004 518.358042 22.714414 518.551748 22.942399 518.745455 23.171946 518.939161 23.403042 519.132867 23.635676 519.326573 23.869835 519.520280 24.105507 519.713986 24.342680 519.907692 24.581341 520.101399 24.821479 520.295105 25.063082 520.488811 25.306136 520.682517 25.550630 520.876224 25.796552 521.069930 26.043889 521.263636 26.292629 521.457343 26.542760 521.651049 26.794271 521.844755 27.047147 522.038462 27.301379 522.232168 27.556952 522.425874 27.813856 522.619580 28.072077 522.813287 28.331604 523.006993 28.592424 523.200699 28.854525 523.394406 29.117896 523.588112 29.382523 523.781818 29.648395 523.975524 29.915499 524.169231 30.183824 524.362937 30.453356 524.556643 30.724084 524.750350 30.995996 524.944056 31.269079 525.137762 31.543322 525.331469 31.818711 525.525175 32.095235 525.718881 32.372882 525.912587 32.651639 526.106294 32.931495 526.300000 33.212436 526.493706 33.494451 526.687413 33.777528 526.881119 34.061654 527.074825 34.346817 527.268531 34.633005 527.462238 34.920206 527.655944 35.208407 527.849650 35.497597 528.043357 35.787763 528.237063 36.078893 528.430769 36.370974 528.624476 36.663996 528.818182 36.957944 529.011888 37.252808 529.205594 37.548574 529.399301 37.845232 529.593007 38.142768 529.786713 38.441170 529.980420 38.740426 530.174126 39.040525 530.367832 39.341453 530.561538 39.643198 530.755245 39.945749 530.948951 40.249093 531.142657 40.553218 531.336364 40.858112 531.530070 41.163762 531.723776 41.470157 531.917483 41.777283 532.111189 42.085130 532.304895 42.393684 532.498601 42.702934 532.692308 43.012867 532.886014 43.323471 533.079720 43.634734 533.273427 43.946644 533.467133 44.259188 533.660839 44.572355 533.854545 44.886132 534.048252 45.200506 534.241958 45.515467 534.435664 45.831000 534.629371 46.147095 534.823077 46.463740 535.016783 46.780921 535.210490 47.098626 535.404196 47.416845 535.597902 47.735563 535.791608 48.054770 535.985315 48.374452 536.179021 48.694598 536.372727 49.015196 536.566434 49.336233 536.760140 49.657697 536.953846 49.979575 537.147552 50.301857 537.341259 50.624529 537.534965 50.947579 537.728671 51.270995 537.922378 51.594765 538.116084 51.918877 538.309790 52.243318 538.503497 52.568077 538.697203 52.893140 538.890909 53.218497 539.084615 53.544134 539.278322 53.870039 539.472028 54.196201 539.665734 54.522606 539.859441 54.849244 540.053147 55.176101 540.246853 55.503166 540.440559 55.830426 540.634266 56.157868 540.827972 56.485482 541.021678 56.813255 541.215385 57.141173 541.409091 57.469226 541.602797 57.797401 541.796503 58.125686 541.990210 58.454068 542.183916 58.782536 542.377622 59.111077 542.571329 59.439679 542.765035 59.768330 542.958741 60.097018 543.152448 60.425730 543.346154 60.754454 543.346154 514.000000" /></g></g><g class="titles"><text class="title plot_title" x="400.0" y="26">Krung-Thon-Buri 53</text></g><g class="plot overlay" transform="translate(226, 46)"><g class="series serie-0 color-0"><g class="dots"><circle class="dot reactive tooltip-trigger" cx="10.653846153846153" cy="233.38175741137923" r="2.5" /><desc class="value">248370</desc><desc class="x ">10.653846153846153</desc><desc class="y ">233.38175741137923</desc><desc class="x_label">Jan</desc></g><g class="dots"><circle class="dot reactive tooltip-trigger" cx="59.08041958041958" cy="251.29533280776553" r="2.5" /><desc class="value">241946</desc><desc class="x ">59.08041958041958</desc><desc class="y ">251.29533280776553</desc><desc class="x_label">Feb</desc></g><g class="dots"><circle class="dot reactive tooltip-trigger" cx="107.506993006993" cy="158.76045018732896" r="2.5" /><desc class="value">275130</desc><desc class="x ">107.506993006993</desc><desc class="y ">158.76045018732896</desc><desc class="x_label">Mar</desc></g><g class="dots"><circle class="dot reactive tooltip-trigger" cx="155.93356643356643" cy="358.3724470116634" r="2.5" /><desc class="value">203547</desc><desc class="x top">155.93356643356643</desc><desc class="y top">358.3724470116634</desc><desc class="x_label">Apr</desc></g><g class="dots"><circle class="dot reactive tooltip-trigger" cx="204.36013986013987" cy="482.81658294169665" r="2.5" /><desc class="value">158920</desc><desc class="x top">204.36013986013987</desc><desc class="y top">482.81658294169665</desc><desc class="x_label">May</desc></g><g class="dots"><circle class="dot reactive tooltip-trigger" cx="252.78671328671325" cy="114.3390217837744" r="2.5" /><desc class="value">291060</desc><desc class="x ">252.78671328671325</desc><desc class="y ">114.3390217837744</desc><desc class="x_label">Jun</desc></g><g class="dots"><circle class="dot reactive tooltip-trigger" cx="301.2132867132867" cy="108.31020017621097" r="2.5" /><desc class="value">293222</desc><desc class="x left">301.2132867132867</desc><desc class="y left">108.31020017621097</desc><desc class="x_label">Jul</desc></g><g class="dots"><circle class="dot reactive tooltip-trigger" cx="349.6398601398601" cy="59.00046267087163" r="2.5" /><desc class="value">310905</desc><desc class="x left">349.6398601398601</desc><desc class="y left">59.00046267087163</desc><desc class="x_label">Aug</desc></g><g class="dots"><circle class="dot reactive tooltip-trigger" cx="398.06643356643355" cy="51.48534970492187" r="2.5" /><desc class="value">313600</desc><desc class="x left">398.06643356643355</desc><desc class="y left">51.48534970492187</desc><desc class="x_label">Sep</desc></g><g class="dots"><circle class="dot reactive tooltip-trigger" cx="446.493006993007" cy="62.17103166615357" r="2.5" /><desc class="value">309768</desc><desc class="x left">446.493006993007</desc><desc class="y left">62.17103166615357</desc><desc class="x_label">Oct</desc></g><g class="dots"><circle class="dot reactive tooltip-trigger" cx="494.9195804195804" cy="10.348820401140529" r="2.5" /><desc class="value">328352</desc><desc class="x left">494.9195804195804</desc><desc class="y left">10.348820401140529</desc><desc class="x_label">Nov</desc></g><g class="dots"><circle class="dot reactive tooltip-trigger" cx="543.3461538461538" cy="60.75445378611556" r="2.5" /><desc class="value">310276</desc><desc class="x left">543.3461538461538</desc><desc class="y left">60.75445378611556</desc><desc class="x_label">Dec</desc></g></g></g><g class="plot text-overlay" transform="translate(226, 46)"><g class="series serie-0 color-0" /></g><g class="plot tooltip-overlay" transform="translate(226, 46)"><g class="tooltip" style="opacity: 0" transform="translate(0 0)"><rect class="tooltip-box" height="0" rx="0" ry="0" width="0" /><g class="text" /></g></g><g class="legends" transform="translate(10, 56)"><g class="legend reactive activate-serie" id="activate-serie-0"><rect class="color-0 reactive" height="12" width="12" x="0.0" y="1.0" /><text x="17.0" y="11.2">Krung-Thon-Buri</text></g></g><g class="legends" transform="translate(790, 56)" /></g></svg>