<?xml version='1.0' encoding='utf-8'?>
<svg xmlns:xlink="http://www.w3.org/1999/xlink" class="pygal-chart" id="chart-dc419209-4d01-4a6d-b8f6-9fdd1fe887de" viewBox="0 0 800 600" xmlns="http://www.w3.org/2000/svg"><!--Generated with pygal 2.0.11 (etree) ©Kozea 2011-2015 on 2015-12-10--><!--http://pygal.org--><!--http://github.com/Kozea/pygal--><defs><style type="text/css">#chart-dc419209-4d01-4a6d-b8f6-9fdd1fe887de{-webkit-user-select:none;-webkit-font-smoothing:antialiased;font-family:Consolas,"Liberation Mono",Menlo,Courier,monospace}#chart-dc419209-4d01-4a6d-b8f6-9fdd1fe887de .title{font-family:Consolas,"Liberation Mono",Menlo,Courier,monospace;font-size:16px}#chart-dc419209-4d01-4a6d-b8f6-9fdd1fe887de .legends .legend text{font-family:Consolas,"Liberation Mono",Menlo,Courier,monospace;font-size:14px}#chart-dc419209-4d01-4a6d-b8f6-9fdd1fe887de .axis text{font-family:Consolas,"Liberation Mono",Menlo,Courier,monospace;font-size:10px}#chart-dc419209-4d01-4a6d-b8f6-9fdd1fe887de .axis text.major{font-family:Consolas,"Liberation Mono",Menlo,Courier,monospace;font-size:10px}#chart-dc419209-4d01-4a6d-b8f6-9fdd1fe887de .text-overlay text.value{font-family:Consolas,"Liberation Mono",Menlo,Courier,monospace;font-size:16px}#chart-dc419209-4d01-4a6d-b8f6-9fdd1fe887de .text-overlay text.label{font-family:Consolas,"Liberation Mono",Menlo,Courier,monospace;font-size:10px}#chart-dc419209-4d01-4a6d-b8f6-9fdd1fe887de .tooltip{font-family:Consolas,"Liberation Mono",Menlo,Courier,monospace;font-size:14px}#chart-dc419209-4d01-4a6d-b8f6-9fdd1fe887de text.no_data{font-family:Consolas,"Liberation Mono",Menlo,Courier,monospace;font-size:64px}
#chart-dc419209-4d01-4a6d-b8f6-9fdd1fe887de{background-color:black}#chart-dc419209-4d01-4a6d-b8f6-9fdd1fe887de path,#chart-dc419209-4d01-4a6d-b8f6-9fdd1fe887de line,#chart-dc419209-4d01-4a6d-b8f6-9fdd1fe887de rect,#chart-dc419209-4d01-4a6d-b8f6-9fdd1fe887de circle{-webkit-transition:250ms;-moz-transition:250ms;transition:250ms}#chart-dc419209-4d01-4a6d-b8f6-9fdd1fe887de .graph &gt; .background{fill:black}#chart-dc419209-4d01-4a6d-b8f6-9fdd1fe887de .plot &gt; .background{fill:#111}#chart-dc419209-4d01-4a6d-b8f6-9fdd1fe887de .graph{fill:#999}#chart-dc419209-4d01-4a6d-b8f6-9fdd1fe887de text.no_data{fill:#eee}#chart-dc419209-4d01-4a6d-b8f6-9fdd1fe887de .title{fill:#eee}#chart-dc419209-4d01-4a6d-b8f6-9fdd1fe887de .legends .legend text{fill:#999}#chart-dc419209-4d01-4a6d-b8f6-9fdd1fe887de .legends .legend:hover text{fill:#eee}#chart-dc419209-4d01-4a6d-b8f6-9fdd1fe887de .axis .line{stroke:#eee}#chart-dc419209-4d01-4a6d-b8f6-9fdd1fe887de .axis .guide.line{stroke:#555}#chart-dc419209-4d01-4a6d-b8f6-9fdd1fe887de .axis .major.line{stroke:#999}#chart-dc419209-4d01-4a6d-b8f6-9fdd1fe887de .axis text.major{fill:#eee}#chart-dc419209-4d01-4a6d-b8f6-9fdd1fe887de .axis.y .guides:hover .guide.line,#chart-dc419209-4d01-4a6d-b8f6-9fdd1fe887de .line-graph .axis.x .guides:hover .guide.line,#chart-dc419209-4d01-4a6d-b8f6-9fdd1fe887de .stackedline-graph .axis.x .guides:hover .guide.line,#chart-dc419209-4d01-4a6d-b8f6-9fdd1fe887de .xy-graph .axis.x .guides:hover .guide.line{stroke:#eee}#chart-dc419209-4d01-4a6d-b8f6-9fdd1fe887de .axis .guides:hover text{fill:#eee}#chart-dc419209-4d01-4a6d-b8f6-9fdd1fe887de .reactive{fill-opacity:.8}#chart-dc419209-4d01-4a6d-b8f6-9fdd1fe887de .reactive.active,#chart-dc419209-4d01-4a6d-b8f6-9fdd1fe887de .active .reactive{fill-opacity:.4;stroke-width:4}#chart-dc419209-4d01-4a6d-b8f6-9fdd1fe887de .series text{fill:#eee}#chart-dc419209-4d01-4a6d-b8f6-9fdd1fe887de .tooltip rect{fill:#111;stroke:#eee;-webkit-transition:opacity 250ms;-moz-transition:opacity 250ms;transition:opacity 250ms}#chart-dc419209-4d01-4a6d-b8f6-9fdd1fe887de .tooltip .label{fill:#999}#chart-dc419209-4d01-4a6d-b8f6-9fdd1fe887de .tooltip .label{fill:#999}#chart-dc419209-4d01-4a6d-b8f6-9fdd1fe887de .tooltip .legend{font-size:.8em;fill:#555}#chart-dc419209-4d01-4a6d-b8f6-9fdd1fe887de .tooltip .x_label{font-size:.6em;fill:#eee}#chart-dc419209-4d01-4a6d-b8f6-9fdd1fe887de .tooltip .xlink{font-size:.5em;text-decoration:underline}#chart-dc419209-4d01-4a6d-b8f6-9fdd1fe887de .tooltip .value{font-size:1.5em}#chart-dc419209-4d01-4a6d-b8f6-9fdd1fe887de .map-element{fill:#111;stroke:#555 !important}#chart-dc419209-4d01-4a6d-b8f6-9fdd1fe887de .map-element .reactive{fill-opacity:inherit}#chart-dc419209-4d01-4a6d-b8f6-9fdd1fe887de .color-0,#chart-dc419209-4d01-4a6d-b8f6-9fdd1fe887de .color-0 a:visited{stroke:#ff5995;fill:#ff5995}#chart-dc419209-4d01-4a6d-b8f6-9fdd1fe887de .text-overlay .color-0 text{fill:black}
#chart-dc419209-4d01-4a6d-b8f6-9fdd1fe887de text.no_data{text-anchor:middle}#chart-dc419209-4d01-4a6d-b8f6-9fdd1fe887de .guide.line{fill:none}#chart-dc419209-4d01-4a6d-b8f6-9fdd1fe887de .centered{text-anchor:middle}#chart-dc419209-4d01-4a6d-b8f6-9fdd1fe887de .title{text-anchor:middle}#chart-dc419209-4d01-4a6d-b8f6-9fdd1fe887de .legends .legend text{fill-opacity:1}#chart-dc419209-4d01-4a6d-b8f6-9fdd1fe887de .axis.x text{text-anchor:middle}#chart-dc419209-4d01-4a6d-b8f6-9fdd1fe887de .axis.x:not(.web) text[transform]{text-anchor:start}#chart-dc419209-4d01-4a6d-b8f6-9fdd1fe887de .axis.x:not(.web) text[transform].backwards{text-anchor:end}#chart-dc419209-4d01-4a6d-b8f6-9fdd1fe887de .axis.y text{text-anchor:end}#chart-dc419209-4d01-4a6d-b8f6-9fdd1fe887de .axis.y text[transform].backwards{text-anchor:start}#chart-dc419209-4d01-4a6d-b8f6-9fdd1fe887de .axis.y2 text{text-anchor:start}#chart-dc419209-4d01-4a6d-b8f6-9fdd1fe887de .axis.y2 text[transform].backwards{text-anchor:end}#chart-dc419209-4d01-4a6d-b8f6-9fdd1fe887de .axis .guide.line{stroke-dasharray:4,4}#chart-dc419209-4d01-4a6d-b8f6-9fdd1fe887de .axis .major.guide.line{stroke-dasharray:6,6}#chart-dc419209-4d01-4a6d-b8f6-9fdd1fe887de .horizontal .axis.y .guide.line,#chart-dc419209-4d01-4a6d-b8f6-9fdd1fe887de .horizontal .axis.y2 .guide.line,#chart-dc419209-4d01-4a6d-b8f6-9fdd1fe887de .vertical .axis.x .guide.line{opacity:0}#chart-dc419209-4d01-4a6d-b8f6-9fdd1fe887de .horizontal .axis.always_show .guide.line,#chart-dc419209-4d01-4a6d-b8f6-9fdd1fe887de .vertical .axis.always_show .guide.line{opacity:1 !important}#chart-dc419209-4d01-4a6d-b8f6-9fdd1fe887de .axis.y .guides:hover .guide.line,#chart-dc419209-4d01-4a6d-b8f6-9fdd1fe887de .axis.y2 .guides:hover .guide.line,#chart-dc419209-4d01-4a6d-b8f6-9fdd1fe887de .axis.x .guides:hover .guide.line{opacity:1}#chart-dc419209-4d01-4a6d-b8f6-9fdd1fe887de .axis .guides:hover text{opacity:1}#chart-dc419209-4d01-4a6d-b8f6-9fdd1fe887de .nofill{fill:none}#chart-dc419209-4d01-4a6d-b8f6-9fdd1fe887de .subtle-fill{fill-opacity:.2}#chart-dc419209-4d01-4a6d-b8f6-9fdd1fe887de .dot{stroke-width:1px;fill-opacity:1}#chart-dc419209-4d01-4a6d-b8f6-9fdd1fe887de .dot.active{stroke-width:5px}#chart-dc419209-4d01-4a6d-b8f6-9fdd1fe887de .dot.negative{fill:transparent}#chart-dc419209-4d01-4a6d-b8f6-9fdd1fe887de text,#chart-dc419209-4d01-4a6d-b8f6-9fdd1fe887de tspan{stroke:none !important}#chart-dc419209-4d01-4a6d-b8f6-9fdd1fe887de .series text.active{opacity:1}#chart-dc419209-4d01-4a6d-b8f6-9fdd1fe887de .tooltip rect{fill-opacity:.95;stroke-width:.5}#chart-dc419209-4d01-4a6d-b8f6-9fdd1fe887de .tooltip text{fill-opacity:1}#chart-dc419209-4d01-4a6d-b8f6-9fdd1fe887de .showable{visibility:hidden}#chart-dc419209-4d01-4a6d-b8f6-9fdd1fe887de .showable.shown{visibility:visible}</style><script type="text/javascript">window.pygal = window.pygal || {};window.pygal.config = window.pygal.config || {};window.pygal.config['dc419209-4d01-4a6d-b8f6-9fdd1fe887de'] = {"value_formatter": null, "stroke_style": null, "show_minor_y_labels": true, "truncate_label": null, "explicit_size": false, "x_labels_major_every": null, "margin_right": null, "height": 600, "max_scale": 16, "x_labels_major_count": null, "logarithmic": false, "show_only_major_dots": false, "y_labels_major_count": null, "title": "Saphan-Taksin 53", "force_uri_protocol": null, "width": 800, "x_value_formatter": null, "half_pie": false, "show_x_guides": false, "style": {"background": "black", "major_guide_stroke_dasharray": "6,6", "no_data_font_size": 64, "no_data_font_family": "Consolas, \"Liberation Mono\", Menlo, Courier, monospace", "value_label_font_family": "Consolas, \"Liberation Mono\", Menlo, Courier, monospace", "value_font_size": 16, "legend_font_size": 14, "transition": "250ms", "value_colors": [], "foreground": "#999", "opacity_hover": ".4", "label_font_family": "Consolas, \"Liberation Mono\", Menlo, Courier, monospace", "major_label_font_size": 10, "opacity": ".8", "major_label_font_family": "Consolas, \"Liberation Mono\", Menlo, Courier, monospace", "tooltip_font_family": "Consolas, \"Liberation Mono\", Menlo, Courier, monospace", "font_family": "Consolas, \"Liberation Mono\", Menlo, Courier, monospace", "value_font_family": "Consolas, \"Liberation Mono\", Menlo, Courier, monospace", "colors": ["#ff5995", "#b6e354", "#feed6c", "#8cedff", "#9e6ffe", "#899ca1", "#f8f8f2", "#bf4646", "#516083", "#f92672", "#82b414", "#fd971f", "#56c2d6", "#808384", "#8c54fe", "#465457"], "title_font_size": 16, "foreground_subtle": "#555", "legend_font_family": "Consolas, \"Liberation Mono\", Menlo, Courier, monospace", "plot_background": "#111", "guide_stroke_dasharray": "4,4", "tooltip_font_size": 14, "foreground_strong": "#eee", "label_font_size": 10, "value_label_font_size": 10, "title_font_family": "Consolas, \"Liberation Mono\", Menlo, Courier, monospace"}, "include_x_axis": false, "stroke": true, "interpolation_precision": 250, "inverse_y_axis": false, "js": ["//kozea.github.io/pygal.js/2.0.x/pygal-tooltips.min.js"], "human_readable": false, "y_labels": null, "missing_value_fill_truncation": "x", "no_prefix": false, "disable_xml_declaration": false, "show_y_guides": true, "no_data_text": "No data", "margin": 20, "show_legend": true, "print_zeroes": true, "spacing": 10, "legend_box_size": 12, "tooltip_border_radius": 0, "legends": ["Saphan-Taksin"], "y_label_rotation": 0, "order_min": null, "min_scale": 4, "y_labels_major": null, "secondary_range": null, "x_title": null, "show_x_labels": true, "defs": [], "y_title": null, "x_labels": ["Jan", "Feb", "Mar", "Apr", "May", "Jun", "Jul", "Aug", "Sep", "Oct", "Nov", "Dec"], "stack_from_top": false, "print_values": false, "truncate_legend": null, "x_labels_major": null, "css": ["file://style.css", "file://graph.css"], "dots_size": 2.5, "show_y_labels": true, "interpolate": "cubic", "margin_left": null, "print_labels": false, "y_labels_major_every": null, "margin_top": null, "show_minor_x_labels": true, "legend_at_bottom_columns": null, "fill": true, "xrange": null, "strict": false, "zero": 0, "tooltip_fancy_mode": true, "interpolation_parameters": {}, "x_label_rotation": 0, "show_dots": true, "legend_at_bottom": false, "inner_radius": 0, "rounded_bars": null, "range": null, "margin_bottom": null, "box_mode": "extremes", "dynamic_print_values": false, "pretty_print": false}</script><script type="text/javascript" xlink:href="//kozea.github.io/pygal.js/2.0.x/pygal-tooltips.min.js" /></defs><title>Saphan-Taksin 53</title><g class="graph line-graph vertical"><rect class="background" height="600" width="800" x="0" y="0" /><g class="plot" transform="translate(209, 46)"><rect class="background" height="514" width="570.8" x="0" y="0" /><g class="axis y"><path class="line" d="M0.000000 514.000000 h570.800000" /><g class="guides"><path class="guide line" d="M0.000000 461.016719 h570.800000" /><text class="" x="-5" y="464.5167190231554">220000.0</text><title>220000.0</title></g><g class="guides"><path class="guide line" d="M0.000000 416.702435 h570.800000" /><text class="" x="-5" y="420.20243505552435">240000.0</text><title>240000.0</title></g><g class="guides"><path class="guide line" d="M0.000000 372.388151 h570.800000" /><text class="" x="-5" y="375.8881510878932">260000.0</text><title>260000.0</title></g><g class="guides"><path class="guide line" d="M0.000000 328.073867 h570.800000" /><text class="" x="-5" y="331.5738671202622">280000.0</text><title>280000.0</title></g><g class="guides"><path class="major guide line" d="M0.000000 283.759583 h570.800000" /><text class="major" x="-5" y="287.2595831526311">300000.0</text><title>300000.0</title></g><g class="guides"><path class="guide line" d="M0.000000 239.445299 h570.800000" /><text class="" x="-5" y="242.945299185">320000.0</text><title>320000.0</title></g><g class="guides"><path class="guide line" d="M0.000000 195.131015 h570.800000" /><text class="" x="-5" y="198.63101521736888">340000.0</text><title>340000.0</title></g><g class="guides"><path class="guide line" d="M0.000000 150.816731 h570.800000" /><text class="" x="-5" y="154.3167312497378">360000.0</text><title>360000.0</title></g><g class="guides"><path class="guide line" d="M0.000000 106.502447 h570.800000" /><text class="" x="-5" y="110.00244728210669">380000.0</text><title>380000.0</title></g><g class="guides"><path class="major guide line" d="M0.000000 62.188163 h570.800000" /><text class="major" x="-5" y="65.68816331447562">400000.0</text><title>400000.0</title></g><g class="guides"><path class="guide line" d="M0.000000 17.873879 h570.800000" /><text class="" x="-5" y="21.373879346844546">420000.0</text><title>420000.0</title></g></g><g class="axis x"><g class="guides"><path class="line" d="M10.976923 0.000000 v514.000000" /><text class="" x="10.976923076923075" y="529.0">Jan</text></g><g class="guides"><path class="guide line" d="M60.872028 0.000000 v514.000000" /><text class="" x="60.872027972027965" y="529.0">Feb</text></g><g class="guides"><path class="guide line" d="M110.767133 0.000000 v514.000000" /><text class="" x="110.76713286713284" y="529.0">Mar</text></g><g class="guides"><path class="guide line" d="M160.662238 0.000000 v514.000000" /><text class="" x="160.66223776223774" y="529.0">Apr</text></g><g class="guides"><path class="guide line" d="M210.557343 0.000000 v514.000000" /><text class="" x="210.55734265734264" y="529.0">May</text></g><g class="guides"><path class="guide line" d="M260.452448 0.000000 v514.000000" /><text class="" x="260.45244755244755" y="529.0">Jun</text></g><g class="guides"><path class="guide line" d="M310.347552 0.000000 v514.000000" /><text class="" x="310.3475524475524" y="529.0">Jul</text></g><g class="guides"><path class="guide line" d="M360.242657 0.000000 v514.000000" /><text class="" x="360.2426573426573" y="529.0">Aug</text></g><g class="guides"><path class="guide line" d="M410.137762 0.000000 v514.000000" /><text class="" x="410.1377622377622" y="529.0">Sep</text></g><g class="guides"><path class="guide line" d="M460.032867 0.000000 v514.000000" /><text class="" x="460.0328671328671" y="529.0">Oct</text></g><g class="guides"><path class="guide line" d="M509.927972 0.000000 v514.000000" /><text class="" x="509.9279720279719" y="529.0">Nov</text></g><g class="guides"><path class="guide line" d="M559.823077 0.000000 v514.000000" /><text class="" x="559.8230769230769" y="529.0">Dec</text></g></g><g class="series serie-0 color-0"><path class="line reactive" d="M10.976923 514.000000 L10.976923 12.017747 11.176503 12.257660 11.376084 12.497562 11.575664 12.737440 11.775245 12.977282 11.974825 13.217077 12.174406 13.456813 12.373986 13.696477 12.573566 13.936058 12.773147 14.175544 12.972727 14.414924 13.172308 14.654184 13.371888 14.893314 13.571469 15.132302 13.771049 15.371136 13.970629 15.609803 14.170210 15.848292 14.369790 16.086591 14.569371 16.324689 14.768951 16.562572 14.968531 16.800231 15.168112 17.037652 15.367692 17.274823 15.567273 17.511734 15.766853 17.748371 15.966434 17.984724 16.166014 18.220780 16.365594 18.456527 16.565175 18.691954 16.764755 18.927048 16.964336 19.161798 17.163916 19.396192 17.363497 19.630218 17.563077 19.863865 17.762657 20.097119 17.962238 20.329970 18.161818 20.562406 18.361399 20.794414 18.560979 21.025983 18.760559 21.257101 18.960140 21.487756 19.159720 21.717937 19.359301 21.947630 19.558881 22.176825 19.758462 22.405510 19.958042 22.633672 20.157622 22.861301 20.357203 23.088383 20.556783 23.314907 20.756364 23.540862 20.955944 23.766235 21.155524 23.991015 21.355105 24.215189 21.554685 24.438746 21.754266 24.661674 21.953846 24.883961 22.153427 25.105595 22.353007 25.326564 22.552587 25.546857 22.752168 25.766461 22.951748 25.985365 23.151329 26.203557 23.350909 26.421025 23.550490 26.637756 23.750070 26.853741 23.949650 27.068965 24.149231 27.283418 24.348811 27.497087 24.548392 27.709961 24.747972 27.922028 24.947552 28.133276 25.147133 28.343693 25.346713 28.553268 25.546294 28.761987 25.745874 28.969841 25.945455 29.176816 26.145035 29.382900 26.344615 29.588083 26.544196 29.792351 26.743776 29.995694 26.943357 30.198099 27.142937 30.399554 27.342517 30.600048 27.542098 30.799569 27.741678 30.998104 27.941259 31.195643 28.140839 31.392172 28.340420 31.587681 28.540000 31.782157 28.739580 31.975588 28.939161 32.167963 29.138741 32.359270 29.338322 32.549496 29.537902 32.738631 29.737483 32.926662 29.937063 33.113577 30.136643 33.299364 30.336224 33.484012 30.535804 33.667508 30.735385 33.849841 30.934965 34.030999 31.134545 34.210970 31.334126 34.389743 31.533706 34.567304 31.733287 34.743643 31.932867 34.918747 32.132448 35.092606 32.332028 35.265205 32.531608 35.436535 32.731189 35.606583 32.930769 35.775337 33.130350 35.942786 33.329930 36.108917 33.529510 36.273718 33.729091 36.437178 33.928671 36.599285 34.128252 36.760027 34.327832 36.919392 34.527413 37.077369 34.726993 37.233945 34.926573 37.389108 35.126154 37.542847 35.325734 37.695149 35.525315 37.846004 35.724895 37.995398 35.924476 38.143321 36.124056 38.289760 36.323636 38.434703 36.523217 38.578139 36.722797 38.720055 36.922378 38.860441 37.121958 38.999283 37.321538 39.136570 37.521119 39.272291 37.720699 39.406432 37.920280 39.538984 38.119860 39.669932 38.319441 39.799267 38.519021 39.926975 38.718601 40.053046 38.918182 40.177466 39.117762 40.300225 39.317343 40.421310 39.516923 40.540709 39.716503 40.658411 39.916084 40.774404 40.115664 40.888676 40.315245 41.001215 40.514825 41.112009 40.714406 41.221046 40.913986 41.328315 41.113566 41.433803 41.313147 41.537498 41.512727 41.639390 41.712308 41.739465 41.911888 41.837713 42.111469 41.934121 42.311049 42.028677 42.510629 42.121369 42.710210 42.212186 42.909790 42.301116 43.109371 42.388147 43.308951 42.473266 43.508531 42.556463 43.708112 42.637725 43.907692 42.717040 44.107273 42.794396 44.306853 42.869783 44.506434 42.943187 44.706014 43.014597 44.905594 43.084001 45.105175 43.151387 45.304755 43.216743 45.504336 43.280058 45.703916 43.341319 45.903497 43.400515 46.103077 43.457634 46.302657 43.512663 46.502238 43.565592 46.701818 43.616408 46.901399 43.665099 47.100979 43.711654 47.300559 43.756060 47.500140 43.798305 47.699720 43.838379 47.899301 43.876269 48.098881 43.911963 48.298462 43.945448 48.498042 43.976715 48.697622 44.005749 48.897203 44.032541 49.096783 44.057077 49.296364 44.079346 49.495944 44.099336 49.695524 44.117035 49.895105 44.132431 50.094685 44.145513 50.294266 44.156268 50.493846 44.164685 50.693427 44.170752 50.893007 44.174457 51.092587 44.175787 51.292168 44.174732 51.491748 44.171279 51.691329 44.165417 51.890909 44.157133 52.090490 44.146416 52.290070 44.133253 52.489650 44.117634 52.689231 44.099546 52.888811 44.078977 53.088392 44.055915 53.287972 44.030348 53.487552 44.002266 53.687133 43.971655 53.886713 43.938504 54.086294 43.902801 54.285874 43.864534 54.485455 43.823691 54.685035 43.780261 54.884615 43.734231 55.084196 43.685590 55.283776 43.634325 55.483357 43.580426 55.682937 43.523879 55.882517 43.464674 56.082098 43.402798 56.281678 43.338239 56.481259 43.270986 56.680839 43.201027 56.880420 43.128349 57.080000 43.052942 57.279580 42.974792 57.479161 42.893889 57.678741 42.810220 57.878322 42.723774 58.077902 42.634538 58.277483 42.542501 58.477063 42.447650 58.676643 42.349975 58.876224 42.249463 59.075804 42.146102 59.275385 42.039880 59.474965 41.930786 59.674545 41.818808 59.874126 41.703933 60.073706 41.586151 60.273287 41.465448 60.472867 41.341813 60.672448 41.215235 60.872028 41.085701 61.071608 40.953209 61.271189 40.817791 61.470769 40.679488 61.670350 40.538343 61.869930 40.394398 62.069510 40.247692 62.269091 40.098270 62.468671 39.946171 62.668252 39.791437 62.867832 39.634111 63.067413 39.474234 63.266993 39.311847 63.466573 39.146993 63.666154 38.979712 63.865734 38.810046 64.065315 38.638038 64.264895 38.463728 64.464476 38.287158 64.664056 38.108370 64.863636 37.927406 65.063217 37.744307 65.262797 37.559114 65.462378 37.371870 65.661958 37.182617 65.861538 36.991394 66.061119 36.798245 66.260699 36.603211 66.460280 36.406334 66.659860 36.207654 66.859441 36.007215 67.059021 35.805057 67.258601 35.601222 67.458182 35.395751 67.657762 35.188687 67.857343 34.980071 68.056923 34.769945 68.256503 34.558349 68.456084 34.345327 68.655664 34.130919 68.855245 33.915167 69.054825 33.698113 69.254406 33.479798 69.453986 33.260264 69.653566 33.039553 69.853147 32.817706 70.052727 32.594765 70.252308 32.370772 70.451888 32.145768 70.651469 31.919794 70.851049 31.692893 71.050629 31.465105 71.250210 31.236474 71.449790 31.007040 71.649371 30.776844 71.848951 30.545930 72.048531 30.314337 72.248112 30.082108 72.447692 29.849285 72.647273 29.615908 72.846853 29.382021 73.046434 29.147664 73.246014 28.912878 73.445594 28.677706 73.645175 28.442190 73.844755 28.206370 74.044336 27.970289 74.243916 27.733988 74.443497 27.497508 74.643077 27.260892 74.842657 27.024181 75.042238 26.787417 75.241818 26.550640 75.441399 26.313894 75.640979 26.077219 75.840559 25.840658 76.040140 25.604251 76.239720 25.368040 76.439301 25.132068 76.638881 24.896375 76.838462 24.661003 77.038042 24.425994 77.237622 24.191390 77.437203 23.957232 77.636783 23.723562 77.836364 23.490421 78.035944 23.257852 78.235524 23.025895 78.435105 22.794592 78.634685 22.563985 78.834266 22.334116 79.033846 22.105026 79.233427 21.876757 79.433007 21.649350 79.632587 21.422848 79.832168 21.197291 80.031748 20.972722 80.231329 20.749181 80.430909 20.526711 80.630490 20.305354 80.830070 20.085150 81.029650 19.866142 81.229231 19.648370 81.428811 19.431878 81.628392 19.216706 81.827972 19.002896 82.027552 18.790490 82.227133 18.579529 82.426713 18.370055 82.626294 18.162109 82.825874 17.955734 83.025455 17.750970 83.225035 17.547860 83.424615 17.346445 83.624196 17.146766 83.823776 16.948866 84.023357 16.752786 84.222937 16.558567 84.422517 16.366252 84.622098 16.175881 84.821678 15.987497 85.021259 15.801141 85.220839 15.616855 85.420420 15.434680 85.620000 15.254658 85.819580 15.076830 86.019161 14.901239 86.218741 14.727926 86.418322 14.556932 86.617902 14.388300 86.817483 14.222070 87.017063 14.058284 87.216643 13.896985 87.416224 13.738213 87.615804 13.582010 87.815385 13.428419 88.014965 13.277480 88.214545 13.129235 88.414126 12.983725 88.613706 12.840994 88.813287 12.701081 89.012867 12.564029 89.212448 12.429879 89.412028 12.298673 89.611608 12.170453 89.811189 12.045260 90.010769 11.923136 90.210350 11.804122 90.409930 11.688261 90.609510 11.575593 90.809091 11.466160 91.008671 11.360005 91.208252 11.257168 91.407832 11.157691 91.607413 11.061616 91.806993 10.968985 92.006573 10.879839 92.206154 10.794219 92.405734 10.712168 92.605315 10.633727 92.804895 10.558937 93.004476 10.487841 93.204056 10.420480 93.403636 10.356895 93.603217 10.297128 93.802797 10.241222 94.002378 10.189216 94.201958 10.141154 94.401538 10.097076 94.601119 10.057025 94.800699 10.021041 95.000280 9.989168 95.199860 9.961445 95.399441 9.937915 95.599021 9.918620 95.798601 9.903600 95.998182 9.892899 96.197762 9.886557 96.397343 9.884615 96.596923 9.887117 96.796503 9.894102 96.996084 9.905614 97.195664 9.921693 97.395245 9.942381 97.594825 9.967719 97.794406 9.997751 97.993986 10.032516 98.193566 10.072057 98.393147 10.116415 98.592727 10.165632 98.792308 10.219749 98.991888 10.278809 99.191469 10.342852 99.391049 10.411921 99.590629 10.486057 99.790210 10.565302 99.989790 10.649697 100.189371 10.739283 100.388951 10.834104 100.588531 10.934199 100.788112 11.039612 100.987692 11.150383 101.187273 11.266554 101.386853 11.388166 101.586434 11.515262 101.786014 11.647883 101.985594 11.786071 102.185175 11.929867 102.384755 12.079312 102.584336 12.234449 102.783916 12.395320 102.983497 12.561965 103.183077 12.734426 103.382657 12.912745 103.582238 13.096964 103.781818 13.287125 103.981399 13.483268 104.180979 13.685435 104.380559 13.893669 104.580140 14.108011 104.779720 14.328502 104.979301 14.555184 105.178881 14.788099 105.378462 15.027288 105.578042 15.272793 105.777622 15.524655 105.977203 15.782917 106.176783 16.047620 106.376364 16.318805 106.575944 16.596514 106.775524 16.880788 106.975105 17.171671 107.174685 17.469202 107.374266 17.773423 107.573846 18.084377 107.773427 18.402105 107.973007 18.726648 108.172587 19.058049 108.372168 19.396348 108.571748 19.741587 108.771329 20.093809 108.970909 20.453054 109.170490 20.819364 109.370070 21.192781 109.569650 21.573347 109.769231 21.961103 109.968811 22.356091 110.168392 22.758352 110.367972 23.167928 110.567552 23.584861 110.767133 24.009192 110.966713 24.440951 111.166294 24.880124 111.365874 25.326681 111.565455 25.780596 111.765035 26.241841 111.964615 26.710389 112.164196 27.186213 112.363776 27.669284 112.563357 28.159577 112.762937 28.657062 112.962517 29.161714 113.162098 29.673504 113.361678 30.192405 113.561259 30.718390 113.760839 31.251431 113.960420 31.791501 114.160000 32.338572 114.359580 32.892618 114.559161 33.453610 114.758741 34.021521 114.958322 34.596324 115.157902 35.177992 115.357483 35.766497 115.557063 36.361811 115.756643 36.963907 115.956224 37.572759 116.155804 38.188337 116.355385 38.810616 116.554965 39.439567 116.754545 40.075164 116.954126 40.717378 117.153706 41.366183 117.353287 42.021551 117.552867 42.683454 117.752448 43.351866 117.952028 44.026758 118.151608 44.708104 118.351189 45.395875 118.550769 46.090045 118.750350 46.790587 118.949930 47.497472 119.149510 48.210673 119.349091 48.930164 119.548671 49.655916 119.748252 50.387902 119.947832 51.126095 120.147413 51.870467 120.346993 52.620991 120.546573 53.377640 120.746154 54.140385 120.945734 54.909201 121.145315 55.684059 121.344895 56.464931 121.544476 57.251791 121.744056 58.044612 121.943636 58.843365 122.143217 59.648023 122.342797 60.458559 122.542378 61.274946 122.741958 62.097155 122.941538 62.925161 123.141119 63.758934 123.340699 64.598449 123.540280 65.443677 123.739860 66.294591 123.939441 67.151163 124.139021 68.013367 124.338601 68.881175 124.538182 69.754559 124.737762 70.633492 124.937343 71.517947 125.136923 72.407896 125.336503 73.303312 125.536084 74.204167 125.735664 75.110435 125.935245 76.022087 126.134825 76.939096 126.334406 77.861435 126.533986 78.789076 126.733566 79.721992 126.933147 80.660156 127.132727 81.603540 127.332308 82.552117 127.531888 83.505859 127.731469 84.464740 127.931049 85.428730 128.130629 86.397804 128.330210 87.371934 128.529790 88.351092 128.729371 89.335251 128.928951 90.324384 129.128531 91.318462 129.328112 92.317460 129.527692 93.321349 129.727273 94.330101 129.926853 95.343690 130.126434 96.362089 130.326014 97.385269 130.525594 98.413203 130.725175 99.445864 130.924755 100.483225 131.124336 101.525258 131.323916 102.571935 131.523497 103.623230 131.723077 104.679115 131.922657 105.739562 132.122238 106.804544 132.321818 107.874034 132.521399 108.948005 132.720979 110.026428 132.920559 111.109276 133.120140 112.196523 133.319720 113.288140 133.519301 114.384101 133.718881 115.484377 133.918462 116.588942 134.118042 117.697767 134.317622 118.810827 134.517203 119.928093 134.716783 121.049537 134.916364 122.175133 135.115944 123.304853 135.315524 124.438669 135.515105 125.576555 135.714685 126.718483 135.914266 127.864425 136.113846 129.014353 136.313427 130.168242 136.513007 131.326063 136.712587 132.487788 136.912168 133.653391 137.111748 134.822844 137.311329 135.996119 137.510909 137.173190 137.710490 138.354028 137.910070 139.538607 138.109650 140.726898 138.309231 141.918875 138.508811 143.114511 138.708392 144.313777 138.907972 145.516646 139.107552 146.723091 139.307133 147.933085 139.506713 149.146600 139.706294 150.363609 139.905874 151.584083 140.105455 152.807997 140.305035 154.035323 140.504615 155.266032 140.704196 156.500098 140.903776 157.737494 141.103357 158.978191 141.302937 160.222163 141.502517 161.469382 141.702098 162.719820 141.901678 163.973451 142.101259 165.230247 142.300839 166.490180 142.500420 167.753223 142.700000 169.019349 142.899580 170.288530 143.099161 171.560739 143.298741 172.835948 143.498322 174.114131 143.697902 175.395259 143.897483 176.679305 144.097063 177.966242 144.296643 179.256043 144.496224 180.548679 144.695804 181.844124 144.895385 183.142351 145.094965 184.443331 145.294545 185.747037 145.494126 187.053443 145.693706 188.362520 145.893287 189.674241 146.092867 190.988579 146.292448 192.305507 146.492028 193.624996 146.691608 194.947020 146.891189 196.271551 147.090769 197.598562 147.290350 198.928026 147.489930 200.259914 147.689510 201.594200 147.889091 202.930856 148.088671 204.269854 148.288252 205.611168 148.487832 206.954770 148.687413 208.300632 148.886993 209.648728 149.086573 210.999029 149.286154 212.351509 149.485734 213.706139 149.685315 215.062893 149.884895 216.421743 150.084476 217.782662 150.284056 219.145622 150.483636 220.510596 150.683217 221.877557 150.882797 223.246476 151.082378 224.617327 151.281958 225.990083 151.481538 227.364715 151.681119 228.741197 151.880699 230.119501 152.080280 231.499599 152.279860 232.881465 152.479441 234.265070 152.679021 235.650388 152.878601 237.037392 153.078182 238.426052 153.277762 239.816343 153.477343 241.208237 153.676923 242.601706 153.876503 243.996723 154.076084 245.393261 154.275664 246.791292 154.475245 248.190789 154.674825 249.591724 154.874406 250.994070 155.073986 252.397800 155.273566 253.802886 155.473147 255.209300 155.672727 256.617017 155.872308 258.026007 156.071888 259.436243 156.271469 260.847699 156.471049 262.260347 156.670629 263.674158 156.870210 265.089107 157.069790 266.505166 157.269371 267.922306 157.468951 269.340502 157.668531 270.759724 157.868112 272.179947 158.067692 273.601142 158.267273 275.023282 158.466853 276.446340 158.666434 277.870288 158.866014 279.295099 159.065594 280.720746 159.265175 282.147201 159.464755 283.574436 159.664336 285.002425 159.863916 286.431139 160.063497 287.860552 160.263077 289.290637 160.462657 290.721364 160.662238 292.152709 160.861818 293.584635 161.061399 295.017084 161.260979 296.449990 161.460559 297.883287 161.660140 299.316908 161.859720 300.750787 162.059301 302.184859 162.258881 303.619057 162.458462 305.053315 162.658042 306.487567 162.857622 307.921746 163.057203 309.355788 163.256783 310.789625 163.456364 312.223192 163.655944 313.656422 163.855524 315.089250 164.055105 316.521609 164.254685 317.953433 164.454266 319.384657 164.653846 320.815213 164.853427 322.245036 165.053007 323.674060 165.252587 325.102219 165.452168 326.529446 165.651748 327.955676 165.851329 329.380843 166.050909 330.804879 166.250490 332.227720 166.450070 333.649299 166.649650 335.069550 166.849231 336.488407 167.048811 337.905803 167.248392 339.321674 167.447972 340.735952 167.647552 342.148572 167.847133 343.559467 168.046713 344.968571 168.246294 346.375819 168.445874 347.781143 168.645455 349.184479 168.845035 350.585760 169.044615 351.984919 169.244196 353.381892 169.443776 354.776611 169.643357 356.169010 169.842937 357.559024 170.042517 358.946587 170.242098 360.331631 170.441678 361.714092 170.641259 363.093903 170.840839 364.470998 171.040420 365.845310 171.240000 367.216775 171.439580 368.585325 171.639161 369.950894 171.838741 371.313417 172.038322 372.672828 172.237902 374.029060 172.437483 375.382047 172.637063 376.731723 172.836643 378.078022 173.036224 379.420878 173.235804 380.760224 173.435385 382.095996 173.634965 383.428126 173.834545 384.756548 174.034126 386.081197 174.233706 387.402006 174.433287 388.718909 174.632867 390.031841 174.832448 391.340734 175.032028 392.645524 175.231608 393.946143 175.431189 395.242526 175.630769 396.534606 175.830350 397.822318 176.029930 399.105596 176.229510 400.384372 176.429091 401.658582 176.628671 402.928159 176.828252 404.193037 177.027832 405.453150 177.227413 406.708432 177.426993 407.958817 177.626573 409.204238 177.826154 410.444630 178.025734 411.679926 178.225315 412.910060 178.424895 414.134967 178.624476 415.354580 178.824056 416.568833 179.023636 417.777660 179.223217 418.980994 179.422797 420.178771 179.622378 421.370923 179.821958 422.557385 180.021538 423.738090 180.221119 424.912972 180.420699 426.081966 180.620280 427.245005 180.819860 428.402023 181.019441 429.552953 181.219021 430.697731 181.418601 431.836290 181.618182 432.968563 181.817762 434.094485 182.017343 435.213989 182.216923 436.327010 182.416503 437.433480 182.616084 438.533336 182.815664 439.626509 183.015245 440.712934 183.214825 441.792545 183.414406 442.865276 183.613986 443.931060 183.813566 444.989832 184.013147 446.041526 184.212727 447.086075 184.412308 448.123413 184.611888 449.153474 184.811469 450.176193 185.011049 451.191503 185.210629 452.199337 185.410210 453.199630 185.609790 454.192316 185.809371 455.177329 186.008951 456.154602 186.208531 457.124069 186.408112 458.085665 186.607692 459.039323 186.807273 459.984977 187.006853 460.922562 187.206434 461.852010 187.406014 462.773256 187.605594 463.686233 187.805175 464.590877 188.004755 465.487119 188.204336 466.374896 188.403916 467.254139 188.603497 468.124784 188.803077 468.986764 189.002657 469.840013 189.202238 470.684465 189.401818 471.520054 189.601399 472.346713 189.800979 473.164378 190.000559 473.972980 190.200140 474.772456 190.399720 475.562737 190.599301 476.343759 190.798881 477.115455 190.998462 477.877759 191.198042 478.630605 191.397622 479.373927 191.597203 480.107658 191.796783 480.831734 191.996364 481.546087 192.195944 482.250651 192.395524 482.945361 192.595105 483.630150 192.794685 484.304952 192.994266 484.969701 193.193846 485.624331 193.393427 486.268776 193.593007 486.902970 193.792587 487.526847 193.992168 488.140340 194.191748 488.743384 194.391329 489.335912 194.590909 489.917858 194.790490 490.489157 194.990070 491.049741 195.189650 491.599546 195.389231 492.138505 195.588811 492.666551 195.788392 493.183619 195.987972 493.689643 196.187552 494.184556 196.387133 494.668293 196.586713 495.140786 196.786294 495.601972 196.985874 496.051782 197.185455 496.490151 197.385035 496.917013 197.584615 497.332302 197.784196 497.735952 197.983776 498.127897 198.183357 498.508069 198.382937 498.876405 198.582517 499.232837 198.782098 499.577298 198.981678 499.909725 199.181259 500.230049 199.380839 500.538205 199.580420 500.834127 199.780000 501.117748 199.979580 501.389004 200.179161 501.647826 200.378741 501.894151 200.578322 502.127910 200.777902 502.349039 200.977483 502.557471 201.177063 502.753140 201.376643 502.935980 201.576224 503.105925 201.775804 503.262909 201.975385 503.406866 202.174965 503.537728 202.374545 503.655432 202.574126 503.759910 202.773706 503.851096 202.973287 503.928924 203.172867 503.993328 203.372448 504.044243 203.572028 504.081601 203.771608 504.105337 203.971189 504.115385 204.170769 504.111678 204.370350 504.094151 204.569930 504.062737 204.769510 504.017370 204.969091 503.957985 205.168671 503.884515 205.368252 503.796893 205.567832 503.695055 205.767413 503.578934 205.966993 503.448463 206.166573 503.303576 206.366154 503.144209 206.565734 502.970293 206.765315 502.781764 206.964895 502.578556 207.164476 502.360601 207.364056 502.127834 207.563636 501.880190 207.763217 501.617601 207.962797 501.340002 208.162378 501.047326 208.361958 500.739508 208.561538 500.416482 208.761119 500.078180 208.960699 499.724538 209.160280 499.355490 209.359860 498.970968 209.559441 498.570907 209.759021 498.155241 209.958601 497.723904 210.158182 497.276829 210.357762 496.813951 210.557343 496.335203 210.756923 495.840550 210.956503 495.330070 211.156084 494.803877 211.355664 494.262078 211.555245 493.704786 211.754825 493.132111 211.954406 492.544162 212.153986 491.941050 212.353566 491.322887 212.553147 490.689781 212.752727 490.041844 212.952308 489.379186 213.151888 488.701918 213.351469 488.010150 213.551049 487.303991 213.750629 486.583554 213.950210 485.848948 214.149790 485.100283 214.349371 484.337670 214.548951 483.561220 214.748531 482.771043 214.948112 481.967249 215.147692 481.149948 215.347273 480.319252 215.546853 479.475271 215.746434 478.618114 215.946014 477.747893 216.145594 476.864718 216.345175 475.968699 216.544755 475.059946 216.744336 474.138571 216.943916 473.204683 217.143497 472.258394 217.343077 471.299812 217.542657 470.329050 217.742238 469.346217 217.941818 468.351423 218.141399 467.344780 218.340979 466.326397 218.540559 465.296385 218.740140 464.254855 218.939720 463.201916 219.139301 462.137679 219.338881 461.062256 219.538462 459.975755 219.738042 458.878288 219.937622 457.769964 220.137203 456.650895 220.336783 455.521191 220.536364 454.380962 220.735944 453.230319 220.935524 452.069372 221.135105 450.898231 221.334685 449.717008 221.534266 448.525811 221.733846 447.324753 221.933427 446.113942 222.133007 444.893490 222.332587 443.663507 222.532168 442.424104 222.731748 441.175391 222.931329 439.917478 223.130909 438.650475 223.330490 437.374494 223.530070 436.089645 223.729650 434.796037 223.929231 433.493782 224.128811 432.182990 224.328392 430.863771 224.527972 429.536236 224.727552 428.200495 224.927133 426.856659 225.126713 425.504837 225.326294 424.145141 225.525874 422.777681 225.725455 421.402568 225.925035 420.019911 226.124615 418.629821 226.324196 417.232408 226.523776 415.827784 226.723357 414.416058 226.922937 412.997341 227.122517 411.571743 227.322098 410.139375 227.521678 408.700347 227.721259 407.254769 227.920839 405.802753 228.120420 404.344408 228.320000 402.879844 228.519580 401.409173 228.719161 399.932505 228.918741 398.449950 229.118322 396.961618 229.317902 395.467620 229.517483 393.968067 229.717063 392.463068 229.916643 390.952735 230.116224 389.437177 230.315804 387.916506 230.515385 386.390830 230.714965 384.860262 230.914545 383.324911 231.114126 381.784888 231.313706 380.240303 231.513287 378.691267 231.712867 377.137890 231.912448 375.580282 232.112028 374.018555 232.311608 372.452817 232.511189 370.883181 232.710769 369.309755 232.910350 367.732651 233.109930 366.151980 233.309510 364.567850 233.509091 362.980374 233.708671 361.389661 233.908252 359.795821 234.107832 358.198966 234.307413 356.599205 234.506993 354.996650 234.706573 353.391410 234.906154 351.783595 235.105734 350.173318 235.305315 348.560686 235.504895 346.945812 235.704476 345.328806 235.904056 343.709777 236.103636 342.088837 236.303217 340.466096 236.502797 338.841664 236.702378 337.215652 236.901958 335.588170 237.101538 333.959328 237.301119 332.329238 237.500699 330.698008 237.700280 329.065751 237.899860 327.432576 238.099441 325.798594 238.299021 324.163914 238.498601 322.528649 238.698182 320.892907 238.897762 319.256799 239.097343 317.620437 239.296923 315.983930 239.496503 314.347388 239.696084 312.710922 239.895664 311.074643 240.095245 309.438661 240.294825 307.803087 240.494406 306.168030 240.693986 304.533601 240.893566 302.899911 241.093147 301.267070 241.292727 299.635188 241.492308 298.004377 241.691888 296.374746 241.891469 294.746405 242.091049 293.119466 242.290629 291.494038 242.490210 289.870233 242.689790 288.248160 242.889371 286.627930 243.088951 285.009653 243.288531 283.393440 243.488112 281.779401 243.687692 280.167647 243.887273 278.558287 244.086853 276.951433 244.286434 275.347196 244.486014 273.745684 244.685594 272.147009 244.885175 270.551281 245.084755 268.958611 245.284336 267.369109 245.483916 265.782886 245.683497 264.200051 245.883077 262.620715 246.082657 261.044990 246.282238 259.472984 246.481818 257.904809 246.681399 256.340575 246.880979 254.780392 247.080559 253.224371 247.280140 251.672623 247.479720 250.125257 247.679301 248.582384 247.878881 247.044115 248.078462 245.510560 248.278042 243.981829 248.477622 242.458033 248.677203 240.939282 248.876783 239.425687 249.076364 237.917359 249.275944 236.414406 249.475524 234.916941 249.675105 233.425073 249.874685 231.938912 250.074266 230.458570 250.273846 228.984157 250.473427 227.515783 250.673007 226.053558 250.872587 224.597593 251.072168 223.147999 251.271748 221.704885 251.471329 220.268363 251.670909 218.838542 251.870490 217.415533 252.070070 215.999447 252.269650 214.590393 252.469231 213.188483 252.668811 211.793827 252.868392 210.406535 253.067972 209.026718 253.267552 207.654485 253.467133 206.289948 253.666713 204.933217 253.866294 203.584403 254.065874 202.243615 254.265455 200.910964 254.465035 199.586561 254.664615 198.270516 254.864196 196.962939 255.063776 195.663941 255.263357 194.373633 255.462937 193.092124 255.662517 191.819525 255.862098 190.555947 256.061678 189.301500 256.261259 188.056295 256.460839 186.820441 256.660420 185.594050 256.860000 184.377231 257.059580 183.170095 257.259161 181.972753 257.458741 180.785315 257.658322 179.607891 257.857902 178.440593 258.057483 177.283529 258.257063 176.136811 258.456643 175.000549 258.656224 173.874854 258.855804 172.759836 259.055385 171.655605 259.254965 170.562272 259.454545 169.479947 259.654126 168.408741 259.853706 167.348764 260.053287 166.300127 260.252867 165.262939 260.452448 164.237312 260.652028 163.223327 260.851608 162.220951 261.051189 161.230123 261.250769 160.250781 261.450350 159.282864 261.649930 158.326310 261.849510 157.381058 262.049091 156.447045 262.248671 155.524211 262.448252 154.612494 262.647832 153.711832 262.847413 152.822164 263.046993 151.943429 263.246573 151.075564 263.446154 150.218508 263.645734 149.372200 263.845315 148.536579 264.044895 147.711582 264.244476 146.897148 264.444056 146.093215 264.643636 145.299723 264.843217 144.516609 265.042797 143.743812 265.242378 142.981270 265.441958 142.228922 265.641538 141.486707 265.841119 140.754562 266.040699 140.032426 266.240280 139.320239 266.439860 138.617937 266.639441 137.925460 266.839021 137.242746 267.038601 136.569733 267.238182 135.906360 267.437762 135.252566 267.637343 134.608289 267.836923 133.973467 268.036503 133.348039 268.236084 132.731943 268.435664 132.125118 268.635245 131.527502 268.834825 130.939034 269.034406 130.359652 269.233986 129.789294 269.433566 129.227900 269.633147 128.675407 269.832727 128.131754 270.032308 127.596879 270.231888 127.070722 270.431469 126.553219 270.631049 126.044311 270.830629 125.543934 271.030210 125.052029 271.229790 124.568532 271.429371 124.093383 271.628951 123.626521 271.828531 123.167883 272.028112 122.717407 272.227692 122.275034 272.427273 121.840700 272.626853 121.414345 272.826434 120.995906 273.026014 120.585323 273.225594 120.182534 273.425175 119.787477 273.624755 119.400090 273.824336 119.020313 274.023916 118.648083 274.223497 118.283340 274.423077 117.926021 274.622657 117.576065 274.822238 117.233410 275.021818 116.897995 275.221399 116.569759 275.420979 116.248640 275.620559 115.934576 275.820140 115.627505 276.019720 115.327367 276.219301 115.034100 276.418881 114.747641 276.618462 114.467930 276.818042 114.194906 277.017622 113.928505 277.217203 113.668668 277.416783 113.415332 277.616364 113.168437 277.815944 112.927919 278.015524 112.693718 278.215105 112.465773 278.414685 112.244021 278.614266 112.028402 278.813846 111.818853 279.013427 111.615313 279.213007 111.417721 279.412587 111.226015 279.612168 111.040133 279.811748 110.860015 280.011329 110.685597 280.210909 110.516820 280.410490 110.353621 280.610070 110.195939 280.809650 110.043712 281.009231 109.896878 281.208811 109.755377 281.408392 109.619147 281.607972 109.488126 281.807552 109.362252 282.007133 109.241464 282.206713 109.125701 282.406294 109.014900 282.605874 108.909001 282.805455 108.807942 283.005035 108.711661 283.204615 108.620097 283.404196 108.533189 283.603776 108.450874 283.803357 108.373091 284.002937 108.299778 284.202517 108.230875 284.402098 108.166319 284.601678 108.106050 284.801259 108.050004 285.000839 107.998122 285.200420 107.950341 285.400000 107.906600 285.599580 107.866837 285.799161 107.830991 285.998741 107.799000 286.198322 107.770803 286.397902 107.746338 286.597483 107.725543 286.797063 107.708358 286.996643 107.694720 287.196224 107.684568 287.395804 107.677841 287.595385 107.674476 287.794965 107.674413 287.994545 107.677589 288.194126 107.683944 288.393706 107.693416 288.593287 107.705943 288.792867 107.721463 288.992448 107.739916 289.192028 107.761239 289.391608 107.785371 289.591189 107.812251 289.790769 107.841816 289.990350 107.874006 290.189930 107.908759 290.389510 107.946013 290.589091 107.985707 290.788671 108.027780 290.988252 108.072169 291.187832 108.118813 291.387413 108.167651 291.586993 108.218621 291.786573 108.271661 291.986154 108.326711 292.185734 108.383708 292.385315 108.442590 292.584895 108.503298 292.784476 108.565768 292.984056 108.629939 293.183636 108.695751 293.383217 108.763140 293.582797 108.832046 293.782378 108.902407 293.981958 108.974162 294.181538 109.047249 294.381119 109.121607 294.580699 109.197173 294.780280 109.273887 294.979860 109.351687 295.179441 109.430512 295.379021 109.510299 295.578601 109.590987 295.778182 109.672515 295.977762 109.754822 296.177343 109.837845 296.376923 109.921523 296.576503 110.005794 296.776084 110.090598 296.975664 110.175873 297.175245 110.261556 297.374825 110.347587 297.574406 110.433903 297.773986 110.520444 297.973566 110.607148 298.173147 110.693953 298.372727 110.780798 298.572308 110.867621 298.771888 110.954361 298.971469 111.040955 299.171049 111.127344 299.370629 111.213464 299.570210 111.299255 299.769790 111.384655 299.969371 111.469602 300.168951 111.554035 300.368531 111.637892 300.568112 111.721113 300.767692 111.803634 300.967273 111.885395 301.166853 111.966335 301.366434 112.046391 301.566014 112.125502 301.765594 112.203606 301.965175 112.280643 302.164755 112.356550 302.364336 112.431266 302.563916 112.504730 302.763497 112.576879 302.963077 112.647653 303.162657 112.716989 303.362238 112.784827 303.561818 112.851104 303.761399 112.915760 303.960979 112.978732 304.160559 113.039959 304.360140 113.099379 304.559720 113.156932 304.759301 113.212555 304.958881 113.266187 305.158462 113.317767 305.358042 113.367232 305.557622 113.414522 305.757203 113.459574 305.956783 113.502327 306.156364 113.542721 306.355944 113.580692 306.555524 113.616180 306.755105 113.649123 306.954685 113.679459 307.154266 113.707128 307.353846 113.732066 307.553427 113.754214 307.753007 113.773509 307.952587 113.789890 308.152168 113.803295 308.351748 113.813663 308.551329 113.820933 308.750909 113.825041 308.950490 113.825928 309.150070 113.823532 309.349650 113.817790 309.549231 113.808642 309.748811 113.796026 309.948392 113.779880 310.147972 113.760144 310.347552 113.736754 310.547133 113.709665 310.746713 113.678889 310.946294 113.644454 311.145874 113.606386 311.345455 113.564712 311.545035 113.519461 311.744615 113.470659 311.944196 113.418333 312.143776 113.362510 312.343357 113.303219 312.542937 113.240486 312.742517 113.174338 312.942098 113.104802 313.141678 113.031906 313.341259 112.955678 313.540839 112.876143 313.740420 112.793330 313.940000 112.707266 314.139580 112.617977 314.339161 112.525492 314.538741 112.429837 314.738322 112.331040 314.937902 112.229127 315.137483 112.124127 315.337063 112.016066 315.536643 111.904971 315.736224 111.790870 315.935804 111.673790 316.135385 111.553759 316.334965 111.430802 316.534545 111.304949 316.734126 111.176225 316.933706 111.044659 317.133287 110.910276 317.332867 110.773106 317.532448 110.633174 317.732028 110.490508 317.931608 110.345136 318.131189 110.197084 318.330769 110.046380 318.530350 109.893050 318.729930 109.737123 318.929510 109.578625 319.129091 109.417584 319.328671 109.254027 319.528252 109.087981 319.727832 108.919473 319.927413 108.748531 320.126993 108.575182 320.326573 108.399452 320.526154 108.221370 320.725734 108.040963 320.925315 107.858257 321.124895 107.673280 321.324476 107.486059 321.524056 107.296622 321.723636 107.104995 321.923217 106.911206 322.122797 106.715282 322.322378 106.517250 322.521958 106.317138 322.721538 106.114973 322.921119 105.910782 323.120699 105.704592 323.320280 105.496430 323.519860 105.286324 323.719441 105.074301 323.919021 104.860389 324.118601 104.644613 324.318182 104.427002 324.517762 104.207583 324.717343 103.986383 324.916923 103.763430 325.116503 103.538750 325.316084 103.312370 325.515664 103.084319 325.715245 102.854623 325.914825 102.623309 326.114406 102.390405 326.313986 102.155937 326.513566 101.919934 326.713147 101.682423 326.912727 101.443430 327.112308 101.202982 327.311888 100.961108 327.511469 100.717834 327.711049 100.473187 327.910629 100.227196 328.110210 99.979886 328.309790 99.731285 328.509371 99.481421 328.708951 99.230320 328.908531 98.978011 329.108112 98.724519 329.307692 98.469873 329.507273 98.214099 329.706853 97.957225 329.906434 97.699278 330.106014 97.440285 330.305594 97.180274 330.505175 96.919272 330.704755 96.657305 330.904336 96.394402 331.103916 96.130589 331.303497 95.865894 331.503077 95.600343 331.702657 95.333965 331.902238 95.066786 332.101818 94.798833 332.301399 94.530134 332.500979 94.260716 332.700559 93.990607 332.900140 93.719833 333.099720 93.448421 333.299301 93.176400 333.498881 92.903795 333.698462 92.630635 333.898042 92.356947 334.097622 92.082757 334.297203 91.808094 334.496783 91.532984 334.696364 91.257454 334.895944 90.981532 335.095524 90.705245 335.295105 90.428620 335.494685 90.151685 335.694266 89.874467 335.893846 89.596992 336.093427 89.319288 336.293007 89.041383 336.492587 88.763303 336.692168 88.485076 336.891748 88.206729 337.091329 87.928290 337.290909 87.649785 337.490490 87.371241 337.690070 87.092687 337.889650 86.814149 338.089231 86.535654 338.288811 86.257230 338.488392 85.978904 338.687972 85.700702 338.887552 85.422654 339.087133 85.144784 339.286713 84.867122 339.486294 84.589693 339.685874 84.312526 339.885455 84.035647 340.085035 83.759084 340.284615 83.482864 340.484196 83.207014 340.683776 82.931562 340.883357 82.656534 341.082937 82.381958 341.282517 82.107861 341.482098 81.834270 341.681678 81.561213 341.881259 81.288717 342.080839 81.016808 342.280420 80.745515 342.480000 80.474865 342.679580 80.204884 342.879161 79.935600 343.078741 79.667040 343.278322 79.399231 343.477902 79.132201 343.677483 78.865977 343.877063 78.600586 344.076643 78.336055 344.276224 78.072412 344.475804 77.809683 344.675385 77.547897 344.874965 77.287080 345.074545 77.027259 345.274126 76.768462 345.473706 76.510715 345.673287 76.254047 345.872867 75.998484 346.072448 75.744054 346.272028 75.490783 346.471608 75.238700 346.671189 74.987831 346.870769 74.738203 347.070350 74.489844 347.269930 74.242781 347.469510 73.997042 347.669091 73.752652 347.868671 73.509641 348.068252 73.268034 348.267832 73.027859 348.467413 72.789144 348.666993 72.551915 348.866573 72.316200 349.066154 72.082026 349.265734 71.849420 349.465315 71.618410 349.664895 71.389022 349.864476 71.161284 350.064056 70.935224 350.263636 70.710868 350.463217 70.488243 350.662797 70.267378 350.862378 70.048298 351.061958 69.831032 351.261538 69.615606 351.461119 69.402048 351.660699 69.190385 351.860280 68.980644 352.059860 68.772853 352.259441 68.567039 352.459021 68.363228 352.658601 68.161448 352.858182 67.961727 353.057762 67.764092 353.257343 67.568569 353.456923 67.375186 353.656503 67.183971 353.856084 66.994950 354.055664 66.808151 354.255245 66.623601 354.454825 66.441327 354.654406 66.261357 354.853986 66.083717 355.053566 65.908435 355.253147 65.735538 355.452727 65.565054 355.652308 65.397009 355.851888 65.231431 356.051469 65.068347 356.251049 64.907784 356.450629 64.749770 356.650210 64.594331 356.849790 64.441496 357.049371 64.291291 357.248951 64.143743 357.448531 63.998879 357.648112 63.856728 357.847692 63.717316 358.047273 63.580670 358.246853 63.446817 358.446434 63.315786 358.646014 63.187602 358.845594 63.062293 359.045175 62.939888 359.244755 62.820411 359.444336 62.703892 359.643916 62.590357 359.843497 62.479833 360.043077 62.372348 360.242657 62.267929 360.442238 62.166597 360.641818 62.068348 360.841399 61.973173 361.040979 61.881063 361.240559 61.792008 361.440140 61.705998 361.639720 61.623024 361.839301 61.543076 362.038881 61.466145 362.238462 61.392221 362.438042 61.321294 362.637622 61.253356 362.837203 61.188397 363.036783 61.126406 363.236364 61.067376 363.435944 61.011295 363.635524 60.958154 363.835105 60.907944 364.034685 60.860656 364.234266 60.816280 364.433846 60.774805 364.633427 60.736224 364.833007 60.700526 365.032587 60.667701 365.232168 60.637740 365.431748 60.610634 365.631329 60.586373 365.830909 60.564948 366.030490 60.546348 366.230070 60.530565 366.429650 60.517589 366.629231 60.507410 366.828811 60.500018 367.028392 60.495405 367.227972 60.493561 367.427552 60.494476 367.627133 60.498140 367.826713 60.504545 368.026294 60.513680 368.225874 60.525536 368.425455 60.540103 368.625035 60.557373 368.824615 60.577334 369.024196 60.599979 369.223776 60.625297 369.423357 60.653278 369.622937 60.683914 369.822517 60.717195 370.022098 60.753110 370.221678 60.791651 370.421259 60.832809 370.620839 60.876572 370.820420 60.922933 371.020000 60.971881 371.219580 61.023407 371.419161 61.077501 371.618741 61.134154 371.818322 61.193357 372.017902 61.255099 372.217483 61.319371 372.417063 61.386164 372.616643 61.455468 372.816224 61.527273 373.015804 61.601571 373.215385 61.678350 373.414965 61.757603 373.614545 61.839320 373.814126 61.923490 374.013706 62.010104 374.213287 62.099153 374.412867 62.190628 374.612448 62.284518 374.812028 62.380814 375.011608 62.479507 375.211189 62.580587 375.410769 62.684044 375.610350 62.789869 375.809930 62.898053 376.009510 63.008586 376.209091 63.121458 376.408671 63.236660 376.608252 63.354182 376.807832 63.474015 377.007413 63.596149 377.206993 63.720574 377.406573 63.847282 377.606154 63.976262 377.805734 64.107506 378.005315 64.241003 378.204895 64.376744 378.404476 64.514719 378.604056 64.654919 378.803636 64.797334 379.003217 64.941956 379.202797 65.088773 379.402378 65.237777 379.601958 65.388958 379.801538 65.542307 380.001119 65.697814 380.200699 65.855470 380.400280 66.015264 380.599860 66.177188 380.799441 66.341232 380.999021 66.507386 381.198601 66.675642 381.398182 66.845988 381.597762 67.018416 381.797343 67.192916 381.996923 67.369479 382.196503 67.548096 382.396084 67.728755 382.595664 67.911449 382.795245 68.096167 382.994825 68.282901 383.194406 68.471639 383.393986 68.662374 383.593566 68.855095 383.793147 69.049792 383.992727 69.246457 384.192308 69.445080 384.391888 69.645651 384.591469 69.848160 384.791049 70.052599 384.990629 70.258957 385.190210 70.467225 385.389790 70.677394 385.589371 70.889454 385.788951 71.103395 385.988531 71.319207 386.188112 71.536882 386.387692 71.756410 386.587273 71.977781 386.786853 72.200986 386.986434 72.426015 387.186014 72.652859 387.385594 72.881507 387.585175 73.111952 387.784755 73.344182 387.984336 73.578188 388.183916 73.813962 388.383497 74.051493 388.583077 74.290771 388.782657 74.531788 388.982238 74.774534 389.181818 75.018999 389.381399 75.265173 389.580979 75.513048 389.780559 75.762613 389.980140 76.013859 390.179720 76.266777 390.379301 76.521357 390.578881 76.777589 390.778462 77.035464 390.978042 77.294972 391.177622 77.556105 391.377203 77.818851 391.576783 78.083202 391.776364 78.349148 391.975944 78.616680 392.175524 78.885788 392.375105 79.156463 392.574685 79.428694 392.774266 79.702473 392.973846 79.977790 393.173427 80.254635 393.373007 80.532999 393.572587 80.812873 393.772168 81.094246 393.971748 81.377109 394.171329 81.661453 394.370909 81.947268 394.570490 82.234545 394.770070 82.523274 394.969650 82.813445 395.169231 83.105050 395.368811 83.398077 395.568392 83.692519 395.767972 83.988365 395.967552 84.285606 396.167133 84.584232 396.366713 84.884234 396.566294 85.185602 396.765874 85.488326 396.965455 85.792398 397.165035 86.097807 397.364615 86.404545 397.564196 86.712601 397.763776 87.021965 397.963357 87.332629 398.162937 87.644583 398.362517 87.957818 398.562098 88.272323 398.761678 88.588089 398.961259 88.905107 399.160839 89.223367 399.360420 89.542860 399.560000 89.863576 399.759580 90.185506 399.959161 90.508639 400.158741 90.832967 400.358322 91.158480 400.557902 91.485168 400.757483 91.813022 400.957063 92.142032 401.156643 92.472189 401.356224 92.803483 401.555804 93.135905 401.755385 93.469445 401.954965 93.804094 402.154545 94.139841 402.354126 94.476678 402.553706 94.814595 402.753287 95.153583 402.952867 95.493631 403.152448 95.834731 403.352028 96.176872 403.551608 96.520046 403.751189 96.864243 403.950769 97.209452 404.150350 97.555666 404.349930 97.902873 404.549510 98.251065 404.749091 98.600232 404.948671 98.950364 405.148252 99.301453 405.347832 99.653487 405.547413 100.006459 405.746993 100.360358 405.946573 100.715175 406.146154 101.070899 406.345734 101.427523 406.545315 101.785036 406.744895 102.143428 406.944476 102.502690 407.144056 102.862813 407.343636 103.223787 407.543217 103.585603 407.742797 103.948250 407.942378 104.311719 408.141958 104.676002 408.341538 105.041087 408.541119 105.406967 408.740699 105.773630 408.940280 106.141069 409.139860 106.509272 409.339441 106.878231 409.539021 107.247936 409.738601 107.618377 409.938182 107.989546 410.137762 108.361431 410.337343 108.734023 410.536923 109.107298 410.736503 109.481232 410.936084 109.855802 411.135664 110.230982 411.335245 110.606750 411.534825 110.983080 411.734406 111.359948 411.933986 111.737331 412.133566 112.115204 412.333147 112.493543 412.532727 112.872323 412.732308 113.251520 412.931888 113.631111 413.131469 114.011071 413.331049 114.391376 413.530629 114.772001 413.730210 115.152923 413.929790 115.534116 414.129371 115.915558 414.328951 116.297223 414.528531 116.679089 414.728112 117.061129 414.927692 117.443320 415.127273 117.825639 415.326853 118.208060 415.526434 118.590560 415.726014 118.973114 415.925594 119.355698 416.125175 119.738288 416.324755 120.120860 416.524336 120.503390 416.723916 120.885852 416.923497 121.268224 417.123077 121.650481 417.322657 122.032598 417.522238 122.414552 417.721818 122.796318 417.921399 123.177872 418.120979 123.559190 418.320559 123.940248 418.520140 124.321021 418.719720 124.701485 418.919301 125.081616 419.118881 125.461391 419.318462 125.840784 419.518042 126.219771 419.717622 126.598328 419.917203 126.976432 420.116783 127.354057 420.316364 127.731180 420.515944 128.107777 420.715524 128.483822 420.915105 128.859293 421.114685 129.234164 421.314266 129.608412 421.513846 129.982012 421.713427 130.354941 421.913007 130.727173 422.112587 131.098686 422.312168 131.469453 422.511748 131.839453 422.711329 132.208659 422.910909 132.577048 423.110490 132.944596 423.310070 133.311278 423.509650 133.677071 423.709231 134.041950 423.908811 134.405891 424.108392 134.768869 424.307972 135.130862 424.507552 135.491843 424.707133 135.851789 424.906713 136.210677 425.106294 136.568481 425.305874 136.925177 425.505455 137.280742 425.705035 137.635151 425.904615 137.988379 426.104196 138.340404 426.303776 138.691199 426.503357 139.040743 426.702937 139.389009 426.902517 139.735974 427.102098 140.081613 427.301678 140.425903 427.501259 140.768819 427.700839 141.110337 427.900420 141.450433 428.100000 141.789083 428.299580 142.126262 428.499161 142.461946 428.698741 142.796112 428.898322 143.128734 429.097902 143.459788 429.297483 143.789251 429.497063 144.117098 429.696643 144.443305 429.896224 144.767848 430.095804 145.090703 430.295385 145.411844 430.494965 145.731249 430.694545 146.048893 430.894126 146.364752 431.093706 146.678801 431.293287 146.991016 431.492867 147.301374 431.692448 147.609849 431.892028 147.916418 432.091608 148.221057 432.291189 148.523741 432.490769 148.824446 432.690350 149.123148 432.889930 149.419822 433.089510 149.714445 433.289091 150.006993 433.488671 150.297440 433.688252 150.585763 433.887832 150.871938 434.087413 151.155941 434.286993 151.437746 434.486573 151.717331 434.686154 151.994670 434.885734 152.269741 435.085315 152.542517 435.284895 152.812976 435.484476 153.081093 435.684056 153.346843 435.883636 153.610203 436.083217 153.871149 436.282797 154.129656 436.482378 154.385700 436.681958 154.639256 436.881538 154.890301 437.081119 155.138811 437.280699 155.384760 437.480280 155.628126 437.679860 155.868883 437.879441 156.107008 438.079021 156.342477 438.278601 156.575264 438.478182 156.805346 438.677762 157.032699 438.877343 157.257299 439.076923 157.479121 439.276503 157.698141 439.476084 157.914335 439.675664 158.127679 439.875245 158.338148 440.074825 158.545718 440.274406 158.750366 440.473986 158.952066 440.673566 159.150795 440.873147 159.346529 441.072727 159.539243 441.272308 159.728913 441.471888 159.915514 441.671469 160.099024 441.871049 160.279417 442.070629 160.456669 442.270210 160.630756 442.469790 160.801654 442.669371 160.969338 442.868951 161.133785 443.068531 161.294971 443.268112 161.452870 443.467692 161.607459 443.667273 161.758713 443.866853 161.906610 444.066434 162.051123 444.266014 162.192229 444.465594 162.329904 444.665175 162.464124 444.864755 162.594863 445.064336 162.722100 445.263916 162.845808 445.463497 162.965963 445.663077 163.082543 445.862657 163.195522 446.062238 163.304875 446.261818 163.410580 446.461399 163.512612 446.660979 163.610946 446.860559 163.705558 447.060140 163.796425 447.259720 163.883521 447.459301 163.966823 447.658881 164.046307 447.858462 164.121947 448.058042 164.193721 448.257622 164.261604 448.457203 164.325572 448.656783 164.385600 448.856364 164.441664 449.055944 164.493740 449.255524 164.541804 449.455105 164.585832 449.654685 164.625799 449.854266 164.661682 450.053846 164.693455 450.253427 164.721096 450.453007 164.744579 450.652587 164.763880 450.852168 164.778976 451.051748 164.789841 451.251329 164.796453 451.450909 164.798786 451.650490 164.796816 451.850070 164.790520 452.049650 164.779872 452.249231 164.764850 452.448811 164.745428 452.648392 164.721582 452.847972 164.693288 453.047552 164.660523 453.247133 164.623261 453.446713 164.581479 453.646294 164.535152 453.845874 164.484256 454.045455 164.428767 454.245035 164.368661 454.444615 164.303913 454.644196 164.234500 454.843776 164.160397 455.043357 164.081579 455.242937 163.998024 455.442517 163.909705 455.642098 163.816601 455.841678 163.718685 456.041259 163.615934 456.240839 163.508324 456.440420 163.395830 456.640000 163.278429 456.839580 163.156095 457.039161 163.028806 457.238741 162.896536 457.438322 162.759261 457.637902 162.616958 457.837483 162.469602 458.037063 162.317169 458.236643 162.159634 458.436224 161.996973 458.635804 161.829163 458.835385 161.656179 459.034965 161.477997 459.234545 161.294592 459.434126 161.105941 459.633706 160.912019 459.833287 160.712802 460.032867 160.508265 460.232448 160.298396 460.432028 160.083224 460.631608 159.862789 460.831189 159.637132 461.030769 159.406294 461.230350 159.170313 461.429930 158.929232 461.629510 158.683090 461.829091 158.431928 462.028671 158.175786 462.228252 157.914705 462.427832 157.648724 462.627413 157.377885 462.826993 157.102228 463.026573 156.821793 463.226154 156.536620 463.425734 156.246750 463.625315 155.952224 463.824895 155.653081 464.024476 155.349363 464.224056 155.041109 464.423636 154.728360 464.623217 154.411157 464.822797 154.089539 465.022378 153.763547 465.221958 153.433222 465.421538 153.098604 465.621119 152.759733 465.820699 152.416650 466.020280 152.069395 466.219860 151.718008 466.419441 151.362531 466.619021 151.003003 466.818601 150.639464 467.018182 150.271956 467.217762 149.900518 467.417343 149.525191 467.616923 149.146016 467.816503 148.763032 468.016084 148.376281 468.215664 147.985802 468.415245 147.591635 468.614825 147.193822 468.814406 146.792403 469.013986 146.387418 469.213566 145.978908 469.413147 145.566912 469.612727 145.151472 469.812308 144.732628 470.011888 144.310419 470.211469 143.884887 470.411049 143.456072 470.610629 143.024015 470.810210 142.588755 471.009790 142.150333 471.209371 141.708790 471.408951 141.264166 471.608531 140.816500 471.808112 140.365835 472.007692 139.912210 472.207273 139.455665 472.406853 138.996241 472.606434 138.533979 472.806014 138.068918 473.005594 137.601099 473.205175 137.130563 473.404755 136.657350 473.604336 136.181500 473.803916 135.703054 474.003497 135.222051 474.203077 134.738534 474.402657 134.252541 474.602238 133.764113 474.801818 133.273292 475.001399 132.780116 475.200979 132.284627 475.400559 131.786864 475.600140 131.286869 475.799720 130.784682 475.999301 130.280343 476.198881 129.773892 476.398462 129.265370 476.598042 128.754818 476.797622 128.242275 476.997203 127.727782 477.196783 127.211380 477.396364 126.693108 477.595944 126.173008 477.795524 125.651120 477.995105 125.127483 478.194685 124.602139 478.394266 124.075128 478.593846 123.546490 478.793427 123.016266 478.993007 122.484496 479.192587 121.951221 479.392168 121.416480 479.591748 120.880315 479.791329 120.342765 479.990909 119.803871 480.190490 119.263674 480.390070 118.722214 480.589650 118.179531 480.789231 117.635665 480.988811 117.090658 481.188392 116.544549 481.387972 115.997379 481.587552 115.449188 481.787133 114.900017 481.986713 114.349906 482.186294 113.798896 482.385874 113.247026 482.585455 112.694338 482.785035 112.140871 482.984615 111.586666 483.184196 111.031764 483.383776 110.476204 483.583357 109.920028 483.782937 109.363276 483.982517 108.805987 484.182098 108.248203 484.381678 107.689964 484.581259 107.131310 484.780839 106.572282 484.980420 106.012920 485.180000 105.453264 485.379580 104.893355 485.579161 104.333233 485.778741 103.772939 485.978322 103.212513 486.177902 102.651996 486.377483 102.091427 486.577063 101.530847 486.776643 100.970297 486.976224 100.409818 487.175804 99.849448 487.375385 99.289230 487.574965 98.729202 487.774545 98.169406 487.974126 97.609883 488.173706 97.050672 488.373287 96.491813 488.572867 95.933348 488.772448 95.375316 488.972028 94.817759 489.171608 94.260716 489.371189 93.704227 489.570769 93.148334 489.770350 92.593077 489.969930 92.038495 490.169510 91.484630 490.369091 90.931522 490.568671 90.379211 490.768252 89.827738 490.967832 89.277142 491.167413 88.727465 491.366993 88.178747 491.566573 87.631028 491.766154 87.084349 491.965734 86.538750 492.165315 85.994271 492.364895 85.450953 492.564476 84.908836 492.764056 84.367960 492.963636 83.828367 493.163217 83.290096 493.362797 82.753188 493.562378 82.217683 493.761958 81.683622 493.961538 81.151045 494.161119 80.619992 494.360699 80.090504 494.560280 79.562621 494.759860 79.036384 494.959441 78.511832 495.159021 77.989007 495.358601 77.467949 495.558182 76.948698 495.757762 76.431295 495.957343 75.915780 496.156923 75.402193 496.356503 74.890575 496.556084 74.380966 496.755664 73.873406 496.955245 73.367937 497.154825 72.864598 497.354406 72.363430 497.553986 71.864473 497.753566 71.367767 497.953147 70.873354 498.152727 70.381273 498.352308 69.891564 498.551888 69.404269 498.751469 68.919427 498.951049 68.437080 499.150629 67.957267 499.350210 67.480028 499.549790 67.005405 499.749371 66.533437 499.948951 66.064165 500.148531 65.597630 500.348112 65.133871 500.547692 64.672930 500.747273 64.214846 500.946853 63.759660 501.146434 63.307412 501.346014 62.858144 501.545594 62.411894 501.745175 61.968704 501.944755 61.528614 502.144336 61.091664 502.343916 60.657895 502.543497 60.227347 502.743077 59.800061 502.942657 59.376076 503.142238 58.955434 503.341818 58.538175 503.541399 58.124339 503.740979 57.713967 503.940559 57.307098 504.140140 56.903774 504.339720 56.504034 504.539301 56.107920 504.738881 55.715471 504.938462 55.326728 505.138042 54.941732 505.337622 54.560522 505.537203 54.183139 505.736783 53.809624 505.936364 53.440017 506.135944 53.074358 506.335524 52.712688 506.535105 52.355047 506.734685 52.001476 506.934266 51.652014 507.133846 51.306703 507.333427 50.965583 507.533007 50.628693 507.732587 50.296076 507.932168 49.967770 508.131748 49.643816 508.331329 49.324255 508.530909 49.009128 508.730490 48.698474 508.930070 48.392334 509.129650 48.090748 509.329231 47.793756 509.528811 47.501400 509.728392 47.213720 509.927972 46.930755 510.127552 46.652537 510.327133 46.379056 510.526713 46.110294 510.726294 45.846230 510.925874 45.586847 511.125455 45.332125 511.325035 45.082045 511.524615 44.836589 511.724196 44.595736 511.923776 44.359469 512.123357 44.127767 512.322937 43.900613 512.522517 43.677987 512.722098 43.459869 512.921678 43.246242 513.121259 43.037085 513.320839 42.832381 513.520420 42.632109 513.720000 42.436251 513.919580 42.244788 514.119161 42.057701 514.318741 41.874971 514.518322 41.696578 514.717902 41.522505 514.917483 41.352730 515.117063 41.187237 515.316643 41.026005 515.516224 40.869016 515.715804 40.716250 515.915385 40.567689 516.114965 40.423314 516.314545 40.283105 516.514126 40.147044 516.713706 40.015111 516.913287 39.887288 517.112867 39.763555 517.312448 39.643893 517.512028 39.528284 517.711608 39.416708 517.911189 39.309146 518.110769 39.205580 518.310350 39.105990 518.509930 39.010358 518.709510 38.918663 518.909091 38.830888 519.108671 38.747013 519.308252 38.667019 519.507832 38.590887 519.707413 38.518599 519.906993 38.450134 520.106573 38.385475 520.306154 38.324601 520.505734 38.267495 520.705315 38.214136 520.904895 38.164507 521.104476 38.118587 521.304056 38.076358 521.503636 38.037801 521.703217 38.002897 521.902797 37.971627 522.102378 37.943972 522.301958 37.919912 522.501538 37.899429 522.701119 37.882504 522.900699 37.869118 523.100280 37.859251 523.299860 37.852885 523.499441 37.850001 523.699021 37.850579 523.898601 37.854600 524.098182 37.862047 524.297762 37.872898 524.497343 37.887137 524.696923 37.904742 524.896503 37.925697 525.096084 37.949980 525.295664 37.977574 525.495245 38.008460 525.694825 38.042617 525.894406 38.080029 526.093986 38.120674 526.293566 38.164534 526.493147 38.211591 526.692727 38.261825 526.892308 38.315218 527.091888 38.371749 527.291469 38.431401 527.491049 38.494154 527.690629 38.559988 527.890210 38.628886 528.089790 38.700828 528.289371 38.775795 528.488951 38.853768 528.688531 38.934728 528.888112 39.018656 529.087692 39.105533 529.287273 39.195339 529.486853 39.288057 529.686434 39.383666 529.886014 39.482148 530.085594 39.583484 530.285175 39.687655 530.484755 39.794641 530.684336 39.904425 530.883916 40.016985 531.083497 40.132305 531.283077 40.250364 531.482657 40.371144 531.682238 40.494625 531.881818 40.620789 532.081399 40.749617 532.280979 40.881089 532.480559 41.015186 532.680140 41.151890 532.879720 41.291182 533.079301 41.433041 533.278881 41.577451 533.478462 41.724390 533.678042 41.873841 533.877622 42.025784 534.077203 42.180201 534.276783 42.337071 534.476364 42.496377 534.675944 42.658100 534.875524 42.822219 535.075105 42.988716 535.274685 43.157573 535.474266 43.328770 535.673846 43.502288 535.873427 43.678108 536.073007 43.856211 536.272587 44.036577 536.472168 44.219189 536.671748 44.404027 536.871329 44.591072 537.070909 44.780305 537.270490 44.971706 537.470070 45.165258 537.669650 45.360940 537.869231 45.558734 538.068811 45.758621 538.268392 45.960582 538.467972 46.164597 538.667552 46.370648 538.867133 46.578716 539.066713 46.788781 539.266294 47.000825 539.465874 47.214829 539.665455 47.430773 539.865035 47.648639 540.064615 47.868407 540.264196 48.090059 540.463776 48.313575 540.663357 48.538937 540.862937 48.766125 541.062517 48.995121 541.262098 49.225904 541.461678 49.458458 541.661259 49.692761 541.860839 49.928796 542.060420 50.166543 542.260000 50.405984 542.459580 50.647098 542.659161 50.889868 542.858741 51.134274 543.058322 51.380297 543.257902 51.627919 543.457483 51.877119 543.657063 52.127879 543.856643 52.380181 544.056224 52.634004 544.255804 52.889331 544.455385 53.146141 544.654965 53.404417 544.854545 53.664138 545.054126 53.925286 545.253706 54.187843 545.453287 54.451787 545.652867 54.717102 545.852448 54.983768 546.052028 55.251765 546.251608 55.521075 546.451189 55.791679 546.650769 56.063558 546.850350 56.336692 547.049930 56.611063 547.249510 56.886651 547.449091 57.163438 547.648671 57.441405 547.848252 57.720532 548.047832 58.000800 548.247413 58.282191 548.446993 58.564686 548.646573 58.848265 548.846154 59.132910 549.045734 59.418600 549.245315 59.705319 549.444895 59.993045 549.644476 60.281761 549.844056 60.571447 550.043636 60.862085 550.243217 61.153654 550.442797 61.446137 550.642378 61.739514 550.841958 62.033766 551.041538 62.328875 551.241119 62.624820 551.440699 62.921584 551.640280 63.219146 551.839860 63.517489 552.039441 63.816593 552.239021 64.116438 552.438601 64.417007 552.638182 64.718279 552.837762 65.020237 553.037343 65.322860 553.236923 65.626130 553.436503 65.930028 553.636084 66.234535 553.835664 66.539632 554.035245 66.845299 554.234825 67.151518 554.434406 67.458270 554.633986 67.765536 554.833566 68.073296 555.033147 68.381532 555.232727 68.690224 555.432308 68.999354 555.631888 69.308902 555.831469 69.618850 556.031049 69.929179 556.230629 70.239869 556.430210 70.550902 556.629790 70.862258 556.829371 71.173918 557.028951 71.485864 557.228531 71.798076 557.428112 72.110535 557.627692 72.423223 557.827273 72.736120 558.026853 73.049207 558.226434 73.362465 558.426014 73.675876 558.625594 73.989420 558.825175 74.303078 559.024755 74.616831 559.224336 74.930660 559.423916 75.244546 559.623497 75.558471 559.823077 75.872414 559.823077 514.000000" /></g></g><g class="titles"><text class="title plot_title" x="400.0" y="26">Saphan-Taksin 53</text></g><g class="plot overlay" transform="translate(209, 46)"><g class="series serie-0 color-0"><g class="dots"><circle class="dot reactive tooltip-trigger" cx="10.976923076923075" cy="12.017746720522098" r="2.5" /><desc class="value">422643</desc><desc class="x ">10.976923076923075</desc><desc class="y ">12.017746720522098</desc><desc class="x_label">Jan</desc></g><g class="dots"><circle class="dot reactive tooltip-trigger" cx="60.872027972027965" cy="41.085701289089684" r="2.5" /><desc class="value">409524</desc><desc class="x ">60.872027972027965</desc><desc class="y ">41.085701289089684</desc><desc class="x_label">Feb</desc></g><g class="dots"><circle class="dot reactive tooltip-trigger" cx="110.76713286713284" cy="24.009191962163072" r="2.5" /><desc class="value">417231</desc><desc class="x ">110.76713286713284</desc><desc class="y ">24.009191962163072</desc><desc class="x_label">Mar</desc></g><g class="dots"><circle class="dot reactive tooltip-trigger" cx="160.66223776223774" cy="292.1527085361004" r="2.5" /><desc class="value">296212</desc><desc class="x top">160.66223776223774</desc><desc class="y top">292.1527085361004</desc><desc class="x_label">Apr</desc></g><g class="dots"><circle class="dot reactive tooltip-trigger" cx="210.55734265734264" cy="496.3352033453574" r="2.5" /><desc class="value">204060</desc><desc class="x top">210.55734265734264</desc><desc class="y top">496.3352033453574</desc><desc class="x_label">May</desc></g><g class="dots"><circle class="dot reactive tooltip-trigger" cx="260.45244755244755" cy="164.23731214933485" r="2.5" /><desc class="value">353943</desc><desc class="x ">260.45244755244755</desc><desc class="y ">164.23731214933485</desc><desc class="x_label">Jun</desc></g><g class="dots"><circle class="dot reactive tooltip-trigger" cx="310.3475524475524" cy="113.7367541398225" r="2.5" /><desc class="value">376735</desc><desc class="x left">310.3475524475524</desc><desc class="y left">113.7367541398225</desc><desc class="x_label">Jul</desc></g><g class="dots"><circle class="dot reactive tooltip-trigger" cx="360.2426573426573" cy="62.26792902561738" r="2.5" /><desc class="value">399964</desc><desc class="x left">360.2426573426573</desc><desc class="y left">62.26792902561738</desc><desc class="x_label">Aug</desc></g><g class="dots"><circle class="dot reactive tooltip-trigger" cx="410.1377622377622" cy="108.36143149454881" r="2.5" /><desc class="value">379161</desc><desc class="x left">410.1377622377622</desc><desc class="y left">108.36143149454881</desc><desc class="x_label">Sep</desc></g><g class="dots"><circle class="dot reactive tooltip-trigger" cx="460.0328671328671" cy="160.50826515345875" r="2.5" /><desc class="value">355626</desc><desc class="x left">460.0328671328671</desc><desc class="y left">160.50826515345875</desc><desc class="x_label">Oct</desc></g><g class="dots"><circle class="dot reactive tooltip-trigger" cx="509.9279720279719" cy="46.93075534442022" r="2.5" /><desc class="value">406886</desc><desc class="x left">509.9279720279719</desc><desc class="y left">46.93075534442022</desc><desc class="x_label">Nov</desc></g><g class="dots"><circle class="dot reactive tooltip-trigger" cx="559.8230769230769" cy="75.87241420368008" r="2.5" /><desc class="value">393824</desc><desc class="x left">559.8230769230769</desc><desc class="y left">75.87241420368008</desc><desc class="x_label">Dec</desc></g></g></g><g class="plot text-overlay" transform="translate(209, 46)"><g class="series serie-0 color-0" /></g><g class="plot tooltip-overlay" transform="translate(209, 46)"><g class="tooltip" style="opacity: 0" transform="translate(0 0)"><rect class="tooltip-box" height="0" rx="0" ry="0" width="0" /><g class="text" /></g></g><g class="legends" transform="translate(10, 56)"><g class="legend reactive activate-serie" id="activate-serie-0"><rect class="color-0 reactive" height="12" width="12" x="0.0" y="1.0" /><text x="17.0" y="11.2">Saphan-Taksin</text></g></g><g class="legends" transform="translate(790, 56)" /></g></svg>