<?xml version='1.0' encoding='utf-8'?>
<svg xmlns:xlink="http://www.w3.org/1999/xlink" class="pygal-chart" id="chart-0f03c335-a9af-4372-afb9-d5ab34c5d277" viewBox="0 0 800 600" xmlns="http://www.w3.org/2000/svg"><!--Generated with pygal 2.0.11 (etree) ©Kozea 2011-2015 on 2015-12-10--><!--http://pygal.org--><!--http://github.com/Kozea/pygal--><defs><style type="text/css">#chart-0f03c335-a9af-4372-afb9-d5ab34c5d277{-webkit-user-select:none;-webkit-font-smoothing:antialiased;font-family:Consolas,"Liberation Mono",Menlo,Courier,monospace}#chart-0f03c335-a9af-4372-afb9-d5ab34c5d277 .title{font-family:Consolas,"Liberation Mono",Menlo,Courier,monospace;font-size:16px}#chart-0f03c335-a9af-4372-afb9-d5ab34c5d277 .legends .legend text{font-family:Consolas,"Liberation Mono",Menlo,Courier,monospace;font-size:14px}#chart-0f03c335-a9af-4372-afb9-d5ab34c5d277 .axis text{font-family:Consolas,"Liberation Mono",Menlo,Courier,monospace;font-size:10px}#chart-0f03c335-a9af-4372-afb9-d5ab34c5d277 .axis text.major{font-family:Consolas,"Liberation Mono",Menlo,Courier,monospace;font-size:10px}#chart-0f03c335-a9af-4372-afb9-d5ab34c5d277 .text-overlay text.value{font-family:Consolas,"Liberation Mono",Menlo,Courier,monospace;font-size:16px}#chart-0f03c335-a9af-4372-afb9-d5ab34c5d277 .text-overlay text.label{font-family:Consolas,"Liberation Mono",Menlo,Courier,monospace;font-size:10px}#chart-0f03c335-a9af-4372-afb9-d5ab34c5d277 .tooltip{font-family:Consolas,"Liberation Mono",Menlo,Courier,monospace;font-size:14px}#chart-0f03c335-a9af-4372-afb9-d5ab34c5d277 text.no_data{font-family:Consolas,"Liberation Mono",Menlo,Courier,monospace;font-size:64px}
#chart-0f03c335-a9af-4372-afb9-d5ab34c5d277{background-color:black}#chart-0f03c335-a9af-4372-afb9-d5ab34c5d277 path,#chart-0f03c335-a9af-4372-afb9-d5ab34c5d277 line,#chart-0f03c335-a9af-4372-afb9-d5ab34c5d277 rect,#chart-0f03c335-a9af-4372-afb9-d5ab34c5d277 circle{-webkit-transition:250ms;-moz-transition:250ms;transition:250ms}#chart-0f03c335-a9af-4372-afb9-d5ab34c5d277 .graph &gt; .background{fill:black}#chart-0f03c335-a9af-4372-afb9-d5ab34c5d277 .plot &gt; .background{fill:#111}#chart-0f03c335-a9af-4372-afb9-d5ab34c5d277 .graph{fill:#999}#chart-0f03c335-a9af-4372-afb9-d5ab34c5d277 text.no_data{fill:#eee}#chart-0f03c335-a9af-4372-afb9-d5ab34c5d277 .title{fill:#eee}#chart-0f03c335-a9af-4372-afb9-d5ab34c5d277 .legends .legend text{fill:#999}#chart-0f03c335-a9af-4372-afb9-d5ab34c5d277 .legends .legend:hover text{fill:#eee}#chart-0f03c335-a9af-4372-afb9-d5ab34c5d277 .axis .line{stroke:#eee}#chart-0f03c335-a9af-4372-afb9-d5ab34c5d277 .axis .guide.line{stroke:#555}#chart-0f03c335-a9af-4372-afb9-d5ab34c5d277 .axis .major.line{stroke:#999}#chart-0f03c335-a9af-4372-afb9-d5ab34c5d277 .axis text.major{fill:#eee}#chart-0f03c335-a9af-4372-afb9-d5ab34c5d277 .axis.y .guides:hover .guide.line,#chart-0f03c335-a9af-4372-afb9-d5ab34c5d277 .line-graph .axis.x .guides:hover .guide.line,#chart-0f03c335-a9af-4372-afb9-d5ab34c5d277 .stackedline-graph .axis.x .guides:hover .guide.line,#chart-0f03c335-a9af-4372-afb9-d5ab34c5d277 .xy-graph .axis.x .guides:hover .guide.line{stroke:#eee}#chart-0f03c335-a9af-4372-afb9-d5ab34c5d277 .axis .guides:hover text{fill:#eee}#chart-0f03c335-a9af-4372-afb9-d5ab34c5d277 .reactive{fill-opacity:.8}#chart-0f03c335-a9af-4372-afb9-d5ab34c5d277 .reactive.active,#chart-0f03c335-a9af-4372-afb9-d5ab34c5d277 .active .reactive{fill-opacity:.4;stroke-width:4}#chart-0f03c335-a9af-4372-afb9-d5ab34c5d277 .series text{fill:#eee}#chart-0f03c335-a9af-4372-afb9-d5ab34c5d277 .tooltip rect{fill:#111;stroke:#eee;-webkit-transition:opacity 250ms;-moz-transition:opacity 250ms;transition:opacity 250ms}#chart-0f03c335-a9af-4372-afb9-d5ab34c5d277 .tooltip .label{fill:#999}#chart-0f03c335-a9af-4372-afb9-d5ab34c5d277 .tooltip .label{fill:#999}#chart-0f03c335-a9af-4372-afb9-d5ab34c5d277 .tooltip .legend{font-size:.8em;fill:#555}#chart-0f03c335-a9af-4372-afb9-d5ab34c5d277 .tooltip .x_label{font-size:.6em;fill:#eee}#chart-0f03c335-a9af-4372-afb9-d5ab34c5d277 .tooltip .xlink{font-size:.5em;text-decoration:underline}#chart-0f03c335-a9af-4372-afb9-d5ab34c5d277 .tooltip .value{font-size:1.5em}#chart-0f03c335-a9af-4372-afb9-d5ab34c5d277 .map-element{fill:#111;stroke:#555 !important}#chart-0f03c335-a9af-4372-afb9-d5ab34c5d277 .map-element .reactive{fill-opacity:inherit}#chart-0f03c335-a9af-4372-afb9-d5ab34c5d277 .color-0,#chart-0f03c335-a9af-4372-afb9-d5ab34c5d277 .color-0 a:visited{stroke:#ff5995;fill:#ff5995}#chart-0f03c335-a9af-4372-afb9-d5ab34c5d277 .text-overlay .color-0 text{fill:black}
#chart-0f03c335-a9af-4372-afb9-d5ab34c5d277 text.no_data{text-anchor:middle}#chart-0f03c335-a9af-4372-afb9-d5ab34c5d277 .guide.line{fill:none}#chart-0f03c335-a9af-4372-afb9-d5ab34c5d277 .centered{text-anchor:middle}#chart-0f03c335-a9af-4372-afb9-d5ab34c5d277 .title{text-anchor:middle}#chart-0f03c335-a9af-4372-afb9-d5ab34c5d277 .legends .legend text{fill-opacity:1}#chart-0f03c335-a9af-4372-afb9-d5ab34c5d277 .axis.x text{text-anchor:middle}#chart-0f03c335-a9af-4372-afb9-d5ab34c5d277 .axis.x:not(.web) text[transform]{text-anchor:start}#chart-0f03c335-a9af-4372-afb9-d5ab34c5d277 .axis.x:not(.web) text[transform].backwards{text-anchor:end}#chart-0f03c335-a9af-4372-afb9-d5ab34c5d277 .axis.y text{text-anchor:end}#chart-0f03c335-a9af-4372-afb9-d5ab34c5d277 .axis.y text[transform].backwards{text-anchor:start}#chart-0f03c335-a9af-4372-afb9-d5ab34c5d277 .axis.y2 text{text-anchor:start}#chart-0f03c335-a9af-4372-afb9-d5ab34c5d277 .axis.y2 text[transform].backwards{text-anchor:end}#chart-0f03c335-a9af-4372-afb9-d5ab34c5d277 .axis .guide.line{stroke-dasharray:4,4}#chart-0f03c335-a9af-4372-afb9-d5ab34c5d277 .axis .major.guide.line{stroke-dasharray:6,6}#chart-0f03c335-a9af-4372-afb9-d5ab34c5d277 .horizontal .axis.y .guide.line,#chart-0f03c335-a9af-4372-afb9-d5ab34c5d277 .horizontal .axis.y2 .guide.line,#chart-0f03c335-a9af-4372-afb9-d5ab34c5d277 .vertical .axis.x .guide.line{opacity:0}#chart-0f03c335-a9af-4372-afb9-d5ab34c5d277 .horizontal .axis.always_show .guide.line,#chart-0f03c335-a9af-4372-afb9-d5ab34c5d277 .vertical .axis.always_show .guide.line{opacity:1 !important}#chart-0f03c335-a9af-4372-afb9-d5ab34c5d277 .axis.y .guides:hover .guide.line,#chart-0f03c335-a9af-4372-afb9-d5ab34c5d277 .axis.y2 .guides:hover .guide.line,#chart-0f03c335-a9af-4372-afb9-d5ab34c5d277 .axis.x .guides:hover .guide.line{opacity:1}#chart-0f03c335-a9af-4372-afb9-d5ab34c5d277 .axis .guides:hover text{opacity:1}#chart-0f03c335-a9af-4372-afb9-d5ab34c5d277 .nofill{fill:none}#chart-0f03c335-a9af-4372-afb9-d5ab34c5d277 .subtle-fill{fill-opacity:.2}#chart-0f03c335-a9af-4372-afb9-d5ab34c5d277 .dot{stroke-width:1px;fill-opacity:1}#chart-0f03c335-a9af-4372-afb9-d5ab34c5d277 .dot.active{stroke-width:5px}#chart-0f03c335-a9af-4372-afb9-d5ab34c5d277 .dot.negative{fill:transparent}#chart-0f03c335-a9af-4372-afb9-d5ab34c5d277 text,#chart-0f03c335-a9af-4372-afb9-d5ab34c5d277 tspan{stroke:none !important}#chart-0f03c335-a9af-4372-afb9-d5ab34c5d277 .series text.active{opacity:1}#chart-0f03c335-a9af-4372-afb9-d5ab34c5d277 .tooltip rect{fill-opacity:.95;stroke-width:.5}#chart-0f03c335-a9af-4372-afb9-d5ab34c5d277 .tooltip text{fill-opacity:1}#chart-0f03c335-a9af-4372-afb9-d5ab34c5d277 .showable{visibility:hidden}#chart-0f03c335-a9af-4372-afb9-d5ab34c5d277 .showable.shown{visibility:visible}</style><script type="text/javascript">window.pygal = window.pygal || {};window.pygal.config = window.pygal.config || {};window.pygal.config['0f03c335-a9af-4372-afb9-d5ab34c5d277'] = {"x_value_formatter": null, "js": ["//kozea.github.io/pygal.js/2.0.x/pygal-tooltips.min.js"], "y_labels_major_every": null, "spacing": 10, "show_legend": true, "disable_xml_declaration": false, "explicit_size": false, "show_y_guides": true, "xrange": null, "y_labels_major": null, "margin_left": null, "show_y_labels": true, "width": 800, "margin": 20, "show_minor_x_labels": true, "print_labels": false, "legend_box_size": 12, "min_scale": 4, "order_min": null, "x_labels_major": null, "no_prefix": false, "show_x_guides": false, "logarithmic": false, "y_labels": null, "title": "Silom-Line summary_51", "margin_top": null, "max_scale": 16, "interpolation_precision": 250, "x_title": null, "box_mode": "extremes", "value_formatter": null, "include_x_axis": false, "x_labels_major_every": null, "dynamic_print_values": false, "margin_right": null, "show_minor_y_labels": true, "print_values": false, "dots_size": 2.5, "legend_at_bottom": false, "tooltip_border_radius": 0, "y_title": null, "pretty_print": false, "stroke": true, "margin_bottom": null, "strict": false, "legends": ["Silom-Line"], "force_uri_protocol": null, "show_x_labels": true, "half_pie": false, "interpolation_parameters": {}, "interpolate": "cubic", "print_zeroes": true, "human_readable": false, "css": ["file://style.css", "file://graph.css"], "legend_at_bottom_columns": null, "truncate_legend": null, "zero": 0, "style": {"guide_stroke_dasharray": "4,4", "background": "black", "foreground": "#999", "legend_font_family": "Consolas, \"Liberation Mono\", Menlo, Courier, monospace", "no_data_font_size": 64, "value_font_family": "Consolas, \"Liberation Mono\", Menlo, Courier, monospace", "label_font_size": 10, "value_colors": [], "value_label_font_family": "Consolas, \"Liberation Mono\", Menlo, Courier, monospace", "colors": ["#ff5995", "#b6e354", "#feed6c", "#8cedff", "#9e6ffe", "#899ca1", "#f8f8f2", "#bf4646", "#516083", "#f92672", "#82b414", "#fd971f", "#56c2d6", "#808384", "#8c54fe", "#465457"], "opacity_hover": ".4", "label_font_family": "Consolas, \"Liberation Mono\", Menlo, Courier, monospace", "transition": "250ms", "plot_background": "#111", "title_font_family": "Consolas, \"Liberation Mono\", Menlo, Courier, monospace", "tooltip_font_size": 14, "major_label_font_family": "Consolas, \"Liberation Mono\", Menlo, Courier, monospace", "value_label_font_size": 10, "font_family": "Consolas, \"Liberation Mono\", Menlo, Courier, monospace", "value_font_size": 16, "major_guide_stroke_dasharray": "6,6", "legend_font_size": 14, "opacity": ".8", "no_data_font_family": "Consolas, \"Liberation Mono\", Menlo, Courier, monospace", "tooltip_font_family": "Consolas, \"Liberation Mono\", Menlo, Courier, monospace", "foreground_subtle": "#555", "major_label_font_size": 10, "title_font_size": 16, "foreground_strong": "#eee"}, "x_labels": ["Jan", "Feb", "Mar", "Apr", "May", "Jun", "Jul", "Aug", "Sep", "Oct", "Nov", "Dec"], "y_label_rotation": 0, "x_labels_major_count": null, "show_only_major_dots": false, "no_data_text": "No data", "height": 600, "inverse_y_axis": false, "truncate_label": null, "missing_value_fill_truncation": "x", "fill": true, "tooltip_fancy_mode": true, "secondary_range": null, "stack_from_top": false, "x_label_rotation": 0, "inner_radius": 0, "defs": [], "show_dots": true, "range": null, "rounded_bars": null, "y_labels_major_count": null, "stroke_style": null}</script><script type="text/javascript" xlink:href="//kozea.github.io/pygal.js/2.0.x/pygal-tooltips.min.js" /></defs><title>Silom-Line summary_51</title><g class="graph line-graph vertical"><rect class="background" height="600" width="800" x="0" y="0" /><g class="plot" transform="translate(190, 46)"><rect class="background" height="514" width="590.0" x="0" y="0" /><g class="axis y"><path class="line" d="M0.000000 514.000000 h590.000000" /><g class="guides"><path class="guide line" d="M0.000000 477.339683 h590.000000" /><text class="" x="-5" y="480.8396830544821">2400000.0</text><title>2400000.0</title></g><g class="guides"><path class="guide line" d="M0.000000 424.936985 h590.000000" /><text class="" x="-5" y="428.4369847995388">2440000.0</text><title>2440000.0</title></g><g class="guides"><path class="guide line" d="M0.000000 372.534287 h590.000000" /><text class="" x="-5" y="376.0342865445954">2480000.0</text><title>2480000.0</title></g><g class="guides"><path class="guide line" d="M0.000000 320.131588 h590.000000" /><text class="" x="-5" y="323.63158828965203">2520000.0</text><title>2520000.0</title></g><g class="guides"><path class="guide line" d="M0.000000 267.728890 h590.000000" /><text class="" x="-5" y="271.2288900347087">2560000.0</text><title>2560000.0</title></g><g class="guides"><path class="guide line" d="M0.000000 215.326192 h590.000000" /><text class="" x="-5" y="218.82619177976528">2600000.0</text><title>2600000.0</title></g><g class="guides"><path class="guide line" d="M0.000000 162.923494 h590.000000" /><text class="" x="-5" y="166.42349352482194">2640000.0</text><title>2640000.0</title></g><g class="guides"><path class="guide line" d="M0.000000 110.520795 h590.000000" /><text class="" x="-5" y="114.02079526987859">2680000.0</text><title>2680000.0</title></g><g class="guides"><path class="guide line" d="M0.000000 58.118097 h590.000000" /><text class="" x="-5" y="61.61809701493519">2720000.0</text><title>2720000.0</title></g></g><g class="axis x"><g class="guides"><path class="line" d="M11.346154 0.000000 v514.000000" /><text class="" x="11.346153846153847" y="529.0">Jan</text></g><g class="guides"><path class="guide line" d="M62.919580 0.000000 v514.000000" /><text class="" x="62.91958041958042" y="529.0">Feb</text></g><g class="guides"><path class="guide line" d="M114.493007 0.000000 v514.000000" /><text class="" x="114.49300699300699" y="529.0">Mar</text></g><g class="guides"><path class="guide line" d="M166.066434 0.000000 v514.000000" /><text class="" x="166.06643356643357" y="529.0">Apr</text></g><g class="guides"><path class="guide line" d="M217.639860 0.000000 v514.000000" /><text class="" x="217.63986013986016" y="529.0">May</text></g><g class="guides"><path class="guide line" d="M269.213287 0.000000 v514.000000" /><text class="" x="269.2132867132867" y="529.0">Jun</text></g><g class="guides"><path class="guide line" d="M320.786713 0.000000 v514.000000" /><text class="" x="320.7867132867133" y="529.0">Jul</text></g><g class="guides"><path class="guide line" d="M372.360140 0.000000 v514.000000" /><text class="" x="372.36013986013984" y="529.0">Aug</text></g><g class="guides"><path class="guide line" d="M423.933566 0.000000 v514.000000" /><text class="" x="423.93356643356645" y="529.0">Sep</text></g><g class="guides"><path class="guide line" d="M475.506993 0.000000 v514.000000" /><text class="" x="475.506993006993" y="529.0">Oct</text></g><g class="guides"><path class="guide line" d="M527.080420 0.000000 v514.000000" /><text class="" x="527.0804195804195" y="529.0">Nov</text></g><g class="guides"><path class="guide line" d="M578.653846 0.000000 v514.000000" /><text class="" x="578.6538461538461" y="529.0">Dec</text></g></g><g class="series serie-0 color-0"><path class="line reactive" d="M11.346154 514.000000 L11.346154 79.079176 11.552448 79.431690 11.758741 79.784185 11.965035 80.136639 12.171329 80.489035 12.377622 80.841351 12.583916 81.193569 12.790210 81.545668 12.996503 81.897629 13.202797 82.249431 13.409091 82.601056 13.615385 82.952484 13.821678 83.303694 14.027972 83.654667 14.234266 84.005383 14.440559 84.355823 14.646853 84.705966 14.853147 85.055793 15.059441 85.405285 15.265734 85.754420 15.472028 86.103181 15.678322 86.451546 15.884615 86.799496 16.090909 87.147012 16.297203 87.494074 16.503497 87.840661 16.709790 88.186754 16.916084 88.532334 17.122378 88.877380 17.328671 89.221873 17.534965 89.565793 17.741259 89.909121 17.947552 90.251836 18.153846 90.593919 18.360140 90.935350 18.566434 91.276109 18.772727 91.616177 18.979021 91.955534 19.185315 92.294159 19.391608 92.632034 19.597902 92.969139 19.804196 93.305453 20.010490 93.640957 20.216783 93.975632 20.423077 94.309457 20.629371 94.642412 20.835664 94.974479 21.041958 95.305637 21.248252 95.635866 21.454545 95.965147 21.660839 96.293461 21.867133 96.620786 22.073427 96.947104 22.279720 97.272394 22.486014 97.596638 22.692308 97.919814 22.898601 98.241904 23.104895 98.562888 23.311189 98.882746 23.517483 99.201457 23.723776 99.519003 23.930070 99.835364 24.136364 100.150520 24.342657 100.464451 24.548951 100.777137 24.755245 101.088559 24.961538 101.398697 25.167832 101.707531 25.374126 102.015041 25.580420 102.321208 25.786713 102.626012 25.993007 102.929432 26.199301 103.231450 26.405594 103.532046 26.611888 103.831200 26.818182 104.128891 27.024476 104.425101 27.230769 104.719810 27.437063 105.012997 27.643357 105.304643 27.849650 105.594729 28.055944 105.883234 28.262238 106.170139 28.468531 106.455424 28.674825 106.739069 28.881119 107.021055 29.087413 107.301361 29.293706 107.579969 29.500000 107.856858 29.706294 108.132008 29.912587 108.405400 30.118881 108.677014 30.325175 108.946830 30.531469 109.214828 30.737762 109.480990 30.944056 109.745294 31.150350 110.007721 31.356643 110.268252 31.562937 110.526867 31.769231 110.783546 31.975524 111.038268 32.181818 111.291015 32.388112 111.541767 32.594406 111.790504 32.800699 112.037206 33.006993 112.281853 33.213287 112.524426 33.419580 112.764905 33.625874 113.003269 33.832168 113.239501 34.038462 113.473579 34.244755 113.705483 34.451049 113.935195 34.657343 114.162694 34.863636 114.387961 35.069930 114.610976 35.276224 114.831719 35.482517 115.050170 35.688811 115.266309 35.895105 115.480118 36.101399 115.691575 36.307692 115.900662 36.513986 116.107358 36.720280 116.311644 36.926573 116.513500 37.132867 116.712907 37.339161 116.909844 37.545455 117.104292 37.751748 117.296230 37.958042 117.485640 38.164336 117.672502 38.370629 117.856795 38.576923 118.038500 38.783217 118.217598 38.989510 118.394068 39.195804 118.567890 39.402098 118.739046 39.608392 118.907515 39.814685 119.073277 40.020979 119.236313 40.227273 119.396603 40.433566 119.554127 40.639860 119.708866 40.846154 119.860799 41.052448 120.009907 41.258741 120.156170 41.465035 120.299569 41.671329 120.440083 41.877622 120.577693 42.083916 120.712380 42.290210 120.844123 42.496503 120.972902 42.702797 121.098698 42.909091 121.221492 43.115385 121.341262 43.321678 121.457991 43.527972 121.571657 43.734266 121.682241 43.940559 121.789724 44.146853 121.894085 44.353147 121.995305 44.559441 122.093364 44.765734 122.188243 44.972028 122.279921 45.178322 122.368378 45.384615 122.453596 45.590909 122.535554 45.797203 122.614233 46.003497 122.689613 46.209790 122.761673 46.416084 122.830395 46.622378 122.895758 46.828671 122.957743 47.034965 123.016330 47.241259 123.071499 47.447552 123.123231 47.653846 123.171505 47.860140 123.216303 48.066434 123.257603 48.272727 123.295388 48.479021 123.329635 48.685315 123.360327 48.891608 123.387443 49.097902 123.410964 49.304196 123.430869 49.510490 123.447139 49.716783 123.459754 49.923077 123.468695 50.129371 123.473941 50.335664 123.475473 50.541958 123.473271 50.748252 123.467316 50.954545 123.457588 51.160839 123.444066 51.367133 123.426731 51.573427 123.405564 51.779720 123.380544 51.986014 123.351653 52.192308 123.318869 52.398601 123.282174 52.604895 123.241547 52.811189 123.196969 53.017483 123.148420 53.223776 123.095881 53.430070 123.039331 53.636364 122.978751 53.842657 122.914121 54.048951 122.845421 54.255245 122.772632 54.461538 122.695734 54.667832 122.614706 54.874126 122.529530 55.080420 122.440186 55.286713 122.346653 55.493007 122.248912 55.699301 122.146944 55.905594 122.040728 56.111888 121.930245 56.318182 121.815474 56.524476 121.696397 56.730769 121.572994 56.937063 121.445244 57.143357 121.313128 57.349650 121.176626 57.555944 121.035719 57.762238 120.890387 57.968531 120.740609 58.174825 120.586367 58.381119 120.427640 58.587413 120.264409 58.793706 120.096653 59.000000 119.924354 59.206294 119.747491 59.412587 119.566045 59.618881 119.379996 59.825175 119.189324 60.031469 118.994009 60.237762 118.794032 60.444056 118.589373 60.650350 118.380012 60.856643 118.165929 61.062937 117.947105 61.269231 117.723519 61.475524 117.495153 61.681818 117.261986 61.888112 117.023999 62.094406 116.781172 62.300699 116.533484 62.506993 116.280917 62.713287 116.023451 62.919580 115.761065 63.125874 115.493757 63.332168 115.221589 63.538462 114.944640 63.744755 114.662990 63.951049 114.376718 64.157343 114.085902 64.363636 113.790623 64.569930 113.490958 64.776224 113.186988 64.982517 112.878792 65.188811 112.566448 65.395105 112.250036 65.601399 111.929635 65.807692 111.605324 66.013986 111.277182 66.220280 110.945288 66.426573 110.609723 66.632867 110.270564 66.839161 109.927891 67.045455 109.581783 67.251748 109.232319 67.458042 108.879579 67.664336 108.523641 67.870629 108.164585 68.076923 107.802490 68.283217 107.437434 68.489510 107.069499 68.695804 106.698761 68.902098 106.325301 69.108392 105.949197 69.314685 105.570530 69.520979 105.189377 69.727273 104.805819 69.933566 104.419934 70.139860 104.031801 70.346154 103.641500 70.552448 103.249110 70.758741 102.854709 70.965035 102.458378 71.171329 102.060195 71.377622 101.660240 71.583916 101.258591 71.790210 100.855328 71.996503 100.450529 72.202797 100.044275 72.409091 99.636644 72.615385 99.227715 72.821678 98.817568 73.027972 98.406282 73.234266 97.993936 73.440559 97.580608 73.646853 97.166379 73.853147 96.751327 74.059441 96.335531 74.265734 95.919072 74.472028 95.502027 74.678322 95.084476 74.884615 94.666498 75.090909 94.248172 75.297203 93.829578 75.503497 93.410795 75.709790 92.991901 75.916084 92.572976 76.122378 92.154099 76.328671 91.735350 76.534965 91.316807 76.741259 90.898550 76.947552 90.480657 77.153846 90.063208 77.360140 89.646282 77.566434 89.229959 77.772727 88.814317 77.979021 88.399435 78.185315 87.985393 78.391608 87.572270 78.597902 87.160145 78.804196 86.749097 79.010490 86.339205 79.216783 85.930549 79.423077 85.523208 79.629371 85.117260 79.835664 84.712785 80.041958 84.309863 80.248252 83.908571 80.454545 83.508991 80.660839 83.111199 80.867133 82.715277 81.073427 82.321302 81.279720 81.929355 81.486014 81.539514 81.692308 81.151858 81.898601 80.766466 82.104895 80.383419 82.311189 80.002794 82.517483 79.624672 82.723776 79.249130 82.930070 78.876249 83.136364 78.506108 83.342657 78.138785 83.548951 77.774360 83.755245 77.412912 83.961538 77.054520 84.167832 76.699263 84.374126 76.347221 84.580420 75.998473 84.786713 75.653097 84.993007 75.311173 85.199301 74.972781 85.405594 74.637998 85.611888 74.306905 85.818182 73.979581 86.024476 73.656105 86.230769 73.336555 86.437063 73.021011 86.643357 72.709553 86.849650 72.402259 87.055944 72.099209 87.262238 71.800481 87.468531 71.506155 87.674825 71.216310 87.881119 70.931026 88.087413 70.650380 88.293706 70.374454 88.500000 70.103324 88.706294 69.837072 88.912587 69.575776 89.118881 69.319515 89.325175 69.068368 89.531469 68.822414 89.737762 68.581734 89.944056 68.346405 90.150350 68.116507 90.356643 67.892119 90.562937 67.673320 90.769231 67.460190 90.975524 67.252807 91.181818 67.051251 91.388112 66.855601 91.594406 66.665936 91.800699 66.482335 92.006993 66.304878 92.213287 66.133643 92.419580 65.968710 92.625874 65.810157 92.832168 65.658065 93.038462 65.512512 93.244755 65.373577 93.451049 65.241340 93.657343 65.115879 93.863636 64.997274 94.069930 64.885605 94.276224 64.780949 94.482517 64.683386 94.688811 64.592996 94.895105 64.509858 95.101399 64.434050 95.307692 64.365653 95.513986 64.304744 95.720280 64.251404 95.926573 64.205711 96.132867 64.167744 96.339161 64.137584 96.545455 64.115308 96.751748 64.100996 96.958042 64.094728 97.164336 64.096581 97.370629 64.106637 97.576923 64.124973 97.783217 64.151669 97.989510 64.186804 98.195804 64.230457 98.402098 64.282707 98.608392 64.343634 98.814685 64.413316 99.020979 64.491833 99.227273 64.579265 99.433566 64.675689 99.639860 64.781186 99.846154 64.895834 100.052448 65.019712 100.258741 65.152901 100.465035 65.295478 100.671329 65.447524 100.877622 65.609116 101.083916 65.780335 101.290210 65.961260 101.496503 66.151969 101.702797 66.352542 101.909091 66.563059 102.115385 66.783597 102.321678 67.014237 102.527972 67.255057 102.734266 67.506137 102.940559 67.767556 103.146853 68.039392 103.353147 68.321726 103.559441 68.614637 103.765734 68.918202 103.972028 69.232502 104.178322 69.557617 104.384615 69.893624 104.590909 70.240603 104.797203 70.598633 105.003497 70.967794 105.209790 71.348164 105.416084 71.739824 105.622378 72.142851 105.828671 72.557325 106.034965 72.983325 106.241259 73.420931 106.447552 73.870221 106.653846 74.331275 106.860140 74.804172 107.066434 75.288991 107.272727 75.785811 107.479021 76.294711 107.685315 76.815771 107.891608 77.349069 108.097902 77.894686 108.304196 78.452699 108.510490 79.023188 108.716783 79.606233 108.923077 80.201912 109.129371 80.810305 109.335664 81.431491 109.541958 82.065548 109.748252 82.712557 109.954545 83.372596 110.160839 84.045744 110.367133 84.732081 110.573427 85.431685 110.779720 86.144637 110.986014 86.871014 111.192308 87.610897 111.398601 88.364364 111.604895 89.131495 111.811189 89.912368 112.017483 90.707063 112.223776 91.515659 112.430070 92.338236 112.636364 93.174871 112.842657 94.025645 113.048951 94.890637 113.255245 95.769926 113.461538 96.663590 113.667832 97.571710 113.874126 98.494364 114.080420 99.431631 114.286713 100.383591 114.493007 101.350323 114.699301 102.331872 114.905594 103.328147 115.111888 104.339023 115.318182 105.364375 115.524476 106.404079 115.730769 107.458010 115.937063 108.526042 116.143357 109.608052 116.349650 110.703914 116.555944 111.813504 116.762238 112.936696 116.968531 114.073365 117.174825 115.223388 117.381119 116.386639 117.587413 117.562993 117.793706 118.752325 118.000000 119.954511 118.206294 121.169426 118.412587 122.396945 118.618881 123.636943 118.825175 124.889295 119.031469 126.153876 119.237762 127.430562 119.444056 128.719228 119.650350 130.019749 119.856643 131.331999 120.062937 132.655855 120.269231 133.991192 120.475524 135.337884 120.681818 136.695807 120.888112 138.064835 121.094406 139.444845 121.300699 140.835711 121.506993 142.237308 121.713287 143.649512 121.919580 145.072198 122.125874 146.505241 122.332168 147.948515 122.538462 149.401897 122.744755 150.865262 122.951049 152.338483 123.157343 153.821438 123.363636 155.314001 123.569930 156.816046 123.776224 158.327450 123.982517 159.848087 124.188811 161.377833 124.395105 162.916563 124.601399 164.464151 124.807692 166.020474 125.013986 167.585406 125.220280 169.158822 125.426573 170.740598 125.632867 172.330608 125.839161 173.928729 126.045455 175.534834 126.251748 177.148800 126.458042 178.770501 126.664336 180.399813 126.870629 182.036610 127.076923 183.680769 127.283217 185.332163 127.489510 186.990669 127.695804 188.656161 127.902098 190.328515 128.108392 192.007605 128.314685 193.693307 128.520979 195.385497 128.727273 197.084048 128.933566 198.788837 129.139860 200.499739 129.346154 202.216628 129.552448 203.939380 129.758741 205.667870 129.965035 207.401974 130.171329 209.141566 130.377622 210.886521 130.583916 212.636715 130.790210 214.392023 130.996503 216.152321 131.202797 217.917482 131.409091 219.687383 131.615385 221.461898 131.821678 223.240903 132.027972 225.024273 132.234266 226.811883 132.440559 228.603608 132.646853 230.399324 132.853147 232.198905 133.059441 234.002227 133.265734 235.809165 133.472028 237.619594 133.678322 239.433389 133.884615 241.250425 134.090909 243.070578 134.297203 244.893723 134.503497 246.719735 134.709790 248.548488 134.916084 250.379859 135.122378 252.213723 135.328671 254.049954 135.534965 255.888427 135.741259 257.729019 135.947552 259.571603 136.153846 261.416056 136.360140 263.262252 136.566434 265.110067 136.772727 266.959376 136.979021 268.810053 137.185315 270.661974 137.391608 272.515015 137.597902 274.369050 137.804196 276.223954 138.010490 278.079604 138.216783 279.935873 138.423077 281.792637 138.629371 283.649772 138.835664 285.507151 139.041958 287.364652 139.248252 289.222148 139.454545 291.079515 139.660839 292.936628 139.867133 294.793362 140.073427 296.649593 140.279720 298.505195 140.486014 300.360044 140.692308 302.214015 140.898601 304.066983 141.104895 305.918823 141.311189 307.769410 141.517483 309.618620 141.723776 311.466328 141.930070 313.312408 142.136364 315.156737 142.342657 316.999189 142.548951 318.839639 142.755245 320.677963 142.961538 322.514035 143.167832 324.347732 143.374126 326.178927 143.580420 328.007497 143.786713 329.833316 143.993007 331.656259 144.199301 333.476203 144.405594 335.293021 144.611888 337.106589 144.818182 338.916782 145.024476 340.723476 145.230769 342.526546 145.437063 344.325866 145.643357 346.121312 145.849650 347.912758 146.055944 349.700082 146.262238 351.483156 146.468531 353.261857 146.674825 355.036060 146.881119 356.805640 147.087413 358.570471 147.293706 360.330430 147.500000 362.085392 147.706294 363.835230 147.912587 365.579822 148.118881 367.319041 148.325175 369.052764 148.531469 370.780864 148.737762 372.503218 148.944056 374.219701 149.150350 375.930187 149.356643 377.634552 149.562937 379.332672 149.769231 381.024420 149.975524 382.709673 150.181818 384.388305 150.388112 386.060192 150.594406 387.725209 150.800699 389.383231 151.006993 391.034133 151.213287 392.677790 151.419580 394.314078 151.625874 395.942872 151.832168 397.564047 152.038462 399.177477 152.244755 400.783039 152.451049 402.380607 152.657343 403.970057 152.863636 405.551263 153.069930 407.124101 153.276224 408.688447 153.482517 410.244174 153.688811 411.791159 153.895105 413.329276 154.101399 414.858402 154.307692 416.378410 154.513986 417.889175 154.720280 419.390575 154.926573 420.882482 155.132867 422.364773 155.339161 423.837323 155.545455 425.300007 155.751748 426.752699 155.958042 428.195276 156.164336 429.627612 156.370629 431.049583 156.576923 432.461064 156.783217 433.861929 156.989510 435.252054 157.195804 436.631315 157.402098 437.999586 157.608392 439.356742 157.814685 440.702659 158.020979 442.037212 158.227273 443.360276 158.433566 444.671726 158.639860 445.971438 158.846154 447.259286 159.052448 448.535145 159.258741 449.798892 159.465035 451.050401 159.671329 452.289546 159.877622 453.516205 160.083916 454.730250 160.290210 455.931559 160.496503 457.120005 160.702797 458.295464 160.909091 459.457812 161.115385 460.606922 161.321678 461.742672 161.527972 462.864935 161.734266 463.973587 161.940559 465.068502 162.146853 466.149558 162.353147 467.216627 162.559441 468.269586 162.765734 469.308310 162.972028 470.332673 163.178322 471.342551 163.384615 472.337820 163.590909 473.318354 163.797203 474.284029 164.003497 475.234719 164.209790 476.170300 164.416084 477.090647 164.622378 477.995635 164.828671 478.885140 165.034965 479.759036 165.241259 480.617199 165.447552 481.459504 165.653846 482.285825 165.860140 483.096039 166.066434 483.890020 166.272727 484.667675 166.479021 485.429035 166.685315 486.174163 166.891608 486.903120 167.097902 487.615970 167.304196 488.312775 167.510490 488.993597 167.716783 489.658500 167.923077 490.307545 168.129371 490.940795 168.335664 491.558312 168.541958 492.160159 168.748252 492.746399 168.954545 493.317094 169.160839 493.872306 169.367133 494.412098 169.573427 494.936532 169.779720 495.445672 169.986014 495.939579 170.192308 496.418315 170.398601 496.881945 170.604895 497.330529 170.811189 497.764130 171.017483 498.182812 171.223776 498.586635 171.430070 498.975664 171.636364 499.349960 171.842657 499.709586 172.048951 500.054605 172.255245 500.385078 172.461538 500.701068 172.667832 501.002639 172.874126 501.289852 173.080420 501.562769 173.286713 501.821454 173.493007 502.065969 173.699301 502.296376 173.905594 502.512738 174.111888 502.715118 174.318182 502.903577 174.524476 503.078179 174.730769 503.238985 174.937063 503.386058 175.143357 503.519462 175.349650 503.639258 175.555944 503.745508 175.762238 503.838276 175.968531 503.917624 176.174825 503.983614 176.381119 504.036308 176.587413 504.075770 176.793706 504.102062 177.000000 504.115246 177.206294 504.115385 177.412587 504.102541 177.618881 504.076776 177.825175 504.038154 178.031469 503.986737 178.237762 503.922587 178.444056 503.845767 178.650350 503.756339 178.856643 503.654365 179.062937 503.539909 179.269231 503.413033 179.475524 503.273798 179.681818 503.122269 179.888112 502.958506 180.094406 502.782574 180.300699 502.594533 180.506993 502.394447 180.713287 502.182379 180.919580 501.958390 181.125874 501.722543 181.332168 501.474901 181.538462 501.215526 181.744755 500.944480 181.951049 500.661827 182.157343 500.367629 182.363636 500.061947 182.569930 499.744845 182.776224 499.416386 182.982517 499.076631 183.188811 498.725643 183.395105 498.363485 183.601399 497.990218 183.807692 497.605907 184.013986 497.210612 184.220280 496.804397 184.426573 496.387325 184.632867 495.959456 184.839161 495.520855 185.045455 495.071584 185.251748 494.611704 185.458042 494.141279 185.664336 493.660371 185.870629 493.169043 186.076923 492.667357 186.283217 492.155375 186.489510 491.633160 186.695804 491.100775 186.902098 490.558282 187.108392 490.005743 187.314685 489.443221 187.520979 488.870779 187.727273 488.288479 187.933566 487.696384 188.139860 487.094555 188.346154 486.483056 188.552448 485.861949 188.758741 485.231296 188.965035 484.591161 189.171329 483.941605 189.377622 483.282690 189.583916 482.614481 189.790210 481.937038 189.996503 481.250425 190.202797 480.554703 190.409091 479.849936 190.615385 479.136186 190.821678 478.413516 191.027972 477.681987 191.234266 476.941663 191.440559 476.192606 191.646853 475.434878 191.853147 474.668542 192.059441 473.893661 192.265734 473.110296 192.472028 472.318511 192.678322 471.518368 192.884615 470.709929 193.090909 469.893257 193.297203 469.068414 193.503497 468.235463 193.709790 467.394467 193.916084 466.545487 194.122378 465.688587 194.328671 464.823829 194.534965 463.951275 194.741259 463.070988 194.947552 462.183030 195.153846 461.287464 195.360140 460.384353 195.566434 459.473758 195.772727 458.555742 195.979021 457.630369 196.185315 456.697699 196.391608 455.757797 196.597902 454.810724 196.804196 453.856542 197.010490 452.895315 197.216783 451.927105 197.423077 450.951974 197.629371 449.969984 197.835664 448.981199 198.041958 447.985681 198.248252 446.983492 198.454545 445.974695 198.660839 444.959352 198.867133 443.937526 199.073427 442.909279 199.279720 441.874673 199.486014 440.833772 199.692308 439.786638 199.898601 438.733333 200.104895 437.673920 200.311189 436.608461 200.517483 435.537018 200.723776 434.459655 200.930070 433.376433 201.136364 432.287416 201.342657 431.192665 201.548951 430.092244 201.755245 428.986214 201.961538 427.874639 202.167832 426.757580 202.374126 425.635100 202.580420 424.507262 202.786713 423.374128 202.993007 422.235761 203.199301 421.092223 203.405594 419.943576 203.611888 418.789884 203.818182 417.631208 204.024476 416.467612 204.230769 415.299157 204.437063 414.125906 204.643357 412.947922 204.849650 411.765266 205.055944 410.578003 205.262238 409.386193 205.468531 408.189901 205.674825 406.989187 205.881119 405.784115 206.087413 404.574747 206.293706 403.361145 206.500000 402.143373 206.706294 400.921492 206.912587 399.695565 207.118881 398.465655 207.325175 397.231824 207.531469 395.994134 207.737762 394.752648 207.944056 393.507429 208.150350 392.258539 208.356643 391.006041 208.562937 389.749996 208.769231 388.490468 208.975524 387.227519 209.181818 385.961212 209.388112 384.691608 209.594406 383.418771 209.800699 382.142763 210.006993 380.863647 210.213287 379.581484 210.419580 378.296338 210.625874 377.008271 210.832168 375.717346 211.038462 374.423624 211.244755 373.127169 211.451049 371.828043 211.657343 370.526308 211.863636 369.222027 212.069930 367.915263 212.276224 366.606077 212.482517 365.294533 212.688811 363.980693 212.895105 362.664619 213.101399 361.346375 213.307692 360.026021 213.513986 358.703622 213.720280 357.379239 213.926573 356.052935 214.132867 354.724772 214.339161 353.394813 214.545455 352.063120 214.751748 350.729757 214.958042 349.394785 215.164336 348.058266 215.370629 346.720264 215.576923 345.380841 215.783217 344.040059 215.989510 342.697981 216.195804 341.354670 216.402098 340.010187 216.608392 338.664595 216.814685 337.317958 217.020979 335.970336 217.227273 334.621794 217.433566 333.272393 217.639860 331.922195 217.846154 330.571260 218.052448 329.219624 218.258741 327.867322 218.465035 326.514388 218.671329 325.160856 218.877622 323.806759 219.083916 322.452131 219.290210 321.097006 219.496503 319.741418 219.702797 318.385401 219.909091 317.028989 220.115385 315.672214 220.321678 314.315112 220.527972 312.957716 220.734266 311.600060 220.940559 310.242177 221.146853 308.884102 221.353147 307.525868 221.559441 306.167509 221.765734 304.809059 221.972028 303.450552 222.178322 302.092021 222.384615 300.733501 222.590909 299.375025 222.797203 298.016627 223.003497 296.658341 223.209790 295.300200 223.416084 293.942239 223.622378 292.584492 223.828671 291.226991 224.034965 289.869771 224.241259 288.512867 224.447552 287.156310 224.653846 285.800137 224.860140 284.444379 225.066434 283.089072 225.272727 281.734248 225.479021 280.379942 225.685315 279.026188 225.891608 277.673019 226.097902 276.320469 226.304196 274.968572 226.510490 273.617362 226.716783 272.266873 226.923077 270.917138 227.129371 269.568191 227.335664 268.220067 227.541958 266.872798 227.748252 265.526419 227.954545 264.180964 228.160839 262.836466 228.367133 261.492960 228.573427 260.150478 228.779720 258.809055 228.986014 257.468725 229.192308 256.129522 229.398601 254.791478 229.604895 253.454629 229.811189 252.119008 230.017483 250.784649 230.223776 249.451585 230.430070 248.119851 230.636364 246.789480 230.842657 245.460506 231.048951 244.132963 231.255245 242.806884 231.461538 241.482305 231.667832 240.159257 231.874126 238.837776 232.080420 237.517895 232.286713 236.199647 232.493007 234.883068 232.699301 233.568189 232.905594 232.255046 233.111888 230.943672 233.318182 229.634102 233.524476 228.326367 233.730769 227.020504 233.937063 225.716545 234.143357 224.414524 234.349650 223.114475 234.555944 221.816432 234.762238 220.520428 234.968531 219.226499 235.174825 217.934676 235.381119 216.644995 235.587413 215.357488 235.793706 214.072191 236.000000 212.789136 236.206294 211.508358 236.412587 210.229889 236.618881 208.953765 236.825175 207.680019 237.031469 206.408685 237.237762 205.139796 237.444056 203.873386 237.650350 202.609490 237.856643 201.348140 238.062937 200.089372 238.269231 198.833218 238.475524 197.579713 238.681818 196.328890 238.888112 195.080783 239.094406 193.835426 239.300699 192.592853 239.506993 191.353097 239.713287 190.116193 239.919580 188.882174 240.125874 187.651074 240.332168 186.422927 240.538462 185.197767 240.744755 183.975627 240.951049 182.756542 241.157343 181.540544 241.363636 180.327669 241.569930 179.117950 241.776224 177.911420 241.982517 176.708114 242.188811 175.508064 242.395105 174.311306 242.601399 173.117873 242.807692 171.927799 243.013986 170.741117 243.220280 169.557862 243.426573 168.378067 243.632867 167.201766 243.839161 166.028992 244.045455 164.859781 244.251748 163.694165 244.458042 162.532178 244.664336 161.373854 244.870629 160.219228 245.076923 159.068332 245.283217 157.921200 245.489510 156.777868 245.695804 155.638367 245.902098 154.502732 246.108392 153.370998 246.314685 152.243197 246.520979 151.119363 246.727273 149.999531 246.933566 148.883735 247.139860 147.772007 247.346154 146.664382 247.552448 145.560893 247.758741 144.461575 247.965035 143.366462 248.171329 142.275586 248.377622 141.188982 248.583916 140.106685 248.790210 139.028726 248.996503 137.955142 249.202797 136.885964 249.409091 135.821227 249.615385 134.760965 249.821678 133.705212 250.027972 132.654002 250.234266 131.607368 250.440559 130.565344 250.646853 129.527963 250.853147 128.495261 251.059441 127.467270 251.265734 126.444025 251.472028 125.425559 251.678322 124.411906 251.884615 123.403100 252.090909 122.399175 252.297203 121.400164 252.503497 120.406102 252.709790 119.417022 252.916084 118.432958 253.122378 117.453943 253.328671 116.480013 253.534965 115.511199 253.741259 114.547537 253.947552 113.589061 254.153846 112.635803 254.360140 111.687798 254.566434 110.745079 254.772727 109.807681 254.979021 108.875637 255.185315 107.948982 255.391608 107.027748 255.597902 106.111969 255.804196 105.201681 256.010490 104.296915 256.216783 103.397707 256.423077 102.504090 256.629371 101.616097 256.835664 100.733764 257.041958 99.857122 257.248252 98.986207 257.454545 98.121052 257.660839 97.261691 257.867133 96.408158 258.073427 95.560486 258.279720 94.718710 258.486014 93.882863 258.692308 93.052978 258.898601 92.229091 259.104895 91.411234 259.311189 90.599442 259.517483 89.793748 259.723776 88.994187 259.930070 88.200791 260.136364 87.413595 260.342657 86.632632 260.548951 85.857937 260.755245 85.089544 260.961538 84.327485 261.167832 83.571795 261.374126 82.822508 261.580420 82.079658 261.786713 81.343277 261.993007 80.613401 262.199301 79.890063 262.405594 79.173297 262.611888 78.463137 262.818182 77.759615 263.024476 77.062768 263.230769 76.372627 263.437063 75.689227 263.643357 75.012602 263.849650 74.342786 264.055944 73.679811 264.262238 73.023714 264.468531 72.374526 264.674825 71.732282 264.881119 71.097015 265.087413 70.468761 265.293706 69.847551 265.500000 69.233421 265.706294 68.626403 265.912587 68.026533 266.118881 67.433843 266.325175 66.848367 266.531469 66.270140 266.737762 65.699194 266.944056 65.135565 267.150350 64.579286 267.356643 64.030389 267.562937 63.488911 267.769231 62.954883 267.975524 62.428341 268.181818 61.909317 268.388112 61.397846 268.594406 60.893961 268.800699 60.397697 269.006993 59.909087 269.213287 59.428164 269.419580 58.954950 269.625874 58.489407 269.832168 58.031487 270.038462 57.581138 270.244755 57.138312 270.451049 56.702958 270.657343 56.275027 270.863636 55.854468 271.069930 55.441232 271.276224 55.035269 271.482517 54.636528 271.688811 54.244961 271.895105 53.860517 272.101399 53.483146 272.307692 53.112799 272.513986 52.749425 272.720280 52.392975 272.926573 52.043399 273.132867 51.700646 273.339161 51.364668 273.545455 51.035413 273.751748 50.712833 273.958042 50.396878 274.164336 50.087496 274.370629 49.784640 274.576923 49.488258 274.783217 49.198301 274.989510 48.914719 275.195804 48.637462 275.402098 48.366480 275.608392 48.101724 275.814685 47.843143 276.020979 47.590688 276.227273 47.344308 276.433566 47.103954 276.639860 46.869576 276.846154 46.641124 277.052448 46.418548 277.258741 46.201799 277.465035 45.990826 277.671329 45.785579 277.877622 45.586009 278.083916 45.392066 278.290210 45.203699 278.496503 45.020860 278.702797 44.843498 278.909091 44.671563 279.115385 44.505005 279.321678 44.343775 279.527972 44.187822 279.734266 44.037097 279.940559 43.891550 280.146853 43.751131 280.353147 43.615790 280.559441 43.485477 280.765734 43.360143 280.972028 43.239736 281.178322 43.124209 281.384615 43.013510 281.590909 42.907590 281.797203 42.806398 282.003497 42.709886 282.209790 42.618003 282.416084 42.530699 282.622378 42.447924 282.828671 42.369629 283.034965 42.295764 283.241259 42.226278 283.447552 42.161122 283.653846 42.100246 283.860140 42.043601 284.066434 41.991135 284.272727 41.942800 284.479021 41.898545 284.685315 41.858320 284.891608 41.822077 285.097902 41.789764 285.304196 41.761332 285.510490 41.736731 285.716783 41.715911 285.923077 41.698823 286.129371 41.685416 286.335664 41.675640 286.541958 41.669446 286.748252 41.666784 286.954545 41.667604 287.160839 41.671856 287.367133 41.679490 287.573427 41.690456 287.779720 41.704704 287.986014 41.722185 288.192308 41.742848 288.398601 41.766644 288.604895 41.793523 288.811189 41.823435 289.017483 41.856330 289.223776 41.892158 289.430070 41.930869 289.636364 41.972414 289.842657 42.016743 290.048951 42.063805 290.255245 42.113550 290.461538 42.165930 290.667832 42.220894 290.874126 42.278392 291.080420 42.338374 291.286713 42.400790 291.493007 42.465591 291.699301 42.532726 291.905594 42.602147 292.111888 42.673802 292.318182 42.747642 292.524476 42.823617 292.730769 42.901677 292.937063 42.981773 293.143357 43.063854 293.349650 43.147870 293.555944 43.233773 293.762238 43.321511 293.968531 43.411035 294.174825 43.502295 294.381119 43.595241 294.587413 43.689823 294.793706 43.785992 295.000000 43.883697 295.206294 43.982889 295.412587 44.083518 295.618881 44.185534 295.825175 44.288886 296.031469 44.393526 296.237762 44.499403 296.444056 44.606467 296.650350 44.714669 296.856643 44.823958 297.062937 44.934285 297.269231 45.045600 297.475524 45.157852 297.681818 45.270993 297.888112 45.384972 298.094406 45.499739 298.300699 45.615245 298.506993 45.731439 298.713287 45.848272 298.919580 45.965693 299.125874 46.083654 299.332168 46.202103 299.538462 46.320992 299.744755 46.440270 299.951049 46.559887 300.157343 46.679794 300.363636 46.799940 300.569930 46.920276 300.776224 47.040752 300.982517 47.161317 301.188811 47.281923 301.395105 47.402519 301.601399 47.523056 301.807692 47.643482 302.013986 47.763750 302.220280 47.883808 302.426573 48.003607 302.632867 48.123096 302.839161 48.242227 303.045455 48.360949 303.251748 48.479212 303.458042 48.596967 303.664336 48.714163 303.870629 48.830750 304.076923 48.946680 304.283217 49.061901 304.489510 49.176364 304.695804 49.290019 304.902098 49.402817 305.108392 49.514707 305.314685 49.625639 305.520979 49.735564 305.727273 49.844432 305.933566 49.952192 306.139860 50.058796 306.346154 50.164192 306.552448 50.268331 306.758741 50.371164 306.965035 50.472641 307.171329 50.572710 307.377622 50.671324 307.583916 50.768431 307.790210 50.863982 307.996503 50.957927 308.202797 51.050216 308.409091 51.140800 308.615385 51.229627 308.821678 51.316650 309.027972 51.401817 309.234266 51.485078 309.440559 51.566385 309.646853 51.645686 309.853147 51.722932 310.059441 51.798074 310.265734 51.871061 310.472028 51.941843 310.678322 52.010371 310.884615 52.076595 311.090909 52.140464 311.297203 52.201929 311.503497 52.260940 311.709790 52.317448 311.916084 52.371402 312.122378 52.422752 312.328671 52.471448 312.534965 52.517441 312.741259 52.560681 312.947552 52.601118 313.153846 52.638702 313.360140 52.673383 313.566434 52.705111 313.772727 52.733836 313.979021 52.759509 314.185315 52.782079 314.391608 52.801497 314.597902 52.817713 314.804196 52.830677 315.010490 52.840339 315.216783 52.846649 315.423077 52.849557 315.629371 52.849014 315.835664 52.844969 316.041958 52.837373 316.248252 52.826176 316.454545 52.811327 316.660839 52.792778 316.867133 52.770477 317.073427 52.744376 317.279720 52.714424 317.486014 52.680572 317.692308 52.642769 317.898601 52.600966 318.104895 52.555113 318.311189 52.505160 318.517483 52.451056 318.723776 52.392753 318.930070 52.330201 319.136364 52.263348 319.342657 52.192147 319.548951 52.116546 319.755245 52.036495 319.961538 51.951946 320.167832 51.862848 320.374126 51.769150 320.580420 51.670804 320.786713 51.567760 320.993007 51.459984 321.199301 51.347516 321.405594 51.230412 321.611888 51.108727 321.818182 50.982518 322.024476 50.851841 322.230769 50.716751 322.437063 50.577305 322.643357 50.433558 322.849650 50.285568 323.055944 50.133389 323.262238 49.977079 323.468531 49.816692 323.674825 49.652285 323.881119 49.483914 324.087413 49.311635 324.293706 49.135504 324.500000 48.955577 324.706294 48.771910 324.912587 48.584560 325.118881 48.393581 325.325175 48.199031 325.531469 48.000965 325.737762 47.799439 325.944056 47.594510 326.150350 47.386233 326.356643 47.174664 326.562937 46.959860 326.769231 46.741876 326.975524 46.520769 327.181818 46.296594 327.388112 46.069408 327.594406 45.839266 327.800699 45.606225 328.006993 45.370341 328.213287 45.131669 328.419580 44.890266 328.625874 44.646188 328.832168 44.399490 329.038462 44.150230 329.244755 43.898462 329.451049 43.644243 329.657343 43.387629 329.863636 43.128676 330.069930 42.867440 330.276224 42.603977 330.482517 42.338343 330.688811 42.070594 330.895105 41.800786 331.101399 41.528976 331.307692 41.255218 331.513986 40.979570 331.720280 40.702087 331.926573 40.422826 332.132867 40.141842 332.339161 39.859191 332.545455 39.574929 332.751748 39.289113 332.958042 39.001799 333.164336 38.713042 333.370629 38.422898 333.576923 38.131424 333.783217 37.838676 333.989510 37.544709 334.195804 37.249580 334.402098 36.953345 334.608392 36.656059 334.814685 36.357779 335.020979 36.058561 335.227273 35.758461 335.433566 35.457535 335.639860 35.155838 335.846154 34.853428 336.052448 34.550359 336.258741 34.246689 336.465035 33.942472 336.671329 33.637766 336.877622 33.332626 337.083916 33.027108 337.290210 32.721268 337.496503 32.415162 337.702797 32.108847 337.909091 31.802378 338.115385 31.495811 338.321678 31.189202 338.527972 30.882608 338.734266 30.576085 338.940559 30.269688 339.146853 29.963473 339.353147 29.657497 339.559441 29.351815 339.765734 29.046484 339.972028 28.741560 340.178322 28.437098 340.384615 28.133155 340.590909 27.829786 340.797203 27.527049 341.003497 27.224998 341.209790 26.923690 341.416084 26.623181 341.622378 26.323527 341.828671 26.024784 342.034965 25.727007 342.241259 25.430254 342.447552 25.134580 342.653846 24.840041 342.860140 24.546693 343.066434 24.254592 343.272727 23.963794 343.479021 23.674355 343.685315 23.386332 343.891608 23.099780 344.097902 22.814755 344.304196 22.531314 344.510490 22.249512 344.716783 21.969405 344.923077 21.691050 345.129371 21.414502 345.335664 21.139818 345.541958 20.867053 345.748252 20.596264 345.954545 20.327507 346.160839 20.060837 346.367133 19.796311 346.573427 19.533984 346.779720 19.273913 346.986014 19.016155 347.192308 18.760763 347.398601 18.507796 347.604895 18.257309 347.811189 18.009357 348.017483 17.763998 348.223776 17.521286 348.430070 17.281279 348.636364 17.044032 348.842657 16.809600 349.048951 16.578041 349.255245 16.349410 349.461538 16.123763 349.667832 15.901156 349.874126 15.681646 350.080420 15.465288 350.286713 15.252138 350.493007 15.042253 350.699301 14.835688 350.905594 14.632499 351.111888 14.432743 351.318182 14.236476 351.524476 14.043752 351.730769 13.854630 351.937063 13.669164 352.143357 13.487411 352.349650 13.309426 352.555944 13.135266 352.762238 12.964987 352.968531 12.798645 353.174825 12.636295 353.381119 12.477994 353.587413 12.323798 353.793706 12.173763 354.000000 12.027945 354.206294 11.886400 354.412587 11.749184 354.618881 11.616353 354.825175 11.487963 355.031469 11.364070 355.237762 11.244731 355.444056 11.130000 355.650350 11.019935 355.856643 10.914591 356.062937 10.814024 356.269231 10.718290 356.475524 10.627446 356.681818 10.541548 356.888112 10.460650 357.094406 10.384810 357.300699 10.314084 357.506993 10.248527 357.713287 10.188196 357.919580 10.133146 358.125874 10.083434 358.332168 10.039115 358.538462 10.000247 358.744755 9.966884 358.951049 9.939082 359.157343 9.916899 359.363636 9.900389 359.569930 9.889609 359.776224 9.884615 359.982517 9.885463 360.188811 9.892209 360.395105 9.904909 360.601399 9.923619 360.807692 9.948395 361.013986 9.979293 361.220280 10.016370 361.426573 10.059680 361.632867 10.109281 361.839161 10.165228 362.045455 10.227577 362.251748 10.296384 362.458042 10.371706 362.664336 10.453598 362.870629 10.542117 363.076923 10.637318 363.283217 10.739257 363.489510 10.847991 363.695804 10.963576 363.902098 11.086067 364.108392 11.215520 364.314685 11.351993 364.520979 11.495540 364.727273 11.646217 364.933566 11.804082 365.139860 11.969189 365.346154 12.141595 365.552448 12.321356 365.758741 12.508528 365.965035 12.703166 366.171329 12.905328 366.377622 13.115068 366.583916 13.332444 366.790210 13.557511 366.996503 13.790324 367.202797 14.030941 367.409091 14.279417 367.615385 14.535809 367.821678 14.800171 368.027972 15.072561 368.234266 15.353034 368.440559 15.641646 368.646853 15.938454 368.853147 16.243513 369.059441 16.556879 369.265734 16.878609 369.472028 17.208758 369.678322 17.547383 369.884615 17.894540 370.090909 18.250284 370.297203 18.614672 370.503497 18.987759 370.709790 19.369602 370.916084 19.760257 371.122378 20.159779 371.328671 20.568226 371.534965 20.985652 371.741259 21.412114 371.947552 21.847668 372.153846 22.292370 372.360140 22.746276 372.566434 23.209419 372.772727 23.681745 372.979021 24.163174 373.185315 24.653628 373.391608 25.153030 373.597902 25.661301 373.804196 26.178363 374.010490 26.704138 374.216783 27.238547 374.423077 27.781513 374.629371 28.332957 374.835664 28.892801 375.041958 29.460968 375.248252 30.037378 375.454545 30.621954 375.660839 31.214617 375.867133 31.815289 376.073427 32.423893 376.279720 33.040349 376.486014 33.664581 376.692308 34.296509 376.898601 34.936055 377.104895 35.583142 377.311189 36.237691 377.517483 36.899623 377.723776 37.568862 377.930070 38.245328 378.136364 38.928943 378.342657 39.619630 378.548951 40.317310 378.755245 41.021905 378.961538 41.733336 379.167832 42.451526 379.374126 43.176397 379.580420 43.907870 379.786713 44.645866 379.993007 45.390309 380.199301 46.141120 380.405594 46.898220 380.611888 47.661531 380.818182 48.430976 381.024476 49.206475 381.230769 49.987952 381.437063 50.775327 381.643357 51.568523 381.849650 52.367461 382.055944 53.172063 382.262238 53.982252 382.468531 54.797948 382.674825 55.619074 382.881119 56.445552 383.087413 57.277303 383.293706 58.114249 383.500000 58.956312 383.706294 59.803414 383.912587 60.655476 384.118881 61.512421 384.325175 62.374171 384.531469 63.240647 384.737762 64.111770 384.944056 64.987464 385.150350 65.867649 385.356643 66.752247 385.562937 67.641181 385.769231 68.534373 385.975524 69.431743 386.181818 70.333214 386.388112 71.238707 386.594406 72.148145 386.800699 73.061450 387.006993 73.978542 387.213287 74.899344 387.419580 75.823779 387.625874 76.751767 387.832168 77.683230 388.038462 78.618091 388.244755 79.556270 388.451049 80.497691 388.657343 81.442275 388.863636 82.389943 389.069930 83.340617 389.276224 84.294220 389.482517 85.250673 389.688811 86.209898 389.895105 87.171816 390.101399 88.136351 390.307692 89.103422 390.513986 90.072953 390.720280 91.044865 390.926573 92.019080 391.132867 92.995520 391.339161 93.974106 391.545455 94.954761 391.751748 95.937405 391.958042 96.921962 392.164336 97.908353 392.370629 98.896500 392.576923 99.886324 392.783217 100.877747 392.989510 101.870692 393.195804 102.865080 393.402098 103.860833 393.608392 104.857872 393.814685 105.856120 394.020979 106.855498 394.227273 107.855929 394.433566 108.857334 394.639860 109.859634 394.846154 110.862752 395.052448 111.866610 395.258741 112.871129 395.465035 113.876231 395.671329 114.881838 395.877622 115.887872 396.083916 116.894255 396.290210 117.900908 396.496503 118.907754 396.702797 119.914714 396.909091 120.921710 397.115385 121.928663 397.321678 122.935496 397.527972 123.942131 397.734266 124.948489 397.940559 125.954493 398.146853 126.960063 398.353147 127.965122 398.559441 128.969592 398.765734 129.973394 398.972028 130.976450 399.178322 131.978683 399.384615 132.980013 399.590909 133.980364 399.797203 134.979656 400.003497 135.977811 400.209790 136.974752 400.416084 137.970400 400.622378 138.964677 400.828671 139.957504 401.034965 140.948805 401.241259 141.938499 401.447552 142.926510 401.653846 143.912759 401.860140 144.897168 402.066434 145.879659 402.272727 146.860153 402.479021 147.838573 402.685315 148.814840 402.891608 149.788876 403.097902 150.760603 403.304196 151.729943 403.510490 152.696818 403.716783 153.661148 403.923077 154.622857 404.129371 155.581866 404.335664 156.538097 404.541958 157.491472 404.748252 158.441912 404.954545 159.389340 405.160839 160.333677 405.367133 161.274845 405.573427 162.212766 405.779720 163.147361 405.986014 164.078553 406.192308 165.006264 406.398601 165.930414 406.604895 166.850927 406.811189 167.767724 407.017483 168.680726 407.223776 169.589856 407.430070 170.495035 407.636364 171.396185 407.842657 172.293229 408.048951 173.186087 408.255245 174.074682 408.461538 174.958935 408.667832 175.838769 408.874126 176.714105 409.080420 177.584865 409.286713 178.450970 409.493007 179.312344 409.699301 180.168907 409.905594 181.020581 410.111888 181.867288 410.318182 182.708951 410.524476 183.545490 410.730769 184.376828 410.937063 185.202886 411.143357 186.023587 411.349650 186.838851 411.555944 187.648602 411.762238 188.452761 411.968531 189.251249 412.174825 190.043988 412.381119 190.830901 412.587413 191.611909 412.793706 192.386934 413.000000 193.155898 413.206294 193.918722 413.412587 194.675329 413.618881 195.425640 413.825175 196.169577 414.031469 196.907062 414.237762 197.638017 414.444056 198.362364 414.650350 199.080024 414.856643 199.790919 415.062937 200.494971 415.269231 201.192102 415.475524 201.882234 415.681818 202.565289 415.888112 203.241188 416.094406 203.909853 416.300699 204.571206 416.506993 205.225169 416.713287 205.871664 416.919580 206.510612 417.125874 207.141936 417.332168 207.765557 417.538462 208.381397 417.744755 208.989378 417.951049 209.589422 418.157343 210.181450 418.363636 210.765385 418.569930 211.341147 418.776224 211.908660 418.982517 212.467845 419.188811 213.018623 419.395105 213.560917 419.601399 214.094648 419.807692 214.619739 420.013986 215.136110 420.220280 215.643685 420.426573 216.142384 420.632867 216.632129 420.839161 217.112843 421.045455 217.584447 421.251748 218.046863 421.458042 218.500013 421.664336 218.943818 421.870629 219.378201 422.076923 219.803084 422.283217 220.218387 422.489510 220.624034 422.695804 221.019945 422.902098 221.406043 423.108392 221.782249 423.314685 222.148486 423.520979 222.504675 423.727273 222.850738 423.933566 223.186597 424.139860 223.512195 424.346154 223.827564 424.552448 224.132758 424.758741 224.427829 424.965035 224.712832 425.171329 224.987819 425.377622 225.252845 425.583916 225.507962 425.790210 225.753224 425.996503 225.988684 426.202797 226.214395 426.409091 226.430412 426.615385 226.636788 426.821678 226.833575 427.027972 227.020827 427.234266 227.198599 427.440559 227.366942 427.646853 227.525911 427.853147 227.675559 428.059441 227.815939 428.265734 227.947105 428.472028 228.069110 428.678322 228.182007 428.884615 228.285851 429.090909 228.380694 429.297203 228.466589 429.503497 228.543591 429.709790 228.611753 429.916084 228.671127 430.122378 228.721768 430.328671 228.763728 430.534965 228.797062 430.741259 228.821822 430.947552 228.838063 431.153846 228.845836 431.360140 228.845197 431.566434 228.836198 431.772727 228.818892 431.979021 228.793334 432.185315 228.759575 432.391608 228.717671 432.597902 228.667674 432.804196 228.609638 433.010490 228.543615 433.216783 228.469660 433.423077 228.387826 433.629371 228.298167 433.835664 228.200735 434.041958 228.095584 434.248252 227.982767 434.454545 227.862339 434.660839 227.734351 434.867133 227.598859 435.073427 227.455914 435.279720 227.305571 435.486014 227.147883 435.692308 226.982904 435.898601 226.810686 436.104895 226.631283 436.311189 226.444749 436.517483 226.251136 436.723776 226.050499 436.930070 225.842891 437.136364 225.628365 437.342657 225.406975 437.548951 225.178773 437.755245 224.943814 437.961538 224.702151 438.167832 224.453836 438.374126 224.198925 438.580420 223.937469 438.786713 223.669523 438.993007 223.395140 439.199301 223.114373 439.405594 222.827275 439.611888 222.533901 439.818182 222.234303 440.024476 221.928534 440.230769 221.616649 440.437063 221.298701 440.643357 220.974743 440.849650 220.644828 441.055944 220.309010 441.262238 219.967342 441.468531 219.619878 441.674825 219.266672 441.881119 218.907775 442.087413 218.543243 442.293706 218.173127 442.500000 217.797483 442.706294 217.416362 442.912587 217.029819 443.118881 216.637907 443.325175 216.240680 443.531469 215.838190 443.737762 215.430491 443.944056 215.017637 444.150350 214.599680 444.356643 214.176675 444.562937 213.748675 444.769231 213.315733 444.975524 212.877903 445.181818 212.435237 445.388112 211.987790 445.594406 211.535615 445.800699 211.078765 446.006993 210.617293 446.213287 210.151253 446.419580 209.680699 446.625874 209.205684 446.832168 208.726261 447.038462 208.242483 447.244755 207.754405 447.451049 207.262079 447.657343 206.765558 447.863636 206.264897 448.069930 205.760149 448.276224 205.251367 448.482517 204.738604 448.688811 204.221914 448.895105 203.701350 449.101399 203.176966 449.307692 202.648815 449.513986 202.116951 449.720280 201.581426 449.926573 201.042295 450.132867 200.499610 450.339161 199.953426 450.545455 199.403795 450.751748 198.850770 450.958042 198.294407 451.164336 197.734757 451.370629 197.171874 451.576923 196.605811 451.783217 196.036623 451.989510 195.464362 452.195804 194.889082 452.402098 194.310835 452.608392 193.729677 452.814685 193.145659 453.020979 192.558836 453.227273 191.969260 453.433566 191.376986 453.639860 190.782066 453.846154 190.184555 454.052448 189.584504 454.258741 188.981969 454.465035 188.377002 454.671329 187.769656 454.877622 187.159985 455.083916 186.548043 455.290210 185.933883 455.496503 185.317557 455.702797 184.699121 455.909091 184.078626 456.115385 183.456127 456.321678 182.831677 456.527972 182.205329 456.734266 181.577137 456.940559 180.947154 457.146853 180.315433 457.353147 179.682028 457.559441 179.046993 457.765734 178.410380 457.972028 177.772243 458.178322 177.132636 458.384615 176.491612 458.590909 175.849224 458.797203 175.205526 459.003497 174.560571 459.209790 173.914412 459.416084 173.267103 459.622378 172.618698 459.828671 171.969250 460.034965 171.318811 460.241259 170.667436 460.447552 170.015178 460.653846 169.362091 460.860140 168.708227 461.066434 168.053641 461.272727 167.398385 461.479021 166.742513 461.685315 166.086078 461.891608 165.429134 462.097902 164.771735 462.304196 164.113933 462.510490 163.455782 462.716783 162.797335 462.923077 162.138647 463.129371 161.479769 463.335664 160.820756 463.541958 160.161662 463.748252 159.502538 463.954545 158.843440 464.160839 158.184420 464.367133 157.525531 464.573427 156.866828 464.779720 156.208363 464.986014 155.550190 465.192308 154.892362 465.398601 154.234933 465.604895 153.577956 465.811189 152.921484 466.017483 152.265572 466.223776 151.610271 466.430070 150.955637 466.636364 150.301721 466.842657 149.648578 467.048951 148.996261 467.255245 148.344824 467.461538 147.694319 467.667832 147.044800 467.874126 146.396321 468.080420 145.748935 468.286713 145.102695 468.493007 144.457655 468.699301 143.813868 468.905594 143.171387 469.111888 142.530267 469.318182 141.890560 469.524476 141.252320 469.730769 140.615600 469.937063 139.980454 470.143357 139.346934 470.349650 138.715095 470.555944 138.084990 470.762238 137.456672 470.968531 136.830195 471.174825 136.205612 471.381119 135.582976 471.587413 134.962341 471.793706 134.343761 472.000000 133.727288 472.206294 133.112976 472.412587 132.500879 472.618881 131.891049 472.825175 131.283541 473.031469 130.678407 473.237762 130.075702 473.444056 129.475478 473.650350 128.877789 473.856643 128.282688 474.062937 127.690229 474.269231 127.100465 474.475524 126.513450 474.681818 125.929236 474.888112 125.347878 475.094406 124.769429 475.300699 124.193942 475.506993 123.621470 475.713287 123.052060 475.919580 122.485730 476.125874 121.922491 476.332168 121.362354 476.538462 120.805329 476.744755 120.251428 476.951049 119.700662 477.157343 119.153041 477.363636 118.608577 477.569930 118.067280 477.776224 117.529162 477.982517 116.994233 478.188811 116.462504 478.395105 115.933986 478.601399 115.408690 478.807692 114.886628 479.013986 114.367809 479.220280 113.852245 479.426573 113.339948 479.632867 112.830927 479.839161 112.325194 480.045455 111.822759 480.251748 111.323634 480.458042 110.827830 480.664336 110.335358 480.870629 109.846227 481.076923 109.360451 481.283217 108.878038 481.489510 108.399001 481.695804 107.923350 481.902098 107.451096 482.108392 106.982251 482.314685 106.516824 482.520979 106.054827 482.727273 105.596272 482.933566 105.141168 483.139860 104.689527 483.346154 104.241360 483.552448 103.796677 483.758741 103.355490 483.965035 102.917810 484.171329 102.483647 484.377622 102.053013 484.583916 101.625918 484.790210 101.202373 484.996503 100.782390 485.202797 100.365979 485.409091 99.953151 485.615385 99.543917 485.821678 99.138288 486.027972 98.736275 486.234266 98.337889 486.440559 97.943141 486.646853 97.552042 486.853147 97.164602 487.059441 96.780834 487.265734 96.400746 487.472028 96.024352 487.678322 95.651660 487.884615 95.282684 488.090909 94.917432 488.297203 94.555917 488.503497 94.198150 488.709790 93.844140 488.916084 93.493900 489.122378 93.147439 489.328671 92.804770 489.534965 92.465903 489.741259 92.130848 489.947552 91.799618 490.153846 91.472222 490.360140 91.148672 490.566434 90.828978 490.772727 90.513153 490.979021 90.201205 491.185315 89.893147 491.391608 89.588990 491.597902 89.288744 491.804196 88.992421 492.010490 88.700030 492.216783 88.411584 492.423077 88.127093 492.629371 87.846568 492.835664 87.570020 493.041958 87.297460 493.248252 87.028899 493.454545 86.764347 493.660839 86.503817 493.867133 86.247318 494.073427 85.994862 494.279720 85.746459 494.486014 85.502121 494.692308 85.261858 494.898601 85.025682 495.104895 84.793603 495.311189 84.565633 495.517483 84.341782 495.723776 84.122061 495.930070 83.906481 496.136364 83.695053 496.342657 83.487788 496.548951 83.284697 496.755245 83.085791 496.961538 82.891080 497.167832 82.700577 497.374126 82.514291 497.580420 82.332234 497.786713 82.154416 497.993007 81.980849 498.199301 81.811544 498.405594 81.646510 498.611888 81.485760 498.818182 81.329305 499.024476 81.177155 499.230769 81.029320 499.437063 80.885813 499.643357 80.746644 499.849650 80.611824 500.055944 80.481364 500.262238 80.355275 500.468531 80.233567 500.674825 80.116253 500.881119 80.003341 501.087413 79.894845 501.293706 79.790774 501.500000 79.691140 501.706294 79.595953 501.912587 79.505225 502.118881 79.418965 502.325175 79.337187 502.531469 79.259899 502.737762 79.187113 502.944056 79.118841 503.150350 79.055092 503.356643 78.995879 503.562937 78.941212 503.769231 78.891101 503.975524 78.845558 504.181818 78.804594 504.388112 78.768219 504.594406 78.736446 504.800699 78.709283 505.006993 78.686743 505.213287 78.668837 505.419580 78.655575 505.625874 78.646968 505.832168 78.643028 506.038462 78.643765 506.244755 78.649190 506.451049 78.659314 506.657343 78.674148 506.863636 78.693703 507.069930 78.717990 507.276224 78.747019 507.482517 78.780803 507.688811 78.819351 507.895105 78.862675 508.101399 78.910785 508.307692 78.963693 508.513986 79.021410 508.720280 79.083946 508.926573 79.151312 509.132867 79.223520 509.339161 79.300579 509.545455 79.382503 509.751748 79.469300 509.958042 79.560982 510.164336 79.657560 510.370629 79.759045 510.576923 79.865448 510.783217 79.976780 510.989510 80.093052 511.195804 80.214274 511.402098 80.340458 511.608392 80.471615 511.814685 80.607755 512.020979 80.748889 512.227273 80.895029 512.433566 81.046186 512.639860 81.202369 512.846154 81.363591 513.052448 81.529862 513.258741 81.701193 513.465035 81.877596 513.671329 82.059080 513.877622 82.245657 514.083916 82.437338 514.290210 82.634134 514.496503 82.836055 514.702797 83.043114 514.909091 83.255319 515.115385 83.472684 515.321678 83.695218 515.527972 83.922932 515.734266 84.155838 515.940559 84.393946 516.146853 84.637268 516.353147 84.885813 516.559441 85.139594 516.765734 85.398621 516.972028 85.662905 517.178322 85.932457 517.384615 86.207288 517.590909 86.487409 517.797203 86.772830 518.003497 87.063563 518.209790 87.359619 518.416084 87.661009 518.622378 87.967743 518.828671 88.279833 519.034965 88.597289 519.241259 88.920122 519.447552 89.248344 519.653846 89.581965 519.860140 89.920996 520.066434 90.265449 520.272727 90.615333 520.479021 90.970661 520.685315 91.331442 520.891608 91.697688 521.097902 92.069411 521.304196 92.446620 521.510490 92.829326 521.716783 93.217542 521.923077 93.611277 522.129371 94.010542 522.335664 94.415349 522.541958 94.825709 522.748252 95.241632 522.954545 95.663129 523.160839 96.090211 523.367133 96.522890 523.573427 96.961176 523.779720 97.405079 523.986014 97.854612 524.192308 98.309785 524.398601 98.770609 524.604895 99.237094 524.811189 99.709252 525.017483 100.187094 525.223776 100.670631 525.430070 101.159873 525.636364 101.654832 525.842657 102.155518 526.048951 102.661943 526.255245 103.174117 526.461538 103.692051 526.667832 104.215757 526.874126 104.745245 527.080420 105.280525 527.286713 105.821605 527.493007 106.368465 527.699301 106.921082 527.905594 107.479434 528.111888 108.043498 528.318182 108.613249 528.524476 109.188665 528.730769 109.769723 528.937063 110.356399 529.143357 110.948670 529.349650 111.546512 529.555944 112.149904 529.762238 112.758821 529.968531 113.373240 530.174825 113.993139 530.381119 114.618493 530.587413 115.249280 530.793706 115.885476 531.000000 116.527058 531.206294 117.174003 531.412587 117.826288 531.618881 118.483890 531.825175 119.146785 532.031469 119.814949 532.237762 120.488361 532.444056 121.166997 532.650350 121.850832 532.856643 122.539846 533.062937 123.234013 533.269231 123.933310 533.475524 124.637716 533.681818 125.347206 533.888112 126.061757 534.094406 126.781345 534.300699 127.505949 534.506993 128.235544 534.713287 128.970107 534.919580 129.709616 535.125874 130.454046 535.332168 131.203375 535.538462 131.957579 535.744755 132.716635 535.951049 133.480521 536.157343 134.249212 536.363636 135.022686 536.569930 135.800919 536.776224 136.583888 536.982517 137.371570 537.188811 138.163942 537.395105 138.960980 537.601399 139.762661 537.807692 140.568963 538.013986 141.379861 538.220280 142.195333 538.426573 143.015355 538.632867 143.839905 538.839161 144.668958 539.045455 145.502492 539.251748 146.340484 539.458042 147.182910 539.664336 148.029747 539.870629 148.880972 540.076923 149.736561 540.283217 150.596492 540.489510 151.460742 540.695804 152.329286 540.902098 153.202102 541.108392 154.079166 541.314685 154.960456 541.520979 155.845948 541.727273 156.735619 541.933566 157.629446 542.139860 158.527405 542.346154 159.429474 542.552448 160.335628 542.758741 161.245846 542.965035 162.160102 543.171329 163.078376 543.377622 164.000642 543.583916 164.926879 543.790210 165.857062 543.996503 166.791169 544.202797 167.729176 544.409091 168.671061 544.615385 169.616799 544.821678 170.566368 545.027972 171.519744 545.234266 172.476905 545.440559 173.437826 545.646853 174.402486 545.853147 175.370860 546.059441 176.342925 546.265734 177.318659 546.472028 178.298037 546.678322 179.281037 546.884615 180.267636 547.090909 181.257810 547.297203 182.251536 547.503497 183.248791 547.709790 184.249552 547.916084 185.253795 548.122378 186.261497 548.328671 187.272636 548.534965 188.287187 548.741259 189.305128 548.947552 190.326435 549.153846 191.351085 549.360140 192.379055 549.566434 193.410322 549.772727 194.444862 549.979021 195.482653 550.185315 196.523670 550.391608 197.567892 550.597902 198.615294 550.804196 199.665853 551.010490 200.719547 551.216783 201.776352 551.423077 202.836244 551.629371 203.899201 551.835664 204.965199 552.041958 206.034216 552.248252 207.106227 552.454545 208.181210 552.660839 209.259141 552.867133 210.339998 553.073427 211.423757 553.279720 212.510394 553.486014 213.599887 553.692308 214.692213 553.898601 215.787347 554.104895 216.885268 554.311189 217.985951 554.517483 219.089374 554.723776 220.195513 554.930070 221.304346 555.136364 222.415848 555.342657 223.529997 555.548951 224.646769 555.755245 225.766141 555.961538 226.888091 556.167832 228.012594 556.374126 229.139627 556.580420 230.269169 556.786713 231.401194 556.993007 232.535680 557.199301 233.672604 557.405594 234.811942 557.611888 235.953672 557.818182 237.097770 558.024476 238.244212 558.230769 239.392976 558.437063 240.544039 558.643357 241.697377 558.849650 242.852966 559.055944 244.010785 559.262238 245.170809 559.468531 246.333015 559.674825 247.497381 559.881119 248.663882 560.087413 249.832496 560.293706 251.003200 560.500000 252.175969 560.706294 253.350782 560.912587 254.527615 561.118881 255.706444 561.325175 256.887247 561.531469 258.069999 561.737762 259.254679 561.944056 260.441262 562.150350 261.629726 562.356643 262.820048 562.562937 264.012203 562.769231 265.206169 562.975524 266.401923 563.181818 267.599441 563.388112 268.798701 563.594406 269.999678 563.800699 271.202350 564.006993 272.406694 564.213287 273.612686 564.419580 274.820304 564.625874 276.029523 564.832168 277.240321 565.038462 278.452674 565.244755 279.666560 565.451049 280.881955 565.657343 282.098835 565.863636 283.317179 566.069930 284.536961 566.276224 285.758160 566.482517 286.980752 566.688811 288.204713 566.895105 289.430021 567.101399 290.656653 567.307692 291.884584 567.513986 293.113793 567.720280 294.344255 567.926573 295.575948 568.132867 296.808847 568.339161 298.042931 568.545455 299.278176 568.751748 300.514558 568.958042 301.752055 569.164336 302.990642 569.370629 304.230298 569.576923 305.470999 569.783217 306.712721 569.989510 307.955441 570.195804 309.199136 570.402098 310.443783 570.608392 311.689359 570.814685 312.935841 571.020979 314.183204 571.227273 315.431427 571.433566 316.680485 571.639860 317.930356 571.846154 319.181016 572.052448 320.432442 572.258741 321.684612 572.465035 322.937501 572.671329 324.191086 572.877622 325.445345 573.083916 326.700254 573.290210 327.955789 573.496503 329.211928 573.702797 330.468648 573.909091 331.725925 574.115385 332.983736 574.321678 334.242057 574.527972 335.500866 574.734266 336.760140 574.940559 338.019854 575.146853 339.279987 575.353147 340.540514 575.559441 341.801413 575.765734 343.062659 575.972028 344.324231 576.178322 345.586105 576.384615 346.848257 576.590909 348.110665 576.797203 349.373305 577.003497 350.636153 577.209790 351.899188 577.416084 353.162385 577.622378 354.425721 577.828671 355.689173 578.034965 356.952719 578.241259 358.216334 578.447552 359.479995 578.653846 360.743679 578.653846 514.000000" /></g></g><g class="titles"><text class="title plot_title" x="400.0" y="26">Silom-Line summary_51</text></g><g class="plot overlay" transform="translate(190, 46)"><g class="series serie-0 color-0"><g class="dots"><circle class="dot reactive tooltip-trigger" cx="11.346153846153847" cy="79.07917631691254" r="2.5" /><desc class="value">2704000</desc><desc class="x ">11.346153846153847</desc><desc class="y ">79.07917631691254</desc><desc class="x_label">Jan</desc></g><g class="dots"><circle class="dot reactive tooltip-trigger" cx="62.91958041958042" cy="115.76106509537289" r="2.5" /><desc class="value">2676000</desc><desc class="x ">62.91958041958042</desc><desc class="y ">115.76106509537289</desc><desc class="x_label">Feb</desc></g><g class="dots"><circle class="dot reactive tooltip-trigger" cx="114.49300699300699" cy="101.35032307526347" r="2.5" /><desc class="value">2687000</desc><desc class="x ">114.49300699300699</desc><desc class="y ">101.35032307526347</desc><desc class="x_label">Mar</desc></g><g class="dots"><circle class="dot reactive tooltip-trigger" cx="166.06643356643357" cy="483.89002033635006" r="2.5" /><desc class="value">2395000</desc><desc class="x top">166.06643356643357</desc><desc class="y top">483.89002033635006</desc><desc class="x_label">Apr</desc></g><g class="dots"><circle class="dot reactive tooltip-trigger" cx="217.63986013986016" cy="331.9221953970143" r="2.5" /><desc class="value">2511000</desc><desc class="x top">217.63986013986016</desc><desc class="y top">331.9221953970143</desc><desc class="x_label">May</desc></g><g class="dots"><circle class="dot reactive tooltip-trigger" cx="269.2132867132867" cy="59.428164471308776" r="2.5" /><desc class="value">2719000</desc><desc class="x ">269.2132867132867</desc><desc class="y ">59.428164471308776</desc><desc class="x_label">Jun</desc></g><g class="dots"><circle class="dot reactive tooltip-trigger" cx="320.7867132867133" cy="51.567759733067305" r="2.5" /><desc class="value">2725000</desc><desc class="x left">320.7867132867133</desc><desc class="y left">51.567759733067305</desc><desc class="x_label">Jul</desc></g><g class="dots"><circle class="dot reactive tooltip-trigger" cx="372.36013986013984" cy="22.746275692848428" r="2.5" /><desc class="value">2747000</desc><desc class="x left">372.36013986013984</desc><desc class="y left">22.746275692848428</desc><desc class="x_label">Aug</desc></g><g class="dots"><circle class="dot reactive tooltip-trigger" cx="423.93356643356645" cy="223.1865965180068" r="2.5" /><desc class="value">2594000</desc><desc class="x left">423.93356643356645</desc><desc class="y left">223.1865965180068</desc><desc class="x_label">Sep</desc></g><g class="dots"><circle class="dot reactive tooltip-trigger" cx="475.506993006993" cy="123.62146983361441" r="2.5" /><desc class="value">2670000</desc><desc class="x left">475.506993006993</desc><desc class="y left">123.62146983361441</desc><desc class="x_label">Oct</desc></g><g class="dots"><circle class="dot reactive tooltip-trigger" cx="527.0804195804195" cy="105.28052544438424" r="2.5" /><desc class="value">2684000</desc><desc class="x left">527.0804195804195</desc><desc class="y left">105.28052544438424</desc><desc class="x_label">Nov</desc></g><g class="dots"><circle class="dot reactive tooltip-trigger" cx="578.6538461538461" cy="360.74367943723314" r="2.5" /><desc class="value">2489000</desc><desc class="x left top">578.6538461538461</desc><desc class="y left top">360.74367943723314</desc><desc class="x_label">Dec</desc></g></g></g><g class="plot text-overlay" transform="translate(190, 46)"><g class="series serie-0 color-0" /></g><g class="plot tooltip-overlay" transform="translate(190, 46)"><g class="tooltip" style="opacity: 0" transform="translate(0 0)"><rect class="tooltip-box" height="0" rx="0" ry="0" width="0" /><g class="text" /></g></g><g class="legends" transform="translate(10, 56)"><g class="legend reactive activate-serie" id="activate-serie-0"><rect class="color-0 reactive" height="12" width="12" x="0.0" y="1.0" /><text x="17.0" y="11.2">Silom-Line</text></g></g><g class="legends" transform="translate(790, 56)" /></g></svg>