<?xml version='1.0' encoding='utf-8'?>
<svg xmlns:xlink="http://www.w3.org/1999/xlink" class="pygal-chart" id="chart-04a059eb-3500-4863-b142-63275a46a4b8" viewBox="0 0 800 600" xmlns="http://www.w3.org/2000/svg"><!--Generated with pygal 2.0.11 (etree) ©Kozea 2011-2015 on 2015-12-10--><!--http://pygal.org--><!--http://github.com/Kozea/pygal--><defs><style type="text/css">#chart-04a059eb-3500-4863-b142-63275a46a4b8{-webkit-user-select:none;-webkit-font-smoothing:antialiased;font-family:Consolas,"Liberation Mono",Menlo,Courier,monospace}#chart-04a059eb-3500-4863-b142-63275a46a4b8 .title{font-family:Consolas,"Liberation Mono",Menlo,Courier,monospace;font-size:16px}#chart-04a059eb-3500-4863-b142-63275a46a4b8 .legends .legend text{font-family:Consolas,"Liberation Mono",Menlo,Courier,monospace;font-size:14px}#chart-04a059eb-3500-4863-b142-63275a46a4b8 .axis text{font-family:Consolas,"Liberation Mono",Menlo,Courier,monospace;font-size:10px}#chart-04a059eb-3500-4863-b142-63275a46a4b8 .axis text.major{font-family:Consolas,"Liberation Mono",Menlo,Courier,monospace;font-size:10px}#chart-04a059eb-3500-4863-b142-63275a46a4b8 .text-overlay text.value{font-family:Consolas,"Liberation Mono",Menlo,Courier,monospace;font-size:16px}#chart-04a059eb-3500-4863-b142-63275a46a4b8 .text-overlay text.label{font-family:Consolas,"Liberation Mono",Menlo,Courier,monospace;font-size:10px}#chart-04a059eb-3500-4863-b142-63275a46a4b8 .tooltip{font-family:Consolas,"Liberation Mono",Menlo,Courier,monospace;font-size:14px}#chart-04a059eb-3500-4863-b142-63275a46a4b8 text.no_data{font-family:Consolas,"Liberation Mono",Menlo,Courier,monospace;font-size:64px}
#chart-04a059eb-3500-4863-b142-63275a46a4b8{background-color:black}#chart-04a059eb-3500-4863-b142-63275a46a4b8 path,#chart-04a059eb-3500-4863-b142-63275a46a4b8 line,#chart-04a059eb-3500-4863-b142-63275a46a4b8 rect,#chart-04a059eb-3500-4863-b142-63275a46a4b8 circle{-webkit-transition:250ms;-moz-transition:250ms;transition:250ms}#chart-04a059eb-3500-4863-b142-63275a46a4b8 .graph &gt; .background{fill:black}#chart-04a059eb-3500-4863-b142-63275a46a4b8 .plot &gt; .background{fill:#111}#chart-04a059eb-3500-4863-b142-63275a46a4b8 .graph{fill:#999}#chart-04a059eb-3500-4863-b142-63275a46a4b8 text.no_data{fill:#eee}#chart-04a059eb-3500-4863-b142-63275a46a4b8 .title{fill:#eee}#chart-04a059eb-3500-4863-b142-63275a46a4b8 .legends .legend text{fill:#999}#chart-04a059eb-3500-4863-b142-63275a46a4b8 .legends .legend:hover text{fill:#eee}#chart-04a059eb-3500-4863-b142-63275a46a4b8 .axis .line{stroke:#eee}#chart-04a059eb-3500-4863-b142-63275a46a4b8 .axis .guide.line{stroke:#555}#chart-04a059eb-3500-4863-b142-63275a46a4b8 .axis .major.line{stroke:#999}#chart-04a059eb-3500-4863-b142-63275a46a4b8 .axis text.major{fill:#eee}#chart-04a059eb-3500-4863-b142-63275a46a4b8 .axis.y .guides:hover .guide.line,#chart-04a059eb-3500-4863-b142-63275a46a4b8 .line-graph .axis.x .guides:hover .guide.line,#chart-04a059eb-3500-4863-b142-63275a46a4b8 .stackedline-graph .axis.x .guides:hover .guide.line,#chart-04a059eb-3500-4863-b142-63275a46a4b8 .xy-graph .axis.x .guides:hover .guide.line{stroke:#eee}#chart-04a059eb-3500-4863-b142-63275a46a4b8 .axis .guides:hover text{fill:#eee}#chart-04a059eb-3500-4863-b142-63275a46a4b8 .reactive{fill-opacity:.8}#chart-04a059eb-3500-4863-b142-63275a46a4b8 .reactive.active,#chart-04a059eb-3500-4863-b142-63275a46a4b8 .active .reactive{fill-opacity:.4;stroke-width:4}#chart-04a059eb-3500-4863-b142-63275a46a4b8 .series text{fill:#eee}#chart-04a059eb-3500-4863-b142-63275a46a4b8 .tooltip rect{fill:#111;stroke:#eee;-webkit-transition:opacity 250ms;-moz-transition:opacity 250ms;transition:opacity 250ms}#chart-04a059eb-3500-4863-b142-63275a46a4b8 .tooltip .label{fill:#999}#chart-04a059eb-3500-4863-b142-63275a46a4b8 .tooltip .label{fill:#999}#chart-04a059eb-3500-4863-b142-63275a46a4b8 .tooltip .legend{font-size:.8em;fill:#555}#chart-04a059eb-3500-4863-b142-63275a46a4b8 .tooltip .x_label{font-size:.6em;fill:#eee}#chart-04a059eb-3500-4863-b142-63275a46a4b8 .tooltip .xlink{font-size:.5em;text-decoration:underline}#chart-04a059eb-3500-4863-b142-63275a46a4b8 .tooltip .value{font-size:1.5em}#chart-04a059eb-3500-4863-b142-63275a46a4b8 .map-element{fill:#111;stroke:#555 !important}#chart-04a059eb-3500-4863-b142-63275a46a4b8 .map-element .reactive{fill-opacity:inherit}#chart-04a059eb-3500-4863-b142-63275a46a4b8 .color-0,#chart-04a059eb-3500-4863-b142-63275a46a4b8 .color-0 a:visited{stroke:#ff5995;fill:#ff5995}#chart-04a059eb-3500-4863-b142-63275a46a4b8 .text-overlay .color-0 text{fill:black}
#chart-04a059eb-3500-4863-b142-63275a46a4b8 text.no_data{text-anchor:middle}#chart-04a059eb-3500-4863-b142-63275a46a4b8 .guide.line{fill:none}#chart-04a059eb-3500-4863-b142-63275a46a4b8 .centered{text-anchor:middle}#chart-04a059eb-3500-4863-b142-63275a46a4b8 .title{text-anchor:middle}#chart-04a059eb-3500-4863-b142-63275a46a4b8 .legends .legend text{fill-opacity:1}#chart-04a059eb-3500-4863-b142-63275a46a4b8 .axis.x text{text-anchor:middle}#chart-04a059eb-3500-4863-b142-63275a46a4b8 .axis.x:not(.web) text[transform]{text-anchor:start}#chart-04a059eb-3500-4863-b142-63275a46a4b8 .axis.x:not(.web) text[transform].backwards{text-anchor:end}#chart-04a059eb-3500-4863-b142-63275a46a4b8 .axis.y text{text-anchor:end}#chart-04a059eb-3500-4863-b142-63275a46a4b8 .axis.y text[transform].backwards{text-anchor:start}#chart-04a059eb-3500-4863-b142-63275a46a4b8 .axis.y2 text{text-anchor:start}#chart-04a059eb-3500-4863-b142-63275a46a4b8 .axis.y2 text[transform].backwards{text-anchor:end}#chart-04a059eb-3500-4863-b142-63275a46a4b8 .axis .guide.line{stroke-dasharray:4,4}#chart-04a059eb-3500-4863-b142-63275a46a4b8 .axis .major.guide.line{stroke-dasharray:6,6}#chart-04a059eb-3500-4863-b142-63275a46a4b8 .horizontal .axis.y .guide.line,#chart-04a059eb-3500-4863-b142-63275a46a4b8 .horizontal .axis.y2 .guide.line,#chart-04a059eb-3500-4863-b142-63275a46a4b8 .vertical .axis.x .guide.line{opacity:0}#chart-04a059eb-3500-4863-b142-63275a46a4b8 .horizontal .axis.always_show .guide.line,#chart-04a059eb-3500-4863-b142-63275a46a4b8 .vertical .axis.always_show .guide.line{opacity:1 !important}#chart-04a059eb-3500-4863-b142-63275a46a4b8 .axis.y .guides:hover .guide.line,#chart-04a059eb-3500-4863-b142-63275a46a4b8 .axis.y2 .guides:hover .guide.line,#chart-04a059eb-3500-4863-b142-63275a46a4b8 .axis.x .guides:hover .guide.line{opacity:1}#chart-04a059eb-3500-4863-b142-63275a46a4b8 .axis .guides:hover text{opacity:1}#chart-04a059eb-3500-4863-b142-63275a46a4b8 .nofill{fill:none}#chart-04a059eb-3500-4863-b142-63275a46a4b8 .subtle-fill{fill-opacity:.2}#chart-04a059eb-3500-4863-b142-63275a46a4b8 .dot{stroke-width:1px;fill-opacity:1}#chart-04a059eb-3500-4863-b142-63275a46a4b8 .dot.active{stroke-width:5px}#chart-04a059eb-3500-4863-b142-63275a46a4b8 .dot.negative{fill:transparent}#chart-04a059eb-3500-4863-b142-63275a46a4b8 text,#chart-04a059eb-3500-4863-b142-63275a46a4b8 tspan{stroke:none !important}#chart-04a059eb-3500-4863-b142-63275a46a4b8 .series text.active{opacity:1}#chart-04a059eb-3500-4863-b142-63275a46a4b8 .tooltip rect{fill-opacity:.95;stroke-width:.5}#chart-04a059eb-3500-4863-b142-63275a46a4b8 .tooltip text{fill-opacity:1}#chart-04a059eb-3500-4863-b142-63275a46a4b8 .showable{visibility:hidden}#chart-04a059eb-3500-4863-b142-63275a46a4b8 .showable.shown{visibility:visible}</style><script type="text/javascript">window.pygal = window.pygal || {};window.pygal.config = window.pygal.config || {};window.pygal.config['04a059eb-3500-4863-b142-63275a46a4b8'] = {"inverse_y_axis": false, "xrange": null, "spacing": 10, "box_mode": "extremes", "legend_at_bottom": false, "fill": true, "truncate_label": null, "width": 800, "inner_radius": 0, "x_labels": ["Jan", "Feb", "Mar", "Apr", "May", "Jun", "Jul", "Aug", "Sep", "Oct", "Nov", "Dec"], "explicit_size": false, "margin_left": null, "disable_xml_declaration": false, "x_labels_major_every": null, "show_y_guides": true, "js": ["//kozea.github.io/pygal.js/2.0.x/pygal-tooltips.min.js"], "style": {"value_label_font_size": 10, "background": "black", "no_data_font_family": "Consolas, \"Liberation Mono\", Menlo, Courier, monospace", "label_font_family": "Consolas, \"Liberation Mono\", Menlo, Courier, monospace", "value_label_font_family": "Consolas, \"Liberation Mono\", Menlo, Courier, monospace", "guide_stroke_dasharray": "4,4", "tooltip_font_family": "Consolas, \"Liberation Mono\", Menlo, Courier, monospace", "foreground_strong": "#eee", "no_data_font_size": 64, "value_font_family": "Consolas, \"Liberation Mono\", Menlo, Courier, monospace", "font_family": "Consolas, \"Liberation Mono\", Menlo, Courier, monospace", "opacity": ".8", "legend_font_size": 14, "plot_background": "#111", "legend_font_family": "Consolas, \"Liberation Mono\", Menlo, Courier, monospace", "transition": "250ms", "label_font_size": 10, "major_label_font_size": 10, "foreground_subtle": "#555", "tooltip_font_size": 14, "major_label_font_family": "Consolas, \"Liberation Mono\", Menlo, Courier, monospace", "opacity_hover": ".4", "title_font_size": 16, "title_font_family": "Consolas, \"Liberation Mono\", Menlo, Courier, monospace", "foreground": "#999", "value_font_size": 16, "colors": ["#ff5995", "#b6e354", "#feed6c", "#8cedff", "#9e6ffe", "#899ca1", "#f8f8f2", "#bf4646", "#516083", "#f92672", "#82b414", "#fd971f", "#56c2d6", "#808384", "#8c54fe", "#465457"], "major_guide_stroke_dasharray": "6,6", "value_colors": []}, "y_labels_major": null, "show_y_labels": true, "interpolation_parameters": {}, "force_uri_protocol": null, "y_labels": null, "x_labels_major_count": null, "dots_size": 2.5, "print_values": false, "x_value_formatter": null, "min_scale": 4, "truncate_legend": null, "show_x_labels": true, "show_only_major_dots": false, "no_data_text": "No data", "tooltip_border_radius": 0, "tooltip_fancy_mode": true, "strict": false, "interpolation_precision": 250, "interpolate": "cubic", "half_pie": false, "x_label_rotation": 0, "show_legend": true, "x_labels_major": null, "missing_value_fill_truncation": "x", "margin": 20, "defs": [], "zero": 0, "secondary_range": null, "show_dots": true, "value_formatter": null, "stroke": true, "print_labels": false, "pretty_print": false, "stack_from_top": false, "range": null, "human_readable": false, "legends": ["Silom-Line"], "legend_box_size": 12, "css": ["file://style.css", "file://graph.css"], "margin_top": null, "rounded_bars": null, "no_prefix": false, "print_zeroes": true, "show_minor_y_labels": true, "y_labels_major_count": null, "legend_at_bottom_columns": null, "show_minor_x_labels": true, "stroke_style": null, "include_x_axis": false, "margin_bottom": null, "logarithmic": false, "height": 600, "x_title": null, "margin_right": null, "dynamic_print_values": false, "y_label_rotation": 0, "y_title": null, "max_scale": 16, "show_x_guides": false, "order_min": null, "y_labels_major_every": null, "title": "Silom-Line summary_50"}</script><script type="text/javascript" xlink:href="//kozea.github.io/pygal.js/2.0.x/pygal-tooltips.min.js" /></defs><title>Silom-Line summary_50</title><g class="graph line-graph vertical"><rect class="background" height="600" width="800" x="0" y="0" /><g class="plot" transform="translate(190, 46)"><rect class="background" height="514" width="590.0" x="0" y="0" /><g class="axis y"><path class="line" d="M0.000000 514.000000 h590.000000" /><g class="guides"><path class="guide line" d="M0.000000 455.820234 h590.000000" /><text class="" x="-5" y="459.32023409795033">2300000.0</text><title>2300000.0</title></g><g class="guides"><path class="guide line" d="M0.000000 361.542860 h590.000000" /><text class="" x="-5" y="365.0428595485189">2400000.0</text><title>2400000.0</title></g><g class="guides"><path class="major guide line" d="M0.000000 267.265485 h590.000000" /><text class="major" x="-5" y="270.76548499908756">2500000.0</text><title>2500000.0</title></g><g class="guides"><path class="guide line" d="M0.000000 172.988110 h590.000000" /><text class="" x="-5" y="176.48811044965612">2600000.0</text><title>2600000.0</title></g><g class="guides"><path class="guide line" d="M0.000000 78.710736 h590.000000" /><text class="" x="-5" y="82.21073590022473">2700000.0</text><title>2700000.0</title></g></g><g class="axis x"><g class="guides"><path class="line" d="M11.346154 0.000000 v514.000000" /><text class="" x="11.346153846153847" y="529.0">Jan</text></g><g class="guides"><path class="guide line" d="M62.919580 0.000000 v514.000000" /><text class="" x="62.91958041958042" y="529.0">Feb</text></g><g class="guides"><path class="guide line" d="M114.493007 0.000000 v514.000000" /><text class="" x="114.49300699300699" y="529.0">Mar</text></g><g class="guides"><path class="guide line" d="M166.066434 0.000000 v514.000000" /><text class="" x="166.06643356643357" y="529.0">Apr</text></g><g class="guides"><path class="guide line" d="M217.639860 0.000000 v514.000000" /><text class="" x="217.63986013986016" y="529.0">May</text></g><g class="guides"><path class="guide line" d="M269.213287 0.000000 v514.000000" /><text class="" x="269.2132867132867" y="529.0">Jun</text></g><g class="guides"><path class="guide line" d="M320.786713 0.000000 v514.000000" /><text class="" x="320.7867132867133" y="529.0">Jul</text></g><g class="guides"><path class="guide line" d="M372.360140 0.000000 v514.000000" /><text class="" x="372.36013986013984" y="529.0">Aug</text></g><g class="guides"><path class="guide line" d="M423.933566 0.000000 v514.000000" /><text class="" x="423.93356643356645" y="529.0">Sep</text></g><g class="guides"><path class="guide line" d="M475.506993 0.000000 v514.000000" /><text class="" x="475.506993006993" y="529.0">Oct</text></g><g class="guides"><path class="guide line" d="M527.080420 0.000000 v514.000000" /><text class="" x="527.0804195804195" y="529.0">Nov</text></g><g class="guides"><path class="guide line" d="M578.653846 0.000000 v514.000000" /><text class="" x="578.6538461538461" y="529.0">Dec</text></g></g><g class="series serie-0 color-0"><path class="line reactive" d="M11.346154 514.000000 L11.346154 68.340225 11.552448 69.357645 11.758741 70.375025 11.965035 71.392322 12.171329 72.409496 12.377622 73.426504 12.583916 74.443307 12.790210 75.459863 12.996503 76.476130 13.202797 77.492068 13.409091 78.507635 13.615385 79.522789 13.821678 80.537491 14.027972 81.551698 14.234266 82.565370 14.440559 83.578465 14.646853 84.590942 14.853147 85.602760 15.059441 86.613878 15.265734 87.624254 15.472028 88.633847 15.678322 89.642617 15.884615 90.650521 16.090909 91.657519 16.297203 92.663569 16.503497 93.668630 16.709790 94.672662 16.916084 95.675623 17.122378 96.677471 17.328671 97.678166 17.534965 98.677666 17.741259 99.675930 17.947552 100.672917 18.153846 101.668585 18.360140 102.662894 18.566434 103.655803 18.772727 104.647269 18.979021 105.637253 19.185315 106.625712 19.391608 107.612606 19.597902 108.597893 19.804196 109.581532 20.010490 110.563482 20.216783 111.543701 20.423077 112.522150 20.629371 113.498785 20.835664 114.473567 21.041958 115.446454 21.248252 116.417404 21.454545 117.386377 21.660839 118.353331 21.867133 119.318225 22.073427 120.281019 22.279720 121.241670 22.486014 122.200138 22.692308 123.156381 22.898601 124.110358 23.104895 125.062028 23.311189 126.011350 23.517483 126.958282 23.723776 127.902784 23.930070 128.844814 24.136364 129.784331 24.342657 130.721294 24.548951 131.655661 24.755245 132.587392 24.961538 133.516445 25.167832 134.442778 25.374126 135.366352 25.580420 136.287124 25.786713 137.205054 25.993007 138.120100 26.199301 139.032221 26.405594 139.941375 26.611888 140.847523 26.818182 141.750621 27.024476 142.650630 27.230769 143.547508 27.437063 144.441214 27.643357 145.331706 27.849650 146.218944 28.055944 147.102886 28.262238 147.983491 28.468531 148.860718 28.674825 149.734526 28.881119 150.604873 29.087413 151.471718 29.293706 152.335020 29.500000 153.194738 29.706294 154.050831 29.912587 154.903257 30.118881 155.751976 30.325175 156.596945 30.531469 157.438125 30.737762 158.275473 30.944056 159.108948 31.150350 159.938510 31.356643 160.764117 31.562937 161.585728 31.769231 162.403301 31.975524 163.216796 32.181818 164.026171 32.388112 164.831386 32.594406 165.632398 32.800699 166.429167 33.006993 167.221651 33.213287 168.009810 33.419580 168.793602 33.625874 169.572985 33.832168 170.347920 34.038462 171.118364 34.244755 171.884276 34.451049 172.645615 34.657343 173.402341 34.863636 174.154411 35.069930 174.901784 35.276224 175.644420 35.482517 176.382277 35.688811 177.115314 35.895105 177.843490 36.101399 178.566763 36.307692 179.285092 36.513986 179.998437 36.720280 180.706756 36.926573 181.410007 37.132867 182.108150 37.339161 182.801143 37.545455 183.488946 37.751748 184.171516 37.958042 184.848814 38.164336 185.520796 38.370629 186.187424 38.576923 186.848654 38.783217 187.504446 38.989510 188.154759 39.195804 188.799552 39.402098 189.438783 39.608392 190.072411 39.814685 190.700396 40.020979 191.322695 40.227273 191.939267 40.433566 192.550072 40.639860 193.155069 40.846154 193.754215 41.052448 194.347470 41.258741 194.934793 41.465035 195.516142 41.671329 196.091476 41.877622 196.660754 42.083916 197.223936 42.290210 197.780978 42.496503 198.331842 42.702797 198.876484 42.909091 199.414865 43.115385 199.946942 43.321678 200.472675 43.527972 200.992022 43.734266 201.504943 43.940559 202.011396 44.146853 202.511339 44.353147 203.004732 44.559441 203.491534 44.765734 203.971703 44.972028 204.445198 45.178322 204.911978 45.384615 205.372001 45.590909 205.825228 45.797203 206.271615 46.003497 206.711122 46.209790 207.143708 46.416084 207.569332 46.622378 207.987953 46.828671 208.399529 47.034965 208.804018 47.241259 209.201381 47.447552 209.591575 47.653846 209.974560 47.860140 210.350295 48.066434 210.718737 48.272727 211.079846 48.479021 211.433581 48.685315 211.779901 48.891608 212.118763 49.097902 212.450128 49.304196 212.773954 49.510490 213.090200 49.716783 213.398824 49.923077 213.699785 50.129371 213.993043 50.335664 214.278555 50.541958 214.556282 50.748252 214.826180 50.954545 215.088210 51.160839 215.342331 51.367133 215.588500 51.573427 215.826677 51.779720 216.056821 51.986014 216.278889 52.192308 216.492843 52.398601 216.698639 52.604895 216.896236 52.811189 217.085595 53.017483 217.266673 53.223776 217.439429 53.430070 217.603821 53.636364 217.759810 53.842657 217.907354 54.048951 218.046410 54.255245 218.176939 54.461538 218.298899 54.667832 218.412249 54.874126 218.516947 55.080420 218.612953 55.286713 218.700225 55.493007 218.778722 55.699301 218.848402 55.905594 218.909226 56.111888 218.961150 56.318182 219.004135 56.524476 219.038139 56.730769 219.063121 56.937063 219.079040 57.143357 219.085854 57.349650 219.083522 57.555944 219.072003 57.762238 219.051256 57.968531 219.021240 58.174825 218.981913 58.381119 218.933234 58.587413 218.875163 58.793706 218.807657 59.000000 218.730676 59.206294 218.644178 59.412587 218.548123 59.618881 218.442469 59.825175 218.327174 60.031469 218.202199 60.237762 218.067500 60.444056 217.923038 60.650350 217.768771 60.856643 217.604659 61.062937 217.430658 61.269231 217.246729 61.475524 217.052831 61.681818 216.848921 61.888112 216.634960 62.094406 216.410905 62.300699 216.176716 62.506993 215.932351 62.713287 215.677769 62.919580 215.412929 63.125874 215.137816 63.332168 214.852521 63.538462 214.557160 63.744755 214.251851 63.951049 213.936710 64.157343 213.611855 64.363636 213.277402 64.569930 212.933468 64.776224 212.580170 64.982517 212.217625 65.188811 211.845951 65.395105 211.465263 65.601399 211.075679 65.807692 210.677316 66.013986 210.270290 66.220280 209.854719 66.426573 209.430720 66.632867 208.998409 66.839161 208.557904 67.045455 208.109321 67.251748 207.652777 67.458042 207.188389 67.664336 206.716275 67.870629 206.236551 68.076923 205.749333 68.283217 205.254740 68.489510 204.752887 68.695804 204.243892 68.902098 203.727872 69.108392 203.204943 69.314685 202.675223 69.520979 202.138828 69.727273 201.595876 69.933566 201.046483 70.139860 200.490766 70.346154 199.928843 70.552448 199.360830 70.758741 198.786843 70.965035 198.207001 71.171329 197.621419 71.377622 197.030216 71.583916 196.433507 71.790210 195.831409 71.996503 195.224041 72.202797 194.611518 72.409091 193.993957 72.615385 193.371476 72.821678 192.744191 73.027972 192.112219 73.234266 191.475677 73.440559 190.834683 73.646853 190.189352 73.853147 189.539803 74.059441 188.886151 74.265734 188.228514 74.472028 187.567009 74.678322 186.901753 74.884615 186.232862 75.090909 185.560453 75.297203 184.884644 75.503497 184.205552 75.709790 183.523292 75.916084 182.837983 76.122378 182.149742 76.328671 181.458684 76.534965 180.764927 76.741259 180.068588 76.947552 179.369784 77.153846 178.668632 77.360140 177.965248 77.566434 177.259750 77.772727 176.552255 77.979021 175.842879 78.185315 175.131739 78.391608 174.418953 78.597902 173.704638 78.804196 172.988909 79.010490 172.271885 79.216783 171.553681 79.423077 170.834416 79.629371 170.114205 79.835664 169.393167 80.041958 168.671417 80.248252 167.949073 80.454545 167.226251 80.660839 166.503069 80.867133 165.779643 81.073427 165.056091 81.279720 164.332529 81.486014 163.609075 81.692308 162.885845 81.898601 162.162955 82.104895 161.440524 82.311189 160.718668 82.517483 159.997504 82.723776 159.277148 82.930070 158.557719 83.136364 157.839332 83.342657 157.122104 83.548951 156.406153 83.755245 155.691596 83.961538 154.978549 84.167832 154.267129 84.374126 153.557454 84.580420 152.849639 84.786713 152.143803 84.993007 151.440062 85.199301 150.738533 85.405594 150.039332 85.611888 149.342578 85.818182 148.648386 86.024476 147.956874 86.230769 147.268159 86.437063 146.582357 86.643357 145.899585 86.849650 145.219961 87.055944 144.543601 87.262238 143.870622 87.468531 143.201142 87.674825 142.535277 87.881119 141.873143 88.087413 141.214859 88.293706 140.560540 88.500000 139.910305 88.706294 139.264269 88.912587 138.622549 89.118881 137.985263 89.325175 137.352528 89.531469 136.724460 89.737762 136.101177 89.944056 135.482795 90.150350 134.869431 90.356643 134.261202 90.562937 133.658225 90.769231 133.060617 90.975524 132.468495 91.181818 131.881976 91.388112 131.301177 91.594406 130.726215 91.800699 130.157206 92.006993 129.594268 92.213287 129.037517 92.419580 128.487070 92.625874 127.943045 92.832168 127.405559 93.038462 126.874727 93.244755 126.350668 93.451049 125.833497 93.657343 125.323333 93.863636 124.820291 94.069930 124.324490 94.276224 123.836045 94.482517 123.355074 94.688811 122.881693 94.895105 122.416020 95.101399 121.958171 95.307692 121.508264 95.513986 121.066415 95.720280 120.632742 95.926573 120.207361 96.132867 119.790388 96.339161 119.381942 96.545455 118.982139 96.751748 118.591096 96.958042 118.208929 97.164336 117.835756 97.370629 117.471694 97.576923 117.116860 97.783217 116.771370 97.989510 116.435341 98.195804 116.108891 98.402098 115.792136 98.608392 115.485194 98.814685 115.188180 99.020979 114.901213 99.227273 114.624409 99.433566 114.357885 99.639860 114.101757 99.846154 113.856144 100.052448 113.621161 100.258741 113.396925 100.465035 113.183555 100.671329 112.981166 100.877622 112.789875 101.083916 112.609800 101.290210 112.441057 101.496503 112.283763 101.702797 112.138035 101.909091 112.003991 102.115385 111.881746 102.321678 111.771419 102.527972 111.673125 102.734266 111.586982 102.940559 111.513107 103.146853 111.451617 103.353147 111.402628 103.559441 111.366257 103.765734 111.342622 103.972028 111.331839 104.178322 111.334026 104.384615 111.349299 104.590909 111.377775 104.797203 111.419571 105.003497 111.474804 105.209790 111.543591 105.416084 111.626049 105.622378 111.722294 105.828671 111.832444 106.034965 111.956616 106.241259 112.094927 106.447552 112.247493 106.653846 112.414431 106.860140 112.595859 107.066434 112.791893 107.272727 113.002650 107.479021 113.228247 107.685315 113.468802 107.891608 113.724430 108.097902 113.995249 108.304196 114.281376 108.510490 114.582928 108.716783 114.900022 108.923077 115.232774 109.129371 115.581301 109.335664 115.945722 109.541958 116.326151 109.748252 116.722707 109.954545 117.135506 110.160839 117.564666 110.367133 118.010302 110.573427 118.472532 110.779720 118.951474 110.986014 119.447243 111.192308 119.959957 111.398601 120.489733 111.604895 121.036688 111.811189 121.600938 112.017483 122.182601 112.223776 122.781793 112.430070 123.398631 112.636364 124.033233 112.842657 124.685715 113.048951 125.356195 113.255245 126.044788 113.461538 126.751612 113.667832 127.476785 113.874126 128.220422 114.080420 128.982641 114.286713 129.763559 114.493007 130.563292 114.699301 131.381911 114.905594 132.219300 115.111888 133.075295 115.318182 133.949732 115.524476 134.842450 115.730769 135.753284 115.937063 136.682071 116.143357 137.628649 116.349650 138.592853 116.555944 139.574521 116.762238 140.573490 116.968531 141.589595 117.174825 142.622675 117.381119 143.672566 117.587413 144.739104 117.793706 145.822127 118.000000 146.921471 118.206294 148.036972 118.412587 149.168469 118.618881 150.315797 118.825175 151.478794 119.031469 152.657295 119.237762 153.851139 119.444056 155.060161 119.650350 156.284199 119.856643 157.523089 120.062937 158.776668 120.269231 160.044773 120.475524 161.327241 120.681818 162.623908 120.888112 163.934611 121.094406 165.259188 121.300699 166.597474 121.506993 167.949307 121.713287 169.314523 121.919580 170.692959 122.125874 172.084452 122.332168 173.488839 122.538462 174.905957 122.744755 176.335642 122.951049 177.777731 123.157343 179.232061 123.363636 180.698468 123.569930 182.176790 123.776224 183.666863 123.982517 185.168525 124.188811 186.681611 124.395105 188.205959 124.601399 189.741405 124.807692 191.287786 125.013986 192.844940 125.220280 194.412702 125.426573 195.990910 125.632867 197.579400 125.839161 199.178009 126.045455 200.786574 126.251748 202.404932 126.458042 204.032920 126.664336 205.670373 126.870629 207.317130 127.076923 208.973027 127.283217 210.637900 127.489510 212.311587 127.695804 213.993924 127.902098 215.684748 128.108392 217.383896 128.314685 219.091204 128.520979 220.806510 128.727273 222.529650 128.933566 224.260461 129.139860 225.998780 129.346154 227.744443 129.552448 229.497288 129.758741 231.257151 129.965035 233.023868 130.171329 234.797278 130.377622 236.577215 130.583916 238.363518 130.790210 240.156024 130.996503 241.954568 131.202797 243.758987 131.409091 245.569119 131.615385 247.384800 131.821678 249.205868 132.027972 251.032158 132.234266 252.863507 132.440559 254.699753 132.646853 256.540732 132.853147 258.386281 133.059441 260.236237 133.265734 262.090437 133.472028 263.948716 133.678322 265.810913 133.884615 267.676863 134.090909 269.546405 134.297203 271.419373 134.503497 273.295606 134.709790 275.174940 134.916084 277.057212 135.122378 278.942258 135.328671 280.829916 135.534965 282.720022 135.741259 284.612413 135.947552 286.506926 136.153846 288.403397 136.360140 290.301664 136.566434 292.201562 136.772727 294.102930 136.979021 296.005603 137.185315 297.909419 137.391608 299.814214 137.597902 301.719825 137.804196 303.626089 138.010490 305.532843 138.216783 307.439923 138.423077 309.347167 138.629371 311.254410 138.835664 313.161490 139.041958 315.068244 139.248252 316.974508 139.454545 318.880119 139.660839 320.784914 139.867133 322.688730 140.073427 324.591403 140.279720 326.492771 140.486014 328.392670 140.692308 330.290937 140.898601 332.187408 141.104895 334.081921 141.311189 335.974312 141.517483 337.864418 141.723776 339.752076 141.930070 341.637123 142.136364 343.519394 142.342657 345.398729 142.548951 347.274962 142.755245 349.147931 142.961538 351.017472 143.167832 352.883423 143.374126 354.745620 143.580420 356.603900 143.786713 358.458099 143.993007 360.308055 144.199301 362.153605 144.405594 363.994584 144.611888 365.830830 144.818182 367.662180 145.024476 369.488471 145.230769 371.309538 145.437063 373.125220 145.643357 374.935352 145.849650 376.739772 146.055944 378.538317 146.262238 380.330822 146.468531 382.117126 146.674825 383.897064 146.881119 385.670474 147.087413 387.437192 147.293706 389.197055 147.500000 390.949900 147.706294 392.695564 147.912587 394.433883 148.118881 396.164694 148.325175 397.887835 148.531469 399.603141 148.737762 401.310450 148.944056 403.009599 149.150350 404.700423 149.356643 406.382761 149.562937 408.056448 149.769231 409.721322 149.975524 411.377219 150.181818 413.023977 150.388112 414.661431 150.594406 416.289419 150.800699 417.907778 151.006993 419.516344 151.213287 421.114953 151.419580 422.703444 151.625874 424.281653 151.832168 425.849416 152.038462 427.406570 152.244755 428.952952 152.451049 430.488399 152.657343 432.012747 152.863636 433.525834 153.069930 435.027496 153.276224 436.517570 153.482517 437.995893 153.688811 439.462301 153.895105 440.916632 154.101399 442.358722 154.307692 443.788408 154.513986 445.205526 154.720280 446.609914 154.926573 448.001408 155.132867 449.379845 155.339161 450.745062 155.545455 452.096896 155.751748 453.435183 155.958042 454.759760 156.164336 456.070464 156.370629 457.367132 156.576923 458.649601 156.783217 459.917707 156.989510 461.171287 157.195804 462.410178 157.402098 463.634217 157.608392 464.843240 157.814685 466.037084 158.020979 467.215587 158.227273 468.378585 158.433566 469.525914 158.639860 470.657411 158.846154 471.772914 159.052448 472.872259 159.258741 473.955283 159.465035 475.021822 159.671329 476.071714 159.877622 477.104795 160.083916 478.120902 160.290210 479.119871 160.496503 480.101540 160.702797 481.065746 160.909091 482.012324 161.115385 482.941113 161.321678 483.851948 161.527972 484.744667 161.734266 485.619106 161.940559 486.475102 162.146853 487.312492 162.353147 488.131112 162.559441 488.930800 162.765734 489.711392 162.972028 490.472725 163.178322 491.214636 163.384615 491.936962 163.590909 492.639539 163.797203 493.322204 164.003497 493.984794 164.209790 494.627145 164.416084 495.249096 164.622378 495.850481 164.828671 496.431139 165.034965 496.990905 165.241259 497.529617 165.447552 498.047112 165.653846 498.543226 165.860140 499.017796 166.066434 499.470659 166.272727 499.901698 166.479021 500.310988 166.685315 500.698648 166.891608 501.064800 167.097902 501.409564 167.304196 501.733060 167.510490 502.035410 167.716783 502.316732 167.923077 502.577149 168.129371 502.816781 168.335664 503.035748 168.541958 503.234171 168.748252 503.412170 168.954545 503.569867 169.160839 503.707380 169.367133 503.824832 169.573427 503.922343 169.779720 504.000033 169.986014 504.058023 170.192308 504.096433 170.398601 504.115385 170.604895 504.114997 170.811189 504.095392 171.017483 504.056690 171.223776 503.999011 171.430070 503.922476 171.636364 503.827205 171.842657 503.713319 172.048951 503.580938 172.255245 503.430184 172.461538 503.261176 172.667832 503.074036 172.874126 502.868884 173.080420 502.645839 173.286713 502.405024 173.493007 502.146558 173.699301 501.870563 173.905594 501.577158 174.111888 501.266464 174.318182 500.938602 174.524476 500.593692 174.730769 500.231856 174.937063 499.853213 175.143357 499.457883 175.349650 499.045989 175.555944 498.617650 175.762238 498.172986 175.968531 497.712119 176.174825 497.235169 176.381119 496.742256 176.587413 496.233501 176.793706 495.709025 177.000000 495.168948 177.206294 494.613391 177.412587 494.042474 177.618881 493.456318 177.825175 492.855043 178.031469 492.238771 178.237762 491.607621 178.444056 490.961714 178.650350 490.301171 178.856643 489.626113 179.062937 488.936659 179.269231 488.232930 179.475524 487.515048 179.681818 486.783132 179.888112 486.037303 180.094406 485.277683 180.300699 484.504390 180.506993 483.717546 180.713287 482.917272 180.919580 482.103687 181.125874 481.276913 181.332168 480.437071 181.538462 479.584280 181.744755 478.718661 181.951049 477.840335 182.157343 476.949423 182.363636 476.046044 182.569930 475.130320 182.776224 474.202371 182.982517 473.262318 183.188811 472.310281 183.395105 471.346381 183.601399 470.370738 183.807692 469.383473 184.013986 468.384707 184.220280 467.374560 184.426573 466.353152 184.632867 465.320605 184.839161 464.277038 185.045455 463.222573 185.251748 462.157330 185.458042 461.081429 185.664336 459.994991 185.870629 458.898137 186.076923 457.790987 186.283217 456.673662 186.489510 455.546283 186.695804 454.408969 186.902098 453.261842 187.108392 452.105021 187.314685 450.938629 187.520979 449.762784 187.727273 448.577609 187.933566 447.383222 188.139860 446.179746 188.346154 444.967300 188.552448 443.746005 188.758741 442.515981 188.965035 441.277350 189.171329 440.030232 189.377622 438.774747 189.583916 437.511015 189.790210 436.239158 189.996503 434.959297 190.202797 433.671550 190.409091 432.376040 190.615385 431.072887 190.821678 429.762211 191.027972 428.444133 191.234266 427.118773 191.440559 425.786252 191.646853 424.446691 191.853147 423.100210 192.059441 421.746929 192.265734 420.386970 192.472028 419.020453 192.678322 417.647498 192.884615 416.268226 193.090909 414.882758 193.297203 413.491213 193.503497 412.093714 193.709790 410.690380 193.916084 409.281331 194.122378 407.866689 194.328671 406.446574 194.534965 405.021106 194.741259 403.590407 194.947552 402.154596 195.153846 400.713794 195.360140 399.268122 195.566434 397.817701 195.772727 396.362650 195.979021 394.903091 196.185315 393.439144 196.391608 391.970930 196.597902 390.498569 196.804196 389.022181 197.010490 387.541889 197.216783 386.057810 197.423077 384.570068 197.629371 383.078781 197.835664 381.584072 198.041958 380.086059 198.248252 378.584864 198.454545 377.080607 198.660839 375.573410 198.867133 374.063391 199.073427 372.550673 199.279720 371.035376 199.486014 369.517619 199.692308 367.997525 199.898601 366.475212 200.104895 364.950803 200.311189 363.424417 200.517483 361.896175 200.723776 360.366197 200.930070 358.834605 201.136364 357.301519 201.342657 355.767058 201.548951 354.231345 201.755245 352.694499 201.961538 351.156641 202.167832 349.617892 202.374126 348.078371 202.580420 346.538201 202.786713 344.997501 202.993007 343.456391 203.199301 341.914993 203.405594 340.373427 203.611888 338.831814 203.818182 337.290273 204.024476 335.748927 204.230769 334.207894 204.437063 332.667297 204.643357 331.127254 204.849650 329.587888 205.055944 328.049319 205.262238 326.511666 205.468531 324.975051 205.674825 323.439594 205.881119 321.905416 206.087413 320.372638 206.293706 318.841379 206.500000 317.311761 206.706294 315.783904 206.912587 314.257929 207.118881 312.733956 207.325175 311.212105 207.531469 309.692499 207.737762 308.175255 207.944056 306.660497 208.150350 305.148343 208.356643 303.638916 208.562937 302.132334 208.769231 300.628719 208.975524 299.128191 209.181818 297.630872 209.388112 296.136881 209.594406 294.646338 209.800699 293.159366 210.006993 291.676084 210.213287 290.196612 210.419580 288.721072 210.625874 287.249583 210.832168 285.782267 211.038462 284.319244 211.244755 282.860635 211.451049 281.406560 211.657343 279.957139 211.863636 278.512494 212.069930 277.072745 212.276224 275.638012 212.482517 274.208416 212.688811 272.784078 212.895105 271.365118 213.101399 269.951657 213.307692 268.543814 213.513986 267.141712 213.720280 265.745470 213.926573 264.355209 214.132867 262.971050 214.339161 261.593113 214.545455 260.221518 214.751748 258.856387 214.958042 257.497840 215.164336 256.145997 215.370629 254.800979 215.576923 253.462906 215.783217 252.131900 215.989510 250.808080 216.195804 249.491568 216.402098 248.182483 216.608392 246.880947 216.814685 245.587079 217.020979 244.301001 217.227273 243.022834 217.433566 241.752697 217.639860 240.490711 217.846154 239.236972 218.052448 237.991477 218.258741 236.754198 218.465035 235.525106 218.671329 234.304175 218.877622 233.091376 219.083916 231.886681 219.290210 230.690062 219.496503 229.501491 219.702797 228.320940 219.909091 227.148381 220.115385 225.983787 220.321678 224.827129 220.527972 223.678379 220.734266 222.537509 220.940559 221.404492 221.146853 220.279300 221.353147 219.161904 221.559441 218.052276 221.765734 216.950389 221.972028 215.856215 222.178322 214.769725 222.384615 213.690892 222.590909 212.619688 222.797203 211.556085 223.003497 210.500054 223.209790 209.451568 223.416084 208.410600 223.622378 207.377120 223.828671 206.351101 224.034965 205.332515 224.241259 204.321334 224.447552 203.317531 224.653846 202.321076 224.860140 201.331943 225.066434 200.350103 225.272727 199.375528 225.479021 198.408190 225.685315 197.448062 225.891608 196.495116 226.097902 195.549322 226.304196 194.610655 226.510490 193.679085 226.716783 192.754584 226.923077 191.837125 227.129371 190.926679 227.335664 190.023220 227.541958 189.126718 227.748252 188.237146 227.954545 187.354475 228.160839 186.478679 228.367133 185.609728 228.573427 184.747596 228.779720 183.892253 228.986014 183.043672 229.192308 182.201826 229.398601 181.366685 229.604895 180.538223 229.811189 179.716411 230.017483 178.901221 230.223776 178.092626 230.430070 177.290596 230.636364 176.495105 230.842657 175.706125 231.048951 174.923627 231.255245 174.147583 231.461538 173.377966 231.667832 172.614748 231.874126 171.857900 232.080420 171.107394 232.286713 170.363204 232.493007 169.625300 232.699301 168.893655 232.905594 168.168241 233.111888 167.449029 233.318182 166.735993 233.524476 166.029103 233.730769 165.328333 233.937063 164.633653 234.143357 163.945037 234.349650 163.262455 234.555944 162.585881 234.762238 161.915286 234.968531 161.250642 235.174825 160.591922 235.381119 159.939096 235.587413 159.292139 235.793706 158.651020 236.000000 158.015713 236.206294 157.386189 236.412587 156.762421 236.618881 156.144381 236.825175 155.532040 237.031469 154.925371 237.237762 154.324345 237.444056 153.728935 237.650350 153.139113 237.856643 152.554851 238.062937 151.976120 238.269231 151.402894 238.475524 150.835143 238.681818 150.272840 238.888112 149.715958 239.094406 149.164467 239.300699 148.618341 239.506993 148.077550 239.713287 147.542068 239.919580 147.011866 240.125874 146.486917 240.332168 145.967191 240.538462 145.452662 240.744755 144.943301 240.951049 144.439081 241.157343 143.939973 241.363636 143.445950 241.569930 142.956984 241.776224 142.473045 241.982517 141.994108 242.188811 141.520143 242.395105 141.051123 242.601399 140.587020 242.807692 140.127805 243.013986 139.673452 243.220280 139.223931 243.426573 138.779215 243.632867 138.339276 243.839161 137.904086 244.045455 137.473617 244.251748 137.047842 244.458042 136.626731 244.664336 136.210258 244.870629 135.798393 245.076923 135.391110 245.283217 134.988381 245.489510 134.590176 245.695804 134.196469 245.902098 133.807232 246.108392 133.422436 246.314685 133.042053 246.520979 132.666056 246.727273 132.294417 246.933566 131.927107 247.139860 131.564099 247.346154 131.205365 247.552448 130.850876 247.758741 130.500605 247.965035 130.154524 248.171329 129.812605 248.377622 129.474820 248.583916 129.141140 248.790210 128.811539 248.996503 128.485988 249.202797 128.164459 249.409091 127.846924 249.615385 127.533355 249.821678 127.223724 250.027972 126.918004 250.234266 126.616166 250.440559 126.318182 250.646853 126.024024 250.853147 125.733665 251.059441 125.447077 251.265734 125.164231 251.472028 124.885099 251.678322 124.609654 251.884615 124.337868 252.090909 124.069712 252.297203 123.805160 252.503497 123.544181 252.709790 123.286750 252.916084 123.032837 253.122378 122.782416 253.328671 122.535457 253.534965 122.291933 253.741259 122.051816 253.947552 121.815078 254.153846 121.581692 254.360140 121.351628 254.566434 121.124860 254.772727 120.901358 254.979021 120.681096 255.185315 120.464046 255.391608 120.250178 255.597902 120.039466 255.804196 119.831882 256.010490 119.627397 256.216783 119.425983 256.423077 119.227613 256.629371 119.032258 256.835664 118.839891 257.041958 118.650484 257.248252 118.464008 257.454545 118.280437 257.660839 118.099741 257.867133 117.921892 258.073427 117.746864 258.279720 117.574627 258.486014 117.405155 258.692308 117.238418 258.898601 117.074390 259.104895 116.913041 259.311189 116.754345 259.517483 116.598273 259.723776 116.444797 259.930070 116.293889 260.136364 116.145522 260.342657 115.999667 260.548951 115.856296 260.755245 115.715381 260.961538 115.576895 261.167832 115.440810 261.374126 115.307097 261.580420 115.175729 261.786713 115.046677 261.993007 114.919914 262.199301 114.795411 262.405594 114.673142 262.611888 114.553077 262.818182 114.435189 263.024476 114.319450 263.230769 114.205831 263.437063 114.094306 263.643357 113.984845 263.849650 113.877422 264.055944 113.772008 264.262238 113.668575 264.468531 113.567095 264.674825 113.467540 264.881119 113.369882 265.087413 113.274094 265.293706 113.180147 265.500000 113.088013 265.706294 112.997665 265.912587 112.909074 266.118881 112.822212 266.325175 112.737052 266.531469 112.653566 266.737762 112.571725 266.944056 112.491502 267.150350 112.412869 267.356643 112.335797 267.562937 112.260259 267.769231 112.186227 267.975524 112.113673 268.181818 112.042569 268.388112 111.972886 268.594406 111.904598 268.800699 111.837676 269.006993 111.772091 269.213287 111.707817 269.419580 111.644826 269.625874 111.583100 269.832168 111.522619 270.038462 111.463365 270.244755 111.405319 270.451049 111.348465 270.657343 111.292782 270.863636 111.238253 271.069930 111.184860 271.276224 111.132584 271.482517 111.081407 271.688811 111.031310 271.895105 110.982276 272.101399 110.934286 272.307692 110.887321 272.513986 110.841363 272.720280 110.796394 272.926573 110.752396 273.132867 110.709350 273.339161 110.667238 273.545455 110.626041 273.751748 110.585742 273.958042 110.546321 274.164336 110.507762 274.370629 110.470044 274.576923 110.433150 274.783217 110.397062 274.989510 110.361762 275.195804 110.327230 275.402098 110.293449 275.608392 110.260400 275.814685 110.228065 276.020979 110.196426 276.227273 110.165464 276.433566 110.135162 276.639860 110.105499 276.846154 110.076459 277.052448 110.048024 277.258741 110.020173 277.465035 109.992891 277.671329 109.966157 277.877622 109.939954 278.083916 109.914263 278.290210 109.889066 278.496503 109.864345 278.702797 109.840082 278.909091 109.816257 279.115385 109.792853 279.321678 109.769852 279.527972 109.747234 279.734266 109.724983 279.940559 109.703079 280.146853 109.681503 280.353147 109.660239 280.559441 109.639267 280.765734 109.618569 280.972028 109.598127 281.178322 109.577923 281.384615 109.557937 281.590909 109.538152 281.797203 109.518550 282.003497 109.499112 282.209790 109.479820 282.416084 109.460655 282.622378 109.441599 282.828671 109.422634 283.034965 109.403742 283.241259 109.384904 283.447552 109.366101 283.653846 109.347316 283.860140 109.328531 284.066434 109.309726 284.272727 109.290884 284.479021 109.271986 284.685315 109.253013 284.891608 109.233949 285.097902 109.214773 285.304196 109.195469 285.510490 109.176017 285.716783 109.156399 285.923077 109.136597 286.129371 109.116593 286.335664 109.096368 286.541958 109.075903 286.748252 109.055182 286.954545 109.034185 287.160839 109.012893 287.367133 108.991289 287.573427 108.969355 287.779720 108.947071 287.986014 108.924421 288.192308 108.901384 288.398601 108.877943 288.604895 108.854080 288.811189 108.829777 289.017483 108.805014 289.223776 108.779774 289.430070 108.754038 289.636364 108.727788 289.842657 108.701006 290.048951 108.673674 290.255245 108.645772 290.461538 108.617283 290.667832 108.588188 290.874126 108.558470 291.080420 108.528109 291.286713 108.497087 291.493007 108.465387 291.699301 108.432989 291.905594 108.399875 292.111888 108.366028 292.318182 108.331429 292.524476 108.296058 292.730769 108.259899 292.937063 108.222933 293.143357 108.185141 293.349650 108.146505 293.555944 108.107007 293.762238 108.066628 293.968531 108.025351 294.174825 107.983156 294.381119 107.940026 294.587413 107.895942 294.793706 107.850885 295.000000 107.804839 295.206294 107.757783 295.412587 107.709700 295.618881 107.660571 295.825175 107.610379 296.031469 107.559105 296.237762 107.506730 296.444056 107.453236 296.650350 107.398605 296.856643 107.342819 297.062937 107.285858 297.269231 107.227706 297.475524 107.168343 297.681818 107.107752 297.888112 107.045913 298.094406 106.982809 298.300699 106.918421 298.506993 106.852731 298.713287 106.785720 298.919580 106.717371 299.125874 106.647665 299.332168 106.576583 299.538462 106.504108 299.744755 106.430220 299.951049 106.354902 300.157343 106.278135 300.363636 106.199902 300.569930 106.120182 300.776224 106.038960 300.982517 105.956215 301.188811 105.871929 301.395105 105.786085 301.601399 105.698664 301.807692 105.609648 302.013986 105.519018 302.220280 105.426756 302.426573 105.332844 302.632867 105.237263 302.839161 105.139995 303.045455 105.041021 303.251748 104.940324 303.458042 104.837885 303.664336 104.733686 303.870629 104.627708 304.076923 104.519933 304.283217 104.410343 304.489510 104.298920 304.695804 104.185644 304.902098 104.070498 305.108392 103.953463 305.314685 103.834522 305.520979 103.713655 305.727273 103.590845 305.933566 103.466072 306.139860 103.339320 306.346154 103.210569 306.552448 103.079801 306.758741 102.946998 306.965035 102.812141 307.171329 102.675212 307.377622 102.536194 307.583916 102.395066 307.790210 102.251812 307.996503 102.106413 308.202797 101.958850 308.409091 101.809105 308.615385 101.657160 308.821678 101.502997 309.027972 101.346596 309.234266 101.187941 309.440559 101.027012 309.646853 100.863791 309.853147 100.698260 310.059441 100.530401 310.265734 100.360195 310.472028 100.187623 310.678322 100.012669 310.884615 99.835312 311.090909 99.655536 311.297203 99.473321 311.503497 99.288649 311.709790 99.101502 311.916084 98.911861 312.122378 98.719709 312.328671 98.525027 312.534965 98.327796 312.741259 98.127999 312.947552 97.925617 313.153846 97.720631 313.360140 97.513023 313.566434 97.302776 313.772727 97.089870 313.979021 96.874287 314.185315 96.656010 314.391608 96.435019 314.597902 96.211296 314.804196 95.984823 315.010490 95.755582 315.216783 95.523554 315.423077 95.288722 315.629371 95.051066 315.835664 94.810568 316.041958 94.567210 316.248252 94.320974 316.454545 94.071841 316.660839 93.819794 316.867133 93.564813 317.073427 93.306880 317.279720 93.045978 317.486014 92.782087 317.692308 92.515190 317.898601 92.245267 318.104895 91.972302 318.311189 91.696275 318.517483 91.417168 318.723776 91.134962 318.930070 90.849640 319.136364 90.561184 319.342657 90.269574 319.548951 89.974792 319.755245 89.676821 319.961538 89.375641 320.167832 89.071235 320.374126 88.763583 320.580420 88.452669 320.786713 88.138473 320.993007 87.820989 321.199301 87.500252 321.405594 87.176310 321.611888 86.849210 321.818182 86.519001 322.024476 86.185729 322.230769 85.849442 322.437063 85.510187 322.643357 85.168013 322.849650 84.822966 323.055944 84.475094 323.262238 84.124444 323.468531 83.771064 323.674825 83.415001 323.881119 83.056303 324.087413 82.695017 324.293706 82.331191 324.500000 81.964873 324.706294 81.596108 324.912587 81.224947 325.118881 80.851434 325.325175 80.475619 325.531469 80.097548 325.737762 79.717270 325.944056 79.334830 326.150350 78.950278 326.356643 78.563661 326.562937 78.175025 326.769231 77.784418 326.975524 77.391889 327.181818 76.997484 327.388112 76.601250 327.594406 76.203236 327.800699 75.803489 328.006993 75.402056 328.213287 74.998985 328.419580 74.594323 328.625874 74.188118 328.832168 73.780416 329.038462 73.371267 329.244755 72.960716 329.451049 72.548812 329.657343 72.135602 329.863636 71.721134 330.069930 71.305454 330.276224 70.888611 330.482517 70.470652 330.688811 70.051625 330.895105 69.631576 331.101399 69.210553 331.307692 68.788605 331.513986 68.365777 331.720280 67.942119 331.926573 67.517677 332.132867 67.092498 332.339161 66.666631 332.545455 66.240122 332.751748 65.813019 332.958042 65.385370 333.164336 64.957223 333.370629 64.528623 333.576923 64.099620 333.783217 63.670260 333.989510 63.240591 334.195804 62.810661 334.402098 62.380517 334.608392 61.950206 334.814685 61.519776 335.020979 61.089274 335.227273 60.658748 335.433566 60.228245 335.639860 59.797813 335.846154 59.367500 336.052448 58.937352 336.258741 58.507417 336.465035 58.077743 336.671329 57.648377 336.877622 57.219367 337.083916 56.790760 337.290210 56.362603 337.496503 55.934944 337.702797 55.507831 337.909091 55.081311 338.115385 54.655431 338.321678 54.230240 338.527972 53.805783 338.734266 53.382110 338.940559 52.959267 339.146853 52.537301 339.353147 52.116261 339.559441 51.696194 339.765734 51.277147 339.972028 50.859168 340.178322 50.442304 340.384615 50.026602 340.590909 49.612111 340.797203 49.198877 341.003497 48.786949 341.209790 48.376373 341.416084 47.967197 341.622378 47.559468 341.828671 47.153235 342.034965 46.748544 342.241259 46.345442 342.447552 45.943979 342.653846 45.544200 342.860140 45.146153 343.066434 44.749887 343.272727 44.355447 343.479021 43.962883 343.685315 43.572240 343.891608 43.183567 344.097902 42.796912 344.304196 42.412321 344.510490 42.029842 344.716783 41.649523 344.923077 41.271411 345.129371 40.895554 345.335664 40.521998 345.541958 40.150793 345.748252 39.781984 345.954545 39.415619 346.160839 39.051746 346.367133 38.690413 346.573427 38.331667 346.779720 37.975555 346.986014 37.622125 347.192308 37.271424 347.398601 36.923500 347.604895 36.578400 347.811189 36.236172 348.017483 35.896863 348.223776 35.560521 348.430070 35.227193 348.636364 34.896926 348.842657 34.569769 349.048951 34.245768 349.255245 33.924971 349.461538 33.607425 349.667832 33.293179 349.874126 32.982279 350.080420 32.674773 350.286713 32.370708 350.493007 32.070133 350.699301 31.773093 350.905594 31.479638 351.111888 31.189813 351.318182 30.903668 351.524476 30.621248 351.730769 30.342603 351.937063 30.067778 352.143357 29.796823 352.349650 29.529783 352.555944 29.266707 352.762238 29.007642 352.968531 28.752636 353.174825 28.501735 353.381119 28.254989 353.587413 28.012443 353.793706 27.774145 354.000000 27.540144 354.206294 27.310486 354.412587 27.085218 354.618881 26.864389 354.825175 26.648046 355.031469 26.436236 355.237762 26.229007 355.444056 26.026407 355.650350 25.828482 355.856643 25.635280 356.062937 25.446848 356.269231 25.263235 356.475524 25.084488 356.681818 24.910653 356.888112 24.741779 357.094406 24.577913 357.300699 24.419103 357.506993 24.265396 357.713287 24.116839 357.919580 23.973480 358.125874 23.835366 358.332168 23.702545 358.538462 23.575065 358.744755 23.452972 358.951049 23.336315 359.157343 23.225140 359.363636 23.119496 359.569930 23.019429 359.776224 22.924988 359.982517 22.836219 360.188811 22.753170 360.395105 22.675889 360.601399 22.604423 360.807692 22.538820 361.013986 22.479126 361.220280 22.425390 361.426573 22.377660 361.632867 22.335981 361.839161 22.300402 362.045455 22.270971 362.251748 22.247735 362.458042 22.230741 362.664336 22.220037 362.870629 22.215670 363.076923 22.217688 363.283217 22.226138 363.489510 22.241068 363.695804 22.262525 363.902098 22.290556 364.108392 22.325210 364.314685 22.366533 364.520979 22.414574 364.727273 22.469379 364.933566 22.530996 365.139860 22.599472 365.346154 22.674856 365.552448 22.757194 365.758741 22.846533 365.965035 22.942923 366.171329 23.046409 366.377622 23.157039 366.583916 23.274861 366.790210 23.399923 366.996503 23.532271 367.202797 23.671954 367.409091 23.819018 367.615385 23.973511 367.821678 24.135481 368.027972 24.304975 368.234266 24.482041 368.440559 24.666726 368.646853 24.859077 368.853147 25.059143 369.059441 25.266969 369.265734 25.482605 369.472028 25.706098 369.678322 25.937494 369.884615 26.176841 370.090909 26.424188 370.297203 26.679581 370.503497 26.943067 370.709790 27.214695 370.916084 27.494512 371.122378 27.782565 371.328671 28.078901 371.534965 28.383569 371.741259 28.696615 371.947552 29.018088 372.153846 29.348034 372.360140 29.686501 372.566434 30.033519 372.772727 30.389044 372.979021 30.753017 373.185315 31.125375 373.391608 31.506059 373.597902 31.895008 373.804196 32.292160 374.010490 32.697456 374.216783 33.110833 374.423077 33.532233 374.629371 33.961593 374.835664 34.398852 375.041958 34.843951 375.248252 35.296828 375.454545 35.757423 375.660839 36.225674 375.867133 36.701522 376.073427 37.184904 376.279720 37.675761 376.486014 38.174032 376.692308 38.679655 376.898601 39.192571 377.104895 39.712717 377.311189 40.240034 377.517483 40.774461 377.723776 41.315937 377.930070 41.864400 378.136364 42.419791 378.342657 42.982049 378.548951 43.551112 378.755245 44.126920 378.961538 44.709413 379.167832 45.298528 379.374126 45.894207 379.580420 46.496387 379.786713 47.105008 379.993007 47.720009 380.199301 48.341330 380.405594 48.968909 380.611888 49.602687 380.818182 50.242601 381.024476 50.888592 381.230769 51.540598 381.437063 52.198559 381.643357 52.862414 381.849650 53.532102 382.055944 54.207562 382.262238 54.888734 382.468531 55.575556 382.674825 56.267969 382.881119 56.965911 383.087413 57.669321 383.293706 58.378139 383.500000 59.092304 383.706294 59.811755 383.912587 60.536431 384.118881 61.266271 384.325175 62.001215 384.531469 62.741203 384.737762 63.486172 384.944056 64.236063 385.150350 64.990814 385.356643 65.750365 385.562937 66.514655 385.769231 67.283623 385.975524 68.057209 386.181818 68.835351 386.388112 69.617989 386.594406 70.405062 386.800699 71.196509 387.006993 71.992270 387.213287 72.792283 387.419580 73.596489 387.625874 74.404825 387.832168 75.217232 388.038462 76.033649 388.244755 76.854014 388.451049 77.678267 388.657343 78.506347 388.863636 79.338194 389.069930 80.173746 389.276224 81.012943 389.482517 81.855724 389.688811 82.702029 389.895105 83.551796 390.101399 84.404964 390.307692 85.261473 390.513986 86.121263 390.720280 86.984272 390.926573 87.850439 391.132867 88.719704 391.339161 89.592006 391.545455 90.467284 391.751748 91.345478 391.958042 92.226526 392.164336 93.110368 392.370629 93.996943 392.576923 94.886190 392.783217 95.778049 392.989510 96.672459 393.195804 97.569358 393.402098 98.468686 393.608392 99.370383 393.814685 100.274387 394.020979 101.180638 394.227273 102.089074 394.433566 102.999636 394.639860 103.912263 394.846154 104.826893 395.052448 105.743465 395.258741 106.661920 395.465035 107.582196 395.671329 108.504232 395.877622 109.427968 396.083916 110.353343 396.290210 111.280296 396.496503 112.208766 396.702797 113.138693 396.909091 114.070015 397.115385 115.002673 397.321678 115.936604 397.527972 116.871749 397.734266 117.808046 397.940559 118.745435 398.146853 119.683856 398.353147 120.623246 398.559441 121.563546 398.765734 122.504694 398.972028 123.446630 399.178322 124.389294 399.384615 125.332623 399.590909 126.276558 399.797203 127.221038 400.003497 128.166002 400.209790 129.111389 400.416084 130.057138 400.622378 131.003188 400.828671 131.949480 401.034965 132.895951 401.241259 133.842542 401.447552 134.789191 401.653846 135.735838 401.860140 136.682421 402.066434 137.628881 402.272727 138.575155 402.479021 139.521185 402.685315 140.466908 402.891608 141.412264 403.097902 142.357191 403.304196 143.301631 403.510490 144.245521 403.716783 145.188800 403.923077 146.131409 404.129371 147.073285 404.335664 148.014369 404.541958 148.954600 404.748252 149.893917 404.954545 150.832258 405.160839 151.769564 405.367133 152.705773 405.573427 153.640825 405.779720 154.574659 405.986014 155.507214 406.192308 156.438429 406.398601 157.368244 406.604895 158.296597 406.811189 159.223429 407.017483 160.148677 407.223776 161.072282 407.430070 161.994183 407.636364 162.914318 407.842657 163.832628 408.048951 164.749050 408.255245 165.663525 408.461538 166.575992 408.667832 167.486389 408.874126 168.394657 409.080420 169.300734 409.286713 170.204559 409.493007 171.106073 409.699301 172.005213 409.905594 172.901919 410.111888 173.796131 410.318182 174.687787 410.524476 175.576827 410.730769 176.463190 410.937063 177.346815 411.143357 178.227642 411.349650 179.105609 411.555944 179.980656 411.762238 180.852722 411.968531 181.721747 412.174825 182.587669 412.381119 183.450427 412.587413 184.309962 412.793706 185.166212 413.000000 186.019116 413.206294 186.868614 413.412587 187.714644 413.618881 188.557146 413.825175 189.396060 414.031469 190.231324 414.237762 191.062878 414.444056 191.890660 414.650350 192.714611 414.856643 193.534669 415.062937 194.350773 415.269231 195.162863 415.475524 195.970878 415.681818 196.774757 415.888112 197.574439 416.094406 198.369864 416.300699 199.160971 416.506993 199.947699 416.713287 200.729986 416.919580 201.507774 417.125874 202.281000 417.332168 203.049603 417.538462 203.813524 417.744755 204.572701 417.951049 205.327073 418.157343 206.076581 418.363636 206.821162 418.569930 207.560756 418.776224 208.295302 418.982517 209.024740 419.188811 209.749009 419.395105 210.468048 419.601399 211.181795 419.807692 211.890192 420.013986 212.593176 420.220280 213.290686 420.426573 213.982663 420.632867 214.669045 420.839161 215.349771 421.045455 216.024781 421.251748 216.694014 421.458042 217.357409 421.664336 218.014906 421.870629 218.666442 422.076923 219.311959 422.283217 219.951395 422.489510 220.584688 422.695804 221.211779 422.902098 221.832607 423.108392 222.447110 423.314685 223.055229 423.520979 223.656902 423.727273 224.252068 423.933566 224.840666 424.139860 225.422649 424.346154 225.998012 424.552448 226.566765 424.758741 227.128917 424.965035 227.684478 425.171329 228.233455 425.377622 228.775858 425.583916 229.311697 425.790210 229.840980 425.996503 230.363716 426.202797 230.879915 426.409091 231.389585 426.615385 231.892736 426.821678 232.389376 427.027972 232.879514 427.234266 233.363161 427.440559 233.840323 427.646853 234.311012 427.853147 234.775235 428.059441 235.233002 428.265734 235.684322 428.472028 236.129204 428.678322 236.567657 428.884615 236.999690 429.090909 237.425312 429.297203 237.844532 429.503497 238.257359 429.709790 238.663802 429.916084 239.063871 430.122378 239.457574 430.328671 239.844920 430.534965 240.225918 430.741259 240.600578 430.947552 240.968909 431.153846 241.330919 431.360140 241.686618 431.566434 242.036014 431.772727 242.379117 431.979021 242.715936 432.185315 243.046479 432.391608 243.370757 432.597902 243.688777 432.804196 244.000549 433.010490 244.306082 433.216783 244.605385 433.423077 244.898468 433.629371 245.185338 433.835664 245.466006 434.041958 245.740480 434.248252 246.008769 434.454545 246.270882 434.660839 246.526829 434.867133 246.776618 435.073427 247.020259 435.279720 247.257760 435.486014 247.489131 435.692308 247.714381 435.898601 247.933518 436.104895 248.146552 436.311189 248.353491 436.517483 248.554346 436.723776 248.749124 436.930070 248.937836 437.136364 249.120489 437.342657 249.297093 437.548951 249.467657 437.755245 249.632191 437.961538 249.790703 438.167832 249.943201 438.374126 250.089697 438.580420 250.230197 438.786713 250.364712 438.993007 250.493250 439.199301 250.615821 439.405594 250.732433 439.611888 250.843096 439.818182 250.947818 440.024476 251.046609 440.230769 251.139478 440.437063 251.226433 440.643357 251.307485 440.849650 251.382641 441.055944 251.451911 441.262238 251.515304 441.468531 251.572829 441.674825 251.624495 441.881119 251.670312 442.087413 251.710287 442.293706 251.744431 442.500000 251.772751 442.706294 251.795259 442.912587 251.811961 443.118881 251.822868 443.325175 251.827988 443.531469 251.827331 443.737762 251.820906 443.944056 251.808721 444.150350 251.790785 444.356643 251.767109 444.562937 251.737700 444.769231 251.702568 444.975524 251.661721 445.181818 251.615170 445.388112 251.562923 445.594406 251.504988 445.800699 251.441376 446.006993 251.372095 446.213287 251.297154 446.419580 251.216562 446.625874 251.130328 446.832168 251.038461 447.038462 250.940971 447.244755 250.837867 447.451049 250.729156 447.657343 250.614850 447.863636 250.494956 448.069930 250.369483 448.276224 250.238441 448.482517 250.101839 448.688811 249.959685 448.895105 249.811989 449.101399 249.658760 449.307692 249.500007 449.513986 249.335739 449.720280 249.165965 449.926573 248.990694 450.132867 248.809935 450.339161 248.623697 450.545455 248.431989 450.751748 248.234820 450.958042 248.032200 451.164336 247.824137 451.370629 247.610641 451.576923 247.391720 451.783217 247.167383 451.989510 246.937640 452.195804 246.702499 452.402098 246.461970 452.608392 246.216062 452.814685 245.964783 453.020979 245.708144 453.227273 245.446152 453.433566 245.178817 453.639860 244.906147 453.846154 244.628153 454.052448 244.344843 454.258741 244.056226 454.465035 243.762311 454.671329 243.463107 454.877622 243.158623 455.083916 242.848869 455.290210 242.533853 455.496503 242.213584 455.702797 241.888072 455.909091 241.557325 456.115385 241.221353 456.321678 240.880164 456.527972 240.533768 456.734266 240.182174 456.940559 239.825390 457.146853 239.463426 457.353147 239.096290 457.559441 238.723993 457.765734 238.346543 457.972028 237.963948 458.178322 237.576219 458.384615 237.183363 458.590909 236.785391 458.797203 236.382311 459.003497 235.974132 459.209790 235.560863 459.416084 235.142513 459.622378 234.719092 459.828671 234.290608 460.034965 233.857071 460.241259 233.418489 460.447552 232.974872 460.653846 232.526229 460.860140 232.072568 461.066434 231.613898 461.272727 231.150230 461.479021 230.681571 461.685315 230.207931 461.891608 229.729319 462.097902 229.245744 462.304196 228.757215 462.510490 228.263741 462.716783 227.765331 462.923077 227.261994 463.129371 226.753739 463.335664 226.240576 463.541958 225.722513 463.748252 225.199559 463.954545 224.671723 464.160839 224.139015 464.367133 223.601444 464.573427 223.059018 464.779720 222.511746 464.986014 221.959639 465.192308 221.402703 465.398601 220.840950 465.604895 220.274388 465.811189 219.703025 466.017483 219.126871 466.223776 218.545935 466.430070 217.960226 466.636364 217.369753 466.842657 216.774525 467.048951 216.174551 467.255245 215.569841 467.461538 214.960402 467.667832 214.346245 467.874126 213.727378 468.080420 213.103811 468.286713 212.475552 468.493007 211.842610 468.699301 211.204995 468.905594 210.562716 469.111888 209.915781 469.318182 209.264200 469.524476 208.607981 469.730769 207.947135 469.937063 207.281669 470.143357 206.611593 470.349650 205.936916 470.555944 205.257647 470.762238 204.573794 470.968531 203.885368 471.174825 203.192377 471.381119 202.494831 471.587413 201.792737 471.793706 201.086106 472.000000 200.374946 472.206294 199.659266 472.412587 198.939076 472.618881 198.214384 472.825175 197.485199 473.031469 196.751532 473.237762 196.013390 473.444056 195.270782 473.650350 194.523718 473.856643 193.772207 474.062937 193.016258 474.269231 192.255879 474.475524 191.491081 474.681818 190.721871 474.888112 189.948260 475.094406 189.170255 475.300699 188.387867 475.506993 187.601104 475.713287 186.809983 475.919580 186.014556 476.125874 185.214884 476.332168 184.411025 476.538462 183.603040 476.744755 182.790989 476.951049 181.974931 477.157343 181.154926 477.363636 180.331035 477.569930 179.503317 477.776224 178.671832 477.982517 177.836640 478.188811 176.997801 478.395105 176.155375 478.601399 175.309421 478.807692 174.460000 479.013986 173.607171 479.220280 172.750994 479.426573 171.891530 479.632867 171.028837 479.839161 170.162977 480.045455 169.294008 480.251748 168.421991 480.458042 167.546986 480.664336 166.669052 480.870629 165.788249 481.076923 164.904638 481.283217 164.018278 481.489510 163.129229 481.695804 162.237551 481.902098 161.343303 482.108392 160.446546 482.314685 159.547340 482.520979 158.645745 482.727273 157.741819 482.933566 156.835624 483.139860 155.927219 483.346154 155.016664 483.552448 154.104019 483.758741 153.189344 483.965035 152.272698 484.171329 151.354142 484.377622 150.433736 484.583916 149.511538 484.790210 148.587610 484.996503 147.662011 485.202797 146.734801 485.409091 145.806040 485.615385 144.875788 485.821678 143.944104 486.027972 143.011049 486.234266 142.076682 486.440559 141.141064 486.646853 140.204254 486.853147 139.266312 487.059441 138.327298 487.265734 137.387271 487.472028 136.446293 487.678322 135.504422 487.884615 134.561719 488.090909 133.618243 488.297203 132.674054 488.503497 131.729213 488.709790 130.783778 488.916084 129.837811 489.122378 128.891370 489.328671 127.944516 489.534965 126.997309 489.741259 126.049808 489.947552 125.102074 490.153846 124.154166 490.360140 123.206144 490.566434 122.258068 490.772727 121.309998 490.979021 120.361994 491.185315 119.414116 491.391608 118.466423 491.597902 117.518975 491.804196 116.571834 492.010490 115.625057 492.216783 114.678705 492.423077 113.732839 492.629371 112.787517 492.835664 111.842801 493.041958 110.898749 493.248252 109.955421 493.454545 109.012878 493.660839 108.071179 493.867133 107.130385 494.073427 106.190555 494.279720 105.251748 494.486014 104.314026 494.692308 103.377447 494.898601 102.442073 495.104895 101.507961 495.311189 100.575173 495.517483 99.643769 495.723776 98.713808 495.930070 97.785349 496.136364 96.858454 496.342657 95.933182 496.548951 95.009592 496.755245 94.087745 496.961538 93.167701 497.167832 92.249519 497.374126 91.333260 497.580420 90.418982 497.786713 89.506747 497.993007 88.596614 498.199301 87.688642 498.405594 86.782892 498.611888 85.879424 498.818182 84.978298 499.024476 84.079573 499.230769 83.183309 499.437063 82.289566 499.643357 81.398405 499.849650 80.509884 500.055944 79.624065 500.262238 78.741006 500.468531 77.860767 500.674825 76.983410 500.881119 76.108992 501.087413 75.237575 501.293706 74.369218 501.500000 73.503981 501.706294 72.641924 501.912587 71.783107 502.118881 70.927589 502.325175 70.075432 502.531469 69.226693 502.737762 68.381434 502.944056 67.539715 503.150350 66.701594 503.356643 65.867133 503.562937 65.036390 503.769231 64.209426 503.975524 63.386301 504.181818 62.567075 504.388112 61.751807 504.594406 60.940557 504.800699 60.133386 505.006993 59.330353 505.213287 58.531518 505.419580 57.736940 505.625874 56.946681 505.832168 56.160799 506.038462 55.379355 506.244755 54.602408 506.451049 53.830019 506.657343 53.062246 506.863636 52.299151 507.069930 51.540793 507.276224 50.787232 507.482517 50.038528 507.688811 49.294740 507.895105 48.555929 508.101399 47.822154 508.307692 47.093476 508.513986 46.369953 508.720280 45.651647 508.926573 44.938617 509.132867 44.230923 509.339161 43.528624 509.545455 42.831782 509.751748 42.140454 509.958042 41.454702 510.164336 40.774586 510.370629 40.100165 510.576923 39.431498 510.783217 38.768647 510.989510 38.111670 511.195804 37.460629 511.402098 36.815582 511.608392 36.176589 511.814685 35.543711 512.020979 34.917007 512.227273 34.296537 512.433566 33.682362 512.639860 33.074540 512.846154 32.473132 513.052448 31.878198 513.258741 31.289798 513.465035 30.707991 513.671329 30.132837 513.877622 29.564397 514.083916 29.002730 514.290210 28.447896 514.496503 27.899954 514.702797 27.358966 514.909091 26.824990 515.115385 26.298087 515.321678 25.778317 515.527972 25.265739 515.734266 24.760413 515.940559 24.262399 516.146853 23.771757 516.353147 23.288547 516.559441 22.812829 516.765734 22.344663 516.972028 21.884108 517.178322 21.431225 517.384615 20.986073 517.590909 20.548712 517.797203 20.119203 518.003497 19.697604 518.209790 19.283976 518.416084 18.878379 518.622378 18.480873 518.828671 18.091517 519.034965 17.710372 519.241259 17.337497 519.447552 16.972953 519.653846 16.616798 519.860140 16.269094 520.066434 15.929899 520.272727 15.599274 520.479021 15.277279 520.685315 14.963973 520.891608 14.659417 521.097902 14.363670 521.304196 14.076792 521.510490 13.798843 521.716783 13.529884 521.923077 13.269973 522.129371 13.019171 522.335664 12.777537 522.541958 12.545133 522.748252 12.322016 522.954545 12.108248 523.160839 11.903888 523.367133 11.708996 523.573427 11.523632 523.779720 11.347856 523.986014 11.181727 524.192308 11.025307 524.398601 10.878653 524.604895 10.741827 524.811189 10.614889 525.017483 10.497897 525.223776 10.390913 525.430070 10.293996 525.636364 10.207205 525.842657 10.130601 526.048951 10.064244 526.255245 10.008193 526.461538 9.962509 526.667832 9.927250 526.874126 9.902478 527.080420 9.888252 527.286713 9.884615 527.493007 9.891542 527.699301 9.908989 527.905594 9.936915 528.111888 9.975278 528.318182 10.024034 528.524476 10.083141 528.730769 10.152558 528.937063 10.232241 529.143357 10.322148 529.349650 10.422237 529.555944 10.532465 529.762238 10.652790 529.968531 10.783169 530.174825 10.923561 530.381119 11.073922 530.587413 11.234210 530.793706 11.404383 531.000000 11.584398 531.206294 11.774213 531.412587 11.973785 531.618881 12.183073 531.825175 12.402033 532.031469 12.630623 532.237762 12.868801 532.444056 13.116524 532.650350 13.373750 532.856643 13.640437 533.062937 13.916542 533.269231 14.202022 533.475524 14.496836 533.681818 14.800940 533.888112 15.114293 534.094406 15.436852 534.300699 15.768574 534.506993 16.109417 534.713287 16.459339 534.919580 16.818297 535.125874 17.186250 535.332168 17.563153 535.538462 17.948965 535.744755 18.343644 535.951049 18.747148 536.157343 19.159432 536.363636 19.580457 536.569930 20.010177 536.776224 20.448553 536.982517 20.895540 537.188811 21.351097 537.395105 21.815181 537.601399 22.287750 537.807692 22.768762 538.013986 23.258173 538.220280 23.755941 538.426573 24.262025 538.632867 24.776381 538.839161 25.298968 539.045455 25.829742 539.251748 26.368661 539.458042 26.915684 539.664336 27.470767 539.870629 28.033868 540.076923 28.604945 540.283217 29.183955 540.489510 29.770855 540.695804 30.365605 540.902098 30.968160 541.108392 31.578478 541.314685 32.196518 541.520979 32.822237 541.727273 33.455591 541.933566 34.096540 542.139860 34.745040 542.346154 35.401049 542.552448 36.064524 542.758741 36.735424 542.965035 37.413705 543.171329 38.099326 543.377622 38.792244 543.583916 39.492416 543.790210 40.199800 543.996503 40.914353 544.202797 41.636034 544.409091 42.364800 544.615385 43.100608 544.821678 43.843416 545.027972 44.593181 545.234266 45.349862 545.440559 46.113415 545.646853 46.883798 545.853147 47.660969 546.059441 48.444885 546.265734 49.235505 546.472028 50.032785 546.678322 50.836682 546.884615 51.647156 547.090909 52.464163 547.297203 53.287661 547.503497 54.117607 547.709790 54.953959 547.916084 55.796675 548.122378 56.645711 548.328671 57.501027 548.534965 58.362579 548.741259 59.230324 548.947552 60.104221 549.153846 60.984228 549.360140 61.870300 549.566434 62.762397 549.772727 63.660476 549.979021 64.564494 550.185315 65.474408 550.391608 66.390178 550.597902 67.311759 550.804196 68.239110 551.010490 69.172188 551.216783 70.110951 551.423077 71.055356 551.629371 72.005361 551.835664 72.960924 552.041958 73.922002 552.248252 74.888552 552.454545 75.860533 552.660839 76.837901 552.867133 77.820615 553.073427 78.808632 553.279720 79.801909 553.486014 80.800405 553.692308 81.804076 553.898601 82.812881 554.104895 83.826776 554.311189 84.845720 554.517483 85.869669 554.723776 86.898583 554.930070 87.932417 555.136364 88.971130 555.342657 90.014680 555.548951 91.063023 555.755245 92.116118 555.961538 93.173921 556.167832 94.236392 556.374126 95.303486 556.580420 96.375163 556.786713 97.451378 556.993007 98.532091 557.199301 99.617258 557.405594 100.706837 557.611888 101.800786 557.818182 102.899062 558.024476 104.001623 558.230769 105.108426 558.437063 106.219429 558.643357 107.334590 558.849650 108.453866 559.055944 109.577214 559.262238 110.704593 559.468531 111.835959 559.674825 112.971271 559.881119 114.110486 560.087413 115.253561 560.293706 116.400455 560.500000 117.551124 560.706294 118.705527 560.912587 119.863620 561.118881 121.025362 561.325175 122.190710 561.531469 123.359621 561.737762 124.532054 561.944056 125.707965 562.150350 126.887313 562.356643 128.070055 562.562937 129.256148 562.769231 130.445550 562.975524 131.638219 563.181818 132.834112 563.388112 134.033186 563.594406 135.235400 563.800699 136.440711 564.006993 137.649077 564.213287 138.860455 564.419580 140.074802 564.625874 141.292076 564.832168 142.512236 565.038462 143.735237 565.244755 144.961039 565.451049 146.189598 565.657343 147.420872 565.863636 148.654819 566.069930 149.891397 566.276224 151.130562 566.482517 152.372272 566.688811 153.616486 566.895105 154.863160 567.101399 156.112252 567.307692 157.363720 567.513986 158.617521 567.720280 159.873614 567.926573 161.131954 568.132867 162.392501 568.339161 163.655211 568.545455 164.920043 568.751748 166.186953 568.958042 167.455899 569.164336 168.726840 569.370629 169.999732 569.576923 171.274533 569.783217 172.551200 569.989510 173.829692 570.195804 175.109966 570.402098 176.391979 570.608392 177.675689 570.814685 178.961054 571.020979 180.248030 571.227273 181.536576 571.433566 182.826650 571.639860 184.118208 571.846154 185.411209 572.052448 186.705610 572.258741 188.001368 572.465035 189.298442 572.671329 190.596788 572.877622 191.896364 573.083916 193.197129 573.290210 194.499038 573.496503 195.802051 573.702797 197.106125 573.909091 198.411216 574.115385 199.717283 574.321678 201.024284 574.527972 202.332175 574.734266 203.640915 574.940559 204.950461 575.146853 206.260771 575.353147 207.571802 575.559441 208.883512 575.765734 210.195858 575.972028 211.508797 576.178322 212.822289 576.384615 214.136289 576.590909 215.450757 576.797203 216.765648 577.003497 218.080921 577.209790 219.396534 577.416084 220.712443 577.622378 222.028608 577.828671 223.344984 578.034965 224.661530 578.241259 225.978203 578.447552 227.294961 578.653846 228.611761 578.653846 514.000000" /></g></g><g class="titles"><text class="title plot_title" x="400.0" y="26">Silom-Line summary_50</text></g><g class="plot overlay" transform="translate(190, 46)"><g class="series serie-0 color-0"><g class="dots"><circle class="dot reactive tooltip-trigger" cx="11.346153846153847" cy="68.34022469978726" r="2.5" /><desc class="value">2711000</desc><desc class="x ">11.346153846153847</desc><desc class="y ">68.34022469978726</desc><desc class="x_label">Jan</desc></g><g class="dots"><circle class="dot reactive tooltip-trigger" cx="62.91958041958042" cy="215.41292899690023" r="2.5" /><desc class="value">2555000</desc><desc class="x ">62.91958041958042</desc><desc class="y ">215.41292899690023</desc><desc class="x_label">Feb</desc></g><g class="dots"><circle class="dot reactive tooltip-trigger" cx="114.49300699300699" cy="130.563291902412" r="2.5" /><desc class="value">2645000</desc><desc class="x ">114.49300699300699</desc><desc class="y ">130.563291902412</desc><desc class="x_label">Mar</desc></g><g class="dots"><circle class="dot reactive tooltip-trigger" cx="166.06643356643357" cy="499.4706585143371" r="2.5" /><desc class="value">2253700</desc><desc class="x top">166.06643356643357</desc><desc class="y top">499.4706585143371</desc><desc class="x_label">Apr</desc></g><g class="dots"><circle class="dot reactive tooltip-trigger" cx="217.63986013986016" cy="240.490710627049" r="2.5" /><desc class="value">2528400</desc><desc class="x ">217.63986013986016</desc><desc class="y ">240.490710627049</desc><desc class="x_label">May</desc></g><g class="dots"><circle class="dot reactive tooltip-trigger" cx="269.2132867132867" cy="111.7078169925257" r="2.5" /><desc class="value">2665000</desc><desc class="x ">269.2132867132867</desc><desc class="y ">111.7078169925257</desc><desc class="x_label">Jun</desc></g><g class="dots"><circle class="dot reactive tooltip-trigger" cx="320.7867132867133" cy="88.13847335516783" r="2.5" /><desc class="value">2690000</desc><desc class="x left">320.7867132867133</desc><desc class="y left">88.13847335516783</desc><desc class="x_label">Jul</desc></g><g class="dots"><circle class="dot reactive tooltip-trigger" cx="372.36013986013984" cy="29.68650113452037" r="2.5" /><desc class="value">2752000</desc><desc class="x left">372.36013986013984</desc><desc class="y left">29.68650113452037</desc><desc class="x_label">Aug</desc></g><g class="dots"><circle class="dot reactive tooltip-trigger" cx="423.93356643356645" cy="224.8406664518434" r="2.5" /><desc class="value">2545000</desc><desc class="x left">423.93356643356645</desc><desc class="y left">224.8406664518434</desc><desc class="x_label">Sep</desc></g><g class="dots"><circle class="dot reactive tooltip-trigger" cx="475.506993006993" cy="187.60110350481796" r="2.5" /><desc class="value">2584500</desc><desc class="x left">475.506993006993</desc><desc class="y left">187.60110350481796</desc><desc class="x_label">Oct</desc></g><g class="dots"><circle class="dot reactive tooltip-trigger" cx="527.0804195804195" cy="9.888252479139794" r="2.5" /><desc class="value">2773000</desc><desc class="x left">527.0804195804195</desc><desc class="y left">9.888252479139794</desc><desc class="x_label">Nov</desc></g><g class="dots"><circle class="dot reactive tooltip-trigger" cx="578.6538461538461" cy="228.61176143382062" r="2.5" /><desc class="value">2541000</desc><desc class="x left">578.6538461538461</desc><desc class="y left">228.61176143382062</desc><desc class="x_label">Dec</desc></g></g></g><g class="plot text-overlay" transform="translate(190, 46)"><g class="series serie-0 color-0" /></g><g class="plot tooltip-overlay" transform="translate(190, 46)"><g class="tooltip" style="opacity: 0" transform="translate(0 0)"><rect class="tooltip-box" height="0" rx="0" ry="0" width="0" /><g class="text" /></g></g><g class="legends" transform="translate(10, 56)"><g class="legend reactive activate-serie" id="activate-serie-0"><rect class="color-0 reactive" height="12" width="12" x="0.0" y="1.0" /><text x="17.0" y="11.2">Silom-Line</text></g></g><g class="legends" transform="translate(790, 56)" /></g></svg>