<?xml version='1.0' encoding='utf-8'?>
<svg xmlns:xlink="http://www.w3.org/1999/xlink" class="pygal-chart" id="chart-42d1a5b6-bf0f-4a74-93d8-a564daaf1fb3" viewBox="0 0 800 600" xmlns="http://www.w3.org/2000/svg"><!--Generated with pygal 2.0.11 (etree) ©Kozea 2011-2015 on 2015-12-10--><!--http://pygal.org--><!--http://github.com/Kozea/pygal--><defs><style type="text/css">#chart-42d1a5b6-bf0f-4a74-93d8-a564daaf1fb3{-webkit-user-select:none;-webkit-font-smoothing:antialiased;font-family:Consolas,"Liberation Mono",Menlo,Courier,monospace}#chart-42d1a5b6-bf0f-4a74-93d8-a564daaf1fb3 .title{font-family:Consolas,"Liberation Mono",Menlo,Courier,monospace;font-size:16px}#chart-42d1a5b6-bf0f-4a74-93d8-a564daaf1fb3 .legends .legend text{font-family:Consolas,"Liberation Mono",Menlo,Courier,monospace;font-size:14px}#chart-42d1a5b6-bf0f-4a74-93d8-a564daaf1fb3 .axis text{font-family:Consolas,"Liberation Mono",Menlo,Courier,monospace;font-size:10px}#chart-42d1a5b6-bf0f-4a74-93d8-a564daaf1fb3 .axis text.major{font-family:Consolas,"Liberation Mono",Menlo,Courier,monospace;font-size:10px}#chart-42d1a5b6-bf0f-4a74-93d8-a564daaf1fb3 .text-overlay text.value{font-family:Consolas,"Liberation Mono",Menlo,Courier,monospace;font-size:16px}#chart-42d1a5b6-bf0f-4a74-93d8-a564daaf1fb3 .text-overlay text.label{font-family:Consolas,"Liberation Mono",Menlo,Courier,monospace;font-size:10px}#chart-42d1a5b6-bf0f-4a74-93d8-a564daaf1fb3 .tooltip{font-family:Consolas,"Liberation Mono",Menlo,Courier,monospace;font-size:14px}#chart-42d1a5b6-bf0f-4a74-93d8-a564daaf1fb3 text.no_data{font-family:Consolas,"Liberation Mono",Menlo,Courier,monospace;font-size:64px}
#chart-42d1a5b6-bf0f-4a74-93d8-a564daaf1fb3{background-color:black}#chart-42d1a5b6-bf0f-4a74-93d8-a564daaf1fb3 path,#chart-42d1a5b6-bf0f-4a74-93d8-a564daaf1fb3 line,#chart-42d1a5b6-bf0f-4a74-93d8-a564daaf1fb3 rect,#chart-42d1a5b6-bf0f-4a74-93d8-a564daaf1fb3 circle{-webkit-transition:250ms;-moz-transition:250ms;transition:250ms}#chart-42d1a5b6-bf0f-4a74-93d8-a564daaf1fb3 .graph &gt; .background{fill:black}#chart-42d1a5b6-bf0f-4a74-93d8-a564daaf1fb3 .plot &gt; .background{fill:#111}#chart-42d1a5b6-bf0f-4a74-93d8-a564daaf1fb3 .graph{fill:#999}#chart-42d1a5b6-bf0f-4a74-93d8-a564daaf1fb3 text.no_data{fill:#eee}#chart-42d1a5b6-bf0f-4a74-93d8-a564daaf1fb3 .title{fill:#eee}#chart-42d1a5b6-bf0f-4a74-93d8-a564daaf1fb3 .legends .legend text{fill:#999}#chart-42d1a5b6-bf0f-4a74-93d8-a564daaf1fb3 .legends .legend:hover text{fill:#eee}#chart-42d1a5b6-bf0f-4a74-93d8-a564daaf1fb3 .axis .line{stroke:#eee}#chart-42d1a5b6-bf0f-4a74-93d8-a564daaf1fb3 .axis .guide.line{stroke:#555}#chart-42d1a5b6-bf0f-4a74-93d8-a564daaf1fb3 .axis .major.line{stroke:#999}#chart-42d1a5b6-bf0f-4a74-93d8-a564daaf1fb3 .axis text.major{fill:#eee}#chart-42d1a5b6-bf0f-4a74-93d8-a564daaf1fb3 .axis.y .guides:hover .guide.line,#chart-42d1a5b6-bf0f-4a74-93d8-a564daaf1fb3 .line-graph .axis.x .guides:hover .guide.line,#chart-42d1a5b6-bf0f-4a74-93d8-a564daaf1fb3 .stackedline-graph .axis.x .guides:hover .guide.line,#chart-42d1a5b6-bf0f-4a74-93d8-a564daaf1fb3 .xy-graph .axis.x .guides:hover .guide.line{stroke:#eee}#chart-42d1a5b6-bf0f-4a74-93d8-a564daaf1fb3 .axis .guides:hover text{fill:#eee}#chart-42d1a5b6-bf0f-4a74-93d8-a564daaf1fb3 .reactive{fill-opacity:.8}#chart-42d1a5b6-bf0f-4a74-93d8-a564daaf1fb3 .reactive.active,#chart-42d1a5b6-bf0f-4a74-93d8-a564daaf1fb3 .active .reactive{fill-opacity:.4;stroke-width:4}#chart-42d1a5b6-bf0f-4a74-93d8-a564daaf1fb3 .series text{fill:#eee}#chart-42d1a5b6-bf0f-4a74-93d8-a564daaf1fb3 .tooltip rect{fill:#111;stroke:#eee;-webkit-transition:opacity 250ms;-moz-transition:opacity 250ms;transition:opacity 250ms}#chart-42d1a5b6-bf0f-4a74-93d8-a564daaf1fb3 .tooltip .label{fill:#999}#chart-42d1a5b6-bf0f-4a74-93d8-a564daaf1fb3 .tooltip .label{fill:#999}#chart-42d1a5b6-bf0f-4a74-93d8-a564daaf1fb3 .tooltip .legend{font-size:.8em;fill:#555}#chart-42d1a5b6-bf0f-4a74-93d8-a564daaf1fb3 .tooltip .x_label{font-size:.6em;fill:#eee}#chart-42d1a5b6-bf0f-4a74-93d8-a564daaf1fb3 .tooltip .xlink{font-size:.5em;text-decoration:underline}#chart-42d1a5b6-bf0f-4a74-93d8-a564daaf1fb3 .tooltip .value{font-size:1.5em}#chart-42d1a5b6-bf0f-4a74-93d8-a564daaf1fb3 .map-element{fill:#111;stroke:#555 !important}#chart-42d1a5b6-bf0f-4a74-93d8-a564daaf1fb3 .map-element .reactive{fill-opacity:inherit}#chart-42d1a5b6-bf0f-4a74-93d8-a564daaf1fb3 .color-0,#chart-42d1a5b6-bf0f-4a74-93d8-a564daaf1fb3 .color-0 a:visited{stroke:#ff5995;fill:#ff5995}#chart-42d1a5b6-bf0f-4a74-93d8-a564daaf1fb3 .text-overlay .color-0 text{fill:black}
#chart-42d1a5b6-bf0f-4a74-93d8-a564daaf1fb3 text.no_data{text-anchor:middle}#chart-42d1a5b6-bf0f-4a74-93d8-a564daaf1fb3 .guide.line{fill:none}#chart-42d1a5b6-bf0f-4a74-93d8-a564daaf1fb3 .centered{text-anchor:middle}#chart-42d1a5b6-bf0f-4a74-93d8-a564daaf1fb3 .title{text-anchor:middle}#chart-42d1a5b6-bf0f-4a74-93d8-a564daaf1fb3 .legends .legend text{fill-opacity:1}#chart-42d1a5b6-bf0f-4a74-93d8-a564daaf1fb3 .axis.x text{text-anchor:middle}#chart-42d1a5b6-bf0f-4a74-93d8-a564daaf1fb3 .axis.x:not(.web) text[transform]{text-anchor:start}#chart-42d1a5b6-bf0f-4a74-93d8-a564daaf1fb3 .axis.x:not(.web) text[transform].backwards{text-anchor:end}#chart-42d1a5b6-bf0f-4a74-93d8-a564daaf1fb3 .axis.y text{text-anchor:end}#chart-42d1a5b6-bf0f-4a74-93d8-a564daaf1fb3 .axis.y text[transform].backwards{text-anchor:start}#chart-42d1a5b6-bf0f-4a74-93d8-a564daaf1fb3 .axis.y2 text{text-anchor:start}#chart-42d1a5b6-bf0f-4a74-93d8-a564daaf1fb3 .axis.y2 text[transform].backwards{text-anchor:end}#chart-42d1a5b6-bf0f-4a74-93d8-a564daaf1fb3 .axis .guide.line{stroke-dasharray:4,4}#chart-42d1a5b6-bf0f-4a74-93d8-a564daaf1fb3 .axis .major.guide.line{stroke-dasharray:6,6}#chart-42d1a5b6-bf0f-4a74-93d8-a564daaf1fb3 .horizontal .axis.y .guide.line,#chart-42d1a5b6-bf0f-4a74-93d8-a564daaf1fb3 .horizontal .axis.y2 .guide.line,#chart-42d1a5b6-bf0f-4a74-93d8-a564daaf1fb3 .vertical .axis.x .guide.line{opacity:0}#chart-42d1a5b6-bf0f-4a74-93d8-a564daaf1fb3 .horizontal .axis.always_show .guide.line,#chart-42d1a5b6-bf0f-4a74-93d8-a564daaf1fb3 .vertical .axis.always_show .guide.line{opacity:1 !important}#chart-42d1a5b6-bf0f-4a74-93d8-a564daaf1fb3 .axis.y .guides:hover .guide.line,#chart-42d1a5b6-bf0f-4a74-93d8-a564daaf1fb3 .axis.y2 .guides:hover .guide.line,#chart-42d1a5b6-bf0f-4a74-93d8-a564daaf1fb3 .axis.x .guides:hover .guide.line{opacity:1}#chart-42d1a5b6-bf0f-4a74-93d8-a564daaf1fb3 .axis .guides:hover text{opacity:1}#chart-42d1a5b6-bf0f-4a74-93d8-a564daaf1fb3 .nofill{fill:none}#chart-42d1a5b6-bf0f-4a74-93d8-a564daaf1fb3 .subtle-fill{fill-opacity:.2}#chart-42d1a5b6-bf0f-4a74-93d8-a564daaf1fb3 .dot{stroke-width:1px;fill-opacity:1}#chart-42d1a5b6-bf0f-4a74-93d8-a564daaf1fb3 .dot.active{stroke-width:5px}#chart-42d1a5b6-bf0f-4a74-93d8-a564daaf1fb3 .dot.negative{fill:transparent}#chart-42d1a5b6-bf0f-4a74-93d8-a564daaf1fb3 text,#chart-42d1a5b6-bf0f-4a74-93d8-a564daaf1fb3 tspan{stroke:none !important}#chart-42d1a5b6-bf0f-4a74-93d8-a564daaf1fb3 .series text.active{opacity:1}#chart-42d1a5b6-bf0f-4a74-93d8-a564daaf1fb3 .tooltip rect{fill-opacity:.95;stroke-width:.5}#chart-42d1a5b6-bf0f-4a74-93d8-a564daaf1fb3 .tooltip text{fill-opacity:1}#chart-42d1a5b6-bf0f-4a74-93d8-a564daaf1fb3 .showable{visibility:hidden}#chart-42d1a5b6-bf0f-4a74-93d8-a564daaf1fb3 .showable.shown{visibility:visible}</style><script type="text/javascript">window.pygal = window.pygal || {};window.pygal.config = window.pygal.config || {};window.pygal.config['42d1a5b6-bf0f-4a74-93d8-a564daaf1fb3'] = {"height": 600, "missing_value_fill_truncation": "x", "defs": [], "zero": 0, "legend_box_size": 12, "show_minor_x_labels": true, "interpolation_parameters": {}, "human_readable": false, "js": ["//kozea.github.io/pygal.js/2.0.x/pygal-tooltips.min.js"], "show_dots": true, "tooltip_border_radius": 0, "inner_radius": 0, "x_value_formatter": null, "order_min": null, "show_y_labels": true, "x_labels_major_count": null, "y_labels": null, "secondary_range": null, "truncate_legend": null, "stroke": true, "min_scale": 4, "margin_right": null, "dynamic_print_values": false, "show_only_major_dots": false, "truncate_label": null, "half_pie": false, "xrange": null, "no_prefix": false, "y_labels_major_every": null, "title": "Sukhumvit-Line summary_53", "box_mode": "extremes", "range": null, "no_data_text": "No data", "show_minor_y_labels": true, "logarithmic": false, "css": ["file://style.css", "file://graph.css"], "show_legend": true, "value_formatter": null, "disable_xml_declaration": false, "x_title": null, "y_title": null, "explicit_size": false, "style": {"value_font_family": "Consolas, \"Liberation Mono\", Menlo, Courier, monospace", "label_font_size": 10, "major_guide_stroke_dasharray": "6,6", "value_label_font_size": 10, "no_data_font_family": "Consolas, \"Liberation Mono\", Menlo, Courier, monospace", "no_data_font_size": 64, "foreground": "#999", "plot_background": "#111", "font_family": "Consolas, \"Liberation Mono\", Menlo, Courier, monospace", "title_font_size": 16, "opacity": ".8", "title_font_family": "Consolas, \"Liberation Mono\", Menlo, Courier, monospace", "value_font_size": 16, "label_font_family": "Consolas, \"Liberation Mono\", Menlo, Courier, monospace", "major_label_font_family": "Consolas, \"Liberation Mono\", Menlo, Courier, monospace", "major_label_font_size": 10, "foreground_subtle": "#555", "foreground_strong": "#eee", "legend_font_size": 14, "transition": "250ms", "value_colors": [], "background": "black", "opacity_hover": ".4", "tooltip_font_family": "Consolas, \"Liberation Mono\", Menlo, Courier, monospace", "guide_stroke_dasharray": "4,4", "colors": ["#ff5995", "#b6e354", "#feed6c", "#8cedff", "#9e6ffe", "#899ca1", "#f8f8f2", "#bf4646", "#516083", "#f92672", "#82b414", "#fd971f", "#56c2d6", "#808384", "#8c54fe", "#465457"], "legend_font_family": "Consolas, \"Liberation Mono\", Menlo, Courier, monospace", "tooltip_font_size": 14, "value_label_font_family": "Consolas, \"Liberation Mono\", Menlo, Courier, monospace"}, "fill": true, "dots_size": 2.5, "legends": ["Sukhumvit-Line"], "rounded_bars": null, "y_labels_major_count": null, "width": 800, "show_x_guides": false, "interpolation_precision": 250, "x_labels": ["Jan", "Feb", "Mar", "Apr", "May", "Jun", "Jul", "Aug", "Sep", "Oct", "Nov", "Dec"], "legend_at_bottom": false, "x_labels_major": null, "include_x_axis": false, "spacing": 10, "max_scale": 16, "interpolate": "cubic", "print_labels": false, "y_labels_major": null, "margin": 20, "force_uri_protocol": null, "strict": false, "margin_left": null, "x_label_rotation": 0, "margin_bottom": null, "print_zeroes": true, "y_label_rotation": 0, "show_x_labels": true, "inverse_y_axis": false, "x_labels_major_every": null, "show_y_guides": true, "stack_from_top": false, "stroke_style": null, "tooltip_fancy_mode": true, "legend_at_bottom_columns": null, "pretty_print": false, "print_values": false, "margin_top": null}</script><script type="text/javascript" xlink:href="//kozea.github.io/pygal.js/2.0.x/pygal-tooltips.min.js" /></defs><title>Sukhumvit-Line summary_53</title><g class="graph line-graph vertical"><rect class="background" height="600" width="800" x="0" y="0" /><g class="plot" transform="translate(229, 46)"><rect class="background" height="514" width="550.4" x="0" y="0" /><g class="axis y"><path class="line" d="M0.000000 514.000000 h550.400000" /><g class="guides"><path class="guide line" d="M0.000000 413.398102 h550.400000" /><text class="" x="-5" y="416.89810217101183">6000000.0</text><title>6000000.0</title></g><g class="guides"><path class="guide line" d="M0.000000 316.306455 h550.400000" /><text class="" x="-5" y="319.8064551589218">7000000.0</text><title>7000000.0</title></g><g class="guides"><path class="guide line" d="M0.000000 219.214808 h550.400000" /><text class="" x="-5" y="222.71480814683167">8000000.0</text><title>8000000.0</title></g><g class="guides"><path class="guide line" d="M0.000000 122.123161 h550.400000" /><text class="" x="-5" y="125.62316113474162">9000000.0</text><title>9000000.0</title></g><g class="guides"><path class="major guide line" d="M0.000000 25.031514 h550.400000" /><text class="major" x="-5" y="28.531514122651572">10000000.0</text><title>10000000.0</title></g></g><g class="axis x"><g class="guides"><path class="line" d="M10.584615 0.000000 v514.000000" /><text class="" x="10.584615384615383" y="529.0">Jan</text></g><g class="guides"><path class="guide line" d="M58.696503 0.000000 v514.000000" /><text class="" x="58.696503496503496" y="529.0">Feb</text></g><g class="guides"><path class="guide line" d="M106.808392 0.000000 v514.000000" /><text class="" x="106.80839160839159" y="529.0">Mar</text></g><g class="guides"><path class="guide line" d="M154.920280 0.000000 v514.000000" /><text class="" x="154.92027972027972" y="529.0">Apr</text></g><g class="guides"><path class="guide line" d="M203.032168 0.000000 v514.000000" /><text class="" x="203.03216783216786" y="529.0">May</text></g><g class="guides"><path class="guide line" d="M251.144056 0.000000 v514.000000" /><text class="" x="251.14405594405594" y="529.0">Jun</text></g><g class="guides"><path class="guide line" d="M299.255944 0.000000 v514.000000" /><text class="" x="299.255944055944" y="529.0">Jul</text></g><g class="guides"><path class="guide line" d="M347.367832 0.000000 v514.000000" /><text class="" x="347.36783216783215" y="529.0">Aug</text></g><g class="guides"><path class="guide line" d="M395.479720 0.000000 v514.000000" /><text class="" x="395.47972027972025" y="529.0">Sep</text></g><g class="guides"><path class="guide line" d="M443.591608 0.000000 v514.000000" /><text class="" x="443.5916083916084" y="529.0">Oct</text></g><g class="guides"><path class="guide line" d="M491.703497 0.000000 v514.000000" /><text class="" x="491.70349650349647" y="529.0">Nov</text></g><g class="guides"><path class="guide line" d="M539.815385 0.000000 v514.000000" /><text class="" x="539.8153846153846" y="529.0">Dec</text></g></g><g class="series serie-0 color-0"><path class="line reactive" d="M10.584615 514.000000 L10.584615 89.627849 10.777063 90.006730 10.969510 90.385588 11.161958 90.764401 11.354406 91.143145 11.546853 91.521799 11.739301 91.900339 11.931748 92.278743 12.124196 92.656988 12.316643 93.035051 12.509091 93.412910 12.701538 93.790542 12.893986 94.167924 13.086434 94.545033 13.278881 94.921847 13.471329 95.298344 13.663776 95.674499 13.856224 96.050292 14.048671 96.425698 14.241119 96.800695 14.433566 97.175261 14.626014 97.549373 14.818462 97.923008 15.010909 98.296143 15.203357 98.668756 15.395804 99.040824 15.588252 99.412325 15.780699 99.783234 15.973147 100.153531 16.165594 100.523192 16.358042 100.892194 16.550490 101.260515 16.742937 101.628132 16.935385 101.995022 17.127832 102.361162 17.320280 102.726531 17.512727 103.091105 17.705175 103.454861 17.897622 103.817777 18.090070 104.179830 18.282517 104.540998 18.474965 104.901257 18.667413 105.260584 18.859860 105.618959 19.052308 105.976356 19.244755 106.332755 19.437203 106.688131 19.629650 107.042463 19.822098 107.395727 20.014545 107.747902 20.206993 108.098963 20.399441 108.448889 20.591888 108.797657 20.784336 109.145244 20.976783 109.491628 21.169231 109.836785 21.361678 110.180693 21.554126 110.523330 21.746573 110.864672 21.939021 111.204696 22.131469 111.543381 22.323916 111.880704 22.516364 112.216641 22.708811 112.551170 22.901259 112.884268 23.093706 113.215913 23.286154 113.546082 23.478601 113.874752 23.671049 114.201901 23.863497 114.527505 24.055944 114.851542 24.248392 115.173990 24.440839 115.494825 24.633287 115.814025 24.825734 116.131568 25.018182 116.447430 25.210629 116.761588 25.403077 117.074021 25.595524 117.384705 25.787972 117.693618 25.980420 118.000737 26.172867 118.306038 26.365315 118.609501 26.557762 118.911101 26.750210 119.210817 26.942657 119.508624 27.135105 119.804502 27.327552 120.098426 27.520000 120.390375 27.712448 120.680325 27.904895 120.968255 28.097343 121.254140 28.289790 121.537959 28.482238 121.819688 28.674685 122.099306 28.867133 122.376788 29.059580 122.652114 29.252028 122.925259 29.444476 123.196201 29.636923 123.464918 29.829371 123.731387 30.021818 123.995585 30.214266 124.257489 30.406713 124.517076 30.599161 124.774325 30.791608 125.029212 30.984056 125.281714 31.176503 125.531809 31.368951 125.779474 31.561399 126.024687 31.753846 126.267424 31.946294 126.507663 32.138741 126.745381 32.331189 126.980556 32.523636 127.213165 32.716084 127.443185 32.908531 127.670593 33.100979 127.895367 33.293427 128.117484 33.485874 128.336921 33.678322 128.553656 33.870769 128.767666 34.063217 128.978928 34.255664 129.187419 34.448112 129.393117 34.640559 129.595999 34.833007 129.796042 35.025455 129.993224 35.217902 130.187522 35.410350 130.378913 35.602797 130.567374 35.795245 130.752883 35.987692 130.935418 36.180140 131.114954 36.372587 131.291470 36.565035 131.464944 36.757483 131.635351 36.949930 131.802670 37.142378 131.966878 37.334825 132.127951 37.527273 132.285868 37.719720 132.440606 37.912168 132.592142 38.104615 132.740453 38.297063 132.885516 38.489510 133.027310 38.681958 133.165810 38.874406 133.300995 39.066853 133.432842 39.259301 133.561327 39.451748 133.686429 39.644196 133.808125 39.836643 133.926391 40.029091 134.041205 40.221538 134.152545 40.413986 134.260388 40.606434 134.364711 40.798881 134.465490 40.991329 134.562705 41.183776 134.656331 41.376224 134.746347 41.568671 134.832729 41.761119 134.915455 41.953566 134.994502 42.146014 135.069847 42.338462 135.141468 42.530909 135.209342 42.723357 135.273446 42.915804 135.333758 43.108252 135.390254 43.300699 135.442913 43.493147 135.491711 43.685594 135.536625 43.878042 135.577634 44.070490 135.614713 44.262937 135.647842 44.455385 135.676996 44.647832 135.702153 44.840280 135.723291 45.032727 135.740386 45.225175 135.753416 45.417622 135.762359 45.610070 135.767191 45.802517 135.767890 45.994965 135.764433 46.187413 135.756798 46.379860 135.744962 46.572308 135.728901 46.764755 135.708594 46.957203 135.684017 47.149650 135.655148 47.342098 135.621965 47.534545 135.584444 47.726993 135.542563 47.919441 135.496298 48.111888 135.445628 48.304336 135.390530 48.496783 135.330981 48.689231 135.266958 48.881678 135.198438 49.074126 135.125400 49.266573 135.047819 49.459021 134.965674 49.651469 134.878941 49.843916 134.787598 50.036364 134.691623 50.228811 134.590992 50.421259 134.485683 50.613706 134.375673 50.806154 134.260940 50.998601 134.141460 51.191049 134.017212 51.383497 133.888171 51.575944 133.754316 51.768392 133.615624 51.960839 133.472072 52.153287 133.323638 52.345734 133.170298 52.538182 133.012031 52.730629 132.848813 52.923077 132.680621 53.115524 132.507433 53.307972 132.329227 53.500420 132.145979 53.692867 131.957666 53.885315 131.764267 54.077762 131.565758 54.270210 131.362117 54.462657 131.153321 54.655105 130.939347 54.847552 130.720172 55.040000 130.495774 55.232448 130.266131 55.424895 130.031218 55.617343 129.791015 55.809790 129.545497 56.002238 129.294643 56.194685 129.038429 56.387133 128.776833 56.579580 128.509832 56.772028 128.237404 56.964476 127.959525 57.156923 127.676174 57.349371 127.387326 57.541818 127.092961 57.734266 126.793054 57.926713 126.487583 58.119161 126.176526 58.311608 125.859859 58.504056 125.537561 58.696503 125.209608 58.888951 124.875991 59.081399 124.536761 59.273846 124.191979 59.466294 123.841709 59.658741 123.486014 59.851189 123.124958 60.043636 122.758602 60.236084 122.387011 60.428531 122.010247 60.620979 121.628374 60.813427 121.241454 61.005874 120.849551 61.198322 120.452728 61.390769 120.051047 61.583217 119.644573 61.775664 119.233368 61.968112 118.817495 62.160559 118.397017 62.353007 117.971997 62.545455 117.542499 62.737902 117.108586 62.930350 116.670320 63.122797 116.227765 63.315245 115.780983 63.507692 115.330039 63.700140 114.874995 63.892587 114.415914 64.085035 113.952859 64.277483 113.485893 64.469930 113.015080 64.662378 112.540483 64.854825 112.062164 65.047273 111.580187 65.239720 111.094614 65.432168 110.605510 65.624615 110.112936 65.817063 109.616957 66.009510 109.117635 66.201958 108.615033 66.394406 108.109214 66.586853 107.600243 66.779301 107.088180 66.971748 106.573091 67.164196 106.055037 67.356643 105.534082 67.549091 105.010289 67.741538 104.483721 67.933986 103.954441 68.126434 103.422513 68.318881 102.887998 68.511329 102.350962 68.703776 101.811466 68.896224 101.269573 69.088671 100.725348 69.281119 100.178852 69.473566 99.630149 69.666014 99.079302 69.858462 98.526375 70.050909 97.971430 70.243357 97.414529 70.435804 96.855738 70.628252 96.295118 70.820699 95.732732 71.013147 95.168645 71.205594 94.602918 71.398042 94.035615 71.590490 93.466799 71.782937 92.896533 71.975385 92.324881 72.167832 91.751904 72.360280 91.177668 72.552727 90.602233 72.745175 90.025665 72.937622 89.448024 73.130070 88.869376 73.322517 88.289783 73.514965 87.709308 73.707413 87.128013 73.899860 86.545963 74.092308 85.963220 74.284755 85.379848 74.477203 84.795909 74.669650 84.211467 74.862098 83.626584 75.054545 83.041324 75.246993 82.455750 75.439441 81.869925 75.631888 81.283912 75.824336 80.697774 76.016783 80.111574 76.209231 79.525376 76.401678 78.939242 76.594126 78.353236 76.786573 77.767420 76.979021 77.181858 77.171469 76.596613 77.363916 76.011748 77.556364 75.427326 77.748811 74.843410 77.941259 74.260063 78.133706 73.677349 78.326154 73.095330 78.518601 72.514069 78.711049 71.933630 78.903497 71.354076 79.095944 70.775470 79.288392 70.197874 79.480839 69.621353 79.673287 69.045968 79.865734 68.471784 80.058182 67.898863 80.250629 67.327269 80.443077 66.757064 80.635524 66.188311 80.827972 65.621075 81.020420 65.055417 81.212867 64.491401 81.405315 63.929089 81.597762 63.368546 81.790210 62.809834 81.982657 62.253017 82.175105 61.698156 82.367552 61.145317 82.560000 60.594560 82.752448 60.045951 82.944895 59.499551 83.137343 58.955424 83.329790 58.413632 83.522238 57.874240 83.714685 57.337310 83.907133 56.802906 84.099580 56.271089 84.292028 55.741924 84.484476 55.215474 84.676923 54.691801 84.869371 54.170969 85.061818 53.653041 85.254266 53.138079 85.446713 52.626148 85.639161 52.117310 85.831608 51.611628 86.024056 51.109165 86.216503 50.609984 86.408951 50.114150 86.601399 49.621723 86.793846 49.132769 86.986294 48.647349 87.178741 48.165527 87.371189 47.687366 87.563636 47.212929 87.756084 46.742279 87.948531 46.275480 88.140979 45.812594 88.333427 45.353684 88.525874 44.898814 88.718322 44.448047 88.910769 44.001445 89.103217 43.559072 89.295664 43.120991 89.488112 42.687265 89.680559 42.257958 89.873007 41.833131 90.065455 41.412849 90.257902 40.997174 90.450350 40.586170 90.642797 40.179900 90.835245 39.778426 91.027692 39.381812 91.220140 38.990121 91.412587 38.603416 91.605035 38.221760 91.797483 37.845216 91.989930 37.473848 92.182378 37.107718 92.374825 36.746889 92.567273 36.391425 92.759720 36.041389 92.952168 35.696844 93.144615 35.357852 93.337063 35.024478 93.529510 34.696783 93.721958 34.374832 93.914406 34.058687 94.106853 33.748411 94.299301 33.444068 94.491748 33.145720 94.684196 32.853431 94.876643 32.567264 95.069091 32.287282 95.261538 32.013547 95.453986 31.746124 95.646434 31.485075 95.838881 31.230463 96.031329 30.982351 96.223776 30.740803 96.416224 30.505882 96.608671 30.277650 96.801119 30.056170 96.993566 29.841507 97.186014 29.633722 97.378462 29.432880 97.570909 29.239043 97.763357 29.052273 97.955804 28.872636 98.148252 28.700192 98.340699 28.535006 98.533147 28.377141 98.725594 28.226659 98.918042 28.083625 99.110490 27.948100 99.302937 27.820148 99.495385 27.699832 99.687832 27.587215 99.880280 27.482361 100.072727 27.385332 100.265175 27.296191 100.457622 27.215002 100.650070 27.141828 100.842517 27.076732 101.034965 27.019776 101.227413 26.971024 101.419860 26.930540 101.612308 26.898385 101.804755 26.874624 101.997203 26.859319 102.189650 26.852534 102.382098 26.854331 102.574545 26.864774 102.766993 26.883925 102.959441 26.911849 103.151888 26.948607 103.344336 26.994263 103.536783 27.048881 103.729231 27.112522 103.921678 27.185251 104.114126 27.267131 104.306573 27.358224 104.499021 27.458593 104.691469 27.568302 104.883916 27.687415 105.076364 27.815992 105.268811 27.954099 105.461259 28.101798 105.653706 28.259153 105.846154 28.426225 106.038601 28.603079 106.231049 28.789778 106.423497 28.986384 106.615944 29.192960 106.808392 29.409571 107.000839 29.636261 107.193287 29.873007 107.385734 30.119771 107.578182 30.376510 107.770629 30.643185 107.963077 30.919755 108.155524 31.206181 108.347972 31.502422 108.540420 31.808438 108.732867 32.124189 108.925315 32.449633 109.117762 32.784732 109.310210 33.129445 109.502657 33.483731 109.695105 33.847550 109.887552 34.220863 110.080000 34.603628 110.272448 34.995806 110.464895 35.397356 110.657343 35.808238 110.849790 36.228411 111.042238 36.657837 111.234685 37.096473 111.427133 37.544281 111.619580 38.001219 111.812028 38.467248 112.004476 38.942326 112.196923 39.426415 112.389371 39.919474 112.581818 40.421462 112.774266 40.932339 112.966713 41.452065 113.159161 41.980600 113.351608 42.517903 113.544056 43.063935 113.736503 43.618654 113.928951 44.182021 114.121399 44.753995 114.313846 45.334537 114.506294 45.923605 114.698741 46.521160 114.891189 47.127162 115.083636 47.741569 115.276084 48.364343 115.468531 48.995442 115.660979 49.634826 115.853427 50.282455 116.045874 50.938290 116.238322 51.602288 116.430769 52.274412 116.623217 52.954619 116.815664 53.642870 117.008112 54.339125 117.200559 55.043343 117.393007 55.755483 117.585455 56.475507 117.777902 57.203374 117.970350 57.939042 118.162797 58.682473 118.355245 59.433625 118.547692 60.192459 118.740140 60.958934 118.932587 61.733010 119.125035 62.514647 119.317483 63.303804 119.509930 64.100442 119.702378 64.904519 119.894825 65.715997 120.087273 66.534833 120.279720 67.360989 120.472168 68.194424 120.664615 69.035098 120.857063 69.882970 121.049510 70.738000 121.241958 71.600148 121.434406 72.469374 121.626853 73.345637 121.819301 74.228897 122.011748 75.119115 122.204196 76.016248 122.396643 76.920259 122.589091 77.831105 122.781538 78.748747 122.973986 79.673145 123.166434 80.604259 123.358881 81.542047 123.551329 82.486470 123.743776 83.437488 123.936224 84.395060 124.128671 85.359146 124.321119 86.329706 124.513566 87.306700 124.706014 88.290087 124.898462 89.279827 125.090909 90.275880 125.283357 91.278205 125.475804 92.286763 125.668252 93.301513 125.860699 94.322414 126.053147 95.349427 126.245594 96.382511 126.438042 97.421627 126.630490 98.466733 126.822937 99.517789 127.015385 100.574756 127.207832 101.637593 127.400280 102.706259 127.592727 103.780715 127.785175 104.860920 127.977622 105.946834 128.170070 107.038417 128.362517 108.135628 128.554965 109.238428 128.747413 110.346775 128.939860 111.460630 129.132308 112.579953 129.324755 113.704703 129.517203 114.834839 129.709650 115.970323 129.902098 117.111112 130.094545 118.257168 130.286993 119.408450 130.479441 120.564917 130.671888 121.726530 130.864336 122.893248 131.056783 124.065030 131.249231 125.241838 131.441678 126.423629 131.634126 127.610365 131.826573 128.802005 132.019021 129.998508 132.211469 131.199834 132.403916 132.405944 132.596364 133.616796 132.788811 134.832351 132.981259 136.052569 133.173706 137.277408 133.366154 138.506829 133.558601 139.740792 133.751049 140.979256 133.943497 142.222181 134.135944 143.469526 134.328392 144.721253 134.520839 145.977319 134.713287 147.237686 134.905734 148.502312 135.098182 149.771158 135.290629 151.044183 135.483077 152.321347 135.675524 153.602609 135.867972 154.887930 136.060420 156.177270 136.252867 157.470587 136.445315 158.767842 136.637762 160.068994 136.830210 161.374004 137.022657 162.682830 137.215105 163.995434 137.407552 165.311773 137.600000 166.631809 137.792448 167.955501 137.984895 169.282808 138.177343 170.613691 138.369790 171.948108 138.562238 173.286021 138.754685 174.627389 138.947133 175.972170 139.139580 177.320326 139.332028 178.671816 139.524476 180.026599 139.716923 181.384636 139.909371 182.745885 140.101818 184.110308 140.294266 185.477863 140.486713 186.848510 140.679161 188.222210 140.871608 189.598921 141.064056 190.978604 141.256503 192.361218 141.448951 193.746723 141.641399 195.135079 141.833846 196.526246 142.026294 197.920183 142.218741 199.316849 142.411189 200.716206 142.603636 202.118212 142.796084 203.522827 142.988531 204.930012 143.180979 206.339725 143.373427 207.751926 143.565874 209.166576 143.758322 210.583633 143.950769 212.003059 144.143217 213.424812 144.335664 214.848852 144.528112 216.275139 144.720559 217.703632 144.913007 219.134292 145.105455 220.567079 145.297902 222.001951 145.490350 223.438868 145.682797 224.877792 145.875245 226.318680 146.067692 227.761493 146.260140 229.206191 146.452587 230.652734 146.645035 232.101080 146.837483 233.551190 147.029930 235.003024 147.222378 236.456541 147.414825 237.911702 147.607273 239.368465 147.799720 240.826791 147.992168 242.286639 148.184615 243.747969 148.377063 245.210741 148.569510 246.674915 148.761958 248.140450 148.954406 249.607305 149.146853 251.075442 149.339301 252.544819 149.531748 254.015397 149.724196 255.487135 149.916643 256.959992 150.109091 258.433929 150.301538 259.908905 150.493986 261.384880 150.686434 262.861814 150.878881 264.339666 151.071329 265.818397 151.263776 267.297966 151.456224 268.778332 151.648671 270.259456 151.841119 271.741297 152.033566 273.223815 152.226014 274.706969 152.418462 276.190720 152.610909 277.675028 152.803357 279.159851 152.995804 280.645150 153.188252 282.130884 153.380699 283.617013 153.573147 285.103498 153.765594 286.590297 153.958042 288.077370 154.150490 289.564678 154.342937 291.052179 154.535385 292.539834 154.727832 294.027603 154.920280 295.515444 155.112727 297.003314 155.305175 298.491149 155.497622 299.978881 155.690070 301.466443 155.882517 302.953767 156.074965 304.440784 156.267413 305.927429 156.459860 307.413631 156.652308 308.899325 156.844755 310.384442 157.037203 311.868914 157.229650 313.352673 157.422098 314.835652 157.614545 316.317784 157.806993 317.799000 157.999441 319.279232 158.191888 320.758413 158.384336 322.236476 158.576783 323.713351 158.769231 325.188972 158.961678 326.663271 159.154126 328.136180 159.346573 329.607631 159.539021 331.077557 159.731469 332.545890 159.923916 334.012561 160.116364 335.477504 160.308811 336.940651 160.501259 338.401933 160.693706 339.861283 160.886154 341.318634 161.078601 342.773917 161.271049 344.227065 161.463497 345.678010 161.655944 347.126684 161.848392 348.573020 162.040839 350.016949 162.233287 351.458405 162.425734 352.897318 162.618182 354.333623 162.810629 355.767250 163.003077 357.198131 163.195524 358.626201 163.387972 360.051389 163.580420 361.473630 163.772867 362.892854 163.965315 364.308995 164.157762 365.721984 164.350210 367.131754 164.542657 368.538237 164.735105 369.941365 164.927552 371.341071 165.120000 372.737286 165.312448 374.129943 165.504895 375.518975 165.697343 376.904313 165.889790 378.285889 166.082238 379.663637 166.274685 381.037488 166.467133 382.407374 166.659580 383.773228 166.852028 385.134982 167.044476 386.492568 167.236923 387.845919 167.429371 389.194966 167.621818 390.539642 167.814266 391.879880 168.006713 393.215611 168.199161 394.546767 168.391608 395.873282 168.584056 397.195086 168.776503 398.512113 168.968951 399.824295 169.161399 401.131564 169.353846 402.433851 169.546294 403.731091 169.738741 405.023213 169.931189 406.310152 170.123636 407.591839 170.316084 408.868206 170.508531 410.139186 170.700979 411.404711 170.893427 412.664713 171.085874 413.919125 171.278322 415.167878 171.470769 416.410905 171.663217 417.648138 171.855664 418.879509 172.048112 420.104951 172.240559 421.324396 172.433007 422.537776 172.625455 423.745024 172.817902 424.946071 173.010350 426.140850 173.202797 427.329293 173.395245 428.511332 173.587692 429.686900 173.780140 430.855929 173.972587 432.018351 174.165035 433.174098 174.357483 434.323103 174.549930 435.465298 174.742378 436.600615 174.934825 437.728986 175.127273 438.850344 175.319720 439.964620 175.512168 441.071748 175.704615 442.171659 175.897063 443.264285 176.089510 444.349560 176.281958 445.427414 176.474406 446.497781 176.666853 447.560592 176.859301 448.615781 177.051748 449.663278 177.244196 450.703016 177.436643 451.734928 177.629091 452.758946 177.821538 453.775002 178.013986 454.783029 178.206434 455.782957 178.398881 456.774721 178.591329 457.758252 178.783776 458.733481 178.976224 459.700343 179.168671 460.658768 179.361119 461.608689 179.553566 462.550039 179.746014 463.482749 179.938462 464.406752 180.130909 465.321980 180.323357 466.228365 180.515804 467.125839 180.708252 468.014336 180.900699 468.893786 181.093147 469.764123 181.285594 470.625278 181.478042 471.477184 181.670490 472.319773 181.862937 473.152977 182.055385 473.976728 182.247832 474.790960 182.440280 475.595603 182.632727 476.390591 182.825175 477.175855 183.017622 477.951328 183.210070 478.716941 183.402517 479.472628 183.594965 480.218321 183.787413 480.953951 183.979860 481.679451 184.172308 482.394754 184.364755 483.099790 184.557203 483.794494 184.749650 484.478797 184.942098 485.152630 185.134545 485.815927 185.326993 486.468620 185.519441 487.110641 185.711888 487.741922 185.904336 488.362395 186.096783 488.971994 186.289231 489.570649 186.481678 490.158293 186.674126 490.734859 186.866573 491.300278 187.059021 491.854483 187.251469 492.397407 187.443916 492.928980 187.636364 493.449137 187.828811 493.957808 188.021259 494.454927 188.213706 494.940425 188.406154 495.414235 188.598601 495.876288 188.791049 496.326518 188.983497 496.764856 189.175944 497.191235 189.368392 497.605586 189.560839 498.007843 189.753287 498.397937 189.945734 498.775801 190.138182 499.141367 190.330629 499.494567 190.523077 499.835333 190.715524 500.163598 190.907972 500.479294 191.100420 500.782352 191.292867 501.072707 191.485315 501.350288 191.677762 501.615030 191.870210 501.866864 192.062657 502.105722 192.255105 502.331537 192.447552 502.544240 192.640000 502.743765 192.832448 502.930043 193.024895 503.103007 193.217343 503.262588 193.409790 503.408720 193.602238 503.541334 193.794685 503.660362 193.987133 503.765737 194.179580 503.857392 194.372028 503.935258 194.564476 503.999267 194.756923 504.049352 194.949371 504.085445 195.141818 504.107479 195.334266 504.115385 195.526713 504.109095 195.719161 504.088543 195.911608 504.053661 196.104056 504.004379 196.296503 503.940632 196.488951 503.862351 196.681399 503.769467 196.873846 503.661915 197.066294 503.539625 197.258741 503.402530 197.451189 503.250563 197.643636 503.083655 197.836084 502.901739 198.028531 502.704747 198.220979 502.492611 198.413427 502.265264 198.605874 502.022637 198.798322 501.764664 198.990769 501.491275 199.183217 501.202405 199.375664 500.897984 199.568112 500.577945 199.760559 500.242220 199.953007 499.890742 200.145455 499.523442 200.337902 499.140254 200.530350 498.741108 200.722797 498.325939 200.915245 497.894677 201.107692 497.447255 201.300140 496.983605 201.492587 496.503659 201.685035 496.007351 201.877483 495.494611 202.069930 494.965373 202.262378 494.419568 202.454825 493.857129 202.647273 493.277987 202.839720 492.682076 203.032168 492.069328 203.224615 491.439705 203.417063 490.793297 203.609510 490.130224 203.801958 489.450605 203.994406 488.754561 204.186853 488.042212 204.379301 487.313677 204.571748 486.569076 204.764196 485.808530 204.956643 485.032159 205.149091 484.240082 205.341538 483.432419 205.533986 482.609291 205.726434 481.770817 205.918881 480.917118 206.111329 480.048313 206.303776 479.164522 206.496224 478.265865 206.688671 477.352462 206.881119 476.424434 207.073566 475.481900 207.266014 474.524980 207.458462 473.553794 207.650909 472.568463 207.843357 471.569105 208.035804 470.555841 208.228252 469.528792 208.420699 468.488076 208.613147 467.433815 208.805594 466.366127 208.998042 465.285133 209.190490 464.190953 209.382937 463.083707 209.575385 461.963515 209.767832 460.830496 209.960280 459.684772 210.152727 458.526461 210.345175 457.355683 210.537622 456.172560 210.730070 454.977210 210.922517 453.769754 211.114965 452.550311 211.307413 451.319002 211.499860 450.075947 211.692308 448.821265 211.884755 447.555077 212.077203 446.277502 212.269650 444.988660 212.462098 443.688672 212.654545 442.377658 212.846993 441.055736 213.039441 439.723029 213.231888 438.379654 213.424336 437.025733 213.616783 435.661385 213.809231 434.286730 214.001678 432.901888 214.194126 431.506980 214.386573 430.102125 214.579021 428.687443 214.771469 427.263054 214.963916 425.829078 215.156364 424.385635 215.348811 422.932845 215.541259 421.470829 215.733706 419.999705 215.926154 418.519594 216.118601 417.030616 216.311049 415.532891 216.503497 414.026539 216.695944 412.511679 216.888392 410.988433 217.080839 409.456919 217.273287 407.917258 217.465734 406.369570 217.658182 404.813975 217.850629 403.250592 218.043077 401.679542 218.235524 400.100944 218.427972 398.514919 218.620420 396.921587 218.812867 395.321067 219.005315 393.713480 219.197762 392.098945 219.390210 390.477583 219.582657 388.849513 219.775105 387.214856 219.967552 385.573731 220.160000 383.926258 220.352448 382.272558 220.544895 380.612750 220.737343 378.946954 220.929790 377.275290 221.122238 375.597879 221.314685 373.914840 221.507133 372.226293 221.699580 370.532359 221.892028 368.833156 222.084476 367.128806 222.276923 365.419427 222.469371 363.705141 222.661818 361.986066 222.854266 360.262324 223.046713 358.534034 223.239161 356.801315 223.431608 355.064289 223.624056 353.323074 223.816503 351.577791 224.008951 349.828560 224.201399 348.075501 224.393846 346.318734 224.586294 344.558378 224.778741 342.794554 224.971189 341.027382 225.163636 339.256982 225.356084 337.483473 225.548531 335.706976 225.740979 333.927610 225.933427 332.145496 226.125874 330.360753 226.318322 328.573502 226.510769 326.783863 226.703217 324.991955 226.895664 323.197898 227.088112 321.401813 227.280559 319.603819 227.473007 317.804037 227.665455 316.002586 227.857902 314.199586 228.050350 312.395157 228.242797 310.589420 228.435245 308.782494 228.627692 306.974499 228.820140 305.165555 229.012587 303.355782 229.205035 301.545301 229.397483 299.734231 229.589930 297.922691 229.782378 296.110803 229.974825 294.298686 230.167273 292.486459 230.359720 290.674244 230.552168 288.862160 230.744615 287.050326 230.937063 285.238864 231.129510 283.427892 231.321958 281.617531 231.514406 279.807901 231.706853 277.999121 231.899301 276.191313 232.091748 274.384595 232.284196 272.579087 232.476643 270.774911 232.669091 268.972185 232.861538 267.171030 233.053986 265.371565 233.246434 263.573911 233.438881 261.778187 233.631329 259.984514 233.823776 258.193011 234.016224 256.403799 234.208671 254.616997 234.401119 252.832726 234.593566 251.051105 234.786014 249.272254 234.978462 247.496294 235.170909 245.723343 235.363357 243.953524 235.555804 242.186954 235.748252 240.423755 235.940699 238.664046 236.133147 236.907947 236.325594 235.155578 236.518042 233.407059 236.710490 231.662510 236.902937 229.922051 237.095385 228.185803 237.287832 226.453884 237.480280 224.726416 237.672727 223.003517 237.865175 221.285308 238.057622 219.571909 238.250070 217.863440 238.442517 216.160021 238.634965 214.461772 238.827413 212.768812 239.019860 211.081262 239.212308 209.399242 239.404755 207.722872 239.597203 206.052271 239.789650 204.387560 239.982098 202.728858 240.174545 201.076287 240.366993 199.429964 240.559441 197.790012 240.751888 196.156548 240.944336 194.529695 241.136783 192.909571 241.329231 191.296296 241.521678 189.689990 241.714126 188.090774 241.906573 186.498768 242.099021 184.914090 242.291469 183.336862 242.483916 181.767204 242.676364 180.205234 242.868811 178.651074 243.061259 177.104843 243.253706 175.566661 243.446154 174.036649 243.638601 172.514925 243.831049 171.001611 244.023497 169.496825 244.215944 168.000689 244.408392 166.513321 244.600839 165.034843 244.793287 163.565374 244.985734 162.105033 245.178182 160.653942 245.370629 159.212219 245.563077 157.779985 245.755524 156.357360 245.947972 154.944464 246.140420 153.541416 246.332867 152.148338 246.525315 150.765348 246.717762 149.392567 246.910210 148.030114 247.102657 146.678110 247.295105 145.336675 247.487552 144.005928 247.680000 142.685990 247.872448 141.376980 248.064895 140.079019 248.257343 138.792227 248.449790 137.516722 248.642238 136.252627 248.834685 135.000059 249.027133 133.759140 249.219580 132.529990 249.412028 131.312727 249.604476 130.107473 249.796923 128.914348 249.989371 127.733470 250.181818 126.564961 250.374266 125.408940 250.566713 124.265527 250.759161 123.134842 250.951608 122.017006 251.144056 120.912137 251.336503 119.820326 251.528951 118.741538 251.721399 117.675709 251.913846 116.622774 252.106294 115.582669 252.298741 114.555329 252.491189 113.540689 252.683636 112.538684 252.876084 111.549251 253.068531 110.572325 253.260979 109.607840 253.453427 108.655733 253.645874 107.715938 253.838322 106.788391 254.030769 105.873028 254.223217 104.969783 254.415664 104.078592 254.608112 103.199392 254.800559 102.332116 254.993007 101.476700 255.185455 100.633080 255.377902 99.801191 255.570350 98.980968 255.762797 98.172348 255.955245 97.375264 256.147692 96.589653 256.340140 95.815450 256.532587 95.052591 256.725035 94.301010 256.917483 93.560643 257.109930 92.831426 257.302378 92.113294 257.494825 91.406182 257.687273 90.710026 257.879720 90.024760 258.072168 89.350321 258.264615 88.686644 258.457063 88.033664 258.649510 87.391317 258.841958 86.759537 259.034406 86.138261 259.226853 85.527423 259.419301 84.926960 259.611748 84.336806 259.804196 83.756897 259.996643 83.187168 260.189091 82.627555 260.381538 82.077992 260.573986 81.538417 260.766434 81.008762 260.958881 80.488965 261.151329 79.978961 261.343776 79.478684 261.536224 78.988071 261.728671 78.507056 261.921119 78.035575 262.113566 77.573564 262.306014 77.120957 262.498462 76.677691 262.690909 76.243700 262.883357 75.818921 263.075804 75.403287 263.268252 74.996735 263.460699 74.599201 263.653147 74.210619 263.845594 73.830924 264.038042 73.460053 264.230490 73.097941 264.422937 72.744522 264.615385 72.399733 264.807832 72.063508 265.000280 71.735784 265.192727 71.416495 265.385175 71.105578 265.577622 70.802966 265.770070 70.508596 265.962517 70.222403 266.154965 69.944323 266.347413 69.674290 266.539860 69.412241 266.732308 69.158110 266.924755 68.911833 267.117203 68.673346 267.309650 68.442583 267.502098 68.219480 267.694545 68.003973 267.886993 67.795996 268.079441 67.595486 268.271888 67.402378 268.464336 67.216606 268.656783 67.038107 268.849231 66.866816 269.041678 66.702668 269.234126 66.545598 269.426573 66.395542 269.619021 66.252436 269.811469 66.116214 270.003916 65.986812 270.196364 65.864166 270.388811 65.748210 270.581259 65.638881 270.773706 65.536113 270.966154 65.439842 271.158601 65.350004 271.351049 65.266533 271.543497 65.189366 271.735944 65.118436 271.928392 65.053681 272.120839 64.995035 272.313287 64.942434 272.505734 64.895813 272.698182 64.855107 272.890629 64.820252 273.083077 64.791183 273.275524 64.767835 273.467972 64.750145 273.660420 64.738046 273.852867 64.731476 274.045315 64.730368 274.237762 64.734659 274.430210 64.744284 274.622657 64.759178 274.815105 64.779277 275.007552 64.804515 275.200000 64.834829 275.392448 64.870154 275.584895 64.910424 275.777343 64.955577 275.969790 65.005546 276.162238 65.060267 276.354685 65.119676 276.547133 65.183708 276.739580 65.252299 276.932028 65.325383 277.124476 65.402897 277.316923 65.484775 277.509371 65.570952 277.701818 65.661366 277.894266 65.755950 278.086713 65.854640 278.279161 65.957371 278.471608 66.064079 278.664056 66.174700 278.856503 66.289168 279.048951 66.407419 279.241399 66.529388 279.433846 66.655012 279.626294 66.784224 279.818741 66.916961 280.011189 67.053158 280.203636 67.192749 280.396084 67.335672 280.588531 67.481861 280.780979 67.631251 280.973427 67.783778 281.165874 67.939377 281.358322 68.097983 281.550769 68.259533 281.743217 68.423961 281.935664 68.591203 282.128112 68.761193 282.320559 68.933868 282.513007 69.109163 282.705455 69.287014 282.897902 69.467354 283.090350 69.650121 283.282797 69.835249 283.475245 70.022674 283.667692 70.212331 283.860140 70.404156 284.052587 70.598084 284.245035 70.794049 284.437483 70.991989 284.629930 71.191837 284.822378 71.393530 285.014825 71.597003 285.207273 71.802191 285.399720 72.009029 285.592168 72.217454 285.784615 72.427399 285.977063 72.638802 286.169510 72.851597 286.361958 73.065719 286.554406 73.281103 286.746853 73.497687 286.939301 73.715403 287.131748 73.934189 287.324196 74.153979 287.516643 74.374709 287.709091 74.596314 287.901538 74.818730 288.093986 75.041891 288.286434 75.265734 288.478881 75.490194 288.671329 75.715205 288.863776 75.940704 289.056224 76.166626 289.248671 76.392906 289.441119 76.619479 289.633566 76.846282 289.826014 77.073249 290.018462 77.300315 290.210909 77.527417 290.403357 77.754489 290.595804 77.981467 290.788252 78.208286 290.980699 78.434882 291.173147 78.661190 291.365594 78.887145 291.558042 79.112683 291.750490 79.337740 291.942937 79.562249 292.135385 79.786148 292.327832 80.009371 292.520280 80.231854 292.712727 80.453531 292.905175 80.674340 293.097622 80.894214 293.290070 81.113089 293.482517 81.330901 293.674965 81.547584 293.867413 81.763076 294.059860 81.977309 294.252308 82.190221 294.444755 82.401747 294.637203 82.611821 294.829650 82.820380 295.022098 83.027358 295.214545 83.232691 295.406993 83.436315 295.599441 83.638164 295.791888 83.838175 295.984336 84.036282 296.176783 84.232421 296.369231 84.426528 296.561678 84.618537 296.754126 84.808384 296.946573 84.996004 297.139021 85.181334 297.331469 85.364308 297.523916 85.544861 297.716364 85.722929 297.908811 85.898448 298.101259 86.071352 298.293706 86.241577 298.486154 86.409059 298.678601 86.573733 298.871049 86.735534 299.063497 86.894398 299.255944 87.050260 299.448392 87.203069 299.640839 87.352830 299.833287 87.499560 300.025734 87.643279 300.218182 87.784003 300.410629 87.921753 300.603077 88.056545 300.795524 88.188397 300.987972 88.317329 301.180420 88.443358 301.372867 88.566503 301.565315 88.686782 301.757762 88.804212 301.950210 88.918812 302.142657 89.030601 302.335105 89.139596 302.527552 89.245817 302.720000 89.349280 302.912448 89.450004 303.104895 89.548008 303.297343 89.643309 303.489790 89.735926 303.682238 89.825877 303.874685 89.913181 304.067133 89.997854 304.259580 90.079917 304.452028 90.159386 304.644476 90.236281 304.836923 90.310618 305.029371 90.382417 305.221818 90.451696 305.414266 90.518473 305.606713 90.582766 305.799161 90.644593 305.991608 90.703973 306.184056 90.760923 306.376503 90.815463 306.568951 90.867609 306.761399 90.917381 306.953846 90.964797 307.146294 91.009874 307.338741 91.052632 307.531189 91.093087 307.723636 91.131259 307.916084 91.167166 308.108531 91.200825 308.300979 91.232256 308.493427 91.261476 308.685874 91.288503 308.878322 91.313356 309.070769 91.336053 309.263217 91.356612 309.455664 91.375051 309.648112 91.391389 309.840559 91.405643 310.033007 91.417833 310.225455 91.427975 310.417902 91.436089 310.610350 91.442193 310.802797 91.446304 310.995245 91.448442 311.187692 91.448623 311.380140 91.446867 311.572587 91.443191 311.765035 91.437615 311.957483 91.430155 312.149930 91.420831 312.342378 91.409660 312.534825 91.396661 312.727273 91.381851 312.919720 91.365250 313.112168 91.346875 313.304615 91.326744 313.497063 91.304876 313.689510 91.281290 313.881958 91.256002 314.074406 91.229031 314.266853 91.200396 314.459301 91.170115 314.651748 91.138206 314.844196 91.104687 315.036643 91.069577 315.229091 91.032893 315.421538 90.994654 315.613986 90.954877 315.806434 90.913582 315.998881 90.870787 316.191329 90.826509 316.383776 90.780767 316.576224 90.733579 316.768671 90.684963 316.961119 90.634938 317.153566 90.583522 317.346014 90.530732 317.538462 90.476588 317.730909 90.421107 317.923357 90.364307 318.115804 90.306207 318.308252 90.246825 318.500699 90.186179 318.693147 90.124288 318.885594 90.061169 319.078042 89.996841 319.270490 89.931322 319.462937 89.864630 319.655385 89.796784 319.847832 89.727801 320.040280 89.657700 320.232727 89.586499 320.425175 89.514217 320.617622 89.440870 320.810070 89.366479 321.002517 89.291060 321.194965 89.214633 321.387413 89.137215 321.579860 89.058824 321.772308 88.979479 321.964755 88.899198 322.157203 88.817999 322.349650 88.735900 322.542098 88.652920 322.734545 88.569077 322.926993 88.484389 323.119441 88.398874 323.311888 88.312550 323.504336 88.225436 323.696783 88.137550 323.889231 88.048910 324.081678 87.959534 324.274126 87.869440 324.466573 87.778647 324.659021 87.687173 324.851469 87.595036 325.043916 87.502255 325.236364 87.408846 325.428811 87.314830 325.621259 87.220223 325.813706 87.125045 326.006154 87.029313 326.198601 86.933045 326.391049 86.836261 326.583497 86.738977 326.775944 86.641212 326.968392 86.542985 327.160839 86.444313 327.353287 86.345215 327.545734 86.245710 327.738182 86.145814 327.930629 86.045547 328.123077 85.944926 328.315524 85.843970 328.507972 85.742698 328.700420 85.641126 328.892867 85.539274 329.085315 85.437160 329.277762 85.334802 329.470210 85.232217 329.662657 85.129426 329.855105 85.026444 330.047552 84.923291 330.240000 84.819986 330.432448 84.716545 330.624895 84.612988 330.817343 84.509332 331.009790 84.405596 331.202238 84.301799 331.394685 84.197957 331.587133 84.094090 331.779580 83.990215 331.972028 83.886351 332.164476 83.782516 332.356923 83.678729 332.549371 83.575007 332.741818 83.471368 332.934266 83.367832 333.126713 83.264415 333.319161 83.161137 333.511608 83.058016 333.704056 82.955069 333.896503 82.852315 334.088951 82.749772 334.281399 82.647458 334.473846 82.545393 334.666294 82.443592 334.858741 82.342076 335.051189 82.240862 335.243636 82.139968 335.436084 82.039413 335.628531 81.939215 335.820979 81.839392 336.013427 81.739962 336.205874 81.640943 336.398322 81.542355 336.590769 81.444214 336.783217 81.346539 336.975664 81.249348 337.168112 81.152660 337.360559 81.056492 337.553007 80.960864 337.745455 80.865792 337.937902 80.771296 338.130350 80.677393 338.322797 80.584103 338.515245 80.491442 338.707692 80.399429 338.900140 80.308083 339.092587 80.217421 339.285035 80.127462 339.477483 80.038224 339.669930 79.949725 339.862378 79.861984 340.054825 79.775018 340.247273 79.688846 340.439720 79.603486 340.632168 79.518957 340.824615 79.435275 341.017063 79.352461 341.209510 79.270532 341.401958 79.189505 341.594406 79.109400 341.786853 79.030234 341.979301 78.952026 342.171748 78.874794 342.364196 78.798557 342.556643 78.723331 342.749091 78.649136 342.941538 78.575990 343.133986 78.503911 343.326434 78.432917 343.518881 78.363027 343.711329 78.294258 343.903776 78.226629 344.096224 78.160158 344.288671 78.094863 344.481119 78.030762 344.673566 77.967875 344.866014 77.906218 345.058462 77.845810 345.250909 77.786670 345.443357 77.728815 345.635804 77.672264 345.828252 77.617034 346.020699 77.563145 346.213147 77.510614 346.405594 77.459460 346.598042 77.409700 346.790490 77.361354 346.982937 77.314438 347.175385 77.268972 347.367832 77.224974 347.560280 77.182456 347.752727 77.141408 347.945175 77.101817 348.137622 77.063666 348.330070 77.026941 348.522517 76.991626 348.714965 76.957707 348.907413 76.925169 349.099860 76.893997 349.292308 76.864176 349.484755 76.835689 349.677203 76.808524 349.869650 76.782664 350.062098 76.758095 350.254545 76.734801 350.446993 76.712768 350.639441 76.691981 350.831888 76.672424 351.024336 76.654082 351.216783 76.636942 351.409231 76.620986 351.601678 76.606201 351.794126 76.592571 351.986573 76.580082 352.179021 76.568719 352.371469 76.558465 352.563916 76.549307 352.756364 76.541230 352.948811 76.534217 353.141259 76.528256 353.333706 76.523329 353.526154 76.519423 353.718601 76.516522 353.911049 76.514611 354.103497 76.513675 354.295944 76.513700 354.488392 76.514670 354.680839 76.516570 354.873287 76.519386 355.065734 76.523101 355.258182 76.527702 355.450629 76.533173 355.643077 76.539499 355.835524 76.546665 356.027972 76.554656 356.220420 76.563457 356.412867 76.573054 356.605315 76.583430 356.797762 76.594571 356.990210 76.606463 357.182657 76.619089 357.375105 76.632435 357.567552 76.646487 357.760000 76.661228 357.952448 76.676644 358.144895 76.692720 358.337343 76.709441 358.529790 76.726792 358.722238 76.744758 358.914685 76.763323 359.107133 76.782474 359.299580 76.802194 359.492028 76.822469 359.684476 76.843284 359.876923 76.864623 360.069371 76.886473 360.261818 76.908817 360.454266 76.931640 360.646713 76.954929 360.839161 76.978667 361.031608 77.002840 361.224056 77.027432 361.416503 77.052429 361.608951 77.077816 361.801399 77.103577 361.993846 77.129698 362.186294 77.156164 362.378741 77.182959 362.571189 77.210068 362.763636 77.237478 362.956084 77.265171 363.148531 77.293134 363.340979 77.321352 363.533427 77.349809 363.725874 77.378490 363.918322 77.407381 364.110769 77.436466 364.303217 77.465731 364.495664 77.495160 364.688112 77.524739 364.880559 77.554451 365.073007 77.584284 365.265455 77.614220 365.457902 77.644246 365.650350 77.674346 365.842797 77.704505 366.035245 77.734708 366.227692 77.764941 366.420140 77.795188 366.612587 77.825434 366.805035 77.855665 366.997483 77.885864 367.189930 77.916018 367.382378 77.946110 367.574825 77.976127 367.767273 78.006053 367.959720 78.035873 368.152168 78.065573 368.344615 78.095136 368.537063 78.124548 368.729510 78.153794 368.921958 78.182859 369.114406 78.211729 369.306853 78.240387 369.499301 78.268819 369.691748 78.297010 369.884196 78.324945 370.076643 78.352609 370.269091 78.379987 370.461538 78.407064 370.653986 78.433824 370.846434 78.460253 371.038881 78.486337 371.231329 78.512059 371.423776 78.537404 371.616224 78.562359 371.808671 78.586907 372.001119 78.611035 372.193566 78.634725 372.386014 78.657965 372.578462 78.680738 372.770909 78.703030 372.963357 78.724826 373.155804 78.746110 373.348252 78.766868 373.540699 78.787084 373.733147 78.806744 373.925594 78.825833 374.118042 78.844335 374.310490 78.862236 374.502937 78.879520 374.695385 78.896173 374.887832 78.912179 375.080280 78.927524 375.272727 78.942192 375.465175 78.956169 375.657622 78.969439 375.850070 78.981987 376.042517 78.993799 376.234965 79.004860 376.427413 79.015153 376.619860 79.024665 376.812308 79.033381 377.004755 79.041284 377.197203 79.048361 377.389650 79.054597 377.582098 79.059975 377.774545 79.064482 377.966993 79.068102 378.159441 79.070821 378.351888 79.072622 378.544336 79.073492 378.736783 79.073415 378.929231 79.072376 379.121678 79.070360 379.314126 79.067352 379.506573 79.063338 379.699021 79.058301 379.891469 79.052228 380.083916 79.045102 380.276364 79.036910 380.468811 79.027636 380.661259 79.017265 380.853706 79.005781 381.046154 78.993171 381.238601 78.979419 381.431049 78.964509 381.623497 78.948428 381.815944 78.931159 382.008392 78.912689 382.200839 78.893001 382.393287 78.872081 382.585734 78.849914 382.778182 78.826485 382.970629 78.801778 383.163077 78.775780 383.355524 78.748474 383.547972 78.719846 383.740420 78.689881 383.932867 78.658563 384.125315 78.625878 384.317762 78.591811 384.510210 78.556347 384.702657 78.519470 384.895105 78.481166 385.087552 78.441420 385.280000 78.400216 385.472448 78.357540 385.664895 78.313376 385.857343 78.267710 386.049790 78.220526 386.242238 78.171810 386.434685 78.121547 386.627133 78.069721 386.819580 78.016318 387.012028 77.961322 387.204476 77.904718 387.396923 77.846492 387.589371 77.786629 387.781818 77.725112 387.974266 77.661929 388.166713 77.597062 388.359161 77.530498 388.551608 77.462221 388.744056 77.392217 388.936503 77.320470 389.128951 77.246965 389.321399 77.171688 389.513846 77.094623 389.706294 77.015755 389.898741 76.935069 390.091189 76.852550 390.283636 76.768184 390.476084 76.681955 390.668531 76.593848 390.860979 76.503848 391.053427 76.411940 391.245874 76.318110 391.438322 76.222341 391.630769 76.124620 391.823217 76.024931 392.015664 75.923259 392.208112 75.819588 392.400559 75.713905 392.593007 75.606194 392.785455 75.496440 392.977902 75.384628 393.170350 75.270742 393.362797 75.154769 393.555245 75.036693 393.747692 74.916498 393.940140 74.794171 394.132587 74.669695 394.325035 74.543056 394.517483 74.414239 394.709930 74.283229 394.902378 74.150011 395.094825 74.014569 395.287273 73.876889 395.479720 73.736956 395.672168 73.594761 395.864615 73.450315 396.057063 73.303637 396.249510 73.154745 396.441958 73.003658 396.634406 72.850394 396.826853 72.694970 397.019301 72.537405 397.211748 72.377717 397.404196 72.215924 397.596643 72.052044 397.789091 71.886096 397.981538 71.718098 398.173986 71.548067 398.366434 71.376023 398.558881 71.201982 398.751329 71.025964 398.943776 70.847987 399.136224 70.668068 399.328671 70.486225 399.521119 70.302478 399.713566 70.116844 399.906014 69.929341 400.098462 69.739987 400.290909 69.548801 400.483357 69.355801 400.675804 69.161004 400.868252 68.964430 401.060699 68.766096 401.253147 68.566020 401.445594 68.364221 401.638042 68.160716 401.830490 67.955524 402.022937 67.748664 402.215385 67.540152 402.407832 67.330008 402.600280 67.118249 402.792727 66.904894 402.985175 66.689961 403.177622 66.473467 403.370070 66.255432 403.562517 66.035873 403.754965 65.814808 403.947413 65.592257 404.139860 65.368235 404.332308 65.142763 404.524755 64.915858 404.717203 64.687538 404.909650 64.457821 405.102098 64.226726 405.294545 63.994271 405.486993 63.760474 405.679441 63.525352 405.871888 63.288925 406.064336 63.051210 406.256783 62.812226 406.449231 62.571990 406.641678 62.330521 406.834126 62.087837 407.026573 61.843956 407.219021 61.598897 407.411469 61.352677 407.603916 61.105315 407.796364 60.856828 407.988811 60.607235 408.181259 60.356555 408.373706 60.104805 408.566154 59.852003 408.758601 59.598167 408.951049 59.343317 409.143497 59.087469 409.335944 58.830643 409.528392 58.572855 409.720839 58.314125 409.913287 58.054471 410.105734 57.793910 410.298182 57.532461 410.490629 57.270142 410.683077 57.006971 410.875524 56.742967 411.067972 56.478147 411.260420 56.212530 411.452867 55.946133 411.645315 55.678976 411.837762 55.411075 412.030210 55.142450 412.222657 54.873119 412.415105 54.603099 412.607552 54.332408 412.800000 54.061066 412.992448 53.789090 413.184895 53.516498 413.377343 53.243308 413.569790 52.969539 413.762238 52.695209 413.954685 52.420335 414.147133 52.144937 414.339580 51.869031 414.532028 51.592637 414.724476 51.315773 414.916923 51.038456 415.109371 50.760705 415.301818 50.482539 415.494266 50.203974 415.686713 49.925029 415.879161 49.645724 416.071608 49.366074 416.264056 49.086100 416.456503 48.805818 416.648951 48.525248 416.841399 48.244406 417.033846 47.963313 417.226294 47.681985 417.418741 47.400440 417.611189 47.118698 417.803636 46.836775 417.996084 46.554691 418.188531 46.272463 418.380979 45.990110 418.573427 45.707649 418.765874 45.425099 418.958322 45.142479 419.150769 44.859805 419.343217 44.577097 419.535664 44.294372 419.728112 44.011649 419.920559 43.728946 420.113007 43.446280 420.305455 43.163671 420.497902 42.881136 420.690350 42.598694 420.882797 42.316362 421.075245 42.034159 421.267692 41.752103 421.460140 41.470212 421.652587 41.188504 421.845035 40.906998 422.037483 40.625711 422.229930 40.344662 422.422378 40.063869 422.614825 39.783350 422.807273 39.503123 422.999720 39.223206 423.192168 38.943618 423.384615 38.664377 423.577063 38.385501 423.769510 38.107007 423.961958 37.828915 424.154406 37.551242 424.346853 37.274006 424.539301 36.997226 424.731748 36.720920 424.924196 36.445106 425.116643 36.169802 425.309091 35.895026 425.501538 35.620797 425.693986 35.347132 425.886434 35.074050 426.078881 34.801569 426.271329 34.529707 426.463776 34.258482 426.656224 33.987913 426.848671 33.718017 427.041119 33.448813 427.233566 33.180319 427.426014 32.912553 427.618462 32.645533 427.810909 32.379277 428.003357 32.113804 428.195804 31.849131 428.388252 31.585278 428.580699 31.322261 428.773147 31.060099 428.965594 30.798811 429.158042 30.538414 429.350490 30.278927 429.542937 30.020368 429.735385 29.762754 429.927832 29.506105 430.120280 29.250438 430.312727 28.995771 430.505175 28.742123 430.697622 28.489512 430.890070 28.237955 431.082517 27.987472 431.274965 27.738080 431.467413 27.489797 431.659860 27.242641 431.852308 26.996632 432.044755 26.751786 432.237203 26.508122 432.429650 26.265659 432.622098 26.024413 432.814545 25.784405 433.006993 25.545651 433.199441 25.308169 433.391888 25.071979 433.584336 24.837098 433.776783 24.603544 433.969231 24.371335 434.161678 24.140490 434.354126 23.911027 434.546573 23.682964 434.739021 23.456319 434.931469 23.231110 435.123916 23.007355 435.316364 22.785073 435.508811 22.564282 435.701259 22.345000 435.893706 22.127245 436.086154 21.911034 436.278601 21.696388 436.471049 21.483322 436.663497 21.271857 436.855944 21.062009 437.048392 20.853797 437.240839 20.647240 437.433287 20.442354 437.625734 20.239160 437.818182 20.037673 438.010629 19.837914 438.203077 19.639900 438.395524 19.443648 438.587972 19.249178 438.780420 19.056507 438.972867 18.865654 439.165315 18.676637 439.357762 18.489474 439.550210 18.304182 439.742657 18.120781 439.935105 17.939288 440.127552 17.759722 440.320000 17.582100 440.512448 17.406442 440.704895 17.232764 440.897343 17.061086 441.089790 16.891425 441.282238 16.723799 441.474685 16.558227 441.667133 16.394727 441.859580 16.233316 442.052028 16.074014 442.244476 15.916839 442.436923 15.761807 442.629371 15.608939 442.821818 15.458251 443.014266 15.309762 443.206713 15.163490 443.399161 15.019453 443.591608 14.877670 443.784056 14.738153 443.976503 14.600896 444.168951 14.465887 444.361399 14.333114 444.553846 14.202566 444.746294 14.074230 444.938741 13.948095 445.131189 13.824150 445.323636 13.702381 445.516084 13.582778 445.708531 13.465328 445.900979 13.350021 446.093427 13.236843 446.285874 13.125784 446.478322 13.016832 446.670769 12.909974 446.863217 12.805199 447.055664 12.702495 447.248112 12.601851 447.440559 12.503254 447.633007 12.406693 447.825455 12.312156 448.017902 12.219631 448.210350 12.129106 448.402797 12.040570 448.595245 11.954011 448.787692 11.869417 448.980140 11.786777 449.172587 11.706078 449.365035 11.627308 449.557483 11.550456 449.749930 11.475511 449.942378 11.402460 450.134825 11.331291 450.327273 11.261993 450.519720 11.194554 450.712168 11.128962 450.904615 11.065206 451.097063 11.003273 451.289510 10.943152 451.481958 10.884831 451.674406 10.828298 451.866853 10.773542 452.059301 10.720550 452.251748 10.669311 452.444196 10.619813 452.636643 10.572044 452.829091 10.525993 453.021538 10.481648 453.213986 10.438996 453.406434 10.398027 453.598881 10.358728 453.791329 10.321087 453.983776 10.285094 454.176224 10.250735 454.368671 10.217999 454.561119 10.186875 454.753566 10.157350 454.946014 10.129413 455.138462 10.103052 455.330909 10.078256 455.523357 10.055011 455.715804 10.033308 455.908252 10.013133 456.100699 9.994475 456.293147 9.977323 456.485594 9.961664 456.678042 9.947487 456.870490 9.934780 457.062937 9.923531 457.255385 9.913728 457.447832 9.905360 457.640280 9.898414 457.832727 9.892880 458.025175 9.888744 458.217622 9.885996 458.410070 9.884624 458.602517 9.884615 458.794965 9.885959 458.987413 9.888643 459.179860 9.892655 459.372308 9.897984 459.564755 9.904617 459.757203 9.912544 459.949650 9.921752 460.142098 9.932230 460.334545 9.943965 460.526993 9.956946 460.719441 9.971161 460.911888 9.986599 461.104336 10.003247 461.296783 10.021094 461.489231 10.040128 461.681678 10.060337 461.874126 10.081710 462.066573 10.104234 462.259021 10.127898 462.451469 10.152690 462.643916 10.178598 462.836364 10.205611 463.028811 10.233716 463.221259 10.262902 463.413706 10.293157 463.606154 10.324470 463.798601 10.356828 463.991049 10.390220 464.183497 10.424634 464.375944 10.460058 464.568392 10.496480 464.760839 10.533889 464.953287 10.572272 465.145734 10.611619 465.338182 10.651917 465.530629 10.693154 465.723077 10.735319 465.915524 10.778399 466.107972 10.822384 466.300420 10.867261 466.492867 10.913018 466.685315 10.959644 466.877762 11.007127 467.070210 11.055455 467.262657 11.104617 467.455105 11.154599 467.647552 11.205392 467.840000 11.256983 468.032448 11.309359 468.224895 11.362510 468.417343 11.416424 468.609790 11.471088 468.802238 11.526492 468.994685 11.582622 469.187133 11.639468 469.379580 11.697018 469.572028 11.755259 469.764476 11.814181 469.956923 11.873771 470.149371 11.934017 470.341818 11.994908 470.534266 12.056431 470.726713 12.118576 470.919161 12.181331 471.111608 12.244682 471.304056 12.308620 471.496503 12.373131 471.688951 12.438205 471.881399 12.503829 472.073846 12.569991 472.266294 12.636681 472.458741 12.703885 472.651189 12.771593 472.843636 12.839792 473.036084 12.908470 473.228531 12.977617 473.420979 13.047219 473.613427 13.117266 473.805874 13.187745 473.998322 13.258645 474.190769 13.329954 474.383217 13.401660 474.575664 13.473751 474.768112 13.546216 474.960559 13.619043 475.153007 13.692219 475.345455 13.765734 475.537902 13.839575 475.730350 13.913731 475.922797 13.988189 476.115245 14.062938 476.307692 14.137967 476.500140 14.213263 476.692587 14.288815 476.885035 14.364611 477.077483 14.440638 477.269930 14.516886 477.462378 14.593343 477.654825 14.669996 477.847273 14.746834 478.039720 14.823845 478.232168 14.901018 478.424615 14.978340 478.617063 15.055799 478.809510 15.133385 479.001958 15.211085 479.194406 15.288887 479.386853 15.366780 479.579301 15.444752 479.771748 15.522791 479.964196 15.600885 480.156643 15.679022 480.349091 15.757191 480.541538 15.835380 480.733986 15.913577 480.926434 15.991771 481.118881 16.069948 481.311329 16.148099 481.503776 16.226210 481.696224 16.304271 481.888671 16.382269 482.081119 16.460192 482.273566 16.538029 482.466014 16.615769 482.658462 16.693398 482.850909 16.770906 483.043357 16.848280 483.235804 16.925509 483.428252 17.002581 483.620699 17.079485 483.813147 17.156208 484.005594 17.232738 484.198042 17.309065 484.390490 17.385175 484.582937 17.461058 484.775385 17.536701 484.967832 17.612093 485.160280 17.687222 485.352727 17.762076 485.545175 17.836644 485.737622 17.910913 485.930070 17.984872 486.122517 18.058508 486.314965 18.131811 486.507413 18.204769 486.699860 18.277369 486.892308 18.349599 487.084755 18.421449 487.277203 18.492906 487.469650 18.563959 487.662098 18.634595 487.854545 18.704803 488.046993 18.774571 488.239441 18.843888 488.431888 18.912741 488.624336 18.981119 488.816783 19.049009 489.009231 19.116401 489.201678 19.183282 489.394126 19.249641 489.586573 19.315465 489.779021 19.380744 489.971469 19.445465 490.163916 19.509616 490.356364 19.573185 490.548811 19.636162 490.741259 19.698534 490.933706 19.760288 491.126154 19.821415 491.318601 19.881901 491.511049 19.941735 491.703497 20.000905 491.895944 20.059401 492.088392 20.117225 492.280839 20.174379 492.473287 20.230864 492.665734 20.286685 492.858182 20.341844 493.050629 20.396344 493.243077 20.450186 493.435524 20.503375 493.627972 20.555912 493.820420 20.607800 494.012867 20.659043 494.205315 20.709642 494.397762 20.759601 494.590210 20.808922 494.782657 20.857607 494.975105 20.905661 495.167552 20.953084 495.360000 20.999881 495.552448 21.046053 495.744895 21.091603 495.937343 21.136535 496.129790 21.180850 496.322238 21.224552 496.514685 21.267643 496.707133 21.310126 496.899580 21.352004 497.092028 21.393278 497.284476 21.433953 497.476923 21.474031 497.669371 21.513513 497.861818 21.552404 498.054266 21.590706 498.246713 21.628421 498.439161 21.665553 498.631608 21.702103 498.824056 21.738075 499.016503 21.773471 499.208951 21.808295 499.401399 21.842548 499.593846 21.876233 499.786294 21.909354 499.978741 21.941912 500.171189 21.973911 500.363636 22.005353 500.556084 22.036241 500.748531 22.066578 500.940979 22.096366 501.133427 22.125608 501.325874 22.154307 501.518322 22.182465 501.710769 22.210086 501.903217 22.237171 502.095664 22.263724 502.288112 22.289747 502.480559 22.315243 502.673007 22.340215 502.865455 22.364665 503.057902 22.388596 503.250350 22.412011 503.442797 22.434912 503.635245 22.457303 503.827692 22.479186 504.020140 22.500563 504.212587 22.521437 504.405035 22.541811 504.597483 22.561688 504.789930 22.581071 504.982378 22.599961 505.174825 22.618363 505.367273 22.636278 505.559720 22.653709 505.752168 22.670659 505.944615 22.687130 506.137063 22.703126 506.329510 22.718649 506.521958 22.733702 506.714406 22.748287 506.906853 22.762407 507.099301 22.776065 507.291748 22.789263 507.484196 22.802005 507.676643 22.814293 507.869091 22.826129 508.061538 22.837517 508.253986 22.848459 508.446434 22.858957 508.638881 22.869015 508.831329 22.878635 509.023776 22.887820 509.216224 22.896573 509.408671 22.904895 509.601119 22.912791 509.793566 22.920263 509.986014 22.927312 510.178462 22.933943 510.370909 22.940158 510.563357 22.945959 510.755804 22.951349 510.948252 22.956331 511.140699 22.960908 511.333147 22.965082 511.525594 22.968856 511.718042 22.972233 511.910490 22.975215 512.102937 22.977805 512.295385 22.980006 512.487832 22.981821 512.680280 22.983252 512.872727 22.984301 513.065175 22.984973 513.257622 22.985268 513.450070 22.985191 513.642517 22.984743 513.834965 22.983928 514.027413 22.982748 514.219860 22.981205 514.412308 22.979304 514.604755 22.977045 514.797203 22.974433 514.989650 22.971469 515.182098 22.968156 515.374545 22.964497 515.566993 22.960496 515.759441 22.956153 515.951888 22.951473 516.144336 22.946458 516.336783 22.941110 516.529231 22.935433 516.721678 22.929428 516.914126 22.923099 517.106573 22.916449 517.299021 22.909479 517.491469 22.902194 517.683916 22.894594 517.876364 22.886685 518.068811 22.878466 518.261259 22.869943 518.453706 22.861117 518.646154 22.851990 518.838601 22.842567 519.031049 22.832849 519.223497 22.822839 519.415944 22.812540 519.608392 22.801954 519.800839 22.791084 519.993287 22.779934 520.185734 22.768505 520.378182 22.756800 520.570629 22.744823 520.763077 22.732575 520.955524 22.720059 521.147972 22.707279 521.340420 22.694236 521.532867 22.680934 521.725315 22.667376 521.917762 22.653563 522.110210 22.639499 522.302657 22.625186 522.495105 22.610627 522.687552 22.595825 522.880000 22.580783 523.072448 22.565502 523.264895 22.549987 523.457343 22.534239 523.649790 22.518261 523.842238 22.502056 524.034685 22.485627 524.227133 22.468977 524.419580 22.452107 524.612028 22.435021 524.804476 22.417722 524.996923 22.400212 525.189371 22.382493 525.381818 22.364570 525.574266 22.346443 525.766713 22.328117 525.959161 22.309593 526.151608 22.290875 526.344056 22.271965 526.536503 22.252865 526.728951 22.233579 526.921399 22.214110 527.113846 22.194459 527.306294 22.174630 527.498741 22.154625 527.691189 22.134447 527.883636 22.114099 528.076084 22.093584 528.268531 22.072903 528.460979 22.052060 528.653427 22.031058 528.845874 22.009899 529.038322 21.988586 529.230769 21.967122 529.423217 21.945509 529.615664 21.923750 529.808112 21.901848 530.000559 21.879805 530.193007 21.857625 530.385455 21.835309 530.577902 21.812861 530.770350 21.790283 530.962797 21.767578 531.155245 21.744749 531.347692 21.721798 531.540140 21.698729 531.732587 21.675543 531.925035 21.652243 532.117483 21.628833 532.309930 21.605315 532.502378 21.581691 532.694825 21.557964 532.887273 21.534138 533.079720 21.510214 533.272168 21.486196 533.464615 21.462085 533.657063 21.437886 533.849510 21.413600 534.041958 21.389230 534.234406 21.364779 534.426853 21.340250 534.619301 21.315645 534.811748 21.290967 535.004196 21.266219 535.196643 21.241403 535.389091 21.216523 535.581538 21.191580 535.773986 21.166578 535.966434 21.141519 536.158881 21.116406 536.351329 21.091242 536.543776 21.066029 536.736224 21.040770 536.928671 21.015467 537.121119 20.990125 537.313566 20.964744 537.506014 20.939328 537.698462 20.913880 537.890909 20.888402 538.083357 20.862897 538.275804 20.837368 538.468252 20.811817 538.660699 20.786248 538.853147 20.760662 539.045594 20.735062 539.238042 20.709452 539.430490 20.683833 539.622937 20.658209 539.815385 20.632583 539.815385 514.000000" /></g></g><g class="titles"><text class="title plot_title" x="400.0" y="26">Sukhumvit-Line summary_53</text></g><g class="plot overlay" transform="translate(229, 46)"><g class="series serie-0 color-0"><g class="dots"><circle class="dot reactive tooltip-trigger" cx="10.584615384615383" cy="89.62784907120624" r="2.5" /><desc class="value">9334687</desc><desc class="x ">10.584615384615383</desc><desc class="y ">89.62784907120624</desc><desc class="x_label">Jan</desc></g><g class="dots"><circle class="dot reactive tooltip-trigger" cx="58.696503496503496" cy="125.20960750160896" r="2.5" /><desc class="value">8968211</desc><desc class="x ">58.696503496503496</desc><desc class="y ">125.20960750160896</desc><desc class="x_label">Feb</desc></g><g class="dots"><circle class="dot reactive tooltip-trigger" cx="106.80839160839159" cy="29.409570669720722" r="2.5" /><desc class="value">9954908</desc><desc class="x ">106.80839160839159</desc><desc class="y ">29.409570669720722</desc><desc class="x_label">Mar</desc></g><g class="dots"><circle class="dot reactive tooltip-trigger" cx="154.92027972027972" cy="295.51544405104687" r="2.5" /><desc class="value">7214138</desc><desc class="x top">154.92027972027972</desc><desc class="y top">295.51544405104687</desc><desc class="x_label">Apr</desc></g><g class="dots"><circle class="dot reactive tooltip-trigger" cx="203.03216783216786" cy="492.0693277286742" r="2.5" /><desc class="value">5189722</desc><desc class="x top">203.03216783216786</desc><desc class="y top">492.0693277286742</desc><desc class="x_label">May</desc></g><g class="dots"><circle class="dot reactive tooltip-trigger" cx="251.14405594405594" cy="120.91213702155983" r="2.5" /><desc class="value">9012473</desc><desc class="x ">251.14405594405594</desc><desc class="y ">120.91213702155983</desc><desc class="x_label">Jun</desc></g><g class="dots"><circle class="dot reactive tooltip-trigger" cx="299.255944055944" cy="87.05026002632928" r="2.5" /><desc class="value">9361235</desc><desc class="x left">299.255944055944</desc><desc class="y left">87.05026002632928</desc><desc class="x_label">Jul</desc></g><g class="dots"><circle class="dot reactive tooltip-trigger" cx="347.36783216783215" cy="77.2249737152938" r="2.5" /><desc class="value">9462431</desc><desc class="x left">347.36783216783215</desc><desc class="y left">77.2249737152938</desc><desc class="x_label">Aug</desc></g><g class="dots"><circle class="dot reactive tooltip-trigger" cx="395.47972027972025" cy="73.73695629638445" r="2.5" /><desc class="value">9498356</desc><desc class="x left">395.47972027972025</desc><desc class="y left">73.73695629638445</desc><desc class="x_label">Sep</desc></g><g class="dots"><circle class="dot reactive tooltip-trigger" cx="443.5916083916084" cy="14.877669678127177" r="2.5" /><desc class="value">10104580</desc><desc class="x left">443.5916083916084</desc><desc class="y left">14.877669678127177</desc><desc class="x_label">Oct</desc></g><g class="dots"><circle class="dot reactive tooltip-trigger" cx="491.70349650349647" cy="20.00090461601411" r="2.5" /><desc class="value">10051813</desc><desc class="x left">491.70349650349647</desc><desc class="y left">20.00090461601411</desc><desc class="x_label">Nov</desc></g><g class="dots"><circle class="dot reactive tooltip-trigger" cx="539.8153846153846" cy="20.632582871474767" r="2.5" /><desc class="value">10045307</desc><desc class="x left">539.8153846153846</desc><desc class="y left">20.632582871474767</desc><desc class="x_label">Dec</desc></g></g></g><g class="plot text-overlay" transform="translate(229, 46)"><g class="series serie-0 color-0" /></g><g class="plot tooltip-overlay" transform="translate(229, 46)"><g class="tooltip" style="opacity: 0" transform="translate(0 0)"><rect class="tooltip-box" height="0" rx="0" ry="0" width="0" /><g class="text" /></g></g><g class="legends" transform="translate(10, 56)"><g class="legend reactive activate-serie" id="activate-serie-0"><rect class="color-0 reactive" height="12" width="12" x="0.0" y="1.0" /><text x="17.0" y="11.2">Sukhumvit-Line</text></g></g><g class="legends" transform="translate(790, 56)" /></g></svg>