<?xml version='1.0' encoding='utf-8'?>
<svg xmlns:xlink="http://www.w3.org/1999/xlink" class="pygal-chart" id="chart-1ddff4c1-c28f-43cd-a367-15faf89f8ae9" viewBox="0 0 800 600" xmlns="http://www.w3.org/2000/svg"><!--Generated with pygal 2.0.11 (etree) ©Kozea 2011-2015 on 2015-12-10--><!--http://pygal.org--><!--http://github.com/Kozea/pygal--><defs><style type="text/css">#chart-1ddff4c1-c28f-43cd-a367-15faf89f8ae9{-webkit-user-select:none;-webkit-font-smoothing:antialiased;font-family:Consolas,"Liberation Mono",Menlo,Courier,monospace}#chart-1ddff4c1-c28f-43cd-a367-15faf89f8ae9 .title{font-family:Consolas,"Liberation Mono",Menlo,Courier,monospace;font-size:16px}#chart-1ddff4c1-c28f-43cd-a367-15faf89f8ae9 .legends .legend text{font-family:Consolas,"Liberation Mono",Menlo,Courier,monospace;font-size:14px}#chart-1ddff4c1-c28f-43cd-a367-15faf89f8ae9 .axis text{font-family:Consolas,"Liberation Mono",Menlo,Courier,monospace;font-size:10px}#chart-1ddff4c1-c28f-43cd-a367-15faf89f8ae9 .axis text.major{font-family:Consolas,"Liberation Mono",Menlo,Courier,monospace;font-size:10px}#chart-1ddff4c1-c28f-43cd-a367-15faf89f8ae9 .text-overlay text.value{font-family:Consolas,"Liberation Mono",Menlo,Courier,monospace;font-size:16px}#chart-1ddff4c1-c28f-43cd-a367-15faf89f8ae9 .text-overlay text.label{font-family:Consolas,"Liberation Mono",Menlo,Courier,monospace;font-size:10px}#chart-1ddff4c1-c28f-43cd-a367-15faf89f8ae9 .tooltip{font-family:Consolas,"Liberation Mono",Menlo,Courier,monospace;font-size:14px}#chart-1ddff4c1-c28f-43cd-a367-15faf89f8ae9 text.no_data{font-family:Consolas,"Liberation Mono",Menlo,Courier,monospace;font-size:64px}
#chart-1ddff4c1-c28f-43cd-a367-15faf89f8ae9{background-color:black}#chart-1ddff4c1-c28f-43cd-a367-15faf89f8ae9 path,#chart-1ddff4c1-c28f-43cd-a367-15faf89f8ae9 line,#chart-1ddff4c1-c28f-43cd-a367-15faf89f8ae9 rect,#chart-1ddff4c1-c28f-43cd-a367-15faf89f8ae9 circle{-webkit-transition:250ms;-moz-transition:250ms;transition:250ms}#chart-1ddff4c1-c28f-43cd-a367-15faf89f8ae9 .graph &gt; .background{fill:black}#chart-1ddff4c1-c28f-43cd-a367-15faf89f8ae9 .plot &gt; .background{fill:#111}#chart-1ddff4c1-c28f-43cd-a367-15faf89f8ae9 .graph{fill:#999}#chart-1ddff4c1-c28f-43cd-a367-15faf89f8ae9 text.no_data{fill:#eee}#chart-1ddff4c1-c28f-43cd-a367-15faf89f8ae9 .title{fill:#eee}#chart-1ddff4c1-c28f-43cd-a367-15faf89f8ae9 .legends .legend text{fill:#999}#chart-1ddff4c1-c28f-43cd-a367-15faf89f8ae9 .legends .legend:hover text{fill:#eee}#chart-1ddff4c1-c28f-43cd-a367-15faf89f8ae9 .axis .line{stroke:#eee}#chart-1ddff4c1-c28f-43cd-a367-15faf89f8ae9 .axis .guide.line{stroke:#555}#chart-1ddff4c1-c28f-43cd-a367-15faf89f8ae9 .axis .major.line{stroke:#999}#chart-1ddff4c1-c28f-43cd-a367-15faf89f8ae9 .axis text.major{fill:#eee}#chart-1ddff4c1-c28f-43cd-a367-15faf89f8ae9 .axis.y .guides:hover .guide.line,#chart-1ddff4c1-c28f-43cd-a367-15faf89f8ae9 .line-graph .axis.x .guides:hover .guide.line,#chart-1ddff4c1-c28f-43cd-a367-15faf89f8ae9 .stackedline-graph .axis.x .guides:hover .guide.line,#chart-1ddff4c1-c28f-43cd-a367-15faf89f8ae9 .xy-graph .axis.x .guides:hover .guide.line{stroke:#eee}#chart-1ddff4c1-c28f-43cd-a367-15faf89f8ae9 .axis .guides:hover text{fill:#eee}#chart-1ddff4c1-c28f-43cd-a367-15faf89f8ae9 .reactive{fill-opacity:.8}#chart-1ddff4c1-c28f-43cd-a367-15faf89f8ae9 .reactive.active,#chart-1ddff4c1-c28f-43cd-a367-15faf89f8ae9 .active .reactive{fill-opacity:.4;stroke-width:4}#chart-1ddff4c1-c28f-43cd-a367-15faf89f8ae9 .series text{fill:#eee}#chart-1ddff4c1-c28f-43cd-a367-15faf89f8ae9 .tooltip rect{fill:#111;stroke:#eee;-webkit-transition:opacity 250ms;-moz-transition:opacity 250ms;transition:opacity 250ms}#chart-1ddff4c1-c28f-43cd-a367-15faf89f8ae9 .tooltip .label{fill:#999}#chart-1ddff4c1-c28f-43cd-a367-15faf89f8ae9 .tooltip .label{fill:#999}#chart-1ddff4c1-c28f-43cd-a367-15faf89f8ae9 .tooltip .legend{font-size:.8em;fill:#555}#chart-1ddff4c1-c28f-43cd-a367-15faf89f8ae9 .tooltip .x_label{font-size:.6em;fill:#eee}#chart-1ddff4c1-c28f-43cd-a367-15faf89f8ae9 .tooltip .xlink{font-size:.5em;text-decoration:underline}#chart-1ddff4c1-c28f-43cd-a367-15faf89f8ae9 .tooltip .value{font-size:1.5em}#chart-1ddff4c1-c28f-43cd-a367-15faf89f8ae9 .map-element{fill:#111;stroke:#555 !important}#chart-1ddff4c1-c28f-43cd-a367-15faf89f8ae9 .map-element .reactive{fill-opacity:inherit}#chart-1ddff4c1-c28f-43cd-a367-15faf89f8ae9 .color-0,#chart-1ddff4c1-c28f-43cd-a367-15faf89f8ae9 .color-0 a:visited{stroke:#ff5995;fill:#ff5995}#chart-1ddff4c1-c28f-43cd-a367-15faf89f8ae9 .text-overlay .color-0 text{fill:black}
#chart-1ddff4c1-c28f-43cd-a367-15faf89f8ae9 text.no_data{text-anchor:middle}#chart-1ddff4c1-c28f-43cd-a367-15faf89f8ae9 .guide.line{fill:none}#chart-1ddff4c1-c28f-43cd-a367-15faf89f8ae9 .centered{text-anchor:middle}#chart-1ddff4c1-c28f-43cd-a367-15faf89f8ae9 .title{text-anchor:middle}#chart-1ddff4c1-c28f-43cd-a367-15faf89f8ae9 .legends .legend text{fill-opacity:1}#chart-1ddff4c1-c28f-43cd-a367-15faf89f8ae9 .axis.x text{text-anchor:middle}#chart-1ddff4c1-c28f-43cd-a367-15faf89f8ae9 .axis.x:not(.web) text[transform]{text-anchor:start}#chart-1ddff4c1-c28f-43cd-a367-15faf89f8ae9 .axis.x:not(.web) text[transform].backwards{text-anchor:end}#chart-1ddff4c1-c28f-43cd-a367-15faf89f8ae9 .axis.y text{text-anchor:end}#chart-1ddff4c1-c28f-43cd-a367-15faf89f8ae9 .axis.y text[transform].backwards{text-anchor:start}#chart-1ddff4c1-c28f-43cd-a367-15faf89f8ae9 .axis.y2 text{text-anchor:start}#chart-1ddff4c1-c28f-43cd-a367-15faf89f8ae9 .axis.y2 text[transform].backwards{text-anchor:end}#chart-1ddff4c1-c28f-43cd-a367-15faf89f8ae9 .axis .guide.line{stroke-dasharray:4,4}#chart-1ddff4c1-c28f-43cd-a367-15faf89f8ae9 .axis .major.guide.line{stroke-dasharray:6,6}#chart-1ddff4c1-c28f-43cd-a367-15faf89f8ae9 .horizontal .axis.y .guide.line,#chart-1ddff4c1-c28f-43cd-a367-15faf89f8ae9 .horizontal .axis.y2 .guide.line,#chart-1ddff4c1-c28f-43cd-a367-15faf89f8ae9 .vertical .axis.x .guide.line{opacity:0}#chart-1ddff4c1-c28f-43cd-a367-15faf89f8ae9 .horizontal .axis.always_show .guide.line,#chart-1ddff4c1-c28f-43cd-a367-15faf89f8ae9 .vertical .axis.always_show .guide.line{opacity:1 !important}#chart-1ddff4c1-c28f-43cd-a367-15faf89f8ae9 .axis.y .guides:hover .guide.line,#chart-1ddff4c1-c28f-43cd-a367-15faf89f8ae9 .axis.y2 .guides:hover .guide.line,#chart-1ddff4c1-c28f-43cd-a367-15faf89f8ae9 .axis.x .guides:hover .guide.line{opacity:1}#chart-1ddff4c1-c28f-43cd-a367-15faf89f8ae9 .axis .guides:hover text{opacity:1}#chart-1ddff4c1-c28f-43cd-a367-15faf89f8ae9 .nofill{fill:none}#chart-1ddff4c1-c28f-43cd-a367-15faf89f8ae9 .subtle-fill{fill-opacity:.2}#chart-1ddff4c1-c28f-43cd-a367-15faf89f8ae9 .dot{stroke-width:1px;fill-opacity:1}#chart-1ddff4c1-c28f-43cd-a367-15faf89f8ae9 .dot.active{stroke-width:5px}#chart-1ddff4c1-c28f-43cd-a367-15faf89f8ae9 .dot.negative{fill:transparent}#chart-1ddff4c1-c28f-43cd-a367-15faf89f8ae9 text,#chart-1ddff4c1-c28f-43cd-a367-15faf89f8ae9 tspan{stroke:none !important}#chart-1ddff4c1-c28f-43cd-a367-15faf89f8ae9 .series text.active{opacity:1}#chart-1ddff4c1-c28f-43cd-a367-15faf89f8ae9 .tooltip rect{fill-opacity:.95;stroke-width:.5}#chart-1ddff4c1-c28f-43cd-a367-15faf89f8ae9 .tooltip text{fill-opacity:1}#chart-1ddff4c1-c28f-43cd-a367-15faf89f8ae9 .showable{visibility:hidden}#chart-1ddff4c1-c28f-43cd-a367-15faf89f8ae9 .showable.shown{visibility:visible}</style><script type="text/javascript">window.pygal = window.pygal || {};window.pygal.config = window.pygal.config || {};window.pygal.config['1ddff4c1-c28f-43cd-a367-15faf89f8ae9'] = {"stroke_style": null, "x_value_formatter": null, "y_labels_major_every": null, "show_dots": true, "missing_value_fill_truncation": "x", "show_only_major_dots": false, "legend_box_size": 12, "inverse_y_axis": false, "interpolation_parameters": {}, "range": null, "box_mode": "extremes", "truncate_legend": null, "legend_at_bottom_columns": null, "tooltip_border_radius": 0, "show_x_labels": true, "half_pie": false, "print_labels": false, "value_formatter": null, "x_labels": ["Jan", "Feb", "Mar", "Apr", "May", "Jun", "Jul", "Aug", "Sep", "Oct", "Nov", "Dec"], "defs": [], "js": ["//kozea.github.io/pygal.js/2.0.x/pygal-tooltips.min.js"], "y_title": null, "rounded_bars": null, "x_title": null, "xrange": null, "x_labels_major_every": null, "y_labels_major_count": null, "strict": false, "logarithmic": false, "stroke": true, "margin_left": null, "y_labels": null, "print_zeroes": true, "human_readable": false, "disable_xml_declaration": false, "order_min": null, "interpolate": "cubic", "style": {"font_family": "Consolas, \"Liberation Mono\", Menlo, Courier, monospace", "tooltip_font_family": "Consolas, \"Liberation Mono\", Menlo, Courier, monospace", "foreground": "#999", "value_label_font_family": "Consolas, \"Liberation Mono\", Menlo, Courier, monospace", "value_label_font_size": 10, "value_font_size": 16, "foreground_strong": "#eee", "opacity_hover": ".4", "legend_font_family": "Consolas, \"Liberation Mono\", Menlo, Courier, monospace", "major_guide_stroke_dasharray": "6,6", "no_data_font_family": "Consolas, \"Liberation Mono\", Menlo, Courier, monospace", "transition": "250ms", "label_font_family": "Consolas, \"Liberation Mono\", Menlo, Courier, monospace", "colors": ["#ff5995", "#b6e354", "#feed6c", "#8cedff", "#9e6ffe", "#899ca1", "#f8f8f2", "#bf4646", "#516083", "#f92672", "#82b414", "#fd971f", "#56c2d6", "#808384", "#8c54fe", "#465457"], "major_label_font_family": "Consolas, \"Liberation Mono\", Menlo, Courier, monospace", "value_font_family": "Consolas, \"Liberation Mono\", Menlo, Courier, monospace", "label_font_size": 10, "legend_font_size": 14, "tooltip_font_size": 14, "value_colors": [], "opacity": ".8", "foreground_subtle": "#555", "plot_background": "#111", "title_font_size": 16, "title_font_family": "Consolas, \"Liberation Mono\", Menlo, Courier, monospace", "major_label_font_size": 10, "no_data_font_size": 64, "guide_stroke_dasharray": "4,4", "background": "black"}, "margin": 20, "show_minor_y_labels": true, "x_label_rotation": 0, "stack_from_top": false, "show_x_guides": false, "no_data_text": "No data", "show_legend": true, "css": ["file://style.css", "file://graph.css"], "x_labels_major_count": null, "print_values": false, "margin_top": null, "inner_radius": 0, "title": "Sukhumvit-Line summary_52", "include_x_axis": false, "height": 600, "truncate_label": null, "dynamic_print_values": false, "max_scale": 16, "show_y_guides": true, "min_scale": 4, "legend_at_bottom": false, "interpolation_precision": 250, "secondary_range": null, "x_labels_major": null, "no_prefix": false, "show_y_labels": true, "legends": ["Sukhumvit-Line"], "tooltip_fancy_mode": true, "zero": 0, "dots_size": 2.5, "spacing": 10, "y_labels_major": null, "pretty_print": false, "fill": true, "width": 800, "explicit_size": false, "margin_right": null, "show_minor_x_labels": true, "force_uri_protocol": null, "y_label_rotation": 0, "margin_bottom": null}</script><script type="text/javascript" xlink:href="//kozea.github.io/pygal.js/2.0.x/pygal-tooltips.min.js" /></defs><title>Sukhumvit-Line summary_52</title><g class="graph line-graph vertical"><rect class="background" height="600" width="800" x="0" y="0" /><g class="plot" transform="translate(223, 46)"><rect class="background" height="514" width="556.4" x="0" y="0" /><g class="axis y"><path class="line" d="M0.000000 514.000000 h556.400000" /><g class="guides"><path class="major guide line" d="M0.000000 471.426493 h556.400000" /><text class="major" x="-5" y="474.92649275124404">8000000.0</text><title>8000000.0</title></g><g class="guides"><path class="guide line" d="M0.000000 421.740831 h556.400000" /><text class="" x="-5" y="425.240831042732">8200000.0</text><title>8200000.0</title></g><g class="guides"><path class="guide line" d="M0.000000 372.055169 h556.400000" /><text class="" x="-5" y="375.55516933421995">8400000.0</text><title>8400000.0</title></g><g class="guides"><path class="guide line" d="M0.000000 322.369508 h556.400000" /><text class="" x="-5" y="325.8695076257079">8600000.0</text><title>8600000.0</title></g><g class="guides"><path class="guide line" d="M0.000000 272.683846 h556.400000" /><text class="" x="-5" y="276.18384591719587">8800000.0</text><title>8800000.0</title></g><g class="guides"><path class="major guide line" d="M0.000000 222.998184 h556.400000" /><text class="major" x="-5" y="226.49818420868382">9000000.0</text><title>9000000.0</title></g><g class="guides"><path class="guide line" d="M0.000000 173.312523 h556.400000" /><text class="" x="-5" y="176.81252250017178">9200000.0</text><title>9200000.0</title></g><g class="guides"><path class="guide line" d="M0.000000 123.626861 h556.400000" /><text class="" x="-5" y="127.12686079165974">9400000.0</text><title>9400000.0</title></g><g class="guides"><path class="guide line" d="M0.000000 73.941199 h556.400000" /><text class="" x="-5" y="77.4411990831477">9600000.0</text><title>9600000.0</title></g><g class="guides"><path class="guide line" d="M0.000000 24.255537 h556.400000" /><text class="" x="-5" y="27.75553737463565">9800000.0</text><title>9800000.0</title></g></g><g class="axis x"><g class="guides"><path class="line" d="M10.700000 0.000000 v514.000000" /><text class="" x="10.7" y="529.0">Jan</text></g><g class="guides"><path class="guide line" d="M59.336364 0.000000 v514.000000" /><text class="" x="59.336363636363636" y="529.0">Feb</text></g><g class="guides"><path class="guide line" d="M107.972727 0.000000 v514.000000" /><text class="" x="107.97272727272727" y="529.0">Mar</text></g><g class="guides"><path class="guide line" d="M156.609091 0.000000 v514.000000" /><text class="" x="156.6090909090909" y="529.0">Apr</text></g><g class="guides"><path class="guide line" d="M205.245455 0.000000 v514.000000" /><text class="" x="205.24545454545455" y="529.0">May</text></g><g class="guides"><path class="guide line" d="M253.881818 0.000000 v514.000000" /><text class="" x="253.88181818181818" y="529.0">Jun</text></g><g class="guides"><path class="guide line" d="M302.518182 0.000000 v514.000000" /><text class="" x="302.5181818181818" y="529.0">Jul</text></g><g class="guides"><path class="guide line" d="M351.154545 0.000000 v514.000000" /><text class="" x="351.1545454545454" y="529.0">Aug</text></g><g class="guides"><path class="guide line" d="M399.790909 0.000000 v514.000000" /><text class="" x="399.7909090909091" y="529.0">Sep</text></g><g class="guides"><path class="guide line" d="M448.427273 0.000000 v514.000000" /><text class="" x="448.42727272727274" y="529.0">Oct</text></g><g class="guides"><path class="guide line" d="M497.063636 0.000000 v514.000000" /><text class="" x="497.0636363636363" y="529.0">Nov</text></g><g class="guides"><path class="guide line" d="M545.700000 0.000000 v514.000000" /><text class="" x="545.7" y="529.0">Dec</text></g></g><g class="series serie-0 color-0"><path class="line reactive" d="M10.700000 514.000000 L10.700000 349.945050 10.894545 351.223910 11.089091 352.502692 11.283636 353.781317 11.478182 355.059708 11.672727 356.337786 11.867273 357.615473 12.061818 358.892690 12.256364 360.169360 12.450909 361.445405 12.645455 362.720745 12.840000 363.995303 13.034545 365.269000 13.229091 366.541759 13.423636 367.813501 13.618182 369.084148 13.812727 370.353621 14.007273 371.621843 14.201818 372.888736 14.396364 374.154220 14.590909 375.418218 14.785455 376.680651 14.980000 377.941442 15.174545 379.200512 15.369091 380.457783 15.563636 381.713177 15.758182 382.966615 15.952727 384.218020 16.147273 385.467312 16.341818 386.714414 16.536364 387.959248 16.730909 389.201735 16.925455 390.441797 17.120000 391.679356 17.314545 392.914334 17.509091 394.146652 17.703636 395.376233 17.898182 396.602997 18.092727 397.826867 18.287273 399.047765 18.481818 400.265613 18.676364 401.480331 18.870909 402.691842 19.065455 403.900068 19.260000 405.104931 19.454545 406.306351 19.649091 407.504252 19.843636 408.698555 20.038182 409.889181 20.232727 411.076052 20.427273 412.259091 20.621818 413.438218 20.816364 414.613356 21.010909 415.784427 21.205455 416.951352 21.400000 418.114053 21.594545 419.272452 21.789091 420.426470 21.983636 421.576030 22.178182 422.721053 22.372727 423.861460 22.567273 424.997175 22.761818 426.128118 22.956364 427.254211 23.150909 428.375376 23.345455 429.491535 23.540000 430.602610 23.734545 431.708522 23.929091 432.809193 24.123636 433.904545 24.318182 434.994500 24.512727 436.078979 24.707273 437.157905 24.901818 438.231199 25.096364 439.298782 25.290909 440.360577 25.485455 441.416505 25.680000 442.466489 25.874545 443.510449 26.069091 444.548308 26.263636 445.579988 26.458182 446.605410 26.652727 447.624496 26.847273 448.637168 27.041818 449.643347 27.236364 450.642956 27.430909 451.635916 27.625455 452.622149 27.820000 453.601576 28.014545 454.574120 28.209091 455.539703 28.403636 456.498245 28.598182 457.449669 28.792727 458.393897 28.987273 459.330850 29.181818 460.260451 29.376364 461.182620 29.570909 462.097280 29.765455 463.004353 29.960000 463.903759 30.154545 464.795422 30.349091 465.679263 30.543636 466.555203 30.738182 467.423165 30.932727 468.283070 31.127273 469.134840 31.321818 469.978396 31.516364 470.813661 31.710909 471.640556 31.905455 472.459004 32.100000 473.268925 32.294545 474.070242 32.489091 474.862876 32.683636 475.646749 32.878182 476.421784 33.072727 477.187901 33.267273 477.945022 33.461818 478.693070 33.656364 479.431966 33.850909 480.161632 34.045455 480.881989 34.240000 481.592960 34.434545 482.294466 34.629091 482.986429 34.823636 483.668771 35.018182 484.341413 35.212727 485.004277 35.407273 485.657286 35.601818 486.300360 35.796364 486.933422 35.990909 487.556394 36.185455 488.169196 36.380000 488.771752 36.574545 489.363982 36.769091 489.945809 36.963636 490.517154 37.158182 491.077939 37.352727 491.628086 37.547273 492.167517 37.741818 492.696153 37.936364 493.213916 38.130909 493.720729 38.325455 494.216512 38.520000 494.701187 38.714545 495.174677 38.909091 495.636903 39.103636 496.087786 39.298182 496.527250 39.492727 496.955215 39.687273 497.371603 39.881818 497.776335 40.076364 498.169335 40.270909 498.550523 40.465455 498.919822 40.660000 499.277152 40.854545 499.622437 41.049091 499.955597 41.243636 500.276555 41.438182 500.585231 41.632727 500.881549 41.827273 501.165429 42.021818 501.436794 42.216364 501.695566 42.410909 501.941665 42.605455 502.175014 42.800000 502.395535 42.994545 502.603150 43.189091 502.797779 43.383636 502.979346 43.578182 503.147771 43.772727 503.302977 43.967273 503.444885 44.161818 503.573417 44.356364 503.688495 44.550909 503.790041 44.745455 503.877976 44.940000 503.952222 45.134545 504.012702 45.329091 504.059336 45.523636 504.092047 45.718182 504.110756 45.912727 504.115385 46.107273 504.105856 46.301818 504.082090 46.496364 504.044010 46.690909 503.991537 46.885455 503.924594 47.080000 503.843101 47.274545 503.746980 47.469091 503.636154 47.663636 503.510544 47.858182 503.370072 48.052727 503.214660 48.247273 503.044229 48.441818 502.858701 48.636364 502.657998 48.830909 502.442042 49.025455 502.210754 49.220000 501.964057 49.414545 501.701872 49.609091 501.424121 49.803636 501.130726 49.998182 500.821608 50.192727 500.496689 50.387273 500.155891 50.581818 499.799136 50.776364 499.426345 50.970909 499.037441 51.165455 498.632345 51.360000 498.210979 51.554545 497.773265 51.749091 497.319123 51.943636 496.848478 52.138182 496.361249 52.332727 495.857359 52.527273 495.336729 52.721818 494.799282 52.916364 494.244939 53.110909 493.673622 53.305455 493.085253 53.500000 492.479753 53.694545 491.857044 53.889091 491.217048 54.083636 490.559687 54.278182 489.884883 54.472727 489.192557 54.667273 488.482631 54.861818 487.755027 55.056364 487.009667 55.250909 486.246472 55.445455 485.465364 55.640000 484.666266 55.834545 483.849098 56.029091 483.013783 56.223636 482.160242 56.418182 481.288397 56.612727 480.398170 56.807273 479.489483 57.001818 478.562257 57.196364 477.616415 57.390909 476.651877 57.585455 475.668567 57.780000 474.666404 57.974545 473.645313 58.169091 472.605213 58.363636 471.546027 58.558182 470.467677 58.752727 469.370085 58.947273 468.253172 59.141818 467.116859 59.336364 465.961070 59.530909 464.785770 59.725455 463.591106 59.920000 462.377269 60.114545 461.144450 60.309091 459.892841 60.503636 458.622633 60.698182 457.334017 60.892727 456.027184 61.087273 454.702326 61.281818 453.359633 61.476364 451.999298 61.670909 450.621511 61.865455 449.226464 62.060000 447.814348 62.254545 446.385353 62.449091 444.939672 62.643636 443.477496 62.838182 441.999016 63.032727 440.504422 63.227273 438.993908 63.421818 437.467662 63.616364 435.925878 63.810909 434.368746 64.005455 432.796457 64.200000 431.209203 64.394545 429.607175 64.589091 427.990563 64.783636 426.359561 64.978182 424.714358 65.172727 423.055146 65.367273 421.382116 65.561818 419.695459 65.756364 417.995367 65.950909 416.282031 66.145455 414.555642 66.340000 412.816392 66.534545 411.064471 66.729091 409.300072 66.923636 407.523384 67.118182 405.734600 67.312727 403.933911 67.507273 402.121507 67.701818 400.297581 67.896364 398.462323 68.090909 396.615925 68.285455 394.758578 68.480000 392.890473 68.674545 391.011801 68.869091 389.122754 69.063636 387.223524 69.258182 385.314300 69.452727 383.395275 69.647273 381.466639 69.841818 379.528585 70.036364 377.581303 70.230909 375.624984 70.425455 373.659820 70.620000 371.686002 70.814545 369.703721 71.009091 367.713169 71.203636 365.714537 71.398182 363.708015 71.592727 361.693796 71.787273 359.672070 71.981818 357.643029 72.176364 355.606864 72.370909 353.563767 72.565455 351.513927 72.760000 349.457538 72.954545 347.394790 73.149091 345.325873 73.343636 343.250981 73.538182 341.170303 73.732727 339.084031 73.927273 336.992357 74.121818 334.895471 74.316364 332.793565 74.510909 330.686829 74.705455 328.575457 74.900000 326.459637 75.094545 324.339563 75.289091 322.215424 75.483636 320.087413 75.678182 317.955721 75.872727 315.820538 76.067273 313.682056 76.261818 311.540467 76.456364 309.395961 76.650909 307.248730 76.845455 305.098965 77.040000 302.946858 77.234545 300.792599 77.429091 298.636380 77.623636 296.478392 77.818182 294.318826 78.012727 292.157874 78.207273 289.995727 78.401818 287.832576 78.596364 285.668612 78.790909 283.504027 78.985455 281.339011 79.180000 279.173757 79.374545 277.008455 79.569091 274.843297 79.763636 272.678473 79.958182 270.514176 80.152727 268.350596 80.347273 266.187925 80.541818 264.026354 80.736364 261.866073 80.930909 259.707276 81.125455 257.550151 81.320000 255.394892 81.514545 253.241689 81.709091 251.090733 81.903636 248.942216 82.098182 246.796329 82.292727 244.653263 82.487273 242.513209 82.681818 240.376359 82.876364 238.242904 83.070909 236.113035 83.265455 233.986943 83.460000 231.864820 83.654545 229.746858 83.849091 227.633246 84.043636 225.524176 84.238182 223.419841 84.432727 221.320430 84.627273 219.226136 84.821818 217.137149 85.016364 215.053660 85.210909 212.975862 85.405455 210.903945 85.600000 208.838100 85.794545 206.778519 85.989091 204.725393 86.183636 202.678913 86.378182 200.639270 86.572727 198.606656 86.767273 196.581263 86.961818 194.563280 87.156364 192.552900 87.350909 190.550314 87.545455 188.555712 87.740000 186.569287 87.934545 184.591230 88.129091 182.621731 88.323636 180.660982 88.518182 178.709174 88.712727 176.766499 88.907273 174.833147 89.101818 172.909311 89.296364 170.995181 89.490909 169.090948 89.685455 167.196804 89.880000 165.312940 90.074545 163.439548 90.269091 161.576818 90.463636 159.724941 90.658182 157.884110 90.852727 156.054515 91.047273 154.236347 91.241818 152.429799 91.436364 150.635060 91.630909 148.852323 91.825455 147.081778 92.020000 145.323617 92.214545 143.578031 92.409091 141.845211 92.603636 140.125349 92.798182 138.418635 92.992727 136.725262 93.187273 135.045420 93.381818 133.379301 93.576364 131.727095 93.770909 130.088994 93.965455 128.465190 94.160000 126.855873 94.354545 125.261236 94.549091 123.681468 94.743636 122.116761 94.938182 120.567307 95.132727 119.033297 95.327273 117.514923 95.521818 116.012374 95.716364 114.525843 95.910909 113.055521 96.105455 111.601599 96.300000 110.164268 96.494545 108.743720 96.689091 107.340146 96.883636 105.953737 97.078182 104.584684 97.272727 103.233179 97.467273 101.899413 97.661818 100.583576 97.856364 99.285862 98.050909 98.006460 98.245455 96.745561 98.440000 95.503358 98.634545 94.280042 98.829091 93.075802 99.023636 91.890832 99.218182 90.725322 99.412727 89.579464 99.607273 88.453448 99.801818 87.347465 99.996364 86.261708 100.190909 85.196368 100.385455 84.151635 100.580000 83.127701 100.774545 82.124757 100.969091 81.142995 101.163636 80.182605 101.358182 79.243780 101.552727 78.326709 101.747273 77.431585 101.941818 76.558598 102.136364 75.707941 102.330909 74.879803 102.525455 74.074377 102.720000 73.291854 102.914545 72.532425 103.109091 71.796281 103.303636 71.083613 103.498182 70.394613 103.692727 69.729472 103.887273 69.088382 104.081818 68.471532 104.276364 67.879116 104.470909 67.311323 104.665455 66.768346 104.860000 66.250375 105.054545 65.757602 105.249091 65.290218 105.443636 64.848414 105.638182 64.432381 105.832727 64.042312 106.027273 63.678396 106.221818 63.340825 106.416364 63.029791 106.610909 62.745485 106.805455 62.488098 107.000000 62.257821 107.194545 62.054845 107.389091 61.879363 107.583636 61.731564 107.778182 61.611641 107.972727 61.519784 108.167273 61.456122 108.361818 61.420531 108.556364 61.412827 108.750909 61.432822 108.945455 61.480330 109.140000 61.555166 109.334545 61.657144 109.529091 61.786077 109.723636 61.941779 109.918182 62.124064 110.112727 62.332747 110.307273 62.567641 110.501818 62.828560 110.696364 63.115318 110.890909 63.427730 111.085455 63.765608 111.280000 64.128767 111.474545 64.517021 111.669091 64.930183 111.863636 65.368069 112.058182 65.830491 112.252727 66.317264 112.447273 66.828202 112.641818 67.363118 112.836364 67.921826 113.030909 68.504141 113.225455 69.109876 113.420000 69.738846 113.614545 70.390864 113.809091 71.065744 114.003636 71.763301 114.198182 72.483347 114.392727 73.225698 114.587273 73.990166 114.781818 74.776567 114.976364 75.584713 115.170909 76.414419 115.365455 77.265499 115.560000 78.137767 115.754545 79.031037 115.949091 79.945122 116.143636 80.879837 116.338182 81.834995 116.532727 82.810411 116.727273 83.805898 116.921818 84.821270 117.116364 85.856342 117.310909 86.910927 117.505455 87.984840 117.700000 89.077893 117.894545 90.189902 118.089091 91.320680 118.283636 92.470040 118.478182 93.637798 118.672727 94.823766 118.867273 96.027760 119.061818 97.249592 119.256364 98.489077 119.450909 99.746028 119.645455 101.020261 119.840000 102.311587 120.034545 103.619823 120.229091 104.944780 120.423636 106.286274 120.618182 107.644119 120.812727 109.018128 121.007273 110.408115 121.201818 111.813894 121.396364 113.235280 121.590909 114.672085 121.785455 116.124125 121.980000 117.591212 122.174545 119.073162 122.369091 120.569787 122.563636 122.080902 122.758182 123.606321 122.952727 125.145858 123.147273 126.699326 123.341818 128.266540 123.536364 129.847314 123.730909 131.441461 123.925455 133.048796 124.120000 134.669131 124.314545 136.302283 124.509091 137.948063 124.703636 139.606287 124.898182 141.276768 125.092727 142.959320 125.287273 144.653757 125.481818 146.359894 125.676364 148.077543 125.870909 149.806519 126.065455 151.546636 126.260000 153.297708 126.454545 155.059548 126.649091 156.831971 126.843636 158.614791 127.038182 160.407822 127.232727 162.210877 127.427273 164.023771 127.621818 165.846317 127.816364 167.678329 128.010909 169.519622 128.205455 171.370009 128.400000 173.229304 128.594545 175.097321 128.789091 176.973875 128.983636 178.858779 129.178182 180.751846 129.372727 182.652892 129.567273 184.561729 129.761818 186.478173 129.956364 188.402036 130.150909 190.333133 130.345455 192.271277 130.540000 194.216284 130.734545 196.167966 130.929091 198.126137 131.123636 200.090612 131.318182 202.061204 131.512727 204.037728 131.707273 206.019997 131.901818 208.007825 132.096364 210.001026 132.290909 211.999415 132.485455 214.002805 132.680000 216.011010 132.874545 218.023843 133.069091 220.041120 133.263636 222.062654 133.458182 224.088258 133.652727 226.117748 133.847273 228.150936 134.041818 230.187636 134.236364 232.227664 134.430909 234.270832 134.625455 236.316954 134.820000 238.365845 135.014545 240.417318 135.209091 242.471188 135.403636 244.527268 135.598182 246.585372 135.792727 248.645315 135.987273 250.706909 136.181818 252.769970 136.376364 254.834311 136.570909 256.899745 136.765455 258.966088 136.960000 261.033153 137.154545 263.100753 137.349091 265.168703 137.543636 267.236817 137.738182 269.304909 137.932727 271.372792 138.127273 273.440280 138.321818 275.507189 138.516364 277.573330 138.710909 279.638520 138.905455 281.702570 139.100000 283.765296 139.294545 285.826511 139.489091 287.886029 139.683636 289.943664 139.878182 291.999231 140.072727 294.052542 140.267273 296.103413 140.461818 298.151656 140.656364 300.197086 140.850909 302.239517 141.045455 304.278763 141.240000 306.314637 141.434545 308.346955 141.629091 310.375528 141.823636 312.400173 142.018182 314.420701 142.212727 316.436929 142.407273 318.448668 142.601818 320.455734 142.796364 322.457941 142.990909 324.455101 143.185455 326.447030 143.380000 328.433541 143.574545 330.414448 143.769091 332.389564 143.963636 334.358705 144.158182 336.321684 144.352727 338.278315 144.547273 340.228411 144.741818 342.171787 144.936364 344.108257 145.130909 346.037635 145.325455 347.959734 145.520000 349.874369 145.714545 351.781353 145.909091 353.680500 146.103636 355.571625 146.298182 357.454542 146.492727 359.329063 146.687273 361.195004 146.881818 363.052178 147.076364 364.900399 147.270909 366.739481 147.465455 368.569238 147.660000 370.389484 147.854545 372.200033 148.049091 374.000699 148.243636 375.791296 148.438182 377.571637 148.632727 379.341537 148.827273 381.100810 149.021818 382.849269 149.216364 384.586729 149.410909 386.313003 149.605455 388.027905 149.800000 389.731250 149.994545 391.422852 150.189091 393.102523 150.383636 394.770079 150.578182 396.425333 150.772727 398.068099 150.967273 399.698191 151.161818 401.315423 151.356364 402.919609 151.550909 404.510563 151.745455 406.088099 151.940000 407.652031 152.134545 409.202172 152.329091 410.738337 152.523636 412.260339 152.718182 413.767993 152.912727 415.261113 153.107273 416.739512 153.301818 418.203005 153.496364 419.651404 153.690909 421.084526 153.885455 422.502182 154.080000 423.904188 154.274545 425.290356 154.469091 426.660502 154.663636 428.014439 154.858182 429.351981 155.052727 430.672942 155.247273 431.977135 155.441818 433.264376 155.636364 434.534477 155.830909 435.787253 156.025455 437.022517 156.220000 438.240085 156.414545 439.439768 156.609091 440.621382 156.803636 441.784784 156.998182 442.929999 157.192727 444.057098 157.387273 445.166150 157.581818 446.257225 157.776364 447.330393 157.970909 448.385722 158.165455 449.423283 158.360000 450.443145 158.554545 451.445377 158.749091 452.430050 158.943636 453.397233 159.138182 454.346996 159.332727 455.279407 159.527273 456.194537 159.721818 457.092456 159.916364 457.973232 160.110909 458.836936 160.305455 459.683636 160.500000 460.513403 160.694545 461.326307 160.889091 462.122416 161.083636 462.901800 161.278182 463.664530 161.472727 464.410674 161.667273 465.140302 161.861818 465.853484 162.056364 466.550289 162.250909 467.230787 162.445455 467.895047 162.640000 468.543140 162.834545 469.175134 163.029091 469.791099 163.223636 470.391105 163.418182 470.975222 163.612727 471.543518 163.807273 472.096064 164.001818 472.632929 164.196364 473.154183 164.390909 473.659895 164.585455 474.150135 164.780000 474.624973 164.974545 475.084478 165.169091 475.528719 165.363636 475.957767 165.558182 476.371690 165.752727 476.770559 165.947273 477.154443 166.141818 477.523411 166.336364 477.877534 166.530909 478.216881 166.725455 478.541520 166.920000 478.851523 167.114545 479.146958 167.309091 479.427896 167.503636 479.694405 167.698182 479.946555 167.892727 480.184417 168.087273 480.408059 168.281818 480.617550 168.476364 480.812962 168.670909 480.994362 168.865455 481.161822 169.060000 481.315410 169.254545 481.455196 169.449091 481.581249 169.643636 481.693640 169.838182 481.792437 170.032727 481.877711 170.227273 481.949530 170.421818 482.007965 170.616364 482.053086 170.810909 482.084960 171.005455 482.103660 171.200000 482.109253 171.394545 482.101809 171.589091 482.081398 171.783636 482.048090 171.978182 482.001955 172.172727 481.943061 172.367273 481.871478 172.561818 481.787276 172.756364 481.690525 172.950909 481.581294 173.145455 481.459653 173.340000 481.325671 173.534545 481.179418 173.729091 481.020963 173.923636 480.850377 174.118182 480.667728 174.312727 480.473086 174.507273 480.266522 174.701818 480.048103 174.896364 479.817901 175.090909 479.575984 175.285455 479.322422 175.480000 479.057285 175.674545 478.780643 175.869091 478.492564 176.063636 478.193119 176.258182 477.882377 176.452727 477.560407 176.647273 477.227280 176.841818 476.883065 177.036364 476.527831 177.230909 476.161648 177.425455 475.784586 177.620000 475.396714 177.814545 474.998102 178.009091 474.588819 178.203636 474.168936 178.398182 473.738520 178.592727 473.297643 178.787273 472.846374 178.981818 472.384782 179.176364 471.912937 179.370909 471.430908 179.565455 470.938765 179.760000 470.436578 179.954545 469.924417 180.149091 469.402350 180.343636 468.870447 180.538182 468.328779 180.732727 467.777414 180.927273 467.216422 181.121818 466.645873 181.316364 466.065836 181.510909 465.476382 181.705455 464.877579 181.900000 464.269497 182.094545 463.652205 182.289091 463.025774 182.483636 462.390273 182.678182 461.745771 182.872727 461.092339 183.067273 460.430045 183.261818 459.758959 183.456364 459.079151 183.650909 458.390690 183.845455 457.693646 184.040000 456.988089 184.234545 456.274088 184.429091 455.551713 184.623636 454.821033 184.818182 454.082118 185.012727 453.335037 185.207273 452.579861 185.401818 451.816658 185.596364 451.045499 185.790909 450.266452 185.985455 449.479588 186.180000 448.684975 186.374545 447.882685 186.569091 447.072785 186.763636 446.255347 186.958182 445.430438 187.152727 444.598130 187.347273 443.758491 187.541818 442.911591 187.736364 442.057500 187.930909 441.196287 188.125455 440.328023 188.320000 439.452775 188.514545 438.570615 188.709091 437.681611 188.903636 436.785834 189.098182 435.883352 189.292727 434.974236 189.487273 434.058554 189.681818 433.136378 189.876364 432.207775 190.070909 431.272816 190.265455 430.331571 190.460000 429.384108 190.654545 428.430498 190.849091 427.470810 191.043636 426.505114 191.238182 425.533479 191.432727 424.555974 191.627273 423.572671 191.821818 422.583637 192.016364 421.588943 192.210909 420.588658 192.405455 419.582852 192.600000 418.571594 192.794545 417.554954 192.989091 416.533002 193.183636 415.505806 193.378182 414.473438 193.572727 413.435966 193.767273 412.393459 193.961818 411.345989 194.156364 410.293623 194.350909 409.236432 194.545455 408.174485 194.740000 407.107852 194.934545 406.036602 195.129091 404.960806 195.323636 403.880531 195.518182 402.795850 195.712727 401.706829 195.907273 400.613541 196.101818 399.516053 196.296364 398.414435 196.490909 397.308758 196.685455 396.199090 196.880000 395.085502 197.074545 393.968063 197.269091 392.846842 197.463636 391.721909 197.658182 390.593333 197.852727 389.461185 198.047273 388.325534 198.241818 387.186449 198.436364 386.044000 198.630909 384.898256 198.825455 383.749288 199.020000 382.597164 199.214545 381.441955 199.409091 380.283729 199.603636 379.122557 199.798182 377.958508 199.992727 376.791652 200.187273 375.622058 200.381818 374.449796 200.576364 373.274935 200.770909 372.097546 200.965455 370.917696 201.160000 369.735457 201.354545 368.550898 201.549091 367.364088 201.743636 366.175097 201.938182 364.983995 202.132727 363.790851 202.327273 362.595734 202.521818 361.398715 202.716364 360.199862 202.910909 358.999246 203.105455 357.796936 203.300000 356.593002 203.494545 355.387513 203.689091 354.180539 203.883636 352.972149 204.078182 351.762413 204.272727 350.551400 204.467273 349.339181 204.661818 348.125824 204.856364 346.911400 205.050909 345.695978 205.245455 344.479627 205.440000 343.262414 205.634545 342.044392 205.829091 340.825612 206.023636 339.606123 206.218182 338.385976 206.412727 337.165220 206.607273 335.943906 206.801818 334.722085 206.996364 333.499805 207.190909 332.277118 207.385455 331.054073 207.580000 329.830721 207.774545 328.607111 207.969091 327.383294 208.163636 326.159321 208.358182 324.935240 208.552727 323.711102 208.747273 322.486958 208.941818 321.262858 209.136364 320.038851 209.330909 318.814987 209.525455 317.591318 209.720000 316.367893 209.914545 315.144762 210.109091 313.921975 210.303636 312.699582 210.498182 311.477634 210.692727 310.256181 210.887273 309.035273 211.081818 307.814960 211.276364 306.595291 211.470909 305.376318 211.665455 304.158091 211.860000 302.940658 212.054545 301.724072 212.249091 300.508381 212.443636 299.293636 212.638182 298.079888 212.832727 296.867185 213.027273 295.655579 213.221818 294.445119 213.416364 293.235856 213.610909 292.027839 213.805455 290.821119 214.000000 289.615746 214.194545 288.411771 214.389091 287.209242 214.583636 286.008211 214.778182 284.808728 214.972727 283.610842 215.167273 282.414604 215.361818 281.220064 215.556364 280.027272 215.750909 278.836278 215.945455 277.647132 216.140000 276.459885 216.334545 275.274587 216.529091 274.091287 216.723636 272.910036 216.918182 271.730884 217.112727 270.553881 217.307273 269.379078 217.501818 268.206523 217.696364 267.036269 217.890909 265.868364 218.085455 264.702859 218.280000 263.539803 218.474545 262.379248 218.669091 261.221243 218.863636 260.065839 219.058182 258.913084 219.252727 257.763031 219.447273 256.615728 219.641818 255.471226 219.836364 254.329575 220.030909 253.190825 220.225455 252.055027 220.420000 250.922229 220.614545 249.792484 220.809091 248.665840 221.003636 247.542348 221.198182 246.422057 221.392727 245.305019 221.587273 244.191283 221.781818 243.080900 221.976364 241.973919 222.170909 240.870390 222.365455 239.770365 222.560000 238.673892 222.754545 237.581022 222.949091 236.491805 223.143636 235.406292 223.338182 234.324532 223.532727 233.246575 223.727273 232.172473 223.921818 231.102274 224.116364 230.036029 224.310909 228.973788 224.505455 227.915601 224.700000 226.861519 224.894545 225.811591 225.089091 224.765868 225.283636 223.724400 225.478182 222.687236 225.672727 221.654428 225.867273 220.626024 226.061818 219.602076 226.256364 218.582634 226.450909 217.567747 226.645455 216.557465 226.840000 215.551840 227.034545 214.550920 227.229091 213.554757 227.423636 212.563399 227.618182 211.576899 227.812727 210.595304 228.007273 209.618667 228.201818 208.647036 228.396364 207.680462 228.590909 206.718995 228.785455 205.762685 228.980000 204.811582 229.174545 203.865737 229.369091 202.925200 229.563636 201.990020 229.758182 201.060248 229.952727 200.135934 230.147273 199.217128 230.341818 198.303881 230.536364 197.396242 230.730909 196.494261 230.925455 195.597989 231.120000 194.707476 231.314545 193.822771 231.509091 192.943926 231.703636 192.070990 231.898182 191.204013 232.092727 190.343046 232.287273 189.488138 232.481818 188.639340 232.676364 187.796702 232.870909 186.960274 233.065455 186.130105 233.260000 185.306248 233.454545 184.488750 233.649091 183.677663 233.843636 182.873037 234.038182 182.074922 234.232727 181.283367 234.427273 180.498424 234.621818 179.720142 234.816364 178.948571 235.010909 178.183761 235.205455 177.425763 235.400000 176.674627 235.594545 175.930403 235.789091 175.193141 235.983636 174.462891 236.178182 173.739703 236.372727 173.023628 236.567273 172.314715 236.761818 171.613015 236.956364 170.918577 237.150909 170.231453 237.345455 169.551691 237.540000 168.879343 237.734545 168.214458 237.929091 167.557087 238.123636 166.907279 238.318182 166.265085 238.512727 165.630555 238.707273 165.003739 238.901818 164.384687 239.096364 163.773449 239.290909 163.170076 239.485455 162.574618 239.680000 161.987123 239.874545 161.407644 240.069091 160.836230 240.263636 160.272931 240.458182 159.717797 240.652727 159.170878 240.847273 158.632225 241.041818 158.101888 241.236364 157.579916 241.430909 157.066360 241.625455 156.561271 241.820000 156.064697 242.014545 155.576690 242.209091 155.097299 242.403636 154.626574 242.598182 154.164567 242.792727 153.711326 242.987273 153.266902 243.181818 152.831345 243.376364 152.404706 243.570909 151.987034 243.765455 151.578379 243.960000 151.178792 244.154545 150.788323 244.349091 150.407022 244.543636 150.034938 244.738182 149.672123 244.932727 149.318626 245.127273 148.974498 245.321818 148.639788 245.516364 148.314547 245.710909 147.998825 245.905455 147.692672 246.100000 147.396137 246.294545 147.109272 246.489091 146.832127 246.683636 146.564751 246.878182 146.307195 247.072727 146.059508 247.267273 145.821741 247.461818 145.593945 247.656364 145.376168 247.850909 145.168462 248.045455 144.970876 248.240000 144.783461 248.434545 144.606267 248.629091 144.439343 248.823636 144.282741 249.018182 144.136510 249.212727 144.000699 249.407273 143.875361 249.601818 143.760543 249.796364 143.656298 249.990909 143.562674 250.185455 143.479722 250.380000 143.407493 250.574545 143.346035 250.769091 143.295400 250.963636 143.255637 251.158182 143.226797 251.352727 143.208929 251.547273 143.202085 251.741818 143.206313 251.936364 143.221665 252.130909 143.248189 252.325455 143.285938 252.520000 143.334959 252.714545 143.395305 252.909091 143.467024 253.103636 143.550167 253.298182 143.644785 253.492727 143.750926 253.687273 143.868642 253.881818 143.997982 254.076364 144.138973 254.270909 144.291544 254.465455 144.455599 254.660000 144.631046 254.854545 144.817788 255.049091 145.015732 255.243636 145.224782 255.438182 145.444843 255.632727 145.675822 255.827273 145.917623 256.021818 146.170152 256.216364 146.433314 256.410909 146.707015 256.605455 146.991159 256.800000 147.285652 256.994545 147.590399 257.189091 147.905306 257.383636 148.230277 257.578182 148.565219 257.772727 148.910037 257.967273 149.264635 258.161818 149.628920 258.356364 150.002795 258.550909 150.386168 258.745455 150.778943 258.940000 151.181025 259.134545 151.592320 259.329091 152.012733 259.523636 152.442169 259.718182 152.880534 259.912727 153.327732 260.107273 153.783670 260.301818 154.248253 260.496364 154.721385 260.690909 155.202973 260.885455 155.692921 261.080000 156.191135 261.274545 156.697520 261.469091 157.211981 261.663636 157.734424 261.858182 158.264755 262.052727 158.802877 262.247273 159.348698 262.441818 159.902121 262.636364 160.463052 262.830909 161.031398 263.025455 161.607062 263.220000 162.189950 263.414545 162.779968 263.609091 163.377021 263.803636 163.981014 263.998182 164.591852 264.192727 165.209441 264.387273 165.833686 264.581818 166.464493 264.776364 167.101766 264.970909 167.745412 265.165455 168.395334 265.360000 169.051440 265.554545 169.713633 265.749091 170.381820 265.943636 171.055905 266.138182 171.735794 266.332727 172.421393 266.527273 173.112605 266.721818 173.809338 266.916364 174.511496 267.110909 175.218984 267.305455 175.931708 267.500000 176.649573 267.694545 177.372485 267.889091 178.100348 268.083636 178.833068 268.278182 179.570551 268.472727 180.312701 268.667273 181.059424 268.861818 181.810625 269.056364 182.566210 269.250909 183.326084 269.445455 184.090152 269.640000 184.858319 269.834545 185.630492 270.029091 186.406574 270.223636 187.186472 270.418182 187.970090 270.612727 188.757335 270.807273 189.548111 271.001818 190.342324 271.196364 191.139878 271.390909 191.940680 271.585455 192.744635 271.780000 193.551647 271.974545 194.361623 272.169091 195.174467 272.363636 195.990085 272.558182 196.808382 272.752727 197.629264 272.947273 198.452635 273.141818 199.278402 273.336364 200.106469 273.530909 200.936742 273.725455 201.769125 273.920000 202.603525 274.114545 203.439847 274.309091 204.277996 274.503636 205.117877 274.698182 205.959395 274.892727 206.802457 275.087273 207.646966 275.281818 208.492830 275.476364 209.339952 275.670909 210.188238 275.865455 211.037593 276.060000 211.887924 276.254545 212.739134 276.449091 213.591130 276.643636 214.443816 276.838182 215.297099 277.032727 216.150883 277.227273 217.005073 277.421818 217.859575 277.616364 218.714295 277.810909 219.569137 278.005455 220.424007 278.200000 221.278810 278.394545 222.133452 278.589091 222.987838 278.783636 223.841872 278.978182 224.695461 279.172727 225.548510 279.367273 226.400924 279.561818 227.252608 279.756364 228.103468 279.950909 228.953409 280.145455 229.802336 280.340000 230.650155 280.534545 231.496771 280.729091 232.342089 280.923636 233.186014 281.118182 234.028452 281.312727 234.869309 281.507273 235.708489 281.701818 236.545897 281.896364 237.381440 282.090909 238.215022 282.285455 239.046549 282.480000 239.875926 282.674545 240.703059 282.869091 241.527852 283.063636 242.350211 283.258182 243.170041 283.452727 243.987247 283.647273 244.801736 283.841818 245.613412 284.036364 246.422180 284.230909 247.227947 284.425455 248.030616 284.620000 248.830094 284.814545 249.626285 285.009091 250.419096 285.203636 251.208431 285.398182 251.994195 285.592727 252.776295 285.787273 253.554635 285.981818 254.329121 286.176364 255.099657 286.370909 255.866150 286.565455 256.628504 286.760000 257.386626 286.954545 258.140419 287.149091 258.889790 287.343636 259.634644 287.538182 260.374886 287.732727 261.110421 287.927273 261.841155 288.121818 262.566993 288.316364 263.287840 288.510909 264.003602 288.705455 264.714184 288.900000 265.419492 289.094545 266.119430 289.289091 266.813903 289.483636 267.502819 289.678182 268.186080 289.872727 268.863594 290.067273 269.535264 290.261818 270.200997 290.456364 270.860698 290.650909 271.514272 290.845455 272.161625 291.040000 272.802661 291.234545 273.437286 291.429091 274.065405 291.623636 274.686924 291.818182 275.301748 292.012727 275.909783 292.207273 276.510932 292.401818 277.105103 292.596364 277.692200 292.790909 278.272129 292.985455 278.844794 293.180000 279.410101 293.374545 279.967956 293.569091 280.518264 293.763636 281.060930 293.958182 281.595859 294.152727 282.122957 294.347273 282.642128 294.541818 283.153280 294.736364 283.656315 294.930909 284.151141 295.125455 284.637662 295.320000 285.115783 295.514545 285.585411 295.709091 286.046449 295.903636 286.498804 296.098182 286.942381 296.292727 287.377085 296.487273 287.802821 296.681818 288.219495 296.876364 288.627012 297.070909 289.025278 297.265455 289.414197 297.460000 289.793675 297.654545 290.163618 297.849091 290.523930 298.043636 290.874517 298.238182 291.215284 298.432727 291.546136 298.627273 291.866980 298.821818 292.177720 299.016364 292.478261 299.210909 292.768509 299.405455 293.048369 299.600000 293.317746 299.794545 293.576546 299.989091 293.824674 300.183636 294.062036 300.378182 294.288536 300.572727 294.504080 300.767273 294.708573 300.961818 294.901921 301.156364 295.084029 301.350909 295.254802 301.545455 295.414146 301.740000 295.561965 301.934545 295.698166 302.129091 295.822652 302.323636 295.935331 302.518182 296.036107 302.712727 296.124915 302.907273 296.201811 303.101818 296.266879 303.296364 296.320205 303.490909 296.361875 303.685455 296.391972 303.880000 296.410583 304.074545 296.417793 304.269091 296.413686 304.463636 296.398348 304.658182 296.371864 304.852727 296.334320 305.047273 296.285800 305.241818 296.226389 305.436364 296.156173 305.630909 296.075237 305.825455 295.983667 306.020000 295.881546 306.214545 295.768961 306.409091 295.645997 306.603636 295.512738 306.798182 295.369270 306.992727 295.215678 307.187273 295.052048 307.381818 294.878464 307.576364 294.695012 307.770909 294.501776 307.965455 294.298843 308.160000 294.086297 308.354545 293.864223 308.549091 293.632706 308.743636 293.391832 308.938182 293.141686 309.132727 292.882353 309.327273 292.613918 309.521818 292.336466 309.716364 292.050083 309.910909 291.754853 310.105455 291.450862 310.300000 291.138196 310.494545 290.816938 310.689091 290.487175 310.883636 290.148991 311.078182 289.802472 311.272727 289.447703 311.467273 289.084769 311.661818 288.713755 311.856364 288.334746 312.050909 287.947828 312.245455 287.553086 312.440000 287.150604 312.634545 286.740469 312.829091 286.322764 313.023636 285.897577 313.218182 285.464990 313.412727 285.025091 313.607273 284.577963 313.801818 284.123692 313.996364 283.662364 314.190909 283.194063 314.385455 282.718874 314.580000 282.236883 314.774545 281.748175 314.969091 281.252836 315.163636 280.750949 315.358182 280.242601 315.552727 279.727876 315.747273 279.206861 315.941818 278.679639 316.136364 278.146296 316.330909 277.606918 316.525455 277.061588 316.720000 276.510394 316.914545 275.953419 317.109091 275.390750 317.303636 274.822470 317.498182 274.248666 317.692727 273.669422 317.887273 273.084823 318.081818 272.494956 318.276364 271.899904 318.470909 271.299754 318.665455 270.694590 318.860000 270.084497 319.054545 269.469561 319.249091 268.849867 319.443636 268.225500 319.638182 267.596545 319.832727 266.963087 320.027273 266.325212 320.221818 265.683004 320.416364 265.036550 320.610909 264.385933 320.805455 263.731239 321.000000 263.072554 321.194545 262.409962 321.389091 261.743549 321.583636 261.073400 321.778182 260.399600 321.972727 259.722234 322.167273 259.041387 322.361818 258.357145 322.556364 257.669593 322.750909 256.978815 322.945455 256.284898 323.140000 255.587926 323.334545 254.887984 323.529091 254.185157 323.723636 253.479532 323.918182 252.771192 324.112727 252.060223 324.307273 251.346711 324.501818 250.630740 324.696364 249.912395 324.890909 249.191762 325.085455 248.468927 325.280000 247.743973 325.474545 247.016986 325.669091 246.288052 325.863636 245.557256 326.058182 244.824682 326.252727 244.090416 326.447273 243.354543 326.641818 242.617149 326.836364 241.878318 327.030909 241.138135 327.225455 240.396686 327.420000 239.654057 327.614545 238.910331 327.809091 238.165595 328.003636 237.419933 328.198182 236.673430 328.392727 235.926173 328.587273 235.178245 328.781818 234.429733 328.976364 233.680721 329.170909 232.931294 329.365455 232.181538 329.560000 231.431538 329.754545 230.681379 329.949091 229.931146 330.143636 229.180924 330.338182 228.430799 330.532727 227.680855 330.727273 226.931179 330.921818 226.181854 331.116364 225.432966 331.310909 224.684601 331.505455 223.936843 331.700000 223.189778 331.894545 222.443491 332.089091 221.698067 332.283636 220.953591 332.478182 220.210148 332.672727 219.467824 332.867273 218.726704 333.061818 217.986872 333.256364 217.248415 333.450909 216.511416 333.645455 215.775962 333.840000 215.042138 334.034545 214.310028 334.229091 213.579719 334.423636 212.851294 334.618182 212.124839 334.812727 211.400440 335.007273 210.678182 335.201818 209.958149 335.396364 209.240427 335.590909 208.525101 335.785455 207.812257 335.980000 207.101979 336.174545 206.394352 336.369091 205.689462 336.563636 204.987394 336.758182 204.288234 336.952727 203.592065 337.147273 202.898974 337.341818 202.209045 337.536364 201.522365 337.730909 200.839017 337.925455 200.159087 338.120000 199.482661 338.314545 198.809823 338.509091 198.140659 338.703636 197.475253 338.898182 196.813692 339.092727 196.156059 339.287273 195.502441 339.481818 194.852922 339.676364 194.207588 339.870909 193.566524 340.065455 192.929815 340.260000 192.297546 340.454545 191.669802 340.649091 191.046669 340.843636 190.428231 341.038182 189.814575 341.232727 189.205784 341.427273 188.601944 341.621818 188.003141 341.816364 187.409459 342.010909 186.820984 342.205455 186.237801 342.400000 185.659995 342.594545 185.087651 342.789091 184.520854 342.983636 183.959690 343.178182 183.404243 343.372727 182.854600 343.567273 182.310844 343.761818 181.773062 343.956364 181.241338 344.150909 180.715758 344.345455 180.196406 344.540000 179.683368 344.734545 179.176730 344.929091 178.676575 345.123636 178.182990 345.318182 177.696059 345.512727 177.215869 345.707273 176.742503 345.901818 176.276047 346.096364 175.816586 346.290909 175.364206 346.485455 174.918991 346.680000 174.481028 346.874545 174.050400 347.069091 173.627193 347.263636 173.211492 347.458182 172.803383 347.652727 172.402951 347.847273 172.010280 348.041818 171.625456 348.236364 171.248564 348.430909 170.879690 348.625455 170.518918 348.820000 170.166334 349.014545 169.822022 349.209091 169.486069 349.403636 169.158558 349.598182 168.839576 349.792727 168.529207 349.987273 168.227537 350.181818 167.934651 350.376364 167.650634 350.570909 167.375571 350.765455 167.109547 350.960000 166.852648 351.154545 166.604958 351.349091 166.366537 351.543636 166.137337 351.738182 165.917283 351.932727 165.706303 352.127273 165.504322 352.321818 165.311266 352.516364 165.127062 352.710909 164.951636 352.905455 164.784913 353.100000 164.626820 353.294545 164.477283 353.489091 164.336227 353.683636 164.203580 353.878182 164.079267 354.072727 163.963215 354.267273 163.855348 354.461818 163.755595 354.656364 163.663879 354.850909 163.580129 355.045455 163.504269 355.240000 163.436227 355.434545 163.375927 355.629091 163.323297 355.823636 163.278261 356.018182 163.240747 356.212727 163.210681 356.407273 163.187988 356.601818 163.172595 356.796364 163.164427 356.990909 163.163412 357.185455 163.169474 357.380000 163.182541 357.574545 163.202537 357.769091 163.229390 357.963636 163.263026 358.158182 163.303369 358.352727 163.350348 358.547273 163.403887 358.741818 163.463913 358.936364 163.530352 359.130909 163.603130 359.325455 163.682173 359.520000 163.767407 359.714545 163.858759 359.909091 163.956154 360.103636 164.059519 360.298182 164.168779 360.492727 164.283861 360.687273 164.404691 360.881818 164.531195 361.076364 164.663299 361.270909 164.800929 361.465455 164.944011 361.660000 165.092472 361.854545 165.246237 362.049091 165.405233 362.243636 165.569386 362.438182 165.738621 362.632727 165.912866 362.827273 166.092045 363.021818 166.276086 363.216364 166.464913 363.410909 166.658454 363.605455 166.856635 363.800000 167.059381 363.994545 167.266619 364.189091 167.478274 364.383636 167.694273 364.578182 167.914543 364.772727 168.139008 364.967273 168.367596 365.161818 168.600231 365.356364 168.836842 365.550909 169.077352 365.745455 169.321690 365.940000 169.569780 366.134545 169.821548 366.329091 170.076922 366.523636 170.335827 366.718182 170.598188 366.912727 170.863934 367.107273 171.132988 367.301818 171.405278 367.496364 171.680729 367.690909 171.959268 367.885455 172.240821 368.080000 172.525313 368.274545 172.812672 368.469091 173.102823 368.663636 173.395691 368.858182 173.691204 369.052727 173.989288 369.247273 174.289868 369.441818 174.592870 369.636364 174.898221 369.830909 175.205847 370.025455 175.515674 370.220000 175.827628 370.414545 176.141635 370.609091 176.457621 370.803636 176.775513 370.998182 177.095236 371.192727 177.416717 371.387273 177.739881 371.581818 178.064655 371.776364 178.390964 371.970909 178.718736 372.165455 179.047896 372.360000 179.378370 372.554545 179.710084 372.749091 180.042964 372.943636 180.376937 373.138182 180.711929 373.332727 181.047865 373.527273 181.384672 373.721818 181.722276 373.916364 182.060603 374.110909 182.399580 374.305455 182.739131 374.500000 183.079183 374.694545 183.419664 374.889091 183.760497 375.083636 184.101610 375.278182 184.442929 375.472727 184.784380 375.667273 185.125889 375.861818 185.467381 376.056364 185.808784 376.250909 186.150024 376.445455 186.491025 376.640000 186.831715 376.834545 187.172020 377.029091 187.511865 377.223636 187.851177 377.418182 188.189882 377.612727 188.527906 377.807273 188.865175 378.001818 189.201615 378.196364 189.537153 378.390909 189.871714 378.585455 190.205224 378.780000 190.537611 378.974545 190.868798 379.169091 191.198714 379.363636 191.527284 379.558182 191.854433 379.752727 192.180089 379.947273 192.504177 380.141818 192.826624 380.336364 193.147355 380.530909 193.466296 380.725455 193.783374 380.920000 194.098515 381.114545 194.411645 381.309091 194.722690 381.503636 195.031576 381.698182 195.338229 381.892727 195.642575 382.087273 195.944541 382.281818 196.244052 382.476364 196.541035 382.670909 196.835416 382.865455 197.127120 383.060000 197.416075 383.254545 197.702205 383.449091 197.985438 383.643636 198.265699 383.838182 198.542914 384.032727 198.817009 384.227273 199.087912 384.421818 199.355547 384.616364 199.619840 384.810909 199.880719 385.005455 200.138108 385.200000 200.391935 385.394545 200.642125 385.589091 200.888604 385.783636 201.131298 385.978182 201.370134 386.172727 201.605038 386.367273 201.835935 386.561818 202.062752 386.756364 202.285415 386.950909 202.503851 387.145455 202.717984 387.340000 202.927741 387.534545 203.133049 387.729091 203.333833 387.923636 203.530020 388.118182 203.721536 388.312727 203.908306 388.507273 204.090257 388.701818 204.267315 388.896364 204.439406 389.090909 204.606457 389.285455 204.768393 389.480000 204.925140 389.674545 205.076624 389.869091 205.222772 390.063636 205.363510 390.258182 205.498764 390.452727 205.628460 390.647273 205.752523 390.841818 205.870881 391.036364 205.983459 391.230909 206.090183 391.425455 206.190980 391.620000 206.285776 391.814545 206.374496 392.009091 206.457066 392.203636 206.533414 392.398182 206.603465 392.592727 206.667144 392.787273 206.724379 392.981818 206.775095 393.176364 206.819219 393.370909 206.856676 393.565455 206.887392 393.760000 206.911295 393.954545 206.928309 394.149091 206.938361 394.343636 206.941377 394.538182 206.937283 394.732727 206.926006 394.927273 206.907470 395.121818 206.881603 395.316364 206.848331 395.510909 206.807580 395.705455 206.759275 395.900000 206.703343 396.094545 206.639710 396.289091 206.568302 396.483636 206.489045 396.678182 206.401865 396.872727 206.306689 397.067273 206.203443 397.261818 206.092052 397.456364 205.972442 397.650909 205.844541 397.845455 205.708273 398.040000 205.563565 398.234545 205.410344 398.429091 205.248534 398.623636 205.078064 398.818182 204.898857 399.012727 204.710841 399.207273 204.513942 399.401818 204.308085 399.596364 204.093197 399.790909 203.869204 399.985455 203.636056 400.180000 203.393793 400.374545 203.142482 400.569091 202.882188 400.763636 202.612975 400.958182 202.334908 401.152727 202.048054 401.347273 201.752476 401.541818 201.448240 401.736364 201.135412 401.930909 200.814055 402.125455 200.484236 402.320000 200.146020 402.514545 199.799471 402.709091 199.444655 402.903636 199.081637 403.098182 198.710482 403.292727 198.331256 403.487273 197.944022 403.681818 197.548847 403.876364 197.145795 404.070909 196.734932 404.265455 196.316322 404.460000 195.890032 404.654545 195.456125 404.849091 195.014668 405.043636 194.565724 405.238182 194.109360 405.432727 193.645641 405.627273 193.174631 405.821818 192.696396 406.016364 192.211001 406.210909 191.718510 406.405455 191.218990 406.600000 190.712505 406.794545 190.199120 406.989091 189.678901 407.183636 189.151912 407.378182 188.618219 407.572727 188.077887 407.767273 187.530980 407.961818 186.977565 408.156364 186.417706 408.350909 185.851468 408.545455 185.278917 408.740000 184.700117 408.934545 184.115134 409.129091 183.524032 409.323636 182.926878 409.518182 182.323735 409.712727 181.714670 409.907273 181.099747 410.101818 180.479031 410.296364 179.852588 410.490909 179.220482 410.685455 178.582779 410.880000 177.939544 411.074545 177.290842 411.269091 176.636738 411.463636 175.977298 411.658182 175.312586 411.852727 174.642667 412.047273 173.967607 412.241818 173.287470 412.436364 172.602323 412.630909 171.912229 412.825455 171.217255 413.020000 170.517464 413.214545 169.812923 413.409091 169.103697 413.603636 168.389850 413.798182 167.671448 413.992727 166.948555 414.187273 166.221238 414.381818 165.489560 414.576364 164.753588 414.770909 164.013386 414.965455 163.269020 415.160000 162.520554 415.354545 161.768053 415.549091 161.011584 415.743636 160.251210 415.938182 159.486998 416.132727 158.719012 416.327273 157.947316 416.521818 157.171978 416.716364 156.393061 416.910909 155.610630 417.105455 154.824751 417.300000 154.035490 417.494545 153.242910 417.689091 152.447077 417.883636 151.648057 418.078182 150.845913 418.272727 150.040713 418.467273 149.232520 418.661818 148.421400 418.856364 147.607417 419.050909 146.790638 419.245455 145.971127 419.440000 145.148949 419.634545 144.324169 419.829091 143.496853 420.023636 142.667065 420.218182 141.834871 420.412727 141.000336 420.607273 140.163525 420.801818 139.324503 420.996364 138.483335 421.190909 137.640086 421.385455 136.794822 421.580000 135.947608 421.774545 135.098508 421.969091 134.247588 422.163636 133.394913 422.358182 132.540548 422.552727 131.684558 422.747273 130.827008 422.941818 129.967964 423.136364 129.107491 423.330909 128.245653 423.525455 127.382516 423.720000 126.518144 423.914545 125.652604 424.109091 124.785960 424.303636 123.918277 424.498182 123.049621 424.692727 122.180056 424.887273 121.309647 425.081818 120.438461 425.276364 119.566561 425.470909 118.694013 425.665455 117.820883 425.860000 116.947235 426.054545 116.073134 426.249091 115.198645 426.443636 114.323834 426.638182 113.448766 426.832727 112.573506 427.027273 111.698119 427.221818 110.822669 427.416364 109.947223 427.610909 109.071846 427.805455 108.196602 428.000000 107.321556 428.194545 106.446774 428.389091 105.572321 428.583636 104.698262 428.778182 103.824662 428.972727 102.951586 429.167273 102.079099 429.361818 101.207267 429.556364 100.336154 429.750909 99.465826 429.945455 98.596348 430.140000 97.727785 430.334545 96.860202 430.529091 95.993664 430.723636 95.128236 430.918182 94.263984 431.112727 93.400972 431.307273 92.539266 431.501818 91.678930 431.696364 90.820031 431.890909 89.962632 432.085455 89.106800 432.280000 88.252599 432.474545 87.400094 432.669091 86.549351 432.863636 85.700434 433.058182 84.853410 433.252727 84.008342 433.447273 83.165296 433.641818 82.324337 433.836364 81.485530 434.030909 80.648941 434.225455 79.814634 434.420000 78.982675 434.614545 78.153128 434.809091 77.326059 435.003636 76.501534 435.198182 75.679616 435.392727 74.860372 435.587273 74.043865 435.781818 73.230163 435.976364 72.419329 436.170909 71.611428 436.365455 70.806527 436.560000 70.004689 436.754545 69.205980 436.949091 68.410466 437.143636 67.618211 437.338182 66.829280 437.532727 66.043739 437.727273 65.261652 437.921818 64.483085 438.116364 63.708104 438.310909 62.936772 438.505455 62.169155 438.700000 61.405319 438.894545 60.645328 439.089091 59.889247 439.283636 59.137142 439.478182 58.389078 439.672727 57.645120 439.867273 56.905333 440.061818 56.169782 440.256364 55.438532 440.450909 54.711648 440.645455 53.989196 440.840000 53.271241 441.034545 52.557847 441.229091 51.849080 441.423636 51.145006 441.618182 50.445688 441.812727 49.751192 442.007273 49.061584 442.201818 48.376928 442.396364 47.697290 442.590909 47.022735 442.785455 46.353327 442.980000 45.689132 443.174545 45.030216 443.369091 44.376642 443.563636 43.728477 443.758182 43.085786 443.952727 42.448633 444.147273 41.817083 444.341818 41.191202 444.536364 40.571056 444.730909 39.956708 444.925455 39.348225 445.120000 38.745670 445.314545 38.149110 445.509091 37.558610 445.703636 36.974235 445.898182 36.396049 446.092727 35.824118 446.287273 35.258507 446.481818 34.699281 446.676364 34.146505 446.870909 33.600245 447.065455 33.060565 447.260000 32.527531 447.454545 32.001208 447.649091 31.481661 447.843636 30.968954 448.038182 30.463154 448.232727 29.964325 448.427273 29.472532 448.621818 28.987824 448.816364 28.510181 449.010909 28.039567 449.205455 27.575945 449.400000 27.119281 449.594545 26.669536 449.789091 26.226676 449.983636 25.790663 450.178182 25.361462 450.372727 24.939036 450.567273 24.523349 450.761818 24.114364 450.956364 23.712047 451.150909 23.316359 451.345455 22.927266 451.540000 22.544730 451.734545 22.168716 451.929091 21.799187 452.123636 21.436107 452.318182 21.079440 452.512727 20.729150 452.707273 20.385199 452.901818 20.047553 453.096364 19.716175 453.290909 19.391028 453.485455 19.072076 453.680000 18.759284 453.874545 18.452614 454.069091 18.152031 454.263636 17.857499 454.458182 17.568980 454.652727 17.286439 454.847273 17.009840 455.041818 16.739146 455.236364 16.474321 455.430909 16.215329 455.625455 15.962134 455.820000 15.714699 456.014545 15.472988 456.209091 15.236964 456.403636 15.006593 456.598182 14.781837 456.792727 14.562660 456.987273 14.349026 457.181818 14.140898 457.376364 13.938241 457.570909 13.741018 457.765455 13.549193 457.960000 13.362729 458.154545 13.181591 458.349091 13.005742 458.543636 12.835146 458.738182 12.669767 458.932727 12.509567 459.127273 12.354513 459.321818 12.204566 459.516364 12.059690 459.710909 11.919850 459.905455 11.785010 460.100000 11.655132 460.294545 11.530181 460.489091 11.410120 460.683636 11.294913 460.878182 11.184525 461.072727 11.078918 461.267273 10.978056 461.461818 10.881904 461.656364 10.790424 461.850909 10.703582 462.045455 10.621340 462.240000 10.543662 462.434545 10.470512 462.629091 10.401853 462.823636 10.337650 463.018182 10.277867 463.212727 10.222466 463.407273 10.171412 463.601818 10.124669 463.796364 10.082199 463.990909 10.043968 464.185455 10.009939 464.380000 9.980075 464.574545 9.954340 464.769091 9.932698 464.963636 9.915113 465.158182 9.901548 465.352727 9.891968 465.547273 9.886336 465.741818 9.884615 465.936364 9.886770 466.130909 9.892765 466.325455 9.902562 466.520000 9.916126 466.714545 9.933421 466.909091 9.954410 467.103636 9.979057 467.298182 10.007325 467.492727 10.039180 467.687273 10.074583 467.881818 10.113500 468.076364 10.155893 468.270909 10.201727 468.465455 10.250966 468.660000 10.303572 468.854545 10.359510 469.049091 10.418744 469.243636 10.481237 469.438182 10.546953 469.632727 10.615856 469.827273 10.687910 470.021818 10.763078 470.216364 10.841324 470.410909 10.922612 470.605455 11.006905 470.800000 11.094168 470.994545 11.184364 471.189091 11.277457 471.383636 11.373410 471.578182 11.472188 471.772727 11.573754 471.967273 11.678072 472.161818 11.785105 472.356364 11.894818 472.550909 12.007174 472.745455 12.122136 472.940000 12.239670 473.134545 12.359738 473.329091 12.482304 473.523636 12.607331 473.718182 12.734785 473.912727 12.864628 474.107273 12.996824 474.301818 13.131337 474.496364 13.268131 474.690909 13.407169 474.885455 13.548415 475.080000 13.691833 475.274545 13.837387 475.469091 13.985040 475.663636 14.134756 475.858182 14.286500 476.052727 14.440234 476.247273 14.595922 476.441818 14.753529 476.636364 14.913018 476.830909 15.074352 477.025455 15.237496 477.220000 15.402413 477.414545 15.569067 477.609091 15.737422 477.803636 15.907441 477.998182 16.079088 478.192727 16.252327 478.387273 16.427123 478.581818 16.603437 478.776364 16.781235 478.970909 16.960480 479.165455 17.141135 479.360000 17.323165 479.554545 17.506534 479.749091 17.691204 479.943636 17.877140 480.138182 18.064306 480.332727 18.252664 480.527273 18.442180 480.721818 18.632817 480.916364 18.824538 481.110909 19.017308 481.305455 19.211089 481.500000 19.405846 481.694545 19.601543 481.889091 19.798143 482.083636 19.995610 482.278182 20.193908 482.472727 20.393000 482.667273 20.592851 482.861818 20.793424 483.056364 20.994683 483.250909 21.196591 483.445455 21.399112 483.640000 21.602211 483.834545 21.805850 484.029091 22.009994 484.223636 22.214607 484.418182 22.419651 484.612727 22.625091 484.807273 22.830891 485.001818 23.037014 485.196364 23.243424 485.390909 23.450085 485.585455 23.656961 485.780000 23.864015 485.974545 24.071211 486.169091 24.278513 486.363636 24.485885 486.558182 24.693290 486.752727 24.900692 486.947273 25.108055 487.141818 25.315343 487.336364 25.522519 487.530909 25.729547 487.725455 25.936391 487.920000 26.143015 488.114545 26.349382 488.309091 26.555456 488.503636 26.761201 488.698182 26.966581 488.892727 27.171559 489.087273 27.376099 489.281818 27.580166 489.476364 27.783722 489.670909 27.986731 489.865455 28.189157 490.060000 28.390965 490.254545 28.592117 490.449091 28.792578 490.643636 28.992310 490.838182 29.191279 491.032727 29.389447 491.227273 29.586779 491.421818 29.783238 491.616364 29.978788 491.810909 30.173393 492.005455 30.367016 492.200000 30.559622 492.394545 30.751173 492.589091 30.941634 492.783636 31.130969 492.978182 31.319140 493.172727 31.506113 493.367273 31.691851 493.561818 31.876317 493.756364 32.059475 493.950909 32.241289 494.145455 32.421723 494.340000 32.600741 494.534545 32.778305 494.729091 32.954381 494.923636 33.128932 495.118182 33.301921 495.312727 33.473312 495.507273 33.643069 495.701818 33.811156 495.896364 33.977537 496.090909 34.142175 496.285455 34.305034 496.480000 34.466077 496.674545 34.625270 496.869091 34.782574 497.063636 34.937955 497.258182 35.091382 497.452727 35.242858 497.647273 35.392389 497.841818 35.539983 498.036364 35.685648 498.230909 35.829392 498.425455 35.971224 498.620000 36.111150 498.814545 36.249178 499.009091 36.385317 499.203636 36.519574 499.398182 36.651957 499.592727 36.782474 499.787273 36.911132 499.981818 37.037941 500.176364 37.162906 500.370909 37.286037 500.565455 37.407341 500.760000 37.526826 500.954545 37.644500 501.149091 37.760370 501.343636 37.874445 501.538182 37.986732 501.732727 38.097239 501.927273 38.205974 502.121818 38.312945 502.316364 38.418160 502.510909 38.521626 502.705455 38.623352 502.900000 38.723344 503.094545 38.821612 503.289091 38.918163 503.483636 39.013004 503.678182 39.106144 503.872727 39.197590 504.067273 39.287350 504.261818 39.375433 504.456364 39.461845 504.650909 39.546596 504.845455 39.629691 505.040000 39.711141 505.234545 39.790951 505.429091 39.869131 505.623636 39.945687 505.818182 40.020629 506.012727 40.093963 506.207273 40.165697 506.401818 40.235840 506.596364 40.304399 506.790909 40.371382 506.985455 40.436796 507.180000 40.500651 507.374545 40.562953 507.569091 40.623710 507.763636 40.682931 507.958182 40.740622 508.152727 40.796793 508.347273 40.851450 508.541818 40.904602 508.736364 40.956256 508.930909 41.006420 509.125455 41.055103 509.320000 41.102311 509.514545 41.148054 509.709091 41.192337 509.903636 41.235171 510.098182 41.276561 510.292727 41.316517 510.487273 41.355046 510.681818 41.392155 510.876364 41.427853 511.070909 41.462148 511.265455 41.495047 511.460000 41.526558 511.654545 41.556689 511.849091 41.585449 512.043636 41.612843 512.238182 41.638882 512.432727 41.663571 512.627273 41.686920 512.821818 41.708936 513.016364 41.729627 513.210909 41.749001 513.405455 41.767065 513.600000 41.783827 513.794545 41.799296 513.989091 41.813479 514.183636 41.826384 514.378182 41.838019 514.572727 41.848391 514.767273 41.857509 514.961818 41.865380 515.156364 41.872013 515.350909 41.877414 515.545455 41.881592 515.740000 41.884555 515.934545 41.886310 516.129091 41.886866 516.323636 41.886230 516.518182 41.884410 516.712727 41.881414 516.907273 41.877249 517.101818 41.871925 517.296364 41.865447 517.490909 41.857825 517.685455 41.849066 517.880000 41.839177 518.074545 41.828168 518.269091 41.816045 518.463636 41.802817 518.658182 41.788491 518.852727 41.773075 519.047273 41.756576 519.241818 41.739004 519.436364 41.720366 519.630909 41.700669 519.825455 41.679921 520.020000 41.658130 520.214545 41.635305 520.409091 41.611452 520.603636 41.586580 520.798182 41.560697 520.992727 41.533810 521.187273 41.505927 521.381818 41.477056 521.576364 41.447205 521.770909 41.416382 521.965455 41.384594 522.160000 41.351850 522.354545 41.318157 522.549091 41.283523 522.743636 41.247957 522.938182 41.211464 523.132727 41.174055 523.327273 41.135736 523.521818 41.096515 523.716364 41.056401 523.910909 41.015400 524.105455 40.973522 524.300000 40.930773 524.494545 40.887161 524.689091 40.842695 524.883636 40.797382 525.078182 40.751230 525.272727 40.704247 525.467273 40.656441 525.661818 40.607819 525.856364 40.558390 526.050909 40.508160 526.245455 40.457139 526.440000 40.405334 526.634545 40.352753 526.829091 40.299403 527.023636 40.245293 527.218182 40.190430 527.412727 40.134822 527.607273 40.078477 527.801818 40.021403 527.996364 39.963607 528.190909 39.905098 528.385455 39.845883 528.580000 39.785971 528.774545 39.725368 528.969091 39.664084 529.163636 39.602125 529.358182 39.539499 529.552727 39.476215 529.747273 39.412280 529.941818 39.347703 530.136364 39.282490 530.330909 39.216650 530.525455 39.150190 530.720000 39.083119 530.914545 39.015444 531.109091 38.947173 531.303636 38.878314 531.498182 38.808875 531.692727 38.738864 531.887273 38.668288 532.081818 38.597155 532.276364 38.525473 532.470909 38.453251 532.665455 38.380495 532.860000 38.307214 533.054545 38.233415 533.249091 38.159107 533.443636 38.084297 533.638182 38.008993 533.832727 37.933203 534.027273 37.856935 534.221818 37.780196 534.416364 37.702994 534.610909 37.625338 534.805455 37.547235 535.000000 37.468693 535.194545 37.389719 535.389091 37.310322 535.583636 37.230510 535.778182 37.150290 535.972727 37.069669 536.167273 36.988657 536.361818 36.907261 536.556364 36.825488 536.750909 36.743347 536.945455 36.660845 537.140000 36.577991 537.334545 36.494791 537.529091 36.411254 537.723636 36.327388 537.918182 36.243200 538.112727 36.158699 538.307273 36.073892 538.501818 35.988787 538.696364 35.903392 538.890909 35.817715 539.085455 35.731763 539.280000 35.645544 539.474545 35.559067 539.669091 35.472339 539.863636 35.385368 540.058182 35.298162 540.252727 35.210728 540.447273 35.123075 540.641818 35.035210 540.836364 34.947141 541.030909 34.858876 541.225455 34.770423 541.420000 34.681790 541.614545 34.592984 541.809091 34.504013 542.003636 34.414886 542.198182 34.325610 542.392727 34.236192 542.587273 34.146641 542.781818 34.056965 542.976364 33.967171 543.170909 33.877268 543.365455 33.787262 543.560000 33.697163 543.754545 33.606977 543.949091 33.516713 544.143636 33.426378 544.338182 33.335980 544.532727 33.245528 544.727273 33.155028 544.921818 33.064490 545.116364 32.973920 545.310909 32.883326 545.505455 32.792717 545.700000 32.702100 545.700000 514.000000" /></g></g><g class="titles"><text class="title plot_title" x="400.0" y="26">Sukhumvit-Line summary_52</text></g><g class="plot overlay" transform="translate(223, 46)"><g class="series serie-0 color-0"><g class="dots"><circle class="dot reactive tooltip-trigger" cx="10.7" cy="349.94504987393213" r="2.5" /><desc class="value">8489000</desc><desc class="x top">10.7</desc><desc class="y top">349.94504987393213</desc><desc class="x_label">Jan</desc></g><g class="dots"><circle class="dot reactive tooltip-trigger" cx="59.336363636363636" cy="465.96106996330775" r="2.5" /><desc class="value">8022000</desc><desc class="x top">59.336363636363636</desc><desc class="y top">465.96106996330775</desc><desc class="x_label">Feb</desc></g><g class="dots"><circle class="dot reactive tooltip-trigger" cx="107.97272727272727" cy="61.51978365601968" r="2.5" /><desc class="value">9650000</desc><desc class="x ">107.97272727272727</desc><desc class="y ">61.51978365601968</desc><desc class="x_label">Mar</desc></g><g class="dots"><circle class="dot reactive tooltip-trigger" cx="156.6090909090909" cy="440.6213824919666" r="2.5" /><desc class="value">8124000</desc><desc class="x top">156.6090909090909</desc><desc class="y top">440.6213824919666</desc><desc class="x_label">Apr</desc></g><g class="dots"><circle class="dot reactive tooltip-trigger" cx="205.24545454545455" cy="344.4796270859958" r="2.5" /><desc class="value">8511000</desc><desc class="x top">205.24545454545455</desc><desc class="y top">344.4796270859958</desc><desc class="x_label">May</desc></g><g class="dots"><circle class="dot reactive tooltip-trigger" cx="253.88181818181818" cy="143.9979820921497" r="2.5" /><desc class="value">9318000</desc><desc class="x ">253.88181818181818</desc><desc class="y ">143.9979820921497</desc><desc class="x_label">Jun</desc></g><g class="dots"><circle class="dot reactive tooltip-trigger" cx="302.5181818181818" cy="296.0361069201965" r="2.5" /><desc class="value">8706000</desc><desc class="x left top">302.5181818181818</desc><desc class="y left top">296.0361069201965</desc><desc class="x_label">Jul</desc></g><g class="dots"><circle class="dot reactive tooltip-trigger" cx="351.1545454545454" cy="166.60495816952266" r="2.5" /><desc class="value">9227000</desc><desc class="x left">351.1545454545454</desc><desc class="y left">166.60495816952266</desc><desc class="x_label">Aug</desc></g><g class="dots"><circle class="dot reactive tooltip-trigger" cx="399.7909090909091" cy="203.8692044509067" r="2.5" /><desc class="value">9077000</desc><desc class="x left">399.7909090909091</desc><desc class="y left">203.8692044509067</desc><desc class="x_label">Sep</desc></g><g class="dots"><circle class="dot reactive tooltip-trigger" cx="448.42727272727274" cy="29.472531854029455" r="2.5" /><desc class="value">9779000</desc><desc class="x left">448.42727272727274</desc><desc class="y left">29.472531854029455</desc><desc class="x_label">Oct</desc></g><g class="dots"><circle class="dot reactive tooltip-trigger" cx="497.0636363636363" cy="34.937954641965746" r="2.5" /><desc class="value">9757000</desc><desc class="x left">497.0636363636363</desc><desc class="y left">34.937954641965746</desc><desc class="x_label">Nov</desc></g><g class="dots"><circle class="dot reactive tooltip-trigger" cx="545.7" cy="32.702099865082744" r="2.5" /><desc class="value">9766000</desc><desc class="x left">545.7</desc><desc class="y left">32.702099865082744</desc><desc class="x_label">Dec</desc></g></g></g><g class="plot text-overlay" transform="translate(223, 46)"><g class="series serie-0 color-0" /></g><g class="plot tooltip-overlay" transform="translate(223, 46)"><g class="tooltip" style="opacity: 0" transform="translate(0 0)"><rect class="tooltip-box" height="0" rx="0" ry="0" width="0" /><g class="text" /></g></g><g class="legends" transform="translate(10, 56)"><g class="legend reactive activate-serie" id="activate-serie-0"><rect class="color-0 reactive" height="12" width="12" x="0.0" y="1.0" /><text x="17.0" y="11.2">Sukhumvit-Line</text></g></g><g class="legends" transform="translate(790, 56)" /></g></svg>