<?xml version='1.0' encoding='utf-8'?>
<svg xmlns:xlink="http://www.w3.org/1999/xlink" class="pygal-chart" id="chart-42724716-5b61-4f3b-b4af-4ad5502d6b24" viewBox="0 0 800 600" xmlns="http://www.w3.org/2000/svg"><!--Generated with pygal 2.0.11 (etree) ©Kozea 2011-2015 on 2015-12-10--><!--http://pygal.org--><!--http://github.com/Kozea/pygal--><defs><style type="text/css">#chart-42724716-5b61-4f3b-b4af-4ad5502d6b24{-webkit-user-select:none;-webkit-font-smoothing:antialiased;font-family:Consolas,"Liberation Mono",Menlo,Courier,monospace}#chart-42724716-5b61-4f3b-b4af-4ad5502d6b24 .title{font-family:Consolas,"Liberation Mono",Menlo,Courier,monospace;font-size:16px}#chart-42724716-5b61-4f3b-b4af-4ad5502d6b24 .legends .legend text{font-family:Consolas,"Liberation Mono",Menlo,Courier,monospace;font-size:14px}#chart-42724716-5b61-4f3b-b4af-4ad5502d6b24 .axis text{font-family:Consolas,"Liberation Mono",Menlo,Courier,monospace;font-size:10px}#chart-42724716-5b61-4f3b-b4af-4ad5502d6b24 .axis text.major{font-family:Consolas,"Liberation Mono",Menlo,Courier,monospace;font-size:10px}#chart-42724716-5b61-4f3b-b4af-4ad5502d6b24 .text-overlay text.value{font-family:Consolas,"Liberation Mono",Menlo,Courier,monospace;font-size:16px}#chart-42724716-5b61-4f3b-b4af-4ad5502d6b24 .text-overlay text.label{font-family:Consolas,"Liberation Mono",Menlo,Courier,monospace;font-size:10px}#chart-42724716-5b61-4f3b-b4af-4ad5502d6b24 .tooltip{font-family:Consolas,"Liberation Mono",Menlo,Courier,monospace;font-size:14px}#chart-42724716-5b61-4f3b-b4af-4ad5502d6b24 text.no_data{font-family:Consolas,"Liberation Mono",Menlo,Courier,monospace;font-size:64px}
#chart-42724716-5b61-4f3b-b4af-4ad5502d6b24{background-color:black}#chart-42724716-5b61-4f3b-b4af-4ad5502d6b24 path,#chart-42724716-5b61-4f3b-b4af-4ad5502d6b24 line,#chart-42724716-5b61-4f3b-b4af-4ad5502d6b24 rect,#chart-42724716-5b61-4f3b-b4af-4ad5502d6b24 circle{-webkit-transition:250ms;-moz-transition:250ms;transition:250ms}#chart-42724716-5b61-4f3b-b4af-4ad5502d6b24 .graph &gt; .background{fill:black}#chart-42724716-5b61-4f3b-b4af-4ad5502d6b24 .plot &gt; .background{fill:#111}#chart-42724716-5b61-4f3b-b4af-4ad5502d6b24 .graph{fill:#999}#chart-42724716-5b61-4f3b-b4af-4ad5502d6b24 text.no_data{fill:#eee}#chart-42724716-5b61-4f3b-b4af-4ad5502d6b24 .title{fill:#eee}#chart-42724716-5b61-4f3b-b4af-4ad5502d6b24 .legends .legend text{fill:#999}#chart-42724716-5b61-4f3b-b4af-4ad5502d6b24 .legends .legend:hover text{fill:#eee}#chart-42724716-5b61-4f3b-b4af-4ad5502d6b24 .axis .line{stroke:#eee}#chart-42724716-5b61-4f3b-b4af-4ad5502d6b24 .axis .guide.line{stroke:#555}#chart-42724716-5b61-4f3b-b4af-4ad5502d6b24 .axis .major.line{stroke:#999}#chart-42724716-5b61-4f3b-b4af-4ad5502d6b24 .axis text.major{fill:#eee}#chart-42724716-5b61-4f3b-b4af-4ad5502d6b24 .axis.y .guides:hover .guide.line,#chart-42724716-5b61-4f3b-b4af-4ad5502d6b24 .line-graph .axis.x .guides:hover .guide.line,#chart-42724716-5b61-4f3b-b4af-4ad5502d6b24 .stackedline-graph .axis.x .guides:hover .guide.line,#chart-42724716-5b61-4f3b-b4af-4ad5502d6b24 .xy-graph .axis.x .guides:hover .guide.line{stroke:#eee}#chart-42724716-5b61-4f3b-b4af-4ad5502d6b24 .axis .guides:hover text{fill:#eee}#chart-42724716-5b61-4f3b-b4af-4ad5502d6b24 .reactive{fill-opacity:.8}#chart-42724716-5b61-4f3b-b4af-4ad5502d6b24 .reactive.active,#chart-42724716-5b61-4f3b-b4af-4ad5502d6b24 .active .reactive{fill-opacity:.4;stroke-width:4}#chart-42724716-5b61-4f3b-b4af-4ad5502d6b24 .series text{fill:#eee}#chart-42724716-5b61-4f3b-b4af-4ad5502d6b24 .tooltip rect{fill:#111;stroke:#eee;-webkit-transition:opacity 250ms;-moz-transition:opacity 250ms;transition:opacity 250ms}#chart-42724716-5b61-4f3b-b4af-4ad5502d6b24 .tooltip .label{fill:#999}#chart-42724716-5b61-4f3b-b4af-4ad5502d6b24 .tooltip .label{fill:#999}#chart-42724716-5b61-4f3b-b4af-4ad5502d6b24 .tooltip .legend{font-size:.8em;fill:#555}#chart-42724716-5b61-4f3b-b4af-4ad5502d6b24 .tooltip .x_label{font-size:.6em;fill:#eee}#chart-42724716-5b61-4f3b-b4af-4ad5502d6b24 .tooltip .xlink{font-size:.5em;text-decoration:underline}#chart-42724716-5b61-4f3b-b4af-4ad5502d6b24 .tooltip .value{font-size:1.5em}#chart-42724716-5b61-4f3b-b4af-4ad5502d6b24 .map-element{fill:#111;stroke:#555 !important}#chart-42724716-5b61-4f3b-b4af-4ad5502d6b24 .map-element .reactive{fill-opacity:inherit}#chart-42724716-5b61-4f3b-b4af-4ad5502d6b24 .color-0,#chart-42724716-5b61-4f3b-b4af-4ad5502d6b24 .color-0 a:visited{stroke:#ff5995;fill:#ff5995}#chart-42724716-5b61-4f3b-b4af-4ad5502d6b24 .text-overlay .color-0 text{fill:black}
#chart-42724716-5b61-4f3b-b4af-4ad5502d6b24 text.no_data{text-anchor:middle}#chart-42724716-5b61-4f3b-b4af-4ad5502d6b24 .guide.line{fill:none}#chart-42724716-5b61-4f3b-b4af-4ad5502d6b24 .centered{text-anchor:middle}#chart-42724716-5b61-4f3b-b4af-4ad5502d6b24 .title{text-anchor:middle}#chart-42724716-5b61-4f3b-b4af-4ad5502d6b24 .legends .legend text{fill-opacity:1}#chart-42724716-5b61-4f3b-b4af-4ad5502d6b24 .axis.x text{text-anchor:middle}#chart-42724716-5b61-4f3b-b4af-4ad5502d6b24 .axis.x:not(.web) text[transform]{text-anchor:start}#chart-42724716-5b61-4f3b-b4af-4ad5502d6b24 .axis.x:not(.web) text[transform].backwards{text-anchor:end}#chart-42724716-5b61-4f3b-b4af-4ad5502d6b24 .axis.y text{text-anchor:end}#chart-42724716-5b61-4f3b-b4af-4ad5502d6b24 .axis.y text[transform].backwards{text-anchor:start}#chart-42724716-5b61-4f3b-b4af-4ad5502d6b24 .axis.y2 text{text-anchor:start}#chart-42724716-5b61-4f3b-b4af-4ad5502d6b24 .axis.y2 text[transform].backwards{text-anchor:end}#chart-42724716-5b61-4f3b-b4af-4ad5502d6b24 .axis .guide.line{stroke-dasharray:4,4}#chart-42724716-5b61-4f3b-b4af-4ad5502d6b24 .axis .major.guide.line{stroke-dasharray:6,6}#chart-42724716-5b61-4f3b-b4af-4ad5502d6b24 .horizontal .axis.y .guide.line,#chart-42724716-5b61-4f3b-b4af-4ad5502d6b24 .horizontal .axis.y2 .guide.line,#chart-42724716-5b61-4f3b-b4af-4ad5502d6b24 .vertical .axis.x .guide.line{opacity:0}#chart-42724716-5b61-4f3b-b4af-4ad5502d6b24 .horizontal .axis.always_show .guide.line,#chart-42724716-5b61-4f3b-b4af-4ad5502d6b24 .vertical .axis.always_show .guide.line{opacity:1 !important}#chart-42724716-5b61-4f3b-b4af-4ad5502d6b24 .axis.y .guides:hover .guide.line,#chart-42724716-5b61-4f3b-b4af-4ad5502d6b24 .axis.y2 .guides:hover .guide.line,#chart-42724716-5b61-4f3b-b4af-4ad5502d6b24 .axis.x .guides:hover .guide.line{opacity:1}#chart-42724716-5b61-4f3b-b4af-4ad5502d6b24 .axis .guides:hover text{opacity:1}#chart-42724716-5b61-4f3b-b4af-4ad5502d6b24 .nofill{fill:none}#chart-42724716-5b61-4f3b-b4af-4ad5502d6b24 .subtle-fill{fill-opacity:.2}#chart-42724716-5b61-4f3b-b4af-4ad5502d6b24 .dot{stroke-width:1px;fill-opacity:1}#chart-42724716-5b61-4f3b-b4af-4ad5502d6b24 .dot.active{stroke-width:5px}#chart-42724716-5b61-4f3b-b4af-4ad5502d6b24 .dot.negative{fill:transparent}#chart-42724716-5b61-4f3b-b4af-4ad5502d6b24 text,#chart-42724716-5b61-4f3b-b4af-4ad5502d6b24 tspan{stroke:none !important}#chart-42724716-5b61-4f3b-b4af-4ad5502d6b24 .series text.active{opacity:1}#chart-42724716-5b61-4f3b-b4af-4ad5502d6b24 .tooltip rect{fill-opacity:.95;stroke-width:.5}#chart-42724716-5b61-4f3b-b4af-4ad5502d6b24 .tooltip text{fill-opacity:1}#chart-42724716-5b61-4f3b-b4af-4ad5502d6b24 .showable{visibility:hidden}#chart-42724716-5b61-4f3b-b4af-4ad5502d6b24 .showable.shown{visibility:visible}</style><script type="text/javascript">window.pygal = window.pygal || {};window.pygal.config = window.pygal.config || {};window.pygal.config['42724716-5b61-4f3b-b4af-4ad5502d6b24'] = {"spacing": 10, "inner_radius": 0, "order_min": null, "truncate_label": null, "x_title": null, "style": {"foreground_strong": "#eee", "value_colors": [], "title_font_family": "Consolas, \"Liberation Mono\", Menlo, Courier, monospace", "major_guide_stroke_dasharray": "6,6", "background": "black", "value_font_size": 16, "guide_stroke_dasharray": "4,4", "colors": ["#ff5995", "#b6e354", "#feed6c", "#8cedff", "#9e6ffe", "#899ca1", "#f8f8f2", "#bf4646", "#516083", "#f92672", "#82b414", "#fd971f", "#56c2d6", "#808384", "#8c54fe", "#465457"], "legend_font_family": "Consolas, \"Liberation Mono\", Menlo, Courier, monospace", "no_data_font_size": 64, "legend_font_size": 14, "opacity": ".8", "title_font_size": 16, "foreground_subtle": "#555", "label_font_family": "Consolas, \"Liberation Mono\", Menlo, Courier, monospace", "value_label_font_family": "Consolas, \"Liberation Mono\", Menlo, Courier, monospace", "value_font_family": "Consolas, \"Liberation Mono\", Menlo, Courier, monospace", "major_label_font_size": 10, "no_data_font_family": "Consolas, \"Liberation Mono\", Menlo, Courier, monospace", "major_label_font_family": "Consolas, \"Liberation Mono\", Menlo, Courier, monospace", "tooltip_font_size": 14, "label_font_size": 10, "tooltip_font_family": "Consolas, \"Liberation Mono\", Menlo, Courier, monospace", "transition": "250ms", "value_label_font_size": 10, "plot_background": "#111", "opacity_hover": ".4", "font_family": "Consolas, \"Liberation Mono\", Menlo, Courier, monospace", "foreground": "#999"}, "y_labels_major": null, "inverse_y_axis": false, "show_dots": true, "js": ["//kozea.github.io/pygal.js/2.0.x/pygal-tooltips.min.js"], "range": null, "human_readable": false, "margin": 20, "show_x_labels": true, "legend_box_size": 12, "no_data_text": "No data", "strict": false, "show_minor_y_labels": true, "legend_at_bottom": false, "show_only_major_dots": false, "include_x_axis": false, "x_labels": ["Jan", "Feb", "Mar", "Apr", "May", "Jun", "Jul", "Aug", "Sep", "Oct", "Nov", "Dec"], "x_labels_major": null, "x_label_rotation": 0, "disable_xml_declaration": false, "y_title": null, "show_y_guides": true, "max_scale": 16, "margin_right": null, "defs": [], "tooltip_border_radius": 0, "xrange": null, "print_zeroes": true, "show_legend": true, "no_prefix": false, "y_labels_major_every": null, "fill": true, "width": 800, "min_scale": 4, "title": "Sala-Daeng 51", "half_pie": false, "x_labels_major_count": null, "zero": 0, "margin_bottom": null, "legends": ["Sala-Daeng"], "secondary_range": null, "margin_top": null, "margin_left": null, "print_labels": false, "legend_at_bottom_columns": null, "print_values": false, "value_formatter": null, "explicit_size": false, "dynamic_print_values": false, "interpolate": "cubic", "box_mode": "extremes", "interpolation_precision": 250, "x_value_formatter": null, "show_y_labels": true, "height": 600, "force_uri_protocol": null, "interpolation_parameters": {}, "dots_size": 2.5, "logarithmic": false, "stroke_style": null, "pretty_print": false, "stack_from_top": false, "stroke": true, "y_label_rotation": 0, "rounded_bars": null, "y_labels": null, "missing_value_fill_truncation": "x", "show_x_guides": false, "x_labels_major_every": null, "truncate_legend": null, "css": ["file://style.css", "file://graph.css"], "tooltip_fancy_mode": true, "y_labels_major_count": null, "show_minor_x_labels": true}</script><script type="text/javascript" xlink:href="//kozea.github.io/pygal.js/2.0.x/pygal-tooltips.min.js" /></defs><title>Sala-Daeng 51</title><g class="graph line-graph vertical"><rect class="background" height="600" width="800" x="0" y="0" /><g class="plot" transform="translate(184, 46)"><rect class="background" height="514" width="596.0" x="0" y="0" /><g class="axis y"><path class="line" d="M0.000000 514.000000 h596.000000" /><g class="guides"><path class="guide line" d="M0.000000 475.358081 h596.000000" /><text class="" x="-5" y="478.8580812132147">570000.0</text><title>570000.0</title></g><g class="guides"><path class="guide line" d="M0.000000 443.417688 h596.000000" /><text class="" x="-5" y="446.91768786759246">580000.0</text><title>580000.0</title></g><g class="guides"><path class="guide line" d="M0.000000 411.477295 h596.000000" /><text class="" x="-5" y="414.9772945219702">590000.0</text><title>590000.0</title></g><g class="guides"><path class="major guide line" d="M0.000000 379.536901 h596.000000" /><text class="major" x="-5" y="383.0369011763479">600000.0</text><title>600000.0</title></g><g class="guides"><path class="guide line" d="M0.000000 347.596508 h596.000000" /><text class="" x="-5" y="351.0965078307257">610000.0</text><title>610000.0</title></g><g class="guides"><path class="guide line" d="M0.000000 315.656114 h596.000000" /><text class="" x="-5" y="319.15611448510344">620000.0</text><title>620000.0</title></g><g class="guides"><path class="guide line" d="M0.000000 283.715721 h596.000000" /><text class="" x="-5" y="287.21572113948116">630000.0</text><title>630000.0</title></g><g class="guides"><path class="guide line" d="M0.000000 251.775328 h596.000000" /><text class="" x="-5" y="255.27532779385893">640000.0</text><title>640000.0</title></g><g class="guides"><path class="major guide line" d="M0.000000 219.834934 h596.000000" /><text class="major" x="-5" y="223.3349344482367">650000.0</text><title>650000.0</title></g><g class="guides"><path class="guide line" d="M0.000000 187.894541 h596.000000" /><text class="" x="-5" y="191.39454110261448">660000.0</text><title>660000.0</title></g><g class="guides"><path class="guide line" d="M0.000000 155.954148 h596.000000" /><text class="" x="-5" y="159.4541477569922">670000.0</text><title>670000.0</title></g><g class="guides"><path class="guide line" d="M0.000000 124.013754 h596.000000" /><text class="" x="-5" y="127.51375441136997">680000.0</text><title>680000.0</title></g><g class="guides"><path class="guide line" d="M0.000000 92.073361 h596.000000" /><text class="" x="-5" y="95.57336106574775">690000.0</text><title>690000.0</title></g><g class="guides"><path class="major guide line" d="M0.000000 60.132968 h596.000000" /><text class="major" x="-5" y="63.632967720125464">700000.0</text><title>700000.0</title></g><g class="guides"><path class="guide line" d="M0.000000 28.192574 h596.000000" /><text class="" x="-5" y="31.692574374503238">710000.0</text><title>710000.0</title></g></g><g class="axis x"><g class="guides"><path class="line" d="M11.461538 0.000000 v514.000000" /><text class="" x="11.461538461538462" y="529.0">Jan</text></g><g class="guides"><path class="guide line" d="M63.559441 0.000000 v514.000000" /><text class="" x="63.55944055944057" y="529.0">Feb</text></g><g class="guides"><path class="guide line" d="M115.657343 0.000000 v514.000000" /><text class="" x="115.65734265734265" y="529.0">Mar</text></g><g class="guides"><path class="guide line" d="M167.755245 0.000000 v514.000000" /><text class="" x="167.75524475524475" y="529.0">Apr</text></g><g class="guides"><path class="guide line" d="M219.853147 0.000000 v514.000000" /><text class="" x="219.85314685314685" y="529.0">May</text></g><g class="guides"><path class="guide line" d="M271.951049 0.000000 v514.000000" /><text class="" x="271.9510489510489" y="529.0">Jun</text></g><g class="guides"><path class="guide line" d="M324.048951 0.000000 v514.000000" /><text class="" x="324.04895104895104" y="529.0">Jul</text></g><g class="guides"><path class="guide line" d="M376.146853 0.000000 v514.000000" /><text class="" x="376.1468531468531" y="529.0">Aug</text></g><g class="guides"><path class="guide line" d="M428.244755 0.000000 v514.000000" /><text class="" x="428.24475524475525" y="529.0">Sep</text></g><g class="guides"><path class="guide line" d="M480.342657 0.000000 v514.000000" /><text class="" x="480.3426573426574" y="529.0">Oct</text></g><g class="guides"><path class="guide line" d="M532.440559 0.000000 v514.000000" /><text class="" x="532.4405594405595" y="529.0">Nov</text></g><g class="guides"><path class="guide line" d="M584.538462 0.000000 v514.000000" /><text class="" x="584.5384615384614" y="529.0">Dec</text></g></g><g class="series serie-0 color-0"><path class="line reactive" d="M11.461538 514.000000 L11.461538 219.834934 11.669930 221.860967 11.878322 223.886908 12.086713 225.912666 12.295105 227.938150 12.503497 229.963268 12.711888 231.987928 12.920280 234.012040 13.128671 236.035511 13.337063 238.058251 13.545455 240.080167 13.753846 242.101168 13.962238 244.121164 14.170629 246.140061 14.379021 248.157770 14.587413 250.174198 14.795804 252.189253 15.004196 254.202845 15.212587 256.214883 15.420979 258.225273 15.629371 260.233926 15.837762 262.240749 16.046154 264.245651 16.254545 266.248541 16.462937 268.249326 16.671329 270.247917 16.879720 272.244221 17.088112 274.238146 17.296503 276.229601 17.504895 278.218496 17.713287 280.204737 17.921678 282.188234 18.130070 284.168896 18.338462 286.146631 18.546853 288.121346 18.755245 290.092952 18.963636 292.061356 19.172028 294.026467 19.380420 295.988194 19.588811 297.946444 19.797203 299.901128 20.005594 301.852152 20.213986 303.799426 20.422378 305.742857 20.630769 307.682356 20.839161 309.617829 21.047552 311.549187 21.255944 313.476336 21.464336 315.399187 21.672727 317.317646 21.881119 319.231623 22.089510 321.141027 22.297902 323.045766 22.506294 324.945747 22.714685 326.840881 22.923077 328.731075 23.131469 330.616239 23.339860 332.496279 23.548252 334.371106 23.756643 336.240627 23.965035 338.104751 24.173427 339.963387 24.381818 341.816443 24.590210 343.663827 24.798601 345.505449 25.006993 347.341216 25.215385 349.171038 25.423776 350.994822 25.632168 352.812478 25.840559 354.623913 26.048951 356.429037 26.257343 358.227757 26.465734 360.019983 26.674126 361.805623 26.882517 363.584585 27.090909 365.356778 27.299301 367.122111 27.507692 368.880492 27.716084 370.631829 27.924476 372.376031 28.132867 374.113007 28.341259 375.842665 28.549650 377.564913 28.758042 379.279661 28.966434 380.986816 29.174825 382.686288 29.383217 384.377984 29.591608 386.061814 29.800000 387.737685 30.008392 389.405507 30.216783 391.065188 30.425175 392.716635 30.633566 394.359759 30.841958 395.994468 31.050350 397.620669 31.258741 399.238271 31.467133 400.847184 31.675524 402.447315 31.883916 404.038574 32.092308 405.620867 32.300699 407.194105 32.509091 408.758196 32.717483 410.313048 32.925874 411.858569 33.134266 413.394669 33.342657 414.921255 33.551049 416.438237 33.759441 417.945522 33.967832 419.443020 34.176224 420.930639 34.384615 422.408287 34.593007 423.875873 34.801399 425.333305 35.009790 426.780492 35.218182 428.217343 35.426573 429.643766 35.634965 431.059669 35.843357 432.464961 36.051748 433.859551 36.260140 435.243347 36.468531 436.616258 36.676923 437.978192 36.885315 439.329057 37.093706 440.668763 37.302098 441.997217 37.510490 443.314329 37.718881 444.620007 37.927273 445.914158 38.135664 447.196693 38.344056 448.467519 38.552448 449.726545 38.760839 450.973679 38.969231 452.208831 39.177622 453.431908 39.386014 454.642818 39.594406 455.841472 39.802797 457.027776 40.011189 458.201640 40.219580 459.362972 40.427972 460.511681 40.636364 461.647675 40.844755 462.770862 41.053147 463.881152 41.261538 464.978453 41.469930 466.062672 41.678322 467.133720 41.886713 468.191504 42.095105 469.235933 42.303497 470.266915 42.511888 471.284359 42.720280 472.288173 42.928671 473.278267 43.137063 474.254548 43.345455 475.216924 43.553846 476.165306 43.762238 477.099600 43.970629 478.019716 44.179021 478.925563 44.387413 479.817047 44.595804 480.694079 44.804196 481.556567 45.012587 482.404419 45.220979 483.237543 45.429371 484.055849 45.637762 484.859245 45.846154 485.647639 46.054545 486.420940 46.262937 487.179056 46.471329 487.921896 46.679720 488.649369 46.888112 489.361382 47.096503 490.057845 47.304895 490.738666 47.513287 491.403754 47.721678 492.053016 47.930070 492.686362 48.138462 493.303701 48.346853 493.904939 48.555245 494.489987 48.763636 495.058753 48.972028 495.611145 49.180420 496.147072 49.388811 496.666442 49.597203 497.169164 49.805594 497.655146 50.013986 498.124297 50.222378 498.576525 50.430769 499.011739 50.639161 499.429848 50.847552 499.830759 51.055944 500.214382 51.264336 500.580625 51.472727 500.929397 51.681119 501.260606 51.889510 501.574160 52.097902 501.869968 52.306294 502.147939 52.514685 502.407981 52.723077 502.650003 52.931469 502.873913 53.139860 503.079620 53.348252 503.267032 53.556643 503.436058 53.765035 503.586606 53.973427 503.718585 54.181818 503.831904 54.390210 503.926470 54.598601 504.002193 54.806993 504.058980 55.015385 504.096741 55.223776 504.115385 55.432168 504.114818 55.640559 504.094951 55.848951 504.055691 56.057343 503.996948 56.265734 503.918629 56.474126 503.820643 56.682517 503.702899 56.890909 503.565305 57.099301 503.407770 57.307692 503.230202 57.516084 503.032510 57.724476 502.814603 57.932867 502.576388 58.141259 502.317774 58.349650 502.038671 58.558042 501.738986 58.766434 501.418627 58.974825 501.077505 59.183217 500.715526 59.391608 500.332600 59.600000 499.928635 59.808392 499.503539 60.016783 499.057222 60.225175 498.589591 60.433566 498.100555 60.641958 497.590023 60.850350 497.057904 61.058741 496.504105 61.267133 495.928535 61.475524 495.331103 61.683916 494.711717 61.892308 494.070287 62.100699 493.406719 62.309091 492.720924 62.517483 492.012809 62.725874 491.282283 62.934266 490.529254 63.142657 489.753632 63.351049 488.955324 63.559441 488.134239 63.767832 487.290331 63.976224 486.423737 64.184615 485.534641 64.393007 484.623223 64.601399 483.689668 64.809790 482.734158 65.018182 481.756875 65.226573 480.758002 65.434965 479.737722 65.643357 478.696217 65.851748 477.633669 66.060140 476.550263 66.268531 475.446179 66.476923 474.321601 66.685315 473.176712 66.893706 472.011693 67.102098 470.826729 67.310490 469.622000 67.518881 468.397691 67.727273 467.153983 67.935664 465.891059 68.144056 464.609102 68.352448 463.308295 68.560839 461.988819 68.769231 460.650859 68.977622 459.294595 69.186014 457.920212 69.394406 456.527891 69.602797 455.117815 69.811189 453.690168 70.019580 452.245130 70.227972 450.782886 70.436364 449.303618 70.644755 447.807508 70.853147 446.294738 71.061538 444.765493 71.269930 443.219954 71.478322 441.658303 71.686713 440.080725 71.895105 438.487400 72.103497 436.878512 72.311888 435.254244 72.520280 433.614777 72.728671 431.960296 72.937063 430.290981 73.145455 428.607017 73.353846 426.908585 73.562238 425.195868 73.770629 423.469049 73.979021 421.728310 74.187413 419.973835 74.395804 418.205805 74.604196 416.424404 74.812587 414.629813 75.020979 412.822217 75.229371 411.001796 75.437762 409.168734 75.646154 407.323214 75.854545 405.465418 76.062937 403.595528 76.271329 401.713728 76.479720 399.820200 76.688112 397.915127 76.896503 395.998691 77.104895 394.071074 77.313287 392.132461 77.521678 390.183032 77.730070 388.222971 77.938462 386.252461 78.146853 384.271683 78.355245 382.280822 78.563636 380.280058 78.772028 378.269576 78.980420 376.249557 79.188811 374.220184 79.397203 372.181641 79.605594 370.134108 79.813986 368.077770 80.022378 366.012808 80.230769 363.939406 80.439161 361.857746 80.647552 359.768010 80.855944 357.670381 81.064336 355.565043 81.272727 353.452177 81.481119 351.331966 81.689510 349.204592 81.897902 347.070239 82.106294 344.929089 82.314685 342.781325 82.523077 340.627129 82.731469 338.466684 82.939860 336.300173 83.148252 334.127777 83.356643 331.949681 83.565035 329.766065 83.773427 327.577114 83.981818 325.383010 84.190210 323.183935 84.398601 320.980071 84.606993 318.771603 84.815385 316.558711 85.023776 314.341579 85.232168 312.120390 85.440559 309.895326 85.648951 307.666570 85.857343 305.434304 86.065734 303.198711 86.274126 300.959973 86.482517 298.718274 86.690909 296.473796 86.899301 294.226721 87.107692 291.977232 87.316084 289.725512 87.524476 287.471743 87.732867 285.216109 87.941259 282.958791 88.149650 280.699972 88.358042 278.439835 88.566434 276.178563 88.774825 273.916338 88.983217 271.653342 89.191608 269.389760 89.400000 267.125772 89.608392 264.861562 89.816783 262.597312 90.025175 260.333205 90.233566 258.069423 90.441958 255.806150 90.650350 253.543568 90.858741 251.281859 91.067133 249.021206 91.275524 246.761792 91.483916 244.503800 91.692308 242.247411 91.900699 239.992809 92.109091 237.740176 92.317483 235.489695 92.525874 233.241548 92.734266 230.995919 92.942657 228.752989 93.151049 226.512942 93.359441 224.275960 93.567832 222.042225 93.776224 219.811921 93.984615 217.585230 94.193007 215.362334 94.401399 213.143416 94.609790 210.928659 94.818182 208.718246 95.026573 206.512358 95.234965 204.311179 95.443357 202.114892 95.651748 199.923679 95.860140 197.737722 96.068531 195.557204 96.276923 193.382308 96.485315 191.213217 96.693706 189.050112 96.902098 186.893178 97.110490 184.742596 97.318881 182.598548 97.527273 180.461219 97.735664 178.330789 97.944056 176.207443 98.152448 174.091362 98.360839 171.982729 98.569231 169.881727 98.777622 167.788538 98.986014 165.703345 99.194406 163.626331 99.402797 161.557678 99.611189 159.497570 99.819580 157.446187 100.027972 155.403714 100.236364 153.370333 100.444755 151.346226 100.653147 149.331576 100.861538 147.326566 101.069930 145.331378 101.278322 143.346195 101.486713 141.371200 101.695105 139.406575 101.903497 137.452502 102.111888 135.509165 102.320280 133.576747 102.528671 131.655429 102.737063 129.745394 102.945455 127.846825 103.153846 125.959905 103.362238 124.084817 103.570629 122.221742 103.779021 120.370863 103.987413 118.532364 104.195804 116.706427 104.404196 114.893233 104.612587 113.092967 104.820979 111.305811 105.029371 109.531947 105.237762 107.771558 105.446154 106.024826 105.654545 104.291934 105.862937 102.573066 106.071329 100.868402 106.279720 99.178127 106.488112 97.502423 106.696503 95.841472 106.904895 94.195456 107.113287 92.564560 107.321678 90.948964 107.530070 89.348853 107.738462 87.764408 107.946853 86.195812 108.155245 84.643247 108.363636 83.106897 108.572028 81.586944 108.780420 80.083571 108.988811 78.596960 109.197203 77.127294 109.405594 75.674755 109.613986 74.239527 109.822378 72.821791 110.030769 71.421731 110.239161 70.039528 110.447552 68.675367 110.655944 67.329428 110.864336 66.001896 111.072727 64.692952 111.281119 63.402779 111.489510 62.131560 111.697902 60.879478 111.906294 59.646714 112.114685 58.433453 112.323077 57.239875 112.531469 56.066165 112.739860 54.912504 112.948252 53.779075 113.156643 52.666062 113.365035 51.573645 113.573427 50.502009 113.781818 49.451336 113.990210 48.421808 114.198601 47.413608 114.406993 46.426918 114.615385 45.461922 114.823776 44.518802 115.032168 43.597740 115.240559 42.698919 115.448951 41.822522 115.657343 40.968732 115.865734 40.137678 116.074126 39.329280 116.282517 38.543407 116.490909 37.779925 116.699301 37.038702 116.907692 36.319606 117.116084 35.622504 117.324476 34.947263 117.532867 34.293752 117.741259 33.661837 117.949650 33.051386 118.158042 32.462266 118.366434 31.894346 118.574825 31.347492 118.783217 30.821573 118.991608 30.316455 119.200000 29.832006 119.408392 29.368094 119.616783 28.924585 119.825175 28.501349 120.033566 28.098251 120.241958 27.715160 120.450350 27.351943 120.658741 27.008468 120.867133 26.684602 121.075524 26.380213 121.283916 26.095167 121.492308 25.829334 121.700699 25.582579 121.909091 25.354771 122.117483 25.145777 122.325874 24.955465 122.534266 24.783702 122.742657 24.630356 122.951049 24.495294 123.159441 24.378383 123.367832 24.279492 123.576224 24.198487 123.784615 24.135237 123.993007 24.089608 124.201399 24.061468 124.409790 24.050685 124.618182 24.057126 124.826573 24.080659 125.034965 24.121151 125.243357 24.178470 125.451748 24.252483 125.660140 24.343058 125.868531 24.450062 126.076923 24.573362 126.285315 24.712827 126.493706 24.868324 126.702098 25.039719 126.910490 25.226882 127.118881 25.429679 127.327273 25.647977 127.535664 25.881645 127.744056 26.130549 127.952448 26.394558 128.160839 26.673538 128.369231 26.967358 128.577622 27.275884 128.786014 27.598985 128.994406 27.936527 129.202797 28.288379 129.411189 28.654407 129.619580 29.034480 129.827972 29.428464 130.036364 29.836228 130.244755 30.257639 130.453147 30.692563 130.661538 31.140870 130.869930 31.602426 131.078322 32.077099 131.286713 32.564756 131.495105 33.065264 131.703497 33.578492 131.911888 34.104307 132.120280 34.642577 132.328671 35.193168 132.537063 35.755948 132.745455 36.330785 132.953846 36.917547 133.162238 37.516100 133.370629 38.126313 133.579021 38.748052 133.787413 39.381186 133.995804 40.025582 134.204196 40.681107 134.412587 41.347628 134.620979 42.025015 134.829371 42.713133 135.037762 43.411850 135.246154 44.121035 135.454545 44.840553 135.662937 45.570274 135.871329 46.310064 136.079720 47.059791 136.288112 47.819322 136.496503 48.588525 136.704895 49.367267 136.913287 50.155417 137.121678 50.952841 137.330070 51.759406 137.538462 52.574981 137.746853 53.399433 137.955245 54.232630 138.163636 55.074438 138.372028 55.924726 138.580420 56.783360 138.788811 57.650210 138.997203 58.525141 139.205594 59.408021 139.413986 60.298718 139.622378 61.197100 139.830769 62.103034 140.039161 63.016387 140.247552 63.937027 140.455944 64.864822 140.664336 65.799639 140.872727 66.741345 141.081119 67.689808 141.289510 68.644895 141.497902 69.606475 141.706294 70.574414 141.914685 71.548580 142.123077 72.528840 142.331469 73.515062 142.539860 74.507114 142.748252 75.504863 142.956643 76.508176 143.165035 77.516922 143.373427 78.530967 143.581818 79.550179 143.790210 80.574425 143.998601 81.603573 144.206993 82.637491 144.415385 83.676046 144.623776 84.719106 144.832168 85.766537 145.040559 86.818208 145.248951 87.873986 145.457343 88.933739 145.665734 89.997334 145.874126 91.064638 146.082517 92.135519 146.290909 93.209845 146.499301 94.287483 146.707692 95.368300 146.916084 96.452165 147.124476 97.538944 147.332867 98.628505 147.541259 99.720716 147.749650 100.815444 147.958042 101.912556 148.166434 103.011920 148.374825 104.113405 148.583217 105.216876 148.791608 106.322201 149.000000 107.429249 149.208392 108.537887 149.416783 109.647981 149.625175 110.759401 149.833566 111.872012 150.041958 112.985683 150.250350 114.100281 150.458741 115.215674 150.667133 116.331728 150.875524 117.448313 151.083916 118.565294 151.292308 119.682541 151.500699 120.799919 151.709091 121.917297 151.917483 123.034542 152.125874 124.151522 152.334266 125.268104 152.542657 126.384155 152.751049 127.499544 152.959441 128.614138 153.167832 129.727803 153.376224 130.840409 153.584615 131.951821 153.793007 133.061908 154.001399 134.170538 154.209790 135.277577 154.418182 136.382893 154.626573 137.486354 154.834965 138.587827 155.043357 139.687180 155.251748 140.784280 155.460140 141.878995 155.668531 142.971192 155.876923 144.060738 156.085315 145.147502 156.293706 146.231351 156.502098 147.312152 156.710490 148.389772 156.918881 149.464080 157.127273 150.534943 157.335664 151.602228 157.544056 152.665802 157.752448 153.725534 157.960839 154.781291 158.169231 155.832940 158.377622 156.880348 158.586014 157.923384 158.794406 158.961915 159.002797 159.995808 159.211189 161.024930 159.419580 162.049150 159.627972 163.068335 159.836364 164.082352 160.044755 165.091069 160.253147 166.094353 160.461538 167.092072 160.669930 168.084093 160.878322 169.070284 161.086713 170.050513 161.295105 171.024646 161.503497 171.992551 161.711888 172.954096 161.920280 173.909149 162.128671 174.857576 162.337063 175.799246 162.545455 176.734026 162.753846 177.661783 162.962238 178.582384 163.170629 179.495699 163.379021 180.401593 163.587413 181.299934 163.795804 182.190590 164.004196 183.073429 164.212587 183.948317 164.420979 184.815123 164.629371 185.673713 164.837762 186.523956 165.046154 187.365719 165.254545 188.198869 165.462937 189.023274 165.671329 189.838802 165.879720 190.645319 166.088112 191.442694 166.296503 192.230794 166.504895 193.009486 166.713287 193.778638 166.921678 194.538117 167.130070 195.287792 167.338462 196.027528 167.546853 196.757195 167.755245 197.476659 167.963636 198.185817 168.172028 198.884680 168.380420 199.573290 168.588811 200.251687 168.797203 200.919912 169.005594 201.578006 169.213986 202.226008 169.422378 202.863961 169.630769 203.491905 169.839161 204.109880 170.047552 204.717927 170.255944 205.316087 170.464336 205.904401 170.672727 206.482909 170.881119 207.051652 171.089510 207.610671 171.297902 208.160007 171.506294 208.699700 171.714685 209.229791 171.923077 209.750321 172.131469 210.261330 172.339860 210.762860 172.548252 211.254950 172.756643 211.737642 172.965035 212.210977 173.173427 212.674994 173.381818 213.129736 173.590210 213.575242 173.798601 214.011553 174.006993 214.438711 174.215385 214.856755 174.423776 215.265727 174.632168 215.665667 174.840559 216.056616 175.048951 216.438614 175.257343 216.811703 175.465734 217.175923 175.674126 217.531315 175.882517 217.877920 176.090909 218.215778 176.299301 218.544930 176.507692 218.865417 176.716084 219.177279 176.924476 219.480558 177.132867 219.775293 177.341259 220.061526 177.549650 220.339298 177.758042 220.608649 177.966434 220.869619 178.174825 221.122250 178.383217 221.366583 178.591608 221.602658 178.800000 221.830515 179.008392 222.050196 179.216783 222.261741 179.425175 222.465191 179.633566 222.660587 179.841958 222.847970 180.050350 223.027379 180.258741 223.198856 180.467133 223.362442 180.675524 223.518178 180.883916 223.666103 181.092308 223.806259 181.300699 223.938687 181.509091 224.063427 181.717483 224.180520 181.925874 224.290006 182.134266 224.391927 182.342657 224.486324 182.551049 224.573236 182.759441 224.652705 182.967832 224.724771 183.176224 224.789475 183.384615 224.846858 183.593007 224.896961 183.801399 224.939824 184.009790 224.975487 184.218182 225.003993 184.426573 225.025381 184.634965 225.039692 184.843357 225.046967 185.051748 225.047247 185.260140 225.040572 185.468531 225.026983 185.676923 225.006521 185.885315 224.979227 186.093706 224.945141 186.302098 224.904304 186.510490 224.856756 186.718881 224.802539 186.927273 224.741693 187.135664 224.674260 187.344056 224.600278 187.552448 224.519790 187.760839 224.432837 187.969231 224.339458 188.177622 224.239694 188.386014 224.133587 188.594406 224.021177 188.802797 223.902505 189.011189 223.777611 189.219580 223.646537 189.427972 223.509322 189.636364 223.366008 189.844755 223.216635 190.053147 223.061245 190.261538 222.899877 190.469930 222.732573 190.678322 222.559373 190.886713 222.380318 191.095105 222.195449 191.303497 222.004806 191.511888 221.808431 191.720280 221.606364 191.928671 221.398645 192.137063 221.185315 192.345455 220.966416 192.553846 220.741988 192.762238 220.512071 192.970629 220.276706 193.179021 220.035935 193.387413 219.789797 193.595804 219.538334 193.804196 219.281586 194.012587 219.019594 194.220979 218.752398 194.429371 218.480040 194.637762 218.202561 194.846154 217.920000 195.054545 217.632398 195.262937 217.339797 195.471329 217.042237 195.679720 216.739759 195.888112 216.432403 196.096503 216.120210 196.304895 215.803222 196.513287 215.481478 196.721678 215.155019 196.930070 214.823887 197.138462 214.488121 197.346853 214.147764 197.555245 213.802854 197.763636 213.453434 197.972028 213.099543 198.180420 212.741223 198.388811 212.378514 198.597203 212.011457 198.805594 211.640092 199.013986 211.264461 199.222378 210.884605 199.430769 210.500563 199.639161 210.112377 199.847552 209.720087 200.055944 209.323734 200.264336 208.923359 200.472727 208.519002 200.681119 208.110705 200.889510 207.698508 201.097902 207.282451 201.306294 206.862576 201.514685 206.438923 201.723077 206.011533 201.931469 205.580446 202.139860 205.145704 202.348252 204.707347 202.556643 204.265416 202.765035 203.819951 202.973427 203.370993 203.181818 202.918584 203.390210 202.462763 203.598601 202.003572 203.806993 201.541051 204.015385 201.075240 204.223776 200.606182 204.432168 200.133915 204.640559 199.658482 204.848951 199.179923 205.057343 198.698278 205.265734 198.213588 205.474126 197.725895 205.682517 197.235238 205.890909 196.741658 206.099301 196.245197 206.307692 195.745895 206.516084 195.243792 206.724476 194.738930 206.932867 194.231349 207.141259 193.721089 207.349650 193.208192 207.558042 192.692699 207.766434 192.174649 207.974825 191.654084 208.183217 191.131045 208.391608 190.605572 208.600000 190.077705 208.808392 189.547487 209.016783 189.014957 209.225175 188.480155 209.433566 187.943124 209.641958 187.403903 209.850350 186.862534 210.058741 186.319056 210.267133 185.773512 210.475524 185.225941 210.683916 184.676384 210.892308 184.124881 211.100699 183.571475 211.309091 183.016205 211.517483 182.459112 211.725874 181.900237 211.934266 181.339620 212.142657 180.777303 212.351049 180.213326 212.559441 179.647729 212.767832 179.080555 212.976224 178.511842 213.184615 177.941632 213.393007 177.369966 213.601399 176.796884 213.809790 176.222427 214.018182 175.646637 214.226573 175.069552 214.434965 174.491216 214.643357 173.911667 214.851748 173.330947 215.060140 172.749096 215.268531 172.166156 215.476923 171.582166 215.685315 170.997168 215.893706 170.411203 216.102098 169.824311 216.310490 169.236533 216.518881 168.647909 216.727273 168.058480 216.935664 167.468288 217.144056 166.877372 217.352448 166.285774 217.560839 165.693534 217.769231 165.100693 217.977622 164.507292 218.186014 163.913371 218.394406 163.318972 218.602797 162.724134 218.811189 162.128899 219.019580 161.533307 219.227972 160.937399 219.436364 160.341216 219.644755 159.744798 219.853147 159.148187 220.061538 158.551418 220.269930 157.954510 220.478322 157.357476 220.686713 156.760331 220.895105 156.163087 221.103497 155.565760 221.311888 154.968361 221.520280 154.370906 221.728671 153.773407 221.937063 153.175879 222.145455 152.578336 222.353846 151.980790 222.562238 151.383257 222.770629 150.785749 222.979021 150.188280 223.187413 149.590864 223.395804 148.993515 223.604196 148.396247 223.812587 147.799073 224.020979 147.202006 224.229371 146.605062 224.437762 146.008253 224.646154 145.411593 224.854545 144.815097 225.062937 144.218776 225.271329 143.622647 225.479720 143.026721 225.688112 142.431013 225.896503 141.835537 226.104895 141.240307 226.313287 140.645335 226.521678 140.050637 226.730070 139.456225 226.938462 138.862113 227.146853 138.268315 227.355245 137.674845 227.563636 137.081717 227.772028 136.488944 227.980420 135.896540 228.188811 135.304519 228.397203 134.712894 228.605594 134.121679 228.813986 133.530889 229.022378 132.940536 229.230769 132.350634 229.439161 131.761198 229.647552 131.172241 229.855944 130.583776 230.064336 129.995818 230.272727 129.408380 230.481119 128.821475 230.689510 128.235119 230.897902 127.649323 231.106294 127.064103 231.314685 126.479472 231.523077 125.895443 231.731469 125.312031 231.939860 124.729248 232.148252 124.147110 232.356643 123.565628 232.565035 122.984819 232.773427 122.404694 232.981818 121.825267 233.190210 121.246554 233.398601 120.668566 233.606993 120.091319 233.815385 119.514825 234.023776 118.939098 234.232168 118.364153 234.440559 117.790003 234.648951 117.216661 234.857343 116.644142 235.065734 116.072459 235.274126 115.501625 235.482517 114.931655 235.690909 114.362563 235.899301 113.794362 236.107692 113.227065 236.316084 112.660687 236.524476 112.095241 236.732867 111.530742 236.941259 110.967202 237.149650 110.404635 237.358042 109.843056 237.566434 109.282478 237.774825 108.722914 237.983217 108.164379 238.191608 107.606886 238.400000 107.050449 238.608392 106.495082 238.816783 105.940798 239.025175 105.387611 239.233566 104.835535 239.441958 104.284584 239.650350 103.734771 239.858741 103.186110 240.067133 102.638615 240.275524 102.092299 240.483916 101.547177 240.692308 101.003262 240.900699 100.460568 241.109091 99.919108 241.317483 99.378897 241.525874 98.839947 241.734266 98.302273 241.942657 97.765889 242.151049 97.230808 242.359441 96.697044 242.567832 96.164610 242.776224 95.633521 242.984615 95.103790 243.193007 94.575431 243.401399 94.048458 243.609790 93.522884 243.818182 92.998723 244.026573 92.475989 244.234965 91.954696 244.443357 91.434857 244.651748 90.916486 244.860140 90.399597 245.068531 89.884203 245.276923 89.370319 245.485315 88.857957 245.693706 88.347133 245.902098 87.837859 246.110490 87.330149 246.318881 86.824017 246.527273 86.319477 246.735664 85.816542 246.944056 85.315227 247.152448 84.815544 247.360839 84.317508 247.569231 83.821133 247.777622 83.326431 247.986014 82.833418 248.194406 82.342106 248.402797 81.852509 248.611189 81.364642 248.819580 80.878517 249.027972 80.394149 249.236364 79.911552 249.444755 79.430738 249.653147 78.951722 249.861538 78.474518 250.069930 77.999139 250.278322 77.525599 250.486713 77.053911 250.695105 76.584090 250.903497 76.116150 251.111888 75.650103 251.320280 75.185964 251.528671 74.723746 251.737063 74.263464 251.945455 73.805130 252.153846 73.348760 252.362238 72.894365 252.570629 72.441961 252.779021 71.991560 252.987413 71.543177 253.195804 71.096826 253.404196 70.652519 253.612587 70.210271 253.820979 69.770096 254.029371 69.332007 254.237762 68.896019 254.446154 68.462144 254.654545 68.030396 254.862937 67.600790 255.071329 67.173338 255.279720 66.748056 255.488112 66.324955 255.696503 65.904051 255.904895 65.485357 256.113287 65.068887 256.321678 64.654654 256.530070 64.242672 256.738462 63.832955 256.946853 63.425517 257.155245 63.020371 257.363636 62.617531 257.572028 62.217011 257.780420 61.818824 257.988811 61.422985 258.197203 61.029507 258.405594 60.638404 258.613986 60.249689 258.822378 59.863376 259.030769 59.479480 259.239161 59.098013 259.447552 58.718990 259.655944 58.342424 259.864336 57.968328 260.072727 57.596718 260.281119 57.227606 260.489510 56.861006 260.697902 56.496932 260.906294 56.135398 261.114685 55.776417 261.323077 55.420003 261.531469 55.066170 261.739860 54.714932 261.948252 54.366302 262.156643 54.020294 262.365035 53.676922 262.573427 53.336199 262.781818 52.998140 262.990210 52.662758 263.198601 52.330066 263.406993 52.000079 263.615385 51.672810 263.823776 51.348273 264.032168 51.026482 264.240559 50.707451 264.448951 50.391192 264.657343 50.077721 264.865734 49.767050 265.074126 49.459194 265.282517 49.154165 265.490909 48.851979 265.699301 48.552648 265.907692 48.256187 266.116084 47.962609 266.324476 47.671927 266.532867 47.384156 266.741259 47.099310 266.949650 46.817401 267.158042 46.538445 267.366434 46.262453 267.574825 45.989441 267.783217 45.719423 267.991608 45.452410 268.200000 45.188419 268.408392 44.927461 268.616783 44.669552 268.825175 44.414704 269.033566 44.162931 269.241958 43.914248 269.450350 43.668668 269.658741 43.426204 269.867133 43.186871 270.075524 42.950682 270.283916 42.717650 270.492308 42.487791 270.700699 42.261116 270.909091 42.037641 271.117483 41.817379 271.325874 41.600343 271.534266 41.386547 271.742657 41.176006 271.951049 40.968732 272.159441 40.764734 272.367832 40.563996 272.576224 40.366498 272.784615 40.172220 272.993007 39.981139 273.201399 39.793236 273.409790 39.608488 273.618182 39.426877 273.826573 39.248379 274.034965 39.072976 274.243357 38.900645 274.451748 38.731367 274.660140 38.565120 274.868531 38.401882 275.076923 38.241635 275.285315 38.084356 275.493706 37.930024 275.702098 37.778620 275.910490 37.630121 276.118881 37.484507 276.327273 37.341758 276.535664 37.201852 276.744056 37.064768 276.952448 36.930487 277.160839 36.798986 277.369231 36.670245 277.577622 36.544242 277.786014 36.420959 277.994406 36.300372 278.202797 36.182462 278.411189 36.067207 278.619580 35.954588 278.827972 35.844582 279.036364 35.737169 279.244755 35.632328 279.453147 35.530039 279.661538 35.430280 279.869930 35.333030 280.078322 35.238269 280.286713 35.145976 280.495105 35.056130 280.703497 34.968710 280.911888 34.883696 281.120280 34.801065 281.328671 34.720798 281.537063 34.642874 281.745455 34.567272 281.953846 34.493970 282.162238 34.422949 282.370629 34.354187 282.579021 34.287663 282.787413 34.223357 282.995804 34.161247 283.204196 34.101313 283.412587 34.043533 283.620979 33.987888 283.829371 33.934356 284.037762 33.882916 284.246154 33.833548 284.454545 33.786230 284.662937 33.740942 284.871329 33.697663 285.079720 33.656371 285.288112 33.617047 285.496503 33.579669 285.704895 33.544216 285.913287 33.510668 286.121678 33.479004 286.330070 33.449202 286.538462 33.421242 286.746853 33.395104 286.955245 33.370765 287.163636 33.348206 287.372028 33.327405 287.580420 33.308342 287.788811 33.290996 287.997203 33.275345 288.205594 33.261369 288.413986 33.249048 288.622378 33.238360 288.830769 33.229284 289.039161 33.221800 289.247552 33.215887 289.455944 33.211523 289.664336 33.208689 289.872727 33.207362 290.081119 33.207523 290.289510 33.209150 290.497902 33.212222 290.706294 33.216720 290.914685 33.222621 291.123077 33.229905 291.331469 33.238551 291.539860 33.248538 291.748252 33.259845 291.956643 33.272452 292.165035 33.286338 292.373427 33.301481 292.581818 33.317861 292.790210 33.335458 292.998601 33.354249 293.206993 33.374215 293.415385 33.395334 293.623776 33.417585 293.832168 33.440949 294.040559 33.465403 294.248951 33.490927 294.457343 33.517500 294.665734 33.545101 294.874126 33.573710 295.082517 33.603306 295.290909 33.633867 295.499301 33.665372 295.707692 33.697802 295.916084 33.731135 296.124476 33.765350 296.332867 33.800426 296.541259 33.836343 296.749650 33.873079 296.958042 33.910614 297.166434 33.948927 297.374825 33.987997 297.583217 34.027803 297.791608 34.068324 298.000000 34.109540 298.208392 34.151430 298.416783 34.193972 298.625175 34.237146 298.833566 34.280931 299.041958 34.325306 299.250350 34.370250 299.458741 34.415742 299.667133 34.461762 299.875524 34.508289 300.083916 34.555302 300.292308 34.602779 300.500699 34.650701 300.709091 34.699045 300.917483 34.747792 301.125874 34.796921 301.334266 34.846410 301.542657 34.896239 301.751049 34.946387 301.959441 34.996832 302.167832 35.047555 302.376224 35.098534 302.584615 35.149749 302.793007 35.201178 303.001399 35.252801 303.209790 35.304597 303.418182 35.356544 303.626573 35.408623 303.834965 35.460812 304.043357 35.513091 304.251748 35.565438 304.460140 35.617832 304.668531 35.670253 304.876923 35.722681 305.085315 35.775093 305.293706 35.827470 305.502098 35.879789 305.710490 35.932032 305.918881 35.984176 306.127273 36.036200 306.335664 36.088085 306.544056 36.139808 306.752448 36.191350 306.960839 36.242689 307.169231 36.293805 307.377622 36.344676 307.586014 36.395281 307.794406 36.445601 308.002797 36.495613 308.211189 36.545298 308.419580 36.594634 308.627972 36.643600 308.836364 36.692176 309.044755 36.740340 309.253147 36.788072 309.461538 36.835351 309.669930 36.882156 309.878322 36.928467 310.086713 36.974261 310.295105 37.019520 310.503497 37.064220 310.711888 37.108343 310.920280 37.151866 311.128671 37.194770 311.337063 37.237032 311.545455 37.278633 311.753846 37.319551 311.962238 37.359766 312.170629 37.399257 312.379021 37.438002 312.587413 37.475981 312.795804 37.513174 313.004196 37.549559 313.212587 37.585115 313.420979 37.619821 313.629371 37.653657 313.837762 37.686602 314.046154 37.718635 314.254545 37.749735 314.462937 37.779882 314.671329 37.809053 314.879720 37.837229 315.088112 37.864389 315.296503 37.890511 315.504895 37.915576 315.713287 37.939561 315.921678 37.962446 316.130070 37.984211 316.338462 38.004834 316.546853 38.024295 316.755245 38.042572 316.963636 38.059645 317.172028 38.075494 317.380420 38.090096 317.588811 38.103432 317.797203 38.115480 318.005594 38.126219 318.213986 38.135629 318.422378 38.143689 318.630769 38.150378 318.839161 38.155675 319.047552 38.159559 319.255944 38.162009 319.464336 38.163005 319.672727 38.162526 319.881119 38.160550 320.089510 38.157057 320.297902 38.152026 320.506294 38.145437 320.714685 38.137267 320.923077 38.127497 321.131469 38.116106 321.339860 38.103072 321.548252 38.088376 321.756643 38.071995 321.965035 38.053909 322.173427 38.034097 322.381818 38.012539 322.590210 37.989214 322.798601 37.964100 323.006993 37.937177 323.215385 37.908423 323.423776 37.877819 323.632168 37.845343 323.840559 37.810975 324.048951 37.774692 324.257343 37.736483 324.465734 37.696358 324.674126 37.654337 324.882517 37.610441 325.090909 37.564688 325.299301 37.517098 325.507692 37.467689 325.716084 37.416483 325.924476 37.363497 326.132867 37.308752 326.341259 37.252267 326.549650 37.194062 326.758042 37.134154 326.966434 37.072566 327.174825 37.009314 327.383217 36.944420 327.591608 36.877903 327.800000 36.809781 328.008392 36.740074 328.216783 36.668803 328.425175 36.595985 328.633566 36.521641 328.841958 36.445791 329.050350 36.368452 329.258741 36.289646 329.467133 36.209391 329.675524 36.127707 329.883916 36.044612 330.092308 35.960128 330.300699 35.874273 330.509091 35.787066 330.717483 35.698527 330.925874 35.608675 331.134266 35.517530 331.342657 35.425111 331.551049 35.331438 331.759441 35.236530 331.967832 35.140407 332.176224 35.043087 332.384615 34.944591 332.593007 34.844938 332.801399 34.744146 333.009790 34.642237 333.218182 34.539228 333.426573 34.435140 333.634965 34.329992 333.843357 34.223803 334.051748 34.116593 334.260140 34.008382 334.468531 33.899188 334.676923 33.789030 334.885315 33.677930 335.093706 33.565905 335.302098 33.452976 335.510490 33.339162 335.718881 33.224481 335.927273 33.108955 336.135664 32.992601 336.344056 32.875440 336.552448 32.757491 336.760839 32.638773 336.969231 32.519306 337.177622 32.399110 337.386014 32.278203 337.594406 32.156605 337.802797 32.034335 338.011189 31.911414 338.219580 31.787859 338.427972 31.663692 338.636364 31.538931 338.844755 31.413595 339.053147 31.287705 339.261538 31.161279 339.469930 31.034337 339.678322 30.906899 339.886713 30.778983 340.095105 30.650609 340.303497 30.521797 340.511888 30.392567 340.720280 30.262936 340.928671 30.132926 341.137063 30.002555 341.345455 29.871843 341.553846 29.740809 341.762238 29.609473 341.970629 29.477854 342.179021 29.345971 342.387413 29.213844 342.595804 29.081493 342.804196 28.948937 343.012587 28.816194 343.220979 28.683286 343.429371 28.550230 343.637762 28.417047 343.846154 28.283756 344.054545 28.150377 344.262937 28.016928 344.471329 27.883429 344.679720 27.749900 344.888112 27.616361 345.096503 27.482829 345.304895 27.349326 345.513287 27.215870 345.721678 27.082481 345.930070 26.949178 346.138462 26.815981 346.346853 26.682909 346.555245 26.549982 346.763636 26.417218 346.972028 26.284638 347.180420 26.152261 347.388811 26.020106 347.597203 25.888192 347.805594 25.756540 348.013986 25.625168 348.222378 25.494096 348.430769 25.363344 348.639161 25.232930 348.847552 25.102875 349.055944 24.973198 349.264336 24.843917 349.472727 24.715053 349.681119 24.586625 349.889510 24.458653 350.097902 24.331155 350.306294 24.204151 350.514685 24.077662 350.723077 23.951705 350.931469 23.826301 351.139860 23.701469 351.348252 23.577228 351.556643 23.453598 351.765035 23.330599 351.973427 23.208249 352.181818 23.086568 352.390210 22.965576 352.598601 22.845291 352.806993 22.725734 353.015385 22.606924 353.223776 22.488881 353.432168 22.371623 353.640559 22.255170 353.848951 22.139541 354.057343 22.024757 354.265734 21.910836 354.474126 21.797798 354.682517 21.685662 354.890909 21.574448 355.099301 21.464175 355.307692 21.354863 355.516084 21.246530 355.724476 21.139197 355.932867 21.032883 356.141259 20.927607 356.349650 20.823389 356.558042 20.720248 356.766434 20.618203 356.974825 20.517275 357.183217 20.417482 357.391608 20.318844 357.600000 20.221380 357.808392 20.125110 358.016783 20.030053 358.225175 19.936228 358.433566 19.843656 358.641958 19.752355 358.850350 19.662344 359.058741 19.573645 359.267133 19.486274 359.475524 19.400253 359.683916 19.315601 359.892308 19.232336 360.100699 19.150479 360.309091 19.070049 360.517483 18.991065 360.725874 18.913547 360.934266 18.837514 361.142657 18.762986 361.351049 18.689981 361.559441 18.618520 361.767832 18.548622 361.976224 18.480307 362.184615 18.413592 362.393007 18.348500 362.601399 18.285047 362.809790 18.223255 363.018182 18.163142 363.226573 18.104728 363.434965 18.048032 363.643357 17.993074 363.851748 17.939874 364.060140 17.888449 364.268531 17.838821 364.476923 17.791008 364.685315 17.745030 364.893706 17.700907 365.102098 17.658657 365.310490 17.618300 365.518881 17.579856 365.727273 17.543344 365.935664 17.508784 366.144056 17.476194 366.352448 17.445595 366.560839 17.417005 366.769231 17.390444 366.977622 17.365932 367.186014 17.343489 367.394406 17.323132 367.602797 17.304883 367.811189 17.288759 368.019580 17.274782 368.227972 17.262970 368.436364 17.253342 368.644755 17.245918 368.853147 17.240718 369.061538 17.237761 369.269930 17.237066 369.478322 17.238653 369.686713 17.242540 369.895105 17.248749 370.103497 17.257298 370.311888 17.268206 370.520280 17.281493 370.728671 17.297178 370.937063 17.315281 371.145455 17.335821 371.353846 17.358818 371.562238 17.384291 371.770629 17.412259 371.979021 17.442742 372.187413 17.475760 372.395804 17.511331 372.604196 17.549476 372.812587 17.590213 373.020979 17.633562 373.229371 17.679542 373.437762 17.728174 373.646154 17.779476 373.854545 17.833467 374.062937 17.890168 374.271329 17.949598 374.479720 18.011775 374.688112 18.076720 374.896503 18.144452 375.104895 18.214990 375.313287 18.288354 375.521678 18.364563 375.730070 18.443637 375.938462 18.525595 376.146853 18.610456 376.355245 18.698233 376.563636 18.788908 376.772028 18.882456 376.980420 18.978852 377.188811 19.078070 377.397203 19.180087 377.605594 19.284877 377.813986 19.392416 378.022378 19.502677 378.230769 19.615637 378.439161 19.731270 378.647552 19.849551 378.855944 19.970456 379.064336 20.093959 379.272727 20.220035 379.481119 20.348660 379.689510 20.479808 379.897902 20.613455 380.106294 20.749576 380.314685 20.888145 380.523077 21.029137 380.731469 21.172529 380.939860 21.318294 381.148252 21.466407 381.356643 21.616845 381.565035 21.769581 381.773427 21.924592 381.981818 22.081851 382.190210 22.241334 382.398601 22.403016 382.606993 22.566872 382.815385 22.732877 383.023776 22.901006 383.232168 23.071234 383.440559 23.243536 383.648951 23.417888 383.857343 23.594264 384.065734 23.772638 384.274126 23.952988 384.482517 24.135286 384.690909 24.319509 384.899301 24.505631 385.107692 24.693628 385.316084 24.883474 385.524476 25.075145 385.732867 25.268615 385.941259 25.463860 386.149650 25.660854 386.358042 25.859573 386.566434 26.059992 386.774825 26.262086 386.983217 26.465829 387.191608 26.671197 387.400000 26.878164 387.608392 27.086707 387.816783 27.296800 388.025175 27.508417 388.233566 27.721535 388.441958 27.936127 388.650350 28.152169 388.858741 28.369637 389.067133 28.588505 389.275524 28.808747 389.483916 29.030340 389.692308 29.253259 389.900699 29.477477 390.109091 29.702971 390.317483 29.929715 390.525874 30.157684 390.734266 30.386854 390.942657 30.617200 391.151049 30.848695 391.359441 31.081317 391.567832 31.315038 391.776224 31.549836 391.984615 31.785684 392.193007 32.022557 392.401399 32.260432 392.609790 32.499282 392.818182 32.739083 393.026573 32.979809 393.234965 33.221437 393.443357 33.463940 393.651748 33.707294 393.860140 33.951474 394.068531 34.196456 394.276923 34.442213 394.485315 34.688721 394.693706 34.935955 394.902098 35.183891 395.110490 35.432502 395.318881 35.681765 395.527273 35.931654 395.735664 36.182144 395.944056 36.433211 396.152448 36.684828 396.360839 36.936973 396.569231 37.189618 396.777622 37.442740 396.986014 37.696314 397.194406 37.950314 397.402797 38.204716 397.611189 38.459494 397.819580 38.714624 398.027972 38.970080 398.236364 39.225839 398.444755 39.481874 398.653147 39.738160 398.861538 39.994674 399.069930 40.251389 399.278322 40.508281 399.486713 40.765326 399.695105 41.022497 399.903497 41.279770 400.111888 41.537120 400.320280 41.794522 400.528671 42.051951 400.737063 42.309383 400.945455 42.566791 401.153846 42.824152 401.362238 43.081440 401.570629 43.338630 401.779021 43.595698 401.987413 43.852618 402.195804 44.109365 402.404196 44.365915 402.612587 44.622242 402.820979 44.878322 403.029371 45.134129 403.237762 45.389639 403.446154 45.644826 403.654545 45.899666 403.862937 46.154134 404.071329 46.408204 404.279720 46.661852 404.488112 46.915053 404.696503 47.167782 404.904895 47.420013 405.113287 47.671723 405.321678 47.922885 405.530070 48.173475 405.738462 48.423469 405.946853 48.672840 406.155245 48.921564 406.363636 49.169617 406.572028 49.416972 406.780420 49.663606 406.988811 49.909493 407.197203 50.154609 407.405594 50.398927 407.613986 50.642424 407.822378 50.885074 408.030769 51.126853 408.239161 51.367735 408.447552 51.607695 408.655944 51.846709 408.864336 52.084752 409.072727 52.321798 409.281119 52.557823 409.489510 52.792801 409.697902 53.026708 409.906294 53.259519 410.114685 53.491208 410.323077 53.721752 410.531469 53.951124 410.739860 54.179300 410.948252 54.406255 411.156643 54.631963 411.365035 54.856401 411.573427 55.079543 411.781818 55.301364 411.990210 55.521839 412.198601 55.740943 412.406993 55.958651 412.615385 56.174938 412.823776 56.389780 413.032168 56.603151 413.240559 56.815026 413.448951 57.025380 413.657343 57.234189 413.865734 57.441427 414.074126 57.647070 414.282517 57.851092 414.490909 58.053468 414.699301 58.254174 414.907692 58.453185 415.116084 58.650475 415.324476 58.846020 415.532867 59.039795 415.741259 59.231775 415.949650 59.421934 416.158042 59.610248 416.366434 59.796691 416.574825 59.981240 416.783217 60.163869 416.991608 60.344552 417.200000 60.523266 417.408392 60.699984 417.616783 60.874683 417.825175 61.047336 418.033566 61.217920 418.241958 61.386409 418.450350 61.552778 418.658741 61.717002 418.867133 61.879057 419.075524 62.038917 419.283916 62.196557 419.492308 62.351953 419.700699 62.505079 419.909091 62.655910 420.117483 62.804422 420.325874 62.950589 420.534266 63.094387 420.742657 63.235791 420.951049 63.374775 421.159441 63.511315 421.367832 63.645386 421.576224 63.776962 421.784615 63.906019 421.993007 64.032532 422.201399 64.156476 422.409790 64.277825 422.618182 64.396556 422.826573 64.512642 423.034965 64.626060 423.243357 64.736783 423.451748 64.844788 423.660140 64.950048 423.868531 65.052540 424.076923 65.152238 424.285315 65.249117 424.493706 65.343152 424.702098 65.434319 424.910490 65.522592 425.118881 65.607946 425.327273 65.690357 425.535664 65.769799 425.744056 65.846247 425.952448 65.919678 426.160839 65.990064 426.369231 66.057382 426.577622 66.121607 426.786014 66.182713 426.994406 66.240676 427.202797 66.295471 427.411189 66.347072 427.619580 66.395456 427.827972 66.440596 428.036364 66.482468 428.244755 66.521046 428.453147 66.556314 428.661538 66.588284 428.869930 66.616973 429.078322 66.642401 429.286713 66.664588 429.495105 66.683552 429.703497 66.699313 429.911888 66.711889 430.120280 66.721300 430.328671 66.727565 430.537063 66.730703 430.745455 66.730733 430.953846 66.727674 431.162238 66.721545 431.370629 66.712366 431.579021 66.700155 431.787413 66.684931 431.995804 66.666714 432.204196 66.645523 432.412587 66.621377 432.620979 66.594295 432.829371 66.564296 433.037762 66.531399 433.246154 66.495623 433.454545 66.456987 433.662937 66.415511 433.871329 66.371214 434.079720 66.324114 434.288112 66.274231 434.496503 66.221584 434.704895 66.166191 434.913287 66.108073 435.121678 66.047248 435.330070 65.983735 435.538462 65.917554 435.746853 65.848723 435.955245 65.777261 436.163636 65.703189 436.372028 65.626524 436.580420 65.547286 436.788811 65.465493 436.997203 65.381166 437.205594 65.294323 437.413986 65.204984 437.622378 65.113166 437.830769 65.018891 438.039161 64.922175 438.247552 64.823040 438.455944 64.721503 438.664336 64.617584 438.872727 64.511302 439.081119 64.402676 439.289510 64.291726 439.497902 64.178469 439.706294 64.062926 439.914685 63.945116 440.123077 63.825057 440.331469 63.702768 440.539860 63.578270 440.748252 63.451580 440.956643 63.322719 441.165035 63.191704 441.373427 63.058556 441.581818 62.923293 441.790210 62.785934 441.998601 62.646499 442.206993 62.505006 442.415385 62.361475 442.623776 62.215925 442.832168 62.068375 443.040559 61.918844 443.248951 61.767351 443.457343 61.613915 443.665734 61.458555 443.874126 61.301291 444.082517 61.142141 444.290909 60.981125 444.499301 60.818262 444.707692 60.653570 444.916084 60.487070 445.124476 60.318779 445.332867 60.148718 445.541259 59.976904 445.749650 59.803358 445.958042 59.628099 446.166434 59.451144 446.374825 59.272515 446.583217 59.092229 446.791608 58.910306 447.000000 58.726765 447.208392 58.541625 447.416783 58.354905 447.625175 58.166625 447.833566 57.976802 448.041958 57.785457 448.250350 57.592609 448.458741 57.398276 448.667133 57.202478 448.875524 57.005234 449.083916 56.806563 449.292308 56.606484 449.500699 56.405015 449.709091 56.202177 449.917483 55.997989 450.125874 55.792469 450.334266 55.585636 450.542657 55.377510 450.751049 55.168110 450.959441 54.957455 451.167832 54.745563 451.376224 54.532455 451.584615 54.318149 451.793007 54.102664 452.001399 53.886019 452.209790 53.668234 452.418182 53.449327 452.626573 53.229318 452.834965 53.008226 453.043357 52.786069 453.251748 52.562868 453.460140 52.338641 453.668531 52.113406 453.876923 51.887184 454.085315 51.659994 454.293706 51.431853 454.502098 51.202783 454.710490 50.972801 454.918881 50.741927 455.127273 50.510179 455.335664 50.277578 455.544056 50.044142 455.752448 49.809889 455.960839 49.574840 456.169231 49.339014 456.377622 49.102429 456.586014 48.865104 456.794406 48.627059 457.002797 48.388313 457.211189 48.148885 457.419580 47.908794 457.627972 47.668059 457.836364 47.426699 458.044755 47.184733 458.253147 46.942181 458.461538 46.699061 458.669930 46.455393 458.878322 46.211195 459.086713 45.966487 459.295105 45.721288 459.503497 45.475618 459.711888 45.229494 459.920280 44.982936 460.128671 44.735964 460.337063 44.488596 460.545455 44.240851 460.753846 43.992749 460.962238 43.744309 461.170629 43.495550 461.379021 43.246490 461.587413 42.997149 461.795804 42.747547 462.004196 42.497702 462.212587 42.247633 462.420979 41.997359 462.629371 41.746900 462.837762 41.496275 463.046154 41.245502 463.254545 40.994601 463.462937 40.743591 463.671329 40.492491 463.879720 40.241320 464.088112 39.990097 464.296503 39.738842 464.504895 39.487573 464.713287 39.236309 464.921678 38.985071 465.130070 38.733875 465.338462 38.482743 465.546853 38.231693 465.755245 37.980743 465.963636 37.729914 466.172028 37.479224 466.380420 37.228692 466.588811 36.978338 466.797203 36.728180 467.005594 36.478238 467.213986 36.228530 467.422378 35.979076 467.630769 35.729896 467.839161 35.481007 468.047552 35.232429 468.255944 34.984182 468.464336 34.736284 468.672727 34.488754 468.881119 34.241612 469.089510 33.994877 469.297902 33.748567 469.506294 33.502702 469.714685 33.257301 469.923077 33.012383 470.131469 32.767968 470.339860 32.524073 470.548252 32.280719 470.756643 32.037924 470.965035 31.795708 471.173427 31.554090 471.381818 31.313088 471.590210 31.072722 471.798601 30.833011 472.006993 30.593974 472.215385 30.355630 472.423776 30.117999 472.632168 29.881098 472.840559 29.644949 473.048951 29.409568 473.257343 29.174977 473.465734 28.941193 473.674126 28.708236 473.882517 28.476125 474.090909 28.244879 474.299301 28.014517 474.507692 27.785059 474.716084 27.556523 474.924476 27.328928 475.132867 27.102294 475.341259 26.876640 475.549650 26.651984 475.758042 26.428346 475.966434 26.205745 476.174825 25.984201 476.383217 25.763731 476.591608 25.544356 476.800000 25.326094 477.008392 25.108964 477.216783 24.892986 477.425175 24.678179 477.633566 24.464562 477.841958 24.252153 478.050350 24.040973 478.258741 23.831039 478.467133 23.622372 478.675524 23.414990 478.883916 23.208912 479.092308 23.004158 479.300699 22.800746 479.509091 22.598696 479.717483 22.398027 479.925874 22.198758 480.134266 22.000908 480.342657 21.804496 480.551049 21.609538 480.759441 21.416042 480.967832 21.224010 481.176224 21.033446 481.384615 20.844355 481.593007 20.656740 481.801399 20.470604 482.009790 20.285952 482.218182 20.102787 482.426573 19.921114 482.634965 19.740934 482.843357 19.562254 483.051748 19.385075 483.260140 19.209403 483.468531 19.035240 483.676923 18.862591 483.885315 18.691458 484.093706 18.521847 484.302098 18.353761 484.510490 18.187203 484.718881 18.022178 484.927273 17.858688 485.135664 17.696738 485.344056 17.536332 485.552448 17.377473 485.760839 17.220165 485.969231 17.064411 486.177622 16.910217 486.386014 16.757584 486.594406 16.606517 486.802797 16.457021 487.011189 16.309097 487.219580 16.162752 487.427972 16.017987 487.636364 15.874806 487.844755 15.733215 488.053147 15.593216 488.261538 15.454812 488.469930 15.318009 488.678322 15.182809 488.886713 15.049216 489.095105 14.917235 489.303497 14.786868 489.511888 14.658120 489.720280 14.530994 489.928671 14.405494 490.137063 14.281624 490.345455 14.159387 490.553846 14.038788 490.762238 13.919830 490.970629 13.802517 491.179021 13.686852 491.387413 13.572840 491.595804 13.460484 491.804196 13.349787 492.012587 13.240754 492.220979 13.133389 492.429371 13.027694 492.637762 12.923675 492.846154 12.821334 493.054545 12.720675 493.262937 12.621703 493.471329 12.524420 493.679720 12.428831 493.888112 12.334939 494.096503 12.242749 494.304895 12.152263 494.513287 12.063486 494.721678 11.976421 494.930070 11.891072 495.138462 11.807444 495.346853 11.725539 495.555245 11.645361 495.763636 11.566914 495.972028 11.490203 496.180420 11.415230 496.388811 11.341999 496.597203 11.270514 496.805594 11.200780 497.013986 11.132799 497.222378 11.066575 497.430769 11.002113 497.639161 10.939415 497.847552 10.878487 498.055944 10.819330 498.264336 10.761950 498.472727 10.706350 498.681119 10.652533 498.889510 10.600504 499.097902 10.550266 499.306294 10.501823 499.514685 10.455178 499.723077 10.410336 499.931469 10.367300 500.139860 10.326074 500.348252 10.286662 500.556643 10.249068 500.765035 10.213294 500.973427 10.179345 501.181818 10.147225 501.390210 10.116938 501.598601 10.088487 501.806993 10.061876 502.015385 10.037108 502.223776 10.014188 502.432168 9.993119 502.640559 9.973905 502.848951 9.956550 503.057343 9.941057 503.265734 9.927431 503.474126 9.915674 503.682517 9.905792 503.890909 9.897786 504.099301 9.891662 504.307692 9.887423 504.516084 9.885073 504.724476 9.884615 504.932867 9.886054 505.141259 9.889392 505.349650 9.894635 505.558042 9.901784 505.766434 9.910845 505.974825 9.921821 506.183217 9.934716 506.391608 9.949533 506.600000 9.966277 506.808392 9.984951 507.016783 10.005558 507.225175 10.028103 507.433566 10.052589 507.641958 10.079020 507.850350 10.107400 508.058741 10.137733 508.267133 10.170022 508.475524 10.204271 508.683916 10.240483 508.892308 10.278664 509.100699 10.318815 509.309091 10.360942 509.517483 10.405047 509.725874 10.451135 509.934266 10.499210 510.142657 10.549274 510.351049 10.601332 510.559441 10.655388 510.767832 10.711445 510.976224 10.769507 511.184615 10.829578 511.393007 10.891662 511.601399 10.955762 511.809790 11.021882 512.018182 11.090025 512.226573 11.160197 512.434965 11.232400 512.643357 11.306637 512.851748 11.382914 513.060140 11.461234 513.268531 11.541599 513.476923 11.624015 513.685315 11.708485 513.893706 11.795012 514.102098 11.883601 514.310490 11.974254 514.518881 12.066977 514.727273 12.161772 514.935664 12.258644 515.144056 12.357596 515.352448 12.458631 515.560839 12.561755 515.769231 12.666969 515.977622 12.774279 516.186014 12.883688 516.394406 12.995199 516.602797 13.108817 516.811189 13.224545 517.019580 13.342387 517.227972 13.462346 517.436364 13.584427 517.644755 13.708633 517.853147 13.834968 518.061538 13.963436 518.269930 14.094040 518.478322 14.226784 518.686713 14.361672 518.895105 14.498708 519.103497 14.637895 519.311888 14.779237 519.520280 14.922739 519.728671 15.068403 519.937063 15.216233 520.145455 15.366234 520.353846 15.518409 520.562238 15.672761 520.770629 15.829295 520.979021 15.988014 521.187413 16.148922 521.395804 16.312022 521.604196 16.477319 521.812587 16.644817 522.020979 16.814518 522.229371 16.986427 522.437762 17.160547 522.646154 17.336883 522.854545 17.515438 523.062937 17.696215 523.271329 17.879219 523.479720 18.064453 523.688112 18.251921 523.896503 18.441627 524.104895 18.633575 524.313287 18.827767 524.521678 19.024209 524.730070 19.222903 524.938462 19.423854 525.146853 19.627065 525.355245 19.832540 525.563636 20.040283 525.772028 20.250298 525.980420 20.462587 526.188811 20.677156 526.397203 20.894008 526.605594 21.113146 526.813986 21.334574 527.022378 21.558296 527.230769 21.784316 527.439161 22.012638 527.647552 22.243265 527.855944 22.476201 528.064336 22.711449 528.272727 22.949015 528.481119 23.188900 528.689510 23.431110 528.897902 23.675647 529.106294 23.922516 529.314685 24.171721 529.523077 24.423264 529.731469 24.677150 529.939860 24.933383 530.148252 25.191966 530.356643 25.452903 530.565035 25.716198 530.773427 25.981855 530.981818 26.249877 531.190210 26.520268 531.398601 26.793031 531.606993 27.068172 531.815385 27.345693 532.023776 27.625597 532.232168 27.907890 532.440559 28.192574 532.648951 28.479652 532.857343 28.769115 533.065734 29.060954 533.274126 29.355160 533.482517 29.651723 533.690909 29.950634 533.899301 30.251882 534.107692 30.555459 534.316084 30.861354 534.524476 31.169558 534.732867 31.480062 534.941259 31.792856 535.149650 32.107930 535.358042 32.425276 535.566434 32.744882 535.774825 33.066740 535.983217 33.390840 536.191608 33.717172 536.400000 34.045727 536.608392 34.376496 536.816783 34.709468 537.025175 35.044635 537.233566 35.381986 537.441958 35.721512 537.650350 36.063203 537.858741 36.407051 538.067133 36.753044 538.275524 37.101174 538.483916 37.451431 538.692308 37.803806 538.900699 38.158289 539.109091 38.514870 539.317483 38.873539 539.525874 39.234288 539.734266 39.597107 539.942657 39.961985 540.151049 40.328914 540.359441 40.697884 540.567832 41.068885 540.776224 41.441907 540.984615 41.816942 541.193007 42.193979 541.401399 42.573009 541.609790 42.954023 541.818182 43.337010 542.026573 43.721962 542.234965 44.108868 542.443357 44.497719 542.651748 44.888505 542.860140 45.281218 543.068531 45.675846 543.276923 46.072382 543.485315 46.470814 543.693706 46.871134 543.902098 47.273332 544.110490 47.677399 544.318881 48.083324 544.527273 48.491098 544.735664 48.900712 544.944056 49.312157 545.152448 49.725421 545.360839 50.140496 545.569231 50.557373 545.777622 50.976042 545.986014 51.396492 546.194406 51.818715 546.402797 52.242702 546.611189 52.668441 546.819580 53.095924 547.027972 53.525142 547.236364 53.956084 547.444755 54.388742 547.653147 54.823104 547.861538 55.259163 548.069930 55.696908 548.278322 56.136330 548.486713 56.577419 548.695105 57.020165 548.903497 57.464560 549.111888 57.910593 549.320280 58.358255 549.528671 58.807536 549.737063 59.258426 549.945455 59.710917 550.153846 60.164999 550.362238 60.620661 550.570629 61.077894 550.779021 61.536690 550.987413 61.997037 551.195804 62.458928 551.404196 62.922351 551.612587 63.387297 551.820979 63.853758 552.029371 64.321723 552.237762 64.791182 552.446154 65.262127 552.654545 65.734547 552.862937 66.208433 553.071329 66.683776 553.279720 67.160565 553.488112 67.638791 553.696503 68.118445 553.904895 68.599518 554.113287 69.081998 554.321678 69.565878 554.530070 70.051147 554.738462 70.537795 554.946853 71.025814 555.155245 71.515193 555.363636 72.005923 555.572028 72.497995 555.780420 72.991398 555.988811 73.486124 556.197203 73.982162 556.405594 74.479504 556.613986 74.978139 556.822378 75.478057 557.030769 75.979250 557.239161 76.481708 557.447552 76.985421 557.655944 77.490380 557.864336 77.996575 558.072727 78.503996 558.281119 79.012633 558.489510 79.522479 558.697902 80.033521 558.906294 80.545752 559.114685 81.059162 559.323077 81.573740 559.531469 82.089478 559.739860 82.606365 559.948252 83.124393 560.156643 83.643551 560.365035 84.163830 560.573427 84.685221 560.781818 85.207714 560.990210 85.731299 561.198601 86.255966 561.406993 86.781707 561.615385 87.308511 561.823776 87.836369 562.032168 88.365272 562.240559 88.895209 562.448951 89.426172 562.657343 89.958150 562.865734 90.491134 563.074126 91.025115 563.282517 91.560082 563.490909 92.096027 563.699301 92.632940 563.907692 93.170810 564.116084 93.709630 564.324476 94.249388 564.532867 94.790076 564.741259 95.331683 564.949650 95.874201 565.158042 96.417619 565.366434 96.961929 565.574825 97.507120 565.783217 98.053183 565.991608 98.600108 566.200000 99.147886 566.408392 99.696507 566.616783 100.245961 566.825175 100.796240 567.033566 101.347333 567.241958 101.899231 567.450350 102.451924 567.658741 103.005403 567.867133 103.559658 568.075524 104.114680 568.283916 104.670458 568.492308 105.226984 568.700699 105.784247 568.909091 106.342239 569.117483 106.900949 569.325874 107.460368 569.534266 108.020487 569.742657 108.581296 569.951049 109.142785 570.159441 109.704944 570.367832 110.267765 570.576224 110.831237 570.784615 111.395352 570.993007 111.960098 571.201399 112.525468 571.409790 113.091450 571.618182 113.658036 571.826573 114.225217 572.034965 114.792981 572.243357 115.361321 572.451748 115.930226 572.660140 116.499687 572.868531 117.069693 573.076923 117.640237 573.285315 118.211307 573.493706 118.782895 573.702098 119.354990 573.910490 119.927584 574.118881 120.500666 574.327273 121.074228 574.535664 121.648259 574.744056 122.222750 574.952448 122.797691 575.160839 123.373073 575.369231 123.948886 575.577622 124.525121 575.786014 125.101767 575.994406 125.678817 576.202797 126.256259 576.411189 126.834084 576.619580 127.412283 576.827972 127.990846 577.036364 128.569763 577.244755 129.149026 577.453147 129.728623 577.661538 130.308547 577.869930 130.888787 578.078322 131.469333 578.286713 132.050176 578.495105 132.631307 578.703497 133.212716 578.911888 133.794393 579.120280 134.376328 579.328671 134.958513 579.537063 135.540937 579.745455 136.123592 579.953846 136.706466 580.162238 137.289552 580.370629 137.872838 580.579021 138.456316 580.787413 139.039977 580.995804 139.623809 581.204196 140.207805 581.412587 140.791954 581.620979 141.376247 581.829371 141.960674 582.037762 142.545225 582.246154 143.129891 582.454545 143.714663 582.662937 144.299530 582.871329 144.884484 583.079720 145.469515 583.288112 146.054612 583.496503 146.639767 583.704895 147.224970 583.913287 147.810211 584.121678 148.395481 584.330070 148.980770 584.538462 149.566069 584.538462 514.000000" /></g></g><g class="titles"><text class="title plot_title" x="400.0" y="26">Sala-Daeng 51</text></g><g class="plot overlay" transform="translate(184, 46)"><g class="series serie-0 color-0"><g class="dots"><circle class="dot reactive tooltip-trigger" cx="11.461538461538462" cy="219.8349344482367" r="2.5" /><desc class="value">650000</desc><desc class="x ">11.461538461538462</desc><desc class="y ">219.8349344482367</desc><desc class="x_label">Jan</desc></g><g class="dots"><circle class="dot reactive tooltip-trigger" cx="63.55944055944057" cy="488.13423855146357" r="2.5" /><desc class="value">566000</desc><desc class="x top">63.55944055944057</desc><desc class="y top">488.13423855146357</desc><desc class="x_label">Feb</desc></g><g class="dots"><circle class="dot reactive tooltip-trigger" cx="115.65734265734265" cy="40.96873171275212" r="2.5" /><desc class="value">706000</desc><desc class="x ">115.65734265734265</desc><desc class="y ">40.96873171275212</desc><desc class="x_label">Mar</desc></g><g class="dots"><circle class="dot reactive tooltip-trigger" cx="167.75524475524475" cy="197.47665910630116" r="2.5" /><desc class="value">657000</desc><desc class="x ">167.75524475524475</desc><desc class="y ">197.47665910630116</desc><desc class="x_label">Apr</desc></g><g class="dots"><circle class="dot reactive tooltip-trigger" cx="219.85314685314685" cy="159.14818709155446" r="2.5" /><desc class="value">669000</desc><desc class="x ">219.85314685314685</desc><desc class="y ">159.14818709155446</desc><desc class="x_label">May</desc></g><g class="dots"><circle class="dot reactive tooltip-trigger" cx="271.9510489510489" cy="40.96873171275212" r="2.5" /><desc class="value">706000</desc><desc class="x ">271.9510489510489</desc><desc class="y ">40.96873171275212</desc><desc class="x_label">Jun</desc></g><g class="dots"><circle class="dot reactive tooltip-trigger" cx="324.04895104895104" cy="37.77469237818991" r="2.5" /><desc class="value">707000</desc><desc class="x left">324.04895104895104</desc><desc class="y left">37.77469237818991</desc><desc class="x_label">Jul</desc></g><g class="dots"><circle class="dot reactive tooltip-trigger" cx="376.1468531468531" cy="18.610456370816564" r="2.5" /><desc class="value">713000</desc><desc class="x left">376.1468531468531</desc><desc class="y left">18.610456370816564</desc><desc class="x_label">Aug</desc></g><g class="dots"><circle class="dot reactive tooltip-trigger" cx="428.24475524475525" cy="66.52104638924993" r="2.5" /><desc class="value">698000</desc><desc class="x left">428.24475524475525</desc><desc class="y left">66.52104638924993</desc><desc class="x_label">Sep</desc></g><g class="dots"><circle class="dot reactive tooltip-trigger" cx="480.3426573426574" cy="21.80449570537877" r="2.5" /><desc class="value">712000</desc><desc class="x left">480.3426573426574</desc><desc class="y left">21.80449570537877</desc><desc class="x_label">Oct</desc></g><g class="dots"><circle class="dot reactive tooltip-trigger" cx="532.4405594405595" cy="28.192574374503238" r="2.5" /><desc class="value">710000</desc><desc class="x left">532.4405594405595</desc><desc class="y left">28.192574374503238</desc><desc class="x_label">Nov</desc></g><g class="dots"><circle class="dot reactive tooltip-trigger" cx="584.5384615384614" cy="149.5660690878678" r="2.5" /><desc class="value">672000</desc><desc class="x left">584.5384615384614</desc><desc class="y left">149.5660690878678</desc><desc class="x_label">Dec</desc></g></g></g><g class="plot text-overlay" transform="translate(184, 46)"><g class="series serie-0 color-0" /></g><g class="plot tooltip-overlay" transform="translate(184, 46)"><g class="tooltip" style="opacity: 0" transform="translate(0 0)"><rect class="tooltip-box" height="0" rx="0" ry="0" width="0" /><g class="text" /></g></g><g class="legends" transform="translate(10, 56)"><g class="legend reactive activate-serie" id="activate-serie-0"><rect class="color-0 reactive" height="12" width="12" x="0.0" y="1.0" /><text x="17.0" y="11.2">Sala-Daeng</text></g></g><g class="legends" transform="translate(790, 56)" /></g></svg>