<?xml version='1.0' encoding='utf-8'?>
<svg xmlns:xlink="http://www.w3.org/1999/xlink" class="pygal-chart" id="chart-2623ab14-5f4b-4c7a-8149-2edc22921699" viewBox="0 0 800 600" xmlns="http://www.w3.org/2000/svg"><!--Generated with pygal 2.0.11 (etree) ©Kozea 2011-2015 on 2015-12-10--><!--http://pygal.org--><!--http://github.com/Kozea/pygal--><defs><style type="text/css">#chart-2623ab14-5f4b-4c7a-8149-2edc22921699{-webkit-user-select:none;-webkit-font-smoothing:antialiased;font-family:Consolas,"Liberation Mono",Menlo,Courier,monospace}#chart-2623ab14-5f4b-4c7a-8149-2edc22921699 .title{font-family:Consolas,"Liberation Mono",Menlo,Courier,monospace;font-size:16px}#chart-2623ab14-5f4b-4c7a-8149-2edc22921699 .legends .legend text{font-family:Consolas,"Liberation Mono",Menlo,Courier,monospace;font-size:14px}#chart-2623ab14-5f4b-4c7a-8149-2edc22921699 .axis text{font-family:Consolas,"Liberation Mono",Menlo,Courier,monospace;font-size:10px}#chart-2623ab14-5f4b-4c7a-8149-2edc22921699 .axis text.major{font-family:Consolas,"Liberation Mono",Menlo,Courier,monospace;font-size:10px}#chart-2623ab14-5f4b-4c7a-8149-2edc22921699 .text-overlay text.value{font-family:Consolas,"Liberation Mono",Menlo,Courier,monospace;font-size:16px}#chart-2623ab14-5f4b-4c7a-8149-2edc22921699 .text-overlay text.label{font-family:Consolas,"Liberation Mono",Menlo,Courier,monospace;font-size:10px}#chart-2623ab14-5f4b-4c7a-8149-2edc22921699 .tooltip{font-family:Consolas,"Liberation Mono",Menlo,Courier,monospace;font-size:14px}#chart-2623ab14-5f4b-4c7a-8149-2edc22921699 text.no_data{font-family:Consolas,"Liberation Mono",Menlo,Courier,monospace;font-size:64px}
#chart-2623ab14-5f4b-4c7a-8149-2edc22921699{background-color:black}#chart-2623ab14-5f4b-4c7a-8149-2edc22921699 path,#chart-2623ab14-5f4b-4c7a-8149-2edc22921699 line,#chart-2623ab14-5f4b-4c7a-8149-2edc22921699 rect,#chart-2623ab14-5f4b-4c7a-8149-2edc22921699 circle{-webkit-transition:250ms;-moz-transition:250ms;transition:250ms}#chart-2623ab14-5f4b-4c7a-8149-2edc22921699 .graph &gt; .background{fill:black}#chart-2623ab14-5f4b-4c7a-8149-2edc22921699 .plot &gt; .background{fill:#111}#chart-2623ab14-5f4b-4c7a-8149-2edc22921699 .graph{fill:#999}#chart-2623ab14-5f4b-4c7a-8149-2edc22921699 text.no_data{fill:#eee}#chart-2623ab14-5f4b-4c7a-8149-2edc22921699 .title{fill:#eee}#chart-2623ab14-5f4b-4c7a-8149-2edc22921699 .legends .legend text{fill:#999}#chart-2623ab14-5f4b-4c7a-8149-2edc22921699 .legends .legend:hover text{fill:#eee}#chart-2623ab14-5f4b-4c7a-8149-2edc22921699 .axis .line{stroke:#eee}#chart-2623ab14-5f4b-4c7a-8149-2edc22921699 .axis .guide.line{stroke:#555}#chart-2623ab14-5f4b-4c7a-8149-2edc22921699 .axis .major.line{stroke:#999}#chart-2623ab14-5f4b-4c7a-8149-2edc22921699 .axis text.major{fill:#eee}#chart-2623ab14-5f4b-4c7a-8149-2edc22921699 .axis.y .guides:hover .guide.line,#chart-2623ab14-5f4b-4c7a-8149-2edc22921699 .line-graph .axis.x .guides:hover .guide.line,#chart-2623ab14-5f4b-4c7a-8149-2edc22921699 .stackedline-graph .axis.x .guides:hover .guide.line,#chart-2623ab14-5f4b-4c7a-8149-2edc22921699 .xy-graph .axis.x .guides:hover .guide.line{stroke:#eee}#chart-2623ab14-5f4b-4c7a-8149-2edc22921699 .axis .guides:hover text{fill:#eee}#chart-2623ab14-5f4b-4c7a-8149-2edc22921699 .reactive{fill-opacity:.8}#chart-2623ab14-5f4b-4c7a-8149-2edc22921699 .reactive.active,#chart-2623ab14-5f4b-4c7a-8149-2edc22921699 .active .reactive{fill-opacity:.4;stroke-width:4}#chart-2623ab14-5f4b-4c7a-8149-2edc22921699 .series text{fill:#eee}#chart-2623ab14-5f4b-4c7a-8149-2edc22921699 .tooltip rect{fill:#111;stroke:#eee;-webkit-transition:opacity 250ms;-moz-transition:opacity 250ms;transition:opacity 250ms}#chart-2623ab14-5f4b-4c7a-8149-2edc22921699 .tooltip .label{fill:#999}#chart-2623ab14-5f4b-4c7a-8149-2edc22921699 .tooltip .label{fill:#999}#chart-2623ab14-5f4b-4c7a-8149-2edc22921699 .tooltip .legend{font-size:.8em;fill:#555}#chart-2623ab14-5f4b-4c7a-8149-2edc22921699 .tooltip .x_label{font-size:.6em;fill:#eee}#chart-2623ab14-5f4b-4c7a-8149-2edc22921699 .tooltip .xlink{font-size:.5em;text-decoration:underline}#chart-2623ab14-5f4b-4c7a-8149-2edc22921699 .tooltip .value{font-size:1.5em}#chart-2623ab14-5f4b-4c7a-8149-2edc22921699 .map-element{fill:#111;stroke:#555 !important}#chart-2623ab14-5f4b-4c7a-8149-2edc22921699 .map-element .reactive{fill-opacity:inherit}#chart-2623ab14-5f4b-4c7a-8149-2edc22921699 .color-0,#chart-2623ab14-5f4b-4c7a-8149-2edc22921699 .color-0 a:visited{stroke:#ff5995;fill:#ff5995}#chart-2623ab14-5f4b-4c7a-8149-2edc22921699 .text-overlay .color-0 text{fill:black}
#chart-2623ab14-5f4b-4c7a-8149-2edc22921699 text.no_data{text-anchor:middle}#chart-2623ab14-5f4b-4c7a-8149-2edc22921699 .guide.line{fill:none}#chart-2623ab14-5f4b-4c7a-8149-2edc22921699 .centered{text-anchor:middle}#chart-2623ab14-5f4b-4c7a-8149-2edc22921699 .title{text-anchor:middle}#chart-2623ab14-5f4b-4c7a-8149-2edc22921699 .legends .legend text{fill-opacity:1}#chart-2623ab14-5f4b-4c7a-8149-2edc22921699 .axis.x text{text-anchor:middle}#chart-2623ab14-5f4b-4c7a-8149-2edc22921699 .axis.x:not(.web) text[transform]{text-anchor:start}#chart-2623ab14-5f4b-4c7a-8149-2edc22921699 .axis.x:not(.web) text[transform].backwards{text-anchor:end}#chart-2623ab14-5f4b-4c7a-8149-2edc22921699 .axis.y text{text-anchor:end}#chart-2623ab14-5f4b-4c7a-8149-2edc22921699 .axis.y text[transform].backwards{text-anchor:start}#chart-2623ab14-5f4b-4c7a-8149-2edc22921699 .axis.y2 text{text-anchor:start}#chart-2623ab14-5f4b-4c7a-8149-2edc22921699 .axis.y2 text[transform].backwards{text-anchor:end}#chart-2623ab14-5f4b-4c7a-8149-2edc22921699 .axis .guide.line{stroke-dasharray:4,4}#chart-2623ab14-5f4b-4c7a-8149-2edc22921699 .axis .major.guide.line{stroke-dasharray:6,6}#chart-2623ab14-5f4b-4c7a-8149-2edc22921699 .horizontal .axis.y .guide.line,#chart-2623ab14-5f4b-4c7a-8149-2edc22921699 .horizontal .axis.y2 .guide.line,#chart-2623ab14-5f4b-4c7a-8149-2edc22921699 .vertical .axis.x .guide.line{opacity:0}#chart-2623ab14-5f4b-4c7a-8149-2edc22921699 .horizontal .axis.always_show .guide.line,#chart-2623ab14-5f4b-4c7a-8149-2edc22921699 .vertical .axis.always_show .guide.line{opacity:1 !important}#chart-2623ab14-5f4b-4c7a-8149-2edc22921699 .axis.y .guides:hover .guide.line,#chart-2623ab14-5f4b-4c7a-8149-2edc22921699 .axis.y2 .guides:hover .guide.line,#chart-2623ab14-5f4b-4c7a-8149-2edc22921699 .axis.x .guides:hover .guide.line{opacity:1}#chart-2623ab14-5f4b-4c7a-8149-2edc22921699 .axis .guides:hover text{opacity:1}#chart-2623ab14-5f4b-4c7a-8149-2edc22921699 .nofill{fill:none}#chart-2623ab14-5f4b-4c7a-8149-2edc22921699 .subtle-fill{fill-opacity:.2}#chart-2623ab14-5f4b-4c7a-8149-2edc22921699 .dot{stroke-width:1px;fill-opacity:1}#chart-2623ab14-5f4b-4c7a-8149-2edc22921699 .dot.active{stroke-width:5px}#chart-2623ab14-5f4b-4c7a-8149-2edc22921699 .dot.negative{fill:transparent}#chart-2623ab14-5f4b-4c7a-8149-2edc22921699 text,#chart-2623ab14-5f4b-4c7a-8149-2edc22921699 tspan{stroke:none !important}#chart-2623ab14-5f4b-4c7a-8149-2edc22921699 .series text.active{opacity:1}#chart-2623ab14-5f4b-4c7a-8149-2edc22921699 .tooltip rect{fill-opacity:.95;stroke-width:.5}#chart-2623ab14-5f4b-4c7a-8149-2edc22921699 .tooltip text{fill-opacity:1}#chart-2623ab14-5f4b-4c7a-8149-2edc22921699 .showable{visibility:hidden}#chart-2623ab14-5f4b-4c7a-8149-2edc22921699 .showable.shown{visibility:visible}</style><script type="text/javascript">window.pygal = window.pygal || {};window.pygal.config = window.pygal.config || {};window.pygal.config['2623ab14-5f4b-4c7a-8149-2edc22921699'] = {"css": ["file://style.css", "file://graph.css"], "legend_at_bottom": false, "stroke_style": null, "missing_value_fill_truncation": "x", "tooltip_border_radius": 0, "inner_radius": 0, "min_scale": 4, "show_x_guides": false, "y_label_rotation": 0, "show_only_major_dots": false, "interpolation_precision": 250, "margin_right": null, "x_label_rotation": 0, "dynamic_print_values": false, "margin_top": null, "x_labels_major_count": null, "js": ["//kozea.github.io/pygal.js/2.0.x/pygal-tooltips.min.js"], "interpolation_parameters": {}, "no_prefix": false, "title": "Ratchathewi 50", "x_labels": ["Jan", "Feb", "Mar", "Apr", "May", "Jun", "Jul", "Aug", "Sep", "Oct", "Nov", "Dec"], "width": 800, "range": null, "show_y_guides": true, "truncate_legend": null, "force_uri_protocol": null, "x_title": null, "interpolate": "cubic", "fill": true, "print_zeroes": true, "margin_left": null, "legend_box_size": 12, "show_minor_y_labels": true, "logarithmic": false, "legend_at_bottom_columns": null, "value_formatter": null, "stroke": true, "margin_bottom": null, "pretty_print": false, "show_minor_x_labels": true, "y_labels_major_count": null, "disable_xml_declaration": false, "y_labels_major_every": null, "truncate_label": null, "stack_from_top": false, "defs": [], "human_readable": false, "include_x_axis": false, "show_legend": true, "tooltip_fancy_mode": true, "y_title": null, "style": {"tooltip_font_size": 14, "major_label_font_family": "Consolas, \"Liberation Mono\", Menlo, Courier, monospace", "value_font_family": "Consolas, \"Liberation Mono\", Menlo, Courier, monospace", "foreground": "#999", "tooltip_font_family": "Consolas, \"Liberation Mono\", Menlo, Courier, monospace", "opacity": ".8", "font_family": "Consolas, \"Liberation Mono\", Menlo, Courier, monospace", "foreground_subtle": "#555", "colors": ["#ff5995", "#b6e354", "#feed6c", "#8cedff", "#9e6ffe", "#899ca1", "#f8f8f2", "#bf4646", "#516083", "#f92672", "#82b414", "#fd971f", "#56c2d6", "#808384", "#8c54fe", "#465457"], "foreground_strong": "#eee", "no_data_font_size": 64, "opacity_hover": ".4", "plot_background": "#111", "value_font_size": 16, "legend_font_family": "Consolas, \"Liberation Mono\", Menlo, Courier, monospace", "value_label_font_size": 10, "major_guide_stroke_dasharray": "6,6", "legend_font_size": 14, "label_font_family": "Consolas, \"Liberation Mono\", Menlo, Courier, monospace", "label_font_size": 10, "transition": "250ms", "title_font_size": 16, "value_label_font_family": "Consolas, \"Liberation Mono\", Menlo, Courier, monospace", "background": "black", "title_font_family": "Consolas, \"Liberation Mono\", Menlo, Courier, monospace", "value_colors": [], "no_data_font_family": "Consolas, \"Liberation Mono\", Menlo, Courier, monospace", "guide_stroke_dasharray": "4,4", "major_label_font_size": 10}, "strict": false, "xrange": null, "rounded_bars": null, "x_labels_major": null, "dots_size": 2.5, "show_dots": true, "order_min": null, "no_data_text": "No data", "y_labels": null, "print_labels": false, "spacing": 10, "y_labels_major": null, "print_values": false, "legends": ["Ratchathewi"], "zero": 0, "height": 600, "margin": 20, "box_mode": "extremes", "show_y_labels": true, "inverse_y_axis": false, "max_scale": 16, "show_x_labels": true, "explicit_size": false, "x_value_formatter": null, "secondary_range": null, "x_labels_major_every": null, "half_pie": false}</script><script type="text/javascript" xlink:href="//kozea.github.io/pygal.js/2.0.x/pygal-tooltips.min.js" /></defs><title>Ratchathewi 50</title><g class="graph line-graph vertical"><rect class="background" height="600" width="800" x="0" y="0" /><g class="plot" transform="translate(192, 46)"><rect class="background" height="514" width="587.6" x="0" y="0" /><g class="axis y"><path class="line" d="M0.000000 514.000000 h587.600000" /><g class="guides"><path class="guide line" d="M0.000000 501.159765 h587.600000" /><text class="" x="-5" y="504.65976483169345">220000.0</text><title>220000.0</title></g><g class="guides"><path class="guide line" d="M0.000000 420.622855 h587.600000" /><text class="" x="-5" y="424.1228550862709">230000.0</text><title>230000.0</title></g><g class="guides"><path class="guide line" d="M0.000000 340.085945 h587.600000" /><text class="" x="-5" y="343.5859453408482">240000.0</text><title>240000.0</title></g><g class="guides"><path class="major guide line" d="M0.000000 259.549036 h587.600000" /><text class="major" x="-5" y="263.0490355954256">250000.0</text><title>250000.0</title></g><g class="guides"><path class="guide line" d="M0.000000 179.012126 h587.600000" /><text class="" x="-5" y="182.51212585000292">260000.0</text><title>260000.0</title></g><g class="guides"><path class="guide line" d="M0.000000 98.475216 h587.600000" /><text class="" x="-5" y="101.97521610458034">270000.0</text><title>270000.0</title></g><g class="guides"><path class="guide line" d="M0.000000 17.938306 h587.600000" /><text class="" x="-5" y="21.438306359157707">280000.0</text><title>280000.0</title></g></g><g class="axis x"><g class="guides"><path class="line" d="M11.300000 0.000000 v514.000000" /><text class="" x="11.3" y="529.0">Jan</text></g><g class="guides"><path class="guide line" d="M62.663636 0.000000 v514.000000" /><text class="" x="62.66363636363637" y="529.0">Feb</text></g><g class="guides"><path class="guide line" d="M114.027273 0.000000 v514.000000" /><text class="" x="114.02727272727273" y="529.0">Mar</text></g><g class="guides"><path class="guide line" d="M165.390909 0.000000 v514.000000" /><text class="" x="165.39090909090908" y="529.0">Apr</text></g><g class="guides"><path class="guide line" d="M216.754545 0.000000 v514.000000" /><text class="" x="216.75454545454548" y="529.0">May</text></g><g class="guides"><path class="guide line" d="M268.118182 0.000000 v514.000000" /><text class="" x="268.1181818181818" y="529.0">Jun</text></g><g class="guides"><path class="guide line" d="M319.481818 0.000000 v514.000000" /><text class="" x="319.4818181818182" y="529.0">Jul</text></g><g class="guides"><path class="guide line" d="M370.845455 0.000000 v514.000000" /><text class="" x="370.8454545454546" y="529.0">Aug</text></g><g class="guides"><path class="guide line" d="M422.209091 0.000000 v514.000000" /><text class="" x="422.20909090909095" y="529.0">Sep</text></g><g class="guides"><path class="guide line" d="M473.572727 0.000000 v514.000000" /><text class="" x="473.5727272727273" y="529.0">Oct</text></g><g class="guides"><path class="guide line" d="M524.936364 0.000000 v514.000000" /><text class="" x="524.9363636363636" y="529.0">Nov</text></g><g class="guides"><path class="guide line" d="M576.300000 0.000000 v514.000000" /><text class="" x="576.3000000000001" y="529.0">Dec</text></g></g><g class="series serie-0 color-0"><path class="line reactive" d="M11.300000 514.000000 L11.300000 9.884615 11.505455 11.112059 11.710909 12.339453 11.916364 13.566747 12.121818 14.793892 12.327273 16.020838 12.532727 17.247534 12.738182 18.473932 12.943636 19.699981 13.149091 20.925632 13.354545 22.150835 13.560000 23.375540 13.765455 24.599697 13.970909 25.823256 14.176364 27.046168 14.381818 28.268383 14.587273 29.489851 14.792727 30.710522 14.998182 31.930347 15.203636 33.149275 15.409091 34.367257 15.614545 35.584243 15.820000 36.800183 16.025455 38.015028 16.230909 39.228728 16.436364 40.441232 16.641818 41.652491 16.847273 42.862456 17.052727 44.071076 17.258182 45.278302 17.463636 46.484083 17.669091 47.688371 17.874545 48.891115 18.080000 50.092265 18.285455 51.291772 18.490909 52.489586 18.696364 53.685657 18.901818 54.879936 19.107273 56.072371 19.312727 57.262915 19.518182 58.451516 19.723636 59.638126 19.929091 60.822693 20.134545 62.005170 20.340000 63.185504 20.545455 64.363648 20.750909 65.539551 20.956364 66.713163 21.161818 67.884435 21.367273 69.053317 21.572727 70.219758 21.778182 71.383709 21.983636 72.545121 22.189091 73.703943 22.394545 74.860126 22.600000 76.013620 22.805455 77.164375 23.010909 78.312342 23.216364 79.457469 23.421818 80.599709 23.627273 81.739011 23.832727 82.875324 24.038182 84.008600 24.243636 85.138789 24.449091 86.265840 24.654545 87.389704 24.860000 88.510331 25.065455 89.627672 25.270909 90.741676 25.476364 91.852294 25.681818 92.959476 25.887273 94.063172 26.092727 95.163333 26.298182 96.259908 26.503636 97.352848 26.709091 98.442102 26.914545 99.527622 27.120000 100.609358 27.325455 101.687258 27.530909 102.761275 27.736364 103.831358 27.941818 104.897456 28.147273 105.959521 28.352727 107.017503 28.558182 108.071352 28.763636 109.121017 28.969091 110.166450 29.174545 111.207600 29.380000 112.244417 29.585455 113.276853 29.790909 114.304856 29.996364 115.328378 30.201818 116.347368 30.407273 117.361777 30.612727 118.371554 30.818182 119.376650 31.023636 120.377016 31.229091 121.372601 31.434545 122.363356 31.640000 123.349230 31.845455 124.330175 32.050909 125.306140 32.256364 126.277075 32.461818 127.242930 32.667273 128.203657 32.872727 129.159205 33.078182 130.109524 33.283636 131.054564 33.489091 131.994276 33.694545 132.928609 33.900000 133.857515 34.105455 134.780943 34.310909 135.698844 34.516364 136.611167 34.721818 137.517863 34.927273 138.418882 35.132727 139.314174 35.338182 140.203690 35.543636 141.087379 35.749091 141.965193 35.954545 142.837080 36.160000 143.702991 36.365455 144.562878 36.570909 145.416688 36.776364 146.264374 36.981818 147.105884 37.187273 147.941170 37.392727 148.770182 37.598182 149.592869 37.803636 150.409182 38.009091 151.219071 38.214545 152.022486 38.420000 152.819378 38.625455 153.609697 38.830909 154.393392 39.036364 155.170414 39.241818 155.940714 39.447273 156.704241 39.652727 157.460946 39.858182 158.210779 40.063636 158.953690 40.269091 159.689630 40.474545 160.418548 40.680000 161.140394 40.885455 161.855119 41.090909 162.562674 41.296364 163.263008 41.501818 163.956071 41.707273 164.641814 41.912727 165.320187 42.118182 165.991141 42.323636 166.654624 42.529091 167.310588 42.734545 167.958983 42.940000 168.599759 43.145455 169.232865 43.350909 169.858254 43.556364 170.475873 43.761818 171.085675 43.967273 171.687608 44.172727 172.281624 44.378182 172.867672 44.583636 173.445702 44.789091 174.015665 44.994545 174.577512 45.200000 175.131191 45.405455 175.676654 45.610909 176.213850 45.816364 176.742730 46.021818 177.263244 46.227273 177.775342 46.432727 178.278975 46.638182 178.774092 46.843636 179.260644 47.049091 179.738581 47.254545 180.207853 47.460000 180.668410 47.665455 181.120203 47.870909 181.563182 48.076364 181.997297 48.281818 182.422498 48.487273 182.838735 48.692727 183.245959 48.898182 183.644120 49.103636 184.033168 49.309091 184.413053 49.514545 184.783725 49.720000 185.145135 49.925455 185.497233 50.130909 185.839969 50.336364 186.173293 50.541818 186.497155 50.747273 186.811507 50.952727 187.116296 51.158182 187.411475 51.363636 187.696994 51.569091 187.972801 51.774545 188.238848 51.980000 188.495085 52.185455 188.741462 52.390909 188.977930 52.596364 189.204438 52.801818 189.420936 53.007273 189.627375 53.212727 189.823706 53.418182 190.009877 53.623636 190.185840 53.829091 190.351545 54.034545 190.506941 54.240000 190.651980 54.445455 190.786611 54.650909 190.910784 54.856364 191.024450 55.061818 191.127559 55.267273 191.220061 55.472727 191.301906 55.678182 191.373044 55.883636 191.433427 56.089091 191.483003 56.294545 191.521723 56.500000 191.549538 56.705455 191.566397 56.910909 191.572250 57.116364 191.567049 57.321818 191.550742 57.527273 191.523281 57.732727 191.484616 57.938182 191.434696 58.143636 191.373472 58.349091 191.300894 58.554545 191.216913 58.760000 191.121478 58.965455 191.014539 59.170909 190.896048 59.376364 190.765954 59.581818 190.624207 59.787273 190.470757 59.992727 190.305555 60.198182 190.128552 60.403636 189.939696 60.609091 189.738938 60.814545 189.526230 61.020000 189.301519 61.225455 189.064758 61.430909 188.815896 61.636364 188.554883 61.841818 188.281670 62.047273 187.996207 62.252727 187.698443 62.458182 187.388330 62.663636 187.065817 62.869091 186.730885 63.074545 186.383638 63.280000 186.024211 63.485455 185.652739 63.690909 185.269355 63.896364 184.874194 64.101818 184.467392 64.307273 184.049081 64.512727 183.619398 64.718182 183.178477 64.923636 182.726451 65.129091 182.263457 65.334545 181.789628 65.540000 181.305098 65.745455 180.810003 65.950909 180.304477 66.156364 179.788654 66.361818 179.262670 66.567273 178.726658 66.772727 178.180754 66.978182 177.625091 67.183636 177.059805 67.389091 176.485029 67.594545 175.900899 67.800000 175.307549 68.005455 174.705114 68.210909 174.093728 68.416364 173.473525 68.621818 172.844641 68.827273 172.207210 69.032727 171.561366 69.238182 170.907244 69.443636 170.244979 69.649091 169.574705 69.854545 168.896556 70.060000 168.210668 70.265455 167.517174 70.470909 166.816210 70.676364 166.107910 70.881818 165.392408 71.087273 164.669839 71.292727 163.940338 71.498182 163.204039 71.703636 162.461076 71.909091 161.711585 72.114545 160.955700 72.320000 160.193555 72.525455 159.425286 72.730909 158.651025 72.936364 157.870909 73.141818 157.085072 73.347273 156.293647 73.552727 155.496771 73.758182 154.694577 73.963636 153.887199 74.169091 153.074773 74.374545 152.257434 74.580000 151.435315 74.785455 150.608551 74.990909 149.777276 75.196364 148.941626 75.401818 148.101735 75.607273 147.257737 75.812727 146.409767 76.018182 145.557960 76.223636 144.702450 76.429091 143.843371 76.634545 142.980859 76.840000 142.115048 77.045455 141.246071 77.250909 140.374065 77.456364 139.499163 77.661818 138.621500 77.867273 137.741211 78.072727 136.858430 78.278182 135.973292 78.483636 135.085931 78.689091 134.196481 78.894545 133.305078 79.100000 132.411857 79.305455 131.516950 79.510909 130.620494 79.716364 129.722622 79.921818 128.823470 80.127273 127.923171 80.332727 127.021861 80.538182 126.119673 80.743636 125.216743 80.949091 124.313205 81.154545 123.409194 81.360000 122.504844 81.565455 121.600289 81.770909 120.695665 81.976364 119.791106 82.181818 118.886746 82.387273 117.982720 82.592727 117.079162 82.798182 116.176208 83.003636 115.273991 83.209091 114.372646 83.414545 113.472308 83.620000 112.573112 83.825455 111.675191 84.030909 110.778681 84.236364 109.883716 84.441818 108.990430 84.647273 108.098959 84.852727 107.209436 85.058182 106.321997 85.263636 105.436775 85.469091 104.553906 85.674545 103.673523 85.880000 102.795763 86.085455 101.920758 86.290909 101.048644 86.496364 100.179555 86.701818 99.313626 86.907273 98.450991 87.112727 97.591785 87.318182 96.736143 87.523636 95.884198 87.729091 95.036086 87.934545 94.191942 88.140000 93.351899 88.345455 92.516092 88.550909 91.684656 88.756364 90.857725 88.961818 90.035435 89.167273 89.217918 89.372727 88.405311 89.578182 87.597748 89.783636 86.795363 89.989091 85.998290 90.194545 85.206665 90.400000 84.420622 90.605455 83.640295 90.810909 82.865819 91.016364 82.097329 91.221818 81.334959 91.427273 80.578843 91.632727 79.829117 91.838182 79.085915 92.043636 78.349371 92.249091 77.619620 92.454545 76.896796 92.660000 76.181035 92.865455 75.472470 93.070909 74.771236 93.276364 74.077468 93.481818 73.391301 93.687273 72.712868 93.892727 72.042305 94.098182 71.379745 94.303636 70.725325 94.509091 70.079177 94.714545 69.441437 94.920000 68.812240 95.125455 68.191719 95.330909 67.580009 95.536364 66.977246 95.741818 66.383563 95.947273 65.799095 96.152727 65.223976 96.358182 64.658342 96.563636 64.102327 96.769091 63.556065 96.974545 63.019690 97.180000 62.493339 97.385455 61.977144 97.590909 61.471240 97.796364 60.975763 98.001818 60.490847 98.207273 60.016626 98.412727 59.553234 98.618182 59.100807 98.823636 58.659479 99.029091 58.229384 99.234545 57.810658 99.440000 57.403434 99.645455 57.007847 99.850909 56.624032 100.056364 56.252123 100.261818 55.892256 100.467273 55.544563 100.672727 55.209181 100.878182 54.886243 101.083636 54.575884 101.289091 54.278239 101.494545 53.993442 101.700000 53.721628 101.905455 53.462931 102.110909 53.217487 102.316364 52.985428 102.521818 52.766891 102.727273 52.562009 102.932727 52.370918 103.138182 52.193751 103.343636 52.030644 103.549091 51.881730 103.754545 51.747145 103.960000 51.627023 104.165455 51.521498 104.370909 51.430706 104.576364 51.354780 104.781818 51.293856 104.987273 51.248067 105.192727 51.217548 105.398182 51.202435 105.603636 51.202861 105.809091 51.218961 106.014545 51.250869 106.220000 51.298721 106.425455 51.362651 106.630909 51.442793 106.836364 51.539281 107.041818 51.652251 107.247273 51.781837 107.452727 51.928174 107.658182 52.091396 107.863636 52.271637 108.069091 52.469033 108.274545 52.683717 108.480000 52.915825 108.685455 53.165491 108.890909 53.432849 109.096364 53.718034 109.301818 54.021181 109.507273 54.342424 109.712727 54.681897 109.918182 55.039736 110.123636 55.416075 110.329091 55.811049 110.534545 56.224791 110.740000 56.657436 110.945455 57.109120 111.150909 57.579977 111.356364 58.070141 111.561818 58.579746 111.767273 59.108928 111.972727 59.657821 112.178182 60.226559 112.383636 60.815277 112.589091 61.424110 112.794545 62.053192 113.000000 62.702658 113.205455 63.372642 113.410909 64.063279 113.616364 64.774703 113.821818 65.507049 114.027273 66.260452 114.232727 67.034996 114.438182 67.830564 114.643636 68.646989 114.849091 69.484105 115.054545 70.341745 115.260000 71.219742 115.465455 72.117929 115.670909 73.036139 115.876364 73.974206 116.081818 74.931963 116.287273 75.909243 116.492727 76.905878 116.698182 77.921703 116.903636 78.956550 117.109091 80.010254 117.314545 81.082645 117.520000 82.173559 117.725455 83.282828 117.930909 84.410285 118.136364 85.555764 118.341818 86.719098 118.547273 87.900120 118.752727 89.098662 118.958182 90.314559 119.163636 91.547643 119.369091 92.797748 119.574545 94.064707 119.780000 95.348353 119.985455 96.648519 120.190909 97.965038 120.396364 99.297744 120.601818 100.646469 120.807273 102.011047 121.012727 103.391312 121.218182 104.787096 121.423636 106.198232 121.629091 107.624554 121.834545 109.065894 122.040000 110.522087 122.245455 111.992964 122.450909 113.478361 122.656364 114.978108 122.861818 116.492040 123.067273 118.019991 123.272727 119.561792 123.478182 121.117277 123.683636 122.686280 123.889091 124.268634 124.094545 125.864171 124.300000 127.472726 124.505455 129.094130 124.710909 130.728218 124.916364 132.374822 125.121818 134.033776 125.327273 135.704913 125.532727 137.388066 125.738182 139.083069 125.943636 140.789753 126.149091 142.507954 126.354545 144.237503 126.560000 145.978234 126.765455 147.729980 126.970909 149.492575 127.176364 151.265851 127.381818 153.049641 127.587273 154.843780 127.792727 156.648100 127.998182 158.462434 128.203636 160.286615 128.409091 162.120477 128.614545 163.963853 128.820000 165.816575 129.025455 167.678478 129.230909 169.549394 129.436364 171.429157 129.641818 173.317599 129.847273 175.214555 130.052727 177.119856 130.258182 179.033336 130.463636 180.954829 130.669091 182.884168 130.874545 184.821185 131.080000 186.765715 131.285455 188.717589 131.490909 190.676642 131.696364 192.642706 131.901818 194.615615 132.107273 196.595202 132.312727 198.581300 132.518182 200.573742 132.723636 202.572361 132.929091 204.576991 133.134545 206.587465 133.340000 208.603616 133.545455 210.625277 133.750909 212.652281 133.956364 214.684462 134.161818 216.721652 134.367273 218.763686 134.572727 220.810395 134.778182 222.861613 134.983636 224.917174 135.189091 226.976911 135.394545 229.040656 135.600000 231.108243 135.805455 233.179506 136.010909 235.254277 136.216364 237.332389 136.421818 239.413676 136.627273 241.497970 136.832727 243.585106 137.038182 245.674916 137.243636 247.767233 137.449091 249.861891 137.654545 251.958723 137.860000 254.057562 138.065455 256.158240 138.270909 258.260593 138.476364 260.364451 138.681818 262.469649 138.887273 264.576020 139.092727 266.683398 139.298182 268.791614 139.503636 270.900503 139.709091 273.009897 139.914545 275.119630 140.120000 277.229535 140.325455 279.339445 140.530909 281.449193 140.736364 283.558613 140.941818 285.667538 141.147273 287.775800 141.352727 289.883233 141.558182 291.989671 141.763636 294.094946 141.969091 296.198892 142.174545 298.301341 142.380000 300.402127 142.585455 302.501083 142.790909 304.598043 142.996364 306.692839 143.201818 308.785305 143.407273 310.875274 143.612727 312.962578 143.818182 315.047052 144.023636 317.128528 144.229091 319.206840 144.434545 321.281820 144.640000 323.353303 144.845455 325.421120 145.050909 327.485106 145.256364 329.545093 145.461818 331.600915 145.667273 333.652405 145.872727 335.699396 146.078182 337.741721 146.283636 339.779213 146.489091 341.811706 146.694545 343.839033 146.900000 345.861026 147.105455 347.877520 147.310909 349.888347 147.516364 351.893340 147.721818 353.892333 147.927273 355.885159 148.132727 357.871651 148.338182 359.851642 148.543636 361.824966 148.749091 363.791455 148.954545 365.750942 149.160000 367.703262 149.365455 369.648247 149.570909 371.585730 149.776364 373.515544 149.981818 375.437523 150.187273 377.351500 150.392727 379.257308 150.598182 381.154780 150.803636 383.043750 151.009091 384.924050 151.214545 386.795513 151.420000 388.657974 151.625455 390.511265 151.830909 392.355219 152.036364 394.189669 152.241818 396.014449 152.447273 397.829392 152.652727 399.634331 152.858182 401.429099 153.063636 403.213529 153.269091 404.987455 153.474545 406.750710 153.680000 408.503126 153.885455 410.244538 154.090909 411.974778 154.296364 413.693679 154.501818 415.401075 154.707273 417.096799 154.912727 418.780684 155.118182 420.452563 155.323636 422.112269 155.529091 423.759636 155.734545 425.394497 155.940000 427.016684 156.145455 428.626031 156.350909 430.222372 156.556364 431.805539 156.761818 433.375366 156.967273 434.931686 157.172727 436.474332 157.378182 438.003136 157.583636 439.517933 157.789091 441.018556 157.994545 442.504837 158.200000 443.976611 158.405455 445.433709 158.610909 446.875966 158.816364 448.303214 159.021818 449.715286 159.227273 451.112017 159.432727 452.493238 159.638182 453.858783 159.843636 455.208486 160.049091 456.542180 160.254545 457.859697 160.460000 459.160871 160.665455 460.445535 160.870909 461.713522 161.076364 462.964666 161.281818 464.198799 161.487273 465.415755 161.692727 466.615368 161.898182 467.797469 162.103636 468.961892 162.309091 470.108471 162.514545 471.237039 162.720000 472.347429 162.925455 473.439474 163.130909 474.513007 163.336364 475.567861 163.541818 476.603870 163.747273 477.620867 163.952727 478.618684 164.158182 479.597156 164.363636 480.556116 164.569091 481.495395 164.774545 482.414829 164.980000 483.314249 165.185455 484.193489 165.390909 485.052383 165.596364 485.890808 165.801818 486.708826 166.007273 487.506542 166.212727 488.284062 166.418182 489.041493 166.623636 489.778939 166.829091 490.496508 167.034545 491.194304 167.240000 491.872435 167.445455 492.531005 167.650909 493.170121 167.856364 493.789888 168.061818 494.390413 168.267273 494.971802 168.472727 495.534160 168.678182 496.077593 168.883636 496.602208 169.089091 497.108110 169.294545 497.595405 169.500000 498.064200 169.705455 498.514599 169.910909 498.946709 170.116364 499.360636 170.321818 499.756487 170.527273 500.134365 170.732727 500.494379 170.938182 500.836633 171.143636 501.161234 171.349091 501.468287 171.554545 501.757899 171.760000 502.030175 171.965455 502.285221 172.170909 502.523144 172.376364 502.744048 172.581818 502.948041 172.787273 503.135228 172.992727 503.305715 173.198182 503.459608 173.403636 503.597012 173.609091 503.718034 173.814545 503.822780 174.020000 503.911356 174.225455 503.983867 174.430909 504.040419 174.636364 504.081119 174.841818 504.106072 175.047273 504.115385 175.252727 504.109162 175.458182 504.087511 175.663636 504.050537 175.869091 503.998346 176.074545 503.931044 176.280000 503.848736 176.485455 503.751530 176.690909 503.639530 176.896364 503.512843 177.101818 503.371574 177.307273 503.215830 177.512727 503.045716 177.718182 502.861339 177.923636 502.662804 178.129091 502.450217 178.334545 502.223684 178.540000 501.983312 178.745455 501.729205 178.950909 501.461471 179.156364 501.180214 179.361818 500.885541 179.567273 500.577558 179.772727 500.256371 179.978182 499.922085 180.183636 499.574807 180.389091 499.214642 180.594545 498.841697 180.800000 498.456077 181.005455 498.057888 181.210909 497.647237 181.416364 497.224229 181.621818 496.788969 181.827273 496.341565 182.032727 495.882122 182.238182 495.410745 182.443636 494.927542 182.649091 494.432617 182.854545 493.926076 183.060000 493.408027 183.265455 492.878574 183.470909 492.337823 183.676364 491.785881 183.881818 491.222853 184.087273 490.648845 184.292727 490.063963 184.498182 489.468314 184.703636 488.862003 184.909091 488.245135 185.114545 487.617818 185.320000 486.980156 185.525455 486.332256 185.730909 485.674224 185.936364 485.006165 186.141818 484.328186 186.347273 483.640393 186.552727 482.942891 186.758182 482.235786 186.963636 481.519184 187.169091 480.793192 187.374545 480.057915 187.580000 479.313459 187.785455 478.559930 187.990909 477.797434 188.196364 477.026077 188.401818 476.245965 188.607273 475.457203 188.812727 474.659898 189.018182 473.854156 189.223636 473.040082 189.429091 472.217783 189.634545 471.387364 189.840000 470.548931 190.045455 469.702591 190.250909 468.848449 190.456364 467.986611 190.661818 467.117183 190.867273 466.240271 191.072727 465.355981 191.278182 464.464419 191.483636 463.565690 191.689091 462.659902 191.894545 461.747159 192.100000 460.827567 192.305455 459.901233 192.510909 458.968263 192.716364 458.028761 192.921818 457.082836 193.127273 456.130591 193.332727 455.172134 193.538182 454.207569 193.743636 453.237004 193.949091 452.260544 194.154545 451.278294 194.360000 450.290361 194.565455 449.296852 194.770909 448.297870 194.976364 447.293524 195.181818 446.283918 195.387273 445.269158 195.592727 444.249351 195.798182 443.224602 196.003636 442.195018 196.209091 441.160704 196.414545 440.121765 196.620000 439.078309 196.825455 438.030441 197.030909 436.978267 197.236364 435.921893 197.441818 434.861424 197.647273 433.796967 197.852727 432.728628 198.058182 431.656513 198.263636 430.580727 198.469091 429.501376 198.674545 428.418567 198.880000 427.332405 199.085455 426.242997 199.290909 425.150447 199.496364 424.054863 199.701818 422.956350 199.907273 421.855013 200.112727 420.750960 200.318182 419.644295 200.523636 418.535126 200.729091 417.423556 200.934545 416.309694 201.140000 415.193644 201.345455 414.075513 201.550909 412.955406 201.756364 411.833429 201.961818 410.709689 202.167273 409.584291 202.372727 408.457341 202.578182 407.328945 202.783636 406.199209 202.989091 405.068239 203.194545 403.936141 203.400000 402.803021 203.605455 401.668984 203.810909 400.534138 204.016364 399.398586 204.221818 398.262437 204.427273 397.125794 204.632727 395.988766 204.838182 394.851456 205.043636 393.713972 205.249091 392.576419 205.454545 391.438903 205.660000 390.301530 205.865455 389.164406 206.070909 388.027637 206.276364 386.891329 206.481818 385.755588 206.687273 384.620519 206.892727 383.486229 207.098182 382.352824 207.303636 381.220409 207.509091 380.089091 207.714545 378.958975 207.920000 377.830167 208.125455 376.702773 208.330909 375.576900 208.536364 374.452653 208.741818 373.330137 208.947273 372.209460 209.152727 371.090727 209.358182 369.974043 209.563636 368.859515 209.769091 367.747249 209.974545 366.637351 210.180000 365.529926 210.385455 364.425080 210.590909 363.322920 210.796364 362.223552 211.001818 361.127080 211.207273 360.033612 211.412727 358.943253 211.618182 357.856109 211.823636 356.772286 212.029091 355.691889 212.234545 354.615026 212.440000 353.541802 212.645455 352.472322 212.850909 351.406693 213.056364 350.345020 213.261818 349.287411 213.467273 348.233969 213.672727 347.184802 213.878182 346.140015 214.083636 345.099714 214.289091 344.064006 214.494545 343.032996 214.700000 342.006790 214.905455 340.985493 215.110909 339.969213 215.316364 338.958054 215.521818 337.952124 215.727273 336.951527 215.932727 335.956369 216.138182 334.966757 216.343636 333.982797 216.549091 333.004594 216.754545 332.032254 216.960000 331.065863 217.165455 330.105419 217.370909 329.150900 217.576364 328.202285 217.781818 327.259552 217.987273 326.322679 218.192727 325.391643 218.398182 324.466425 218.603636 323.547000 218.809091 322.633348 219.014545 321.725446 219.220000 320.823274 219.425455 319.926808 219.630909 319.036027 219.836364 318.150909 220.041818 317.271433 220.247273 316.397575 220.452727 315.529316 220.658182 314.666632 220.863636 313.809502 221.069091 312.957904 221.274545 312.111815 221.480000 311.271215 221.685455 310.436082 221.890909 309.606393 222.096364 308.782126 222.301818 307.963260 222.507273 307.149773 222.712727 306.341643 222.918182 305.538848 223.123636 304.741366 223.329091 303.949176 223.534545 303.162255 223.740000 302.380582 223.945455 301.604134 224.150909 300.832890 224.356364 300.066829 224.561818 299.305927 224.767273 298.550164 224.972727 297.799518 225.178182 297.053966 225.383636 296.313486 225.589091 295.578057 225.794545 294.847658 226.000000 294.122265 226.205455 293.401858 226.410909 292.686414 226.616364 291.975911 226.821818 291.270328 227.027273 290.569643 227.232727 289.873834 227.438182 289.182878 227.643636 288.496755 227.849091 287.815442 228.054545 287.138917 228.260000 286.467159 228.465455 285.800146 228.670909 285.137855 228.876364 284.480266 229.081818 283.827355 229.287273 283.179102 229.492727 282.535484 229.698182 281.896479 229.903636 281.262066 230.109091 280.632223 230.314545 280.006927 230.520000 279.386158 230.725455 278.769892 230.930909 278.158109 231.136364 277.550786 231.341818 276.947902 231.547273 276.349434 231.752727 275.755362 231.958182 275.165662 232.163636 274.580313 232.369091 273.999293 232.574545 273.422580 232.780000 272.850153 232.985455 272.281990 233.190909 271.718068 233.396364 271.158366 233.601818 270.602862 233.807273 270.051534 234.012727 269.504360 234.218182 268.961319 234.423636 268.422388 234.629091 267.887546 234.834545 267.356770 235.040000 266.830040 235.245455 266.307332 235.450909 265.788625 235.656364 265.273898 235.861818 264.763128 236.067273 264.256294 236.272727 263.753373 236.478182 263.254344 236.683636 262.759186 236.889091 262.267875 237.094545 261.780390 237.300000 261.296710 237.505455 260.816812 237.710909 260.340674 237.916364 259.868276 238.121818 259.399594 238.327273 258.934607 238.532727 258.473294 238.738182 258.015631 238.943636 257.561598 239.149091 257.111173 239.354545 256.664333 239.560000 256.221057 239.765455 255.781323 239.970909 255.345108 240.176364 254.912392 240.381818 254.483153 240.587273 254.057367 240.792727 253.635015 240.998182 253.216073 241.203636 252.800519 241.409091 252.388333 241.614545 251.979492 241.820000 251.573974 242.025455 251.171758 242.230909 250.772821 242.436364 250.377141 242.641818 249.984697 242.847273 249.595468 243.052727 249.209430 243.258182 248.826562 243.463636 248.446843 243.669091 248.070250 243.874545 247.696761 244.080000 247.326355 244.285455 246.959010 244.490909 246.594704 244.696364 246.233415 244.901818 245.875121 245.107273 245.519801 245.312727 245.167432 245.518182 244.817993 245.723636 244.471461 245.929091 244.127815 246.134545 243.787033 246.340000 243.449093 246.545455 243.113974 246.750909 242.781653 246.956364 242.452108 247.161818 242.125318 247.367273 241.801261 247.572727 241.479915 247.778182 241.161257 247.983636 240.845267 248.189091 240.531923 248.394545 240.221201 248.600000 239.913082 248.805455 239.607541 249.010909 239.304559 249.216364 239.004113 249.421818 238.706181 249.627273 238.410741 249.832727 238.117771 250.038182 237.827250 250.243636 237.539156 250.449091 237.253466 250.654545 236.970159 250.860000 236.689213 251.065455 236.410606 251.270909 236.134317 251.476364 235.860323 251.681818 235.588603 251.887273 235.319134 252.092727 235.051895 252.298182 234.786864 252.503636 234.524019 252.709091 234.263338 252.914545 234.004799 253.120000 233.748381 253.325455 233.494062 253.530909 233.241819 253.736364 232.991632 253.941818 232.743477 254.147273 232.497333 254.352727 232.253179 254.558182 232.010992 254.763636 231.770750 254.969091 231.532432 255.174545 231.296016 255.380000 231.061480 255.585455 230.828802 255.790909 230.597960 255.996364 230.368932 256.201818 230.141697 256.407273 229.916232 256.612727 229.692516 256.818182 229.470527 257.023636 229.250243 257.229091 229.031642 257.434545 228.814702 257.640000 228.599401 257.845455 228.385718 258.050909 228.173631 258.256364 227.963117 258.461818 227.754156 258.667273 227.546724 258.872727 227.340800 259.078182 227.136363 259.283636 226.933390 259.489091 226.731860 259.694545 226.531750 259.900000 226.333039 260.105455 226.135705 260.310909 225.939727 260.516364 225.745081 260.721818 225.551747 260.927273 225.359702 261.132727 225.168925 261.338182 224.979393 261.543636 224.791086 261.749091 224.603980 261.954545 224.418054 262.160000 224.233287 262.365455 224.049656 262.570909 223.867140 262.776364 223.685716 262.981818 223.505363 263.187273 223.326059 263.392727 223.147782 263.598182 222.970511 263.803636 222.794222 264.009091 222.618895 264.214545 222.444508 264.420000 222.271038 264.625455 222.098464 264.830909 221.926764 265.036364 221.755916 265.241818 221.585899 265.447273 221.416690 265.652727 221.248267 265.858182 221.080609 266.063636 220.913693 266.269091 220.747499 266.474545 220.582004 266.680000 220.417185 266.885455 220.253022 267.090909 220.089493 267.296364 219.926575 267.501818 219.764246 267.707273 219.602486 267.912727 219.441271 268.118182 219.280581 268.323636 219.120395 268.529091 218.960705 268.734545 218.801506 268.940000 218.642790 269.145455 218.484553 269.350909 218.326787 269.556364 218.169486 269.761818 218.012646 269.967273 217.856259 270.172727 217.700319 270.378182 217.544820 270.583636 217.389757 270.789091 217.235123 270.994545 217.080912 271.200000 216.927118 271.405455 216.773735 271.610909 216.620757 271.816364 216.468177 272.021818 216.315990 272.227273 216.164190 272.432727 216.012770 272.638182 215.861724 272.843636 215.711047 273.049091 215.560732 273.254545 215.410773 273.460000 215.261164 273.665455 215.111899 273.870909 214.962972 274.076364 214.814376 274.281818 214.666106 274.487273 214.518156 274.692727 214.370519 274.898182 214.223190 275.103636 214.076162 275.309091 213.929429 275.514545 213.782985 275.720000 213.636825 275.925455 213.490941 276.130909 213.345328 276.336364 213.199980 276.541818 213.054891 276.747273 212.910054 276.952727 212.765464 277.158182 212.621114 277.363636 212.476999 277.569091 212.333112 277.774545 212.189447 277.980000 212.045998 278.185455 211.902759 278.390909 211.759724 278.596364 211.616887 278.801818 211.474241 279.007273 211.331782 279.212727 211.189501 279.418182 211.047395 279.623636 210.905455 279.829091 210.763677 280.034545 210.622054 280.240000 210.480580 280.445455 210.339250 280.650909 210.198056 280.856364 210.056993 281.061818 209.916055 281.267273 209.775235 281.472727 209.634528 281.678182 209.493928 281.883636 209.353428 282.089091 209.213022 282.294545 209.072705 282.500000 208.932470 282.705455 208.792311 282.910909 208.652221 283.116364 208.512196 283.321818 208.372229 283.527273 208.232313 283.732727 208.092443 283.938182 207.952612 284.143636 207.812815 284.349091 207.673045 284.554545 207.533296 284.760000 207.393563 284.965455 207.253839 285.170909 207.114117 285.376364 206.974393 285.581818 206.834660 285.787273 206.694911 285.992727 206.555141 286.198182 206.415343 286.403636 206.275512 286.609091 206.135642 286.814545 205.995725 287.020000 205.855757 287.225455 205.715731 287.430909 205.575641 287.636364 205.435482 287.841818 205.295245 288.047273 205.154927 288.252727 205.014521 288.458182 204.874020 288.663636 204.733418 288.869091 204.592710 289.074545 204.451889 289.280000 204.310950 289.485455 204.169886 289.690909 204.028691 289.896364 203.887358 290.101818 203.745883 290.307273 203.604259 290.512727 203.462479 290.718182 203.320538 290.923636 203.178429 291.129091 203.036147 291.334545 202.893686 291.540000 202.751038 291.745455 202.608199 291.950909 202.465162 292.156364 202.321921 292.361818 202.178470 292.567273 202.034803 292.772727 201.890913 292.978182 201.746795 293.183636 201.602443 293.389091 201.457851 293.594545 201.313011 293.800000 201.167919 294.005455 201.022569 294.210909 200.876953 294.416364 200.731067 294.621818 200.584903 294.827273 200.438456 295.032727 200.291721 295.238182 200.144689 295.443636 199.997357 295.649091 199.849717 295.854545 199.701763 296.060000 199.553490 296.265455 199.404891 296.470909 199.255961 296.676364 199.106692 296.881818 198.957080 297.087273 198.807117 297.292727 198.656798 297.498182 198.506117 297.703636 198.355068 297.909091 198.203644 298.114545 198.051839 298.320000 197.899649 298.525455 197.747065 298.730909 197.594082 298.936364 197.440695 299.141818 197.286897 299.347273 197.132682 299.552727 196.978043 299.758182 196.822976 299.963636 196.667473 300.169091 196.511528 300.374545 196.355137 300.580000 196.198291 300.785455 196.040986 300.990909 195.883215 301.196364 195.724973 301.401818 195.566252 301.607273 195.407048 301.812727 195.247353 302.018182 195.087162 302.223636 194.926469 302.429091 194.765268 302.634545 194.603552 302.840000 194.441315 303.045455 194.278552 303.250909 194.115257 303.456364 193.951422 303.661818 193.787043 303.867273 193.622112 304.072727 193.456625 304.278182 193.290574 304.483636 193.123954 304.689091 192.956759 304.894545 192.788983 305.100000 192.620618 305.305455 192.451661 305.510909 192.282103 305.716364 192.111940 305.921818 191.941165 306.127273 191.769773 306.332727 191.597756 306.538182 191.425109 306.743636 191.251825 306.949091 191.077900 307.154545 190.903326 307.360000 190.728098 307.565455 190.552209 307.770909 190.375653 307.976364 190.198425 308.181818 190.020518 308.387273 189.841926 308.592727 189.662643 308.798182 189.482663 309.003636 189.301980 309.209091 189.120587 309.414545 188.938479 309.620000 188.755650 309.825455 188.572093 310.030909 188.387803 310.236364 188.202773 310.441818 188.016997 310.647273 187.830469 310.852727 187.643184 311.058182 187.455134 311.263636 187.266314 311.469091 187.076718 311.674545 186.886340 311.880000 186.695173 312.085455 186.503212 312.290909 186.310450 312.496364 186.116881 312.701818 185.922500 312.907273 185.727300 313.112727 185.531275 313.318182 185.334419 313.523636 185.136726 313.729091 184.938190 313.934545 184.738804 314.140000 184.538563 314.345455 184.337461 314.550909 184.135491 314.756364 183.932648 314.961818 183.728925 315.167273 183.524316 315.372727 183.318815 315.578182 183.112416 315.783636 182.905113 315.989091 182.696900 316.194545 182.487771 316.400000 182.277719 316.605455 182.066739 316.810909 181.854824 317.016364 181.641969 317.221818 181.428167 317.427273 181.213413 317.632727 180.997699 317.838182 180.781021 318.043636 180.563372 318.249091 180.344745 318.454545 180.125135 318.660000 179.904536 318.865455 179.682942 319.070909 179.460346 319.276364 179.236743 319.481818 179.012126 319.687273 178.786494 319.892727 178.559863 320.098182 178.332256 320.303636 178.103694 320.509091 177.874197 320.714545 177.643789 320.920000 177.412489 321.125455 177.180320 321.330909 176.947304 321.536364 176.713460 321.741818 176.478812 321.947273 176.243381 322.152727 176.007187 322.358182 175.770253 322.563636 175.532600 322.769091 175.294249 322.974545 175.055222 323.180000 174.815541 323.385455 174.575227 323.590909 174.334300 323.796364 174.092784 324.001818 173.850699 324.207273 173.608067 324.412727 173.364909 324.618182 173.121247 324.823636 172.877102 325.029091 172.632496 325.234545 172.387450 325.440000 172.141986 325.645455 171.896124 325.850909 171.649888 326.056364 171.403297 326.261818 171.156374 326.467273 170.909141 326.672727 170.661617 326.878182 170.413826 327.083636 170.165788 327.289091 169.917525 327.494545 169.669059 327.700000 169.420410 327.905455 169.171601 328.110909 168.922653 328.316364 168.673587 328.521818 168.424426 328.727273 168.175189 328.932727 167.925899 329.138182 167.676577 329.343636 167.427246 329.549091 167.177925 329.754545 166.928637 329.960000 166.679404 330.165455 166.430246 330.370909 166.181185 330.576364 165.932242 330.781818 165.683440 330.987273 165.434800 331.192727 165.186342 331.398182 164.938089 331.603636 164.690062 331.809091 164.442283 332.014545 164.194772 332.220000 163.947552 332.425455 163.700644 332.630909 163.454070 332.836364 163.207850 333.041818 162.962006 333.247273 162.716561 333.452727 162.471534 333.658182 162.226949 333.863636 161.982826 334.069091 161.739186 334.274545 161.496052 334.480000 161.253445 334.685455 161.011385 334.890909 160.769896 335.096364 160.528997 335.301818 160.288711 335.507273 160.049060 335.712727 159.810064 335.918182 159.571744 336.123636 159.334124 336.329091 159.097223 336.534545 158.861064 336.740000 158.625668 336.945455 158.391057 337.150909 158.157251 337.356364 157.924273 337.561818 157.692143 337.767273 157.460884 337.972727 157.230517 338.178182 157.001063 338.383636 156.772544 338.589091 156.544981 338.794545 156.318396 339.000000 156.092811 339.205455 155.868245 339.410909 155.644723 339.616364 155.422263 339.821818 155.200889 340.027273 154.980622 340.232727 154.761483 340.438182 154.543493 340.643636 154.326674 340.849091 154.111048 341.054545 153.896636 341.260000 153.683459 341.465455 153.471540 341.670909 153.260899 341.876364 153.051557 342.081818 152.843538 342.287273 152.636861 342.492727 152.431548 342.698182 152.227621 342.903636 152.025102 343.109091 151.824011 343.314545 151.624371 343.520000 151.426203 343.725455 151.229527 343.930909 151.034367 344.136364 150.840742 344.341818 150.648676 344.547273 150.458188 344.752727 150.269301 344.958182 150.082036 345.163636 149.896415 345.369091 149.712459 345.574545 149.530189 345.780000 149.349628 345.985455 149.170796 346.190909 148.993715 346.396364 148.818406 346.601818 148.644891 346.807273 148.473192 347.012727 148.303329 347.218182 148.135325 347.423636 147.969201 347.629091 147.804978 347.834545 147.642678 348.040000 147.482323 348.245455 147.323933 348.450909 147.167530 348.656364 147.013136 348.861818 146.860772 349.067273 146.710460 349.272727 146.562221 349.478182 146.416076 349.683636 146.272048 349.889091 146.130157 350.094545 145.990426 350.300000 145.852875 350.505455 145.717526 350.710909 145.584400 350.916364 145.453520 351.121818 145.324905 351.327273 145.198579 351.532727 145.074563 351.738182 144.952877 351.943636 144.833543 352.149091 144.716584 352.354545 144.602019 352.560000 144.489872 352.765455 144.380163 352.970909 144.272913 353.176364 144.168145 353.381818 144.065879 353.587273 143.966138 353.792727 143.868943 353.998182 143.774314 354.203636 143.682274 354.409091 143.592845 354.614545 143.506047 354.820000 143.421902 355.025455 143.340431 355.230909 143.261657 355.436364 143.185600 355.641818 143.112282 355.847273 143.041724 356.052727 142.973949 356.258182 142.908977 356.463636 142.846829 356.669091 142.787529 356.874545 142.731096 357.080000 142.677552 357.285455 142.626919 357.490909 142.579218 357.696364 142.534472 357.901818 142.492700 358.107273 142.453925 358.312727 142.418169 358.518182 142.385452 358.723636 142.355796 358.929091 142.329223 359.134545 142.305754 359.340000 142.285410 359.545455 142.268214 359.750909 142.254186 359.956364 142.243348 360.161818 142.235722 360.367273 142.231329 360.572727 142.230190 360.778182 142.232327 360.983636 142.237761 361.189091 142.246515 361.394545 142.258609 361.600000 142.274064 361.805455 142.292903 362.010909 142.315147 362.216364 142.340817 362.421818 142.369935 362.627273 142.402522 362.832727 142.438600 363.038182 142.478190 363.243636 142.521314 363.449091 142.567993 363.654545 142.618248 363.860000 142.672102 364.065455 142.729575 364.270909 142.790690 364.476364 142.855466 364.681818 142.923927 364.887273 142.996094 365.092727 143.071987 365.298182 143.151629 365.503636 143.235041 365.709091 143.322244 365.914545 143.413260 366.120000 143.508111 366.325455 143.606817 366.530909 143.709401 366.736364 143.815883 366.941818 143.926286 367.147273 144.040631 367.352727 144.158939 367.558182 144.281231 367.763636 144.407530 367.969091 144.537857 368.174545 144.672232 368.380000 144.810678 368.585455 144.953217 368.790909 145.099869 368.996364 145.250656 369.201818 145.405600 369.407273 145.564721 369.612727 145.728042 369.818182 145.895585 370.023636 146.067369 370.229091 146.243418 370.434545 146.423752 370.640000 146.608393 370.845455 146.797362 371.050909 146.990671 371.256364 147.188294 371.461818 147.390194 371.667273 147.596334 371.872727 147.806677 372.078182 148.021188 372.283636 148.239830 372.489091 148.462565 372.694545 148.689359 372.900000 148.920173 373.105455 149.154972 373.310909 149.393719 373.516364 149.636378 373.721818 149.882911 373.927273 150.133283 374.132727 150.387457 374.338182 150.645397 374.543636 150.907065 374.749091 151.172425 374.954545 151.441442 375.160000 151.714077 375.365455 151.990296 375.570909 152.270060 375.776364 152.553334 375.981818 152.840082 376.187273 153.130266 376.392727 153.423850 376.598182 153.720798 376.803636 154.021073 377.009091 154.324638 377.214545 154.631457 377.420000 154.941494 377.625455 155.254712 377.830909 155.571074 378.036364 155.890544 378.241818 156.213085 378.447273 156.538661 378.652727 156.867236 378.858182 157.198772 379.063636 157.533233 379.269091 157.870583 379.474545 158.210785 379.680000 158.553803 379.885455 158.899600 380.090909 159.248140 380.296364 159.599386 380.501818 159.953301 380.707273 160.309849 380.912727 160.668994 381.118182 161.030698 381.323636 161.394926 381.529091 161.761641 381.734545 162.130806 381.940000 162.502385 382.145455 162.876342 382.350909 163.252639 382.556364 163.631240 382.761818 164.012109 382.967273 164.395209 383.172727 164.780504 383.378182 165.167957 383.583636 165.557532 383.789091 165.949191 383.994545 166.342900 384.200000 166.738620 384.405455 167.136315 384.610909 167.535950 384.816364 167.937487 385.021818 168.340890 385.227273 168.746122 385.432727 169.153147 385.638182 169.561929 385.843636 169.972430 386.049091 170.384614 386.254545 170.798445 386.460000 171.213886 386.665455 171.630901 386.870909 172.049453 387.076364 172.469506 387.281818 172.891023 387.487273 173.313967 387.692727 173.738302 387.898182 174.163992 388.103636 174.591000 388.309091 175.019289 388.514545 175.448823 388.720000 175.879565 388.925455 176.311479 389.130909 176.744529 389.336364 177.178677 389.541818 177.613888 389.747273 178.050124 389.952727 178.487349 390.158182 178.925527 390.363636 179.364622 390.569091 179.804596 390.774545 180.245412 390.980000 180.687036 391.185455 181.129429 391.390909 181.572556 391.596364 182.016380 391.801818 182.460865 392.007273 182.905973 392.212727 183.351668 392.418182 183.797915 392.623636 184.244676 392.829091 184.691914 393.034545 185.139594 393.240000 185.587678 393.445455 186.036131 393.650909 186.484915 393.856364 186.933995 394.061818 187.383333 394.267273 187.832893 394.472727 188.282639 394.678182 188.732534 394.883636 189.182541 395.089091 189.632624 395.294545 190.082747 395.500000 190.532873 395.705455 190.982964 395.910909 191.432986 396.116364 191.882901 396.321818 192.332673 396.527273 192.782265 396.732727 193.231641 396.938182 193.680764 397.143636 194.129598 397.349091 194.578106 397.554545 195.026252 397.760000 195.473998 397.965455 195.921309 398.170909 196.368149 398.376364 196.814479 398.581818 197.260265 398.787273 197.705469 398.992727 198.150055 399.198182 198.593986 399.403636 199.037227 399.609091 199.479739 399.814545 199.921488 400.020000 200.362435 400.225455 200.802546 400.430909 201.241782 400.636364 201.680108 400.841818 202.117488 401.047273 202.553884 401.252727 202.989260 401.458182 203.423580 401.663636 203.856806 401.869091 204.288903 402.074545 204.719835 402.280000 205.149563 402.485455 205.578053 402.690909 206.005267 402.896364 206.431169 403.101818 206.855722 403.307273 207.278890 403.512727 207.700636 403.718182 208.120924 403.923636 208.539717 404.129091 208.956979 404.334545 209.372673 404.540000 209.786763 404.745455 210.199211 404.950909 210.609983 405.156364 211.019040 405.361818 211.426347 405.567273 211.831867 405.772727 212.235563 405.978182 212.637399 406.183636 213.037339 406.389091 213.435345 406.594545 213.831382 406.800000 214.225413 407.005455 214.617401 407.210909 215.007309 407.416364 215.395102 407.621818 215.780743 407.827273 216.164194 408.032727 216.545421 408.238182 216.924385 408.443636 217.301051 408.649091 217.675382 408.854545 218.047342 409.060000 218.416894 409.265455 218.784001 409.470909 219.148627 409.676364 219.510735 409.881818 219.870289 410.087273 220.227253 410.292727 220.581589 410.498182 220.933262 410.703636 221.282234 410.909091 221.628470 411.114545 221.971932 411.320000 222.312585 411.525455 222.650391 411.730909 222.985314 411.936364 223.317318 412.141818 223.646366 412.347273 223.972422 412.552727 224.295448 412.758182 224.615409 412.963636 224.932268 413.169091 225.245988 413.374545 225.556533 413.580000 225.863867 413.785455 226.167952 413.990909 226.468753 414.196364 226.766232 414.401818 227.060354 414.607273 227.351081 414.812727 227.638378 415.018182 227.922207 415.223636 228.202532 415.429091 228.479317 415.634545 228.752525 415.840000 229.022119 416.045455 229.288063 416.250909 229.550321 416.456364 229.808856 416.661818 230.063631 416.867273 230.314611 417.072727 230.561757 417.278182 230.805034 417.483636 231.044406 417.689091 231.279835 417.894545 231.511286 418.100000 231.738721 418.305455 231.962105 418.510909 232.181400 418.716364 232.396570 418.921818 232.607579 419.127273 232.814390 419.332727 233.016967 419.538182 233.215272 419.743636 233.409270 419.949091 233.598924 420.154545 233.784197 420.360000 233.965054 420.565455 234.141456 420.770909 234.313369 420.976364 234.480754 421.181818 234.643577 421.387273 234.801800 421.592727 234.955386 421.798182 235.104300 422.003636 235.248504 422.209091 235.387963 422.414545 235.522648 422.620000 235.652566 422.825455 235.777736 423.030909 235.898172 423.236364 236.013891 423.441818 236.124910 423.647273 236.231245 423.852727 236.332912 424.058182 236.429928 424.263636 236.522309 424.469091 236.610072 424.674545 236.693232 424.880000 236.771807 425.085455 236.845813 425.290909 236.915266 425.496364 236.980182 425.701818 237.040579 425.907273 237.096471 426.112727 237.147877 426.318182 237.194811 426.523636 237.237291 426.729091 237.275333 426.934545 237.308954 427.140000 237.338169 427.345455 237.362995 427.550909 237.383449 427.756364 237.399546 427.961818 237.411304 428.167273 237.418739 428.372727 237.421866 428.578182 237.420703 428.783636 237.415266 428.989091 237.405572 429.194545 237.391636 429.400000 237.373475 429.605455 237.351105 429.810909 237.324544 430.016364 237.293806 430.221818 237.258910 430.427273 237.219870 430.632727 237.176704 430.838182 237.129427 431.043636 237.078057 431.249091 237.022610 431.454545 236.963101 431.660000 236.899548 431.865455 236.831967 432.070909 236.760374 432.276364 236.684786 432.481818 236.605218 432.687273 236.521689 432.892727 236.434212 433.098182 236.342806 433.303636 236.247487 433.509091 236.148271 433.714545 236.045174 433.920000 235.938213 434.125455 235.827404 434.330909 235.712763 434.536364 235.594308 434.741818 235.472054 434.947273 235.346018 435.152727 235.216216 435.358182 235.082664 435.563636 234.945379 435.769091 234.804378 435.974545 234.659677 436.180000 234.511291 436.385455 234.359239 436.590909 234.203535 436.796364 234.044196 437.001818 233.881239 437.207273 233.714681 437.412727 233.544537 437.618182 233.370823 437.823636 233.193558 438.029091 233.012755 438.234545 232.828433 438.440000 232.640608 438.645455 232.449295 438.850909 232.254512 439.056364 232.056274 439.261818 231.854598 439.467273 231.649501 439.672727 231.440999 439.878182 231.229108 440.083636 231.013845 440.289091 230.795226 440.494545 230.573267 440.700000 230.347985 440.905455 230.119396 441.110909 229.887517 441.316364 229.652364 441.521818 229.413954 441.727273 229.172302 441.932727 228.927426 442.138182 228.679341 442.343636 228.428064 442.549091 228.173612 442.754545 227.916001 442.960000 227.655246 443.165455 227.391366 443.370909 227.124375 443.576364 226.854291 443.781818 226.581129 443.987273 226.304907 444.192727 226.025641 444.398182 225.743346 444.603636 225.458040 444.809091 225.169738 445.014545 224.878458 445.220000 224.584215 445.425455 224.287027 445.630909 223.986908 445.836364 223.683877 446.041818 223.377948 446.247273 223.069139 446.452727 222.757466 446.658182 222.442946 446.863636 222.125594 447.069091 221.805427 447.274545 221.482462 447.480000 221.156715 447.685455 220.828202 447.890909 220.496940 448.096364 220.162945 448.301818 219.826234 448.507273 219.486822 448.712727 219.144727 448.918182 218.799964 449.123636 218.452551 449.329091 218.102503 449.534545 217.749837 449.740000 217.394569 449.945455 217.036716 450.150909 216.676294 450.356364 216.313320 450.561818 215.947809 450.767273 215.579779 450.972727 215.209245 451.178182 214.836225 451.383636 214.460734 451.589091 214.082788 451.794545 213.702405 452.000000 213.319601 452.205455 212.934392 452.410909 212.546794 452.616364 212.156824 452.821818 211.764498 453.027273 211.369833 453.232727 210.972845 453.438182 210.573550 453.643636 210.171965 453.849091 209.768107 454.054545 209.361991 454.260000 208.953634 454.465455 208.543052 454.670909 208.130262 454.876364 207.715281 455.081818 207.298124 455.287273 206.878807 455.492727 206.457349 455.698182 206.033764 455.903636 205.608069 456.109091 205.180281 456.314545 204.750416 456.520000 204.318490 456.725455 203.884520 456.930909 203.448523 457.136364 203.010513 457.341818 202.570509 457.547273 202.128526 457.752727 201.684581 457.958182 201.238690 458.163636 200.790869 458.369091 200.341136 458.574545 199.889505 458.780000 199.435995 458.985455 198.980620 459.190909 198.523398 459.396364 198.064345 459.601818 197.603478 459.807273 197.140812 460.012727 196.676364 460.218182 196.210151 460.423636 195.742188 460.629091 195.272493 460.834545 194.801081 461.040000 194.327970 461.245455 193.853175 461.450909 193.376713 461.656364 192.898600 461.861818 192.418853 462.067273 191.937488 462.272727 191.454521 462.478182 190.969970 462.683636 190.483849 462.889091 189.996176 463.094545 189.506968 463.300000 189.016239 463.505455 188.524008 463.710909 188.030290 463.916364 187.535101 464.121818 187.038458 464.327273 186.540378 464.532727 186.040877 464.738182 185.539971 464.943636 185.037676 465.149091 184.534010 465.354545 184.028988 465.560000 183.522626 465.765455 183.014942 465.970909 182.505952 466.176364 181.995671 466.381818 181.484117 466.587273 180.971306 466.792727 180.457254 466.998182 179.941977 467.203636 179.425492 467.409091 178.907816 467.614545 178.388965 467.820000 177.868954 468.025455 177.347801 468.230909 176.825523 468.436364 176.302134 468.641818 175.777652 468.847273 175.252094 469.052727 174.725475 469.258182 174.197812 469.463636 173.669121 469.669091 173.139419 469.874545 172.608722 470.080000 172.077046 470.285455 171.544409 470.490909 171.010826 470.696364 170.476313 470.901818 169.940888 471.107273 169.404566 471.312727 168.867364 471.518182 168.329298 471.723636 167.790385 471.929091 167.250641 472.134545 166.710083 472.340000 166.168726 472.545455 165.626588 472.750909 165.083684 472.956364 164.540031 473.161818 163.995646 473.367273 163.450545 473.572727 162.904744 473.778182 162.358261 473.983636 161.811118 474.189091 161.263338 474.394545 160.714946 474.600000 160.165965 474.805455 159.616418 475.010909 159.066328 475.216364 158.515720 475.421818 157.964617 475.627273 157.413042 475.832727 156.861019 476.038182 156.308571 476.243636 155.755722 476.449091 155.202495 476.654545 154.648915 476.860000 154.095003 477.065455 153.540785 477.270909 152.986283 477.476364 152.431522 477.681818 151.876523 477.887273 151.321312 478.092727 150.765911 478.298182 150.210345 478.503636 149.654635 478.709091 149.098807 478.914545 148.542884 479.120000 147.986889 479.325455 147.430845 479.530909 146.874777 479.736364 146.318707 479.941818 145.762660 480.147273 145.206658 480.352727 144.650725 480.558182 144.094886 480.763636 143.539162 480.969091 142.983578 481.174545 142.428158 481.380000 141.872925 481.585455 141.317902 481.790909 140.763112 481.996364 140.208580 482.201818 139.654329 482.407273 139.100383 482.612727 138.546764 482.818182 137.993497 483.023636 137.440605 483.229091 136.888112 483.434545 136.336040 483.640000 135.784414 483.845455 135.233257 484.050909 134.682593 484.256364 134.132445 484.461818 133.582836 484.667273 133.033791 484.872727 132.485332 485.078182 131.937483 485.283636 131.390268 485.489091 130.843711 485.694545 130.297834 485.900000 129.752661 486.105455 129.208216 486.310909 128.664523 486.516364 128.121604 486.721818 127.579483 486.927273 127.038185 487.132727 126.497731 487.338182 125.958147 487.543636 125.419455 487.749091 124.881679 487.954545 124.344842 488.160000 123.808969 488.365455 123.274082 488.570909 122.740204 488.776364 122.207361 488.981818 121.675574 489.187273 121.144868 489.392727 120.615266 489.598182 120.086792 489.803636 119.559469 490.009091 119.033320 490.214545 118.508369 490.420000 117.984641 490.625455 117.462157 490.830909 116.940942 491.036364 116.421019 491.241818 115.902412 491.447273 115.385145 491.652727 114.869240 491.858182 114.354721 492.063636 113.841612 492.269091 113.329937 492.474545 112.819718 492.680000 112.310980 492.885455 111.803746 493.090909 111.298039 493.296364 110.793883 493.501818 110.291301 493.707273 109.790318 493.912727 109.290956 494.118182 108.793239 494.323636 108.297190 494.529091 107.802834 494.734545 107.310193 494.940000 106.819291 495.145455 106.330152 495.350909 105.842799 495.556364 105.357255 495.761818 104.873545 495.967273 104.391691 496.172727 103.911718 496.378182 103.433648 496.583636 102.957505 496.789091 102.483314 496.994545 102.011096 497.200000 101.540876 497.405455 101.072678 497.610909 100.606524 497.816364 100.142439 498.021818 99.680446 498.227273 99.220568 498.432727 98.762829 498.638182 98.307252 498.843636 97.853861 499.049091 97.402680 499.254545 96.953732 499.460000 96.507040 499.665455 96.062628 499.870909 95.620520 500.076364 95.180739 500.281818 94.743308 500.487273 94.308252 500.692727 93.875593 500.898182 93.445355 501.103636 93.017562 501.309091 92.592237 501.514545 92.169404 501.720000 91.749085 501.925455 91.331306 502.130909 90.916089 502.336364 90.503457 502.541818 90.093435 502.747273 89.686046 502.952727 89.281313 503.158182 88.879260 503.363636 88.479910 503.569091 88.083287 503.774545 87.689414 503.980000 87.298316 504.185455 86.910015 504.390909 86.524534 504.596364 86.141898 504.801818 85.762131 505.007273 85.385254 505.212727 85.011293 505.418182 84.640270 505.623636 84.272210 505.829091 83.907134 506.034545 83.545068 506.240000 83.186035 506.445455 82.830058 506.650909 82.477160 506.856364 82.127365 507.061818 81.780698 507.267273 81.437180 507.472727 81.096836 507.678182 80.759690 507.883636 80.425764 508.089091 80.095082 508.294545 79.767668 508.500000 79.443546 508.705455 79.122738 508.910909 78.805269 509.116364 78.491162 509.321818 78.180440 509.527273 77.873127 509.732727 77.569246 509.938182 77.268822 510.143636 76.971876 510.349091 76.678434 510.554545 76.388518 510.760000 76.102153 510.965455 75.819361 511.170909 75.540166 511.376364 75.264591 511.581818 74.992661 511.787273 74.724398 511.992727 74.459826 512.198182 74.198969 512.403636 73.941851 512.609091 73.688494 512.814545 73.438922 513.020000 73.193159 513.225455 72.951228 513.430909 72.713153 513.636364 72.478957 513.841818 72.248664 514.047273 72.022297 514.252727 71.799880 514.458182 71.581437 514.663636 71.366990 514.869091 71.156564 515.074545 70.950182 515.280000 70.747867 515.485455 70.549643 515.690909 70.355534 515.896364 70.165562 516.101818 69.979752 516.307273 69.798127 516.512727 69.620711 516.718182 69.447527 516.923636 69.278598 517.129091 69.113949 517.334545 68.953602 517.540000 68.797581 517.745455 68.645910 517.950909 68.498612 518.156364 68.355711 518.361818 68.217230 518.567273 68.083193 518.772727 67.953623 518.978182 67.828544 519.183636 67.707979 519.389091 67.591952 519.594545 67.480486 519.800000 67.373605 520.005455 67.271332 520.210909 67.173692 520.416364 67.080707 520.621818 66.992400 520.827273 66.908796 521.032727 66.829919 521.238182 66.755790 521.443636 66.686435 521.649091 66.621876 521.854545 66.562137 522.060000 66.507242 522.265455 66.457214 522.470909 66.412076 522.676364 66.371853 522.881818 66.336567 523.087273 66.306242 523.292727 66.280902 523.498182 66.260570 523.703636 66.245270 523.909091 66.235025 524.114545 66.229859 524.320000 66.229795 524.525455 66.234857 524.730909 66.245068 524.936364 66.260452 525.141818 66.281025 525.347273 66.306774 525.552727 66.337677 525.758182 66.373714 525.963636 66.414865 526.169091 66.461108 526.374545 66.512422 526.580000 66.568788 526.785455 66.630183 526.990909 66.696588 527.196364 66.767981 527.401818 66.844342 527.607273 66.925650 527.812727 67.011884 528.018182 67.103023 528.223636 67.199047 528.429091 67.299934 528.634545 67.405665 528.840000 67.516218 529.045455 67.631572 529.250909 67.751707 529.456364 67.876602 529.661818 68.006236 529.867273 68.140588 530.072727 68.279637 530.278182 68.423363 530.483636 68.571746 530.689091 68.724763 530.894545 68.882395 531.100000 69.044620 531.305455 69.211418 531.510909 69.382768 531.716364 69.558649 531.921818 69.739041 532.127273 69.923922 532.332727 70.113272 532.538182 70.307070 532.743636 70.505296 532.949091 70.707928 533.154545 70.914946 533.360000 71.126328 533.565455 71.342055 533.770909 71.562105 533.976364 71.786458 534.181818 72.015092 534.387273 72.247988 534.592727 72.485123 534.798182 72.726479 535.003636 72.972032 535.209091 73.221764 535.414545 73.475653 535.620000 73.733678 535.825455 73.995818 536.030909 74.262053 536.236364 74.532362 536.441818 74.806725 536.647273 75.085119 536.852727 75.367526 537.058182 75.653923 537.263636 75.944290 537.469091 76.238606 537.674545 76.536851 537.880000 76.839003 538.085455 77.145042 538.290909 77.454947 538.496364 77.768698 538.701818 78.086273 538.907273 78.407652 539.112727 78.732813 539.318182 79.061737 539.523636 79.394402 539.729091 79.730788 539.934545 80.070874 540.140000 80.414638 540.345455 80.762061 540.550909 81.113122 540.756364 81.467798 540.961818 81.826071 541.167273 82.187919 541.372727 82.553321 541.578182 82.922257 541.783636 83.294705 541.989091 83.670646 542.194545 84.050057 542.400000 84.432919 542.605455 84.819211 542.810909 85.208911 543.016364 85.601999 543.221818 85.998455 543.427273 86.398257 543.632727 86.801384 543.838182 87.207817 544.043636 87.617533 544.249091 88.030513 544.454545 88.446736 544.660000 88.866180 544.865455 89.288825 545.070909 89.714650 545.276364 90.143635 545.481818 90.575758 545.687273 91.010999 545.892727 91.449337 546.098182 91.890751 546.303636 92.335221 546.509091 92.782725 546.714545 93.233243 546.920000 93.686755 547.125455 94.143238 547.330909 94.602673 547.536364 95.065039 547.741818 95.530315 547.947273 95.998480 548.152727 96.469514 548.358182 96.943395 548.563636 97.420102 548.769091 97.899616 548.974545 98.381915 549.180000 98.866979 549.385455 99.354786 549.590909 99.845316 549.796364 100.338548 550.001818 100.834462 550.207273 101.333036 550.412727 101.834249 550.618182 102.338082 550.823636 102.844513 551.029091 103.353521 551.234545 103.865086 551.440000 104.379187 551.645455 104.895802 551.850909 105.414912 552.056364 105.936496 552.261818 106.460532 552.467273 106.987000 552.672727 107.515879 552.878182 108.047148 553.083636 108.580787 553.289091 109.116775 553.494545 109.655090 553.700000 110.195713 553.905455 110.738622 554.110909 111.283797 554.316364 111.831217 554.521818 112.380860 554.727273 112.932707 554.932727 113.486737 555.138182 114.042928 555.343636 114.601260 555.549091 115.161712 555.754545 115.724263 555.960000 116.288893 556.165455 116.855580 556.370909 117.424305 556.576364 117.995046 556.781818 118.567782 556.987273 119.142493 557.192727 119.719157 557.398182 120.297755 557.603636 120.878265 557.809091 121.460666 558.014545 122.044938 558.220000 122.631060 558.425455 123.219011 558.630909 123.808771 558.836364 124.400318 559.041818 124.993631 559.247273 125.588691 559.452727 126.185476 559.658182 126.783965 559.863636 127.384138 560.069091 127.985974 560.274545 128.589451 560.480000 129.194550 560.685455 129.801250 560.890909 130.409529 561.096364 131.019367 561.301818 131.630743 561.507273 132.243637 561.712727 132.858027 561.918182 133.473893 562.123636 134.091213 562.329091 134.709968 562.534545 135.330137 562.740000 135.951698 562.945455 136.574631 563.150909 137.198915 563.356364 137.824529 563.561818 138.451452 563.767273 139.079665 563.972727 139.709145 564.178182 140.339872 564.383636 140.971826 564.589091 141.604985 564.794545 142.239329 565.000000 142.874837 565.205455 143.511488 565.410909 144.149262 565.616364 144.788137 565.821818 145.428093 566.027273 146.069109 566.232727 146.711165 566.438182 147.354238 566.643636 147.998310 566.849091 148.643358 567.054545 149.289363 567.260000 149.936303 567.465455 150.584157 567.670909 151.232906 567.876364 151.882527 568.081818 152.533000 568.287273 153.184305 568.492727 153.836421 568.698182 154.489326 568.903636 155.143000 569.109091 155.797423 569.314545 156.452573 569.520000 157.108430 569.725455 157.764973 569.930909 158.422181 570.136364 159.080033 570.341818 159.738509 570.547273 160.397587 570.752727 161.057248 570.958182 161.717470 571.163636 162.378232 571.369091 163.039514 571.574545 163.701294 571.780000 164.363553 571.985455 165.026269 572.190909 165.689422 572.396364 166.352990 572.601818 167.016953 572.807273 167.681290 573.012727 168.345981 573.218182 169.011004 573.423636 169.676339 573.629091 170.341965 573.834545 171.007861 574.040000 171.674007 574.245455 172.340381 574.450909 173.006963 574.656364 173.673732 574.861818 174.340668 575.067273 175.007749 575.272727 175.674954 575.478182 176.342264 575.683636 177.009657 575.889091 177.677112 576.094545 178.344608 576.300000 179.012126 576.300000 514.000000" /></g></g><g class="titles"><text class="title plot_title" x="400.0" y="26">Ratchathewi 50</text></g><g class="plot overlay" transform="translate(192, 46)"><g class="series serie-0 color-0"><g class="dots"><circle class="dot reactive tooltip-trigger" cx="11.3" cy="9.884615384615415" r="2.5" /><desc class="value">281000</desc><desc class="x ">11.3</desc><desc class="y ">9.884615384615415</desc><desc class="x_label">Jan</desc></g><g class="dots"><circle class="dot reactive tooltip-trigger" cx="62.66363636363637" cy="187.0658168245452" r="2.5" /><desc class="value">259000</desc><desc class="x ">62.66363636363637</desc><desc class="y ">187.0658168245452</desc><desc class="x_label">Feb</desc></g><g class="dots"><circle class="dot reactive tooltip-trigger" cx="114.02727272727273" cy="66.26045220641129" r="2.5" /><desc class="value">274000</desc><desc class="x ">114.02727272727273</desc><desc class="y ">66.26045220641129</desc><desc class="x_label">Mar</desc></g><g class="dots"><circle class="dot reactive tooltip-trigger" cx="165.39090909090908" cy="485.0523828826089" r="2.5" /><desc class="value">222000</desc><desc class="x top">165.39090909090908</desc><desc class="y top">485.0523828826089</desc><desc class="x_label">Apr</desc></g><g class="dots"><circle class="dot reactive tooltip-trigger" cx="216.75454545454548" cy="332.03225436630595" r="2.5" /><desc class="value">241000</desc><desc class="x top">216.75454545454548</desc><desc class="y top">332.03225436630595</desc><desc class="x_label">May</desc></g><g class="dots"><circle class="dot reactive tooltip-trigger" cx="268.1181818181818" cy="219.28058072271426" r="2.5" /><desc class="value">255000</desc><desc class="x ">268.1181818181818</desc><desc class="y ">219.28058072271426</desc><desc class="x_label">Jun</desc></g><g class="dots"><circle class="dot reactive tooltip-trigger" cx="319.4818181818182" cy="179.01212585000292" r="2.5" /><desc class="value">260000</desc><desc class="x left">319.4818181818182</desc><desc class="y left">179.01212585000292</desc><desc class="x_label">Jul</desc></g><g class="dots"><circle class="dot reactive tooltip-trigger" cx="370.8454545454546" cy="146.79736195183386" r="2.5" /><desc class="value">264000</desc><desc class="x left">370.8454545454546</desc><desc class="y left">146.79736195183386</desc><desc class="x_label">Aug</desc></g><g class="dots"><circle class="dot reactive tooltip-trigger" cx="422.20909090909095" cy="235.3879626717988" r="2.5" /><desc class="value">253000</desc><desc class="x left">422.20909090909095</desc><desc class="y left">235.3879626717988</desc><desc class="x_label">Sep</desc></g><g class="dots"><circle class="dot reactive tooltip-trigger" cx="473.5727272727273" cy="162.9047439009184" r="2.5" /><desc class="value">262000</desc><desc class="x left">473.5727272727273</desc><desc class="y left">162.9047439009184</desc><desc class="x_label">Oct</desc></g><g class="dots"><circle class="dot reactive tooltip-trigger" cx="524.9363636363636" cy="66.26045220641129" r="2.5" /><desc class="value">274000</desc><desc class="x left">524.9363636363636</desc><desc class="y left">66.26045220641129</desc><desc class="x_label">Nov</desc></g><g class="dots"><circle class="dot reactive tooltip-trigger" cx="576.3000000000001" cy="179.01212585000292" r="2.5" /><desc class="value">260000</desc><desc class="x left">576.3000000000001</desc><desc class="y left">179.01212585000292</desc><desc class="x_label">Dec</desc></g></g></g><g class="plot text-overlay" transform="translate(192, 46)"><g class="series serie-0 color-0" /></g><g class="plot tooltip-overlay" transform="translate(192, 46)"><g class="tooltip" style="opacity: 0" transform="translate(0 0)"><rect class="tooltip-box" height="0" rx="0" ry="0" width="0" /><g class="text" /></g></g><g class="legends" transform="translate(10, 56)"><g class="legend reactive activate-serie" id="activate-serie-0"><rect class="color-0 reactive" height="12" width="12" x="0.0" y="1.0" /><text x="17.0" y="11.2">Ratchathewi</text></g></g><g class="legends" transform="translate(790, 56)" /></g></svg>