<?xml version='1.0' encoding='utf-8'?>
<svg xmlns:xlink="http://www.w3.org/1999/xlink" class="pygal-chart" id="chart-5a12b0ea-61b9-4f2c-a9d9-7cb780b10ff6" viewBox="0 0 800 600" xmlns="http://www.w3.org/2000/svg"><!--Generated with pygal 2.0.11 (etree) ©Kozea 2011-2015 on 2015-12-10--><!--http://pygal.org--><!--http://github.com/Kozea/pygal--><defs><style type="text/css">#chart-5a12b0ea-61b9-4f2c-a9d9-7cb780b10ff6{-webkit-user-select:none;-webkit-font-smoothing:antialiased;font-family:Consolas,"Liberation Mono",Menlo,Courier,monospace}#chart-5a12b0ea-61b9-4f2c-a9d9-7cb780b10ff6 .title{font-family:Consolas,"Liberation Mono",Menlo,Courier,monospace;font-size:16px}#chart-5a12b0ea-61b9-4f2c-a9d9-7cb780b10ff6 .legends .legend text{font-family:Consolas,"Liberation Mono",Menlo,Courier,monospace;font-size:14px}#chart-5a12b0ea-61b9-4f2c-a9d9-7cb780b10ff6 .axis text{font-family:Consolas,"Liberation Mono",Menlo,Courier,monospace;font-size:10px}#chart-5a12b0ea-61b9-4f2c-a9d9-7cb780b10ff6 .axis text.major{font-family:Consolas,"Liberation Mono",Menlo,Courier,monospace;font-size:10px}#chart-5a12b0ea-61b9-4f2c-a9d9-7cb780b10ff6 .text-overlay text.value{font-family:Consolas,"Liberation Mono",Menlo,Courier,monospace;font-size:16px}#chart-5a12b0ea-61b9-4f2c-a9d9-7cb780b10ff6 .text-overlay text.label{font-family:Consolas,"Liberation Mono",Menlo,Courier,monospace;font-size:10px}#chart-5a12b0ea-61b9-4f2c-a9d9-7cb780b10ff6 .tooltip{font-family:Consolas,"Liberation Mono",Menlo,Courier,monospace;font-size:14px}#chart-5a12b0ea-61b9-4f2c-a9d9-7cb780b10ff6 text.no_data{font-family:Consolas,"Liberation Mono",Menlo,Courier,monospace;font-size:64px}
#chart-5a12b0ea-61b9-4f2c-a9d9-7cb780b10ff6{background-color:black}#chart-5a12b0ea-61b9-4f2c-a9d9-7cb780b10ff6 path,#chart-5a12b0ea-61b9-4f2c-a9d9-7cb780b10ff6 line,#chart-5a12b0ea-61b9-4f2c-a9d9-7cb780b10ff6 rect,#chart-5a12b0ea-61b9-4f2c-a9d9-7cb780b10ff6 circle{-webkit-transition:250ms;-moz-transition:250ms;transition:250ms}#chart-5a12b0ea-61b9-4f2c-a9d9-7cb780b10ff6 .graph &gt; .background{fill:black}#chart-5a12b0ea-61b9-4f2c-a9d9-7cb780b10ff6 .plot &gt; .background{fill:#111}#chart-5a12b0ea-61b9-4f2c-a9d9-7cb780b10ff6 .graph{fill:#999}#chart-5a12b0ea-61b9-4f2c-a9d9-7cb780b10ff6 text.no_data{fill:#eee}#chart-5a12b0ea-61b9-4f2c-a9d9-7cb780b10ff6 .title{fill:#eee}#chart-5a12b0ea-61b9-4f2c-a9d9-7cb780b10ff6 .legends .legend text{fill:#999}#chart-5a12b0ea-61b9-4f2c-a9d9-7cb780b10ff6 .legends .legend:hover text{fill:#eee}#chart-5a12b0ea-61b9-4f2c-a9d9-7cb780b10ff6 .axis .line{stroke:#eee}#chart-5a12b0ea-61b9-4f2c-a9d9-7cb780b10ff6 .axis .guide.line{stroke:#555}#chart-5a12b0ea-61b9-4f2c-a9d9-7cb780b10ff6 .axis .major.line{stroke:#999}#chart-5a12b0ea-61b9-4f2c-a9d9-7cb780b10ff6 .axis text.major{fill:#eee}#chart-5a12b0ea-61b9-4f2c-a9d9-7cb780b10ff6 .axis.y .guides:hover .guide.line,#chart-5a12b0ea-61b9-4f2c-a9d9-7cb780b10ff6 .line-graph .axis.x .guides:hover .guide.line,#chart-5a12b0ea-61b9-4f2c-a9d9-7cb780b10ff6 .stackedline-graph .axis.x .guides:hover .guide.line,#chart-5a12b0ea-61b9-4f2c-a9d9-7cb780b10ff6 .xy-graph .axis.x .guides:hover .guide.line{stroke:#eee}#chart-5a12b0ea-61b9-4f2c-a9d9-7cb780b10ff6 .axis .guides:hover text{fill:#eee}#chart-5a12b0ea-61b9-4f2c-a9d9-7cb780b10ff6 .reactive{fill-opacity:.8}#chart-5a12b0ea-61b9-4f2c-a9d9-7cb780b10ff6 .reactive.active,#chart-5a12b0ea-61b9-4f2c-a9d9-7cb780b10ff6 .active .reactive{fill-opacity:.4;stroke-width:4}#chart-5a12b0ea-61b9-4f2c-a9d9-7cb780b10ff6 .series text{fill:#eee}#chart-5a12b0ea-61b9-4f2c-a9d9-7cb780b10ff6 .tooltip rect{fill:#111;stroke:#eee;-webkit-transition:opacity 250ms;-moz-transition:opacity 250ms;transition:opacity 250ms}#chart-5a12b0ea-61b9-4f2c-a9d9-7cb780b10ff6 .tooltip .label{fill:#999}#chart-5a12b0ea-61b9-4f2c-a9d9-7cb780b10ff6 .tooltip .label{fill:#999}#chart-5a12b0ea-61b9-4f2c-a9d9-7cb780b10ff6 .tooltip .legend{font-size:.8em;fill:#555}#chart-5a12b0ea-61b9-4f2c-a9d9-7cb780b10ff6 .tooltip .x_label{font-size:.6em;fill:#eee}#chart-5a12b0ea-61b9-4f2c-a9d9-7cb780b10ff6 .tooltip .xlink{font-size:.5em;text-decoration:underline}#chart-5a12b0ea-61b9-4f2c-a9d9-7cb780b10ff6 .tooltip .value{font-size:1.5em}#chart-5a12b0ea-61b9-4f2c-a9d9-7cb780b10ff6 .map-element{fill:#111;stroke:#555 !important}#chart-5a12b0ea-61b9-4f2c-a9d9-7cb780b10ff6 .map-element .reactive{fill-opacity:inherit}#chart-5a12b0ea-61b9-4f2c-a9d9-7cb780b10ff6 .color-0,#chart-5a12b0ea-61b9-4f2c-a9d9-7cb780b10ff6 .color-0 a:visited{stroke:#ff5995;fill:#ff5995}#chart-5a12b0ea-61b9-4f2c-a9d9-7cb780b10ff6 .text-overlay .color-0 text{fill:black}
#chart-5a12b0ea-61b9-4f2c-a9d9-7cb780b10ff6 text.no_data{text-anchor:middle}#chart-5a12b0ea-61b9-4f2c-a9d9-7cb780b10ff6 .guide.line{fill:none}#chart-5a12b0ea-61b9-4f2c-a9d9-7cb780b10ff6 .centered{text-anchor:middle}#chart-5a12b0ea-61b9-4f2c-a9d9-7cb780b10ff6 .title{text-anchor:middle}#chart-5a12b0ea-61b9-4f2c-a9d9-7cb780b10ff6 .legends .legend text{fill-opacity:1}#chart-5a12b0ea-61b9-4f2c-a9d9-7cb780b10ff6 .axis.x text{text-anchor:middle}#chart-5a12b0ea-61b9-4f2c-a9d9-7cb780b10ff6 .axis.x:not(.web) text[transform]{text-anchor:start}#chart-5a12b0ea-61b9-4f2c-a9d9-7cb780b10ff6 .axis.x:not(.web) text[transform].backwards{text-anchor:end}#chart-5a12b0ea-61b9-4f2c-a9d9-7cb780b10ff6 .axis.y text{text-anchor:end}#chart-5a12b0ea-61b9-4f2c-a9d9-7cb780b10ff6 .axis.y text[transform].backwards{text-anchor:start}#chart-5a12b0ea-61b9-4f2c-a9d9-7cb780b10ff6 .axis.y2 text{text-anchor:start}#chart-5a12b0ea-61b9-4f2c-a9d9-7cb780b10ff6 .axis.y2 text[transform].backwards{text-anchor:end}#chart-5a12b0ea-61b9-4f2c-a9d9-7cb780b10ff6 .axis .guide.line{stroke-dasharray:4,4}#chart-5a12b0ea-61b9-4f2c-a9d9-7cb780b10ff6 .axis .major.guide.line{stroke-dasharray:6,6}#chart-5a12b0ea-61b9-4f2c-a9d9-7cb780b10ff6 .horizontal .axis.y .guide.line,#chart-5a12b0ea-61b9-4f2c-a9d9-7cb780b10ff6 .horizontal .axis.y2 .guide.line,#chart-5a12b0ea-61b9-4f2c-a9d9-7cb780b10ff6 .vertical .axis.x .guide.line{opacity:0}#chart-5a12b0ea-61b9-4f2c-a9d9-7cb780b10ff6 .horizontal .axis.always_show .guide.line,#chart-5a12b0ea-61b9-4f2c-a9d9-7cb780b10ff6 .vertical .axis.always_show .guide.line{opacity:1 !important}#chart-5a12b0ea-61b9-4f2c-a9d9-7cb780b10ff6 .axis.y .guides:hover .guide.line,#chart-5a12b0ea-61b9-4f2c-a9d9-7cb780b10ff6 .axis.y2 .guides:hover .guide.line,#chart-5a12b0ea-61b9-4f2c-a9d9-7cb780b10ff6 .axis.x .guides:hover .guide.line{opacity:1}#chart-5a12b0ea-61b9-4f2c-a9d9-7cb780b10ff6 .axis .guides:hover text{opacity:1}#chart-5a12b0ea-61b9-4f2c-a9d9-7cb780b10ff6 .nofill{fill:none}#chart-5a12b0ea-61b9-4f2c-a9d9-7cb780b10ff6 .subtle-fill{fill-opacity:.2}#chart-5a12b0ea-61b9-4f2c-a9d9-7cb780b10ff6 .dot{stroke-width:1px;fill-opacity:1}#chart-5a12b0ea-61b9-4f2c-a9d9-7cb780b10ff6 .dot.active{stroke-width:5px}#chart-5a12b0ea-61b9-4f2c-a9d9-7cb780b10ff6 .dot.negative{fill:transparent}#chart-5a12b0ea-61b9-4f2c-a9d9-7cb780b10ff6 text,#chart-5a12b0ea-61b9-4f2c-a9d9-7cb780b10ff6 tspan{stroke:none !important}#chart-5a12b0ea-61b9-4f2c-a9d9-7cb780b10ff6 .series text.active{opacity:1}#chart-5a12b0ea-61b9-4f2c-a9d9-7cb780b10ff6 .tooltip rect{fill-opacity:.95;stroke-width:.5}#chart-5a12b0ea-61b9-4f2c-a9d9-7cb780b10ff6 .tooltip text{fill-opacity:1}#chart-5a12b0ea-61b9-4f2c-a9d9-7cb780b10ff6 .showable{visibility:hidden}#chart-5a12b0ea-61b9-4f2c-a9d9-7cb780b10ff6 .showable.shown{visibility:visible}</style><script type="text/javascript">window.pygal = window.pygal || {};window.pygal.config = window.pygal.config || {};window.pygal.config['5a12b0ea-61b9-4f2c-a9d9-7cb780b10ff6'] = {"print_values": false, "truncate_label": null, "human_readable": false, "explicit_size": false, "show_y_labels": true, "x_labels": ["Jan", "Feb", "Mar", "Apr", "May", "Jun", "Jul", "Aug", "Sep", "Oct", "Nov", "Dec"], "inverse_y_axis": false, "x_labels_major_count": null, "show_y_guides": true, "spacing": 10, "xrange": null, "rounded_bars": null, "margin": 20, "interpolation_precision": 250, "title": "Sala-Daeng 52", "stroke_style": null, "no_data_text": "No data", "fill": true, "box_mode": "extremes", "print_labels": false, "interpolate": "cubic", "zero": 0, "show_only_major_dots": false, "truncate_legend": null, "show_minor_x_labels": true, "js": ["//kozea.github.io/pygal.js/2.0.x/pygal-tooltips.min.js"], "x_labels_major_every": null, "legends": ["Sala-Daeng"], "tooltip_fancy_mode": true, "disable_xml_declaration": false, "show_x_guides": false, "print_zeroes": true, "show_legend": true, "legend_at_bottom": false, "y_labels_major_count": null, "secondary_range": null, "margin_bottom": null, "half_pie": false, "height": 600, "range": null, "show_minor_y_labels": true, "defs": [], "css": ["file://style.css", "file://graph.css"], "y_labels": null, "interpolation_parameters": {}, "width": 800, "strict": false, "pretty_print": false, "min_scale": 4, "margin_top": null, "dynamic_print_values": false, "order_min": null, "x_title": null, "margin_left": null, "margin_right": null, "y_labels_major_every": null, "stroke": true, "x_labels_major": null, "missing_value_fill_truncation": "x", "logarithmic": false, "stack_from_top": false, "show_dots": true, "style": {"title_font_size": 16, "title_font_family": "Consolas, \"Liberation Mono\", Menlo, Courier, monospace", "tooltip_font_family": "Consolas, \"Liberation Mono\", Menlo, Courier, monospace", "background": "black", "tooltip_font_size": 14, "opacity_hover": ".4", "value_label_font_size": 10, "opacity": ".8", "no_data_font_family": "Consolas, \"Liberation Mono\", Menlo, Courier, monospace", "label_font_size": 10, "plot_background": "#111", "value_font_size": 16, "value_font_family": "Consolas, \"Liberation Mono\", Menlo, Courier, monospace", "no_data_font_size": 64, "foreground_strong": "#eee", "font_family": "Consolas, \"Liberation Mono\", Menlo, Courier, monospace", "label_font_family": "Consolas, \"Liberation Mono\", Menlo, Courier, monospace", "transition": "250ms", "major_guide_stroke_dasharray": "6,6", "foreground_subtle": "#555", "value_colors": [], "value_label_font_family": "Consolas, \"Liberation Mono\", Menlo, Courier, monospace", "guide_stroke_dasharray": "4,4", "major_label_font_size": 10, "legend_font_family": "Consolas, \"Liberation Mono\", Menlo, Courier, monospace", "major_label_font_family": "Consolas, \"Liberation Mono\", Menlo, Courier, monospace", "foreground": "#999", "colors": ["#ff5995", "#b6e354", "#feed6c", "#8cedff", "#9e6ffe", "#899ca1", "#f8f8f2", "#bf4646", "#516083", "#f92672", "#82b414", "#fd971f", "#56c2d6", "#808384", "#8c54fe", "#465457"], "legend_font_size": 14}, "y_labels_major": null, "x_label_rotation": 0, "max_scale": 16, "value_formatter": null, "dots_size": 2.5, "legend_at_bottom_columns": null, "force_uri_protocol": null, "x_value_formatter": null, "legend_box_size": 12, "include_x_axis": false, "y_label_rotation": 0, "show_x_labels": true, "inner_radius": 0, "no_prefix": false, "tooltip_border_radius": 0, "y_title": null}</script><script type="text/javascript" xlink:href="//kozea.github.io/pygal.js/2.0.x/pygal-tooltips.min.js" /></defs><title>Sala-Daeng 52</title><g class="graph line-graph vertical"><rect class="background" height="600" width="800" x="0" y="0" /><g class="plot" transform="translate(184, 46)"><rect class="background" height="514" width="596.0" x="0" y="0" /><g class="axis y"><path class="line" d="M0.000000 514.000000 h596.000000" /><g class="guides"><path class="guide line" d="M0.000000 498.779552 h596.000000" /><text class="" x="-5" y="502.2795515752045">640000.0</text><title>640000.0</title></g><g class="guides"><path class="major guide line" d="M0.000000 459.982797 h596.000000" /><text class="major" x="-5" y="463.4827969752049">650000.0</text><title>650000.0</title></g><g class="guides"><path class="guide line" d="M0.000000 421.186042 h596.000000" /><text class="" x="-5" y="424.6860423752053">660000.0</text><title>660000.0</title></g><g class="guides"><path class="guide line" d="M0.000000 382.389288 h596.000000" /><text class="" x="-5" y="385.88928777520573">670000.0</text><title>670000.0</title></g><g class="guides"><path class="guide line" d="M0.000000 343.592533 h596.000000" /><text class="" x="-5" y="347.09253317520614">680000.0</text><title>680000.0</title></g><g class="guides"><path class="guide line" d="M0.000000 304.795779 h596.000000" /><text class="" x="-5" y="308.29577857520655">690000.0</text><title>690000.0</title></g><g class="guides"><path class="major guide line" d="M0.000000 265.999024 h596.000000" /><text class="major" x="-5" y="269.4990239752069">700000.0</text><title>700000.0</title></g><g class="guides"><path class="guide line" d="M0.000000 227.202269 h596.000000" /><text class="" x="-5" y="230.70226937520732">710000.0</text><title>710000.0</title></g><g class="guides"><path class="guide line" d="M0.000000 188.405515 h596.000000" /><text class="" x="-5" y="191.90551477520773">720000.0</text><title>720000.0</title></g><g class="guides"><path class="guide line" d="M0.000000 149.608760 h596.000000" /><text class="" x="-5" y="153.10876017520815">730000.0</text><title>730000.0</title></g><g class="guides"><path class="guide line" d="M0.000000 110.812006 h596.000000" /><text class="" x="-5" y="114.31200557520856">740000.0</text><title>740000.0</title></g><g class="guides"><path class="major guide line" d="M0.000000 72.015251 h596.000000" /><text class="major" x="-5" y="75.51525097520897">750000.0</text><title>750000.0</title></g><g class="guides"><path class="guide line" d="M0.000000 33.218496 h596.000000" /><text class="" x="-5" y="36.71849637520933">760000.0</text><title>760000.0</title></g></g><g class="axis x"><g class="guides"><path class="line" d="M11.461538 0.000000 v514.000000" /><text class="" x="11.461538461538462" y="529.0">Jan</text></g><g class="guides"><path class="guide line" d="M63.559441 0.000000 v514.000000" /><text class="" x="63.55944055944057" y="529.0">Feb</text></g><g class="guides"><path class="guide line" d="M115.657343 0.000000 v514.000000" /><text class="" x="115.65734265734265" y="529.0">Mar</text></g><g class="guides"><path class="guide line" d="M167.755245 0.000000 v514.000000" /><text class="" x="167.75524475524475" y="529.0">Apr</text></g><g class="guides"><path class="guide line" d="M219.853147 0.000000 v514.000000" /><text class="" x="219.85314685314685" y="529.0">May</text></g><g class="guides"><path class="guide line" d="M271.951049 0.000000 v514.000000" /><text class="" x="271.9510489510489" y="529.0">Jun</text></g><g class="guides"><path class="guide line" d="M324.048951 0.000000 v514.000000" /><text class="" x="324.04895104895104" y="529.0">Jul</text></g><g class="guides"><path class="guide line" d="M376.146853 0.000000 v514.000000" /><text class="" x="376.1468531468531" y="529.0">Aug</text></g><g class="guides"><path class="guide line" d="M428.244755 0.000000 v514.000000" /><text class="" x="428.24475524475525" y="529.0">Sep</text></g><g class="guides"><path class="guide line" d="M480.342657 0.000000 v514.000000" /><text class="" x="480.3426573426574" y="529.0">Oct</text></g><g class="guides"><path class="guide line" d="M532.440559 0.000000 v514.000000" /><text class="" x="532.4405594405595" y="529.0">Nov</text></g><g class="guides"><path class="guide line" d="M584.538462 0.000000 v514.000000" /><text class="" x="584.5384615384614" y="529.0">Dec</text></g></g><g class="series serie-0 color-0"><path class="line reactive" d="M11.461538 514.000000 L11.461538 347.472209 11.669930 348.702410 11.878322 349.932544 12.086713 351.162543 12.295105 352.392339 12.503497 353.621866 12.711888 354.851056 12.920280 356.079841 13.128671 357.308153 13.337063 358.535927 13.545455 359.763093 13.753846 360.989584 13.962238 362.215334 14.170629 363.440275 14.379021 364.664338 14.587413 365.887457 14.795804 367.109565 15.004196 368.330594 15.212587 369.550475 15.420979 370.769143 15.629371 371.986529 15.837762 373.202567 16.046154 374.417188 16.254545 375.630325 16.462937 376.841911 16.671329 378.051878 16.879720 379.260159 17.088112 380.466686 17.296503 381.671392 17.504895 382.874210 17.713287 384.075071 17.921678 385.273910 18.130070 386.470657 18.338462 387.665246 18.546853 388.857610 18.755245 390.047680 18.963636 391.235389 19.172028 392.420670 19.380420 393.603456 19.588811 394.783679 19.797203 395.961271 20.005594 397.136166 20.213986 398.308295 20.422378 399.477591 20.630769 400.643987 20.839161 401.807416 21.047552 402.967809 21.255944 404.125100 21.464336 405.279220 21.672727 406.430104 21.881119 407.577682 22.089510 408.721888 22.297902 409.862654 22.506294 410.999913 22.714685 412.133597 22.923077 413.263639 23.131469 414.389971 23.339860 415.512526 23.548252 416.631237 23.756643 417.746036 23.965035 418.856856 24.173427 419.963628 24.381818 421.066287 24.590210 422.164763 24.798601 423.258991 25.006993 424.348901 25.215385 425.434428 25.423776 426.515503 25.632168 427.592059 25.840559 428.664029 26.048951 429.731345 26.257343 430.793940 26.465734 431.851746 26.674126 432.904695 26.882517 433.952721 27.090909 434.995756 27.299301 436.033732 27.507692 437.066583 27.716084 438.094239 27.924476 439.116635 28.132867 440.133703 28.341259 441.145375 28.549650 442.151584 28.758042 443.152261 28.966434 444.147341 29.174825 445.136755 29.383217 446.120437 29.591608 447.098317 29.800000 448.070330 30.008392 449.036408 30.216783 449.996482 30.425175 450.950487 30.633566 451.898353 30.841958 452.840015 31.050350 453.775404 31.258741 454.704452 31.467133 455.627094 31.675524 456.543260 31.883916 457.452884 32.092308 458.355898 32.300699 459.252235 32.509091 460.141827 32.717483 461.024607 32.925874 461.900507 33.134266 462.769461 33.342657 463.631399 33.551049 464.486256 33.759441 465.333963 33.967832 466.174454 34.176224 467.007660 34.384615 467.833514 34.593007 468.651950 34.801399 469.462898 35.009790 470.266292 35.218182 471.062065 35.426573 471.850149 35.634965 472.630477 35.843357 473.402980 36.051748 474.167592 36.260140 474.924246 36.468531 475.672873 36.676923 476.413406 36.885315 477.145778 37.093706 477.869922 37.302098 478.585770 37.510490 479.293254 37.718881 479.992308 37.927273 480.682862 38.135664 481.364852 38.344056 482.038208 38.552448 482.702863 38.760839 483.358750 38.969231 484.005801 39.177622 484.643949 39.386014 485.273127 39.594406 485.893267 39.802797 486.504302 40.011189 487.106163 40.219580 487.698785 40.427972 488.282099 40.636364 488.856037 40.844755 489.420533 41.053147 489.975519 41.261538 490.520927 41.469930 491.056690 41.678322 491.582741 41.886713 492.099012 42.095105 492.605436 42.303497 493.101945 42.511888 493.588471 42.720280 494.064948 42.928671 494.531308 43.137063 494.987484 43.345455 495.433407 43.553846 495.869011 43.762238 496.294228 43.970629 496.708991 44.179021 497.113232 44.387413 497.506883 44.595804 497.889878 44.804196 498.262149 45.012587 498.623628 45.220979 498.974249 45.429371 499.313942 45.637762 499.642642 45.846154 499.960281 46.054545 500.266791 46.262937 500.562104 46.471329 500.846154 46.679720 501.118872 46.888112 501.380192 47.096503 501.630046 47.304895 501.868367 47.513287 502.095086 47.721678 502.310137 47.930070 502.513452 48.138462 502.704964 48.346853 502.884605 48.555245 503.052308 48.763636 503.208006 48.972028 503.351630 49.180420 503.483114 49.388811 503.602390 49.597203 503.709390 49.805594 503.804048 50.013986 503.886295 50.222378 503.956064 50.430769 504.013289 50.639161 504.057900 50.847552 504.089832 51.055944 504.109016 51.264336 504.115385 51.472727 504.108871 51.681119 504.089408 51.889510 504.056927 52.097902 504.011361 52.306294 503.952644 52.514685 503.880706 52.723077 503.795482 52.931469 503.696903 53.139860 503.584901 53.348252 503.459411 53.556643 503.320363 53.765035 503.167691 53.973427 503.001327 54.181818 502.821204 54.390210 502.627255 54.598601 502.419411 54.806993 502.197605 55.015385 501.961771 55.223776 501.711840 55.432168 501.447745 55.640559 501.169418 55.848951 500.876793 56.057343 500.569802 56.265734 500.248376 56.474126 499.912450 56.682517 499.561955 56.890909 499.196824 57.099301 498.816989 57.307692 498.422384 57.516084 498.012940 57.724476 497.588590 57.932867 497.149266 58.141259 496.694903 58.349650 496.225430 58.558042 495.740782 58.766434 495.240892 58.974825 494.725690 59.183217 494.195111 59.391608 493.649086 59.600000 493.087548 59.808392 492.510430 60.016783 491.917664 60.225175 491.309182 60.433566 490.684919 60.641958 490.044805 60.850350 489.388773 61.058741 488.716756 61.267133 488.028687 61.475524 487.324498 61.683916 486.604122 61.892308 485.867491 62.100699 485.114537 62.309091 484.345194 62.517483 483.559394 62.725874 482.757069 62.934266 481.938152 63.142657 481.102575 63.351049 480.250272 63.559441 479.381174 63.767832 478.495252 63.976224 477.592623 64.184615 476.673443 64.393007 475.737868 64.601399 474.786053 64.809790 473.818154 65.018182 472.834325 65.226573 471.834723 65.434965 470.819504 65.643357 469.788821 65.851748 468.742832 66.060140 467.681691 66.268531 466.605554 66.476923 465.514576 66.685315 464.408914 66.893706 463.288721 67.102098 462.154155 67.310490 461.005370 67.518881 459.842522 67.727273 458.665766 67.935664 457.475258 68.144056 456.271153 68.352448 455.053607 68.560839 453.822775 68.769231 452.578813 68.977622 451.321876 69.186014 450.052120 69.394406 448.769700 69.602797 447.474771 69.811189 446.167490 70.019580 444.848011 70.227972 443.516491 70.436364 442.173084 70.644755 440.817946 70.853147 439.451232 71.061538 438.073099 71.269930 436.683701 71.478322 435.283194 71.686713 433.871734 71.895105 432.449475 72.103497 431.016574 72.311888 429.573186 72.520280 428.119466 72.728671 426.655571 72.937063 425.181654 73.145455 423.697872 73.353846 422.204381 73.562238 420.701336 73.770629 419.188891 73.979021 417.667204 74.187413 416.136429 74.395804 414.596721 74.604196 413.048237 74.812587 411.491131 75.020979 409.925560 75.229371 408.351678 75.437762 406.769641 75.646154 405.179605 75.854545 403.581726 76.062937 401.976157 76.271329 400.363056 76.479720 398.742577 76.688112 397.114877 76.896503 395.480109 77.104895 393.838431 77.313287 392.189997 77.521678 390.534964 77.730070 388.873485 77.938462 387.205718 78.146853 385.531817 78.355245 383.851938 78.563636 382.166236 78.772028 380.474867 78.980420 378.777987 79.188811 377.075750 79.397203 375.368313 79.605594 373.655830 79.813986 371.938457 80.022378 370.216351 80.230769 368.489665 80.439161 366.758557 80.647552 365.023180 80.855944 363.283691 81.064336 361.540245 81.272727 359.792998 81.481119 358.042105 81.689510 356.287722 81.897902 354.530003 82.106294 352.769105 82.314685 351.005184 82.523077 349.238393 82.731469 347.468890 82.939860 345.696829 83.148252 343.922367 83.356643 342.145657 83.565035 340.366857 83.773427 338.586121 83.981818 336.803605 84.190210 335.019464 84.398601 333.233854 84.606993 331.446930 84.815385 329.658849 85.023776 327.869764 85.232168 326.079832 85.440559 324.289209 85.648951 322.498049 85.857343 320.706509 86.065734 318.914743 86.274126 317.122908 86.482517 315.331158 86.690909 313.539649 86.899301 311.748537 87.107692 309.957977 87.316084 308.168125 87.524476 306.379135 87.732867 304.591165 87.941259 302.804368 88.149650 301.018901 88.358042 299.234919 88.566434 297.452577 88.774825 295.672031 88.983217 293.893437 89.191608 292.116950 89.400000 290.342725 89.608392 288.570918 89.816783 286.801685 90.025175 285.035180 90.233566 283.271559 90.441958 281.510979 90.650350 279.753594 90.858741 277.999559 91.067133 276.249031 91.275524 274.502165 91.483916 272.759115 91.692308 271.020039 91.900699 269.285091 92.109091 267.554426 92.317483 265.828201 92.525874 264.106570 92.734266 262.389689 92.942657 260.677714 93.151049 258.970800 93.359441 257.269103 93.567832 255.572777 93.776224 253.881979 93.984615 252.196865 94.193007 250.517588 94.401399 248.844306 94.609790 247.177173 94.818182 245.516345 95.026573 243.861978 95.234965 242.214226 95.443357 240.573246 95.651748 238.939193 95.860140 237.312222 96.068531 235.692488 96.276923 234.080149 96.485315 232.475358 96.693706 230.878271 96.902098 229.289044 97.110490 227.707832 97.318881 226.134791 97.527273 224.570076 97.735664 223.013843 97.944056 221.466247 98.152448 219.927444 98.360839 218.397589 98.569231 216.876837 98.777622 215.365345 98.986014 213.863267 99.194406 212.370759 99.402797 210.887977 99.611189 209.415075 99.819580 207.952211 100.027972 206.499538 100.236364 205.057212 100.444755 203.625390 100.653147 202.204226 100.861538 200.793876 101.069930 199.394496 101.278322 198.006240 101.486713 196.629264 101.695105 195.263725 101.903497 193.909777 102.111888 192.567575 102.320280 191.237276 102.528671 189.919035 102.737063 188.613007 102.945455 187.319347 103.153846 186.038212 103.362238 184.769757 103.570629 183.514136 103.779021 182.271507 103.987413 181.042023 104.195804 179.825841 104.404196 178.623117 104.612587 177.434004 104.820979 176.258660 105.029371 175.097240 105.237762 173.949898 105.446154 172.816791 105.654545 171.698074 105.862937 170.593903 106.071329 169.504432 106.279720 168.429818 106.488112 167.370216 106.696503 166.325781 106.904895 165.296669 107.113287 164.283035 107.321678 163.285036 107.530070 162.302825 107.738462 161.336560 107.946853 160.386394 108.155245 159.452485 108.363636 158.534987 108.572028 157.634055 108.780420 156.749846 108.988811 155.882514 109.197203 155.032216 109.405594 154.199106 109.613986 153.383341 109.822378 152.585075 110.030769 151.804464 110.239161 151.041664 110.447552 150.296829 110.655944 149.570117 110.864336 148.861681 111.072727 148.171678 111.281119 147.500263 111.489510 146.847592 111.697902 146.213819 111.906294 145.599101 112.114685 145.003593 112.323077 144.427450 112.531469 143.870828 112.739860 143.333882 112.948252 142.816769 113.156643 142.319642 113.365035 141.842659 113.573427 141.385974 113.781818 140.949742 113.990210 140.534120 114.198601 140.139262 114.406993 139.765325 114.615385 139.412464 114.823776 139.080833 115.032168 138.770590 115.240559 138.481888 115.448951 138.214885 115.657343 137.969734 115.865734 137.746544 116.074126 137.545231 116.282517 137.365664 116.490909 137.207712 116.699301 137.071243 116.907692 136.956125 117.116084 136.862228 117.324476 136.789420 117.532867 136.737569 117.741259 136.706544 117.949650 136.696215 118.158042 136.706448 118.366434 136.737114 118.574825 136.788081 118.783217 136.859217 118.991608 136.950390 119.200000 137.061471 119.408392 137.192326 119.616783 137.342825 119.825175 137.512837 120.033566 137.702230 120.241958 137.910872 120.450350 138.138633 120.658741 138.385381 120.867133 138.650984 121.075524 138.935311 121.283916 139.238231 121.492308 139.559613 121.700699 139.899324 121.909091 140.257234 122.117483 140.633212 122.325874 141.027125 122.534266 141.438843 122.742657 141.868234 122.951049 142.315167 123.159441 142.779510 123.367832 143.261132 123.576224 143.759902 123.784615 144.275688 123.993007 144.808358 124.201399 145.357783 124.409790 145.923829 124.618182 146.506366 124.826573 147.105263 125.034965 147.720387 125.243357 148.351608 125.451748 148.998795 125.660140 149.661815 125.868531 150.340537 126.076923 151.034831 126.285315 151.744565 126.493706 152.469606 126.702098 153.209825 126.910490 153.965089 127.118881 154.735268 127.327273 155.520229 127.535664 156.319842 127.744056 157.133975 127.952448 157.962496 128.160839 158.805275 128.369231 159.662180 128.577622 160.533079 128.786014 161.417842 128.994406 162.316336 129.202797 163.228431 129.411189 164.153994 129.619580 165.092896 129.827972 166.045004 130.036364 167.010186 130.244755 167.988312 130.453147 168.979251 130.661538 169.982870 130.869930 170.999038 131.078322 172.027625 131.286713 173.068498 131.495105 174.121526 131.703497 175.186578 131.911888 176.263523 132.120280 177.352229 132.328671 178.452565 132.537063 179.564399 132.745455 180.687600 132.953846 181.822037 133.162238 182.967578 133.370629 184.124091 133.579021 185.291447 133.787413 186.469512 133.995804 187.658156 134.204196 188.857248 134.412587 190.066655 134.620979 191.286247 134.829371 192.515892 135.037762 193.755459 135.246154 195.004817 135.454545 196.263834 135.662937 197.532378 135.871329 198.810319 136.079720 200.097524 136.288112 201.393864 136.496503 202.699205 136.704895 204.013417 136.913287 205.336369 137.121678 206.667929 137.330070 208.007965 137.538462 209.356347 137.746853 210.712943 137.955245 212.077621 138.163636 213.450250 138.372028 214.830699 138.580420 216.218837 138.788811 217.614532 138.997203 219.017652 139.205594 220.428067 139.413986 221.845644 139.622378 223.270253 139.830769 224.701762 140.039161 226.140040 140.247552 227.584956 140.455944 229.036377 140.664336 230.494173 140.872727 231.958212 141.081119 233.428364 141.289510 234.904495 141.497902 236.386476 141.706294 237.874175 141.914685 239.367460 142.123077 240.866200 142.331469 242.370263 142.539860 243.879519 142.748252 245.393836 142.956643 246.913082 143.165035 248.437126 143.373427 249.965837 143.581818 251.499083 143.790210 253.036734 143.998601 254.578657 144.206993 256.124721 144.415385 257.674795 144.623776 259.228747 144.832168 260.786447 145.040559 262.347762 145.248951 263.912562 145.457343 265.480714 145.665734 267.052088 145.874126 268.626552 146.082517 270.203976 146.290909 271.784226 146.499301 273.367173 146.707692 274.952684 146.916084 276.540629 147.124476 278.130875 147.332867 279.723292 147.541259 281.317748 147.749650 282.914112 147.958042 284.512253 148.166434 286.112038 148.374825 287.713338 148.583217 289.316019 148.791608 290.919951 149.000000 292.525003 149.208392 294.131043 149.416783 295.737940 149.625175 297.345562 149.833566 298.953779 150.041958 300.562457 150.250350 302.171468 150.458741 303.780678 150.667133 305.389956 150.875524 306.999172 151.083916 308.608193 151.292308 310.216889 151.500699 311.825128 151.709091 313.432778 151.917483 315.039709 152.125874 316.645788 152.334266 318.250885 152.542657 319.854868 152.751049 321.457606 152.959441 323.058967 153.167832 324.658820 153.376224 326.257034 153.584615 327.853477 153.793007 329.448018 154.001399 331.040525 154.209790 332.630867 154.418182 334.218913 154.626573 335.804532 154.834965 337.387591 155.043357 338.967960 155.251748 340.545507 155.460140 342.120101 155.668531 343.691610 155.876923 345.259903 156.085315 346.824849 156.293706 348.386317 156.502098 349.944174 156.710490 351.498290 156.918881 353.048533 157.127273 354.594772 157.335664 356.136875 157.544056 357.674711 157.752448 359.208149 157.960839 360.737057 158.169231 362.261305 158.377622 363.780759 158.586014 365.295290 158.794406 366.804766 159.002797 368.309055 159.211189 369.808026 159.419580 371.301547 159.627972 372.789488 159.836364 374.271717 160.044755 375.748102 160.253147 377.218512 160.461538 378.682817 160.669930 380.140883 160.878322 381.592581 161.086713 383.037778 161.295105 384.476343 161.503497 385.908145 161.711888 387.333053 161.920280 388.750935 162.128671 390.161659 162.337063 391.565095 162.545455 392.961111 162.753846 394.349576 162.962238 395.730357 163.170629 397.103325 163.379021 398.468347 163.587413 399.825292 163.795804 401.174028 164.004196 402.514425 164.212587 403.846352 164.420979 405.169675 164.629371 406.484265 164.837762 407.789989 165.046154 409.086718 165.254545 410.374318 165.462937 411.652658 165.671329 412.921608 165.879720 414.181036 166.088112 415.430811 166.296503 416.670801 166.504895 417.900874 166.713287 419.120900 166.921678 420.330747 167.130070 421.530284 167.338462 422.719379 167.546853 423.897900 167.755245 425.065718 167.963636 426.222723 168.172028 427.368903 168.380420 428.504270 168.588811 429.628833 168.797203 430.742605 169.005594 431.845596 169.213986 432.937817 169.422378 434.019279 169.630769 435.089993 169.839161 436.149970 170.047552 437.199221 170.255944 438.237757 170.464336 439.265589 170.672727 440.282728 170.881119 441.289185 171.089510 442.284971 171.297902 443.270097 171.506294 444.244574 171.714685 445.208413 171.923077 446.161625 172.131469 447.104221 172.339860 448.036212 172.548252 448.957608 172.756643 449.868422 172.965035 450.768663 173.173427 451.658344 173.381818 452.537474 173.590210 453.406065 173.798601 454.264128 174.006993 455.111673 174.215385 455.948713 174.423776 456.775257 174.632168 457.591317 174.840559 458.396904 175.048951 459.192028 175.257343 459.976702 175.465734 460.750935 175.674126 461.514739 175.882517 462.268124 176.090909 463.011102 176.299301 463.743684 176.507692 464.465881 176.716084 465.177703 176.924476 465.879162 177.132867 466.570269 177.341259 467.251034 177.549650 467.921469 177.758042 468.581585 177.966434 469.231392 178.174825 469.870901 178.383217 470.500125 178.591608 471.119073 178.800000 471.727756 179.008392 472.326186 179.216783 472.914374 179.425175 473.492330 179.633566 474.060065 179.841958 474.617592 180.050350 475.164919 180.258741 475.702059 180.467133 476.229023 180.675524 476.745821 180.883916 477.252464 181.092308 477.748964 181.300699 478.235332 181.509091 478.711578 181.717483 479.177713 181.925874 479.633748 182.134266 480.079695 182.342657 480.515565 182.551049 480.941368 182.759441 481.357115 182.967832 481.762817 183.176224 482.158486 183.384615 482.544132 183.593007 482.919766 183.801399 483.285400 184.009790 483.641044 184.218182 483.986709 184.426573 484.322407 184.634965 484.648147 184.843357 484.963942 185.051748 485.269803 185.260140 485.565739 185.468531 485.851763 185.676923 486.127885 185.885315 486.394116 186.093706 486.650467 186.302098 486.896949 186.510490 487.133574 186.718881 487.360352 186.927273 487.577293 187.135664 487.784410 187.344056 487.981713 187.552448 488.169213 187.760839 488.346922 187.969231 488.514849 188.177622 488.673006 188.386014 488.821405 188.594406 488.960055 188.802797 489.088968 189.011189 489.208156 189.219580 489.317628 189.427972 489.417397 189.636364 489.507472 189.844755 489.587866 190.053147 489.658588 190.261538 489.719650 190.469930 489.771064 190.678322 489.812839 190.886713 489.844987 191.095105 489.867519 191.303497 489.880446 191.511888 489.883779 191.720280 489.877528 191.928671 489.861706 192.137063 489.836322 192.345455 489.801389 192.553846 489.756916 192.762238 489.702915 192.970629 489.639396 193.179021 489.566372 193.387413 489.483852 193.595804 489.391848 193.804196 489.290371 194.012587 489.179431 194.220979 489.059040 194.429371 488.929209 194.637762 488.789949 194.846154 488.641271 195.054545 488.483185 195.262937 488.315702 195.471329 488.138835 195.679720 487.952593 195.888112 487.756988 196.096503 487.552030 196.304895 487.337731 196.513287 487.114102 196.721678 486.881153 196.930070 486.638896 197.138462 486.387341 197.346853 486.126500 197.555245 485.856384 197.763636 485.577003 197.972028 485.288368 198.180420 484.990492 198.388811 484.683383 198.597203 484.367054 198.805594 484.041516 199.013986 483.706779 199.222378 483.362855 199.430769 483.009754 199.639161 482.647487 199.847552 482.276066 200.055944 481.895501 200.264336 481.505804 200.472727 481.106985 200.681119 480.699056 200.889510 480.282027 201.097902 479.855909 201.306294 479.420714 201.514685 478.976452 201.723077 478.523134 201.931469 478.060772 202.139860 477.589376 202.348252 477.108957 202.556643 476.619527 202.765035 476.121095 202.973427 475.613675 203.181818 475.097275 203.390210 474.571908 203.598601 474.037583 203.806993 473.494313 204.015385 472.942109 204.223776 472.380980 204.432168 471.810939 204.640559 471.231996 204.848951 470.644162 205.057343 470.047448 205.265734 469.441865 205.474126 468.827425 205.682517 468.204137 205.890909 467.572014 206.099301 466.931066 206.307692 466.281303 206.516084 465.622738 206.724476 464.955381 206.932867 464.279243 207.141259 463.594335 207.349650 462.900669 207.558042 462.198254 207.766434 461.487102 207.974825 460.767224 208.183217 460.038631 208.391608 459.301334 208.600000 458.555344 208.808392 457.800672 209.016783 457.037329 209.225175 456.265326 209.433566 455.484674 209.641958 454.695384 209.850350 453.897466 210.058741 453.090933 210.267133 452.275794 210.475524 451.452062 210.683916 450.619746 210.892308 449.778858 211.100699 448.929408 211.309091 448.071409 211.517483 447.204870 211.725874 446.329804 211.934266 445.446220 212.142657 444.554129 212.351049 443.653544 212.559441 442.744474 212.767832 441.826931 212.976224 440.900926 213.184615 439.966469 213.393007 439.023573 213.601399 438.072246 213.809790 437.112502 214.018182 436.144350 214.226573 435.167802 214.434965 434.182869 214.643357 433.189561 214.851748 432.187890 215.060140 431.177866 215.268531 430.159501 215.476923 429.132806 215.685315 428.097791 215.893706 427.054468 216.102098 426.002847 216.310490 424.942940 216.518881 423.874757 216.727273 422.798310 216.935664 421.713610 217.144056 420.620667 217.352448 419.519492 217.560839 418.410097 217.769231 417.292493 217.977622 416.166690 218.186014 415.032699 218.394406 413.890532 218.602797 412.740199 218.811189 411.581712 219.019580 410.415081 219.227972 409.240317 219.436364 408.057432 219.644755 406.866436 219.853147 405.667341 220.061538 404.460171 220.269930 403.245008 220.478322 402.021950 220.686713 400.791093 220.895105 399.552532 221.103497 398.306364 221.311888 397.052686 221.520280 395.791594 221.728671 394.523183 221.937063 393.247552 222.145455 391.964795 222.353846 390.675010 222.562238 389.378293 222.770629 388.074739 222.979021 386.764446 223.187413 385.447510 223.395804 384.124027 223.604196 382.794093 223.812587 381.457805 224.020979 380.115260 224.229371 378.766553 224.437762 377.411781 224.646154 376.051040 224.854545 374.684427 225.062937 373.312038 225.271329 371.933969 225.479720 370.550317 225.688112 369.161178 225.896503 367.766649 226.104895 366.366825 226.313287 364.961804 226.521678 363.551681 226.730070 362.136553 226.938462 360.716516 227.146853 359.291667 227.355245 357.862102 227.563636 356.427918 227.772028 354.989210 227.980420 353.546075 228.188811 352.098609 228.397203 350.646910 228.605594 349.191072 228.813986 347.731193 229.022378 346.267369 229.230769 344.799697 229.439161 343.328271 229.647552 341.853190 229.855944 340.374549 230.064336 338.892445 230.272727 337.406974 230.481119 335.918232 230.689510 334.426316 230.897902 332.931323 231.106294 331.433347 231.314685 329.932487 231.523077 328.428838 231.731469 326.922496 231.939860 325.413558 232.148252 323.902121 232.356643 322.388280 232.565035 320.872133 232.773427 319.353774 232.981818 317.833302 233.190210 316.310812 233.398601 314.786400 233.606993 313.260163 233.815385 311.732197 234.023776 310.202598 234.232168 308.671464 234.440559 307.138890 234.648951 305.604972 234.857343 304.069808 235.065734 302.533493 235.274126 300.996124 235.482517 299.457796 235.690909 297.918607 235.899301 296.378653 236.107692 294.838031 236.316084 293.296835 236.524476 291.755164 236.732867 290.213113 236.941259 288.670778 237.149650 287.128257 237.358042 285.585644 237.566434 284.043038 237.774825 282.500534 237.983217 280.958228 238.191608 279.416216 238.400000 277.874596 238.608392 276.333464 238.816783 274.792915 239.025175 273.253047 239.233566 271.713955 239.441958 270.175736 239.650350 268.638486 239.858741 267.102302 240.067133 265.567280 240.275524 264.033517 240.483916 262.501108 240.692308 260.970151 240.900699 259.440741 241.109091 257.912974 241.317483 256.386948 241.525874 254.862759 241.734266 253.340502 241.942657 251.820275 242.151049 250.302174 242.359441 248.786294 242.567832 247.272733 242.776224 245.761586 242.984615 244.252951 243.193007 242.746923 243.401399 241.243599 243.609790 239.743075 243.818182 238.245448 244.026573 236.750813 244.234965 235.259268 244.443357 233.770909 244.651748 232.285831 244.860140 230.804132 245.068531 229.325907 245.276923 227.851254 245.485315 226.380268 245.693706 224.913046 245.902098 223.449684 246.110490 221.990278 246.318881 220.534926 246.527273 219.083722 246.735664 217.636765 246.944056 216.194149 247.152448 214.755971 247.360839 213.322329 247.569231 211.893317 247.777622 210.469033 247.986014 209.049572 248.194406 207.635032 248.402797 206.225508 248.611189 204.821097 248.819580 203.421895 249.027972 202.027998 249.236364 200.639504 249.444755 199.256508 249.653147 197.879107 249.861538 196.507396 250.069930 195.141473 250.278322 193.781434 250.486713 192.427375 250.695105 191.079393 250.903497 189.737583 251.111888 188.402042 251.320280 187.072867 251.528671 185.750154 251.737063 184.433999 251.945455 183.124499 252.153846 181.821750 252.362238 180.525848 252.570629 179.236890 252.779021 177.954972 252.987413 176.680190 253.195804 175.412641 253.404196 174.152422 253.612587 172.899628 253.820979 171.654355 254.029371 170.416701 254.237762 169.186762 254.446154 167.964634 254.654545 166.750413 254.862937 165.544195 255.071329 164.346078 255.279720 163.156157 255.488112 161.974529 255.696503 160.801290 255.904895 159.636537 256.113287 158.480365 256.321678 157.332872 256.530070 156.194153 256.738462 155.064305 256.946853 153.943425 257.155245 152.831608 257.363636 151.728951 257.572028 150.635551 257.780420 149.551503 257.988811 148.476905 258.197203 147.411852 258.405594 146.356441 258.613986 145.310768 258.822378 144.274929 259.030769 143.249022 259.239161 142.233142 259.447552 141.227385 259.655944 140.231848 259.864336 139.246628 260.072727 138.271821 260.281119 137.307523 260.489510 136.353830 260.697902 135.410839 260.906294 134.478646 261.114685 133.557347 261.323077 132.647040 261.531469 131.747820 261.739860 130.859783 261.948252 129.983026 262.156643 129.117646 262.365035 128.263739 262.573427 127.421400 262.781818 126.590727 262.990210 125.771816 263.198601 124.964763 263.406993 124.169664 263.615385 123.386617 263.823776 122.615716 264.032168 121.857059 264.240559 121.110742 264.448951 120.376862 264.657343 119.655514 264.865734 118.946795 265.074126 118.250801 265.282517 117.567630 265.490909 116.897376 265.699301 116.240137 265.907692 115.596009 266.116084 114.965088 266.324476 114.347470 266.532867 113.743253 266.741259 113.152532 266.949650 112.575403 267.158042 112.011964 267.366434 111.462310 267.574825 110.926537 267.783217 110.404743 267.991608 109.897023 268.200000 109.403474 268.408392 108.924192 268.616783 108.459274 268.825175 108.008815 269.033566 107.572913 269.241958 107.151664 269.450350 106.745163 269.658741 106.353508 269.867133 105.976795 270.075524 105.615119 270.283916 105.268579 270.492308 104.937269 270.700699 104.621286 270.909091 104.320726 271.117483 104.035687 271.325874 103.766263 271.534266 103.512553 271.742657 103.274651 271.951049 103.052655 272.159441 102.846626 272.367832 102.656490 272.576224 102.482137 272.784615 102.323460 272.993007 102.180349 273.201399 102.052695 273.409790 101.940389 273.618182 101.843323 273.826573 101.761387 274.034965 101.694473 274.243357 101.642471 274.451748 101.605273 274.660140 101.582770 274.868531 101.574853 275.076923 101.581413 275.285315 101.602341 275.493706 101.637528 275.702098 101.686866 275.910490 101.750245 276.118881 101.827556 276.327273 101.918691 276.535664 102.023541 276.744056 102.141997 276.952448 102.273950 277.160839 102.419290 277.369231 102.577910 277.577622 102.749700 277.786014 102.934551 277.994406 103.132354 278.202797 103.343001 278.411189 103.566383 278.619580 103.802390 278.827972 104.050914 279.036364 104.311846 279.244755 104.585077 279.453147 104.870498 279.661538 105.168000 279.869930 105.477474 280.078322 105.798812 280.286713 106.131904 280.495105 106.476642 280.703497 106.832916 280.911888 107.200618 281.120280 107.579639 281.328671 107.969870 281.537063 108.371202 281.745455 108.783526 281.953846 109.206733 282.162238 109.640714 282.370629 110.085361 282.579021 110.540565 282.787413 111.006216 282.995804 111.482205 283.204196 111.968425 283.412587 112.464765 283.620979 112.971117 283.829371 113.487373 284.037762 114.013422 284.246154 114.549157 284.454545 115.094468 284.662937 115.649247 284.871329 116.213384 285.079720 116.786771 285.288112 117.369299 285.496503 117.960858 285.704895 118.561341 285.913287 119.170637 286.121678 119.788639 286.330070 120.415237 286.538462 121.050322 286.746853 121.693786 286.955245 122.345519 287.163636 123.005413 287.372028 123.673358 287.580420 124.349246 287.788811 125.032969 287.997203 125.724416 288.205594 126.423479 288.413986 127.130050 288.622378 127.844018 288.830769 128.565277 289.039161 129.293715 289.247552 130.029226 289.455944 130.771699 289.664336 131.521025 289.872727 132.277097 290.081119 133.039804 290.289510 133.809039 290.497902 134.584692 290.706294 135.366654 290.914685 136.154816 291.123077 136.949070 291.331469 137.749306 291.539860 138.555416 291.748252 139.367291 291.956643 140.184822 292.165035 141.007899 292.373427 141.836415 292.581818 142.670259 292.790210 143.509324 292.998601 144.353500 293.206993 145.202679 293.415385 146.056751 293.623776 146.915608 293.832168 147.779140 294.040559 148.647239 294.248951 149.519796 294.457343 150.396702 294.665734 151.277849 294.874126 152.163126 295.082517 153.052425 295.290909 153.945638 295.499301 154.842656 295.707692 155.743369 295.916084 156.647669 296.124476 157.555446 296.332867 158.466592 296.541259 159.380998 296.749650 160.298556 296.958042 161.219155 297.166434 162.142688 297.374825 163.069045 297.583217 163.998117 297.791608 164.929796 298.000000 165.863973 298.208392 166.800538 298.416783 167.739383 298.625175 168.680399 298.833566 169.623477 299.041958 170.568508 299.250350 171.515384 299.458741 172.463994 299.667133 173.414231 299.875524 174.365986 300.083916 175.319149 300.292308 176.273612 300.500699 177.229265 300.709091 178.186000 300.917483 179.143709 301.125874 180.102281 301.334266 181.061609 301.542657 182.021583 301.751049 182.982094 301.959441 183.943034 302.167832 184.904293 302.376224 185.865763 302.584615 186.827334 302.793007 187.788899 303.001399 188.750347 303.209790 189.711571 303.418182 190.672460 303.626573 191.632907 303.834965 192.592802 304.043357 193.552036 304.251748 194.510501 304.460140 195.468088 304.668531 196.424687 304.876923 197.380190 305.085315 198.334488 305.293706 199.287472 305.502098 200.239033 305.710490 201.189063 305.918881 202.137451 306.127273 203.084090 306.335664 204.028870 306.544056 204.971683 306.752448 205.912420 306.960839 206.850971 307.169231 207.787229 307.377622 208.721083 307.586014 209.652425 307.794406 210.581146 308.002797 211.507138 308.211189 212.430291 308.419580 213.350496 308.627972 214.267645 308.836364 215.181629 309.044755 216.092338 309.253147 216.999664 309.461538 217.903498 309.669930 218.803731 309.878322 219.700254 310.086713 220.592958 310.295105 221.481735 310.503497 222.366475 310.711888 223.247070 310.920280 224.123410 311.128671 224.995386 311.337063 225.862891 311.545455 226.725814 311.753846 227.584048 311.962238 228.437482 312.170629 229.286009 312.379021 230.129519 312.587413 230.967903 312.795804 231.801053 313.004196 232.628859 313.212587 233.451213 313.420979 234.268006 313.629371 235.079128 313.837762 235.884472 314.046154 236.683927 314.254545 237.477386 314.462937 238.264738 314.671329 239.045877 314.879720 239.820691 315.088112 240.589073 315.296503 241.350914 315.504895 242.106104 315.713287 242.854535 315.921678 243.596098 316.130070 244.330684 316.338462 245.058185 316.546853 245.778490 316.755245 246.491492 316.963636 247.197081 317.172028 247.895148 317.380420 248.585585 317.588811 249.268283 317.797203 249.943132 318.005594 250.610025 318.213986 251.268851 318.422378 251.919502 318.630769 252.561870 318.839161 253.195845 319.047552 253.821318 319.255944 254.438180 319.464336 255.046323 319.672727 255.645638 319.881119 256.236015 320.089510 256.817347 320.297902 257.389523 320.506294 257.952435 320.714685 258.505974 320.923077 259.050032 321.131469 259.584498 321.339860 260.109266 321.548252 260.624224 321.756643 261.129265 321.965035 261.624280 322.173427 262.109160 322.381818 262.583796 322.590210 263.048078 322.798601 263.501899 323.006993 263.945149 323.215385 264.377719 323.423776 264.799500 323.632168 265.210384 323.840559 265.610262 324.048951 265.999024 324.257343 266.376591 324.465734 266.742997 324.674126 267.098306 324.882517 267.442581 325.090909 267.775887 325.299301 268.098287 325.507692 268.409845 325.716084 268.710624 325.924476 269.000688 326.132867 269.280100 326.341259 269.548924 326.549650 269.807224 326.758042 270.055064 326.966434 270.292507 327.174825 270.519616 327.383217 270.736456 327.591608 270.943090 327.800000 271.139581 328.008392 271.325994 328.216783 271.502392 328.425175 271.668838 328.633566 271.825397 328.841958 271.972131 329.050350 272.109105 329.258741 272.236382 329.467133 272.354026 329.675524 272.462100 329.883916 272.560668 330.092308 272.649794 330.300699 272.729542 330.509091 272.799974 330.717483 272.861155 330.925874 272.913148 331.134266 272.956017 331.342657 272.989826 331.551049 273.014638 331.759441 273.030517 331.967832 273.037526 332.176224 273.035730 332.384615 273.025191 332.593007 273.005973 332.801399 272.978141 333.009790 272.941757 333.218182 272.896886 333.426573 272.843591 333.634965 272.781935 333.843357 272.711983 334.051748 272.633797 334.260140 272.547442 334.468531 272.452981 334.676923 272.350478 334.885315 272.239997 335.093706 272.121600 335.302098 271.995353 335.510490 271.861317 335.718881 271.719558 335.927273 271.570138 336.135664 271.413122 336.344056 271.248573 336.552448 271.076554 336.760839 270.897130 336.969231 270.710363 337.177622 270.516318 337.386014 270.315058 337.594406 270.106647 337.802797 269.891149 338.011189 269.668626 338.219580 269.439143 338.427972 269.202764 338.636364 268.959551 338.844755 268.709570 339.053147 268.452882 339.261538 268.189553 339.469930 267.919645 339.678322 267.643222 339.886713 267.360348 340.095105 267.071087 340.303497 266.775502 340.511888 266.473657 340.720280 266.165615 340.928671 265.851440 341.137063 265.531196 341.345455 265.204946 341.553846 264.872754 341.762238 264.534684 341.970629 264.190799 342.179021 263.841163 342.387413 263.485840 342.595804 263.124893 342.804196 262.758385 343.012587 262.386382 343.220979 262.008945 343.429371 261.626139 343.637762 261.238027 343.846154 260.844674 344.054545 260.446142 344.262937 260.042496 344.471329 259.633798 344.679720 259.220114 344.888112 258.801505 345.096503 258.378037 345.304895 257.949771 345.513287 257.516774 345.721678 257.079107 345.930070 256.636834 346.138462 256.190019 346.346853 255.738727 346.555245 255.283019 346.763636 254.822961 346.972028 254.358616 347.180420 253.890046 347.388811 253.417317 347.597203 252.940491 347.805594 252.459633 348.013986 251.974805 348.222378 251.486072 348.430769 250.993498 348.639161 250.497145 348.847552 249.997077 349.055944 249.493358 349.264336 248.986053 349.472727 248.475223 349.681119 247.960934 349.889510 247.443248 350.097902 246.922230 350.306294 246.397943 350.514685 245.870450 350.723077 245.339815 350.931469 244.806102 351.139860 244.269375 351.348252 243.729697 351.556643 243.187132 351.765035 242.641743 351.973427 242.093594 352.181818 241.542749 352.390210 240.989272 352.598601 240.433225 352.806993 239.874673 353.015385 239.313679 353.223776 238.750308 353.432168 238.184621 353.640559 237.616684 353.848951 237.046560 354.057343 236.474313 354.265734 235.900005 354.474126 235.323701 354.682517 234.745465 354.890909 234.165360 355.099301 233.583449 355.307692 232.999797 355.516084 232.414467 355.724476 231.827522 355.932867 231.239027 356.141259 230.649044 356.349650 230.057639 356.558042 229.464873 356.766434 228.870811 356.974825 228.275517 357.183217 227.679054 357.391608 227.081485 357.600000 226.482875 357.808392 225.883287 358.016783 225.282785 358.225175 224.681432 358.433566 224.079292 358.641958 223.476428 358.850350 222.872905 359.058741 222.268786 359.267133 221.664134 359.475524 221.059014 359.683916 220.453488 359.892308 219.847621 360.100699 219.241476 360.309091 218.635116 360.517483 218.028606 360.725874 217.422009 360.934266 216.815389 361.142657 216.208809 361.351049 215.602333 361.559441 214.996024 361.767832 214.389947 361.976224 213.784165 362.184615 213.178741 362.393007 212.573739 362.601399 211.969223 362.809790 211.365257 363.018182 210.761903 363.226573 210.159227 363.434965 209.557291 363.643357 208.956158 363.851748 208.355894 364.060140 207.756560 364.268531 207.158222 364.476923 206.560942 364.685315 205.964785 364.893706 205.369813 365.102098 204.776091 365.310490 204.183682 365.518881 203.592650 365.727273 203.003058 365.935664 202.414970 366.144056 201.828450 366.352448 201.243561 366.560839 200.660367 366.769231 200.078932 366.977622 199.499319 367.186014 198.921593 367.394406 198.345815 367.602797 197.772051 367.811189 197.200364 368.019580 196.630817 368.227972 196.063474 368.436364 195.498399 368.644755 194.935656 368.853147 194.375307 369.061538 193.817418 369.269930 193.262050 369.478322 192.709269 369.686713 192.159137 369.895105 191.611718 370.103497 191.067077 370.311888 190.525275 370.520280 189.986379 370.728671 189.450449 370.937063 188.917552 371.145455 188.387749 371.353846 187.861105 371.562238 187.337684 371.770629 186.817549 371.979021 186.300763 372.187413 185.787390 372.395804 185.277495 372.604196 184.771140 372.812587 184.268390 373.020979 183.769307 373.229371 183.273956 373.437762 182.782400 373.646154 182.294702 373.854545 181.810928 374.062937 181.331139 374.271329 180.855400 374.479720 180.383774 374.688112 179.916326 374.896503 179.453118 375.104895 178.994214 375.313287 178.539679 375.521678 178.089575 375.730070 177.643966 375.938462 177.202916 376.146853 176.766488 376.355245 176.334733 376.563636 175.907643 376.772028 175.485199 376.980420 175.067379 377.188811 174.654163 377.397203 174.245530 377.605594 173.841461 377.813986 173.441934 378.022378 173.046929 378.230769 172.656426 378.439161 172.270403 378.647552 171.888841 378.855944 171.511719 379.064336 171.139016 379.272727 170.770712 379.481119 170.406787 379.689510 170.047219 379.897902 169.691989 380.106294 169.341075 380.314685 168.994458 380.523077 168.652116 380.731469 168.314030 380.939860 167.980179 381.148252 167.650541 381.356643 167.325097 381.565035 167.003827 381.773427 166.686709 381.981818 166.373723 382.190210 166.064849 382.398601 165.760066 382.606993 165.459353 382.815385 165.162690 383.023776 164.870057 383.232168 164.581433 383.440559 164.296798 383.648951 164.016130 383.857343 163.739410 384.065734 163.466616 384.274126 163.197729 384.482517 162.932728 384.690909 162.671593 384.899301 162.414302 385.107692 162.160835 385.316084 161.911172 385.524476 161.665293 385.732867 161.423176 385.941259 161.184802 386.149650 160.950149 386.358042 160.719197 386.566434 160.491927 386.774825 160.268316 386.983217 160.048345 387.191608 159.831993 387.400000 159.619239 387.608392 159.410064 387.816783 159.204446 388.025175 159.002366 388.233566 158.803801 388.441958 158.608733 388.650350 158.417141 388.858741 158.229003 389.067133 158.044299 389.275524 157.863010 389.483916 157.685114 389.692308 157.510591 389.900699 157.339420 390.109091 157.171581 390.317483 157.007054 390.525874 156.845817 390.734266 156.687850 390.942657 156.533133 391.151049 156.381646 391.359441 156.233367 391.567832 156.088276 391.776224 155.946354 391.984615 155.807578 392.193007 155.671929 392.401399 155.539386 392.609790 155.409928 392.818182 155.283536 393.026573 155.160188 393.234965 155.039864 393.443357 154.922544 393.651748 154.808207 393.860140 154.696832 394.068531 154.588399 394.276923 154.482888 394.485315 154.380278 394.693706 154.280548 394.902098 154.183678 395.110490 154.089647 395.318881 153.998435 395.527273 153.910021 395.735664 153.824386 395.944056 153.741507 396.152448 153.661365 396.360839 153.583940 396.569231 153.509210 396.777622 153.437156 396.986014 153.367756 397.194406 153.300990 397.402797 153.236838 397.611189 153.175279 397.819580 153.116293 398.027972 153.059858 398.236364 153.005956 398.444755 152.954564 398.653147 152.905663 398.861538 152.859232 399.069930 152.815250 399.278322 152.773697 399.486713 152.734553 399.695105 152.697797 399.903497 152.663408 400.111888 152.631366 400.320280 152.601650 400.528671 152.574241 400.737063 152.549116 400.945455 152.526257 401.153846 152.505641 401.362238 152.487250 401.570629 152.471061 401.779021 152.457056 401.987413 152.445212 402.195804 152.435511 402.404196 152.427930 402.612587 152.422450 402.820979 152.419050 403.029371 152.417710 403.237762 152.418409 403.446154 152.421127 403.654545 152.425842 403.862937 152.432535 404.071329 152.441185 404.279720 152.451772 404.488112 152.464274 404.696503 152.478672 404.904895 152.494945 405.113287 152.513073 405.321678 152.533034 405.530070 152.554808 405.738462 152.578376 405.946853 152.603716 406.155245 152.630807 406.363636 152.659630 406.572028 152.690164 406.780420 152.722388 406.988811 152.756281 407.197203 152.791824 407.405594 152.828995 407.613986 152.867775 407.822378 152.908143 408.030769 152.950077 408.239161 152.993558 408.447552 153.038565 408.655944 153.085078 408.864336 153.133076 409.072727 153.182538 409.281119 153.233445 409.489510 153.285774 409.697902 153.339507 409.906294 153.394623 410.114685 153.451100 410.323077 153.508918 410.531469 153.568058 410.739860 153.628498 410.948252 153.690218 411.156643 153.753197 411.365035 153.817415 411.573427 153.882851 411.781818 153.949485 411.990210 154.017296 412.198601 154.086264 412.406993 154.156368 412.615385 154.227588 412.823776 154.299903 413.032168 154.373293 413.240559 154.447737 413.448951 154.523214 413.657343 154.599705 413.865734 154.677188 414.074126 154.755643 414.282517 154.835050 414.490909 154.915388 414.699301 154.996636 414.907692 155.078774 415.116084 155.161782 415.324476 155.245638 415.532867 155.330323 415.741259 155.415816 415.949650 155.502097 416.158042 155.589144 416.366434 155.676937 416.574825 155.765457 416.783217 155.854681 416.991608 155.944591 417.200000 156.035164 417.408392 156.126382 417.616783 156.218223 417.825175 156.310666 418.033566 156.403691 418.241958 156.497279 418.450350 156.591407 418.658741 156.686056 418.867133 156.781205 419.075524 156.876833 419.283916 156.972921 419.492308 157.069447 419.700699 157.166392 419.909091 157.263733 420.117483 157.361452 420.325874 157.459527 420.534266 157.557938 420.742657 157.656665 420.951049 157.755686 421.159441 157.854982 421.367832 157.954532 421.576224 158.054315 421.784615 158.154311 421.993007 158.254499 422.201399 158.354859 422.409790 158.455370 422.618182 158.556012 422.826573 158.656764 423.034965 158.757606 423.243357 158.858517 423.451748 158.959477 423.660140 159.060465 423.868531 159.161460 424.076923 159.262443 424.285315 159.363392 424.493706 159.464287 424.702098 159.565108 424.910490 159.665834 425.118881 159.766444 425.327273 159.866919 425.535664 159.967236 425.744056 160.067377 425.952448 160.167320 426.160839 160.267045 426.369231 160.366532 426.577622 160.465759 426.786014 160.564707 426.994406 160.663354 427.202797 160.761681 427.411189 160.859667 427.619580 160.957291 427.827972 161.054532 428.036364 161.151371 428.244755 161.247787 428.453147 161.343760 428.661538 161.439276 428.869930 161.534323 429.078322 161.628887 429.286713 161.722956 429.495105 161.816518 429.703497 161.909558 429.911888 162.002065 430.120280 162.094025 430.328671 162.185425 430.537063 162.276253 430.745455 162.366496 430.953846 162.456142 431.162238 162.545176 431.370629 162.633587 431.579021 162.721361 431.787413 162.808485 431.995804 162.894948 432.204196 162.980735 432.412587 163.065835 432.620979 163.150233 432.829371 163.233918 433.037762 163.316877 433.246154 163.399096 433.454545 163.480563 433.662937 163.561266 433.871329 163.641190 434.079720 163.720323 434.288112 163.798653 434.496503 163.876167 434.704895 163.952851 434.913287 164.028694 435.121678 164.103681 435.330070 164.177800 435.538462 164.251039 435.746853 164.323385 435.955245 164.394824 436.163636 164.465344 436.372028 164.534931 436.580420 164.603574 436.788811 164.671259 436.997203 164.737974 437.205594 164.803705 437.413986 164.868440 437.622378 164.932166 437.830769 164.994870 438.039161 165.056539 438.247552 165.117160 438.455944 165.176721 438.664336 165.235209 438.872727 165.292610 439.081119 165.348912 439.289510 165.404102 439.497902 165.458168 439.706294 165.511096 439.914685 165.562873 440.123077 165.613488 440.331469 165.662926 440.539860 165.711175 440.748252 165.758222 440.956643 165.804055 441.165035 165.848660 441.373427 165.892024 441.581818 165.934136 441.790210 165.974981 441.998601 166.014547 442.206993 166.052822 442.415385 166.089792 442.623776 166.125444 442.832168 166.159767 443.040559 166.192746 443.248951 166.224369 443.457343 166.254623 443.665734 166.283495 443.874126 166.310973 444.082517 166.337044 444.290909 166.361694 444.499301 166.384911 444.707692 166.406682 444.916084 166.426994 445.124476 166.445835 445.332867 166.463191 445.541259 166.479050 445.749650 166.493399 445.958042 166.506224 446.166434 166.517514 446.374825 166.527255 446.583217 166.535435 446.791608 166.542040 447.000000 166.547057 447.208392 166.550475 447.416783 166.552280 447.625175 166.552458 447.833566 166.550999 448.041958 166.547887 448.250350 166.543111 448.458741 166.536658 448.667133 166.528515 448.875524 166.518669 449.083916 166.507108 449.292308 166.493817 449.500699 166.478786 449.709091 166.462000 449.917483 166.443446 450.125874 166.423113 450.334266 166.400987 450.542657 166.377055 450.751049 166.351305 450.959441 166.323723 451.167832 166.294297 451.376224 166.263014 451.584615 166.229861 451.793007 166.194826 452.001399 166.157894 452.209790 166.119054 452.418182 166.078293 452.626573 166.035598 452.834965 165.990956 453.043357 165.944353 453.251748 165.895778 453.460140 165.845218 453.668531 165.792659 453.876923 165.738089 454.085315 165.681494 454.293706 165.622863 454.502098 165.562182 454.710490 165.499438 454.918881 165.434619 455.127273 165.367712 455.335664 165.298703 455.544056 165.227580 455.752448 165.154330 455.960839 165.078941 456.169231 165.001399 456.377622 164.921691 456.586014 164.839806 456.794406 164.755729 457.002797 164.669448 457.211189 164.580950 457.419580 164.490223 457.627972 164.397253 457.836364 164.302028 458.044755 164.204534 458.253147 164.104760 458.461538 164.002691 458.669930 163.898316 458.878322 163.791621 459.086713 163.682594 459.295105 163.571221 459.503497 163.457490 459.711888 163.341389 459.920280 163.222903 460.128671 163.102021 460.337063 162.978729 460.545455 162.853015 460.753846 162.724865 460.962238 162.594267 461.170629 162.461209 461.379021 162.325677 461.587413 162.187658 461.795804 162.047139 462.004196 161.904108 462.212587 161.758552 462.420979 161.610458 462.629371 161.459814 462.837762 161.306605 463.046154 161.150820 463.254545 160.992445 463.462937 160.831468 463.671329 160.667876 463.879720 160.501656 464.088112 160.332796 464.296503 160.161281 464.504895 159.987100 464.713287 159.810240 464.921678 159.630688 465.130070 159.448430 465.338462 159.263455 465.546853 159.075749 465.755245 158.885299 465.963636 158.692093 466.172028 158.496117 466.380420 158.297360 466.588811 158.095807 466.797203 157.891447 467.005594 157.684266 467.213986 157.474251 467.422378 157.261390 467.630769 157.045670 467.839161 156.827077 468.047552 156.605600 468.255944 156.381225 468.464336 156.153939 468.672727 155.923730 468.881119 155.690585 469.089510 155.454490 469.297902 155.215434 469.506294 154.973402 469.714685 154.728383 469.923077 154.480364 470.131469 154.229330 470.339860 153.975271 470.548252 153.718173 470.756643 153.458022 470.965035 153.194807 471.173427 152.928514 471.381818 152.659131 471.590210 152.386644 471.798601 152.111041 472.006993 151.832310 472.215385 151.550436 472.423776 151.265407 472.632168 150.977211 472.840559 150.685835 473.048951 150.391265 473.257343 150.093489 473.465734 149.792494 473.674126 149.488268 473.882517 149.180796 474.090909 148.870068 474.299301 148.556068 474.507692 148.238786 474.716084 147.918208 474.924476 147.594320 475.132867 147.267111 475.341259 146.936567 475.549650 146.602676 475.758042 146.265425 475.966434 145.924800 476.174825 145.580790 476.383217 145.233380 476.591608 144.882559 476.800000 144.528313 477.008392 144.170630 477.216783 143.809497 477.425175 143.444901 477.633566 143.076828 477.841958 142.705267 478.050350 142.330205 478.258741 141.951628 478.467133 141.569523 478.675524 141.183879 478.883916 140.794681 479.092308 140.401917 479.300699 140.005575 479.509091 139.605641 479.717483 139.202103 479.925874 138.794948 480.134266 138.384162 480.342657 137.969734 480.551049 137.551658 480.759441 137.129962 480.967832 136.704683 481.176224 136.275856 481.384615 135.843518 481.593007 135.407706 481.801399 134.968454 482.009790 134.525800 482.218182 134.079779 482.426573 133.630428 482.634965 133.177782 482.843357 132.721878 483.051748 132.262753 483.260140 131.800442 483.468531 131.334981 483.676923 130.866407 483.885315 130.394755 484.093706 129.920062 484.302098 129.442364 484.510490 128.961698 484.718881 128.478099 484.927273 127.991603 485.135664 127.502247 485.344056 127.010067 485.552448 126.515098 485.760839 126.017378 485.969231 125.516942 486.177622 125.013827 486.386014 124.508068 486.594406 123.999702 486.802797 123.488764 487.011189 122.975292 487.219580 122.459321 487.427972 121.940887 487.636364 121.420027 487.844755 120.896777 488.053147 120.371172 488.261538 119.843250 488.469930 119.313045 488.678322 118.780595 488.886713 118.245935 489.095105 117.709102 489.303497 117.170132 489.511888 116.629061 489.720280 116.085924 489.928671 115.540759 490.137063 114.993602 490.345455 114.444488 490.553846 113.893453 490.762238 113.340535 490.970629 112.785768 491.179021 112.229190 491.387413 111.670836 491.595804 111.110743 491.804196 110.548946 492.012587 109.985482 492.220979 109.420387 492.429371 108.853697 492.637762 108.285448 492.846154 107.715677 493.054545 107.144420 493.262937 106.571712 493.471329 105.997590 493.679720 105.422090 493.888112 104.845249 494.096503 104.267101 494.304895 103.687685 494.513287 103.107035 494.721678 102.525187 494.930070 101.942179 495.138462 101.358046 495.346853 100.772824 495.555245 100.186550 495.763636 99.599260 495.972028 99.010989 496.180420 98.421774 496.388811 97.831651 496.597203 97.240657 496.805594 96.648827 497.013986 96.056197 497.222378 95.462804 497.430769 94.868684 497.639161 94.273873 497.847552 93.678408 498.055944 93.082323 498.264336 92.485656 498.472727 91.888443 498.681119 91.290720 498.889510 90.692523 499.097902 90.093887 499.306294 89.494850 499.514685 88.895448 499.723077 88.295716 499.931469 87.695691 500.139860 87.095409 500.348252 86.494905 500.556643 85.894217 500.765035 85.293381 500.973427 84.692432 501.181818 84.091407 501.390210 83.490341 501.598601 82.889272 501.806993 82.288234 502.015385 81.687265 502.223776 81.086401 502.432168 80.485677 502.640559 79.885130 502.848951 79.284796 503.057343 78.684711 503.265734 78.084911 503.474126 77.485433 503.682517 76.886312 503.890909 76.287585 504.099301 75.689288 504.307692 75.091457 504.516084 74.494128 504.724476 73.897338 504.932867 73.301122 505.141259 72.705517 505.349650 72.110558 505.558042 71.516283 505.766434 70.922726 505.974825 70.329925 506.183217 69.737916 506.391608 69.146734 506.600000 68.556416 506.808392 67.966997 507.016783 67.378515 507.225175 66.791005 507.433566 66.204504 507.641958 65.619047 507.850350 65.034670 508.058741 64.451411 508.267133 63.869305 508.475524 63.288387 508.683916 62.708695 508.892308 62.130265 509.100699 61.553132 509.309091 60.977333 509.517483 60.402904 509.725874 59.829881 509.934266 59.258301 510.142657 58.688199 510.351049 58.119611 510.559441 57.552574 510.767832 56.987124 510.976224 56.423297 511.184615 55.861130 511.393007 55.300657 511.601399 54.741917 511.809790 54.184943 512.018182 53.629774 512.226573 53.076445 512.434965 52.524992 512.643357 51.975451 512.851748 51.427859 513.060140 50.882251 513.268531 50.338664 513.476923 49.797134 513.685315 49.257697 513.893706 48.720389 514.102098 48.185247 514.310490 47.652306 514.518881 47.121603 514.727273 46.593174 514.935664 46.067055 515.144056 45.543282 515.352448 45.021892 515.560839 44.502920 515.769231 43.986402 515.977622 43.472376 516.186014 42.960876 516.394406 42.451940 516.602797 41.945602 516.811189 41.441901 517.019580 40.940870 517.227972 40.442548 517.436364 39.946969 517.644755 39.454171 517.853147 38.964189 518.061538 38.477059 518.269930 37.992818 518.478322 37.511501 518.686713 37.033145 518.895105 36.557786 519.103497 36.085461 519.311888 35.616204 519.520280 35.150054 519.728671 34.687044 519.937063 34.227213 520.145455 33.770596 520.353846 33.317228 520.562238 32.867147 520.770629 32.420388 520.979021 31.976988 521.187413 31.536983 521.395804 31.100408 521.604196 30.667301 521.812587 30.237697 522.020979 29.811632 522.229371 29.389142 522.437762 28.970265 522.646154 28.555035 522.854545 28.143489 523.062937 27.735663 523.271329 27.331593 523.479720 26.931316 523.688112 26.534868 523.896503 26.142284 524.104895 25.753601 524.313287 25.368856 524.521678 24.988083 524.730070 24.611320 524.938462 24.238602 525.146853 23.869967 525.355245 23.505449 525.563636 23.145085 525.772028 22.788911 525.980420 22.436963 526.188811 22.089278 526.397203 21.745892 526.605594 21.406840 526.813986 21.072160 527.022378 20.741886 527.230769 20.416056 527.439161 20.094705 527.647552 19.777870 527.855944 19.465586 528.064336 19.157891 528.272727 18.854819 528.481119 18.556408 528.689510 18.262693 528.897902 17.973710 529.106294 17.689497 529.314685 17.410088 529.523077 17.135520 529.731469 16.865829 529.939860 16.601051 530.148252 16.341223 530.356643 16.086381 530.565035 15.836560 530.773427 15.591797 530.981818 15.352128 531.190210 15.117590 531.398601 14.888218 531.606993 14.664048 531.815385 14.445118 532.023776 14.231462 532.232168 14.023117 532.440559 13.820119 532.648951 13.622495 532.857343 13.430233 533.065734 13.243311 533.274126 13.061708 533.482517 12.885402 533.690909 12.714371 533.899301 12.548595 534.107692 12.388052 534.316084 12.232719 534.524476 12.082576 534.732867 11.937601 534.941259 11.797773 535.149650 11.663069 535.358042 11.533469 535.566434 11.408951 535.774825 11.289493 535.983217 11.175073 536.191608 11.065672 536.400000 10.961265 536.608392 10.861833 536.816783 10.767354 537.025175 10.677806 537.233566 10.593167 537.441958 10.513417 537.650350 10.438533 537.858741 10.368494 538.067133 10.303279 538.275524 10.242865 538.483916 10.187232 538.692308 10.136358 538.900699 10.090221 539.109091 10.048800 539.317483 10.012073 539.525874 9.980019 539.734266 9.952616 539.942657 9.929842 540.151049 9.911677 540.359441 9.898099 540.567832 9.889085 540.776224 9.884615 540.984615 9.884667 541.193007 9.889220 541.401399 9.898252 541.609790 9.911740 541.818182 9.929665 542.026573 9.952004 542.234965 9.978736 542.443357 10.009839 542.651748 10.045292 542.860140 10.085073 543.068531 10.129161 543.276923 10.177534 543.485315 10.230171 543.693706 10.287049 543.902098 10.348148 544.110490 10.413446 544.318881 10.482922 544.527273 10.556553 544.735664 10.634319 544.944056 10.716198 545.152448 10.802168 545.360839 10.892208 545.569231 10.986296 545.777622 11.084411 545.986014 11.186531 546.194406 11.292635 546.402797 11.402701 546.611189 11.516708 546.819580 11.634633 547.027972 11.756456 547.236364 11.882156 547.444755 12.011709 547.653147 12.145096 547.861538 12.282294 548.069930 12.423281 548.278322 12.568038 548.486713 12.716541 548.695105 12.868769 548.903497 13.024701 549.111888 13.184315 549.320280 13.347590 549.528671 13.514504 549.737063 13.685035 549.945455 13.859163 550.153846 14.036865 550.362238 14.218120 550.570629 14.402907 550.779021 14.591203 550.987413 14.782988 551.195804 14.978240 551.404196 15.176937 551.612587 15.379058 551.820979 15.584582 552.029371 15.793486 552.237762 16.005749 552.446154 16.221350 552.654545 16.440267 552.862937 16.662478 553.071329 16.887963 553.279720 17.116699 553.488112 17.348665 553.696503 17.583840 553.904895 17.822201 554.113287 18.063728 554.321678 18.308399 554.530070 18.556193 554.738462 18.807087 554.946853 19.061060 555.155245 19.318091 555.363636 19.578158 555.572028 19.841240 555.780420 20.107315 555.988811 20.376361 556.197203 20.648358 556.405594 20.923283 556.613986 21.201116 556.822378 21.481833 557.030769 21.765415 557.239161 22.051839 557.447552 22.341084 557.655944 22.633128 557.864336 22.927950 558.072727 23.225528 558.281119 23.525841 558.489510 23.828868 558.697902 24.134585 558.906294 24.442973 559.114685 24.754010 559.323077 25.067674 559.531469 25.383943 559.739860 25.702796 559.948252 26.024212 560.156643 26.348169 560.365035 26.674645 560.573427 27.003618 560.781818 27.335069 560.990210 27.668974 561.198601 28.005312 561.406993 28.344062 561.615385 28.685202 561.823776 29.028711 562.032168 29.374567 562.240559 29.722749 562.448951 30.073235 562.657343 30.426003 562.865734 30.781032 563.074126 31.138301 563.282517 31.497787 563.490909 31.859470 563.699301 32.223328 563.907692 32.589340 564.116084 32.957483 564.324476 33.327736 564.532867 33.700078 564.741259 34.074487 564.949650 34.450942 565.158042 34.829421 565.366434 35.209903 565.574825 35.592366 565.783217 35.976788 565.991608 36.363148 566.200000 36.751425 566.408392 37.141597 566.616783 37.533642 566.825175 37.927539 567.033566 38.323266 567.241958 38.720802 567.450350 39.120125 567.658741 39.521214 567.867133 39.924048 568.075524 40.328603 568.283916 40.734861 568.492308 41.142797 568.700699 41.552392 568.909091 41.963623 569.117483 42.376469 569.325874 42.790909 569.534266 43.206921 569.742657 43.624483 569.951049 44.043574 570.159441 44.464172 570.367832 44.886256 570.576224 45.309805 570.784615 45.734796 570.993007 46.161208 571.201399 46.589020 571.409790 47.018210 571.618182 47.448757 571.826573 47.880638 572.034965 48.313834 572.243357 48.748321 572.451748 49.184079 572.660140 49.621085 572.868531 50.059319 573.076923 50.498759 573.285315 50.939384 573.493706 51.381171 573.702098 51.824099 573.910490 52.268147 574.118881 52.713293 574.327273 53.159516 574.535664 53.606795 574.744056 54.055106 574.952448 54.504430 575.160839 54.954744 575.369231 55.406028 575.577622 55.858258 575.786014 56.311415 575.994406 56.765476 576.202797 57.220420 576.411189 57.676225 576.619580 58.132870 576.827972 58.590334 577.036364 59.048594 577.244755 59.507629 577.453147 59.967418 577.661538 60.427939 577.869930 60.889171 578.078322 61.351092 578.286713 61.813680 578.495105 62.276914 578.703497 62.740773 578.911888 63.205235 579.120280 63.670278 579.328671 64.135881 579.537063 64.602022 579.745455 65.068680 579.953846 65.535833 580.162238 66.003461 580.370629 66.471540 580.579021 66.940050 580.787413 67.408969 580.995804 67.878276 581.204196 68.347948 581.412587 68.817966 581.620979 69.288306 581.829371 69.758948 582.037762 70.229869 582.246154 70.701050 582.454545 71.172466 582.662937 71.644099 582.871329 72.115925 583.079720 72.587923 583.288112 73.060072 583.496503 73.532351 583.704895 74.004737 583.913287 74.477209 584.121678 74.949745 584.330070 75.422325 584.538462 75.894926 584.538462 514.000000" /></g></g><g class="titles"><text class="title plot_title" x="400.0" y="26">Sala-Daeng 52</text></g><g class="plot overlay" transform="translate(184, 46)"><g class="series serie-0 color-0"><g class="dots"><circle class="dot reactive tooltip-trigger" cx="11.461538461538462" cy="347.47220863520613" r="2.5" /><desc class="value">679000</desc><desc class="x top">11.461538461538462</desc><desc class="y top">347.47220863520613</desc><desc class="x_label">Jan</desc></g><g class="dots"><circle class="dot reactive tooltip-trigger" cx="63.55944055944057" cy="479.3811742752047" r="2.5" /><desc class="value">645000</desc><desc class="x top">63.55944055944057</desc><desc class="y top">479.3811742752047</desc><desc class="x_label">Feb</desc></g><g class="dots"><circle class="dot reactive tooltip-trigger" cx="115.65734265734265" cy="137.96973379520824" r="2.5" /><desc class="value">733000</desc><desc class="x ">115.65734265734265</desc><desc class="y ">137.96973379520824</desc><desc class="x_label">Mar</desc></g><g class="dots"><circle class="dot reactive tooltip-trigger" cx="167.75524475524475" cy="425.0657178352053" r="2.5" /><desc class="value">659000</desc><desc class="x top">167.75524475524475</desc><desc class="y top">425.0657178352053</desc><desc class="x_label">Apr</desc></g><g class="dots"><circle class="dot reactive tooltip-trigger" cx="219.85314685314685" cy="405.6673405352055" r="2.5" /><desc class="value">664000</desc><desc class="x top">219.85314685314685</desc><desc class="y top">405.6673405352055</desc><desc class="x_label">May</desc></g><g class="dots"><circle class="dot reactive tooltip-trigger" cx="271.9510489510489" cy="103.05265465520864" r="2.5" /><desc class="value">742000</desc><desc class="x ">271.9510489510489</desc><desc class="y ">103.05265465520864</desc><desc class="x_label">Jun</desc></g><g class="dots"><circle class="dot reactive tooltip-trigger" cx="324.04895104895104" cy="265.9990239752069" r="2.5" /><desc class="value">700000</desc><desc class="x left top">324.04895104895104</desc><desc class="y left top">265.9990239752069</desc><desc class="x_label">Jul</desc></g><g class="dots"><circle class="dot reactive tooltip-trigger" cx="376.1468531468531" cy="176.7664883952079" r="2.5" /><desc class="value">723000</desc><desc class="x left">376.1468531468531</desc><desc class="y left">176.7664883952079</desc><desc class="x_label">Aug</desc></g><g class="dots"><circle class="dot reactive tooltip-trigger" cx="428.24475524475525" cy="161.24778655520805" r="2.5" /><desc class="value">727000</desc><desc class="x left">428.24475524475525</desc><desc class="y left">161.24778655520805</desc><desc class="x_label">Sep</desc></g><g class="dots"><circle class="dot reactive tooltip-trigger" cx="480.3426573426574" cy="137.96973379520824" r="2.5" /><desc class="value">733000</desc><desc class="x left">480.3426573426574</desc><desc class="y left">137.96973379520824</desc><desc class="x_label">Oct</desc></g><g class="dots"><circle class="dot reactive tooltip-trigger" cx="532.4405594405595" cy="13.820119075209561" r="2.5" /><desc class="value">765000</desc><desc class="x left">532.4405594405595</desc><desc class="y left">13.820119075209561</desc><desc class="x_label">Nov</desc></g><g class="dots"><circle class="dot reactive tooltip-trigger" cx="584.5384615384614" cy="75.8949264352089" r="2.5" /><desc class="value">749000</desc><desc class="x left">584.5384615384614</desc><desc class="y left">75.8949264352089</desc><desc class="x_label">Dec</desc></g></g></g><g class="plot text-overlay" transform="translate(184, 46)"><g class="series serie-0 color-0" /></g><g class="plot tooltip-overlay" transform="translate(184, 46)"><g class="tooltip" style="opacity: 0" transform="translate(0 0)"><rect class="tooltip-box" height="0" rx="0" ry="0" width="0" /><g class="text" /></g></g><g class="legends" transform="translate(10, 56)"><g class="legend reactive activate-serie" id="activate-serie-0"><rect class="color-0 reactive" height="12" width="12" x="0.0" y="1.0" /><text x="17.0" y="11.2">Sala-Daeng</text></g></g><g class="legends" transform="translate(790, 56)" /></g></svg>