<?xml version='1.0' encoding='utf-8'?>
<svg xmlns:xlink="http://www.w3.org/1999/xlink" class="pygal-chart" id="chart-4923aa6a-a7b4-465f-bde6-0347ffbf73b5" viewBox="0 0 800 600" xmlns="http://www.w3.org/2000/svg"><!--Generated with pygal 2.0.11 (etree) ©Kozea 2011-2015 on 2015-12-10--><!--http://pygal.org--><!--http://github.com/Kozea/pygal--><defs><style type="text/css">#chart-4923aa6a-a7b4-465f-bde6-0347ffbf73b5{-webkit-user-select:none;-webkit-font-smoothing:antialiased;font-family:Consolas,"Liberation Mono",Menlo,Courier,monospace}#chart-4923aa6a-a7b4-465f-bde6-0347ffbf73b5 .title{font-family:Consolas,"Liberation Mono",Menlo,Courier,monospace;font-size:16px}#chart-4923aa6a-a7b4-465f-bde6-0347ffbf73b5 .legends .legend text{font-family:Consolas,"Liberation Mono",Menlo,Courier,monospace;font-size:14px}#chart-4923aa6a-a7b4-465f-bde6-0347ffbf73b5 .axis text{font-family:Consolas,"Liberation Mono",Menlo,Courier,monospace;font-size:10px}#chart-4923aa6a-a7b4-465f-bde6-0347ffbf73b5 .axis text.major{font-family:Consolas,"Liberation Mono",Menlo,Courier,monospace;font-size:10px}#chart-4923aa6a-a7b4-465f-bde6-0347ffbf73b5 .text-overlay text.value{font-family:Consolas,"Liberation Mono",Menlo,Courier,monospace;font-size:16px}#chart-4923aa6a-a7b4-465f-bde6-0347ffbf73b5 .text-overlay text.label{font-family:Consolas,"Liberation Mono",Menlo,Courier,monospace;font-size:10px}#chart-4923aa6a-a7b4-465f-bde6-0347ffbf73b5 .tooltip{font-family:Consolas,"Liberation Mono",Menlo,Courier,monospace;font-size:14px}#chart-4923aa6a-a7b4-465f-bde6-0347ffbf73b5 text.no_data{font-family:Consolas,"Liberation Mono",Menlo,Courier,monospace;font-size:64px}
#chart-4923aa6a-a7b4-465f-bde6-0347ffbf73b5{background-color:black}#chart-4923aa6a-a7b4-465f-bde6-0347ffbf73b5 path,#chart-4923aa6a-a7b4-465f-bde6-0347ffbf73b5 line,#chart-4923aa6a-a7b4-465f-bde6-0347ffbf73b5 rect,#chart-4923aa6a-a7b4-465f-bde6-0347ffbf73b5 circle{-webkit-transition:250ms;-moz-transition:250ms;transition:250ms}#chart-4923aa6a-a7b4-465f-bde6-0347ffbf73b5 .graph &gt; .background{fill:black}#chart-4923aa6a-a7b4-465f-bde6-0347ffbf73b5 .plot &gt; .background{fill:#111}#chart-4923aa6a-a7b4-465f-bde6-0347ffbf73b5 .graph{fill:#999}#chart-4923aa6a-a7b4-465f-bde6-0347ffbf73b5 text.no_data{fill:#eee}#chart-4923aa6a-a7b4-465f-bde6-0347ffbf73b5 .title{fill:#eee}#chart-4923aa6a-a7b4-465f-bde6-0347ffbf73b5 .legends .legend text{fill:#999}#chart-4923aa6a-a7b4-465f-bde6-0347ffbf73b5 .legends .legend:hover text{fill:#eee}#chart-4923aa6a-a7b4-465f-bde6-0347ffbf73b5 .axis .line{stroke:#eee}#chart-4923aa6a-a7b4-465f-bde6-0347ffbf73b5 .axis .guide.line{stroke:#555}#chart-4923aa6a-a7b4-465f-bde6-0347ffbf73b5 .axis .major.line{stroke:#999}#chart-4923aa6a-a7b4-465f-bde6-0347ffbf73b5 .axis text.major{fill:#eee}#chart-4923aa6a-a7b4-465f-bde6-0347ffbf73b5 .axis.y .guides:hover .guide.line,#chart-4923aa6a-a7b4-465f-bde6-0347ffbf73b5 .line-graph .axis.x .guides:hover .guide.line,#chart-4923aa6a-a7b4-465f-bde6-0347ffbf73b5 .stackedline-graph .axis.x .guides:hover .guide.line,#chart-4923aa6a-a7b4-465f-bde6-0347ffbf73b5 .xy-graph .axis.x .guides:hover .guide.line{stroke:#eee}#chart-4923aa6a-a7b4-465f-bde6-0347ffbf73b5 .axis .guides:hover text{fill:#eee}#chart-4923aa6a-a7b4-465f-bde6-0347ffbf73b5 .reactive{fill-opacity:.8}#chart-4923aa6a-a7b4-465f-bde6-0347ffbf73b5 .reactive.active,#chart-4923aa6a-a7b4-465f-bde6-0347ffbf73b5 .active .reactive{fill-opacity:.4;stroke-width:4}#chart-4923aa6a-a7b4-465f-bde6-0347ffbf73b5 .series text{fill:#eee}#chart-4923aa6a-a7b4-465f-bde6-0347ffbf73b5 .tooltip rect{fill:#111;stroke:#eee;-webkit-transition:opacity 250ms;-moz-transition:opacity 250ms;transition:opacity 250ms}#chart-4923aa6a-a7b4-465f-bde6-0347ffbf73b5 .tooltip .label{fill:#999}#chart-4923aa6a-a7b4-465f-bde6-0347ffbf73b5 .tooltip .label{fill:#999}#chart-4923aa6a-a7b4-465f-bde6-0347ffbf73b5 .tooltip .legend{font-size:.8em;fill:#555}#chart-4923aa6a-a7b4-465f-bde6-0347ffbf73b5 .tooltip .x_label{font-size:.6em;fill:#eee}#chart-4923aa6a-a7b4-465f-bde6-0347ffbf73b5 .tooltip .xlink{font-size:.5em;text-decoration:underline}#chart-4923aa6a-a7b4-465f-bde6-0347ffbf73b5 .tooltip .value{font-size:1.5em}#chart-4923aa6a-a7b4-465f-bde6-0347ffbf73b5 .map-element{fill:#111;stroke:#555 !important}#chart-4923aa6a-a7b4-465f-bde6-0347ffbf73b5 .map-element .reactive{fill-opacity:inherit}#chart-4923aa6a-a7b4-465f-bde6-0347ffbf73b5 .color-0,#chart-4923aa6a-a7b4-465f-bde6-0347ffbf73b5 .color-0 a:visited{stroke:#ff5995;fill:#ff5995}#chart-4923aa6a-a7b4-465f-bde6-0347ffbf73b5 .text-overlay .color-0 text{fill:black}
#chart-4923aa6a-a7b4-465f-bde6-0347ffbf73b5 text.no_data{text-anchor:middle}#chart-4923aa6a-a7b4-465f-bde6-0347ffbf73b5 .guide.line{fill:none}#chart-4923aa6a-a7b4-465f-bde6-0347ffbf73b5 .centered{text-anchor:middle}#chart-4923aa6a-a7b4-465f-bde6-0347ffbf73b5 .title{text-anchor:middle}#chart-4923aa6a-a7b4-465f-bde6-0347ffbf73b5 .legends .legend text{fill-opacity:1}#chart-4923aa6a-a7b4-465f-bde6-0347ffbf73b5 .axis.x text{text-anchor:middle}#chart-4923aa6a-a7b4-465f-bde6-0347ffbf73b5 .axis.x:not(.web) text[transform]{text-anchor:start}#chart-4923aa6a-a7b4-465f-bde6-0347ffbf73b5 .axis.x:not(.web) text[transform].backwards{text-anchor:end}#chart-4923aa6a-a7b4-465f-bde6-0347ffbf73b5 .axis.y text{text-anchor:end}#chart-4923aa6a-a7b4-465f-bde6-0347ffbf73b5 .axis.y text[transform].backwards{text-anchor:start}#chart-4923aa6a-a7b4-465f-bde6-0347ffbf73b5 .axis.y2 text{text-anchor:start}#chart-4923aa6a-a7b4-465f-bde6-0347ffbf73b5 .axis.y2 text[transform].backwards{text-anchor:end}#chart-4923aa6a-a7b4-465f-bde6-0347ffbf73b5 .axis .guide.line{stroke-dasharray:4,4}#chart-4923aa6a-a7b4-465f-bde6-0347ffbf73b5 .axis .major.guide.line{stroke-dasharray:6,6}#chart-4923aa6a-a7b4-465f-bde6-0347ffbf73b5 .horizontal .axis.y .guide.line,#chart-4923aa6a-a7b4-465f-bde6-0347ffbf73b5 .horizontal .axis.y2 .guide.line,#chart-4923aa6a-a7b4-465f-bde6-0347ffbf73b5 .vertical .axis.x .guide.line{opacity:0}#chart-4923aa6a-a7b4-465f-bde6-0347ffbf73b5 .horizontal .axis.always_show .guide.line,#chart-4923aa6a-a7b4-465f-bde6-0347ffbf73b5 .vertical .axis.always_show .guide.line{opacity:1 !important}#chart-4923aa6a-a7b4-465f-bde6-0347ffbf73b5 .axis.y .guides:hover .guide.line,#chart-4923aa6a-a7b4-465f-bde6-0347ffbf73b5 .axis.y2 .guides:hover .guide.line,#chart-4923aa6a-a7b4-465f-bde6-0347ffbf73b5 .axis.x .guides:hover .guide.line{opacity:1}#chart-4923aa6a-a7b4-465f-bde6-0347ffbf73b5 .axis .guides:hover text{opacity:1}#chart-4923aa6a-a7b4-465f-bde6-0347ffbf73b5 .nofill{fill:none}#chart-4923aa6a-a7b4-465f-bde6-0347ffbf73b5 .subtle-fill{fill-opacity:.2}#chart-4923aa6a-a7b4-465f-bde6-0347ffbf73b5 .dot{stroke-width:1px;fill-opacity:1}#chart-4923aa6a-a7b4-465f-bde6-0347ffbf73b5 .dot.active{stroke-width:5px}#chart-4923aa6a-a7b4-465f-bde6-0347ffbf73b5 .dot.negative{fill:transparent}#chart-4923aa6a-a7b4-465f-bde6-0347ffbf73b5 text,#chart-4923aa6a-a7b4-465f-bde6-0347ffbf73b5 tspan{stroke:none !important}#chart-4923aa6a-a7b4-465f-bde6-0347ffbf73b5 .series text.active{opacity:1}#chart-4923aa6a-a7b4-465f-bde6-0347ffbf73b5 .tooltip rect{fill-opacity:.95;stroke-width:.5}#chart-4923aa6a-a7b4-465f-bde6-0347ffbf73b5 .tooltip text{fill-opacity:1}#chart-4923aa6a-a7b4-465f-bde6-0347ffbf73b5 .showable{visibility:hidden}#chart-4923aa6a-a7b4-465f-bde6-0347ffbf73b5 .showable.shown{visibility:visible}</style><script type="text/javascript">window.pygal = window.pygal || {};window.pygal.config = window.pygal.config || {};window.pygal.config['4923aa6a-a7b4-465f-bde6-0347ffbf73b5'] = {"print_values": false, "truncate_label": null, "human_readable": false, "explicit_size": false, "show_y_labels": true, "x_labels": ["Jan", "Feb", "Mar", "Apr", "May", "Jun", "Jul", "Aug", "Sep", "Oct", "Nov", "Dec"], "inverse_y_axis": false, "x_labels_major_count": null, "show_y_guides": true, "spacing": 10, "xrange": null, "rounded_bars": null, "margin": 20, "interpolation_precision": 250, "title": "Saphan-Khwai 52", "stroke_style": null, "no_data_text": "No data", "fill": true, "box_mode": "extremes", "print_labels": false, "interpolate": "cubic", "zero": 0, "show_only_major_dots": false, "truncate_legend": null, "show_minor_x_labels": true, "js": ["//kozea.github.io/pygal.js/2.0.x/pygal-tooltips.min.js"], "x_labels_major_every": null, "legends": ["Saphan-Khwai"], "tooltip_fancy_mode": true, "disable_xml_declaration": false, "show_x_guides": false, "print_zeroes": true, "show_legend": true, "legend_at_bottom": false, "y_labels_major_count": null, "secondary_range": null, "margin_bottom": null, "half_pie": false, "height": 600, "range": null, "show_minor_y_labels": true, "defs": [], "css": ["file://style.css", "file://graph.css"], "y_labels": null, "interpolation_parameters": {}, "width": 800, "strict": false, "pretty_print": false, "min_scale": 4, "margin_top": null, "dynamic_print_values": false, "order_min": null, "x_title": null, "margin_left": null, "margin_right": null, "y_labels_major_every": null, "stroke": true, "x_labels_major": null, "missing_value_fill_truncation": "x", "logarithmic": false, "stack_from_top": false, "show_dots": true, "style": {"title_font_size": 16, "title_font_family": "Consolas, \"Liberation Mono\", Menlo, Courier, monospace", "tooltip_font_family": "Consolas, \"Liberation Mono\", Menlo, Courier, monospace", "background": "black", "tooltip_font_size": 14, "opacity_hover": ".4", "value_label_font_size": 10, "opacity": ".8", "no_data_font_family": "Consolas, \"Liberation Mono\", Menlo, Courier, monospace", "label_font_size": 10, "plot_background": "#111", "value_font_size": 16, "value_font_family": "Consolas, \"Liberation Mono\", Menlo, Courier, monospace", "no_data_font_size": 64, "foreground_strong": "#eee", "font_family": "Consolas, \"Liberation Mono\", Menlo, Courier, monospace", "label_font_family": "Consolas, \"Liberation Mono\", Menlo, Courier, monospace", "transition": "250ms", "major_guide_stroke_dasharray": "6,6", "foreground_subtle": "#555", "value_colors": [], "value_label_font_family": "Consolas, \"Liberation Mono\", Menlo, Courier, monospace", "guide_stroke_dasharray": "4,4", "major_label_font_size": 10, "legend_font_family": "Consolas, \"Liberation Mono\", Menlo, Courier, monospace", "major_label_font_family": "Consolas, \"Liberation Mono\", Menlo, Courier, monospace", "foreground": "#999", "colors": ["#ff5995", "#b6e354", "#feed6c", "#8cedff", "#9e6ffe", "#899ca1", "#f8f8f2", "#bf4646", "#516083", "#f92672", "#82b414", "#fd971f", "#56c2d6", "#808384", "#8c54fe", "#465457"], "legend_font_size": 14}, "y_labels_major": null, "x_label_rotation": 0, "max_scale": 16, "value_formatter": null, "dots_size": 2.5, "legend_at_bottom_columns": null, "force_uri_protocol": null, "x_value_formatter": null, "legend_box_size": 12, "include_x_axis": false, "y_label_rotation": 0, "show_x_labels": true, "inner_radius": 0, "no_prefix": false, "tooltip_border_radius": 0, "y_title": null}</script><script type="text/javascript" xlink:href="//kozea.github.io/pygal.js/2.0.x/pygal-tooltips.min.js" /></defs><title>Saphan-Khwai 52</title><g class="graph line-graph vertical"><rect class="background" height="600" width="800" x="0" y="0" /><g class="plot" transform="translate(200, 46)"><rect class="background" height="514" width="579.2" x="0" y="0" /><g class="axis y"><path class="line" d="M0.000000 514.000000 h579.200000" /><g class="guides"><path class="guide line" d="M0.000000 491.201155 h579.200000" /><text class="" x="-5" y="494.701155457904">180000.0</text><title>180000.0</title></g><g class="guides"><path class="guide line" d="M0.000000 376.055137 h579.200000" /><text class="" x="-5" y="379.55513678458414">190000.0</text><title>190000.0</title></g><g class="guides"><path class="major guide line" d="M0.000000 260.909118 h579.200000" /><text class="major" x="-5" y="264.4091181112643">200000.0</text><title>200000.0</title></g><g class="guides"><path class="guide line" d="M0.000000 145.763099 h579.200000" /><text class="" x="-5" y="149.26309943794445">210000.0</text><title>210000.0</title></g><g class="guides"><path class="guide line" d="M0.000000 30.617081 h579.200000" /><text class="" x="-5" y="34.11708076462452">220000.0</text><title>220000.0</title></g></g><g class="axis x"><g class="guides"><path class="line" d="M11.138462 0.000000 v514.000000" /><text class="" x="11.13846153846154" y="529.0">Jan</text></g><g class="guides"><path class="guide line" d="M61.767832 0.000000 v514.000000" /><text class="" x="61.76783216783217" y="529.0">Feb</text></g><g class="guides"><path class="guide line" d="M112.397203 0.000000 v514.000000" /><text class="" x="112.3972027972028" y="529.0">Mar</text></g><g class="guides"><path class="guide line" d="M163.026573 0.000000 v514.000000" /><text class="" x="163.02657342657344" y="529.0">Apr</text></g><g class="guides"><path class="guide line" d="M213.655944 0.000000 v514.000000" /><text class="" x="213.65594405594408" y="529.0">May</text></g><g class="guides"><path class="guide line" d="M264.285315 0.000000 v514.000000" /><text class="" x="264.2853146853147" y="529.0">Jun</text></g><g class="guides"><path class="guide line" d="M314.914685 0.000000 v514.000000" /><text class="" x="314.9146853146853" y="529.0">Jul</text></g><g class="guides"><path class="guide line" d="M365.544056 0.000000 v514.000000" /><text class="" x="365.54405594405597" y="529.0">Aug</text></g><g class="guides"><path class="guide line" d="M416.173427 0.000000 v514.000000" /><text class="" x="416.17342657342664" y="529.0">Sep</text></g><g class="guides"><path class="guide line" d="M466.802797 0.000000 v514.000000" /><text class="" x="466.8027972027973" y="529.0">Oct</text></g><g class="guides"><path class="guide line" d="M517.432168 0.000000 v514.000000" /><text class="" x="517.4321678321678" y="529.0">Nov</text></g><g class="guides"><path class="guide line" d="M568.061538 0.000000 v514.000000" /><text class="" x="568.0615384615386" y="529.0">Dec</text></g></g><g class="series serie-0 color-0"><path class="line reactive" d="M11.138462 514.000000 L11.138462 341.511331 11.340979 342.840718 11.543497 344.170026 11.746014 345.499176 11.948531 346.828088 12.151049 348.156685 12.353566 349.484887 12.556084 350.812615 12.758601 352.139791 12.961119 353.466334 13.163636 354.792166 13.366154 356.117209 13.568671 357.441383 13.771189 358.764609 13.973706 360.086808 14.176224 361.407901 14.378741 362.727810 14.581259 364.046455 14.783776 365.363757 14.986294 366.679637 15.188811 367.994017 15.391329 369.306817 15.593846 370.617958 15.796364 371.927362 15.998881 373.234949 16.201399 374.540640 16.403916 375.844357 16.606434 377.146020 16.808951 378.445550 17.011469 379.742869 17.213986 381.037898 17.416503 382.330557 17.619021 383.620767 17.821538 384.908450 18.024056 386.193526 18.226573 387.475917 18.429091 388.755543 18.631608 390.032326 18.834126 391.306187 19.036643 392.577046 19.239161 393.844824 19.441678 395.109444 19.644196 396.370825 19.846713 397.628888 20.049231 398.883555 20.251748 400.134747 20.454266 401.382385 20.656783 402.626389 20.859301 403.866681 21.061818 405.103182 21.264336 406.335812 21.466853 407.564494 21.669371 408.789147 21.871888 410.009693 22.074406 411.226052 22.276923 412.438147 22.479441 413.645897 22.681958 414.849224 22.884476 416.048049 23.086993 417.242293 23.289510 418.431877 23.492028 419.616722 23.694545 420.796748 23.897063 421.971878 24.099580 423.142031 24.302098 424.307130 24.504615 425.467095 24.707133 426.621846 24.909650 427.771306 25.112168 428.915394 25.314685 430.054033 25.517203 431.187143 25.719720 432.314645 25.922238 433.436459 26.124755 434.552509 26.327273 435.662713 26.529790 436.766993 26.732308 437.865270 26.934825 438.957466 27.137343 440.043501 27.339860 441.123296 27.542378 442.196772 27.744895 443.263851 27.947413 444.324453 28.149930 445.378499 28.352448 446.425910 28.554965 447.466608 28.757483 448.500513 28.960000 449.527546 29.162517 450.547628 29.365035 451.560681 29.567552 452.566626 29.770070 453.565383 29.972587 454.556873 30.175105 455.541017 30.377622 456.517737 30.580140 457.486954 30.782657 458.448588 30.985175 459.402560 31.187692 460.348792 31.390210 461.287204 31.592727 462.217718 31.795245 463.140255 31.997762 464.054735 32.200280 464.961080 32.402797 465.859210 32.605315 466.749047 32.807832 467.630511 33.010350 468.503524 33.212867 469.368007 33.415385 470.223880 33.617902 471.071065 33.820420 471.909483 34.022937 472.739055 34.225455 473.559701 34.427972 474.371343 34.630490 475.173901 34.833007 475.967298 35.035524 476.751453 35.238042 477.526288 35.440559 478.291724 35.643077 479.047682 35.845594 479.794083 36.048112 480.530847 36.250629 481.257896 36.453147 481.975152 36.655664 482.682534 36.858182 483.379964 37.060699 484.067363 37.263217 484.744652 37.465734 485.411752 37.668252 486.068584 37.870769 486.715068 38.073287 487.351127 38.275804 487.976681 38.478322 488.591651 38.680839 489.195958 38.883357 489.789524 39.085874 490.372268 39.288392 490.944112 39.490909 491.504978 39.693427 492.054785 39.895944 492.593456 40.098462 493.120911 40.300979 493.637071 40.503497 494.141858 40.706014 494.635191 40.908531 495.116993 41.111049 495.587184 41.313566 496.045685 41.516084 496.492418 41.718601 496.927303 41.921119 497.350261 42.123636 497.761213 42.326154 498.160081 42.528671 498.546785 42.731189 498.921247 42.933706 499.283387 43.136224 499.633126 43.338741 499.970386 43.541259 500.295087 43.743776 500.607151 43.946294 500.906498 44.148811 501.193050 44.351329 501.466727 44.553846 501.727450 44.756364 501.975141 44.958881 502.209721 45.161399 502.431110 45.363916 502.639230 45.566434 502.834001 45.768951 503.015345 45.971469 503.183183 46.173986 503.337435 46.376503 503.478023 46.579021 503.604867 46.781538 503.717889 46.984056 503.817010 47.186573 503.902151 47.389091 503.973232 47.591608 504.030175 47.794126 504.072901 47.996643 504.101330 48.199161 504.115385 48.401678 504.114985 48.604196 504.100052 48.806713 504.070506 49.009231 504.026270 49.211748 503.967263 49.414266 503.893408 49.616783 503.804624 49.819301 503.700833 50.021818 503.581956 50.224336 503.447914 50.426853 503.298628 50.629371 503.134019 50.831888 502.954008 51.034406 502.758516 51.236923 502.547464 51.439441 502.320772 51.641958 502.078363 51.844476 501.820157 52.046993 501.546075 52.249510 501.256039 52.452028 500.949968 52.654545 500.627784 52.857063 500.289409 53.059580 499.934762 53.262098 499.563766 53.464615 499.176341 53.667133 498.772408 53.869650 498.351889 54.072168 497.914704 54.274685 497.460773 54.477203 496.990020 54.679720 496.502363 54.882238 495.997725 55.084755 495.476026 55.287273 494.937187 55.489790 494.381130 55.692308 493.807775 55.894825 493.217043 56.097343 492.608856 56.299860 491.983134 56.502378 491.339798 56.704895 490.678770 56.907413 489.999971 57.109930 489.303321 57.312448 488.588741 57.514965 487.856153 57.717483 487.105477 57.920000 486.336635 58.122517 485.549547 58.325035 484.744135 58.527552 483.920319 58.730070 483.078022 58.932587 482.217162 59.135105 481.337662 59.337622 480.439443 59.540140 479.522426 59.742657 478.586531 59.945175 477.631680 60.147692 476.657793 60.350210 475.664792 60.552727 474.652598 60.755245 473.621132 60.957762 472.570314 61.160280 471.500067 61.362797 470.410309 61.565315 469.300964 61.767832 468.171952 61.970350 467.023235 62.172867 465.854946 62.375385 464.667259 62.577902 463.460347 62.780420 462.234384 62.982937 460.989544 63.185455 459.726002 63.387972 458.443929 63.590490 457.143502 63.793007 455.824893 63.995524 454.488276 64.198042 453.133825 64.400559 451.761714 64.603077 450.372117 64.805594 448.965207 65.008112 447.541159 65.210629 446.100147 65.413147 444.642343 65.615664 443.167923 65.818182 441.677059 66.020699 440.169926 66.223217 438.646697 66.425734 437.107547 66.628252 435.552649 66.830769 433.982178 67.033287 432.396306 67.235804 430.795208 67.438322 429.179057 67.640839 427.548028 67.843357 425.902294 68.045874 424.242029 68.248392 422.567407 68.450909 420.878602 68.653427 419.175788 68.855944 417.459138 69.058462 415.728826 69.260979 413.985027 69.463497 412.227914 69.666014 410.457660 69.868531 408.674441 70.071049 406.878428 70.273566 405.069797 70.476084 403.248722 70.678601 401.415375 70.881119 399.569932 71.083636 397.712565 71.286154 395.843449 71.488671 393.962757 71.691189 392.070663 71.893706 390.167342 72.096224 388.252967 72.298741 386.327711 72.501259 384.391749 72.703776 382.445255 72.906294 380.488402 73.108811 378.521364 73.311329 376.544316 73.513846 374.557430 73.716364 372.560881 73.918881 370.554842 74.121399 368.539488 74.323916 366.514992 74.526434 364.481528 74.728951 362.439270 74.931469 360.388392 75.133986 358.329068 75.336503 356.261471 75.539021 354.185775 75.741538 352.102155 75.944056 350.010783 76.146573 347.911835 76.349091 345.805483 76.551608 343.691901 76.754126 341.571264 76.956643 339.443746 77.159161 337.309519 77.361678 335.168758 77.564196 333.021637 77.766713 330.868329 77.969231 328.709009 78.171748 326.543851 78.374266 324.373027 78.576783 322.196712 78.779301 320.015080 78.981818 317.828305 79.184336 315.636560 79.386853 313.440020 79.589371 311.238858 79.791888 309.033248 79.994406 306.823363 80.196923 304.609379 80.399441 302.391468 80.601958 300.169804 80.804476 297.944561 81.006993 295.715914 81.209510 293.484036 81.412028 291.249100 81.614545 289.011281 81.817063 286.770752 82.019580 284.527688 82.222098 282.282262 82.424615 280.034648 82.627133 277.785020 82.829650 275.533551 83.032168 273.280416 83.234685 271.025788 83.437203 268.769841 83.639720 266.512750 83.842238 264.254687 84.044755 261.995827 84.247273 259.736344 84.449790 257.476411 84.652308 255.216202 84.854825 252.955892 85.057343 250.695653 85.259860 248.435661 85.462378 246.176087 85.664895 243.917108 85.867413 241.658895 86.069930 239.401624 86.272448 237.145468 86.474965 234.890601 86.677483 232.637196 86.880000 230.385428 87.082517 228.135470 87.285035 225.887497 87.487552 223.641681 87.690070 221.398198 87.892587 219.157220 88.095105 216.918922 88.297622 214.683477 88.500140 212.451059 88.702657 210.221843 88.905175 207.996002 89.107692 205.773709 89.310210 203.555139 89.512727 201.340466 89.715245 199.129863 89.917762 196.923504 90.120280 194.721563 90.322797 192.524214 90.525315 190.331631 90.727832 188.143987 90.930350 185.961457 91.132867 183.784214 91.335385 181.612432 91.537902 179.446285 91.740420 177.285946 91.942937 175.131591 92.145455 172.983392 92.347972 170.841523 92.550490 168.706158 92.753007 166.577471 92.955524 164.455636 93.158042 162.340827 93.360559 160.233217 93.563077 158.132981 93.765594 156.040292 93.968112 153.955324 94.170629 151.878251 94.373147 149.809246 94.575664 147.748484 94.778182 145.696139 94.980699 143.652384 95.183217 141.617392 95.385734 139.591339 95.588252 137.574398 95.790769 135.566742 95.993287 133.568546 96.195804 131.579983 96.398322 129.601227 96.600839 127.632453 96.803357 125.673833 97.005874 123.725542 97.208392 121.787753 97.410909 119.860641 97.613427 117.944379 97.815944 116.039141 98.018462 114.145101 98.220979 112.262432 98.423497 110.391310 98.626014 108.531907 98.828531 106.684397 99.031049 104.848954 99.233566 103.025752 99.436084 101.214965 99.638601 99.416767 99.841119 97.631331 100.043636 95.858831 100.246154 94.099442 100.448671 92.353337 100.651189 90.620689 100.853706 88.901673 101.056224 87.196463 101.258741 85.505233 101.461259 83.828155 101.663776 82.165405 101.866294 80.517155 102.068811 78.883581 102.271329 77.264855 102.473846 75.661151 102.676364 74.072644 102.878881 72.499507 103.081399 70.941913 103.283916 69.400038 103.486434 67.874054 103.688951 66.364136 103.891469 64.870458 104.093986 63.393192 104.296503 61.932514 104.499021 60.488596 104.701538 59.061613 104.904056 57.651739 105.106573 56.259147 105.309091 54.884012 105.511608 53.526506 105.714126 52.186805 105.916643 50.865081 106.119161 49.561509 106.321678 48.276262 106.524196 47.009515 106.726713 45.761441 106.929231 44.532214 107.131748 43.322008 107.334266 42.130996 107.536783 40.959353 107.739301 39.807253 107.941818 38.674869 108.144336 37.562374 108.346853 36.469944 108.549371 35.397751 108.751888 34.345971 108.954406 33.314775 109.156923 32.304339 109.359441 31.314836 109.561958 30.346440 109.764476 29.399324 109.966993 28.473664 110.169510 27.569632 110.372028 26.687402 110.574545 25.827148 110.777063 24.989045 110.979580 24.173265 111.182098 23.379983 111.384615 22.609373 111.587133 21.861608 111.789650 21.136862 111.992168 20.435309 112.194685 19.757124 112.397203 19.102479 112.599720 18.471497 112.802238 17.864096 113.004755 17.280140 113.207273 16.719496 113.409790 16.182028 113.612308 15.667603 113.814825 15.176086 114.017343 14.707343 114.219860 14.261239 114.422378 13.837639 114.624895 13.436410 114.827413 13.057417 115.029930 12.700525 115.232448 12.365600 115.434965 12.052507 115.637483 11.761113 115.840000 11.491283 116.042517 11.242881 116.245035 11.015775 116.447552 10.809829 116.650070 10.624909 116.852587 10.460880 117.055105 10.317609 117.257622 10.194960 117.460140 10.092800 117.662657 10.010993 117.865175 9.949406 118.067692 9.907903 118.270210 9.886351 118.472727 9.884615 118.675245 9.902561 118.877762 9.940054 119.080280 9.996960 119.282797 10.073144 119.485315 10.168472 119.687832 10.282809 119.890350 10.416022 120.092867 10.567975 120.295385 10.738534 120.497902 10.927565 120.700420 11.134934 120.902937 11.360505 121.105455 11.604145 121.307972 11.865718 121.510490 12.145091 121.713007 12.442130 121.915524 12.756699 122.118042 13.088664 122.320559 13.437891 122.523077 13.804246 122.725594 14.187594 122.928112 14.587800 123.130629 15.004730 123.333147 15.438250 123.535664 15.888225 123.738182 16.354521 123.940699 16.837003 124.143217 17.335538 124.345734 17.849990 124.548252 18.380224 124.750769 18.926108 124.953287 19.487506 125.155804 20.064283 125.358322 20.656306 125.560839 21.263440 125.763357 21.885550 125.965874 22.522503 126.168392 23.174162 126.370909 23.840396 126.573427 24.521067 126.775944 25.216044 126.978462 25.925190 127.180979 26.648371 127.383497 27.385454 127.586014 28.136303 127.788531 28.900784 127.991049 29.678763 128.193566 30.470106 128.396084 31.274677 128.598601 32.092342 128.801119 32.922968 129.003636 33.766419 129.206154 34.622561 129.408671 35.491260 129.611189 36.372381 129.813706 37.265790 130.016224 38.171353 130.218741 39.088934 130.421259 40.018400 130.623776 40.959616 130.826294 41.912447 131.028811 42.876760 131.231329 43.852420 131.433846 44.839292 131.636364 45.837242 131.838881 46.846135 132.041399 47.865838 132.243916 48.896215 132.446434 49.937132 132.648951 50.988455 132.851469 52.050049 133.053986 53.121781 133.256503 54.203514 133.459021 55.295116 133.661538 56.396452 133.864056 57.507386 134.066573 58.627785 134.269091 59.757515 134.471608 60.896440 134.674126 62.044427 134.876643 63.201341 135.079161 64.367047 135.281678 65.541412 135.484196 66.724300 135.686713 67.915578 135.889231 69.115110 136.091748 70.322763 136.294266 71.538401 136.496783 72.761892 136.699301 73.993099 136.901818 75.231889 137.104336 76.478127 137.306853 77.731679 137.509371 78.992411 137.711888 80.260187 137.914406 81.534874 138.116923 82.816337 138.319441 84.104442 138.521958 85.399053 138.724476 86.700038 138.926993 88.007261 139.129510 89.320588 139.332028 90.639884 139.534545 91.965015 139.737063 93.295847 139.939580 94.632245 140.142098 95.974075 140.344615 97.321202 140.547133 98.673492 140.749650 100.030811 140.952168 101.393023 141.154685 102.759995 141.357203 104.131592 141.559720 105.507680 141.762238 106.888124 141.964755 108.272790 142.167273 109.661544 142.369790 111.054250 142.572308 112.450775 142.774825 113.850984 142.977343 115.254743 143.179860 116.661917 143.382378 118.072372 143.584895 119.485973 143.787413 120.902586 143.989930 122.322077 144.192448 123.744310 144.394965 125.169153 144.597483 126.596469 144.800000 128.026126 145.002517 129.457987 145.205035 130.891920 145.407552 132.327789 145.610070 133.765460 145.812587 135.204799 146.015105 136.645671 146.217622 138.087942 146.420140 139.531477 146.622657 140.976142 146.825175 142.421802 147.027692 143.868324 147.230210 145.315572 147.432727 146.763412 147.635245 148.211710 147.837762 149.660331 148.040280 151.109141 148.242797 152.558005 148.445315 154.006790 148.647832 155.455360 148.850350 156.903581 149.052867 158.351318 149.255385 159.798439 149.457902 161.244806 149.660420 162.690288 149.862937 164.134748 150.065455 165.578053 150.267972 167.020067 150.470490 168.460658 150.673007 169.899690 150.875524 171.337028 151.078042 172.772539 151.280559 174.206088 151.483077 175.637540 151.685594 177.066762 151.888112 178.493618 152.090629 179.917974 152.293147 181.339696 152.495664 182.758649 152.698182 184.174699 152.900699 185.587712 153.103217 186.997552 153.305734 188.404087 153.508252 189.807180 153.710769 191.206698 153.913287 192.602507 154.115804 193.994471 154.318322 195.382457 154.520839 196.766330 154.723357 198.145955 154.925874 199.521198 155.128392 200.891926 155.330909 202.258002 155.533427 203.619293 155.735944 204.975665 155.938462 206.326983 156.140979 207.673112 156.343497 209.013918 156.546014 210.349267 156.748531 211.679024 156.951049 213.003055 157.153566 214.321226 157.356084 215.633401 157.558601 216.939447 157.761119 218.239228 157.963636 219.532612 158.166154 220.819463 158.368671 222.099646 158.571189 223.373028 158.773706 224.639474 158.976224 225.898849 159.178741 227.151019 159.381259 228.395850 159.583776 229.633207 159.786294 230.862956 159.988811 232.084962 160.191329 233.299091 160.393846 234.505208 160.596364 235.703180 160.798881 236.892871 161.001399 238.074147 161.203916 239.246874 161.406434 240.410917 161.608951 241.566142 161.811469 242.712414 162.013986 243.849600 162.216503 244.977564 162.419021 246.096172 162.621538 247.205289 162.824056 248.304782 163.026573 249.394516 163.229091 250.474381 163.431608 251.544367 163.634126 252.604489 163.836643 253.654760 164.039161 254.695197 164.241678 255.725812 164.444196 256.746622 164.646713 257.757640 164.849231 258.758881 165.051748 259.750359 165.254266 260.732090 165.456783 261.704088 165.659301 262.666367 165.861818 263.618942 166.064336 264.561827 166.266853 265.495038 166.469371 266.418588 166.671888 267.332492 166.874406 268.236766 167.076923 269.131423 167.279441 270.016477 167.481958 270.891945 167.684476 271.757839 167.886993 272.614176 168.089510 273.460968 168.292028 274.298232 168.494545 275.125981 168.697063 275.944230 168.899580 276.752994 169.102098 277.552287 169.304615 278.342124 169.507133 279.122520 169.709650 279.893488 169.912168 280.655044 170.114685 281.407202 170.317203 282.149977 170.519720 282.883383 170.722238 283.607435 170.924755 284.322148 171.127273 285.027535 171.329790 285.723613 171.532308 286.410394 171.734825 287.087895 171.937343 287.756128 172.139860 288.415110 172.342378 289.064854 172.544895 289.705376 172.747413 290.336689 172.949930 290.958808 173.152448 291.571749 173.354965 292.175524 173.557483 292.770150 173.760000 293.355641 173.962517 293.932010 174.165035 294.499274 174.367552 295.057446 174.570070 295.606541 174.772587 296.146573 174.975105 296.677557 175.177622 297.199509 175.380140 297.712441 175.582657 298.216369 175.785175 298.711308 175.987692 299.197272 176.190210 299.674275 176.392727 300.142333 176.595245 300.601459 176.797762 301.051669 177.000280 301.492977 177.202797 301.925397 177.405315 302.348944 177.607832 302.763633 177.810350 303.169479 178.012867 303.566495 178.215385 303.954696 178.417902 304.334098 178.620420 304.704714 178.822937 305.066559 179.025455 305.419648 179.227972 305.763996 179.430490 306.099616 179.633007 306.426524 179.835524 306.744734 180.038042 307.054260 180.240559 307.355118 180.443077 307.647322 180.645594 307.930886 180.848112 308.205825 181.050629 308.472153 181.253147 308.729886 181.455664 308.979038 181.658182 309.219623 181.860699 309.451655 182.063217 309.675151 182.265734 309.890123 182.468252 310.096587 182.670769 310.294557 182.873287 310.484048 183.075804 310.665074 183.278322 310.837650 183.480839 311.001791 183.683357 311.157511 183.885874 311.304825 184.088392 311.443747 184.290909 311.574292 184.493427 311.696474 184.695944 311.810309 184.898462 311.915810 185.100979 312.012992 185.303497 312.101870 185.506014 312.182458 185.708531 312.254772 185.911049 312.318825 186.113566 312.374632 186.316084 312.422207 186.518601 312.461566 186.721119 312.492723 186.923636 312.515692 187.126154 312.530489 187.328671 312.537127 187.531189 312.535621 187.733706 312.525986 187.936224 312.508236 188.138741 312.482386 188.341259 312.448451 188.543776 312.406444 188.746294 312.356382 188.948811 312.298278 189.151329 312.232146 189.353846 312.158002 189.556364 312.075860 189.758881 311.985735 189.961399 311.887640 190.163916 311.781592 190.366434 311.667604 190.568951 311.545690 190.771469 311.415867 190.973986 311.278147 191.176503 311.132546 191.379021 310.979078 191.581538 310.817758 191.784056 310.648600 191.986573 310.471620 192.189091 310.286831 192.391608 310.094248 192.594126 309.893886 192.796643 309.685759 192.999161 309.469882 193.201678 309.246270 193.404196 309.014936 193.606713 308.775896 193.809231 308.529165 194.011748 308.274756 194.214266 308.012685 194.416783 307.742965 194.619301 307.465613 194.821818 307.180641 195.024336 306.888065 195.226853 306.587899 195.429371 306.280158 195.631888 305.964857 195.834406 305.642010 196.036923 305.311631 196.239441 304.973735 196.441958 304.628338 196.644476 304.275452 196.846993 303.915094 197.049510 303.547277 197.252028 303.172016 197.454545 302.789326 197.657063 302.399221 197.859580 302.001716 198.062098 301.596826 198.264615 301.184564 198.467133 300.764946 198.669650 300.337986 198.872168 299.903699 199.074685 299.462100 199.277203 299.013202 199.479720 298.557021 199.682238 298.093571 199.884755 297.622866 200.087273 297.144922 200.289790 296.659753 200.492308 296.167373 200.694825 295.667797 200.897343 295.161040 201.099860 294.647116 201.302378 294.126039 201.504895 293.597825 201.707413 293.062488 201.909930 292.520042 202.112448 291.970503 202.314965 291.413884 202.517483 290.850200 202.720000 290.279466 202.922517 289.701696 203.125035 289.116906 203.327552 288.525109 203.530070 287.926320 203.732587 287.320554 203.935105 286.707825 204.137622 286.088148 204.340140 285.461538 204.542657 284.828008 204.745175 284.187575 204.947692 283.540251 205.150210 282.886052 205.352727 282.224993 205.555245 281.557087 205.757762 280.882351 205.960280 280.200797 206.162797 279.512441 206.365315 278.817297 206.567832 278.115380 206.770350 277.406705 206.972867 276.691285 207.175385 275.969136 207.377902 275.240273 207.580420 274.504709 207.782937 273.762460 207.985455 273.013539 208.187972 272.257962 208.390490 271.495743 208.593007 270.726897 208.795524 269.951438 208.998042 269.169381 209.200559 268.380740 209.403077 267.585531 209.605594 266.783767 209.808112 265.975463 210.010629 265.160634 210.213147 264.339294 210.415664 263.511458 210.618182 262.677141 210.820699 261.836356 211.023217 260.989120 211.225734 260.135445 211.428252 259.275348 211.630769 258.408842 211.833287 257.535942 212.035804 256.656662 212.238322 255.771018 212.440839 254.879023 212.643357 253.980693 212.845874 253.076041 213.048392 252.165083 213.250909 251.247833 213.453427 250.324306 213.655944 249.394516 213.858462 248.458491 214.060979 247.516306 214.263497 246.568052 214.466014 245.613818 214.668531 244.653693 214.871049 243.687767 215.073566 242.716129 215.276084 241.738868 215.478601 240.756074 215.681119 239.767837 215.883636 238.774244 216.086154 237.775387 216.288671 236.771354 216.491189 235.762235 216.693706 234.748118 216.896224 233.729094 217.098741 232.705252 217.301259 231.676681 217.503776 230.643470 217.706294 229.605709 217.908811 228.563488 218.111329 227.516895 218.313846 226.466020 218.516364 225.410952 218.718881 224.351781 218.921399 223.288596 219.123916 222.221486 219.326434 221.150542 219.528951 220.075851 219.731469 218.997505 219.933986 217.915591 220.136503 216.830199 220.339021 215.741419 220.541538 214.649340 220.744056 213.554052 220.946573 212.455643 221.149091 211.354204 221.351608 210.249823 221.554126 209.142590 221.756643 208.032594 221.959161 206.919925 222.161678 205.804672 222.364196 204.686924 222.566713 203.566771 222.769231 202.444302 222.971748 201.319607 223.174266 200.192774 223.376783 199.063894 223.579301 197.933056 223.781818 196.800348 223.984336 195.665861 224.186853 194.529683 224.389371 193.391905 224.591888 192.252615 224.794406 191.111903 224.996923 189.969858 225.199441 188.826570 225.401958 187.682127 225.604476 186.536620 225.806993 185.390138 226.009510 184.242770 226.212028 183.094605 226.414545 181.945733 226.617063 180.796243 226.819580 179.646225 227.022098 178.495767 227.224615 177.344960 227.427133 176.193893 227.629650 175.042654 227.832168 173.891334 228.034685 172.740022 228.237203 171.588807 228.439720 170.437779 228.642238 169.287026 228.844755 168.136639 229.047273 166.986706 229.249790 165.837317 229.452308 164.688562 229.654825 163.540529 229.857343 162.393309 230.059860 161.246990 230.262378 160.101661 230.464895 158.957413 230.667413 157.814335 230.869930 156.672516 231.072448 155.532045 231.274965 154.393011 231.477483 153.255505 231.680000 152.119615 231.882517 150.985431 232.085035 149.853043 232.287552 148.722538 232.490070 147.594008 232.692587 146.467541 232.895105 145.343227 233.097622 144.221155 233.300140 143.101414 233.502657 141.984094 233.705175 140.869284 233.907692 139.757074 234.110210 138.647552 234.312727 137.540809 234.515245 136.436934 234.717762 135.336015 234.920280 134.238143 235.122797 133.143407 235.325315 132.051895 235.527832 130.963699 235.730350 129.878906 235.932867 128.797606 236.135385 127.719889 236.337902 126.645844 236.540420 125.575561 236.742937 124.509128 236.945455 123.446635 237.147972 122.388172 237.350490 121.333827 237.553007 120.283691 237.755524 119.237852 237.958042 118.196400 238.160559 117.159425 238.363077 116.127015 238.565594 115.099260 238.768112 114.076250 238.970629 113.058074 239.173147 112.044821 239.375664 111.036580 239.578182 110.033441 239.780699 109.035494 239.983217 108.042827 240.185734 107.055530 240.388252 106.073693 240.590769 105.097404 240.793287 104.126753 240.995804 103.161830 241.198322 102.202724 241.400839 101.249525 241.603357 100.302320 241.805874 99.361201 242.008392 98.426256 242.210909 97.497575 242.413427 96.575247 242.615944 95.659362 242.818462 94.750008 243.020979 93.847276 243.223497 92.951254 243.426014 92.062032 243.628531 91.179700 243.831049 90.304346 244.033566 89.436060 244.236084 88.574932 244.438601 87.721050 244.641119 86.874505 244.843636 86.035386 245.046154 85.203781 245.248671 84.379780 245.451189 83.563474 245.653706 82.754950 245.856224 81.954299 246.058741 81.161609 246.261259 80.376971 246.463776 79.600473 246.666294 78.832205 246.868811 78.072256 247.071329 77.320716 247.273846 76.577674 247.476364 75.843220 247.678881 75.117442 247.881399 74.400430 248.083916 73.692274 248.286434 72.993063 248.488951 72.302886 248.691469 71.621832 248.893986 70.949992 249.096503 70.287453 249.299021 69.634307 249.501538 68.990642 249.704056 68.356547 249.906573 67.732112 250.109091 67.117426 250.311608 66.512579 250.514126 65.917660 250.716643 65.332758 250.919161 64.757962 251.121678 64.193363 251.324196 63.639049 251.526713 63.095110 251.729231 62.561636 251.931748 62.038714 252.134266 61.526436 252.336783 61.024890 252.539301 60.534166 252.741818 60.054352 252.944336 59.585539 253.146853 59.127816 253.349371 58.681272 253.551888 58.245997 253.754406 57.822079 253.956923 57.409608 254.159441 57.008675 254.361958 56.619367 254.564476 56.241775 254.766993 55.875987 254.969510 55.522093 255.172028 55.180183 255.374545 54.850346 255.577063 54.532671 255.779580 54.227248 255.982098 53.934165 256.184615 53.653513 256.387133 53.385381 256.589650 53.129858 256.792168 52.887033 256.994685 52.656996 257.197203 52.439836 257.399720 52.235643 257.602238 52.044505 257.804755 51.866513 258.007273 51.701756 258.209790 51.550323 258.412308 51.412303 258.614825 51.287786 258.817343 51.176861 259.019860 51.079617 259.222378 50.996145 259.424895 50.926533 259.627413 50.870870 259.829930 50.829246 260.032448 50.801751 260.234965 50.788474 260.437483 50.789503 260.640000 50.804930 260.842517 50.834842 261.045035 50.879329 261.247552 50.938481 261.450070 51.012387 261.652587 51.101136 261.855105 51.204818 262.057622 51.323522 262.260140 51.457337 262.462657 51.606354 262.665175 51.770660 262.867692 51.950346 263.070210 52.145501 263.272727 52.356215 263.475245 52.582576 263.677762 52.824674 263.880280 53.082599 264.082797 53.356439 264.285315 53.646284 264.487832 53.952189 264.690350 54.274064 264.892867 54.611784 265.095385 54.965225 265.297902 55.334263 265.500420 55.718773 265.702937 56.118632 265.905455 56.533713 266.107972 56.963894 266.310490 57.409048 266.513007 57.869053 266.715524 58.343784 266.918042 58.833115 267.120559 59.336923 267.323077 59.855084 267.525594 60.387471 267.728112 60.933963 267.930629 61.494433 268.133147 62.068757 268.335664 62.656811 268.538182 63.258471 268.740699 63.873612 268.943217 64.502109 269.145734 65.143838 269.348252 65.798675 269.550769 66.466495 269.753287 67.147174 269.955804 67.840587 270.158322 68.546610 270.360839 69.265118 270.563357 69.995987 270.765874 70.739092 270.968392 71.494310 271.170909 72.261515 271.373427 73.040583 271.575944 73.831389 271.778462 74.633810 271.980979 75.447720 272.183497 76.272996 272.386014 77.109513 272.588531 77.957145 272.791049 78.815770 272.993566 79.685262 273.196084 80.565497 273.398601 81.456351 273.601119 82.357698 273.803636 83.269415 274.006154 84.191378 274.208671 85.123461 274.411189 86.065540 274.613706 87.017491 274.816224 87.979189 275.018741 88.950510 275.221259 89.931330 275.423776 90.921523 275.626294 91.920966 275.828811 92.929534 276.031329 93.947103 276.233846 94.973548 276.436364 96.008744 276.638881 97.052568 276.841399 98.104894 277.043916 99.165599 277.246434 100.234558 277.448951 101.311646 277.651469 102.396739 277.853986 103.489712 278.056503 104.590441 278.259021 105.698802 278.461538 106.814670 278.664056 107.937921 278.866573 109.068430 279.069091 110.206073 279.271608 111.350725 279.474126 112.502262 279.676643 113.660559 279.879161 114.825492 280.081678 115.996937 280.284196 117.174769 280.486713 118.358863 280.689231 119.549095 280.891748 120.745341 281.094266 121.947476 281.296783 123.155376 281.499301 124.368917 281.701818 125.587973 281.904336 126.812420 282.106853 128.042134 282.309371 129.276991 282.511888 130.516866 282.714406 131.761634 282.916923 133.011172 283.119441 134.265354 283.321958 135.524056 283.524476 136.787154 283.726993 138.054524 283.929510 139.326040 284.132028 140.601578 284.334545 141.881015 284.537063 143.164225 284.739580 144.451083 284.942098 145.741467 285.144615 147.035250 285.347133 148.332309 285.549650 149.632520 285.752168 150.935757 285.954685 152.241896 286.157203 153.550813 286.359720 154.862384 286.562238 156.176483 286.764755 157.492987 286.967273 158.811771 287.169790 160.132710 287.372308 161.455680 287.574825 162.780557 287.777343 164.107216 287.979860 165.435533 288.182378 166.765383 288.384895 168.096642 288.587413 169.429186 288.789930 170.762889 288.992448 172.097627 289.194965 173.433277 289.397483 174.769713 289.600000 176.106811 289.802517 177.444447 290.005035 178.782496 290.207552 180.120834 290.410070 181.459336 290.612587 182.797877 290.815105 184.136334 291.017622 185.474582 291.220140 186.812497 291.422657 188.149953 291.625175 189.486827 291.827692 190.822994 292.030210 192.158329 292.232727 193.492709 292.435245 194.826008 292.637762 196.158103 292.840280 197.488868 293.042797 198.818180 293.245315 200.145913 293.447832 201.471944 293.650350 202.796148 293.852867 204.118400 294.055385 205.438577 294.257902 206.756553 294.460420 208.072204 294.662937 209.385406 294.865455 210.696034 295.067972 212.003964 295.270490 213.309071 295.473007 214.611231 295.675524 215.910319 295.878042 217.206212 296.080559 218.498783 296.283077 219.787910 296.485594 221.073468 296.688112 222.355331 296.890629 223.633377 297.093147 224.907479 297.295664 226.177514 297.498182 227.443358 297.700699 228.704885 297.903217 229.961972 298.105734 231.214494 298.308252 232.462326 298.510769 233.705344 298.713287 234.943424 298.915804 236.176441 299.118322 237.404271 299.320839 238.626789 299.523357 239.843870 299.725874 241.055391 299.928392 242.261227 300.130909 243.461253 300.333427 244.655345 300.535944 245.843378 300.738462 247.025229 300.940979 248.200772 301.143497 249.369883 301.346014 250.532438 301.548531 251.688312 301.751049 252.837380 301.953566 253.979519 302.156084 255.114604 302.358601 256.242510 302.561119 257.363114 302.763636 258.476289 302.966154 259.581913 303.168671 260.679860 303.371189 261.770006 303.573706 262.852227 303.776224 263.926398 303.978741 264.992395 304.181259 266.050093 304.383776 267.099368 304.586294 268.140095 304.788811 269.172150 304.991329 270.195409 305.193846 271.209747 305.396364 272.215039 305.598881 273.211161 305.801399 274.197989 306.003916 275.175398 306.206434 276.143264 306.408951 277.101462 306.611469 278.049868 306.813986 278.988357 307.016503 279.916805 307.219021 280.835087 307.421538 281.743080 307.624056 282.640658 307.826573 283.527697 308.029091 284.404073 308.231608 285.269661 308.434126 286.124336 308.636643 286.967975 308.839161 287.800453 309.041678 288.621645 309.244196 289.431427 309.446713 290.229674 309.649231 291.016263 309.851748 291.791067 310.054266 292.553964 310.256783 293.304829 310.459301 294.043537 310.661818 294.769963 310.864336 295.483984 311.066853 296.185474 311.269371 296.874310 311.471888 297.550366 311.674406 298.213519 311.876923 298.863644 312.079441 299.500617 312.281958 300.124312 312.484476 300.734607 312.686993 301.331375 312.889510 301.914493 313.092028 302.483836 313.294545 303.039280 313.497063 303.580700 313.699580 304.107973 313.902098 304.620972 314.104615 305.119575 314.307133 305.603656 314.509650 306.073091 314.712168 306.527756 314.914685 306.967526 315.117203 307.392312 315.319720 307.802169 315.522238 308.197187 315.724755 308.577456 315.927273 308.943066 316.129790 309.294107 316.332308 309.630669 316.534825 309.952843 316.737343 310.260718 316.939860 310.554385 317.142378 310.833933 317.344895 311.099453 317.547413 311.351035 317.749930 311.588769 317.952448 311.812744 318.154965 312.023052 318.357483 312.219782 318.560000 312.403025 318.762517 312.572870 318.965035 312.729407 319.167552 312.872727 319.370070 313.002919 319.572587 313.120075 319.775105 313.224283 319.977622 313.315634 320.180140 313.394218 320.382657 313.460125 320.585175 313.513446 320.787692 313.554270 320.990210 313.582687 321.192727 313.598788 321.395245 313.602663 321.597762 313.594401 321.800280 313.574093 322.002797 313.541829 322.205315 313.497699 322.407832 313.441793 322.610350 313.374202 322.812867 313.295014 323.015385 313.204321 323.217902 313.102213 323.420420 312.988779 323.622937 312.864110 323.825455 312.728295 324.027972 312.581426 324.230490 312.423591 324.433007 312.254881 324.635524 312.075387 324.838042 311.885198 325.040559 311.684404 325.243077 311.473096 325.445594 311.251363 325.648112 311.019296 325.850629 310.776984 326.053147 310.524518 326.255664 310.261989 326.458182 309.989485 326.660699 309.707097 326.863217 309.414916 327.065734 309.113031 327.268252 308.801532 327.470769 308.480510 327.673287 308.150054 327.875804 307.810255 328.078322 307.461203 328.280839 307.102987 328.483357 306.735699 328.685874 306.359428 328.888392 305.974263 329.090909 305.580297 329.293427 305.177617 329.495944 304.766315 329.698462 304.346480 329.900979 303.918203 330.103497 303.481574 330.306014 303.036682 330.508531 302.583619 330.711049 302.122473 330.913566 301.653336 331.116084 301.176297 331.318601 300.691446 331.521119 300.198873 331.723636 299.698669 331.926154 299.190924 332.128671 298.675727 332.331189 298.153169 332.533706 297.623340 332.736224 297.086329 332.938741 296.542228 333.141259 295.991126 333.343776 295.433114 333.546294 294.868280 333.748811 294.296716 333.951329 293.718512 334.153846 293.133757 334.356364 292.542542 334.558881 291.944957 334.761399 291.341091 334.963916 290.731036 335.166434 290.114881 335.368951 289.492716 335.571469 288.864631 335.773986 288.230717 335.976503 287.591063 336.179021 286.945759 336.381538 286.294897 336.584056 285.638565 336.786573 284.976854 336.989091 284.309854 337.191608 283.637655 337.394126 282.960347 337.596643 282.278021 337.799161 281.590766 338.001678 280.898672 338.204196 280.201829 338.406713 279.500329 338.609231 278.794260 338.811748 278.083713 339.014266 277.368778 339.216783 276.649545 339.419301 275.926104 339.621818 275.198545 339.824336 274.466958 340.026853 273.731434 340.229371 272.992062 340.431888 272.248933 340.634406 271.502137 340.836923 270.751763 341.039441 269.997902 341.241958 269.240644 341.444476 268.480080 341.646993 267.716298 341.849510 266.949390 342.052028 266.179445 342.254545 265.406553 342.457063 264.630805 342.659580 263.852291 342.862098 263.071100 343.064615 262.287323 343.267133 261.501050 343.469650 260.712371 343.672168 259.921376 343.874685 259.128155 344.077203 258.332799 344.279720 257.535397 344.482238 256.736039 344.684755 255.934816 344.887273 255.131818 345.089790 254.327135 345.292308 253.520856 345.494825 252.713072 345.697343 251.903874 345.899860 251.093350 346.102378 250.281592 346.304895 249.468689 346.507413 248.654732 346.709930 247.839810 346.912448 247.024014 347.114965 246.207433 347.317483 245.390158 347.520000 244.572279 347.722517 243.753887 347.925035 242.935070 348.127552 242.115919 348.330070 241.296525 348.532587 240.476977 348.735105 239.657366 348.937622 238.837781 349.140140 238.018313 349.342657 237.199052 349.545175 236.380087 349.747692 235.561510 349.950210 234.743409 350.152727 233.925876 350.355245 233.109000 350.557762 232.292871 350.760280 231.477580 350.962797 230.663216 351.165315 229.849870 351.367832 229.037631 351.570350 228.226591 351.772867 227.416838 351.975385 226.608463 352.177902 225.801557 352.380420 224.996208 352.582937 224.192508 352.785455 223.390546 352.987972 222.590413 353.190490 221.792199 353.393007 220.995993 353.595524 220.201885 353.798042 219.409967 354.000559 218.620328 354.203077 217.833057 354.405594 217.048246 354.608112 216.265984 354.810629 215.486362 355.013147 214.709468 355.215664 213.935395 355.418182 213.164231 355.620699 212.396066 355.823217 211.630992 356.025734 210.869097 356.228252 210.110473 356.430769 209.355208 356.633287 208.603394 356.835804 207.855120 357.038322 207.110476 357.240839 206.369553 357.443357 205.632441 357.645874 204.899229 357.848392 204.170008 358.050909 203.444868 358.253427 202.723898 358.455944 202.007190 358.658462 201.294833 358.860979 200.586917 359.063497 199.883533 359.266014 199.184770 359.468531 198.490718 359.671049 197.801468 359.873566 197.117110 360.076084 196.437734 360.278601 195.763429 360.481119 195.094287 360.683636 194.430396 360.886154 193.771848 361.088671 193.118732 361.291189 192.471139 361.493706 191.829158 361.696224 191.192879 361.898741 190.562393 362.101259 189.937790 362.303776 189.319160 362.506294 188.706593 362.708811 188.100179 362.911329 187.500008 363.113846 186.906170 363.316364 186.318756 363.518881 185.737855 363.721399 185.163558 363.923916 184.595954 364.126434 184.035134 364.328951 183.481187 364.531469 182.934205 364.733986 182.394277 364.936503 181.861492 365.139021 181.335942 365.341538 180.817716 365.544056 180.306905 365.746573 179.803575 365.949091 179.307705 366.151608 178.819247 366.354126 178.338156 366.556643 177.864386 366.759161 177.397892 366.961678 176.938628 367.164196 176.486547 367.366713 176.041605 367.569231 175.603755 367.771748 175.172951 367.974266 174.749148 368.176783 174.332300 368.379301 173.922361 368.581818 173.519286 368.784336 173.123028 368.986853 172.733542 369.189371 172.350782 369.391888 171.974702 369.594406 171.605256 369.796923 171.242399 369.999441 170.886084 370.201958 170.536267 370.404476 170.192900 370.606993 169.855940 370.809510 169.525338 371.012028 169.201051 371.214545 168.883031 371.417063 168.571234 371.619580 168.265613 371.822098 167.966122 372.024615 167.672717 372.227133 167.385350 372.429650 167.103977 372.632168 166.828551 372.834685 166.559026 373.037203 166.295358 373.239720 166.037499 373.442238 165.785405 373.644755 165.539029 373.847273 165.298325 374.049790 165.063249 374.252308 164.833754 374.454825 164.609793 374.657343 164.391323 374.859860 164.178296 375.062378 163.970666 375.264895 163.768389 375.467413 163.571418 375.669930 163.379708 375.872448 163.193212 376.074965 163.011885 376.277483 162.835681 376.480000 162.664555 376.682517 162.498460 376.885035 162.337350 377.087552 162.181181 377.290070 162.029905 377.492587 161.883478 377.695105 161.741854 377.897622 161.604986 378.100140 161.472829 378.302657 161.345337 378.505175 161.222464 378.707692 161.104165 378.910210 160.990394 379.112727 160.881105 379.315245 160.776251 379.517762 160.675788 379.720280 160.579670 379.922797 160.487850 380.125315 160.400284 380.327832 160.316924 380.530350 160.237726 380.732867 160.162643 380.935385 160.091630 381.137902 160.024642 381.340420 159.961631 381.542937 159.902552 381.745455 159.847361 381.947972 159.796010 382.150490 159.748454 382.353007 159.704647 382.555524 159.664543 382.758042 159.628098 382.960559 159.595263 383.163077 159.565995 383.365594 159.540248 383.568112 159.517974 383.770629 159.499129 383.973147 159.483667 384.175664 159.471542 384.378182 159.462709 384.580699 159.457120 384.783217 159.454732 384.985734 159.455497 385.188252 159.459370 385.390769 159.466305 385.593287 159.476257 385.795804 159.489180 385.998322 159.505027 386.200839 159.523754 386.403357 159.545313 386.605874 159.569661 386.808392 159.596749 387.010909 159.626534 387.213427 159.658969 387.415944 159.694008 387.618462 159.731606 387.820979 159.771716 388.023497 159.814293 388.226014 159.859291 388.428531 159.906665 388.631049 159.956368 388.833566 160.008355 389.036084 160.062579 389.238601 160.118996 389.441119 160.177559 389.643636 160.238223 389.846154 160.300941 390.048671 160.365668 390.251189 160.432359 390.453706 160.500967 390.656224 160.571446 390.858741 160.643751 391.061259 160.717836 391.263776 160.793655 391.466294 160.871163 391.668811 160.950313 391.871329 161.031060 392.073846 161.113357 392.276364 161.197160 392.478881 161.282423 392.681399 161.369099 392.883916 161.457142 393.086434 161.546508 393.288951 161.637150 393.491469 161.729022 393.693986 161.822079 393.896503 161.916275 394.099021 162.011563 394.301538 162.107899 394.504056 162.205237 394.706573 162.303529 394.909091 162.402732 395.111608 162.502799 395.314126 162.603684 395.516643 162.705341 395.719161 162.807725 395.921678 162.910790 396.124196 163.014490 396.326713 163.118780 396.529231 163.223612 396.731748 163.328942 396.934266 163.434725 397.136783 163.540913 397.339301 163.647461 397.541818 163.754324 397.744336 163.861456 397.946853 163.968810 398.149371 164.076342 398.351888 164.184005 398.554406 164.291753 398.756923 164.399541 398.959441 164.507323 399.161958 164.615053 399.364476 164.722686 399.566993 164.830174 399.769510 164.937474 399.972028 165.044538 400.174545 165.151322 400.377063 165.257779 400.579580 165.363863 400.782098 165.469530 400.984615 165.574732 401.187133 165.679424 401.389650 165.783560 401.592168 165.887096 401.794685 165.989983 401.997203 166.092178 402.199720 166.193634 402.402238 166.294306 402.604755 166.394147 402.807273 166.493111 403.009790 166.591154 403.212308 166.688229 403.414825 166.784290 403.617343 166.879292 403.819860 166.973188 404.022378 167.065934 404.224895 167.157482 404.427413 167.247789 404.629930 167.336806 404.832448 167.424490 405.034965 167.510793 405.237483 167.595671 405.440000 167.679077 405.642517 167.760966 405.845035 167.841292 406.047552 167.920008 406.250070 167.997070 406.452587 168.072432 406.655105 168.146047 406.857622 168.217869 407.060140 168.287854 407.262657 168.355955 407.465175 168.422127 407.667692 168.486323 407.870210 168.548498 408.072727 168.608606 408.275245 168.666602 408.477762 168.722439 408.680280 168.776071 408.882797 168.827453 409.085315 168.876540 409.287832 168.923285 409.490350 168.967642 409.692867 169.009566 409.895385 169.049011 410.097902 169.085931 410.300420 169.120280 410.502937 169.152013 410.705455 169.181083 410.907972 169.207446 411.110490 169.231054 411.313007 169.251863 411.515524 169.269827 411.718042 169.284899 411.920559 169.297034 412.123077 169.306186 412.325594 169.312310 412.528112 169.315359 412.730629 169.315288 412.933147 169.312050 413.135664 169.305601 413.338182 169.295895 413.540699 169.282885 413.743217 169.266525 413.945734 169.246771 414.148252 169.223576 414.350769 169.196894 414.553287 169.166680 414.755804 169.132887 414.958322 169.095471 415.160839 169.054384 415.363357 169.009583 415.565874 168.961019 415.768392 168.908649 415.970909 168.852425 416.173427 168.792303 416.375944 168.728249 416.578462 168.660282 416.780979 168.588432 416.983497 168.512732 417.186014 168.433211 417.388531 168.349902 417.591049 168.262836 417.793566 168.172043 417.996084 168.077555 418.198601 167.979403 418.401119 167.877619 418.603636 167.772233 418.806154 167.663276 419.008671 167.550781 419.211189 167.434777 419.413706 167.315297 419.616224 167.192371 419.818741 167.066031 420.021259 166.936308 420.223776 166.803232 420.426294 166.666836 420.628811 166.527150 420.831329 166.384206 421.033846 166.238034 421.236364 166.088666 421.438881 165.936134 421.641399 165.780467 421.843916 165.621698 422.046434 165.459858 422.248951 165.294978 422.451469 165.127088 422.653986 164.956221 422.856503 164.782408 423.059021 164.605679 423.261538 164.426065 423.464056 164.243599 423.666573 164.058311 423.869091 163.870232 424.071608 163.679394 424.274126 163.485827 424.476643 163.289563 424.679161 163.090634 424.881678 162.889069 425.084196 162.684902 425.286713 162.478162 425.489231 162.268880 425.691748 162.057089 425.894266 161.842819 426.096783 161.626101 426.299301 161.406967 426.501818 161.185448 426.704336 160.961575 426.906853 160.735378 427.109371 160.506891 427.311888 160.276142 427.514406 160.043165 427.716923 159.807989 427.919441 159.570647 428.121958 159.331168 428.324476 159.089586 428.526993 158.845929 428.729510 158.600231 428.932028 158.352522 429.134545 158.102833 429.337063 157.851195 429.539580 157.597640 429.742098 157.342199 429.944615 157.084903 430.147133 156.825782 430.349650 156.564870 430.552168 156.302195 430.754685 156.037791 430.957203 155.771687 431.159720 155.503915 431.362238 155.234507 431.564755 154.963493 431.767273 154.690905 431.969790 154.416774 432.172308 154.141130 432.374825 153.864006 432.577343 153.585433 432.779860 153.305441 432.982378 153.024061 433.184895 152.741326 433.387413 152.457266 433.589930 152.171912 433.792448 151.885295 433.994965 151.597448 434.197483 151.308400 434.400000 151.018183 434.602517 150.726829 434.805035 150.434368 435.007552 150.140832 435.210070 149.846251 435.412587 149.550658 435.615105 149.254083 435.817622 148.956557 436.020140 148.658112 436.222657 148.358778 436.425175 148.058588 436.627692 147.757571 436.830210 147.455760 437.032727 147.153186 437.235245 146.849879 437.437762 146.545871 437.640280 146.241193 437.842797 145.935877 438.045315 145.629953 438.247832 145.323452 438.450350 145.016407 438.652867 144.708847 438.855385 144.400805 439.057902 144.092311 439.260420 143.783396 439.462937 143.474093 439.665455 143.164431 439.867972 142.854442 440.070490 142.544158 440.273007 142.233610 440.475524 141.922828 440.678042 141.611843 440.880559 141.300688 441.083077 140.989394 441.285594 140.677990 441.488112 140.366510 441.690629 140.054983 441.893147 139.743441 442.095664 139.431916 442.298182 139.120437 442.500699 138.809038 442.703217 138.497748 442.905734 138.186599 443.108252 137.875622 443.310769 137.564849 443.513287 137.254310 443.715804 136.944037 443.918322 136.634060 444.120839 136.324412 444.323357 136.015123 444.525874 135.706224 444.728392 135.397748 444.930909 135.089723 445.133427 134.782183 445.335944 134.475159 445.538462 134.168680 445.740979 133.862779 445.943497 133.557487 446.146014 133.252835 446.348531 132.948854 446.551049 132.645575 446.753566 132.343030 446.956084 132.041249 447.158601 131.740265 447.361119 131.440107 447.563636 131.140808 447.766154 130.842398 447.968671 130.544909 448.171189 130.248371 448.373706 129.952817 448.576224 129.658277 448.778741 129.364782 448.981259 129.072364 449.183776 128.781053 449.386294 128.490882 449.588811 128.201880 449.791329 127.914080 449.993846 127.627513 450.196364 127.342209 450.398881 127.058200 450.601399 126.775517 450.803916 126.494191 451.006434 126.214254 451.208951 125.935736 451.411469 125.658670 451.613986 125.383085 451.816503 125.109013 452.019021 124.836486 452.221538 124.565534 452.424056 124.296189 452.626573 124.028483 452.829091 123.762445 453.031608 123.498107 453.234126 123.235501 453.436643 122.974658 453.639161 122.715609 453.841678 122.458384 454.044196 122.203016 454.246713 121.949535 454.449231 121.697973 454.651748 121.448361 454.854266 121.200730 455.056783 120.955111 455.259301 120.711535 455.461818 120.470034 455.664336 120.230639 455.866853 119.993381 456.069371 119.758290 456.271888 119.525399 456.474406 119.294739 456.676923 119.066340 456.879441 118.840234 457.081958 118.616453 457.284476 118.395026 457.486993 118.175986 457.689510 117.959363 457.892028 117.745190 458.094545 117.533496 458.297063 117.324313 458.499580 117.117673 458.702098 116.913607 458.904615 116.712145 459.107133 116.513319 459.309650 116.317160 459.512168 116.123700 459.714685 115.932969 459.917203 115.744999 460.119720 115.559820 460.322238 115.377465 460.524755 115.197964 460.727273 115.021348 460.929790 114.847649 461.132308 114.676898 461.334825 114.509126 461.537343 114.344364 461.739860 114.182643 461.942378 114.023995 462.144895 113.868450 462.347413 113.716041 462.549930 113.566798 462.752448 113.420752 462.954965 113.277934 463.157483 113.138376 463.360000 113.002109 463.562517 112.869164 463.765035 112.739573 463.967552 112.613365 464.170070 112.490574 464.372587 112.371229 464.575105 112.255362 464.777622 112.143004 464.980140 112.034187 465.182657 111.928941 465.385175 111.827298 465.587692 111.729289 465.790210 111.634945 465.992727 111.544298 466.195245 111.457377 466.397762 111.374216 466.600280 111.294844 466.802797 111.219294 467.005315 111.147587 467.207832 111.079710 467.410350 111.015643 467.612867 110.955364 467.815385 110.898851 468.017902 110.846083 468.220420 110.797039 468.422937 110.751696 468.625455 110.710034 468.827972 110.672031 469.030490 110.637665 469.233007 110.606915 469.435524 110.579760 469.638042 110.556179 469.840559 110.536148 470.043077 110.519648 470.245594 110.506657 470.448112 110.497152 470.650629 110.491114 470.853147 110.488520 471.055664 110.489348 471.258182 110.493578 471.460699 110.501188 471.663217 110.512156 471.865734 110.526461 472.068252 110.544082 472.270769 110.564996 472.473287 110.589183 472.675804 110.616621 472.878322 110.647288 473.080839 110.681164 473.283357 110.718226 473.485874 110.758454 473.688392 110.801825 473.890909 110.848318 474.093427 110.897912 474.295944 110.950585 474.498462 111.006316 474.700979 111.065083 474.903497 111.126865 475.106014 111.191641 475.308531 111.259388 475.511049 111.330086 475.713566 111.403712 475.916084 111.480247 476.118601 111.559667 476.321119 111.641952 476.523636 111.727079 476.726154 111.815029 476.928671 111.905778 477.131189 111.999306 477.333706 112.095591 477.536224 112.194612 477.738741 112.296347 477.941259 112.400775 478.143776 112.507875 478.346294 112.617624 478.548811 112.730001 478.751329 112.844985 478.953846 112.962555 479.156364 113.082688 479.358881 113.205364 479.561399 113.330561 479.763916 113.458258 479.966434 113.588432 480.168951 113.721063 480.371469 113.856129 480.573986 113.993609 480.776503 114.133481 480.979021 114.275723 481.181538 114.420315 481.384056 114.567235 481.586573 114.716460 481.789091 114.867971 481.991608 115.021745 482.194126 115.177760 482.396643 115.335996 482.599161 115.496431 482.801678 115.659044 483.004196 115.823812 483.206713 115.990715 483.409231 116.159731 483.611748 116.330838 483.814266 116.504015 484.016783 116.679241 484.219301 116.856494 484.421818 117.035753 484.624336 117.216996 484.826853 117.400202 485.029371 117.585349 485.231888 117.772415 485.434406 117.961380 485.636923 118.152222 485.839441 118.344919 486.041958 118.539450 486.244476 118.735793 486.446993 118.933927 486.649510 119.133831 486.852028 119.335483 487.054545 119.538861 487.257063 119.743944 487.459580 119.950711 487.662098 120.159140 487.864615 120.369210 488.067133 120.580898 488.269650 120.794185 488.472168 121.009047 488.674685 121.225465 488.877203 121.443415 489.079720 121.662878 489.282238 121.883830 489.484755 122.106252 489.687273 122.330121 489.889790 122.555416 490.092308 122.782115 490.294825 123.010197 490.497343 123.239641 490.699860 123.470424 490.902378 123.702527 491.104895 123.935926 491.307413 124.170601 491.509930 124.406530 491.712448 124.643692 491.914965 124.882065 492.117483 125.121627 492.320000 125.362358 492.522517 125.604236 492.725035 125.847238 492.927552 126.091345 493.130070 126.336534 493.332587 126.582784 493.535105 126.830074 493.737622 127.078381 493.940140 127.327685 494.142657 127.577963 494.345175 127.829196 494.547692 128.081360 494.750210 128.334435 494.952727 128.588399 495.155245 128.843231 495.357762 129.098908 495.560280 129.355411 495.762797 129.612717 495.965315 129.870804 496.167832 130.129652 496.370350 130.389238 496.572867 130.649542 496.775385 130.910542 496.977902 131.172216 497.180420 131.434543 497.382937 131.697501 497.585455 131.961070 497.787972 132.225227 497.990490 132.489950 498.193007 132.755220 498.395524 133.021013 498.598042 133.287310 498.800559 133.554087 499.003077 133.821324 499.205594 134.088999 499.408112 134.357091 499.610629 134.625578 499.813147 134.894439 500.015664 135.163652 500.218182 135.433196 500.420699 135.703049 500.623217 135.973191 500.825734 136.243598 501.028252 136.514251 501.230769 136.785127 501.433287 137.056205 501.635804 137.327464 501.838322 137.598881 502.040839 137.870437 502.243357 138.142108 502.445874 138.413874 502.648392 138.685713 502.850909 138.957604 503.053427 139.229525 503.255944 139.501455 503.458462 139.773372 503.660979 140.045255 503.863497 140.317082 504.066014 140.588833 504.268531 140.860484 504.471049 141.132016 504.673566 141.403405 504.876084 141.674632 505.078601 141.945675 505.281119 142.216511 505.483636 142.487120 505.686154 142.757480 505.888671 143.027570 506.091189 143.297368 506.293706 143.566852 506.496224 143.836002 506.698741 144.104795 506.901259 144.373211 507.103776 144.641227 507.306294 144.908823 507.508811 145.175977 507.711329 145.442666 507.913846 145.708871 508.116364 145.974570 508.318881 146.239740 508.521399 146.504361 508.723916 146.768410 508.926434 147.031868 509.128951 147.294711 509.331469 147.556919 509.533986 147.818470 509.736503 148.079342 509.939021 148.339515 510.141538 148.598967 510.344056 148.857676 510.546573 149.115620 510.749091 149.372779 510.951608 149.629131 511.154126 149.884654 511.356643 150.139327 511.559161 150.393128 511.761678 150.646036 511.964196 150.898030 512.166713 151.149087 512.369231 151.399187 512.571748 151.648309 512.774266 151.896429 512.976783 152.143528 513.179301 152.389584 513.381818 152.634574 513.584336 152.878478 513.786853 153.121275 513.989371 153.362942 514.191888 153.603459 514.394406 153.842803 514.596923 154.080954 514.799441 154.317889 515.001958 154.553588 515.204476 154.788029 515.406993 155.021190 515.609510 155.253050 515.812028 155.483588 516.014545 155.712781 516.217063 155.940609 516.419580 156.167051 516.622098 156.392083 516.824615 156.615686 517.027133 156.837838 517.229650 157.058517 517.432168 157.277701 517.634685 157.495375 517.837203 157.711538 518.039720 157.926198 518.242238 158.139361 518.444755 158.351032 518.647273 158.561217 518.849790 158.769923 519.052308 158.977156 519.254825 159.182922 519.457343 159.387226 519.659860 159.590075 519.862378 159.791475 520.064895 159.991432 520.267413 160.189953 520.469930 160.387042 520.672448 160.582706 520.874965 160.776952 521.077483 160.969785 521.280000 161.161212 521.482517 161.351237 521.685035 161.539869 521.887552 161.727112 522.090070 161.912972 522.292587 162.097457 522.495105 162.280571 522.697622 162.462320 522.900140 162.642712 523.102657 162.821752 523.305175 162.999445 523.507692 163.175799 523.710210 163.350819 523.912727 163.524511 524.115245 163.696881 524.317762 163.867936 524.520280 164.037681 524.722797 164.206122 524.925315 164.373266 525.127832 164.539119 525.330350 164.703686 525.532867 164.866974 525.735385 165.028988 525.937902 165.189736 526.140420 165.349222 526.342937 165.507453 526.545455 165.664436 526.747972 165.820175 526.950490 165.974677 527.153007 166.127949 527.355524 166.279996 527.558042 166.430824 527.760559 166.580440 527.963077 166.728849 528.165594 166.876058 528.368112 167.022072 528.570629 167.166898 528.773147 167.310542 528.975664 167.453009 529.178182 167.594306 529.380699 167.734439 529.583217 167.873414 529.785734 168.011237 529.988252 168.147915 530.190769 168.283452 530.393287 168.417855 530.595804 168.551131 530.798322 168.683285 531.000839 168.814324 531.203357 168.944253 531.405874 169.073078 531.608392 169.200806 531.810909 169.327443 532.013427 169.452995 532.215944 169.577467 532.418462 169.700866 532.620979 169.823198 532.823497 169.944469 533.026014 170.064685 533.228531 170.183852 533.431049 170.301976 533.633566 170.419064 533.836084 170.535120 534.038601 170.650152 534.241119 170.764166 534.443636 170.877167 534.646154 170.989161 534.848671 171.100156 535.051189 171.210155 535.253706 171.319167 535.456224 171.427196 535.658741 171.534249 535.861259 171.640332 536.063776 171.745451 536.266294 171.849612 536.468811 171.952821 536.671329 172.055085 536.873846 172.156408 537.076364 172.256798 537.278881 172.356260 537.481399 172.454801 537.683916 172.552426 537.886434 172.649142 538.088951 172.744954 538.291469 172.839869 538.493986 172.933892 538.696503 173.027031 538.899021 173.119290 539.101538 173.210676 539.304056 173.301196 539.506573 173.390854 539.709091 173.479657 539.911608 173.567612 540.114126 173.654723 540.316643 173.740999 540.519161 173.826443 540.721678 173.911063 540.924196 173.994864 541.126713 174.077853 541.329231 174.160036 541.531748 174.241418 541.734266 174.322006 541.936783 174.401806 542.139301 174.480823 542.341818 174.559065 542.544336 174.636536 542.746853 174.713244 542.949371 174.789193 543.151888 174.864391 543.354406 174.938844 543.556923 175.012556 543.759441 175.085535 543.961958 175.157786 544.164476 175.229316 544.366993 175.300130 544.569510 175.370235 544.772028 175.439637 544.974545 175.508341 545.177063 175.576354 545.379580 175.643682 545.582098 175.710331 545.784615 175.776307 545.987133 175.841616 546.189650 175.906265 546.392168 175.970258 546.594685 176.033603 546.797203 176.096305 546.999720 176.158370 547.202238 176.219805 547.404755 176.280615 547.607273 176.340807 547.809790 176.400386 548.012308 176.459360 548.214825 176.517732 548.417343 176.575511 548.619860 176.632702 548.822378 176.689311 549.024895 176.745343 549.227413 176.800806 549.429930 176.855705 549.632448 176.910046 549.834965 176.963835 550.037483 177.017079 550.240000 177.069783 550.442517 177.121953 550.645035 177.173596 550.847552 177.224718 551.050070 177.275324 551.252587 177.325421 551.455105 177.375014 551.657622 177.424111 551.860140 177.472716 552.062657 177.520836 552.265175 177.568478 552.467692 177.615646 552.670210 177.662348 552.872727 177.708589 553.075245 177.754375 553.277762 177.799712 553.480280 177.844607 553.682797 177.889065 553.885315 177.933093 554.087832 177.976696 554.290350 178.019881 554.492867 178.062654 554.695385 178.105021 554.897902 178.146987 555.100420 178.188559 555.302937 178.229743 555.505455 178.270546 555.707972 178.310972 555.910490 178.351029 556.113007 178.390721 556.315524 178.430056 556.518042 178.469040 556.720559 178.507677 556.923077 178.545976 557.125594 178.583940 557.328112 178.621578 557.530629 178.658894 557.733147 178.695894 557.935664 178.732586 558.138182 178.768974 558.340699 178.805066 558.543217 178.840866 558.745734 178.876381 558.948252 178.911617 559.150769 178.946581 559.353287 178.981278 559.555804 179.015714 559.758322 179.049895 559.960839 179.083828 560.163357 179.117518 560.365874 179.150972 560.568392 179.184196 560.770909 179.217195 560.973427 179.249976 561.175944 179.282544 561.378462 179.314907 561.580979 179.347069 561.783497 179.379037 561.986014 179.410818 562.188531 179.442416 562.391049 179.473839 562.593566 179.505092 562.796084 179.536181 562.998601 179.567113 563.201119 179.597893 563.403636 179.628528 563.606154 179.659023 563.808671 179.689384 564.011189 179.719619 564.213706 179.749732 564.416224 179.779730 564.618741 179.809618 564.821259 179.839404 565.023776 179.869093 565.226294 179.898691 565.428811 179.928203 565.631329 179.957638 565.833846 179.986999 566.036364 180.016293 566.238881 180.045527 566.441399 180.074707 566.643916 180.103838 566.846434 180.132926 567.048951 180.161978 567.251469 180.191000 567.453986 180.219997 567.656503 180.248977 567.859021 180.277944 568.061538 180.306905 568.061538 514.000000" /></g></g><g class="titles"><text class="title plot_title" x="400.0" y="26">Saphan-Khwai 52</text></g><g class="plot overlay" transform="translate(200, 46)"><g class="series serie-0 color-0"><g class="dots"><circle class="dot reactive tooltip-trigger" cx="11.13846153846154" cy="341.51133118258815" r="2.5" /><desc class="value">193000</desc><desc class="x top">11.13846153846154</desc><desc class="y top">341.51133118258815</desc><desc class="x_label">Jan</desc></g><g class="dots"><circle class="dot reactive tooltip-trigger" cx="61.76783216783217" cy="468.17195172324006" r="2.5" /><desc class="value">182000</desc><desc class="x top">61.76783216783217</desc><desc class="y top">468.17195172324006</desc><desc class="x_label">Feb</desc></g><g class="dots"><circle class="dot reactive tooltip-trigger" cx="112.3972027972028" cy="19.102478897292542" r="2.5" /><desc class="value">221000</desc><desc class="x ">112.3972027972028</desc><desc class="y ">19.102478897292542</desc><desc class="x_label">Mar</desc></g><g class="dots"><circle class="dot reactive tooltip-trigger" cx="163.02657342657344" cy="249.3945162439323" r="2.5" /><desc class="value">201000</desc><desc class="x ">163.02657342657344</desc><desc class="y ">249.3945162439323</desc><desc class="x_label">Apr</desc></g><g class="dots"><circle class="dot reactive tooltip-trigger" cx="213.65594405594408" cy="249.3945162439323" r="2.5" /><desc class="value">201000</desc><desc class="x ">213.65594405594408</desc><desc class="y ">249.3945162439323</desc><desc class="x_label">May</desc></g><g class="dots"><circle class="dot reactive tooltip-trigger" cx="264.2853146853147" cy="53.64628449928847" r="2.5" /><desc class="value">218000</desc><desc class="x ">264.2853146853147</desc><desc class="y ">53.64628449928847</desc><desc class="x_label">Jun</desc></g><g class="dots"><circle class="dot reactive tooltip-trigger" cx="314.9146853146853" cy="306.9675255805922" r="2.5" /><desc class="value">196000</desc><desc class="x left top">314.9146853146853</desc><desc class="y left top">306.9675255805922</desc><desc class="x_label">Jul</desc></g><g class="dots"><circle class="dot reactive tooltip-trigger" cx="365.54405594405597" cy="180.30690503994037" r="2.5" /><desc class="value">207000</desc><desc class="x left">365.54405594405597</desc><desc class="y left">180.30690503994037</desc><desc class="x_label">Aug</desc></g><g class="dots"><circle class="dot reactive tooltip-trigger" cx="416.17342657342664" cy="168.7923031726084" r="2.5" /><desc class="value">208000</desc><desc class="x left">416.17342657342664</desc><desc class="y left">168.7923031726084</desc><desc class="x_label">Sep</desc></g><g class="dots"><circle class="dot reactive tooltip-trigger" cx="466.8027972027973" cy="111.2192938359484" r="2.5" /><desc class="value">213000</desc><desc class="x left">466.8027972027973</desc><desc class="y left">111.2192938359484</desc><desc class="x_label">Oct</desc></g><g class="dots"><circle class="dot reactive tooltip-trigger" cx="517.4321678321678" cy="157.27770130527642" r="2.5" /><desc class="value">209000</desc><desc class="x left">517.4321678321678</desc><desc class="y left">157.27770130527642</desc><desc class="x_label">Nov</desc></g><g class="dots"><circle class="dot reactive tooltip-trigger" cx="568.0615384615386" cy="180.30690503994037" r="2.5" /><desc class="value">207000</desc><desc class="x left">568.0615384615386</desc><desc class="y left">180.30690503994037</desc><desc class="x_label">Dec</desc></g></g></g><g class="plot text-overlay" transform="translate(200, 46)"><g class="series serie-0 color-0" /></g><g class="plot tooltip-overlay" transform="translate(200, 46)"><g class="tooltip" style="opacity: 0" transform="translate(0 0)"><rect class="tooltip-box" height="0" rx="0" ry="0" width="0" /><g class="text" /></g></g><g class="legends" transform="translate(10, 56)"><g class="legend reactive activate-serie" id="activate-serie-0"><rect class="color-0 reactive" height="12" width="12" x="0.0" y="1.0" /><text x="17.0" y="11.2">Saphan-Khwai</text></g></g><g class="legends" transform="translate(790, 56)" /></g></svg>