<?xml version='1.0' encoding='utf-8'?>
<svg xmlns:xlink="http://www.w3.org/1999/xlink" class="pygal-chart" id="chart-24be9d69-e3d7-432a-a2fb-94d740dd658f" viewBox="0 0 800 600" xmlns="http://www.w3.org/2000/svg"><!--Generated with pygal 2.0.11 (etree) ©Kozea 2011-2015 on 2015-12-10--><!--http://pygal.org--><!--http://github.com/Kozea/pygal--><defs><style type="text/css">#chart-24be9d69-e3d7-432a-a2fb-94d740dd658f{-webkit-user-select:none;-webkit-font-smoothing:antialiased;font-family:Consolas,"Liberation Mono",Menlo,Courier,monospace}#chart-24be9d69-e3d7-432a-a2fb-94d740dd658f .title{font-family:Consolas,"Liberation Mono",Menlo,Courier,monospace;font-size:16px}#chart-24be9d69-e3d7-432a-a2fb-94d740dd658f .legends .legend text{font-family:Consolas,"Liberation Mono",Menlo,Courier,monospace;font-size:14px}#chart-24be9d69-e3d7-432a-a2fb-94d740dd658f .axis text{font-family:Consolas,"Liberation Mono",Menlo,Courier,monospace;font-size:10px}#chart-24be9d69-e3d7-432a-a2fb-94d740dd658f .axis text.major{font-family:Consolas,"Liberation Mono",Menlo,Courier,monospace;font-size:10px}#chart-24be9d69-e3d7-432a-a2fb-94d740dd658f .text-overlay text.value{font-family:Consolas,"Liberation Mono",Menlo,Courier,monospace;font-size:16px}#chart-24be9d69-e3d7-432a-a2fb-94d740dd658f .text-overlay text.label{font-family:Consolas,"Liberation Mono",Menlo,Courier,monospace;font-size:10px}#chart-24be9d69-e3d7-432a-a2fb-94d740dd658f .tooltip{font-family:Consolas,"Liberation Mono",Menlo,Courier,monospace;font-size:14px}#chart-24be9d69-e3d7-432a-a2fb-94d740dd658f text.no_data{font-family:Consolas,"Liberation Mono",Menlo,Courier,monospace;font-size:64px}
#chart-24be9d69-e3d7-432a-a2fb-94d740dd658f{background-color:black}#chart-24be9d69-e3d7-432a-a2fb-94d740dd658f path,#chart-24be9d69-e3d7-432a-a2fb-94d740dd658f line,#chart-24be9d69-e3d7-432a-a2fb-94d740dd658f rect,#chart-24be9d69-e3d7-432a-a2fb-94d740dd658f circle{-webkit-transition:250ms;-moz-transition:250ms;transition:250ms}#chart-24be9d69-e3d7-432a-a2fb-94d740dd658f .graph &gt; .background{fill:black}#chart-24be9d69-e3d7-432a-a2fb-94d740dd658f .plot &gt; .background{fill:#111}#chart-24be9d69-e3d7-432a-a2fb-94d740dd658f .graph{fill:#999}#chart-24be9d69-e3d7-432a-a2fb-94d740dd658f text.no_data{fill:#eee}#chart-24be9d69-e3d7-432a-a2fb-94d740dd658f .title{fill:#eee}#chart-24be9d69-e3d7-432a-a2fb-94d740dd658f .legends .legend text{fill:#999}#chart-24be9d69-e3d7-432a-a2fb-94d740dd658f .legends .legend:hover text{fill:#eee}#chart-24be9d69-e3d7-432a-a2fb-94d740dd658f .axis .line{stroke:#eee}#chart-24be9d69-e3d7-432a-a2fb-94d740dd658f .axis .guide.line{stroke:#555}#chart-24be9d69-e3d7-432a-a2fb-94d740dd658f .axis .major.line{stroke:#999}#chart-24be9d69-e3d7-432a-a2fb-94d740dd658f .axis text.major{fill:#eee}#chart-24be9d69-e3d7-432a-a2fb-94d740dd658f .axis.y .guides:hover .guide.line,#chart-24be9d69-e3d7-432a-a2fb-94d740dd658f .line-graph .axis.x .guides:hover .guide.line,#chart-24be9d69-e3d7-432a-a2fb-94d740dd658f .stackedline-graph .axis.x .guides:hover .guide.line,#chart-24be9d69-e3d7-432a-a2fb-94d740dd658f .xy-graph .axis.x .guides:hover .guide.line{stroke:#eee}#chart-24be9d69-e3d7-432a-a2fb-94d740dd658f .axis .guides:hover text{fill:#eee}#chart-24be9d69-e3d7-432a-a2fb-94d740dd658f .reactive{fill-opacity:.8}#chart-24be9d69-e3d7-432a-a2fb-94d740dd658f .reactive.active,#chart-24be9d69-e3d7-432a-a2fb-94d740dd658f .active .reactive{fill-opacity:.4;stroke-width:4}#chart-24be9d69-e3d7-432a-a2fb-94d740dd658f .series text{fill:#eee}#chart-24be9d69-e3d7-432a-a2fb-94d740dd658f .tooltip rect{fill:#111;stroke:#eee;-webkit-transition:opacity 250ms;-moz-transition:opacity 250ms;transition:opacity 250ms}#chart-24be9d69-e3d7-432a-a2fb-94d740dd658f .tooltip .label{fill:#999}#chart-24be9d69-e3d7-432a-a2fb-94d740dd658f .tooltip .label{fill:#999}#chart-24be9d69-e3d7-432a-a2fb-94d740dd658f .tooltip .legend{font-size:.8em;fill:#555}#chart-24be9d69-e3d7-432a-a2fb-94d740dd658f .tooltip .x_label{font-size:.6em;fill:#eee}#chart-24be9d69-e3d7-432a-a2fb-94d740dd658f .tooltip .xlink{font-size:.5em;text-decoration:underline}#chart-24be9d69-e3d7-432a-a2fb-94d740dd658f .tooltip .value{font-size:1.5em}#chart-24be9d69-e3d7-432a-a2fb-94d740dd658f .map-element{fill:#111;stroke:#555 !important}#chart-24be9d69-e3d7-432a-a2fb-94d740dd658f .map-element .reactive{fill-opacity:inherit}#chart-24be9d69-e3d7-432a-a2fb-94d740dd658f .color-0,#chart-24be9d69-e3d7-432a-a2fb-94d740dd658f .color-0 a:visited{stroke:#ff5995;fill:#ff5995}#chart-24be9d69-e3d7-432a-a2fb-94d740dd658f .text-overlay .color-0 text{fill:black}
#chart-24be9d69-e3d7-432a-a2fb-94d740dd658f text.no_data{text-anchor:middle}#chart-24be9d69-e3d7-432a-a2fb-94d740dd658f .guide.line{fill:none}#chart-24be9d69-e3d7-432a-a2fb-94d740dd658f .centered{text-anchor:middle}#chart-24be9d69-e3d7-432a-a2fb-94d740dd658f .title{text-anchor:middle}#chart-24be9d69-e3d7-432a-a2fb-94d740dd658f .legends .legend text{fill-opacity:1}#chart-24be9d69-e3d7-432a-a2fb-94d740dd658f .axis.x text{text-anchor:middle}#chart-24be9d69-e3d7-432a-a2fb-94d740dd658f .axis.x:not(.web) text[transform]{text-anchor:start}#chart-24be9d69-e3d7-432a-a2fb-94d740dd658f .axis.x:not(.web) text[transform].backwards{text-anchor:end}#chart-24be9d69-e3d7-432a-a2fb-94d740dd658f .axis.y text{text-anchor:end}#chart-24be9d69-e3d7-432a-a2fb-94d740dd658f .axis.y text[transform].backwards{text-anchor:start}#chart-24be9d69-e3d7-432a-a2fb-94d740dd658f .axis.y2 text{text-anchor:start}#chart-24be9d69-e3d7-432a-a2fb-94d740dd658f .axis.y2 text[transform].backwards{text-anchor:end}#chart-24be9d69-e3d7-432a-a2fb-94d740dd658f .axis .guide.line{stroke-dasharray:4,4}#chart-24be9d69-e3d7-432a-a2fb-94d740dd658f .axis .major.guide.line{stroke-dasharray:6,6}#chart-24be9d69-e3d7-432a-a2fb-94d740dd658f .horizontal .axis.y .guide.line,#chart-24be9d69-e3d7-432a-a2fb-94d740dd658f .horizontal .axis.y2 .guide.line,#chart-24be9d69-e3d7-432a-a2fb-94d740dd658f .vertical .axis.x .guide.line{opacity:0}#chart-24be9d69-e3d7-432a-a2fb-94d740dd658f .horizontal .axis.always_show .guide.line,#chart-24be9d69-e3d7-432a-a2fb-94d740dd658f .vertical .axis.always_show .guide.line{opacity:1 !important}#chart-24be9d69-e3d7-432a-a2fb-94d740dd658f .axis.y .guides:hover .guide.line,#chart-24be9d69-e3d7-432a-a2fb-94d740dd658f .axis.y2 .guides:hover .guide.line,#chart-24be9d69-e3d7-432a-a2fb-94d740dd658f .axis.x .guides:hover .guide.line{opacity:1}#chart-24be9d69-e3d7-432a-a2fb-94d740dd658f .axis .guides:hover text{opacity:1}#chart-24be9d69-e3d7-432a-a2fb-94d740dd658f .nofill{fill:none}#chart-24be9d69-e3d7-432a-a2fb-94d740dd658f .subtle-fill{fill-opacity:.2}#chart-24be9d69-e3d7-432a-a2fb-94d740dd658f .dot{stroke-width:1px;fill-opacity:1}#chart-24be9d69-e3d7-432a-a2fb-94d740dd658f .dot.active{stroke-width:5px}#chart-24be9d69-e3d7-432a-a2fb-94d740dd658f .dot.negative{fill:transparent}#chart-24be9d69-e3d7-432a-a2fb-94d740dd658f text,#chart-24be9d69-e3d7-432a-a2fb-94d740dd658f tspan{stroke:none !important}#chart-24be9d69-e3d7-432a-a2fb-94d740dd658f .series text.active{opacity:1}#chart-24be9d69-e3d7-432a-a2fb-94d740dd658f .tooltip rect{fill-opacity:.95;stroke-width:.5}#chart-24be9d69-e3d7-432a-a2fb-94d740dd658f .tooltip text{fill-opacity:1}#chart-24be9d69-e3d7-432a-a2fb-94d740dd658f .showable{visibility:hidden}#chart-24be9d69-e3d7-432a-a2fb-94d740dd658f .showable.shown{visibility:visible}</style><script type="text/javascript">window.pygal = window.pygal || {};window.pygal.config = window.pygal.config || {};window.pygal.config['24be9d69-e3d7-432a-a2fb-94d740dd658f'] = {"print_values": false, "truncate_label": null, "human_readable": false, "explicit_size": false, "show_y_labels": true, "x_labels": ["Jan", "Feb", "Mar", "Apr", "May", "Jun", "Jul", "Aug", "Sep", "Oct", "Nov", "Dec"], "inverse_y_axis": false, "x_labels_major_count": null, "show_y_guides": true, "spacing": 10, "xrange": null, "rounded_bars": null, "margin": 20, "interpolation_precision": 250, "title": "Surasak 52", "stroke_style": null, "no_data_text": "No data", "fill": true, "box_mode": "extremes", "print_labels": false, "interpolate": "cubic", "zero": 0, "show_only_major_dots": false, "truncate_legend": null, "show_minor_x_labels": true, "js": ["//kozea.github.io/pygal.js/2.0.x/pygal-tooltips.min.js"], "x_labels_major_every": null, "legends": ["Surasak"], "tooltip_fancy_mode": true, "disable_xml_declaration": false, "show_x_guides": false, "print_zeroes": true, "show_legend": true, "legend_at_bottom": false, "y_labels_major_count": null, "secondary_range": null, "margin_bottom": null, "half_pie": false, "height": 600, "range": null, "show_minor_y_labels": true, "defs": [], "css": ["file://style.css", "file://graph.css"], "y_labels": null, "interpolation_parameters": {}, "width": 800, "strict": false, "pretty_print": false, "min_scale": 4, "margin_top": null, "dynamic_print_values": false, "order_min": null, "x_title": null, "margin_left": null, "margin_right": null, "y_labels_major_every": null, "stroke": true, "x_labels_major": null, "missing_value_fill_truncation": "x", "logarithmic": false, "stack_from_top": false, "show_dots": true, "style": {"title_font_size": 16, "title_font_family": "Consolas, \"Liberation Mono\", Menlo, Courier, monospace", "tooltip_font_family": "Consolas, \"Liberation Mono\", Menlo, Courier, monospace", "background": "black", "tooltip_font_size": 14, "opacity_hover": ".4", "value_label_font_size": 10, "opacity": ".8", "no_data_font_family": "Consolas, \"Liberation Mono\", Menlo, Courier, monospace", "label_font_size": 10, "plot_background": "#111", "value_font_size": 16, "value_font_family": "Consolas, \"Liberation Mono\", Menlo, Courier, monospace", "no_data_font_size": 64, "foreground_strong": "#eee", "font_family": "Consolas, \"Liberation Mono\", Menlo, Courier, monospace", "label_font_family": "Consolas, \"Liberation Mono\", Menlo, Courier, monospace", "transition": "250ms", "major_guide_stroke_dasharray": "6,6", "foreground_subtle": "#555", "value_colors": [], "value_label_font_family": "Consolas, \"Liberation Mono\", Menlo, Courier, monospace", "guide_stroke_dasharray": "4,4", "major_label_font_size": 10, "legend_font_family": "Consolas, \"Liberation Mono\", Menlo, Courier, monospace", "major_label_font_family": "Consolas, \"Liberation Mono\", Menlo, Courier, monospace", "foreground": "#999", "colors": ["#ff5995", "#b6e354", "#feed6c", "#8cedff", "#9e6ffe", "#899ca1", "#f8f8f2", "#bf4646", "#516083", "#f92672", "#82b414", "#fd971f", "#56c2d6", "#808384", "#8c54fe", "#465457"], "legend_font_size": 14}, "y_labels_major": null, "x_label_rotation": 0, "max_scale": 16, "value_formatter": null, "dots_size": 2.5, "legend_at_bottom_columns": null, "force_uri_protocol": null, "x_value_formatter": null, "legend_box_size": 12, "include_x_axis": false, "y_label_rotation": 0, "show_x_labels": true, "inner_radius": 0, "no_prefix": false, "tooltip_border_radius": 0, "y_title": null}</script><script type="text/javascript" xlink:href="//kozea.github.io/pygal.js/2.0.x/pygal-tooltips.min.js" /></defs><title>Surasak 52</title><g class="graph line-graph vertical"><rect class="background" height="600" width="800" x="0" y="0" /><g class="plot" transform="translate(158, 46)"><rect class="background" height="514" width="621.2" x="0" y="0" /><g class="axis y"><path class="line" d="M0.000000 514.000000 h621.200000" /><g class="guides"><path class="guide line" d="M0.000000 476.330877 h621.200000" /><text class="" x="-5" y="479.83087672241595">260000.0</text><title>260000.0</title></g><g class="guides"><path class="guide line" d="M0.000000 394.761672 h621.200000" /><text class="" x="-5" y="398.2616717831293">270000.0</text><title>270000.0</title></g><g class="guides"><path class="guide line" d="M0.000000 313.192467 h621.200000" /><text class="" x="-5" y="316.6924668438427">280000.0</text><title>280000.0</title></g><g class="guides"><path class="guide line" d="M0.000000 231.623262 h621.200000" /><text class="" x="-5" y="235.12326190455593">290000.0</text><title>290000.0</title></g><g class="guides"><path class="major guide line" d="M0.000000 150.054057 h621.200000" /><text class="major" x="-5" y="153.5540569652693">300000.0</text><title>300000.0</title></g><g class="guides"><path class="guide line" d="M0.000000 68.484852 h621.200000" /><text class="" x="-5" y="71.98485202598266">310000.0</text><title>310000.0</title></g></g><g class="axis x"><g class="guides"><path class="line" d="M11.946154 0.000000 v514.000000" /><text class="" x="11.946153846153846" y="529.0">Jan</text></g><g class="guides"><path class="guide line" d="M66.246853 0.000000 v514.000000" /><text class="" x="66.24685314685314" y="529.0">Feb</text></g><g class="guides"><path class="guide line" d="M120.547552 0.000000 v514.000000" /><text class="" x="120.54755244755245" y="529.0">Mar</text></g><g class="guides"><path class="guide line" d="M174.848252 0.000000 v514.000000" /><text class="" x="174.84825174825176" y="529.0">Apr</text></g><g class="guides"><path class="guide line" d="M229.148951 0.000000 v514.000000" /><text class="" x="229.14895104895106" y="529.0">May</text></g><g class="guides"><path class="guide line" d="M283.449650 0.000000 v514.000000" /><text class="" x="283.44965034965037" y="529.0">Jun</text></g><g class="guides"><path class="guide line" d="M337.750350 0.000000 v514.000000" /><text class="" x="337.7503496503497" y="529.0">Jul</text></g><g class="guides"><path class="guide line" d="M392.051049 0.000000 v514.000000" /><text class="" x="392.051048951049" y="529.0">Aug</text></g><g class="guides"><path class="guide line" d="M446.351748 0.000000 v514.000000" /><text class="" x="446.3517482517483" y="529.0">Sep</text></g><g class="guides"><path class="guide line" d="M500.652448 0.000000 v514.000000" /><text class="" x="500.6524475524476" y="529.0">Oct</text></g><g class="guides"><path class="guide line" d="M554.953147 0.000000 v514.000000" /><text class="" x="554.9531468531468" y="529.0">Nov</text></g><g class="guides"><path class="guide line" d="M609.253846 0.000000 v514.000000" /><text class="" x="609.2538461538462" y="529.0">Dec</text></g></g><g class="series serie-0 color-0"><path class="line reactive" d="M11.946154 514.000000 L11.946154 141.897136 12.163357 142.826923 12.380559 143.756659 12.597762 144.686291 12.814965 145.615767 13.032168 146.545038 13.249371 147.474049 13.466573 148.402751 13.683776 149.331091 13.900979 150.259018 14.118182 151.186480 14.335385 152.113425 14.552587 153.039801 14.769790 153.965557 14.986993 154.890642 15.204196 155.815003 15.421399 156.738589 15.638601 157.661349 15.855804 158.583230 16.073007 159.504181 16.290210 160.424150 16.507413 161.343085 16.724615 162.260936 16.941818 163.177649 17.159021 164.093174 17.376224 165.007459 17.593427 165.920452 17.810629 166.832102 18.027832 167.742356 18.245035 168.651164 18.462238 169.558473 18.679441 170.464232 18.896643 171.368389 19.113846 172.270892 19.331049 173.171690 19.548252 174.070732 19.765455 174.967964 19.982657 175.863337 20.199860 176.756798 20.417063 177.648295 20.634266 178.537776 20.851469 179.425191 21.068671 180.310487 21.285874 181.193613 21.503077 182.074517 21.720280 182.953148 21.937483 183.829453 22.154685 184.703381 22.371888 185.574880 22.589091 186.443900 22.806294 187.310387 23.023497 188.174290 23.240699 189.035558 23.457902 189.894140 23.675105 190.749982 23.892308 191.603034 24.109510 192.453244 24.326713 193.300561 24.543916 194.144932 24.761119 194.986305 24.978322 195.824631 25.195524 196.659856 25.412727 197.491928 25.629930 198.320797 25.847133 199.146411 26.064336 199.968717 26.281538 200.787665 26.498741 201.603202 26.715944 202.415278 26.933147 203.223839 27.150350 204.028835 27.367552 204.830214 27.584755 205.627924 27.801958 206.421913 28.019161 207.212131 28.236364 207.998524 28.453566 208.781042 28.670769 209.559633 28.887972 210.334245 29.105175 211.104827 29.322378 211.871326 29.539580 212.633692 29.756783 213.391872 29.973986 214.145814 30.191189 214.895468 30.408392 215.640782 30.625594 216.381703 30.842797 217.118180 31.060000 217.850161 31.277203 218.577596 31.494406 219.300431 31.711608 220.018616 31.928811 220.732099 32.146014 221.440827 32.363217 222.144750 32.580420 222.843816 32.797622 223.537973 33.014825 224.227169 33.232028 224.911353 33.449231 225.590473 33.666434 226.264477 33.883636 226.933314 34.100839 227.596931 34.318042 228.255279 34.535245 228.908303 34.752448 229.555954 34.969650 230.198179 35.186853 230.834927 35.404056 231.466146 35.621259 232.091784 35.838462 232.711789 36.055664 233.326111 36.272867 233.934697 36.490070 234.537495 36.707273 235.134454 36.924476 235.725523 37.141678 236.310649 37.358881 236.889781 37.576084 237.462867 37.793287 238.029856 38.010490 238.590696 38.227692 239.145335 38.444895 239.693721 38.662098 240.235804 38.879301 240.771530 39.096503 241.300849 39.313706 241.823709 39.530909 242.340058 39.748112 242.849844 39.965315 243.353017 40.182517 243.849523 40.399720 244.339312 40.616923 244.822332 40.834126 245.298531 41.051329 245.767857 41.268531 246.230259 41.485734 246.685685 41.702937 247.134084 41.920140 247.575403 42.137343 248.009592 42.354545 248.436598 42.571748 248.856369 42.788951 249.268855 43.006154 249.674003 43.223357 250.071762 43.440559 250.462080 43.657762 250.844905 43.874965 251.220186 44.092168 251.587871 44.309371 251.947908 44.526573 252.300246 44.743776 252.644833 44.960979 252.981618 45.178182 253.310548 45.395385 253.631572 45.612587 253.944638 45.829790 254.249695 46.046993 254.546691 46.264196 254.835574 46.481399 255.116293 46.698601 255.388796 46.915804 255.653031 47.133007 255.908946 47.350210 256.156491 47.567413 256.395613 47.784615 256.626260 48.001818 256.848381 48.219021 257.061925 48.436224 257.266839 48.653427 257.463072 48.870629 257.650572 49.087832 257.829288 49.305035 257.999168 49.522238 258.160160 49.739441 258.312212 49.956643 258.455273 50.173846 258.589292 50.391049 258.714215 50.608252 258.829993 50.825455 258.936573 51.042657 259.033903 51.259860 259.121933 51.477063 259.200609 51.694266 259.269881 51.911469 259.329696 52.128671 259.380004 52.345874 259.420752 52.563077 259.451889 52.780280 259.473363 52.997483 259.485122 53.214685 259.487115 53.431888 259.479291 53.649091 259.461596 53.866294 259.433981 54.083497 259.396392 54.300699 259.348779 54.517902 259.291089 54.735105 259.223272 54.952308 259.145275 55.169510 259.057046 55.386713 258.958535 55.603916 258.849689 55.821119 258.730456 56.038322 258.600786 56.255524 258.460626 56.472727 258.309925 56.689930 258.148630 56.907133 257.976691 57.124336 257.794056 57.341538 257.600672 57.558741 257.396489 57.775944 257.181454 57.993147 256.955516 58.210350 256.718624 58.427552 256.470725 58.644755 256.211768 58.861958 255.941702 59.079161 255.660473 59.296364 255.368032 59.513566 255.064326 59.730769 254.749304 59.947972 254.422913 60.165175 254.085103 60.382378 253.735821 60.599580 253.375016 60.816783 253.002636 61.033986 252.618630 61.251189 252.222946 61.468392 251.815531 61.685594 251.396336 61.902797 250.965307 62.120000 250.522393 62.337203 250.067542 62.554406 249.600704 62.771608 249.121825 62.988811 248.630855 63.206014 248.127742 63.423217 247.612434 63.640420 247.084880 63.857622 246.545027 64.074825 245.992824 64.292028 245.428219 64.509231 244.851162 64.726434 244.261599 64.943636 243.659480 65.160839 243.044753 65.378042 242.417365 65.595245 241.777266 65.812448 241.124404 66.029650 240.458726 66.246853 239.780182 66.464056 239.088751 66.681259 238.384534 66.898462 237.667665 67.115664 236.938277 67.332867 236.196503 67.550070 235.442476 67.767273 234.676329 67.984476 233.898196 68.201678 233.108208 68.418881 232.306500 68.636084 231.493205 68.853287 230.668455 69.070490 229.832383 69.287692 228.985124 69.504895 228.126809 69.722098 227.257572 69.939301 226.377545 70.156503 225.486863 70.373706 224.585658 70.590909 223.674063 70.808112 222.752211 71.025315 221.820235 71.242517 220.878269 71.459720 219.926445 71.676923 218.964896 71.894126 217.993757 72.111329 217.013158 72.328531 216.023235 72.545734 215.024119 72.762937 214.015945 72.980140 212.998844 73.197343 211.972950 73.414545 210.938397 73.631748 209.895316 73.848951 208.843842 74.066154 207.784107 74.283357 206.716245 74.500559 205.640388 74.717762 204.556670 74.934965 203.465223 75.152168 202.366181 75.369371 201.259677 75.586573 200.145844 75.803776 199.024815 76.020979 197.896722 76.238182 196.761700 76.455385 195.619881 76.672587 194.471399 76.889790 193.316385 77.106993 192.154974 77.324196 190.987299 77.541399 189.813492 77.758601 188.633687 77.975804 187.448016 78.193007 186.256613 78.410210 185.059611 78.627413 183.857143 78.844615 182.649342 79.061818 181.436341 79.279021 180.218274 79.496224 178.995272 79.713427 177.767470 79.930629 176.535000 80.147832 175.297996 80.365035 174.056590 80.582238 172.810916 80.799441 171.561107 81.016643 170.307295 81.233846 169.049615 81.451049 167.788198 81.668252 166.523178 81.885455 165.254688 82.102657 163.982862 82.319860 162.707831 82.537063 161.429730 82.754266 160.148692 82.971469 158.864849 83.188671 157.578334 83.405874 156.289281 83.623077 154.997823 83.840280 153.704092 84.057483 152.408222 84.274685 151.110347 84.491888 149.810598 84.709091 148.509109 84.926294 147.206013 85.143497 145.901444 85.360699 144.595534 85.577902 143.288416 85.795105 141.980224 86.012308 140.671091 86.229510 139.361148 86.446713 138.050531 86.663916 136.739371 86.881119 135.427803 87.098322 134.115958 87.315524 132.803970 87.532727 131.491972 87.749930 130.180097 87.967133 128.868479 88.184336 127.557250 88.401538 126.246543 88.618741 124.936491 88.835944 123.627228 89.053147 122.318887 89.270350 121.011601 89.487552 119.705502 89.704755 118.400724 89.921958 117.097400 90.139161 115.795662 90.356364 114.495645 90.573566 113.197481 90.790769 111.901304 91.007972 110.607245 91.225175 109.315439 91.442378 108.026018 91.659580 106.739116 91.876783 105.454865 92.093986 104.173399 92.311189 102.894851 92.528392 101.619354 92.745594 100.347040 92.962797 99.078044 93.180000 97.812497 93.397203 96.550534 93.614406 95.292287 93.831608 94.037889 94.048811 92.787473 94.266014 91.541173 94.483217 90.299121 94.700420 89.061451 94.917622 87.828296 95.134825 86.599788 95.352028 85.376061 95.569231 84.157248 95.786434 82.943482 96.003636 81.734896 96.220839 80.531623 96.438042 79.333796 96.655245 78.141549 96.872448 76.955014 97.089650 75.774324 97.306853 74.599613 97.524056 73.431013 97.741259 72.268658 97.958462 71.112681 98.175664 69.963214 98.392867 68.820391 98.610070 67.684346 98.827273 66.555210 99.044476 65.433117 99.261678 64.318201 99.478881 63.210594 99.696084 62.110429 99.913287 61.017839 100.130490 59.932958 100.347692 58.855919 100.564895 57.786854 100.782098 56.725897 100.999301 55.673181 101.216503 54.628838 101.433706 53.593003 101.650909 52.565807 101.868112 51.547385 102.085315 50.537868 102.302517 49.537391 102.519720 48.546087 102.736923 47.564087 102.954126 46.591526 103.171329 45.628537 103.388531 44.675252 103.605734 43.731805 103.822937 42.798329 104.040140 41.874957 104.257343 40.961821 104.474545 40.059056 104.691748 39.166793 104.908951 38.285167 105.126154 37.414310 105.343357 36.554355 105.560559 35.705436 105.777762 34.867685 105.994965 34.041236 106.212168 33.226221 106.429371 32.422774 106.646573 31.631028 106.863776 30.851115 107.080979 30.083170 107.298182 29.327324 107.515385 28.583712 107.732587 27.852465 107.949790 27.133718 108.166993 26.427603 108.384196 25.734254 108.601399 25.053803 108.818601 24.386383 109.035804 23.732128 109.253007 23.091171 109.470210 22.463645 109.687413 21.849682 109.904615 21.249416 110.121818 20.662980 110.339021 20.090508 110.556224 19.532131 110.773427 18.987984 110.990629 18.458199 111.207832 17.942909 111.425035 17.442247 111.642238 16.956348 111.859441 16.485342 112.076643 16.029365 112.293846 15.588548 112.511049 15.163025 112.728252 14.752929 112.945455 14.358393 113.162657 13.979550 113.379860 13.616533 113.597063 13.269475 113.814266 12.938509 114.031469 12.623769 114.248671 12.325387 114.465874 12.043497 114.683077 11.778232 114.900280 11.529724 115.117483 11.298106 115.334685 11.083513 115.551888 10.886076 115.769091 10.705930 115.986294 10.543206 116.203497 10.398038 116.420699 10.270560 116.637902 10.160904 116.855105 10.069203 117.072308 9.995591 117.289510 9.940200 117.506713 9.903164 117.723916 9.884615 117.941119 9.884687 118.158322 9.903513 118.375524 9.941226 118.592727 9.997959 118.809930 10.073845 119.027133 10.169016 119.244336 10.283608 119.461538 10.417751 119.678741 10.571579 119.895944 10.745226 120.113147 10.938825 120.330350 11.152508 120.547552 11.386409 120.764755 11.640615 120.981958 11.915032 121.199161 12.209522 121.416364 12.523945 121.633566 12.858161 121.850769 13.212033 122.067972 13.585419 122.285175 13.978182 122.502378 14.390182 122.719580 14.821280 122.936783 15.271336 123.153986 15.740212 123.371189 16.227767 123.588392 16.733864 123.805594 17.258362 124.022797 17.801123 124.240000 18.362007 124.457203 18.940875 124.674406 19.537588 124.891608 20.152007 125.108811 20.783992 125.326014 21.433404 125.543217 22.100104 125.760420 22.783953 125.977622 23.484811 126.194825 24.202540 126.412028 24.937000 126.629231 25.688052 126.846434 26.455556 127.063636 27.239374 127.280839 28.039366 127.498042 28.855394 127.715245 29.687317 127.932448 30.534996 128.149650 31.398293 128.366853 32.277069 128.584056 33.171183 128.801259 34.080497 129.018462 35.004871 129.235664 35.944167 129.452867 36.898245 129.670070 37.866966 129.887273 38.850190 130.104476 39.847779 130.321678 40.859593 130.538881 41.885494 130.756084 42.925341 130.973287 43.978995 131.190490 45.046318 131.407692 46.127170 131.624895 47.221412 131.842098 48.328905 132.059301 49.449510 132.276503 50.583086 132.493706 51.729496 132.710909 52.888600 132.928112 54.060258 133.145315 55.244332 133.362517 56.440682 133.579720 57.649169 133.796923 58.869654 134.014126 60.101997 134.231329 61.346060 134.448531 62.601703 134.665734 63.868787 134.882937 65.147172 135.100140 66.436720 135.317343 67.737292 135.534545 69.048747 135.751748 70.370947 135.968951 71.703753 136.186154 73.047026 136.403357 74.400626 136.620559 75.764413 136.837762 77.138250 137.054965 78.521996 137.272168 79.915512 137.489371 81.318660 137.706573 82.731299 137.923776 84.153291 138.140979 85.584497 138.358182 87.024777 138.575385 88.473992 138.792587 89.932003 139.009790 91.398670 139.226993 92.873855 139.444196 94.357418 139.661399 95.849220 139.878601 97.349122 140.095804 98.856985 140.313007 100.372669 140.530210 101.896034 140.747413 103.426943 140.964615 104.965256 141.181818 106.510833 141.399021 108.063535 141.616224 109.623224 141.833427 111.189759 142.050629 112.763002 142.267832 114.342813 142.485035 115.929054 142.702238 117.521584 142.919441 119.120265 143.136643 120.724958 143.353846 122.335523 143.571049 123.951821 143.788252 125.573714 144.005455 127.201060 144.222657 128.833723 144.439860 130.471561 144.657063 132.114437 144.874266 133.762210 145.091469 135.414742 145.308671 137.071894 145.525874 138.733525 145.743077 140.399498 145.960280 142.069672 146.177483 143.743909 146.394685 145.422070 146.611888 147.104014 146.829091 148.789603 147.046294 150.478698 147.263497 152.171160 147.480699 153.866848 147.697902 155.565625 147.915105 157.267350 148.132308 158.971886 148.349510 160.679091 148.566713 162.388828 148.783916 164.100956 149.001119 165.815338 149.218322 167.531833 149.435524 169.250302 149.652727 170.970606 149.869930 172.692606 150.087133 174.416163 150.304336 176.141137 150.521538 177.867390 150.738741 179.594782 150.955944 181.323173 151.173147 183.052425 151.390350 184.782398 151.607552 186.512954 151.824755 188.243952 152.041958 189.975255 152.259161 191.706721 152.476364 193.438213 152.693566 195.169591 152.910769 196.900716 153.127972 198.631449 153.345175 200.361650 153.562378 202.091180 153.779580 203.819901 153.996783 205.547672 154.213986 207.274355 154.431189 208.999810 154.648392 210.723898 154.865594 212.446480 155.082797 214.167417 155.300000 215.886569 155.517203 217.603798 155.734406 219.318964 155.951608 221.031927 156.168811 222.742549 156.386014 224.450691 156.603217 226.156213 156.820420 227.858976 157.037622 229.558841 157.254825 231.255668 157.472028 232.949319 157.689231 234.639653 157.906434 236.326533 158.123636 238.009818 158.340839 239.689370 158.558042 241.365049 158.775245 243.036717 158.992448 244.704233 159.209650 246.367458 159.426853 248.026255 159.644056 249.680482 159.861259 251.330001 160.078462 252.974673 160.295664 254.614359 160.512867 256.248919 160.730070 257.878214 160.947273 259.502105 161.164476 261.120453 161.381678 262.733118 161.598881 264.339962 161.816084 265.940844 162.033287 267.535627 162.250490 269.124170 162.467692 270.706334 162.684895 272.281981 162.902098 273.850970 163.119301 275.413163 163.336503 276.968421 163.553706 278.516605 163.770909 280.057574 163.988112 281.591190 164.205315 283.117314 164.422517 284.635807 164.639720 286.146528 164.856923 287.649340 165.074126 289.144102 165.291329 290.630677 165.508531 292.108923 165.725734 293.578703 165.942937 295.039876 166.160140 296.492305 166.377343 297.935849 166.594545 299.370369 166.811748 300.795727 167.028951 302.211782 167.246154 303.618396 167.463357 305.015429 167.680559 306.402743 167.897762 307.780198 168.114965 309.147654 168.332168 310.504973 168.549371 311.852016 168.766573 313.188642 168.983776 314.514714 169.200979 315.830091 169.418182 317.134635 169.635385 318.428206 169.852587 319.710666 170.069790 320.981874 170.286993 322.241692 170.504196 323.489980 170.721399 324.726600 170.938601 325.951411 171.155804 327.164275 171.373007 328.365053 171.590210 329.553606 171.807413 330.729793 172.024615 331.893477 172.241818 333.044517 172.459021 334.182774 172.676224 335.308110 172.893427 336.420385 173.110629 337.519460 173.327832 338.605196 173.545035 339.677453 173.762238 340.736092 173.979441 341.780974 174.196643 342.811960 174.413846 343.828911 174.631049 344.831687 174.848252 345.820149 175.065455 346.794190 175.282657 347.753832 175.499860 348.699130 175.717063 349.630137 175.934266 350.546908 176.151469 351.449497 176.368671 352.337957 176.585874 353.212344 176.803077 354.072711 177.020280 354.919113 177.237483 355.751603 177.454685 356.570236 177.671888 357.375067 177.889091 358.166148 178.106294 358.943535 178.323497 359.707282 178.540699 360.457442 178.757902 361.194070 178.975105 361.917221 179.192308 362.626948 179.409510 363.323305 179.626713 364.006347 179.843916 364.676128 180.061119 365.332701 180.278322 365.976122 180.495524 366.606445 180.712727 367.223723 180.929930 367.828010 181.147133 368.419362 181.364336 368.997832 181.581538 369.563474 181.798741 370.116342 182.015944 370.656491 182.233147 371.183975 182.450350 371.698848 182.667552 372.201164 182.884755 372.690977 183.101958 373.168342 183.319161 373.633312 183.536364 374.085943 183.753566 374.526287 183.970769 374.954400 184.187972 375.370335 184.405175 375.774146 184.622378 376.165889 184.839580 376.545616 185.056783 376.913383 185.273986 377.269242 185.491189 377.613249 185.708392 377.945458 185.925594 378.265923 186.142797 378.574698 186.360000 378.871837 186.577203 379.157394 186.794406 379.431424 187.011608 379.693980 187.228811 379.945118 187.446014 380.184890 187.663217 380.413352 187.880420 380.630557 188.097622 380.836560 188.314825 381.031414 188.532028 381.215175 188.749231 381.387895 188.966434 381.549630 189.183636 381.700434 189.400839 381.840360 189.618042 381.969463 189.835245 382.087797 190.052448 382.195416 190.269650 382.292375 190.486853 382.378727 190.704056 382.454527 190.921259 382.519829 191.138462 382.574687 191.355664 382.619155 191.572867 382.653287 191.790070 382.677139 192.007273 382.690763 192.224476 382.694214 192.441678 382.687546 192.658881 382.670814 192.876084 382.644071 193.093287 382.607372 193.310490 382.560770 193.527692 382.504321 193.744895 382.438078 193.962098 382.362096 194.179301 382.276428 194.396503 382.181128 194.613706 382.076252 194.830909 381.961853 195.048112 381.837985 195.265315 381.704703 195.482517 381.562060 195.699720 381.410111 195.916923 381.248910 196.134126 381.078511 196.351329 380.898969 196.568531 380.710337 196.785734 380.512670 197.002937 380.306022 197.220140 380.090447 197.437343 379.865999 197.654545 379.632733 197.871748 379.390702 198.088951 379.139961 198.306154 378.880564 198.523357 378.612565 198.740559 378.336018 198.957762 378.050978 199.174965 377.757499 199.392168 377.455634 199.609371 377.145439 199.826573 376.826967 200.043776 376.500272 200.260979 376.165408 200.478182 375.822431 200.695385 375.471393 200.912587 375.112350 201.129790 374.745354 201.346993 374.370462 201.564196 373.987726 201.781399 373.597200 201.998601 373.198940 202.215804 372.792999 202.433007 372.379431 202.650210 371.958291 202.867413 371.529632 203.084615 371.093509 203.301818 370.649977 203.519021 370.199088 203.736224 369.740898 203.953427 369.275461 204.170629 368.802830 204.387832 368.323061 204.605035 367.836206 204.822238 367.342321 205.039441 366.841459 205.256643 366.333675 205.473846 365.819023 205.691049 365.297557 205.908252 364.769331 206.125455 364.234399 206.342657 363.692816 206.559860 363.144635 206.777063 362.589912 206.994266 362.028700 207.211469 361.461052 207.428671 360.887025 207.645874 360.306671 207.863077 359.720044 208.080280 359.127200 208.297483 358.528192 208.514685 357.923074 208.731888 357.311901 208.949091 356.694726 209.166294 356.071605 209.383497 355.442590 209.600699 354.807736 209.817902 354.167098 210.035105 353.520730 210.252308 352.868685 210.469510 352.211018 210.686713 351.547784 210.903916 350.879035 211.121119 350.204827 211.338322 349.525214 211.555524 348.840249 211.772727 348.149988 211.989930 347.454484 212.207133 346.753791 212.424336 346.047963 212.641538 345.337056 212.858741 344.621122 213.075944 343.900216 213.293147 343.174392 213.510350 342.443705 213.727552 341.708209 213.944755 340.967957 214.161958 340.223004 214.379161 339.473405 214.596364 338.719213 214.813566 337.960482 215.030769 337.197267 215.247972 336.429621 215.465175 335.657600 215.682378 334.881257 215.899580 334.100646 216.116783 333.315822 216.333986 332.526839 216.551189 331.733750 216.768392 330.936611 216.985594 330.135475 217.202797 329.330396 217.420000 328.521429 217.637203 327.708628 217.854406 326.892047 218.071608 326.071740 218.288811 325.247761 218.506014 324.420165 218.723217 323.589005 218.940420 322.754336 219.157622 321.916213 219.374825 321.074688 219.592028 320.229817 219.809231 319.381654 220.026434 318.530252 220.243636 317.675667 220.460839 316.817951 220.678042 315.957160 220.895245 315.093347 221.112448 314.226567 221.329650 313.356873 221.546853 312.484321 221.764056 311.608964 221.981259 310.730856 222.198462 309.850052 222.415664 308.966605 222.632867 308.080570 222.850070 307.192002 223.067273 306.300954 223.284476 305.407480 223.501678 304.511634 223.718881 303.613472 223.936084 302.713046 224.153287 301.810412 224.370490 300.905623 224.587692 299.998733 224.804895 299.089797 225.022098 298.178869 225.239301 297.266003 225.456503 296.351253 225.673706 295.434674 225.890909 294.516319 226.108112 293.596243 226.325315 292.674500 226.542517 291.751144 226.759720 290.826229 226.976923 289.899810 227.194126 288.971940 227.411329 288.042674 227.628531 287.112066 227.845734 286.180170 228.062937 285.247041 228.280140 284.312732 228.497343 283.377298 228.714545 282.440792 228.931748 281.503270 229.148951 280.564785 229.366154 279.625390 229.583357 278.685130 229.800559 277.744052 230.017762 276.802199 230.234965 275.859616 230.452168 274.916348 230.669371 273.972439 230.886573 273.027934 231.103776 272.082878 231.320979 271.137315 231.538182 270.191291 231.755385 269.244848 231.972587 268.298034 232.189790 267.350891 232.406993 266.403465 232.624196 265.455800 232.841399 264.507942 233.058601 263.559934 233.275804 262.611821 233.493007 261.663648 233.710210 260.715460 233.927413 259.767301 234.144615 258.819217 234.361818 257.871250 234.579021 256.923447 234.796224 255.975852 235.013427 255.028510 235.230629 254.081465 235.447832 253.134762 235.665035 252.188445 235.882238 251.242560 236.099441 250.297151 236.316643 249.352262 236.533846 248.407938 236.751049 247.464224 236.968252 246.521165 237.185455 245.578806 237.402657 244.637190 237.619860 243.696362 237.837063 242.756368 238.054266 241.817251 238.271469 240.879058 238.488671 239.941831 238.705874 239.005616 238.923077 238.070458 239.140280 237.136401 239.357483 236.203490 239.574685 235.271769 239.791888 234.341283 240.009091 233.412077 240.226294 232.484196 240.443497 231.557684 240.660699 230.632586 240.877902 229.708946 241.095105 228.786809 241.312308 227.866220 241.529510 226.947224 241.746713 226.029864 241.963916 225.114187 242.181119 224.200235 242.398322 223.288055 242.615524 222.377691 242.832727 221.469187 243.049930 220.562588 243.267133 219.657939 243.484336 218.755285 243.701538 217.854669 243.918741 216.956137 244.135944 216.059734 244.353147 215.165503 244.570350 214.273491 244.787552 213.383740 245.004755 212.496297 245.221958 211.611206 245.439161 210.728510 245.656364 209.848256 245.873566 208.970488 246.090769 208.095250 246.307972 207.222586 246.525175 206.352543 246.742378 205.485164 246.959580 204.620494 247.176783 203.758577 247.393986 202.899459 247.611189 202.043184 247.828392 201.189796 248.045594 200.339341 248.262797 199.491862 248.480000 198.647406 248.697203 197.806015 248.914406 196.967736 249.131608 196.132612 249.348811 195.300688 249.566014 194.472010 249.783217 193.646621 250.000420 192.824566 250.217622 192.005890 250.434825 191.190637 250.652028 190.378853 250.869231 189.570582 251.086434 188.765868 251.303636 187.964757 251.520839 187.167292 251.738042 186.373519 251.955245 185.583483 252.172448 184.797227 252.389650 184.014796 252.606853 183.236236 252.824056 182.461591 253.041259 181.690905 253.258462 180.924223 253.475664 180.161590 253.692867 179.403051 253.910070 178.648650 254.127273 177.898431 254.344476 177.152440 254.561678 176.410722 254.778881 175.673320 254.996084 174.940279 255.213287 174.211645 255.430490 173.487461 255.647692 172.767773 255.864895 172.052625 256.082098 171.342062 256.299301 170.636128 256.516503 169.934868 256.733706 169.238327 256.950909 168.546550 257.168112 167.859580 257.385315 167.177464 257.602517 166.500244 257.819720 165.827967 258.036923 165.160677 258.254126 164.498417 258.471329 163.841234 258.688531 163.189172 258.905734 162.542275 259.122937 161.900588 259.340140 161.264156 259.557343 160.633023 259.774545 160.007234 259.991748 159.386834 260.208951 158.771867 260.426154 158.162378 260.643357 157.558412 260.860559 156.960013 261.077762 156.367226 261.294965 155.780096 261.512168 155.198667 261.729371 154.622984 261.946573 154.053091 262.163776 153.489034 262.380979 152.930857 262.598182 152.378605 262.815385 151.832322 263.032587 151.292052 263.249790 150.757842 263.466993 150.229734 263.684196 149.707775 263.901399 149.192008 264.118601 148.682478 264.335804 148.179231 264.553007 147.682309 264.770210 147.191759 264.987413 146.707625 265.204615 146.229952 265.421818 145.758784 265.639021 145.294165 265.856224 144.836142 266.073427 144.384757 266.290629 143.940056 266.507832 143.502084 266.725035 143.070885 266.942238 142.646504 267.159441 142.228985 267.376643 141.818373 267.593846 141.414714 267.811049 141.018050 268.028252 140.628428 268.245455 140.245892 268.462657 139.870486 268.679860 139.502256 268.897063 139.141245 269.114266 138.787498 269.331469 138.441061 269.548671 138.101978 269.765874 137.770293 269.983077 137.446051 270.200280 137.129297 270.417483 136.820075 270.634685 136.518430 270.851888 136.224407 271.069091 135.938051 271.286294 135.659405 271.503497 135.388516 271.720699 135.125427 271.937902 134.870182 272.155105 134.622828 272.372308 134.383408 272.589510 134.151967 272.806713 133.928549 273.023916 133.713201 273.241119 133.505965 273.458322 133.306886 273.675524 133.116010 273.892727 132.933382 274.109930 132.759044 274.327133 132.593044 274.544336 132.435424 274.761538 132.286229 274.978741 132.145506 275.195944 132.013297 275.413147 131.889647 275.630350 131.774602 275.847552 131.668206 276.064755 131.570504 276.281958 131.481540 276.499161 131.401359 276.716364 131.330005 276.933566 131.267524 277.150769 131.213960 277.367972 131.169357 277.585175 131.133761 277.802378 131.107215 278.019580 131.089765 278.236783 131.081456 278.453986 131.082331 278.671189 131.092436 278.888392 131.111815 279.105594 131.140513 279.322797 131.178574 279.540000 131.226044 279.757203 131.282966 279.974406 131.349386 280.191608 131.425349 280.408811 131.510898 280.626014 131.606078 280.843217 131.710935 281.060420 131.825513 281.277622 131.949856 281.494825 132.084009 281.712028 132.228018 281.929231 132.381925 282.146434 132.545777 282.363636 132.719618 282.580839 132.903492 282.798042 133.097444 283.015245 133.301519 283.232448 133.515761 283.449650 133.740216 283.666853 133.974906 283.884056 134.219771 284.101259 134.474727 284.318462 134.739693 284.535664 135.014585 284.752867 135.299322 284.970070 135.593821 285.187273 135.897999 285.404476 136.211775 285.621678 136.535064 285.838881 136.867786 286.056084 137.209858 286.273287 137.561196 286.490490 137.921719 286.707692 138.291344 286.924895 138.669989 287.142098 139.057571 287.359301 139.454008 287.576503 139.859217 287.793706 140.273116 288.010909 140.695622 288.228112 141.126652 288.445315 141.566125 288.662517 142.013958 288.879720 142.470068 289.096923 142.934374 289.314126 143.406791 289.531329 143.887239 289.748531 144.375634 289.965734 144.871894 290.182937 145.375936 290.400140 145.887679 290.617343 146.407039 290.834545 146.933934 291.051748 147.468282 291.268951 148.010000 291.486154 148.559005 291.703357 149.115216 291.920559 149.678550 292.137762 150.248924 292.354965 150.826255 292.572168 151.410462 292.789371 152.001461 293.006573 152.599171 293.223776 153.203509 293.440979 153.814392 293.658182 154.431739 293.875385 155.055465 294.092587 155.685490 294.309790 156.321730 294.526993 156.964103 294.744196 157.612526 294.961399 158.266918 295.178601 158.927195 295.395804 159.593275 295.613007 160.265076 295.830210 160.942515 296.047413 161.625510 296.264615 162.313978 296.481818 163.007836 296.699021 163.707003 296.916224 164.411396 297.133427 165.120932 297.350629 165.835529 297.567832 166.555104 297.785035 167.279575 298.002238 168.008859 298.219441 168.742875 298.436643 169.481538 298.653846 170.224768 298.871049 170.972481 299.088252 171.724596 299.305455 172.481029 299.522657 173.241697 299.739860 174.006520 299.957063 174.775414 300.174266 175.548296 300.391469 176.325084 300.608671 177.105696 300.825874 177.890050 301.043077 178.678062 301.260280 179.469650 301.477483 180.264732 301.694685 181.063226 301.911888 181.865048 302.129091 182.670117 302.346294 183.478349 302.563497 184.289663 302.780699 185.103976 302.997902 185.921206 303.215105 186.741269 303.432308 187.564084 303.649510 188.389568 303.866713 189.217638 304.083916 190.048213 304.301119 190.881209 304.518322 191.716545 304.735524 192.554136 304.952727 193.393903 305.169930 194.235761 305.387133 195.079628 305.604336 195.925422 305.821538 196.773060 306.038741 197.622460 306.255944 198.473539 306.473147 199.326215 306.690350 200.180406 306.907552 201.036028 307.124755 201.893000 307.341958 202.751239 307.559161 203.610662 307.776364 204.471187 307.993566 205.332732 308.210769 206.195214 308.427972 207.058550 308.645175 207.922659 308.862378 208.787457 309.079580 209.652863 309.296783 210.518793 309.513986 211.385165 309.731189 212.251897 309.948392 213.118906 310.165594 213.986110 310.382797 214.853426 310.600000 215.720772 310.817203 216.588066 311.034406 217.455224 311.251608 218.322165 311.468811 219.188805 311.686014 220.055063 311.903217 220.920856 312.120420 221.786102 312.337622 222.650717 312.554825 223.514620 312.772028 224.377729 312.989231 225.239959 313.206434 226.101230 313.423636 226.961459 313.640839 227.820562 313.858042 228.678459 314.075245 229.535065 314.292448 230.390300 314.509650 231.244079 314.726853 232.096322 314.944056 232.946944 315.161259 233.795865 315.378462 234.643001 315.595664 235.488269 315.812867 236.331589 316.030070 237.172876 316.247273 238.012048 316.464476 238.849024 316.681678 239.683720 316.898881 240.516054 317.116084 241.345944 317.333287 242.173306 317.550490 242.998060 317.767692 243.820121 317.984895 244.639408 318.202098 245.455839 318.419301 246.269330 318.636503 247.079799 318.853706 247.887164 319.070909 248.691342 319.288112 249.492251 319.505315 250.289809 319.722517 251.083932 319.939720 251.874539 320.156923 252.661546 320.374126 253.444872 320.591329 254.224434 320.808531 255.000150 321.025734 255.771936 321.242937 256.539711 321.460140 257.303392 321.677343 258.062897 321.894545 258.818142 322.111748 259.569047 322.328951 260.315527 322.546154 261.057501 322.763357 261.794886 322.980559 262.527600 323.197762 263.255561 323.414965 263.978685 323.632168 264.696890 323.849371 265.410094 324.066573 266.118215 324.283776 266.821169 324.500979 267.518875 324.718182 268.211249 324.935385 268.898211 325.152587 269.579676 325.369790 270.255562 325.586993 270.925788 325.804196 271.590270 326.021399 272.248926 326.238601 272.901674 326.455804 273.548431 326.673007 274.189114 326.890210 274.823642 327.107413 275.451931 327.324615 276.073900 327.541818 276.689465 327.759021 277.298545 327.976224 277.901056 328.193427 278.496917 328.410629 279.086044 328.627832 279.668356 328.845035 280.243770 329.062238 280.812203 329.279441 281.373573 329.496643 281.927798 329.713846 282.474794 329.931049 283.014480 330.148252 283.546773 330.365455 284.071591 330.582657 284.588851 330.799860 285.098470 331.017063 285.600367 331.234266 286.094458 331.451469 286.580661 331.668671 287.058894 331.885874 287.529074 332.103077 287.991119 332.320280 288.444946 332.537483 288.890473 332.754685 289.327618 332.971888 289.756297 333.189091 290.176428 333.406294 290.587930 333.623497 290.990719 333.840699 291.384713 334.057902 291.769829 334.275105 292.145985 334.492308 292.513099 334.709510 292.871088 334.926713 293.219869 335.143916 293.559361 335.361119 293.889480 335.578322 294.210144 335.795524 294.521271 336.012727 294.822779 336.229930 295.114583 336.447133 295.396604 336.664336 295.668757 336.881538 295.930960 337.098741 296.183131 337.315944 296.425187 337.533147 296.657046 337.750350 296.878626 337.967552 297.089867 338.184755 297.290802 338.401958 297.481488 338.619161 297.661982 338.836364 297.832340 339.053566 297.992619 339.270769 298.142876 339.487972 298.283166 339.705175 298.413547 339.922378 298.534075 340.139580 298.644808 340.356783 298.745800 340.573986 298.837109 340.791189 298.918792 341.008392 298.990905 341.225594 299.053505 341.442797 299.106648 341.660000 299.150390 341.877203 299.184790 342.094406 299.209902 342.311608 299.225784 342.528811 299.232492 342.746014 299.230083 342.963217 299.218613 343.180420 299.198140 343.397622 299.168719 343.614825 299.130407 343.832028 299.083260 344.049231 299.027336 344.266434 298.962691 344.483636 298.889382 344.700839 298.807464 344.918042 298.716995 345.135245 298.618032 345.352448 298.510630 345.569650 298.394846 345.786853 298.270738 346.004056 298.138361 346.221259 297.997772 346.438462 297.849029 346.655664 297.692186 346.872867 297.527301 347.090070 297.354431 347.307273 297.173632 347.524476 296.984961 347.741678 296.788474 347.958881 296.584227 348.176084 296.372279 348.393287 296.152684 348.610490 295.925500 348.827692 295.690783 349.044895 295.448589 349.262098 295.198977 349.479301 294.942001 349.696503 294.677718 349.913706 294.406186 350.130909 294.127461 350.348112 293.841598 350.565315 293.548656 350.782517 293.248690 350.999720 292.941757 351.216923 292.627914 351.434126 292.307217 351.651329 291.979723 351.868531 291.645488 352.085734 291.304569 352.302937 290.957023 352.520140 290.602906 352.737343 290.242274 352.954545 289.875185 353.171748 289.501695 353.388951 289.121861 353.606154 288.735738 353.823357 288.343384 354.040559 287.944855 354.257762 287.540209 354.474965 287.129500 354.692168 286.712787 354.909371 286.290125 355.126573 285.861571 355.343776 285.427182 355.560979 284.987015 355.778182 284.541125 355.995385 284.089570 356.212587 283.632406 356.429790 283.169690 356.646993 282.701478 356.864196 282.227827 357.081399 281.748793 357.298601 281.264433 357.515804 280.774804 357.733007 280.279962 357.950210 279.779964 358.167413 279.274866 358.384615 278.764726 358.601818 278.249598 358.819021 277.729541 359.036224 277.204611 359.253427 276.674864 359.470629 276.140357 359.687832 275.601146 359.905035 275.057288 360.122238 274.508840 360.339441 273.955859 360.556643 273.398400 360.773846 272.836520 360.991049 272.270277 361.208252 271.699726 361.425455 271.124924 361.642657 270.545928 361.859860 269.962794 362.077063 269.375579 362.294266 268.784340 362.511469 268.189133 362.728671 267.590014 362.945874 266.987041 363.163077 266.380269 363.380280 265.769756 363.597483 265.155558 363.814685 264.537732 364.031888 263.916333 364.249091 263.291420 364.466294 262.663048 364.683497 262.031274 364.900699 261.396154 365.117902 260.757745 365.335105 260.116104 365.552308 259.471288 365.769510 258.823352 365.986713 258.172354 366.203916 257.518350 366.421119 256.861396 366.638322 256.201550 366.855524 255.538867 367.072727 254.873405 367.289930 254.205220 367.507133 253.534368 367.724336 252.860907 367.941538 252.184892 368.158741 251.506380 368.375944 250.825429 368.593147 250.142094 368.810350 249.456432 369.027552 248.768499 369.244755 248.078353 369.461958 247.386050 369.679161 246.691646 369.896364 245.995198 370.113566 245.296763 370.330769 244.596396 370.547972 243.894156 370.765175 243.190098 370.982378 242.484279 371.199580 241.776755 371.416783 241.067584 371.633986 240.356821 371.851189 239.644523 372.068392 238.930747 372.285594 238.215550 372.502797 237.498988 372.720000 236.781117 372.937203 236.061995 373.154406 235.341677 373.371608 234.620220 373.588811 233.897682 373.806014 233.174118 374.023217 232.449585 374.240420 231.724140 374.457622 230.997840 374.674825 230.270740 374.892028 229.542897 375.109231 228.814369 375.326434 228.085211 375.543636 227.355481 375.760839 226.625234 375.978042 225.894528 376.195245 225.163419 376.412448 224.431963 376.629650 223.700217 376.846853 222.968238 377.064056 222.236083 377.281259 221.503807 377.498462 220.771468 377.715664 220.039122 377.932867 219.306826 378.150070 218.574635 378.367273 217.842608 378.584476 217.110800 378.801678 216.379268 379.018881 215.648069 379.236084 214.917259 379.453287 214.186895 379.670490 213.457033 379.887692 212.727729 380.104895 211.999042 380.322098 211.271026 380.539301 210.543740 380.756503 209.817238 380.973706 209.091578 381.190909 208.366817 381.408112 207.643011 381.625315 206.920217 381.842517 206.198490 382.059720 205.477889 382.276923 204.758469 382.494126 204.040286 382.711329 203.323399 382.928531 202.607862 383.145734 201.893733 383.362937 201.181069 383.580140 200.469925 383.797343 199.760359 384.014545 199.052427 384.231748 198.346185 384.448951 197.641691 384.666154 196.939001 384.883357 196.238171 385.100559 195.539258 385.317762 194.842318 385.534965 194.147409 385.752168 193.454586 385.969371 192.763907 386.186573 192.075428 386.403776 191.389205 386.620979 190.705295 386.838182 190.023755 387.055385 189.344642 387.272587 188.668011 387.489790 187.993919 387.706993 187.322424 387.924196 186.653581 388.141399 185.987447 388.358601 185.324079 388.575804 184.663533 388.793007 184.005867 389.010210 183.351136 389.227413 182.699397 389.444615 182.050706 389.661818 181.405121 389.879021 180.762698 390.096224 180.123494 390.313427 179.487564 390.530629 178.854966 390.747832 178.225756 390.965035 177.599991 391.182238 176.977727 391.399441 176.359022 391.616643 175.743931 391.833846 175.132511 392.051049 174.524818 392.268252 173.920906 392.485455 173.320806 392.702657 172.724547 392.919860 172.132158 393.137063 171.543667 393.354266 170.959102 393.571469 170.378491 393.788671 169.801864 394.005874 169.229249 394.223077 168.660673 394.440280 168.096166 394.657483 167.535756 394.874685 166.979471 395.091888 166.427339 395.309091 165.879390 395.526294 165.335651 395.743497 164.796151 395.960699 164.260918 396.177902 163.729980 396.395105 163.203367 396.612308 162.681106 396.829510 162.163226 397.046713 161.649755 397.263916 161.140722 397.481119 160.636155 397.698322 160.136083 397.915524 159.640533 398.132727 159.149535 398.349930 158.663116 398.567133 158.181306 398.784336 157.704132 399.001538 157.231623 399.218741 156.763807 399.435944 156.300714 399.653147 155.842370 399.870350 155.388805 400.087552 154.940047 400.304755 154.496124 400.521958 154.057065 400.739161 153.622898 400.956364 153.193652 401.173566 152.769355 401.390769 152.350035 401.607972 151.935721 401.825175 151.526441 402.042378 151.122224 402.259580 150.723098 402.476783 150.329091 402.693986 149.940233 402.911189 149.556550 403.128392 149.178072 403.345594 148.804828 403.562797 148.436845 403.780000 148.074151 403.997203 147.716776 404.214406 147.364748 404.431608 147.018095 404.648811 146.676845 404.866014 146.341027 405.083217 146.010670 405.300420 145.685801 405.517622 145.366450 405.734825 145.052644 405.952028 144.744412 406.169231 144.441782 406.386434 144.144784 406.603636 143.853444 406.820839 143.567792 407.038042 143.287856 407.255245 143.013664 407.472448 142.745246 407.689650 142.482628 407.906853 142.225840 408.124056 141.974910 408.341259 141.729867 408.558462 141.490738 408.775664 141.257553 408.992867 141.030340 409.210070 140.809126 409.427273 140.593941 409.644476 140.384813 409.861678 140.181770 410.078881 139.984841 410.296084 139.794054 410.513287 139.609437 410.730490 139.431020 410.947692 139.258829 411.164895 139.092895 411.382098 138.933244 411.599301 138.779907 411.816503 138.632910 412.033706 138.492282 412.250909 138.358053 412.468112 138.230249 412.685315 138.108900 412.902517 137.994034 413.119720 137.885680 413.336923 137.783865 413.554126 137.688619 413.771329 137.599969 413.988531 137.517944 414.205734 137.442573 414.422937 137.373883 414.640140 137.311904 414.857343 137.256663 415.074545 137.208190 415.291748 137.166512 415.508951 137.131658 415.726154 137.103656 415.943357 137.082535 416.160559 137.068323 416.377762 137.061048 416.594965 137.060740 416.812168 137.067426 417.029371 137.081134 417.246573 137.101894 417.463776 137.129733 417.680979 137.164680 417.898182 137.206764 418.115385 137.256012 418.332587 137.312453 418.549790 137.376116 418.766993 137.447030 418.984196 137.525221 419.201399 137.610719 419.418601 137.703553 419.635804 137.803750 419.853007 137.911339 420.070210 138.026349 420.287413 138.148807 420.504615 138.278743 420.721818 138.416184 420.939021 138.561160 421.156224 138.713698 421.373427 138.873827 421.590629 139.041575 421.807832 139.216970 422.025035 139.400042 422.242238 139.590819 422.459441 139.789328 422.676643 139.995599 422.893846 140.209659 423.111049 140.431538 423.328252 140.661263 423.545455 140.898863 423.762657 141.144366 423.979860 141.397801 424.197063 141.659197 424.414266 141.928581 424.631469 142.205982 424.848671 142.491428 425.065874 142.784948 425.283077 143.086571 425.500280 143.396324 425.717483 143.714236 425.934685 144.040335 426.151888 144.374650 426.369091 144.717210 426.586294 145.068042 426.803497 145.427176 427.020699 145.794638 427.237902 146.170459 427.455105 146.554666 427.672308 146.947288 427.889510 147.348352 428.106713 147.757888 428.323916 148.175925 428.541119 148.602489 428.758322 149.037610 428.975524 149.481317 429.192727 149.933637 429.409930 150.394598 429.627133 150.864231 429.844336 151.342562 430.061538 151.829620 430.278741 152.325433 430.495944 152.830031 430.713147 153.343441 430.930350 153.865692 431.147552 154.396812 431.364755 154.936830 431.581958 155.485774 431.799161 156.043672 432.016364 156.610553 432.233566 157.186445 432.450769 157.771377 432.667972 158.365377 432.885175 158.968474 433.102378 159.580695 433.319580 160.202070 433.536783 160.832626 433.753986 161.472393 433.971189 162.121398 434.188392 162.779670 434.405594 163.447237 434.622797 164.124128 434.840000 164.810371 435.057203 165.505994 435.274406 166.211027 435.491608 166.925497 435.708811 167.649432 435.926014 168.382862 436.143217 169.125814 436.360420 169.878318 436.577622 170.640401 436.794825 171.412091 437.012028 172.193418 437.229231 172.984409 437.446434 173.785094 437.663636 174.595500 437.880839 175.415655 438.098042 176.245589 438.315245 177.085330 438.532448 177.934906 438.749650 178.794345 438.966853 179.663676 439.184056 180.542927 439.401259 181.432127 439.618462 182.331304 439.835664 183.240486 440.052867 184.159703 440.270070 185.088982 440.487273 186.028351 440.704476 186.977840 440.921678 187.937476 441.138881 188.907288 441.356084 189.887304 441.573287 190.877554 441.790490 191.878064 442.007692 192.888864 442.224895 193.909982 442.442098 194.941446 442.659301 195.983285 442.876503 197.035528 443.093706 198.098202 443.310909 199.171336 443.528112 200.254958 443.745315 201.349097 443.962517 202.453782 444.179720 203.569040 444.396923 204.694900 444.614126 205.831391 444.831329 206.978540 445.048531 208.136377 445.265734 209.304929 445.482937 210.484226 445.700140 211.674295 445.917343 212.875165 446.134545 214.086864 446.351748 215.309421 446.568951 216.542836 446.786154 217.786999 447.003357 219.041769 447.220559 220.307010 447.437762 221.582580 447.654965 222.868343 447.872168 224.164158 448.089371 225.469887 448.306573 226.785391 448.523776 228.110532 448.740979 229.445169 448.958182 230.789165 449.175385 232.142380 449.392587 233.504676 449.609790 234.875913 449.826993 236.255953 450.044196 237.644657 450.261399 239.041886 450.478601 240.447501 450.695804 241.861363 450.913007 243.283333 451.130210 244.713273 451.347413 246.151043 451.564615 247.596505 451.781818 249.049520 451.999021 250.509948 452.216224 251.977652 452.433427 253.452491 452.650629 254.934328 452.867832 256.423023 453.085035 257.918437 453.302238 259.420432 453.519441 260.928868 453.736643 262.443607 453.953846 263.964510 454.171049 265.491437 454.388252 267.024251 454.605455 268.562812 454.822657 270.106981 455.039860 271.656619 455.257063 273.211588 455.474266 274.771748 455.691469 276.336961 455.908671 277.907088 456.125874 279.481990 456.343077 281.061527 456.560280 282.645562 456.777483 284.233955 456.994685 285.826567 457.211888 287.423260 457.429091 289.023894 457.646294 290.628331 457.863497 292.236431 458.080699 293.848057 458.297902 295.463068 458.515105 297.081326 458.732308 298.702693 458.949510 300.327029 459.166713 301.954195 459.383916 303.584053 459.601119 305.216463 459.818322 306.851287 460.035524 308.488386 460.252727 310.127621 460.469930 311.768853 460.687133 313.411943 460.904336 315.056752 461.121538 316.703142 461.338741 318.350973 461.555944 320.000106 461.773147 321.650404 461.990350 323.301726 462.207552 324.953934 462.424755 326.606889 462.641958 328.260452 462.859161 329.914484 463.076364 331.568847 463.293566 333.223401 463.510769 334.878008 463.727972 336.532528 463.945175 338.186823 464.162378 339.840754 464.379580 341.494182 464.596783 343.146968 464.813986 344.798973 465.031189 346.450059 465.248392 348.100086 465.465594 349.748915 465.682797 351.396408 465.900000 353.042426 466.117203 354.686830 466.334406 356.329480 466.551608 357.970239 466.768811 359.608967 466.986014 361.245525 467.203217 362.879774 467.420420 364.511576 467.637622 366.140792 467.854825 367.767282 468.072028 369.390908 468.289231 371.011531 468.506434 372.629012 468.723636 374.243212 468.940839 375.853993 469.158042 377.461215 469.375245 379.064739 469.592448 380.664427 469.809650 382.260139 470.026853 383.851737 470.244056 385.439082 470.461259 387.022036 470.678462 388.600458 470.895664 390.174210 471.112867 391.743154 471.330070 393.307150 471.547273 394.866060 471.764476 396.419745 471.981678 397.968065 472.198881 399.510882 472.416084 401.048057 472.633287 402.579451 472.850490 404.104925 473.067692 405.624341 473.284895 407.137559 473.502098 408.644440 473.719301 410.144846 473.936503 411.638638 474.153706 413.125677 474.370909 414.605823 474.588112 416.078939 474.805315 417.544885 475.022517 419.003522 475.239720 420.454711 475.456923 421.898314 475.674126 423.334192 475.891329 424.762205 476.108531 426.182215 476.325734 427.594083 476.542937 428.997670 476.760140 430.392837 476.977343 431.779445 477.194545 433.157356 477.411748 434.526430 477.628951 435.886529 477.846154 437.237513 478.063357 438.579245 478.280559 439.911584 478.497762 441.234392 478.714965 442.547530 478.932168 443.850859 479.149371 445.144241 479.366573 446.427536 479.583776 447.700605 479.800979 448.963311 480.018182 450.215513 480.235385 451.457073 480.452587 452.687851 480.669790 453.907710 480.886993 455.116510 481.104196 456.314113 481.321399 457.500379 481.538601 458.675169 481.755804 459.838345 481.973007 460.989767 482.190210 462.129298 482.407413 463.256797 482.624615 464.372127 482.841818 465.475147 483.059021 466.565720 483.276224 467.643706 483.493427 468.708967 483.710629 469.761363 483.927832 470.800756 484.145035 471.827007 484.362238 472.839977 484.579441 473.839526 484.796643 474.825517 485.013846 475.797810 485.231049 476.756267 485.448252 477.700748 485.665455 478.631114 485.882657 479.547227 486.099860 480.448948 486.317063 481.336138 486.534266 482.208657 486.751469 483.066368 486.968671 483.909131 487.185874 484.736807 487.403077 485.549258 487.620280 486.346344 487.837483 487.127927 488.054685 487.893868 488.271888 488.644027 488.489091 489.378267 488.706294 490.096447 488.923497 490.798430 489.140699 491.484076 489.357902 492.153246 489.575105 492.805802 489.792308 493.441605 490.009510 494.060515 490.226713 494.662394 490.443916 495.247103 490.661119 495.814503 490.878322 496.364455 491.095524 496.896820 491.312727 497.411460 491.529930 497.908235 491.747133 498.387007 491.964336 498.847637 492.181538 499.289985 492.398741 499.713913 492.615944 500.119282 492.833147 500.505954 493.050350 500.873788 493.267552 501.222647 493.484755 501.552391 493.701958 501.862882 493.919161 502.153981 494.136364 502.425548 494.353566 502.677445 494.570769 502.909533 494.787972 503.121674 495.005175 503.313727 495.222378 503.485555 495.439580 503.637018 495.656783 503.767978 495.873986 503.878295 496.091189 503.967831 496.308392 504.036447 496.525594 504.084004 496.742797 504.110363 496.960000 504.115385 497.177203 504.098931 497.394406 504.060863 497.611608 504.001041 497.828811 503.919327 498.046014 503.815581 498.263217 503.689666 498.480420 503.541441 498.697622 503.370768 498.914825 503.177509 499.132028 502.961523 499.349231 502.722673 499.566434 502.460820 499.783636 502.175824 500.000839 501.867547 500.218042 501.535849 500.435245 501.180593 500.652448 500.801638 500.869650 500.398899 501.086853 499.972500 501.304056 499.522616 501.521259 499.049425 501.738462 498.553102 501.955664 498.033824 502.172867 497.491767 502.390070 496.927107 502.607273 496.340022 502.824476 495.730687 503.041678 495.099278 503.258881 494.445972 503.476084 493.770946 503.693287 493.074375 503.910490 492.356437 504.127692 491.617306 504.344895 490.857160 504.562098 490.076176 504.779301 489.274528 504.996503 488.452395 505.213706 487.609951 505.430909 486.747374 505.648112 485.864840 505.865315 484.962524 506.082517 484.040605 506.299720 483.099257 506.516923 482.138657 506.734126 481.158982 506.951329 480.160407 507.168531 479.143110 507.385734 478.107266 507.602937 477.053053 507.820140 475.980645 508.037343 474.890220 508.254545 473.781954 508.471748 472.656024 508.688951 471.512605 508.906154 470.351874 509.123357 469.174007 509.340559 467.979181 509.557762 466.767572 509.774965 465.539357 509.992168 464.294711 510.209371 463.033811 510.426573 461.756834 510.643776 460.463955 510.860979 459.155352 511.078182 457.831200 511.295385 456.491676 511.512587 455.136956 511.729790 453.767217 511.946993 452.382634 512.164196 450.983385 512.381399 449.569645 512.598601 448.141591 512.815804 446.699399 513.033007 445.243246 513.250210 443.773308 513.467413 442.289762 513.684615 440.792783 513.901818 439.282548 514.119021 437.759233 514.336224 436.223015 514.553427 434.674070 514.770629 433.112574 514.987832 431.538704 515.205035 429.952637 515.422238 428.354547 515.639441 426.744613 515.856643 425.123009 516.073846 423.489913 516.291049 421.845501 516.508252 420.189949 516.725455 418.523434 516.942657 416.846132 517.159860 415.158218 517.377063 413.459871 517.594266 411.751265 517.811469 410.032577 518.028671 408.303984 518.245874 406.565662 518.463077 404.817788 518.680280 403.060537 518.897483 401.294086 519.114685 399.518611 519.331888 397.734289 519.549091 395.941296 519.766294 394.139809 519.983497 392.330003 520.200699 390.512055 520.417902 388.686142 520.635105 386.852440 520.852308 385.011125 521.069510 383.162373 521.286713 381.306361 521.503916 379.443265 521.721119 377.573262 521.938322 375.696528 522.155524 373.813239 522.372727 371.923571 522.589930 370.027702 522.807133 368.125806 523.024336 366.218062 523.241538 364.304644 523.458741 362.385729 523.675944 360.461495 523.893147 358.532116 524.110350 356.597770 524.327552 354.658632 524.544755 352.714879 524.761958 350.766688 524.979161 348.814235 525.196364 346.857696 525.413566 344.897247 525.630769 342.933065 525.847972 340.965326 526.065175 338.994206 526.282378 337.019883 526.499580 335.042531 526.716783 333.062328 526.933986 331.079450 527.151189 329.094074 527.368392 327.106375 527.585594 325.116529 527.802797 323.124715 528.020000 321.131106 528.237203 319.135881 528.454406 317.139215 528.671608 315.141285 528.888811 313.142266 529.106014 311.142336 529.323217 309.141671 529.540420 307.140447 529.757622 305.138840 529.974825 303.137027 530.192028 301.135185 530.409231 299.133488 530.626434 297.132115 530.843636 295.131240 531.060839 293.131041 531.278042 291.131694 531.495245 289.133375 531.712448 287.136261 531.929650 285.140527 532.146853 283.146351 532.364056 281.153909 532.581259 279.163376 532.798462 277.174930 533.015664 275.188746 533.232867 273.205001 533.450070 271.223872 533.667273 269.245534 533.884476 267.270164 534.101678 265.297939 534.318881 263.329034 534.536084 261.363627 534.753287 259.401893 534.970490 257.444008 535.187692 255.490150 535.404895 253.540495 535.622098 251.595218 535.839301 249.654496 536.056503 247.718506 536.273706 245.787423 536.490909 243.861425 536.708112 241.940687 536.925315 240.025387 537.142517 238.115699 537.359720 236.211801 537.576923 234.313869 537.794126 232.422080 538.011329 230.536609 538.228531 228.657633 538.445734 226.785328 538.662937 224.919871 538.880140 223.061438 539.097343 221.210205 539.314545 219.366350 539.531748 217.530047 539.748951 215.701474 539.966154 213.880806 540.183357 212.068221 540.400559 210.263894 540.617762 208.468002 540.834965 206.680721 541.052168 204.902227 541.269371 203.132698 541.486573 201.372308 541.703776 199.621235 541.920979 197.879656 542.138182 196.147745 542.355385 194.425680 542.572587 192.713637 542.789790 191.011792 543.006993 189.320322 543.224196 187.639403 543.441399 185.969211 543.658601 184.309923 543.875804 182.661715 544.093007 181.024763 544.310210 179.399245 544.527413 177.785335 544.744615 176.183210 544.961818 174.593048 545.179021 173.015023 545.396224 171.449313 545.613427 169.896094 545.830629 168.355542 546.047832 166.827834 546.265035 165.313145 546.482238 163.811653 546.699441 162.323533 546.916643 160.848962 547.133846 159.388117 547.351049 157.941173 547.568252 156.508307 547.785455 155.089695 548.002657 153.685514 548.219860 152.295940 548.437063 150.921149 548.654266 149.561318 548.871469 148.216623 549.088671 146.887241 549.305874 145.573347 549.523077 144.275118 549.740280 142.992731 549.957483 141.726361 550.174685 140.476186 550.391888 139.242381 550.609091 138.025123 550.826294 136.824589 551.043497 135.640953 551.260699 134.474394 551.477902 133.325087 551.695105 132.193208 551.912308 131.078934 552.129510 129.982442 552.346713 128.903907 552.563916 127.843506 552.781119 126.801416 552.998322 125.777812 553.215524 124.772871 553.432727 123.786770 553.649930 122.819684 553.867133 121.871790 554.084336 120.943265 554.301538 120.034285 554.518741 119.145025 554.735944 118.275663 554.953147 117.426375 555.170350 116.597294 555.387552 115.788382 555.604755 114.999559 555.821958 114.230742 556.039161 113.481852 556.256364 112.752807 556.473566 112.043526 556.690769 111.353928 556.907972 110.683932 557.125175 110.033457 557.342378 109.402423 557.559580 108.790747 557.776783 108.198350 557.993986 107.625150 558.211189 107.071066 558.428392 106.536017 558.645594 106.019923 558.862797 105.522701 559.080000 105.044272 559.297203 104.584554 559.514406 104.143466 559.731608 103.720927 559.948811 103.316856 560.166014 102.931172 560.383217 102.563794 560.600420 102.214642 560.817622 101.883634 561.034825 101.570689 561.252028 101.275726 561.469231 100.998664 561.686434 100.739422 561.903636 100.497919 562.120839 100.274075 562.338042 100.067807 562.555245 99.879036 562.772448 99.707680 562.989650 99.553658 563.206853 99.416889 563.424056 99.297292 563.641259 99.194786 563.858462 99.109291 564.075664 99.040724 564.292867 98.989006 564.510070 98.954055 564.727273 98.935790 564.944476 98.934130 565.161678 98.948994 565.378881 98.980302 565.596084 99.027971 565.813287 99.091922 566.030490 99.172072 566.247692 99.268342 566.464895 99.380650 566.682098 99.508915 566.899301 99.653056 567.116503 99.812992 567.333706 99.988643 567.550909 100.179926 567.768112 100.386762 567.985315 100.609068 568.202517 100.846765 568.419720 101.099771 568.636923 101.368005 568.854126 101.651386 569.071329 101.949834 569.288531 102.263266 569.505734 102.591602 569.722937 102.934762 569.940140 103.292664 570.157343 103.665226 570.374545 104.052369 570.591748 104.454011 570.808951 104.870071 571.026154 105.300469 571.243357 105.745122 571.460559 106.203950 571.677762 106.676873 571.894965 107.163808 572.112168 107.664676 572.329371 108.179395 572.546573 108.707884 572.763776 109.250062 572.980979 109.805848 573.198182 110.375161 573.415385 110.957920 573.632587 111.554045 573.849790 112.163453 574.066993 112.786065 574.284196 113.421799 574.501399 114.070573 574.718601 114.732308 574.935804 115.406922 575.153007 116.094334 575.370210 116.794464 575.587413 117.507229 575.804615 118.232549 576.021818 118.970344 576.239021 119.720531 576.456224 120.483031 576.673427 121.257761 576.890629 122.044642 577.107832 122.843592 577.325035 123.654530 577.542238 124.477375 577.759441 125.312046 577.976643 126.158462 578.193846 127.016543 578.411049 127.886206 578.628252 128.767372 578.845455 129.659958 579.062657 130.563885 579.279860 131.479070 579.497063 132.405434 579.714266 133.342895 579.931469 134.291372 580.148671 135.250784 580.365874 136.221050 580.583077 137.202089 580.800280 138.193821 581.017483 139.196163 581.234685 140.209035 581.451888 141.232357 581.669091 142.266047 581.886294 143.310023 582.103497 144.364206 582.320699 145.428514 582.537902 146.502866 582.755105 147.587181 582.972308 148.681378 583.189510 149.785376 583.406713 150.899094 583.623916 152.022451 583.841119 153.155366 584.058322 154.297759 584.275524 155.449547 584.492727 156.610651 584.709930 157.780988 584.927133 158.960479 585.144336 160.149041 585.361538 161.346595 585.578741 162.553059 585.795944 163.768352 586.013147 164.992393 586.230350 166.225101 586.447552 167.466395 586.664755 168.716194 586.881958 169.974417 587.099161 171.240984 587.316364 172.515812 587.533566 173.798821 587.750769 175.089931 587.967972 176.389059 588.185175 177.696126 588.402378 179.011049 588.619580 180.333749 588.836783 181.664144 589.053986 183.002153 589.271189 184.347694 589.488392 185.700688 589.705594 187.061053 589.922797 188.428708 590.140000 189.803572 590.357203 191.185564 590.574406 192.574604 590.791608 193.970609 591.008811 195.373499 591.226014 196.783193 591.443217 198.199611 591.660420 199.622670 591.877622 201.052290 592.094825 202.488391 592.312028 203.930890 592.529231 205.379708 592.746434 206.834763 592.963636 208.295973 593.180839 209.763259 593.398042 211.236539 593.615245 212.715732 593.832448 214.200756 594.049650 215.691532 594.266853 217.187978 594.484056 218.690013 594.701259 220.197556 594.918462 221.710526 595.135664 223.228842 595.352867 224.752424 595.570070 226.281189 595.787273 227.815057 596.004476 229.353947 596.221678 230.897778 596.438881 232.446470 596.656084 233.999940 596.873287 235.558108 597.090490 237.120894 597.307692 238.688215 597.524895 240.259992 597.742098 241.836142 597.959301 243.416586 598.176503 245.001241 598.393706 246.590028 598.610909 248.182865 598.828112 249.779670 599.045315 251.380364 599.262517 252.984865 599.479720 254.593091 599.696923 256.204963 599.914126 257.820399 600.131329 259.439318 600.348531 261.061639 600.565734 262.687280 600.782937 264.316162 601.000140 265.948203 601.217343 267.583322 601.434545 269.221438 601.651748 270.862470 601.868951 272.506337 602.086154 274.152958 602.303357 275.802252 602.520559 277.454138 602.737762 279.108535 602.954965 280.765362 603.172168 282.424538 603.389371 284.085982 603.606573 285.749614 603.823776 287.415351 604.040979 289.083113 604.258182 290.752819 604.475385 292.424388 604.692587 294.097740 604.909790 295.772792 605.126993 297.449464 605.344196 299.127675 605.561399 300.807344 605.778601 302.488391 605.995804 304.170733 606.213007 305.854290 606.430210 307.538982 606.647413 309.224726 606.864615 310.911442 607.081818 312.599049 607.299021 314.287467 607.516224 315.976613 607.733427 317.666407 607.950629 319.356769 608.167832 321.047616 608.385035 322.738868 608.602238 324.430445 608.819441 326.122264 609.036643 327.814245 609.253846 329.506308 609.253846 514.000000" /></g></g><g class="titles"><text class="title plot_title" x="400.0" y="26">Surasak 52</text></g><g class="plot overlay" transform="translate(158, 46)"><g class="series serie-0 color-0"><g class="dots"><circle class="dot reactive tooltip-trigger" cx="11.946153846153846" cy="141.89713647134062" r="2.5" /><desc class="value">301000</desc><desc class="x ">11.946153846153846</desc><desc class="y ">141.89713647134062</desc><desc class="x_label">Jan</desc></g><g class="dots"><circle class="dot reactive tooltip-trigger" cx="66.24685314685314" cy="239.7801823984846" r="2.5" /><desc class="value">289000</desc><desc class="x ">66.24685314685314</desc><desc class="y ">239.7801823984846</desc><desc class="x_label">Feb</desc></g><g class="dots"><circle class="dot reactive tooltip-trigger" cx="120.54755244755245" cy="11.386408568481954" r="2.5" /><desc class="value">317000</desc><desc class="x ">120.54755244755245</desc><desc class="y ">11.386408568481954</desc><desc class="x_label">Mar</desc></g><g class="dots"><circle class="dot reactive tooltip-trigger" cx="174.84825174825176" cy="345.8201488195573" r="2.5" /><desc class="value">276000</desc><desc class="x top">174.84825174825176</desc><desc class="y top">345.8201488195573</desc><desc class="x_label">Apr</desc></g><g class="dots"><circle class="dot reactive tooltip-trigger" cx="229.14895104895106" cy="280.56478486812796" r="2.5" /><desc class="value">284000</desc><desc class="x top">229.14895104895106</desc><desc class="y top">280.56478486812796</desc><desc class="x_label">May</desc></g><g class="dots"><circle class="dot reactive tooltip-trigger" cx="283.44965034965037" cy="133.74021597741194" r="2.5" /><desc class="value">302000</desc><desc class="x ">283.44965034965037</desc><desc class="y ">133.74021597741194</desc><desc class="x_label">Jun</desc></g><g class="dots"><circle class="dot reactive tooltip-trigger" cx="337.7503496503497" cy="296.8786258559853" r="2.5" /><desc class="value">282000</desc><desc class="x left top">337.7503496503497</desc><desc class="y left top">296.8786258559853</desc><desc class="x_label">Jul</desc></g><g class="dots"><circle class="dot reactive tooltip-trigger" cx="392.051048951049" cy="174.52481844705528" r="2.5" /><desc class="value">297000</desc><desc class="x left">392.051048951049</desc><desc class="y left">174.52481844705528</desc><desc class="x_label">Aug</desc></g><g class="dots"><circle class="dot reactive tooltip-trigger" cx="446.3517482517483" cy="215.30942091669863" r="2.5" /><desc class="value">292000</desc><desc class="x left">446.3517482517483</desc><desc class="y left">215.30942091669863</desc><desc class="x_label">Sep</desc></g><g class="dots"><circle class="dot reactive tooltip-trigger" cx="500.6524475524476" cy="500.801638204202" r="2.5" /><desc class="value">257000</desc><desc class="x left top">500.6524475524476</desc><desc class="y left top">500.801638204202</desc><desc class="x_label">Oct</desc></g><g class="dots"><circle class="dot reactive tooltip-trigger" cx="554.9531468531468" cy="117.42637498955463" r="2.5" /><desc class="value">304000</desc><desc class="x left">554.9531468531468</desc><desc class="y left">117.42637498955463</desc><desc class="x_label">Nov</desc></g><g class="dots"><circle class="dot reactive tooltip-trigger" cx="609.2538461538462" cy="329.5063078317" r="2.5" /><desc class="value">278000</desc><desc class="x left top">609.2538461538462</desc><desc class="y left top">329.5063078317</desc><desc class="x_label">Dec</desc></g></g></g><g class="plot text-overlay" transform="translate(158, 46)"><g class="series serie-0 color-0" /></g><g class="plot tooltip-overlay" transform="translate(158, 46)"><g class="tooltip" style="opacity: 0" transform="translate(0 0)"><rect class="tooltip-box" height="0" rx="0" ry="0" width="0" /><g class="text" /></g></g><g class="legends" transform="translate(10, 56)"><g class="legend reactive activate-serie" id="activate-serie-0"><rect class="color-0 reactive" height="12" width="12" x="0.0" y="1.0" /><text x="17.0" y="11.2">Surasak</text></g></g><g class="legends" transform="translate(790, 56)" /></g></svg>