<?xml version='1.0' encoding='utf-8'?>
<svg xmlns:xlink="http://www.w3.org/1999/xlink" class="pygal-chart" id="chart-519a7af7-5f89-4491-b463-1db91435df1c" viewBox="0 0 800 600" xmlns="http://www.w3.org/2000/svg"><!--Generated with pygal 2.0.11 (etree) ©Kozea 2011-2015 on 2015-12-10--><!--http://pygal.org--><!--http://github.com/Kozea/pygal--><defs><style type="text/css">#chart-519a7af7-5f89-4491-b463-1db91435df1c{-webkit-user-select:none;-webkit-font-smoothing:antialiased;font-family:Consolas,"Liberation Mono",Menlo,Courier,monospace}#chart-519a7af7-5f89-4491-b463-1db91435df1c .title{font-family:Consolas,"Liberation Mono",Menlo,Courier,monospace;font-size:16px}#chart-519a7af7-5f89-4491-b463-1db91435df1c .legends .legend text{font-family:Consolas,"Liberation Mono",Menlo,Courier,monospace;font-size:14px}#chart-519a7af7-5f89-4491-b463-1db91435df1c .axis text{font-family:Consolas,"Liberation Mono",Menlo,Courier,monospace;font-size:10px}#chart-519a7af7-5f89-4491-b463-1db91435df1c .axis text.major{font-family:Consolas,"Liberation Mono",Menlo,Courier,monospace;font-size:10px}#chart-519a7af7-5f89-4491-b463-1db91435df1c .text-overlay text.value{font-family:Consolas,"Liberation Mono",Menlo,Courier,monospace;font-size:16px}#chart-519a7af7-5f89-4491-b463-1db91435df1c .text-overlay text.label{font-family:Consolas,"Liberation Mono",Menlo,Courier,monospace;font-size:10px}#chart-519a7af7-5f89-4491-b463-1db91435df1c .tooltip{font-family:Consolas,"Liberation Mono",Menlo,Courier,monospace;font-size:14px}#chart-519a7af7-5f89-4491-b463-1db91435df1c text.no_data{font-family:Consolas,"Liberation Mono",Menlo,Courier,monospace;font-size:64px}
#chart-519a7af7-5f89-4491-b463-1db91435df1c{background-color:black}#chart-519a7af7-5f89-4491-b463-1db91435df1c path,#chart-519a7af7-5f89-4491-b463-1db91435df1c line,#chart-519a7af7-5f89-4491-b463-1db91435df1c rect,#chart-519a7af7-5f89-4491-b463-1db91435df1c circle{-webkit-transition:250ms;-moz-transition:250ms;transition:250ms}#chart-519a7af7-5f89-4491-b463-1db91435df1c .graph &gt; .background{fill:black}#chart-519a7af7-5f89-4491-b463-1db91435df1c .plot &gt; .background{fill:#111}#chart-519a7af7-5f89-4491-b463-1db91435df1c .graph{fill:#999}#chart-519a7af7-5f89-4491-b463-1db91435df1c text.no_data{fill:#eee}#chart-519a7af7-5f89-4491-b463-1db91435df1c .title{fill:#eee}#chart-519a7af7-5f89-4491-b463-1db91435df1c .legends .legend text{fill:#999}#chart-519a7af7-5f89-4491-b463-1db91435df1c .legends .legend:hover text{fill:#eee}#chart-519a7af7-5f89-4491-b463-1db91435df1c .axis .line{stroke:#eee}#chart-519a7af7-5f89-4491-b463-1db91435df1c .axis .guide.line{stroke:#555}#chart-519a7af7-5f89-4491-b463-1db91435df1c .axis .major.line{stroke:#999}#chart-519a7af7-5f89-4491-b463-1db91435df1c .axis text.major{fill:#eee}#chart-519a7af7-5f89-4491-b463-1db91435df1c .axis.y .guides:hover .guide.line,#chart-519a7af7-5f89-4491-b463-1db91435df1c .line-graph .axis.x .guides:hover .guide.line,#chart-519a7af7-5f89-4491-b463-1db91435df1c .stackedline-graph .axis.x .guides:hover .guide.line,#chart-519a7af7-5f89-4491-b463-1db91435df1c .xy-graph .axis.x .guides:hover .guide.line{stroke:#eee}#chart-519a7af7-5f89-4491-b463-1db91435df1c .axis .guides:hover text{fill:#eee}#chart-519a7af7-5f89-4491-b463-1db91435df1c .reactive{fill-opacity:.8}#chart-519a7af7-5f89-4491-b463-1db91435df1c .reactive.active,#chart-519a7af7-5f89-4491-b463-1db91435df1c .active .reactive{fill-opacity:.4;stroke-width:4}#chart-519a7af7-5f89-4491-b463-1db91435df1c .series text{fill:#eee}#chart-519a7af7-5f89-4491-b463-1db91435df1c .tooltip rect{fill:#111;stroke:#eee;-webkit-transition:opacity 250ms;-moz-transition:opacity 250ms;transition:opacity 250ms}#chart-519a7af7-5f89-4491-b463-1db91435df1c .tooltip .label{fill:#999}#chart-519a7af7-5f89-4491-b463-1db91435df1c .tooltip .label{fill:#999}#chart-519a7af7-5f89-4491-b463-1db91435df1c .tooltip .legend{font-size:.8em;fill:#555}#chart-519a7af7-5f89-4491-b463-1db91435df1c .tooltip .x_label{font-size:.6em;fill:#eee}#chart-519a7af7-5f89-4491-b463-1db91435df1c .tooltip .xlink{font-size:.5em;text-decoration:underline}#chart-519a7af7-5f89-4491-b463-1db91435df1c .tooltip .value{font-size:1.5em}#chart-519a7af7-5f89-4491-b463-1db91435df1c .map-element{fill:#111;stroke:#555 !important}#chart-519a7af7-5f89-4491-b463-1db91435df1c .map-element .reactive{fill-opacity:inherit}#chart-519a7af7-5f89-4491-b463-1db91435df1c .color-0,#chart-519a7af7-5f89-4491-b463-1db91435df1c .color-0 a:visited{stroke:#ff5995;fill:#ff5995}#chart-519a7af7-5f89-4491-b463-1db91435df1c .text-overlay .color-0 text{fill:black}
#chart-519a7af7-5f89-4491-b463-1db91435df1c text.no_data{text-anchor:middle}#chart-519a7af7-5f89-4491-b463-1db91435df1c .guide.line{fill:none}#chart-519a7af7-5f89-4491-b463-1db91435df1c .centered{text-anchor:middle}#chart-519a7af7-5f89-4491-b463-1db91435df1c .title{text-anchor:middle}#chart-519a7af7-5f89-4491-b463-1db91435df1c .legends .legend text{fill-opacity:1}#chart-519a7af7-5f89-4491-b463-1db91435df1c .axis.x text{text-anchor:middle}#chart-519a7af7-5f89-4491-b463-1db91435df1c .axis.x:not(.web) text[transform]{text-anchor:start}#chart-519a7af7-5f89-4491-b463-1db91435df1c .axis.x:not(.web) text[transform].backwards{text-anchor:end}#chart-519a7af7-5f89-4491-b463-1db91435df1c .axis.y text{text-anchor:end}#chart-519a7af7-5f89-4491-b463-1db91435df1c .axis.y text[transform].backwards{text-anchor:start}#chart-519a7af7-5f89-4491-b463-1db91435df1c .axis.y2 text{text-anchor:start}#chart-519a7af7-5f89-4491-b463-1db91435df1c .axis.y2 text[transform].backwards{text-anchor:end}#chart-519a7af7-5f89-4491-b463-1db91435df1c .axis .guide.line{stroke-dasharray:4,4}#chart-519a7af7-5f89-4491-b463-1db91435df1c .axis .major.guide.line{stroke-dasharray:6,6}#chart-519a7af7-5f89-4491-b463-1db91435df1c .horizontal .axis.y .guide.line,#chart-519a7af7-5f89-4491-b463-1db91435df1c .horizontal .axis.y2 .guide.line,#chart-519a7af7-5f89-4491-b463-1db91435df1c .vertical .axis.x .guide.line{opacity:0}#chart-519a7af7-5f89-4491-b463-1db91435df1c .horizontal .axis.always_show .guide.line,#chart-519a7af7-5f89-4491-b463-1db91435df1c .vertical .axis.always_show .guide.line{opacity:1 !important}#chart-519a7af7-5f89-4491-b463-1db91435df1c .axis.y .guides:hover .guide.line,#chart-519a7af7-5f89-4491-b463-1db91435df1c .axis.y2 .guides:hover .guide.line,#chart-519a7af7-5f89-4491-b463-1db91435df1c .axis.x .guides:hover .guide.line{opacity:1}#chart-519a7af7-5f89-4491-b463-1db91435df1c .axis .guides:hover text{opacity:1}#chart-519a7af7-5f89-4491-b463-1db91435df1c .nofill{fill:none}#chart-519a7af7-5f89-4491-b463-1db91435df1c .subtle-fill{fill-opacity:.2}#chart-519a7af7-5f89-4491-b463-1db91435df1c .dot{stroke-width:1px;fill-opacity:1}#chart-519a7af7-5f89-4491-b463-1db91435df1c .dot.active{stroke-width:5px}#chart-519a7af7-5f89-4491-b463-1db91435df1c .dot.negative{fill:transparent}#chart-519a7af7-5f89-4491-b463-1db91435df1c text,#chart-519a7af7-5f89-4491-b463-1db91435df1c tspan{stroke:none !important}#chart-519a7af7-5f89-4491-b463-1db91435df1c .series text.active{opacity:1}#chart-519a7af7-5f89-4491-b463-1db91435df1c .tooltip rect{fill-opacity:.95;stroke-width:.5}#chart-519a7af7-5f89-4491-b463-1db91435df1c .tooltip text{fill-opacity:1}#chart-519a7af7-5f89-4491-b463-1db91435df1c .showable{visibility:hidden}#chart-519a7af7-5f89-4491-b463-1db91435df1c .showable.shown{visibility:visible}</style><script type="text/javascript">window.pygal = window.pygal || {};window.pygal.config = window.pygal.config || {};window.pygal.config['519a7af7-5f89-4491-b463-1db91435df1c'] = {"print_values": false, "truncate_label": null, "human_readable": false, "explicit_size": false, "show_y_labels": true, "x_labels": ["Jan", "Feb", "Mar", "Apr", "May", "Jun", "Jul", "Aug", "Sep", "Oct", "Nov", "Dec"], "inverse_y_axis": false, "x_labels_major_count": null, "show_y_guides": true, "spacing": 10, "xrange": null, "rounded_bars": null, "margin": 20, "interpolation_precision": 250, "title": "Wongwian-Yai 52", "stroke_style": null, "no_data_text": "No data", "fill": true, "box_mode": "extremes", "print_labels": false, "interpolate": "cubic", "zero": 0, "show_only_major_dots": false, "truncate_legend": null, "show_minor_x_labels": true, "js": ["//kozea.github.io/pygal.js/2.0.x/pygal-tooltips.min.js"], "x_labels_major_every": null, "legends": ["Wongwian-Yai"], "tooltip_fancy_mode": true, "disable_xml_declaration": false, "show_x_guides": false, "print_zeroes": true, "show_legend": true, "legend_at_bottom": false, "y_labels_major_count": null, "secondary_range": null, "margin_bottom": null, "half_pie": false, "height": 600, "range": null, "show_minor_y_labels": true, "defs": [], "css": ["file://style.css", "file://graph.css"], "y_labels": null, "interpolation_parameters": {}, "width": 800, "strict": false, "pretty_print": false, "min_scale": 4, "margin_top": null, "dynamic_print_values": false, "order_min": null, "x_title": null, "margin_left": null, "margin_right": null, "y_labels_major_every": null, "stroke": true, "x_labels_major": null, "missing_value_fill_truncation": "x", "logarithmic": false, "stack_from_top": false, "show_dots": true, "style": {"title_font_size": 16, "title_font_family": "Consolas, \"Liberation Mono\", Menlo, Courier, monospace", "tooltip_font_family": "Consolas, \"Liberation Mono\", Menlo, Courier, monospace", "background": "black", "tooltip_font_size": 14, "opacity_hover": ".4", "value_label_font_size": 10, "opacity": ".8", "no_data_font_family": "Consolas, \"Liberation Mono\", Menlo, Courier, monospace", "label_font_size": 10, "plot_background": "#111", "value_font_size": 16, "value_font_family": "Consolas, \"Liberation Mono\", Menlo, Courier, monospace", "no_data_font_size": 64, "foreground_strong": "#eee", "font_family": "Consolas, \"Liberation Mono\", Menlo, Courier, monospace", "label_font_family": "Consolas, \"Liberation Mono\", Menlo, Courier, monospace", "transition": "250ms", "major_guide_stroke_dasharray": "6,6", "foreground_subtle": "#555", "value_colors": [], "value_label_font_family": "Consolas, \"Liberation Mono\", Menlo, Courier, monospace", "guide_stroke_dasharray": "4,4", "major_label_font_size": 10, "legend_font_family": "Consolas, \"Liberation Mono\", Menlo, Courier, monospace", "major_label_font_family": "Consolas, \"Liberation Mono\", Menlo, Courier, monospace", "foreground": "#999", "colors": ["#ff5995", "#b6e354", "#feed6c", "#8cedff", "#9e6ffe", "#899ca1", "#f8f8f2", "#bf4646", "#516083", "#f92672", "#82b414", "#fd971f", "#56c2d6", "#808384", "#8c54fe", "#465457"], "legend_font_size": 14}, "y_labels_major": null, "x_label_rotation": 0, "max_scale": 16, "value_formatter": null, "dots_size": 2.5, "legend_at_bottom_columns": null, "force_uri_protocol": null, "x_value_formatter": null, "legend_box_size": 12, "include_x_axis": false, "y_label_rotation": 0, "show_x_labels": true, "inner_radius": 0, "no_prefix": false, "tooltip_border_radius": 0, "y_title": null}</script><script type="text/javascript" xlink:href="//kozea.github.io/pygal.js/2.0.x/pygal-tooltips.min.js" /></defs><title>Wongwian-Yai 52</title><g class="graph line-graph vertical"><rect class="background" height="600" width="800" x="0" y="0" /><g class="plot" transform="translate(200, 46)"><rect class="background" height="514" width="579.2" x="0" y="0" /><g class="axis y"><g class="guides"><path class="major line" d="M0.000000 479.351792 h579.200000" /><text class="major" x="-5" y="482.85179174115916">0.0</text><title>0.0</title></g><g class="guides"><path class="guide line" d="M0.000000 446.048933 h579.200000" /><text class="" x="-5" y="449.54893328082005">20000.0</text><title>20000.0</title></g><g class="guides"><path class="guide line" d="M0.000000 412.746075 h579.200000" /><text class="" x="-5" y="416.24607482048094">40000.0</text><title>40000.0</title></g><g class="guides"><path class="guide line" d="M0.000000 379.443216 h579.200000" /><text class="" x="-5" y="382.94321636014183">60000.0</text><title>60000.0</title></g><g class="guides"><path class="guide line" d="M0.000000 346.140358 h579.200000" /><text class="" x="-5" y="349.6403578998027">80000.0</text><title>80000.0</title></g><g class="guides"><path class="major guide line" d="M0.000000 312.837499 h579.200000" /><text class="major" x="-5" y="316.3374994394636">100000.0</text><title>100000.0</title></g><g class="guides"><path class="guide line" d="M0.000000 279.534641 h579.200000" /><text class="" x="-5" y="283.03464097912456">120000.0</text><title>120000.0</title></g><g class="guides"><path class="guide line" d="M0.000000 246.231783 h579.200000" /><text class="" x="-5" y="249.73178251878545">140000.0</text><title>140000.0</title></g><g class="guides"><path class="guide line" d="M0.000000 212.928924 h579.200000" /><text class="" x="-5" y="216.42892405844634">160000.0</text><title>160000.0</title></g><g class="guides"><path class="guide line" d="M0.000000 179.626066 h579.200000" /><text class="" x="-5" y="183.12606559810723">180000.0</text><title>180000.0</title></g><g class="guides"><path class="major guide line" d="M0.000000 146.323207 h579.200000" /><text class="major" x="-5" y="149.82320713776812">200000.0</text><title>200000.0</title></g><g class="guides"><path class="guide line" d="M0.000000 113.020349 h579.200000" /><text class="" x="-5" y="116.52034867742901">220000.0</text><title>220000.0</title></g><g class="guides"><path class="guide line" d="M0.000000 79.717490 h579.200000" /><text class="" x="-5" y="83.2174902170899">240000.0</text><title>240000.0</title></g><g class="guides"><path class="guide line" d="M0.000000 46.414632 h579.200000" /><text class="" x="-5" y="49.91463175675074">260000.0</text><title>260000.0</title></g><g class="guides"><path class="guide line" d="M0.000000 13.111773 h579.200000" /><text class="" x="-5" y="16.611773296411627">280000.0</text><title>280000.0</title></g></g><g class="axis x"><g class="guides"><path class="line" d="M11.138462 0.000000 v514.000000" /><text class="" x="11.13846153846154" y="529.0">Jan</text></g><g class="guides"><path class="guide line" d="M61.767832 0.000000 v514.000000" /><text class="" x="61.76783216783217" y="529.0">Feb</text></g><g class="guides"><path class="guide line" d="M112.397203 0.000000 v514.000000" /><text class="" x="112.3972027972028" y="529.0">Mar</text></g><g class="guides"><path class="guide line" d="M163.026573 0.000000 v514.000000" /><text class="" x="163.02657342657344" y="529.0">Apr</text></g><g class="guides"><path class="guide line" d="M213.655944 0.000000 v514.000000" /><text class="" x="213.65594405594408" y="529.0">May</text></g><g class="guides"><path class="guide line" d="M264.285315 0.000000 v514.000000" /><text class="" x="264.2853146853147" y="529.0">Jun</text></g><g class="guides"><path class="guide line" d="M314.914685 0.000000 v514.000000" /><text class="" x="314.9146853146853" y="529.0">Jul</text></g><g class="guides"><path class="guide line" d="M365.544056 0.000000 v514.000000" /><text class="" x="365.54405594405597" y="529.0">Aug</text></g><g class="guides"><path class="guide line" d="M416.173427 0.000000 v514.000000" /><text class="" x="416.17342657342664" y="529.0">Sep</text></g><g class="guides"><path class="guide line" d="M466.802797 0.000000 v514.000000" /><text class="" x="466.8027972027973" y="529.0">Oct</text></g><g class="guides"><path class="guide line" d="M517.432168 0.000000 v514.000000" /><text class="" x="517.4321678321678" y="529.0">Nov</text></g><g class="guides"><path class="guide line" d="M568.061538 0.000000 v514.000000" /><text class="" x="568.0615384615386" y="529.0">Dec</text></g></g><g class="series serie-0 color-0"><path class="line reactive" d="M11.138462 479.351792 L11.138462 479.351792 11.340979 479.374179 11.543497 479.396564 11.746014 479.418944 11.948531 479.441318 12.151049 479.463684 12.353566 479.486038 12.556084 479.508380 12.758601 479.530707 12.961119 479.553017 13.163636 479.575307 13.366154 479.597576 13.568671 479.619821 13.771189 479.642040 13.973706 479.664232 14.176224 479.686393 14.378741 479.708522 14.581259 479.730617 14.783776 479.752675 14.986294 479.774695 15.188811 479.796673 15.391329 479.818609 15.593846 479.840499 15.796364 479.862343 15.998881 479.884137 16.201399 479.905879 16.403916 479.927567 16.606434 479.949200 16.808951 479.970775 17.011469 479.992289 17.213986 480.013741 17.416503 480.035129 17.619021 480.056450 17.821538 480.077702 18.024056 480.098883 18.226573 480.119991 18.429091 480.141024 18.631608 480.161980 18.834126 480.182856 19.036643 480.203651 19.239161 480.224361 19.441678 480.244986 19.644196 480.265522 19.846713 480.285969 20.049231 480.306323 20.251748 480.326582 20.454266 480.346745 20.656783 480.366808 20.859301 480.386771 21.061818 480.406631 21.264336 480.426385 21.466853 480.446032 21.669371 480.465569 21.871888 480.484994 22.074406 480.504306 22.276923 480.523501 22.479441 480.542578 22.681958 480.561535 22.884476 480.580370 23.086993 480.599079 23.289510 480.617662 23.492028 480.636116 23.694545 480.654439 23.897063 480.672629 24.099580 480.690683 24.302098 480.708600 24.504615 480.726377 24.707133 480.744012 24.909650 480.761503 25.112168 480.778848 25.314685 480.796045 25.517203 480.813091 25.719720 480.829985 25.922238 480.846724 26.124755 480.863306 26.327273 480.879729 26.529790 480.895990 26.732308 480.912089 26.934825 480.928022 27.137343 480.943787 27.339860 480.959383 27.542378 480.974807 27.744895 480.990056 27.947413 481.005129 28.149930 481.020024 28.352448 481.034739 28.554965 481.049270 28.757483 481.063617 28.960000 481.077777 29.162517 481.091748 29.365035 481.105528 29.567552 481.119114 29.770070 481.132504 29.972587 481.145697 30.175105 481.158690 30.377622 481.171481 30.580140 481.184067 30.782657 481.196448 30.985175 481.208620 31.187692 481.220581 31.390210 481.232330 31.592727 481.243863 31.795245 481.255180 31.997762 481.266277 32.200280 481.277153 32.402797 481.287805 32.605315 481.298232 32.807832 481.308431 33.010350 481.318400 33.212867 481.328137 33.415385 481.337640 33.617902 481.346906 33.820420 481.355933 34.022937 481.364720 34.225455 481.373265 34.427972 481.381564 34.630490 481.389616 34.833007 481.397418 35.035524 481.404969 35.238042 481.412267 35.440559 481.419309 35.643077 481.426093 35.845594 481.432616 36.048112 481.438878 36.250629 481.444875 36.453147 481.450606 36.655664 481.456068 36.858182 481.461260 37.060699 481.466178 37.263217 481.470821 37.465734 481.475188 37.668252 481.479274 37.870769 481.483079 38.073287 481.486601 38.275804 481.489836 38.478322 481.492784 38.680839 481.495441 38.883357 481.497807 39.085874 481.499877 39.288392 481.501652 39.490909 481.503127 39.693427 481.504301 39.895944 481.505173 40.098462 481.505739 40.300979 481.505998 40.503497 481.505948 40.706014 481.505586 40.908531 481.504910 41.111049 481.503918 41.313566 481.502608 41.516084 481.500978 41.718601 481.499025 41.921119 481.496748 42.123636 481.494144 42.326154 481.491212 42.528671 481.487948 42.731189 481.484352 42.933706 481.480420 43.136224 481.476150 43.338741 481.471541 43.541259 481.466591 43.743776 481.461296 43.946294 481.455656 44.148811 481.449667 44.351329 481.443328 44.553846 481.436636 44.756364 481.429590 44.958881 481.422188 45.161399 481.414426 45.363916 481.406303 45.566434 481.397817 45.768951 481.388965 45.971469 481.379746 46.173986 481.370158 46.376503 481.360197 46.579021 481.349863 46.781538 481.339153 46.984056 481.328064 47.186573 481.316595 47.389091 481.304743 47.591608 481.292507 47.794126 481.279883 47.996643 481.266871 48.199161 481.253468 48.401678 481.239671 48.604196 481.225479 48.806713 481.210889 49.009231 481.195900 49.211748 481.180508 49.414266 481.164713 49.616783 481.148511 49.819301 481.131901 50.021818 481.114881 50.224336 481.097448 50.426853 481.079600 50.629371 481.061335 50.831888 481.042651 51.034406 481.023546 51.236923 481.004017 51.439441 480.984063 51.641958 480.963681 51.844476 480.942870 52.046993 480.921626 52.249510 480.899948 52.452028 480.877834 52.654545 480.855282 52.857063 480.832289 53.059580 480.808853 53.262098 480.784972 53.464615 480.760644 53.667133 480.735868 53.869650 480.710639 54.072168 480.684958 54.274685 480.658820 54.477203 480.632225 54.679720 480.605170 54.882238 480.577653 55.084755 480.549672 55.287273 480.521224 55.489790 480.492308 55.692308 480.462921 55.894825 480.433061 56.097343 480.402727 56.299860 480.371915 56.502378 480.340624 56.704895 480.308851 56.907413 480.276595 57.109930 480.243853 57.312448 480.210624 57.514965 480.176904 57.717483 480.142692 57.920000 480.107986 58.122517 480.072783 58.325035 480.037082 58.527552 480.000880 58.730070 479.964175 58.932587 479.926965 59.135105 479.889248 59.337622 479.851022 59.540140 479.812284 59.742657 479.773032 59.945175 479.733265 60.147692 479.692979 60.350210 479.652174 60.552727 479.610846 60.755245 479.568994 60.957762 479.526615 61.160280 479.483708 61.362797 479.440269 61.565315 479.396298 61.767832 479.351792 61.970350 479.306750 62.172867 479.261182 62.375385 479.215098 62.577902 479.168509 62.780420 479.121426 62.982937 479.073859 63.185455 479.025819 63.387972 478.977318 63.590490 478.928364 63.793007 478.878971 63.995524 478.829147 64.198042 478.778905 64.400559 478.728254 64.603077 478.677205 64.805594 478.625770 65.008112 478.573958 65.210629 478.521781 65.413147 478.469250 65.615664 478.416375 65.818182 478.363166 66.020699 478.309635 66.223217 478.255793 66.425734 478.201649 66.628252 478.147216 66.830769 478.092503 67.033287 478.037522 67.235804 477.982282 67.438322 477.926795 67.640839 477.871072 67.843357 477.815124 68.045874 477.758960 68.248392 477.702592 68.450909 477.646031 68.653427 477.589287 68.855944 477.532371 69.058462 477.475294 69.260979 477.418067 69.463497 477.360700 69.666014 477.303204 69.868531 477.245589 70.071049 477.187868 70.273566 477.130049 70.476084 477.072145 70.678601 477.014165 70.881119 476.956121 71.083636 476.898023 71.286154 476.839882 71.488671 476.781709 71.691189 476.723515 71.893706 476.665309 72.096224 476.607104 72.298741 476.548909 72.501259 476.490736 72.703776 476.432595 72.906294 476.374497 73.108811 476.316453 73.311329 476.258474 73.513846 476.200569 73.716364 476.142751 73.918881 476.085029 74.121399 476.027415 74.323916 475.969919 74.526434 475.912551 74.728951 475.855324 74.931469 475.798247 75.133986 475.741331 75.336503 475.684587 75.539021 475.628026 75.741538 475.571658 75.944056 475.515495 76.146573 475.459546 76.349091 475.403823 76.551608 475.348336 76.754126 475.293097 76.956643 475.238115 77.159161 475.183402 77.361678 475.128969 77.564196 475.074826 77.766713 475.020983 77.969231 474.967452 78.171748 474.914244 78.374266 474.861368 78.576783 474.808837 78.779301 474.756660 78.981818 474.704849 79.184336 474.653413 79.386853 474.602365 79.589371 474.551714 79.791888 474.501471 79.994406 474.451648 80.196923 474.402254 80.399441 474.353301 80.601958 474.304799 80.804476 474.256759 81.006993 474.209193 81.209510 474.162109 81.412028 474.115520 81.614545 474.069436 81.817063 474.023868 82.019580 473.978827 82.222098 473.934322 82.424615 473.890366 82.627133 473.846969 82.829650 473.804141 83.032168 473.761893 83.234685 473.720237 83.437203 473.679182 83.639720 473.638740 83.842238 473.598920 84.044755 473.559735 84.247273 473.521195 84.449790 473.483310 84.652308 473.446092 84.854825 473.409550 85.057343 473.373697 85.259860 473.338541 85.462378 473.304095 85.664895 473.270369 85.867413 473.237374 86.069930 473.205120 86.272448 473.173618 86.474965 473.142879 86.677483 473.112914 86.880000 473.083734 87.082517 473.055348 87.285035 473.027769 87.487552 473.001006 87.690070 472.975071 87.892587 472.949974 88.095105 472.925726 88.297622 472.902337 88.500140 472.879819 88.702657 472.858182 88.905175 472.837437 89.107692 472.817595 89.310210 472.798666 89.512727 472.780661 89.715245 472.763591 89.917762 472.747467 90.120280 472.732299 90.322797 472.718098 90.525315 472.704875 90.727832 472.692641 90.930350 472.681406 91.132867 472.671181 91.335385 472.661977 91.537902 472.653805 91.740420 472.646675 91.942937 472.640598 92.145455 472.635585 92.347972 472.631647 92.550490 472.628794 92.753007 472.627037 92.955524 472.626387 93.158042 472.626854 93.360559 472.628450 93.563077 472.631185 93.765594 472.635070 93.968112 472.640115 94.170629 472.646331 94.373147 472.653730 94.575664 472.662321 94.778182 472.672116 94.980699 472.683125 95.183217 472.695360 95.385734 472.708830 95.588252 472.723546 95.790769 472.739520 95.993287 472.756762 96.195804 472.775283 96.398322 472.795093 96.600839 472.816203 96.803357 472.838624 97.005874 472.862368 97.208392 472.887443 97.410909 472.913862 97.613427 472.941635 97.815944 472.970772 98.018462 473.001286 98.220979 473.033185 98.423497 473.066481 98.626014 473.101185 98.828531 473.137308 99.031049 473.174859 99.233566 473.213851 99.436084 473.254293 99.638601 473.296197 99.841119 473.339573 100.043636 473.384432 100.246154 473.430784 100.448671 473.478641 100.651189 473.528013 100.853706 473.578912 101.056224 473.631346 101.258741 473.685328 101.461259 473.740869 101.663776 473.797978 101.866294 473.856667 102.068811 473.916946 102.271329 473.978827 102.473846 474.042319 102.676364 474.107434 102.878881 474.174182 103.081399 474.242575 103.283916 474.312622 103.486434 474.384335 103.688951 474.457724 103.891469 474.532801 104.093986 474.609575 104.296503 474.688058 104.499021 474.768260 104.701538 474.850193 104.904056 474.933866 105.106573 475.019291 105.309091 475.106478 105.511608 475.195438 105.714126 475.286182 105.916643 475.378721 106.119161 475.473064 106.321678 475.569224 106.524196 475.667211 106.726713 475.767035 106.929231 475.868708 107.131748 475.972240 107.334266 476.077641 107.536783 476.184923 107.739301 476.294096 107.941818 476.405172 108.144336 476.518160 108.346853 476.633071 108.549371 476.749917 108.751888 476.868708 108.954406 476.989455 109.156923 477.112168 109.359441 477.236858 109.561958 477.363537 109.764476 477.492214 109.966993 477.622901 110.169510 477.755607 110.372028 477.890345 110.574545 478.027125 110.777063 478.165957 110.979580 478.306852 111.182098 478.449821 111.384615 478.594875 111.587133 478.742025 111.789650 478.891280 111.992168 479.042653 112.194685 479.196153 112.397203 479.351792 112.599720 479.509571 112.802238 479.669459 113.004755 479.831414 113.207273 479.995396 113.409790 480.161363 113.612308 480.329276 113.814825 480.499093 114.017343 480.670773 114.219860 480.844276 114.422378 481.019560 114.624895 481.196585 114.827413 481.375311 115.029930 481.555695 115.232448 481.737698 115.434965 481.921278 115.637483 482.106395 115.840000 482.293008 116.042517 482.481075 116.245035 482.670557 116.447552 482.861413 116.650070 483.053600 116.852587 483.247080 117.055105 483.441810 117.257622 483.637750 117.460140 483.834859 117.662657 484.033097 117.865175 484.232422 118.067692 484.432794 118.270210 484.634172 118.472727 484.836514 118.675245 485.039781 118.877762 485.243931 119.080280 485.448924 119.282797 485.654718 119.485315 485.861273 119.687832 486.068548 119.890350 486.276502 120.092867 486.485095 120.295385 486.694285 120.497902 486.904031 120.700420 487.114294 120.902937 487.325031 121.105455 487.536203 121.307972 487.747767 121.510490 487.959685 121.713007 488.171914 121.915524 488.384413 122.118042 488.597143 122.320559 488.810062 122.523077 489.023129 122.725594 489.236303 122.928112 489.449545 123.130629 489.662811 123.333147 489.876063 123.535664 490.089259 123.738182 490.302359 123.940699 490.515320 124.143217 490.728104 124.345734 490.940668 124.548252 491.152972 124.750769 491.364975 124.953287 491.576637 125.155804 491.787916 125.358322 491.998771 125.560839 492.209163 125.763357 492.419049 125.965874 492.628389 126.168392 492.837143 126.370909 493.045269 126.573427 493.252727 126.775944 493.459475 126.978462 493.665474 127.180979 493.870681 127.383497 494.075057 127.586014 494.278560 127.788531 494.481150 127.991049 494.682786 128.193566 494.883426 128.396084 495.083031 128.598601 495.281558 128.801119 495.478969 129.003636 495.675221 129.206154 495.870273 129.408671 496.064086 129.611189 496.256617 129.813706 496.447827 130.016224 496.637674 130.218741 496.826118 130.421259 497.013118 130.623776 497.198632 130.826294 497.382621 131.028811 497.565043 131.231329 497.745857 131.433846 497.925023 131.636364 498.102499 131.838881 498.278246 132.041399 498.452221 132.243916 498.624385 132.446434 498.794696 132.648951 498.963114 132.851469 499.129598 133.053986 499.294106 133.256503 499.456598 133.459021 499.617034 133.661538 499.775372 133.864056 499.931572 134.066573 500.085592 134.269091 500.237392 134.471608 500.386932 134.674126 500.534169 134.876643 500.679064 135.079161 500.821575 135.281678 500.961663 135.484196 501.099285 135.686713 501.234401 135.889231 501.366970 136.091748 501.496952 136.294266 501.624305 136.496783 501.748989 136.699301 501.870963 136.901818 501.990186 137.104336 502.106617 137.306853 502.220215 137.509371 502.330940 137.711888 502.438751 137.914406 502.543606 138.116923 502.645466 138.319441 502.744289 138.521958 502.840034 138.724476 502.932661 138.926993 503.022128 139.129510 503.108395 139.332028 503.191422 139.534545 503.271166 139.737063 503.347588 139.939580 503.420646 140.142098 503.490300 140.344615 503.556509 140.547133 503.619232 140.749650 503.678428 140.952168 503.734057 141.154685 503.786077 141.357203 503.834447 141.559720 503.879128 141.762238 503.920077 141.964755 503.957255 142.167273 503.990620 142.369790 504.020132 142.572308 504.045749 142.774825 504.067431 142.977343 504.085137 143.179860 504.098826 143.382378 504.108458 143.584895 504.113991 143.787413 504.115385 143.989930 504.112598 144.192448 504.105591 144.394965 504.094322 144.597483 504.078750 144.800000 504.058834 145.002517 504.034534 145.205035 504.005809 145.407552 503.972618 145.610070 503.934921 145.812587 503.892675 146.015105 503.845841 146.217622 503.794378 146.420140 503.738244 146.622657 503.677400 146.825175 503.611803 147.027692 503.541414 147.230210 503.466192 147.432727 503.386095 147.635245 503.301083 147.837762 503.211115 148.040280 503.116150 148.242797 503.016147 148.445315 502.911066 148.647832 502.800865 148.850350 502.685504 149.052867 502.564942 149.255385 502.439139 149.457902 502.308052 149.660420 502.171643 149.862937 502.029868 150.065455 501.882689 150.267972 501.730063 150.470490 501.571951 150.673007 501.408311 150.875524 501.239102 151.078042 501.064284 151.280559 500.883816 151.483077 500.697657 151.685594 500.505765 151.888112 500.308102 152.090629 500.104624 152.293147 499.895292 152.495664 499.680065 152.698182 499.458902 152.900699 499.231762 153.103217 498.998605 153.305734 498.759388 153.508252 498.514073 153.710769 498.262617 153.913287 498.004980 154.115804 497.741121 154.318322 497.471000 154.520839 497.194575 154.723357 496.911805 154.925874 496.622651 155.128392 496.327070 155.330909 496.025022 155.533427 495.716467 155.735944 495.401363 155.938462 495.079669 156.140979 494.751346 156.343497 494.416351 156.546014 494.074644 156.748531 493.726185 156.951049 493.370932 157.153566 493.008845 157.356084 492.639882 157.558601 492.264004 157.761119 491.881168 157.963636 491.491335 158.166154 491.094463 158.368671 490.690511 158.571189 490.279440 158.773706 489.861207 158.976224 489.435773 159.178741 489.003095 159.381259 488.563134 159.583776 488.115849 159.786294 487.661198 159.988811 487.199141 160.191329 486.729638 160.393846 486.252646 160.596364 485.768126 160.798881 485.276037 161.001399 484.776337 161.203916 484.268986 161.406434 483.753944 161.608951 483.231168 161.811469 482.700619 162.013986 482.162255 162.216503 481.616037 162.419021 481.061922 162.621538 480.499870 162.824056 479.929840 163.026573 479.351792 163.229091 478.765698 163.431608 478.171589 163.634126 477.569508 163.836643 476.959499 164.039161 476.341607 164.241678 475.715875 164.444196 475.082346 164.646713 474.441065 164.849231 473.792076 165.051748 473.135423 165.254266 472.471148 165.456783 471.799298 165.659301 471.119914 165.861818 470.433042 166.064336 469.738725 166.266853 469.037006 166.469371 468.327931 166.671888 467.611542 166.874406 466.887884 167.076923 466.157000 167.279441 465.418935 167.481958 464.673732 167.684476 463.921435 167.886993 463.162088 168.089510 462.395735 168.292028 461.622420 168.494545 460.842187 168.697063 460.055079 168.899580 459.261141 169.102098 458.460417 169.304615 457.652949 169.507133 456.838783 169.709650 456.017962 169.912168 455.190530 170.114685 454.356530 170.317203 453.516008 170.519720 452.669006 170.722238 451.815569 170.924755 450.955740 171.127273 450.089563 171.329790 449.217083 171.532308 448.338343 171.734825 447.453386 171.937343 446.562258 172.139860 445.665001 172.342378 444.761661 172.544895 443.852279 172.747413 442.936901 172.949930 442.015571 173.152448 441.088332 173.354965 440.155228 173.557483 439.216302 173.760000 438.271600 173.962517 437.321165 174.165035 436.365040 174.367552 435.403270 174.570070 434.435899 174.772587 433.462969 174.975105 432.484527 175.177622 431.500614 175.380140 430.511275 175.582657 429.516554 175.785175 428.516495 175.987692 427.511142 176.190210 426.500539 176.392727 425.484729 176.595245 424.463756 176.797762 423.437665 177.000280 422.406498 177.202797 421.370301 177.405315 420.329117 177.607832 419.282990 177.810350 418.231963 178.012867 417.176081 178.215385 416.115388 178.417902 415.049927 178.620420 413.979743 178.822937 412.904878 179.025455 411.825378 179.227972 410.741286 179.430490 409.652645 179.633007 408.559501 179.835524 407.461896 180.038042 406.359874 180.240559 405.253480 180.443077 404.142758 180.645594 403.027751 180.848112 401.908502 181.050629 400.785057 181.253147 399.657459 181.455664 398.525751 181.658182 397.389979 181.860699 396.250184 182.063217 395.106413 182.265734 393.958707 182.468252 392.807112 182.670769 391.651671 182.873287 390.492428 183.075804 389.329427 183.278322 388.162712 183.480839 386.992327 183.683357 385.818315 183.885874 384.640721 184.088392 383.459588 184.290909 382.274960 184.493427 381.086882 184.695944 379.895396 184.898462 378.700548 185.100979 377.502381 185.303497 376.300938 185.506014 375.096264 185.708531 373.888402 185.911049 372.677397 186.113566 371.463292 186.316084 370.246131 186.518601 369.025959 186.721119 367.802818 186.923636 366.576753 187.126154 365.347808 187.328671 364.116027 187.531189 362.881453 187.733706 361.644131 187.936224 360.404104 188.138741 359.161416 188.341259 357.916111 188.543776 356.668234 188.746294 355.417827 188.948811 354.164935 189.151329 352.909602 189.353846 351.651871 189.556364 350.391787 189.758881 349.129393 189.961399 347.864734 190.163916 346.597852 190.366434 345.328793 190.568951 344.057600 190.771469 342.784316 190.973986 341.508986 191.176503 340.231654 191.379021 338.952363 191.581538 337.671158 191.784056 336.388081 191.986573 335.103178 192.189091 333.816493 192.391608 332.528068 192.594126 331.237947 192.796643 329.946176 192.999161 328.652797 193.201678 327.357855 193.404196 326.061393 193.606713 324.763456 193.809231 323.464086 194.011748 322.163329 194.214266 320.861228 194.416783 319.557827 194.619301 318.253169 194.821818 316.947299 195.024336 315.640261 195.226853 314.332098 195.429371 313.022854 195.631888 311.712574 195.834406 310.401300 196.036923 309.089078 196.239441 307.775950 196.441958 306.461962 196.644476 305.147156 196.846993 303.831577 197.049510 302.515268 197.252028 301.198273 197.454545 299.880637 197.657063 298.562403 197.859580 297.243614 198.062098 295.924316 198.264615 294.604552 198.467133 293.284365 198.669650 291.963800 198.872168 290.642900 199.074685 289.321710 199.277203 288.000273 199.479720 286.678633 199.682238 285.356834 199.884755 284.034921 200.087273 282.712936 200.289790 281.390923 200.492308 280.068928 200.694825 278.746993 200.897343 277.425162 201.099860 276.103480 201.302378 274.781989 201.504895 273.460735 201.707413 272.139761 201.909930 270.819111 202.112448 269.498828 202.314965 268.178957 202.517483 266.859542 202.720000 265.540626 202.922517 264.222253 203.125035 262.904468 203.327552 261.587314 203.530070 260.270834 203.732587 258.955074 203.935105 257.640076 204.137622 256.325885 204.340140 255.012545 204.542657 253.700099 204.745175 252.388591 204.947692 251.078066 205.150210 249.768567 205.352727 248.460137 205.555245 247.152822 205.757762 245.846665 205.960280 244.541709 206.162797 243.237999 206.365315 241.935578 206.567832 240.634490 206.770350 239.334780 206.972867 238.036491 207.175385 236.739667 207.377902 235.444353 207.580420 234.150590 207.782937 232.858425 207.985455 231.567900 208.187972 230.279060 208.390490 228.991948 208.593007 227.706608 208.795524 226.423085 208.998042 225.141422 209.200559 223.861662 209.403077 222.583851 209.605594 221.308031 209.808112 220.034247 210.010629 218.762542 210.213147 217.492961 210.415664 216.225547 210.618182 214.960344 210.820699 213.697397 211.023217 212.436748 211.225734 211.178442 211.428252 209.922523 211.630769 208.669035 211.833287 207.418021 212.035804 206.169526 212.238322 204.923593 212.440839 203.680266 212.643357 202.439590 212.845874 201.201607 213.048392 199.966363 213.250909 198.733900 213.453427 197.504262 213.655944 196.277495 213.858462 195.053635 214.060979 193.832701 214.263497 192.614703 214.466014 191.399655 214.668531 190.187566 214.871049 188.978449 215.073566 187.772316 215.276084 186.569178 215.478601 185.369047 215.681119 184.171935 215.883636 182.977854 216.086154 181.786814 216.288671 180.598829 216.491189 179.413908 216.693706 178.232065 216.896224 177.053311 217.098741 175.877657 217.301259 174.705116 217.503776 173.535699 217.706294 172.369417 217.908811 171.206283 218.111329 170.046307 218.313846 168.889503 218.516364 167.735881 218.718881 166.585453 218.921399 165.438230 219.123916 164.294226 219.326434 163.153450 219.528951 162.015916 219.731469 160.881634 219.933986 159.750616 220.136503 158.622874 220.339021 157.498420 220.541538 156.377265 220.744056 155.259422 220.946573 154.144901 221.149091 153.033714 221.351608 151.925874 221.554126 150.821392 221.756643 149.720279 221.959161 148.622547 222.161678 147.528208 222.364196 146.437274 222.566713 145.349756 222.769231 144.265666 222.971748 143.185016 223.174266 142.107817 223.376783 141.034082 223.579301 139.963821 223.781818 138.897046 223.984336 137.833770 224.186853 136.774004 224.389371 135.717759 224.591888 134.665047 224.794406 133.615880 224.996923 132.570270 225.199441 131.528229 225.401958 130.489767 225.604476 129.454897 225.806993 128.423630 226.009510 127.395979 226.212028 126.371954 226.414545 125.351568 226.617063 124.334832 226.819580 123.321758 227.022098 122.312357 227.224615 121.306642 227.427133 120.304623 227.629650 119.306314 227.832168 118.311724 228.034685 117.320867 228.237203 116.333753 228.439720 115.350395 228.642238 114.370804 228.844755 113.394992 229.047273 112.422970 229.249790 111.454751 229.452308 110.490345 229.654825 109.529765 229.857343 108.573023 230.059860 107.620129 230.262378 106.671096 230.464895 105.725935 230.667413 104.784658 230.869930 103.847277 231.072448 102.913804 231.274965 101.984250 231.477483 101.058626 231.680000 100.136945 231.882517 99.219219 232.085035 98.305458 232.287552 97.395675 232.490070 96.489881 232.692587 95.588088 232.895105 94.690308 233.097622 93.796552 233.300140 92.906832 233.502657 92.021160 233.705175 91.139548 233.907692 90.262006 234.110210 89.388548 234.312727 88.519184 234.515245 87.653926 234.717762 86.792786 234.920280 85.935776 235.122797 85.082907 235.325315 84.234192 235.527832 83.389641 235.730350 82.549266 235.932867 81.713079 236.135385 80.881093 236.337902 80.053317 236.540420 79.229765 236.742937 78.410448 236.945455 77.595377 237.147972 76.784565 237.350490 75.978023 237.553007 75.175762 237.755524 74.377794 237.958042 73.584132 238.160559 72.794786 238.363077 72.009769 238.565594 71.229092 238.768112 70.452767 238.970629 69.680805 239.173147 68.913218 239.375664 68.150019 239.578182 67.391217 239.780699 66.636827 239.983217 65.886858 240.185734 65.141323 240.388252 64.400233 240.590769 63.663600 240.793287 62.931436 240.995804 62.203752 241.198322 61.480561 241.400839 60.761873 241.603357 60.047701 241.805874 59.338056 242.008392 58.632950 242.210909 57.932395 242.413427 57.236402 242.615944 56.544983 242.818462 55.858150 243.020979 55.175914 243.223497 54.498287 243.426014 53.825281 243.628531 53.156907 243.831049 52.493178 244.033566 51.834104 244.236084 51.179698 244.438601 50.529971 244.641119 49.884935 244.843636 49.244602 245.046154 48.608983 245.248671 47.978090 245.451189 47.351935 245.653706 46.730529 245.856224 46.113884 246.058741 45.502012 246.261259 44.894925 246.463776 44.292634 246.666294 43.695150 246.868811 43.102486 247.071329 42.514654 247.273846 41.931664 247.476364 41.353529 247.678881 40.780261 247.881399 40.211870 248.083916 39.648369 248.286434 39.089770 248.488951 38.536083 248.691469 37.987322 248.893986 37.443497 249.096503 36.904620 249.299021 36.370703 249.501538 35.841758 249.704056 35.317796 249.906573 34.798829 250.109091 34.284868 250.311608 33.775926 250.514126 33.272014 250.716643 32.773144 250.919161 32.279327 251.121678 31.790576 251.324196 31.306901 251.526713 30.828314 251.729231 30.354828 251.931748 29.886454 252.134266 29.423204 252.336783 28.965088 252.539301 28.512120 252.741818 28.064311 252.944336 27.621671 253.146853 27.184214 253.349371 26.751951 253.551888 26.324893 253.754406 25.903052 253.956923 25.486440 254.159441 25.075069 254.361958 24.668950 254.564476 24.268095 254.766993 23.872515 254.969510 23.482223 255.172028 23.097230 255.374545 22.717547 255.577063 22.343187 255.779580 21.974161 255.982098 21.610481 256.184615 21.252158 256.387133 20.899205 256.589650 20.551632 256.792168 20.209452 256.994685 19.872676 257.197203 19.541316 257.399720 19.215384 257.602238 18.894891 257.804755 18.579849 258.007273 18.270270 258.209790 17.966165 258.412308 17.667547 258.614825 17.374426 258.817343 17.086814 259.019860 16.804724 259.222378 16.528167 259.424895 16.257154 259.627413 15.991698 259.829930 15.731810 260.032448 15.477501 260.234965 15.228784 260.437483 14.985669 260.640000 14.748170 260.842517 14.516297 261.045035 14.290062 261.247552 14.069476 261.450070 13.854553 261.652587 13.645302 261.855105 13.441737 262.057622 13.243868 262.260140 13.051707 262.462657 12.865267 262.665175 12.684558 262.867692 12.509592 263.070210 12.340382 263.272727 12.176938 263.475245 12.019273 263.677762 11.867398 263.880280 11.721325 264.082797 11.581065 264.285315 11.446630 264.487832 11.318025 264.690350 11.195218 264.892867 11.078174 265.095385 10.966853 265.297902 10.861219 265.500420 10.761234 265.702937 10.666860 265.905455 10.578060 266.107972 10.494797 266.310490 10.417032 266.513007 10.344727 266.715524 10.277846 266.918042 10.216351 267.120559 10.160205 267.323077 10.109368 267.525594 10.063805 267.728112 10.023477 267.930629 9.988347 268.133147 9.958377 268.335664 9.933530 268.538182 9.913768 268.740699 9.899053 268.943217 9.889348 269.145734 9.884615 269.348252 9.884817 269.550769 9.889916 269.753287 9.899875 269.955804 9.914655 270.158322 9.934219 270.360839 9.958531 270.563357 9.987551 270.765874 10.021242 270.968392 10.059568 271.170909 10.102490 271.373427 10.149970 271.575944 10.201972 271.778462 10.258457 271.980979 10.319388 272.183497 10.384727 272.386014 10.454437 272.588531 10.528480 272.791049 10.606819 272.993566 10.689415 273.196084 10.776232 273.398601 10.867232 273.601119 10.962377 273.803636 11.061629 274.006154 11.164951 274.208671 11.272305 274.411189 11.383655 274.613706 11.498961 274.816224 11.618187 275.018741 11.741295 275.221259 11.868247 275.423776 11.999006 275.626294 12.133535 275.828811 12.271794 276.031329 12.413748 276.233846 12.559358 276.436364 12.708587 276.638881 12.861397 276.841399 13.017751 277.043916 13.177611 277.246434 13.340939 277.448951 13.507698 277.651469 13.677850 277.853986 13.851358 278.056503 14.028184 278.259021 14.208290 278.461538 14.391639 278.664056 14.578194 278.866573 14.767916 279.069091 14.960768 279.271608 15.156712 279.474126 15.355712 279.676643 15.557728 279.879161 15.762725 280.081678 15.970663 280.284196 16.181506 280.486713 16.395216 280.689231 16.611755 280.891748 16.831085 281.094266 17.053170 281.296783 17.277971 281.499301 17.505451 281.701818 17.735573 281.904336 17.968298 282.106853 18.203589 282.309371 18.441409 282.511888 18.681720 282.714406 18.924484 282.916923 19.169664 283.119441 19.417222 283.321958 19.667120 283.524476 19.919322 283.726993 20.173789 283.929510 20.430483 284.132028 20.689368 284.334545 20.950405 284.537063 21.213557 284.739580 21.478787 284.942098 21.746056 285.144615 22.015328 285.347133 22.286564 285.549650 22.559727 285.752168 22.834780 285.954685 23.111684 286.157203 23.390403 286.359720 23.670898 286.562238 23.953132 286.764755 24.237068 286.967273 24.522667 287.169790 24.809893 287.372308 25.098707 287.574825 25.389072 287.777343 25.680951 287.979860 25.974305 288.182378 26.269098 288.384895 26.565292 288.587413 26.862848 288.789930 27.161730 288.992448 27.461900 289.194965 27.763320 289.397483 28.065953 289.600000 28.369761 289.802517 28.674706 290.005035 28.980751 290.207552 29.287859 290.410070 29.595991 290.612587 29.905110 290.815105 30.215179 291.017622 30.526160 291.220140 30.838015 291.422657 31.150707 291.625175 31.464198 291.827692 31.778450 292.030210 32.093427 292.232727 32.409089 292.435245 32.725401 292.637762 33.042323 292.840280 33.359819 293.042797 33.677851 293.245315 33.996382 293.447832 34.315373 293.650350 34.634787 293.852867 34.954587 294.055385 35.274735 294.257902 35.595194 294.460420 35.915925 294.662937 36.236891 294.865455 36.558055 295.067972 36.879379 295.270490 37.200825 295.473007 37.522356 295.675524 37.843934 295.878042 38.165522 296.080559 38.487082 296.283077 38.808576 296.485594 39.129968 296.688112 39.451218 296.890629 39.772290 297.093147 40.093146 297.295664 40.413749 297.498182 40.734060 297.700699 41.054043 297.903217 41.373659 298.105734 41.692871 298.308252 42.011642 298.510769 42.329934 298.713287 42.647709 298.915804 42.964929 299.118322 43.281558 299.320839 43.597557 299.523357 43.912890 299.725874 44.227517 299.928392 44.541402 300.130909 44.854507 300.333427 45.166795 300.535944 45.478228 300.738462 45.788768 300.940979 46.098377 301.143497 46.407019 301.346014 46.714656 301.548531 47.021249 301.751049 47.326762 301.953566 47.631156 302.156084 47.934395 302.358601 48.236440 302.561119 48.537254 302.763636 48.836799 302.966154 49.135039 303.168671 49.431934 303.371189 49.727448 303.573706 50.021543 303.776224 50.314181 303.978741 50.605325 304.181259 50.894938 304.383776 51.182981 304.586294 51.469417 304.788811 51.754208 304.991329 52.037317 305.193846 52.318706 305.396364 52.598339 305.598881 52.876176 305.801399 53.152180 306.003916 53.426314 306.206434 53.698541 306.408951 53.968822 306.611469 54.237120 306.813986 54.503398 307.016503 54.767618 307.219021 55.029741 307.421538 55.289732 307.624056 55.547551 307.826573 55.803162 308.029091 56.056527 308.231608 56.307609 308.434126 56.556368 308.636643 56.802769 308.839161 57.046774 309.041678 57.288344 309.244196 57.527443 309.446713 57.764032 309.649231 57.998075 309.851748 58.229533 310.054266 58.458369 310.256783 58.684545 310.459301 58.908024 310.661818 59.128768 310.864336 59.346740 311.066853 59.561902 311.269371 59.774216 311.471888 59.983645 311.674406 60.190150 311.876923 60.393696 312.079441 60.594243 312.281958 60.791755 312.484476 60.986194 312.686993 61.177522 312.889510 61.365701 313.092028 61.550694 313.294545 61.732464 313.497063 61.910973 313.699580 62.086182 313.902098 62.258056 314.104615 62.426555 314.307133 62.591643 314.509650 62.753282 314.712168 62.911433 314.914685 63.066061 315.117203 63.217137 315.319720 63.364674 315.522238 63.508697 315.724755 63.649228 315.927273 63.786292 316.129790 63.919912 316.332308 64.050111 316.534825 64.176914 316.737343 64.300343 316.939860 64.420423 317.142378 64.537177 317.344895 64.650628 317.547413 64.760800 317.749930 64.867717 317.952448 64.971403 318.154965 65.071881 318.357483 65.169174 318.560000 65.263306 318.762517 65.354301 318.965035 65.442182 319.167552 65.526973 319.370070 65.608698 319.572587 65.687379 319.775105 65.763042 319.977622 65.835709 320.180140 65.905403 320.382657 65.972149 320.585175 66.035970 320.787692 66.096890 320.990210 66.154932 321.192727 66.210120 321.395245 66.262477 321.597762 66.312028 321.800280 66.358795 322.002797 66.402802 322.205315 66.444073 322.407832 66.482632 322.610350 66.518501 322.812867 66.551705 323.015385 66.582267 323.217902 66.610212 323.420420 66.635561 323.622937 66.658339 323.825455 66.678570 324.027972 66.696278 324.230490 66.711484 324.433007 66.724215 324.635524 66.734492 324.838042 66.742340 325.040559 66.747781 325.243077 66.750841 325.445594 66.751542 325.648112 66.749908 325.850629 66.745962 326.053147 66.739729 326.255664 66.731231 326.458182 66.720492 326.660699 66.707536 326.863217 66.692387 327.065734 66.675068 327.268252 66.655603 327.470769 66.634014 327.673287 66.610327 327.875804 66.584564 328.078322 66.556749 328.280839 66.526906 328.483357 66.495058 328.685874 66.461229 328.888392 66.425442 329.090909 66.387721 329.293427 66.348090 329.495944 66.306572 329.698462 66.263191 329.900979 66.217970 330.103497 66.170933 330.306014 66.122104 330.508531 66.071506 330.711049 66.019162 330.913566 65.965097 331.116084 65.909334 331.318601 65.851897 331.521119 65.792808 331.723636 65.732093 331.926154 65.669773 332.128671 65.605874 332.331189 65.540418 332.533706 65.473429 332.736224 65.404931 332.938741 65.334947 333.141259 65.263501 333.343776 65.190617 333.546294 65.116317 333.748811 65.040627 333.951329 64.963568 334.153846 64.885166 334.356364 64.805442 334.558881 64.724422 334.761399 64.642129 334.963916 64.558586 335.166434 64.473816 335.368951 64.387844 335.571469 64.300693 335.773986 64.212387 335.976503 64.122948 336.179021 64.032402 336.381538 63.940771 336.584056 63.848079 336.786573 63.754349 336.989091 63.659606 337.191608 63.563873 337.394126 63.467172 337.596643 63.369529 337.799161 63.270966 338.001678 63.171508 338.204196 63.071177 338.406713 62.969997 338.609231 62.867993 338.811748 62.765187 339.014266 62.661603 339.216783 62.557264 339.419301 62.452195 339.621818 62.346419 339.824336 62.239960 340.026853 62.132840 340.229371 62.025084 340.431888 61.916716 340.634406 61.807758 340.836923 61.698234 341.039441 61.588169 341.241958 61.477586 341.444476 61.366507 341.646993 61.254958 341.849510 61.142960 342.052028 61.030539 342.254545 60.917718 342.457063 60.804519 342.659580 60.690968 342.862098 60.577086 343.064615 60.462899 343.267133 60.348430 343.469650 60.233701 343.672168 60.118737 343.874685 60.003562 344.077203 59.888199 344.279720 59.772671 344.482238 59.657002 344.684755 59.541216 344.887273 59.425336 345.089790 59.309387 345.292308 59.193390 345.494825 59.077371 345.697343 58.961353 345.899860 58.845359 346.102378 58.729413 346.304895 58.613538 346.507413 58.497758 346.709930 58.382097 346.912448 58.266578 347.114965 58.151225 347.317483 58.036062 347.520000 57.921112 347.722517 57.806398 347.925035 57.691944 348.127552 57.577775 348.330070 57.463912 348.532587 57.350381 348.735105 57.237204 348.937622 57.124406 349.140140 57.012009 349.342657 56.900038 349.545175 56.788516 349.747692 56.677466 349.950210 56.566912 350.152727 56.456878 350.355245 56.347388 350.557762 56.238465 350.760280 56.130132 350.962797 56.022413 351.165315 55.915332 351.367832 55.808912 351.570350 55.703177 351.772867 55.598151 351.975385 55.493857 352.177902 55.390318 352.380420 55.287559 352.582937 55.185603 352.785455 55.084473 352.987972 54.984193 353.190490 54.884787 353.393007 54.786278 353.595524 54.688690 353.798042 54.592047 354.000559 54.496371 354.203077 54.401687 354.405594 54.308019 354.608112 54.215389 354.810629 54.123822 355.013147 54.033340 355.215664 53.943969 355.418182 53.855730 355.620699 53.768648 355.823217 53.682747 356.025734 53.598050 356.228252 53.514580 356.430769 53.432361 356.633287 53.351417 356.835804 53.271772 357.038322 53.193449 357.240839 53.116471 357.443357 53.040862 357.645874 52.966646 357.848392 52.893846 358.050909 52.822486 358.253427 52.752590 358.455944 52.684180 358.658462 52.617282 358.860979 52.551918 359.063497 52.488111 359.266014 52.425887 359.468531 52.365267 359.671049 52.306276 359.873566 52.248937 360.076084 52.193274 360.278601 52.139310 360.481119 52.087070 360.683636 52.036576 360.886154 51.987852 361.088671 51.940923 361.291189 51.895810 361.493706 51.852539 361.696224 51.811132 361.898741 51.771614 362.101259 51.734007 362.303776 51.698336 362.506294 51.664623 362.708811 51.632894 362.911329 51.603170 363.113846 51.575476 363.316364 51.549836 363.518881 51.526272 363.721399 51.504809 363.923916 51.485471 364.126434 51.468280 364.328951 51.453260 364.531469 51.440435 364.733986 51.429829 364.936503 51.421464 365.139021 51.415366 365.341538 51.411557 365.544056 51.410061 365.746573 51.410894 365.949091 51.414048 366.151608 51.419505 366.354126 51.427249 366.556643 51.437263 366.759161 51.449532 366.961678 51.464038 367.164196 51.480765 367.366713 51.499696 367.569231 51.520816 367.771748 51.544107 367.974266 51.569553 368.176783 51.597137 368.379301 51.626844 368.581818 51.658656 368.784336 51.692558 368.986853 51.728531 369.189371 51.766561 369.391888 51.806630 369.594406 51.848723 369.796923 51.892822 369.999441 51.938911 370.201958 51.986974 370.404476 52.036993 370.606993 52.088953 370.809510 52.142838 371.012028 52.198630 371.214545 52.256313 371.417063 52.315870 371.619580 52.377286 371.822098 52.440543 372.024615 52.505625 372.227133 52.572516 372.429650 52.641199 372.632168 52.711658 372.834685 52.783876 373.037203 52.857836 373.239720 52.933523 373.442238 53.010919 373.644755 53.090008 373.847273 53.170774 374.049790 53.253200 374.252308 53.337269 374.454825 53.422966 374.657343 53.510273 374.859860 53.599175 375.062378 53.689654 375.264895 53.781695 375.467413 53.875279 375.669930 53.970393 375.872448 54.067017 376.074965 54.165137 376.277483 54.264736 376.480000 54.365797 376.682517 54.468303 376.885035 54.572239 377.087552 54.677587 377.290070 54.784332 377.492587 54.892456 377.695105 55.001944 377.897622 55.112778 378.100140 55.224942 378.302657 55.338420 378.505175 55.453195 378.707692 55.569251 378.910210 55.686571 379.112727 55.805139 379.315245 55.924938 379.517762 56.045952 379.720280 56.168164 379.922797 56.291558 380.125315 56.416117 380.327832 56.541825 380.530350 56.668665 380.732867 56.796620 380.935385 56.925675 381.137902 57.055813 381.340420 57.187017 381.542937 57.319271 381.745455 57.452558 381.947972 57.586862 382.150490 57.722166 382.353007 57.858453 382.555524 57.995708 382.758042 58.133914 382.960559 58.273055 383.163077 58.413112 383.365594 58.554072 383.568112 58.695916 383.770629 58.838628 383.973147 58.982192 384.175664 59.126592 384.378182 59.271810 384.580699 59.417830 384.783217 59.564637 384.985734 59.712213 385.188252 59.860541 385.390769 60.009606 385.593287 60.159391 385.795804 60.309879 385.998322 60.461053 386.200839 60.612899 386.403357 60.765398 386.605874 60.918534 386.808392 61.072291 387.010909 61.226653 387.213427 61.381602 387.415944 61.537123 387.618462 61.693199 387.820979 61.849813 388.023497 62.006949 388.226014 62.164590 388.428531 62.322720 388.631049 62.481323 388.833566 62.640381 389.036084 62.799879 389.238601 62.959799 389.441119 63.120127 389.643636 63.280844 389.846154 63.441934 390.048671 63.603381 390.251189 63.765169 390.453706 63.927281 390.656224 64.089700 390.858741 64.252410 391.061259 64.415394 391.263776 64.578636 391.466294 64.742120 391.668811 64.905829 391.871329 65.069746 392.073846 65.233855 392.276364 65.398139 392.478881 65.562583 392.681399 65.727169 392.883916 65.891881 393.086434 66.056702 393.288951 66.221616 393.491469 66.386607 393.693986 66.551658 393.896503 66.716752 394.099021 66.881873 394.301538 67.047005 394.504056 67.212130 394.706573 67.377234 394.909091 67.542298 395.111608 67.707306 395.314126 67.872243 395.516643 68.037091 395.719161 68.201834 395.921678 68.366456 396.124196 68.530939 396.326713 68.695268 396.529231 68.859427 396.731748 69.023397 396.934266 69.187164 397.136783 69.350710 397.339301 69.514019 397.541818 69.677075 397.744336 69.839861 397.946853 70.002361 398.149371 70.164557 398.351888 70.326434 398.554406 70.487975 398.756923 70.649164 398.959441 70.809983 399.161958 70.970417 399.364476 71.130450 399.566993 71.290064 399.769510 71.449242 399.972028 71.607970 400.174545 71.766230 400.377063 71.924005 400.579580 72.081279 400.782098 72.238036 400.984615 72.394259 401.187133 72.549931 401.389650 72.705037 401.592168 72.859559 401.794685 73.013482 401.997203 73.166788 402.199720 73.319461 402.402238 73.471484 402.604755 73.622842 402.807273 73.773518 403.009790 73.923494 403.212308 74.072756 403.414825 74.221285 403.617343 74.369066 403.819860 74.516082 404.022378 74.662317 404.224895 74.807754 404.427413 74.952377 404.629930 75.096168 404.832448 75.239113 405.034965 75.381193 405.237483 75.522394 405.440000 75.662697 405.642517 75.802087 405.845035 75.940547 406.047552 76.078061 406.250070 76.214613 406.452587 76.350184 406.655105 76.484760 406.857622 76.618324 407.060140 76.750859 407.262657 76.882349 407.465175 77.012777 407.667692 77.142126 407.870210 77.270381 408.072727 77.397524 408.275245 77.523540 408.477762 77.648412 408.680280 77.772122 408.882797 77.894656 409.085315 78.015995 409.287832 78.136125 409.490350 78.255027 409.692867 78.372687 409.895385 78.489086 410.097902 78.604210 410.300420 78.718040 410.502937 78.830562 410.705455 78.941757 410.907972 79.051611 411.110490 79.160105 411.313007 79.267225 411.515524 79.372953 411.718042 79.477272 411.920559 79.580167 412.123077 79.681621 412.325594 79.781616 412.528112 79.880138 412.730629 79.977169 412.933147 80.072693 413.135664 80.166693 413.338182 80.259153 413.540699 80.350056 413.743217 80.439386 413.945734 80.527126 414.148252 80.613261 414.350769 80.697772 414.553287 80.780644 414.755804 80.861861 414.958322 80.941405 415.160839 81.019261 415.363357 81.095412 415.565874 81.169841 415.768392 81.242532 415.970909 81.313468 416.173427 81.382633 416.375944 81.450015 416.578462 81.515618 416.780979 81.579452 416.983497 81.641526 417.186014 81.701848 417.388531 81.760429 417.591049 81.817277 417.793566 81.872401 417.996084 81.925811 418.198601 81.977515 418.401119 82.027523 418.603636 82.075844 418.806154 82.122488 419.008671 82.167462 419.211189 82.210777 419.413706 82.252441 419.616224 82.292464 419.818741 82.330855 420.021259 82.367622 420.223776 82.402776 420.426294 82.436325 420.628811 82.468278 420.831329 82.498645 421.033846 82.527434 421.236364 82.554655 421.438881 82.580317 421.641399 82.604430 421.843916 82.627001 422.046434 82.648041 422.248951 82.667558 422.451469 82.685562 422.653986 82.702061 422.856503 82.717066 423.059021 82.730585 423.261538 82.742627 423.464056 82.753201 423.666573 82.762317 423.869091 82.769983 424.071608 82.776209 424.274126 82.781004 424.476643 82.784377 424.679161 82.786338 424.881678 82.786894 425.084196 82.786056 425.286713 82.783833 425.489231 82.780234 425.691748 82.775267 425.894266 82.768943 426.096783 82.761270 426.299301 82.752257 426.501818 82.741913 426.704336 82.730249 426.906853 82.717272 427.109371 82.702992 427.311888 82.687418 427.514406 82.670559 427.716923 82.652425 427.919441 82.633024 428.121958 82.612365 428.324476 82.590459 428.526993 82.567313 428.729510 82.542938 428.932028 82.517341 429.134545 82.490533 429.337063 82.462523 429.539580 82.433319 429.742098 82.402931 429.944615 82.371368 430.147133 82.338639 430.349650 82.304753 430.552168 82.269719 430.754685 82.233547 430.957203 82.196246 431.159720 82.157824 431.362238 82.118291 431.564755 82.077656 431.767273 82.035929 431.969790 81.993118 432.172308 81.949232 432.374825 81.904281 432.577343 81.858274 432.779860 81.811220 432.982378 81.763127 433.184895 81.714006 433.387413 81.663865 433.589930 81.612714 433.792448 81.560561 433.994965 81.507417 434.197483 81.453289 434.400000 81.398187 434.602517 81.342120 434.805035 81.285098 435.007552 81.227129 435.210070 81.168222 435.412587 81.108388 435.615105 81.047634 435.817622 80.985971 436.020140 80.923406 436.222657 80.859950 436.425175 80.795612 436.627692 80.730400 436.830210 80.664324 437.032727 80.597393 437.235245 80.529616 437.437762 80.461002 437.640280 80.391560 437.842797 80.321300 438.045315 80.250230 438.247832 80.178361 438.450350 80.105700 438.652867 80.032257 438.855385 79.958041 439.057902 79.883062 439.260420 79.807328 439.462937 79.730849 439.665455 79.653634 439.867972 79.575691 440.070490 79.497031 440.273007 79.417661 440.475524 79.337592 440.678042 79.256833 440.880559 79.175392 441.083077 79.093279 441.285594 79.010503 441.488112 78.927073 441.690629 78.842998 441.893147 78.758287 442.095664 78.672950 442.298182 78.586995 442.500699 78.500433 442.703217 78.413271 442.905734 78.325519 443.108252 78.237186 443.310769 78.148282 443.513287 78.058815 443.715804 77.968795 443.918322 77.878231 444.120839 77.787131 444.323357 77.695506 444.525874 77.603363 444.728392 77.510713 444.930909 77.417565 445.133427 77.323927 445.335944 77.229809 445.538462 77.135219 445.740979 77.040168 445.943497 76.944664 446.146014 76.848717 446.348531 76.752334 446.551049 76.655527 446.753566 76.558303 446.956084 76.460672 447.158601 76.362643 447.361119 76.264225 447.563636 76.165428 447.766154 76.066260 447.968671 75.966731 448.171189 75.866849 448.373706 75.766624 448.576224 75.666066 448.778741 75.565182 448.981259 75.463983 449.183776 75.362477 449.386294 75.260674 449.588811 75.158583 449.791329 75.056213 449.993846 74.953572 450.196364 74.850671 450.398881 74.747518 450.601399 74.644123 450.803916 74.540494 451.006434 74.436641 451.208951 74.332573 451.411469 74.228299 451.613986 74.123828 451.816503 74.019169 452.019021 73.914332 452.221538 73.809325 452.424056 73.704158 452.626573 73.598841 452.829091 73.493381 453.031608 73.387788 453.234126 73.282072 453.436643 73.176241 453.639161 73.070304 453.841678 72.964272 454.044196 72.858152 454.246713 72.751954 454.449231 72.645688 454.651748 72.539362 454.854266 72.432985 455.056783 72.326567 455.259301 72.220117 455.461818 72.113643 455.664336 72.007156 455.866853 71.900663 456.069371 71.794175 456.271888 71.687701 456.474406 71.581249 456.676923 71.474829 456.879441 71.368450 457.081958 71.262120 457.284476 71.155850 457.486993 71.049649 457.689510 70.943524 457.892028 70.837487 458.094545 70.731545 458.297063 70.625708 458.499580 70.519985 458.702098 70.414385 458.904615 70.308917 459.107133 70.203591 459.309650 70.098416 459.512168 69.993400 459.714685 69.888553 459.917203 69.783884 460.119720 69.679402 460.322238 69.575117 460.524755 69.471037 460.727273 69.367172 460.929790 69.263530 461.132308 69.160122 461.334825 69.056955 461.537343 68.954039 461.739860 68.851384 461.942378 68.748998 462.144895 68.646891 462.347413 68.545072 462.549930 68.443549 462.752448 68.342333 462.954965 68.241431 463.157483 68.140854 463.360000 68.040611 463.562517 67.940710 463.765035 67.841161 463.967552 67.741972 464.170070 67.643154 464.372587 67.544715 464.575105 67.446664 464.777622 67.349010 464.980140 67.251763 465.182657 67.154932 465.385175 67.058526 465.587692 66.962554 465.790210 66.867025 465.992727 66.771948 466.195245 66.677333 466.397762 66.583188 466.600280 66.489523 466.802797 66.396347 467.005315 66.303667 467.207832 66.211484 467.410350 66.119795 467.612867 66.028600 467.815385 65.937897 468.017902 65.847684 468.220420 65.757960 468.422937 65.668724 468.625455 65.579973 468.827972 65.491706 469.030490 65.403922 469.233007 65.316620 469.435524 65.229796 469.638042 65.143452 469.840559 65.057583 470.043077 64.972190 470.245594 64.887270 470.448112 64.802822 470.650629 64.718845 470.853147 64.635336 471.055664 64.552295 471.258182 64.469720 471.460699 64.387609 471.663217 64.305961 471.865734 64.224775 472.068252 64.144048 472.270769 64.063779 472.473287 63.983967 472.675804 63.904610 472.878322 63.825706 473.080839 63.747255 473.283357 63.669254 473.485874 63.591703 473.688392 63.514599 473.890909 63.437940 474.093427 63.361727 474.295944 63.285956 474.498462 63.210626 474.700979 63.135737 474.903497 63.061285 475.106014 62.987271 475.308531 62.913691 475.511049 62.840546 475.713566 62.767832 475.916084 62.695550 476.118601 62.623696 476.321119 62.552270 476.523636 62.481270 476.726154 62.410694 476.928671 62.340542 477.131189 62.270811 477.333706 62.201500 477.536224 62.132607 477.738741 62.064131 477.941259 61.996071 478.143776 61.928424 478.346294 61.861190 478.548811 61.794367 478.751329 61.727952 478.953846 61.661946 479.156364 61.596345 479.358881 61.531149 479.561399 61.466356 479.763916 61.401965 479.966434 61.337974 480.168951 61.274381 480.371469 61.211186 480.573986 61.148385 480.776503 61.085979 480.979021 61.023965 481.181538 60.962342 481.384056 60.901108 481.586573 60.840262 481.789091 60.779803 481.991608 60.719728 482.194126 60.660036 482.396643 60.600726 482.599161 60.541796 482.801678 60.483244 483.004196 60.425070 483.206713 60.367271 483.409231 60.309846 483.611748 60.252794 483.814266 60.196112 484.016783 60.139800 484.219301 60.083856 484.421818 60.028279 484.624336 59.973066 484.826853 59.918216 485.029371 59.863728 485.231888 59.809601 485.434406 59.755832 485.636923 59.702420 485.839441 59.649364 486.041958 59.596662 486.244476 59.544313 486.446993 59.492314 486.649510 59.440665 486.852028 59.389364 487.054545 59.338410 487.257063 59.287801 487.459580 59.237534 487.662098 59.187610 487.864615 59.138026 488.067133 59.088781 488.269650 59.039873 488.472168 58.991301 488.674685 58.943063 488.877203 58.895158 489.079720 58.847584 489.282238 58.800339 489.484755 58.753423 489.687273 58.706833 489.889790 58.660568 490.092308 58.614627 490.294825 58.569007 490.497343 58.523708 490.699860 58.478728 490.902378 58.434066 491.104895 58.389719 491.307413 58.345686 491.509930 58.301966 491.712448 58.258558 491.914965 58.215459 492.117483 58.172668 492.320000 58.130184 492.522517 58.088005 492.725035 58.046130 492.927552 58.004557 493.130070 57.963284 493.332587 57.922310 493.535105 57.881634 493.737622 57.841253 493.940140 57.801167 494.142657 57.761374 494.345175 57.721872 494.547692 57.682660 494.750210 57.643737 494.952727 57.605100 495.155245 57.566748 495.357762 57.528680 495.560280 57.490894 495.762797 57.453389 495.965315 57.416163 496.167832 57.379214 496.370350 57.342541 496.572867 57.306143 496.775385 57.270018 496.977902 57.234164 497.180420 57.198581 497.382937 57.163265 497.585455 57.128217 497.787972 57.093433 497.990490 57.058914 498.193007 57.024656 498.395524 56.990660 498.598042 56.956923 498.800559 56.923443 499.003077 56.890219 499.205594 56.857250 499.408112 56.824534 499.610629 56.792070 499.813147 56.759856 500.015664 56.727890 500.218182 56.696171 500.420699 56.664697 500.623217 56.633468 500.825734 56.602480 501.028252 56.571734 501.230769 56.541226 501.433287 56.510957 501.635804 56.480924 501.838322 56.451125 502.040839 56.421560 502.243357 56.392226 502.445874 56.363122 502.648392 56.334247 502.850909 56.305599 503.053427 56.277176 503.255944 56.248978 503.458462 56.221002 503.660979 56.193246 503.863497 56.165711 504.066014 56.138393 504.268531 56.111291 504.471049 56.084404 504.673566 56.057730 504.876084 56.031268 505.078601 56.005017 505.281119 55.978974 505.483636 55.953138 505.686154 55.927507 505.888671 55.902081 506.091189 55.876857 506.293706 55.851835 506.496224 55.827012 506.698741 55.802386 506.901259 55.777957 507.103776 55.753724 507.306294 55.729683 507.508811 55.705834 507.711329 55.682176 507.913846 55.658706 508.116364 55.635423 508.318881 55.612327 508.521399 55.589414 508.723916 55.566684 508.926434 55.544135 509.128951 55.521766 509.331469 55.499575 509.533986 55.477560 509.736503 55.455720 509.939021 55.434054 510.141538 55.412559 510.344056 55.391235 510.546573 55.370080 510.749091 55.349092 510.951608 55.328270 511.154126 55.307613 511.356643 55.287118 511.559161 55.266784 511.761678 55.246610 511.964196 55.226594 512.166713 55.206734 512.369231 55.187030 512.571748 55.167479 512.774266 55.148081 512.976783 55.128832 513.179301 55.109733 513.381818 55.090781 513.584336 55.071975 513.786853 55.053314 513.989371 55.034795 514.191888 55.016418 514.394406 54.998180 514.596923 54.980081 514.799441 54.962118 515.001958 54.944290 515.204476 54.926596 515.406993 54.909035 515.609510 54.891603 515.812028 54.874301 516.014545 54.857127 516.217063 54.840078 516.419580 54.823154 516.622098 54.806353 516.824615 54.789673 517.027133 54.773113 517.229650 54.756671 517.432168 54.740346 517.634685 54.724137 517.837203 54.708042 518.039720 54.692062 518.242238 54.676196 518.444755 54.660443 518.647273 54.644803 518.849790 54.629276 519.052308 54.613860 519.254825 54.598557 519.457343 54.583364 519.659860 54.568282 519.862378 54.553310 520.064895 54.538448 520.267413 54.523696 520.469930 54.509052 520.672448 54.494516 520.874965 54.480089 521.077483 54.465768 521.280000 54.451555 521.482517 54.437448 521.685035 54.423448 521.887552 54.409553 522.090070 54.395763 522.292587 54.382077 522.495105 54.368496 522.697622 54.355019 522.900140 54.341645 523.102657 54.328374 523.305175 54.315205 523.507692 54.302138 523.710210 54.289173 523.912727 54.276308 524.115245 54.263544 524.317762 54.250880 524.520280 54.238316 524.722797 54.225851 524.925315 54.213484 525.127832 54.201216 525.330350 54.189045 525.532867 54.176972 525.735385 54.164996 525.937902 54.153116 526.140420 54.141331 526.342937 54.129643 526.545455 54.118049 526.747972 54.106550 526.950490 54.095145 527.153007 54.083833 527.355524 54.072615 527.558042 54.061489 527.760559 54.050456 527.963077 54.039514 528.165594 54.028664 528.368112 54.017904 528.570629 54.007235 528.773147 53.996656 528.975664 53.986166 529.178182 53.975765 529.380699 53.965453 529.583217 53.955228 529.785734 53.945092 529.988252 53.935042 530.190769 53.925080 530.393287 53.915203 530.595804 53.905412 530.798322 53.895707 531.000839 53.886086 531.203357 53.876550 531.405874 53.867098 531.608392 53.857729 531.810909 53.848443 532.013427 53.839239 532.215944 53.830118 532.418462 53.821079 532.620979 53.812120 532.823497 53.803242 533.026014 53.794445 533.228531 53.785727 533.431049 53.777088 533.633566 53.768529 533.836084 53.760048 534.038601 53.751644 534.241119 53.743318 534.443636 53.735070 534.646154 53.726897 534.848671 53.718801 535.051189 53.710780 535.253706 53.702835 535.456224 53.694964 535.658741 53.687168 535.861259 53.679445 536.063776 53.671796 536.266294 53.664219 536.468811 53.656715 536.671329 53.649283 536.873846 53.641922 537.076364 53.634632 537.278881 53.627413 537.481399 53.620264 537.683916 53.613184 537.886434 53.606174 538.088951 53.599232 538.291469 53.592359 538.493986 53.585553 538.696503 53.578815 538.899021 53.572144 539.101538 53.565539 539.304056 53.559000 539.506573 53.552526 539.709091 53.546118 539.911608 53.539773 540.114126 53.533494 540.316643 53.527277 540.519161 53.521124 540.721678 53.515034 540.924196 53.509006 541.126713 53.503039 541.329231 53.497134 541.531748 53.491290 541.734266 53.485506 541.936783 53.479782 542.139301 53.474118 542.341818 53.468513 542.544336 53.462966 542.746853 53.457477 542.949371 53.452046 543.151888 53.446672 543.354406 53.441355 543.556923 53.436094 543.759441 53.430889 543.961958 53.425739 544.164476 53.420645 544.366993 53.415604 544.569510 53.410618 544.772028 53.405684 544.974545 53.400804 545.177063 53.395977 545.379580 53.391202 545.582098 53.386478 545.784615 53.381805 545.987133 53.377184 546.189650 53.372612 546.392168 53.368090 546.594685 53.363618 546.797203 53.359194 546.999720 53.354819 547.202238 53.350492 547.404755 53.346213 547.607273 53.341980 547.809790 53.337794 548.012308 53.333654 548.214825 53.329560 548.417343 53.325511 548.619860 53.321506 548.822378 53.317546 549.024895 53.313630 549.227413 53.309757 549.429930 53.305927 549.632448 53.302139 549.834965 53.298393 550.037483 53.294689 550.240000 53.291026 550.442517 53.287403 550.645035 53.283821 550.847552 53.280278 551.050070 53.276774 551.252587 53.273310 551.455105 53.269883 551.657622 53.266494 551.860140 53.263143 552.062657 53.259828 552.265175 53.256550 552.467692 53.253308 552.670210 53.250101 552.872727 53.246930 553.075245 53.243793 553.277762 53.240690 553.480280 53.237620 553.682797 53.234584 553.885315 53.231581 554.087832 53.228610 554.290350 53.225671 554.492867 53.222763 554.695385 53.219886 554.897902 53.217039 555.100420 53.214223 555.302937 53.211436 555.505455 53.208678 555.707972 53.205948 555.910490 53.203247 556.113007 53.200573 556.315524 53.197927 556.518042 53.195307 556.720559 53.192714 556.923077 53.190146 557.125594 53.187604 557.328112 53.185087 557.530629 53.182594 557.733147 53.180125 557.935664 53.177680 558.138182 53.175257 558.340699 53.172858 558.543217 53.170480 558.745734 53.168124 558.948252 53.165789 559.150769 53.163475 559.353287 53.161182 559.555804 53.158908 559.758322 53.156653 559.960839 53.154418 560.163357 53.152201 560.365874 53.150001 560.568392 53.147820 560.770909 53.145655 560.973427 53.143507 561.175944 53.141375 561.378462 53.139259 561.580979 53.137158 561.783497 53.135072 561.986014 53.133000 562.188531 53.130942 562.391049 53.128898 562.593566 53.126866 562.796084 53.124846 562.998601 53.122839 563.201119 53.120843 563.403636 53.118859 563.606154 53.116884 563.808671 53.114920 564.011189 53.112966 564.213706 53.111021 564.416224 53.109085 564.618741 53.107157 564.821259 53.105237 565.023776 53.103324 565.226294 53.101418 565.428811 53.099518 565.631329 53.097625 565.833846 53.095737 566.036364 53.093854 566.238881 53.091976 566.441399 53.090102 566.643916 53.088232 566.846434 53.086364 567.048951 53.084500 567.251469 53.082638 567.453986 53.080778 567.656503 53.078919 567.859021 53.077061 568.061538 53.075203 568.061538 479.351792" /></g></g><g class="titles"><text class="title plot_title" x="400.0" y="26">Wongwian-Yai 52</text></g><g class="plot overlay" transform="translate(200, 46)"><g class="series serie-0 color-0"><g class="dots"><circle class="dot reactive tooltip-trigger" cx="11.13846153846154" cy="479.35179174115916" r="2.5" /><desc class="value">0</desc><desc class="x top">11.13846153846154</desc><desc class="y top">479.35179174115916</desc><desc class="x_label">Jan</desc></g><g class="dots"><circle class="dot reactive tooltip-trigger" cx="61.76783216783217" cy="479.35179174115916" r="2.5" /><desc class="value">0</desc><desc class="x top">61.76783216783217</desc><desc class="y top">479.35179174115916</desc><desc class="x_label">Feb</desc></g><g class="dots"><circle class="dot reactive tooltip-trigger" cx="112.3972027972028" cy="479.35179174115916" r="2.5" /><desc class="value">0</desc><desc class="x top">112.3972027972028</desc><desc class="y top">479.35179174115916</desc><desc class="x_label">Mar</desc></g><g class="dots"><circle class="dot reactive tooltip-trigger" cx="163.02657342657344" cy="479.35179174115916" r="2.5" /><desc class="value">0</desc><desc class="x top">163.02657342657344</desc><desc class="y top">479.35179174115916</desc><desc class="x_label">Apr</desc></g><g class="dots"><circle class="dot reactive tooltip-trigger" cx="213.65594405594408" cy="196.27749482827676" r="2.5" /><desc class="value">170000</desc><desc class="x ">213.65594405594408</desc><desc class="y ">196.27749482827676</desc><desc class="x_label">May</desc></g><g class="dots"><circle class="dot reactive tooltip-trigger" cx="264.2853146853147" cy="11.446630373394669" r="2.5" /><desc class="value">281000</desc><desc class="x ">264.2853146853147</desc><desc class="y ">11.446630373394669</desc><desc class="x_label">Jun</desc></g><g class="dots"><circle class="dot reactive tooltip-trigger" cx="314.9146853146853" cy="63.06606098692026" r="2.5" /><desc class="value">250000</desc><desc class="x left">314.9146853146853</desc><desc class="y left">63.06606098692026</desc><desc class="x_label">Jul</desc></g><g class="dots"><circle class="dot reactive tooltip-trigger" cx="365.54405594405597" cy="51.41006052580161" r="2.5" /><desc class="value">257000</desc><desc class="x left">365.54405594405597</desc><desc class="y left">51.41006052580161</desc><desc class="x_label">Aug</desc></g><g class="dots"><circle class="dot reactive tooltip-trigger" cx="416.17342657342664" cy="81.38263314010686" r="2.5" /><desc class="value">239000</desc><desc class="x left">416.17342657342664</desc><desc class="y left">81.38263314010686</desc><desc class="x_label">Sep</desc></g><g class="dots"><circle class="dot reactive tooltip-trigger" cx="466.8027972027973" cy="66.39634683295418" r="2.5" /><desc class="value">248000</desc><desc class="x left">466.8027972027973</desc><desc class="y left">66.39634683295418</desc><desc class="x_label">Oct</desc></g><g class="dots"><circle class="dot reactive tooltip-trigger" cx="517.4321678321678" cy="54.74034637183553" r="2.5" /><desc class="value">255000</desc><desc class="x left">517.4321678321678</desc><desc class="y left">54.74034637183553</desc><desc class="x_label">Nov</desc></g><g class="dots"><circle class="dot reactive tooltip-trigger" cx="568.0615384615386" cy="53.07520344881857" r="2.5" /><desc class="value">256000</desc><desc class="x left">568.0615384615386</desc><desc class="y left">53.07520344881857</desc><desc class="x_label">Dec</desc></g></g></g><g class="plot text-overlay" transform="translate(200, 46)"><g class="series serie-0 color-0" /></g><g class="plot tooltip-overlay" transform="translate(200, 46)"><g class="tooltip" style="opacity: 0" transform="translate(0 0)"><rect class="tooltip-box" height="0" rx="0" ry="0" width="0" /><g class="text" /></g></g><g class="legends" transform="translate(10, 56)"><g class="legend reactive activate-serie" id="activate-serie-0"><rect class="color-0 reactive" height="12" width="12" x="0.0" y="1.0" /><text x="17.0" y="11.2">Wongwian-Yai</text></g></g><g class="legends" transform="translate(790, 56)" /></g></svg>