<?xml version='1.0' encoding='utf-8'?>
<svg xmlns:xlink="http://www.w3.org/1999/xlink" class="pygal-chart" id="chart-977ffdee-3f47-4def-b037-4c036c159085" viewBox="0 0 800 600" xmlns="http://www.w3.org/2000/svg"><!--Generated with pygal 2.0.11 (etree) ©Kozea 2011-2015 on 2015-12-10--><!--http://pygal.org--><!--http://github.com/Kozea/pygal--><defs><style type="text/css">#chart-977ffdee-3f47-4def-b037-4c036c159085{-webkit-user-select:none;-webkit-font-smoothing:antialiased;font-family:Consolas,"Liberation Mono",Menlo,Courier,monospace}#chart-977ffdee-3f47-4def-b037-4c036c159085 .title{font-family:Consolas,"Liberation Mono",Menlo,Courier,monospace;font-size:16px}#chart-977ffdee-3f47-4def-b037-4c036c159085 .legends .legend text{font-family:Consolas,"Liberation Mono",Menlo,Courier,monospace;font-size:14px}#chart-977ffdee-3f47-4def-b037-4c036c159085 .axis text{font-family:Consolas,"Liberation Mono",Menlo,Courier,monospace;font-size:10px}#chart-977ffdee-3f47-4def-b037-4c036c159085 .axis text.major{font-family:Consolas,"Liberation Mono",Menlo,Courier,monospace;font-size:10px}#chart-977ffdee-3f47-4def-b037-4c036c159085 .text-overlay text.value{font-family:Consolas,"Liberation Mono",Menlo,Courier,monospace;font-size:16px}#chart-977ffdee-3f47-4def-b037-4c036c159085 .text-overlay text.label{font-family:Consolas,"Liberation Mono",Menlo,Courier,monospace;font-size:10px}#chart-977ffdee-3f47-4def-b037-4c036c159085 .tooltip{font-family:Consolas,"Liberation Mono",Menlo,Courier,monospace;font-size:14px}#chart-977ffdee-3f47-4def-b037-4c036c159085 text.no_data{font-family:Consolas,"Liberation Mono",Menlo,Courier,monospace;font-size:64px}
#chart-977ffdee-3f47-4def-b037-4c036c159085{background-color:black}#chart-977ffdee-3f47-4def-b037-4c036c159085 path,#chart-977ffdee-3f47-4def-b037-4c036c159085 line,#chart-977ffdee-3f47-4def-b037-4c036c159085 rect,#chart-977ffdee-3f47-4def-b037-4c036c159085 circle{-webkit-transition:250ms;-moz-transition:250ms;transition:250ms}#chart-977ffdee-3f47-4def-b037-4c036c159085 .graph &gt; .background{fill:black}#chart-977ffdee-3f47-4def-b037-4c036c159085 .plot &gt; .background{fill:#111}#chart-977ffdee-3f47-4def-b037-4c036c159085 .graph{fill:#999}#chart-977ffdee-3f47-4def-b037-4c036c159085 text.no_data{fill:#eee}#chart-977ffdee-3f47-4def-b037-4c036c159085 .title{fill:#eee}#chart-977ffdee-3f47-4def-b037-4c036c159085 .legends .legend text{fill:#999}#chart-977ffdee-3f47-4def-b037-4c036c159085 .legends .legend:hover text{fill:#eee}#chart-977ffdee-3f47-4def-b037-4c036c159085 .axis .line{stroke:#eee}#chart-977ffdee-3f47-4def-b037-4c036c159085 .axis .guide.line{stroke:#555}#chart-977ffdee-3f47-4def-b037-4c036c159085 .axis .major.line{stroke:#999}#chart-977ffdee-3f47-4def-b037-4c036c159085 .axis text.major{fill:#eee}#chart-977ffdee-3f47-4def-b037-4c036c159085 .axis.y .guides:hover .guide.line,#chart-977ffdee-3f47-4def-b037-4c036c159085 .line-graph .axis.x .guides:hover .guide.line,#chart-977ffdee-3f47-4def-b037-4c036c159085 .stackedline-graph .axis.x .guides:hover .guide.line,#chart-977ffdee-3f47-4def-b037-4c036c159085 .xy-graph .axis.x .guides:hover .guide.line{stroke:#eee}#chart-977ffdee-3f47-4def-b037-4c036c159085 .axis .guides:hover text{fill:#eee}#chart-977ffdee-3f47-4def-b037-4c036c159085 .reactive{fill-opacity:.8}#chart-977ffdee-3f47-4def-b037-4c036c159085 .reactive.active,#chart-977ffdee-3f47-4def-b037-4c036c159085 .active .reactive{fill-opacity:.4;stroke-width:4}#chart-977ffdee-3f47-4def-b037-4c036c159085 .series text{fill:#eee}#chart-977ffdee-3f47-4def-b037-4c036c159085 .tooltip rect{fill:#111;stroke:#eee;-webkit-transition:opacity 250ms;-moz-transition:opacity 250ms;transition:opacity 250ms}#chart-977ffdee-3f47-4def-b037-4c036c159085 .tooltip .label{fill:#999}#chart-977ffdee-3f47-4def-b037-4c036c159085 .tooltip .label{fill:#999}#chart-977ffdee-3f47-4def-b037-4c036c159085 .tooltip .legend{font-size:.8em;fill:#555}#chart-977ffdee-3f47-4def-b037-4c036c159085 .tooltip .x_label{font-size:.6em;fill:#eee}#chart-977ffdee-3f47-4def-b037-4c036c159085 .tooltip .xlink{font-size:.5em;text-decoration:underline}#chart-977ffdee-3f47-4def-b037-4c036c159085 .tooltip .value{font-size:1.5em}#chart-977ffdee-3f47-4def-b037-4c036c159085 .map-element{fill:#111;stroke:#555 !important}#chart-977ffdee-3f47-4def-b037-4c036c159085 .map-element .reactive{fill-opacity:inherit}#chart-977ffdee-3f47-4def-b037-4c036c159085 .color-0,#chart-977ffdee-3f47-4def-b037-4c036c159085 .color-0 a:visited{stroke:#ff5995;fill:#ff5995}#chart-977ffdee-3f47-4def-b037-4c036c159085 .text-overlay .color-0 text{fill:black}
#chart-977ffdee-3f47-4def-b037-4c036c159085 text.no_data{text-anchor:middle}#chart-977ffdee-3f47-4def-b037-4c036c159085 .guide.line{fill:none}#chart-977ffdee-3f47-4def-b037-4c036c159085 .centered{text-anchor:middle}#chart-977ffdee-3f47-4def-b037-4c036c159085 .title{text-anchor:middle}#chart-977ffdee-3f47-4def-b037-4c036c159085 .legends .legend text{fill-opacity:1}#chart-977ffdee-3f47-4def-b037-4c036c159085 .axis.x text{text-anchor:middle}#chart-977ffdee-3f47-4def-b037-4c036c159085 .axis.x:not(.web) text[transform]{text-anchor:start}#chart-977ffdee-3f47-4def-b037-4c036c159085 .axis.x:not(.web) text[transform].backwards{text-anchor:end}#chart-977ffdee-3f47-4def-b037-4c036c159085 .axis.y text{text-anchor:end}#chart-977ffdee-3f47-4def-b037-4c036c159085 .axis.y text[transform].backwards{text-anchor:start}#chart-977ffdee-3f47-4def-b037-4c036c159085 .axis.y2 text{text-anchor:start}#chart-977ffdee-3f47-4def-b037-4c036c159085 .axis.y2 text[transform].backwards{text-anchor:end}#chart-977ffdee-3f47-4def-b037-4c036c159085 .axis .guide.line{stroke-dasharray:4,4}#chart-977ffdee-3f47-4def-b037-4c036c159085 .axis .major.guide.line{stroke-dasharray:6,6}#chart-977ffdee-3f47-4def-b037-4c036c159085 .horizontal .axis.y .guide.line,#chart-977ffdee-3f47-4def-b037-4c036c159085 .horizontal .axis.y2 .guide.line,#chart-977ffdee-3f47-4def-b037-4c036c159085 .vertical .axis.x .guide.line{opacity:0}#chart-977ffdee-3f47-4def-b037-4c036c159085 .horizontal .axis.always_show .guide.line,#chart-977ffdee-3f47-4def-b037-4c036c159085 .vertical .axis.always_show .guide.line{opacity:1 !important}#chart-977ffdee-3f47-4def-b037-4c036c159085 .axis.y .guides:hover .guide.line,#chart-977ffdee-3f47-4def-b037-4c036c159085 .axis.y2 .guides:hover .guide.line,#chart-977ffdee-3f47-4def-b037-4c036c159085 .axis.x .guides:hover .guide.line{opacity:1}#chart-977ffdee-3f47-4def-b037-4c036c159085 .axis .guides:hover text{opacity:1}#chart-977ffdee-3f47-4def-b037-4c036c159085 .nofill{fill:none}#chart-977ffdee-3f47-4def-b037-4c036c159085 .subtle-fill{fill-opacity:.2}#chart-977ffdee-3f47-4def-b037-4c036c159085 .dot{stroke-width:1px;fill-opacity:1}#chart-977ffdee-3f47-4def-b037-4c036c159085 .dot.active{stroke-width:5px}#chart-977ffdee-3f47-4def-b037-4c036c159085 .dot.negative{fill:transparent}#chart-977ffdee-3f47-4def-b037-4c036c159085 text,#chart-977ffdee-3f47-4def-b037-4c036c159085 tspan{stroke:none !important}#chart-977ffdee-3f47-4def-b037-4c036c159085 .series text.active{opacity:1}#chart-977ffdee-3f47-4def-b037-4c036c159085 .tooltip rect{fill-opacity:.95;stroke-width:.5}#chart-977ffdee-3f47-4def-b037-4c036c159085 .tooltip text{fill-opacity:1}#chart-977ffdee-3f47-4def-b037-4c036c159085 .showable{visibility:hidden}#chart-977ffdee-3f47-4def-b037-4c036c159085 .showable.shown{visibility:visible}</style><script type="text/javascript">window.pygal = window.pygal || {};window.pygal.config = window.pygal.config || {};window.pygal.config['977ffdee-3f47-4def-b037-4c036c159085'] = {"spacing": 10, "inner_radius": 0, "order_min": null, "truncate_label": null, "x_title": null, "style": {"foreground_strong": "#eee", "value_colors": [], "title_font_family": "Consolas, \"Liberation Mono\", Menlo, Courier, monospace", "major_guide_stroke_dasharray": "6,6", "background": "black", "value_font_size": 16, "guide_stroke_dasharray": "4,4", "colors": ["#ff5995", "#b6e354", "#feed6c", "#8cedff", "#9e6ffe", "#899ca1", "#f8f8f2", "#bf4646", "#516083", "#f92672", "#82b414", "#fd971f", "#56c2d6", "#808384", "#8c54fe", "#465457"], "legend_font_family": "Consolas, \"Liberation Mono\", Menlo, Courier, monospace", "no_data_font_size": 64, "legend_font_size": 14, "opacity": ".8", "title_font_size": 16, "foreground_subtle": "#555", "label_font_family": "Consolas, \"Liberation Mono\", Menlo, Courier, monospace", "value_label_font_family": "Consolas, \"Liberation Mono\", Menlo, Courier, monospace", "value_font_family": "Consolas, \"Liberation Mono\", Menlo, Courier, monospace", "major_label_font_size": 10, "no_data_font_family": "Consolas, \"Liberation Mono\", Menlo, Courier, monospace", "major_label_font_family": "Consolas, \"Liberation Mono\", Menlo, Courier, monospace", "tooltip_font_size": 14, "label_font_size": 10, "tooltip_font_family": "Consolas, \"Liberation Mono\", Menlo, Courier, monospace", "transition": "250ms", "value_label_font_size": 10, "plot_background": "#111", "opacity_hover": ".4", "font_family": "Consolas, \"Liberation Mono\", Menlo, Courier, monospace", "foreground": "#999"}, "y_labels_major": null, "inverse_y_axis": false, "show_dots": true, "js": ["//kozea.github.io/pygal.js/2.0.x/pygal-tooltips.min.js"], "range": null, "human_readable": false, "margin": 20, "show_x_labels": true, "legend_box_size": 12, "no_data_text": "No data", "strict": false, "show_minor_y_labels": true, "legend_at_bottom": false, "show_only_major_dots": false, "include_x_axis": false, "x_labels": ["Jan", "Feb", "Mar", "Apr", "May", "Jun", "Jul", "Aug", "Sep", "Oct", "Nov", "Dec"], "x_labels_major": null, "x_label_rotation": 0, "disable_xml_declaration": false, "y_title": null, "show_y_guides": true, "max_scale": 16, "margin_right": null, "defs": [], "tooltip_border_radius": 0, "xrange": null, "print_zeroes": true, "show_legend": true, "no_prefix": false, "y_labels_major_every": null, "fill": true, "width": 800, "min_scale": 4, "title": "Saphan-Taksin 51", "half_pie": false, "x_labels_major_count": null, "zero": 0, "margin_bottom": null, "legends": ["Saphan-Taksin"], "secondary_range": null, "margin_top": null, "margin_left": null, "print_labels": false, "legend_at_bottom_columns": null, "print_values": false, "value_formatter": null, "explicit_size": false, "dynamic_print_values": false, "interpolate": "cubic", "box_mode": "extremes", "interpolation_precision": 250, "x_value_formatter": null, "show_y_labels": true, "height": 600, "force_uri_protocol": null, "interpolation_parameters": {}, "dots_size": 2.5, "logarithmic": false, "stroke_style": null, "pretty_print": false, "stack_from_top": false, "stroke": true, "y_label_rotation": 0, "rounded_bars": null, "y_labels": null, "missing_value_fill_truncation": "x", "show_x_guides": false, "x_labels_major_every": null, "truncate_legend": null, "css": ["file://style.css", "file://graph.css"], "tooltip_fancy_mode": true, "y_labels_major_count": null, "show_minor_x_labels": true}</script><script type="text/javascript" xlink:href="//kozea.github.io/pygal.js/2.0.x/pygal-tooltips.min.js" /></defs><title>Saphan-Taksin 51</title><g class="graph line-graph vertical"><rect class="background" height="600" width="800" x="0" y="0" /><g class="plot" transform="translate(209, 46)"><rect class="background" height="514" width="570.8" x="0" y="0" /><g class="axis y"><path class="line" d="M0.000000 514.000000 h570.800000" /><g class="guides"><path class="major guide line" d="M0.000000 489.522388 h570.800000" /><text class="major" x="-5" y="493.0223877026125">500000.0</text><title>500000.0</title></g><g class="guides"><path class="guide line" d="M0.000000 456.677964 h570.800000" /><text class="" x="-5" y="460.17796379035843">510000.0</text><title>510000.0</title></g><g class="guides"><path class="guide line" d="M0.000000 423.833540 h570.800000" /><text class="" x="-5" y="427.3335398781044">520000.0</text><title>520000.0</title></g><g class="guides"><path class="guide line" d="M0.000000 390.989116 h570.800000" /><text class="" x="-5" y="394.4891159658504">530000.0</text><title>530000.0</title></g><g class="guides"><path class="guide line" d="M0.000000 358.144692 h570.800000" /><text class="" x="-5" y="361.6446920535963">540000.0</text><title>540000.0</title></g><g class="guides"><path class="major guide line" d="M0.000000 325.300268 h570.800000" /><text class="major" x="-5" y="328.80026814134226">550000.0</text><title>550000.0</title></g><g class="guides"><path class="guide line" d="M0.000000 292.455844 h570.800000" /><text class="" x="-5" y="295.95584422908826">560000.0</text><title>560000.0</title></g><g class="guides"><path class="guide line" d="M0.000000 259.611420 h570.800000" /><text class="" x="-5" y="263.11142031683426">570000.0</text><title>570000.0</title></g><g class="guides"><path class="guide line" d="M0.000000 226.766996 h570.800000" /><text class="" x="-5" y="230.2669964045802">580000.0</text><title>580000.0</title></g><g class="guides"><path class="guide line" d="M0.000000 193.922572 h570.800000" /><text class="" x="-5" y="197.4225724923262">590000.0</text><title>590000.0</title></g><g class="guides"><path class="major guide line" d="M0.000000 161.078149 h570.800000" /><text class="major" x="-5" y="164.57814858007214">600000.0</text><title>600000.0</title></g><g class="guides"><path class="guide line" d="M0.000000 128.233725 h570.800000" /><text class="" x="-5" y="131.73372466781814">610000.0</text><title>610000.0</title></g><g class="guides"><path class="guide line" d="M0.000000 95.389301 h570.800000" /><text class="" x="-5" y="98.88930075556408">620000.0</text><title>620000.0</title></g><g class="guides"><path class="guide line" d="M0.000000 62.544877 h570.800000" /><text class="" x="-5" y="66.04487684331002">630000.0</text><title>630000.0</title></g><g class="guides"><path class="guide line" d="M0.000000 29.700453 h570.800000" /><text class="" x="-5" y="33.20045293105602">640000.0</text><title>640000.0</title></g></g><g class="axis x"><g class="guides"><path class="line" d="M10.976923 0.000000 v514.000000" /><text class="" x="10.976923076923075" y="529.0">Jan</text></g><g class="guides"><path class="guide line" d="M60.872028 0.000000 v514.000000" /><text class="" x="60.872027972027965" y="529.0">Feb</text></g><g class="guides"><path class="guide line" d="M110.767133 0.000000 v514.000000" /><text class="" x="110.76713286713284" y="529.0">Mar</text></g><g class="guides"><path class="guide line" d="M160.662238 0.000000 v514.000000" /><text class="" x="160.66223776223774" y="529.0">Apr</text></g><g class="guides"><path class="guide line" d="M210.557343 0.000000 v514.000000" /><text class="" x="210.55734265734264" y="529.0">May</text></g><g class="guides"><path class="guide line" d="M260.452448 0.000000 v514.000000" /><text class="" x="260.45244755244755" y="529.0">Jun</text></g><g class="guides"><path class="guide line" d="M310.347552 0.000000 v514.000000" /><text class="" x="310.3475524475524" y="529.0">Jul</text></g><g class="guides"><path class="guide line" d="M360.242657 0.000000 v514.000000" /><text class="" x="360.2426573426573" y="529.0">Aug</text></g><g class="guides"><path class="guide line" d="M410.137762 0.000000 v514.000000" /><text class="" x="410.1377622377622" y="529.0">Sep</text></g><g class="guides"><path class="guide line" d="M460.032867 0.000000 v514.000000" /><text class="" x="460.0328671328671" y="529.0">Oct</text></g><g class="guides"><path class="guide line" d="M509.927972 0.000000 v514.000000" /><text class="" x="509.9279720279719" y="529.0">Nov</text></g><g class="guides"><path class="guide line" d="M559.823077 0.000000 v514.000000" /><text class="" x="559.8230769230769" y="529.0">Dec</text></g></g><g class="series serie-0 color-0"><path class="line reactive" d="M10.976923 514.000000 L10.976923 154.509264 11.176503 156.803309 11.376084 159.097267 11.575664 161.391049 11.775245 163.684568 11.974825 165.977736 12.174406 168.270464 12.373986 170.562666 12.573566 172.854253 12.773147 175.145138 12.972727 177.435232 13.172308 179.724449 13.371888 182.012699 13.571469 184.299896 13.771049 186.585952 13.970629 188.870779 14.170210 191.154288 14.369790 193.436393 14.569371 195.717005 14.768951 197.996036 14.968531 200.273400 15.168112 202.549007 15.367692 204.822770 15.567273 207.094602 15.766853 209.364415 15.966434 211.632120 16.166014 213.897630 16.365594 216.160858 16.565175 218.421714 16.764755 220.680113 16.964336 222.935965 17.163916 225.189183 17.363497 227.439679 17.563077 229.687366 17.762657 231.932155 17.962238 234.173959 18.161818 236.412690 18.361399 238.648260 18.560979 240.880581 18.760559 243.109566 18.960140 245.335127 19.159720 247.557175 19.359301 249.775624 19.558881 251.990385 19.758462 254.201371 19.958042 256.408494 20.157622 258.611665 20.357203 260.810798 20.556783 263.005804 20.756364 265.196595 20.955944 267.383085 21.155524 269.565184 21.355105 271.742805 21.554685 273.915861 21.754266 276.084263 21.953846 278.247924 22.153427 280.406756 22.353007 282.560671 22.552587 284.709581 22.752168 286.853399 22.951748 288.992037 23.151329 291.125407 23.350909 293.253420 23.550490 295.375990 23.750070 297.493029 23.949650 299.604448 24.149231 301.710161 24.348811 303.810078 24.548392 305.904113 24.747972 307.992177 24.947552 310.074183 25.147133 312.150043 25.346713 314.219669 25.546294 316.282973 25.745874 318.339868 25.945455 320.390266 26.145035 322.434078 26.344615 324.471218 26.544196 326.501597 26.743776 328.525128 26.943357 330.541722 27.142937 332.551292 27.342517 334.553750 27.542098 336.549009 27.741678 338.536980 27.941259 340.517575 28.140839 342.490708 28.340420 344.456290 28.540000 346.414233 28.739580 348.364450 28.939161 350.306852 29.138741 352.241352 29.338322 354.167862 29.537902 356.086295 29.737483 357.996562 29.937063 359.898576 30.136643 361.792249 30.336224 363.677493 30.535804 365.554220 30.735385 367.422342 30.934965 369.281773 31.134545 371.132423 31.334126 372.974205 31.533706 374.807032 31.733287 376.630815 31.932867 378.445466 32.132448 380.250899 32.332028 382.047025 32.531608 383.833756 32.731189 385.611004 32.930769 387.378683 33.130350 389.136703 33.329930 390.884977 33.529510 392.623417 33.729091 394.351936 33.928671 396.070446 34.128252 397.778858 34.327832 399.477086 34.527413 401.165041 34.726993 402.842635 34.926573 404.509781 35.126154 406.166391 35.325734 407.812377 35.525315 409.447651 35.724895 411.072126 35.924476 412.685713 36.124056 414.288325 36.323636 415.879874 36.523217 417.460273 36.722797 419.029433 36.922378 420.587267 37.121958 422.133686 37.321538 423.668604 37.521119 425.191932 37.720699 426.703582 37.920280 428.203467 38.119860 429.691499 38.319441 431.167590 38.519021 432.631652 38.718601 434.083597 38.918182 435.523338 39.117762 436.950788 39.317343 438.365857 39.516923 439.768458 39.716503 441.158504 39.916084 442.535906 40.115664 443.900578 40.315245 445.252430 40.514825 446.591376 40.714406 447.917327 40.913986 449.230195 41.113566 450.529894 41.313147 451.816335 41.512727 453.089429 41.712308 454.349091 41.911888 455.595231 42.111469 456.827761 42.311049 458.046595 42.510629 459.251644 42.710210 460.442820 42.909790 461.620036 43.109371 462.783204 43.308951 463.932236 43.508531 465.067044 43.708112 466.187541 43.907692 467.293638 44.107273 468.385248 44.306853 469.462283 44.506434 470.524656 44.706014 471.572277 44.905594 472.605061 45.105175 473.622918 45.304755 474.625761 45.504336 475.613502 45.703916 476.586054 45.903497 477.543328 46.103077 478.485238 46.302657 479.411694 46.502238 480.322609 46.701818 481.217896 46.901399 482.097467 47.100979 482.961233 47.300559 483.809107 47.500140 484.641002 47.699720 485.456829 47.899301 486.256500 48.098881 487.039928 48.298462 487.807026 48.498042 488.557704 48.697622 489.291876 48.897203 490.009454 49.096783 490.710349 49.296364 491.394474 49.495944 492.061742 49.695524 492.712064 49.895105 493.345352 50.094685 493.961519 50.294266 494.560478 50.493846 495.142139 50.693427 495.706416 50.893007 496.253220 51.092587 496.782465 51.292168 497.294061 51.491748 497.787921 51.691329 498.263958 51.890909 498.722083 52.090490 499.162210 52.290070 499.584249 52.489650 499.988113 52.689231 500.373715 52.888811 500.740966 53.088392 501.089779 53.287972 501.420066 53.487552 501.731739 53.687133 502.024711 53.886713 502.298893 54.086294 502.554198 54.285874 502.790538 54.485455 503.007825 54.685035 503.205971 54.884615 503.384889 55.084196 503.544491 55.283776 503.684689 55.483357 503.805395 55.682937 503.906521 55.882517 503.987980 56.082098 504.049683 56.281678 504.091544 56.481259 504.113474 56.680839 504.115385 56.880420 504.097189 57.080000 504.058800 57.279580 504.000128 57.479161 503.921086 57.678741 503.821587 57.878322 503.701543 58.077902 503.560865 58.277483 503.399466 58.477063 503.217258 58.676643 503.014154 58.876224 502.790065 59.075804 502.544904 59.275385 502.278582 59.474965 501.991013 59.674545 501.682109 59.874126 501.351781 60.073706 500.999941 60.273287 500.626503 60.472867 500.231377 60.672448 499.814477 60.872028 499.375715 61.071608 498.915047 61.271189 498.432611 61.470769 497.928588 61.670350 497.403159 61.869930 496.856507 62.069510 496.288814 62.269091 495.700261 62.468671 495.091029 62.668252 494.461301 62.867832 493.811258 63.067413 493.141082 63.266993 492.450954 63.466573 491.741057 63.666154 491.011572 63.865734 490.262680 64.065315 489.494564 64.264895 488.707406 64.464476 487.901386 64.664056 487.076686 64.863636 486.233489 65.063217 485.371977 65.262797 484.492329 65.462378 483.594730 65.661958 482.679359 65.861538 481.746400 66.061119 480.796033 66.260699 479.828440 66.460280 478.843803 66.659860 477.842304 66.859441 476.824125 67.059021 475.789447 67.258601 474.738452 67.458182 473.671321 67.657762 472.588237 67.857343 471.489380 68.056923 470.374934 68.256503 469.245079 68.456084 468.099997 68.655664 466.939870 68.855245 465.764880 69.054825 464.575208 69.254406 463.371036 69.453986 462.152546 69.653566 460.919919 69.853147 459.673338 70.052727 458.412983 70.252308 457.139037 70.451888 455.851682 70.651469 454.551099 70.851049 453.237469 71.050629 451.910975 71.250210 450.571798 71.449790 449.220120 71.649371 447.856122 71.848951 446.479987 72.048531 445.091896 72.248112 443.692031 72.447692 442.280574 72.647273 440.857705 72.846853 439.423608 73.046434 437.978463 73.246014 436.522452 73.445594 435.055758 73.645175 433.578561 73.844755 432.091044 74.044336 430.593388 74.243916 429.085775 74.443497 427.568387 74.643077 426.041405 74.842657 424.505011 75.042238 422.959387 75.241818 421.404715 75.441399 419.841175 75.640979 418.268951 75.840559 416.688223 76.040140 415.099174 76.239720 413.501985 76.439301 411.896837 76.638881 410.283913 76.838462 408.663395 77.038042 407.035463 77.237622 405.400300 77.437203 403.758087 77.636783 402.109007 77.836364 400.453240 78.035944 398.790969 78.235524 397.122375 78.435105 395.447640 78.634685 393.766946 78.834266 392.080474 79.033846 390.388406 79.233427 388.690924 79.433007 386.988209 79.632587 385.280444 79.832168 383.567810 80.031748 381.850488 80.231329 380.128661 80.430909 378.402510 80.630490 376.672217 80.830070 374.937963 81.029650 373.199931 81.229231 371.458301 81.428811 369.713256 81.628392 367.964978 81.827972 366.213648 82.027552 364.459447 82.227133 362.702558 82.426713 360.943163 82.626294 359.181442 82.825874 357.417578 83.025455 355.651753 83.225035 353.884147 83.424615 352.114944 83.624196 350.344324 83.823776 348.572469 84.023357 346.799561 84.222937 345.025782 84.422517 343.251313 84.622098 341.476337 84.821678 339.701034 85.021259 337.925587 85.220839 336.150177 85.420420 334.374986 85.620000 332.600196 85.819580 330.825989 86.019161 329.052545 86.218741 327.280047 86.418322 325.508677 86.617902 323.738616 86.817483 321.970046 87.017063 320.203149 87.216643 318.438107 87.416224 316.675100 87.615804 314.914311 87.815385 313.155922 88.014965 311.400114 88.214545 309.647069 88.414126 307.896969 88.613706 306.149996 88.813287 304.406330 89.012867 302.666154 89.212448 300.929650 89.412028 299.197000 89.611608 297.468384 89.811189 295.743985 90.010769 294.023984 90.210350 292.308564 90.409930 290.597905 90.609510 288.892190 90.809091 287.191600 91.008671 285.496318 91.208252 283.806524 91.407832 282.122400 91.607413 280.444129 91.806993 278.771892 92.006573 277.105870 92.206154 275.446245 92.405734 273.793200 92.605315 272.146915 92.804895 270.507573 93.004476 268.875354 93.204056 267.250442 93.403636 265.633018 93.603217 264.023262 93.802797 262.421358 94.002378 260.827486 94.201958 259.241829 94.401538 257.664568 94.601119 256.095885 94.800699 254.535962 95.000280 252.984980 95.199860 251.443121 95.399441 249.910566 95.599021 248.387499 95.798601 246.874099 95.998182 245.370549 96.197762 243.877031 96.397343 242.393726 96.596923 240.920816 96.796503 239.458483 96.996084 238.006909 97.195664 236.566275 97.395245 235.136762 97.594825 233.718553 97.794406 232.311830 97.993986 230.916773 98.193566 229.533566 98.393147 228.162389 98.592727 226.803424 98.792308 225.456853 98.991888 224.122857 99.191469 222.801619 99.391049 221.493320 99.590629 220.198142 99.790210 218.916266 99.989790 217.647874 100.189371 216.393149 100.388951 215.152271 100.588531 213.925422 100.788112 212.712784 100.987692 211.514540 101.187273 210.330869 101.386853 209.161955 101.586434 208.007979 101.786014 206.869122 101.985594 205.745567 102.185175 204.637495 102.384755 203.545088 102.584336 202.468527 102.783916 201.407994 102.983497 200.363672 103.183077 199.335741 103.382657 198.324383 103.582238 197.329780 103.781818 196.352114 103.981399 195.391567 104.180979 194.448320 104.380559 193.522555 104.580140 192.614453 104.779720 191.724197 104.979301 190.851968 105.178881 189.997948 105.378462 189.162318 105.578042 188.345261 105.777622 187.546957 105.977203 186.767589 106.176783 186.007339 106.376364 185.266388 106.575944 184.544917 106.775524 183.843109 106.975105 183.161145 107.174685 182.499207 107.374266 181.857477 107.573846 181.236136 107.773427 180.635366 107.973007 180.055349 108.172587 179.496267 108.372168 178.958301 108.571748 178.441633 108.771329 177.946444 108.970909 177.472917 109.170490 177.021233 109.370070 176.591574 109.569650 176.184121 109.769231 175.799057 109.968811 175.436562 110.168392 175.096819 110.367972 174.780010 110.567552 174.486316 110.767133 174.215918 110.966713 173.968944 111.166294 173.745295 111.365874 173.544821 111.565455 173.367369 111.765035 173.212786 111.964615 173.080921 112.164196 172.971621 112.363776 172.884734 112.563357 172.820107 112.762937 172.777589 112.962517 172.757028 113.162098 172.758270 113.361678 172.781164 113.561259 172.825558 113.760839 172.891299 113.960420 172.978236 114.160000 173.086215 114.359580 173.215085 114.559161 173.364693 114.758741 173.534888 114.958322 173.725517 115.157902 173.936427 115.357483 174.167467 115.557063 174.418484 115.756643 174.689327 115.956224 174.979842 116.155804 175.289878 116.355385 175.619282 116.554965 175.967903 116.754545 176.335588 116.954126 176.722184 117.153706 177.127540 117.353287 177.551503 117.552867 177.993921 117.752448 178.454642 117.952028 178.933513 118.151608 179.430383 118.351189 179.945099 118.550769 180.477509 118.750350 181.027461 118.949930 181.594802 119.149510 182.179381 119.349091 182.781044 119.548671 183.399641 119.748252 184.035018 119.947832 184.687023 120.147413 185.355504 120.346993 186.040309 120.546573 186.741286 120.746154 187.458282 120.945734 188.191146 121.145315 188.939724 121.344895 189.703866 121.544476 190.483417 121.744056 191.278227 121.943636 192.088144 122.143217 192.913014 122.342797 193.752685 122.542378 194.607006 122.741958 195.475824 122.941538 196.358988 123.141119 197.256343 123.340699 198.167740 123.540280 199.093024 123.739860 200.032045 123.939441 200.984649 124.139021 201.950685 124.338601 202.930001 124.538182 203.922443 124.737762 204.927861 124.937343 205.946101 125.136923 206.977011 125.336503 208.020440 125.536084 209.076235 125.735664 210.144243 125.935245 211.224313 126.134825 212.316293 126.334406 213.420029 126.533986 214.535370 126.733566 215.662164 126.933147 216.800259 127.132727 217.949501 127.332308 219.109740 127.531888 220.280822 127.731469 221.462596 127.931049 222.654909 128.130629 223.857609 128.330210 225.070544 128.529790 226.293561 128.729371 227.526509 128.928951 228.769235 129.128531 230.021587 129.328112 231.283413 129.527692 232.554560 129.727273 233.834876 129.926853 235.124209 130.126434 236.422407 130.326014 237.729318 130.525594 239.044789 130.725175 240.368668 130.924755 241.700803 131.124336 243.041042 131.323916 244.389232 131.523497 245.745221 131.723077 247.108857 131.922657 248.479988 132.122238 249.858461 132.321818 251.244125 132.521399 252.636827 132.720979 254.036414 132.920559 255.442736 133.120140 256.855638 133.319720 258.274970 133.519301 259.700579 133.718881 261.132312 133.918462 262.570018 134.118042 264.013544 134.317622 265.462738 134.517203 266.917448 134.716783 268.377522 134.916364 269.842807 135.115944 271.313151 135.315524 272.788402 135.515105 274.268407 135.714685 275.753015 135.914266 277.242073 136.113846 278.735429 136.313427 280.232931 136.513007 281.734427 136.712587 283.239764 136.912168 284.748789 137.111748 286.261352 137.311329 287.777299 137.510909 289.296479 137.710490 290.818739 137.910070 292.343927 138.109650 293.871890 138.309231 295.402477 138.508811 296.935536 138.708392 298.470913 138.907972 300.008457 139.107552 301.548016 139.307133 303.089437 139.506713 304.632568 139.706294 306.177257 139.905874 307.723352 140.105455 309.270700 140.305035 310.819150 140.504615 312.368548 140.704196 313.918743 140.903776 315.469583 141.103357 317.020915 141.302937 318.572587 141.502517 320.124447 141.702098 321.676343 141.901678 323.228122 142.101259 324.779632 142.300839 326.330722 142.500420 327.881237 142.700000 329.431028 142.899580 330.979941 143.099161 332.527823 143.298741 334.074524 143.498322 335.619890 143.697902 337.163770 143.897483 338.706011 144.097063 340.246460 144.296643 341.784966 144.496224 343.321377 144.695804 344.855540 144.895385 346.387303 145.094965 347.916514 145.294545 349.443020 145.494126 350.966670 145.693706 352.487311 145.893287 354.004791 146.092867 355.518957 146.292448 357.029658 146.492028 358.536741 146.691608 360.040054 146.891189 361.539444 147.090769 363.034760 147.290350 364.525850 147.489930 366.012560 147.689510 367.494740 147.889091 368.972236 148.088671 370.444896 148.288252 371.912569 148.487832 373.375101 148.687413 374.832341 148.886993 376.284137 149.086573 377.730336 149.286154 379.170786 149.485734 380.605334 149.685315 382.033830 149.884895 383.456119 150.084476 384.872051 150.284056 386.281473 150.483636 387.684232 150.683217 389.080177 150.882797 390.469155 151.082378 391.851014 151.281958 393.225601 151.481538 394.592765 151.681119 395.952354 151.880699 397.304215 152.080280 398.648195 152.279860 399.984143 152.479441 401.311907 152.679021 402.631333 152.878601 403.942271 153.078182 405.244567 153.277762 406.538070 153.477343 407.822627 153.676923 409.098086 153.876503 410.364295 154.076084 411.621101 154.275664 412.868353 154.475245 414.105898 154.674825 415.333584 154.874406 416.551259 155.073986 417.758770 155.273566 418.955965 155.473147 420.142692 155.672727 421.318799 155.872308 422.484134 156.071888 423.638543 156.271469 424.781876 156.471049 425.913980 156.670629 427.034703 156.870210 428.143892 157.069790 429.241395 157.269371 430.327060 157.468951 431.400734 157.668531 432.462267 157.868112 433.511504 158.067692 434.548295 158.267273 435.572486 158.466853 436.583926 158.666434 437.582462 158.866014 438.567943 159.065594 439.540215 159.265175 440.499127 159.464755 441.444527 159.664336 442.376262 159.863916 443.294180 160.063497 444.198128 160.263077 445.087956 160.462657 445.963509 160.662238 446.824637 160.861818 447.671220 161.061399 448.503275 161.260979 449.320852 161.460559 450.124002 161.660140 450.912773 161.859720 451.687217 162.059301 452.447383 162.258881 453.193322 162.458462 453.925083 162.658042 454.642717 162.857622 455.346274 163.057203 456.035803 163.256783 456.711356 163.456364 457.372981 163.655944 458.020729 163.855524 458.654651 164.055105 459.274796 164.254685 459.881214 164.454266 460.473955 164.653846 461.053070 164.853427 461.618609 165.053007 462.170621 165.252587 462.709157 165.452168 463.234267 165.651748 463.746001 165.851329 464.244408 166.050909 464.729540 166.250490 465.201446 166.450070 465.660177 166.649650 466.105781 166.849231 466.538310 167.048811 466.957814 167.248392 467.364342 167.447972 467.757944 167.647552 468.138672 167.847133 468.506574 168.046713 468.861702 168.246294 469.204104 168.445874 469.533831 168.645455 469.850934 168.845035 470.155462 169.044615 470.447465 169.244196 470.726994 169.443776 470.994098 169.643357 471.248828 169.842937 471.491234 170.042517 471.721365 170.242098 471.939272 170.441678 472.145005 170.641259 472.338614 170.840839 472.520150 171.040420 472.689661 171.240000 472.847199 171.439580 472.992813 171.639161 473.126554 171.838741 473.248471 172.038322 473.358615 172.237902 473.457035 172.437483 473.543782 172.637063 473.618907 172.836643 473.682458 173.036224 473.734486 173.235804 473.775041 173.435385 473.804174 173.634965 473.821934 173.834545 473.828371 174.034126 473.823536 174.233706 473.807478 174.433287 473.780248 174.632867 473.741896 174.832448 473.692471 175.032028 473.632025 175.231608 473.560606 175.431189 473.478266 175.630769 473.385053 175.830350 473.281019 176.029930 473.166213 176.229510 473.040686 176.429091 472.904487 176.628671 472.757667 176.828252 472.600275 177.027832 472.432362 177.227413 472.253978 177.426993 472.065173 177.626573 471.865997 177.826154 471.656500 178.025734 471.436732 178.225315 471.206743 178.424895 470.966584 178.624476 470.716304 178.824056 470.455954 179.023636 470.185583 179.223217 469.905242 179.422797 469.614981 179.622378 469.314849 179.821958 469.004898 180.021538 468.685176 180.221119 468.355735 180.420699 468.016624 180.620280 467.667893 180.819860 467.309592 181.019441 466.941772 181.219021 466.564483 181.418601 466.177774 181.618182 465.781696 181.817762 465.376298 182.017343 464.961632 182.216923 464.537746 182.416503 464.104692 182.616084 463.662518 182.815664 463.211276 183.015245 462.751015 183.214825 462.281785 183.414406 461.803637 183.613986 461.316621 183.813566 460.820786 184.013147 460.316183 184.212727 459.802861 184.412308 459.280872 184.611888 458.750264 184.811469 458.211089 185.011049 457.663396 185.210629 457.107235 185.410210 456.542656 185.609790 455.969710 185.809371 455.388446 186.008951 454.798914 186.208531 454.201166 186.408112 453.595250 186.607692 452.981217 186.807273 452.359117 187.006853 451.728999 187.206434 451.090915 187.406014 450.444914 187.605594 449.791047 187.805175 449.129362 188.004755 448.459911 188.204336 447.782744 188.403916 447.097910 188.603497 446.405460 188.803077 445.705443 189.002657 444.997911 189.202238 444.282912 189.401818 443.560498 189.601399 442.830717 189.800979 442.093621 190.000559 441.349259 190.200140 440.597681 190.399720 439.838937 190.599301 439.073079 190.798881 438.300154 190.998462 437.520215 191.198042 436.733310 191.397622 435.939490 191.597203 435.138805 191.796783 434.331306 191.996364 433.517041 192.195944 432.696061 192.395524 431.868417 192.595105 431.034158 192.794685 430.193334 192.994266 429.345997 193.193846 428.492194 193.393427 427.631978 193.593007 426.765397 193.792587 425.892502 193.992168 425.013343 194.191748 424.127970 194.391329 423.236433 194.590909 422.338783 194.790490 421.435068 194.990070 420.525340 195.189650 419.609649 195.389231 418.688044 195.588811 417.760576 195.788392 416.827295 195.987972 415.888250 196.187552 414.943492 196.387133 413.993071 196.586713 413.037038 196.786294 412.075441 196.985874 411.108332 197.185455 410.135760 197.385035 409.157775 197.584615 408.174428 197.784196 407.185768 197.983776 406.191846 198.183357 405.192712 198.382937 404.188416 198.582517 403.179008 198.782098 402.164537 198.981678 401.145055 199.181259 400.120611 199.380839 399.091255 199.580420 398.057037 199.780000 397.018008 199.979580 395.974217 200.179161 394.925715 200.378741 393.872552 200.578322 392.814777 200.777902 391.752442 200.977483 390.685595 201.177063 389.614287 201.376643 388.538568 201.576224 387.458489 201.775804 386.374099 201.975385 385.285448 202.174965 384.192586 202.374545 383.095564 202.574126 381.994432 202.773706 380.889239 202.973287 379.780037 203.172867 378.666874 203.372448 377.549801 203.572028 376.428868 203.771608 375.304125 203.971189 374.175622 204.170769 373.043410 204.370350 371.907538 204.569930 370.768056 204.769510 369.625015 204.969091 368.478465 205.168671 367.328455 205.368252 366.175037 205.567832 365.018259 205.767413 363.858172 205.966993 362.694826 206.166573 361.528271 206.366154 360.358557 206.565734 359.185735 206.765315 358.009854 206.964895 356.830965 207.164476 355.649117 207.364056 354.464361 207.563636 353.276746 207.763217 352.086324 207.962797 350.893143 208.162378 349.697254 208.361958 348.498708 208.561538 347.297553 208.761119 346.093841 208.960699 344.887621 209.160280 343.678943 209.359860 342.467858 209.559441 341.254416 209.759021 340.038666 209.958601 338.820659 210.158182 337.600445 210.357762 336.378074 210.557343 335.153595 210.756923 333.927058 210.956503 332.698505 211.156084 331.467975 211.355664 330.235508 211.555245 329.001145 211.754825 327.764927 211.954406 326.526892 212.153986 325.287082 212.353566 324.045536 212.553147 322.802295 212.752727 321.557398 212.952308 320.310887 213.151888 319.062800 213.351469 317.813180 213.551049 316.562064 213.750629 315.309494 213.950210 314.055511 214.149790 312.800153 214.349371 311.543461 214.548951 310.285476 214.748531 309.026237 214.948112 307.765785 215.147692 306.504160 215.347273 305.241402 215.546853 303.977551 215.746434 302.712648 215.946014 301.446732 216.145594 300.179844 216.345175 298.912024 216.544755 297.643312 216.744336 296.373749 216.943916 295.103374 217.143497 293.832227 217.343077 292.560349 217.542657 291.287780 217.742238 290.014561 217.941818 288.740730 218.141399 287.466330 218.340979 286.191398 218.540559 284.915977 218.740140 283.640106 218.939720 282.363825 219.139301 281.087174 219.338881 279.810194 219.538462 278.532924 219.738042 277.255405 219.937622 275.977678 220.137203 274.699781 220.336783 273.421756 220.536364 272.143643 220.735944 270.865481 220.935524 269.587312 221.135105 268.309174 221.334685 267.031109 221.534266 265.753156 221.733846 264.475355 221.933427 263.197748 222.133007 261.920373 222.332587 260.643272 222.532168 259.366483 222.731748 258.090049 222.931329 256.814008 223.130909 255.538400 223.330490 254.263267 223.530070 252.988648 223.729650 251.714583 223.929231 250.441113 224.128811 249.168278 224.328392 247.896117 224.527972 246.624671 224.727552 245.353981 224.927133 244.084086 225.126713 242.815026 225.326294 241.546842 225.525874 240.279574 225.725455 239.013263 225.925035 237.747947 226.124615 236.483668 226.324196 235.220465 226.523776 233.958379 226.723357 232.697451 226.922937 231.437719 227.122517 230.179224 227.322098 228.922007 227.521678 227.666108 227.721259 226.411566 227.920839 225.158423 228.120420 223.906717 228.320000 222.656490 228.519580 221.407781 228.719161 220.160631 228.918741 218.915080 229.118322 217.671168 229.317902 216.428935 229.517483 215.188421 229.717063 213.949667 229.916643 212.712713 230.116224 211.477598 230.315804 210.244364 230.515385 209.013050 230.714965 207.783696 230.914545 206.556343 231.114126 205.331030 231.313706 204.107799 231.513287 202.886688 231.712867 201.667739 231.912448 200.450991 232.112028 199.236485 232.311608 198.024260 232.511189 196.814358 232.710769 195.606818 232.910350 194.401680 233.109930 193.198984 233.309510 191.998771 233.509091 190.801081 233.708671 189.605954 233.908252 188.413430 234.107832 187.223549 234.307413 186.036352 234.506993 184.851879 234.706573 183.670169 234.906154 182.491264 235.105734 181.315203 235.305315 180.142026 235.504895 178.971773 235.704476 177.804486 235.904056 176.640203 236.103636 175.478965 236.303217 174.320813 236.502797 173.165786 236.702378 172.013924 236.901958 170.865269 237.101538 169.719859 237.301119 168.577735 237.500699 167.438938 237.700280 166.303507 237.899860 165.171483 238.099441 164.042905 238.299021 162.917815 238.498601 161.796252 238.698182 160.678256 238.897762 159.563867 239.097343 158.453126 239.296923 157.346073 239.496503 156.242748 239.696084 155.143191 239.895664 154.047443 240.095245 152.955543 240.294825 151.867532 240.494406 150.783449 240.693986 149.703336 240.893566 148.627232 241.093147 147.555177 241.292727 146.487212 241.492308 145.423377 241.691888 144.363711 241.891469 143.308256 242.091049 142.257051 242.290629 141.210136 242.490210 140.167552 242.689790 139.129339 242.889371 138.095537 243.088951 137.066185 243.288531 136.041325 243.488112 135.020997 243.687692 134.005240 243.887273 132.994095 244.086853 131.987602 244.286434 130.985802 244.486014 129.988733 244.685594 128.996437 244.885175 128.008954 245.084755 127.026323 245.284336 126.048586 245.483916 125.075782 245.683497 124.107951 245.883077 123.145134 246.082657 122.187370 246.282238 121.234701 246.481818 120.287165 246.681399 119.344804 246.880979 118.407657 247.080559 117.475765 247.280140 116.549167 247.479720 115.627905 247.679301 114.712017 247.878881 113.801545 248.078462 112.896528 248.278042 111.997007 248.477622 111.103022 248.677203 110.214612 248.876783 109.331819 249.076364 108.454682 249.275944 107.583242 249.475524 106.717538 249.675105 105.857611 249.874685 105.003501 250.074266 104.155248 250.273846 103.312893 250.473427 102.476475 250.673007 101.646035 250.872587 100.821613 251.072168 100.003249 251.271748 99.190983 251.471329 98.384855 251.670909 97.584906 251.870490 96.791176 252.070070 96.003705 252.269650 95.222532 252.469231 94.447699 252.668811 93.679246 252.868392 92.917212 253.067972 92.161638 253.267552 91.412564 253.467133 90.670030 253.666713 89.934076 253.866294 89.204742 254.065874 88.482070 254.265455 87.766098 254.465035 87.056867 254.664615 86.354417 254.864196 85.658789 255.063776 84.970022 255.263357 84.288157 255.462937 83.613234 255.662517 82.945293 255.862098 82.284374 256.061678 81.630517 256.261259 80.983763 256.460839 80.344151 256.660420 79.711723 256.860000 79.086517 257.059580 78.468575 257.259161 77.857936 257.458741 77.254641 257.658322 76.658730 257.857902 76.070242 258.057483 75.489219 258.257063 74.915700 258.456643 74.349725 258.656224 73.791335 258.855804 73.240570 259.055385 72.697470 259.254965 72.162075 259.454545 71.634425 259.654126 71.114560 259.853706 70.602522 260.053287 70.098349 260.252867 69.602082 260.452448 69.113762 260.652028 68.633412 260.851608 68.160999 261.051189 67.696470 261.250769 67.239776 261.450350 66.790866 261.649930 66.349690 261.849510 65.916196 262.049091 65.490334 262.248671 65.072054 262.448252 64.661305 262.647832 64.258036 262.847413 63.862197 263.046993 63.473737 263.246573 63.092605 263.446154 62.718752 263.645734 62.352126 263.845315 61.992676 264.044895 61.640353 264.244476 61.295105 264.444056 60.956882 264.643636 60.625634 264.843217 60.301309 265.042797 59.983857 265.242378 59.673228 265.441958 59.369371 265.641538 59.072235 265.841119 58.781770 266.040699 58.497925 266.240280 58.220649 266.439860 57.949893 266.639441 57.685604 266.839021 57.427734 267.038601 57.176230 267.238182 56.931043 267.437762 56.692122 267.637343 56.459416 267.836923 56.232875 268.036503 56.012448 268.236084 55.798085 268.435664 55.589734 268.635245 55.387346 268.834825 55.190870 269.034406 55.000254 269.233986 54.815449 269.433566 54.636404 269.633147 54.463068 269.832727 54.295391 270.032308 54.133322 270.231888 53.976811 270.431469 53.825806 270.631049 53.680258 270.830629 53.540115 271.030210 53.405328 271.229790 53.275845 271.429371 53.151615 271.628951 53.032590 271.828531 52.918716 272.028112 52.809945 272.227692 52.706225 272.427273 52.607507 272.626853 52.513738 272.826434 52.424869 273.026014 52.340849 273.225594 52.261628 273.425175 52.187155 273.624755 52.117378 273.824336 52.052249 274.023916 51.991715 274.223497 51.935727 274.423077 51.884234 274.622657 51.837185 274.822238 51.794530 275.021818 51.756218 275.221399 51.722198 275.420979 51.692420 275.620559 51.666833 275.820140 51.645387 276.019720 51.628031 276.219301 51.614715 276.418881 51.605387 276.618462 51.599998 276.818042 51.598496 277.017622 51.600831 277.217203 51.606953 277.416783 51.616810 277.616364 51.630353 277.815944 51.647531 278.015524 51.668292 278.215105 51.692587 278.414685 51.720365 278.614266 51.751574 278.813846 51.786166 279.013427 51.824089 279.213007 51.865292 279.412587 51.909724 279.612168 51.957336 279.811748 52.008077 280.011329 52.061896 280.210909 52.118742 280.410490 52.178565 280.610070 52.241314 280.809650 52.306939 281.009231 52.375388 281.208811 52.446612 281.408392 52.520560 281.607972 52.597181 281.807552 52.676425 282.007133 52.758241 282.206713 52.842578 282.406294 52.929386 282.605874 53.018614 282.805455 53.110212 283.005035 53.204129 283.204615 53.300314 283.404196 53.398717 283.603776 53.499287 283.803357 53.601974 284.002937 53.706727 284.202517 53.813495 284.402098 53.922228 284.601678 54.032875 284.801259 54.145385 285.000839 54.259709 285.200420 54.375795 285.400000 54.493593 285.599580 54.613052 285.799161 54.734121 285.998741 54.856751 286.198322 54.980890 286.397902 55.106487 286.597483 55.233493 286.797063 55.361857 286.996643 55.491527 287.196224 55.622454 287.395804 55.754586 287.595385 55.887874 287.794965 56.022266 287.994545 56.157712 288.194126 56.294162 288.393706 56.431564 288.593287 56.569869 288.792867 56.709025 288.992448 56.848982 289.192028 56.989689 289.391608 57.131096 289.591189 57.273152 289.790769 57.415807 289.990350 57.559010 290.189930 57.702710 290.389510 57.846857 290.589091 57.991399 290.788671 58.136288 290.988252 58.281471 291.187832 58.426899 291.387413 58.572521 291.586993 58.718285 291.786573 58.864142 291.986154 59.010041 292.185734 59.155932 292.385315 59.301763 292.584895 59.447484 292.784476 59.593045 292.984056 59.738395 293.183636 59.883483 293.383217 60.028259 293.582797 60.172672 293.782378 60.316671 293.981958 60.460206 294.181538 60.603227 294.381119 60.745682 294.580699 60.887522 294.780280 61.028695 294.979860 61.169151 295.179441 61.308839 295.379021 61.447709 295.578601 61.585710 295.778182 61.722791 295.977762 61.858903 296.177343 61.993993 296.376923 62.128013 296.576503 62.260910 296.776084 62.392635 296.975664 62.523137 297.175245 62.652365 297.374825 62.780269 297.574406 62.906798 297.773986 63.031902 297.973566 63.155529 298.173147 63.277630 298.372727 63.398153 298.572308 63.517048 298.771888 63.634265 298.971469 63.749753 299.171049 63.863461 299.370629 63.975339 299.570210 64.085336 299.769790 64.193401 299.969371 64.299484 300.168951 64.403534 300.368531 64.505501 300.568112 64.605335 300.767692 64.702983 300.967273 64.798397 301.166853 64.891525 301.366434 64.982316 301.566014 65.070720 301.765594 65.156687 301.965175 65.240166 302.164755 65.321106 302.364336 65.399457 302.563916 65.475168 302.763497 65.548188 302.963077 65.618467 303.162657 65.685954 303.362238 65.750599 303.561818 65.812351 303.761399 65.871160 303.960979 65.926974 304.160559 65.979744 304.360140 66.029418 304.559720 66.075946 304.759301 66.119278 304.958881 66.159362 305.158462 66.196149 305.358042 66.229588 305.557622 66.259627 305.757203 66.286217 305.956783 66.309306 306.156364 66.328845 306.355944 66.344783 306.555524 66.357068 306.755105 66.365651 306.954685 66.370481 307.154266 66.371507 307.353846 66.368679 307.553427 66.361946 307.753007 66.351257 307.952587 66.336562 308.152168 66.317810 308.351748 66.294951 308.551329 66.267933 308.750909 66.236707 308.950490 66.201222 309.150070 66.161428 309.349650 66.117272 309.549231 66.068706 309.748811 66.015678 309.948392 65.958138 310.147972 65.896035 310.347552 65.829319 310.547133 65.757955 310.746713 65.681972 310.946294 65.601414 311.145874 65.516327 311.345455 65.426756 311.545035 65.332746 311.744615 65.234342 311.944196 65.131588 312.143776 65.024529 312.343357 64.913211 312.542937 64.797678 312.742517 64.677976 312.942098 64.554149 313.141678 64.426242 313.341259 64.294300 313.540839 64.158368 313.740420 64.018492 313.940000 63.874715 314.139580 63.727083 314.339161 63.575641 314.538741 63.420434 314.738322 63.261506 314.937902 63.098904 315.137483 62.932670 315.337063 62.762852 315.536643 62.589492 315.736224 62.412637 315.935804 62.232332 316.135385 62.048620 316.334965 61.861548 316.534545 61.671161 316.734126 61.477502 316.933706 61.280617 317.133287 61.080551 317.332867 60.877349 317.532448 60.671056 317.732028 60.461717 317.931608 60.249377 318.131189 60.034080 318.330769 59.815871 318.530350 59.594797 318.729930 59.370901 318.929510 59.144228 319.129091 58.914823 319.328671 58.682732 319.528252 58.447999 319.727832 58.210670 319.927413 57.970788 320.126993 57.728400 320.326573 57.483549 320.526154 57.236281 320.725734 56.986642 320.925315 56.734675 321.124895 56.480426 321.324476 56.223939 321.524056 55.965260 321.723636 55.704434 321.923217 55.441505 322.122797 55.176519 322.322378 54.909520 322.521958 54.640553 322.721538 54.369664 322.921119 54.096896 323.120699 53.822296 323.320280 53.545908 323.519860 53.267777 323.719441 52.987948 323.919021 52.706466 324.118601 52.423376 324.318182 52.138722 324.517762 51.852550 324.717343 51.564905 324.916923 51.275832 325.116503 50.985374 325.316084 50.693579 325.515664 50.400490 325.715245 50.106152 325.914825 49.810610 326.114406 49.513910 326.313986 49.216095 326.513566 48.917212 326.713147 48.617305 326.912727 48.316419 327.112308 48.014599 327.311888 47.711889 327.511469 47.408336 327.711049 47.103983 327.910629 46.798875 328.110210 46.493059 328.309790 46.186578 328.509371 45.879477 328.708951 45.571802 328.908531 45.263597 329.108112 44.954907 329.307692 44.645778 329.507273 44.336254 329.706853 44.026380 329.906434 43.716201 330.106014 43.405762 330.305594 43.095108 330.505175 42.784284 330.704755 42.473334 330.904336 42.162305 331.103916 41.851240 331.303497 41.540184 331.503077 41.229184 331.702657 40.918282 331.902238 40.607525 332.101818 40.296958 332.301399 39.986625 332.500979 39.676571 332.700559 39.366841 332.900140 39.057481 333.099720 38.748534 333.299301 38.440047 333.498881 38.132063 333.698462 37.824628 333.898042 37.517787 334.097622 37.211585 334.297203 36.906067 334.496783 36.601277 334.696364 36.297261 334.895944 35.994063 335.095524 35.691729 335.295105 35.390303 335.494685 35.089831 335.694266 34.790357 335.893846 34.491926 336.093427 34.194583 336.293007 33.898373 336.492587 33.603342 336.692168 33.309533 336.891748 33.016992 337.091329 32.725764 337.290909 32.435894 337.490490 32.147426 337.690070 31.860406 337.889650 31.574879 338.089231 31.290889 338.288811 31.008482 338.488392 30.727702 338.687972 30.448595 338.887552 30.171205 339.087133 29.895577 339.286713 29.621756 339.486294 29.349787 339.685874 29.079716 339.885455 28.811586 340.085035 28.545443 340.284615 28.281333 340.484196 28.019299 340.683776 27.759386 340.883357 27.501641 341.082937 27.246107 341.282517 26.992829 341.482098 26.741853 341.681678 26.493224 341.881259 26.246985 342.080839 26.003184 342.280420 25.761863 342.480000 25.523069 342.679580 25.286845 342.879161 25.053238 343.078741 24.822292 343.278322 24.594052 343.477902 24.368562 343.677483 24.145869 343.877063 23.926016 344.076643 23.709049 344.276224 23.495012 344.475804 23.283951 344.675385 23.075911 344.874965 22.870936 345.074545 22.669071 345.274126 22.470362 345.473706 22.274853 345.673287 22.082590 345.872867 21.893616 346.072448 21.707977 346.272028 21.525719 346.471608 21.346885 346.671189 21.171522 346.870769 20.999673 347.070350 20.831384 347.269930 20.666700 347.469510 20.505665 347.669091 20.348325 347.868671 20.194725 348.068252 20.044909 348.267832 19.898922 348.467413 19.756810 348.666993 19.618617 348.866573 19.484388 349.066154 19.354168 349.265734 19.228003 349.465315 19.105936 349.664895 18.988014 349.864476 18.874280 350.064056 18.764781 350.263636 18.659560 350.463217 18.558662 350.662797 18.462134 350.862378 18.370019 351.061958 18.282363 351.261538 18.199210 351.461119 18.120606 351.660699 18.046594 351.860280 17.977222 352.059860 17.912532 352.259441 17.852571 352.459021 17.797383 352.658601 17.747013 352.858182 17.701506 353.057762 17.660906 353.257343 17.625260 353.456923 17.594612 353.656503 17.569006 353.856084 17.548488 354.055664 17.533102 354.255245 17.522895 354.454825 17.517909 354.654406 17.518191 354.853986 17.523786 355.053566 17.534738 355.253147 17.551092 355.452727 17.572893 355.652308 17.600187 355.851888 17.633017 356.051469 17.671430 356.251049 17.715469 356.450629 17.765180 356.650210 17.820609 356.849790 17.881799 357.049371 17.948795 357.248951 18.021644 357.448531 18.100389 357.648112 18.185075 357.847692 18.275748 358.047273 18.372453 358.246853 18.475233 358.446434 18.584135 358.646014 18.699203 358.845594 18.820483 359.045175 18.948018 359.244755 19.081855 359.444336 19.222037 359.643916 19.368611 359.843497 19.521620 360.043077 19.681110 360.242657 19.847126 360.442238 20.019698 360.641818 20.198803 360.841399 20.384402 361.040979 20.576457 361.240559 20.774928 361.440140 20.979779 361.639720 21.190970 361.839301 21.408464 362.038881 21.632222 362.238462 21.862205 362.438042 22.098375 362.637622 22.340694 362.837203 22.589124 363.036783 22.843626 363.236364 23.104161 363.435944 23.370693 363.635524 23.643181 363.835105 23.921588 364.034685 24.205876 364.234266 24.496006 364.433846 24.791939 364.633427 25.093638 364.833007 25.401064 365.032587 25.714179 365.232168 26.032944 365.431748 26.357321 365.631329 26.687272 365.830909 27.022758 366.030490 27.363741 366.230070 27.710183 366.429650 28.062046 366.629231 28.419290 366.828811 28.781878 367.028392 29.149771 367.227972 29.522931 367.427552 29.901319 367.627133 30.284898 367.826713 30.673629 368.026294 31.067473 368.225874 31.466393 368.425455 31.870349 368.625035 32.279304 368.824615 32.693219 369.024196 33.112056 369.223776 33.535777 369.423357 33.964342 369.622937 34.397715 369.822517 34.835856 370.022098 35.278727 370.221678 35.726289 370.421259 36.178505 370.620839 36.635337 370.820420 37.096744 371.020000 37.562691 371.219580 38.033137 371.419161 38.508045 371.618741 38.987376 371.818322 39.471093 372.017902 39.959156 372.217483 40.451527 372.417063 40.948169 372.616643 41.449042 372.816224 41.954108 373.015804 42.463329 373.215385 42.976667 373.414965 43.494083 373.614545 44.015538 373.814126 44.540996 374.013706 45.070416 374.213287 45.603762 374.412867 46.140994 374.612448 46.682074 374.812028 47.226964 375.011608 47.775626 375.211189 48.328020 375.410769 48.884110 375.610350 49.443855 375.809930 50.007219 376.009510 50.574163 376.209091 51.144648 376.408671 51.718636 376.608252 52.296089 376.807832 52.876968 377.007413 53.461236 377.206993 54.048853 377.406573 54.639781 377.606154 55.233982 377.805734 55.831418 378.005315 56.432051 378.204895 57.035841 378.404476 57.642751 378.604056 58.252742 378.803636 58.865776 379.003217 59.481814 379.202797 60.100819 379.402378 60.722752 379.601958 61.347574 379.801538 61.975248 380.001119 62.605734 380.200699 63.238995 380.400280 63.874992 380.599860 64.513687 380.799441 65.155041 380.999021 65.799017 381.198601 66.445575 381.398182 67.094677 381.597762 67.746286 381.797343 68.400363 381.996923 69.056869 382.196503 69.715766 382.396084 70.377015 382.595664 71.040579 382.795245 71.706419 382.994825 72.374497 383.194406 73.044774 383.393986 73.717212 383.593566 74.391773 383.793147 75.068418 383.992727 75.747109 384.192308 76.427807 384.391888 77.110475 384.591469 77.795074 384.791049 78.481565 384.990629 79.169911 385.190210 79.860072 385.389790 80.552011 385.589371 81.245689 385.788951 81.941068 385.988531 82.638110 386.188112 83.336775 386.387692 84.037027 386.587273 84.738826 386.786853 85.442134 386.986434 86.146913 387.186014 86.853124 387.385594 87.560729 387.585175 88.269690 387.784755 88.979969 387.984336 89.691526 388.183916 90.404325 388.383497 91.118325 388.583077 91.833490 388.782657 92.549780 388.982238 93.267158 389.181818 93.985584 389.381399 94.705021 389.580979 95.425431 389.780559 96.146774 389.980140 96.869014 390.179720 97.592110 390.379301 98.316025 390.578881 99.040721 390.778462 99.766159 390.978042 100.492301 391.177622 101.219108 391.377203 101.946543 391.576783 102.674566 391.776364 103.403140 391.975944 104.132226 392.175524 104.861786 392.375105 105.591782 392.574685 106.322174 392.774266 107.052925 392.973846 107.783997 393.173427 108.515351 393.373007 109.246948 393.572587 109.978751 393.772168 110.710721 393.971748 111.442820 394.171329 112.175008 394.370909 112.907249 394.570490 113.639504 394.770070 114.371734 394.969650 115.103901 395.169231 115.835967 395.368811 116.567892 395.568392 117.299640 395.767972 118.031171 395.967552 118.762448 396.167133 119.493432 396.366713 120.224084 396.566294 120.954366 396.765874 121.684240 396.965455 122.413668 397.165035 123.142611 397.364615 123.871030 397.564196 124.598889 397.763776 125.326147 397.963357 126.052767 398.162937 126.778711 398.362517 127.503939 398.562098 128.228415 398.761678 128.952099 398.961259 129.674953 399.160839 130.396938 399.360420 131.118017 399.560000 131.838151 399.759580 132.557302 399.959161 133.275431 400.158741 133.992500 400.358322 134.708471 400.557902 135.423305 400.757483 136.136964 400.957063 136.849410 401.156643 137.560604 401.356224 138.270508 401.555804 138.979083 401.755385 139.686292 401.954965 140.392096 402.154545 141.096456 402.354126 141.799334 402.553706 142.500692 402.753287 143.200492 402.952867 143.898695 403.152448 144.595263 403.352028 145.290157 403.551608 145.983340 403.751189 146.674772 403.950769 147.364415 404.150350 148.052232 404.349930 148.738183 404.549510 149.422231 404.749091 150.104337 404.948671 150.784463 405.148252 151.462570 405.347832 152.138620 405.547413 152.812575 405.746993 153.484396 405.946573 154.154045 406.146154 154.821484 406.345734 155.486674 406.545315 156.149577 406.744895 156.810154 406.944476 157.468368 407.144056 158.124180 407.343636 158.777551 407.543217 159.428444 407.742797 160.076819 407.942378 160.722640 408.141958 161.365866 408.341538 162.006460 408.541119 162.644384 408.740699 163.279598 408.940280 163.912066 409.139860 164.541748 409.339441 165.168606 409.539021 165.792602 409.738601 166.413698 409.938182 167.031854 410.137762 167.647033 410.337343 168.259201 410.536923 168.868338 410.736503 169.474429 410.936084 170.077458 411.135664 170.677412 411.335245 171.274274 411.534825 171.868030 411.734406 172.458664 411.933986 173.046161 412.133566 173.630506 412.333147 174.211684 412.532727 174.789679 412.732308 175.364477 412.931888 175.936062 413.131469 176.504420 413.331049 177.069535 413.530629 177.631391 413.730210 178.189974 413.929790 178.745269 414.129371 179.297260 414.328951 179.845932 414.528531 180.391271 414.728112 180.933260 414.927692 181.471885 415.127273 182.007131 415.326853 182.538982 415.526434 183.067423 415.726014 183.592440 415.925594 184.114016 416.125175 184.632137 416.324755 185.146788 416.524336 185.657954 416.723916 186.165618 416.923497 186.669767 417.123077 187.170385 417.322657 187.667457 417.522238 188.160967 417.721818 188.650901 417.921399 189.137244 418.120979 189.619979 418.320559 190.099093 418.520140 190.574570 418.719720 191.046394 418.919301 191.514551 419.118881 191.979025 419.318462 192.439802 419.518042 192.896865 419.717622 193.350201 419.917203 193.799793 420.116783 194.245628 420.316364 194.687688 420.515944 195.125960 420.715524 195.560428 420.915105 195.991077 421.114685 196.417892 421.314266 196.840857 421.513846 197.259958 421.713427 197.675180 421.913007 198.086507 422.112587 198.493923 422.312168 198.897415 422.511748 199.296966 422.711329 199.692562 422.910909 200.084187 423.110490 200.471827 423.310070 200.855466 423.509650 201.235088 423.709231 201.610680 423.908811 201.982225 424.108392 202.349708 424.307972 202.713115 424.507552 203.072430 424.707133 203.427638 424.906713 203.778723 425.106294 204.125672 425.305874 204.468468 425.505455 204.807096 425.705035 205.141541 425.904615 205.471789 426.104196 205.797823 426.303776 206.119629 426.503357 206.437192 426.702937 206.750496 426.902517 207.059526 427.102098 207.364268 427.301678 207.664705 427.501259 207.960823 427.700839 208.252607 427.900420 208.540041 428.100000 208.823110 428.299580 209.101800 428.499161 209.376094 428.698741 209.645979 428.898322 209.911438 429.097902 210.172456 429.297483 210.429019 429.497063 210.681111 429.696643 210.928717 429.896224 211.171822 430.095804 211.410410 430.295385 211.644468 430.494965 211.873978 430.694545 212.098927 430.894126 212.319299 431.093706 212.535079 431.293287 212.746251 431.492867 212.952801 431.692448 213.154714 431.892028 213.351974 432.091608 213.544565 432.291189 213.732474 432.490769 213.915685 432.690350 214.094182 432.889930 214.267951 433.089510 214.436976 433.289091 214.601243 433.488671 214.760735 433.688252 214.915438 433.887832 215.065337 434.087413 215.210417 434.286993 215.350661 434.486573 215.486056 434.686154 215.616587 434.885734 215.742237 435.085315 215.862991 435.284895 215.978836 435.484476 216.089754 435.684056 216.195732 435.883636 216.296754 436.083217 216.392805 436.282797 216.483870 436.482378 216.569934 436.681958 216.650981 436.881538 216.726996 437.081119 216.797964 437.280699 216.863871 437.480280 216.924700 437.679860 216.980437 437.879441 217.031067 438.079021 217.076573 438.278601 217.116942 438.478182 217.152158 438.677762 217.182206 438.877343 217.207071 439.076923 217.226737 439.276503 217.241190 439.476084 217.250414 439.675664 217.254394 439.875245 217.253115 440.074825 217.246562 440.274406 217.234719 440.473986 217.217572 440.673566 217.195105 440.873147 217.167303 441.072727 217.134151 441.272308 217.095635 441.471888 217.051737 441.671469 217.002445 441.871049 216.947741 442.070629 216.887612 442.270210 216.822042 442.469790 216.751015 442.669371 216.674518 442.868951 216.592534 443.068531 216.505048 443.268112 216.412046 443.467692 216.313512 443.667273 216.209430 443.866853 216.099787 444.066434 215.984566 444.266014 215.863752 444.465594 215.737331 444.665175 215.605287 444.864755 215.467604 445.064336 215.324269 445.263916 215.175265 445.463497 215.020578 445.663077 214.860192 445.862657 214.694093 446.062238 214.522264 446.261818 214.344691 446.461399 214.161359 446.660979 213.972252 446.860559 213.777356 447.060140 213.576655 447.259720 213.370135 447.459301 213.157779 447.658881 212.939572 447.858462 212.715501 448.058042 212.485549 448.257622 212.249701 448.457203 212.007942 448.656783 211.760257 448.856364 211.506631 449.055944 211.247049 449.255524 210.981495 449.455105 210.709954 449.654685 210.432412 449.854266 210.148852 450.053846 209.859261 450.253427 209.563622 450.453007 209.261921 450.652587 208.954142 450.852168 208.640270 451.051748 208.320290 451.251329 207.994188 451.450909 207.661947 451.650490 207.323552 451.850070 206.978989 452.049650 206.628242 452.249231 206.271297 452.448811 205.908137 452.648392 205.538748 452.847972 205.163115 453.047552 204.781222 453.247133 204.393054 453.446713 203.998597 453.646294 203.597835 453.845874 203.190752 454.045455 202.777334 454.245035 202.357566 454.444615 201.931432 454.644196 201.498917 454.843776 201.060006 455.043357 200.614685 455.242937 200.162937 455.442517 199.704747 455.642098 199.240101 455.841678 198.768983 456.041259 198.291378 456.240839 197.807271 456.440420 197.316647 456.640000 196.819491 456.839580 196.315787 457.039161 195.805520 457.238741 195.288676 457.438322 194.765238 457.637902 194.235192 457.837483 193.698523 458.037063 193.155216 458.236643 192.605254 458.436224 192.048624 458.635804 191.485310 458.835385 190.915297 459.034965 190.338570 459.234545 189.755113 459.434126 189.164911 459.633706 188.567950 459.833287 187.964214 460.032867 187.353688 460.232448 186.736371 460.432028 186.112321 460.631608 185.481611 460.831189 184.844314 461.030769 184.200501 461.230350 183.550245 461.429930 182.893619 461.629510 182.230696 461.829091 181.561547 462.028671 180.886245 462.228252 180.204863 462.427832 179.517473 462.627413 178.824148 462.826993 178.124960 463.026573 177.419981 463.226154 176.709285 463.425734 175.992944 463.625315 175.271029 463.824895 174.543615 464.024476 173.810772 464.224056 173.072574 464.423636 172.329093 464.623217 171.580402 464.822797 170.826573 465.022378 170.067678 465.221958 169.303791 465.421538 168.534983 465.621119 167.761328 465.820699 166.982896 466.020280 166.199762 466.219860 165.411998 466.419441 164.619676 466.619021 163.822868 466.818601 163.021647 467.018182 162.216086 467.217762 161.406256 467.417343 160.592232 467.616923 159.774084 467.816503 158.951886 468.016084 158.125710 468.215664 157.295628 468.415245 156.461714 468.614825 155.624039 468.814406 154.782675 469.013986 153.937697 469.213566 153.089175 469.413147 152.237183 469.612727 151.381793 469.812308 150.523077 470.011888 149.661108 470.211469 148.795959 470.411049 147.927701 470.610629 147.056408 470.810210 146.182152 471.009790 145.305005 471.209371 144.425040 471.408951 143.542330 471.608531 142.656947 471.808112 141.768962 472.007692 140.878450 472.207273 139.985482 472.406853 139.090131 472.606434 138.192470 472.806014 137.292570 473.005594 136.390505 473.205175 135.486346 473.404755 134.580167 473.604336 133.672040 473.803916 132.762036 474.003497 131.850230 474.203077 130.936693 474.402657 130.021498 474.602238 129.104717 474.801818 128.186423 475.001399 127.266689 475.200979 126.345586 475.400559 125.423187 475.600140 124.499565 475.799720 123.574792 475.999301 122.648942 476.198881 121.722085 476.398462 120.794295 476.598042 119.865644 476.797622 118.936205 476.997203 118.006051 477.196783 117.075253 477.396364 116.143884 477.595944 115.212017 477.795524 114.279724 477.995105 113.347078 478.194685 112.414151 478.394266 111.481015 478.593846 110.547744 478.793427 109.614410 478.993007 108.681084 479.192587 107.747841 479.392168 106.814751 479.591748 105.881888 479.791329 104.949325 479.990909 104.017132 480.190490 103.085384 480.390070 102.154153 480.589650 101.223511 480.789231 100.293530 480.988811 99.364283 481.188392 98.435843 481.387972 97.508282 481.587552 96.581673 481.787133 95.656088 481.986713 94.731599 482.186294 93.808279 482.385874 92.886201 482.585455 91.965437 482.785035 91.046060 482.984615 90.128141 483.184196 89.211754 483.383776 88.296971 483.583357 87.383865 483.782937 86.472507 483.982517 85.562971 484.182098 84.655329 484.381678 83.749654 484.581259 82.846017 484.780839 81.944492 484.980420 81.045151 485.180000 80.148067 485.379580 79.253311 485.579161 78.360957 485.778741 77.471077 485.978322 76.583743 486.177902 75.699028 486.377483 74.817004 486.577063 73.937745 486.776643 73.061322 486.976224 72.187808 487.175804 71.317275 487.375385 70.449796 487.574965 69.585443 487.774545 68.724289 487.974126 67.866407 488.173706 67.011869 488.373287 66.160747 488.572867 65.313113 488.772448 64.469041 488.972028 63.628603 489.171608 62.791872 489.371189 61.958919 489.570769 61.129817 489.770350 60.304639 489.969930 59.483458 490.169510 58.666345 490.369091 57.853374 490.568671 57.044616 490.768252 56.240145 490.967832 55.440032 491.167413 54.644351 491.366993 53.853173 491.566573 53.066572 491.766154 52.284619 491.965734 51.507388 492.165315 50.734951 492.364895 49.967379 492.564476 49.204747 492.764056 48.447125 492.963636 47.694588 493.163217 46.947206 493.362797 46.205053 493.562378 45.468202 493.761958 44.736724 493.961538 44.010692 494.161119 43.290179 494.360699 42.575257 494.560280 41.865999 494.759860 41.162477 494.959441 40.464763 495.159021 39.772931 495.358601 39.087053 495.558182 38.407200 495.757762 37.733446 495.957343 37.065863 496.156923 36.404524 496.356503 35.749501 496.556084 35.100866 496.755664 34.458693 496.955245 33.823053 497.154825 33.194019 497.354406 32.571664 497.553986 31.956060 497.753566 31.347279 497.953147 30.745395 498.152727 30.150479 498.352308 29.562604 498.551888 28.981843 498.751469 28.408267 498.951049 27.841950 499.150629 27.282964 499.350210 26.731382 499.549790 26.187276 499.749371 25.650718 499.948951 25.121781 500.148531 24.600537 500.348112 24.087060 500.547692 23.581421 500.747273 23.083693 500.946853 22.593948 501.146434 22.112260 501.346014 21.638700 501.545594 21.173340 501.745175 20.716254 501.944755 20.267515 502.144336 19.827193 502.343916 19.395362 502.543497 18.972095 502.743077 18.557464 502.942657 18.151541 503.142238 17.754399 503.341818 17.366110 503.541399 16.986748 503.740979 16.616383 503.940559 16.255090 504.140140 15.902939 504.339720 15.560005 504.539301 15.226359 504.738881 14.902074 504.938462 14.587222 505.138042 14.281876 505.337622 13.986108 505.537203 13.699991 505.736783 13.423597 505.936364 13.157000 506.135944 12.900270 506.335524 12.653481 506.535105 12.416706 506.734685 12.190016 506.934266 11.973484 507.133846 11.767184 507.333427 11.571186 507.533007 11.385564 507.732587 11.210391 507.932168 11.045738 508.131748 10.891678 508.331329 10.748285 508.530909 10.615629 508.730490 10.493784 508.930070 10.382822 509.129650 10.282816 509.329231 10.193838 509.528811 10.115961 509.728392 10.049257 509.927972 9.993799 510.127552 9.949639 510.327133 9.916752 510.526713 9.895092 510.726294 9.884615 510.925874 9.885275 511.125455 9.897027 511.325035 9.919826 511.524615 9.953625 511.724196 9.998381 511.923776 10.054047 512.123357 10.120579 512.322937 10.197931 512.522517 10.286057 512.722098 10.384914 512.921678 10.494455 513.121259 10.614634 513.320839 10.745408 513.520420 10.886730 513.720000 11.038555 513.919580 11.200839 514.119161 11.373535 514.318741 11.556598 514.518322 11.749984 514.717902 11.953646 514.917483 12.167540 515.117063 12.391621 515.316643 12.625842 515.516224 12.870160 515.715804 13.124528 515.915385 13.388901 516.114965 13.663234 516.314545 13.947482 516.514126 14.241599 516.713706 14.545540 516.913287 14.859260 517.112867 15.182714 517.312448 15.515856 517.512028 15.858642 517.711608 16.211025 517.911189 16.572960 518.110769 16.944403 518.310350 17.325308 518.509930 17.715630 518.709510 18.115323 518.909091 18.524342 519.108671 18.942642 519.308252 19.370177 519.507832 19.806903 519.707413 20.252774 519.906993 20.707745 520.106573 21.171771 520.306154 21.644805 520.505734 22.126804 520.705315 22.617721 520.904895 23.117512 521.104476 23.626131 521.304056 24.143533 521.503636 24.669672 521.703217 25.204504 521.902797 25.747983 522.102378 26.300063 522.301958 26.860701 522.501538 27.429849 522.701119 28.007463 522.900699 28.593498 523.100280 29.187909 523.299860 29.790650 523.499441 30.401675 523.699021 31.020941 523.898601 31.648400 524.098182 32.284009 524.297762 32.927721 524.497343 33.579492 524.696923 34.239276 524.896503 34.907029 525.096084 35.582703 525.295664 36.266256 525.495245 36.957640 525.694825 37.656812 525.894406 38.363725 526.093986 39.078334 526.293566 39.800595 526.493147 40.530461 526.692727 41.267888 526.892308 42.012830 527.091888 42.765242 527.291469 43.525078 527.491049 44.292294 527.690629 45.066845 527.890210 45.848684 528.089790 46.637767 528.289371 47.434048 528.488951 48.237482 528.688531 49.048024 528.888112 49.865629 529.087692 50.690251 529.287273 51.521845 529.486853 52.360365 529.686434 53.205767 529.886014 54.058005 530.085594 54.917034 530.285175 55.782809 530.484755 56.655284 530.684336 57.534414 530.883916 58.420154 531.083497 59.312458 531.283077 60.211282 531.482657 61.116580 531.682238 62.028306 531.881818 62.946416 532.081399 63.870864 532.280979 64.801605 532.480559 65.738593 532.680140 66.681784 532.879720 67.631132 533.079301 68.586592 533.278881 69.548118 533.478462 70.515666 533.678042 71.489189 533.877622 72.468643 534.077203 73.453983 534.276783 74.445163 534.476364 75.442138 534.675944 76.444862 534.875524 77.453291 535.075105 78.467378 535.274685 79.487080 535.474266 80.512350 535.673846 81.543144 535.873427 82.579415 536.073007 83.621119 536.272587 84.668211 536.472168 85.720644 536.671748 86.778375 536.871329 87.841357 537.070909 88.909546 537.270490 89.982895 537.470070 91.061361 537.669650 92.144897 537.869231 93.233458 538.068811 94.326999 538.268392 95.425475 538.467972 96.528841 538.667552 97.637050 538.867133 98.750059 539.066713 99.867821 539.266294 100.990291 539.465874 102.117425 539.665455 103.249176 539.865035 104.385500 540.064615 105.526351 540.264196 106.671684 540.463776 107.821454 540.663357 108.975615 540.862937 110.134123 541.062517 111.296931 541.262098 112.463995 541.461678 113.635270 541.661259 114.810709 541.860839 115.990268 542.060420 117.173902 542.260000 118.361565 542.459580 119.553212 542.659161 120.748798 542.858741 121.948277 543.058322 123.151604 543.257902 124.358735 543.457483 125.569623 543.657063 126.784223 543.856643 128.002490 544.056224 129.224379 544.255804 130.449845 544.455385 131.678842 544.654965 132.911325 544.854545 134.147249 545.054126 135.386568 545.253706 136.629237 545.453287 137.875211 545.652867 139.124445 545.852448 140.376893 546.052028 141.632510 546.251608 142.891251 546.451189 144.153071 546.650769 145.417924 546.850350 146.685765 547.049930 147.956548 547.249510 149.230229 547.449091 150.506763 547.648671 151.786103 547.848252 153.068204 548.047832 154.353023 548.247413 155.640512 548.446993 156.930627 548.646573 158.223322 548.846154 159.518553 549.045734 160.816274 549.245315 162.116439 549.444895 163.419004 549.644476 164.723923 549.844056 166.031151 550.043636 167.340643 550.243217 168.652353 550.442797 169.966236 550.642378 171.282247 550.841958 172.600341 551.041538 173.920471 551.241119 175.242594 551.440699 176.566664 551.640280 177.892635 551.839860 179.220462 552.039441 180.550100 552.239021 181.881503 552.438601 183.214627 552.638182 184.549426 552.837762 185.885855 553.037343 187.223869 553.236923 188.563421 553.436503 189.904468 553.636084 191.246963 553.835664 192.590862 554.035245 193.936119 554.234825 195.282689 554.434406 196.630527 554.633986 197.979587 554.833566 199.329824 555.033147 200.681193 555.232727 202.033648 555.432308 203.387145 555.631888 204.741638 555.831469 206.097081 556.031049 207.453430 556.230629 208.810639 556.430210 210.168663 556.629790 211.527456 556.829371 212.886974 557.028951 214.247171 557.228531 215.608002 557.428112 216.969421 557.627692 218.331384 557.827273 219.693845 558.026853 221.056758 558.226434 222.420079 558.426014 223.783762 558.625594 225.147762 558.825175 226.512033 559.024755 227.876531 559.224336 229.241210 559.423916 230.606025 559.623497 231.970931 559.823077 233.335881 559.823077 514.000000" /></g></g><g class="titles"><text class="title plot_title" x="400.0" y="26">Saphan-Taksin 51</text></g><g class="plot overlay" transform="translate(209, 46)"><g class="series serie-0 color-0"><g class="dots"><circle class="dot reactive tooltip-trigger" cx="10.976923076923075" cy="154.50926379762132" r="2.5" /><desc class="value">602000</desc><desc class="x ">10.976923076923075</desc><desc class="y ">154.50926379762132</desc><desc class="x_label">Jan</desc></g><g class="dots"><circle class="dot reactive tooltip-trigger" cx="60.872027972027965" cy="499.37571487628867" r="2.5" /><desc class="value">497000</desc><desc class="x top">60.872027972027965</desc><desc class="y top">499.37571487628867</desc><desc class="x_label">Feb</desc></g><g class="dots"><circle class="dot reactive tooltip-trigger" cx="110.76713286713284" cy="174.21591814497378" r="2.5" /><desc class="value">596000</desc><desc class="x ">110.76713286713284</desc><desc class="y ">174.21591814497378</desc><desc class="x_label">Mar</desc></g><g class="dots"><circle class="dot reactive tooltip-trigger" cx="160.66223776223774" cy="446.8246366166822" r="2.5" /><desc class="value">513000</desc><desc class="x top">160.66223776223774</desc><desc class="y top">446.8246366166822</desc><desc class="x_label">Apr</desc></g><g class="dots"><circle class="dot reactive tooltip-trigger" cx="210.55734265734264" cy="335.1535953150185" r="2.5" /><desc class="value">547000</desc><desc class="x top">210.55734265734264</desc><desc class="y top">335.1535953150185</desc><desc class="x_label">May</desc></g><g class="dots"><circle class="dot reactive tooltip-trigger" cx="260.45244755244755" cy="69.11376162576084" r="2.5" /><desc class="value">628000</desc><desc class="x ">260.45244755244755</desc><desc class="y ">69.11376162576084</desc><desc class="x_label">Jun</desc></g><g class="dots"><circle class="dot reactive tooltip-trigger" cx="310.3475524475524" cy="65.82931923453543" r="2.5" /><desc class="value">629000</desc><desc class="x left">310.3475524475524</desc><desc class="y left">65.82931923453543</desc><desc class="x_label">Jul</desc></g><g class="dots"><circle class="dot reactive tooltip-trigger" cx="360.2426573426573" cy="19.847125757379786" r="2.5" /><desc class="value">643000</desc><desc class="x left">360.2426573426573</desc><desc class="y left">19.847125757379786</desc><desc class="x_label">Aug</desc></g><g class="dots"><circle class="dot reactive tooltip-trigger" cx="410.1377622377622" cy="167.64703336252296" r="2.5" /><desc class="value">598000</desc><desc class="x left">410.1377622377622</desc><desc class="y left">167.64703336252296</desc><desc class="x_label">Sep</desc></g><g class="dots"><circle class="dot reactive tooltip-trigger" cx="460.0328671328671" cy="187.35368770987537" r="2.5" /><desc class="value">592000</desc><desc class="x left">460.0328671328671</desc><desc class="y left">187.35368770987537</desc><desc class="x_label">Oct</desc></g><g class="dots"><circle class="dot reactive tooltip-trigger" cx="509.9279720279719" cy="9.993798583703608" r="2.5" /><desc class="value">646000</desc><desc class="x left">509.9279720279719</desc><desc class="y left">9.993798583703608</desc><desc class="x_label">Nov</desc></g><g class="dots"><circle class="dot reactive tooltip-trigger" cx="559.8230769230769" cy="233.33588118703102" r="2.5" /><desc class="value">578000</desc><desc class="x left">559.8230769230769</desc><desc class="y left">233.33588118703102</desc><desc class="x_label">Dec</desc></g></g></g><g class="plot text-overlay" transform="translate(209, 46)"><g class="series serie-0 color-0" /></g><g class="plot tooltip-overlay" transform="translate(209, 46)"><g class="tooltip" style="opacity: 0" transform="translate(0 0)"><rect class="tooltip-box" height="0" rx="0" ry="0" width="0" /><g class="text" /></g></g><g class="legends" transform="translate(10, 56)"><g class="legend reactive activate-serie" id="activate-serie-0"><rect class="color-0 reactive" height="12" width="12" x="0.0" y="1.0" /><text x="17.0" y="11.2">Saphan-Taksin</text></g></g><g class="legends" transform="translate(790, 56)" /></g></svg>