<?xml version='1.0' encoding='utf-8'?>
<svg xmlns:xlink="http://www.w3.org/1999/xlink" class="pygal-chart" id="chart-be56692b-9506-4af6-9b46-09fe3141ef82" viewBox="0 0 800 600" xmlns="http://www.w3.org/2000/svg"><!--Generated with pygal 2.0.11 (etree) ©Kozea 2011-2015 on 2015-12-10--><!--http://pygal.org--><!--http://github.com/Kozea/pygal--><defs><style type="text/css">#chart-be56692b-9506-4af6-9b46-09fe3141ef82{-webkit-user-select:none;-webkit-font-smoothing:antialiased;font-family:Consolas,"Liberation Mono",Menlo,Courier,monospace}#chart-be56692b-9506-4af6-9b46-09fe3141ef82 .title{font-family:Consolas,"Liberation Mono",Menlo,Courier,monospace;font-size:16px}#chart-be56692b-9506-4af6-9b46-09fe3141ef82 .legends .legend text{font-family:Consolas,"Liberation Mono",Menlo,Courier,monospace;font-size:14px}#chart-be56692b-9506-4af6-9b46-09fe3141ef82 .axis text{font-family:Consolas,"Liberation Mono",Menlo,Courier,monospace;font-size:10px}#chart-be56692b-9506-4af6-9b46-09fe3141ef82 .axis text.major{font-family:Consolas,"Liberation Mono",Menlo,Courier,monospace;font-size:10px}#chart-be56692b-9506-4af6-9b46-09fe3141ef82 .text-overlay text.value{font-family:Consolas,"Liberation Mono",Menlo,Courier,monospace;font-size:16px}#chart-be56692b-9506-4af6-9b46-09fe3141ef82 .text-overlay text.label{font-family:Consolas,"Liberation Mono",Menlo,Courier,monospace;font-size:10px}#chart-be56692b-9506-4af6-9b46-09fe3141ef82 .tooltip{font-family:Consolas,"Liberation Mono",Menlo,Courier,monospace;font-size:14px}#chart-be56692b-9506-4af6-9b46-09fe3141ef82 text.no_data{font-family:Consolas,"Liberation Mono",Menlo,Courier,monospace;font-size:64px}
#chart-be56692b-9506-4af6-9b46-09fe3141ef82{background-color:black}#chart-be56692b-9506-4af6-9b46-09fe3141ef82 path,#chart-be56692b-9506-4af6-9b46-09fe3141ef82 line,#chart-be56692b-9506-4af6-9b46-09fe3141ef82 rect,#chart-be56692b-9506-4af6-9b46-09fe3141ef82 circle{-webkit-transition:250ms;-moz-transition:250ms;transition:250ms}#chart-be56692b-9506-4af6-9b46-09fe3141ef82 .graph &gt; .background{fill:black}#chart-be56692b-9506-4af6-9b46-09fe3141ef82 .plot &gt; .background{fill:#111}#chart-be56692b-9506-4af6-9b46-09fe3141ef82 .graph{fill:#999}#chart-be56692b-9506-4af6-9b46-09fe3141ef82 text.no_data{fill:#eee}#chart-be56692b-9506-4af6-9b46-09fe3141ef82 .title{fill:#eee}#chart-be56692b-9506-4af6-9b46-09fe3141ef82 .legends .legend text{fill:#999}#chart-be56692b-9506-4af6-9b46-09fe3141ef82 .legends .legend:hover text{fill:#eee}#chart-be56692b-9506-4af6-9b46-09fe3141ef82 .axis .line{stroke:#eee}#chart-be56692b-9506-4af6-9b46-09fe3141ef82 .axis .guide.line{stroke:#555}#chart-be56692b-9506-4af6-9b46-09fe3141ef82 .axis .major.line{stroke:#999}#chart-be56692b-9506-4af6-9b46-09fe3141ef82 .axis text.major{fill:#eee}#chart-be56692b-9506-4af6-9b46-09fe3141ef82 .axis.y .guides:hover .guide.line,#chart-be56692b-9506-4af6-9b46-09fe3141ef82 .line-graph .axis.x .guides:hover .guide.line,#chart-be56692b-9506-4af6-9b46-09fe3141ef82 .stackedline-graph .axis.x .guides:hover .guide.line,#chart-be56692b-9506-4af6-9b46-09fe3141ef82 .xy-graph .axis.x .guides:hover .guide.line{stroke:#eee}#chart-be56692b-9506-4af6-9b46-09fe3141ef82 .axis .guides:hover text{fill:#eee}#chart-be56692b-9506-4af6-9b46-09fe3141ef82 .reactive{fill-opacity:.8}#chart-be56692b-9506-4af6-9b46-09fe3141ef82 .reactive.active,#chart-be56692b-9506-4af6-9b46-09fe3141ef82 .active .reactive{fill-opacity:.4;stroke-width:4}#chart-be56692b-9506-4af6-9b46-09fe3141ef82 .series text{fill:#eee}#chart-be56692b-9506-4af6-9b46-09fe3141ef82 .tooltip rect{fill:#111;stroke:#eee;-webkit-transition:opacity 250ms;-moz-transition:opacity 250ms;transition:opacity 250ms}#chart-be56692b-9506-4af6-9b46-09fe3141ef82 .tooltip .label{fill:#999}#chart-be56692b-9506-4af6-9b46-09fe3141ef82 .tooltip .label{fill:#999}#chart-be56692b-9506-4af6-9b46-09fe3141ef82 .tooltip .legend{font-size:.8em;fill:#555}#chart-be56692b-9506-4af6-9b46-09fe3141ef82 .tooltip .x_label{font-size:.6em;fill:#eee}#chart-be56692b-9506-4af6-9b46-09fe3141ef82 .tooltip .xlink{font-size:.5em;text-decoration:underline}#chart-be56692b-9506-4af6-9b46-09fe3141ef82 .tooltip .value{font-size:1.5em}#chart-be56692b-9506-4af6-9b46-09fe3141ef82 .map-element{fill:#111;stroke:#555 !important}#chart-be56692b-9506-4af6-9b46-09fe3141ef82 .map-element .reactive{fill-opacity:inherit}#chart-be56692b-9506-4af6-9b46-09fe3141ef82 .color-0,#chart-be56692b-9506-4af6-9b46-09fe3141ef82 .color-0 a:visited{stroke:#ff5995;fill:#ff5995}#chart-be56692b-9506-4af6-9b46-09fe3141ef82 .text-overlay .color-0 text{fill:black}
#chart-be56692b-9506-4af6-9b46-09fe3141ef82 text.no_data{text-anchor:middle}#chart-be56692b-9506-4af6-9b46-09fe3141ef82 .guide.line{fill:none}#chart-be56692b-9506-4af6-9b46-09fe3141ef82 .centered{text-anchor:middle}#chart-be56692b-9506-4af6-9b46-09fe3141ef82 .title{text-anchor:middle}#chart-be56692b-9506-4af6-9b46-09fe3141ef82 .legends .legend text{fill-opacity:1}#chart-be56692b-9506-4af6-9b46-09fe3141ef82 .axis.x text{text-anchor:middle}#chart-be56692b-9506-4af6-9b46-09fe3141ef82 .axis.x:not(.web) text[transform]{text-anchor:start}#chart-be56692b-9506-4af6-9b46-09fe3141ef82 .axis.x:not(.web) text[transform].backwards{text-anchor:end}#chart-be56692b-9506-4af6-9b46-09fe3141ef82 .axis.y text{text-anchor:end}#chart-be56692b-9506-4af6-9b46-09fe3141ef82 .axis.y text[transform].backwards{text-anchor:start}#chart-be56692b-9506-4af6-9b46-09fe3141ef82 .axis.y2 text{text-anchor:start}#chart-be56692b-9506-4af6-9b46-09fe3141ef82 .axis.y2 text[transform].backwards{text-anchor:end}#chart-be56692b-9506-4af6-9b46-09fe3141ef82 .axis .guide.line{stroke-dasharray:4,4}#chart-be56692b-9506-4af6-9b46-09fe3141ef82 .axis .major.guide.line{stroke-dasharray:6,6}#chart-be56692b-9506-4af6-9b46-09fe3141ef82 .horizontal .axis.y .guide.line,#chart-be56692b-9506-4af6-9b46-09fe3141ef82 .horizontal .axis.y2 .guide.line,#chart-be56692b-9506-4af6-9b46-09fe3141ef82 .vertical .axis.x .guide.line{opacity:0}#chart-be56692b-9506-4af6-9b46-09fe3141ef82 .horizontal .axis.always_show .guide.line,#chart-be56692b-9506-4af6-9b46-09fe3141ef82 .vertical .axis.always_show .guide.line{opacity:1 !important}#chart-be56692b-9506-4af6-9b46-09fe3141ef82 .axis.y .guides:hover .guide.line,#chart-be56692b-9506-4af6-9b46-09fe3141ef82 .axis.y2 .guides:hover .guide.line,#chart-be56692b-9506-4af6-9b46-09fe3141ef82 .axis.x .guides:hover .guide.line{opacity:1}#chart-be56692b-9506-4af6-9b46-09fe3141ef82 .axis .guides:hover text{opacity:1}#chart-be56692b-9506-4af6-9b46-09fe3141ef82 .nofill{fill:none}#chart-be56692b-9506-4af6-9b46-09fe3141ef82 .subtle-fill{fill-opacity:.2}#chart-be56692b-9506-4af6-9b46-09fe3141ef82 .dot{stroke-width:1px;fill-opacity:1}#chart-be56692b-9506-4af6-9b46-09fe3141ef82 .dot.active{stroke-width:5px}#chart-be56692b-9506-4af6-9b46-09fe3141ef82 .dot.negative{fill:transparent}#chart-be56692b-9506-4af6-9b46-09fe3141ef82 text,#chart-be56692b-9506-4af6-9b46-09fe3141ef82 tspan{stroke:none !important}#chart-be56692b-9506-4af6-9b46-09fe3141ef82 .series text.active{opacity:1}#chart-be56692b-9506-4af6-9b46-09fe3141ef82 .tooltip rect{fill-opacity:.95;stroke-width:.5}#chart-be56692b-9506-4af6-9b46-09fe3141ef82 .tooltip text{fill-opacity:1}#chart-be56692b-9506-4af6-9b46-09fe3141ef82 .showable{visibility:hidden}#chart-be56692b-9506-4af6-9b46-09fe3141ef82 .showable.shown{visibility:visible}</style><script type="text/javascript">window.pygal = window.pygal || {};window.pygal.config = window.pygal.config || {};window.pygal.config['be56692b-9506-4af6-9b46-09fe3141ef82'] = {"spacing": 10, "inner_radius": 0, "order_min": null, "truncate_label": null, "x_title": null, "style": {"foreground_strong": "#eee", "value_colors": [], "title_font_family": "Consolas, \"Liberation Mono\", Menlo, Courier, monospace", "major_guide_stroke_dasharray": "6,6", "background": "black", "value_font_size": 16, "guide_stroke_dasharray": "4,4", "colors": ["#ff5995", "#b6e354", "#feed6c", "#8cedff", "#9e6ffe", "#899ca1", "#f8f8f2", "#bf4646", "#516083", "#f92672", "#82b414", "#fd971f", "#56c2d6", "#808384", "#8c54fe", "#465457"], "legend_font_family": "Consolas, \"Liberation Mono\", Menlo, Courier, monospace", "no_data_font_size": 64, "legend_font_size": 14, "opacity": ".8", "title_font_size": 16, "foreground_subtle": "#555", "label_font_family": "Consolas, \"Liberation Mono\", Menlo, Courier, monospace", "value_label_font_family": "Consolas, \"Liberation Mono\", Menlo, Courier, monospace", "value_font_family": "Consolas, \"Liberation Mono\", Menlo, Courier, monospace", "major_label_font_size": 10, "no_data_font_family": "Consolas, \"Liberation Mono\", Menlo, Courier, monospace", "major_label_font_family": "Consolas, \"Liberation Mono\", Menlo, Courier, monospace", "tooltip_font_size": 14, "label_font_size": 10, "tooltip_font_family": "Consolas, \"Liberation Mono\", Menlo, Courier, monospace", "transition": "250ms", "value_label_font_size": 10, "plot_background": "#111", "opacity_hover": ".4", "font_family": "Consolas, \"Liberation Mono\", Menlo, Courier, monospace", "foreground": "#999"}, "y_labels_major": null, "inverse_y_axis": false, "show_dots": true, "js": ["//kozea.github.io/pygal.js/2.0.x/pygal-tooltips.min.js"], "range": null, "human_readable": false, "margin": 20, "show_x_labels": true, "legend_box_size": 12, "no_data_text": "No data", "strict": false, "show_minor_y_labels": true, "legend_at_bottom": false, "show_only_major_dots": false, "include_x_axis": false, "x_labels": ["Jan", "Feb", "Mar", "Apr", "May", "Jun", "Jul", "Aug", "Sep", "Oct", "Nov", "Dec"], "x_labels_major": null, "x_label_rotation": 0, "disable_xml_declaration": false, "y_title": null, "show_y_guides": true, "max_scale": 16, "margin_right": null, "defs": [], "tooltip_border_radius": 0, "xrange": null, "print_zeroes": true, "show_legend": true, "no_prefix": false, "y_labels_major_every": null, "fill": true, "width": 800, "min_scale": 4, "title": "Saphan-Khwai 51", "half_pie": false, "x_labels_major_count": null, "zero": 0, "margin_bottom": null, "legends": ["Saphan-Khwai"], "secondary_range": null, "margin_top": null, "margin_left": null, "print_labels": false, "legend_at_bottom_columns": null, "print_values": false, "value_formatter": null, "explicit_size": false, "dynamic_print_values": false, "interpolate": "cubic", "box_mode": "extremes", "interpolation_precision": 250, "x_value_formatter": null, "show_y_labels": true, "height": 600, "force_uri_protocol": null, "interpolation_parameters": {}, "dots_size": 2.5, "logarithmic": false, "stroke_style": null, "pretty_print": false, "stack_from_top": false, "stroke": true, "y_label_rotation": 0, "rounded_bars": null, "y_labels": null, "missing_value_fill_truncation": "x", "show_x_guides": false, "x_labels_major_every": null, "truncate_legend": null, "css": ["file://style.css", "file://graph.css"], "tooltip_fancy_mode": true, "y_labels_major_count": null, "show_minor_x_labels": true}</script><script type="text/javascript" xlink:href="//kozea.github.io/pygal.js/2.0.x/pygal-tooltips.min.js" /></defs><title>Saphan-Khwai 51</title><g class="graph line-graph vertical"><rect class="background" height="600" width="800" x="0" y="0" /><g class="plot" transform="translate(200, 46)"><rect class="background" height="514" width="579.2" x="0" y="0" /><g class="axis y"><path class="line" d="M0.000000 514.000000 h579.200000" /><g class="guides"><path class="guide line" d="M0.000000 473.747282 h579.200000" /><text class="" x="-5" y="477.2472819410467">170000.0</text><title>170000.0</title></g><g class="guides"><path class="guide line" d="M0.000000 358.412061 h579.200000" /><text class="" x="-5" y="361.9120613616742">180000.0</text><title>180000.0</title></g><g class="guides"><path class="guide line" d="M0.000000 243.076841 h579.200000" /><text class="" x="-5" y="246.5768407823016">190000.0</text><title>190000.0</title></g><g class="guides"><path class="major guide line" d="M0.000000 127.741620 h579.200000" /><text class="major" x="-5" y="131.24162020292908">200000.0</text><title>200000.0</title></g><g class="guides"><path class="guide line" d="M0.000000 12.406400 h579.200000" /><text class="" x="-5" y="15.906399623556524">210000.0</text><title>210000.0</title></g></g><g class="axis x"><g class="guides"><path class="line" d="M11.138462 0.000000 v514.000000" /><text class="" x="11.13846153846154" y="529.0">Jan</text></g><g class="guides"><path class="guide line" d="M61.767832 0.000000 v514.000000" /><text class="" x="61.76783216783217" y="529.0">Feb</text></g><g class="guides"><path class="guide line" d="M112.397203 0.000000 v514.000000" /><text class="" x="112.3972027972028" y="529.0">Mar</text></g><g class="guides"><path class="guide line" d="M163.026573 0.000000 v514.000000" /><text class="" x="163.02657342657344" y="529.0">Apr</text></g><g class="guides"><path class="guide line" d="M213.655944 0.000000 v514.000000" /><text class="" x="213.65594405594408" y="529.0">May</text></g><g class="guides"><path class="guide line" d="M264.285315 0.000000 v514.000000" /><text class="" x="264.2853146853147" y="529.0">Jun</text></g><g class="guides"><path class="guide line" d="M314.914685 0.000000 v514.000000" /><text class="" x="314.9146853146853" y="529.0">Jul</text></g><g class="guides"><path class="guide line" d="M365.544056 0.000000 v514.000000" /><text class="" x="365.54405594405597" y="529.0">Aug</text></g><g class="guides"><path class="guide line" d="M416.173427 0.000000 v514.000000" /><text class="" x="416.17342657342664" y="529.0">Sep</text></g><g class="guides"><path class="guide line" d="M466.802797 0.000000 v514.000000" /><text class="" x="466.8027972027973" y="529.0">Oct</text></g><g class="guides"><path class="guide line" d="M517.432168 0.000000 v514.000000" /><text class="" x="517.4321678321678" y="529.0">Nov</text></g><g class="guides"><path class="guide line" d="M568.061538 0.000000 v514.000000" /><text class="" x="568.0615384615386" y="529.0">Dec</text></g></g><g class="series serie-0 color-0"><path class="line reactive" d="M11.138462 514.000000 L11.138462 173.875708 11.340979 176.231873 11.543497 178.587931 11.746014 180.943776 11.948531 183.299301 12.151049 185.654400 12.353566 188.008966 12.556084 190.362892 12.758601 192.716071 12.961119 195.068398 13.163636 197.419765 13.366154 199.770066 13.568671 202.119194 13.771189 204.467043 13.973706 206.813506 14.176224 209.158476 14.378741 211.501848 14.581259 213.843513 14.783776 216.183366 14.986294 218.521299 15.188811 220.857208 15.391329 223.190983 15.593846 225.522520 15.796364 227.851712 15.998881 230.178451 16.201399 232.502632 16.403916 234.824147 16.606434 237.142890 16.808951 239.458755 17.011469 241.771635 17.213986 244.081422 17.416503 246.388012 17.619021 248.691296 17.821538 250.991168 18.024056 253.287523 18.226573 255.580252 18.429091 257.869250 18.631608 260.154410 18.834126 262.435625 19.036643 264.712789 19.239161 266.985795 19.441678 269.254536 19.644196 271.518907 19.846713 273.778799 20.049231 276.034107 20.251748 278.284724 20.454266 280.530543 20.656783 282.771458 20.859301 285.007363 21.061818 287.238149 21.264336 289.463712 21.466853 291.683944 21.669371 293.898739 21.871888 296.107989 22.074406 298.311590 22.276923 300.509433 22.479441 302.701412 22.681958 304.887421 22.884476 307.067353 23.086993 309.241101 23.289510 311.408559 23.492028 313.569620 23.694545 315.724178 23.897063 317.872126 24.099580 320.013357 24.302098 322.147764 24.504615 324.275242 24.707133 326.395684 24.909650 328.508982 25.112168 330.615030 25.314685 332.713722 25.517203 334.804951 25.719720 336.888611 25.922238 338.964594 26.124755 341.032795 26.327273 343.093106 26.529790 345.145421 26.732308 347.189633 26.934825 349.225636 27.137343 351.253323 27.339860 353.272588 27.542378 355.283323 27.744895 357.285423 27.947413 359.278780 28.149930 361.263289 28.352448 363.238842 28.554965 365.205333 28.757483 367.162655 28.960000 369.110701 29.162517 371.049366 29.365035 372.978541 29.567552 374.898122 29.770070 376.808001 29.972587 378.708071 30.175105 380.598226 30.377622 382.478359 30.580140 384.348365 30.782657 386.208135 30.985175 388.057563 31.187692 389.896544 31.390210 391.724969 31.592727 393.542734 31.795245 395.349730 31.997762 397.145851 32.200280 398.930992 32.402797 400.705044 32.605315 402.467902 32.807832 404.219459 33.010350 405.959609 33.212867 407.688244 33.415385 409.405258 33.617902 411.110544 33.820420 412.803997 34.022937 414.485508 34.225455 416.154972 34.427972 417.812283 34.630490 419.457332 34.833007 421.090015 35.035524 422.710223 35.238042 424.317851 35.440559 425.912792 35.643077 427.494940 35.845594 429.064187 36.048112 430.620427 36.250629 432.163554 36.453147 433.693460 36.655664 435.210040 36.858182 436.713186 37.060699 438.202793 37.263217 439.678753 37.465734 441.140959 37.668252 442.589306 37.870769 444.023687 38.073287 445.443994 38.275804 446.850122 38.478322 448.241963 38.680839 449.619412 38.883357 450.982361 39.085874 452.330704 39.288392 453.664334 39.490909 454.983145 39.693427 456.287030 39.895944 457.575882 40.098462 458.849595 40.300979 460.108063 40.503497 461.351177 40.706014 462.578833 40.908531 463.790924 41.111049 464.987342 41.313566 466.167981 41.516084 467.332735 41.718601 468.481496 41.921119 469.614159 42.123636 470.730617 42.326154 471.830762 42.528671 472.914489 42.731189 473.981691 42.933706 475.032261 43.136224 476.066093 43.338741 477.083080 43.541259 478.083115 43.743776 479.066092 43.946294 480.031904 44.148811 480.980444 44.351329 481.911607 44.553846 482.825285 44.756364 483.721371 44.958881 484.599760 45.161399 485.460344 45.363916 486.303017 45.566434 487.127672 45.768951 487.934202 45.971469 488.722502 46.173986 489.492464 46.376503 490.243982 46.579021 490.976949 46.781538 491.691259 46.984056 492.386805 47.186573 493.063480 47.389091 493.721177 47.591608 494.359791 47.794126 494.979214 47.996643 495.579340 48.199161 496.160063 48.401678 496.721275 48.604196 497.262870 48.806713 497.784741 49.009231 498.286783 49.211748 498.768887 49.414266 499.230948 49.616783 499.672859 49.819301 500.094513 50.021818 500.495804 50.224336 500.876626 50.426853 501.236870 50.629371 501.576432 50.831888 501.895204 51.034406 502.193079 51.236923 502.469952 51.439441 502.725715 51.641958 502.960261 51.844476 503.173486 52.046993 503.365280 52.249510 503.535539 52.452028 503.684155 52.654545 503.811021 52.857063 503.916032 53.059580 503.999081 53.262098 504.060060 53.464615 504.098863 53.667133 504.115385 53.869650 504.109517 54.072168 504.081154 54.274685 504.030188 54.477203 503.956514 54.679720 503.860025 54.882238 503.740613 55.084755 503.598173 55.287273 503.432597 55.489790 503.243780 55.692308 503.031614 55.894825 502.795994 56.097343 502.536811 56.299860 502.253960 56.502378 501.947335 56.704895 501.616827 56.907413 501.262332 57.109930 500.883742 57.312448 500.480950 57.514965 500.053851 57.717483 499.602337 57.920000 499.126302 58.122517 498.625638 58.325035 498.100241 58.527552 497.550002 58.730070 496.974816 58.932587 496.374575 59.135105 495.749174 59.337622 495.098505 59.540140 494.422462 59.742657 493.720938 59.945175 492.993827 60.147692 492.241022 60.350210 491.462416 60.552727 490.657903 60.755245 489.827376 60.957762 488.970729 61.160280 488.087855 61.362797 487.178647 61.565315 486.242999 61.767832 485.280804 61.970350 484.292012 62.172867 483.276798 62.375385 482.235395 62.577902 481.168034 62.780420 480.074947 62.982937 478.956366 63.185455 477.812523 63.387972 476.643650 63.590490 475.449978 63.793007 474.231741 63.995524 472.989169 64.198042 471.722494 64.400559 470.431949 64.603077 469.117765 64.805594 467.780174 65.008112 466.419408 65.210629 465.035700 65.413147 463.629280 65.615664 462.200381 65.818182 460.749235 66.020699 459.276073 66.223217 457.781128 66.425734 456.264632 66.628252 454.726816 66.830769 453.167912 67.033287 451.588152 67.235804 449.987768 67.438322 448.366993 67.640839 446.726057 67.843357 445.065193 68.045874 443.384633 68.248392 441.684608 68.450909 439.965351 68.653427 438.227093 68.855944 436.470066 69.058462 434.694503 69.260979 432.900635 69.463497 431.088694 69.666014 429.258912 69.868531 427.411521 70.071049 425.546753 70.273566 423.664839 70.476084 421.766012 70.678601 419.850503 70.881119 417.918545 71.083636 415.970369 71.286154 414.006207 71.488671 412.026291 71.691189 410.030854 71.893706 408.020126 72.096224 405.994340 72.298741 403.953728 72.501259 401.898522 72.703776 399.828953 72.906294 397.745253 73.108811 395.647655 73.311329 393.536390 73.513846 391.411691 73.716364 389.273788 73.918881 387.122915 74.121399 384.959302 74.323916 382.783182 74.526434 380.594787 74.728951 378.394348 74.931469 376.182098 75.133986 373.958269 75.336503 371.723091 75.539021 369.476799 75.741538 367.219622 75.944056 364.951793 76.146573 362.673544 76.349091 360.385107 76.551608 358.086714 76.754126 355.778596 76.956643 353.460987 77.159161 351.134116 77.361678 348.798217 77.564196 346.453521 77.766713 344.100261 77.969231 341.738668 78.171748 339.368973 78.374266 336.991410 78.576783 334.606209 78.779301 332.213604 78.981818 329.813824 79.184336 327.407104 79.386853 324.993674 79.589371 322.573766 79.791888 320.147612 79.994406 317.715445 80.196923 315.277496 80.399441 312.833997 80.601958 310.385180 80.804476 307.931276 81.006993 305.472518 81.209510 303.009138 81.412028 300.541368 81.614545 298.069439 81.817063 295.593583 82.019580 293.114032 82.222098 290.631019 82.424615 288.144775 82.627133 285.655531 82.829650 283.163521 83.032168 280.668975 83.234685 278.172126 83.437203 275.673206 83.639720 273.172446 83.842238 270.670078 84.044755 268.166335 84.247273 265.661448 84.449790 263.155649 84.652308 260.649171 84.854825 258.142244 85.057343 255.635101 85.259860 253.127974 85.462378 250.621094 85.664895 248.114694 85.867413 245.609006 86.069930 243.104261 86.272448 240.600691 86.474965 238.098528 86.677483 235.598005 86.880000 233.099352 87.082517 230.602803 87.285035 228.108588 87.487552 225.616940 87.690070 223.128090 87.892587 220.642271 88.095105 218.159715 88.297622 215.680653 88.500140 213.205317 88.702657 210.733940 88.905175 208.266752 89.107692 205.803986 89.310210 203.345875 89.512727 200.892649 89.715245 198.444541 89.917762 196.001782 90.120280 193.564605 90.322797 191.133241 90.525315 188.707923 90.727832 186.288882 90.930350 183.876350 91.132867 181.470559 91.335385 179.071741 91.537902 176.680128 91.740420 174.295952 91.942937 171.919444 92.145455 169.550837 92.347972 167.190362 92.550490 164.838252 92.753007 162.494738 92.955524 160.160052 93.158042 157.834427 93.360559 155.518093 93.563077 153.211284 93.765594 150.914230 93.968112 148.627164 94.170629 146.350317 94.373147 144.083922 94.575664 141.828211 94.778182 139.583415 94.980699 137.349766 95.183217 135.127496 95.385734 132.916838 95.588252 130.718022 95.790769 128.531282 95.993287 126.356848 96.195804 124.194953 96.398322 122.045828 96.600839 119.909706 96.803357 117.786819 97.005874 115.677397 97.208392 113.581674 97.410909 111.499882 97.613427 109.432251 97.815944 107.379014 98.018462 105.340403 98.220979 103.316650 98.423497 101.307986 98.626014 99.314644 98.828531 97.336856 99.031049 95.374853 99.233566 93.428867 99.436084 91.499131 99.638601 89.585875 99.841119 87.689333 100.043636 85.809735 100.246154 83.947315 100.448671 82.102303 100.651189 80.274932 100.853706 78.465433 101.056224 76.674039 101.258741 74.900981 101.461259 73.146492 101.663776 71.410802 101.866294 69.694145 102.068811 67.996752 102.271329 66.318854 102.473846 64.660685 102.676364 63.022475 102.878881 61.404457 103.081399 59.806862 103.283916 58.229923 103.486434 56.673871 103.688951 55.138939 103.891469 53.625357 104.093986 52.133359 104.296503 50.663175 104.499021 49.215039 104.701538 47.789181 104.904056 46.385834 105.106573 45.005229 105.309091 43.647599 105.511608 42.313176 105.714126 41.002190 105.916643 39.714875 106.119161 38.451463 106.321678 37.212184 106.524196 35.997271 106.726713 34.806956 106.929231 33.641470 107.131748 32.501047 107.334266 31.385916 107.536783 30.296312 107.739301 29.232465 107.941818 28.194607 108.144336 27.182970 108.346853 26.197786 108.549371 25.239287 108.751888 24.307706 108.954406 23.403273 109.156923 22.526221 109.359441 21.676781 109.561958 20.855186 109.764476 20.061667 109.966993 19.296457 110.169510 18.559787 110.372028 17.851889 110.574545 17.172996 110.777063 16.523338 110.979580 15.903148 111.182098 15.312658 111.384615 14.752099 111.587133 14.221705 111.789650 13.721705 111.992168 13.252333 112.194685 12.813821 112.397203 12.406400 112.599720 12.030229 112.802238 11.685175 113.004755 11.371034 113.207273 11.087600 113.409790 10.834668 113.612308 10.612031 113.814825 10.419486 114.017343 10.256825 114.219860 10.123845 114.422378 10.020339 114.624895 9.946103 114.827413 9.900930 115.029930 9.884615 115.232448 9.896954 115.434965 9.937740 115.637483 10.006768 115.840000 10.103833 116.042517 10.228729 116.245035 10.381251 116.447552 10.561194 116.650070 10.768352 116.852587 11.002520 117.055105 11.263492 117.257622 11.551063 117.460140 11.865027 117.662657 12.205180 117.865175 12.571316 118.067692 12.963228 118.270210 13.380713 118.472727 13.823565 118.675245 14.291577 118.877762 14.784546 119.080280 15.302264 119.282797 15.844528 119.485315 16.411131 119.687832 17.001869 119.890350 17.616535 120.092867 18.254925 120.295385 18.916832 120.497902 19.602053 120.700420 20.310380 120.902937 21.041609 121.105455 21.795535 121.307972 22.571951 121.510490 23.370653 121.713007 24.191436 121.915524 25.034093 122.118042 25.898419 122.320559 26.784210 122.523077 27.691259 122.725594 28.619361 122.928112 29.568311 123.130629 30.537904 123.333147 31.527933 123.535664 32.538194 123.738182 33.568482 123.940699 34.618590 124.143217 35.688313 124.345734 36.777447 124.548252 37.885785 124.750769 39.013122 124.953287 40.159253 125.155804 41.323973 125.358322 42.507075 125.560839 43.708355 125.763357 44.927608 125.965874 46.164627 126.168392 47.419208 126.370909 48.691144 126.573427 49.980231 126.775944 51.286264 126.978462 52.609036 127.180979 53.948343 127.383497 55.303978 127.586014 56.675738 127.788531 58.063415 127.991049 59.466806 128.193566 60.885704 128.396084 62.319903 128.598601 63.769200 128.801119 65.233388 129.003636 66.712261 129.206154 68.205615 129.408671 69.713244 129.611189 71.234943 129.813706 72.770506 130.016224 74.319727 130.218741 75.882403 130.421259 77.458326 130.623776 79.047292 130.826294 80.649095 131.028811 82.263530 131.231329 83.890391 131.433846 85.529473 131.636364 87.180571 131.838881 88.843480 132.041399 90.517993 132.243916 92.203905 132.446434 93.901012 132.648951 95.609107 132.851469 97.327986 133.053986 99.057442 133.256503 100.797271 133.459021 102.547267 133.661538 104.307225 133.864056 106.076939 134.066573 107.856203 134.269091 109.644814 134.471608 111.442564 134.674126 113.249249 134.876643 115.064663 135.079161 116.888601 135.281678 118.720858 135.484196 120.561227 135.686713 122.409504 135.889231 124.265484 136.091748 126.128960 136.294266 127.999728 136.496783 129.877582 136.699301 131.762317 136.901818 133.653727 137.104336 135.551607 137.306853 137.455751 137.509371 139.365954 137.711888 141.282011 137.914406 143.203717 138.116923 145.130865 138.319441 147.063250 138.521958 149.000668 138.724476 150.942913 138.926993 152.889778 139.129510 154.841060 139.332028 156.796552 139.534545 158.756049 139.737063 160.719346 139.939580 162.686238 140.142098 164.656518 140.344615 166.629981 140.547133 168.606423 140.749650 170.585638 140.952168 172.567419 141.154685 174.551563 141.357203 176.537863 141.559720 178.526114 141.762238 180.516111 141.964755 182.507648 142.167273 184.500521 142.369790 186.494522 142.572308 188.489448 142.774825 190.485093 142.977343 192.481250 143.179860 194.477716 143.382378 196.474284 143.584895 198.470750 143.787413 200.466907 143.989930 202.462550 144.192448 204.457474 144.394965 206.451474 144.597483 208.444344 144.800000 210.435879 145.002517 212.425873 145.205035 214.414121 145.407552 216.400417 145.610070 218.384557 145.812587 220.366334 146.015105 222.345544 146.217622 224.321980 146.420140 226.295439 146.622657 228.265713 146.825175 230.232598 147.027692 232.195888 147.230210 234.155378 147.432727 236.110863 147.635245 238.062137 147.837762 240.008995 148.040280 241.951231 148.242797 243.888640 148.445315 245.821016 148.647832 247.748155 148.850350 249.669850 149.052867 251.585897 149.255385 253.496090 149.457902 255.400223 149.660420 257.298092 149.862937 259.189490 150.065455 261.074212 150.267972 262.952054 150.470490 264.822809 150.673007 266.686272 150.875524 268.542238 151.078042 270.390501 151.280559 272.230856 151.483077 274.063098 151.685594 275.887021 151.888112 277.702420 152.090629 279.509089 152.293147 281.306823 152.495664 283.095417 152.698182 284.874665 152.900699 286.644361 153.103217 288.404301 153.305734 290.154279 153.508252 291.894090 153.710769 293.623528 153.913287 295.342387 154.115804 297.050463 154.318322 298.747550 154.520839 300.433442 154.723357 302.107935 154.925874 303.770822 155.128392 305.421899 155.330909 307.060960 155.533427 308.687799 155.735944 310.302212 155.938462 311.903992 156.140979 313.492935 156.343497 315.068834 156.546014 316.631486 156.748531 318.180683 156.951049 319.716221 157.153566 321.237895 157.356084 322.745499 157.558601 324.238827 157.761119 325.717675 157.963636 327.181836 158.166154 328.631105 158.368671 330.065278 158.571189 331.484148 158.773706 332.887511 158.976224 334.275160 159.178741 335.646891 159.381259 337.002498 159.583776 338.341775 159.786294 339.664518 159.988811 340.970520 160.191329 342.259577 160.393846 343.531482 160.596364 344.786032 160.798881 346.023019 161.001399 347.242240 161.203916 348.443488 161.406434 349.626558 161.608951 350.791244 161.811469 351.937342 162.013986 353.064645 162.216503 354.172949 162.419021 355.262048 162.621538 356.331737 162.824056 357.381810 163.026573 358.412061 163.229091 359.422338 163.431608 360.412690 163.634126 361.383221 163.836643 362.334033 164.039161 363.265228 164.241678 364.176909 164.444196 365.069179 164.646713 365.942140 164.849231 366.795894 165.051748 367.630545 165.254266 368.446194 165.456783 369.242944 165.659301 370.020897 165.861818 370.780157 166.064336 371.520825 166.266853 372.243005 166.469371 372.946798 166.671888 373.632307 166.874406 374.299635 167.076923 374.948884 167.279441 375.580157 167.481958 376.193556 167.684476 376.789183 167.886993 377.367142 168.089510 377.927535 168.292028 378.470464 168.494545 378.996031 168.697063 379.504340 168.899580 379.995493 169.102098 380.469592 169.304615 380.926740 169.507133 381.367039 169.709650 381.790592 169.912168 382.197501 170.114685 382.587869 170.317203 382.961799 170.519720 383.319392 170.722238 383.660752 170.924755 383.985981 171.127273 384.295181 171.329790 384.588455 171.532308 384.865906 171.734825 385.127636 171.937343 385.373747 172.139860 385.604342 172.342378 385.819523 172.544895 386.019394 172.747413 386.204056 172.949930 386.373612 173.152448 386.528165 173.354965 386.667817 173.557483 386.792670 173.760000 386.902828 173.962517 386.998392 174.165035 387.079465 174.367552 387.146150 174.570070 387.198549 174.772587 387.236765 174.975105 387.260899 175.177622 387.271056 175.380140 387.267337 175.582657 387.249844 175.785175 387.218681 175.987692 387.173949 176.190210 387.115752 176.392727 387.044191 176.595245 386.959370 176.797762 386.861390 177.000280 386.750355 177.202797 386.626367 177.405315 386.489528 177.607832 386.339941 177.810350 386.177708 178.012867 386.002932 178.215385 385.815715 178.417902 385.616160 178.620420 385.404370 178.822937 385.180447 179.025455 384.944493 179.227972 384.696610 179.430490 384.436903 179.633007 384.165472 179.835524 383.882421 180.038042 383.587852 180.240559 383.281867 180.443077 382.964570 180.645594 382.636062 180.848112 382.296446 181.050629 381.945824 181.253147 381.584300 181.455664 381.211975 181.658182 380.828952 181.860699 380.435334 182.063217 380.031223 182.265734 379.616722 182.468252 379.191932 182.670769 378.756958 182.873287 378.311900 183.075804 377.856863 183.278322 377.391947 183.480839 376.917256 183.683357 376.432893 183.885874 375.938959 184.088392 375.435557 184.290909 374.922790 184.493427 374.400761 184.695944 373.869571 184.898462 373.329324 185.100979 372.780121 185.303497 372.222066 185.506014 371.655260 185.708531 371.079807 185.911049 370.495809 186.113566 369.903368 186.316084 369.302587 186.518601 368.693568 186.721119 368.076415 186.923636 367.451228 187.126154 366.818112 187.328671 366.177168 187.531189 365.528499 187.733706 364.872208 187.936224 364.208397 188.138741 363.537168 188.341259 362.858624 188.543776 362.172867 188.746294 361.480001 188.948811 360.780127 189.151329 360.073349 189.353846 359.359767 189.556364 358.639486 189.758881 357.912608 189.961399 357.179235 190.163916 356.439469 190.366434 355.693414 190.568951 354.941171 190.771469 354.182843 190.973986 353.418533 191.176503 352.648343 191.379021 351.872376 191.581538 351.090734 191.784056 350.303520 191.986573 349.510836 192.189091 348.712785 192.391608 347.909469 192.594126 347.100991 192.796643 346.287454 192.999161 345.468959 193.201678 344.645609 193.404196 343.817507 193.606713 342.984756 193.809231 342.147457 194.011748 341.305714 194.214266 340.459629 194.416783 339.609304 194.619301 338.754842 194.821818 337.896346 195.024336 337.033917 195.226853 336.167659 195.429371 335.297674 195.631888 334.424064 195.834406 333.546932 196.036923 332.666381 196.239441 331.782513 196.441958 330.895430 196.644476 330.005236 196.846993 329.112032 197.049510 328.215921 197.252028 327.317005 197.454545 326.415388 197.657063 325.511171 197.859580 324.604458 198.062098 323.695350 198.264615 322.783950 198.467133 321.870361 198.669650 320.954685 198.872168 320.037024 199.074685 319.117482 199.277203 318.196161 199.479720 317.273163 199.682238 316.348590 199.884755 315.422546 200.087273 314.495133 200.289790 313.566453 200.492308 312.636608 200.694825 311.705702 200.897343 310.773837 201.099860 309.841115 201.302378 308.907639 201.504895 307.973511 201.707413 307.038834 201.909930 306.103711 202.112448 305.168243 202.314965 304.232534 202.517483 303.296686 202.720000 302.360801 202.922517 301.424982 203.125035 300.489332 203.327552 299.553952 203.530070 298.618946 203.732587 297.684416 203.935105 296.750464 204.137622 295.817194 204.340140 294.884707 204.542657 293.953106 204.745175 293.022494 204.947692 292.092972 205.150210 291.164645 205.352727 290.237613 205.555245 289.311980 205.757762 288.387848 205.960280 287.465320 206.162797 286.544498 206.365315 285.625484 206.567832 284.708382 206.770350 283.793293 206.972867 282.880321 207.175385 281.969567 207.377902 281.061134 207.580420 280.155126 207.782937 279.251643 207.985455 278.350789 208.187972 277.452667 208.390490 276.557378 208.593007 275.665026 208.795524 274.775712 208.998042 273.889540 209.200559 273.006612 209.403077 272.127030 209.605594 271.250896 209.808112 270.378314 210.010629 269.509387 210.213147 268.644215 210.415664 267.782902 210.618182 266.925551 210.820699 266.072264 211.023217 265.223143 211.225734 264.378291 211.428252 263.537811 211.630769 262.701804 211.833287 261.870375 212.035804 261.043624 212.238322 260.221654 212.440839 259.404569 212.643357 258.592470 212.845874 257.785461 213.048392 256.983643 213.250909 256.187119 213.453427 255.395991 213.655944 254.610363 213.858462 253.830315 214.060979 253.055846 214.263497 252.286933 214.466014 251.523552 214.668531 250.765680 214.871049 250.013294 215.073566 249.266372 215.276084 248.524890 215.478601 247.788825 215.681119 247.058154 215.883636 246.332854 216.086154 245.612902 216.288671 244.898275 216.491189 244.188949 216.693706 243.484902 216.896224 242.786111 217.098741 242.092552 217.301259 241.404203 217.503776 240.721040 217.706294 240.043040 217.908811 239.370181 218.111329 238.702438 218.313846 238.039790 218.516364 237.382213 218.718881 236.729684 218.921399 236.082180 219.123916 235.439678 219.326434 234.802155 219.528951 234.169587 219.731469 233.541952 219.933986 232.919226 220.136503 232.301387 220.339021 231.688412 220.541538 231.080276 220.744056 230.476958 220.946573 229.878435 221.149091 229.284682 221.351608 228.695678 221.554126 228.111398 221.756643 227.531821 221.959161 226.956922 222.161678 226.386680 222.364196 225.821070 222.566713 225.260069 222.769231 224.703655 222.971748 224.151805 223.174266 223.604496 223.376783 223.061703 223.579301 222.523405 223.781818 221.989579 223.984336 221.460200 224.186853 220.935247 224.389371 220.414696 224.591888 219.898523 224.794406 219.386707 224.996923 218.879223 225.199441 218.376050 225.401958 217.877163 225.604476 217.382539 225.806993 216.892157 226.009510 216.405991 226.212028 215.924020 226.414545 215.446221 226.617063 214.972570 226.819580 214.503044 227.022098 214.037620 227.224615 213.576276 227.427133 213.118987 227.629650 212.665732 227.832168 212.216486 228.034685 211.771227 228.237203 211.329932 228.439720 210.892578 228.642238 210.459141 228.844755 210.029598 229.047273 209.603928 229.249790 209.182105 229.452308 208.764108 229.654825 208.349914 229.857343 207.939498 230.059860 207.532839 230.262378 207.129913 230.464895 206.730696 230.667413 206.335167 230.869930 205.943301 231.072448 205.555077 231.274965 205.170470 231.477483 204.789458 231.680000 204.412017 231.882517 204.038125 232.085035 203.667758 232.287552 203.300894 232.490070 202.937509 232.692587 202.577580 232.895105 202.221084 233.097622 201.867999 233.300140 201.518301 233.502657 201.171966 233.705175 200.828973 233.907692 200.489297 234.110210 200.152916 234.312727 199.819807 234.515245 199.489946 234.717762 199.163311 234.920280 198.839879 235.122797 198.519626 235.325315 198.202529 235.527832 197.888565 235.730350 197.577712 235.932867 197.269946 236.135385 196.965244 236.337902 196.663583 236.540420 196.364940 236.742937 196.069292 236.945455 195.776616 237.147972 195.486888 237.350490 195.200086 237.553007 194.916187 237.755524 194.635167 237.958042 194.357004 238.160559 194.081674 238.363077 193.809154 238.565594 193.539422 238.768112 193.272454 238.970629 193.008227 239.173147 192.746718 239.375664 192.487904 239.578182 192.231762 239.780699 191.978269 239.983217 191.727402 240.185734 191.479137 240.388252 191.233452 240.590769 190.990323 240.793287 190.749728 240.995804 190.511644 241.198322 190.276047 241.400839 190.042914 241.603357 189.812222 241.805874 189.583949 242.008392 189.358070 242.210909 189.134564 242.413427 188.913407 242.615944 188.694575 242.818462 188.478046 243.020979 188.263798 243.223497 188.051805 243.426014 187.842047 243.628531 187.634499 243.831049 187.429138 244.033566 187.225942 244.236084 187.024887 244.438601 186.825950 244.641119 186.629109 244.843636 186.434340 245.046154 186.241620 245.248671 186.050925 245.451189 185.862234 245.653706 185.675523 245.856224 185.490768 246.058741 185.307947 246.261259 185.127037 246.463776 184.948015 246.666294 184.770856 246.868811 184.595540 247.071329 184.422041 247.273846 184.250338 247.476364 184.080408 247.678881 183.912226 247.881399 183.745771 248.083916 183.581018 248.286434 183.417946 248.488951 183.256530 248.691469 183.096749 248.893986 182.938578 249.096503 182.781994 249.299021 182.626976 249.501538 182.473499 249.704056 182.321540 249.906573 182.171077 250.109091 182.022086 250.311608 181.874545 250.514126 181.728429 250.716643 181.583717 250.919161 181.440385 251.121678 181.298410 251.324196 181.157769 251.526713 181.018438 251.729231 180.880396 251.931748 180.743618 252.134266 180.608082 252.336783 180.473765 252.539301 180.340643 252.741818 180.208693 252.944336 180.077893 253.146853 179.948219 253.349371 179.819649 253.551888 179.692158 253.754406 179.565725 253.956923 179.440326 254.159441 179.315938 254.361958 179.192537 254.564476 179.070102 254.766993 178.948608 254.969510 178.828033 255.172028 178.708354 255.374545 178.589547 255.577063 178.471590 255.779580 178.354459 255.982098 178.238131 256.184615 178.122584 256.387133 178.007794 256.589650 177.893738 256.792168 177.780394 256.994685 177.667737 257.197203 177.555745 257.399720 177.444395 257.602238 177.333664 257.804755 177.223529 258.007273 177.113966 258.209790 177.004953 258.412308 176.896467 258.614825 176.788484 258.817343 176.680981 259.019860 176.573936 259.222378 176.467325 259.424895 176.361125 259.627413 176.255313 259.829930 176.149866 260.032448 176.044762 260.234965 175.939976 260.437483 175.835486 260.640000 175.731269 260.842517 175.627302 261.045035 175.523561 261.247552 175.420024 261.450070 175.316667 261.652587 175.213468 261.855105 175.110403 262.057622 175.007449 262.260140 174.904584 262.462657 174.801784 262.665175 174.699026 262.867692 174.596287 263.070210 174.493544 263.272727 174.390773 263.475245 174.287953 263.677762 174.185059 263.880280 174.082069 264.082797 173.978960 264.285315 173.875708 264.487832 173.772295 264.690350 173.668714 264.892867 173.564965 265.095385 173.461047 265.297902 173.356957 265.500420 173.252695 265.702937 173.148260 265.905455 173.043649 266.107972 172.938861 266.310490 172.833896 266.513007 172.728751 266.715524 172.623425 266.918042 172.517918 267.120559 172.412227 267.323077 172.306351 267.525594 172.200289 267.728112 172.094039 267.930629 171.987600 268.133147 171.880971 268.335664 171.774150 268.538182 171.667136 268.740699 171.559928 268.943217 171.452523 269.145734 171.344921 269.348252 171.237121 269.550769 171.129121 269.753287 171.020919 269.955804 170.912514 270.158322 170.803906 270.360839 170.695091 270.563357 170.586070 270.765874 170.476840 270.968392 170.367401 271.170909 170.257751 271.373427 170.147888 271.575944 170.037811 271.778462 169.927519 271.980979 169.817011 272.183497 169.706284 272.386014 169.595339 272.588531 169.484172 272.791049 169.372783 272.993566 169.261171 273.196084 169.149334 273.398601 169.037271 273.601119 168.924980 273.803636 168.812459 274.006154 168.699709 274.208671 168.586727 274.411189 168.473511 274.613706 168.360061 274.816224 168.246375 275.018741 168.132452 275.221259 168.018290 275.423776 167.903888 275.626294 167.789245 275.828811 167.674359 276.031329 167.559228 276.233846 167.443852 276.436364 167.328229 276.638881 167.212357 276.841399 167.096236 277.043916 166.979864 277.246434 166.863239 277.448951 166.746361 277.651469 166.629227 277.853986 166.511836 278.056503 166.394187 278.259021 166.276279 278.461538 166.158111 278.664056 166.039680 278.866573 165.920985 279.069091 165.802026 279.271608 165.682800 279.474126 165.563307 279.676643 165.443544 279.879161 165.323511 280.081678 165.203207 280.284196 165.082629 280.486713 164.961776 280.689231 164.840647 280.891748 164.719242 281.094266 164.597557 281.296783 164.475592 281.499301 164.353346 281.701818 164.230817 281.904336 164.108004 282.106853 163.984905 282.309371 163.861519 282.511888 163.737844 282.714406 163.613880 282.916923 163.489625 283.119441 163.365077 283.321958 163.240235 283.524476 163.115098 283.726993 162.989664 283.929510 162.863932 284.132028 162.737901 284.334545 162.611569 284.537063 162.484935 284.739580 162.357997 284.942098 162.230754 285.144615 162.103205 285.347133 161.975348 285.549650 161.847182 285.752168 161.718706 285.954685 161.589917 286.157203 161.460816 286.359720 161.331399 286.562238 161.201667 286.764755 161.071617 286.967273 160.941249 287.169790 160.810560 287.372308 160.679550 287.574825 160.548217 287.777343 160.416560 287.979860 160.284577 288.182378 160.152267 288.384895 160.019629 288.587413 159.886660 288.789930 159.753361 288.992448 159.619729 289.194965 159.485763 289.397483 159.351462 289.600000 159.216823 289.802517 159.081847 290.005035 158.946532 290.207552 158.810875 290.410070 158.674876 290.612587 158.538534 290.815105 158.401847 291.017622 158.264813 291.220140 158.127431 291.422657 157.989701 291.625175 157.851620 291.827692 157.713187 292.030210 157.574400 292.232727 157.435259 292.435245 157.295762 292.637762 157.155908 292.840280 157.015694 293.042797 156.875121 293.245315 156.734186 293.447832 156.592888 293.650350 156.451225 293.852867 156.309197 294.055385 156.166802 294.257902 156.024038 294.460420 155.880905 294.662937 155.737400 294.865455 155.593523 295.067972 155.449272 295.270490 155.304645 295.473007 155.159641 295.675524 155.014260 295.878042 154.868499 296.080559 154.722357 296.283077 154.575832 296.485594 154.428924 296.688112 154.281631 296.890629 154.133952 297.093147 153.985885 297.295664 153.837428 297.498182 153.688581 297.700699 153.539343 297.903217 153.389710 298.105734 153.239683 298.308252 153.089260 298.510769 152.938440 298.713287 152.787221 298.915804 152.635601 299.118322 152.483580 299.320839 152.331156 299.523357 152.178327 299.725874 152.025093 299.928392 151.871451 300.130909 151.717402 300.333427 151.562942 300.535944 151.408071 300.738462 151.252787 300.940979 151.097089 301.143497 150.940976 301.346014 150.784446 301.548531 150.627498 301.751049 150.470130 301.953566 150.312341 302.156084 150.154131 302.358601 149.995496 302.561119 149.836436 302.763636 149.676950 302.966154 149.517036 303.168671 149.356693 303.371189 149.195919 303.573706 149.034713 303.776224 148.873074 303.978741 148.711000 304.181259 148.548490 304.383776 148.385542 304.586294 148.222156 304.788811 148.058329 304.991329 147.894061 305.193846 147.729349 305.396364 147.564193 305.598881 147.398592 305.801399 147.232543 306.003916 147.066046 306.206434 146.899098 306.408951 146.731700 306.611469 146.563849 306.813986 146.395543 307.016503 146.226783 307.219021 146.057565 307.421538 145.887889 307.624056 145.717754 307.826573 145.547157 308.029091 145.376099 308.231608 145.204576 308.434126 145.032589 308.636643 144.860134 308.839161 144.687213 309.041678 144.513821 309.244196 144.339959 309.446713 144.165626 309.649231 143.990818 309.851748 143.815536 310.054266 143.639778 310.256783 143.463542 310.459301 143.286827 310.661818 143.109633 310.864336 142.931956 311.066853 142.753796 311.269371 142.575152 311.471888 142.396022 311.674406 142.216405 311.876923 142.036299 312.079441 141.855703 312.281958 141.674616 312.484476 141.493036 312.686993 141.310962 312.889510 141.128393 313.092028 140.945326 313.294545 140.761762 313.497063 140.577697 313.699580 140.393132 313.902098 140.208065 314.104615 140.022493 314.307133 139.836417 314.509650 139.649834 314.712168 139.462743 314.914685 139.275142 315.117203 139.087035 315.319720 138.898436 315.522238 138.709367 315.724755 138.519846 315.927273 138.329893 316.129790 138.139528 316.332308 137.948771 316.534825 137.757641 316.737343 137.566159 316.939860 137.374343 317.142378 137.182214 317.344895 136.989792 317.547413 136.797095 317.749930 136.604145 317.952448 136.410960 318.154965 136.217560 318.357483 136.023966 318.560000 135.830196 318.762517 135.636271 318.965035 135.442210 319.167552 135.248033 319.370070 135.053759 319.572587 134.859410 319.775105 134.665003 319.977622 134.470559 320.180140 134.276098 320.382657 134.081639 320.585175 133.887203 320.787692 133.692808 320.990210 133.498475 321.192727 133.304223 321.395245 133.110073 321.597762 132.916043 321.800280 132.722153 322.002797 132.528424 322.205315 132.334875 322.407832 132.141526 322.610350 131.948396 322.812867 131.755505 323.015385 131.562873 323.217902 131.370520 323.420420 131.178465 323.622937 130.986728 323.825455 130.795330 324.027972 130.604288 324.230490 130.413624 324.433007 130.223358 324.635524 130.033508 324.838042 129.844094 325.040559 129.655137 325.243077 129.466655 325.445594 129.278670 325.648112 129.091200 325.850629 128.904265 326.053147 128.717885 326.255664 128.532080 326.458182 128.346869 326.660699 128.162272 326.863217 127.978309 327.065734 127.794999 327.268252 127.612363 327.470769 127.430420 327.673287 127.249190 327.875804 127.068693 328.078322 126.888947 328.280839 126.709974 328.483357 126.531792 328.685874 126.354422 328.888392 126.177883 329.090909 126.002195 329.293427 125.827377 329.495944 125.653450 329.698462 125.480433 329.900979 125.308346 330.103497 125.137209 330.306014 124.967041 330.508531 124.797861 330.711049 124.629691 330.913566 124.462549 331.116084 124.296456 331.318601 124.131430 331.521119 123.967493 331.723636 123.804662 331.926154 123.642959 332.128671 123.482403 332.331189 123.323013 332.533706 123.164810 332.736224 123.007813 332.938741 122.852042 333.141259 122.697516 333.343776 122.544256 333.546294 122.392281 333.748811 122.241610 333.951329 122.092265 334.153846 121.944263 334.356364 121.797625 334.558881 121.652371 334.761399 121.508521 334.963916 121.366094 335.166434 121.225109 335.368951 121.085588 335.571469 120.947548 335.773986 120.811011 335.976503 120.675996 336.179021 120.542522 336.381538 120.410610 336.584056 120.280279 336.786573 120.151548 336.989091 120.024438 337.191608 119.898968 337.394126 119.775159 337.596643 119.653029 337.799161 119.532598 338.001678 119.413887 338.204196 119.296914 338.406713 119.181701 338.609231 119.068265 338.811748 118.956628 339.014266 118.846809 339.216783 118.738827 339.419301 118.632703 339.621818 118.528455 339.824336 118.426105 340.026853 118.325670 340.229371 118.227173 340.431888 118.130631 340.634406 118.036065 340.836923 117.943494 341.039441 117.852939 341.241958 117.764418 341.444476 117.677952 341.646993 117.593561 341.849510 117.511264 342.052028 117.431080 342.254545 117.353030 342.457063 117.277134 342.659580 117.203410 342.862098 117.131880 343.064615 117.062562 343.267133 116.995476 343.469650 116.930642 343.672168 116.868080 343.874685 116.807809 344.077203 116.749849 344.279720 116.694221 344.482238 116.640943 344.684755 116.590035 344.887273 116.541518 345.089790 116.495411 345.292308 116.451733 345.494825 116.410504 345.697343 116.371745 345.899860 116.335474 346.102378 116.301712 346.304895 116.270478 346.507413 116.241792 346.709930 116.215674 346.912448 116.192143 347.114965 116.171219 347.317483 116.152923 347.520000 116.137273 347.722517 116.124289 347.925035 116.113992 348.127552 116.106400 348.330070 116.101534 348.532587 116.099413 348.735105 116.100058 348.937622 116.103487 349.140140 116.109721 349.342657 116.118779 349.545175 116.130681 349.747692 116.145446 349.950210 116.163096 350.152727 116.183648 350.355245 116.207123 350.557762 116.233541 350.760280 116.262922 350.962797 116.295284 351.165315 116.330649 351.367832 116.369035 351.570350 116.410462 351.772867 116.454950 351.975385 116.502519 352.177902 116.553189 352.380420 116.606979 352.582937 116.663909 352.785455 116.723999 352.987972 116.787268 353.190490 116.853736 353.393007 116.923424 353.595524 116.996349 353.798042 117.072534 354.000559 117.151996 354.203077 117.234757 354.405594 117.320835 354.608112 117.410250 354.810629 117.503022 355.013147 117.599171 355.215664 117.698717 355.418182 117.801679 355.620699 117.908077 355.823217 118.017930 356.025734 118.131260 356.228252 118.248084 356.430769 118.368423 356.633287 118.492297 356.835804 118.619725 357.038322 118.750728 357.240839 118.885324 357.443357 119.023534 357.645874 119.165377 357.848392 119.310874 358.050909 119.460043 358.253427 119.612904 358.455944 119.769478 358.658462 119.929784 358.860979 120.093842 359.063497 120.261671 359.266014 120.433291 359.468531 120.608722 359.671049 120.787984 359.873566 120.971096 360.076084 121.158079 360.278601 121.348951 360.481119 121.543733 360.683636 121.742444 360.886154 121.945105 361.088671 122.151734 361.291189 122.362351 361.493706 122.576977 361.696224 122.795631 361.898741 123.018333 362.101259 123.245102 362.303776 123.475958 362.506294 123.710921 362.708811 123.950011 362.911329 124.193247 363.113846 124.440650 363.316364 124.692238 363.518881 124.948032 363.721399 125.208051 363.923916 125.472316 364.126434 125.740845 364.328951 126.013658 364.531469 126.290776 364.733986 126.572218 364.936503 126.858004 365.139021 127.148153 365.341538 127.442685 365.544056 127.741620 365.746573 128.044966 365.949091 128.352678 366.151608 128.664703 366.354126 128.980984 366.556643 129.301466 366.759161 129.626093 366.961678 129.954811 367.164196 130.287563 367.366713 130.624295 367.569231 130.964951 367.771748 131.309476 367.974266 131.657814 368.176783 132.009909 368.379301 132.365707 368.581818 132.725152 368.784336 133.088188 368.986853 133.454761 369.189371 133.824814 369.391888 134.198292 369.594406 134.575141 369.796923 134.955304 369.999441 135.338726 370.201958 135.725351 370.404476 136.115125 370.606993 136.507992 370.809510 136.903896 371.012028 137.302783 371.214545 137.704596 371.417063 138.109280 371.619580 138.516780 371.822098 138.927040 372.024615 139.340006 372.227133 139.755621 372.429650 140.173830 372.632168 140.594578 372.834685 141.017809 373.037203 141.443468 373.239720 141.871500 373.442238 142.301849 373.644755 142.734460 373.847273 143.169277 374.049790 143.606245 374.252308 144.045309 374.454825 144.486412 374.657343 144.929500 374.859860 145.374518 375.062378 145.821409 375.264895 146.270119 375.467413 146.720592 375.669930 147.172773 375.872448 147.626606 376.074965 148.082035 376.277483 148.539006 376.480000 148.997464 376.682517 149.457351 376.885035 149.918614 377.087552 150.381197 377.290070 150.845044 377.492587 151.310100 377.695105 151.776310 377.897622 152.243617 378.100140 152.711968 378.302657 153.181306 378.505175 153.651576 378.707692 154.122722 378.910210 154.594689 379.112727 155.067423 379.315245 155.540866 379.517762 156.014964 379.720280 156.489662 379.922797 156.964904 380.125315 157.440635 380.327832 157.916798 380.530350 158.393340 380.732867 158.870204 380.935385 159.347335 381.137902 159.824678 381.340420 160.302177 381.542937 160.779776 381.745455 161.257422 381.947972 161.735057 382.150490 162.212626 382.353007 162.690075 382.555524 163.167348 382.758042 163.644389 382.960559 164.121143 383.163077 164.597554 383.365594 165.073568 383.568112 165.549128 383.770629 166.024180 383.973147 166.498667 384.175664 166.972535 384.378182 167.445728 384.580699 167.918191 384.783217 168.389868 384.985734 168.860704 385.188252 169.330643 385.390769 169.799630 385.593287 170.267610 385.795804 170.734528 385.998322 171.200327 386.200839 171.664952 386.403357 172.128349 386.605874 172.590461 386.808392 173.051233 387.010909 173.510610 387.213427 173.968536 387.415944 174.424956 387.618462 174.879815 387.820979 175.333057 388.023497 175.784627 388.226014 176.234469 388.428531 176.682528 388.631049 177.128748 388.833566 177.573075 389.036084 178.015452 389.238601 178.455824 389.441119 178.894137 389.643636 179.330334 389.846154 179.764360 390.048671 180.196159 390.251189 180.625677 390.453706 181.052857 390.656224 181.477645 390.858741 181.899985 391.061259 182.319822 391.263776 182.737100 391.466294 183.151764 391.668811 183.563757 391.871329 183.973026 392.073846 184.379515 392.276364 184.783168 392.478881 185.183929 392.681399 185.581744 392.883916 185.976556 393.086434 186.368312 393.288951 186.756954 393.491469 187.142428 393.693986 187.524678 393.896503 187.903649 394.099021 188.279286 394.301538 188.651533 394.504056 189.020334 394.706573 189.385634 394.909091 189.747379 395.111608 190.105512 395.314126 190.459978 395.516643 190.810721 395.719161 191.157687 395.921678 191.500819 396.124196 191.840063 396.326713 192.175363 396.529231 192.506664 396.731748 192.833909 396.934266 193.157045 397.136783 193.476014 397.339301 193.790763 397.541818 194.101235 397.744336 194.407375 397.946853 194.709128 398.149371 195.006439 398.351888 195.299251 398.554406 195.587510 398.756923 195.871159 398.959441 196.150145 399.161958 196.424411 399.364476 196.693901 399.566993 196.958561 399.769510 197.218335 399.972028 197.473168 400.174545 197.723004 400.377063 197.967787 400.579580 198.207463 400.782098 198.441977 400.984615 198.671271 401.187133 198.895292 401.389650 199.113984 401.592168 199.327291 401.794685 199.535158 401.997203 199.737529 402.199720 199.934350 402.402238 200.125564 402.604755 200.311117 402.807273 200.490952 403.009790 200.665015 403.212308 200.833250 403.414825 200.995602 403.617343 201.152015 403.819860 201.302434 404.022378 201.446804 404.224895 201.585068 404.427413 201.717172 404.629930 201.843060 404.832448 201.962678 405.034965 202.075968 405.237483 202.182877 405.440000 202.283348 405.642517 202.377326 405.845035 202.464756 406.047552 202.545583 406.250070 202.619750 406.452587 202.687203 406.655105 202.747886 406.857622 202.801744 407.060140 202.848722 407.262657 202.888763 407.465175 202.921812 407.667692 202.947815 407.870210 202.966716 408.072727 202.978458 408.275245 202.982988 408.477762 202.980249 408.680280 202.970186 408.882797 202.952744 409.085315 202.927867 409.287832 202.895500 409.490350 202.855587 409.692867 202.808074 409.895385 202.752903 410.097902 202.690022 410.300420 202.619373 410.502937 202.540901 410.705455 202.454551 410.907972 202.360268 411.110490 202.257996 411.313007 202.147680 411.515524 202.029264 411.718042 201.902693 411.920559 201.767911 412.123077 201.624864 412.325594 201.473495 412.528112 201.313750 412.730629 201.145573 412.933147 200.968908 413.135664 200.783700 413.338182 200.589894 413.540699 200.387434 413.743217 200.176265 413.945734 199.956331 414.148252 199.727577 414.350769 199.489948 414.553287 199.243388 414.755804 198.987842 414.958322 198.723255 415.160839 198.449570 415.363357 198.166733 415.565874 197.874688 415.768392 197.573380 415.970909 197.262753 416.173427 196.942753 416.375944 196.613344 416.578462 196.274585 416.780979 195.926552 416.983497 195.569322 417.186014 195.202975 417.388531 194.827588 417.591049 194.443239 417.793566 194.050006 417.996084 193.647966 418.198601 193.237198 418.401119 192.817780 418.603636 192.389788 418.806154 191.953302 419.008671 191.508400 419.211189 191.055158 419.413706 190.593655 419.616224 190.123969 419.818741 189.646177 420.021259 189.160358 420.223776 188.666590 420.426294 188.164950 420.628811 187.655516 420.831329 187.138367 421.033846 186.613579 421.236364 186.081232 421.438881 185.541402 421.641399 184.994168 421.843916 184.439608 422.046434 183.877799 422.248951 183.308820 422.451469 182.732748 422.653986 182.149661 422.856503 181.559637 423.059021 180.962754 423.261538 180.359091 423.464056 179.748723 423.666573 179.131731 423.869091 178.508191 424.071608 177.878181 424.274126 177.241780 424.476643 176.599065 424.679161 175.950115 424.881678 175.295006 425.084196 174.633817 425.286713 173.966626 425.489231 173.293510 425.691748 172.614549 425.894266 171.929818 426.096783 171.239397 426.299301 170.543363 426.501818 169.841795 426.704336 169.134769 426.906853 168.422365 427.109371 167.704659 427.311888 166.981730 427.514406 166.253655 427.716923 165.520514 427.919441 164.782382 428.121958 164.039339 428.324476 163.291462 428.526993 162.538829 428.729510 161.781518 428.932028 161.019606 429.134545 160.253173 429.337063 159.482295 429.539580 158.707051 429.742098 157.927518 429.944615 157.143775 430.147133 156.355898 430.349650 155.563967 430.552168 154.768059 430.754685 153.968252 430.957203 153.164623 431.159720 152.357251 431.362238 151.546214 431.564755 150.731589 431.767273 149.913455 431.969790 149.091889 432.172308 148.266968 432.374825 147.438772 432.577343 146.607378 432.779860 145.772864 432.982378 144.935307 433.184895 144.094786 433.387413 143.251379 433.589930 142.405162 433.792448 141.556216 433.994965 140.704616 434.197483 139.850441 434.400000 138.993769 434.602517 138.134679 434.805035 137.273246 435.007552 136.409551 435.210070 135.543670 435.412587 134.675681 435.615105 133.805663 435.817622 132.933693 436.020140 132.059849 436.222657 131.184209 436.425175 130.306851 436.627692 129.427852 436.830210 128.547291 437.032727 127.665246 437.235245 126.781795 437.437762 125.897014 437.640280 125.010983 437.842797 124.123779 438.045315 123.235480 438.247832 122.346164 438.450350 121.455908 438.652867 120.564792 438.855385 119.672892 439.057902 118.780286 439.260420 117.887053 439.462937 116.993270 439.665455 116.099015 439.867972 115.204366 440.070490 114.309401 440.273007 113.414198 440.475524 112.518835 440.678042 111.623389 440.880559 110.727939 441.083077 109.832562 441.285594 108.937336 441.488112 108.042340 441.690629 107.147651 441.893147 106.253346 442.095664 105.359505 442.298182 104.466204 442.500699 103.573522 442.703217 102.681537 442.905734 101.790326 443.108252 100.899967 443.310769 100.010538 443.513287 99.122118 443.715804 98.234783 443.918322 97.348613 444.120839 96.463684 444.323357 95.580075 444.525874 94.697863 444.728392 93.817127 444.930909 92.937944 445.133427 92.060392 445.335944 91.184550 445.538462 90.310495 445.740979 89.438304 445.943497 88.568056 446.146014 87.699830 446.348531 86.833701 446.551049 85.969749 446.753566 85.108052 446.956084 84.248687 447.158601 83.391731 447.361119 82.537264 447.563636 81.685363 447.766154 80.836106 447.968671 79.989571 448.171189 79.145835 448.373706 78.304976 448.576224 77.467073 448.778741 76.632204 448.981259 75.800445 449.183776 74.971876 449.386294 74.146574 449.588811 73.324616 449.791329 72.506081 449.993846 71.691047 450.196364 70.879592 450.398881 70.071793 450.601399 69.267728 450.803916 68.467475 451.006434 67.671113 451.208951 66.878718 451.411469 66.090370 451.613986 65.306145 451.816503 64.526122 452.019021 63.750379 452.221538 62.978993 452.424056 62.212042 452.626573 61.449605 452.829091 60.691758 453.031608 59.938581 453.234126 59.190151 453.436643 58.446545 453.639161 57.707843 453.841678 56.974121 454.044196 56.245457 454.246713 55.521930 454.449231 54.803617 454.651748 54.090596 454.854266 53.382945 455.056783 52.680743 455.259301 51.984066 455.461818 51.292993 455.664336 50.607601 455.866853 49.927969 456.069371 49.254175 456.271888 48.586295 456.474406 47.924409 456.676923 47.268595 456.879441 46.618929 457.081958 45.975490 457.284476 45.338355 457.486993 44.707604 457.689510 44.083313 457.892028 43.465560 458.094545 42.854424 458.297063 42.249982 458.499580 41.652312 458.702098 41.061492 458.904615 40.477600 459.107133 39.900714 459.309650 39.330912 459.512168 38.768271 459.714685 38.212870 459.917203 37.664786 460.119720 37.124097 460.322238 36.590882 460.524755 36.065217 460.727273 35.547182 460.929790 35.036853 461.132308 34.534309 461.334825 34.039628 461.537343 33.552887 461.739860 33.074164 461.942378 32.603538 462.144895 32.141086 462.347413 31.686887 462.549930 31.241017 462.752448 30.803555 462.954965 30.374579 463.157483 29.954166 463.360000 29.542395 463.562517 29.139343 463.765035 28.745089 463.967552 28.359710 464.170070 27.983284 464.372587 27.615889 464.575105 27.257603 464.777622 26.908504 464.980140 26.568669 465.182657 26.238178 465.385175 25.917106 465.587692 25.605533 465.790210 25.303536 465.992727 25.011193 466.195245 24.728583 466.397762 24.455782 466.600280 24.192869 466.802797 23.939922 467.005315 23.696996 467.207832 23.464056 467.410350 23.241047 467.612867 23.027910 467.815385 22.824590 468.017902 22.631029 468.220420 22.447171 468.422937 22.272958 468.625455 22.108333 468.827972 21.953241 469.030490 21.807624 469.233007 21.671424 469.435524 21.544586 469.638042 21.427053 469.840559 21.318767 470.043077 21.219672 470.245594 21.129710 470.448112 21.048825 470.650629 20.976961 470.853147 20.914060 471.055664 20.860065 471.258182 20.814920 471.460699 20.778567 471.663217 20.750950 471.865734 20.732012 472.068252 20.721696 472.270769 20.719946 472.473287 20.726704 472.675804 20.741913 472.878322 20.765517 473.080839 20.797458 473.283357 20.837681 473.485874 20.886127 473.688392 20.942741 473.890909 21.007465 474.093427 21.080243 474.295944 21.161017 474.498462 21.249731 474.700979 21.346327 474.903497 21.450750 475.106014 21.562942 475.308531 21.682846 475.511049 21.810406 475.713566 21.945564 475.916084 22.088264 476.118601 22.238448 476.321119 22.396061 476.523636 22.561045 476.726154 22.733343 476.928671 22.912899 477.131189 23.099655 477.333706 23.293554 477.536224 23.494541 477.738741 23.702558 477.941259 23.917547 478.143776 24.139453 478.346294 24.368218 478.548811 24.603786 478.751329 24.846099 478.953846 25.095101 479.156364 25.350735 479.358881 25.612945 479.561399 25.881672 479.763916 26.156861 479.966434 26.438454 480.168951 26.726395 480.371469 27.020626 480.573986 27.321092 480.776503 27.627734 480.979021 27.940497 481.181538 28.259323 481.384056 28.584155 481.586573 28.914937 481.789091 29.251612 481.991608 29.594122 482.194126 29.942412 482.396643 30.296424 482.599161 30.656101 482.801678 31.021386 483.004196 31.392223 483.206713 31.768555 483.409231 32.150325 483.611748 32.537475 483.814266 32.929950 484.016783 33.327692 484.219301 33.730644 484.421818 34.138750 484.624336 34.551952 484.826853 34.970195 485.029371 35.393420 485.231888 35.821571 485.434406 36.254592 485.636923 36.692425 485.839441 37.135013 486.041958 37.582300 486.244476 38.034229 486.446993 38.490743 486.649510 38.951785 486.852028 39.417298 487.054545 39.887225 487.257063 40.361510 487.459580 40.840095 487.662098 41.322924 487.864615 41.809940 488.067133 42.301087 488.269650 42.796306 488.472168 43.295541 488.674685 43.798736 488.877203 44.305834 489.079720 44.816777 489.282238 45.331509 489.484755 45.849974 489.687273 46.372113 489.889790 46.897871 490.092308 47.427190 490.294825 47.960013 490.497343 48.496284 490.699860 49.035946 490.902378 49.578942 491.104895 50.125216 491.307413 50.674709 491.509930 51.227366 491.712448 51.783129 491.914965 52.341942 492.117483 52.903748 492.320000 53.468489 492.522517 54.036110 492.725035 54.606553 492.927552 55.179762 493.130070 55.755678 493.332587 56.334247 493.535105 56.915410 493.737622 57.499111 493.940140 58.085293 494.142657 58.673900 494.345175 59.264874 494.547692 59.858158 494.750210 60.453696 494.952727 61.051430 495.155245 61.651304 495.357762 62.253262 495.560280 62.857245 495.762797 63.463198 495.965315 64.071064 496.167832 64.680785 496.370350 65.292304 496.572867 65.905566 496.775385 66.520512 496.977902 67.137087 497.180420 67.755232 497.382937 68.374893 497.585455 68.996010 497.787972 69.618529 497.990490 70.242391 498.193007 70.867540 498.395524 71.493920 498.598042 72.121472 498.800559 72.750141 499.003077 73.379870 499.205594 74.010601 499.408112 74.642278 499.610629 75.274844 499.813147 75.908242 500.015664 76.542415 500.218182 77.177306 500.420699 77.812859 500.623217 78.449017 500.825734 79.085722 501.028252 79.722918 501.230769 80.360549 501.433287 80.998556 501.635804 81.636884 501.838322 82.275475 502.040839 82.914273 502.243357 83.553221 502.445874 84.192261 502.648392 84.831337 502.850909 85.470393 503.053427 86.109371 503.255944 86.748214 503.458462 87.386866 503.660979 88.025270 503.863497 88.663368 504.066014 89.301104 504.268531 89.938422 504.471049 90.575264 504.673566 91.211573 504.876084 91.847293 505.078601 92.482366 505.281119 93.116736 505.483636 93.750346 505.686154 94.383140 505.888671 95.015059 506.091189 95.646048 506.293706 96.276049 506.496224 96.905006 506.698741 97.532862 506.901259 98.159560 507.103776 98.785043 507.306294 99.409254 507.508811 100.032136 507.711329 100.653633 507.913846 101.273687 508.116364 101.892242 508.318881 102.509241 508.521399 103.124627 508.723916 103.738343 508.926434 104.350333 509.128951 104.960539 509.331469 105.568905 509.533986 106.175373 509.736503 106.779887 509.939021 107.382390 510.141538 107.982826 510.344056 108.581136 510.546573 109.177265 510.749091 109.771156 510.951608 110.362751 511.154126 110.951994 511.356643 111.538828 511.559161 112.123196 511.761678 112.705042 511.964196 113.284308 512.166713 113.860937 512.369231 114.434873 512.571748 115.006059 512.774266 115.574437 512.976783 116.139952 513.179301 116.702546 513.381818 117.262163 513.584336 117.818745 513.786853 118.372235 513.989371 118.922578 514.191888 119.469715 514.394406 120.013590 514.596923 120.554147 514.799441 121.091327 515.001958 121.625076 515.204476 122.155335 515.406993 122.682047 515.609510 123.205157 515.812028 123.724606 516.014545 124.240339 516.217063 124.752298 516.419580 125.260427 516.622098 125.764668 516.824615 126.264964 517.027133 126.761260 517.229650 127.253497 517.432168 127.741620 517.634685 128.225583 517.837203 128.705392 518.039720 129.181062 518.242238 129.652610 518.444755 130.120053 518.647273 130.583408 518.849790 131.042691 519.052308 131.497920 519.254825 131.949110 519.457343 132.396278 519.659860 132.839442 519.862378 133.278618 520.064895 133.713822 520.267413 134.145071 520.469930 134.572382 520.672448 134.995772 520.874965 135.415257 521.077483 135.830854 521.280000 136.242579 521.482517 136.650450 521.685035 137.054483 521.887552 137.454695 522.090070 137.851102 522.292587 138.243721 522.495105 138.632569 522.697622 139.017662 522.900140 139.399018 523.102657 139.776652 523.305175 140.150582 523.507692 140.520823 523.710210 140.887394 523.912727 141.250311 524.115245 141.609589 524.317762 141.965247 524.520280 142.317300 524.722797 142.665766 524.925315 143.010660 525.127832 143.352000 525.330350 143.689803 525.532867 144.024084 525.735385 144.354862 525.937902 144.682152 526.140420 145.005970 526.342937 145.326335 526.545455 145.643262 526.747972 145.956769 526.950490 146.266871 527.153007 146.573586 527.355524 146.876930 527.558042 147.176920 527.760559 147.473573 527.963077 147.766905 528.165594 148.056933 528.368112 148.343673 528.570629 148.627143 528.773147 148.907359 528.975664 149.184338 529.178182 149.458096 529.380699 149.728650 529.583217 149.996017 529.785734 150.260214 529.988252 150.521257 530.190769 150.779162 530.393287 151.033948 530.595804 151.285629 530.798322 151.534223 531.000839 151.779747 531.203357 152.022217 531.405874 152.261651 531.608392 152.498063 531.810909 152.731473 532.013427 152.961895 532.215944 153.189347 532.418462 153.413845 532.620979 153.635407 532.823497 153.854048 533.026014 154.069786 533.228531 154.282637 533.431049 154.492618 533.633566 154.699745 533.836084 154.904036 534.038601 155.105506 534.241119 155.304173 534.443636 155.500053 534.646154 155.693164 534.848671 155.883521 535.051189 156.071141 535.253706 156.256041 535.456224 156.438238 535.658741 156.617749 535.861259 156.794589 536.063776 156.968777 536.266294 157.140328 536.468811 157.309259 536.671329 157.475586 536.873846 157.639328 537.076364 157.800499 537.278881 157.959118 537.481399 158.115200 537.683916 158.268762 537.886434 158.419821 538.088951 158.568394 538.291469 158.714498 538.493986 158.858148 538.696503 158.999362 538.899021 159.138156 539.101538 159.274548 539.304056 159.408553 539.506573 159.540189 539.709091 159.669472 539.911608 159.796418 540.114126 159.921046 540.316643 160.043370 540.519161 160.163408 540.721678 160.281177 540.924196 160.396693 541.126713 160.509974 541.329231 160.621034 541.531748 160.729892 541.734266 160.836565 541.936783 160.941067 542.139301 161.043417 542.341818 161.143632 542.544336 161.241727 542.746853 161.337719 542.949371 161.431626 543.151888 161.523463 543.354406 161.613248 543.556923 161.700997 543.759441 161.786727 543.961958 161.870455 544.164476 161.952197 544.366993 162.031970 544.569510 162.109790 544.772028 162.185675 544.974545 162.259640 545.177063 162.331704 545.379580 162.401882 545.582098 162.470191 545.784615 162.536647 545.987133 162.601268 546.189650 162.664070 546.392168 162.725070 546.594685 162.784285 546.797203 162.841731 546.999720 162.897424 547.202238 162.951382 547.404755 163.003622 547.607273 163.054159 547.809790 163.103011 548.012308 163.150194 548.214825 163.195725 548.417343 163.239621 548.619860 163.281899 548.822378 163.322574 549.024895 163.361664 549.227413 163.399186 549.429930 163.435155 549.632448 163.469590 549.834965 163.502506 550.037483 163.533920 550.240000 163.563849 550.442517 163.592309 550.645035 163.619318 550.847552 163.644892 551.050070 163.669047 551.252587 163.691801 551.455105 163.713169 551.657622 163.733169 551.860140 163.751818 552.062657 163.769132 552.265175 163.785127 552.467692 163.799821 552.670210 163.813230 552.872727 163.825371 553.075245 163.836260 553.277762 163.845914 553.480280 163.854350 553.682797 163.861585 553.885315 163.867635 554.087832 163.872517 554.290350 163.876248 554.492867 163.878843 554.695385 163.880321 554.897902 163.880698 555.100420 163.879989 555.302937 163.878213 555.505455 163.875386 555.707972 163.871524 555.910490 163.866644 556.113007 163.860763 556.315524 163.853897 556.518042 163.846063 556.720559 163.837279 556.923077 163.827560 557.125594 163.816923 557.328112 163.805385 557.530629 163.792962 557.733147 163.779672 557.935664 163.765531 558.138182 163.750555 558.340699 163.734762 558.543217 163.718168 558.745734 163.700790 558.948252 163.682644 559.150769 163.663747 559.353287 163.644115 559.555804 163.623767 559.758322 163.602717 559.960839 163.580983 560.163357 163.558582 560.365874 163.535530 560.568392 163.511844 560.770909 163.487541 560.973427 163.462636 561.175944 163.437148 561.378462 163.411093 561.580979 163.384486 561.783497 163.357346 561.986014 163.329688 562.188531 163.301530 562.391049 163.272888 562.593566 163.243779 562.796084 163.214219 562.998601 163.184225 563.201119 163.153814 563.403636 163.123003 563.606154 163.091808 563.808671 163.060245 564.011189 163.028333 564.213706 162.996086 564.416224 162.963523 564.618741 162.930659 564.821259 162.897511 565.023776 162.864097 565.226294 162.830432 565.428811 162.796533 565.631329 162.762418 565.833846 162.728102 566.036364 162.693603 566.238881 162.658937 566.441399 162.624121 566.643916 162.589171 566.846434 162.554104 567.048951 162.518938 567.251469 162.483687 567.453986 162.448371 567.656503 162.413004 567.859021 162.377603 568.061538 162.342186 568.061538 514.000000" /></g></g><g class="titles"><text class="title plot_title" x="400.0" y="26">Saphan-Khwai 51</text></g><g class="plot overlay" transform="translate(200, 46)"><g class="series serie-0 color-0"><g class="dots"><circle class="dot reactive tooltip-trigger" cx="11.13846153846154" cy="173.87570843467807" r="2.5" /><desc class="value">196000</desc><desc class="x ">11.13846153846154</desc><desc class="y ">173.87570843467807</desc><desc class="x_label">Jan</desc></g><g class="dots"><circle class="dot reactive tooltip-trigger" cx="61.76783216783217" cy="485.28080399898397" r="2.5" /><desc class="value">169000</desc><desc class="x top">61.76783216783217</desc><desc class="y top">485.28080399898397</desc><desc class="x_label">Feb</desc></g><g class="dots"><circle class="dot reactive tooltip-trigger" cx="112.3972027972028" cy="12.406399623556524" r="2.5" /><desc class="value">210000</desc><desc class="x ">112.3972027972028</desc><desc class="y ">12.406399623556524</desc><desc class="x_label">Mar</desc></g><g class="dots"><circle class="dot reactive tooltip-trigger" cx="163.02657342657344" cy="358.4120613616742" r="2.5" /><desc class="value">180000</desc><desc class="x top">163.02657342657344</desc><desc class="y top">358.4120613616742</desc><desc class="x_label">Apr</desc></g><g class="dots"><circle class="dot reactive tooltip-trigger" cx="213.65594405594408" cy="254.61036284023885" r="2.5" /><desc class="value">189000</desc><desc class="x ">213.65594405594408</desc><desc class="y ">254.61036284023885</desc><desc class="x_label">May</desc></g><g class="dots"><circle class="dot reactive tooltip-trigger" cx="264.2853146853147" cy="173.87570843467807" r="2.5" /><desc class="value">196000</desc><desc class="x ">264.2853146853147</desc><desc class="y ">173.87570843467807</desc><desc class="x_label">Jun</desc></g><g class="dots"><circle class="dot reactive tooltip-trigger" cx="314.9146853146853" cy="139.2751422608663" r="2.5" /><desc class="value">199000</desc><desc class="x left">314.9146853146853</desc><desc class="y left">139.2751422608663</desc><desc class="x_label">Jul</desc></g><g class="dots"><circle class="dot reactive tooltip-trigger" cx="365.54405594405597" cy="127.74162020292908" r="2.5" /><desc class="value">200000</desc><desc class="x left">365.54405594405597</desc><desc class="y left">127.74162020292908</desc><desc class="x_label">Aug</desc></g><g class="dots"><circle class="dot reactive tooltip-trigger" cx="416.17342657342664" cy="196.9427525505526" r="2.5" /><desc class="value">194000</desc><desc class="x left">416.17342657342664</desc><desc class="y left">196.9427525505526</desc><desc class="x_label">Sep</desc></g><g class="dots"><circle class="dot reactive tooltip-trigger" cx="466.8027972027973" cy="23.939921681493786" r="2.5" /><desc class="value">209000</desc><desc class="x left">466.8027972027973</desc><desc class="y left">23.939921681493786</desc><desc class="x_label">Oct</desc></g><g class="dots"><circle class="dot reactive tooltip-trigger" cx="517.4321678321678" cy="127.74162020292908" r="2.5" /><desc class="value">200000</desc><desc class="x left">517.4321678321678</desc><desc class="y left">127.74162020292908</desc><desc class="x_label">Nov</desc></g><g class="dots"><circle class="dot reactive tooltip-trigger" cx="568.0615384615386" cy="162.3421863767408" r="2.5" /><desc class="value">197000</desc><desc class="x left">568.0615384615386</desc><desc class="y left">162.3421863767408</desc><desc class="x_label">Dec</desc></g></g></g><g class="plot text-overlay" transform="translate(200, 46)"><g class="series serie-0 color-0" /></g><g class="plot tooltip-overlay" transform="translate(200, 46)"><g class="tooltip" style="opacity: 0" transform="translate(0 0)"><rect class="tooltip-box" height="0" rx="0" ry="0" width="0" /><g class="text" /></g></g><g class="legends" transform="translate(10, 56)"><g class="legend reactive activate-serie" id="activate-serie-0"><rect class="color-0 reactive" height="12" width="12" x="0.0" y="1.0" /><text x="17.0" y="11.2">Saphan-Khwai</text></g></g><g class="legends" transform="translate(790, 56)" /></g></svg>