<?xml version='1.0' encoding='utf-8'?>
<svg xmlns:xlink="http://www.w3.org/1999/xlink" class="pygal-chart" id="chart-b265ec14-2f23-4ac1-bdc7-359ebdaae868" viewBox="0 0 800 600" xmlns="http://www.w3.org/2000/svg"><!--Generated with pygal 2.0.11 (etree) ©Kozea 2011-2015 on 2015-12-10--><!--http://pygal.org--><!--http://github.com/Kozea/pygal--><defs><style type="text/css">#chart-b265ec14-2f23-4ac1-bdc7-359ebdaae868{-webkit-user-select:none;-webkit-font-smoothing:antialiased;font-family:Consolas,"Liberation Mono",Menlo,Courier,monospace}#chart-b265ec14-2f23-4ac1-bdc7-359ebdaae868 .title{font-family:Consolas,"Liberation Mono",Menlo,Courier,monospace;font-size:16px}#chart-b265ec14-2f23-4ac1-bdc7-359ebdaae868 .legends .legend text{font-family:Consolas,"Liberation Mono",Menlo,Courier,monospace;font-size:14px}#chart-b265ec14-2f23-4ac1-bdc7-359ebdaae868 .axis text{font-family:Consolas,"Liberation Mono",Menlo,Courier,monospace;font-size:10px}#chart-b265ec14-2f23-4ac1-bdc7-359ebdaae868 .axis text.major{font-family:Consolas,"Liberation Mono",Menlo,Courier,monospace;font-size:10px}#chart-b265ec14-2f23-4ac1-bdc7-359ebdaae868 .text-overlay text.value{font-family:Consolas,"Liberation Mono",Menlo,Courier,monospace;font-size:16px}#chart-b265ec14-2f23-4ac1-bdc7-359ebdaae868 .text-overlay text.label{font-family:Consolas,"Liberation Mono",Menlo,Courier,monospace;font-size:10px}#chart-b265ec14-2f23-4ac1-bdc7-359ebdaae868 .tooltip{font-family:Consolas,"Liberation Mono",Menlo,Courier,monospace;font-size:14px}#chart-b265ec14-2f23-4ac1-bdc7-359ebdaae868 text.no_data{font-family:Consolas,"Liberation Mono",Menlo,Courier,monospace;font-size:64px}
#chart-b265ec14-2f23-4ac1-bdc7-359ebdaae868{background-color:black}#chart-b265ec14-2f23-4ac1-bdc7-359ebdaae868 path,#chart-b265ec14-2f23-4ac1-bdc7-359ebdaae868 line,#chart-b265ec14-2f23-4ac1-bdc7-359ebdaae868 rect,#chart-b265ec14-2f23-4ac1-bdc7-359ebdaae868 circle{-webkit-transition:250ms;-moz-transition:250ms;transition:250ms}#chart-b265ec14-2f23-4ac1-bdc7-359ebdaae868 .graph &gt; .background{fill:black}#chart-b265ec14-2f23-4ac1-bdc7-359ebdaae868 .plot &gt; .background{fill:#111}#chart-b265ec14-2f23-4ac1-bdc7-359ebdaae868 .graph{fill:#999}#chart-b265ec14-2f23-4ac1-bdc7-359ebdaae868 text.no_data{fill:#eee}#chart-b265ec14-2f23-4ac1-bdc7-359ebdaae868 .title{fill:#eee}#chart-b265ec14-2f23-4ac1-bdc7-359ebdaae868 .legends .legend text{fill:#999}#chart-b265ec14-2f23-4ac1-bdc7-359ebdaae868 .legends .legend:hover text{fill:#eee}#chart-b265ec14-2f23-4ac1-bdc7-359ebdaae868 .axis .line{stroke:#eee}#chart-b265ec14-2f23-4ac1-bdc7-359ebdaae868 .axis .guide.line{stroke:#555}#chart-b265ec14-2f23-4ac1-bdc7-359ebdaae868 .axis .major.line{stroke:#999}#chart-b265ec14-2f23-4ac1-bdc7-359ebdaae868 .axis text.major{fill:#eee}#chart-b265ec14-2f23-4ac1-bdc7-359ebdaae868 .axis.y .guides:hover .guide.line,#chart-b265ec14-2f23-4ac1-bdc7-359ebdaae868 .line-graph .axis.x .guides:hover .guide.line,#chart-b265ec14-2f23-4ac1-bdc7-359ebdaae868 .stackedline-graph .axis.x .guides:hover .guide.line,#chart-b265ec14-2f23-4ac1-bdc7-359ebdaae868 .xy-graph .axis.x .guides:hover .guide.line{stroke:#eee}#chart-b265ec14-2f23-4ac1-bdc7-359ebdaae868 .axis .guides:hover text{fill:#eee}#chart-b265ec14-2f23-4ac1-bdc7-359ebdaae868 .reactive{fill-opacity:.8}#chart-b265ec14-2f23-4ac1-bdc7-359ebdaae868 .reactive.active,#chart-b265ec14-2f23-4ac1-bdc7-359ebdaae868 .active .reactive{fill-opacity:.4;stroke-width:4}#chart-b265ec14-2f23-4ac1-bdc7-359ebdaae868 .series text{fill:#eee}#chart-b265ec14-2f23-4ac1-bdc7-359ebdaae868 .tooltip rect{fill:#111;stroke:#eee;-webkit-transition:opacity 250ms;-moz-transition:opacity 250ms;transition:opacity 250ms}#chart-b265ec14-2f23-4ac1-bdc7-359ebdaae868 .tooltip .label{fill:#999}#chart-b265ec14-2f23-4ac1-bdc7-359ebdaae868 .tooltip .label{fill:#999}#chart-b265ec14-2f23-4ac1-bdc7-359ebdaae868 .tooltip .legend{font-size:.8em;fill:#555}#chart-b265ec14-2f23-4ac1-bdc7-359ebdaae868 .tooltip .x_label{font-size:.6em;fill:#eee}#chart-b265ec14-2f23-4ac1-bdc7-359ebdaae868 .tooltip .xlink{font-size:.5em;text-decoration:underline}#chart-b265ec14-2f23-4ac1-bdc7-359ebdaae868 .tooltip .value{font-size:1.5em}#chart-b265ec14-2f23-4ac1-bdc7-359ebdaae868 .map-element{fill:#111;stroke:#555 !important}#chart-b265ec14-2f23-4ac1-bdc7-359ebdaae868 .map-element .reactive{fill-opacity:inherit}#chart-b265ec14-2f23-4ac1-bdc7-359ebdaae868 .color-0,#chart-b265ec14-2f23-4ac1-bdc7-359ebdaae868 .color-0 a:visited{stroke:#ff5995;fill:#ff5995}#chart-b265ec14-2f23-4ac1-bdc7-359ebdaae868 .text-overlay .color-0 text{fill:black}
#chart-b265ec14-2f23-4ac1-bdc7-359ebdaae868 text.no_data{text-anchor:middle}#chart-b265ec14-2f23-4ac1-bdc7-359ebdaae868 .guide.line{fill:none}#chart-b265ec14-2f23-4ac1-bdc7-359ebdaae868 .centered{text-anchor:middle}#chart-b265ec14-2f23-4ac1-bdc7-359ebdaae868 .title{text-anchor:middle}#chart-b265ec14-2f23-4ac1-bdc7-359ebdaae868 .legends .legend text{fill-opacity:1}#chart-b265ec14-2f23-4ac1-bdc7-359ebdaae868 .axis.x text{text-anchor:middle}#chart-b265ec14-2f23-4ac1-bdc7-359ebdaae868 .axis.x:not(.web) text[transform]{text-anchor:start}#chart-b265ec14-2f23-4ac1-bdc7-359ebdaae868 .axis.x:not(.web) text[transform].backwards{text-anchor:end}#chart-b265ec14-2f23-4ac1-bdc7-359ebdaae868 .axis.y text{text-anchor:end}#chart-b265ec14-2f23-4ac1-bdc7-359ebdaae868 .axis.y text[transform].backwards{text-anchor:start}#chart-b265ec14-2f23-4ac1-bdc7-359ebdaae868 .axis.y2 text{text-anchor:start}#chart-b265ec14-2f23-4ac1-bdc7-359ebdaae868 .axis.y2 text[transform].backwards{text-anchor:end}#chart-b265ec14-2f23-4ac1-bdc7-359ebdaae868 .axis .guide.line{stroke-dasharray:4,4}#chart-b265ec14-2f23-4ac1-bdc7-359ebdaae868 .axis .major.guide.line{stroke-dasharray:6,6}#chart-b265ec14-2f23-4ac1-bdc7-359ebdaae868 .horizontal .axis.y .guide.line,#chart-b265ec14-2f23-4ac1-bdc7-359ebdaae868 .horizontal .axis.y2 .guide.line,#chart-b265ec14-2f23-4ac1-bdc7-359ebdaae868 .vertical .axis.x .guide.line{opacity:0}#chart-b265ec14-2f23-4ac1-bdc7-359ebdaae868 .horizontal .axis.always_show .guide.line,#chart-b265ec14-2f23-4ac1-bdc7-359ebdaae868 .vertical .axis.always_show .guide.line{opacity:1 !important}#chart-b265ec14-2f23-4ac1-bdc7-359ebdaae868 .axis.y .guides:hover .guide.line,#chart-b265ec14-2f23-4ac1-bdc7-359ebdaae868 .axis.y2 .guides:hover .guide.line,#chart-b265ec14-2f23-4ac1-bdc7-359ebdaae868 .axis.x .guides:hover .guide.line{opacity:1}#chart-b265ec14-2f23-4ac1-bdc7-359ebdaae868 .axis .guides:hover text{opacity:1}#chart-b265ec14-2f23-4ac1-bdc7-359ebdaae868 .nofill{fill:none}#chart-b265ec14-2f23-4ac1-bdc7-359ebdaae868 .subtle-fill{fill-opacity:.2}#chart-b265ec14-2f23-4ac1-bdc7-359ebdaae868 .dot{stroke-width:1px;fill-opacity:1}#chart-b265ec14-2f23-4ac1-bdc7-359ebdaae868 .dot.active{stroke-width:5px}#chart-b265ec14-2f23-4ac1-bdc7-359ebdaae868 .dot.negative{fill:transparent}#chart-b265ec14-2f23-4ac1-bdc7-359ebdaae868 text,#chart-b265ec14-2f23-4ac1-bdc7-359ebdaae868 tspan{stroke:none !important}#chart-b265ec14-2f23-4ac1-bdc7-359ebdaae868 .series text.active{opacity:1}#chart-b265ec14-2f23-4ac1-bdc7-359ebdaae868 .tooltip rect{fill-opacity:.95;stroke-width:.5}#chart-b265ec14-2f23-4ac1-bdc7-359ebdaae868 .tooltip text{fill-opacity:1}#chart-b265ec14-2f23-4ac1-bdc7-359ebdaae868 .showable{visibility:hidden}#chart-b265ec14-2f23-4ac1-bdc7-359ebdaae868 .showable.shown{visibility:visible}</style><script type="text/javascript">window.pygal = window.pygal || {};window.pygal.config = window.pygal.config || {};window.pygal.config['b265ec14-2f23-4ac1-bdc7-359ebdaae868'] = {"print_values": false, "truncate_label": null, "human_readable": false, "explicit_size": false, "show_y_labels": true, "x_labels": ["Jan", "Feb", "Mar", "Apr", "May", "Jun", "Jul", "Aug", "Sep", "Oct", "Nov", "Dec"], "inverse_y_axis": false, "x_labels_major_count": null, "show_y_guides": true, "spacing": 10, "xrange": null, "rounded_bars": null, "margin": 20, "interpolation_precision": 250, "title": "Mo-Chit 52", "stroke_style": null, "no_data_text": "No data", "fill": true, "box_mode": "extremes", "print_labels": false, "interpolate": "cubic", "zero": 0, "show_only_major_dots": false, "truncate_legend": null, "show_minor_x_labels": true, "js": ["//kozea.github.io/pygal.js/2.0.x/pygal-tooltips.min.js"], "x_labels_major_every": null, "legends": ["Mo-Chit"], "tooltip_fancy_mode": true, "disable_xml_declaration": false, "show_x_guides": false, "print_zeroes": true, "show_legend": true, "legend_at_bottom": false, "y_labels_major_count": null, "secondary_range": null, "margin_bottom": null, "half_pie": false, "height": 600, "range": null, "show_minor_y_labels": true, "defs": [], "css": ["file://style.css", "file://graph.css"], "y_labels": null, "interpolation_parameters": {}, "width": 800, "strict": false, "pretty_print": false, "min_scale": 4, "margin_top": null, "dynamic_print_values": false, "order_min": null, "x_title": null, "margin_left": null, "margin_right": null, "y_labels_major_every": null, "stroke": true, "x_labels_major": null, "missing_value_fill_truncation": "x", "logarithmic": false, "stack_from_top": false, "show_dots": true, "style": {"title_font_size": 16, "title_font_family": "Consolas, \"Liberation Mono\", Menlo, Courier, monospace", "tooltip_font_family": "Consolas, \"Liberation Mono\", Menlo, Courier, monospace", "background": "black", "tooltip_font_size": 14, "opacity_hover": ".4", "value_label_font_size": 10, "opacity": ".8", "no_data_font_family": "Consolas, \"Liberation Mono\", Menlo, Courier, monospace", "label_font_size": 10, "plot_background": "#111", "value_font_size": 16, "value_font_family": "Consolas, \"Liberation Mono\", Menlo, Courier, monospace", "no_data_font_size": 64, "foreground_strong": "#eee", "font_family": "Consolas, \"Liberation Mono\", Menlo, Courier, monospace", "label_font_family": "Consolas, \"Liberation Mono\", Menlo, Courier, monospace", "transition": "250ms", "major_guide_stroke_dasharray": "6,6", "foreground_subtle": "#555", "value_colors": [], "value_label_font_family": "Consolas, \"Liberation Mono\", Menlo, Courier, monospace", "guide_stroke_dasharray": "4,4", "major_label_font_size": 10, "legend_font_family": "Consolas, \"Liberation Mono\", Menlo, Courier, monospace", "major_label_font_family": "Consolas, \"Liberation Mono\", Menlo, Courier, monospace", "foreground": "#999", "colors": ["#ff5995", "#b6e354", "#feed6c", "#8cedff", "#9e6ffe", "#899ca1", "#f8f8f2", "#bf4646", "#516083", "#f92672", "#82b414", "#fd971f", "#56c2d6", "#808384", "#8c54fe", "#465457"], "legend_font_size": 14}, "y_labels_major": null, "x_label_rotation": 0, "max_scale": 16, "value_formatter": null, "dots_size": 2.5, "legend_at_bottom_columns": null, "force_uri_protocol": null, "x_value_formatter": null, "legend_box_size": 12, "include_x_axis": false, "y_label_rotation": 0, "show_x_labels": true, "inner_radius": 0, "no_prefix": false, "tooltip_border_radius": 0, "y_title": null}</script><script type="text/javascript" xlink:href="//kozea.github.io/pygal.js/2.0.x/pygal-tooltips.min.js" /></defs><title>Mo-Chit 52</title><g class="graph line-graph vertical"><rect class="background" height="600" width="800" x="0" y="0" /><g class="plot" transform="translate(158, 46)"><rect class="background" height="514" width="621.2" x="0" y="0" /><g class="axis y"><path class="line" d="M0.000000 514.000000 h621.200000" /><g class="guides"><path class="guide line" d="M0.000000 501.776031 h621.200000" /><text class="" x="-5" y="505.2760306955326">780000.0</text><title>780000.0</title></g><g class="guides"><path class="major guide line" d="M0.000000 449.576466 h621.200000" /><text class="major" x="-5" y="453.07646565729794">800000.0</text><title>800000.0</title></g><g class="guides"><path class="guide line" d="M0.000000 397.376901 h621.200000" /><text class="" x="-5" y="400.87690061906335">820000.0</text><title>820000.0</title></g><g class="guides"><path class="guide line" d="M0.000000 345.177336 h621.200000" /><text class="" x="-5" y="348.6773355808287">840000.0</text><title>840000.0</title></g><g class="guides"><path class="guide line" d="M0.000000 292.977771 h621.200000" /><text class="" x="-5" y="296.47777054259404">860000.0</text><title>860000.0</title></g><g class="guides"><path class="guide line" d="M0.000000 240.778206 h621.200000" /><text class="" x="-5" y="244.27820550435945">880000.0</text><title>880000.0</title></g><g class="guides"><path class="major guide line" d="M0.000000 188.578640 h621.200000" /><text class="major" x="-5" y="192.0786404661248">900000.0</text><title>900000.0</title></g><g class="guides"><path class="guide line" d="M0.000000 136.379075 h621.200000" /><text class="" x="-5" y="139.87907542789014">920000.0</text><title>920000.0</title></g><g class="guides"><path class="guide line" d="M0.000000 84.179510 h621.200000" /><text class="" x="-5" y="87.67951038965549">940000.0</text><title>940000.0</title></g><g class="guides"><path class="guide line" d="M0.000000 31.979945 h621.200000" /><text class="" x="-5" y="35.47994535142084">960000.0</text><title>960000.0</title></g></g><g class="axis x"><g class="guides"><path class="line" d="M11.946154 0.000000 v514.000000" /><text class="" x="11.946153846153846" y="529.0">Jan</text></g><g class="guides"><path class="guide line" d="M66.246853 0.000000 v514.000000" /><text class="" x="66.24685314685314" y="529.0">Feb</text></g><g class="guides"><path class="guide line" d="M120.547552 0.000000 v514.000000" /><text class="" x="120.54755244755245" y="529.0">Mar</text></g><g class="guides"><path class="guide line" d="M174.848252 0.000000 v514.000000" /><text class="" x="174.84825174825176" y="529.0">Apr</text></g><g class="guides"><path class="guide line" d="M229.148951 0.000000 v514.000000" /><text class="" x="229.14895104895106" y="529.0">May</text></g><g class="guides"><path class="guide line" d="M283.449650 0.000000 v514.000000" /><text class="" x="283.44965034965037" y="529.0">Jun</text></g><g class="guides"><path class="guide line" d="M337.750350 0.000000 v514.000000" /><text class="" x="337.7503496503497" y="529.0">Jul</text></g><g class="guides"><path class="guide line" d="M392.051049 0.000000 v514.000000" /><text class="" x="392.051048951049" y="529.0">Aug</text></g><g class="guides"><path class="guide line" d="M446.351748 0.000000 v514.000000" /><text class="" x="446.3517482517483" y="529.0">Sep</text></g><g class="guides"><path class="guide line" d="M500.652448 0.000000 v514.000000" /><text class="" x="500.6524475524476" y="529.0">Oct</text></g><g class="guides"><path class="guide line" d="M554.953147 0.000000 v514.000000" /><text class="" x="554.9531468531468" y="529.0">Nov</text></g><g class="guides"><path class="guide line" d="M609.253846 0.000000 v514.000000" /><text class="" x="609.2538461538462" y="529.0">Dec</text></g></g><g class="series serie-0 color-0"><path class="line reactive" d="M11.946154 514.000000 L11.946154 350.397292 12.163357 351.652522 12.380559 352.907677 12.597762 354.162684 12.814965 355.417467 13.032168 356.671953 13.249371 357.926067 13.466573 359.179734 13.683776 360.432880 13.900979 361.685432 14.118182 362.937313 14.335385 364.188451 14.552587 365.438770 14.769790 366.688197 14.986993 367.936656 15.204196 369.184074 15.421399 370.430376 15.638601 371.675487 15.855804 372.919333 16.073007 374.161841 16.290210 375.402934 16.507413 376.642540 16.724615 377.880583 16.941818 379.116989 17.159021 380.351685 17.376224 381.584594 17.593427 382.815644 17.810629 384.044759 18.027832 385.271865 18.245035 386.496888 18.462238 387.719754 18.679441 388.940387 18.896643 390.158714 19.113846 391.374661 19.331049 392.588152 19.548252 393.799113 19.765455 395.007470 19.982657 396.213149 20.199860 397.416075 20.417063 398.616174 20.634266 399.813372 20.851469 401.007593 21.068671 402.198764 21.285874 403.386810 21.503077 404.571657 21.720280 405.753230 21.937483 406.931455 22.154685 408.106258 22.371888 409.277563 22.589091 410.445298 22.806294 411.609387 23.023497 412.769756 23.240699 413.926331 23.457902 415.079036 23.675105 416.227799 23.892308 417.372544 24.109510 418.513197 24.326713 419.649683 24.543916 420.781929 24.761119 421.909859 24.978322 423.033400 25.195524 424.152476 25.412727 425.267015 25.629930 426.376940 25.847133 427.482178 26.064336 428.582655 26.281538 429.678295 26.498741 430.769025 26.715944 431.854770 26.933147 432.935456 27.150350 434.011009 27.367552 435.081353 27.584755 436.146415 27.801958 437.206120 28.019161 438.260393 28.236364 439.309162 28.453566 440.352350 28.670769 441.389883 28.887972 442.421688 29.105175 443.447690 29.322378 444.467813 29.539580 445.481985 29.756783 446.490131 29.973986 447.492175 30.191189 448.488044 30.408392 449.477664 30.625594 450.460960 30.842797 451.437857 31.060000 452.408281 31.277203 453.372158 31.494406 454.329414 31.711608 455.279973 31.928811 456.223762 32.146014 457.160706 32.363217 458.090731 32.580420 459.013762 32.797622 459.929725 33.014825 460.838545 33.232028 461.740149 33.449231 462.634462 33.666434 463.521408 33.883636 464.400915 34.100839 465.272907 34.318042 466.137311 34.535245 466.994051 34.752448 467.843054 34.969650 468.684244 35.186853 469.517548 35.404056 470.342891 35.621259 471.160199 35.838462 471.969397 36.055664 472.770411 36.272867 473.563167 36.490070 474.347590 36.707273 475.123605 36.924476 475.891139 37.141678 476.650117 37.358881 477.400464 37.576084 478.142107 37.793287 478.874970 38.010490 479.598980 38.227692 480.314061 38.444895 481.020140 38.662098 481.717142 38.879301 482.404993 39.096503 483.083618 39.313706 483.752943 39.530909 484.412894 39.748112 485.063396 39.965315 485.704374 40.182517 486.335755 40.399720 486.957464 40.616923 487.569426 40.834126 488.171567 41.051329 488.763813 41.268531 489.346090 41.485734 489.918322 41.702937 490.480436 41.920140 491.032357 42.137343 491.574011 42.354545 492.105323 42.571748 492.626219 42.788951 493.136624 43.006154 493.636465 43.223357 494.125666 43.440559 494.604153 43.657762 495.071853 43.874965 495.528690 44.092168 495.974590 44.309371 496.409479 44.526573 496.833282 44.743776 497.245925 44.960979 497.647334 45.178182 498.037433 45.395385 498.416150 45.612587 498.783408 45.829790 499.139135 46.046993 499.483255 46.264196 499.815694 46.481399 500.136378 46.698601 500.445233 46.915804 500.742183 47.133007 501.027154 47.350210 501.300073 47.567413 501.560865 47.784615 501.809454 48.001818 502.045768 48.219021 502.269731 48.436224 502.481269 48.653427 502.680308 48.870629 502.866774 49.087832 503.040591 49.305035 503.201686 49.522238 503.349983 49.739441 503.485410 49.956643 503.607890 50.173846 503.717351 50.391049 503.813717 50.608252 503.896915 50.825455 503.966868 51.042657 504.023505 51.259860 504.066749 51.477063 504.096526 51.694266 504.112763 51.911469 504.115385 52.128671 504.104316 52.345874 504.079484 52.563077 504.040813 52.780280 503.988229 52.997483 503.921658 53.214685 503.841025 53.431888 503.746256 53.649091 503.637277 53.866294 503.514012 54.083497 503.376389 54.300699 503.224331 54.517902 503.057766 54.735105 502.876618 54.952308 502.680813 55.169510 502.470276 55.386713 502.244934 55.603916 502.004712 55.821119 501.749536 56.038322 501.479330 56.255524 501.194021 56.472727 500.893535 56.689930 500.577796 56.907133 500.246731 57.124336 499.900265 57.341538 499.538323 57.558741 499.160832 57.775944 498.767716 57.993147 498.358903 58.210350 497.934316 58.427552 497.493882 58.644755 497.037526 58.861958 496.565174 59.079161 496.076751 59.296364 495.572184 59.513566 495.051397 59.730769 494.514317 59.947972 493.960868 60.165175 493.390977 60.382378 492.804569 60.599580 492.201570 60.816783 491.581905 61.033986 490.945499 61.251189 490.292279 61.468392 489.622171 61.685594 488.935099 61.902797 488.230989 62.120000 487.509767 62.337203 486.771358 62.554406 486.015689 62.771608 485.242684 62.988811 484.452270 63.206014 483.644371 63.423217 482.818914 63.640420 481.975824 63.857622 481.115027 64.074825 480.236447 64.292028 479.340012 64.509231 478.425646 64.726434 477.493275 64.943636 476.542825 65.160839 475.574221 65.378042 474.587389 65.595245 473.582255 65.812448 472.558743 66.029650 471.516780 66.246853 470.456292 66.464056 469.377242 66.681259 468.279753 66.898462 467.163985 67.115664 466.030098 67.332867 464.878253 67.550070 463.708610 67.767273 462.521331 67.984476 461.316575 68.201678 460.094504 68.418881 458.855277 68.636084 457.599055 68.853287 456.325999 69.070490 455.036269 69.287692 453.730026 69.504895 452.407430 69.722098 451.068642 69.939301 449.713822 70.156503 448.343132 70.373706 446.956730 70.590909 445.554779 70.808112 444.137438 71.025315 442.704868 71.242517 441.257230 71.459720 439.794684 71.676923 438.317390 71.894126 436.825510 72.111329 435.319203 72.328531 433.798631 72.545734 432.263953 72.762937 430.715331 72.980140 429.152924 73.197343 427.576894 73.414545 425.987400 73.631748 424.384604 73.848951 422.768666 74.066154 421.139747 74.283357 419.498006 74.500559 417.843605 74.717762 416.176704 74.934965 414.497464 75.152168 412.806045 75.369371 411.102607 75.586573 409.387312 75.803776 407.660319 76.020979 405.921790 76.238182 404.171884 76.455385 402.410763 76.672587 400.638587 76.889790 398.855516 77.106993 397.061711 77.324196 395.257332 77.541399 393.442540 77.758601 391.617496 77.975804 389.782360 78.193007 387.937293 78.410210 386.082454 78.627413 384.218006 78.844615 382.344107 79.061818 380.460919 79.279021 378.568603 79.496224 376.667318 79.713427 374.757226 79.930629 372.838486 80.147832 370.911260 80.365035 368.975707 80.582238 367.031990 80.799441 365.080267 81.016643 363.120699 81.233846 361.153448 81.451049 359.178673 81.668252 357.196535 81.885455 355.207195 82.102657 353.210813 82.319860 351.207550 82.537063 349.197566 82.754266 347.181022 82.971469 345.158078 83.188671 343.128894 83.405874 341.093633 83.623077 339.052453 83.840280 337.005515 84.057483 334.952981 84.274685 332.895010 84.491888 330.831762 84.709091 328.763400 84.926294 326.690083 85.143497 324.611971 85.360699 322.529225 85.577902 320.442006 85.795105 318.350474 86.012308 316.254790 86.229510 314.155114 86.446713 312.051607 86.663916 309.944430 86.881119 307.833742 87.098322 305.719705 87.315524 303.602478 87.532727 301.482223 87.749930 299.359100 87.967133 297.233270 88.184336 295.104892 88.401538 292.974129 88.618741 290.841139 88.835944 288.706084 89.053147 286.569124 89.270350 284.430420 89.487552 282.290132 89.704755 280.148421 89.921958 278.005447 90.139161 275.861371 90.356364 273.716354 90.573566 271.570555 90.790769 269.424136 91.007972 267.277257 91.225175 265.130078 91.442378 262.982760 91.659580 260.835464 91.876783 258.688350 92.093986 256.541579 92.311189 254.395311 92.528392 252.249706 92.745594 250.104926 92.962797 247.961131 93.180000 245.818480 93.397203 243.677136 93.614406 241.537258 93.831608 239.399007 94.048811 237.262543 94.266014 235.128028 94.483217 232.995620 94.700420 230.865482 94.917622 228.737773 95.134825 226.612655 95.352028 224.490287 95.569231 222.370830 95.786434 220.254445 96.003636 218.141292 96.220839 216.031532 96.438042 213.925325 96.655245 211.822832 96.872448 209.724213 97.089650 207.629630 97.306853 205.539241 97.524056 203.453209 97.741259 201.371693 97.958462 199.294854 98.175664 197.222852 98.392867 195.155849 98.610070 193.094004 98.827273 191.037478 99.044476 188.986432 99.261678 186.941026 99.478881 184.901421 99.696084 182.867777 99.913287 180.840255 100.130490 178.819016 100.347692 176.804219 100.564895 174.796025 100.782098 172.794596 100.999301 170.800091 101.216503 168.812671 101.433706 166.832496 101.650909 164.859727 101.868112 162.894525 102.085315 160.937051 102.302517 158.987463 102.519720 157.045924 102.736923 155.112594 102.954126 153.187633 103.171329 151.271202 103.388531 149.363461 103.605734 147.464570 103.822937 145.574692 104.040140 143.693985 104.257343 141.822610 104.474545 139.960729 104.691748 138.108501 104.908951 136.266087 105.126154 134.433647 105.343357 132.611343 105.560559 130.799334 105.777762 128.997782 105.994965 127.206846 106.212168 125.426687 106.429371 123.657466 106.646573 121.899344 106.863776 120.152480 107.080979 118.417035 107.298182 116.693171 107.515385 114.981047 107.732587 113.280824 107.949790 111.592662 108.166993 109.916722 108.384196 108.253165 108.601399 106.602151 108.818601 104.963841 109.035804 103.338394 109.253007 101.725973 109.470210 100.126736 109.687413 98.540845 109.904615 96.968461 110.121818 95.409743 110.339021 93.864853 110.556224 92.333950 110.773427 90.817196 110.990629 89.314751 111.207832 87.826776 111.425035 86.353430 111.642238 84.894875 111.859441 83.451271 112.076643 82.022778 112.293846 80.609558 112.511049 79.211770 112.728252 77.829575 112.945455 76.463135 113.162657 75.112608 113.379860 73.778156 113.597063 72.459940 113.814266 71.158119 114.031469 69.872855 114.248671 68.604307 114.465874 67.352637 114.683077 66.118005 114.900280 64.900572 115.117483 63.700497 115.334685 62.517943 115.551888 61.353068 115.769091 60.206034 115.986294 59.077001 116.203497 57.966130 116.420699 56.873580 116.637902 55.799514 116.855105 54.744091 117.072308 53.707472 117.289510 52.689817 117.506713 51.691287 117.723916 50.712043 117.941119 49.752244 118.158322 48.812052 118.375524 47.891627 118.592727 46.991130 118.809930 46.110720 119.027133 45.250560 119.244336 44.410808 119.461538 43.591626 119.678741 42.793174 119.895944 42.015613 120.113147 41.259104 120.330350 40.523806 120.547552 39.809880 120.764755 39.117442 120.981958 38.446421 121.199161 37.796704 121.416364 37.168176 121.633566 36.560722 121.850769 35.974226 122.067972 35.408576 122.285175 34.863655 122.502378 34.339350 122.719580 33.835545 122.936783 33.352125 123.153986 32.888977 123.371189 32.445985 123.588392 32.023034 123.805594 31.620010 124.022797 31.236798 124.240000 30.873284 124.457203 30.529352 124.674406 30.204888 124.891608 29.899778 125.108811 29.613905 125.326014 29.347157 125.543217 29.099418 125.760420 28.870573 125.977622 28.660507 126.194825 28.469107 126.412028 28.296256 126.629231 28.141842 126.846434 28.005748 127.063636 27.887859 127.280839 27.788063 127.498042 27.706242 127.715245 27.642284 127.932448 27.596073 128.149650 27.567494 128.366853 27.556433 128.584056 27.562775 128.801259 27.586405 129.018462 27.627209 129.235664 27.685071 129.452867 27.759878 129.670070 27.851514 129.887273 27.959865 130.104476 28.084815 130.321678 28.226251 130.538881 28.384058 130.756084 28.558120 130.973287 28.748323 131.190490 28.954553 131.407692 29.176694 131.624895 29.414633 131.842098 29.668253 132.059301 29.937441 132.276503 30.222082 132.493706 30.522060 132.710909 30.837262 132.928112 31.167573 133.145315 31.512878 133.362517 31.873061 133.579720 32.248009 133.796923 32.637607 134.014126 33.041740 134.231329 33.460293 134.448531 33.893152 134.665734 34.340202 134.882937 34.801328 135.100140 35.276415 135.317343 35.765349 135.534545 36.268015 135.751748 36.784298 135.968951 37.314083 136.186154 37.857257 136.403357 38.413703 136.620559 38.983308 136.837762 39.565957 137.054965 40.161535 137.272168 40.769926 137.489371 41.391018 137.706573 42.024694 137.923776 42.670840 138.140979 43.329341 138.358182 44.000084 138.575385 44.682952 138.792587 45.377831 139.009790 46.084607 139.226993 46.803164 139.444196 47.533389 139.661399 48.275166 139.878601 49.028380 140.095804 49.792917 140.313007 50.568663 140.530210 51.355502 140.747413 52.153319 140.964615 52.962001 141.181818 53.781432 141.399021 54.611498 141.616224 55.452083 141.833427 56.303073 142.050629 57.164354 142.267832 58.035811 142.485035 58.917328 142.702238 59.808792 142.919441 60.710088 143.136643 61.621100 143.353846 62.541714 143.571049 63.471816 143.788252 64.411290 144.005455 65.360022 144.222657 66.317897 144.439860 67.284801 144.657063 68.260619 144.874266 69.245236 145.091469 70.238537 145.308671 71.240408 145.525874 72.250733 145.743077 73.269399 145.960280 74.296291 146.177483 75.331293 146.394685 76.374291 146.611888 77.425170 146.829091 78.483816 147.046294 79.550114 147.263497 80.623949 147.480699 81.705206 147.697902 82.793772 147.915105 83.889530 148.132308 84.992366 148.349510 86.102166 148.566713 87.218815 148.783916 88.342198 149.001119 89.472200 149.218322 90.608707 149.435524 91.751604 149.652727 92.900777 149.869930 94.056109 150.087133 95.217488 150.304336 96.384798 150.521538 97.557924 150.738741 98.736751 150.955944 99.921166 151.173147 101.111053 151.390350 102.306297 151.607552 103.506784 151.824755 104.712399 152.041958 105.923028 152.259161 107.138555 152.476364 108.358866 152.693566 109.583846 152.910769 110.813381 153.127972 112.047355 153.345175 113.285654 153.562378 114.528164 153.779580 115.774769 153.996783 117.025355 154.213986 118.279808 154.431189 119.538011 154.648392 120.799852 154.865594 122.065214 155.082797 123.333984 155.300000 124.606046 155.517203 125.881286 155.734406 127.159589 155.951608 128.440841 156.168811 129.724926 156.386014 131.011730 156.603217 132.301139 156.820420 133.593037 157.037622 134.887309 157.254825 136.183842 157.472028 137.482520 157.689231 138.783229 157.906434 140.085854 158.123636 141.390280 158.340839 142.696392 158.558042 144.004076 158.775245 145.313218 158.992448 146.623701 159.209650 147.935412 159.426853 149.248236 159.644056 150.562059 159.861259 151.876764 160.078462 153.192239 160.295664 154.508367 160.512867 155.825035 160.730070 157.142127 160.947273 158.459529 161.164476 159.777127 161.381678 161.094804 161.598881 162.412448 161.816084 163.729942 162.033287 165.047173 162.250490 166.364025 162.467692 167.680384 162.684895 168.996135 162.902098 170.311164 163.119301 171.625355 163.336503 172.938594 163.553706 174.250766 163.770909 175.561757 163.988112 176.871452 164.205315 178.179736 164.422517 179.486494 164.639720 180.791611 164.856923 182.094974 165.074126 183.396467 165.291329 184.695975 165.508531 185.993384 165.725734 187.288579 165.942937 188.581446 166.160140 189.871869 166.377343 191.159734 166.594545 192.444926 166.811748 193.727330 167.028951 195.006832 167.246154 196.283318 167.463357 197.556671 167.680559 198.826778 167.897762 200.093524 168.114965 201.356794 168.332168 202.616474 168.549371 203.872448 168.766573 205.124602 168.983776 206.372821 169.200979 207.616991 169.418182 208.856997 169.635385 210.092724 169.852587 211.324057 170.069790 212.550882 170.286993 213.773084 170.504196 214.990548 170.721399 216.203159 170.938601 217.410804 171.155804 218.613366 171.373007 219.810732 171.590210 221.002786 171.807413 222.189414 172.024615 223.370502 172.241818 224.545934 172.459021 225.715595 172.676224 226.879372 172.893427 228.037149 173.110629 229.188811 173.327832 230.334245 173.545035 231.473335 173.762238 232.605966 173.979441 233.732023 174.196643 234.851393 174.413846 235.963960 174.631049 237.069610 174.848252 238.168227 175.065455 239.259717 175.282657 240.344061 175.499860 241.421259 175.717063 242.491312 175.934266 243.554221 176.151469 244.609987 176.368671 245.658610 176.585874 246.700090 176.803077 247.734430 177.020280 248.761628 177.237483 249.781687 177.454685 250.794606 177.671888 251.800386 177.889091 252.799028 178.106294 253.790533 178.323497 254.774902 178.540699 255.752134 178.757902 256.722231 178.975105 257.685194 179.192308 258.641022 179.409510 259.589718 179.626713 260.531280 179.843916 261.465711 180.061119 262.393011 180.278322 263.313180 180.495524 264.226219 180.712727 265.132129 180.929930 266.030910 181.147133 266.922564 181.364336 267.807091 181.581538 268.684491 181.798741 269.554765 182.015944 270.417915 182.233147 271.273940 182.450350 272.122841 182.667552 272.964619 182.884755 273.799275 183.101958 274.626809 183.319161 275.447222 183.536364 276.260515 183.753566 277.066688 183.970769 277.865742 184.187972 278.657678 184.405175 279.442496 184.622378 280.220198 184.839580 280.990783 185.056783 281.754253 185.273986 282.510608 185.491189 283.259848 185.708392 284.001975 185.925594 284.736990 186.142797 285.464892 186.360000 286.185683 186.577203 286.899362 186.794406 287.605932 187.011608 288.305393 187.228811 288.997744 187.446014 289.682988 187.663217 290.361124 187.880420 291.032154 188.097622 291.696077 188.314825 292.352895 188.532028 293.002609 188.749231 293.645219 188.966434 294.280725 189.183636 294.909129 189.400839 295.530430 189.618042 296.144631 189.835245 296.751731 190.052448 297.351731 190.269650 297.944632 190.486853 298.530434 190.704056 299.109139 190.921259 299.680746 191.138462 300.245257 191.355664 300.802672 191.572867 301.352992 191.790070 301.896217 192.007273 302.432349 192.224476 302.961388 192.441678 303.483334 192.658881 303.998189 192.876084 304.505953 193.093287 305.006626 193.310490 305.500209 193.527692 305.986704 193.744895 306.466110 193.962098 306.938429 194.179301 307.403661 194.396503 307.861806 194.613706 308.312866 194.830909 308.756841 195.048112 309.193732 195.265315 309.623539 195.482517 310.046264 195.699720 310.461906 195.916923 310.870467 196.134126 311.271946 196.351329 311.666346 196.568531 312.053667 196.785734 312.433908 197.002937 312.807072 197.220140 313.173158 197.437343 313.532167 197.654545 313.884100 197.871748 314.228958 198.088951 314.566742 198.306154 314.897451 198.523357 315.221087 198.740559 315.537650 198.957762 315.847142 199.174965 316.149562 199.392168 316.444911 199.609371 316.733191 199.826573 317.014401 200.043776 317.288543 200.260979 317.555617 200.478182 317.815624 200.695385 318.068564 200.912587 318.314438 201.129790 318.553248 201.346993 318.784992 201.564196 319.009673 201.781399 319.227291 201.998601 319.437847 202.215804 319.641341 202.433007 319.837773 202.650210 320.027146 202.867413 320.209458 203.084615 320.384712 203.301818 320.552907 203.519021 320.714045 203.736224 320.868126 203.953427 321.015150 204.170629 321.155119 204.387832 321.288033 204.605035 321.413892 204.822238 321.532698 205.039441 321.644451 205.256643 321.749152 205.473846 321.846802 205.691049 321.937400 205.908252 322.020949 206.125455 322.097448 206.342657 322.166898 206.559860 322.229300 206.777063 322.284654 206.994266 322.332962 207.211469 322.374224 207.428671 322.408440 207.645874 322.435612 207.863077 322.455740 208.080280 322.468824 208.297483 322.474865 208.514685 322.473865 208.731888 322.465823 208.949091 322.450741 209.166294 322.428619 209.383497 322.399457 209.600699 322.363257 209.817902 322.320019 210.035105 322.269744 210.252308 322.212432 210.469510 322.148085 210.686713 322.076702 210.903916 321.998284 211.121119 321.912833 211.338322 321.820349 211.555524 321.720832 211.772727 321.614284 211.989930 321.500704 212.207133 321.380095 212.424336 321.252455 212.641538 321.117786 212.858741 320.976089 213.075944 320.827364 213.293147 320.671612 213.510350 320.508834 213.727552 320.339031 213.944755 320.162202 214.161958 319.978349 214.379161 319.787472 214.596364 319.589573 214.813566 319.384651 215.030769 319.172708 215.247972 318.953744 215.465175 318.727759 215.682378 318.494756 215.899580 318.254733 216.116783 318.007692 216.333986 317.753634 216.551189 317.492559 216.768392 317.224468 216.985594 316.949361 217.202797 316.667240 217.420000 316.378104 217.637203 316.081956 217.854406 315.778794 218.071608 315.468621 218.288811 315.151436 218.506014 314.827240 218.723217 314.496035 218.940420 314.157820 219.157622 313.812597 219.374825 313.460365 219.592028 313.101127 219.809231 312.734882 220.026434 312.361631 220.243636 311.981374 220.460839 311.594114 220.678042 311.199849 220.895245 310.798581 221.112448 310.390311 221.329650 309.975039 221.546853 309.552766 221.764056 309.123492 221.981259 308.687219 222.198462 308.243947 222.415664 307.793676 222.632867 307.336407 222.850070 306.872142 223.067273 306.400880 223.284476 305.922622 223.501678 305.437370 223.718881 304.945123 223.936084 304.445882 224.153287 303.939649 224.370490 303.426423 224.587692 302.906206 224.804895 302.378997 225.022098 301.844799 225.239301 301.303611 225.456503 300.755434 225.673706 300.200269 225.890909 299.638117 226.108112 299.068977 226.325315 298.492852 226.542517 297.909741 226.759720 297.319645 226.976923 296.722565 227.194126 296.118502 227.411329 295.507456 227.628531 294.889428 227.845734 294.264419 228.062937 293.632429 228.280140 292.993459 228.497343 292.347510 228.714545 291.694582 228.931748 291.034676 229.148951 290.367792 229.366154 289.693945 229.583357 289.013197 229.800559 288.325624 230.017762 287.631303 230.234965 286.930308 230.452168 286.222716 230.669371 285.508604 230.886573 284.788046 231.103776 284.061119 231.320979 283.327898 231.538182 282.588460 231.755385 281.842880 231.972587 281.091235 232.189790 280.333600 232.406993 279.570052 232.624196 278.800665 232.841399 278.025516 233.058601 277.244682 233.275804 276.458237 233.493007 275.666258 233.710210 274.868821 233.927413 274.066001 234.144615 273.257875 234.361818 272.444518 234.579021 271.626007 234.796224 270.802416 235.013427 269.973823 235.230629 269.140303 235.447832 268.301932 235.665035 267.458786 235.882238 266.610941 236.099441 265.758473 236.316643 264.901457 236.533846 264.039970 236.751049 263.174087 236.968252 262.303885 237.185455 261.429439 237.402657 260.550825 237.619860 259.668119 237.837063 258.781397 238.054266 257.890736 238.271469 256.996210 238.488671 256.097896 238.705874 255.195870 238.923077 254.290207 239.140280 253.380984 239.357483 252.468276 239.574685 251.552160 239.791888 250.632711 240.009091 249.710005 240.226294 248.784119 240.443497 247.855127 240.660699 246.923106 240.877902 245.988132 241.095105 245.050281 241.312308 244.109629 241.529510 243.166251 241.746713 242.220224 241.963916 241.271623 242.181119 240.320524 242.398322 239.367004 242.615524 238.411138 242.832727 237.453002 243.049930 236.492672 243.267133 235.530223 243.484336 234.565733 243.701538 233.599276 243.918741 232.630929 244.135944 231.660768 244.353147 230.688868 244.570350 229.715306 244.787552 228.740156 245.004755 227.763496 245.221958 226.785402 245.439161 225.805948 245.656364 224.825211 245.873566 223.843267 246.090769 222.860192 246.307972 221.876061 246.525175 220.890952 246.742378 219.904938 246.959580 218.918098 247.176783 217.930505 247.393986 216.942237 247.611189 215.953369 247.828392 214.963977 248.045594 213.974137 248.262797 212.983925 248.480000 211.993417 248.697203 211.002689 248.914406 210.011816 249.131608 209.020875 249.348811 208.029941 249.566014 207.039091 249.783217 206.048401 250.000420 205.057945 250.217622 204.067801 250.434825 203.078043 250.652028 202.088749 250.869231 201.099994 251.086434 200.111853 251.303636 199.124403 251.520839 198.137720 251.738042 197.151879 251.955245 196.166957 252.172448 195.183029 252.389650 194.200172 252.606853 193.218461 252.824056 192.237972 253.041259 191.258780 253.258462 190.280963 253.475664 189.304596 253.692867 188.329755 253.910070 187.356515 254.127273 186.384953 254.344476 185.415144 254.561678 184.447165 254.778881 183.481091 254.996084 182.516999 255.213287 181.554964 255.430490 180.595061 255.647692 179.637368 255.864895 178.681960 256.082098 177.728912 256.299301 176.778302 256.516503 175.830204 256.733706 174.884694 256.950909 173.941850 257.168112 173.001745 257.385315 172.064457 257.602517 171.130061 257.819720 170.198633 258.036923 169.270250 258.254126 168.344986 258.471329 167.422918 258.688531 166.504122 258.905734 165.588674 259.122937 164.676650 259.340140 163.768125 259.557343 162.863175 259.774545 161.961877 259.991748 161.064306 260.208951 160.170538 260.426154 159.280650 260.643357 158.394717 260.860559 157.512814 261.077762 156.635018 261.294965 155.761406 261.512168 154.892051 261.729371 154.027032 261.946573 153.166423 262.163776 152.310300 262.380979 151.458740 262.598182 150.611818 262.815385 149.769611 263.032587 148.932193 263.249790 148.099641 263.466993 147.272032 263.684196 146.449440 263.901399 145.631942 264.118601 144.819613 264.335804 144.012531 264.553007 143.210769 264.770210 142.414405 264.987413 141.623515 265.204615 140.838174 265.421818 140.058457 265.639021 139.284442 265.856224 138.516204 266.073427 137.753819 266.290629 136.997362 266.507832 136.246911 266.725035 135.502540 266.942238 134.764325 267.159441 134.032343 267.376643 133.306670 267.593846 132.587380 267.811049 131.874551 268.028252 131.168258 268.245455 130.468577 268.462657 129.775584 268.679860 129.089355 268.897063 128.409966 269.114266 127.737492 269.331469 127.072010 269.548671 126.413596 269.765874 125.762325 269.983077 125.118273 270.200280 124.481517 270.417483 123.852131 270.634685 123.230193 270.851888 122.615778 271.069091 122.008962 271.286294 121.409821 271.503497 120.818430 271.720699 120.234866 271.937902 119.659205 272.155105 119.091522 272.372308 118.531893 272.589510 117.980395 272.806713 117.437103 273.023916 116.902094 273.241119 116.375442 273.458322 115.857224 273.675524 115.347517 273.892727 114.846395 274.109930 114.353934 274.327133 113.870212 274.544336 113.395303 274.761538 112.929283 274.978741 112.472229 275.195944 112.024216 275.413147 111.585320 275.630350 111.155618 275.847552 110.735184 276.064755 110.324096 276.281958 109.922428 276.499161 109.530257 276.716364 109.147659 276.933566 108.774709 277.150769 108.411484 277.367972 108.058059 277.585175 107.714511 277.802378 107.380915 278.019580 107.057347 278.236783 106.743883 278.453986 106.440600 278.671189 106.147572 278.888392 105.864876 279.105594 105.592587 279.322797 105.330783 279.540000 105.079538 279.757203 104.838928 279.974406 104.609030 280.191608 104.389919 280.408811 104.181672 280.626014 103.984364 280.843217 103.798070 281.060420 103.622868 281.277622 103.458832 281.494825 103.306040 281.712028 103.164566 281.929231 103.034487 282.146434 102.915878 282.363636 102.808816 282.580839 102.713376 282.798042 102.629634 283.015245 102.557667 283.232448 102.497549 283.449650 102.449358 283.666853 102.413141 283.884056 102.388832 284.101259 102.376340 284.318462 102.375572 284.535664 102.386433 284.752867 102.408833 284.970070 102.442677 285.187273 102.487873 285.404476 102.544328 285.621678 102.611949 285.838881 102.690643 286.056084 102.780318 286.273287 102.880880 286.490490 102.992237 286.707692 103.114296 286.924895 103.246964 287.142098 103.390148 287.359301 103.543755 287.576503 103.707692 287.793706 103.881867 288.010909 104.066187 288.228112 104.260558 288.445315 104.464888 288.662517 104.679084 288.879720 104.903053 289.096923 105.136703 289.314126 105.379940 289.531329 105.632671 289.748531 105.894805 289.965734 106.166247 290.182937 106.446904 290.400140 106.736685 290.617343 107.035497 290.834545 107.343245 291.051748 107.659838 291.268951 107.985183 291.486154 108.319186 291.703357 108.661755 291.920559 109.012797 292.137762 109.372220 292.354965 109.739929 292.572168 110.115833 292.789371 110.499839 293.006573 110.891853 293.223776 111.291783 293.440979 111.699536 293.658182 112.115019 293.875385 112.538139 294.092587 112.968804 294.309790 113.406920 294.526993 113.852395 294.744196 114.305135 294.961399 114.765048 295.178601 115.232041 295.395804 115.706022 295.613007 116.186896 295.830210 116.674572 296.047413 117.168957 296.264615 117.669957 296.481818 118.177480 296.699021 118.691433 296.916224 119.211723 297.133427 119.738257 297.350629 120.270942 297.567832 120.809686 297.785035 121.354396 298.002238 121.904978 298.219441 122.461340 298.436643 123.023389 298.653846 123.591033 298.871049 124.164177 299.088252 124.742730 299.305455 125.326598 299.522657 125.915690 299.739860 126.509910 299.957063 127.109168 300.174266 127.713370 300.391469 128.322423 300.608671 128.936234 300.825874 129.554711 301.043077 130.177761 301.260280 130.805290 301.477483 131.437206 301.694685 132.073416 301.911888 132.713827 302.129091 133.358346 302.346294 134.006881 302.563497 134.659338 302.780699 135.315625 302.997902 135.975648 303.215105 136.639316 303.432308 137.306535 303.649510 137.977211 303.866713 138.651254 304.083916 139.328568 304.301119 140.009062 304.518322 140.692643 304.735524 141.379218 304.952727 142.068694 305.169930 142.760977 305.387133 143.455976 305.604336 144.153598 305.821538 144.853749 306.038741 145.556336 306.255944 146.261268 306.473147 146.968450 306.690350 147.677790 306.907552 148.389196 307.124755 149.102574 307.341958 149.817831 307.559161 150.534875 307.776364 151.253612 307.993566 151.973951 308.210769 152.695797 308.427972 153.419059 308.645175 154.143642 308.862378 154.869455 309.079580 155.596405 309.296783 156.324398 309.513986 157.053342 309.731189 157.783144 309.948392 158.513711 310.165594 159.244950 310.382797 159.976769 310.600000 160.709074 310.817203 161.441772 311.034406 162.174771 311.251608 162.907978 311.468811 163.641300 311.686014 164.374644 311.903217 165.107918 312.120420 165.841027 312.337622 166.573880 312.554825 167.306384 312.772028 168.038446 312.989231 168.769972 313.206434 169.500871 313.423636 170.231048 313.640839 170.960412 313.858042 171.688870 314.075245 172.416328 314.292448 173.142693 314.509650 173.867874 314.726853 174.591776 314.944056 175.314308 315.161259 176.035376 315.378462 176.754887 315.595664 177.472748 315.812867 178.188868 316.030070 178.903152 316.247273 179.615508 316.464476 180.325843 316.681678 181.034064 316.898881 181.740078 317.116084 182.443793 317.333287 183.145115 317.550490 183.843953 317.767692 184.540211 317.984895 185.233799 318.202098 185.924623 318.419301 186.612591 318.636503 187.297608 318.853706 187.979583 319.070909 188.658423 319.288112 189.334034 319.505315 190.006325 319.722517 190.675201 319.939720 191.340570 320.156923 192.002340 320.374126 192.660417 320.591329 193.314709 320.808531 193.965123 321.025734 194.611565 321.242937 195.253943 321.460140 195.892164 321.677343 196.526136 321.894545 197.155765 322.111748 197.780958 322.328951 198.401623 322.546154 199.017667 322.763357 199.628997 322.980559 200.235519 323.197762 200.837142 323.414965 201.433772 323.632168 202.025317 323.849371 202.611683 324.066573 203.192777 324.283776 203.768508 324.500979 204.338781 324.718182 204.903505 324.935385 205.462586 325.152587 206.015931 325.369790 206.563447 325.586993 207.105043 325.804196 207.640624 326.021399 208.170097 326.238601 208.693371 326.455804 209.210352 326.673007 209.720948 326.890210 210.225064 327.107413 210.722609 327.324615 211.213490 327.541818 211.697614 327.759021 212.174888 327.976224 212.645218 328.193427 213.108513 328.410629 213.564680 328.627832 214.013624 328.845035 214.455255 329.062238 214.889478 329.279441 215.316201 329.496643 215.735331 329.713846 216.146775 329.931049 216.550440 330.148252 216.946234 330.365455 217.334064 330.582657 217.713836 330.799860 218.085457 331.017063 218.448836 331.234266 218.803879 331.451469 219.150493 331.668671 219.488585 331.885874 219.818063 332.103077 220.138834 332.320280 220.450804 332.537483 220.753881 332.754685 221.047972 332.971888 221.332984 333.189091 221.608825 333.406294 221.875400 333.623497 222.132619 333.840699 222.380387 334.057902 222.618612 334.275105 222.847200 334.492308 223.066060 334.709510 223.275098 334.926713 223.474222 335.143916 223.663337 335.361119 223.842353 335.578322 224.011175 335.795524 224.169711 336.012727 224.317868 336.229930 224.455553 336.447133 224.582674 336.664336 224.699136 336.881538 224.804849 337.098741 224.899718 337.315944 224.983651 337.533147 225.056554 337.750350 225.118336 337.967552 225.168933 338.184755 225.208399 338.401958 225.236822 338.619161 225.254284 338.836364 225.260873 339.053566 225.256672 339.270769 225.241766 339.487972 225.216241 339.705175 225.180183 339.922378 225.133675 340.139580 225.076803 340.356783 225.009652 340.573986 224.932308 340.791189 224.844855 341.008392 224.747378 341.225594 224.639963 341.442797 224.522694 341.660000 224.395657 341.877203 224.258937 342.094406 224.112618 342.311608 223.956787 342.528811 223.791527 342.746014 223.616924 342.963217 223.433064 343.180420 223.240031 343.397622 223.037910 343.614825 222.826786 343.832028 222.606745 344.049231 222.377872 344.266434 222.140251 344.483636 221.893968 344.700839 221.639108 344.918042 221.375756 345.135245 221.103997 345.352448 220.823916 345.569650 220.535598 345.786853 220.239128 346.004056 219.934592 346.221259 219.622074 346.438462 219.301660 346.655664 218.973434 346.872867 218.637482 347.090070 218.293888 347.307273 217.942739 347.524476 217.584118 347.741678 217.218112 347.958881 216.844805 348.176084 216.464281 348.393287 216.076628 348.610490 215.681928 348.827692 215.280268 349.044895 214.871732 349.262098 214.456407 349.479301 214.034375 349.696503 213.605724 349.913706 213.170538 350.130909 212.728901 350.348112 212.280900 350.565315 211.826618 350.782517 211.366142 350.999720 210.899556 351.216923 210.426946 351.434126 209.948396 351.651329 209.463992 351.868531 208.973818 352.085734 208.477960 352.302937 207.976503 352.520140 207.469532 352.737343 206.957131 352.954545 206.439387 353.171748 205.916384 353.388951 205.388207 353.606154 204.854942 353.823357 204.316673 354.040559 203.773485 354.257762 203.225464 354.474965 202.672695 354.692168 202.115263 354.909371 201.553252 355.126573 200.986748 355.343776 200.415837 355.560979 199.840602 355.778182 199.261130 355.995385 198.677504 356.212587 198.089812 356.429790 197.498136 356.646993 196.902563 356.864196 196.303178 357.081399 195.700066 357.298601 195.093311 357.515804 194.482999 357.733007 193.869215 357.950210 193.252044 358.167413 192.631571 358.384615 192.007882 358.601818 191.381061 358.819021 190.751193 359.036224 190.118363 359.253427 189.482657 359.470629 188.844160 359.687832 188.202957 359.905035 187.559132 360.122238 186.912771 360.339441 186.263959 360.556643 185.612781 360.773846 184.959323 360.991049 184.303668 361.208252 183.645903 361.425455 182.986113 361.642657 182.324381 361.859860 181.660795 362.077063 180.995438 362.294266 180.328396 362.511469 179.659753 362.728671 178.989596 362.945874 178.318008 363.163077 177.645076 363.380280 176.970884 363.597483 176.295517 363.814685 175.619060 364.031888 174.941599 364.249091 174.263218 364.466294 173.584003 364.683497 172.904039 364.900699 172.223410 365.117902 171.542202 365.335105 170.860500 365.552308 170.178389 365.769510 169.495955 365.986713 168.813281 366.203916 168.130454 366.421119 167.447558 366.638322 166.764678 366.855524 166.081900 367.072727 165.399309 367.289930 164.716990 367.507133 164.035027 367.724336 163.353506 367.941538 162.672512 368.158741 161.992130 368.375944 161.312445 368.593147 160.633543 368.810350 159.955507 369.027552 159.278424 369.244755 158.602379 369.461958 157.927456 369.679161 157.253741 369.896364 156.581318 370.113566 155.910274 370.330769 155.240692 370.547972 154.572658 370.765175 153.906257 370.982378 153.241575 371.199580 152.578696 371.416783 151.917704 371.633986 151.258687 371.851189 150.601728 372.068392 149.946912 372.285594 149.294325 372.502797 148.644052 372.720000 147.996178 372.937203 147.350788 373.154406 146.707966 373.371608 146.067799 373.588811 145.430371 373.806014 144.795767 374.023217 144.164073 374.240420 143.535373 374.457622 142.909752 374.674825 142.287296 374.892028 141.668090 375.109231 141.052219 375.326434 140.439767 375.543636 139.830820 375.760839 139.225464 375.978042 138.623782 376.195245 138.025861 376.412448 137.431785 376.629650 136.841639 376.846853 136.255509 377.064056 135.673480 377.281259 135.095636 377.498462 134.522062 377.715664 133.952845 377.932867 133.388068 378.150070 132.827818 378.367273 132.272178 378.584476 131.721235 378.801678 131.175072 379.018881 130.633776 379.236084 130.097432 379.453287 129.566124 379.670490 129.039937 379.887692 128.518958 380.104895 128.003269 380.322098 127.492958 380.539301 126.988109 380.756503 126.488806 380.973706 125.995136 381.190909 125.507183 381.408112 125.025032 381.625315 124.548769 381.842517 124.078477 382.059720 123.614244 382.276923 123.156153 382.494126 122.704289 382.711329 122.258739 382.928531 121.819586 383.145734 121.386916 383.362937 120.960814 383.580140 120.541366 383.797343 120.128655 384.014545 119.722768 384.231748 119.323789 384.448951 118.931803 384.666154 118.546897 384.883357 118.169153 385.100559 117.798659 385.317762 117.435498 385.534965 117.079756 385.752168 116.731518 385.969371 116.390869 386.186573 116.057894 386.403776 115.732678 386.620979 115.415307 386.838182 115.105865 387.055385 114.804437 387.272587 114.511109 387.489790 114.225966 387.706993 113.949092 387.924196 113.680574 388.141399 113.420495 388.358601 113.168941 388.575804 112.925997 388.793007 112.691748 389.010210 112.466280 389.227413 112.249677 389.444615 112.042024 389.661818 111.843406 389.879021 111.653910 390.096224 111.473619 390.313427 111.302618 390.530629 111.140994 390.747832 110.988830 390.965035 110.846213 391.182238 110.713226 391.399441 110.589956 391.616643 110.476487 391.833846 110.372904 392.051049 110.279293 392.268252 110.195710 392.485455 110.122102 392.702657 110.058386 392.919860 110.004480 393.137063 109.960303 393.354266 109.925771 393.571469 109.900803 393.788671 109.885317 394.005874 109.879231 394.223077 109.882462 394.440280 109.894929 394.657483 109.916549 394.874685 109.947240 395.091888 109.986920 395.309091 110.035508 395.526294 110.092920 395.743497 110.159075 395.960699 110.233891 396.177902 110.317285 396.395105 110.409176 396.612308 110.509482 396.829510 110.618119 397.046713 110.735007 397.263916 110.860063 397.481119 110.993205 397.698322 111.134351 397.915524 111.283418 398.132727 111.440325 398.349930 111.604990 398.567133 111.777330 398.784336 111.957264 399.001538 112.144708 399.218741 112.339582 399.435944 112.541803 399.653147 112.751289 399.870350 112.967957 400.087552 113.191727 400.304755 113.422514 400.521958 113.660239 400.739161 113.904818 400.956364 114.156169 401.173566 114.414210 401.390769 114.678859 401.607972 114.950034 401.825175 115.227653 402.042378 115.511634 402.259580 115.801895 402.476783 116.098353 402.693986 116.400926 402.911189 116.709533 403.128392 117.024091 403.345594 117.344518 403.562797 117.670732 403.780000 118.002651 403.997203 118.340193 404.214406 118.683275 404.431608 119.031816 404.648811 119.385734 404.866014 119.744945 405.083217 120.109370 405.300420 120.478924 405.517622 120.853526 405.734825 121.233095 405.952028 121.617547 406.169231 122.006801 406.386434 122.400774 406.603636 122.799385 406.820839 123.202552 407.038042 123.610192 407.255245 124.022223 407.472448 124.438563 407.689650 124.859130 407.906853 125.283842 408.124056 125.712617 408.341259 126.145372 408.558462 126.582026 408.775664 127.022497 408.992867 127.466701 409.210070 127.914558 409.427273 128.365986 409.644476 128.820901 409.861678 129.279222 410.078881 129.740867 410.296084 130.205754 410.513287 130.673801 410.730490 131.144924 410.947692 131.619044 411.164895 132.096076 411.382098 132.575940 411.599301 133.058553 411.816503 133.543833 412.033706 134.031698 412.250909 134.522065 412.468112 135.014854 412.685315 135.509980 412.902517 136.007364 413.119720 136.506921 413.336923 137.008571 413.554126 137.512231 413.771329 138.017819 413.988531 138.525253 414.205734 139.034451 414.422937 139.545330 414.640140 140.057809 414.857343 140.571806 415.074545 141.087238 415.291748 141.604023 415.508951 142.122080 415.726154 142.641325 415.943357 143.161678 416.160559 143.683055 416.377762 144.205375 416.594965 144.728556 416.812168 145.252515 417.029371 145.777171 417.246573 146.302441 417.463776 146.828243 417.680979 147.354496 417.898182 147.881116 418.115385 148.408023 418.332587 148.935133 418.549790 149.462365 418.766993 149.989636 418.984196 150.516865 419.201399 151.043970 419.418601 151.570868 419.635804 152.097476 419.853007 152.623714 420.070210 153.149499 420.287413 153.674749 420.504615 154.199381 420.721818 154.723315 420.939021 155.246466 421.156224 155.768754 421.373427 156.290097 421.590629 156.810411 421.807832 157.329616 422.025035 157.847629 422.242238 158.364368 422.459441 158.879750 422.676643 159.393694 422.893846 159.906118 423.111049 160.416939 423.328252 160.926076 423.545455 161.433446 423.762657 161.938967 423.979860 162.442557 424.197063 162.944134 424.414266 163.443616 424.631469 163.940920 424.848671 164.435966 425.065874 164.928669 425.283077 165.418950 425.500280 165.906724 425.717483 166.391911 425.934685 166.874428 426.151888 167.354193 426.369091 167.831123 426.586294 168.305138 426.803497 168.776154 427.020699 169.244090 427.237902 169.708863 427.455105 170.170392 427.672308 170.628593 427.889510 171.083386 428.106713 171.534689 428.323916 171.982418 428.541119 172.426491 428.758322 172.866828 428.975524 173.303345 429.192727 173.735961 429.409930 174.164593 429.627133 174.589159 429.844336 175.009578 430.061538 175.425767 430.278741 175.837643 430.495944 176.245126 430.713147 176.648132 430.930350 177.046580 431.147552 177.440388 431.364755 177.829473 431.581958 178.213753 431.799161 178.593147 432.016364 178.967572 432.233566 179.336945 432.450769 179.701186 432.667972 180.060212 432.885175 180.413940 433.102378 180.762289 433.319580 181.105176 433.536783 181.442520 433.753986 181.774238 433.971189 182.100248 434.188392 182.420469 434.405594 182.734817 434.622797 183.043211 434.840000 183.345569 435.057203 183.641809 435.274406 183.931848 435.491608 184.215605 435.708811 184.492997 435.926014 184.763942 436.143217 185.028358 436.360420 185.286164 436.577622 185.537276 436.794825 185.781613 437.012028 186.019093 437.229231 186.249633 437.446434 186.473152 437.663636 186.689567 437.880839 186.898797 438.098042 187.100758 438.315245 187.295370 438.532448 187.482550 438.749650 187.662216 438.966853 187.834285 439.184056 187.998676 439.401259 188.155307 439.618462 188.304095 439.835664 188.444958 440.052867 188.577814 440.270070 188.702582 440.487273 188.819179 440.704476 188.927522 440.921678 189.027531 441.138881 189.119122 441.356084 189.202213 441.573287 189.276724 441.790490 189.342570 442.007692 189.399671 442.224895 189.447944 442.442098 189.487307 442.659301 189.517678 442.876503 189.538975 443.093706 189.551115 443.310909 189.554017 443.528112 189.547599 443.745315 189.531778 443.962517 189.506473 444.179720 189.471600 444.396923 189.427079 444.614126 189.372827 444.831329 189.308762 445.048531 189.234801 445.265734 189.150863 445.482937 189.056866 445.700140 188.952727 445.917343 188.838365 446.134545 188.713696 446.351748 188.578640 446.568951 188.433141 446.786154 188.277246 447.003357 188.111031 447.220559 187.934571 447.437762 187.747941 447.654965 187.551216 447.872168 187.344471 448.089371 187.127780 448.306573 186.901220 448.523776 186.664864 448.740979 186.418787 448.958182 186.163066 449.175385 185.897773 449.392587 185.622986 449.609790 185.338778 449.826993 185.045224 450.044196 184.742400 450.261399 184.430381 450.478601 184.109241 450.695804 183.779055 450.913007 183.439898 451.130210 183.091846 451.347413 182.734973 451.564615 182.369354 451.781818 181.995064 451.999021 181.612179 452.216224 181.220772 452.433427 180.820920 452.650629 180.412696 452.867832 179.996177 453.085035 179.571436 453.302238 179.138550 453.519441 178.697592 453.736643 178.248638 453.953846 177.791763 454.171049 177.327042 454.388252 176.854549 454.605455 176.374361 454.822657 175.886550 455.039860 175.391194 455.257063 174.888366 455.474266 174.378141 455.691469 173.860595 455.908671 173.335803 456.125874 172.803839 456.343077 172.264778 456.560280 171.718695 456.777483 171.165666 456.994685 170.605766 457.211888 170.039068 457.429091 169.465649 457.646294 168.885583 457.863497 168.298945 458.080699 167.705810 458.297902 167.106253 458.515105 166.500349 458.732308 165.888173 458.949510 165.269801 459.166713 164.645306 459.383916 164.014764 459.601119 163.378249 459.818322 162.735838 460.035524 162.087604 460.252727 161.433623 460.469930 160.773970 460.687133 160.108719 460.904336 159.437947 461.121538 158.761726 461.338741 158.080133 461.555944 157.393243 461.773147 156.701130 461.990350 156.003870 462.207552 155.301537 462.424755 154.594206 462.641958 153.881953 462.859161 153.164852 463.076364 152.442978 463.293566 151.716406 463.510769 150.985212 463.727972 150.249470 463.945175 149.509255 464.162378 148.764642 464.379580 148.015706 464.596783 147.262522 464.813986 146.505164 465.031189 145.743709 465.248392 144.978231 465.465594 144.208805 465.682797 143.435505 465.900000 142.658407 466.117203 141.877586 466.334406 141.093117 466.551608 140.305074 466.768811 139.513533 466.986014 138.718568 467.203217 137.920255 467.420420 137.118669 467.637622 136.313884 467.854825 135.505975 468.072028 134.695018 468.289231 133.881088 468.506434 133.064258 468.723636 132.244605 468.940839 131.422203 469.158042 130.597128 469.375245 129.769453 469.592448 128.939255 469.809650 128.106608 470.026853 127.271587 470.244056 126.434267 470.461259 125.594722 470.678462 124.753029 470.895664 123.909262 471.112867 123.063496 471.330070 122.215806 471.547273 121.366266 471.764476 120.514952 471.981678 119.661939 472.198881 118.807302 472.416084 117.951115 472.633287 117.093454 472.850490 116.234393 473.067692 115.374009 473.284895 114.512374 473.502098 113.649565 473.719301 112.785657 473.936503 111.920724 474.153706 111.054841 474.370909 110.188084 474.588112 109.320527 474.805315 108.452245 475.022517 107.583314 475.239720 106.713807 475.456923 105.843801 475.674126 104.973370 475.891329 104.102589 476.108531 103.231533 476.325734 102.360277 476.542937 101.488896 476.760140 100.617465 476.977343 99.746059 477.194545 98.874753 477.411748 98.003622 477.628951 97.132740 477.846154 96.262183 478.063357 95.392026 478.280559 94.522344 478.497762 93.653211 478.714965 92.784702 478.932168 91.916894 479.149371 91.049860 479.366573 90.183675 479.583776 89.318415 479.800979 88.454154 480.018182 87.590968 480.235385 86.728931 480.452587 85.868118 480.669790 85.008605 480.886993 84.150465 481.104196 83.293775 481.321399 82.438610 481.538601 81.585043 481.755804 80.733150 481.973007 79.883007 482.190210 79.034687 482.407413 78.188267 482.624615 77.343820 482.841818 76.501422 483.059021 75.661148 483.276224 74.823073 483.493427 73.987272 483.710629 73.153820 483.927832 72.322791 484.145035 71.494261 484.362238 70.668304 484.579441 69.844997 484.796643 69.024412 485.013846 68.206627 485.231049 67.391715 485.448252 66.579751 485.665455 65.770811 485.882657 64.964969 486.099860 64.162300 486.317063 63.362880 486.534266 62.566783 486.751469 61.774084 486.968671 60.984859 487.185874 60.199181 487.403077 59.417127 487.620280 58.638771 487.837483 57.864188 488.054685 57.093453 488.271888 56.326641 488.489091 55.563827 488.706294 54.805086 488.923497 54.050493 489.140699 53.300122 489.357902 52.554050 489.575105 51.812350 489.792308 51.075098 490.009510 50.342368 490.226713 49.614236 490.443916 48.890777 490.661119 48.172066 490.878322 47.458176 491.095524 46.749185 491.312727 46.045166 491.529930 45.346194 491.747133 44.652345 491.964336 43.963693 492.181538 43.280314 492.398741 42.602281 492.615944 41.929671 492.833147 41.262559 493.050350 40.601018 493.267552 39.945124 493.484755 39.294953 493.701958 38.650579 493.919161 38.012076 494.136364 37.379521 494.353566 36.752988 494.570769 36.132551 494.787972 35.518287 495.005175 34.910269 495.222378 34.308573 495.439580 33.713274 495.656783 33.124447 495.873986 32.542166 496.091189 31.966507 496.308392 31.397545 496.525594 30.835354 496.742797 30.280010 496.960000 29.731587 497.177203 29.190161 497.394406 28.655806 497.611608 28.128598 497.828811 27.608611 498.046014 27.095920 498.263217 26.590601 498.480420 26.092728 498.697622 25.602376 498.914825 25.119620 499.132028 24.644535 499.349231 24.177197 499.566434 23.717679 499.783636 23.266058 500.000839 22.822408 500.218042 22.386803 500.435245 21.959320 500.652448 21.540032 500.869650 21.128996 501.086853 20.726184 501.304056 20.331553 501.521259 19.945057 501.738462 19.566650 501.955664 19.196287 502.172867 18.833923 502.390070 18.479512 502.607273 18.133009 502.824476 17.794368 503.041678 17.463545 503.258881 17.140494 503.476084 16.825169 503.693287 16.517525 503.910490 16.217517 504.127692 15.925099 504.344895 15.640227 504.562098 15.362854 504.779301 15.092936 504.996503 14.830426 505.213706 14.575280 505.430909 14.327452 505.648112 14.086897 505.865315 13.853570 506.082517 13.627425 506.299720 13.408416 506.516923 13.196499 506.734126 12.991628 506.951329 12.793758 507.168531 12.602843 507.385734 12.418838 507.602937 12.241697 507.820140 12.071376 508.037343 11.907829 508.254545 11.751010 508.471748 11.600874 508.688951 11.457376 508.906154 11.320471 509.123357 11.190112 509.340559 11.066256 509.557762 10.948855 509.774965 10.837866 509.992168 10.733242 510.209371 10.634938 510.426573 10.542909 510.643776 10.457110 510.860979 10.377495 511.078182 10.304019 511.295385 10.236636 511.512587 10.175301 511.729790 10.119969 511.946993 10.070594 512.164196 10.027131 512.381399 9.989535 512.598601 9.957760 512.815804 9.931760 513.033007 9.911492 513.250210 9.896908 513.467413 9.887965 513.684615 9.884615 513.901818 9.886815 514.119021 9.894519 514.336224 9.907681 514.553427 9.926255 514.770629 9.950198 514.987832 9.979462 515.205035 10.014004 515.422238 10.053777 515.639441 10.098736 515.856643 10.148836 516.073846 10.204032 516.291049 10.264277 516.508252 10.329527 516.725455 10.399737 516.942657 10.474860 517.159860 10.554853 517.377063 10.639668 517.594266 10.729261 517.811469 10.823587 518.028671 10.922600 518.245874 11.026255 518.463077 11.134506 518.680280 11.247308 518.897483 11.364616 519.114685 11.486385 519.331888 11.612568 519.549091 11.743121 519.766294 11.877998 519.983497 12.017154 520.200699 12.160544 520.417902 12.308121 520.635105 12.459842 520.852308 12.615660 521.069510 12.775530 521.286713 12.939407 521.503916 13.107245 521.721119 13.278999 521.938322 13.454624 522.155524 13.634074 522.372727 13.817304 522.589930 14.004268 522.807133 14.194922 523.024336 14.389219 523.241538 14.587115 523.458741 14.788564 523.675944 14.993521 523.893147 15.201940 524.110350 15.413776 524.327552 15.628984 524.544755 15.847517 524.761958 16.069332 524.979161 16.294383 525.196364 16.522623 525.413566 16.754009 525.630769 16.988493 525.847972 17.226032 526.065175 17.466580 526.282378 17.710091 526.499580 17.956520 526.716783 18.205821 526.933986 18.457950 527.151189 18.712861 527.368392 18.970508 527.585594 19.230847 527.802797 19.493831 528.020000 19.759416 528.237203 20.027556 528.454406 20.298205 528.671608 20.571319 528.888811 20.846852 529.106014 21.124759 529.323217 21.404994 529.540420 21.687511 529.757622 21.972267 529.974825 22.259214 530.192028 22.548309 530.409231 22.839504 530.626434 23.132756 530.843636 23.428019 531.060839 23.725247 531.278042 24.024395 531.495245 24.325418 531.712448 24.628269 531.929650 24.932905 532.146853 25.239280 532.364056 25.547347 532.581259 25.857063 532.798462 26.168381 533.015664 26.481256 533.232867 26.795642 533.450070 27.111495 533.667273 27.428769 533.884476 27.747419 534.101678 28.067399 534.318881 28.388664 534.536084 28.711169 534.753287 29.034867 534.970490 29.359715 535.187692 29.685666 535.404895 30.012675 535.622098 30.340697 535.839301 30.669686 536.056503 30.999597 536.273706 31.330385 536.490909 31.662004 536.708112 31.994410 536.925315 32.327555 537.142517 32.661396 537.359720 32.995887 537.576923 33.330982 537.794126 33.666636 538.011329 34.002804 538.228531 34.339441 538.445734 34.676500 538.662937 35.013937 538.880140 35.351707 539.097343 35.689763 539.314545 36.028061 539.531748 36.366555 539.748951 36.705200 539.966154 37.043951 540.183357 37.382761 540.400559 37.721586 540.617762 38.060381 540.834965 38.399100 541.052168 38.737697 541.269371 39.076128 541.486573 39.414347 541.703776 39.752308 541.920979 40.089966 542.138182 40.427276 542.355385 40.764193 542.572587 41.100671 542.789790 41.436665 543.006993 41.772129 543.224196 42.107018 543.441399 42.441286 543.658601 42.774889 543.875804 43.107781 544.093007 43.439917 544.310210 43.771250 544.527413 44.101737 544.744615 44.431331 544.961818 44.759987 545.179021 45.087660 545.396224 45.414305 545.613427 45.739875 545.830629 46.064326 546.047832 46.387612 546.265035 46.709689 546.482238 47.030510 546.699441 47.350030 546.916643 47.668204 547.133846 47.984986 547.351049 48.300332 547.568252 48.614195 547.785455 48.926531 548.002657 49.237294 548.219860 49.546438 548.437063 49.853919 548.654266 50.159691 548.871469 50.463708 549.088671 50.765926 549.305874 51.066298 549.523077 51.364780 549.740280 51.661326 549.957483 51.955891 550.174685 52.248429 550.391888 52.538896 550.609091 52.827245 550.826294 53.113431 551.043497 53.397409 551.260699 53.679134 551.477902 53.958560 551.695105 54.235642 551.912308 54.510334 552.129510 54.782592 552.346713 55.052369 552.563916 55.319621 552.781119 55.584302 552.998322 55.846366 553.215524 56.105769 553.432727 56.362465 553.649930 56.616408 553.867133 56.867554 554.084336 57.115856 554.301538 57.361270 554.518741 57.603751 554.735944 57.843252 554.953147 58.079728 555.170350 58.313144 555.387552 58.543502 555.604755 58.770815 555.821958 58.995095 556.039161 59.216354 556.256364 59.434604 556.473566 59.649859 556.690769 59.862129 556.907972 60.071427 557.125175 60.277767 557.342378 60.481158 557.559580 60.681616 557.776783 60.879150 557.993986 61.073774 558.211189 61.265500 558.428392 61.454341 558.645594 61.640308 558.862797 61.823413 559.080000 62.003670 559.297203 62.181090 559.514406 62.355686 559.731608 62.527470 559.948811 62.696454 560.166014 62.862651 560.383217 63.026072 560.600420 63.186730 560.817622 63.344638 561.034825 63.499807 561.252028 63.652250 561.469231 63.801979 561.686434 63.949007 561.903636 64.093346 562.120839 64.235007 562.338042 64.374004 562.555245 64.510348 562.772448 64.644052 562.989650 64.775129 563.206853 64.903589 563.424056 65.029447 563.641259 65.152713 563.858462 65.273401 564.075664 65.391522 564.292867 65.507089 564.510070 65.620114 564.727273 65.730609 564.944476 65.838587 565.161678 65.944060 565.378881 66.047041 565.596084 66.147540 565.813287 66.245572 566.030490 66.341147 566.247692 66.434279 566.464895 66.524979 566.682098 66.613261 566.899301 66.699135 567.116503 66.782615 567.333706 66.863713 567.550909 66.942440 567.768112 67.018810 567.985315 67.092835 568.202517 67.164526 568.419720 67.233896 568.636923 67.300958 568.854126 67.365724 569.071329 67.428205 569.288531 67.488415 569.505734 67.546365 569.722937 67.602068 569.940140 67.655536 570.157343 67.706782 570.374545 67.755817 570.591748 67.802654 570.808951 67.847305 571.026154 67.889783 571.243357 67.930099 571.460559 67.968267 571.677762 68.004297 571.894965 68.038204 572.112168 68.069998 572.329371 68.099693 572.546573 68.127299 572.763776 68.152831 572.980979 68.176300 573.198182 68.197717 573.415385 68.217097 573.632587 68.234450 573.849790 68.249790 574.066993 68.263127 574.284196 68.274476 574.501399 68.283847 574.718601 68.291254 574.935804 68.296708 575.153007 68.300222 575.370210 68.301808 575.587413 68.301478 575.804615 68.299245 576.021818 68.295121 576.239021 68.289119 576.456224 68.281249 576.673427 68.271525 576.890629 68.259960 577.107832 68.246565 577.325035 68.231352 577.542238 68.214334 577.759441 68.195523 577.976643 68.174932 578.193846 68.152573 578.411049 68.128457 578.628252 68.102598 578.845455 68.075007 579.062657 68.045697 579.279860 68.014680 579.497063 67.981969 579.714266 67.947575 579.931469 67.911511 580.148671 67.873790 580.365874 67.834423 580.583077 67.793423 580.800280 67.750801 581.017483 67.706572 581.234685 67.660745 581.451888 67.613335 581.669091 67.564353 581.886294 67.513811 582.103497 67.461722 582.320699 67.408099 582.537902 67.352952 582.755105 67.296295 582.972308 67.238140 583.189510 67.178499 583.406713 67.117385 583.623916 67.054809 583.841119 66.990784 584.058322 66.925322 584.275524 66.858436 584.492727 66.790138 584.709930 66.720440 584.927133 66.649354 585.144336 66.576893 585.361538 66.503069 585.578741 66.427894 585.795944 66.351381 586.013147 66.273541 586.230350 66.194388 586.447552 66.113933 586.664755 66.032188 586.881958 65.949166 587.099161 65.864880 587.316364 65.779341 587.533566 65.692562 587.750769 65.604554 587.967972 65.515331 588.185175 65.424905 588.402378 65.333288 588.619580 65.240491 588.836783 65.146528 589.053986 65.051411 589.271189 64.955152 589.488392 64.857763 589.705594 64.759256 589.922797 64.659645 590.140000 64.558940 590.357203 64.457155 590.574406 64.354302 590.791608 64.250392 591.008811 64.145439 591.226014 64.039454 591.443217 63.932450 591.660420 63.824439 591.877622 63.715433 592.094825 63.605445 592.312028 63.494487 592.529231 63.382571 592.746434 63.269709 592.963636 63.155915 593.180839 63.041199 593.398042 62.925574 593.615245 62.809053 593.832448 62.691648 594.049650 62.573371 594.266853 62.454235 594.484056 62.334251 594.701259 62.213432 594.918462 62.091791 595.135664 61.969339 595.352867 61.846089 595.570070 61.722052 595.787273 61.597243 596.004476 61.471672 596.221678 61.345351 596.438881 61.218295 596.656084 61.090513 596.873287 60.962019 597.090490 60.832826 597.307692 60.702944 597.524895 60.572388 597.742098 60.441168 597.959301 60.309297 598.176503 60.176788 598.393706 60.043653 598.610909 59.909903 598.828112 59.775552 599.045315 59.640612 599.262517 59.505094 599.479720 59.369011 599.696923 59.232376 599.914126 59.095201 600.131329 58.957497 600.348531 58.819278 600.565734 58.680555 600.782937 58.541341 601.000140 58.401648 601.217343 58.261489 601.434545 58.120875 601.651748 57.979819 601.868951 57.838334 602.086154 57.696430 602.303357 57.554122 602.520559 57.411421 602.737762 57.268338 602.954965 57.124888 603.172168 56.981081 603.389371 56.836931 603.606573 56.692449 603.823776 56.547648 604.040979 56.402540 604.258182 56.257137 604.475385 56.111451 604.692587 55.965496 604.909790 55.819282 605.126993 55.672823 605.344196 55.526131 605.561399 55.379218 605.778601 55.232096 605.995804 55.084777 606.213007 54.937274 606.430210 54.789600 606.647413 54.641765 606.864615 54.493784 607.081818 54.345667 607.299021 54.197427 607.516224 54.049077 607.733427 53.900629 607.950629 53.752095 608.167832 53.603487 608.385035 53.454817 608.602238 53.306099 608.819441 53.157343 609.036643 53.008564 609.253846 52.859771 609.253846 514.000000" /></g></g><g class="titles"><text class="title plot_title" x="400.0" y="26">Mo-Chit 52</text></g><g class="plot overlay" transform="translate(158, 46)"><g class="series serie-0 color-0"><g class="dots"><circle class="dot reactive tooltip-trigger" cx="11.946153846153846" cy="350.3972920846521" r="2.5" /><desc class="value">838000</desc><desc class="x top">11.946153846153846</desc><desc class="y top">350.3972920846521</desc><desc class="x_label">Jan</desc></g><g class="dots"><circle class="dot reactive tooltip-trigger" cx="66.24685314685314" cy="470.4562916725918" r="2.5" /><desc class="value">792000</desc><desc class="x top">66.24685314685314</desc><desc class="y top">470.4562916725918</desc><desc class="x_label">Feb</desc></g><g class="dots"><circle class="dot reactive tooltip-trigger" cx="120.54755244755245" cy="39.80988010715606" r="2.5" /><desc class="value">957000</desc><desc class="x ">120.54755244755245</desc><desc class="y ">39.80988010715606</desc><desc class="x_label">Mar</desc></g><g class="dots"><circle class="dot reactive tooltip-trigger" cx="174.84825174825176" cy="238.1682272524477" r="2.5" /><desc class="value">881000</desc><desc class="x ">174.84825174825176</desc><desc class="y ">238.1682272524477</desc><desc class="x_label">Apr</desc></g><g class="dots"><circle class="dot reactive tooltip-trigger" cx="229.14895104895106" cy="290.36779229068236" r="2.5" /><desc class="value">861000</desc><desc class="x top">229.14895104895106</desc><desc class="y top">290.36779229068236</desc><desc class="x_label">May</desc></g><g class="dots"><circle class="dot reactive tooltip-trigger" cx="283.44965034965037" cy="102.44935815303762" r="2.5" /><desc class="value">933000</desc><desc class="x ">283.44965034965037</desc><desc class="y ">102.44935815303762</desc><desc class="x_label">Jun</desc></g><g class="dots"><circle class="dot reactive tooltip-trigger" cx="337.7503496503497" cy="225.118335992889" r="2.5" /><desc class="value">886000</desc><desc class="x left">337.7503496503497</desc><desc class="y left">225.118335992889</desc><desc class="x_label">Jul</desc></g><g class="dots"><circle class="dot reactive tooltip-trigger" cx="392.051048951049" cy="110.27929290877279" r="2.5" /><desc class="value">930000</desc><desc class="x left">392.051048951049</desc><desc class="y left">110.27929290877279</desc><desc class="x_label">Aug</desc></g><g class="dots"><circle class="dot reactive tooltip-trigger" cx="446.3517482517483" cy="188.5786404661248" r="2.5" /><desc class="value">900000</desc><desc class="x left">446.3517482517483</desc><desc class="y left">188.5786404661248</desc><desc class="x_label">Sep</desc></g><g class="dots"><circle class="dot reactive tooltip-trigger" cx="500.6524475524476" cy="21.54003234377393" r="2.5" /><desc class="value">964000</desc><desc class="x left">500.6524475524476</desc><desc class="y left">21.54003234377393</desc><desc class="x_label">Oct</desc></g><g class="dots"><circle class="dot reactive tooltip-trigger" cx="554.9531468531468" cy="58.07972787053819" r="2.5" /><desc class="value">950000</desc><desc class="x left">554.9531468531468</desc><desc class="y left">58.07972787053819</desc><desc class="x_label">Nov</desc></g><g class="dots"><circle class="dot reactive tooltip-trigger" cx="609.2538461538462" cy="52.85977136671471" r="2.5" /><desc class="value">952000</desc><desc class="x left">609.2538461538462</desc><desc class="y left">52.85977136671471</desc><desc class="x_label">Dec</desc></g></g></g><g class="plot text-overlay" transform="translate(158, 46)"><g class="series serie-0 color-0" /></g><g class="plot tooltip-overlay" transform="translate(158, 46)"><g class="tooltip" style="opacity: 0" transform="translate(0 0)"><rect class="tooltip-box" height="0" rx="0" ry="0" width="0" /><g class="text" /></g></g><g class="legends" transform="translate(10, 56)"><g class="legend reactive activate-serie" id="activate-serie-0"><rect class="color-0 reactive" height="12" width="12" x="0.0" y="1.0" /><text x="17.0" y="11.2">Mo-Chit</text></g></g><g class="legends" transform="translate(790, 56)" /></g></svg>