<?xml version='1.0' encoding='utf-8'?>
<svg xmlns:xlink="http://www.w3.org/1999/xlink" class="pygal-chart" id="chart-6c87a676-0798-4327-9cba-148e579a2d7f" viewBox="0 0 800 600" xmlns="http://www.w3.org/2000/svg"><!--Generated with pygal 2.0.11 (etree) ©Kozea 2011-2015 on 2015-12-10--><!--http://pygal.org--><!--http://github.com/Kozea/pygal--><defs><style type="text/css">#chart-6c87a676-0798-4327-9cba-148e579a2d7f{-webkit-user-select:none;-webkit-font-smoothing:antialiased;font-family:Consolas,"Liberation Mono",Menlo,Courier,monospace}#chart-6c87a676-0798-4327-9cba-148e579a2d7f .title{font-family:Consolas,"Liberation Mono",Menlo,Courier,monospace;font-size:16px}#chart-6c87a676-0798-4327-9cba-148e579a2d7f .legends .legend text{font-family:Consolas,"Liberation Mono",Menlo,Courier,monospace;font-size:14px}#chart-6c87a676-0798-4327-9cba-148e579a2d7f .axis text{font-family:Consolas,"Liberation Mono",Menlo,Courier,monospace;font-size:10px}#chart-6c87a676-0798-4327-9cba-148e579a2d7f .axis text.major{font-family:Consolas,"Liberation Mono",Menlo,Courier,monospace;font-size:10px}#chart-6c87a676-0798-4327-9cba-148e579a2d7f .text-overlay text.value{font-family:Consolas,"Liberation Mono",Menlo,Courier,monospace;font-size:16px}#chart-6c87a676-0798-4327-9cba-148e579a2d7f .text-overlay text.label{font-family:Consolas,"Liberation Mono",Menlo,Courier,monospace;font-size:10px}#chart-6c87a676-0798-4327-9cba-148e579a2d7f .tooltip{font-family:Consolas,"Liberation Mono",Menlo,Courier,monospace;font-size:14px}#chart-6c87a676-0798-4327-9cba-148e579a2d7f text.no_data{font-family:Consolas,"Liberation Mono",Menlo,Courier,monospace;font-size:64px}
#chart-6c87a676-0798-4327-9cba-148e579a2d7f{background-color:black}#chart-6c87a676-0798-4327-9cba-148e579a2d7f path,#chart-6c87a676-0798-4327-9cba-148e579a2d7f line,#chart-6c87a676-0798-4327-9cba-148e579a2d7f rect,#chart-6c87a676-0798-4327-9cba-148e579a2d7f circle{-webkit-transition:250ms;-moz-transition:250ms;transition:250ms}#chart-6c87a676-0798-4327-9cba-148e579a2d7f .graph &gt; .background{fill:black}#chart-6c87a676-0798-4327-9cba-148e579a2d7f .plot &gt; .background{fill:#111}#chart-6c87a676-0798-4327-9cba-148e579a2d7f .graph{fill:#999}#chart-6c87a676-0798-4327-9cba-148e579a2d7f text.no_data{fill:#eee}#chart-6c87a676-0798-4327-9cba-148e579a2d7f .title{fill:#eee}#chart-6c87a676-0798-4327-9cba-148e579a2d7f .legends .legend text{fill:#999}#chart-6c87a676-0798-4327-9cba-148e579a2d7f .legends .legend:hover text{fill:#eee}#chart-6c87a676-0798-4327-9cba-148e579a2d7f .axis .line{stroke:#eee}#chart-6c87a676-0798-4327-9cba-148e579a2d7f .axis .guide.line{stroke:#555}#chart-6c87a676-0798-4327-9cba-148e579a2d7f .axis .major.line{stroke:#999}#chart-6c87a676-0798-4327-9cba-148e579a2d7f .axis text.major{fill:#eee}#chart-6c87a676-0798-4327-9cba-148e579a2d7f .axis.y .guides:hover .guide.line,#chart-6c87a676-0798-4327-9cba-148e579a2d7f .line-graph .axis.x .guides:hover .guide.line,#chart-6c87a676-0798-4327-9cba-148e579a2d7f .stackedline-graph .axis.x .guides:hover .guide.line,#chart-6c87a676-0798-4327-9cba-148e579a2d7f .xy-graph .axis.x .guides:hover .guide.line{stroke:#eee}#chart-6c87a676-0798-4327-9cba-148e579a2d7f .axis .guides:hover text{fill:#eee}#chart-6c87a676-0798-4327-9cba-148e579a2d7f .reactive{fill-opacity:.8}#chart-6c87a676-0798-4327-9cba-148e579a2d7f .reactive.active,#chart-6c87a676-0798-4327-9cba-148e579a2d7f .active .reactive{fill-opacity:.4;stroke-width:4}#chart-6c87a676-0798-4327-9cba-148e579a2d7f .series text{fill:#eee}#chart-6c87a676-0798-4327-9cba-148e579a2d7f .tooltip rect{fill:#111;stroke:#eee;-webkit-transition:opacity 250ms;-moz-transition:opacity 250ms;transition:opacity 250ms}#chart-6c87a676-0798-4327-9cba-148e579a2d7f .tooltip .label{fill:#999}#chart-6c87a676-0798-4327-9cba-148e579a2d7f .tooltip .label{fill:#999}#chart-6c87a676-0798-4327-9cba-148e579a2d7f .tooltip .legend{font-size:.8em;fill:#555}#chart-6c87a676-0798-4327-9cba-148e579a2d7f .tooltip .x_label{font-size:.6em;fill:#eee}#chart-6c87a676-0798-4327-9cba-148e579a2d7f .tooltip .xlink{font-size:.5em;text-decoration:underline}#chart-6c87a676-0798-4327-9cba-148e579a2d7f .tooltip .value{font-size:1.5em}#chart-6c87a676-0798-4327-9cba-148e579a2d7f .map-element{fill:#111;stroke:#555 !important}#chart-6c87a676-0798-4327-9cba-148e579a2d7f .map-element .reactive{fill-opacity:inherit}#chart-6c87a676-0798-4327-9cba-148e579a2d7f .color-0,#chart-6c87a676-0798-4327-9cba-148e579a2d7f .color-0 a:visited{stroke:#ff5995;fill:#ff5995}#chart-6c87a676-0798-4327-9cba-148e579a2d7f .text-overlay .color-0 text{fill:black}
#chart-6c87a676-0798-4327-9cba-148e579a2d7f text.no_data{text-anchor:middle}#chart-6c87a676-0798-4327-9cba-148e579a2d7f .guide.line{fill:none}#chart-6c87a676-0798-4327-9cba-148e579a2d7f .centered{text-anchor:middle}#chart-6c87a676-0798-4327-9cba-148e579a2d7f .title{text-anchor:middle}#chart-6c87a676-0798-4327-9cba-148e579a2d7f .legends .legend text{fill-opacity:1}#chart-6c87a676-0798-4327-9cba-148e579a2d7f .axis.x text{text-anchor:middle}#chart-6c87a676-0798-4327-9cba-148e579a2d7f .axis.x:not(.web) text[transform]{text-anchor:start}#chart-6c87a676-0798-4327-9cba-148e579a2d7f .axis.x:not(.web) text[transform].backwards{text-anchor:end}#chart-6c87a676-0798-4327-9cba-148e579a2d7f .axis.y text{text-anchor:end}#chart-6c87a676-0798-4327-9cba-148e579a2d7f .axis.y text[transform].backwards{text-anchor:start}#chart-6c87a676-0798-4327-9cba-148e579a2d7f .axis.y2 text{text-anchor:start}#chart-6c87a676-0798-4327-9cba-148e579a2d7f .axis.y2 text[transform].backwards{text-anchor:end}#chart-6c87a676-0798-4327-9cba-148e579a2d7f .axis .guide.line{stroke-dasharray:4,4}#chart-6c87a676-0798-4327-9cba-148e579a2d7f .axis .major.guide.line{stroke-dasharray:6,6}#chart-6c87a676-0798-4327-9cba-148e579a2d7f .horizontal .axis.y .guide.line,#chart-6c87a676-0798-4327-9cba-148e579a2d7f .horizontal .axis.y2 .guide.line,#chart-6c87a676-0798-4327-9cba-148e579a2d7f .vertical .axis.x .guide.line{opacity:0}#chart-6c87a676-0798-4327-9cba-148e579a2d7f .horizontal .axis.always_show .guide.line,#chart-6c87a676-0798-4327-9cba-148e579a2d7f .vertical .axis.always_show .guide.line{opacity:1 !important}#chart-6c87a676-0798-4327-9cba-148e579a2d7f .axis.y .guides:hover .guide.line,#chart-6c87a676-0798-4327-9cba-148e579a2d7f .axis.y2 .guides:hover .guide.line,#chart-6c87a676-0798-4327-9cba-148e579a2d7f .axis.x .guides:hover .guide.line{opacity:1}#chart-6c87a676-0798-4327-9cba-148e579a2d7f .axis .guides:hover text{opacity:1}#chart-6c87a676-0798-4327-9cba-148e579a2d7f .nofill{fill:none}#chart-6c87a676-0798-4327-9cba-148e579a2d7f .subtle-fill{fill-opacity:.2}#chart-6c87a676-0798-4327-9cba-148e579a2d7f .dot{stroke-width:1px;fill-opacity:1}#chart-6c87a676-0798-4327-9cba-148e579a2d7f .dot.active{stroke-width:5px}#chart-6c87a676-0798-4327-9cba-148e579a2d7f .dot.negative{fill:transparent}#chart-6c87a676-0798-4327-9cba-148e579a2d7f text,#chart-6c87a676-0798-4327-9cba-148e579a2d7f tspan{stroke:none !important}#chart-6c87a676-0798-4327-9cba-148e579a2d7f .series text.active{opacity:1}#chart-6c87a676-0798-4327-9cba-148e579a2d7f .tooltip rect{fill-opacity:.95;stroke-width:.5}#chart-6c87a676-0798-4327-9cba-148e579a2d7f .tooltip text{fill-opacity:1}#chart-6c87a676-0798-4327-9cba-148e579a2d7f .showable{visibility:hidden}#chart-6c87a676-0798-4327-9cba-148e579a2d7f .showable.shown{visibility:visible}</style><script type="text/javascript">window.pygal = window.pygal || {};window.pygal.config = window.pygal.config || {};window.pygal.config['6c87a676-0798-4327-9cba-148e579a2d7f'] = {"print_values": false, "truncate_label": null, "human_readable": false, "explicit_size": false, "show_y_labels": true, "x_labels": ["Jan", "Feb", "Mar", "Apr", "May", "Jun", "Jul", "Aug", "Sep", "Oct", "Nov", "Dec"], "inverse_y_axis": false, "x_labels_major_count": null, "show_y_guides": true, "spacing": 10, "xrange": null, "rounded_bars": null, "margin": 20, "interpolation_precision": 250, "title": "Nana 52", "stroke_style": null, "no_data_text": "No data", "fill": true, "box_mode": "extremes", "print_labels": false, "interpolate": "cubic", "zero": 0, "show_only_major_dots": false, "truncate_legend": null, "show_minor_x_labels": true, "js": ["//kozea.github.io/pygal.js/2.0.x/pygal-tooltips.min.js"], "x_labels_major_every": null, "legends": ["Nana"], "tooltip_fancy_mode": true, "disable_xml_declaration": false, "show_x_guides": false, "print_zeroes": true, "show_legend": true, "legend_at_bottom": false, "y_labels_major_count": null, "secondary_range": null, "margin_bottom": null, "half_pie": false, "height": 600, "range": null, "show_minor_y_labels": true, "defs": [], "css": ["file://style.css", "file://graph.css"], "y_labels": null, "interpolation_parameters": {}, "width": 800, "strict": false, "pretty_print": false, "min_scale": 4, "margin_top": null, "dynamic_print_values": false, "order_min": null, "x_title": null, "margin_left": null, "margin_right": null, "y_labels_major_every": null, "stroke": true, "x_labels_major": null, "missing_value_fill_truncation": "x", "logarithmic": false, "stack_from_top": false, "show_dots": true, "style": {"title_font_size": 16, "title_font_family": "Consolas, \"Liberation Mono\", Menlo, Courier, monospace", "tooltip_font_family": "Consolas, \"Liberation Mono\", Menlo, Courier, monospace", "background": "black", "tooltip_font_size": 14, "opacity_hover": ".4", "value_label_font_size": 10, "opacity": ".8", "no_data_font_family": "Consolas, \"Liberation Mono\", Menlo, Courier, monospace", "label_font_size": 10, "plot_background": "#111", "value_font_size": 16, "value_font_family": "Consolas, \"Liberation Mono\", Menlo, Courier, monospace", "no_data_font_size": 64, "foreground_strong": "#eee", "font_family": "Consolas, \"Liberation Mono\", Menlo, Courier, monospace", "label_font_family": "Consolas, \"Liberation Mono\", Menlo, Courier, monospace", "transition": "250ms", "major_guide_stroke_dasharray": "6,6", "foreground_subtle": "#555", "value_colors": [], "value_label_font_family": "Consolas, \"Liberation Mono\", Menlo, Courier, monospace", "guide_stroke_dasharray": "4,4", "major_label_font_size": 10, "legend_font_family": "Consolas, \"Liberation Mono\", Menlo, Courier, monospace", "major_label_font_family": "Consolas, \"Liberation Mono\", Menlo, Courier, monospace", "foreground": "#999", "colors": ["#ff5995", "#b6e354", "#feed6c", "#8cedff", "#9e6ffe", "#899ca1", "#f8f8f2", "#bf4646", "#516083", "#f92672", "#82b414", "#fd971f", "#56c2d6", "#808384", "#8c54fe", "#465457"], "legend_font_size": 14}, "y_labels_major": null, "x_label_rotation": 0, "max_scale": 16, "value_formatter": null, "dots_size": 2.5, "legend_at_bottom_columns": null, "force_uri_protocol": null, "x_value_formatter": null, "legend_box_size": 12, "include_x_axis": false, "y_label_rotation": 0, "show_x_labels": true, "inner_radius": 0, "no_prefix": false, "tooltip_border_radius": 0, "y_title": null}</script><script type="text/javascript" xlink:href="//kozea.github.io/pygal.js/2.0.x/pygal-tooltips.min.js" /></defs><title>Nana 52</title><g class="graph line-graph vertical"><rect class="background" height="600" width="800" x="0" y="0" /><g class="plot" transform="translate(133, 46)"><rect class="background" height="514" width="646.4" x="0" y="0" /><g class="axis y"><path class="line" d="M0.000000 514.000000 h646.400000" /><g class="guides"><path class="major guide line" d="M0.000000 484.974555 h646.400000" /><text class="major" x="-5" y="488.47455526139674">350000.0</text><title>350000.0</title></g><g class="guides"><path class="guide line" d="M0.000000 434.965088 h646.400000" /><text class="" x="-5" y="438.46508790594606">360000.0</text><title>360000.0</title></g><g class="guides"><path class="guide line" d="M0.000000 384.955621 h646.400000" /><text class="" x="-5" y="388.4556205504954">370000.0</text><title>370000.0</title></g><g class="guides"><path class="guide line" d="M0.000000 334.946153 h646.400000" /><text class="" x="-5" y="338.4461531950447">380000.0</text><title>380000.0</title></g><g class="guides"><path class="guide line" d="M0.000000 284.936686 h646.400000" /><text class="" x="-5" y="288.436685839594">390000.0</text><title>390000.0</title></g><g class="guides"><path class="major guide line" d="M0.000000 234.927218 h646.400000" /><text class="major" x="-5" y="238.42721848414334">400000.0</text><title>400000.0</title></g><g class="guides"><path class="guide line" d="M0.000000 184.917751 h646.400000" /><text class="" x="-5" y="188.4177511286926">410000.0</text><title>410000.0</title></g><g class="guides"><path class="guide line" d="M0.000000 134.908284 h646.400000" /><text class="" x="-5" y="138.40828377324192">420000.0</text><title>420000.0</title></g><g class="guides"><path class="guide line" d="M0.000000 84.898816 h646.400000" /><text class="" x="-5" y="88.39881641779124">430000.0</text><title>430000.0</title></g><g class="guides"><path class="guide line" d="M0.000000 34.889349 h646.400000" /><text class="" x="-5" y="38.38934906234056">440000.0</text><title>440000.0</title></g></g><g class="axis x"><g class="guides"><path class="line" d="M12.430769 0.000000 v514.000000" /><text class="" x="12.43076923076923" y="529.0">Jan</text></g><g class="guides"><path class="guide line" d="M68.934266 0.000000 v514.000000" /><text class="" x="68.93426573426574" y="529.0">Feb</text></g><g class="guides"><path class="guide line" d="M125.437762 0.000000 v514.000000" /><text class="" x="125.43776223776223" y="529.0">Mar</text></g><g class="guides"><path class="guide line" d="M181.941259 0.000000 v514.000000" /><text class="" x="181.94125874125874" y="529.0">Apr</text></g><g class="guides"><path class="guide line" d="M238.444755 0.000000 v514.000000" /><text class="" x="238.44475524475524" y="529.0">May</text></g><g class="guides"><path class="guide line" d="M294.948252 0.000000 v514.000000" /><text class="" x="294.9482517482517" y="529.0">Jun</text></g><g class="guides"><path class="guide line" d="M351.451748 0.000000 v514.000000" /><text class="" x="351.4517482517482" y="529.0">Jul</text></g><g class="guides"><path class="guide line" d="M407.955245 0.000000 v514.000000" /><text class="" x="407.95524475524473" y="529.0">Aug</text></g><g class="guides"><path class="guide line" d="M464.458741 0.000000 v514.000000" /><text class="" x="464.45874125874127" y="529.0">Sep</text></g><g class="guides"><path class="guide line" d="M520.962238 0.000000 v514.000000" /><text class="" x="520.9622377622377" y="529.0">Oct</text></g><g class="guides"><path class="guide line" d="M577.465734 0.000000 v514.000000" /><text class="" x="577.4657342657342" y="529.0">Nov</text></g><g class="guides"><path class="guide line" d="M633.969231 0.000000 v514.000000" /><text class="" x="633.9692307692308" y="529.0">Dec</text></g></g><g class="series serie-0 color-0"><path class="line reactive" d="M12.430769 514.000000 L12.430769 264.932899 12.656783 266.041101 12.882797 267.149242 13.108811 268.257263 13.334825 269.365102 13.560839 270.472701 13.786853 271.579998 14.012867 272.686933 14.238881 273.793447 14.464895 274.899477 14.690909 276.004965 14.916923 277.109851 15.142937 278.214072 15.368951 279.317571 15.594965 280.420285 15.820979 281.522155 16.046993 282.623121 16.273007 283.723122 16.499021 284.822097 16.725035 285.919988 16.951049 287.016732 17.177063 288.112271 17.403077 289.206544 17.629091 290.299489 17.855105 291.391048 18.081119 292.481160 18.307133 293.569764 18.533147 294.656801 18.759161 295.742209 18.985175 296.825929 19.211189 297.907900 19.437203 298.988063 19.663217 300.066356 19.889231 301.142719 20.115245 302.217093 20.341259 303.289416 20.567273 304.359629 20.793287 305.427671 21.019301 306.493482 21.245315 307.557001 21.471329 308.618169 21.697343 309.676925 21.923357 310.733209 22.149371 311.786960 22.375385 312.838118 22.601399 313.886623 22.827413 314.932415 23.053427 315.975432 23.279441 317.015616 23.505455 318.052905 23.731469 319.087240 23.957483 320.118560 24.183497 321.146804 24.409510 322.171913 24.635524 323.193826 24.861538 324.212482 25.087552 325.227823 25.313566 326.239786 25.539580 327.248312 25.765594 328.253341 25.991608 329.254813 26.217622 330.252666 26.443636 331.246841 26.669650 332.237278 26.895664 333.223915 27.121678 334.206694 27.347692 335.185553 27.573706 336.160432 27.799720 337.131271 28.025734 338.098010 28.251748 339.060588 28.477762 340.018945 28.703776 340.973021 28.929790 341.922755 29.155804 342.868087 29.381818 343.808958 29.607832 344.745305 29.833846 345.677070 30.059860 346.604192 30.285874 347.526611 30.511888 348.444266 30.737902 349.357097 30.963916 350.265043 31.189930 351.168045 31.415944 352.066043 31.641958 352.958975 31.867972 353.846781 32.093986 354.729402 32.320000 355.606777 32.546014 356.478845 32.772028 357.345547 32.998042 358.206822 33.224056 359.062609 33.450070 359.912849 33.676084 360.757481 33.902098 361.596445 34.128112 362.429681 34.354126 363.257127 34.580140 364.078725 34.806154 364.894413 35.032168 365.704132 35.258182 366.507821 35.484196 367.305419 35.710210 368.096867 35.936224 368.882104 36.162238 369.661070 36.388252 370.433704 36.614266 371.199947 36.840280 371.959737 37.066294 372.713015 37.292308 373.459721 37.518322 374.199793 37.744336 374.933173 37.970350 375.659799 38.196364 376.379610 38.422378 377.092548 38.648392 377.798552 38.874406 378.497560 39.100420 379.189514 39.326434 379.874352 39.552448 380.552014 39.778462 381.222441 40.004476 381.885571 40.230490 382.541345 40.456503 383.189702 40.682517 383.830582 40.908531 384.463924 41.134545 385.089668 41.360559 385.707755 41.586573 386.318123 41.812587 386.920713 42.038601 387.515463 42.264615 388.102314 42.490629 388.681206 42.716643 389.252078 42.942657 389.814870 43.168671 390.369521 43.394685 390.915972 43.620699 391.454161 43.846713 391.984030 44.072727 392.505516 44.298741 393.018561 44.524755 393.523103 44.750769 394.019083 44.976783 394.506440 45.202797 394.985114 45.428811 395.455044 45.654825 395.916171 45.880839 396.368434 46.106853 396.811772 46.332867 397.246125 46.558881 397.671434 46.784895 398.087638 47.010909 398.494676 47.236923 398.892488 47.462937 399.281014 47.688951 399.660193 47.914965 400.029966 48.140979 400.390272 48.366993 400.741050 48.593007 401.082241 48.819021 401.413784 49.045035 401.735618 49.271049 402.047684 49.497063 402.349922 49.723077 402.642270 49.949091 402.924668 50.175105 403.197057 50.401119 403.459376 50.627133 403.711565 50.853147 403.953563 51.079161 404.185310 51.305175 404.406745 51.531189 404.617810 51.757203 404.818442 51.983217 405.008582 52.209231 405.188170 52.435245 405.357145 52.661259 405.515448 52.887273 405.663016 53.113287 405.799791 53.339301 405.925713 53.565315 406.040720 53.791329 406.144752 54.017343 406.237750 54.243357 406.319652 54.469371 406.390399 54.695385 406.449931 54.921399 406.498186 55.147413 406.535105 55.373427 406.560628 55.599441 406.574693 55.825455 406.577241 56.051469 406.568212 56.277483 406.547545 56.503497 406.515180 56.729510 406.471056 56.955524 406.415114 57.181538 406.347292 57.407552 406.267532 57.633566 406.175771 57.859580 406.071951 58.085594 405.956011 58.311608 405.827890 58.537622 405.687528 58.763636 405.534865 58.989650 405.369841 59.215664 405.192395 59.441678 405.002467 59.667692 404.799996 59.893706 404.584923 60.119720 404.357187 60.345734 404.116728 60.571748 403.863486 60.797762 403.597399 61.023776 403.318409 61.249790 403.026454 61.475804 402.721474 61.701818 402.403409 61.927832 402.072199 62.153846 401.727784 62.379860 401.370102 62.605874 400.999095 62.831888 400.614700 63.057902 400.216859 63.283916 399.805511 63.509930 399.380596 63.735944 398.942052 63.961958 398.489821 64.187972 398.023841 64.413986 397.544053 64.640000 397.050396 64.866014 396.542810 65.092028 396.021234 65.318042 395.485608 65.544056 394.935873 65.770070 394.371967 65.996084 393.793830 66.222098 393.201402 66.448112 392.594623 66.674126 391.973432 66.900140 391.337769 67.126154 390.687575 67.352168 390.022787 67.578182 389.343347 67.804196 388.649194 68.030210 387.940267 68.256224 387.216507 68.482238 386.477852 68.708252 385.724244 68.934266 384.955621 69.160280 384.171958 69.386294 383.373374 69.612308 382.560023 69.838322 381.732058 70.064336 380.889632 70.290350 380.032899 70.516364 379.162014 70.742378 378.277128 70.968392 377.378397 71.194406 376.465974 71.420420 375.540012 71.646434 374.600666 71.872448 373.648087 72.098462 372.682432 72.324476 371.703852 72.550490 370.712501 72.776503 369.708534 73.002517 368.692104 73.228531 367.663364 73.454545 366.622468 73.680559 365.569570 73.906573 364.504823 74.132587 363.428381 74.358601 362.340398 74.584615 361.241027 74.810629 360.130422 75.036643 359.008736 75.262657 357.876123 75.488671 356.732737 75.714685 355.578732 75.940699 354.414260 76.166713 353.239476 76.392727 352.054534 76.618741 350.859586 76.844755 349.654787 77.070769 348.440290 77.296783 347.216249 77.522797 345.982817 77.748811 344.740148 77.974825 343.488396 78.200839 342.227714 78.426853 340.958256 78.652867 339.680176 78.878881 338.393626 79.104895 337.098762 79.330909 335.795736 79.556923 334.484702 79.782937 333.165814 80.008951 331.839226 80.234965 330.505090 80.460979 329.163561 80.686993 327.814792 80.913007 326.458937 81.139021 325.096149 81.365035 323.726582 81.591049 322.350391 81.817063 320.967727 82.043077 319.578746 82.269091 318.183600 82.495105 316.782444 82.721119 315.375430 82.947133 313.962713 83.173147 312.544446 83.399161 311.120783 83.625175 309.691878 83.851189 308.257883 84.077203 306.818953 84.303217 305.375242 84.529231 303.926902 84.755245 302.474088 84.981259 301.016953 85.207273 299.555651 85.433287 298.090335 85.659301 296.621160 85.885315 295.148278 86.111329 293.671844 86.337343 292.192010 86.563357 290.708931 86.789371 289.222761 87.015385 287.733652 87.241399 286.241759 87.467413 284.747235 87.693427 283.250233 87.919441 281.750908 88.145455 280.249413 88.371469 278.745902 88.597483 277.240528 88.823497 275.733445 89.049510 274.224806 89.275524 272.714766 89.501538 271.203477 89.727552 269.691094 89.953566 268.177770 90.179580 266.663659 90.405594 265.148913 90.631608 263.633688 90.857622 262.118137 91.083636 260.602412 91.309650 259.086669 91.535664 257.571060 91.761678 256.055739 91.987692 254.540860 92.213706 253.026576 92.439720 251.513041 92.665734 250.000409 92.891748 248.488833 93.117762 246.978466 93.343776 245.469464 93.569790 243.961978 93.795804 242.456164 94.021818 240.952173 94.247832 239.450161 94.473846 237.950280 94.699860 236.452685 94.925874 234.957529 95.151888 233.464965 95.377902 231.975147 95.603916 230.488229 95.829930 229.004365 96.055944 227.523707 96.281958 226.046411 96.507972 224.572628 96.733986 223.102514 96.960000 221.636221 97.186014 220.173904 97.412028 218.715715 97.638042 217.261809 97.864056 215.812338 98.090070 214.367458 98.316084 212.927321 98.542098 211.492081 98.768112 210.061892 98.994126 208.636906 99.220140 207.217279 99.446154 205.803163 99.672168 204.394713 99.898182 202.992081 100.124196 201.595421 100.350210 200.204888 100.576224 198.820634 100.802238 197.442814 101.028252 196.071580 101.254266 194.707088 101.480280 193.349489 101.706294 191.998938 101.932308 190.655588 102.158322 189.319594 102.384336 187.991108 102.610350 186.670285 102.836364 185.357278 103.062378 184.052240 103.288392 182.755325 103.514406 181.466688 103.740420 180.186480 103.966434 178.914857 104.192448 177.651972 104.418462 176.397978 104.644476 175.153029 104.870490 173.917279 105.096503 172.690881 105.322517 171.473988 105.548531 170.266756 105.774545 169.069336 106.000559 167.881884 106.226573 166.704551 106.452587 165.537493 106.678601 164.380863 106.904615 163.234813 107.130629 162.099499 107.356643 160.975073 107.582657 159.861690 107.808671 158.759502 108.034685 157.668664 108.260699 156.589329 108.486713 155.521650 108.712727 154.465782 108.938741 153.421878 109.164755 152.390092 109.390769 151.370576 109.616783 150.363486 109.842797 149.368974 110.068811 148.387194 110.294825 147.418300 110.520839 146.462445 110.746853 145.519784 110.972867 144.590469 111.198881 143.674654 111.424895 142.772493 111.650909 141.884140 111.876923 141.009748 112.102937 140.149471 112.328951 139.303462 112.554965 138.471875 112.780979 137.654864 113.006993 136.852582 113.233007 136.065183 113.459021 135.292821 113.685035 134.535649 113.911049 133.793821 114.137063 133.067490 114.363077 132.356810 114.589091 131.661935 114.815105 130.983019 115.041119 130.320214 115.267133 129.673675 115.493147 129.043555 115.719161 128.430008 115.945175 127.833188 116.171189 127.253248 116.397203 126.690341 116.623217 126.144622 116.849231 125.616244 117.075245 125.105361 117.301259 124.612126 117.527273 124.136693 117.753287 123.679215 117.979301 123.239847 118.205315 122.818741 118.431329 122.416052 118.657343 122.031933 118.883357 121.666537 119.109371 121.320019 119.335385 120.992532 119.561399 120.684229 119.787413 120.395265 120.013427 120.125792 120.239441 119.875965 120.465455 119.645937 120.691469 119.435862 120.917483 119.245893 121.143497 119.076184 121.369510 118.926889 121.595524 118.798161 121.821538 118.690154 122.047552 118.603022 122.273566 118.536917 122.499580 118.491995 122.725594 118.468407 122.951608 118.466309 123.177622 118.485854 123.403636 118.527194 123.629650 118.590485 123.855664 118.675879 124.081678 118.783531 124.307692 118.913593 124.533706 119.066220 124.759720 119.241565 124.985734 119.439781 125.211748 119.661023 125.437762 119.905444 125.663776 120.173144 125.889790 120.464010 126.115804 120.777876 126.341818 121.114576 126.567832 121.473944 126.793846 121.855812 127.019860 122.260015 127.245874 122.686387 127.471888 123.134761 127.697902 123.604970 127.923916 124.096849 128.149930 124.610232 128.375944 125.144951 128.601958 125.700841 128.827972 126.277735 129.053986 126.875467 129.280000 127.493871 129.506014 128.132780 129.732028 128.792028 129.958042 129.471449 130.184056 130.170877 130.410070 130.890145 130.636084 131.629086 130.862098 132.387535 131.088112 133.165325 131.314126 133.962291 131.540140 134.778264 131.766154 135.613081 131.992168 136.466573 132.218182 137.338575 132.444196 138.228920 132.670210 139.137442 132.896224 140.063975 133.122238 141.008353 133.348252 141.970408 133.574266 142.949976 133.800280 143.946889 134.026294 144.960981 134.252308 145.992087 134.478322 147.040038 134.704336 148.104671 134.930350 149.185817 135.156364 150.283311 135.382378 151.396986 135.608392 152.526677 135.834406 153.672216 136.060420 154.833438 136.286434 156.010175 136.512448 157.202263 136.738462 158.409535 136.964476 159.631823 137.190490 160.868963 137.416503 162.120787 137.642517 163.387129 137.868531 164.667824 138.094545 165.962704 138.320559 167.271603 138.546573 168.594356 138.772587 169.930796 138.998601 171.280756 139.224615 172.644070 139.450629 174.020572 139.676643 175.410096 139.902657 176.812475 140.128671 178.227542 140.354685 179.655133 140.580699 181.095080 140.806713 182.547217 141.032727 184.011377 141.258741 185.487395 141.484755 186.975104 141.710769 188.474338 141.936783 189.984931 142.162797 191.506715 142.388811 193.039526 142.614825 194.583196 142.840839 196.137560 143.066853 197.702450 143.292867 199.277701 143.518881 200.863146 143.744895 202.458620 143.970909 204.063955 144.196923 205.678985 144.422937 207.303545 144.648951 208.937468 144.874965 210.580587 145.100979 212.232736 145.326993 213.893749 145.553007 215.563460 145.779021 217.241702 146.005035 218.928309 146.231049 220.623114 146.457063 222.325953 146.683077 224.036657 146.909091 225.755060 147.135105 227.480998 147.361119 229.214302 147.587133 230.954807 147.813147 232.702347 148.039161 234.456755 148.265175 236.217865 148.491189 237.985510 148.717203 239.759525 148.943217 241.539743 149.169231 243.325997 149.395245 245.118122 149.621259 246.915951 149.847273 248.719318 150.073287 250.528056 150.299301 252.341999 150.525315 254.160981 150.751329 255.984836 150.977343 257.813397 151.203357 259.646498 151.429371 261.483972 151.655385 263.325654 151.881399 265.171376 152.107413 267.020974 152.333427 268.874279 152.559441 270.731127 152.785455 272.591351 153.011469 274.454784 153.237483 276.321260 153.463497 278.190613 153.689510 280.062677 153.915524 281.937285 154.141538 283.814271 154.367552 285.693468 154.593566 287.574711 154.819580 289.457832 155.045594 291.342667 155.271608 293.229048 155.497622 295.116809 155.723636 297.005783 155.949650 298.895806 156.175664 300.786709 156.401678 302.678327 156.627692 304.570494 156.853706 306.463043 157.079720 308.355808 157.305734 310.248622 157.531748 312.141320 157.757762 314.033735 157.983776 315.925701 158.209790 317.817051 158.435804 319.707619 158.661818 321.597239 158.887832 323.485745 159.113846 325.372969 159.339860 327.258747 159.565874 329.142911 159.791888 331.025295 160.017902 332.905733 160.243916 334.784059 160.469930 336.660106 160.695944 338.533709 160.921958 340.404700 161.147972 342.272913 161.373986 344.138183 161.600000 346.000342 161.826014 347.859225 162.052028 349.714665 162.278042 351.566496 162.504056 353.414551 162.730070 355.258665 162.956084 357.098671 163.182098 358.934402 163.408112 360.765693 163.634126 362.592376 163.860140 364.414287 164.086154 366.231258 164.312168 368.043123 164.538182 369.849716 164.764196 371.650870 164.990210 373.446420 165.216224 375.236198 165.442238 377.020039 165.668252 378.797776 165.894266 380.569244 166.120280 382.334275 166.346294 384.092703 166.572308 385.844362 166.798322 387.589086 167.024336 389.326709 167.250350 391.057064 167.476364 392.779984 167.702378 394.495304 167.928392 396.202857 168.154406 397.902477 168.380420 399.593998 168.606434 401.277253 168.832448 402.952076 169.058462 404.618301 169.284476 406.275761 169.510490 407.924290 169.736503 409.563722 169.962517 411.193890 170.188531 412.814629 170.414545 414.425771 170.640559 416.027151 170.866573 417.618602 171.092587 419.199958 171.318601 420.771052 171.544615 422.331719 171.770629 423.881792 171.996643 425.421105 172.222657 426.949490 172.448671 428.466783 172.674685 429.972817 172.900699 431.467425 173.126713 432.950442 173.352727 434.421700 173.578741 435.881034 173.804755 437.328277 174.030769 438.763263 174.256783 440.185825 174.482797 441.595798 174.708811 442.993015 174.934825 444.377309 175.160839 445.748515 175.386853 447.106466 175.612867 448.450996 175.838881 449.781939 176.064895 451.099127 176.290909 452.402395 176.516923 453.691577 176.742937 454.966506 176.968951 456.227016 177.194965 457.472941 177.420979 458.704114 177.646993 459.920369 177.873007 461.121540 178.099021 462.307460 178.325035 463.477963 178.551049 464.632883 178.777063 465.772053 179.003077 466.895308 179.229091 468.002480 179.455105 469.093405 179.681119 470.167914 179.907133 471.225842 180.133147 472.267023 180.359161 473.291290 180.585175 474.298478 180.811189 475.288419 181.037203 476.260947 181.263217 477.215896 181.489231 478.153101 181.715245 479.072394 181.941259 479.973609 182.167273 480.856623 182.393287 481.721488 182.619301 482.568299 182.845315 483.397150 183.071329 484.208137 183.297343 485.001354 183.523357 485.776896 183.749371 486.534858 183.975385 487.275335 184.201399 487.998422 184.427413 488.704213 184.653427 489.392804 184.879441 490.064290 185.105455 490.718765 185.331469 491.356324 185.557483 491.977062 185.783497 492.581074 186.009510 493.168454 186.235524 493.739299 186.461538 494.293702 186.687552 494.831758 186.913566 495.353563 187.139580 495.859211 187.365594 496.348797 187.591608 496.822416 187.817622 497.280163 188.043636 497.722133 188.269650 498.148420 188.495664 498.559120 188.721678 498.954327 188.947692 499.334136 189.173706 499.698642 189.399720 500.047941 189.625734 500.382126 189.851748 500.701293 190.077762 501.005537 190.303776 501.294952 190.529790 501.569633 190.755804 501.829676 190.981818 502.075175 191.207832 502.306225 191.433846 502.522921 191.659860 502.725358 191.885874 502.913630 192.111888 503.087833 192.337902 503.248061 192.563916 503.394410 192.789930 503.526973 193.015944 503.645847 193.241958 503.751126 193.467972 503.842904 193.693986 503.921278 193.920000 503.986340 194.146014 504.038187 194.372028 504.076914 194.598042 504.102615 194.824056 504.115385 195.050070 504.115318 195.276084 504.102511 195.502098 504.077057 195.728112 504.039052 195.954126 503.988591 196.180140 503.925767 196.406154 503.850677 196.632168 503.763416 196.858182 503.664077 197.084196 503.552756 197.310210 503.429547 197.536224 503.294547 197.762238 503.147848 197.988252 502.989548 198.214266 502.819739 198.440280 502.638518 198.666294 502.445978 198.892308 502.242216 199.118322 502.027325 199.344336 501.801401 199.570350 501.564539 199.796364 501.316832 200.022378 501.058378 200.248392 500.789269 200.474406 500.509601 200.700420 500.219470 200.926434 499.918969 201.152448 499.608194 201.378462 499.287239 201.604476 498.956200 201.830490 498.615171 202.056503 498.264247 202.282517 497.903523 202.508531 497.533095 202.734545 497.153056 202.960559 496.763502 203.186573 496.364527 203.412587 495.956227 203.638601 495.538696 203.864615 495.112030 204.090629 494.676323 204.316643 494.231669 204.542657 493.778165 204.768671 493.315904 204.994685 492.844982 205.220699 492.365493 205.446713 491.877533 205.672727 491.381195 205.898741 490.876577 206.124755 490.363771 206.350769 489.842873 206.576783 489.313977 206.802797 488.777180 207.028811 488.232575 207.254825 487.680257 207.480839 487.120321 207.706853 486.552863 207.932867 485.977977 208.158881 485.395758 208.384895 484.806300 208.610909 484.209699 208.836923 483.606050 209.062937 482.995447 209.288951 482.377986 209.514965 481.753760 209.740979 481.122866 209.966993 480.485398 210.193007 479.841450 210.419021 479.191119 210.645035 478.534497 210.871049 477.871682 211.097063 477.202766 211.323077 476.527846 211.549091 475.847016 211.775105 475.160371 212.001119 474.468006 212.227133 473.770015 212.453147 473.066494 212.679161 472.357538 212.905175 471.643241 213.131189 470.923698 213.357203 470.199004 213.583217 469.469254 213.809231 468.734544 214.035245 467.994967 214.261259 467.250618 214.487273 466.501593 214.713287 465.747987 214.939301 464.989894 215.165315 464.227409 215.391329 463.460627 215.617343 462.689643 215.843357 461.914551 216.069371 461.135448 216.295385 460.352427 216.521399 459.565583 216.747413 458.775012 216.973427 457.980807 217.199441 457.183065 217.425455 456.381880 217.651469 455.577347 217.877483 454.769560 218.103497 453.958615 218.329510 453.144607 218.555524 452.327629 218.781538 451.507778 219.007552 450.685148 219.233566 449.859834 219.459580 449.031931 219.685594 448.201534 219.911608 447.368737 220.137622 446.533635 220.363636 445.696325 220.589650 444.856899 220.815664 444.015453 221.041678 443.172083 221.267692 442.326882 221.493706 441.479946 221.719720 440.631370 221.945734 439.781248 222.171748 438.929675 222.397762 438.076747 222.623776 437.222558 222.849790 436.367203 223.075804 435.510777 223.301818 434.653375 223.527832 433.795091 223.753846 432.936021 223.979860 432.076259 224.205874 431.215901 224.431888 430.355041 224.657902 429.493774 224.883916 428.632194 225.109930 427.770398 225.335944 426.908479 225.561958 426.046533 225.787972 425.184655 226.013986 424.322938 226.240000 423.461479 226.466014 422.600372 226.692028 421.739712 226.918042 420.879594 227.144056 420.020112 227.370070 419.161362 227.596084 418.303439 227.822098 417.446437 228.048112 416.590451 228.274126 415.735576 228.500140 414.881908 228.726154 414.029540 228.952168 413.178568 229.178182 412.329086 229.404196 411.481190 229.630210 410.634975 229.856224 409.790534 230.082238 408.947964 230.308252 408.107359 230.534266 407.268814 230.760280 406.432423 230.986294 405.598282 231.212308 404.766486 231.438322 403.937129 231.664336 403.110307 231.890350 402.286113 232.116364 401.464644 232.342378 400.645993 232.568392 399.830257 232.794406 399.017529 233.020420 398.207904 233.246434 397.401479 233.472448 396.598346 233.698462 395.798602 233.924476 395.002340 234.150490 394.209657 234.376503 393.420646 234.602517 392.635404 234.828531 391.854023 235.054545 391.076601 235.280559 390.303230 235.506573 389.534007 235.732587 388.769026 235.958601 388.008382 236.184615 387.252170 236.410629 386.500484 236.636643 385.753421 236.862657 385.011073 237.088671 384.273537 237.314685 383.540908 237.540699 382.813279 237.766713 382.090747 237.992727 381.373405 238.218741 380.661349 238.444755 379.954674 238.670769 379.253454 238.896783 378.557685 239.122797 377.867341 239.348811 377.182398 239.574825 376.502831 239.800839 375.828613 240.026853 375.159722 240.252867 374.496130 240.478881 373.837815 240.704895 373.184749 240.930909 372.536909 241.156923 371.894270 241.382937 371.256805 241.608951 370.624491 241.834965 369.997303 242.060979 369.375215 242.286993 368.758202 242.513007 368.146240 242.739021 367.539302 242.965035 366.937366 243.191049 366.340404 243.417063 365.748393 243.643077 365.161307 243.869091 364.579121 244.095105 364.001811 244.321119 363.429350 244.547133 362.861715 244.773147 362.298880 244.999161 361.740821 245.225175 361.187511 245.451189 360.638927 245.677203 360.095043 245.903217 359.555834 246.129231 359.021275 246.355245 358.491341 246.581259 357.966008 246.807273 357.445249 247.033287 356.929041 247.259301 356.417357 247.485315 355.910174 247.711329 355.407466 247.937343 354.909208 248.163357 354.415375 248.389371 353.925941 248.615385 353.440883 248.841399 352.960175 249.067413 352.483792 249.293427 352.011709 249.519441 351.543901 249.745455 351.080342 249.971469 350.621009 250.197483 350.165876 250.423497 349.714917 250.649510 349.268108 250.875524 348.825425 251.101538 348.386841 251.327552 347.952332 251.553566 347.521873 251.779580 347.095438 252.005594 346.673004 252.231608 346.254544 252.457622 345.840034 252.683636 345.429449 252.909650 345.022764 253.135664 344.619953 253.361678 344.220993 253.587692 343.825857 253.813706 343.434520 254.039720 343.046959 254.265734 342.663147 254.491748 342.283060 254.717762 341.906672 254.943776 341.533959 255.169790 341.164896 255.395804 340.799458 255.621818 340.437619 255.847832 340.079354 256.073846 339.724640 256.299860 339.373450 256.525874 339.025759 256.751888 338.681543 256.977902 338.340777 257.203916 338.003435 257.429930 337.669493 257.655944 337.338925 257.881958 337.011707 258.107972 336.687813 258.333986 336.367219 258.560000 336.049899 258.786014 335.735829 259.012028 335.424983 259.238042 335.117337 259.464056 334.812865 259.690070 334.511542 259.916084 334.213344 260.142098 333.918246 260.368112 333.626221 260.594126 333.337246 260.820140 333.051296 261.046154 332.768344 261.272168 332.488368 261.498182 332.211340 261.724196 331.937237 261.950210 331.666033 262.176224 331.397703 262.402238 331.132223 262.628252 330.869566 262.854266 330.609710 263.080280 330.352627 263.306294 330.098293 263.532308 329.846684 263.758322 329.597774 263.984336 329.351538 264.210350 329.107952 264.436364 328.866989 264.662378 328.628626 264.888392 328.392837 265.114406 328.159597 265.340420 327.928881 265.566434 327.700664 265.792448 327.474921 266.018462 327.251628 266.244476 327.030758 266.470490 326.812288 266.696503 326.596191 266.922517 326.382444 267.148531 326.171021 267.374545 325.961896 267.600559 325.755046 267.826573 325.550445 268.052587 325.348067 268.278601 325.147889 268.504615 324.949884 268.730629 324.754029 268.956643 324.560297 269.182657 324.368665 269.408671 324.179106 269.634685 323.991596 269.860699 323.806110 270.086713 323.622623 270.312727 323.441110 270.538741 323.261545 270.764755 323.083905 270.990769 322.908163 271.216783 322.734295 271.442797 322.562276 271.668811 322.392080 271.894825 322.223684 272.120839 322.057061 272.346853 321.892187 272.572867 321.729037 272.798881 321.567585 273.024895 321.407807 273.250909 321.249678 273.476923 321.093172 273.702937 320.938266 273.928951 320.784932 274.154965 320.633148 274.380979 320.482887 274.606993 320.334125 274.833007 320.186836 275.059021 320.040996 275.285035 319.896580 275.511049 319.753562 275.737063 319.611918 275.963077 319.471622 276.189091 319.332650 276.415105 319.194976 276.641119 319.058576 276.867133 318.923425 277.093147 318.789497 277.319161 318.656767 277.545175 318.525211 277.771189 318.394803 277.997203 318.265519 278.223217 318.137333 278.449231 318.010221 278.675245 317.884157 278.901259 317.759117 279.127273 317.635074 279.353287 317.512006 279.579301 317.389885 279.805315 317.268688 280.031329 317.148390 280.257343 317.028964 280.483357 316.910387 280.709371 316.792634 280.935385 316.675678 281.161399 316.559496 281.387413 316.444062 281.613427 316.329352 281.839441 316.215339 282.065455 316.102000 282.291469 315.989309 282.517483 315.877242 282.743497 315.765772 282.969510 315.654876 283.195524 315.544528 283.421538 315.434703 283.647552 315.325376 283.873566 315.216523 284.099580 315.108117 284.325594 315.000135 284.551608 314.892551 284.777622 314.785339 285.003636 314.678476 285.229650 314.571936 285.455664 314.465694 285.681678 314.359725 285.907692 314.254004 286.133706 314.148507 286.359720 314.043207 286.585734 313.938080 286.811748 313.833101 287.037762 313.728245 287.263776 313.623487 287.489790 313.518802 287.715804 313.414165 287.941818 313.309551 288.167832 313.204935 288.393846 313.100291 288.619860 312.995596 288.845874 312.890824 289.071888 312.785949 289.297902 312.680947 289.523916 312.575793 289.749930 312.470462 289.975944 312.364929 290.201958 312.259168 290.427972 312.153155 290.653986 312.046865 290.880000 311.940273 291.106014 311.833354 291.332028 311.726082 291.558042 311.618433 291.784056 311.510382 292.010070 311.401904 292.236084 311.292973 292.462098 311.183565 292.688112 311.073654 292.914126 310.963216 293.140140 310.852226 293.366154 310.740659 293.592168 310.628489 293.818182 310.515692 294.044196 310.402242 294.270210 310.288115 294.496224 310.173286 294.722238 310.057729 294.948252 309.941420 295.174266 309.824337 295.400280 309.706481 295.626294 309.587854 295.852308 309.468459 296.078322 309.348300 296.304336 309.227379 296.530350 309.105700 296.756364 308.983267 296.982378 308.860082 297.208392 308.736149 297.434406 308.611471 297.660420 308.486052 297.886434 308.359894 298.112448 308.233000 298.338462 308.105375 298.564476 307.977021 298.790490 307.847941 299.016503 307.718140 299.242517 307.587619 299.468531 307.456382 299.694545 307.324433 299.920559 307.191775 300.146573 307.058411 300.372587 306.924344 300.598601 306.789578 300.824615 306.654115 301.050629 306.517960 301.276643 306.381114 301.502657 306.243582 301.728671 306.105367 301.954685 305.966472 302.180699 305.826901 302.406713 305.686655 302.632727 305.545740 302.858741 305.404157 303.084755 305.261911 303.310769 305.119004 303.536783 304.975440 303.762797 304.831222 303.988811 304.686353 304.214825 304.540837 304.440839 304.394677 304.666853 304.247875 304.892867 304.100436 305.118881 303.952362 305.344895 303.803657 305.570909 303.654324 305.796923 303.504366 306.022937 303.353787 306.248951 303.202589 306.474965 303.050776 306.700979 302.898352 306.926993 302.745319 307.153007 302.591681 307.379021 302.437441 307.605035 302.282602 307.831049 302.127167 308.057063 301.971140 308.283077 301.814525 308.509091 301.657323 308.735105 301.499539 308.961119 301.341176 309.187133 301.182236 309.413147 301.022724 309.639161 300.862642 309.865175 300.701994 310.091189 300.540783 310.317203 300.379012 310.543217 300.216685 310.769231 300.053804 310.995245 299.890374 311.221259 299.726396 311.447273 299.561875 311.673287 299.396814 311.899301 299.231215 312.125315 299.065083 312.351329 298.898421 312.577343 298.731231 312.803357 298.563517 313.029371 298.395282 313.255385 298.226529 313.481399 298.057263 313.707413 297.887485 313.933427 297.717199 314.159441 297.546409 314.385455 297.375118 314.611469 297.203328 314.837483 297.031044 315.063497 296.858268 315.289510 296.685004 315.515524 296.511255 315.741538 296.337024 315.967552 296.162314 316.193566 295.987129 316.419580 295.811472 316.645594 295.635347 316.871608 295.458755 317.097622 295.281702 317.323636 295.104189 317.549650 294.926220 317.775664 294.747799 318.001678 294.568929 318.227692 294.389612 318.453706 294.209853 318.679720 294.029654 318.905734 293.849018 319.131748 293.667950 319.357762 293.486452 319.583776 293.304527 319.809790 293.122179 320.035804 292.939411 320.261818 292.756225 320.487832 292.572627 320.713846 292.388618 320.939860 292.204202 321.165874 292.019382 321.391888 291.834161 321.617902 291.648543 321.843916 291.462532 322.069930 291.276129 322.295944 291.089338 322.521958 290.902164 322.747972 290.714608 322.973986 290.526674 323.200000 290.338366 323.426014 290.149686 323.652028 289.960638 323.878042 289.771226 324.104056 289.581451 324.330070 289.391319 324.556084 289.200831 324.782098 289.009992 325.008112 288.818803 325.234126 288.627270 325.460140 288.435394 325.686154 288.243180 325.912168 288.050629 326.138182 287.857747 326.364196 287.664535 326.590210 287.470998 326.816224 287.277138 327.042238 287.082958 327.268252 286.888463 327.494266 286.693654 327.720280 286.498536 327.946294 286.303111 328.172308 286.107384 328.398322 285.911356 328.624336 285.715032 328.850350 285.518415 329.076364 285.321507 329.302378 285.124312 329.528392 284.926834 329.754406 284.729076 329.980420 284.531040 330.206434 284.332730 330.432448 284.134150 330.658462 283.935303 330.884476 283.736191 331.110490 283.536818 331.336503 283.337188 331.562517 283.137303 331.788531 282.937167 332.014545 282.736783 332.240559 282.536155 332.466573 282.335285 332.692587 282.134177 332.918601 281.932834 333.144615 281.731260 333.370629 281.529457 333.596643 281.327429 333.822657 281.125179 334.048671 280.922710 334.274685 280.720026 334.500699 280.517130 334.726713 280.314025 334.952727 280.110714 335.178741 279.907201 335.404755 279.703488 335.630769 279.499580 335.856783 279.295479 336.082797 279.091188 336.308811 278.886712 336.534825 278.682052 336.760839 278.477213 336.986853 278.272198 337.212867 278.067009 337.438881 277.861650 337.664895 277.656125 337.890909 277.450436 338.116923 277.244587 338.342937 277.038581 338.568951 276.832421 338.794965 276.626111 339.020979 276.419654 339.246993 276.213053 339.473007 276.006311 339.699021 275.799432 339.925035 275.592418 340.151049 275.385274 340.377063 275.178002 340.603077 274.970605 340.829091 274.763087 341.055105 274.555452 341.281119 274.347701 341.507133 274.139839 341.733147 273.931869 341.959161 273.723794 342.185175 273.515617 342.411189 273.307342 342.637203 273.098972 342.863217 272.890510 343.089231 272.681958 343.315245 272.473322 343.541259 272.264603 343.767273 272.055806 343.993287 271.846932 344.219301 271.637986 344.445315 271.428971 344.671329 271.219890 344.897343 271.010746 345.123357 270.801543 345.349371 270.592284 345.575385 270.382971 345.801399 270.173609 346.027413 269.964201 346.253427 269.754749 346.479441 269.545257 346.705455 269.335728 346.931469 269.126166 347.157483 268.916574 347.383497 268.706955 347.609510 268.497312 347.835524 268.287649 348.061538 268.077968 348.287552 267.868273 348.513566 267.658568 348.739580 267.448855 348.965594 267.239138 349.191608 267.029420 349.417622 266.819704 349.643636 266.609994 349.869650 266.400292 350.095664 266.190602 350.321678 265.980928 350.547692 265.771272 350.773706 265.561638 350.999720 265.352029 351.225734 265.142448 351.451748 264.932899 351.677762 264.723386 351.903776 264.513919 352.129790 264.304512 352.355804 264.095175 352.581818 263.885921 352.807832 263.676762 353.033846 263.467710 353.259860 263.258776 353.485874 263.049974 353.711888 262.841314 353.937902 262.632809 354.163916 262.424472 354.389930 262.216313 354.615944 262.008345 354.841958 261.800580 355.067972 261.593030 355.293986 261.385707 355.520000 261.178623 355.746014 260.971790 355.972028 260.765221 356.198042 260.558926 356.424056 260.352918 356.650070 260.147210 356.876084 259.941813 357.102098 259.736738 357.328112 259.531999 357.554126 259.327608 357.780140 259.123575 358.006154 258.919914 358.232168 258.716635 358.458182 258.513752 358.684196 258.311277 358.910210 258.109220 359.136224 257.907595 359.362238 257.706413 359.588252 257.505687 359.814266 257.305428 360.040280 257.105648 360.266294 256.906360 360.492308 256.707575 360.718322 256.509305 360.944336 256.311563 361.170350 256.114361 361.396364 255.917709 361.622378 255.721622 361.848392 255.526109 362.074406 255.331185 362.300420 255.136860 362.526434 254.943146 362.752448 254.750056 362.978462 254.557601 363.204476 254.365794 363.430490 254.174647 363.656503 253.984172 363.882517 253.794380 364.108531 253.605283 364.334545 253.416895 364.560559 253.229226 364.786573 253.042289 365.012587 252.856095 365.238601 252.670657 365.464615 252.485987 365.690629 252.302097 365.916643 252.118999 366.142657 251.936704 366.368671 251.755225 366.594685 251.574575 366.820699 251.394764 367.046713 251.215804 367.272727 251.037709 367.498741 250.860490 367.724755 250.684158 367.950769 250.508727 368.176783 250.334208 368.402797 250.160612 368.628811 249.987953 368.854825 249.816241 369.080839 249.645490 369.306853 249.475710 369.532867 249.306915 369.758881 249.139116 369.984895 248.972324 370.210909 248.806553 370.436923 248.641815 370.662937 248.478120 370.888951 248.315481 371.114965 248.153911 371.340979 247.993421 371.566993 247.834023 371.793007 247.675729 372.019021 247.518551 372.245035 247.362502 372.471049 247.207593 372.697063 247.053837 372.923077 246.901244 373.149091 246.749828 373.375105 246.599601 373.601119 246.450573 373.827133 246.302758 374.053147 246.156168 374.279161 246.010814 374.505175 245.866708 374.731189 245.723863 374.957203 245.582290 375.183217 245.442002 375.409231 245.303010 375.635245 245.165327 375.861259 245.028964 376.087273 244.893934 376.313287 244.760249 376.539301 244.627920 376.765315 244.496959 376.991329 244.367380 377.217343 244.239192 377.443357 244.112410 377.669371 243.987044 377.895385 243.863107 378.121399 243.740611 378.347413 243.619567 378.573427 243.499988 378.799441 243.381886 379.025455 243.265272 379.251469 243.150159 379.477483 243.036560 379.703497 242.924485 379.929510 242.813946 380.155524 242.704957 380.381538 242.597528 380.607552 242.491673 380.833566 242.387402 381.059580 242.284728 381.285594 242.183663 381.511608 242.084220 381.737622 241.986409 381.963636 241.890243 382.189650 241.795734 382.415664 241.702894 382.641678 241.611735 382.867692 241.522269 383.093706 241.434508 383.319720 241.348465 383.545734 241.264150 383.771748 241.181576 383.997762 241.100756 384.223776 241.021701 384.449790 240.944423 384.675804 240.868934 384.901818 240.795246 385.127832 240.723372 385.353846 240.653323 385.579860 240.585111 385.805874 240.518748 386.031888 240.454247 386.257902 240.391619 386.483916 240.330876 386.709930 240.272031 386.935944 240.215095 387.161958 240.160080 387.387972 240.106999 387.613986 240.055863 387.840000 240.006684 388.066014 239.959475 388.292028 239.914248 388.518042 239.871013 388.744056 239.829785 388.970070 239.790574 389.196084 239.753392 389.422098 239.718252 389.648112 239.685165 389.874126 239.654144 390.100140 239.625201 390.326154 239.598347 390.552168 239.573595 390.778182 239.550957 391.004196 239.530444 391.230210 239.512069 391.456224 239.495843 391.682238 239.481779 391.908252 239.469889 392.134266 239.460185 392.360280 239.452678 392.586294 239.447381 392.812308 239.444306 393.038322 239.443465 393.264336 239.444870 393.490350 239.448532 393.716364 239.454464 393.942378 239.462679 394.168392 239.473187 394.394406 239.486001 394.620420 239.501132 394.846434 239.518594 395.072448 239.538398 395.298462 239.560556 395.524476 239.585079 395.750490 239.611981 395.976503 239.641273 396.202517 239.672967 396.428531 239.707074 396.654545 239.743608 396.880559 239.782580 397.106573 239.824002 397.332587 239.867887 397.558601 239.914245 397.784615 239.963089 398.010629 240.014432 398.236643 240.068285 398.462657 240.124660 398.688671 240.183569 398.914685 240.245025 399.140699 240.309039 399.366713 240.375623 399.592727 240.444789 399.818741 240.516550 400.044755 240.590916 400.270769 240.667902 400.496783 240.747517 400.722797 240.829775 400.948811 240.914688 401.174825 241.002267 401.400839 241.092524 401.626853 241.185472 401.852867 241.281122 402.078881 241.379486 402.304895 241.480577 402.530909 241.584407 402.756923 241.690987 402.982937 241.800330 403.208951 241.912447 403.434965 242.027351 403.660979 242.145053 403.886993 242.265566 404.113007 242.388902 404.339021 242.515072 404.565035 242.644089 404.791049 242.775964 405.017063 242.910711 405.243077 243.048339 405.469091 243.188863 405.695105 243.332294 405.921119 243.478643 406.147133 243.627923 406.373147 243.780145 406.599161 243.935323 406.825175 244.093467 407.051189 244.254590 407.277203 244.418705 407.503217 244.585821 407.729231 244.755953 407.955245 244.929112 408.181259 245.105302 408.407273 245.284497 408.633287 245.466662 408.859301 245.651765 409.085315 245.839770 409.311329 246.030644 409.537343 246.224353 409.763357 246.420863 409.989371 246.620139 410.215385 246.822148 410.441399 247.026855 410.667413 247.234227 410.893427 247.444230 411.119441 247.656829 411.345455 247.871990 411.571469 248.089680 411.797483 248.309864 412.023497 248.532509 412.249510 248.757580 412.475524 248.985043 412.701538 249.214865 412.927552 249.447011 413.153566 249.681447 413.379580 249.918139 413.605594 250.157054 413.831608 250.398156 414.057622 250.641413 414.283636 250.886789 414.509650 251.134252 414.735664 251.383767 414.961678 251.635299 415.187692 251.888816 415.413706 252.144282 415.639720 252.401664 415.865734 252.660929 416.091748 252.922040 416.317762 253.184966 416.543776 253.449671 416.769790 253.716122 416.995804 253.984285 417.221818 254.254125 417.447832 254.525609 417.673846 254.798703 417.899860 255.073372 418.125874 255.349582 418.351888 255.627300 418.577902 255.906492 418.803916 256.187123 419.029930 256.469159 419.255944 256.752566 419.481958 257.037311 419.707972 257.323359 419.933986 257.610677 420.160000 257.899229 420.386014 258.188983 420.612028 258.479904 420.838042 258.771958 421.064056 259.065111 421.290070 259.359329 421.516084 259.654578 421.742098 259.950824 421.968112 260.248033 422.194126 260.546171 422.420140 260.845204 422.646154 261.145098 422.872168 261.445818 423.098182 261.747332 423.324196 262.049604 423.550210 262.352601 423.776224 262.656288 424.002238 262.960632 424.228252 263.265599 424.454266 263.571154 424.680280 263.877264 424.906294 264.183895 425.132308 264.491012 425.358322 264.798581 425.584336 265.106569 425.810350 265.414941 426.036364 265.723664 426.262378 266.032703 426.488392 266.342024 426.714406 266.651594 426.940420 266.961377 427.166434 267.271341 427.392448 267.581452 427.618462 267.891674 427.844476 268.201974 428.070490 268.512319 428.296503 268.822673 428.522517 269.133004 428.748531 269.443276 428.974545 269.753457 429.200559 270.063511 429.426573 270.373405 429.652587 270.683105 429.878601 270.992577 430.104615 271.301787 430.330629 271.610700 430.556643 271.919284 430.782657 272.227502 431.008671 272.535323 431.234685 272.842711 431.460699 273.149633 431.686713 273.456054 431.912727 273.761941 432.138741 274.067259 432.364755 274.371975 432.590769 274.676054 432.816783 274.979463 433.042797 275.282167 433.268811 275.584132 433.494825 275.885325 433.720839 276.185710 433.946853 276.485256 434.172867 276.783926 434.398881 277.081687 434.624895 277.378506 434.850909 277.674348 435.076923 277.969178 435.302937 278.262964 435.528951 278.555671 435.754965 278.847265 435.980979 279.137712 436.206993 279.426977 436.433007 279.715028 436.659021 280.001829 436.885035 280.287347 437.111049 280.571548 437.337063 280.854398 437.563077 281.135862 437.789091 281.415908 438.015105 281.694499 438.241119 281.971604 438.467133 282.247187 438.693147 282.521214 438.919161 282.793652 439.145175 283.064467 439.371189 283.333624 439.597203 283.601089 439.823217 283.866829 440.049231 284.130810 440.275245 284.392996 440.501259 284.653355 440.727273 284.911852 440.953287 285.168453 441.179301 285.423125 441.405315 285.675833 441.631329 285.926542 441.857343 286.175220 442.083357 286.421832 442.309371 286.666344 442.535385 286.908722 442.761399 287.148932 442.987413 287.386940 443.213427 287.622712 443.439441 287.856214 443.665455 288.087412 443.891469 288.316271 444.117483 288.542758 444.343497 288.766839 444.569510 288.988480 444.795524 289.207646 445.021538 289.424304 445.247552 289.638420 445.473566 289.849959 445.699580 290.058888 445.925594 290.265172 446.151608 290.468778 446.377622 290.669671 446.603636 290.867817 446.829650 291.063183 447.055664 291.255735 447.281678 291.445437 447.507692 291.632257 447.733706 291.816161 447.959720 291.997113 448.185734 292.175081 448.411748 292.350030 448.637762 292.521926 448.863776 292.690735 449.089790 292.856423 449.315804 293.018956 449.541818 293.178300 449.767832 293.334421 449.993846 293.487286 450.219860 293.636859 450.445874 293.783106 450.671888 293.925995 450.897902 294.065491 451.123916 294.201559 451.349930 294.334166 451.575944 294.463278 451.801958 294.588860 452.027972 294.710879 452.253986 294.829301 452.480000 294.944091 452.706014 295.055216 452.932028 295.162641 453.158042 295.266333 453.384056 295.366258 453.610070 295.462380 453.836084 295.554667 454.062098 295.643085 454.288112 295.727599 454.514126 295.808175 454.740140 295.884779 454.966154 295.957378 455.192168 296.025936 455.418182 296.090421 455.644196 296.150798 455.870210 296.207033 456.096224 296.259093 456.322238 296.306942 456.548252 296.350547 456.774266 296.389874 457.000280 296.424889 457.226294 296.455558 457.452308 296.481847 457.678322 296.503722 457.904336 296.521149 458.130350 296.534093 458.356364 296.542521 458.582378 296.546399 458.808392 296.545692 459.034406 296.540367 459.260420 296.530390 459.486434 296.515726 459.712448 296.496342 459.938462 296.472204 460.164476 296.443277 460.390490 296.409527 460.616503 296.370921 460.842517 296.327424 461.068531 296.279002 461.294545 296.225622 461.520559 296.167249 461.746573 296.103849 461.972587 296.035389 462.198601 295.961834 462.424615 295.883149 462.650629 295.799302 462.876643 295.710259 463.102657 295.615984 463.328671 295.516444 463.554685 295.411605 463.780699 295.301433 464.006713 295.185894 464.232727 295.064954 464.458741 294.938579 464.684755 294.806745 464.910769 294.669470 465.136783 294.526782 465.362797 294.378710 465.588811 294.225280 465.814825 294.066522 466.040839 293.902463 466.266853 293.733131 466.492867 293.558555 466.718881 293.378763 466.944895 293.193783 467.170909 293.003642 467.396923 292.808370 467.622937 292.607993 467.848951 292.402541 468.074965 292.192041 468.300979 291.976521 468.526993 291.756010 468.753007 291.530535 468.979021 291.300125 469.205035 291.064808 469.431049 290.824611 469.657063 290.579564 469.883077 290.329693 470.109091 290.075027 470.335105 289.815595 470.561119 289.551424 470.787133 289.282542 471.013147 289.008978 471.239161 288.730760 471.465175 288.447915 471.691189 288.160472 471.917203 287.868458 472.143217 287.571903 472.369231 287.270834 472.595245 286.965279 472.821259 286.655266 473.047273 286.340823 473.273287 286.021979 473.499301 285.698761 473.725315 285.371198 473.951329 285.039318 474.177343 284.703149 474.403357 284.362718 474.629371 284.018054 474.855385 283.669186 475.081399 283.316141 475.307413 282.958946 475.533427 282.597632 475.759441 282.232225 475.985455 281.862753 476.211469 281.489245 476.437483 281.111729 476.663497 280.730232 476.889510 280.344784 477.115524 279.955411 477.341538 279.562143 477.567552 279.165007 477.793566 278.764031 478.019580 278.359244 478.245594 277.950673 478.471608 277.538347 478.697622 277.122293 478.923636 276.702541 479.149650 276.279117 479.375664 275.852050 479.601678 275.421368 479.827692 274.987099 480.053706 274.549272 480.279720 274.107914 480.505734 273.663053 480.731748 273.214718 480.957762 272.762937 481.183776 272.307737 481.409790 271.849148 481.635804 271.387196 481.861818 270.921910 482.087832 270.453318 482.313846 269.981448 482.539860 269.506329 482.765874 269.027988 482.991888 268.546454 483.217902 268.061754 483.443916 267.573917 483.669930 267.082971 483.895944 266.588943 484.121958 266.091863 484.347972 265.591757 484.573986 265.088655 484.800000 264.582584 485.026014 264.073572 485.252028 263.561648 485.478042 263.046839 485.704056 262.529174 485.930070 262.008681 486.156084 261.485387 486.382098 260.959321 486.608112 260.430512 486.834126 259.898986 487.060140 259.364773 487.286154 258.827900 487.512168 258.288395 487.738182 257.746287 487.964196 257.201603 488.190210 256.654372 488.416224 256.104622 488.642238 255.552380 488.868252 254.997676 489.094266 254.440537 489.320280 253.880990 489.546294 253.319065 489.772308 252.754790 489.998322 252.188191 490.224336 251.619298 490.450350 251.048139 490.676364 250.474742 490.902378 249.899134 491.128392 249.321344 491.354406 248.741401 491.580420 248.159331 491.806434 247.575163 492.032448 246.988926 492.258462 246.400647 492.484476 245.810355 492.710490 245.218077 492.936503 244.623842 493.162517 244.027677 493.388531 243.429612 493.614545 242.829673 493.840559 242.227889 494.066573 241.624289 494.292587 241.018899 494.518601 240.411749 494.744615 239.802867 494.970629 239.192279 495.196643 238.580016 495.422657 237.966104 495.648671 237.350572 495.874685 236.733448 496.100699 236.114760 496.326713 235.494535 496.552727 234.872803 496.778741 234.249592 497.004755 233.624928 497.230769 232.998841 497.456783 232.371359 497.682797 231.742509 497.908811 231.112320 498.134825 230.480820 498.360839 229.848037 498.586853 229.213998 498.812867 228.578733 499.038881 227.942269 499.264895 227.304635 499.490909 226.665857 499.716923 226.025965 499.942937 225.384987 500.168951 224.742951 500.394965 224.099884 500.620979 223.455815 500.846993 222.810772 501.073007 222.164783 501.299021 221.517876 501.525035 220.870080 501.751049 220.221422 501.977063 219.571930 502.203077 218.921633 502.429091 218.270558 502.655105 217.618734 502.881119 216.966189 503.107133 216.312951 503.333147 215.659047 503.559161 215.004507 503.785175 214.349358 504.011189 213.693629 504.237203 213.037346 504.463217 212.380540 504.689231 211.723236 504.915245 211.065465 505.141259 210.407253 505.367273 209.748629 505.593287 209.089621 505.819301 208.430257 506.045315 207.770565 506.271329 207.110573 506.497343 206.450310 506.723357 205.789803 506.949371 205.129081 507.175385 204.468171 507.401399 203.807102 507.627413 203.145901 507.853427 202.484598 508.079441 201.823219 508.305455 201.161794 508.531469 200.500350 508.757483 199.838915 508.983497 199.177517 509.209510 198.516185 509.435524 197.854946 509.661538 197.193830 509.887552 196.532862 510.113566 195.872073 510.339580 195.211489 510.565594 194.551140 510.791608 193.891053 511.017622 193.231256 511.243636 192.571777 511.469650 191.912644 511.695664 191.253886 511.921678 190.595531 512.147692 189.937606 512.373706 189.280141 512.599720 188.623162 512.825734 187.966698 513.051748 187.310777 513.277762 186.655427 513.503776 186.000676 513.729790 185.346553 513.955804 184.693085 514.181818 184.040301 514.407832 183.388228 514.633846 182.736895 514.859860 182.086330 515.085874 181.436561 515.311888 180.787616 515.537902 180.139523 515.763916 179.492310 515.989930 178.846005 516.215944 178.200637 516.441958 177.556233 516.667972 176.912822 516.893986 176.270432 517.120000 175.629090 517.346014 174.988825 517.572028 174.349665 517.798042 173.711638 518.024056 173.074772 518.250070 172.439096 518.476084 171.804637 518.702098 171.171423 518.928112 170.539483 519.154126 169.908844 519.380140 169.279535 519.606154 168.651584 519.832168 168.025019 520.058182 167.399867 520.284196 166.776158 520.510210 166.153919 520.736224 165.533179 520.962238 164.913964 521.188252 164.296299 521.414266 163.680187 521.640280 163.065627 521.866294 162.452616 522.092308 161.841154 522.318322 161.231239 522.544336 160.622868 522.770350 160.016042 522.996364 159.410758 523.222378 158.807014 523.448392 158.204810 523.674406 157.604143 523.900420 157.005012 524.126434 156.407416 524.352448 155.811353 524.578462 155.216821 524.804476 154.623820 525.030490 154.032346 525.256503 153.442400 525.482517 152.853979 525.708531 152.267082 525.934545 151.681707 526.160559 151.097853 526.386573 150.515518 526.612587 149.934701 526.838601 149.355400 527.064615 148.777614 527.290629 148.201341 527.516643 147.626579 527.742657 147.053328 527.968671 146.481585 528.194685 145.911349 528.420699 145.342619 528.646713 144.775392 528.872727 144.209668 529.098741 143.645445 529.324755 143.082721 529.550769 142.521495 529.776783 141.961765 530.002797 141.403530 530.228811 140.846788 530.454825 140.291538 530.680839 139.737778 530.906853 139.185506 531.132867 138.634722 531.358881 138.085423 531.584895 137.537608 531.810909 136.991276 532.036923 136.446425 532.262937 135.903053 532.488951 135.361159 532.714965 134.820742 532.940979 134.281799 533.166993 133.744329 533.393007 133.208332 533.619021 132.673804 533.845035 132.140746 534.071049 131.609154 534.297063 131.079029 534.523077 130.550367 534.749091 130.023168 534.975105 129.497430 535.201119 128.973151 535.427133 128.450331 535.653147 127.928967 535.879161 127.409058 536.105175 126.890602 536.331189 126.373598 536.557203 125.858045 536.783217 125.343940 537.009231 124.831283 537.235245 124.320071 537.461259 123.810304 537.687273 123.301979 537.913287 122.795096 538.139301 122.289652 538.365315 121.785646 538.591329 121.283077 538.817343 120.781943 539.043357 120.282242 539.269371 119.783973 539.495385 119.287135 539.721399 118.791726 539.947413 118.297744 540.173427 117.805187 540.399441 117.314056 540.625455 116.824346 540.851469 116.336059 541.077483 115.849191 541.303497 115.363741 541.529510 114.879707 541.755524 114.397089 541.981538 113.915885 542.207552 113.436092 542.433566 112.957711 542.659580 112.480738 542.885594 112.005172 543.111608 111.531013 543.337622 111.058258 543.563636 110.586906 543.789650 110.116955 544.015664 109.648404 544.241678 109.181251 544.467692 108.715495 544.693706 108.251134 544.919720 107.788167 545.145734 107.326592 545.371748 106.866408 545.597762 106.407613 545.823776 105.950205 546.049790 105.494184 546.275804 105.039547 546.501818 104.586293 546.727832 104.134420 546.953846 103.683927 547.179860 103.234813 547.405874 102.787076 547.631888 102.340713 547.857902 101.895725 548.083916 101.452109 548.309930 101.009863 548.535944 100.568987 548.761958 100.129479 548.987972 99.691336 549.213986 99.254559 549.440000 98.819144 549.666014 98.385091 549.892028 97.952398 550.118042 97.521063 550.344056 97.091085 550.570070 96.662463 550.796084 96.235194 551.022098 95.809278 551.248112 95.384713 551.474126 94.961497 551.700140 94.539629 551.926154 94.119107 552.152168 93.699929 552.378182 93.282095 552.604196 92.865603 552.830210 92.450450 553.056224 92.036637 553.282238 91.624160 553.508252 91.213019 553.734266 90.803211 553.960280 90.394736 554.186294 89.987593 554.412308 89.581778 554.638322 89.177291 554.864336 88.774131 555.090350 88.372295 555.316364 87.971783 555.542378 87.572593 555.768392 87.174722 555.994406 86.778170 556.220420 86.382936 556.446434 85.989017 556.672448 85.596412 556.898462 85.205120 557.124476 84.815138 557.350490 84.426466 557.576503 84.039103 557.802517 83.653045 558.028531 83.268293 558.254545 82.884843 558.480559 82.502696 558.706573 82.121849 558.932587 81.742300 559.158601 81.364049 559.384615 80.987094 559.610629 80.611433 559.836643 80.237064 560.062657 79.863987 560.288671 79.492199 560.514685 79.121699 560.740699 78.752485 560.966713 78.384557 561.192727 78.017912 561.418741 77.652549 561.644755 77.288466 561.870769 76.925663 562.096783 76.564136 562.322797 76.203886 562.548811 75.844909 562.774825 75.487206 563.000839 75.130773 563.226853 74.775610 563.452867 74.421716 563.678881 74.069088 563.904895 73.717725 564.130909 73.367626 564.356923 73.018788 564.582937 72.671211 564.808951 72.324893 565.034965 71.979833 565.260979 71.636028 565.486993 71.293478 565.713007 70.952181 565.939021 70.612134 566.165035 70.273338 566.391049 69.935790 566.617063 69.599489 566.843077 69.264432 567.069091 68.930620 567.295105 68.598049 567.521119 68.266719 567.747133 67.936628 567.973147 67.607775 568.199161 67.280158 568.425175 66.953775 568.651189 66.628625 568.877203 66.304706 569.103217 65.982018 569.329231 65.660557 569.555245 65.340324 569.781259 65.021315 570.007273 64.703531 570.233287 64.386968 570.459301 64.071627 570.685315 63.757504 570.911329 63.444599 571.137343 63.132910 571.363357 62.822436 571.589371 62.513175 571.815385 62.205125 572.041399 61.898285 572.267413 61.592654 572.493427 61.288229 572.719441 60.985010 572.945455 60.682995 573.171469 60.382182 573.397483 60.082570 573.623497 59.784157 573.849510 59.486941 574.075524 59.190922 574.301538 58.896098 574.527552 58.602467 574.753566 58.310027 574.979580 58.018777 575.205594 57.728716 575.431608 57.439842 575.657622 57.152153 575.883636 56.865648 576.109650 56.580326 576.335664 56.296184 576.561678 56.013222 576.787692 55.731438 577.013706 55.450830 577.239720 55.171396 577.465734 54.893136 577.691748 54.616047 577.917762 54.340125 578.143776 54.065365 578.369790 53.791763 578.595804 53.519314 578.821818 53.248013 579.047832 52.977856 579.273846 52.708837 579.499860 52.440953 579.725874 52.174198 579.951888 51.908568 580.177902 51.644058 580.403916 51.380664 580.629930 51.118380 580.855944 50.857203 581.081958 50.597126 581.307972 50.338147 581.533986 50.080259 581.760000 49.823459 581.986014 49.567742 582.212028 49.313102 582.438042 49.059536 582.664056 48.807038 582.890070 48.555604 583.116084 48.305229 583.342098 48.055909 583.568112 47.807639 583.794126 47.560413 584.020140 47.314229 584.246154 47.069079 584.472168 46.824962 584.698182 46.581870 584.924196 46.339800 585.150210 46.098747 585.376224 45.858707 585.602238 45.619674 585.828252 45.381644 586.054266 45.144612 586.280280 44.908574 586.506294 44.673525 586.732308 44.439460 586.958322 44.206375 587.184336 43.974264 587.410350 43.743124 587.636364 43.512949 587.862378 43.283735 588.088392 43.055477 588.314406 42.828170 588.540420 42.601810 588.766434 42.376392 588.992448 42.151912 589.218462 41.928364 589.444476 41.705744 589.670490 41.484047 589.896503 41.263269 590.122517 41.043405 590.348531 40.824450 590.574545 40.606399 590.800559 40.389249 591.026573 40.172993 591.252587 39.957629 591.478601 39.743149 591.704615 39.529551 591.930629 39.316830 592.156643 39.104980 592.382657 38.893997 592.608671 38.683877 592.834685 38.474614 593.060699 38.266204 593.286713 38.058642 593.512727 37.851925 593.738741 37.646046 593.964755 37.441001 594.190769 37.236786 594.416783 37.033395 594.642797 36.830825 594.868811 36.629070 595.094825 36.428126 595.320839 36.227989 595.546853 36.028652 595.772867 35.830113 595.998881 35.632365 596.224895 35.435405 596.450909 35.239228 596.676923 35.043828 596.902937 34.849202 597.128951 34.655344 597.354965 34.462251 597.580979 34.269916 597.806993 34.078336 598.033007 33.887507 598.259021 33.697422 598.485035 33.508078 598.711049 33.319469 598.937063 33.131592 599.163077 32.944441 599.389091 32.758012 599.615105 32.572300 599.841119 32.387300 600.067133 32.203008 600.293147 32.019419 600.519161 31.836529 600.745175 31.654332 600.971189 31.472823 601.197203 31.292000 601.423217 31.111855 601.649231 30.932386 601.875245 30.753587 602.101259 30.575453 602.327273 30.397981 602.553287 30.221164 602.779301 30.044999 603.005315 29.869480 603.231329 29.694604 603.457343 29.520365 603.683357 29.346759 603.909371 29.173781 604.135385 29.001426 604.361399 28.829689 604.587413 28.658567 604.813427 28.488054 605.039441 28.318146 605.265455 28.148837 605.491469 27.980124 605.717483 27.812001 605.943497 27.644464 606.169510 27.477508 606.395524 27.311129 606.621538 27.145321 606.847552 26.980081 607.073566 26.815403 607.299580 26.651283 607.525594 26.487715 607.751608 26.324696 607.977622 26.162221 608.203636 26.000285 608.429650 25.838883 608.655664 25.678010 608.881678 25.517663 609.107692 25.357836 609.333706 25.198524 609.559720 25.039723 609.785734 24.881428 610.011748 24.723635 610.237762 24.566338 610.463776 24.409534 610.689790 24.253217 610.915804 24.097383 611.141818 23.942027 611.367832 23.787144 611.593846 23.632730 611.819860 23.478780 612.045874 23.325289 612.271888 23.172253 612.497902 23.019666 612.723916 22.867525 612.949930 22.715825 613.175944 22.564560 613.401958 22.413727 613.627972 22.263320 613.853986 22.113334 614.080000 21.963766 614.306014 21.814611 614.532028 21.665863 614.758042 21.517518 614.984056 21.369572 615.210070 21.222019 615.436084 21.074855 615.662098 20.928076 615.888112 20.781676 616.114126 20.635651 616.340140 20.489996 616.566154 20.344707 616.792168 20.199779 617.018182 20.055207 617.244196 19.910986 617.470210 19.767113 617.696224 19.623581 617.922238 19.480387 618.148252 19.337526 618.374266 19.194992 618.600280 19.052782 618.826294 18.910891 619.052308 18.769314 619.278322 18.628046 619.504336 18.487083 619.730350 18.346420 619.956364 18.206052 620.182378 18.065974 620.408392 17.926182 620.634406 17.786672 620.860420 17.647438 621.086434 17.508476 621.312448 17.369781 621.538462 17.231349 621.764476 17.093174 621.990490 16.955253 622.216503 16.817580 622.442517 16.680150 622.668531 16.542960 622.894545 16.406004 623.120559 16.269277 623.346573 16.132776 623.572587 15.996494 623.798601 15.860429 624.024615 15.724574 624.250629 15.588926 624.476643 15.453479 624.702657 15.318229 624.928671 15.183171 625.154685 15.048300 625.380699 14.913612 625.606713 14.779103 625.832727 14.644766 626.058741 14.510599 626.284755 14.376595 626.510769 14.242751 626.736783 14.109062 626.962797 13.975522 627.188811 13.842128 627.414825 13.708875 627.640839 13.575757 627.866853 13.442771 628.092867 13.309911 628.318881 13.177173 628.544895 13.044552 628.770909 12.912043 628.996923 12.779643 629.222937 12.647345 629.448951 12.515146 629.674965 12.383041 629.900979 12.251024 630.126993 12.119092 630.353007 11.987240 630.579021 11.855463 630.805035 11.723756 631.031049 11.592115 631.257063 11.460534 631.483077 11.329010 631.709091 11.197537 631.935105 11.066112 632.161119 10.934728 632.387133 10.803382 632.613147 10.672069 632.839161 10.540783 633.065175 10.409522 633.291189 10.278279 633.517203 10.147050 633.743217 10.015830 633.969231 9.884615 633.969231 514.000000" /></g></g><g class="titles"><text class="title plot_title" x="400.0" y="26">Nana 52</text></g><g class="plot overlay" transform="translate(133, 46)"><g class="series serie-0 color-0"><g class="dots"><circle class="dot reactive tooltip-trigger" cx="12.43076923076923" cy="264.93289889741374" r="2.5" /><desc class="value">394000</desc><desc class="x top">12.43076923076923</desc><desc class="y top">264.93289889741374</desc><desc class="x_label">Jan</desc></g><g class="dots"><circle class="dot reactive tooltip-trigger" cx="68.93426573426574" cy="384.9556205504954" r="2.5" /><desc class="value">370000</desc><desc class="x top">68.93426573426574</desc><desc class="y top">384.9556205504954</desc><desc class="x_label">Feb</desc></g><g class="dots"><circle class="dot reactive tooltip-trigger" cx="125.43776223776223" cy="119.90544356660672" r="2.5" /><desc class="value">423000</desc><desc class="x ">125.43776223776223</desc><desc class="y ">119.90544356660672</desc><desc class="x_label">Mar</desc></g><g class="dots"><circle class="dot reactive tooltip-trigger" cx="181.94125874125874" cy="479.97360852585166" r="2.5" /><desc class="value">351000</desc><desc class="x top">181.94125874125874</desc><desc class="y top">479.97360852585166</desc><desc class="x_label">Apr</desc></g><g class="dots"><circle class="dot reactive tooltip-trigger" cx="238.44475524475524" cy="379.9546738149503" r="2.5" /><desc class="value">371000</desc><desc class="x top">238.44475524475524</desc><desc class="y top">379.9546738149503</desc><desc class="x_label">May</desc></g><g class="dots"><circle class="dot reactive tooltip-trigger" cx="294.9482517482517" cy="309.94141951731933" r="2.5" /><desc class="value">385000</desc><desc class="x top">294.9482517482517</desc><desc class="y top">309.94141951731933</desc><desc class="x_label">Jun</desc></g><g class="dots"><circle class="dot reactive tooltip-trigger" cx="351.4517482517482" cy="264.93289889741374" r="2.5" /><desc class="value">394000</desc><desc class="x left top">351.4517482517482</desc><desc class="y left top">264.93289889741374</desc><desc class="x_label">Jul</desc></g><g class="dots"><circle class="dot reactive tooltip-trigger" cx="407.95524475524473" cy="244.92911195523345" r="2.5" /><desc class="value">398000</desc><desc class="x left">407.95524475524473</desc><desc class="y left">244.92911195523345</desc><desc class="x_label">Aug</desc></g><g class="dots"><circle class="dot reactive tooltip-trigger" cx="464.45874125874127" cy="294.9385793106842" r="2.5" /><desc class="value">388000</desc><desc class="x left top">464.45874125874127</desc><desc class="y left top">294.9385793106842</desc><desc class="x_label">Sep</desc></g><g class="dots"><circle class="dot reactive tooltip-trigger" cx="520.9622377622377" cy="164.91396418651232" r="2.5" /><desc class="value">414000</desc><desc class="x left">520.9622377622377</desc><desc class="y left">164.91396418651232</desc><desc class="x_label">Oct</desc></g><g class="dots"><circle class="dot reactive tooltip-trigger" cx="577.4657342657342" cy="54.89313600452084" r="2.5" /><desc class="value">436000</desc><desc class="x left">577.4657342657342</desc><desc class="y left">54.89313600452084</desc><desc class="x_label">Nov</desc></g><g class="dots"><circle class="dot reactive tooltip-trigger" cx="633.9692307692308" cy="9.884615384615245" r="2.5" /><desc class="value">445000</desc><desc class="x left">633.9692307692308</desc><desc class="y left">9.884615384615245</desc><desc class="x_label">Dec</desc></g></g></g><g class="plot text-overlay" transform="translate(133, 46)"><g class="series serie-0 color-0" /></g><g class="plot tooltip-overlay" transform="translate(133, 46)"><g class="tooltip" style="opacity: 0" transform="translate(0 0)"><rect class="tooltip-box" height="0" rx="0" ry="0" width="0" /><g class="text" /></g></g><g class="legends" transform="translate(10, 56)"><g class="legend reactive activate-serie" id="activate-serie-0"><rect class="color-0 reactive" height="12" width="12" x="0.0" y="1.0" /><text x="17.0" y="11.2">Nana</text></g></g><g class="legends" transform="translate(790, 56)" /></g></svg>