<?xml version='1.0' encoding='utf-8'?>
<svg xmlns:xlink="http://www.w3.org/1999/xlink" class="pygal-chart" id="chart-94a414cd-60f3-473c-a1db-4254698addfc" viewBox="0 0 800 600" xmlns="http://www.w3.org/2000/svg"><!--Generated with pygal 2.0.11 (etree) ©Kozea 2011-2015 on 2015-12-10--><!--http://pygal.org--><!--http://github.com/Kozea/pygal--><defs><style type="text/css">#chart-94a414cd-60f3-473c-a1db-4254698addfc{-webkit-user-select:none;-webkit-font-smoothing:antialiased;font-family:Consolas,"Liberation Mono",Menlo,Courier,monospace}#chart-94a414cd-60f3-473c-a1db-4254698addfc .title{font-family:Consolas,"Liberation Mono",Menlo,Courier,monospace;font-size:16px}#chart-94a414cd-60f3-473c-a1db-4254698addfc .legends .legend text{font-family:Consolas,"Liberation Mono",Menlo,Courier,monospace;font-size:14px}#chart-94a414cd-60f3-473c-a1db-4254698addfc .axis text{font-family:Consolas,"Liberation Mono",Menlo,Courier,monospace;font-size:10px}#chart-94a414cd-60f3-473c-a1db-4254698addfc .axis text.major{font-family:Consolas,"Liberation Mono",Menlo,Courier,monospace;font-size:10px}#chart-94a414cd-60f3-473c-a1db-4254698addfc .text-overlay text.value{font-family:Consolas,"Liberation Mono",Menlo,Courier,monospace;font-size:16px}#chart-94a414cd-60f3-473c-a1db-4254698addfc .text-overlay text.label{font-family:Consolas,"Liberation Mono",Menlo,Courier,monospace;font-size:10px}#chart-94a414cd-60f3-473c-a1db-4254698addfc .tooltip{font-family:Consolas,"Liberation Mono",Menlo,Courier,monospace;font-size:14px}#chart-94a414cd-60f3-473c-a1db-4254698addfc text.no_data{font-family:Consolas,"Liberation Mono",Menlo,Courier,monospace;font-size:64px}
#chart-94a414cd-60f3-473c-a1db-4254698addfc{background-color:black}#chart-94a414cd-60f3-473c-a1db-4254698addfc path,#chart-94a414cd-60f3-473c-a1db-4254698addfc line,#chart-94a414cd-60f3-473c-a1db-4254698addfc rect,#chart-94a414cd-60f3-473c-a1db-4254698addfc circle{-webkit-transition:250ms;-moz-transition:250ms;transition:250ms}#chart-94a414cd-60f3-473c-a1db-4254698addfc .graph &gt; .background{fill:black}#chart-94a414cd-60f3-473c-a1db-4254698addfc .plot &gt; .background{fill:#111}#chart-94a414cd-60f3-473c-a1db-4254698addfc .graph{fill:#999}#chart-94a414cd-60f3-473c-a1db-4254698addfc text.no_data{fill:#eee}#chart-94a414cd-60f3-473c-a1db-4254698addfc .title{fill:#eee}#chart-94a414cd-60f3-473c-a1db-4254698addfc .legends .legend text{fill:#999}#chart-94a414cd-60f3-473c-a1db-4254698addfc .legends .legend:hover text{fill:#eee}#chart-94a414cd-60f3-473c-a1db-4254698addfc .axis .line{stroke:#eee}#chart-94a414cd-60f3-473c-a1db-4254698addfc .axis .guide.line{stroke:#555}#chart-94a414cd-60f3-473c-a1db-4254698addfc .axis .major.line{stroke:#999}#chart-94a414cd-60f3-473c-a1db-4254698addfc .axis text.major{fill:#eee}#chart-94a414cd-60f3-473c-a1db-4254698addfc .axis.y .guides:hover .guide.line,#chart-94a414cd-60f3-473c-a1db-4254698addfc .line-graph .axis.x .guides:hover .guide.line,#chart-94a414cd-60f3-473c-a1db-4254698addfc .stackedline-graph .axis.x .guides:hover .guide.line,#chart-94a414cd-60f3-473c-a1db-4254698addfc .xy-graph .axis.x .guides:hover .guide.line{stroke:#eee}#chart-94a414cd-60f3-473c-a1db-4254698addfc .axis .guides:hover text{fill:#eee}#chart-94a414cd-60f3-473c-a1db-4254698addfc .reactive{fill-opacity:.8}#chart-94a414cd-60f3-473c-a1db-4254698addfc .reactive.active,#chart-94a414cd-60f3-473c-a1db-4254698addfc .active .reactive{fill-opacity:.4;stroke-width:4}#chart-94a414cd-60f3-473c-a1db-4254698addfc .series text{fill:#eee}#chart-94a414cd-60f3-473c-a1db-4254698addfc .tooltip rect{fill:#111;stroke:#eee;-webkit-transition:opacity 250ms;-moz-transition:opacity 250ms;transition:opacity 250ms}#chart-94a414cd-60f3-473c-a1db-4254698addfc .tooltip .label{fill:#999}#chart-94a414cd-60f3-473c-a1db-4254698addfc .tooltip .label{fill:#999}#chart-94a414cd-60f3-473c-a1db-4254698addfc .tooltip .legend{font-size:.8em;fill:#555}#chart-94a414cd-60f3-473c-a1db-4254698addfc .tooltip .x_label{font-size:.6em;fill:#eee}#chart-94a414cd-60f3-473c-a1db-4254698addfc .tooltip .xlink{font-size:.5em;text-decoration:underline}#chart-94a414cd-60f3-473c-a1db-4254698addfc .tooltip .value{font-size:1.5em}#chart-94a414cd-60f3-473c-a1db-4254698addfc .map-element{fill:#111;stroke:#555 !important}#chart-94a414cd-60f3-473c-a1db-4254698addfc .map-element .reactive{fill-opacity:inherit}#chart-94a414cd-60f3-473c-a1db-4254698addfc .color-0,#chart-94a414cd-60f3-473c-a1db-4254698addfc .color-0 a:visited{stroke:#ff5995;fill:#ff5995}#chart-94a414cd-60f3-473c-a1db-4254698addfc .text-overlay .color-0 text{fill:black}
#chart-94a414cd-60f3-473c-a1db-4254698addfc text.no_data{text-anchor:middle}#chart-94a414cd-60f3-473c-a1db-4254698addfc .guide.line{fill:none}#chart-94a414cd-60f3-473c-a1db-4254698addfc .centered{text-anchor:middle}#chart-94a414cd-60f3-473c-a1db-4254698addfc .title{text-anchor:middle}#chart-94a414cd-60f3-473c-a1db-4254698addfc .legends .legend text{fill-opacity:1}#chart-94a414cd-60f3-473c-a1db-4254698addfc .axis.x text{text-anchor:middle}#chart-94a414cd-60f3-473c-a1db-4254698addfc .axis.x:not(.web) text[transform]{text-anchor:start}#chart-94a414cd-60f3-473c-a1db-4254698addfc .axis.x:not(.web) text[transform].backwards{text-anchor:end}#chart-94a414cd-60f3-473c-a1db-4254698addfc .axis.y text{text-anchor:end}#chart-94a414cd-60f3-473c-a1db-4254698addfc .axis.y text[transform].backwards{text-anchor:start}#chart-94a414cd-60f3-473c-a1db-4254698addfc .axis.y2 text{text-anchor:start}#chart-94a414cd-60f3-473c-a1db-4254698addfc .axis.y2 text[transform].backwards{text-anchor:end}#chart-94a414cd-60f3-473c-a1db-4254698addfc .axis .guide.line{stroke-dasharray:4,4}#chart-94a414cd-60f3-473c-a1db-4254698addfc .axis .major.guide.line{stroke-dasharray:6,6}#chart-94a414cd-60f3-473c-a1db-4254698addfc .horizontal .axis.y .guide.line,#chart-94a414cd-60f3-473c-a1db-4254698addfc .horizontal .axis.y2 .guide.line,#chart-94a414cd-60f3-473c-a1db-4254698addfc .vertical .axis.x .guide.line{opacity:0}#chart-94a414cd-60f3-473c-a1db-4254698addfc .horizontal .axis.always_show .guide.line,#chart-94a414cd-60f3-473c-a1db-4254698addfc .vertical .axis.always_show .guide.line{opacity:1 !important}#chart-94a414cd-60f3-473c-a1db-4254698addfc .axis.y .guides:hover .guide.line,#chart-94a414cd-60f3-473c-a1db-4254698addfc .axis.y2 .guides:hover .guide.line,#chart-94a414cd-60f3-473c-a1db-4254698addfc .axis.x .guides:hover .guide.line{opacity:1}#chart-94a414cd-60f3-473c-a1db-4254698addfc .axis .guides:hover text{opacity:1}#chart-94a414cd-60f3-473c-a1db-4254698addfc .nofill{fill:none}#chart-94a414cd-60f3-473c-a1db-4254698addfc .subtle-fill{fill-opacity:.2}#chart-94a414cd-60f3-473c-a1db-4254698addfc .dot{stroke-width:1px;fill-opacity:1}#chart-94a414cd-60f3-473c-a1db-4254698addfc .dot.active{stroke-width:5px}#chart-94a414cd-60f3-473c-a1db-4254698addfc .dot.negative{fill:transparent}#chart-94a414cd-60f3-473c-a1db-4254698addfc text,#chart-94a414cd-60f3-473c-a1db-4254698addfc tspan{stroke:none !important}#chart-94a414cd-60f3-473c-a1db-4254698addfc .series text.active{opacity:1}#chart-94a414cd-60f3-473c-a1db-4254698addfc .tooltip rect{fill-opacity:.95;stroke-width:.5}#chart-94a414cd-60f3-473c-a1db-4254698addfc .tooltip text{fill-opacity:1}#chart-94a414cd-60f3-473c-a1db-4254698addfc .showable{visibility:hidden}#chart-94a414cd-60f3-473c-a1db-4254698addfc .showable.shown{visibility:visible}</style><script type="text/javascript">window.pygal = window.pygal || {};window.pygal.config = window.pygal.config || {};window.pygal.config['94a414cd-60f3-473c-a1db-4254698addfc'] = {"print_values": false, "truncate_label": null, "human_readable": false, "explicit_size": false, "show_y_labels": true, "x_labels": ["Jan", "Feb", "Mar", "Apr", "May", "Jun", "Jul", "Aug", "Sep", "Oct", "Nov", "Dec"], "inverse_y_axis": false, "x_labels_major_count": null, "show_y_guides": true, "spacing": 10, "xrange": null, "rounded_bars": null, "margin": 20, "interpolation_precision": 250, "title": "Ratchathewi 52", "stroke_style": null, "no_data_text": "No data", "fill": true, "box_mode": "extremes", "print_labels": false, "interpolate": "cubic", "zero": 0, "show_only_major_dots": false, "truncate_legend": null, "show_minor_x_labels": true, "js": ["//kozea.github.io/pygal.js/2.0.x/pygal-tooltips.min.js"], "x_labels_major_every": null, "legends": ["Ratchathewi"], "tooltip_fancy_mode": true, "disable_xml_declaration": false, "show_x_guides": false, "print_zeroes": true, "show_legend": true, "legend_at_bottom": false, "y_labels_major_count": null, "secondary_range": null, "margin_bottom": null, "half_pie": false, "height": 600, "range": null, "show_minor_y_labels": true, "defs": [], "css": ["file://style.css", "file://graph.css"], "y_labels": null, "interpolation_parameters": {}, "width": 800, "strict": false, "pretty_print": false, "min_scale": 4, "margin_top": null, "dynamic_print_values": false, "order_min": null, "x_title": null, "margin_left": null, "margin_right": null, "y_labels_major_every": null, "stroke": true, "x_labels_major": null, "missing_value_fill_truncation": "x", "logarithmic": false, "stack_from_top": false, "show_dots": true, "style": {"title_font_size": 16, "title_font_family": "Consolas, \"Liberation Mono\", Menlo, Courier, monospace", "tooltip_font_family": "Consolas, \"Liberation Mono\", Menlo, Courier, monospace", "background": "black", "tooltip_font_size": 14, "opacity_hover": ".4", "value_label_font_size": 10, "opacity": ".8", "no_data_font_family": "Consolas, \"Liberation Mono\", Menlo, Courier, monospace", "label_font_size": 10, "plot_background": "#111", "value_font_size": 16, "value_font_family": "Consolas, \"Liberation Mono\", Menlo, Courier, monospace", "no_data_font_size": 64, "foreground_strong": "#eee", "font_family": "Consolas, \"Liberation Mono\", Menlo, Courier, monospace", "label_font_family": "Consolas, \"Liberation Mono\", Menlo, Courier, monospace", "transition": "250ms", "major_guide_stroke_dasharray": "6,6", "foreground_subtle": "#555", "value_colors": [], "value_label_font_family": "Consolas, \"Liberation Mono\", Menlo, Courier, monospace", "guide_stroke_dasharray": "4,4", "major_label_font_size": 10, "legend_font_family": "Consolas, \"Liberation Mono\", Menlo, Courier, monospace", "major_label_font_family": "Consolas, \"Liberation Mono\", Menlo, Courier, monospace", "foreground": "#999", "colors": ["#ff5995", "#b6e354", "#feed6c", "#8cedff", "#9e6ffe", "#899ca1", "#f8f8f2", "#bf4646", "#516083", "#f92672", "#82b414", "#fd971f", "#56c2d6", "#808384", "#8c54fe", "#465457"], "legend_font_size": 14}, "y_labels_major": null, "x_label_rotation": 0, "max_scale": 16, "value_formatter": null, "dots_size": 2.5, "legend_at_bottom_columns": null, "force_uri_protocol": null, "x_value_formatter": null, "legend_box_size": 12, "include_x_axis": false, "y_label_rotation": 0, "show_x_labels": true, "inner_radius": 0, "no_prefix": false, "tooltip_border_radius": 0, "y_title": null}</script><script type="text/javascript" xlink:href="//kozea.github.io/pygal.js/2.0.x/pygal-tooltips.min.js" /></defs><title>Ratchathewi 52</title><g class="graph line-graph vertical"><rect class="background" height="600" width="800" x="0" y="0" /><g class="plot" transform="translate(192, 46)"><rect class="background" height="514" width="587.6" x="0" y="0" /><g class="axis y"><path class="line" d="M0.000000 514.000000 h587.600000" /><g class="guides"><path class="guide line" d="M0.000000 421.919472 h587.600000" /><text class="" x="-5" y="425.41947211813897">230000.0</text><title>230000.0</title></g><g class="guides"><path class="guide line" d="M0.000000 321.423166 h587.600000" /><text class="" x="-5" y="324.9231655977674">240000.0</text><title>240000.0</title></g><g class="guides"><path class="major guide line" d="M0.000000 220.926859 h587.600000" /><text class="major" x="-5" y="224.42685907739587">250000.0</text><title>250000.0</title></g><g class="guides"><path class="guide line" d="M0.000000 120.430553 h587.600000" /><text class="" x="-5" y="123.93055255702427">260000.0</text><title>260000.0</title></g><g class="guides"><path class="guide line" d="M0.000000 19.934246 h587.600000" /><text class="" x="-5" y="23.434246036652723">270000.0</text><title>270000.0</title></g></g><g class="axis x"><g class="guides"><path class="line" d="M11.300000 0.000000 v514.000000" /><text class="" x="11.3" y="529.0">Jan</text></g><g class="guides"><path class="guide line" d="M62.663636 0.000000 v514.000000" /><text class="" x="62.66363636363637" y="529.0">Feb</text></g><g class="guides"><path class="guide line" d="M114.027273 0.000000 v514.000000" /><text class="" x="114.02727272727273" y="529.0">Mar</text></g><g class="guides"><path class="guide line" d="M165.390909 0.000000 v514.000000" /><text class="" x="165.39090909090908" y="529.0">Apr</text></g><g class="guides"><path class="guide line" d="M216.754545 0.000000 v514.000000" /><text class="" x="216.75454545454548" y="529.0">May</text></g><g class="guides"><path class="guide line" d="M268.118182 0.000000 v514.000000" /><text class="" x="268.1181818181818" y="529.0">Jun</text></g><g class="guides"><path class="guide line" d="M319.481818 0.000000 v514.000000" /><text class="" x="319.4818181818182" y="529.0">Jul</text></g><g class="guides"><path class="guide line" d="M370.845455 0.000000 v514.000000" /><text class="" x="370.8454545454546" y="529.0">Aug</text></g><g class="guides"><path class="guide line" d="M422.209091 0.000000 v514.000000" /><text class="" x="422.20909090909095" y="529.0">Sep</text></g><g class="guides"><path class="guide line" d="M473.572727 0.000000 v514.000000" /><text class="" x="473.5727272727273" y="529.0">Oct</text></g><g class="guides"><path class="guide line" d="M524.936364 0.000000 v514.000000" /><text class="" x="524.9363636363636" y="529.0">Nov</text></g><g class="guides"><path class="guide line" d="M576.300000 0.000000 v514.000000" /><text class="" x="576.3000000000001" y="529.0">Dec</text></g></g><g class="series serie-0 color-0"><path class="line reactive" d="M11.300000 514.000000 L11.300000 361.621688 11.505455 362.686477 11.710909 363.751190 11.916364 364.815753 12.121818 365.880090 12.327273 366.944127 12.532727 368.007787 12.738182 369.070997 12.943636 370.133679 13.149091 371.195761 13.354545 372.257165 13.560000 373.317817 13.765455 374.377642 13.970909 375.436564 14.176364 376.494509 14.381818 377.551401 14.587273 378.607164 14.792727 379.661725 14.998182 380.715007 15.203636 381.766935 15.409091 382.817434 15.614545 383.866429 15.820000 384.913844 16.025455 385.959606 16.230909 387.003637 16.436364 388.045863 16.641818 389.086209 16.847273 390.124600 17.052727 391.160960 17.258182 392.195215 17.463636 393.227288 17.669091 394.257105 17.874545 395.284591 18.080000 396.309670 18.285455 397.332267 18.490909 398.352307 18.696364 399.369715 18.901818 400.384415 19.107273 401.396333 19.312727 402.405393 19.518182 403.411519 19.723636 404.414638 19.929091 405.414673 20.134545 406.411549 20.340000 407.405191 20.545455 408.395524 20.750909 409.382473 20.956364 410.365962 21.161818 411.345917 21.367273 412.322262 21.572727 413.294921 21.778182 414.263820 21.983636 415.228883 22.189091 416.190036 22.394545 417.147203 22.600000 418.100308 22.805455 419.049277 23.010909 419.994035 23.216364 420.934505 23.421818 421.870614 23.627273 422.802285 23.832727 423.729444 24.038182 424.652015 24.243636 425.569923 24.449091 426.483094 24.654545 427.391451 24.860000 428.294919 25.065455 429.193424 25.270909 430.086890 25.476364 430.975242 25.681818 431.858404 25.887273 432.736302 26.092727 433.608860 26.298182 434.476003 26.503636 435.337657 26.709091 436.193744 26.914545 437.044192 27.120000 437.888923 27.325455 438.727863 27.530909 439.560938 27.736364 440.388071 27.941818 441.209187 28.147273 442.024211 28.352727 442.833069 28.558182 443.635684 28.763636 444.431982 28.969091 445.221887 29.174545 446.005324 29.380000 446.782219 29.585455 447.552495 29.790909 448.316077 29.996364 449.072891 30.201818 449.822861 30.407273 450.565912 30.612727 451.301968 30.818182 452.030956 31.023636 452.752798 31.229091 453.467420 31.434545 454.174748 31.640000 454.874705 31.845455 455.567216 32.050909 456.252207 32.256364 456.929602 32.461818 457.599325 32.667273 458.261302 32.872727 458.915458 33.078182 459.561717 33.283636 460.200004 33.489091 460.830243 33.694545 461.452361 33.900000 462.066280 34.105455 462.671927 34.310909 463.269226 34.516364 463.858101 34.721818 464.438478 34.927273 465.010282 35.132727 465.573436 35.338182 466.127867 35.543636 466.673498 35.749091 467.210255 35.954545 467.738062 36.160000 468.256844 36.365455 468.766526 36.570909 469.267033 36.776364 469.758289 36.981818 470.240219 37.187273 470.712749 37.392727 471.175802 37.598182 471.629304 37.803636 472.073180 38.009091 472.507353 38.214545 472.931750 38.420000 473.346295 38.625455 473.750912 38.830909 474.145526 39.036364 474.530063 39.241818 474.904447 39.447273 475.268602 39.652727 475.622454 39.858182 475.965928 40.063636 476.298947 40.269091 476.621438 40.474545 476.933324 40.680000 477.234531 40.885455 477.524983 41.090909 477.804606 41.296364 478.073323 41.501818 478.331060 41.707273 478.577741 41.912727 478.813292 42.118182 479.037637 42.323636 479.250700 42.529091 479.452407 42.734545 479.642683 42.940000 479.821452 43.145455 479.988639 43.350909 480.144169 43.556364 480.287967 43.761818 480.419957 43.967273 480.540064 44.172727 480.648213 44.378182 480.744329 44.583636 480.828337 44.789091 480.900161 44.994545 480.959726 45.200000 481.006957 45.405455 481.041779 45.610909 481.064116 45.816364 481.073894 46.021818 481.071037 46.227273 481.055470 46.432727 481.027117 46.638182 480.985904 46.843636 480.931756 47.049091 480.864596 47.254545 480.784351 47.460000 480.690944 47.665455 480.584300 47.870909 480.464345 48.076364 480.331003 48.281818 480.184199 48.487273 480.023857 48.692727 479.849903 48.898182 479.662261 49.103636 479.460856 49.309091 479.245613 49.514545 479.016457 49.720000 478.773312 49.925455 478.516103 50.130909 478.244755 50.336364 477.959193 50.541818 477.659341 50.747273 477.345125 50.952727 477.016469 51.158182 476.673298 51.363636 476.315537 51.569091 475.943110 51.774545 475.555943 51.980000 475.153960 52.185455 474.737085 52.390909 474.305245 52.596364 473.858362 52.801818 473.396364 53.007273 472.919173 53.212727 472.426715 53.418182 471.918915 53.623636 471.395697 53.829091 470.856986 54.034545 470.302708 54.240000 469.732786 54.445455 469.147146 54.650909 468.545713 54.856364 467.928410 55.061818 467.295164 55.267273 466.645898 55.472727 465.980538 55.678182 465.299009 55.883636 464.601234 56.089091 463.887140 56.294545 463.156650 56.500000 462.409690 56.705455 461.646185 56.910909 460.866058 57.116364 460.069235 57.321818 459.255641 57.527273 458.425201 57.732727 457.577839 57.938182 456.713480 58.143636 455.832049 58.349091 454.933470 58.554545 454.017669 58.760000 453.084571 58.965455 452.134099 59.170909 451.166179 59.376364 450.180736 59.581818 449.177695 59.787273 448.156979 59.992727 447.118515 60.198182 446.062227 60.403636 444.988039 60.609091 443.895876 60.814545 442.785664 61.020000 441.657326 61.225455 440.510789 61.430909 439.345976 61.636364 438.162812 61.841818 436.961223 62.047273 435.741133 62.252727 434.502466 62.458182 433.245148 62.663636 431.969103 62.869091 430.674301 63.074545 429.360892 63.280000 428.029071 63.485455 426.679031 63.690909 425.310969 63.896364 423.925077 64.101818 422.521552 64.307273 421.100588 64.512727 419.662379 64.718182 418.207120 64.923636 416.735006 65.129091 415.246231 65.334545 413.740991 65.540000 412.219479 65.745455 410.681890 65.950909 409.128420 66.156364 407.559262 66.361818 405.974612 66.567273 404.374663 66.772727 402.759612 66.978182 401.129652 67.183636 399.484977 67.389091 397.825784 67.594545 396.152266 67.800000 394.464617 68.005455 392.763034 68.210909 391.047710 68.416364 389.318839 68.621818 387.576618 68.827273 385.821240 69.032727 384.052899 69.238182 382.271792 69.443636 380.478111 69.649091 378.672053 69.854545 376.853811 70.060000 375.023581 70.265455 373.181556 70.470909 371.327932 70.676364 369.462904 70.881818 367.586665 71.087273 365.699411 71.292727 363.801336 71.498182 361.892635 71.703636 359.973503 71.909091 358.044134 72.114545 356.104723 72.320000 354.155464 72.525455 352.196553 72.730909 350.228183 72.936364 348.250550 73.141818 346.263848 73.347273 344.268272 73.552727 342.264017 73.758182 340.251277 73.963636 338.230247 74.169091 336.201121 74.374545 334.164094 74.580000 332.119362 74.785455 330.067118 74.990909 328.007556 75.196364 325.940873 75.401818 323.867263 75.607273 321.786919 75.812727 319.700037 76.018182 317.606812 76.223636 315.507438 76.429091 313.402110 76.634545 311.291022 76.840000 309.174369 77.045455 307.052346 77.250909 304.925147 77.456364 302.792968 77.661818 300.656002 77.867273 298.514445 78.072727 296.368491 78.278182 294.218335 78.483636 292.064171 78.689091 289.906194 78.894545 287.744599 79.100000 285.579580 79.305455 283.411333 79.510909 281.240051 79.716364 279.065929 79.921818 276.889163 80.127273 274.709946 80.332727 272.528474 80.538182 270.344940 80.743636 268.159541 80.949091 265.972470 81.154545 263.783921 81.360000 261.594091 81.565455 259.403173 81.770909 257.211361 81.976364 255.018852 82.181818 252.825839 82.387273 250.632516 82.592727 248.439080 82.798182 246.245724 83.003636 244.052642 83.209091 241.860031 83.414545 239.668083 83.620000 237.476995 83.825455 235.286960 84.030909 233.098174 84.236364 230.910830 84.441818 228.725124 84.647273 226.541251 84.852727 224.359404 85.058182 222.179779 85.263636 220.002570 85.469091 217.827972 85.674545 215.656180 85.880000 213.487388 86.085455 211.321791 86.290909 209.159583 86.496364 207.000960 86.701818 204.846115 86.907273 202.695244 87.112727 200.548541 87.318182 198.406202 87.523636 196.268419 87.729091 194.135389 87.934545 192.007306 88.140000 189.884364 88.345455 187.766759 88.550909 185.654684 88.756364 183.548335 88.961818 181.447906 89.167273 179.353591 89.372727 177.265587 89.578182 175.184086 89.783636 173.109284 89.989091 171.041376 90.194545 168.980556 90.400000 166.927019 90.605455 164.880959 90.810909 162.842571 91.016364 160.812050 91.221818 158.789591 91.427273 156.775387 91.632727 154.769635 91.838182 152.772527 92.043636 150.784260 92.249091 148.805028 92.454545 146.835025 92.660000 144.874446 92.865455 142.923486 93.070909 140.982339 93.276364 139.051201 93.481818 137.130265 93.687273 135.219726 93.892727 133.319780 94.098182 131.430620 94.303636 129.552442 94.509091 127.685440 94.714545 125.829808 94.920000 123.985742 95.125455 122.153435 95.330909 120.333084 95.536364 118.524882 95.741818 116.729023 95.947273 114.945704 96.152727 113.175118 96.358182 111.417459 96.563636 109.672924 96.769091 107.941706 96.974545 106.223999 97.180000 104.520000 97.385455 102.829901 97.590909 101.153899 97.796364 99.492187 98.001818 97.844961 98.207273 96.212414 98.412727 94.594743 98.618182 92.992140 98.823636 91.404801 99.029091 89.832921 99.234545 88.276694 99.440000 86.736315 99.645455 85.211979 99.850909 83.703880 100.056364 82.212213 100.261818 80.737172 100.467273 79.278953 100.672727 77.837749 100.878182 76.413756 101.083636 75.007169 101.289091 73.618181 101.494545 72.246987 101.700000 70.893783 101.905455 69.558763 102.110909 68.242121 102.316364 66.944053 102.521818 65.664752 102.727273 64.404414 102.932727 63.163233 103.138182 61.941403 103.343636 60.739121 103.549091 59.556579 103.754545 58.393973 103.960000 57.251498 104.165455 56.129348 104.370909 55.027718 104.576364 53.946802 104.781818 52.886795 104.987273 51.847892 105.192727 50.830288 105.398182 49.834176 105.603636 48.859753 105.809091 47.907211 106.014545 46.976747 106.220000 46.068555 106.425455 45.182829 106.630909 44.319764 106.836364 43.479555 107.041818 42.662397 107.247273 41.868483 107.452727 41.098009 107.658182 40.351169 107.863636 39.628159 108.069091 38.929172 108.274545 38.254404 108.480000 37.604049 108.685455 36.978301 108.890909 36.377356 109.096364 35.801407 109.301818 35.250651 109.507273 34.725281 109.712727 34.225491 109.918182 33.751478 110.123636 33.303435 110.329091 32.881556 110.534545 32.486038 110.740000 32.117074 110.945455 31.774858 111.150909 31.459587 111.356364 31.171453 111.561818 30.910653 111.767273 30.677380 111.972727 30.471830 112.178182 30.294196 112.383636 30.144674 112.589091 30.023459 112.794545 29.930744 113.000000 29.866725 113.205455 29.831596 113.410909 29.825552 113.616364 29.848788 113.821818 29.901498 114.027273 29.983877 114.232727 30.096053 114.438182 30.237891 114.643636 30.409189 114.849091 30.609746 115.054545 30.839359 115.260000 31.097826 115.465455 31.384947 115.670909 31.700519 115.876364 32.044340 116.081818 32.416209 116.287273 32.815925 116.492727 33.243284 116.698182 33.698085 116.903636 34.180128 117.109091 34.689209 117.314545 35.225127 117.520000 35.787681 117.725455 36.376668 117.930909 36.991888 118.136364 37.633137 118.341818 38.300214 118.547273 38.992919 118.752727 39.711048 118.958182 40.454400 119.163636 41.222773 119.369091 42.015966 119.574545 42.833776 119.780000 43.676003 119.985455 44.542444 120.190909 45.432897 120.396364 46.347161 120.601818 47.285034 120.807273 48.246314 121.012727 49.230799 121.218182 50.238289 121.423636 51.268580 121.629091 52.321471 121.834545 53.396760 122.040000 54.494247 122.245455 55.613728 122.450909 56.755002 122.656364 57.917867 122.861818 59.102122 123.067273 60.307565 123.272727 61.533994 123.478182 62.781207 123.683636 64.049002 123.889091 65.337179 124.094545 66.645534 124.300000 67.973867 124.505455 69.321975 124.710909 70.689657 124.916364 72.076710 125.121818 73.482934 125.327273 74.908127 125.532727 76.352086 125.738182 77.814609 125.943636 79.295496 126.149091 80.794545 126.354545 82.311553 126.560000 83.846319 126.765455 85.398640 126.970909 86.968317 127.176364 88.555145 127.381818 90.158925 127.587273 91.779454 127.792727 93.416530 127.998182 95.069951 128.203636 96.739516 128.409091 98.425023 128.614545 100.126271 128.820000 101.843057 129.025455 103.575179 129.230909 105.322437 129.436364 107.084627 129.641818 108.861549 129.847273 110.653001 130.052727 112.458781 130.258182 114.278686 130.463636 116.112517 130.669091 117.960069 130.874545 119.821143 131.080000 121.695535 131.285455 123.583045 131.490909 125.483471 131.696364 127.396610 131.901818 129.322262 132.107273 131.260223 132.312727 133.210293 132.518182 135.172270 132.723636 137.145952 132.929091 139.131137 133.134545 141.127624 133.340000 143.135210 133.545455 145.153694 133.750909 147.182875 133.956364 149.222550 134.161818 151.272517 134.367273 153.332575 134.572727 155.402523 134.778182 157.482158 134.983636 159.571278 135.189091 161.669683 135.394545 163.777169 135.600000 165.893536 135.805455 168.018581 136.010909 170.152103 136.216364 172.293900 136.421818 174.443770 136.627273 176.601512 136.832727 178.766924 137.038182 180.939803 137.243636 183.119949 137.449091 185.307159 137.654545 187.501232 137.860000 189.701966 138.065455 191.909159 138.270909 194.122610 138.476364 196.342116 138.681818 198.567476 138.887273 200.798488 139.092727 203.034951 139.298182 205.276662 139.503636 207.523420 139.709091 209.775023 139.914545 212.031269 140.120000 214.291957 140.325455 216.556885 140.530909 218.825851 140.736364 221.098653 140.941818 223.375089 141.147273 225.654958 141.352727 227.938059 141.558182 230.224188 141.763636 232.513145 141.969091 234.804728 142.174545 237.098734 142.380000 239.394963 142.585455 241.693212 142.790909 243.993280 142.996364 246.294965 143.201818 248.598064 143.407273 250.902377 143.612727 253.207702 143.818182 255.513837 144.023636 257.820580 144.229091 260.127729 144.434545 262.435082 144.640000 264.742438 144.845455 267.049596 145.050909 269.356352 145.256364 271.662507 145.461818 273.967856 145.667273 276.272200 145.872727 278.575336 146.078182 280.877063 146.283636 283.177178 146.489091 285.475480 146.694545 287.771768 146.900000 290.065838 147.105455 292.357491 147.310909 294.646523 147.516364 296.932733 147.721818 299.215920 147.927273 301.495882 148.132727 303.772416 148.338182 306.045321 148.543636 308.314396 148.749091 310.579438 148.954545 312.840246 149.160000 315.096618 149.365455 317.348352 149.570909 319.595247 149.776364 321.837100 149.981818 324.073711 150.187273 326.304876 150.392727 328.530395 150.598182 330.750066 150.803636 332.963687 151.009091 335.171056 151.214545 337.371971 151.420000 339.566231 151.625455 341.753634 151.830909 343.933978 152.036364 346.107061 152.241818 348.272682 152.447273 350.430639 152.652727 352.580730 152.858182 354.722753 153.063636 356.856507 153.269091 358.981789 153.474545 361.098399 153.680000 363.206133 153.885455 365.304792 154.090909 367.394172 154.296364 369.474072 154.501818 371.544290 154.707273 373.604624 154.912727 375.654874 155.118182 377.694836 155.323636 379.724310 155.529091 381.743092 155.734545 383.750983 155.940000 385.747779 156.145455 387.733280 156.350909 389.707283 156.556364 391.669586 156.761818 393.619988 156.967273 395.558288 157.172727 397.484282 157.378182 399.397771 157.583636 401.298551 157.789091 403.186421 157.994545 405.061179 158.200000 406.922624 158.405455 408.770553 158.610909 410.604766 158.816364 412.425059 159.021818 414.231232 159.227273 416.023083 159.432727 417.800410 159.638182 419.563011 159.843636 421.310684 160.049091 423.043228 160.254545 424.760441 160.460000 426.462121 160.665455 428.148067 160.870909 429.818075 161.076364 431.471946 161.281818 433.109477 161.487273 434.730466 161.692727 436.334712 161.898182 437.922012 162.103636 439.492166 162.309091 441.044971 162.514545 442.580225 162.720000 444.097727 162.925455 445.597275 163.130909 447.078667 163.336364 448.541702 163.541818 449.986177 163.747273 451.411891 163.952727 452.818642 164.158182 454.206229 164.363636 455.574450 164.569091 456.923102 164.774545 458.251984 164.980000 459.560895 165.185455 460.849633 165.390909 462.117995 165.596364 463.365826 165.801818 464.593157 166.007273 465.800063 166.212727 466.986619 166.418182 468.152903 166.623636 469.298989 166.829091 470.424955 167.034545 471.530875 167.240000 472.616826 167.445455 473.682885 167.650909 474.729126 167.856364 475.755625 168.061818 476.762460 168.267273 477.749705 168.472727 478.717437 168.678182 479.665732 168.883636 480.594666 169.089091 481.504314 169.294545 482.394753 169.500000 483.266058 169.705455 484.118306 169.910909 484.951573 170.116364 485.765934 170.321818 486.561466 170.527273 487.338244 170.732727 488.096345 170.938182 488.835845 171.143636 489.556818 171.349091 490.259342 171.554545 490.943493 171.760000 491.609346 171.965455 492.256977 172.170909 492.886463 172.376364 493.497879 172.581818 494.091301 172.787273 494.666806 172.992727 495.224468 173.198182 495.764365 173.403636 496.286573 173.609091 496.791166 173.814545 497.278221 174.020000 497.747815 174.225455 498.200023 174.430909 498.634921 174.636364 499.052584 174.841818 499.453090 175.047273 499.836514 175.252727 500.202932 175.458182 500.552420 175.663636 500.885054 175.869091 501.200910 176.074545 501.500063 176.280000 501.782591 176.485455 502.048568 176.690909 502.298072 176.896364 502.531177 177.101818 502.747960 177.307273 502.948496 177.512727 503.132863 177.718182 503.301135 177.923636 503.453388 178.129091 503.589700 178.334545 503.710145 178.540000 503.814800 178.745455 503.903740 178.950909 503.977042 179.156364 504.034781 179.361818 504.077034 179.567273 504.103877 179.772727 504.115385 179.978182 504.111634 180.183636 504.092701 180.389091 504.058661 180.594545 504.009591 180.800000 503.945566 181.005455 503.866662 181.210909 503.772956 181.416364 503.664523 181.621818 503.541440 181.827273 503.403781 182.032727 503.251624 182.238182 503.085044 182.443636 502.904117 182.649091 502.708920 182.854545 502.499527 183.060000 502.276016 183.265455 502.038462 183.470909 501.786941 183.676364 501.521529 183.881818 501.242302 184.087273 500.949336 184.292727 500.642707 184.498182 500.322491 184.703636 499.988763 184.909091 499.641601 185.114545 499.281080 185.320000 498.907275 185.525455 498.520264 185.730909 498.120121 185.936364 497.706923 186.141818 497.280746 186.347273 496.841665 186.552727 496.389758 186.758182 495.925099 186.963636 495.447764 187.169091 494.957831 187.374545 494.455374 187.580000 493.940469 187.785455 493.413194 187.990909 492.873622 188.196364 492.321832 188.401818 491.757898 188.607273 491.181896 188.812727 490.593903 189.018182 489.993994 189.223636 489.382246 189.429091 488.758734 189.634545 488.123535 189.840000 487.476724 190.045455 486.818377 190.250909 486.148571 190.456364 485.467381 190.661818 484.774883 190.867273 484.071153 191.072727 483.356268 191.278182 482.630303 191.483636 481.893334 191.689091 481.145437 191.894545 480.386688 192.100000 479.617164 192.305455 478.836939 192.510909 478.046091 192.716364 477.244695 192.921818 476.432826 193.127273 475.610562 193.332727 474.777978 193.538182 473.935149 193.743636 473.082153 193.949091 472.219065 194.154545 471.345960 194.360000 470.462915 194.565455 469.570006 194.770909 468.667309 194.976364 467.754900 195.181818 466.832854 195.387273 465.901249 195.592727 464.960159 195.798182 464.009660 196.003636 463.049830 196.209091 462.080743 196.414545 461.102475 196.620000 460.115104 196.825455 459.118703 197.030909 458.113351 197.236364 457.099122 197.441818 456.076092 197.647273 455.044338 197.852727 454.003936 198.058182 452.954961 198.263636 451.897489 198.469091 450.831597 198.674545 449.757360 198.880000 448.674854 199.085455 447.584156 199.290909 446.485341 199.496364 445.378486 199.701818 444.263666 199.907273 443.140957 200.112727 442.010435 200.318182 440.872176 200.523636 439.726257 200.729091 438.572752 200.934545 437.411739 201.140000 436.243293 201.345455 435.067490 201.550909 433.884407 201.756364 432.694118 201.961818 431.496700 202.167273 430.292229 202.372727 429.080781 202.578182 427.862432 202.783636 426.637258 202.989091 425.405335 203.194545 424.166739 203.400000 422.921546 203.605455 421.669831 203.810909 420.411672 204.016364 419.147143 204.221818 417.876321 204.427273 416.599281 204.632727 415.316101 204.838182 414.026855 205.043636 412.731619 205.249091 411.430471 205.454545 410.123485 205.660000 408.810737 205.865455 407.492305 206.070909 406.168262 206.276364 404.838687 206.481818 403.503653 206.687273 402.163239 206.892727 400.817519 207.098182 399.466569 207.303636 398.110465 207.509091 396.749285 207.714545 395.383102 207.920000 394.011994 208.125455 392.636036 208.330909 391.255304 208.536364 389.869875 208.741818 388.479824 208.947273 387.085227 209.152727 385.686161 209.358182 384.282700 209.563636 382.874922 209.769091 381.462902 209.974545 380.046716 210.180000 378.626440 210.385455 377.202151 210.590909 375.773923 210.796364 374.341833 211.001818 372.905958 211.207273 371.466372 211.412727 370.023152 211.618182 368.576375 211.823636 367.126115 212.029091 365.672449 212.234545 364.215453 212.440000 362.755203 212.645455 361.291774 212.850909 359.825244 213.056364 358.355687 213.261818 356.883180 213.467273 355.407799 213.672727 353.929619 213.878182 352.448717 214.083636 350.965169 214.289091 349.479051 214.494545 347.990438 214.700000 346.499406 214.905455 345.006033 215.110909 343.510392 215.316364 342.012562 215.521818 340.512617 215.727273 339.010633 215.932727 337.506687 216.138182 336.000854 216.343636 334.493211 216.549091 332.983833 216.754545 331.472796 216.960000 329.960175 217.165455 328.446035 217.370909 326.930440 217.576364 325.413453 217.781818 323.895139 217.987273 322.375562 218.192727 320.854784 218.398182 319.332871 218.603636 317.809885 218.809091 316.285890 219.014545 314.760951 219.220000 313.235131 219.425455 311.708494 219.630909 310.181103 219.836364 308.653023 220.041818 307.124317 220.247273 305.595050 220.452727 304.065284 220.658182 302.535083 220.863636 301.004512 221.069091 299.473635 221.274545 297.942514 221.480000 296.411214 221.685455 294.879799 221.890909 293.348332 222.096364 291.816877 222.301818 290.285498 222.507273 288.754259 222.712727 287.223223 222.918182 285.692455 223.123636 284.162018 223.329091 282.631976 223.534545 281.102393 223.740000 279.573332 223.945455 278.044857 224.150909 276.517033 224.356364 274.989922 224.561818 273.463589 224.767273 271.938098 224.972727 270.413512 225.178182 268.889895 225.383636 267.367311 225.589091 265.845823 225.794545 264.325496 226.000000 262.806393 226.205455 261.288579 226.410909 259.772116 226.616364 258.257068 226.821818 256.743500 227.027273 255.231476 227.232727 253.721058 227.438182 252.212311 227.643636 250.705299 227.849091 249.200085 228.054545 247.696733 228.260000 246.195307 228.465455 244.695871 228.670909 243.198488 228.876364 241.703223 229.081818 240.210139 229.287273 238.719300 229.492727 237.230770 229.698182 235.744612 229.903636 234.260890 230.109091 232.779669 230.314545 231.301011 230.520000 229.824981 230.725455 228.351643 230.930909 226.881060 231.136364 225.413295 231.341818 223.948414 231.547273 222.486480 231.752727 221.027555 231.958182 219.571706 232.163636 218.118994 232.369091 216.669484 232.574545 215.223239 232.780000 213.780324 232.985455 212.340802 233.190909 210.904738 233.396364 209.472194 233.601818 208.043234 233.807273 206.617923 234.012727 205.196324 234.218182 203.778501 234.423636 202.364518 234.629091 200.954438 234.834545 199.548326 235.040000 198.146245 235.245455 196.748259 235.450909 195.354431 235.656364 193.964826 235.861818 192.579507 236.067273 191.198539 236.272727 189.821984 236.478182 188.449907 236.683636 187.082371 236.889091 185.719441 237.094545 184.361180 237.300000 183.007652 237.505455 181.658920 237.710909 180.315049 237.916364 178.976101 238.121818 177.642142 238.327273 176.313235 238.532727 174.989444 238.738182 173.670831 238.943636 172.357462 239.149091 171.049400 239.354545 169.746709 239.560000 168.449453 239.765455 167.157694 239.970909 165.871498 240.176364 164.590928 240.381818 163.316048 240.587273 162.046921 240.792727 160.783611 240.998182 159.526183 241.203636 158.274700 241.409091 157.029225 241.614545 155.789823 241.820000 154.556557 242.025455 153.329491 242.230909 152.108689 242.436364 150.894215 242.641818 149.686132 242.847273 148.484504 243.052727 147.289396 243.258182 146.100870 243.463636 144.918991 243.669091 143.743823 243.874545 142.575428 244.080000 141.413872 244.285455 140.259218 244.490909 139.111529 244.696364 137.970869 244.901818 136.837303 245.107273 135.710894 245.312727 134.591705 245.518182 133.479801 245.723636 132.375246 245.929091 131.278102 246.134545 130.188435 246.340000 129.106307 246.545455 128.031783 246.750909 126.964926 246.956364 125.905801 247.161818 124.854470 247.367273 123.810998 247.572727 122.775448 247.778182 121.747885 247.983636 120.728372 248.189091 119.716972 248.394545 118.713751 248.600000 117.718771 248.805455 116.732096 249.010909 115.753790 249.216364 114.783917 249.421818 113.822541 249.627273 112.869725 249.832727 111.925533 250.038182 110.990030 250.243636 110.063278 250.449091 109.145342 250.654545 108.236285 250.860000 107.336171 251.065455 106.445064 251.270909 105.563029 251.476364 104.690127 251.681818 103.826424 251.887273 102.971984 252.092727 102.126869 252.298182 101.291144 252.503636 100.464872 252.709091 99.648118 252.914545 98.840945 253.120000 98.043417 253.325455 97.255597 253.530909 96.477550 253.736364 95.709340 253.941818 94.951029 254.147273 94.202682 254.352727 93.464363 254.558182 92.736136 254.763636 92.018063 254.969091 91.310210 255.174545 90.612640 255.380000 89.925416 255.585455 89.248603 255.790909 88.582264 255.996364 87.926463 256.201818 87.281263 256.407273 86.646730 256.612727 86.022925 256.818182 85.409914 257.023636 84.807760 257.229091 84.216527 257.434545 83.636278 257.640000 83.067078 257.845455 82.508989 258.050909 81.962077 258.256364 81.426405 258.461818 80.902036 258.667273 80.389034 258.872727 79.887463 259.078182 79.397388 259.283636 78.918871 259.489091 78.451976 259.694545 77.996768 259.900000 77.553310 260.105455 77.121666 260.310909 76.701899 260.516364 76.294074 260.721818 75.898254 260.927273 75.514504 261.132727 75.142886 261.338182 74.783464 261.543636 74.436303 261.749091 74.101467 261.954545 73.779018 262.160000 73.469021 262.365455 73.171540 262.570909 72.886638 262.776364 72.614380 262.981818 72.354828 263.187273 72.108047 263.392727 71.874101 263.598182 71.653053 263.803636 71.444967 264.009091 71.249907 264.214545 71.067937 264.420000 70.899120 264.625455 70.743521 264.830909 70.601203 265.036364 70.472230 265.241818 70.356665 265.447273 70.254573 265.652727 70.166017 265.858182 70.091062 266.063636 70.029770 266.269091 69.982206 266.474545 69.948433 266.680000 69.928516 266.885455 69.922517 267.090909 69.930502 267.296364 69.952533 267.501818 69.988674 267.707273 70.038990 267.912727 70.103544 268.118182 70.182399 268.323636 70.275591 268.529091 70.383033 268.734545 70.504610 268.940000 70.640208 269.145455 70.789711 269.350909 70.953005 269.556364 71.129974 269.761818 71.320503 269.967273 71.524478 270.172727 71.741783 270.378182 71.972303 270.583636 72.215923 270.789091 72.472528 270.994545 72.742003 271.200000 73.024234 271.405455 73.319104 271.610909 73.626499 271.816364 73.946304 272.021818 74.278404 272.227273 74.622684 272.432727 74.979028 272.638182 75.347322 272.843636 75.727451 273.049091 76.119300 273.254545 76.522753 273.460000 76.937696 273.665455 77.364013 273.870909 77.801589 274.076364 78.250311 274.281818 78.710061 274.487273 79.180726 274.692727 79.662190 274.898182 80.154338 275.103636 80.657056 275.309091 81.170228 275.514545 81.693738 275.720000 82.227473 275.925455 82.771317 276.130909 83.325155 276.336364 83.888872 276.541818 84.462353 276.747273 85.045483 276.952727 85.638147 277.158182 86.240229 277.363636 86.851615 277.569091 87.472190 277.774545 88.101839 277.980000 88.740446 278.185455 89.387897 278.390909 90.044076 278.596364 90.708869 278.801818 91.382160 279.007273 92.063835 279.212727 92.753778 279.418182 93.451875 279.623636 94.158009 279.829091 94.872067 280.034545 95.593934 280.240000 96.323493 280.445455 97.060630 280.650909 97.805231 280.856364 98.557180 281.061818 99.316361 281.267273 100.082661 281.472727 100.855963 281.678182 101.636154 281.883636 102.423117 282.089091 103.216738 282.294545 104.016902 282.500000 104.823493 282.705455 105.636398 282.910909 106.455499 283.116364 107.280684 283.321818 108.111836 283.527273 108.948840 283.732727 109.791582 283.938182 110.639946 284.143636 111.493818 284.349091 112.353082 284.554545 113.217623 284.760000 114.087327 284.965455 114.962078 285.170909 115.841761 285.376364 116.726261 285.581818 117.615463 285.787273 118.509252 285.992727 119.407513 286.198182 120.310131 286.403636 121.216991 286.609091 122.127978 286.814545 123.042977 287.020000 123.961872 287.225455 124.884550 287.430909 125.810894 287.636364 126.740789 287.841818 127.674122 288.047273 128.610776 288.252727 129.550636 288.458182 130.493588 288.663636 131.439516 288.869091 132.388306 289.074545 133.339842 289.280000 134.294010 289.485455 135.250693 289.690909 136.209778 289.896364 137.171150 290.101818 138.134692 290.307273 139.100290 290.512727 140.067830 290.718182 141.037196 290.923636 142.008272 291.129091 142.980945 291.334545 143.955098 291.540000 144.930618 291.745455 145.907388 291.950909 146.885294 292.156364 147.864220 292.361818 148.844053 292.567273 149.824676 292.772727 150.805974 292.978182 151.787834 293.183636 152.770139 293.389091 153.752774 293.594545 154.735625 293.800000 155.718576 294.005455 156.701512 294.210909 157.684319 294.416364 158.666881 294.621818 159.649083 294.827273 160.630811 295.032727 161.611949 295.238182 162.592382 295.443636 163.571995 295.649091 164.550672 295.854545 165.528300 296.060000 166.504763 296.265455 167.479946 296.470909 168.453734 296.676364 169.426011 296.881818 170.396663 297.087273 171.365575 297.292727 172.332632 297.498182 173.297719 297.703636 174.260719 297.909091 175.221520 298.114545 176.180005 298.320000 177.136060 298.525455 178.089569 298.730909 179.040417 298.936364 179.988490 299.141818 180.933672 299.347273 181.875848 299.552727 182.814904 299.758182 183.750724 299.963636 184.683193 300.169091 185.612196 300.374545 186.537618 300.580000 187.459344 300.785455 188.377259 300.990909 189.291248 301.196364 190.201196 301.401818 191.106988 301.607273 192.008509 301.812727 192.905644 302.018182 193.798277 302.223636 194.686294 302.429091 195.569579 302.634545 196.448018 302.840000 197.321496 303.045455 198.189897 303.250909 199.053107 303.456364 199.911010 303.661818 200.763492 303.867273 201.610437 304.072727 202.451730 304.278182 203.287257 304.483636 204.116901 304.689091 204.940549 304.894545 205.758086 305.100000 206.569395 305.305455 207.374362 305.510909 208.172872 305.716364 208.964811 305.921818 209.750062 306.127273 210.528511 306.332727 211.300043 306.538182 212.064543 306.743636 212.821896 306.949091 213.571986 307.154545 214.314699 307.360000 215.049920 307.565455 215.777533 307.770909 216.497424 307.976364 217.209477 308.181818 217.913578 308.387273 218.609611 308.592727 219.297462 308.798182 219.977015 309.003636 220.648155 309.209091 221.310768 309.414545 221.964738 309.620000 222.609950 309.825455 223.246289 310.030909 223.873640 310.236364 224.491888 310.441818 225.100919 310.647273 225.700616 310.852727 226.290865 311.058182 226.871552 311.263636 227.442560 311.469091 228.003774 311.674545 228.555081 311.880000 229.096364 312.085455 229.627509 312.290909 230.148401 312.496364 230.658924 312.701818 231.158964 312.907273 231.648406 313.112727 232.127133 313.318182 232.595033 313.523636 233.051988 313.729091 233.497885 313.934545 233.932609 314.140000 234.356043 314.345455 234.768074 314.550909 235.168586 314.756364 235.557464 314.961818 235.934593 315.167273 236.299859 315.372727 236.653145 315.578182 236.994337 315.783636 237.323321 315.989091 237.639980 316.194545 237.944200 316.400000 238.235865 316.605455 238.514862 316.810909 238.781074 317.016364 239.034387 317.221818 239.274686 317.427273 239.501855 317.632727 239.715780 317.838182 239.916345 318.043636 240.103436 318.249091 240.276937 318.454545 240.436733 318.660000 240.582710 318.865455 240.714752 319.070909 240.832745 319.276364 240.936573 319.481818 241.026120 319.687273 241.101310 319.892727 241.162212 320.098182 241.208934 320.303636 241.241581 320.509091 241.260261 320.714545 241.265081 320.920000 241.256147 321.125455 241.233568 321.330909 241.197449 321.536364 241.147897 321.741818 241.085021 321.947273 241.008926 322.152727 240.919719 322.358182 240.817508 322.563636 240.702399 322.769091 240.574499 322.974545 240.433916 323.180000 240.280756 323.385455 240.115126 323.590909 239.937133 323.796364 239.746885 324.001818 239.544487 324.207273 239.330047 324.412727 239.103672 324.618182 238.865469 324.823636 238.615544 325.029091 238.354006 325.234545 238.080959 325.440000 237.796513 325.645455 237.500773 325.850909 237.193847 326.056364 236.875841 326.261818 236.546862 326.467273 236.207018 326.672727 235.856415 326.878182 235.495160 327.083636 235.123360 327.289091 234.741123 327.494545 234.348554 327.700000 233.945762 327.905455 233.532852 328.110909 233.109932 328.316364 232.677109 328.521818 232.234490 328.727273 231.782182 328.932727 231.320291 329.138182 230.848925 329.343636 230.368190 329.549091 229.878194 329.754545 229.379044 329.960000 228.870846 330.165455 228.353707 330.370909 227.827734 330.576364 227.293035 330.781818 226.749715 330.987273 226.197883 331.192727 225.637645 331.398182 225.069108 331.603636 224.492379 331.809091 223.907565 332.014545 223.314772 332.220000 222.714109 332.425455 222.105681 332.630909 221.489596 332.836364 220.865960 333.041818 220.234881 333.247273 219.596466 333.452727 218.950821 333.658182 218.298053 333.863636 217.638270 334.069091 216.971577 334.274545 216.298084 334.480000 215.617895 334.685455 214.931119 334.890909 214.237861 335.096364 213.538230 335.301818 212.832331 335.507273 212.120273 335.712727 211.402161 335.918182 210.678103 336.123636 209.948206 336.329091 209.212576 336.534545 208.471321 336.740000 207.724548 336.945455 206.972363 337.150909 206.214874 337.356364 205.452187 337.561818 204.684409 337.767273 203.911648 337.972727 203.134010 338.178182 202.351602 338.383636 201.564532 338.589091 200.772905 338.794545 199.976829 339.000000 199.176412 339.205455 198.371759 339.410909 197.562978 339.616364 196.750176 339.821818 195.933460 340.027273 195.112936 340.232727 194.288712 340.438182 193.460895 340.643636 192.629591 340.849091 191.794907 341.054545 190.956951 341.260000 190.115830 341.465455 189.271649 341.670909 188.424517 341.876364 187.574540 342.081818 186.721826 342.287273 185.866480 342.492727 185.008610 342.698182 184.148324 342.903636 183.285727 343.109091 182.420927 343.314545 181.554031 343.520000 180.685146 343.725455 179.814378 343.930909 178.941835 344.136364 178.067624 344.341818 177.191851 344.547273 176.314624 344.752727 175.436049 344.958182 174.556233 345.163636 173.675284 345.369091 172.793308 345.574545 171.910412 345.780000 171.026704 345.985455 170.142289 346.190909 169.257276 346.396364 168.371770 346.601818 167.485880 346.807273 166.599711 347.012727 165.713371 347.218182 164.826967 347.423636 163.940606 347.629091 163.054394 347.834545 162.168439 348.040000 161.282847 348.245455 160.397726 348.450909 159.513183 348.656364 158.629323 348.861818 157.746256 349.067273 156.864086 349.272727 155.982921 349.478182 155.102869 349.683636 154.224036 349.889091 153.346529 350.094545 152.470455 350.300000 151.595921 350.505455 150.723033 350.710909 149.851900 350.916364 148.982627 351.121818 148.115322 351.327273 147.250092 351.532727 146.387043 351.738182 145.526283 351.943636 144.667918 352.149091 143.812056 352.354545 142.958803 352.560000 142.108267 352.765455 141.260554 352.970909 140.415771 353.176364 139.574025 353.381818 138.735423 353.587273 137.900073 353.792727 137.068080 353.998182 136.239553 354.203636 135.414597 354.409091 134.593320 354.614545 133.775829 354.820000 132.962230 355.025455 132.152632 355.230909 131.347140 355.436364 130.545861 355.641818 129.748903 355.847273 128.956372 356.052727 128.168376 356.258182 127.385021 356.463636 126.606415 356.669091 125.832664 356.874545 125.063875 357.080000 124.300155 357.285455 123.541611 357.490909 122.788350 357.696364 122.040479 357.901818 121.298105 358.107273 120.561335 358.312727 119.830275 358.518182 119.105034 358.723636 118.385717 358.929091 117.672431 359.134545 116.965285 359.340000 116.264383 359.545455 115.569835 359.750909 114.881745 359.956364 114.200222 360.161818 113.525373 360.367273 112.857303 360.572727 112.196121 360.778182 111.541933 360.983636 110.894846 361.189091 110.254967 361.394545 109.622403 361.600000 108.997261 361.805455 108.379647 362.010909 107.769670 362.216364 107.167435 362.421818 106.573050 362.627273 105.986622 362.832727 105.408257 363.038182 104.838063 363.243636 104.276146 363.449091 103.722614 363.654545 103.177573 363.860000 102.641130 364.065455 102.113392 364.270909 101.594467 364.476364 101.084461 364.681818 100.583481 364.887273 100.091634 365.092727 99.609027 365.298182 99.135767 365.503636 98.671961 365.709091 98.217716 365.914545 97.773138 366.120000 97.338335 366.325455 96.913414 366.530909 96.498481 366.736364 96.093644 366.941818 95.699009 367.147273 95.314684 367.352727 94.940775 367.558182 94.577390 367.763636 94.224635 367.969091 93.882617 368.174545 93.551443 368.380000 93.231220 368.585455 92.922055 368.790909 92.624056 368.996364 92.337328 369.201818 92.061979 369.407273 91.798116 369.612727 91.545845 369.818182 91.305275 370.023636 91.076511 370.229091 90.859661 370.434545 90.654831 370.640000 90.462128 370.845455 90.281661 371.050909 90.113501 371.256364 89.957595 371.461818 89.813852 371.667273 89.682183 371.872727 89.562501 372.078182 89.454715 372.283636 89.358737 372.489091 89.274478 372.694545 89.201849 372.900000 89.140761 373.105455 89.091126 373.310909 89.052854 373.516364 89.025856 373.721818 89.010044 373.927273 89.005328 374.132727 89.011620 374.338182 89.028831 374.543636 89.056872 374.749091 89.095654 374.954545 89.145088 375.160000 89.205084 375.365455 89.275556 375.570909 89.356412 375.776364 89.447565 375.981818 89.548925 376.187273 89.660404 376.392727 89.781913 376.598182 89.913362 376.803636 90.054663 377.009091 90.205727 377.214545 90.366465 377.420000 90.536788 377.625455 90.716607 377.830909 90.905834 378.036364 91.104379 378.241818 91.312153 378.447273 91.529068 378.652727 91.755034 378.858182 91.989964 379.063636 92.233767 379.269091 92.486354 379.474545 92.747638 379.680000 93.017529 379.885455 93.295938 380.090909 93.582776 380.296364 93.877955 380.501818 94.181385 380.707273 94.492977 380.912727 94.812643 381.118182 95.140294 381.323636 95.475840 381.529091 95.819193 381.734545 96.170265 381.940000 96.528965 382.145455 96.895205 382.350909 97.268896 382.556364 97.649950 382.761818 98.038277 382.967273 98.433789 383.172727 98.836396 383.378182 99.246009 383.583636 99.662541 383.789091 100.085901 383.994545 100.516001 384.200000 100.952752 384.405455 101.396065 384.610909 101.845851 384.816364 102.302022 385.021818 102.764488 385.227273 103.233160 385.432727 103.707950 385.638182 104.188768 385.843636 104.675526 386.049091 105.168134 386.254545 105.666505 386.460000 106.170548 386.665455 106.680176 386.870909 107.195298 387.076364 107.715827 387.281818 108.241673 387.487273 108.772748 387.692727 109.308961 387.898182 109.850226 388.103636 110.396452 388.309091 110.947551 388.514545 111.503433 388.720000 112.064011 388.925455 112.629194 389.130909 113.198895 389.336364 113.773023 389.541818 114.351491 389.747273 114.934209 389.952727 115.521089 390.158182 116.112041 390.363636 116.706977 390.569091 117.305807 390.774545 117.908443 390.980000 118.514796 391.185455 119.124777 391.390909 119.738297 391.596364 120.355267 391.801818 120.975598 392.007273 121.599202 392.212727 122.225989 392.418182 122.855870 392.623636 123.488757 392.829091 124.124560 393.034545 124.763192 393.240000 125.404562 393.445455 126.048582 393.650909 126.695163 393.856364 127.344216 394.061818 127.995652 394.267273 128.649382 394.472727 129.305318 394.678182 129.963370 394.883636 130.623450 395.089091 131.285468 395.294545 131.949336 395.500000 132.614965 395.705455 133.282266 395.910909 133.951149 396.116364 134.621527 396.321818 135.293309 396.527273 135.966408 396.732727 136.640734 396.938182 137.316199 397.143636 137.992713 397.349091 138.670188 397.554545 139.348534 397.760000 140.027663 397.965455 140.707485 398.170909 141.387913 398.376364 142.068857 398.581818 142.750228 398.787273 143.431936 398.992727 144.113895 399.198182 144.796013 399.403636 145.478203 399.609091 146.160375 399.814545 146.842441 400.020000 147.524312 400.225455 148.205899 400.430909 148.887112 400.636364 149.567863 400.841818 150.248064 401.047273 150.927624 401.252727 151.606456 401.458182 152.284470 401.663636 152.961577 401.869091 153.637689 402.074545 154.312716 402.280000 154.986571 402.485455 155.659162 402.690909 156.330403 402.896364 157.000203 403.101818 157.668475 403.307273 158.335129 403.512727 159.000075 403.718182 159.663226 403.923636 160.324493 404.129091 160.983786 404.334545 161.641016 404.540000 162.296095 404.745455 162.948933 404.950909 163.599443 405.156364 164.247534 405.361818 164.893118 405.567273 165.536107 405.772727 166.176410 405.978182 166.813940 406.183636 167.448607 406.389091 168.080322 406.594545 168.708997 406.800000 169.334542 407.005455 169.956869 407.210909 170.575889 407.416364 171.191513 407.621818 171.803651 407.827273 172.412216 408.032727 173.017117 408.238182 173.618267 408.443636 174.215576 408.649091 174.808956 408.854545 175.398317 409.060000 175.983570 409.265455 176.564627 409.470909 177.141399 409.676364 177.713796 409.881818 178.281731 410.087273 178.845113 410.292727 179.403854 410.498182 179.957866 410.703636 180.507059 410.909091 181.051344 411.114545 181.590632 411.320000 182.124835 411.525455 182.653864 411.730909 183.177629 411.936364 183.696042 412.141818 184.209014 412.347273 184.716455 412.552727 185.218278 412.758182 185.714393 412.963636 186.204711 413.169091 186.689143 413.374545 187.167601 413.580000 187.639995 413.785455 188.106236 413.990909 188.566237 414.196364 189.019907 414.401818 189.467157 414.607273 189.907900 414.812727 190.342046 415.018182 190.769505 415.223636 191.190190 415.429091 191.604011 415.634545 192.010879 415.840000 192.410706 416.045455 192.803402 416.250909 193.188879 416.456364 193.567048 416.661818 193.937819 416.867273 194.301104 417.072727 194.656814 417.278182 195.004860 417.483636 195.345153 417.689091 195.677605 417.894545 196.002125 418.100000 196.318626 418.305455 196.627019 418.510909 196.927214 418.716364 197.219122 418.921818 197.502656 419.127273 197.777725 419.332727 198.044241 419.538182 198.302115 419.743636 198.551258 419.949091 198.791581 420.154545 199.022996 420.360000 199.245413 420.565455 199.458743 420.770909 199.662897 420.976364 199.857788 421.181818 200.043325 421.387273 200.219419 421.592727 200.385983 421.798182 200.542927 422.003636 200.690161 422.209091 200.827598 422.414545 200.955173 422.620000 201.072925 422.825455 201.180917 423.030909 201.279213 423.236364 201.367875 423.441818 201.446969 423.647273 201.516556 423.852727 201.576701 424.058182 201.627467 424.263636 201.668917 424.469091 201.701115 424.674545 201.724125 424.880000 201.738009 425.085455 201.742832 425.290909 201.738656 425.496364 201.725546 425.701818 201.703565 425.907273 201.672776 426.112727 201.633242 426.318182 201.585028 426.523636 201.528196 426.729091 201.462810 426.934545 201.388934 427.140000 201.306631 427.345455 201.215964 427.550909 201.116998 427.756364 201.009794 427.961818 200.894418 428.167273 200.770932 428.372727 200.639400 428.578182 200.499886 428.783636 200.352452 428.989091 200.197162 429.194545 200.034080 429.400000 199.863270 429.605455 199.684794 429.810909 199.498716 430.016364 199.305100 430.221818 199.104009 430.427273 198.895507 430.632727 198.679656 430.838182 198.456521 431.043636 198.226165 431.249091 197.988652 431.454545 197.744045 431.660000 197.492406 431.865455 197.233801 432.070909 196.968292 432.276364 196.695943 432.481818 196.416818 432.687273 196.130979 432.892727 195.838490 433.098182 195.539415 433.303636 195.233817 433.509091 194.921760 433.714545 194.603306 433.920000 194.278521 434.125455 193.947466 434.330909 193.610206 434.536364 193.266805 434.741818 192.917324 434.947273 192.561828 435.152727 192.200381 435.358182 191.833046 435.563636 191.459886 435.769091 191.080965 435.974545 190.696346 436.180000 190.306093 436.385455 189.910270 436.590909 189.508938 436.796364 189.102164 437.001818 188.690008 437.207273 188.272536 437.412727 187.849811 437.618182 187.421895 437.823636 186.988853 438.029091 186.550749 438.234545 186.107644 438.440000 185.659604 438.645455 185.206691 438.850909 184.748969 439.056364 184.286501 439.261818 183.819351 439.467273 183.347582 439.672727 182.871258 439.878182 182.390443 440.083636 181.905199 440.289091 181.415590 440.494545 180.921680 440.700000 180.423532 440.905455 179.921210 441.110909 179.414777 441.316364 178.904296 441.521818 178.389832 441.727273 177.871447 441.932727 177.349204 442.138182 176.823169 442.343636 176.293403 442.549091 175.759970 442.754545 175.222935 442.960000 174.682360 443.165455 174.138308 443.370909 173.590844 443.576364 173.040030 443.781818 172.485931 443.987273 171.928609 444.192727 171.368129 444.398182 170.804553 444.603636 170.237945 444.809091 169.668369 445.014545 169.095888 445.220000 168.520565 445.425455 167.942465 445.630909 167.361649 445.836364 166.778183 446.041818 166.192129 446.247273 165.603551 446.452727 165.012512 446.658182 164.419076 446.863636 163.823306 447.069091 163.225266 447.274545 162.625020 447.480000 162.022630 447.685455 161.418160 447.890909 160.811673 448.096364 160.203234 448.301818 159.592906 448.507273 158.980751 448.712727 158.366834 448.918182 157.751218 449.123636 157.133966 449.329091 156.515143 449.534545 155.894810 449.740000 155.273033 449.945455 154.649874 450.150909 154.025397 450.356364 153.399665 450.561818 152.772741 450.767273 152.144690 450.972727 151.515575 451.178182 150.885459 451.383636 150.254405 451.589091 149.622478 451.794545 148.989740 452.000000 148.356255 452.205455 147.722087 452.410909 147.087299 452.616364 146.451954 452.821818 145.816116 453.027273 145.179849 453.232727 144.543215 453.438182 143.906279 453.643636 143.269103 453.849091 142.631752 454.054545 141.994289 454.260000 141.356777 454.465455 140.719279 454.670909 140.081860 454.876364 139.444582 455.081818 138.807510 455.287273 138.170706 455.492727 137.534234 455.698182 136.898158 455.903636 136.262541 456.109091 135.627446 456.314545 134.992937 456.520000 134.359078 456.725455 133.725931 456.930909 133.093561 457.136364 132.462030 457.341818 131.831403 457.547273 131.201743 457.752727 130.573113 457.958182 129.945577 458.163636 129.319197 458.369091 128.694039 458.574545 128.070165 458.780000 127.447638 458.985455 126.826522 459.190909 126.206881 459.396364 125.588778 459.601818 124.972276 459.807273 124.357439 460.012727 123.744331 460.218182 123.133015 460.423636 122.523554 460.629091 121.916012 460.834545 121.310452 461.040000 120.706938 461.245455 120.105533 461.450909 119.506301 461.656364 118.909305 461.861818 118.314609 462.067273 117.722276 462.272727 117.132369 462.478182 116.544953 462.683636 115.960090 462.889091 115.377844 463.094545 114.798279 463.300000 114.221457 463.505455 113.647444 463.710909 113.076301 463.916364 112.508092 464.121818 111.942881 464.327273 111.380732 464.532727 110.821707 464.738182 110.265871 464.943636 109.713286 465.149091 109.164017 465.354545 108.618126 465.560000 108.075677 465.765455 107.536734 465.970909 107.001360 466.176364 106.469619 466.381818 105.941574 466.587273 105.417288 466.792727 104.896825 466.998182 104.380249 467.203636 103.867622 467.409091 103.359009 467.614545 102.854473 467.820000 102.354077 468.025455 101.857885 468.230909 101.365960 468.436364 100.878366 468.641818 100.395166 468.847273 99.916424 469.052727 99.442203 469.258182 98.972567 469.463636 98.507579 469.669091 98.047302 469.874545 97.591800 470.080000 97.141137 470.285455 96.695376 470.490909 96.254580 470.696364 95.818814 470.901818 95.388139 471.107273 94.962621 471.312727 94.542322 471.518182 94.127305 471.723636 93.717635 471.929091 93.313375 472.134545 92.914588 472.340000 92.521338 472.545455 92.133687 472.750909 91.751701 472.956364 91.375441 473.161818 91.004973 473.367273 90.640358 473.572727 90.281661 473.778182 89.928927 473.983636 89.582138 474.189091 89.241254 474.394545 88.906238 474.600000 88.577053 474.805455 88.253660 475.010909 87.936023 475.216364 87.624103 475.421818 87.317864 475.627273 87.017267 475.832727 86.722274 476.038182 86.432849 476.243636 86.148953 476.449091 85.870549 476.654545 85.597600 476.860000 85.330067 477.065455 85.067913 477.270909 84.811100 477.476364 84.559592 477.681818 84.313349 477.887273 84.072335 478.092727 83.836512 478.298182 83.605842 478.503636 83.380288 478.709091 83.159812 478.914545 82.944376 479.120000 82.733943 479.325455 82.528476 479.530909 82.327936 479.736364 82.132285 479.941818 81.941487 480.147273 81.755504 480.352727 81.574298 480.558182 81.397831 480.763636 81.226066 480.969091 81.058965 481.174545 80.896491 481.380000 80.738606 481.585455 80.585272 481.790909 80.436452 481.996364 80.292108 482.201818 80.152202 482.407273 80.016697 482.612727 79.885555 482.818182 79.758739 483.023636 79.636211 483.229091 79.517933 483.434545 79.403868 483.640000 79.293978 483.845455 79.188226 484.050909 79.086573 484.256364 78.988982 484.461818 78.895417 484.667273 78.805838 484.872727 78.720208 485.078182 78.638490 485.283636 78.560647 485.489091 78.486639 485.694545 78.416431 485.900000 78.349984 486.105455 78.287260 486.310909 78.228223 486.516364 78.172833 486.721818 78.121055 486.927273 78.072850 487.132727 78.028180 487.338182 77.987008 487.543636 77.949296 487.749091 77.915007 487.954545 77.884103 488.160000 77.856546 488.365455 77.832299 488.570909 77.811324 488.776364 77.793584 488.981818 77.779041 489.187273 77.767657 489.392727 77.759394 489.598182 77.754216 489.803636 77.752083 490.009091 77.752960 490.214545 77.756808 490.420000 77.763589 490.625455 77.773266 490.830909 77.785802 491.036364 77.801158 491.241818 77.819297 491.447273 77.840182 491.652727 77.863774 491.858182 77.890037 492.063636 77.918932 492.269091 77.950422 492.474545 77.984470 492.680000 78.021037 492.885455 78.060086 493.090909 78.101579 493.296364 78.145479 493.501818 78.191749 493.707273 78.240350 493.912727 78.291245 494.118182 78.344396 494.323636 78.399766 494.529091 78.457317 494.734545 78.517011 494.940000 78.578812 495.145455 78.642680 495.350909 78.708579 495.556364 78.776471 495.761818 78.846319 495.967273 78.918084 496.172727 78.991729 496.378182 79.067216 496.583636 79.144509 496.789091 79.223568 496.994545 79.304357 497.200000 79.386838 497.405455 79.470974 497.610909 79.556726 497.816364 79.644057 498.021818 79.732930 498.227273 79.823307 498.432727 79.915150 498.638182 80.008421 498.843636 80.103083 499.049091 80.199099 499.254545 80.296431 499.460000 80.395040 499.665455 80.494890 499.870909 80.595943 500.076364 80.698162 500.281818 80.801507 500.487273 80.905943 500.692727 81.011431 500.898182 81.117934 501.103636 81.225414 501.309091 81.333834 501.514545 81.443155 501.720000 81.553341 501.925455 81.664353 502.130909 81.776155 502.336364 81.888708 502.541818 82.001974 502.747273 82.115917 502.952727 82.230498 503.158182 82.345680 503.363636 82.461425 503.569091 82.577696 503.774545 82.694455 503.980000 82.811664 504.185455 82.929287 504.390909 83.047284 504.596364 83.165619 504.801818 83.284253 505.007273 83.403150 505.212727 83.522272 505.418182 83.641581 505.623636 83.761039 505.829091 83.880609 506.034545 84.000253 506.240000 84.119934 506.445455 84.239613 506.650909 84.359254 506.856364 84.478819 507.061818 84.598269 507.267273 84.717569 507.472727 84.836678 507.678182 84.955561 507.883636 85.074180 508.089091 85.192497 508.294545 85.310473 508.500000 85.428073 508.705455 85.545258 508.910909 85.661990 509.116364 85.778232 509.321818 85.893946 509.527273 86.009094 509.732727 86.123640 509.938182 86.237545 510.143636 86.350772 510.349091 86.463282 510.554545 86.575040 510.760000 86.686006 510.965455 86.796143 511.170909 86.905414 511.376364 87.013781 511.581818 87.121206 511.787273 87.227652 511.992727 87.333081 512.198182 87.437455 512.403636 87.540738 512.609091 87.642890 512.814545 87.743875 513.020000 87.843655 513.225455 87.942193 513.430909 88.039450 513.636364 88.135390 513.841818 88.229973 514.047273 88.323164 514.252727 88.414924 514.458182 88.505216 514.663636 88.594001 514.869091 88.681243 515.074545 88.766904 515.280000 88.850946 515.485455 88.933331 515.690909 89.014023 515.896364 89.092982 516.101818 89.170172 516.307273 89.245555 516.512727 89.319094 516.718182 89.390750 516.923636 89.460487 517.129091 89.528266 517.334545 89.594050 517.540000 89.657801 517.745455 89.719482 517.950909 89.779054 518.156364 89.836482 518.361818 89.891726 518.567273 89.944749 518.772727 89.995514 518.978182 90.043982 519.183636 90.090117 519.389091 90.133881 519.594545 90.175236 519.800000 90.214144 520.005455 90.250568 520.210909 90.284470 520.416364 90.315812 520.621818 90.344558 520.827273 90.370669 521.032727 90.394107 521.238182 90.414836 521.443636 90.432817 521.649091 90.448013 521.854545 90.460386 522.060000 90.469898 522.265455 90.476513 522.470909 90.480192 522.676364 90.480897 522.881818 90.478592 523.087273 90.473238 523.292727 90.464798 523.498182 90.453234 523.703636 90.438509 523.909091 90.420585 524.114545 90.399424 524.320000 90.374988 524.525455 90.347241 524.730909 90.316144 524.936364 90.281661 525.141818 90.243761 525.347273 90.202449 525.552727 90.157741 525.758182 90.109649 525.963636 90.058186 526.169091 90.003368 526.374545 89.945207 526.580000 89.883717 526.785455 89.818912 526.990909 89.750805 527.196364 89.679411 527.401818 89.604742 527.607273 89.526813 527.812727 89.445638 528.018182 89.361229 528.223636 89.273601 528.429091 89.182768 528.634545 89.088742 528.840000 88.991539 529.045455 88.891171 529.250909 88.787652 529.456364 88.680996 529.661818 88.571217 529.867273 88.458328 530.072727 88.342343 530.278182 88.223275 530.483636 88.101139 530.689091 87.975948 530.894545 87.847716 531.100000 87.716457 531.305455 87.582184 531.510909 87.444910 531.716364 87.304650 531.921818 87.161418 532.127273 87.015226 532.332727 86.866089 532.538182 86.714021 532.743636 86.559034 532.949091 86.401144 533.154545 86.240363 533.360000 86.076705 533.565455 85.910183 533.770909 85.740813 533.976364 85.568607 534.181818 85.393579 534.387273 85.215742 534.592727 85.035111 534.798182 84.851699 535.003636 84.665520 535.209091 84.476587 535.414545 84.284914 535.620000 84.090515 535.825455 83.893404 536.030909 83.693594 536.236364 83.491099 536.441818 83.285933 536.647273 83.078109 536.852727 82.867641 537.058182 82.654543 537.263636 82.438829 537.469091 82.220511 537.674545 81.999605 537.880000 81.776123 538.085455 81.550079 538.290909 81.321487 538.496364 81.090361 538.701818 80.856714 538.907273 80.620561 539.112727 80.381914 539.318182 80.140787 539.523636 79.897195 539.729091 79.651151 539.934545 79.402668 540.140000 79.151760 540.345455 78.898442 540.550909 78.642726 540.756364 78.384626 540.961818 78.124156 541.167273 77.861331 541.372727 77.596162 541.578182 77.328665 541.783636 77.058853 541.989091 76.786739 542.194545 76.512337 542.400000 76.235662 542.605455 75.956726 542.810909 75.675543 543.016364 75.392127 543.221818 75.106492 543.427273 74.818652 543.632727 74.528620 543.838182 74.236409 544.043636 73.942034 544.249091 73.645509 544.454545 73.346846 544.660000 73.046060 544.865455 72.743164 545.070909 72.438173 545.276364 72.131099 545.481818 71.821956 545.687273 71.510759 545.892727 71.197520 546.098182 70.882254 546.303636 70.564974 546.509091 70.245694 546.714545 69.924428 546.920000 69.601189 547.125455 69.275991 547.330909 68.948848 547.536364 68.619773 547.741818 68.288781 547.947273 67.955884 548.152727 67.621097 548.358182 67.284433 548.563636 66.945906 548.769091 66.605529 548.974545 66.263317 549.180000 65.919283 549.385455 65.573440 549.590909 65.225803 549.796364 64.876385 550.001818 64.525200 550.207273 64.172261 550.412727 63.817583 550.618182 63.461179 550.823636 63.103062 551.029091 62.743246 551.234545 62.381746 551.440000 62.018574 551.645455 61.653744 551.850909 61.287271 552.056364 60.919168 552.261818 60.549447 552.467273 60.178125 552.672727 59.805213 552.878182 59.430725 553.083636 59.054676 553.289091 58.677079 553.494545 58.297948 553.700000 57.917296 553.905455 57.535137 554.110909 57.151485 554.316364 56.766354 554.521818 56.379757 554.727273 55.991707 554.932727 55.602219 555.138182 55.211307 555.343636 54.818983 555.549091 54.425262 555.754545 54.030158 555.960000 53.633683 556.165455 53.235853 556.370909 52.836680 556.576364 52.436178 556.781818 52.034361 556.987273 51.631242 557.192727 51.226836 557.398182 50.821156 557.603636 50.414215 557.809091 50.006028 558.014545 49.596608 558.220000 49.185969 558.425455 48.774124 558.630909 48.361088 558.836364 47.946873 559.041818 47.531494 559.247273 47.114964 559.452727 46.697297 559.658182 46.278507 559.863636 45.858607 560.069091 45.437611 560.274545 45.015533 560.480000 44.592386 560.685455 44.168185 560.890909 43.742943 561.096364 43.316673 561.301818 42.889389 561.507273 42.461105 561.712727 42.031835 561.918182 41.601592 562.123636 41.170391 562.329091 40.738244 562.534545 40.305165 562.740000 39.871169 562.945455 39.436269 563.150909 39.000478 563.356364 38.563810 563.561818 38.126280 563.767273 37.687900 563.972727 37.248684 564.178182 36.808647 564.383636 36.367801 564.589091 35.926160 564.794545 35.483739 565.000000 35.040551 565.205455 34.596609 565.410909 34.151927 565.616364 33.706520 565.821818 33.260400 566.027273 32.813581 566.232727 32.366078 566.438182 31.917903 566.643636 31.469070 566.849091 31.019594 567.054545 30.569488 567.260000 30.118765 567.465455 29.667439 567.670909 29.215525 567.876364 28.763034 568.081818 28.309983 568.287273 27.856383 568.492727 27.402249 568.698182 26.947595 568.903636 26.492433 569.109091 26.036779 569.314545 25.580645 569.520000 25.124045 569.725455 24.666993 569.930909 24.209503 570.136364 23.751588 570.341818 23.293262 570.547273 22.834539 570.752727 22.375432 570.958182 21.915955 571.163636 21.456123 571.369091 20.995947 571.574545 20.535443 571.780000 20.074624 571.985455 19.613504 572.190909 19.152096 572.396364 18.690413 572.601818 18.228471 572.807273 17.766282 573.012727 17.303860 573.218182 16.841219 573.423636 16.378372 573.629091 15.915334 573.834545 15.452117 574.040000 14.988737 574.245455 14.525205 574.450909 14.061536 574.656364 13.597745 574.861818 13.133843 575.067273 12.669846 575.272727 12.205766 575.478182 11.741618 575.683636 11.277416 575.889091 10.813172 576.094545 10.348900 576.300000 9.884615 576.300000 514.000000" /></g></g><g class="titles"><text class="title plot_title" x="400.0" y="26">Ratchathewi 52</text></g><g class="plot overlay" transform="translate(192, 46)"><g class="series serie-0 color-0"><g class="dots"><circle class="dot reactive tooltip-trigger" cx="11.3" cy="361.62168820591603" r="2.5" /><desc class="value">236000</desc><desc class="x top">11.3</desc><desc class="y top">361.62168820591603</desc><desc class="x_label">Jan</desc></g><g class="dots"><circle class="dot reactive tooltip-trigger" cx="62.66363636363637" cy="431.96910277017616" r="2.5" /><desc class="value">229000</desc><desc class="x top">62.66363636363637</desc><desc class="y top">431.96910277017616</desc><desc class="x_label">Feb</desc></g><g class="dots"><circle class="dot reactive tooltip-trigger" cx="114.02727272727273" cy="29.98387668868986" r="2.5" /><desc class="value">269000</desc><desc class="x ">114.02727272727273</desc><desc class="y ">29.98387668868986</desc><desc class="x_label">Mar</desc></g><g class="dots"><circle class="dot reactive tooltip-trigger" cx="165.39090909090908" cy="462.11799472628763" r="2.5" /><desc class="value">226000</desc><desc class="x top">165.39090909090908</desc><desc class="y top">462.11799472628763</desc><desc class="x_label">Apr</desc></g><g class="dots"><circle class="dot reactive tooltip-trigger" cx="216.75454545454548" cy="331.47279624980456" r="2.5" /><desc class="value">239000</desc><desc class="x top">216.75454545454548</desc><desc class="y top">331.47279624980456</desc><desc class="x_label">May</desc></g><g class="dots"><circle class="dot reactive tooltip-trigger" cx="268.1181818181818" cy="70.18239929683853" r="2.5" /><desc class="value">265000</desc><desc class="x ">268.1181818181818</desc><desc class="y ">70.18239929683853</desc><desc class="x_label">Jun</desc></g><g class="dots"><circle class="dot reactive tooltip-trigger" cx="319.4818181818182" cy="241.02612038147015" r="2.5" /><desc class="value">248000</desc><desc class="x left">319.4818181818182</desc><desc class="y left">241.02612038147015</desc><desc class="x_label">Jul</desc></g><g class="dots"><circle class="dot reactive tooltip-trigger" cx="370.8454545454546" cy="90.2816606009128" r="2.5" /><desc class="value">263000</desc><desc class="x left">370.8454545454546</desc><desc class="y left">90.2816606009128</desc><desc class="x_label">Aug</desc></g><g class="dots"><circle class="dot reactive tooltip-trigger" cx="422.20909090909095" cy="200.82759777332154" r="2.5" /><desc class="value">252000</desc><desc class="x left">422.20909090909095</desc><desc class="y left">200.82759777332154</desc><desc class="x_label">Sep</desc></g><g class="dots"><circle class="dot reactive tooltip-trigger" cx="473.5727272727273" cy="90.2816606009128" r="2.5" /><desc class="value">263000</desc><desc class="x left">473.5727272727273</desc><desc class="y left">90.2816606009128</desc><desc class="x_label">Oct</desc></g><g class="dots"><circle class="dot reactive tooltip-trigger" cx="524.9363636363636" cy="90.2816606009128" r="2.5" /><desc class="value">263000</desc><desc class="x left">524.9363636363636</desc><desc class="y left">90.2816606009128</desc><desc class="x_label">Nov</desc></g><g class="dots"><circle class="dot reactive tooltip-trigger" cx="576.3000000000001" cy="9.884615384615586" r="2.5" /><desc class="value">271000</desc><desc class="x left">576.3000000000001</desc><desc class="y left">9.884615384615586</desc><desc class="x_label">Dec</desc></g></g></g><g class="plot text-overlay" transform="translate(192, 46)"><g class="series serie-0 color-0" /></g><g class="plot tooltip-overlay" transform="translate(192, 46)"><g class="tooltip" style="opacity: 0" transform="translate(0 0)"><rect class="tooltip-box" height="0" rx="0" ry="0" width="0" /><g class="text" /></g></g><g class="legends" transform="translate(10, 56)"><g class="legend reactive activate-serie" id="activate-serie-0"><rect class="color-0 reactive" height="12" width="12" x="0.0" y="1.0" /><text x="17.0" y="11.2">Ratchathewi</text></g></g><g class="legends" transform="translate(790, 56)" /></g></svg>