<?xml version='1.0' encoding='utf-8'?>
<svg xmlns:xlink="http://www.w3.org/1999/xlink" class="pygal-chart" id="chart-f4497311-c099-427d-9ad1-08eff5e2511c" viewBox="0 0 800 600" xmlns="http://www.w3.org/2000/svg"><!--Generated with pygal 2.0.11 (etree) ©Kozea 2011-2015 on 2015-12-10--><!--http://pygal.org--><!--http://github.com/Kozea/pygal--><defs><style type="text/css">#chart-f4497311-c099-427d-9ad1-08eff5e2511c{-webkit-user-select:none;-webkit-font-smoothing:antialiased;font-family:Consolas,"Liberation Mono",Menlo,Courier,monospace}#chart-f4497311-c099-427d-9ad1-08eff5e2511c .title{font-family:Consolas,"Liberation Mono",Menlo,Courier,monospace;font-size:16px}#chart-f4497311-c099-427d-9ad1-08eff5e2511c .legends .legend text{font-family:Consolas,"Liberation Mono",Menlo,Courier,monospace;font-size:14px}#chart-f4497311-c099-427d-9ad1-08eff5e2511c .axis text{font-family:Consolas,"Liberation Mono",Menlo,Courier,monospace;font-size:10px}#chart-f4497311-c099-427d-9ad1-08eff5e2511c .axis text.major{font-family:Consolas,"Liberation Mono",Menlo,Courier,monospace;font-size:10px}#chart-f4497311-c099-427d-9ad1-08eff5e2511c .text-overlay text.value{font-family:Consolas,"Liberation Mono",Menlo,Courier,monospace;font-size:16px}#chart-f4497311-c099-427d-9ad1-08eff5e2511c .text-overlay text.label{font-family:Consolas,"Liberation Mono",Menlo,Courier,monospace;font-size:10px}#chart-f4497311-c099-427d-9ad1-08eff5e2511c .tooltip{font-family:Consolas,"Liberation Mono",Menlo,Courier,monospace;font-size:14px}#chart-f4497311-c099-427d-9ad1-08eff5e2511c text.no_data{font-family:Consolas,"Liberation Mono",Menlo,Courier,monospace;font-size:64px}
#chart-f4497311-c099-427d-9ad1-08eff5e2511c{background-color:black}#chart-f4497311-c099-427d-9ad1-08eff5e2511c path,#chart-f4497311-c099-427d-9ad1-08eff5e2511c line,#chart-f4497311-c099-427d-9ad1-08eff5e2511c rect,#chart-f4497311-c099-427d-9ad1-08eff5e2511c circle{-webkit-transition:250ms;-moz-transition:250ms;transition:250ms}#chart-f4497311-c099-427d-9ad1-08eff5e2511c .graph &gt; .background{fill:black}#chart-f4497311-c099-427d-9ad1-08eff5e2511c .plot &gt; .background{fill:#111}#chart-f4497311-c099-427d-9ad1-08eff5e2511c .graph{fill:#999}#chart-f4497311-c099-427d-9ad1-08eff5e2511c text.no_data{fill:#eee}#chart-f4497311-c099-427d-9ad1-08eff5e2511c .title{fill:#eee}#chart-f4497311-c099-427d-9ad1-08eff5e2511c .legends .legend text{fill:#999}#chart-f4497311-c099-427d-9ad1-08eff5e2511c .legends .legend:hover text{fill:#eee}#chart-f4497311-c099-427d-9ad1-08eff5e2511c .axis .line{stroke:#eee}#chart-f4497311-c099-427d-9ad1-08eff5e2511c .axis .guide.line{stroke:#555}#chart-f4497311-c099-427d-9ad1-08eff5e2511c .axis .major.line{stroke:#999}#chart-f4497311-c099-427d-9ad1-08eff5e2511c .axis text.major{fill:#eee}#chart-f4497311-c099-427d-9ad1-08eff5e2511c .axis.y .guides:hover .guide.line,#chart-f4497311-c099-427d-9ad1-08eff5e2511c .line-graph .axis.x .guides:hover .guide.line,#chart-f4497311-c099-427d-9ad1-08eff5e2511c .stackedline-graph .axis.x .guides:hover .guide.line,#chart-f4497311-c099-427d-9ad1-08eff5e2511c .xy-graph .axis.x .guides:hover .guide.line{stroke:#eee}#chart-f4497311-c099-427d-9ad1-08eff5e2511c .axis .guides:hover text{fill:#eee}#chart-f4497311-c099-427d-9ad1-08eff5e2511c .reactive{fill-opacity:.8}#chart-f4497311-c099-427d-9ad1-08eff5e2511c .reactive.active,#chart-f4497311-c099-427d-9ad1-08eff5e2511c .active .reactive{fill-opacity:.4;stroke-width:4}#chart-f4497311-c099-427d-9ad1-08eff5e2511c .series text{fill:#eee}#chart-f4497311-c099-427d-9ad1-08eff5e2511c .tooltip rect{fill:#111;stroke:#eee;-webkit-transition:opacity 250ms;-moz-transition:opacity 250ms;transition:opacity 250ms}#chart-f4497311-c099-427d-9ad1-08eff5e2511c .tooltip .label{fill:#999}#chart-f4497311-c099-427d-9ad1-08eff5e2511c .tooltip .label{fill:#999}#chart-f4497311-c099-427d-9ad1-08eff5e2511c .tooltip .legend{font-size:.8em;fill:#555}#chart-f4497311-c099-427d-9ad1-08eff5e2511c .tooltip .x_label{font-size:.6em;fill:#eee}#chart-f4497311-c099-427d-9ad1-08eff5e2511c .tooltip .xlink{font-size:.5em;text-decoration:underline}#chart-f4497311-c099-427d-9ad1-08eff5e2511c .tooltip .value{font-size:1.5em}#chart-f4497311-c099-427d-9ad1-08eff5e2511c .map-element{fill:#111;stroke:#555 !important}#chart-f4497311-c099-427d-9ad1-08eff5e2511c .map-element .reactive{fill-opacity:inherit}#chart-f4497311-c099-427d-9ad1-08eff5e2511c .color-0,#chart-f4497311-c099-427d-9ad1-08eff5e2511c .color-0 a:visited{stroke:#ff5995;fill:#ff5995}#chart-f4497311-c099-427d-9ad1-08eff5e2511c .text-overlay .color-0 text{fill:black}
#chart-f4497311-c099-427d-9ad1-08eff5e2511c text.no_data{text-anchor:middle}#chart-f4497311-c099-427d-9ad1-08eff5e2511c .guide.line{fill:none}#chart-f4497311-c099-427d-9ad1-08eff5e2511c .centered{text-anchor:middle}#chart-f4497311-c099-427d-9ad1-08eff5e2511c .title{text-anchor:middle}#chart-f4497311-c099-427d-9ad1-08eff5e2511c .legends .legend text{fill-opacity:1}#chart-f4497311-c099-427d-9ad1-08eff5e2511c .axis.x text{text-anchor:middle}#chart-f4497311-c099-427d-9ad1-08eff5e2511c .axis.x:not(.web) text[transform]{text-anchor:start}#chart-f4497311-c099-427d-9ad1-08eff5e2511c .axis.x:not(.web) text[transform].backwards{text-anchor:end}#chart-f4497311-c099-427d-9ad1-08eff5e2511c .axis.y text{text-anchor:end}#chart-f4497311-c099-427d-9ad1-08eff5e2511c .axis.y text[transform].backwards{text-anchor:start}#chart-f4497311-c099-427d-9ad1-08eff5e2511c .axis.y2 text{text-anchor:start}#chart-f4497311-c099-427d-9ad1-08eff5e2511c .axis.y2 text[transform].backwards{text-anchor:end}#chart-f4497311-c099-427d-9ad1-08eff5e2511c .axis .guide.line{stroke-dasharray:4,4}#chart-f4497311-c099-427d-9ad1-08eff5e2511c .axis .major.guide.line{stroke-dasharray:6,6}#chart-f4497311-c099-427d-9ad1-08eff5e2511c .horizontal .axis.y .guide.line,#chart-f4497311-c099-427d-9ad1-08eff5e2511c .horizontal .axis.y2 .guide.line,#chart-f4497311-c099-427d-9ad1-08eff5e2511c .vertical .axis.x .guide.line{opacity:0}#chart-f4497311-c099-427d-9ad1-08eff5e2511c .horizontal .axis.always_show .guide.line,#chart-f4497311-c099-427d-9ad1-08eff5e2511c .vertical .axis.always_show .guide.line{opacity:1 !important}#chart-f4497311-c099-427d-9ad1-08eff5e2511c .axis.y .guides:hover .guide.line,#chart-f4497311-c099-427d-9ad1-08eff5e2511c .axis.y2 .guides:hover .guide.line,#chart-f4497311-c099-427d-9ad1-08eff5e2511c .axis.x .guides:hover .guide.line{opacity:1}#chart-f4497311-c099-427d-9ad1-08eff5e2511c .axis .guides:hover text{opacity:1}#chart-f4497311-c099-427d-9ad1-08eff5e2511c .nofill{fill:none}#chart-f4497311-c099-427d-9ad1-08eff5e2511c .subtle-fill{fill-opacity:.2}#chart-f4497311-c099-427d-9ad1-08eff5e2511c .dot{stroke-width:1px;fill-opacity:1}#chart-f4497311-c099-427d-9ad1-08eff5e2511c .dot.active{stroke-width:5px}#chart-f4497311-c099-427d-9ad1-08eff5e2511c .dot.negative{fill:transparent}#chart-f4497311-c099-427d-9ad1-08eff5e2511c text,#chart-f4497311-c099-427d-9ad1-08eff5e2511c tspan{stroke:none !important}#chart-f4497311-c099-427d-9ad1-08eff5e2511c .series text.active{opacity:1}#chart-f4497311-c099-427d-9ad1-08eff5e2511c .tooltip rect{fill-opacity:.95;stroke-width:.5}#chart-f4497311-c099-427d-9ad1-08eff5e2511c .tooltip text{fill-opacity:1}#chart-f4497311-c099-427d-9ad1-08eff5e2511c .showable{visibility:hidden}#chart-f4497311-c099-427d-9ad1-08eff5e2511c .showable.shown{visibility:visible}</style><script type="text/javascript">window.pygal = window.pygal || {};window.pygal.config = window.pygal.config || {};window.pygal.config['f4497311-c099-427d-9ad1-08eff5e2511c'] = {"print_values": false, "truncate_label": null, "human_readable": false, "explicit_size": false, "show_y_labels": true, "x_labels": ["Jan", "Feb", "Mar", "Apr", "May", "Jun", "Jul", "Aug", "Sep", "Oct", "Nov", "Dec"], "inverse_y_axis": false, "x_labels_major_count": null, "show_y_guides": true, "spacing": 10, "xrange": null, "rounded_bars": null, "margin": 20, "interpolation_precision": 250, "title": "Thong-Lo 52", "stroke_style": null, "no_data_text": "No data", "fill": true, "box_mode": "extremes", "print_labels": false, "interpolate": "cubic", "zero": 0, "show_only_major_dots": false, "truncate_legend": null, "show_minor_x_labels": true, "js": ["//kozea.github.io/pygal.js/2.0.x/pygal-tooltips.min.js"], "x_labels_major_every": null, "legends": ["Thong-Lo"], "tooltip_fancy_mode": true, "disable_xml_declaration": false, "show_x_guides": false, "print_zeroes": true, "show_legend": true, "legend_at_bottom": false, "y_labels_major_count": null, "secondary_range": null, "margin_bottom": null, "half_pie": false, "height": 600, "range": null, "show_minor_y_labels": true, "defs": [], "css": ["file://style.css", "file://graph.css"], "y_labels": null, "interpolation_parameters": {}, "width": 800, "strict": false, "pretty_print": false, "min_scale": 4, "margin_top": null, "dynamic_print_values": false, "order_min": null, "x_title": null, "margin_left": null, "margin_right": null, "y_labels_major_every": null, "stroke": true, "x_labels_major": null, "missing_value_fill_truncation": "x", "logarithmic": false, "stack_from_top": false, "show_dots": true, "style": {"title_font_size": 16, "title_font_family": "Consolas, \"Liberation Mono\", Menlo, Courier, monospace", "tooltip_font_family": "Consolas, \"Liberation Mono\", Menlo, Courier, monospace", "background": "black", "tooltip_font_size": 14, "opacity_hover": ".4", "value_label_font_size": 10, "opacity": ".8", "no_data_font_family": "Consolas, \"Liberation Mono\", Menlo, Courier, monospace", "label_font_size": 10, "plot_background": "#111", "value_font_size": 16, "value_font_family": "Consolas, \"Liberation Mono\", Menlo, Courier, monospace", "no_data_font_size": 64, "foreground_strong": "#eee", "font_family": "Consolas, \"Liberation Mono\", Menlo, Courier, monospace", "label_font_family": "Consolas, \"Liberation Mono\", Menlo, Courier, monospace", "transition": "250ms", "major_guide_stroke_dasharray": "6,6", "foreground_subtle": "#555", "value_colors": [], "value_label_font_family": "Consolas, \"Liberation Mono\", Menlo, Courier, monospace", "guide_stroke_dasharray": "4,4", "major_label_font_size": 10, "legend_font_family": "Consolas, \"Liberation Mono\", Menlo, Courier, monospace", "major_label_font_family": "Consolas, \"Liberation Mono\", Menlo, Courier, monospace", "foreground": "#999", "colors": ["#ff5995", "#b6e354", "#feed6c", "#8cedff", "#9e6ffe", "#899ca1", "#f8f8f2", "#bf4646", "#516083", "#f92672", "#82b414", "#fd971f", "#56c2d6", "#808384", "#8c54fe", "#465457"], "legend_font_size": 14}, "y_labels_major": null, "x_label_rotation": 0, "max_scale": 16, "value_formatter": null, "dots_size": 2.5, "legend_at_bottom_columns": null, "force_uri_protocol": null, "x_value_formatter": null, "legend_box_size": 12, "include_x_axis": false, "y_label_rotation": 0, "show_x_labels": true, "inner_radius": 0, "no_prefix": false, "tooltip_border_radius": 0, "y_title": null}</script><script type="text/javascript" xlink:href="//kozea.github.io/pygal.js/2.0.x/pygal-tooltips.min.js" /></defs><title>Thong-Lo 52</title><g class="graph line-graph vertical"><rect class="background" height="600" width="800" x="0" y="0" /><g class="plot" transform="translate(167, 46)"><rect class="background" height="514" width="612.8" x="0" y="0" /><g class="axis y"><path class="line" d="M0.000000 514.000000 h612.800000" /><g class="guides"><path class="guide line" d="M0.000000 462.644010 h612.800000" /><text class="" x="-5" y="466.1440097877646">230000.0</text><title>230000.0</title></g><g class="guides"><path class="guide line" d="M0.000000 382.458799 h612.800000" /><text class="" x="-5" y="385.9587989371385">240000.0</text><title>240000.0</title></g><g class="guides"><path class="major guide line" d="M0.000000 302.273588 h612.800000" /><text class="major" x="-5" y="305.7735880865124">250000.0</text><title>250000.0</title></g><g class="guides"><path class="guide line" d="M0.000000 222.088377 h612.800000" /><text class="" x="-5" y="225.58837723588636">260000.0</text><title>260000.0</title></g><g class="guides"><path class="guide line" d="M0.000000 141.903166 h612.800000" /><text class="" x="-5" y="145.40316638526025">270000.0</text><title>270000.0</title></g><g class="guides"><path class="guide line" d="M0.000000 61.717956 h612.800000" /><text class="" x="-5" y="65.21795553463414">280000.0</text><title>280000.0</title></g></g><g class="axis x"><g class="guides"><path class="line" d="M11.784615 0.000000 v514.000000" /><text class="" x="11.784615384615384" y="529.0">Jan</text></g><g class="guides"><path class="guide line" d="M65.351049 0.000000 v514.000000" /><text class="" x="65.35104895104894" y="529.0">Feb</text></g><g class="guides"><path class="guide line" d="M118.917483 0.000000 v514.000000" /><text class="" x="118.9174825174825" y="529.0">Mar</text></g><g class="guides"><path class="guide line" d="M172.483916 0.000000 v514.000000" /><text class="" x="172.48391608391609" y="529.0">Apr</text></g><g class="guides"><path class="guide line" d="M226.050350 0.000000 v514.000000" /><text class="" x="226.05034965034966" y="529.0">May</text></g><g class="guides"><path class="guide line" d="M279.616783 0.000000 v514.000000" /><text class="" x="279.6167832167832" y="529.0">Jun</text></g><g class="guides"><path class="guide line" d="M333.183217 0.000000 v514.000000" /><text class="" x="333.1832167832167" y="529.0">Jul</text></g><g class="guides"><path class="guide line" d="M386.749650 0.000000 v514.000000" /><text class="" x="386.74965034965027" y="529.0">Aug</text></g><g class="guides"><path class="guide line" d="M440.316084 0.000000 v514.000000" /><text class="" x="440.31608391608387" y="529.0">Sep</text></g><g class="guides"><path class="guide line" d="M493.882517 0.000000 v514.000000" /><text class="" x="493.8825174825174" y="529.0">Oct</text></g><g class="guides"><path class="guide line" d="M547.448951 0.000000 v514.000000" /><text class="" x="547.448951048951" y="529.0">Nov</text></g><g class="guides"><path class="guide line" d="M601.015385 0.000000 v514.000000" /><text class="" x="601.0153846153845" y="529.0">Dec</text></g></g><g class="series serie-0 color-0"><path class="line reactive" d="M11.784615 514.000000 L11.784615 302.273588 11.998881 303.037624 12.213147 303.801609 12.427413 304.565489 12.641678 305.329215 12.855944 306.092733 13.070210 306.855992 13.284476 307.618941 13.498741 308.381527 13.713007 309.143698 13.927273 309.905404 14.141538 310.666591 14.355804 311.427209 14.570070 312.187205 14.784336 312.946528 14.998601 313.705126 15.212867 314.462947 15.427133 315.219939 15.641399 315.976050 15.855664 316.731230 16.069930 317.485425 16.284196 318.238584 16.498462 318.990656 16.712727 319.741588 16.926993 320.491329 17.141259 321.239827 17.355524 321.987030 17.569790 322.732886 17.784056 323.477344 17.998322 324.220352 18.212587 324.961857 18.426853 325.701809 18.641119 326.440155 18.855385 327.176844 19.069650 327.911823 19.283916 328.645041 19.498182 329.376447 19.712448 330.105988 19.926713 330.833613 20.140979 331.559269 20.355245 332.282906 20.569510 333.004470 20.783776 333.723911 20.998042 334.441177 21.212308 335.156216 21.426573 335.868975 21.640839 336.579404 21.855105 337.287451 22.069371 337.993062 22.283636 338.696188 22.497902 339.396776 22.712168 340.094774 22.926434 340.790131 23.140699 341.482794 23.354965 342.172713 23.569231 342.859834 23.783497 343.544107 23.997762 344.225479 24.212028 344.903898 24.426294 345.579314 24.640559 346.251674 24.854825 346.920926 25.069091 347.587019 25.283357 348.249901 25.497622 348.909519 25.711888 349.565823 25.926154 350.218760 26.140420 350.868278 26.354685 351.514326 26.568951 352.156853 26.783217 352.795805 26.997483 353.431132 27.211748 354.062781 27.426014 354.690701 27.640280 355.314841 27.854545 355.935147 28.068811 356.551569 28.283077 357.164054 28.497343 357.772551 28.711608 358.377009 28.925874 358.977374 29.140140 359.573596 29.354406 360.165623 29.568671 360.753402 29.782937 361.336883 29.997203 361.916012 30.211469 362.490740 30.425734 363.061013 30.640000 363.626779 30.854266 364.187988 31.068531 364.744587 31.282797 365.296525 31.497063 365.843749 31.711329 366.386208 31.925594 366.923851 32.139860 367.456624 32.354126 367.984478 32.568392 368.507359 32.782657 369.025215 32.996923 369.537996 33.211189 370.045650 33.425455 370.548124 33.639720 371.045366 33.853986 371.537326 34.068252 372.023950 34.282517 372.505189 34.496783 372.980988 34.711049 373.451298 34.925315 373.916065 35.139580 374.375239 35.353846 374.828767 35.568112 375.276598 35.782378 375.718679 35.996643 376.154960 36.210909 376.585387 36.425175 377.009910 36.639441 377.428477 36.853706 377.841036 37.067972 378.247534 37.282238 378.647921 37.496503 379.042144 37.710769 379.430152 37.925035 379.811893 38.139301 380.187315 38.353566 380.556366 38.567832 380.918995 38.782098 381.275149 38.996364 381.624778 39.210629 381.967828 39.424895 382.304249 39.639161 382.633988 39.853427 382.956994 40.067692 383.273214 40.281958 383.582598 40.496224 383.885094 40.710490 384.180648 40.924755 384.469211 41.139021 384.750729 41.353287 385.025152 41.567552 385.292427 41.781818 385.552502 41.996084 385.805327 42.210350 386.050848 42.424615 386.289014 42.638881 386.519774 42.853147 386.743076 43.067413 386.958867 43.281678 387.167096 43.495944 387.367712 43.710210 387.560661 43.924476 387.745894 44.138741 387.923357 44.353007 388.092999 44.567273 388.254769 44.781538 388.408614 44.995804 388.554483 45.210070 388.692323 45.424336 388.822084 45.638601 388.943712 45.852867 389.057158 46.067133 389.162367 46.281399 389.259290 46.495664 389.347874 46.709930 389.428067 46.924196 389.499818 47.138462 389.563074 47.352727 389.617785 47.566993 389.663897 47.781259 389.701360 47.995524 389.730121 48.209790 389.750129 48.424056 389.761332 48.638322 389.763678 48.852587 389.757115 49.066853 389.741592 49.281119 389.717057 49.495385 389.683457 49.709650 389.640742 49.923916 389.588859 50.138182 389.527757 50.352448 389.457383 50.566713 389.377687 50.780979 389.288616 50.995245 389.190118 51.209510 389.082141 51.423776 388.964635 51.638042 388.837546 51.852308 388.700824 52.066573 388.554416 52.280839 388.398271 52.495105 388.232337 52.709371 388.056561 52.923636 387.870893 53.137902 387.675281 53.352168 387.469672 53.566434 387.254014 53.780699 387.028257 53.994965 386.792349 54.209231 386.546236 54.423497 386.289869 54.637762 386.023194 54.852028 385.746160 55.066294 385.458716 55.280559 385.160809 55.494825 384.852388 55.709091 384.533401 55.923357 384.203796 56.137622 383.863521 56.351888 383.512525 56.566154 383.150756 56.780420 382.778161 56.994685 382.394690 57.208951 382.000290 57.423217 381.594909 57.637483 381.178497 57.851748 380.751000 58.066014 380.312368 58.280280 379.862547 58.494545 379.401488 58.708811 378.929137 58.923077 378.445443 59.137343 377.950355 59.351608 377.443820 59.565874 376.925786 59.780140 376.396203 59.994406 375.855017 60.208671 375.302177 60.422937 374.737632 60.637203 374.161330 60.851469 373.573219 61.065734 372.973246 61.280000 372.361361 61.494266 371.737511 61.708531 371.101645 61.922797 370.453711 62.137063 369.793657 62.351329 369.121431 62.565594 368.436982 62.779860 367.740257 62.994126 367.031206 63.208392 366.309775 63.422657 365.575914 63.636923 364.829570 63.851189 364.070692 64.065455 363.299228 64.279720 362.515126 64.493986 361.718335 64.708252 360.908801 64.922517 360.086475 65.136783 359.251304 65.351049 358.403236 65.565315 357.542251 65.779580 356.668460 65.993846 355.782004 66.208112 354.883026 66.422378 353.971666 66.636643 353.048068 66.850909 352.112373 67.065175 351.164723 67.279441 350.205260 67.493706 349.234127 67.707972 348.251464 67.922238 347.257414 68.136503 346.252120 68.350769 345.235722 68.565035 344.208363 68.779301 343.170185 68.993566 342.121330 69.207832 341.061940 69.422098 339.992156 69.636364 338.912121 69.850629 337.821977 70.064895 336.721866 70.279161 335.611929 70.493427 334.492308 70.707692 333.363147 70.921958 332.224586 71.136224 331.076767 71.350490 329.919833 71.564755 328.753925 71.779021 327.579185 71.993287 326.395756 72.207552 325.203780 72.421818 324.003397 72.636084 322.794751 72.850350 321.577983 73.064615 320.353235 73.278881 319.120650 73.493147 317.880368 73.707413 316.632533 73.921678 315.377286 74.135944 314.114768 74.350210 312.845123 74.564476 311.568492 74.778741 310.285016 74.993007 308.994839 75.207273 307.698101 75.421538 306.394945 75.635804 305.085513 75.850070 303.769947 76.064336 302.448388 76.278601 301.120979 76.492867 299.787862 76.707133 298.449179 76.921399 297.105070 77.135664 295.755680 77.349930 294.401149 77.564196 293.041620 77.778462 291.677233 77.992727 290.308133 78.206993 288.934460 78.421259 287.556356 78.635524 286.173963 78.849790 284.787424 79.064056 283.396880 79.278322 282.002473 79.492587 280.604345 79.706853 279.202639 79.921119 277.797496 80.135385 276.389057 80.349650 274.977466 80.563916 273.562864 80.778182 272.145392 80.992448 270.725194 81.206713 269.302411 81.420979 267.877184 81.635245 266.449657 81.849510 265.019970 82.063776 263.588266 82.278042 262.154686 82.492308 260.719374 82.706573 259.282470 82.920839 257.844116 83.135105 256.404456 83.349371 254.963630 83.563636 253.521780 83.777902 252.079049 83.992168 250.635578 84.206434 249.191510 84.420699 247.746986 84.634965 246.302149 84.849231 244.857140 85.063497 243.412101 85.277762 241.967175 85.492028 240.522503 85.706294 239.078227 85.920559 237.634489 86.134825 236.191431 86.349091 234.749195 86.563357 233.307924 86.777622 231.867758 86.991888 230.428841 87.206154 228.991313 87.420420 227.555318 87.634685 226.120996 87.848951 224.688490 88.063217 223.257942 88.277483 221.829494 88.491748 220.403288 88.706014 218.979465 88.920280 217.558168 89.134545 216.139539 89.348811 214.723719 89.563077 213.310851 89.777343 211.901077 89.991608 210.494538 90.205874 209.091376 90.420140 207.691734 90.634406 206.295754 90.848671 204.903576 91.062937 203.515345 91.277203 202.131200 91.491469 200.751285 91.705734 199.375741 91.920000 198.004710 92.134266 196.638335 92.348531 195.276756 92.562797 193.920117 92.777063 192.568559 92.991329 191.222224 93.205594 189.881254 93.419860 188.545791 93.634126 187.215977 93.848392 185.891954 94.062657 184.573863 94.276923 183.261848 94.491189 181.956049 94.705455 180.656610 94.919720 179.363671 95.133986 178.077374 95.348252 176.797863 95.562517 175.525278 95.776783 174.259761 95.991049 173.001456 96.205315 171.750502 96.419580 170.507044 96.633846 169.271221 96.848112 168.043178 97.062378 166.823054 97.276643 165.610994 97.490909 164.407137 97.705175 163.211627 97.919441 162.024605 98.133706 160.846213 98.347972 159.676593 98.562238 158.515888 98.776503 157.364239 98.990769 156.221788 99.205035 155.088677 99.419301 153.965048 99.633566 152.851043 99.847832 151.746804 100.062098 150.652473 100.276364 149.568192 100.490629 148.494103 100.704895 147.430348 100.919161 146.377068 101.133427 145.334407 101.347692 144.302505 101.561958 143.281504 101.776224 142.271548 101.990490 141.272777 102.204755 140.285334 102.419021 139.309360 102.633287 138.344998 102.847552 137.392389 103.061818 136.451676 103.276084 135.523000 103.490350 134.606504 103.704615 133.702329 103.918881 132.810617 104.133147 131.931511 104.347413 131.065152 104.561678 130.211682 104.775944 129.371243 104.990210 128.543978 105.204476 127.730028 105.418741 126.929534 105.633007 126.142640 105.847273 125.369487 106.061538 124.610217 106.275804 123.864972 106.490070 123.133894 106.704336 122.417125 106.918601 121.714806 107.132867 121.027081 107.347133 120.354090 107.561399 119.695976 107.775664 119.052881 107.989930 118.424946 108.204196 117.812315 108.418462 117.215127 108.632727 116.633527 108.846993 116.067655 109.061259 115.517653 109.275524 114.983664 109.489790 114.465830 109.704056 113.964292 109.918322 113.479192 110.132587 113.010673 110.346853 112.558876 110.561119 112.123943 110.775385 111.706016 110.989650 111.305238 111.203916 110.921750 111.418182 110.555694 111.632448 110.207213 111.846713 109.876447 112.060979 109.563540 112.275245 109.268632 112.489510 108.991866 112.703776 108.733385 112.918042 108.493329 113.132308 108.271842 113.346573 108.069064 113.560839 107.885138 113.775105 107.720205 113.989371 107.574409 114.203636 107.447890 114.417902 107.340791 114.632168 107.253254 114.846434 107.185420 115.060699 107.137432 115.274965 107.109431 115.489231 107.101560 115.703497 107.113960 115.917762 107.146774 116.132028 107.200143 116.346294 107.274210 116.560559 107.369116 116.774825 107.485003 116.989091 107.622014 117.203357 107.780290 117.417622 107.959973 117.631888 108.161205 117.846154 108.384129 118.060420 108.628885 118.274685 108.895617 118.488951 109.184466 118.703217 109.495573 118.917483 109.829082 119.131748 110.185083 119.346014 110.563465 119.560280 110.964066 119.774545 111.386724 119.988811 111.831277 120.203077 112.297563 120.417343 112.785421 120.631608 113.294687 120.845874 113.825201 121.060140 114.376799 121.274406 114.949321 121.488671 115.542605 121.702937 116.156487 121.917203 116.790807 122.131469 117.445402 122.345734 118.120111 122.560000 118.814771 122.774266 119.529220 122.988531 120.263297 123.202797 121.016839 123.417063 121.789685 123.631329 122.581672 123.845594 123.392639 124.059860 124.222423 124.274126 125.070863 124.488392 125.937797 124.702657 126.823062 124.916923 127.726497 125.131189 128.647940 125.345455 129.587228 125.559720 130.544200 125.773986 131.518694 125.988252 132.510548 126.202517 133.519600 126.416783 134.545687 126.631049 135.588649 126.845315 136.648322 127.059580 137.724545 127.273846 138.817157 127.488112 139.925994 127.702378 141.050895 127.916643 142.191699 128.130909 143.348242 128.345175 144.520364 128.559441 145.707901 128.773706 146.910693 128.987972 148.128577 129.202238 149.361392 129.416503 150.608974 129.630769 151.871163 129.845035 153.147796 130.059301 154.438712 130.273566 155.743748 130.487832 157.062742 130.702098 158.395533 130.916364 159.741958 131.130629 161.101855 131.344895 162.475063 131.559161 163.861420 131.773427 165.260763 131.987692 166.672931 132.201958 168.097761 132.416224 169.535092 132.630490 170.984762 132.844755 172.446608 133.059021 173.920469 133.273287 175.406183 133.487552 176.903588 133.701818 178.412521 133.916084 179.932821 134.130350 181.464326 134.344615 183.006874 134.558881 184.560303 134.773147 186.124450 134.987413 187.699155 135.201678 189.284255 135.415944 190.879587 135.630210 192.484991 135.844476 194.100304 136.058741 195.725364 136.273007 197.360009 136.487273 199.004077 136.701538 200.657406 136.915804 202.319835 137.130070 203.991201 137.344336 205.671342 137.558601 207.360096 137.772867 209.057301 137.987133 210.762796 138.201399 212.476419 138.415664 214.198006 138.629930 215.927398 138.844196 217.664430 139.058462 219.408942 139.272727 221.160772 139.486993 222.919757 139.701259 224.685735 139.915524 226.458546 140.129790 228.238025 140.344056 230.024013 140.558322 231.816346 140.772587 233.614863 140.986853 235.419401 141.201119 237.229799 141.415385 239.045895 141.629650 240.867527 141.843916 242.694533 142.058182 244.526750 142.272448 246.364018 142.486713 248.206173 142.700979 250.053054 142.915245 251.904499 143.129510 253.760347 143.343776 255.620434 143.558042 257.484599 143.772308 259.352680 143.986573 261.224516 144.200839 263.099943 144.415105 264.978801 144.629371 266.860927 144.843636 268.746159 145.057902 270.634335 145.272168 272.525294 145.486434 274.418872 145.700699 276.314909 145.914965 278.213243 146.129231 280.113711 146.343497 282.016151 146.557762 283.920402 146.772028 285.826301 146.986294 287.733686 147.200559 289.642396 147.414825 291.552269 147.629091 293.463142 147.843357 295.374854 148.057622 297.287242 148.271888 299.200145 148.486154 301.113401 148.700420 303.026847 148.914685 304.940322 149.128951 306.853664 149.343217 308.766711 149.557483 310.679300 149.771748 312.591271 149.986014 314.502460 150.200280 316.412706 150.414545 318.321846 150.628811 320.229720 150.843077 322.136165 151.057343 324.041019 151.271608 325.944120 151.485874 327.845305 151.700140 329.744414 151.914406 331.641284 152.128671 333.535753 152.342937 335.427660 152.557203 337.316841 152.771469 339.203136 152.985734 341.086382 153.200000 342.966417 153.414266 344.843079 153.628531 346.716207 153.842797 348.585638 154.057063 350.451211 154.271329 352.312763 154.485594 354.170132 154.699860 356.023157 154.914126 357.871675 155.128392 359.715525 155.342657 361.554544 155.556923 363.388571 155.771189 365.217443 155.985455 367.040999 156.199720 368.859077 156.413986 370.671514 156.628252 372.478149 156.842517 374.278820 157.056783 376.073365 157.271049 377.861621 157.485315 379.643427 157.699580 381.418621 157.913846 383.187041 158.128112 384.948524 158.342378 386.702910 158.556643 388.450035 158.770909 390.189739 158.985175 391.921858 159.199441 393.646232 159.413706 395.362697 159.627972 397.071093 159.842238 398.771257 160.056503 400.463027 160.270769 402.146241 160.485035 403.820737 160.699301 405.486353 160.913566 407.142928 161.127832 408.790299 161.342098 410.428304 161.556364 412.056781 161.770629 413.675569 161.984895 415.284506 162.199161 416.883428 162.413427 418.472175 162.627692 420.050585 162.841958 421.618495 163.056224 423.175743 163.270490 424.722168 163.484755 426.257608 163.699021 427.781900 163.913287 429.294883 164.127552 430.796394 164.341818 432.286272 164.556084 433.764355 164.770350 435.230481 164.984615 436.684487 165.198881 438.126212 165.413147 439.555494 165.627413 440.972171 165.841678 442.376080 166.055944 443.767061 166.270210 445.144950 166.484476 446.509586 166.698741 447.860808 166.913007 449.198452 167.127273 450.522357 167.341538 451.832362 167.555804 453.128303 167.770070 454.410020 167.984336 455.677349 168.198601 456.930130 168.412867 458.168200 168.627133 459.391397 168.841399 460.599560 169.055664 461.792526 169.269930 462.970133 169.484196 464.132219 169.698462 465.278623 169.912727 466.409182 170.126993 467.523734 170.341259 468.622118 170.555524 469.704172 170.769790 470.769732 170.984056 471.818639 171.198322 472.850729 171.412587 473.865840 171.626853 474.863811 171.841119 475.844480 172.055385 476.807684 172.269650 477.753262 172.483916 478.681052 172.698182 479.590930 172.912448 480.482930 173.126713 481.357123 173.340979 482.213582 173.555245 483.052377 173.769510 483.873580 173.983776 484.677264 174.198042 485.463500 174.412308 486.232360 174.626573 486.983916 174.840839 487.718239 175.055105 488.435401 175.269371 489.135474 175.483636 489.818530 175.697902 490.484641 175.912168 491.133877 176.126434 491.766312 176.340699 492.382017 176.554965 492.981063 176.769231 493.563523 176.983497 494.129467 177.197762 494.678969 177.412028 495.212099 177.626294 495.728930 177.840559 496.229533 178.054825 496.713980 178.269091 497.182343 178.483357 497.634693 178.697622 498.071103 178.911888 498.491643 179.126154 498.896387 179.340420 499.285405 179.554685 499.658770 179.768951 500.016552 179.983217 500.358825 180.197483 500.685659 180.411748 500.997127 180.626014 501.293300 180.840280 501.574250 181.054545 501.840048 181.268811 502.090768 181.483077 502.326479 181.697343 502.547255 181.911608 502.753166 182.125874 502.944286 182.340140 503.120684 182.554406 503.282434 182.768671 503.429607 182.982937 503.562274 183.197203 503.680508 183.411469 503.784380 183.625734 503.873962 183.840000 503.949326 184.054266 504.010544 184.268531 504.057686 184.482797 504.090826 184.697063 504.110035 184.911329 504.115385 185.125594 504.106946 185.339860 504.084793 185.554126 504.048995 185.768392 503.999624 185.982657 503.936753 186.196923 503.860454 186.411189 503.770798 186.625455 503.667856 186.839720 503.551701 187.053986 503.422404 187.268252 503.280037 187.482517 503.124673 187.696783 502.956382 187.911049 502.775236 188.125315 502.581308 188.339580 502.374668 188.553846 502.155389 188.768112 501.923543 188.982378 501.679201 189.196643 501.422435 189.410909 501.153317 189.625175 500.871919 189.839441 500.578312 190.053706 500.272568 190.267972 499.954759 190.482238 499.624956 190.696503 499.283232 190.910769 498.929659 191.125035 498.564307 191.339301 498.187249 191.553566 497.798557 191.767832 497.398301 191.982098 496.986555 192.196364 496.563390 192.410629 496.128878 192.624895 495.683089 192.839161 495.226097 193.053427 494.757973 193.267692 494.278789 193.481958 493.788616 193.696224 493.287526 193.910490 492.775591 194.124755 492.252883 194.339021 491.719473 194.553287 491.175434 194.767552 490.620837 194.981818 490.055754 195.196084 489.480256 195.410350 488.894416 195.624615 488.298305 195.838881 487.691995 196.053147 487.075558 196.267413 486.449065 196.481678 485.812588 196.695944 485.166200 196.910210 484.509971 197.124476 483.843974 197.338741 483.168280 197.553007 482.482961 197.767273 481.788089 197.981538 481.083735 198.195804 480.369973 198.410070 479.646872 198.624336 478.914505 198.838601 478.172944 199.052867 477.422260 199.267133 476.662526 199.481399 475.893813 199.695664 475.116192 199.909930 474.329736 200.124196 473.534517 200.338462 472.730605 200.552727 471.918074 200.766993 471.096994 200.981259 470.267438 201.195524 469.429476 201.409790 468.583182 201.624056 467.728627 201.838322 466.865882 202.052587 465.995019 202.266853 465.116110 202.481119 464.229227 202.695385 463.334442 202.909650 462.431826 203.123916 461.521451 203.338182 460.603389 203.552448 459.677712 203.766713 458.744491 203.980979 457.803799 204.195245 456.855706 204.409510 455.900285 204.623776 454.937608 204.838042 453.967746 205.052308 452.990771 205.266573 452.006755 205.480839 451.015770 205.695105 450.017886 205.909371 449.013178 206.123636 448.001714 206.337902 446.983569 206.552168 445.958813 206.766434 444.927519 206.980699 443.889757 207.194965 442.845600 207.409231 441.795120 207.623497 440.738388 207.837762 439.675476 208.052028 438.606456 208.266294 437.531399 208.480559 436.450378 208.694825 435.363464 208.909091 434.270729 209.123357 433.172245 209.337622 432.068083 209.551888 430.958316 209.766154 429.843014 209.980420 428.722250 210.194685 427.596096 210.408951 426.464623 210.623217 425.327904 210.837483 424.186009 211.051748 423.039010 211.266014 421.886981 211.480280 420.729991 211.694545 419.568113 211.908811 418.401419 212.123077 417.229981 212.337343 416.053869 212.551608 414.873157 212.765874 413.687916 212.980140 412.498217 213.194406 411.304133 213.408671 410.105734 213.622937 408.903094 213.837203 407.696283 214.051469 406.485374 214.265734 405.270437 214.480000 404.051546 214.694266 402.828772 214.908531 401.602186 215.122797 400.371860 215.337063 399.137866 215.551329 397.900276 215.765594 396.659162 215.979860 395.414595 216.194126 394.166647 216.408392 392.915391 216.622657 391.660896 216.836923 390.403237 217.051189 389.142483 217.265455 387.878708 217.479720 386.611982 217.693986 385.342378 217.908252 384.069967 218.122517 382.794821 218.336783 381.517012 218.551049 380.236611 218.765315 378.953691 218.979580 377.668323 219.193846 376.380579 219.408112 375.090531 219.622378 373.798250 219.836643 372.503808 220.050909 371.207277 220.265175 369.908730 220.479441 368.608236 220.693706 367.305869 220.907972 366.001700 221.122238 364.695801 221.336503 363.388244 221.550769 362.079099 221.765035 360.768441 221.979301 359.456339 222.193566 358.142865 222.407832 356.828092 222.622098 355.512092 222.836364 354.194935 223.050629 352.876694 223.264895 351.557441 223.479161 350.237247 223.693427 348.916185 223.907692 347.594325 224.121958 346.271739 224.336224 344.948500 224.550490 343.624680 224.764755 342.300349 224.979021 340.975580 225.193287 339.650444 225.407552 338.325014 225.621818 336.999361 225.836084 335.673556 226.050350 334.347672 226.264615 333.021777 226.478881 331.695925 226.693147 330.370166 226.907413 329.044550 227.121678 327.719128 227.335944 326.393951 227.550210 325.069068 227.764476 323.744531 227.978741 322.420389 228.193007 321.096693 228.407273 319.773493 228.621538 318.450840 228.835804 317.128784 229.050070 315.807376 229.264336 314.486666 229.478601 313.166704 229.692867 311.847541 229.907133 310.529227 230.121399 309.211812 230.335664 307.895348 230.549930 306.579884 230.764196 305.265470 230.978462 303.952158 231.192727 302.639997 231.406993 301.329038 231.621259 300.019332 231.835524 298.710928 232.049790 297.403878 232.264056 296.098231 232.478322 294.794038 232.692587 293.491349 232.906853 292.190215 233.121119 290.890687 233.335385 289.592814 233.549650 288.296646 233.763916 287.002235 233.978182 285.709631 234.192448 284.418884 234.406713 283.130045 234.620979 281.843164 234.835245 280.558291 235.049510 279.275476 235.263776 277.994771 235.478042 276.716226 235.692308 275.439890 235.906573 274.165815 236.120839 272.894050 236.335105 271.624647 236.549371 270.357655 236.763636 269.093125 236.977902 267.831108 237.192168 266.571653 237.406434 265.314812 237.620699 264.060634 237.834965 262.809170 238.049231 261.560470 238.263497 260.314586 238.477762 259.071566 238.692028 257.831462 238.906294 256.594324 239.120559 255.360202 239.334825 254.129147 239.549091 252.901209 239.763357 251.676439 239.977622 250.454887 240.191888 249.236603 240.406154 248.021638 240.620420 246.810042 240.834685 245.601865 241.048951 244.397159 241.263217 243.195973 241.477483 241.998358 241.691748 240.804364 241.906014 239.614041 242.120280 238.427441 242.334545 237.244613 242.548811 236.065607 242.763077 234.890475 242.977343 233.719266 243.191608 232.552032 243.405874 231.388822 243.620140 230.229686 243.834406 229.074676 244.048671 227.923841 244.262937 226.777232 244.477203 225.634900 244.691469 224.496894 244.905734 223.363266 245.120000 222.234065 245.334266 221.109342 245.548531 219.989148 245.762797 218.873532 245.977063 217.762546 246.191329 216.656239 246.405594 215.554662 246.619860 214.457866 246.834126 213.365900 247.048392 212.278815 247.262657 211.196662 247.476923 210.119491 247.691189 209.047353 247.905455 207.980297 248.119720 206.918374 248.333986 205.861635 248.548252 204.810130 248.762517 203.763910 248.976783 202.723024 249.191049 201.687523 249.405315 200.657458 249.619580 199.632879 249.833846 198.613837 250.048112 197.600381 250.262378 196.592562 250.476643 195.590431 250.690909 194.594038 250.905175 193.603433 251.119441 192.618667 251.333706 191.639791 251.547972 190.666853 251.762238 189.699906 251.976503 188.739000 252.190769 187.784184 252.405035 186.835509 252.619301 185.893026 252.833566 184.956785 253.047832 184.026836 253.262098 183.103230 253.476364 182.186017 253.690629 181.275248 253.904895 180.370973 254.119161 179.473243 254.333427 178.582107 254.547692 177.697616 254.761958 176.819821 254.976224 175.948772 255.190490 175.084519 255.404755 174.227113 255.619021 173.376604 255.833287 172.533043 256.047552 171.696480 256.261818 170.866966 256.476084 170.044550 256.690350 169.229283 256.904615 168.421216 257.118881 167.620399 257.333147 166.826882 257.547413 166.040717 257.761678 165.261952 257.975944 164.490639 258.190210 163.726828 258.404476 162.970570 258.618741 162.221914 258.833007 161.480911 259.047273 160.747612 259.261538 160.022067 259.475804 159.304327 259.690070 158.594441 259.904336 157.892461 260.118601 157.198436 260.332867 156.512417 260.547133 155.834455 260.761399 155.164599 260.975664 154.502901 261.189930 153.849410 261.404196 153.204177 261.618462 152.567253 261.832727 151.938687 262.046993 151.318531 262.261259 150.706834 262.475524 150.103648 262.689790 149.509021 262.904056 148.923006 263.118322 148.345652 263.332587 147.777009 263.546853 147.217129 263.761119 146.666060 263.975385 146.123855 264.189650 145.590563 264.403916 145.066235 264.618182 144.550920 264.832448 144.044670 265.046713 143.547535 265.260979 143.059565 265.475245 142.580811 265.689510 142.111322 265.903776 141.651151 266.118042 141.200345 266.332308 140.758958 266.546573 140.327037 266.760839 139.904635 266.975105 139.491802 267.189371 139.088587 267.403636 138.695041 267.617902 138.311215 267.832168 137.937159 268.046434 137.572923 268.260699 137.218559 268.474965 136.874115 268.689231 136.539643 268.903497 136.215193 269.117762 135.900816 269.332028 135.596561 269.546294 135.302480 269.760559 135.018622 269.974825 134.745039 270.189091 134.481780 270.403357 134.228895 270.617622 133.986436 270.831888 133.754453 271.046154 133.532995 271.260420 133.322114 271.474685 133.121860 271.688951 132.932283 271.903217 132.753434 272.117483 132.585362 272.331748 132.428119 272.546014 132.281755 272.760280 132.146321 272.974545 132.021866 273.188811 131.908441 273.403077 131.806096 273.617343 131.714882 273.831608 131.634850 274.045874 131.566049 274.260140 131.508530 274.474406 131.462344 274.688671 131.427540 274.902937 131.404170 275.117203 131.392283 275.331469 131.391930 275.545734 131.403162 275.760000 131.426029 275.974266 131.460581 276.188531 131.506869 276.402797 131.564942 276.617063 131.634852 276.831329 131.716649 277.045594 131.810383 277.259860 131.916105 277.474126 132.033865 277.688392 132.163714 277.902657 132.305701 278.116923 132.459877 278.331189 132.626293 278.545455 132.805000 278.759720 132.996046 278.973986 133.199484 279.188252 133.415362 279.402517 133.643733 279.616783 133.884645 279.831049 134.138125 280.045315 134.404096 280.259580 134.682458 280.473846 134.973109 280.688112 135.275950 280.902378 135.590877 281.116643 135.917792 281.330909 136.256593 281.545175 136.607178 281.759441 136.969447 281.973706 137.343300 282.187972 137.728634 282.402238 138.125350 282.616503 138.533346 282.830769 138.952521 283.045035 139.382775 283.259301 139.824006 283.473566 140.276113 283.687832 140.738996 283.902098 141.212553 284.116364 141.696684 284.330629 142.191288 284.544895 142.696263 284.759161 143.211510 284.973427 143.736926 285.187692 144.272411 285.401958 144.817864 285.616224 145.373184 285.830490 145.938270 286.044755 146.513021 286.259021 147.097336 286.473287 147.691115 286.687552 148.294256 286.901818 148.906658 287.116084 149.528221 287.330350 150.158843 287.544615 150.798424 287.758881 151.446862 287.973147 152.104057 288.187413 152.769908 288.401678 153.444314 288.615944 154.127173 288.830210 154.818385 289.044476 155.517849 289.258741 156.225465 289.473007 156.941130 289.687273 157.664744 289.901538 158.396207 290.115804 159.135417 290.330070 159.882273 290.544336 160.636674 290.758601 161.398520 290.972867 162.167710 291.187133 162.944142 291.401399 163.727715 291.615664 164.518329 291.829930 165.315883 292.044196 166.120276 292.258462 166.931406 292.472727 167.749173 292.686993 168.573477 292.901259 169.404215 293.115524 170.241287 293.329790 171.084593 293.544056 171.934030 293.758322 172.789499 293.972587 173.650898 294.186853 174.518126 294.401119 175.391083 294.615385 176.269668 294.829650 177.153778 295.043916 178.043315 295.258182 178.938176 295.472448 179.838260 295.686713 180.743468 295.900979 181.653697 296.115245 182.568847 296.329510 183.488817 296.543776 184.413506 296.758042 185.342813 296.972308 186.276637 297.186573 187.214878 297.400839 188.157433 297.615105 189.104203 297.829371 190.055086 298.043636 191.009981 298.257902 191.968788 298.472168 192.931406 298.686434 193.897733 298.900699 194.867668 299.114965 195.841112 299.329231 196.817962 299.543497 197.798118 299.757762 198.781478 299.972028 199.767943 300.186294 200.757410 300.400559 201.749780 300.614825 202.744950 300.829091 203.742821 301.043357 204.743291 301.257622 205.746259 301.471888 206.751625 301.686154 207.759287 301.900420 208.769144 302.114685 209.781096 302.328951 210.795041 302.543217 211.810879 302.757483 212.828509 302.971748 213.847829 303.186014 214.868739 303.400280 215.891138 303.614545 216.914925 303.828811 217.939999 304.043077 218.966259 304.257343 219.993604 304.471608 221.021933 304.685874 222.051145 304.900140 223.081139 305.114406 224.111815 305.328671 225.143071 305.542937 226.174806 305.757203 227.206920 305.971469 228.239312 306.185734 229.271880 306.400000 230.304524 306.614266 231.337142 306.828531 232.369634 307.042797 233.401899 307.257063 234.433836 307.471329 235.465344 307.685594 236.496322 307.899860 237.526669 308.114126 238.556284 308.328392 239.585066 308.542657 240.612914 308.756923 241.639728 308.971189 242.665406 309.185455 243.689847 309.399720 244.712951 309.613986 245.734616 309.828252 246.754742 310.042517 247.773228 310.256783 248.789972 310.471049 249.804874 310.685315 250.817833 310.899580 251.828748 311.113846 252.837517 311.328112 253.844041 311.542378 254.848217 311.756643 255.849946 311.970909 256.849126 312.185175 257.845656 312.399441 258.839435 312.613706 259.830363 312.827972 260.818338 313.042238 261.803260 313.256503 262.785027 313.470769 263.763538 313.685035 264.738693 313.899301 265.710391 314.113566 266.678531 314.327832 267.643011 314.542098 268.603731 314.756364 269.560591 314.970629 270.513488 315.184895 271.462322 315.399161 272.406992 315.613427 273.347397 315.827692 274.283437 316.041958 275.215010 316.256224 276.142015 316.470490 277.064351 316.684755 277.981918 316.899021 278.894614 317.113287 279.802339 317.327552 280.704992 317.541818 281.602471 317.756084 282.494676 317.970350 283.381506 318.184615 284.262859 318.398881 285.138636 318.613147 286.008734 318.827413 286.873053 319.041678 287.731493 319.255944 288.583951 319.470210 289.430328 319.684476 290.270522 319.898741 291.104432 320.113007 291.931958 320.327273 292.752998 320.541538 293.567452 320.755804 294.375218 320.970070 295.176195 321.184336 295.970284 321.398601 296.757382 321.612867 297.537388 321.827133 298.310203 322.041399 299.075724 322.255664 299.833852 322.469930 300.584484 322.684196 301.327521 322.898462 302.062860 323.112727 302.790402 323.326993 303.510045 323.541259 304.221688 323.755524 304.925231 323.969790 305.620572 324.184056 306.307610 324.398322 306.986245 324.612587 307.656375 324.826853 308.317901 325.041119 308.970719 325.255385 309.614731 325.469650 310.249834 325.683916 310.875929 325.898182 311.492913 326.112448 312.100686 326.326713 312.699147 326.540979 313.288195 326.755245 313.867730 326.969510 314.437649 327.183776 314.997853 327.398042 315.548241 327.612308 316.088710 327.826573 316.619161 328.040839 317.139493 328.255105 317.649604 328.469371 318.149394 328.683636 318.638761 328.897902 319.117605 329.112168 319.585825 329.326434 320.043320 329.540699 320.489989 329.754965 320.925730 329.969231 321.350444 330.183497 321.764029 330.397762 322.166384 330.612028 322.557408 330.826294 322.937000 331.040559 323.305060 331.254825 323.661486 331.469091 324.006177 331.683357 324.339033 331.897622 324.659953 332.111888 324.968835 332.326154 325.265579 332.540420 325.550083 332.754685 325.822247 332.968951 326.081970 333.183217 326.329151 333.397483 326.563718 333.611748 326.785711 333.826014 326.995202 334.040280 327.192260 334.254545 327.376955 334.468811 327.549357 334.683077 327.709537 334.897343 327.857565 335.111608 327.993510 335.325874 328.117443 335.540140 328.229434 335.754406 328.329553 335.968671 328.417870 336.182937 328.494455 336.397203 328.559378 336.611469 328.612709 336.825734 328.654519 337.040000 328.684877 337.254266 328.703854 337.468531 328.711519 337.682797 328.707944 337.897063 328.693197 338.111329 328.667349 338.325594 328.630469 338.539860 328.582630 338.754126 328.523899 338.968392 328.454347 339.182657 328.374045 339.396923 328.283062 339.611189 328.181469 339.825455 328.069336 340.039720 327.946732 340.253986 327.813728 340.468252 327.670394 340.682517 327.516800 340.896783 327.353016 341.111049 327.179112 341.325315 326.995158 341.539580 326.801225 341.753846 326.597382 341.968112 326.383700 342.182378 326.160248 342.396643 325.927097 342.610909 325.684317 342.825175 325.431978 343.039441 325.170149 343.253706 324.898902 343.467972 324.618306 343.682238 324.328431 343.896503 324.029348 344.110769 323.721125 344.325035 323.403835 344.539301 323.077546 344.753566 322.742328 344.967832 322.398253 345.182098 322.045389 345.396364 321.683807 345.610629 321.313578 345.824895 320.934770 346.039161 320.547455 346.253427 320.151702 346.467692 319.747581 346.681958 319.335163 346.896224 318.914517 347.110490 318.485714 347.324755 318.048824 347.539021 317.603917 347.753287 317.151062 347.967552 316.690331 348.181818 316.221793 348.396084 315.745518 348.610350 315.261576 348.824615 314.770038 349.038881 314.270973 349.253147 313.764452 349.467413 313.250544 349.681678 312.729320 349.895944 312.200850 350.110210 311.665204 350.324476 311.122452 350.538741 310.572663 350.753007 310.015910 350.967273 309.452260 351.181538 308.881785 351.395804 308.304554 351.610070 307.720638 351.824336 307.130106 352.038601 306.533029 352.252867 305.929477 352.467133 305.319520 352.681399 304.703228 352.895664 304.080671 353.109930 303.451919 353.324196 302.817042 353.538462 302.176111 353.752727 301.529195 353.966993 300.876365 354.181259 300.217690 354.395524 299.553241 354.609790 298.883087 354.824056 298.207300 355.038322 297.525949 355.252587 296.839103 355.466853 296.146834 355.681119 295.449211 355.895385 294.746305 356.109650 294.038185 356.323916 293.324921 356.538182 292.606584 356.752448 291.883244 356.966713 291.154970 357.180979 290.421833 357.395245 289.683903 357.609510 288.941251 357.823776 288.193945 358.038042 287.442057 358.252308 286.685656 358.466573 285.924812 358.680839 285.159596 358.895105 284.390077 359.109371 283.616326 359.323636 282.838413 359.537902 282.056408 359.752168 281.270381 359.966434 280.480401 360.180699 279.686540 360.394965 278.888867 360.609231 278.087452 360.823497 277.282366 361.037762 276.473678 361.252028 275.661459 361.466294 274.845778 361.680559 274.026707 361.894825 273.204314 362.109091 272.378669 362.323357 271.549844 362.537622 270.717908 362.751888 269.882932 362.966154 269.044984 363.180420 268.204136 363.394685 267.360457 363.608951 266.514018 363.823217 265.664888 364.037483 264.813139 364.251748 263.958839 364.466014 263.102059 364.680280 262.242869 364.894545 261.381339 365.108811 260.517539 365.323077 259.651539 365.537343 258.783410 365.751608 257.913221 365.965874 257.041043 366.180140 256.166945 366.394406 255.290998 366.608671 254.413272 366.822937 253.533837 367.037203 252.652763 367.251469 251.770120 367.465734 250.885978 367.680000 250.000407 367.894266 249.113478 368.108531 248.225260 368.322797 247.335823 368.537063 246.445238 368.751329 245.553575 368.965594 244.660903 369.179860 243.767294 369.394126 242.872816 369.608392 241.977541 369.822657 241.081537 370.036923 240.184876 370.251189 239.287627 370.465455 238.389861 370.679720 237.491647 370.893986 236.593056 371.108252 235.694157 371.322517 234.795021 371.536783 233.895718 371.751049 232.996318 371.965315 232.096891 372.179580 231.197507 372.393846 230.298236 372.608112 229.399149 372.822378 228.500314 373.036643 227.601804 373.250909 226.703687 373.465175 225.806033 373.679441 224.908914 373.893706 224.012398 374.107972 223.116556 374.322238 222.221458 374.536503 221.327175 374.750769 220.433775 374.965035 219.541330 375.179301 218.649909 375.393566 217.759582 375.607832 216.870421 375.822098 215.982493 376.036364 215.095871 376.250629 214.210623 376.464895 213.326820 376.679161 212.444533 376.893427 211.563830 377.107692 210.684782 377.321958 209.807460 377.536224 208.931933 377.750490 208.058272 377.964755 207.186546 378.179021 206.316826 378.393287 205.449181 378.607552 204.583682 378.821818 203.720399 379.036084 202.859402 379.250350 202.000762 379.464615 201.144547 379.678881 200.290828 379.893147 199.439676 380.107413 198.591161 380.321678 197.745352 380.535944 196.902319 380.750210 196.062133 380.964476 195.224864 381.178741 194.390582 381.393007 193.559357 381.607273 192.731259 381.821538 191.906358 382.035804 191.084724 382.250070 190.266427 382.464336 189.451538 382.678601 188.640127 382.892867 187.832263 383.107133 187.028016 383.321399 186.227458 383.535664 185.430657 383.749930 184.637684 383.964196 183.848610 384.178462 183.063503 384.392727 182.282435 384.606993 181.505475 384.821259 180.732693 385.035524 179.964160 385.249790 179.199945 385.464056 178.440119 385.678322 177.684752 385.892587 176.933914 386.106853 176.187675 386.321119 175.446104 386.535385 174.709273 386.749650 173.977251 386.963916 173.250094 387.178182 172.527804 387.392448 171.810366 387.606713 171.097768 387.820979 170.389997 388.035245 169.687040 388.249510 168.988883 388.463776 168.295513 388.678042 167.606918 388.892308 166.923083 389.106573 166.243996 389.320839 165.569644 389.535105 164.900014 389.749371 164.235092 389.963636 163.574865 390.177902 162.919321 390.392168 162.268445 390.606434 161.622225 390.820699 160.980648 391.034965 160.343701 391.249231 159.711370 391.463497 159.083642 391.677762 158.460505 391.892028 157.841944 392.106294 157.227947 392.320559 156.618501 392.534825 156.013593 392.749091 155.413208 392.963357 154.817336 393.177622 154.225961 393.391888 153.639071 393.606154 153.056653 393.820420 152.478694 394.034685 151.905180 394.248951 151.336099 394.463217 150.771437 394.677483 150.211182 394.891748 149.655319 395.106014 149.103836 395.320280 148.556719 395.534545 148.013957 395.748811 147.475534 395.963077 146.941439 396.177343 146.411658 396.391608 145.886179 396.605874 145.364986 396.820140 144.848069 397.034406 144.335413 397.248671 143.827006 397.462937 143.322834 397.677203 142.822884 397.891469 142.327142 398.105734 141.835597 398.320000 141.348235 398.534266 140.865042 398.748531 140.386005 398.962797 139.911112 399.177063 139.440348 399.391329 138.973702 399.605594 138.511160 399.819860 138.052708 400.034126 137.598334 400.248392 137.148024 400.462657 136.701766 400.676923 136.259545 400.891189 135.821350 401.105455 135.387166 401.319720 134.956981 401.533986 134.530782 401.748252 134.108555 401.962517 133.690287 402.176783 133.275966 402.391049 132.865577 402.605315 132.459108 402.819580 132.056546 403.033846 131.657877 403.248112 131.263089 403.462378 130.872168 403.676643 130.485101 403.890909 130.101876 404.105175 129.722478 404.319441 129.346894 404.533706 128.975112 404.747972 128.607119 404.962238 128.242901 405.176503 127.882445 405.390769 127.525738 405.605035 127.172766 405.819301 126.823518 406.033566 126.477979 406.247832 126.136136 406.462098 125.797976 406.676364 125.463487 406.890629 125.132655 407.104895 124.805466 407.319161 124.481908 407.533427 124.161968 407.747692 123.845632 407.961958 123.532887 408.176224 123.223720 408.390490 122.918119 408.604755 122.616069 408.819021 122.317558 409.033287 122.022572 409.247552 121.731099 409.461818 121.443125 409.676084 121.158637 409.890350 120.877622 410.104615 120.600067 410.318881 120.325958 410.533147 120.055283 410.747413 119.788028 410.961678 119.524181 411.175944 119.263728 411.390210 119.006655 411.604476 118.752951 411.818741 118.502601 412.033007 118.255593 412.247273 118.011913 412.461538 117.771548 412.675804 117.534485 412.890070 117.300712 413.104336 117.070214 413.318601 116.842979 413.532867 116.618993 413.747133 116.398243 413.961399 116.180717 414.175664 115.966401 414.389930 115.755282 414.604196 115.547347 414.818462 115.342582 415.032727 115.140975 415.246993 114.942513 415.461259 114.747181 415.675524 114.554968 415.889790 114.365859 416.104056 114.179842 416.318322 113.996904 416.532587 113.817032 416.746853 113.640212 416.961119 113.466431 417.175385 113.295676 417.389650 113.127934 417.603916 112.963192 417.818182 112.801437 418.032448 112.642655 418.246713 112.486833 418.460979 112.333959 418.675245 112.184018 418.889510 112.036999 419.103776 111.892888 419.318042 111.751671 419.532308 111.613335 419.746573 111.477868 419.960839 111.345256 420.175105 111.215487 420.389371 111.088546 420.603636 110.964421 420.817902 110.843098 421.032168 110.724566 421.246434 110.608809 421.460699 110.495816 421.674965 110.385572 421.889231 110.278066 422.103497 110.173284 422.317762 110.071212 422.532028 109.971837 422.746294 109.875147 422.960559 109.781129 423.174825 109.689768 423.389091 109.601052 423.603357 109.514968 423.817622 109.431503 424.031888 109.350643 424.246154 109.272375 424.460420 109.196687 424.674685 109.123565 424.888951 109.052995 425.103217 108.984966 425.317483 108.919463 425.531748 108.856473 425.746014 108.795984 425.960280 108.737982 426.174545 108.682455 426.388811 108.629388 426.603077 108.578768 426.817343 108.530584 427.031608 108.484821 427.245874 108.441466 427.460140 108.400507 427.674406 108.361930 427.888671 108.325721 428.102937 108.291868 428.317203 108.260358 428.531469 108.231178 428.745734 108.204313 428.960000 108.179752 429.174266 108.157481 429.388531 108.137487 429.602797 108.119757 429.817063 108.104277 430.031329 108.091035 430.245594 108.080017 430.459860 108.071211 430.674126 108.064602 430.888392 108.060178 431.102657 108.057926 431.316923 108.057833 431.531189 108.059885 431.745455 108.064070 431.959720 108.070374 432.173986 108.078783 432.388252 108.089286 432.602517 108.101868 432.816783 108.116518 433.031049 108.133220 433.245315 108.151963 433.459580 108.172733 433.673846 108.195517 433.888112 108.220302 434.102378 108.247075 434.316643 108.275822 434.530909 108.306531 434.745175 108.339188 434.959441 108.373781 435.173706 108.410295 435.387972 108.448718 435.602238 108.489038 435.816503 108.531239 436.030769 108.575310 436.245035 108.621238 436.459301 108.669009 436.673566 108.718609 436.887832 108.770027 437.102098 108.823248 437.316364 108.878260 437.530629 108.935050 437.744895 108.993604 437.959161 109.053908 438.173427 109.115951 438.387692 109.179719 438.601958 109.245199 438.816224 109.312377 439.030490 109.381241 439.244755 109.451777 439.459021 109.523972 439.673287 109.597814 439.887552 109.673288 440.101818 109.750382 440.316084 109.829082 440.530350 109.909374 440.744615 109.991236 440.958881 110.074644 441.173147 110.159575 441.387413 110.246004 441.601678 110.333909 441.815944 110.423264 442.030210 110.514048 442.244476 110.606236 442.458741 110.699804 442.673007 110.794728 442.887273 110.890986 443.101538 110.988553 443.315804 111.087406 443.530070 111.187521 443.744336 111.288874 443.958601 111.391442 444.172867 111.495201 444.387133 111.600127 444.601399 111.706197 444.815664 111.813387 445.029930 111.921673 445.244196 112.031032 445.458462 112.141439 445.672727 112.252872 445.886993 112.365307 446.101259 112.478719 446.315524 112.593086 446.529790 112.708384 446.744056 112.824588 446.958322 112.941675 447.172587 113.059622 447.386853 113.178405 447.601119 113.298000 447.815385 113.418384 448.029650 113.539533 448.243916 113.661422 448.458182 113.784029 448.672448 113.907331 448.886713 114.031302 449.100979 114.155919 449.315245 114.281160 449.529510 114.407000 449.743776 114.533415 449.958042 114.660382 450.172308 114.787877 450.386573 114.915876 450.600839 115.044356 450.815105 115.173294 451.029371 115.302664 451.243636 115.432445 451.457902 115.562611 451.672168 115.693140 451.886434 115.824008 452.100699 115.955191 452.314965 116.086665 452.529231 116.218406 452.743497 116.350392 452.957762 116.482598 453.172028 116.615001 453.386294 116.747577 453.600559 116.880302 453.814825 117.013153 454.029091 117.146106 454.243357 117.279137 454.457622 117.412222 454.671888 117.545339 454.886154 117.678463 455.100420 117.811571 455.314685 117.944638 455.528951 118.077642 455.743217 118.210558 455.957483 118.343363 456.171748 118.476034 456.386014 118.608546 456.600280 118.740876 456.814545 118.873000 457.028811 119.004894 457.243077 119.136536 457.457343 119.267900 457.671608 119.398965 457.885874 119.529705 458.100140 119.660097 458.314406 119.790117 458.528671 119.919743 458.742937 120.048950 458.957203 120.177714 459.171469 120.306012 459.385734 120.433820 459.600000 120.561114 459.814266 120.687871 460.028531 120.814067 460.242797 120.939679 460.457063 121.064683 460.671329 121.189054 460.885594 121.312770 461.099860 121.435807 461.314126 121.558141 461.528392 121.679748 461.742657 121.800604 461.956923 121.920687 462.171189 122.039972 462.385455 122.158436 462.599720 122.276055 462.813986 122.392805 463.028252 122.508663 463.242517 122.623605 463.456783 122.737607 463.671049 122.850646 463.885315 122.962697 464.099580 123.073738 464.313846 123.183745 464.528112 123.292693 464.742378 123.400560 464.956643 123.507321 465.170909 123.612954 465.385175 123.717433 465.599441 123.820736 465.813706 123.922839 466.027972 124.023718 466.242238 124.123350 466.456503 124.221710 466.670769 124.318776 466.885035 124.414523 467.099301 124.508928 467.313566 124.601968 467.527832 124.693617 467.742098 124.783854 467.956364 124.872654 468.170629 124.959993 468.384895 125.045848 468.599161 125.130195 468.813427 125.213010 469.027692 125.294270 469.241958 125.373952 469.456224 125.452031 469.670490 125.528483 469.884755 125.603286 470.099021 125.676415 470.313287 125.747847 470.527552 125.817557 470.741818 125.885524 470.956084 125.951721 471.170350 126.016127 471.384615 126.078718 471.598881 126.139468 471.813147 126.198356 472.027413 126.255358 472.241678 126.310449 472.455944 126.363605 472.670210 126.414805 472.884476 126.464022 473.098741 126.511235 473.313007 126.556419 473.527273 126.599551 473.741538 126.640607 473.955804 126.679562 474.170070 126.716395 474.384336 126.751080 474.598601 126.783595 474.812867 126.813915 475.027133 126.842017 475.241399 126.867877 475.455664 126.891472 475.669930 126.912778 475.884196 126.931771 476.098462 126.948427 476.312727 126.962723 476.526993 126.974636 476.741259 126.984140 476.955524 126.991214 477.169790 126.995833 477.384056 126.997973 477.598322 126.997611 477.812587 126.994724 478.026853 126.989286 478.241119 126.981276 478.455385 126.970668 478.669650 126.957440 478.883916 126.941568 479.098182 126.923028 479.312448 126.901796 479.526713 126.877849 479.740979 126.851163 479.955245 126.821714 480.169510 126.789479 480.383776 126.754434 480.598042 126.716556 480.812308 126.675820 481.026573 126.632203 481.240839 126.585681 481.455105 126.536231 481.669371 126.483829 481.883636 126.428452 482.097902 126.370075 482.312168 126.308675 482.526434 126.244228 482.740699 126.176711 482.954965 126.106100 483.169231 126.032371 483.383497 125.955500 483.597762 125.875465 483.812028 125.792241 484.026294 125.705804 484.240559 125.616131 484.454825 125.523199 484.669091 125.426983 484.883357 125.327460 485.097622 125.224606 485.311888 125.118397 485.526154 125.008811 485.740420 124.895822 485.954685 124.779408 486.168951 124.659545 486.383217 124.536209 486.597483 124.409377 486.811748 124.279024 487.026014 124.145128 487.240280 124.007664 487.454545 123.866608 487.668811 123.721938 487.883077 123.573629 488.097343 123.421658 488.311608 123.266001 488.525874 123.106635 488.740140 122.943535 488.954406 122.776678 489.168671 122.606040 489.382937 122.431599 489.597203 122.253329 489.811469 122.071208 490.025734 121.885211 490.240000 121.695315 490.454266 121.501497 490.668531 121.303732 490.882797 121.101998 491.097063 120.896269 491.311329 120.686524 491.525594 120.472737 491.739860 120.254885 491.954126 120.032946 492.168392 119.806894 492.382657 119.576706 492.596923 119.342359 492.811189 119.103829 493.025455 118.861092 493.239720 118.614125 493.453986 118.362903 493.668252 118.107404 493.882517 117.847603 494.096783 117.583487 494.311049 117.315084 494.525315 117.042429 494.739580 116.765560 494.953846 116.484514 495.168112 116.199328 495.382378 115.910039 495.596643 115.616683 495.810909 115.319299 496.025175 115.017924 496.239441 114.712593 496.453706 114.403344 496.667972 114.090214 496.882238 113.773241 497.096503 113.452460 497.310769 113.127910 497.525035 112.799627 497.739301 112.467649 497.953566 112.132011 498.167832 111.792752 498.382098 111.449908 498.596364 111.103516 498.810629 110.753614 499.024895 110.400238 499.239161 110.043426 499.453427 109.683214 499.667692 109.319639 499.881958 108.952739 500.096224 108.582550 500.310490 108.209110 500.524755 107.832455 500.739021 107.452623 500.953287 107.069650 501.167552 106.683574 501.381818 106.294431 501.596084 105.902259 501.810350 105.507095 502.024615 105.108975 502.238881 104.707937 502.453147 104.304018 502.667413 103.897254 502.881678 103.487683 503.095944 103.075342 503.310210 102.660268 503.524476 102.242497 503.738741 101.822068 503.953007 101.399016 504.167273 100.973379 504.381538 100.545194 504.595804 100.114498 504.810070 99.681327 505.024336 99.245720 505.238601 98.807713 505.452867 98.367342 505.667133 97.924646 505.881399 97.479661 506.095664 97.032424 506.309930 96.582971 506.524196 96.131341 506.738462 95.677570 506.952727 95.221696 507.166993 94.763754 507.381259 94.303783 507.595524 93.841818 507.809790 93.377898 508.024056 92.912059 508.238322 92.444339 508.452587 91.974774 508.666853 91.503401 508.881119 91.030257 509.095385 90.555380 509.309650 90.078806 509.523916 89.600573 509.738182 89.120717 509.952448 88.639275 510.166713 88.156285 510.380979 87.671783 510.595245 87.185807 510.809510 86.698394 511.023776 86.209580 511.238042 85.719402 511.452308 85.227898 511.666573 84.735105 511.880839 84.241059 512.095105 83.745798 512.309371 83.249359 512.523636 82.751778 512.737902 82.253093 512.952168 81.753341 513.166434 81.252558 513.380699 80.750783 513.594965 80.248051 513.809231 79.744400 514.023497 79.239867 514.237762 78.734488 514.452028 78.228302 514.666294 77.721344 514.880559 77.213652 515.094825 76.705264 515.309091 76.196215 515.523357 75.686543 515.737622 75.176286 515.951888 74.665479 516.166154 74.154160 516.380420 73.642367 516.594685 73.130135 516.808951 72.617503 517.023217 72.104507 517.237483 71.591184 517.451748 71.077571 517.666014 70.563705 517.880280 70.049624 518.094545 69.535363 518.308811 69.020961 518.523077 68.506455 518.737343 67.991880 518.951608 67.477275 519.165874 66.962677 519.380140 66.448121 519.594406 65.933647 519.808671 65.419289 520.022937 64.905086 520.237203 64.391074 520.451469 63.877291 520.665734 63.363774 520.880000 62.850559 521.094266 62.337683 521.308531 61.825184 521.522797 61.313099 521.737063 60.801464 521.951329 60.290317 522.165594 59.779694 522.379860 59.269633 522.594126 58.760171 522.808392 58.251345 523.022657 57.743191 523.236923 57.235747 523.451189 56.729050 523.665455 56.223136 523.879720 55.718044 524.093986 55.213809 524.308252 54.710469 524.522517 54.208061 524.736783 53.706622 524.951049 53.206189 525.165315 52.706799 525.379580 52.208488 525.593846 51.711295 525.808112 51.215256 526.022378 50.720408 526.236643 50.226788 526.450909 49.734432 526.665175 49.243379 526.879441 48.753666 527.093706 48.265328 527.307972 47.778403 527.522238 47.292929 527.736503 46.808942 527.950769 46.326479 528.165035 45.845577 528.379301 45.366273 528.593566 44.888605 528.807832 44.412609 529.022098 43.938323 529.236364 43.465782 529.450629 42.995025 529.664895 42.526089 529.879161 42.059010 530.093427 41.593825 530.307692 41.130572 530.521958 40.669287 530.736224 40.210008 530.950490 39.752771 531.164755 39.297614 531.379021 38.844574 531.593287 38.393687 531.807552 37.944990 532.021818 37.498522 532.236084 37.054317 532.450350 36.612415 532.664615 36.172851 532.878881 35.735663 533.093147 35.300888 533.307413 34.868562 533.521678 34.438723 533.735944 34.011408 533.950210 33.586654 534.164476 33.164498 534.378741 32.744976 534.593007 32.328127 534.807273 31.913986 535.021538 31.502591 535.235804 31.093979 535.450070 30.688187 535.664336 30.285252 535.878601 29.885211 536.092867 29.488102 536.307133 29.093960 536.521399 28.702823 536.735664 28.314728 536.949930 27.929713 537.164196 27.547813 537.378462 27.169067 537.592727 26.793511 537.806993 26.421182 538.021259 26.052117 538.235524 25.686354 538.449790 25.323929 538.664056 24.964879 538.878322 24.609241 539.092587 24.257053 539.306853 23.908351 539.521119 23.563172 539.735385 23.221554 539.949650 22.883533 540.163916 22.549147 540.378182 22.218432 540.592448 21.891426 540.806713 21.568165 541.020979 21.248686 541.235245 20.933028 541.449510 20.621225 541.663776 20.313316 541.878042 20.009338 542.092308 19.709328 542.306573 19.413322 542.520839 19.121358 542.735105 18.833472 542.949371 18.549702 543.163636 18.270085 543.377902 17.994658 543.592168 17.723457 543.806434 17.456521 544.020699 17.193885 544.234965 16.935587 544.449231 16.681663 544.663497 16.432152 544.877762 16.187089 545.092028 15.946513 545.306294 15.710459 545.520559 15.478965 545.734825 15.252069 545.949091 15.029806 546.163357 14.812214 546.377622 14.599331 546.591888 14.391192 546.806154 14.187836 547.020420 13.989298 547.234685 13.795617 547.448951 13.606829 547.663217 13.422962 547.877483 13.244005 548.091748 13.069939 548.306014 12.900743 548.520280 12.736400 548.734545 12.576887 548.948811 12.422187 549.163077 12.272278 549.377343 12.127142 549.591608 11.986759 549.805874 11.851109 550.020140 11.720172 550.234406 11.593928 550.448671 11.472359 550.662937 11.355443 550.877203 11.243162 551.091469 11.135495 551.305734 11.032424 551.520000 10.933927 551.734266 10.839986 551.948531 10.750581 552.162797 10.665692 552.377063 10.585299 552.591329 10.509382 552.805594 10.437923 553.019860 10.370901 553.234126 10.308296 553.448392 10.250089 553.662657 10.196260 553.876923 10.146789 554.091189 10.101657 554.305455 10.060843 554.519720 10.024329 554.733986 9.992094 554.948252 9.964118 555.162517 9.940383 555.376783 9.920868 555.591049 9.905553 555.805315 9.894420 556.019580 9.887447 556.233846 9.884615 556.448112 9.885906 556.662378 9.891298 556.876643 9.900772 557.090909 9.914309 557.305175 9.931888 557.519441 9.953491 557.733706 9.979097 557.947972 10.008686 558.162238 10.042239 558.376503 10.079737 558.590769 10.121159 558.805035 10.166485 559.019301 10.215697 559.233566 10.268773 559.447832 10.325696 559.662098 10.386444 559.876364 10.450998 560.090629 10.519338 560.304895 10.591446 560.519161 10.667300 560.733427 10.746881 560.947692 10.830170 561.161958 10.917147 561.376224 11.007791 561.590490 11.102084 561.804755 11.200006 562.019021 11.301536 562.233287 11.406656 562.447552 11.515345 562.661818 11.627584 562.876084 11.743353 563.090350 11.862632 563.304615 11.985402 563.518881 12.111642 563.733147 12.241334 563.947413 12.374457 564.161678 12.510992 564.375944 12.650918 564.590210 12.794217 564.804476 12.940869 565.018741 13.090853 565.233007 13.244150 565.447273 13.400741 565.661538 13.560605 565.875804 13.723723 566.090070 13.890076 566.304336 14.059643 566.518601 14.232404 566.732867 14.408341 566.947133 14.587433 567.161399 14.769660 567.375664 14.955004 567.589930 15.143443 567.804196 15.334960 568.018462 15.529532 568.232727 15.727142 568.446993 15.927769 568.661259 16.131393 568.875524 16.337996 569.089790 16.547556 569.304056 16.760055 569.518322 16.975473 569.732587 17.193789 569.946853 17.414985 570.161119 17.639040 570.375385 17.865935 570.589650 18.095650 570.803916 18.328165 571.018182 18.563461 571.232448 18.801518 571.446713 19.042316 571.660979 19.285835 571.875245 19.532057 572.089510 19.780960 572.303776 20.032525 572.518042 20.286733 572.732308 20.543564 572.946573 20.802998 573.160839 21.065016 573.375105 21.329597 573.589371 21.596722 573.803636 21.866372 574.017902 22.138526 574.232168 22.413164 574.446434 22.690268 574.660699 22.969817 574.874965 23.251792 575.089231 23.536173 575.303497 23.822940 575.517762 24.112073 575.732028 24.403553 575.946294 24.697361 576.160559 24.993475 576.374825 25.291877 576.589091 25.592547 576.803357 25.895466 577.017622 26.200612 577.231888 26.507968 577.446154 26.817512 577.660420 27.129226 577.874685 27.443089 578.088951 27.759082 578.303217 28.077185 578.517483 28.397378 578.731748 28.719643 578.946014 29.043958 579.160280 29.370304 579.374545 29.698662 579.588811 30.029012 579.803077 30.361334 580.017343 30.695608 580.231608 31.031814 580.445874 31.369934 580.660140 31.709947 580.874406 32.051833 581.088671 32.395573 581.302937 32.741147 581.517203 33.088536 581.731469 33.437719 581.945734 33.788676 582.160000 34.141389 582.374266 34.495838 582.588531 34.852002 582.802797 35.209862 583.017063 35.569398 583.231329 35.930591 583.445594 36.293421 583.659860 36.657867 583.874126 37.023912 584.088392 37.391533 584.302657 37.760713 584.516923 38.131431 584.731189 38.503667 584.945455 38.877403 585.159720 39.252617 585.373986 39.629291 585.588252 40.007404 585.802517 40.386937 586.016783 40.767870 586.231049 41.150184 586.445315 41.533858 586.659580 41.918874 586.873846 42.305210 587.088112 42.692849 587.302378 43.081769 587.516643 43.471951 587.730909 43.863376 587.945175 44.256023 588.159441 44.649873 588.373706 45.044907 588.587972 45.441104 588.802238 45.838445 589.016503 46.236910 589.230769 46.636479 589.445035 47.037133 589.659301 47.438852 589.873566 47.841616 590.087832 48.245406 590.302098 48.650201 590.516364 49.055982 590.730629 49.462730 590.944895 49.870424 591.159161 50.279045 591.373427 50.688574 591.587692 51.098989 591.801958 51.510273 592.016224 51.922404 592.230490 52.335364 592.444755 52.749132 592.659021 53.163689 592.873287 53.579015 593.087552 53.995091 593.301818 54.411896 593.516084 54.829411 593.730350 55.247616 593.944615 55.666492 594.158881 56.086019 594.373147 56.506177 594.587413 56.926946 594.801678 57.348306 595.015944 57.770239 595.230210 58.192724 595.444476 58.615741 595.658741 59.039271 595.873007 59.463294 596.087273 59.887790 596.301538 60.312740 596.515804 60.738124 596.730070 61.163922 596.944336 61.590114 597.158601 62.016681 597.372867 62.443603 597.587133 62.870860 597.801399 63.298432 598.015664 63.726301 598.229930 64.154446 598.444196 64.582847 598.658462 65.011484 598.872727 65.440339 599.086993 65.869390 599.301259 66.298620 599.515524 66.728007 599.729790 67.157532 599.944056 67.587175 600.158322 68.016917 600.372587 68.446738 600.586853 68.876618 600.801119 69.306537 601.015385 69.736477 601.015385 514.000000" /></g></g><g class="titles"><text class="title plot_title" x="400.0" y="26">Thong-Lo 52</text></g><g class="plot overlay" transform="translate(167, 46)"><g class="series serie-0 color-0"><g class="dots"><circle class="dot reactive tooltip-trigger" cx="11.784615384615384" cy="302.2735880865124" r="2.5" /><desc class="value">250000</desc><desc class="x top">11.784615384615384</desc><desc class="y top">302.2735880865124</desc><desc class="x_label">Jan</desc></g><g class="dots"><circle class="dot reactive tooltip-trigger" cx="65.35104895104894" cy="358.4032356819507" r="2.5" /><desc class="value">243000</desc><desc class="x top">65.35104895104894</desc><desc class="y top">358.4032356819507</desc><desc class="x_label">Feb</desc></g><g class="dots"><circle class="dot reactive tooltip-trigger" cx="118.9174825174825" cy="109.82908204500984" r="2.5" /><desc class="value">274000</desc><desc class="x ">118.9174825174825</desc><desc class="y ">109.82908204500984</desc><desc class="x_label">Mar</desc></g><g class="dots"><circle class="dot reactive tooltip-trigger" cx="172.48391608391609" cy="478.68105195788985" r="2.5" /><desc class="value">228000</desc><desc class="x top">172.48391608391609</desc><desc class="y top">478.68105195788985</desc><desc class="x_label">Apr</desc></g><g class="dots"><circle class="dot reactive tooltip-trigger" cx="226.05034965034966" cy="334.34767242676287" r="2.5" /><desc class="value">246000</desc><desc class="x top">226.05034965034966</desc><desc class="y top">334.34767242676287</desc><desc class="x_label">May</desc></g><g class="dots"><circle class="dot reactive tooltip-trigger" cx="279.6167832167832" cy="133.88464530019763" r="2.5" /><desc class="value">271000</desc><desc class="x ">279.6167832167832</desc><desc class="y ">133.88464530019763</desc><desc class="x_label">Jun</desc></g><g class="dots"><circle class="dot reactive tooltip-trigger" cx="333.1832167832167" cy="326.32915134170025" r="2.5" /><desc class="value">247000</desc><desc class="x left top">333.1832167832167</desc><desc class="y left top">326.32915134170025</desc><desc class="x_label">Jul</desc></g><g class="dots"><circle class="dot reactive tooltip-trigger" cx="386.74965034965027" cy="173.97725072551071" r="2.5" /><desc class="value">266000</desc><desc class="x left">386.74965034965027</desc><desc class="y left">173.97725072551071</desc><desc class="x_label">Aug</desc></g><g class="dots"><circle class="dot reactive tooltip-trigger" cx="440.31608391608387" cy="109.82908204500984" r="2.5" /><desc class="value">274000</desc><desc class="x left">440.31608391608387</desc><desc class="y left">109.82908204500984</desc><desc class="x_label">Sep</desc></g><g class="dots"><circle class="dot reactive tooltip-trigger" cx="493.8825174825174" cy="117.84760313007246" r="2.5" /><desc class="value">273000</desc><desc class="x left">493.8825174825174</desc><desc class="y left">117.84760313007246</desc><desc class="x_label">Oct</desc></g><g class="dots"><circle class="dot reactive tooltip-trigger" cx="547.448951048951" cy="13.606829024258502" r="2.5" /><desc class="value">286000</desc><desc class="x left">547.448951048951</desc><desc class="y left">13.606829024258502</desc><desc class="x_label">Nov</desc></g><g class="dots"><circle class="dot reactive tooltip-trigger" cx="601.0153846153845" cy="69.73647661969676" r="2.5" /><desc class="value">279000</desc><desc class="x left">601.0153846153845</desc><desc class="y left">69.73647661969676</desc><desc class="x_label">Dec</desc></g></g></g><g class="plot text-overlay" transform="translate(167, 46)"><g class="series serie-0 color-0" /></g><g class="plot tooltip-overlay" transform="translate(167, 46)"><g class="tooltip" style="opacity: 0" transform="translate(0 0)"><rect class="tooltip-box" height="0" rx="0" ry="0" width="0" /><g class="text" /></g></g><g class="legends" transform="translate(10, 56)"><g class="legend reactive activate-serie" id="activate-serie-0"><rect class="color-0 reactive" height="12" width="12" x="0.0" y="1.0" /><text x="17.0" y="11.2">Thong-Lo</text></g></g><g class="legends" transform="translate(790, 56)" /></g></svg>