<?xml version='1.0' encoding='utf-8'?>
<svg xmlns:xlink="http://www.w3.org/1999/xlink" class="pygal-chart" id="chart-7c775ba3-7232-40ad-9d7b-a4aa957be126" viewBox="0 0 800 600" xmlns="http://www.w3.org/2000/svg"><!--Generated with pygal 2.0.11 (etree) ©Kozea 2011-2015 on 2015-12-10--><!--http://pygal.org--><!--http://github.com/Kozea/pygal--><defs><style type="text/css">#chart-7c775ba3-7232-40ad-9d7b-a4aa957be126{-webkit-user-select:none;-webkit-font-smoothing:antialiased;font-family:Consolas,"Liberation Mono",Menlo,Courier,monospace}#chart-7c775ba3-7232-40ad-9d7b-a4aa957be126 .title{font-family:Consolas,"Liberation Mono",Menlo,Courier,monospace;font-size:16px}#chart-7c775ba3-7232-40ad-9d7b-a4aa957be126 .legends .legend text{font-family:Consolas,"Liberation Mono",Menlo,Courier,monospace;font-size:14px}#chart-7c775ba3-7232-40ad-9d7b-a4aa957be126 .axis text{font-family:Consolas,"Liberation Mono",Menlo,Courier,monospace;font-size:10px}#chart-7c775ba3-7232-40ad-9d7b-a4aa957be126 .axis text.major{font-family:Consolas,"Liberation Mono",Menlo,Courier,monospace;font-size:10px}#chart-7c775ba3-7232-40ad-9d7b-a4aa957be126 .text-overlay text.value{font-family:Consolas,"Liberation Mono",Menlo,Courier,monospace;font-size:16px}#chart-7c775ba3-7232-40ad-9d7b-a4aa957be126 .text-overlay text.label{font-family:Consolas,"Liberation Mono",Menlo,Courier,monospace;font-size:10px}#chart-7c775ba3-7232-40ad-9d7b-a4aa957be126 .tooltip{font-family:Consolas,"Liberation Mono",Menlo,Courier,monospace;font-size:14px}#chart-7c775ba3-7232-40ad-9d7b-a4aa957be126 text.no_data{font-family:Consolas,"Liberation Mono",Menlo,Courier,monospace;font-size:64px}
#chart-7c775ba3-7232-40ad-9d7b-a4aa957be126{background-color:black}#chart-7c775ba3-7232-40ad-9d7b-a4aa957be126 path,#chart-7c775ba3-7232-40ad-9d7b-a4aa957be126 line,#chart-7c775ba3-7232-40ad-9d7b-a4aa957be126 rect,#chart-7c775ba3-7232-40ad-9d7b-a4aa957be126 circle{-webkit-transition:250ms;-moz-transition:250ms;transition:250ms}#chart-7c775ba3-7232-40ad-9d7b-a4aa957be126 .graph &gt; .background{fill:black}#chart-7c775ba3-7232-40ad-9d7b-a4aa957be126 .plot &gt; .background{fill:#111}#chart-7c775ba3-7232-40ad-9d7b-a4aa957be126 .graph{fill:#999}#chart-7c775ba3-7232-40ad-9d7b-a4aa957be126 text.no_data{fill:#eee}#chart-7c775ba3-7232-40ad-9d7b-a4aa957be126 .title{fill:#eee}#chart-7c775ba3-7232-40ad-9d7b-a4aa957be126 .legends .legend text{fill:#999}#chart-7c775ba3-7232-40ad-9d7b-a4aa957be126 .legends .legend:hover text{fill:#eee}#chart-7c775ba3-7232-40ad-9d7b-a4aa957be126 .axis .line{stroke:#eee}#chart-7c775ba3-7232-40ad-9d7b-a4aa957be126 .axis .guide.line{stroke:#555}#chart-7c775ba3-7232-40ad-9d7b-a4aa957be126 .axis .major.line{stroke:#999}#chart-7c775ba3-7232-40ad-9d7b-a4aa957be126 .axis text.major{fill:#eee}#chart-7c775ba3-7232-40ad-9d7b-a4aa957be126 .axis.y .guides:hover .guide.line,#chart-7c775ba3-7232-40ad-9d7b-a4aa957be126 .line-graph .axis.x .guides:hover .guide.line,#chart-7c775ba3-7232-40ad-9d7b-a4aa957be126 .stackedline-graph .axis.x .guides:hover .guide.line,#chart-7c775ba3-7232-40ad-9d7b-a4aa957be126 .xy-graph .axis.x .guides:hover .guide.line{stroke:#eee}#chart-7c775ba3-7232-40ad-9d7b-a4aa957be126 .axis .guides:hover text{fill:#eee}#chart-7c775ba3-7232-40ad-9d7b-a4aa957be126 .reactive{fill-opacity:.8}#chart-7c775ba3-7232-40ad-9d7b-a4aa957be126 .reactive.active,#chart-7c775ba3-7232-40ad-9d7b-a4aa957be126 .active .reactive{fill-opacity:.4;stroke-width:4}#chart-7c775ba3-7232-40ad-9d7b-a4aa957be126 .series text{fill:#eee}#chart-7c775ba3-7232-40ad-9d7b-a4aa957be126 .tooltip rect{fill:#111;stroke:#eee;-webkit-transition:opacity 250ms;-moz-transition:opacity 250ms;transition:opacity 250ms}#chart-7c775ba3-7232-40ad-9d7b-a4aa957be126 .tooltip .label{fill:#999}#chart-7c775ba3-7232-40ad-9d7b-a4aa957be126 .tooltip .label{fill:#999}#chart-7c775ba3-7232-40ad-9d7b-a4aa957be126 .tooltip .legend{font-size:.8em;fill:#555}#chart-7c775ba3-7232-40ad-9d7b-a4aa957be126 .tooltip .x_label{font-size:.6em;fill:#eee}#chart-7c775ba3-7232-40ad-9d7b-a4aa957be126 .tooltip .xlink{font-size:.5em;text-decoration:underline}#chart-7c775ba3-7232-40ad-9d7b-a4aa957be126 .tooltip .value{font-size:1.5em}#chart-7c775ba3-7232-40ad-9d7b-a4aa957be126 .map-element{fill:#111;stroke:#555 !important}#chart-7c775ba3-7232-40ad-9d7b-a4aa957be126 .map-element .reactive{fill-opacity:inherit}#chart-7c775ba3-7232-40ad-9d7b-a4aa957be126 .color-0,#chart-7c775ba3-7232-40ad-9d7b-a4aa957be126 .color-0 a:visited{stroke:#ff5995;fill:#ff5995}#chart-7c775ba3-7232-40ad-9d7b-a4aa957be126 .text-overlay .color-0 text{fill:black}
#chart-7c775ba3-7232-40ad-9d7b-a4aa957be126 text.no_data{text-anchor:middle}#chart-7c775ba3-7232-40ad-9d7b-a4aa957be126 .guide.line{fill:none}#chart-7c775ba3-7232-40ad-9d7b-a4aa957be126 .centered{text-anchor:middle}#chart-7c775ba3-7232-40ad-9d7b-a4aa957be126 .title{text-anchor:middle}#chart-7c775ba3-7232-40ad-9d7b-a4aa957be126 .legends .legend text{fill-opacity:1}#chart-7c775ba3-7232-40ad-9d7b-a4aa957be126 .axis.x text{text-anchor:middle}#chart-7c775ba3-7232-40ad-9d7b-a4aa957be126 .axis.x:not(.web) text[transform]{text-anchor:start}#chart-7c775ba3-7232-40ad-9d7b-a4aa957be126 .axis.x:not(.web) text[transform].backwards{text-anchor:end}#chart-7c775ba3-7232-40ad-9d7b-a4aa957be126 .axis.y text{text-anchor:end}#chart-7c775ba3-7232-40ad-9d7b-a4aa957be126 .axis.y text[transform].backwards{text-anchor:start}#chart-7c775ba3-7232-40ad-9d7b-a4aa957be126 .axis.y2 text{text-anchor:start}#chart-7c775ba3-7232-40ad-9d7b-a4aa957be126 .axis.y2 text[transform].backwards{text-anchor:end}#chart-7c775ba3-7232-40ad-9d7b-a4aa957be126 .axis .guide.line{stroke-dasharray:4,4}#chart-7c775ba3-7232-40ad-9d7b-a4aa957be126 .axis .major.guide.line{stroke-dasharray:6,6}#chart-7c775ba3-7232-40ad-9d7b-a4aa957be126 .horizontal .axis.y .guide.line,#chart-7c775ba3-7232-40ad-9d7b-a4aa957be126 .horizontal .axis.y2 .guide.line,#chart-7c775ba3-7232-40ad-9d7b-a4aa957be126 .vertical .axis.x .guide.line{opacity:0}#chart-7c775ba3-7232-40ad-9d7b-a4aa957be126 .horizontal .axis.always_show .guide.line,#chart-7c775ba3-7232-40ad-9d7b-a4aa957be126 .vertical .axis.always_show .guide.line{opacity:1 !important}#chart-7c775ba3-7232-40ad-9d7b-a4aa957be126 .axis.y .guides:hover .guide.line,#chart-7c775ba3-7232-40ad-9d7b-a4aa957be126 .axis.y2 .guides:hover .guide.line,#chart-7c775ba3-7232-40ad-9d7b-a4aa957be126 .axis.x .guides:hover .guide.line{opacity:1}#chart-7c775ba3-7232-40ad-9d7b-a4aa957be126 .axis .guides:hover text{opacity:1}#chart-7c775ba3-7232-40ad-9d7b-a4aa957be126 .nofill{fill:none}#chart-7c775ba3-7232-40ad-9d7b-a4aa957be126 .subtle-fill{fill-opacity:.2}#chart-7c775ba3-7232-40ad-9d7b-a4aa957be126 .dot{stroke-width:1px;fill-opacity:1}#chart-7c775ba3-7232-40ad-9d7b-a4aa957be126 .dot.active{stroke-width:5px}#chart-7c775ba3-7232-40ad-9d7b-a4aa957be126 .dot.negative{fill:transparent}#chart-7c775ba3-7232-40ad-9d7b-a4aa957be126 text,#chart-7c775ba3-7232-40ad-9d7b-a4aa957be126 tspan{stroke:none !important}#chart-7c775ba3-7232-40ad-9d7b-a4aa957be126 .series text.active{opacity:1}#chart-7c775ba3-7232-40ad-9d7b-a4aa957be126 .tooltip rect{fill-opacity:.95;stroke-width:.5}#chart-7c775ba3-7232-40ad-9d7b-a4aa957be126 .tooltip text{fill-opacity:1}#chart-7c775ba3-7232-40ad-9d7b-a4aa957be126 .showable{visibility:hidden}#chart-7c775ba3-7232-40ad-9d7b-a4aa957be126 .showable.shown{visibility:visible}</style><script type="text/javascript">window.pygal = window.pygal || {};window.pygal.config = window.pygal.config || {};window.pygal.config['7c775ba3-7232-40ad-9d7b-a4aa957be126'] = {"css": ["file://style.css", "file://graph.css"], "legend_at_bottom": false, "stroke_style": null, "missing_value_fill_truncation": "x", "tooltip_border_radius": 0, "inner_radius": 0, "min_scale": 4, "show_x_guides": false, "y_label_rotation": 0, "show_only_major_dots": false, "interpolation_precision": 250, "margin_right": null, "x_label_rotation": 0, "dynamic_print_values": false, "margin_top": null, "x_labels_major_count": null, "js": ["//kozea.github.io/pygal.js/2.0.x/pygal-tooltips.min.js"], "interpolation_parameters": {}, "no_prefix": false, "title": "Phrom-Phong 50", "x_labels": ["Jan", "Feb", "Mar", "Apr", "May", "Jun", "Jul", "Aug", "Sep", "Oct", "Nov", "Dec"], "width": 800, "range": null, "show_y_guides": true, "truncate_legend": null, "force_uri_protocol": null, "x_title": null, "interpolate": "cubic", "fill": true, "print_zeroes": true, "margin_left": null, "legend_box_size": 12, "show_minor_y_labels": true, "logarithmic": false, "legend_at_bottom_columns": null, "value_formatter": null, "stroke": true, "margin_bottom": null, "pretty_print": false, "show_minor_x_labels": true, "y_labels_major_count": null, "disable_xml_declaration": false, "y_labels_major_every": null, "truncate_label": null, "stack_from_top": false, "defs": [], "human_readable": false, "include_x_axis": false, "show_legend": true, "tooltip_fancy_mode": true, "y_title": null, "style": {"tooltip_font_size": 14, "major_label_font_family": "Consolas, \"Liberation Mono\", Menlo, Courier, monospace", "value_font_family": "Consolas, \"Liberation Mono\", Menlo, Courier, monospace", "foreground": "#999", "tooltip_font_family": "Consolas, \"Liberation Mono\", Menlo, Courier, monospace", "opacity": ".8", "font_family": "Consolas, \"Liberation Mono\", Menlo, Courier, monospace", "foreground_subtle": "#555", "colors": ["#ff5995", "#b6e354", "#feed6c", "#8cedff", "#9e6ffe", "#899ca1", "#f8f8f2", "#bf4646", "#516083", "#f92672", "#82b414", "#fd971f", "#56c2d6", "#808384", "#8c54fe", "#465457"], "foreground_strong": "#eee", "no_data_font_size": 64, "opacity_hover": ".4", "plot_background": "#111", "value_font_size": 16, "legend_font_family": "Consolas, \"Liberation Mono\", Menlo, Courier, monospace", "value_label_font_size": 10, "major_guide_stroke_dasharray": "6,6", "legend_font_size": 14, "label_font_family": "Consolas, \"Liberation Mono\", Menlo, Courier, monospace", "label_font_size": 10, "transition": "250ms", "title_font_size": 16, "value_label_font_family": "Consolas, \"Liberation Mono\", Menlo, Courier, monospace", "background": "black", "title_font_family": "Consolas, \"Liberation Mono\", Menlo, Courier, monospace", "value_colors": [], "no_data_font_family": "Consolas, \"Liberation Mono\", Menlo, Courier, monospace", "guide_stroke_dasharray": "4,4", "major_label_font_size": 10}, "strict": false, "xrange": null, "rounded_bars": null, "x_labels_major": null, "dots_size": 2.5, "show_dots": true, "order_min": null, "no_data_text": "No data", "y_labels": null, "print_labels": false, "spacing": 10, "y_labels_major": null, "print_values": false, "legends": ["Phrom-Phong"], "zero": 0, "height": 600, "margin": 20, "box_mode": "extremes", "show_y_labels": true, "inverse_y_axis": false, "max_scale": 16, "show_x_labels": true, "explicit_size": false, "x_value_formatter": null, "secondary_range": null, "x_labels_major_every": null, "half_pie": false}</script><script type="text/javascript" xlink:href="//kozea.github.io/pygal.js/2.0.x/pygal-tooltips.min.js" /></defs><title>Phrom-Phong 50</title><g class="graph line-graph vertical"><rect class="background" height="600" width="800" x="0" y="0" /><g class="plot" transform="translate(192, 46)"><rect class="background" height="514" width="587.6" x="0" y="0" /><g class="axis y"><path class="line" d="M0.000000 514.000000 h587.600000" /><g class="guides"><path class="guide line" d="M0.000000 475.739227 h587.600000" /><text class="" x="-5" y="479.2392267932562">430000.0</text><title>430000.0</title></g><g class="guides"><path class="guide line" d="M0.000000 434.401932 h587.600000" /><text class="" x="-5" y="437.901932174684">440000.0</text><title>440000.0</title></g><g class="guides"><path class="major guide line" d="M0.000000 393.064638 h587.600000" /><text class="major" x="-5" y="396.5646375561118">450000.0</text><title>450000.0</title></g><g class="guides"><path class="guide line" d="M0.000000 351.727343 h587.600000" /><text class="" x="-5" y="355.22734293753956">460000.0</text><title>460000.0</title></g><g class="guides"><path class="guide line" d="M0.000000 310.390048 h587.600000" /><text class="" x="-5" y="313.8900483189674">470000.0</text><title>470000.0</title></g><g class="guides"><path class="guide line" d="M0.000000 269.052754 h587.600000" /><text class="" x="-5" y="272.55275370039516">480000.0</text><title>480000.0</title></g><g class="guides"><path class="guide line" d="M0.000000 227.715459 h587.600000" /><text class="" x="-5" y="231.21545908182298">490000.0</text><title>490000.0</title></g><g class="guides"><path class="major guide line" d="M0.000000 186.378164 h587.600000" /><text class="major" x="-5" y="189.87816446325076">500000.0</text><title>500000.0</title></g><g class="guides"><path class="guide line" d="M0.000000 145.040870 h587.600000" /><text class="" x="-5" y="148.54086984467858">510000.0</text><title>510000.0</title></g><g class="guides"><path class="guide line" d="M0.000000 103.703575 h587.600000" /><text class="" x="-5" y="107.20357522610635">520000.0</text><title>520000.0</title></g><g class="guides"><path class="guide line" d="M0.000000 62.366281 h587.600000" /><text class="" x="-5" y="65.86628060753412">530000.0</text><title>530000.0</title></g><g class="guides"><path class="guide line" d="M0.000000 21.028986 h587.600000" /><text class="" x="-5" y="24.52898598896195">540000.0</text><title>540000.0</title></g></g><g class="axis x"><g class="guides"><path class="line" d="M11.300000 0.000000 v514.000000" /><text class="" x="11.3" y="529.0">Jan</text></g><g class="guides"><path class="guide line" d="M62.663636 0.000000 v514.000000" /><text class="" x="62.66363636363637" y="529.0">Feb</text></g><g class="guides"><path class="guide line" d="M114.027273 0.000000 v514.000000" /><text class="" x="114.02727272727273" y="529.0">Mar</text></g><g class="guides"><path class="guide line" d="M165.390909 0.000000 v514.000000" /><text class="" x="165.39090909090908" y="529.0">Apr</text></g><g class="guides"><path class="guide line" d="M216.754545 0.000000 v514.000000" /><text class="" x="216.75454545454548" y="529.0">May</text></g><g class="guides"><path class="guide line" d="M268.118182 0.000000 v514.000000" /><text class="" x="268.1181818181818" y="529.0">Jun</text></g><g class="guides"><path class="guide line" d="M319.481818 0.000000 v514.000000" /><text class="" x="319.4818181818182" y="529.0">Jul</text></g><g class="guides"><path class="guide line" d="M370.845455 0.000000 v514.000000" /><text class="" x="370.8454545454546" y="529.0">Aug</text></g><g class="guides"><path class="guide line" d="M422.209091 0.000000 v514.000000" /><text class="" x="422.20909090909095" y="529.0">Sep</text></g><g class="guides"><path class="guide line" d="M473.572727 0.000000 v514.000000" /><text class="" x="473.5727272727273" y="529.0">Oct</text></g><g class="guides"><path class="guide line" d="M524.936364 0.000000 v514.000000" /><text class="" x="524.9363636363636" y="529.0">Nov</text></g><g class="guides"><path class="guide line" d="M576.300000 0.000000 v514.000000" /><text class="" x="576.3000000000001" y="529.0">Dec</text></g></g><g class="series serie-0 color-0"><path class="line reactive" d="M11.300000 514.000000 L11.300000 29.296445 11.505455 30.078190 11.710909 30.859901 11.916364 31.641544 12.121818 32.423087 12.327273 33.204494 12.532727 33.985732 12.738182 34.766768 12.943636 35.547567 13.149091 36.328096 13.354545 37.108321 13.560000 37.888208 13.765455 38.667723 13.970909 39.446834 14.176364 40.225505 14.381818 41.003703 14.587273 41.781395 14.792727 42.558546 14.998182 43.335123 15.203636 44.111092 15.409091 44.886420 15.614545 45.661071 15.820000 46.435014 16.025455 47.208213 16.230909 47.980636 16.436364 48.752247 16.641818 49.523015 16.847273 50.292904 17.052727 51.061881 17.258182 51.829913 17.463636 52.596965 17.669091 53.363003 17.874545 54.127995 18.080000 54.891906 18.285455 55.654702 18.490909 56.416349 18.696364 57.176815 18.901818 57.936064 19.107273 58.694064 19.312727 59.450780 19.518182 60.206179 19.723636 60.960227 19.929091 61.712890 20.134545 62.464134 20.340000 63.213926 20.545455 63.962232 20.750909 64.709018 20.956364 65.454250 21.161818 66.197894 21.367273 66.939918 21.572727 67.680286 21.778182 68.418965 21.983636 69.155922 22.189091 69.891122 22.394545 70.624533 22.600000 71.356119 22.805455 72.085847 23.010909 72.813684 23.216364 73.539596 23.421818 74.263549 23.627273 74.985508 23.832727 75.705442 24.038182 76.423314 24.243636 77.139093 24.449091 77.852744 24.654545 78.564233 24.860000 79.273526 25.065455 79.980590 25.270909 80.685391 25.476364 81.387896 25.681818 82.088069 25.887273 82.785879 26.092727 83.481290 26.298182 84.174269 26.503636 84.864782 26.709091 85.552797 26.914545 86.238277 27.120000 86.921191 27.325455 87.601504 27.530909 88.279182 27.736364 88.954192 27.941818 89.626500 28.147273 90.296072 28.352727 90.962874 28.558182 91.626872 28.763636 92.288034 28.969091 92.946324 29.174545 93.601710 29.380000 94.254157 29.585455 94.903631 29.790909 95.550100 29.996364 96.193528 30.201818 96.833883 30.407273 97.471130 30.612727 98.105236 30.818182 98.736167 31.023636 99.363890 31.229091 99.988369 31.434545 100.609573 31.640000 101.227466 31.845455 101.842015 32.050909 102.453187 32.256364 103.060947 32.461818 103.665262 32.667273 104.266097 32.872727 104.863420 33.078182 105.457197 33.283636 106.047393 33.489091 106.633975 33.694545 107.216909 33.900000 107.796162 34.105455 108.371699 34.310909 108.943486 34.516364 109.511491 34.721818 110.075679 34.927273 110.636016 35.132727 111.192469 35.338182 111.745004 35.543636 112.293587 35.749091 112.838184 35.954545 113.378762 36.160000 113.915287 36.365455 114.447725 36.570909 114.976041 36.776364 115.500204 36.981818 116.020178 37.187273 116.535929 37.392727 117.047425 37.598182 117.554632 37.803636 118.057515 38.009091 118.556040 38.214545 119.050175 38.420000 119.539885 38.625455 120.025136 38.830909 120.505895 39.036364 120.982128 39.241818 121.453801 39.447273 121.920880 39.652727 122.383332 39.858182 122.841123 40.063636 123.294218 40.269091 123.742585 40.474545 124.186190 40.680000 124.624998 40.885455 125.058976 41.090909 125.488090 41.296364 125.912306 41.501818 126.331591 41.707273 126.745911 41.912727 127.155232 42.118182 127.559520 42.323636 127.958742 42.529091 128.352863 42.734545 128.741850 42.940000 129.125669 43.145455 129.504287 43.350909 129.877669 43.556364 130.245782 43.761818 130.608592 43.967273 130.966066 44.172727 131.318169 44.378182 131.664867 44.583636 132.006127 44.789091 132.341916 44.994545 132.672199 45.200000 132.996942 45.405455 133.316113 45.610909 133.629676 45.816364 133.937599 46.021818 134.239847 46.227273 134.536387 46.432727 134.827184 46.638182 135.112206 46.843636 135.391418 47.049091 135.664787 47.254545 135.932279 47.460000 136.193860 47.665455 136.449496 47.870909 136.699153 48.076364 136.942798 48.281818 137.180397 48.487273 137.411917 48.692727 137.637322 48.898182 137.856580 49.103636 138.069658 49.309091 138.276520 49.514545 138.477133 49.720000 138.671464 49.925455 138.859479 50.130909 139.041143 50.336364 139.216424 50.541818 139.385287 50.747273 139.547699 50.952727 139.703625 51.158182 139.853033 51.363636 139.995888 51.569091 140.132156 51.774545 140.261804 51.980000 140.384799 52.185455 140.501105 52.390909 140.610689 52.596364 140.713519 52.801818 140.809559 53.007273 140.898776 53.212727 140.981137 53.418182 141.056607 53.623636 141.125152 53.829091 141.186740 54.034545 141.241336 54.240000 141.288906 54.445455 141.329417 54.650909 141.362835 54.856364 141.389126 55.061818 141.408256 55.267273 141.420192 55.472727 141.424899 55.678182 141.422344 55.883636 141.412494 56.089091 141.395314 56.294545 141.370771 56.500000 141.338830 56.705455 141.299459 56.910909 141.252623 57.116364 141.198288 57.321818 141.136421 57.527273 141.066988 57.732727 140.989956 57.938182 140.905289 58.143636 140.812956 58.349091 140.712921 58.554545 140.605151 58.760000 140.489613 58.965455 140.366272 59.170909 140.235095 59.376364 140.096048 59.581818 139.949097 59.787273 139.794209 59.992727 139.631349 60.198182 139.460484 60.403636 139.281580 60.609091 139.094604 60.814545 138.899521 61.020000 138.696298 61.225455 138.484901 61.430909 138.265296 61.636364 138.037449 61.841818 137.801327 62.047273 137.556896 62.252727 137.304122 62.458182 137.042972 62.663636 136.773411 62.869091 136.495430 63.074545 136.209114 63.280000 135.914575 63.485455 135.611922 63.690909 135.301266 63.896364 134.982716 64.101818 134.656382 64.307273 134.322376 64.512727 133.980806 64.718182 133.631784 64.923636 133.275419 65.129091 132.911821 65.334545 132.541101 65.540000 132.163369 65.745455 131.778735 65.950909 131.387308 66.156364 130.989200 66.361818 130.584520 66.567273 130.173379 66.772727 129.755887 66.978182 129.332153 67.183636 128.902288 67.389091 128.466403 67.594545 128.024607 67.800000 127.577010 68.005455 127.123722 68.210909 126.664855 68.416364 126.200517 68.621818 125.730820 68.827273 125.255872 69.032727 124.775785 69.238182 124.290669 69.443636 123.800633 69.649091 123.305788 69.854545 122.806244 70.060000 122.302111 70.265455 121.793499 70.470909 121.280519 70.676364 120.763280 70.881818 120.241893 71.087273 119.716468 71.292727 119.187114 71.498182 118.653943 71.703636 118.117065 71.909091 117.576589 72.114545 117.032625 72.320000 116.485284 72.525455 115.934677 72.730909 115.380912 72.936364 114.824101 73.141818 114.264353 73.347273 113.701778 73.552727 113.136487 73.758182 112.568590 73.963636 111.998197 74.169091 111.425419 74.374545 110.850364 74.580000 110.273144 74.785455 109.693869 74.990909 109.112648 75.196364 108.529593 75.401818 107.944812 75.607273 107.358417 75.812727 106.770517 76.018182 106.181222 76.223636 105.590643 76.429091 104.998891 76.634545 104.406074 76.840000 103.812303 77.045455 103.217688 77.250909 102.622340 77.456364 102.026369 77.661818 101.429884 77.867273 100.832996 78.072727 100.235816 78.278182 99.638452 78.483636 99.041016 78.689091 98.443617 78.894545 97.846366 79.100000 97.249373 79.305455 96.652748 79.510909 96.056601 79.716364 95.461042 79.921818 94.866182 80.127273 94.272130 80.332727 93.678997 80.538182 93.086893 80.743636 92.495928 80.949091 91.906212 81.154545 91.317855 81.360000 90.730968 81.565455 90.145661 81.770909 89.562043 81.976364 88.980225 82.181818 88.400318 82.387273 87.822430 82.592727 87.246673 82.798182 86.673157 83.003636 86.101991 83.209091 85.533287 83.414545 84.967153 83.620000 84.403700 83.825455 83.843039 84.030909 83.285279 84.236364 82.730531 84.441818 82.178905 84.647273 81.630511 84.852727 81.085458 85.058182 80.543858 85.263636 80.005820 85.469091 79.471455 85.674545 78.940873 85.880000 78.414183 86.085455 77.891497 86.290909 77.372923 86.496364 76.858573 86.701818 76.348556 86.907273 75.842983 87.112727 75.341964 87.318182 74.845609 87.523636 74.354027 87.729091 73.867330 87.934545 73.385628 88.140000 72.909030 88.345455 72.437646 88.550909 71.971587 88.756364 71.510964 88.961818 71.055885 89.167273 70.606462 89.372727 70.162804 89.578182 69.725022 89.783636 69.293225 89.989091 68.867525 90.194545 68.448030 90.400000 68.034852 90.605455 67.628100 90.810909 67.227885 91.016364 66.834316 91.221818 66.447504 91.427273 66.067559 91.632727 65.694591 91.838182 65.328710 92.043636 64.970027 92.249091 64.618652 92.454545 64.274694 92.660000 63.938264 92.865455 63.609472 93.070909 63.288428 93.276364 62.975243 93.481818 62.670026 93.687273 62.372887 93.892727 62.083938 94.098182 61.803287 94.303636 61.531046 94.509091 61.267324 94.714545 61.012231 94.920000 60.765877 95.125455 60.528374 95.330909 60.299830 95.536364 60.080357 95.741818 59.870063 95.947273 59.669060 96.152727 59.477457 96.358182 59.295365 96.563636 59.122894 96.769091 58.960154 96.974545 58.807254 97.180000 58.664306 97.385455 58.531420 97.590909 58.408705 97.796364 58.296271 98.001818 58.194230 98.207273 58.102690 98.412727 58.021763 98.618182 57.951557 98.823636 57.892185 99.029091 57.843755 99.234545 57.806377 99.440000 57.780163 99.645455 57.765222 99.850909 57.761664 100.056364 57.769599 100.261818 57.789138 100.467273 57.820390 100.672727 57.863466 100.878182 57.918477 101.083636 57.985531 101.289091 58.064740 101.494545 58.156213 101.700000 58.260061 101.905455 58.376393 102.110909 58.505320 102.316364 58.646953 102.521818 58.801400 102.727273 58.968773 102.932727 59.149182 103.138182 59.342736 103.343636 59.549546 103.549091 59.769722 103.754545 60.003374 103.960000 60.250612 104.165455 60.511546 104.370909 60.786288 104.576364 61.074946 104.781818 61.377630 104.987273 61.694452 105.192727 62.025521 105.398182 62.370948 105.603636 62.730842 105.809091 63.105313 106.014545 63.494472 106.220000 63.898430 106.425455 64.317295 106.630909 64.751179 106.836364 65.200191 107.041818 65.664441 107.247273 66.144040 107.452727 66.639098 107.658182 67.149726 107.863636 67.676032 108.069091 68.218127 108.274545 68.776123 108.480000 69.350127 108.685455 69.940252 108.890909 70.546606 109.096364 71.169300 109.301818 71.808445 109.507273 72.464150 109.712727 73.136526 109.918182 73.825682 110.123636 74.531729 110.329091 75.254777 110.534545 75.994937 110.740000 76.752317 110.945455 77.527029 111.150909 78.319183 111.356364 79.128888 111.561818 79.956255 111.767273 80.801395 111.972727 81.664416 112.178182 82.545430 112.383636 83.444547 112.589091 84.361876 112.794545 85.297528 113.000000 86.251612 113.205455 87.224240 113.410909 88.215522 113.616364 89.225566 113.821818 90.254485 114.027273 91.302387 114.232727 92.369335 114.438182 93.455205 114.643636 94.559821 114.849091 95.683010 115.054545 96.824599 115.260000 97.984415 115.465455 99.162284 115.670909 100.358032 115.876364 101.571486 116.081818 102.802472 116.287273 104.050818 116.492727 105.316349 116.698182 106.598892 116.903636 107.898273 117.109091 109.214319 117.314545 110.546857 117.520000 111.895713 117.725455 113.260714 117.930909 114.641685 118.136364 116.038454 118.341818 117.450847 118.547273 118.878691 118.752727 120.321812 118.958182 121.780036 119.163636 123.253190 119.369091 124.741101 119.574545 126.243595 119.780000 127.760499 119.985455 129.291639 120.190909 130.836841 120.396364 132.395932 120.601818 133.968740 120.807273 135.555089 121.012727 137.154807 121.218182 138.767720 121.423636 140.393654 121.629091 142.032437 121.834545 143.683895 122.040000 145.347854 122.245455 147.024140 122.450909 148.712581 122.656364 150.413002 122.861818 152.125231 123.067273 153.849093 123.272727 155.584415 123.478182 157.331025 123.683636 159.088747 123.889091 160.857410 124.094545 162.636838 124.300000 164.426859 124.505455 166.227300 124.710909 168.037986 124.916364 169.858745 125.121818 171.689403 125.327273 173.529785 125.532727 175.379720 125.738182 177.239033 125.943636 179.107551 126.149091 180.985100 126.354545 182.871507 126.560000 184.766598 126.765455 186.670200 126.970909 188.582140 127.176364 190.502244 127.381818 192.430337 127.587273 194.366248 127.792727 196.309802 127.998182 198.260826 128.203636 200.219147 128.409091 202.184590 128.614545 204.156983 128.820000 206.136152 129.025455 208.121923 129.230909 210.114124 129.436364 212.112579 129.641818 214.117117 129.847273 216.127563 130.052727 218.143744 130.258182 220.165487 130.463636 222.192618 130.669091 224.224963 130.874545 226.262349 131.080000 228.304603 131.285455 230.351551 131.490909 232.403019 131.696364 234.458834 131.901818 236.518823 132.107273 238.582813 132.312727 240.650628 132.518182 242.722097 132.723636 244.797045 132.929091 246.875300 133.134545 248.956687 133.340000 251.041033 133.545455 253.128164 133.750909 255.217908 133.956364 257.310091 134.161818 259.404539 134.367273 261.501078 134.572727 263.599535 134.778182 265.699738 134.983636 267.801511 135.189091 269.904682 135.394545 272.009077 135.600000 274.114523 135.805455 276.220846 136.010909 278.327873 136.216364 280.435431 136.421818 282.543344 136.627273 284.651441 136.832727 286.759548 137.038182 288.867491 137.243636 290.975097 137.449091 293.082193 137.654545 295.188604 137.860000 297.294157 138.065455 299.398679 138.270909 301.501996 138.476364 303.603935 138.681818 305.704323 138.887273 307.802985 139.092727 309.899749 139.298182 311.994440 139.503636 314.086886 139.709091 316.176913 139.914545 318.264347 140.120000 320.349015 140.325455 322.430743 140.530909 324.509359 140.736364 326.584687 140.941818 328.656556 141.147273 330.724791 141.352727 332.789219 141.558182 334.849666 141.763636 336.905959 141.969091 338.957925 142.174545 341.005390 142.380000 343.048180 142.585455 345.086122 142.790909 347.119043 142.996364 349.146768 143.201818 351.169125 143.407273 353.185940 143.612727 355.197040 143.818182 357.202251 144.023636 359.201399 144.229091 361.194311 144.434545 363.180814 144.640000 365.160734 144.845455 367.133897 145.050909 369.100130 145.256364 371.059260 145.461818 373.011113 145.667273 374.955516 145.872727 376.892295 146.078182 378.821276 146.283636 380.742287 146.489091 382.655153 146.694545 384.559701 146.900000 386.455758 147.105455 388.343150 147.310909 390.221704 147.516364 392.091245 147.721818 393.951602 147.927273 395.802600 148.132727 397.644065 148.338182 399.475824 148.543636 401.297705 148.749091 403.109532 148.954545 404.911133 149.160000 406.702335 149.365455 408.482963 149.570909 410.252844 149.776364 412.011805 149.981818 413.759673 150.187273 415.496273 150.392727 417.221432 150.598182 418.934978 150.803636 420.636735 151.009091 422.326531 151.214545 424.004193 151.420000 425.669546 151.625455 427.322418 151.830909 428.962634 152.036364 430.590022 152.241818 432.204408 152.447273 433.805618 152.652727 435.393479 152.858182 436.967817 153.063636 438.528459 153.269091 440.075232 153.474545 441.607961 153.680000 443.126474 153.885455 444.630597 154.090909 446.120156 154.296364 447.594978 154.501818 449.054890 154.707273 450.499717 154.912727 451.929287 155.118182 453.343426 155.323636 454.741960 155.529091 456.124716 155.734545 457.491521 155.940000 458.842201 156.145455 460.176582 156.350909 461.494491 156.556364 462.795755 156.761818 464.080199 156.967273 465.347652 157.172727 466.597938 157.378182 467.830885 157.583636 469.046319 157.789091 470.244066 157.994545 471.423953 158.200000 472.585807 158.405455 473.729455 158.610909 474.854721 158.816364 475.961434 159.021818 477.049419 159.227273 478.118504 159.432727 479.168514 159.638182 480.199276 159.843636 481.210617 160.049091 482.202363 160.254545 483.174341 160.460000 484.126377 160.665455 485.058297 160.870909 485.969929 161.076364 486.861098 161.281818 487.731632 161.487273 488.581356 161.692727 489.410097 161.898182 490.217682 162.103636 491.003938 162.309091 491.768690 162.514545 492.511765 162.720000 493.232990 162.925455 493.932192 163.130909 494.609196 163.336364 495.263829 163.541818 495.895918 163.747273 496.505289 163.952727 497.091770 164.158182 497.655185 164.363636 498.195362 164.569091 498.712128 164.774545 499.205308 164.980000 499.674730 165.185455 500.120220 165.390909 500.541604 165.596364 500.938761 165.801818 501.311784 166.007273 501.660816 166.212727 501.986001 166.418182 502.287483 166.623636 502.565407 166.829091 502.819916 167.034545 503.051155 167.240000 503.259268 167.445455 503.444399 167.650909 503.606692 167.856364 503.746291 168.061818 503.863340 168.267273 503.957983 168.472727 504.030366 168.678182 504.080631 168.883636 504.108922 169.089091 504.115385 169.294545 504.100162 169.500000 504.063399 169.705455 504.005239 169.910909 503.925826 170.116364 503.825305 170.321818 503.703819 170.527273 503.561513 170.732727 503.398531 170.938182 503.215017 171.143636 503.011115 171.349091 502.786969 171.554545 502.542723 171.760000 502.278522 171.965455 501.994510 172.170909 501.690830 172.376364 501.367627 172.581818 501.025044 172.787273 500.663227 172.992727 500.282319 173.198182 499.882465 173.403636 499.463807 173.609091 499.026492 173.814545 498.570662 174.020000 498.096461 174.225455 497.604035 174.430909 497.093526 174.636364 496.565080 174.841818 496.018840 175.047273 495.454950 175.252727 494.873554 175.458182 494.274798 175.663636 493.658824 175.869091 493.025777 176.074545 492.375800 176.280000 491.709039 176.485455 491.025637 176.690909 490.325738 176.896364 489.609487 177.101818 488.877028 177.307273 488.128504 177.512727 487.364059 177.718182 486.583839 177.923636 485.787987 178.129091 484.976647 178.334545 484.149963 178.540000 483.308079 178.745455 482.451140 178.950909 481.579290 179.156364 480.692672 179.361818 479.791432 179.567273 478.875712 179.772727 477.945657 179.978182 477.001412 180.183636 476.043120 180.389091 475.070925 180.594545 474.084972 180.800000 473.085405 181.005455 472.072367 181.210909 471.046003 181.416364 470.006458 181.621818 468.953875 181.827273 467.888398 182.032727 466.810171 182.238182 465.719339 182.443636 464.616046 182.649091 463.500435 182.854545 462.372651 183.060000 461.232838 183.265455 460.081141 183.470909 458.917703 183.676364 457.742668 183.881818 456.556180 184.087273 455.358384 184.292727 454.149424 184.498182 452.929444 184.703636 451.698588 184.909091 450.456999 185.114545 449.204824 185.320000 447.942204 185.525455 446.669285 185.730909 445.386210 185.936364 444.093124 186.141818 442.790171 186.347273 441.477495 186.552727 440.155240 186.758182 438.823550 186.963636 437.482569 187.169091 436.132442 187.374545 434.773312 187.580000 433.405324 187.785455 432.028622 187.990909 430.643349 188.196364 429.249651 188.401818 427.847671 188.607273 426.437553 188.812727 425.019441 189.018182 423.593480 189.223636 422.159813 189.429091 420.718585 189.634545 419.269940 189.840000 417.814022 190.045455 416.350975 190.250909 414.880944 190.456364 413.404071 190.661818 411.920502 190.867273 410.430381 191.072727 408.933851 191.278182 407.431057 191.483636 405.922143 191.689091 404.407253 191.894545 402.886531 192.100000 401.360122 192.305455 399.828169 192.510909 398.290816 192.716364 396.748208 192.921818 395.200489 193.127273 393.647803 193.332727 392.090293 193.538182 390.528105 193.743636 388.961382 193.949091 387.390268 194.154545 385.814908 194.360000 384.235446 194.565455 382.652025 194.770909 381.064790 194.976364 379.473885 195.181818 377.879454 195.387273 376.281641 195.592727 374.680591 195.798182 373.076447 196.003636 371.469353 196.209091 369.859454 196.414545 368.246894 196.620000 366.631817 196.825455 365.014367 197.030909 363.394688 197.236364 361.772924 197.441818 360.149220 197.647273 358.523719 197.852727 356.896566 198.058182 355.267905 198.263636 353.637879 198.469091 352.006634 198.674545 350.374312 198.880000 348.741059 199.085455 347.107018 199.290909 345.472334 199.496364 343.837150 199.701818 342.201611 199.907273 340.565861 200.112727 338.930043 200.318182 337.294303 200.523636 335.658784 200.729091 334.023630 200.934545 332.388986 201.140000 330.754995 201.345455 329.121802 201.550909 327.489551 201.756364 325.858385 201.961818 324.228450 202.167273 322.599888 202.372727 320.972845 202.578182 319.347465 202.783636 317.723891 202.989091 316.102267 203.194545 314.482738 203.400000 312.865448 203.605455 311.250541 203.810909 309.638161 204.016364 308.028453 204.221818 306.421559 204.427273 304.817625 204.632727 303.216795 204.838182 301.619213 205.043636 300.025022 205.249091 298.434367 205.454545 296.847392 205.660000 295.264242 205.865455 293.685059 206.070909 292.109989 206.276364 290.539176 206.481818 288.972763 206.687273 287.410895 206.892727 285.853716 207.098182 284.301370 207.303636 282.754001 207.509091 281.211753 207.714545 279.674771 207.920000 278.143198 208.125455 276.617179 208.330909 275.096858 208.536364 273.582378 208.741818 272.073884 208.947273 270.571521 209.152727 269.075431 209.358182 267.585760 209.563636 266.102652 209.769091 264.626250 209.974545 263.156698 210.180000 261.694142 210.385455 260.238724 210.590909 258.790589 210.796364 257.349882 211.001818 255.916746 211.207273 254.491325 211.412727 253.073764 211.618182 251.664206 211.823636 250.262796 212.029091 248.869679 212.234545 247.484997 212.440000 246.108895 212.645455 244.741517 212.850909 243.383008 213.056364 242.033511 213.261818 240.693171 213.467273 239.362132 213.672727 238.040537 213.878182 236.728531 214.083636 235.426259 214.289091 234.133864 214.494545 232.851490 214.700000 231.579281 214.905455 230.317382 215.110909 229.065937 215.316364 227.825089 215.521818 226.594983 215.727273 225.375764 215.932727 224.167574 216.138182 222.970559 216.343636 221.784862 216.549091 220.610628 216.754545 219.448000 216.960000 218.297090 217.165455 217.157877 217.370909 216.030308 217.576364 214.914327 217.781818 213.809883 217.987273 212.716920 218.192727 211.635386 218.398182 210.565225 218.603636 209.506386 218.809091 208.458813 219.014545 207.422453 219.220000 206.397253 219.425455 205.383158 219.630909 204.380115 219.836364 203.388070 220.041818 202.406969 220.247273 201.436759 220.452727 200.477385 220.658182 199.528794 220.863636 198.590932 221.069091 197.663746 221.274545 196.747181 221.480000 195.841184 221.685455 194.945702 221.890909 194.060679 222.096364 193.186063 222.301818 192.321800 222.507273 191.467836 222.712727 190.624117 222.918182 189.790589 223.123636 188.967199 223.329091 188.153893 223.534545 187.350618 223.740000 186.557318 223.945455 185.773941 224.150909 185.000433 224.356364 184.236741 224.561818 183.482809 224.767273 182.738585 224.972727 182.004015 225.178182 181.279045 225.383636 180.563620 225.589091 179.857689 225.794545 179.161196 226.000000 178.474088 226.205455 177.796311 226.410909 177.127812 226.616364 176.468536 226.821818 175.818430 227.027273 175.177440 227.232727 174.545513 227.438182 173.922594 227.643636 173.308630 227.849091 172.703566 228.054545 172.107351 228.260000 171.519928 228.465455 170.941245 228.670909 170.371248 228.876364 169.809884 229.081818 169.257097 229.287273 168.712836 229.492727 168.177045 229.698182 167.649671 229.903636 167.130661 230.109091 166.619960 230.314545 166.117515 230.520000 165.623272 230.725455 165.137177 230.930909 164.659176 231.136364 164.189217 231.341818 163.727244 231.547273 163.273204 231.752727 162.827044 231.958182 162.388710 232.163636 161.958147 232.369091 161.535303 232.574545 161.120122 232.780000 160.712553 232.985455 160.312540 233.190909 159.920030 233.396364 159.534969 233.601818 159.157304 233.807273 158.786981 234.012727 158.423945 234.218182 158.068144 234.423636 157.719523 234.629091 157.378029 234.834545 157.043607 235.040000 156.716205 235.245455 156.395768 235.450909 156.082243 235.656364 155.775575 235.861818 155.475711 236.067273 155.182598 236.272727 154.896181 236.478182 154.616407 236.683636 154.343222 236.889091 154.076572 237.094545 153.816403 237.300000 153.562662 237.505455 153.315295 237.710909 153.074248 237.916364 152.839468 238.121818 152.610899 238.327273 152.388490 238.532727 152.172186 238.738182 151.961933 238.943636 151.757677 239.149091 151.559366 239.354545 151.366944 239.560000 151.180358 239.765455 150.999555 239.970909 150.824481 240.176364 150.655081 240.381818 150.491302 240.587273 150.333091 240.792727 150.180393 240.998182 150.033156 241.203636 149.891324 241.409091 149.754844 241.614545 149.623663 241.820000 149.497727 242.025455 149.376982 242.230909 149.261373 242.436364 149.150849 242.641818 149.045354 242.847273 148.944834 243.052727 148.849237 243.258182 148.758509 243.463636 148.672595 243.669091 148.591441 243.874545 148.514995 244.080000 148.443202 244.285455 148.376008 244.490909 148.313361 244.696364 148.255205 244.901818 148.201487 245.107273 148.152154 245.312727 148.107152 245.518182 148.066426 245.723636 148.029923 245.929091 147.997590 246.134545 147.969373 246.340000 147.945217 246.545455 147.925069 246.750909 147.908876 246.956364 147.896583 247.161818 147.888137 247.367273 147.883484 247.572727 147.882570 247.778182 147.885341 247.983636 147.891744 248.189091 147.901725 248.394545 147.915230 248.600000 147.932206 248.805455 147.952598 249.010909 147.976353 249.216364 148.003417 249.421818 148.033736 249.627273 148.067257 249.832727 148.103926 250.038182 148.143688 250.243636 148.186491 250.449091 148.232280 250.654545 148.281002 250.860000 148.332603 251.065455 148.387028 251.270909 148.444226 251.476364 148.504141 251.681818 148.566719 251.887273 148.631908 252.092727 148.699653 252.298182 148.769901 252.503636 148.842597 252.709091 148.917688 252.914545 148.995121 253.120000 149.074841 253.325455 149.156794 253.530909 149.240928 253.736364 149.327187 253.941818 149.415519 254.147273 149.505870 254.352727 149.598186 254.558182 149.692412 254.763636 149.788496 254.969091 149.886383 255.174545 149.986021 255.380000 150.087354 255.585455 150.190329 255.790909 150.294893 255.996364 150.400991 256.201818 150.508571 256.407273 150.617577 256.612727 150.727957 256.818182 150.839657 257.023636 150.952622 257.229091 151.066800 257.434545 151.182136 257.640000 151.298576 257.845455 151.416067 258.050909 151.534555 258.256364 151.653986 258.461818 151.774307 258.667273 151.895464 258.872727 152.017402 259.078182 152.140068 259.283636 152.263409 259.489091 152.387371 259.694545 152.511899 259.900000 152.636941 260.105455 152.762442 260.310909 152.888348 260.516364 153.014606 260.721818 153.141162 260.927273 153.267962 261.132727 153.394953 261.338182 153.522081 261.543636 153.649291 261.749091 153.776531 261.954545 153.903746 262.160000 154.030882 262.365455 154.157887 262.570909 154.284705 262.776364 154.411284 262.981818 154.537569 263.187273 154.663508 263.392727 154.789045 263.598182 154.914127 263.803636 155.038701 264.009091 155.162713 264.214545 155.286108 264.420000 155.408834 264.625455 155.530836 264.830909 155.652061 265.036364 155.772454 265.241818 155.891963 265.447273 156.010533 265.652727 156.128110 265.858182 156.244642 266.063636 156.360073 266.269091 156.474351 266.474545 156.587421 266.680000 156.699230 266.885455 156.809723 267.090909 156.918848 267.296364 157.026550 267.501818 157.132776 267.707273 157.237472 267.912727 157.340584 268.118182 157.442058 268.323636 157.541851 268.529091 157.639958 268.734545 157.736386 268.940000 157.831139 269.145455 157.924225 269.350909 158.015649 269.556364 158.105416 269.761818 158.193533 269.967273 158.280006 270.172727 158.364840 270.378182 158.448041 270.583636 158.529616 270.789091 158.609569 270.994545 158.687908 271.200000 158.764637 271.405455 158.839763 271.610909 158.913292 271.816364 158.985229 272.021818 159.055580 272.227273 159.124351 272.432727 159.191549 272.638182 159.257178 272.843636 159.321245 273.049091 159.383756 273.254545 159.444716 273.460000 159.504132 273.665455 159.562009 273.870909 159.618353 274.076364 159.673171 274.281818 159.726467 274.487273 159.778248 274.692727 159.828519 274.898182 159.877287 275.103636 159.924558 275.309091 159.970337 275.514545 160.014630 275.720000 160.057443 275.925455 160.098781 276.130909 160.138652 276.336364 160.177060 276.541818 160.214012 276.747273 160.249513 276.952727 160.283570 277.158182 160.316187 277.363636 160.347372 277.569091 160.377130 277.774545 160.405466 277.980000 160.432387 278.185455 160.457898 278.390909 160.482006 278.596364 160.504716 278.801818 160.526034 279.007273 160.545966 279.212727 160.564519 279.418182 160.581696 279.623636 160.597506 279.829091 160.611953 280.034545 160.625043 280.240000 160.636783 280.445455 160.647178 280.650909 160.656233 280.856364 160.663956 281.061818 160.670351 281.267273 160.675425 281.472727 160.679184 281.678182 160.681633 281.883636 160.682778 282.089091 160.682625 282.294545 160.681180 282.500000 160.678450 282.705455 160.674438 282.910909 160.669153 283.116364 160.662599 283.321818 160.654782 283.527273 160.645709 283.732727 160.635384 283.938182 160.623815 284.143636 160.611007 284.349091 160.596965 284.554545 160.581696 284.760000 160.565205 284.965455 160.547499 285.170909 160.528583 285.376364 160.508463 285.581818 160.487145 285.787273 160.464634 285.992727 160.440938 286.198182 160.416061 286.403636 160.390010 286.609091 160.362790 286.814545 160.334407 287.020000 160.304867 287.225455 160.274177 287.430909 160.242341 287.636364 160.209366 287.841818 160.175257 288.047273 160.140021 288.252727 160.103663 288.458182 160.066190 288.663636 160.027606 288.869091 159.987919 289.074545 159.947133 289.280000 159.905255 289.485455 159.862291 289.690909 159.818246 289.896364 159.773127 290.101818 159.726938 290.307273 159.679687 290.512727 159.631379 290.718182 159.582019 290.923636 159.531614 291.129091 159.480170 291.334545 159.427693 291.540000 159.374187 291.745455 159.319660 291.950909 159.264117 292.156364 159.207564 292.361818 159.150006 292.567273 159.091450 292.772727 159.031902 292.978182 158.971368 293.183636 158.909852 293.389091 158.847362 293.594545 158.783903 293.800000 158.719481 294.005455 158.654102 294.210909 158.587771 294.416364 158.520495 294.621818 158.452279 294.827273 158.383130 295.032727 158.313053 295.238182 158.242054 295.443636 158.170138 295.649091 158.097313 295.854545 158.023583 296.060000 157.948955 296.265455 157.873435 296.470909 157.797027 296.676364 157.719739 296.881818 157.641576 297.087273 157.562544 297.292727 157.482648 297.498182 157.401895 297.703636 157.320291 297.909091 157.237841 298.114545 157.154552 298.320000 157.070428 298.525455 156.985477 298.730909 156.899704 298.936364 156.813114 299.141818 156.725714 299.347273 156.637510 299.552727 156.548507 299.758182 156.458711 299.963636 156.368129 300.169091 156.276765 300.374545 156.184627 300.580000 156.091719 300.785455 155.998048 300.990909 155.903619 301.196364 155.808439 301.401818 155.712513 301.607273 155.615847 301.812727 155.518447 302.018182 155.420319 302.223636 155.321469 302.429091 155.221903 302.634545 155.121626 302.840000 155.020645 303.045455 154.918964 303.250909 154.816591 303.456364 154.713531 303.661818 154.609790 303.867273 154.505374 304.072727 154.400288 304.278182 154.294539 304.483636 154.188132 304.689091 154.081073 304.894545 153.973369 305.100000 153.865024 305.305455 153.756046 305.510909 153.646439 305.716364 153.536210 305.921818 153.425364 306.127273 153.313908 306.332727 153.201847 306.538182 153.089187 306.743636 152.975934 306.949091 152.862094 307.154545 152.747673 307.360000 152.632676 307.565455 152.517110 307.770909 152.400980 307.976364 152.284293 308.181818 152.167053 308.387273 152.049268 308.592727 151.930942 308.798182 151.812083 309.003636 151.692694 309.209091 151.572784 309.414545 151.452356 309.620000 151.331418 309.825455 151.209975 310.030909 151.088033 310.236364 150.965598 310.441818 150.842676 310.647273 150.719272 310.852727 150.595393 311.058182 150.471044 311.263636 150.346231 311.469091 150.220961 311.674545 150.095238 311.880000 149.969070 312.085455 149.842461 312.290909 149.715417 312.496364 149.587945 312.701818 149.460051 312.907273 149.331739 313.112727 149.203017 313.318182 149.073890 313.523636 148.944364 313.729091 148.814444 313.934545 148.684137 314.140000 148.553448 314.345455 148.422384 314.550909 148.290950 314.756364 148.159152 314.961818 148.026996 315.167273 147.894488 315.372727 147.761633 315.578182 147.628438 315.783636 147.494909 315.989091 147.361051 316.194545 147.226870 316.400000 147.092372 316.605455 146.957563 316.810909 146.822449 317.016364 146.687036 317.221818 146.551329 317.427273 146.415335 317.632727 146.279059 317.838182 146.142507 318.043636 146.005686 318.249091 145.868600 318.454545 145.731256 318.660000 145.593660 318.865455 145.455817 319.070909 145.317734 319.276364 145.179416 319.481818 145.040870 319.687273 144.902099 319.892727 144.763104 320.098182 144.623883 320.303636 144.484434 320.509091 144.344757 320.714545 144.204850 320.920000 144.064710 321.125455 143.924338 321.330909 143.783730 321.536364 143.642887 321.741818 143.501806 321.947273 143.360485 322.152727 143.218924 322.358182 143.077121 322.563636 142.935074 322.769091 142.792783 322.974545 142.650245 323.180000 142.507458 323.385455 142.364423 323.590909 142.221136 323.796364 142.077597 324.001818 141.933804 324.207273 141.789756 324.412727 141.645451 324.618182 141.500887 324.823636 141.356064 325.029091 141.210979 325.234545 141.065632 325.440000 140.920020 325.645455 140.774143 325.850909 140.627999 326.056364 140.481586 326.261818 140.334903 326.467273 140.187948 326.672727 140.040720 326.878182 139.893218 327.083636 139.745440 327.289091 139.597384 327.494545 139.449049 327.700000 139.300434 327.905455 139.151537 328.110909 139.002357 328.316364 138.852891 328.521818 138.703140 328.727273 138.553100 328.932727 138.402771 329.138182 138.252152 329.343636 138.101240 329.549091 137.950035 329.754545 137.798534 329.960000 137.646737 330.165455 137.494641 330.370909 137.342246 330.576364 137.189550 330.781818 137.036552 330.987273 136.883249 331.192727 136.729641 331.398182 136.575726 331.603636 136.421502 331.809091 136.266969 332.014545 136.112124 332.220000 135.956966 332.425455 135.801494 332.630909 135.645706 332.836364 135.489601 333.041818 135.333177 333.247273 135.176433 333.452727 135.019367 333.658182 134.861978 333.863636 134.704264 334.069091 134.546224 334.274545 134.387856 334.480000 134.229160 334.685455 134.070133 334.890909 133.910773 335.096364 133.751081 335.301818 133.591053 335.507273 133.430689 335.712727 133.269986 335.918182 133.108945 336.123636 132.947562 336.329091 132.785838 336.534545 132.623769 336.740000 132.461355 336.945455 132.298594 337.150909 132.135485 337.356364 131.972027 337.561818 131.808217 337.767273 131.644054 337.972727 131.479537 338.178182 131.314665 338.383636 131.149435 338.589091 130.983847 338.794545 130.817899 339.000000 130.651589 339.205455 130.484917 339.410909 130.317880 339.616364 130.150477 339.821818 129.982706 340.027273 129.814567 340.232727 129.646057 340.438182 129.477175 340.643636 129.307920 340.849091 129.138291 341.054545 128.968285 341.260000 128.797901 341.465455 128.627138 341.670909 128.455994 341.876364 128.284468 342.081818 128.112559 342.287273 127.940264 342.492727 127.767583 342.698182 127.594514 342.903636 127.421055 343.109091 127.247205 343.314545 127.072963 343.520000 126.898326 343.725455 126.723295 343.930909 126.547866 344.136364 126.372039 344.341818 126.195812 344.547273 126.019184 344.752727 125.842153 344.958182 125.664718 345.163636 125.486876 345.369091 125.308628 345.574545 125.129971 345.780000 124.950904 345.985455 124.771425 346.190909 124.591533 346.396364 124.411226 346.601818 124.230504 346.807273 124.049363 347.012727 123.867804 347.218182 123.685824 347.423636 123.503423 347.629091 123.320597 347.834545 123.137347 348.040000 122.953671 348.245455 122.769566 348.450909 122.585033 348.656364 122.400068 348.861818 122.214671 349.067273 122.028840 349.272727 121.842575 349.478182 121.655872 349.683636 121.468731 349.889091 121.281151 350.094545 121.093129 350.300000 120.904665 350.505455 120.715756 350.710909 120.526402 350.916364 120.336601 351.121818 120.146352 351.327273 119.955652 351.532727 119.764501 351.738182 119.572898 351.943636 119.380839 352.149091 119.188325 352.354545 118.995354 352.560000 118.801923 352.765455 118.608032 352.970909 118.413680 353.176364 118.218864 353.381818 118.023584 353.587273 117.827837 353.792727 117.631622 353.998182 117.434939 354.203636 117.237785 354.409091 117.040158 354.614545 116.842058 354.820000 116.643484 355.025455 116.444432 355.230909 116.244903 355.436364 116.044894 355.641818 115.844404 355.847273 115.643431 356.052727 115.441975 356.258182 115.240033 356.463636 115.037605 356.669091 114.834688 356.874545 114.631281 357.080000 114.427384 357.285455 114.222993 357.490909 114.018108 357.696364 113.812728 357.901818 113.606850 358.107273 113.400473 358.312727 113.193597 358.518182 112.986219 358.723636 112.778338 358.929091 112.569952 359.134545 112.361060 359.340000 112.151661 359.545455 111.941753 359.750909 111.731334 359.956364 111.520403 360.161818 111.308959 360.367273 111.097001 360.572727 110.884525 360.778182 110.671532 360.983636 110.458020 361.189091 110.243987 361.394545 110.029432 361.600000 109.814353 361.805455 109.598748 362.010909 109.382618 362.216364 109.165959 362.421818 108.948770 362.627273 108.731050 362.832727 108.512798 363.038182 108.294012 363.243636 108.074690 363.449091 107.854831 363.654545 107.634434 363.860000 107.413497 364.065455 107.192018 364.270909 106.969997 364.476364 106.747431 364.681818 106.524319 364.887273 106.300660 365.092727 106.076453 365.298182 105.851695 365.503636 105.626385 365.709091 105.400522 365.914545 105.174104 366.120000 104.947131 366.325455 104.719599 366.530909 104.491509 366.736364 104.262858 366.941818 104.033645 367.147273 103.803868 367.352727 103.573526 367.558182 103.342618 367.763636 103.111142 367.969091 102.879097 368.174545 102.646481 368.380000 102.413292 368.585455 102.179529 368.790909 101.945191 368.996364 101.710277 369.201818 101.474784 369.407273 101.238711 369.612727 101.002057 369.818182 100.764821 370.023636 100.527000 370.229091 100.288594 370.434545 100.049600 370.640000 99.810018 370.845455 99.569846 371.050909 99.329087 371.256364 99.087763 371.461818 98.845902 371.667273 98.603531 371.872727 98.360676 372.078182 98.117364 372.283636 97.873623 372.489091 97.629480 372.694545 97.384961 372.900000 97.140094 373.105455 96.894905 373.310909 96.649421 373.516364 96.403671 373.721818 96.157680 373.927273 95.911475 374.132727 95.665084 374.338182 95.418534 374.543636 95.171851 374.749091 94.925063 374.954545 94.678196 375.160000 94.431278 375.365455 94.184336 375.570909 93.937397 375.776364 93.690487 375.981818 93.443633 376.187273 93.196864 376.392727 92.950205 376.598182 92.703684 376.803636 92.457327 377.009091 92.211163 377.214545 91.965216 377.420000 91.719516 377.625455 91.474089 377.830909 91.228961 378.036364 90.984160 378.241818 90.739712 378.447273 90.495646 378.652727 90.251987 378.858182 90.008763 379.063636 89.766001 379.269091 89.523728 379.474545 89.281970 379.680000 89.040755 379.885455 88.800111 380.090909 88.560063 380.296364 88.320638 380.501818 88.081865 380.707273 87.843770 380.912727 87.606379 381.118182 87.369720 381.323636 87.133821 381.529091 86.898707 381.734545 86.664406 381.940000 86.430945 382.145455 86.198350 382.350909 85.966650 382.556364 85.735871 382.761818 85.506040 382.967273 85.277183 383.172727 85.049329 383.378182 84.822504 383.583636 84.596734 383.789091 84.372048 383.994545 84.148472 384.200000 83.926032 384.405455 83.704757 384.610909 83.484673 384.816364 83.265806 385.021818 83.048185 385.227273 82.831836 385.432727 82.616786 385.638182 82.403062 385.843636 82.190691 386.049091 81.979700 386.254545 81.770116 386.460000 81.561967 386.665455 81.355278 386.870909 81.150078 387.076364 80.946393 387.281818 80.744250 387.487273 80.543676 387.692727 80.344698 387.898182 80.147343 388.103636 79.951639 388.309091 79.757612 388.514545 79.565289 388.720000 79.374697 388.925455 79.185863 389.130909 78.998815 389.336364 78.813579 389.541818 78.630182 389.747273 78.448651 389.952727 78.269014 390.158182 78.091297 390.363636 77.915527 390.569091 77.741731 390.774545 77.569937 390.980000 77.400171 391.185455 77.232460 391.390909 77.066832 391.596364 76.903313 391.801818 76.741930 392.007273 76.582711 392.212727 76.425682 392.418182 76.270870 392.623636 76.118303 392.829091 75.968007 393.034545 75.820009 393.240000 75.674337 393.445455 75.531018 393.650909 75.390077 393.856364 75.251543 394.061818 75.115443 394.267273 74.981803 394.472727 74.850650 394.678182 74.722012 394.883636 74.595916 395.089091 74.472387 395.294545 74.351455 395.500000 74.233145 395.705455 74.117484 395.910909 74.004500 396.116364 73.894219 396.321818 73.786669 396.527273 73.681876 396.732727 73.579868 396.938182 73.480672 397.143636 73.384314 397.349091 73.290821 397.554545 73.200222 397.760000 73.112541 397.965455 73.027808 398.170909 72.946048 398.376364 72.867288 398.581818 72.791557 398.787273 72.718879 398.992727 72.649284 399.198182 72.582797 399.403636 72.519446 399.609091 72.459257 399.814545 72.402258 400.020000 72.348476 400.225455 72.297938 400.430909 72.250670 400.636364 72.206700 400.841818 72.166054 401.047273 72.128761 401.252727 72.094846 401.458182 72.064336 401.663636 72.037260 401.869091 72.013643 402.074545 71.993513 402.280000 71.976897 402.485455 71.963822 402.690909 71.954314 402.896364 71.948402 403.101818 71.946111 403.307273 71.947469 403.512727 71.952502 403.718182 71.961239 403.923636 71.973705 404.129091 71.989928 404.334545 72.009935 404.540000 72.033753 404.745455 72.061409 404.950909 72.092930 405.156364 72.128343 405.361818 72.167674 405.567273 72.210952 405.772727 72.258202 405.978182 72.309452 406.183636 72.364730 406.389091 72.424061 406.594545 72.487473 406.800000 72.554993 407.005455 72.626648 407.210909 72.702465 407.416364 72.782471 407.621818 72.866693 407.827273 72.955158 408.032727 73.047893 408.238182 73.144926 408.443636 73.246282 408.649091 73.351989 408.854545 73.462074 409.060000 73.576564 409.265455 73.695487 409.470909 73.818868 409.676364 73.946736 409.881818 74.079117 410.087273 74.216037 410.292727 74.357525 410.498182 74.503607 410.703636 74.654310 410.909091 74.809661 411.114545 74.969688 411.320000 75.134416 411.525455 75.303874 411.730909 75.478088 411.936364 75.657085 412.141818 75.840892 412.347273 76.029537 412.552727 76.223046 412.758182 76.421445 412.963636 76.624764 413.169091 76.833027 413.374545 77.046262 413.580000 77.264497 413.785455 77.487758 413.990909 77.716073 414.196364 77.949467 414.401818 78.187969 414.607273 78.431606 414.812727 78.680403 415.018182 78.934389 415.223636 79.193590 415.429091 79.458034 415.634545 79.727746 415.840000 80.002756 416.045455 80.283088 416.250909 80.568771 416.456364 80.859831 416.661818 81.156296 416.867273 81.458192 417.072727 81.765546 417.278182 82.078386 417.483636 82.396738 417.689091 82.720630 417.894545 83.050088 418.100000 83.385140 418.305455 83.725812 418.510909 84.072131 418.716364 84.424125 418.921818 84.781821 419.127273 85.145245 419.332727 85.514424 419.538182 85.889386 419.743636 86.270157 419.949091 86.656765 420.154545 87.049237 420.360000 87.447598 420.565455 87.851878 420.770909 88.262102 420.976364 88.678298 421.181818 89.100492 421.387273 89.528712 421.592727 89.962984 421.798182 90.403336 422.003636 90.849795 422.209091 91.302387 422.414545 91.761123 422.620000 92.225949 422.825455 92.696791 423.030909 93.173580 423.236364 93.656242 423.441818 94.144707 423.647273 94.638903 423.852727 95.138758 424.058182 95.644200 424.263636 96.155158 424.469091 96.671561 424.674545 97.193336 424.880000 97.720412 425.085455 98.252717 425.290909 98.790180 425.496364 99.332729 425.701818 99.880293 425.907273 100.432799 426.112727 100.990177 426.318182 101.552354 426.523636 102.119258 426.729091 102.690819 426.934545 103.266965 427.140000 103.847623 427.345455 104.432723 427.550909 105.022193 427.756364 105.615960 427.961818 106.213954 428.167273 106.816103 428.372727 107.422334 428.578182 108.032578 428.783636 108.646761 428.989091 109.264812 429.194545 109.886660 429.400000 110.512232 429.605455 111.141458 429.810909 111.774266 430.016364 112.410583 430.221818 113.050339 430.427273 113.693462 430.632727 114.339880 430.838182 114.989521 431.043636 115.642314 431.249091 116.298188 431.454545 116.957069 431.660000 117.618888 431.865455 118.283572 432.070909 118.951049 432.276364 119.621249 432.481818 120.294099 432.687273 120.969527 432.892727 121.647463 433.098182 122.327834 433.303636 123.010569 433.509091 123.695596 433.714545 124.382843 433.920000 125.072240 434.125455 125.763713 434.330909 126.457193 434.536364 127.152606 434.741818 127.849881 434.947273 128.548947 435.152727 129.249733 435.358182 129.952165 435.563636 130.656174 435.769091 131.361686 435.974545 132.068631 436.180000 132.776937 436.385455 133.486532 436.590909 134.197345 436.796364 134.909303 437.001818 135.622336 437.207273 136.336371 437.412727 137.051338 437.618182 137.767164 437.823636 138.483778 438.029091 139.201107 438.234545 139.919082 438.440000 140.637629 438.645455 141.356677 438.850909 142.076155 439.056364 142.795990 439.261818 143.516112 439.467273 144.236449 439.672727 144.956929 439.878182 145.677480 440.083636 146.398030 440.289091 147.118509 440.494545 147.838844 440.700000 148.558964 440.905455 149.278798 441.110909 149.998272 441.316364 150.717317 441.521818 151.435860 441.727273 152.153829 441.932727 152.871154 442.138182 153.587762 442.343636 154.303581 442.549091 155.018541 442.754545 155.732569 442.960000 156.445594 443.165455 157.157543 443.370909 157.868347 443.576364 158.577932 443.781818 159.286228 443.987273 159.993162 444.192727 160.698663 444.398182 161.402659 444.603636 162.105079 444.809091 162.805851 445.014545 163.504904 445.220000 164.202165 445.425455 164.897564 445.630909 165.591027 445.836364 166.282485 446.041818 166.971865 446.247273 167.659096 446.452727 168.344105 446.658182 169.026822 446.863636 169.707174 447.069091 170.385090 447.274545 171.060499 447.480000 171.733329 447.685455 172.403507 447.890909 173.070963 448.096364 173.735625 448.301818 174.397421 448.507273 175.056280 448.712727 175.712130 448.918182 176.364898 449.123636 177.014515 449.329091 177.660907 449.534545 178.304004 449.740000 178.943734 449.945455 179.580024 450.150909 180.212804 450.356364 180.842002 450.561818 181.467546 450.767273 182.089364 450.972727 182.707386 451.178182 183.321539 451.383636 183.931751 451.589091 184.537951 451.794545 185.140068 452.000000 185.738029 452.205455 186.331763 452.410909 186.921199 452.616364 187.506264 452.821818 188.086888 453.027273 188.662998 453.232727 189.234523 453.438182 189.801391 453.643636 190.363531 453.849091 190.920871 454.054545 191.473339 454.260000 192.020864 454.465455 192.563374 454.670909 193.100797 454.876364 193.633062 455.081818 194.160097 455.287273 194.681830 455.492727 195.198191 455.698182 195.709106 455.903636 196.214506 456.109091 196.714317 456.314545 197.208468 456.520000 197.696888 456.725455 198.179505 456.930909 198.656248 457.136364 199.127044 457.341818 199.591822 457.547273 200.050511 457.752727 200.503038 457.958182 200.949333 458.163636 201.389323 458.369091 201.822937 458.574545 202.250104 458.780000 202.670751 458.985455 203.084807 459.190909 203.492200 459.396364 203.892859 459.601818 204.286712 459.807273 204.673688 460.012727 205.053714 460.218182 205.426720 460.423636 205.792633 460.629091 206.151382 460.834545 206.502895 461.040000 206.847101 461.245455 207.183928 461.450909 207.513304 461.656364 207.835158 461.861818 208.149418 462.067273 208.456012 462.272727 208.754869 462.478182 209.045917 462.683636 209.329085 462.889091 209.604300 463.094545 209.871492 463.300000 210.130589 463.505455 210.381518 463.710909 210.624208 463.916364 210.858589 464.121818 211.084587 464.327273 211.302132 464.532727 211.511151 464.738182 211.711574 464.943636 211.903328 465.149091 212.086342 465.354545 212.260544 465.560000 212.425862 465.765455 212.582226 465.970909 212.729563 466.176364 212.867801 466.381818 212.996870 466.587273 213.116697 466.792727 213.227210 466.998182 213.328339 467.203636 213.420011 467.409091 213.502155 467.614545 213.574699 467.820000 213.637572 468.025455 213.690701 468.230909 213.734016 468.436364 213.767445 468.641818 213.790915 468.847273 213.804356 469.052727 213.807695 469.258182 213.800862 469.463636 213.783784 469.669091 213.756390 469.874545 213.718608 470.080000 213.670366 470.285455 213.611593 470.490909 213.542218 470.696364 213.462168 470.901818 213.371372 471.107273 213.269759 471.312727 213.157256 471.518182 213.033792 471.723636 212.899296 471.929091 212.753695 472.134545 212.596919 472.340000 212.428895 472.545455 212.249551 472.750909 212.058818 472.956364 211.856621 473.161818 211.642891 473.367273 211.417555 473.572727 211.180541 473.778182 210.931806 473.983636 210.671411 474.189091 210.399447 474.394545 210.116002 474.600000 209.821168 474.805455 209.515033 475.010909 209.197687 475.216364 208.869220 475.421818 208.529722 475.627273 208.179282 475.832727 207.817991 476.038182 207.445936 476.243636 207.063210 476.449091 206.669900 476.654545 206.266097 476.860000 205.851891 477.065455 205.427371 477.270909 204.992626 477.476364 204.547748 477.681818 204.092824 477.887273 203.627946 478.092727 203.153202 478.298182 202.668683 478.503636 202.174478 478.709091 201.670676 478.914545 201.157368 479.120000 200.634644 479.325455 200.102592 479.530909 199.561302 479.736364 199.010865 479.941818 198.451370 480.147273 197.882907 480.352727 197.305565 480.558182 196.719434 480.763636 196.124604 480.969091 195.521164 481.174545 194.909204 481.380000 194.288815 481.585455 193.660085 481.790909 193.023104 481.996364 192.377962 482.201818 191.724748 482.407273 191.063553 482.612727 190.394467 482.818182 189.717577 483.023636 189.032976 483.229091 188.340751 483.434545 187.640994 483.640000 186.933792 483.845455 186.219237 484.050909 185.497418 484.256364 184.768425 484.461818 184.032347 484.667273 183.289274 484.872727 182.539296 485.078182 181.782502 485.283636 181.018982 485.489091 180.248826 485.694545 179.472124 485.900000 178.688965 486.105455 177.899439 486.310909 177.103635 486.516364 176.301644 486.721818 175.493555 486.927273 174.679457 487.132727 173.859441 487.338182 173.033596 487.543636 172.202012 487.749091 171.364778 487.954545 170.521984 488.160000 169.673721 488.365455 168.820077 488.570909 167.961142 488.776364 167.097006 488.981818 166.227759 489.187273 165.353491 489.392727 164.474290 489.598182 163.590247 489.803636 162.701452 490.009091 161.807994 490.214545 160.909963 490.420000 160.007448 490.625455 159.100540 490.830909 158.189328 491.036364 157.273901 491.241818 156.354350 491.447273 155.430764 491.652727 154.503232 491.858182 153.571845 492.063636 152.636692 492.269091 151.697863 492.474545 150.755448 492.680000 149.809536 492.885455 148.860217 493.090909 147.907580 493.296364 146.951716 493.501818 145.992714 493.707273 145.030664 493.912727 144.065655 494.118182 143.097777 494.323636 142.127120 494.529091 141.153774 494.734545 140.177828 494.940000 139.199372 495.145455 138.218495 495.350909 137.235288 495.556364 136.249840 495.761818 135.262241 495.967273 134.272580 496.172727 133.280947 496.378182 132.287432 496.583636 131.292125 496.789091 130.295114 496.994545 129.296491 497.200000 128.296344 497.405455 127.294764 497.610909 126.291840 497.816364 125.287661 498.021818 124.282318 498.227273 123.275900 498.432727 122.268497 498.638182 121.260198 498.843636 120.251094 499.049091 119.241273 499.254545 118.230826 499.460000 117.219842 499.665455 116.208412 499.870909 115.196624 500.076364 114.184568 500.281818 113.172334 500.487273 112.160013 500.692727 111.147693 500.898182 110.135464 501.103636 109.123415 501.309091 108.111638 501.514545 107.100221 501.720000 106.089253 501.925455 105.078826 502.130909 104.069028 502.336364 103.059948 502.541818 102.051678 502.747273 101.044306 502.952727 100.037923 503.158182 99.032617 503.363636 98.028479 503.569091 97.025598 503.774545 96.024064 503.980000 95.023966 504.185455 94.025395 504.390909 93.028440 504.596364 92.033191 504.801818 91.039738 505.007273 90.048169 505.212727 89.058575 505.418182 88.071046 505.623636 87.085671 505.829091 86.102541 506.034545 85.121743 506.240000 84.143369 506.445455 83.167509 506.650909 82.194250 506.856364 81.223685 507.061818 80.255901 507.267273 79.290989 507.472727 78.329039 507.678182 77.370140 507.883636 76.414382 508.089091 75.461855 508.294545 74.512648 508.500000 73.566851 508.705455 72.624554 508.910909 71.685846 509.116364 70.750817 509.321818 69.819557 509.527273 68.892156 509.732727 67.968703 509.938182 67.049287 510.143636 66.134000 510.349091 65.222929 510.554545 64.316166 510.760000 63.413799 510.965455 62.515919 511.170909 61.622615 511.376364 60.733977 511.581818 59.850094 511.787273 58.971056 511.992727 58.096954 512.198182 57.227876 512.403636 56.363912 512.609091 55.505152 512.814545 54.651686 513.020000 53.803603 513.225455 52.960993 513.430909 52.123947 513.636364 51.292552 513.841818 50.466900 514.047273 49.647080 514.252727 48.833181 514.458182 48.025293 514.663636 47.223507 514.869091 46.427911 515.074545 45.638596 515.280000 44.855650 515.485455 44.079165 515.690909 43.309229 515.896364 42.545932 516.101818 41.789363 516.307273 41.039614 516.512727 40.296773 516.718182 39.560929 516.923636 38.832174 517.129091 38.110595 517.334545 37.396284 517.540000 36.689329 517.745455 35.989821 517.950909 35.297849 518.156364 34.613503 518.361818 33.936873 518.567273 33.268047 518.772727 32.607117 518.978182 31.954171 519.183636 31.309300 519.389091 30.672593 519.594545 30.044139 519.800000 29.424029 520.005455 28.812352 520.210909 28.209198 520.416364 27.614656 520.621818 27.028816 520.827273 26.451769 521.032727 25.883603 521.238182 25.324408 521.443636 24.774275 521.649091 24.233292 521.854545 23.701549 522.060000 23.179137 522.265455 22.666144 522.470909 22.162661 522.676364 21.668777 522.881818 21.184583 523.087273 20.710166 523.292727 20.245618 523.498182 19.791028 523.703636 19.346486 523.909091 18.912081 524.114545 18.487903 524.320000 18.074042 524.525455 17.670587 524.730909 17.277629 524.936364 16.895257 525.141818 16.523538 525.347273 16.162451 525.552727 15.811956 525.758182 15.472007 525.963636 15.142563 526.169091 14.823582 526.374545 14.515020 526.580000 14.216834 526.785455 13.928983 526.990909 13.651422 527.196364 13.384111 527.401818 13.127005 527.607273 12.880062 527.812727 12.643240 528.018182 12.416495 528.223636 12.199786 528.429091 11.993069 528.634545 11.796301 528.840000 11.609441 529.045455 11.432444 529.250909 11.265269 529.456364 11.107874 529.661818 10.960214 529.867273 10.822247 530.072727 10.693932 530.278182 10.575224 530.483636 10.466082 530.689091 10.366462 530.894545 10.276322 531.100000 10.195620 531.305455 10.124312 531.510909 10.062356 531.716364 10.009709 531.921818 9.966328 532.127273 9.932171 532.332727 9.907195 532.538182 9.891357 532.743636 9.884615 532.949091 9.886926 533.154545 9.898247 533.360000 9.918536 533.565455 9.947749 533.770909 9.985844 533.976364 10.032779 534.181818 10.088511 534.387273 10.152996 534.592727 10.226193 534.798182 10.308058 535.003636 10.398549 535.209091 10.497624 535.414545 10.605238 535.620000 10.721351 535.825455 10.845919 536.030909 10.978899 536.236364 11.120248 536.441818 11.269925 536.647273 11.427886 536.852727 11.594088 537.058182 11.768489 537.263636 11.951047 537.469091 12.141718 537.674545 12.340459 537.880000 12.547229 538.085455 12.761984 538.290909 12.984682 538.496364 13.215279 538.701818 13.453734 538.907273 13.700003 539.112727 13.954044 539.318182 14.215815 539.523636 14.485271 539.729091 14.762372 539.934545 15.047073 540.140000 15.339333 540.345455 15.639108 540.550909 15.946356 540.756364 16.261035 540.961818 16.583101 541.167273 16.912512 541.372727 17.249224 541.578182 17.593197 541.783636 17.944386 541.989091 18.302749 542.194545 18.668243 542.400000 19.040826 542.605455 19.420454 542.810909 19.807086 543.016364 20.200679 543.221818 20.601189 543.427273 21.008574 543.632727 21.422792 543.838182 21.843799 544.043636 22.271553 544.249091 22.706012 544.454545 23.147132 544.660000 23.594871 544.865455 24.049186 545.070909 24.510034 545.276364 24.977374 545.481818 25.451161 545.687273 25.931354 545.892727 26.417909 546.098182 26.910785 546.303636 27.409937 546.509091 27.915324 546.714545 28.426903 546.920000 28.944631 547.125455 29.468466 547.330909 29.998364 547.536364 30.534283 547.741818 31.076181 547.947273 31.624014 548.152727 32.177740 548.358182 32.737317 548.563636 33.302701 548.769091 33.873849 548.974545 34.450720 549.180000 35.033270 549.385455 35.621457 549.590909 36.215238 549.796364 36.814571 550.001818 37.419411 550.207273 38.029718 550.412727 38.645448 550.618182 39.266559 550.823636 39.893007 551.029091 40.524750 551.234545 41.161746 551.440000 41.803951 551.645455 42.451324 551.850909 43.103820 552.056364 43.761399 552.261818 44.424016 552.467273 45.091629 552.672727 45.764196 552.878182 46.441673 553.083636 47.124019 553.289091 47.811190 553.494545 48.503144 553.700000 49.199837 553.905455 49.901228 554.110909 50.607273 554.316364 51.317931 554.521818 52.033157 554.727273 52.752910 554.932727 53.477147 555.138182 54.205824 555.343636 54.938900 555.549091 55.676332 555.754545 56.418076 555.960000 57.164091 556.165455 57.914334 556.370909 58.668761 556.576364 59.427330 556.781818 60.189999 556.987273 60.956724 557.192727 61.727464 557.398182 62.502174 557.603636 63.280814 557.809091 64.063339 558.014545 64.849708 558.220000 65.639877 558.425455 66.433803 558.630909 67.231445 558.836364 68.032760 559.041818 68.837704 559.247273 69.646235 559.452727 70.458310 559.658182 71.273887 559.863636 72.092923 560.069091 72.915375 560.274545 73.741200 560.480000 74.570356 560.685455 75.402801 560.890909 76.238491 561.096364 77.077383 561.301818 77.919435 561.507273 78.764605 561.712727 79.612849 561.918182 80.464125 562.123636 81.318390 562.329091 82.175602 562.534545 83.035718 562.740000 83.898694 562.945455 84.764489 563.150909 85.633059 563.356364 86.504363 563.561818 87.378357 563.767273 88.254998 563.972727 89.134244 564.178182 90.016052 564.383636 90.900380 564.589091 91.787184 564.794545 92.676423 565.000000 93.568053 565.205455 94.462031 565.410909 95.358315 565.616364 96.256863 565.821818 97.157631 566.027273 98.060577 566.232727 98.965658 566.438182 99.872831 566.643636 100.782054 566.849091 101.693285 567.054545 102.606479 567.260000 103.521595 567.465455 104.438590 567.670909 105.357421 567.876364 106.278046 568.081818 107.200421 568.287273 108.124505 568.492727 109.050254 568.698182 109.977626 568.903636 110.906577 569.109091 111.837066 569.314545 112.769050 569.520000 113.702485 569.725455 114.637329 569.930909 115.573541 570.136364 116.511075 570.341818 117.449891 570.547273 118.389945 570.752727 119.331195 570.958182 120.273598 571.163636 121.217111 571.369091 122.161692 571.574545 123.107298 571.780000 124.053885 571.985455 125.001412 572.190909 125.949836 572.396364 126.899114 572.601818 127.849203 572.807273 128.800061 573.012727 129.751645 573.218182 130.703912 573.423636 131.656820 573.629091 132.610325 573.834545 133.564386 574.040000 134.518959 574.245455 135.474002 574.450909 136.429472 574.656364 137.385326 574.861818 138.341521 575.067273 139.298016 575.272727 140.254767 575.478182 141.211731 575.683636 142.168866 575.889091 143.126130 576.094545 144.083478 576.300000 145.040870 576.300000 514.000000" /></g></g><g class="titles"><text class="title plot_title" x="400.0" y="26">Phrom-Phong 50</text></g><g class="plot overlay" transform="translate(192, 46)"><g class="series serie-0 color-0"><g class="dots"><circle class="dot reactive tooltip-trigger" cx="11.3" cy="29.29644491267635" r="2.5" /><desc class="value">538000</desc><desc class="x ">11.3</desc><desc class="y ">29.29644491267635</desc><desc class="x_label">Jan</desc></g><g class="dots"><circle class="dot reactive tooltip-trigger" cx="62.66363636363637" cy="136.77341092096412" r="2.5" /><desc class="value">512000</desc><desc class="x ">62.66363636363637</desc><desc class="y ">136.77341092096412</desc><desc class="x_label">Feb</desc></g><g class="dots"><circle class="dot reactive tooltip-trigger" cx="114.02727272727273" cy="91.30238684053467" r="2.5" /><desc class="value">523000</desc><desc class="x ">114.02727272727273</desc><desc class="y ">91.30238684053467</desc><desc class="x_label">Mar</desc></g><g class="dots"><circle class="dot reactive tooltip-trigger" cx="165.39090909090908" cy="500.54160356439957" r="2.5" /><desc class="value">424000</desc><desc class="x top">165.39090909090908</desc><desc class="y top">500.54160356439957</desc><desc class="x_label">Apr</desc></g><g class="dots"><circle class="dot reactive tooltip-trigger" cx="216.75454545454548" cy="219.44800015810853" r="2.5" /><desc class="value">492000</desc><desc class="x ">216.75454545454548</desc><desc class="y ">219.44800015810853</desc><desc class="x_label">May</desc></g><g class="dots"><circle class="dot reactive tooltip-trigger" cx="268.1181818181818" cy="157.4420582302502" r="2.5" /><desc class="value">507000</desc><desc class="x ">268.1181818181818</desc><desc class="y ">157.4420582302502</desc><desc class="x_label">Jun</desc></g><g class="dots"><circle class="dot reactive tooltip-trigger" cx="319.4818181818182" cy="145.04086984467858" r="2.5" /><desc class="value">510000</desc><desc class="x left">319.4818181818182</desc><desc class="y left">145.04086984467858</desc><desc class="x_label">Jul</desc></g><g class="dots"><circle class="dot reactive tooltip-trigger" cx="370.8454545454546" cy="99.56984576424912" r="2.5" /><desc class="value">521000</desc><desc class="x left">370.8454545454546</desc><desc class="y left">99.56984576424912</desc><desc class="x_label">Aug</desc></g><g class="dots"><circle class="dot reactive tooltip-trigger" cx="422.20909090909095" cy="91.30238684053467" r="2.5" /><desc class="value">523000</desc><desc class="x left">422.20909090909095</desc><desc class="y left">91.30238684053467</desc><desc class="x_label">Sep</desc></g><g class="dots"><circle class="dot reactive tooltip-trigger" cx="473.5727272727273" cy="211.18054123439407" r="2.5" /><desc class="value">494000</desc><desc class="x left">473.5727272727273</desc><desc class="y left">211.18054123439407</desc><desc class="x_label">Oct</desc></g><g class="dots"><circle class="dot reactive tooltip-trigger" cx="524.9363636363636" cy="16.89525652710472" r="2.5" /><desc class="value">541000</desc><desc class="x left">524.9363636363636</desc><desc class="y left">16.89525652710472</desc><desc class="x_label">Nov</desc></g><g class="dots"><circle class="dot reactive tooltip-trigger" cx="576.3000000000001" cy="145.04086984467858" r="2.5" /><desc class="value">510000</desc><desc class="x left">576.3000000000001</desc><desc class="y left">145.04086984467858</desc><desc class="x_label">Dec</desc></g></g></g><g class="plot text-overlay" transform="translate(192, 46)"><g class="series serie-0 color-0" /></g><g class="plot tooltip-overlay" transform="translate(192, 46)"><g class="tooltip" style="opacity: 0" transform="translate(0 0)"><rect class="tooltip-box" height="0" rx="0" ry="0" width="0" /><g class="text" /></g></g><g class="legends" transform="translate(10, 56)"><g class="legend reactive activate-serie" id="activate-serie-0"><rect class="color-0 reactive" height="12" width="12" x="0.0" y="1.0" /><text x="17.0" y="11.2">Phrom-Phong</text></g></g><g class="legends" transform="translate(790, 56)" /></g></svg>