<?xml version='1.0' encoding='utf-8'?>
<svg xmlns:xlink="http://www.w3.org/1999/xlink" class="pygal-chart" id="chart-a8461da5-3b08-4844-84d5-f64b44d3cd2d" viewBox="0 0 800 600" xmlns="http://www.w3.org/2000/svg"><!--Generated with pygal 2.0.11 (etree) ©Kozea 2011-2015 on 2015-12-10--><!--http://pygal.org--><!--http://github.com/Kozea/pygal--><defs><style type="text/css">#chart-a8461da5-3b08-4844-84d5-f64b44d3cd2d{-webkit-user-select:none;-webkit-font-smoothing:antialiased;font-family:Consolas,"Liberation Mono",Menlo,Courier,monospace}#chart-a8461da5-3b08-4844-84d5-f64b44d3cd2d .title{font-family:Consolas,"Liberation Mono",Menlo,Courier,monospace;font-size:16px}#chart-a8461da5-3b08-4844-84d5-f64b44d3cd2d .legends .legend text{font-family:Consolas,"Liberation Mono",Menlo,Courier,monospace;font-size:14px}#chart-a8461da5-3b08-4844-84d5-f64b44d3cd2d .axis text{font-family:Consolas,"Liberation Mono",Menlo,Courier,monospace;font-size:10px}#chart-a8461da5-3b08-4844-84d5-f64b44d3cd2d .axis text.major{font-family:Consolas,"Liberation Mono",Menlo,Courier,monospace;font-size:10px}#chart-a8461da5-3b08-4844-84d5-f64b44d3cd2d .text-overlay text.value{font-family:Consolas,"Liberation Mono",Menlo,Courier,monospace;font-size:16px}#chart-a8461da5-3b08-4844-84d5-f64b44d3cd2d .text-overlay text.label{font-family:Consolas,"Liberation Mono",Menlo,Courier,monospace;font-size:10px}#chart-a8461da5-3b08-4844-84d5-f64b44d3cd2d .tooltip{font-family:Consolas,"Liberation Mono",Menlo,Courier,monospace;font-size:14px}#chart-a8461da5-3b08-4844-84d5-f64b44d3cd2d text.no_data{font-family:Consolas,"Liberation Mono",Menlo,Courier,monospace;font-size:64px}
#chart-a8461da5-3b08-4844-84d5-f64b44d3cd2d{background-color:black}#chart-a8461da5-3b08-4844-84d5-f64b44d3cd2d path,#chart-a8461da5-3b08-4844-84d5-f64b44d3cd2d line,#chart-a8461da5-3b08-4844-84d5-f64b44d3cd2d rect,#chart-a8461da5-3b08-4844-84d5-f64b44d3cd2d circle{-webkit-transition:250ms;-moz-transition:250ms;transition:250ms}#chart-a8461da5-3b08-4844-84d5-f64b44d3cd2d .graph &gt; .background{fill:black}#chart-a8461da5-3b08-4844-84d5-f64b44d3cd2d .plot &gt; .background{fill:#111}#chart-a8461da5-3b08-4844-84d5-f64b44d3cd2d .graph{fill:#999}#chart-a8461da5-3b08-4844-84d5-f64b44d3cd2d text.no_data{fill:#eee}#chart-a8461da5-3b08-4844-84d5-f64b44d3cd2d .title{fill:#eee}#chart-a8461da5-3b08-4844-84d5-f64b44d3cd2d .legends .legend text{fill:#999}#chart-a8461da5-3b08-4844-84d5-f64b44d3cd2d .legends .legend:hover text{fill:#eee}#chart-a8461da5-3b08-4844-84d5-f64b44d3cd2d .axis .line{stroke:#eee}#chart-a8461da5-3b08-4844-84d5-f64b44d3cd2d .axis .guide.line{stroke:#555}#chart-a8461da5-3b08-4844-84d5-f64b44d3cd2d .axis .major.line{stroke:#999}#chart-a8461da5-3b08-4844-84d5-f64b44d3cd2d .axis text.major{fill:#eee}#chart-a8461da5-3b08-4844-84d5-f64b44d3cd2d .axis.y .guides:hover .guide.line,#chart-a8461da5-3b08-4844-84d5-f64b44d3cd2d .line-graph .axis.x .guides:hover .guide.line,#chart-a8461da5-3b08-4844-84d5-f64b44d3cd2d .stackedline-graph .axis.x .guides:hover .guide.line,#chart-a8461da5-3b08-4844-84d5-f64b44d3cd2d .xy-graph .axis.x .guides:hover .guide.line{stroke:#eee}#chart-a8461da5-3b08-4844-84d5-f64b44d3cd2d .axis .guides:hover text{fill:#eee}#chart-a8461da5-3b08-4844-84d5-f64b44d3cd2d .reactive{fill-opacity:.8}#chart-a8461da5-3b08-4844-84d5-f64b44d3cd2d .reactive.active,#chart-a8461da5-3b08-4844-84d5-f64b44d3cd2d .active .reactive{fill-opacity:.4;stroke-width:4}#chart-a8461da5-3b08-4844-84d5-f64b44d3cd2d .series text{fill:#eee}#chart-a8461da5-3b08-4844-84d5-f64b44d3cd2d .tooltip rect{fill:#111;stroke:#eee;-webkit-transition:opacity 250ms;-moz-transition:opacity 250ms;transition:opacity 250ms}#chart-a8461da5-3b08-4844-84d5-f64b44d3cd2d .tooltip .label{fill:#999}#chart-a8461da5-3b08-4844-84d5-f64b44d3cd2d .tooltip .label{fill:#999}#chart-a8461da5-3b08-4844-84d5-f64b44d3cd2d .tooltip .legend{font-size:.8em;fill:#555}#chart-a8461da5-3b08-4844-84d5-f64b44d3cd2d .tooltip .x_label{font-size:.6em;fill:#eee}#chart-a8461da5-3b08-4844-84d5-f64b44d3cd2d .tooltip .xlink{font-size:.5em;text-decoration:underline}#chart-a8461da5-3b08-4844-84d5-f64b44d3cd2d .tooltip .value{font-size:1.5em}#chart-a8461da5-3b08-4844-84d5-f64b44d3cd2d .map-element{fill:#111;stroke:#555 !important}#chart-a8461da5-3b08-4844-84d5-f64b44d3cd2d .map-element .reactive{fill-opacity:inherit}#chart-a8461da5-3b08-4844-84d5-f64b44d3cd2d .color-0,#chart-a8461da5-3b08-4844-84d5-f64b44d3cd2d .color-0 a:visited{stroke:#ff5995;fill:#ff5995}#chart-a8461da5-3b08-4844-84d5-f64b44d3cd2d .text-overlay .color-0 text{fill:black}
#chart-a8461da5-3b08-4844-84d5-f64b44d3cd2d text.no_data{text-anchor:middle}#chart-a8461da5-3b08-4844-84d5-f64b44d3cd2d .guide.line{fill:none}#chart-a8461da5-3b08-4844-84d5-f64b44d3cd2d .centered{text-anchor:middle}#chart-a8461da5-3b08-4844-84d5-f64b44d3cd2d .title{text-anchor:middle}#chart-a8461da5-3b08-4844-84d5-f64b44d3cd2d .legends .legend text{fill-opacity:1}#chart-a8461da5-3b08-4844-84d5-f64b44d3cd2d .axis.x text{text-anchor:middle}#chart-a8461da5-3b08-4844-84d5-f64b44d3cd2d .axis.x:not(.web) text[transform]{text-anchor:start}#chart-a8461da5-3b08-4844-84d5-f64b44d3cd2d .axis.x:not(.web) text[transform].backwards{text-anchor:end}#chart-a8461da5-3b08-4844-84d5-f64b44d3cd2d .axis.y text{text-anchor:end}#chart-a8461da5-3b08-4844-84d5-f64b44d3cd2d .axis.y text[transform].backwards{text-anchor:start}#chart-a8461da5-3b08-4844-84d5-f64b44d3cd2d .axis.y2 text{text-anchor:start}#chart-a8461da5-3b08-4844-84d5-f64b44d3cd2d .axis.y2 text[transform].backwards{text-anchor:end}#chart-a8461da5-3b08-4844-84d5-f64b44d3cd2d .axis .guide.line{stroke-dasharray:4,4}#chart-a8461da5-3b08-4844-84d5-f64b44d3cd2d .axis .major.guide.line{stroke-dasharray:6,6}#chart-a8461da5-3b08-4844-84d5-f64b44d3cd2d .horizontal .axis.y .guide.line,#chart-a8461da5-3b08-4844-84d5-f64b44d3cd2d .horizontal .axis.y2 .guide.line,#chart-a8461da5-3b08-4844-84d5-f64b44d3cd2d .vertical .axis.x .guide.line{opacity:0}#chart-a8461da5-3b08-4844-84d5-f64b44d3cd2d .horizontal .axis.always_show .guide.line,#chart-a8461da5-3b08-4844-84d5-f64b44d3cd2d .vertical .axis.always_show .guide.line{opacity:1 !important}#chart-a8461da5-3b08-4844-84d5-f64b44d3cd2d .axis.y .guides:hover .guide.line,#chart-a8461da5-3b08-4844-84d5-f64b44d3cd2d .axis.y2 .guides:hover .guide.line,#chart-a8461da5-3b08-4844-84d5-f64b44d3cd2d .axis.x .guides:hover .guide.line{opacity:1}#chart-a8461da5-3b08-4844-84d5-f64b44d3cd2d .axis .guides:hover text{opacity:1}#chart-a8461da5-3b08-4844-84d5-f64b44d3cd2d .nofill{fill:none}#chart-a8461da5-3b08-4844-84d5-f64b44d3cd2d .subtle-fill{fill-opacity:.2}#chart-a8461da5-3b08-4844-84d5-f64b44d3cd2d .dot{stroke-width:1px;fill-opacity:1}#chart-a8461da5-3b08-4844-84d5-f64b44d3cd2d .dot.active{stroke-width:5px}#chart-a8461da5-3b08-4844-84d5-f64b44d3cd2d .dot.negative{fill:transparent}#chart-a8461da5-3b08-4844-84d5-f64b44d3cd2d text,#chart-a8461da5-3b08-4844-84d5-f64b44d3cd2d tspan{stroke:none !important}#chart-a8461da5-3b08-4844-84d5-f64b44d3cd2d .series text.active{opacity:1}#chart-a8461da5-3b08-4844-84d5-f64b44d3cd2d .tooltip rect{fill-opacity:.95;stroke-width:.5}#chart-a8461da5-3b08-4844-84d5-f64b44d3cd2d .tooltip text{fill-opacity:1}#chart-a8461da5-3b08-4844-84d5-f64b44d3cd2d .showable{visibility:hidden}#chart-a8461da5-3b08-4844-84d5-f64b44d3cd2d .showable.shown{visibility:visible}</style><script type="text/javascript">window.pygal = window.pygal || {};window.pygal.config = window.pygal.config || {};window.pygal.config['a8461da5-3b08-4844-84d5-f64b44d3cd2d'] = {"x_labels_major_count": null, "max_scale": 16, "force_uri_protocol": null, "box_mode": "extremes", "human_readable": false, "rounded_bars": null, "show_dots": true, "title": "2552 summary", "interpolation_precision": 250, "inverse_y_axis": false, "y_label_rotation": 0, "tooltip_border_radius": 0, "legends": ["2552"], "margin": 20, "x_labels_major": null, "show_only_major_dots": false, "spacing": 10, "legend_box_size": 12, "include_x_axis": false, "show_legend": true, "print_values": false, "print_zeroes": true, "pretty_print": false, "range": null, "secondary_range": null, "show_minor_x_labels": true, "legend_at_bottom_columns": null, "strict": false, "half_pie": false, "margin_right": null, "inner_radius": 0, "x_title": null, "dynamic_print_values": false, "value_formatter": null, "print_labels": false, "min_scale": 4, "interpolate": "cubic", "order_min": null, "y_labels_major_every": null, "interpolation_parameters": {}, "stroke_style": null, "style": {"no_data_font_size": 64, "legend_font_family": "Consolas, \"Liberation Mono\", Menlo, Courier, monospace", "value_font_size": 16, "plot_background": "#111", "title_font_family": "Consolas, \"Liberation Mono\", Menlo, Courier, monospace", "major_guide_stroke_dasharray": "6,6", "opacity": ".8", "title_font_size": 16, "font_family": "Consolas, \"Liberation Mono\", Menlo, Courier, monospace", "label_font_size": 10, "major_label_font_size": 10, "colors": ["#ff5995", "#b6e354", "#feed6c", "#8cedff", "#9e6ffe", "#899ca1", "#f8f8f2", "#bf4646", "#516083", "#f92672", "#82b414", "#fd971f", "#56c2d6", "#808384", "#8c54fe", "#465457"], "tooltip_font_size": 14, "transition": "250ms", "value_colors": [], "value_font_family": "Consolas, \"Liberation Mono\", Menlo, Courier, monospace", "value_label_font_family": "Consolas, \"Liberation Mono\", Menlo, Courier, monospace", "foreground_subtle": "#555", "foreground_strong": "#eee", "legend_font_size": 14, "background": "black", "tooltip_font_family": "Consolas, \"Liberation Mono\", Menlo, Courier, monospace", "opacity_hover": ".4", "guide_stroke_dasharray": "4,4", "major_label_font_family": "Consolas, \"Liberation Mono\", Menlo, Courier, monospace", "label_font_family": "Consolas, \"Liberation Mono\", Menlo, Courier, monospace", "no_data_font_family": "Consolas, \"Liberation Mono\", Menlo, Courier, monospace", "value_label_font_size": 10, "foreground": "#999"}, "x_labels": ["Jan", "Feb", "Mar", "Apr", "May", "Jun", "Jul", "Aug", "Sep", "Oct", "Nov", "Dec"], "x_label_rotation": 0, "show_y_guides": true, "width": 800, "margin_bottom": null, "no_prefix": false, "legend_at_bottom": false, "x_labels_major_every": null, "dots_size": 2.5, "fill": true, "disable_xml_declaration": false, "y_title": null, "height": 600, "show_x_labels": true, "stroke": true, "truncate_legend": null, "y_labels_major_count": null, "xrange": null, "margin_left": null, "margin_top": null, "logarithmic": false, "show_minor_y_labels": true, "defs": [], "missing_value_fill_truncation": "x", "no_data_text": "No data", "show_y_labels": true, "zero": 0, "x_value_formatter": null, "js": ["//kozea.github.io/pygal.js/2.0.x/pygal-tooltips.min.js"], "tooltip_fancy_mode": true, "stack_from_top": false, "truncate_label": null, "show_x_guides": false, "css": ["file://style.css", "file://graph.css"], "y_labels_major": null, "y_labels": null, "explicit_size": false}</script><script type="text/javascript" xlink:href="//kozea.github.io/pygal.js/2.0.x/pygal-tooltips.min.js" /></defs><title>2552 summary</title><g class="graph line-graph vertical"><rect class="background" height="600" width="800" x="0" y="0" /><g class="plot" transform="translate(145, 46)"><rect class="background" height="514" width="634.4" x="0" y="0" /><g class="axis y"><path class="line" d="M0.000000 514.000000 h634.400000" /><g class="guides"><path class="guide line" d="M0.000000 502.453487 h634.400000" /><text class="" x="-5" y="505.9534869822326">10200000.0</text><title>10200000.0</title></g><g class="guides"><path class="guide line" d="M0.000000 463.460930 h634.400000" /><text class="" x="-5" y="466.9609304786514">10400000.0</text><title>10400000.0</title></g><g class="guides"><path class="guide line" d="M0.000000 424.468374 h634.400000" /><text class="" x="-5" y="427.9683739750702">10600000.0</text><title>10600000.0</title></g><g class="guides"><path class="guide line" d="M0.000000 385.475817 h634.400000" /><text class="" x="-5" y="388.975817471489">10800000.0</text><title>10800000.0</title></g><g class="guides"><path class="major guide line" d="M0.000000 346.483261 h634.400000" /><text class="major" x="-5" y="349.9832609679078">11000000.0</text><title>11000000.0</title></g><g class="guides"><path class="guide line" d="M0.000000 307.490704 h634.400000" /><text class="" x="-5" y="310.99070446432665">11200000.0</text><title>11200000.0</title></g><g class="guides"><path class="guide line" d="M0.000000 268.498148 h634.400000" /><text class="" x="-5" y="271.9981479607454">11400000.0</text><title>11400000.0</title></g><g class="guides"><path class="guide line" d="M0.000000 229.505591 h634.400000" /><text class="" x="-5" y="233.00559145716426">11600000.0</text><title>11600000.0</title></g><g class="guides"><path class="guide line" d="M0.000000 190.513035 h634.400000" /><text class="" x="-5" y="194.01303495358303">11800000.0</text><title>11800000.0</title></g><g class="guides"><path class="major guide line" d="M0.000000 151.520478 h634.400000" /><text class="major" x="-5" y="155.02047845000186">12000000.0</text><title>12000000.0</title></g><g class="guides"><path class="guide line" d="M0.000000 112.527922 h634.400000" /><text class="" x="-5" y="116.02792194642063">12200000.0</text><title>12200000.0</title></g><g class="guides"><path class="guide line" d="M0.000000 73.535365 h634.400000" /><text class="" x="-5" y="77.03536544283952">12400000.0</text><title>12400000.0</title></g><g class="guides"><path class="guide line" d="M0.000000 34.542809 h634.400000" /><text class="" x="-5" y="38.04280893925829">12600000.0</text><title>12600000.0</title></g></g><g class="axis x"><g class="guides"><path class="line" d="M12.200000 0.000000 v514.000000" /><text class="" x="12.2" y="529.0">Jan</text></g><g class="guides"><path class="guide line" d="M67.654545 0.000000 v514.000000" /><text class="" x="67.65454545454546" y="529.0">Feb</text></g><g class="guides"><path class="guide line" d="M123.109091 0.000000 v514.000000" /><text class="" x="123.1090909090909" y="529.0">Mar</text></g><g class="guides"><path class="guide line" d="M178.563636 0.000000 v514.000000" /><text class="" x="178.56363636363636" y="529.0">Apr</text></g><g class="guides"><path class="guide line" d="M234.018182 0.000000 v514.000000" /><text class="" x="234.01818181818183" y="529.0">May</text></g><g class="guides"><path class="guide line" d="M289.472727 0.000000 v514.000000" /><text class="" x="289.47272727272724" y="529.0">Jun</text></g><g class="guides"><path class="guide line" d="M344.927273 0.000000 v514.000000" /><text class="" x="344.9272727272727" y="529.0">Jul</text></g><g class="guides"><path class="guide line" d="M400.381818 0.000000 v514.000000" /><text class="" x="400.3818181818181" y="529.0">Aug</text></g><g class="guides"><path class="guide line" d="M455.836364 0.000000 v514.000000" /><text class="" x="455.8363636363636" y="529.0">Sep</text></g><g class="guides"><path class="guide line" d="M511.290909 0.000000 v514.000000" /><text class="" x="511.2909090909091" y="529.0">Oct</text></g><g class="guides"><path class="guide line" d="M566.745455 0.000000 v514.000000" /><text class="" x="566.7454545454545" y="529.0">Nov</text></g><g class="guides"><path class="guide line" d="M622.200000 0.000000 v514.000000" /><text class="" x="622.1999999999999" y="529.0">Dec</text></g></g><g class="series serie-0 color-0"><path class="line reactive" d="M12.200000 514.000000 L12.200000 348.405984 12.421818 349.683397 12.643636 350.960734 12.865455 352.237919 13.087273 353.514873 13.309091 354.791523 13.530909 356.067790 13.752727 357.343598 13.974545 358.618872 14.196364 359.893534 14.418182 361.167508 14.640000 362.440719 14.861818 363.713088 15.083636 364.984540 15.305455 366.254999 15.527273 367.524388 15.749091 368.792631 15.970909 370.059651 16.192727 371.325372 16.414545 372.589717 16.636364 373.852610 16.858182 375.113974 17.080000 376.373734 17.301818 377.631813 17.523636 378.888133 17.745455 380.142620 17.967273 381.395196 18.189091 382.645785 18.410909 383.894310 18.632727 385.140696 18.854545 386.384865 19.076364 387.626742 19.298182 388.866250 19.520000 390.103312 19.741818 391.337852 19.963636 392.569793 20.185455 393.799060 20.407273 395.025576 20.629091 396.249264 20.850909 397.470048 21.072727 398.687852 21.294545 399.902598 21.516364 401.114211 21.738182 402.322615 21.960000 403.527732 22.181818 404.729487 22.403636 405.927802 22.625455 407.122602 22.847273 408.313811 23.069091 409.501351 23.290909 410.685146 23.512727 411.865120 23.734545 413.041196 23.956364 414.213299 24.178182 415.381351 24.400000 416.545276 24.621818 417.704998 24.843636 418.860440 25.065455 420.011527 25.287273 421.158180 25.509091 422.300325 25.730909 423.437884 25.952727 424.570782 26.174545 425.698941 26.396364 426.822285 26.618182 427.940739 26.840000 429.054225 27.061818 430.162667 27.283636 431.265989 27.505455 432.364114 27.727273 433.456966 27.949091 434.544468 28.170909 435.626544 28.392727 436.703118 28.614545 437.774113 28.836364 438.839452 29.058182 439.899060 29.280000 440.952860 29.501818 442.000775 29.723636 443.042729 29.945455 444.078645 30.167273 445.108448 30.389091 446.132061 30.610909 447.149407 30.832727 448.160409 31.054545 449.164993 31.276364 450.163080 31.498182 451.154595 31.720000 452.139461 31.941818 453.117602 32.163636 454.088941 32.385455 455.053402 32.607273 456.010909 32.829091 456.961384 33.050909 457.904753 33.272727 458.840937 33.494545 459.769862 33.716364 460.691450 33.938182 461.605624 34.160000 462.512310 34.381818 463.411429 34.603636 464.302906 34.825455 465.186665 35.047273 466.062628 35.269091 466.930720 35.490909 467.790863 35.712727 468.642983 35.934545 469.487001 36.156364 470.322842 36.378182 471.150430 36.600000 471.969687 36.821818 472.780538 37.043636 473.582906 37.265455 474.376715 37.487273 475.161887 37.709091 475.938348 37.930909 476.706020 38.152727 477.464826 38.374545 478.214692 38.596364 478.955539 38.818182 479.687292 39.040000 480.409874 39.261818 481.123209 39.483636 481.827221 39.705455 482.521832 39.927273 483.206967 40.149091 483.882549 40.370909 484.548502 40.592727 485.204749 40.814545 485.851214 41.036364 486.487820 41.258182 487.114492 41.480000 487.731152 41.701818 488.337724 41.923636 488.934132 42.145455 489.520299 42.367273 490.096149 42.589091 490.661605 42.810909 491.216592 43.032727 491.761032 43.254545 492.294849 43.476364 492.817968 43.698182 493.330310 43.920000 493.831801 44.141818 494.322363 44.363636 494.801920 44.585455 495.270395 44.807273 495.727713 45.029091 496.173797 45.250909 496.608570 45.472727 497.031956 45.694545 497.443879 45.916364 497.844262 46.138182 498.233028 46.360000 498.610102 46.581818 498.975406 46.803636 499.328865 47.025455 499.670403 47.247273 499.999941 47.469091 500.317405 47.690909 500.622717 47.912727 500.915802 48.134545 501.196583 48.356364 501.464983 48.578182 501.720927 48.800000 501.964336 49.021818 502.195136 49.243636 502.413250 49.465455 502.618602 49.687273 502.811114 49.909091 502.990710 50.130909 503.157315 50.352727 503.310851 50.574545 503.451243 50.796364 503.578414 51.018182 503.692286 51.240000 503.792785 51.461818 503.879834 51.683636 503.953355 51.905455 504.013273 52.127273 504.059512 52.349091 504.091994 52.570909 504.110644 52.792727 504.115385 53.014545 504.106140 53.236364 504.082833 53.458182 504.045389 53.680000 503.993729 53.901818 503.927779 54.123636 503.847461 54.345455 503.752699 54.567273 503.643416 54.789091 503.519537 55.010909 503.380985 55.232727 503.227683 55.454545 503.059555 55.676364 502.876524 55.898182 502.678514 56.120000 502.465450 56.341818 502.237253 56.563636 501.993848 56.785455 501.735159 57.007273 501.461108 57.229091 501.171620 57.450909 500.866619 57.672727 500.546027 57.894545 500.209768 58.116364 499.857766 58.338182 499.489944 58.560000 499.106227 58.781818 498.706537 59.003636 498.290798 59.225455 497.858934 59.447273 497.410869 59.669091 496.946525 59.890909 496.465827 60.112727 495.968697 60.334545 495.455061 60.556364 494.924840 60.778182 494.377960 61.000000 493.814342 61.221818 493.233912 61.443636 492.636592 61.665455 492.022307 61.887273 491.390978 62.109091 490.742532 62.330909 490.076890 62.552727 489.393976 62.774545 488.693714 62.996364 487.976028 63.218182 487.240841 63.440000 486.488077 63.661818 485.717659 63.883636 484.929511 64.105455 484.123556 64.327273 483.299718 64.549091 482.457921 64.770909 481.598088 64.992727 480.720143 65.214545 479.824009 65.436364 478.909610 65.658182 477.976870 65.880000 477.025711 66.101818 476.056059 66.323636 475.067835 66.545455 474.060964 66.767273 473.035370 66.989091 471.990975 67.210909 470.927704 67.432727 469.845480 67.654545 468.744227 67.876364 467.623912 68.098182 466.484677 68.320000 465.326709 68.541818 464.150193 68.763636 462.955317 68.985455 461.742266 69.207273 460.511226 69.429091 459.262384 69.650909 457.995925 69.872727 456.712037 70.094545 455.410905 70.316364 454.092715 70.538182 452.757654 70.760000 451.405907 70.981818 450.037662 71.203636 448.653103 71.425455 447.252418 71.647273 445.835792 71.869091 444.403412 72.090909 442.955464 72.312727 441.492134 72.534545 440.013609 72.756364 438.520074 72.978182 437.011715 73.200000 435.488720 73.421818 433.951273 73.643636 432.399562 73.865455 430.833772 74.087273 429.254090 74.309091 427.660702 74.530909 426.053793 74.752727 424.433551 74.974545 422.800161 75.196364 421.153810 75.418182 419.494684 75.640000 417.822969 75.861818 416.138851 76.083636 414.442516 76.305455 412.734151 76.527273 411.013941 76.749091 409.282074 76.970909 407.538735 77.192727 405.784110 77.414545 404.018385 77.636364 402.241748 77.858182 400.454383 78.080000 398.656477 78.301818 396.848217 78.523636 395.029788 78.745455 393.201377 78.967273 391.363169 79.189091 389.515352 79.410909 387.658111 79.632727 385.791633 79.854545 383.916103 80.076364 382.031708 80.298182 380.138634 80.520000 378.237067 80.741818 376.327194 80.963636 374.409200 81.185455 372.483272 81.407273 370.549596 81.629091 368.608359 81.850909 366.659745 82.072727 364.703943 82.294545 362.741137 82.516364 360.771514 82.738182 358.795260 82.960000 356.812561 83.181818 354.823604 83.403636 352.828575 83.625455 350.827660 83.847273 348.821045 84.069091 346.808916 84.290909 344.791460 84.512727 342.768862 84.734545 340.741309 84.956364 338.708988 85.178182 336.672083 85.400000 334.630783 85.621818 332.585271 85.843636 330.535736 86.065455 328.482363 86.287273 326.425338 86.509091 324.364847 86.730909 322.301077 86.952727 320.234214 87.174545 318.164444 87.396364 316.091953 87.618182 314.016927 87.840000 311.939553 88.061818 309.860017 88.283636 307.778505 88.505455 305.695203 88.727273 303.610297 88.949091 301.523974 89.170909 299.436420 89.392727 297.347820 89.614545 295.258362 89.836364 293.168231 90.058182 291.077614 90.280000 288.986696 90.501818 286.895664 90.723636 284.804704 90.945455 282.714003 91.167273 280.623746 91.389091 278.534120 91.610909 276.445310 91.832727 274.357504 92.054545 272.270887 92.276364 270.185645 92.498182 268.101966 92.720000 266.020033 92.941818 263.940035 93.163636 261.862157 93.385455 259.786586 93.607273 257.713507 93.829091 255.643107 94.050909 253.575572 94.272727 251.511088 94.494545 249.449841 94.716364 247.392018 94.938182 245.337805 95.160000 243.287388 95.381818 241.240953 95.603636 239.198686 95.825455 237.160774 96.047273 235.127402 96.269091 233.098758 96.490909 231.075026 96.712727 229.056394 96.934545 227.043047 97.156364 225.035172 97.378182 223.032955 97.600000 221.036582 97.821818 219.046240 98.043636 217.062113 98.265455 215.084390 98.487273 213.113255 98.709091 211.148895 98.930909 209.191496 99.152727 207.241245 99.374545 205.298328 99.596364 203.362930 99.818182 201.435238 100.040000 199.515439 100.261818 197.603718 100.483636 195.700261 100.705455 193.805256 100.927273 191.918887 101.149091 190.041341 101.370909 188.172805 101.592727 186.313464 101.814545 184.463505 102.036364 182.623114 102.258182 180.792477 102.480000 178.971781 102.701818 177.161211 102.923636 175.360953 103.145455 173.571195 103.367273 171.792121 103.589091 170.023919 103.810909 168.266774 104.032727 166.520873 104.254545 164.786402 104.476364 163.063547 104.698182 161.352494 104.920000 159.653430 105.141818 157.966540 105.363636 156.292011 105.585455 154.630029 105.807273 152.980780 106.029091 151.344451 106.250909 149.721227 106.472727 148.111295 106.694545 146.514841 106.916364 144.932051 107.138182 143.363112 107.360000 141.808209 107.581818 140.267529 107.803636 138.741258 108.025455 137.229582 108.247273 135.732687 108.469091 134.250760 108.690909 132.783986 108.912727 131.332553 109.134545 129.896645 109.356364 128.476450 109.578182 127.072153 109.800000 125.683941 110.021818 124.312000 110.243636 122.956516 110.465455 121.617675 110.687273 120.295664 110.909091 118.990668 111.130909 117.702874 111.352727 116.432468 111.574545 115.179636 111.796364 113.944565 112.018182 112.727440 112.240000 111.528448 112.461818 110.347775 112.683636 109.185608 112.905455 108.042131 113.127273 106.917533 113.349091 105.811998 113.570909 104.725713 113.792727 103.658864 114.014545 102.611637 114.236364 101.584219 114.458182 100.576796 114.680000 99.589553 114.901818 98.622678 115.123636 97.676356 115.345455 96.750774 115.567273 95.846117 115.789091 94.962572 116.010909 94.100325 116.232727 93.259563 116.454545 92.440470 116.676364 91.643235 116.898182 90.868042 117.120000 90.115079 117.341818 89.384530 117.563636 88.676584 117.785455 87.991424 118.007273 87.329239 118.229091 86.690213 118.450909 86.074534 118.672727 85.482387 118.894545 84.913959 119.116364 84.369435 119.338182 83.849003 119.560000 83.352847 119.781818 82.881155 120.003636 82.434113 120.225455 82.011906 120.447273 81.614721 120.669091 81.242744 120.890909 80.896162 121.112727 80.575160 121.334545 80.279925 121.556364 80.010642 121.778182 79.767499 122.000000 79.550681 122.221818 79.360375 122.443636 79.196766 122.665455 79.060041 122.887273 78.950386 123.109091 78.867987 123.330909 78.812970 123.552727 78.785212 123.774545 78.784531 123.996364 78.810746 124.218182 78.863672 124.440000 78.943128 124.661818 79.048930 124.883636 79.180898 125.105455 79.338847 125.327273 79.522595 125.549091 79.731960 125.770909 79.966759 125.992727 80.226809 126.214545 80.511929 126.436364 80.821934 126.658182 81.156644 126.880000 81.515874 127.101818 81.899444 127.323636 82.307169 127.545455 82.738868 127.767273 83.194357 127.989091 83.673455 128.210909 84.175979 128.432727 84.701746 128.654545 85.250573 128.876364 85.822278 129.098182 86.416679 129.320000 87.033593 129.541818 87.672836 129.763636 88.334228 129.985455 89.017584 130.207273 89.722723 130.429091 90.449462 130.650909 91.197619 130.872727 91.967010 131.094545 92.757453 131.316364 93.568766 131.538182 94.400766 131.760000 95.253271 131.981818 96.126097 132.203636 97.019063 132.425455 97.931985 132.647273 98.864682 132.869091 99.816970 133.090909 100.788667 133.312727 101.779590 133.534545 102.789558 133.756364 103.818386 133.978182 104.865894 134.200000 105.931897 134.421818 107.016214 134.643636 108.118662 134.865455 109.239058 135.087273 110.377220 135.309091 111.532966 135.530909 112.706112 135.752727 113.896476 135.974545 115.103875 136.196364 116.328128 136.418182 117.569050 136.640000 118.826461 136.861818 120.100176 137.083636 121.390014 137.305455 122.695793 137.527273 124.017328 137.749091 125.354439 137.970909 126.706942 138.192727 128.074654 138.414545 129.457394 138.636364 130.854978 138.858182 132.267224 139.080000 133.693949 139.301818 135.134972 139.523636 136.590108 139.745455 138.059176 139.967273 139.541994 140.189091 141.038377 140.410909 142.548145 140.632727 144.071114 140.854545 145.607102 141.076364 147.155926 141.298182 148.717403 141.520000 150.291352 141.741818 151.877589 141.963636 153.475932 142.185455 155.086198 142.407273 156.708205 142.629091 158.341770 142.850909 159.986711 143.072727 161.642844 143.294545 163.309988 143.516364 164.987960 143.738182 166.676577 143.960000 168.375657 144.181818 170.085017 144.403636 171.804474 144.625455 173.533846 144.847273 175.272951 145.069091 177.021605 145.290909 178.779627 145.512727 180.546833 145.734545 182.323041 145.956364 184.108069 146.178182 185.901733 146.400000 187.703852 146.621818 189.514243 146.843636 191.332723 147.065455 193.159109 147.287273 194.993219 147.509091 196.834871 147.730909 198.683882 147.952727 200.540069 148.174545 202.403249 148.396364 204.273241 148.618182 206.149861 148.840000 208.032927 149.061818 209.922257 149.283636 211.817667 149.505455 213.718975 149.727273 215.626000 149.949091 217.538557 150.170909 219.456464 150.392727 221.379540 150.614545 223.307601 150.836364 225.240464 151.058182 227.177948 151.280000 229.119870 151.501818 231.066046 151.723636 233.016295 151.945455 234.970433 152.167273 236.928279 152.389091 238.889650 152.610909 240.854363 152.832727 242.822235 153.054545 244.793084 153.276364 246.766728 153.498182 248.742983 153.720000 250.721668 153.941818 252.702599 154.163636 254.685595 154.385455 256.670472 154.607273 258.657047 154.829091 260.645140 155.050909 262.634566 155.272727 264.625143 155.494545 266.616688 155.716364 268.609020 155.938182 270.601955 156.160000 272.595311 156.381818 274.588905 156.603636 276.582555 156.825455 278.576079 157.047273 280.569292 157.269091 282.562014 157.490909 284.554061 157.712727 286.545251 157.934545 288.535401 158.156364 290.524329 158.378182 292.511852 158.600000 294.497787 158.821818 296.481953 159.043636 298.464165 159.265455 300.444243 159.487273 302.422002 159.709091 304.397262 159.930909 306.369838 160.152727 308.339549 160.374545 310.306211 160.596364 312.269643 160.818182 314.229662 161.040000 316.186085 161.261818 318.138729 161.483636 320.087413 161.705455 322.031953 161.927273 323.972166 162.149091 325.907871 162.370909 327.838885 162.592727 329.765024 162.814545 331.686108 163.036364 333.601952 163.258182 335.512374 163.480000 337.417193 163.701818 339.316224 163.923636 341.209286 164.145455 343.096196 164.367273 344.976772 164.589091 346.850831 164.810909 348.718190 165.032727 350.578666 165.254545 352.432078 165.476364 354.278242 165.698182 356.116977 165.920000 357.948099 166.141818 359.771425 166.363636 361.586774 166.585455 363.393963 166.807273 365.192809 167.029091 366.983129 167.250909 368.764741 167.472727 370.537463 167.694545 372.301111 167.916364 374.055504 168.138182 375.800458 168.360000 377.535792 168.581818 379.261321 168.803636 380.976865 169.025455 382.682240 169.247273 384.377264 169.469091 386.061754 169.690909 387.735528 169.912727 389.398403 170.134545 391.050196 170.356364 392.690725 170.578182 394.319807 170.800000 395.937260 171.021818 397.542901 171.243636 399.136548 171.465455 400.718017 171.687273 402.287127 171.909091 403.843695 172.130909 405.387538 172.352727 406.918474 172.574545 408.436320 172.796364 409.940893 173.018182 411.432011 173.240000 412.909492 173.461818 414.373152 173.683636 415.822810 173.905455 417.258282 174.127273 418.679386 174.349091 420.085940 174.570909 421.477761 174.792727 422.854665 175.014545 424.216472 175.236364 425.562998 175.458182 426.894060 175.680000 428.209476 175.901818 429.509064 176.123636 430.792641 176.345455 432.060023 176.567273 433.311030 176.789091 434.545477 177.010909 435.763183 177.232727 436.963966 177.454545 438.147641 177.676364 439.314027 177.898182 440.462941 178.120000 441.594201 178.341818 442.707625 178.563636 443.803028 178.785455 444.880271 179.007273 445.939381 179.229091 446.980426 179.450909 448.003473 179.672727 449.008593 179.894545 449.995853 180.116364 450.965322 180.338182 451.917068 180.560000 452.851160 180.781818 453.767666 181.003636 454.666654 181.225455 455.548194 181.447273 456.412354 181.669091 457.259202 181.890909 458.088806 182.112727 458.901236 182.334545 459.696559 182.556364 460.474844 182.778182 461.236160 183.000000 461.980575 183.221818 462.708158 183.443636 463.418976 183.665455 464.113099 183.887273 464.790595 184.109091 465.451533 184.330909 466.095980 184.552727 466.724006 184.774545 467.335679 184.996364 467.931067 185.218182 468.510239 185.440000 469.073263 185.661818 469.620208 185.883636 470.151143 186.105455 470.666135 186.327273 471.165254 186.549091 471.648568 186.770909 472.116144 186.992727 472.568053 187.214545 473.004361 187.436364 473.425139 187.658182 473.830453 187.880000 474.220374 188.101818 474.594968 188.323636 474.954305 188.545455 475.298453 188.767273 475.627481 188.989091 475.941457 189.210909 476.240449 189.432727 476.524527 189.654545 476.793758 189.876364 477.048211 190.098182 477.287954 190.320000 477.513057 190.541818 477.723586 190.763636 477.919612 190.985455 478.101203 191.207273 478.268426 191.429091 478.421350 191.650909 478.560045 191.872727 478.684578 192.094545 478.795017 192.316364 478.891432 192.538182 478.973891 192.760000 479.042462 192.981818 479.097214 193.203636 479.138215 193.425455 479.165533 193.647273 479.179238 193.869091 479.179398 194.090909 479.166081 194.312727 479.139355 194.534545 479.099290 194.756364 479.045953 194.978182 478.979414 195.200000 478.899740 195.421818 478.807000 195.643636 478.701262 195.865455 478.582596 196.087273 478.451069 196.309091 478.306750 196.530909 478.149707 196.752727 477.980010 196.974545 477.797726 197.196364 477.602924 197.418182 477.395672 197.640000 477.176040 197.861818 476.944094 198.083636 476.699905 198.305455 476.443539 198.527273 476.175067 198.749091 475.894556 198.970909 475.602075 199.192727 475.297692 199.414545 474.981475 199.636364 474.653494 199.858182 474.313817 200.080000 473.962512 200.301818 473.599647 200.523636 473.225292 200.745455 472.839515 200.967273 472.442383 201.189091 472.033966 201.410909 471.614332 201.632727 471.183550 201.854545 470.741688 202.076364 470.288814 202.298182 469.824998 202.520000 469.350307 202.741818 468.864809 202.963636 468.368575 203.185455 467.861671 203.407273 467.344167 203.629091 466.816130 203.850909 466.277630 204.072727 465.728735 204.294545 465.169514 204.516364 464.600034 204.738182 464.020364 204.960000 463.430573 205.181818 462.830730 205.403636 462.220902 205.625455 461.601159 205.847273 460.971568 206.069091 460.332199 206.290909 459.683119 206.512727 459.024397 206.734545 458.356102 206.956364 457.678303 207.178182 456.991066 207.400000 456.294462 207.621818 455.588559 207.843636 454.873425 208.065455 454.149128 208.287273 453.415737 208.509091 452.673321 208.730909 451.921948 208.952727 451.161686 209.174545 450.392604 209.396364 449.614771 209.618182 448.828255 209.840000 448.033124 210.061818 447.229447 210.283636 446.417292 210.505455 445.596728 210.727273 444.767824 210.949091 443.930647 211.170909 443.085267 211.392727 442.231751 211.614545 441.370169 211.836364 440.500589 212.058182 439.623079 212.280000 438.737707 212.501818 437.844543 212.723636 436.943654 212.945455 436.035110 213.167273 435.118978 213.389091 434.195327 213.610909 433.264226 213.832727 432.325744 214.054545 431.379947 214.276364 430.426906 214.498182 429.466688 214.720000 428.499363 214.941818 427.524997 215.163636 426.543661 215.385455 425.555423 215.607273 424.560350 215.829091 423.558512 216.050909 422.549976 216.272727 421.534812 216.494545 420.513088 216.716364 419.484873 216.938182 418.450234 217.160000 417.409240 217.381818 416.361961 217.603636 415.308463 217.825455 414.248817 218.047273 413.183089 218.269091 412.111350 218.490909 411.033666 218.712727 409.950108 218.934545 408.860742 219.156364 407.765638 219.378182 406.664865 219.600000 405.558490 219.821818 404.446582 220.043636 403.329210 220.265455 402.206442 220.487273 401.078346 220.709091 399.944992 220.930909 398.806447 221.152727 397.662780 221.374545 396.514059 221.596364 395.360354 221.818182 394.201732 222.040000 393.038262 222.261818 391.870012 222.483636 390.697051 222.705455 389.519448 222.927273 388.337270 223.149091 387.150587 223.370909 385.959467 223.592727 384.763978 223.814545 383.564189 224.036364 382.360168 224.258182 381.151984 224.480000 379.939705 224.701818 378.723400 224.923636 377.503137 225.145455 376.278985 225.367273 375.051012 225.589091 373.819287 225.810909 372.583878 226.032727 371.344853 226.254545 370.102282 226.476364 368.856232 226.698182 367.606772 226.920000 366.353971 227.141818 365.097897 227.363636 363.838618 227.585455 362.576203 227.807273 361.310721 228.029091 360.042240 228.250909 358.770828 228.472727 357.496555 228.694545 356.219487 228.916364 354.939695 229.138182 353.657246 229.360000 352.372208 229.581818 351.084651 229.803636 349.794643 230.025455 348.502253 230.247273 347.207548 230.469091 345.910597 230.690909 344.611469 230.912727 343.310232 231.134545 342.006955 231.356364 340.701707 231.578182 339.394555 231.800000 338.085568 232.021818 336.774815 232.243636 335.462363 232.465455 334.148283 232.687273 332.832642 232.909091 331.515508 233.130909 330.196950 233.352727 328.877037 233.574545 327.555837 233.796364 326.233418 234.018182 324.909849 234.240000 323.585197 234.461818 322.259516 234.683636 320.932860 234.905455 319.605282 235.127273 318.276837 235.349091 316.947576 235.570909 315.617554 235.792727 314.286824 236.014545 312.955439 236.236364 311.623452 236.458182 310.290917 236.680000 308.957888 236.901818 307.624416 237.123636 306.290556 237.345455 304.956362 237.567273 303.621885 237.789091 302.287181 238.010909 300.952301 238.232727 299.617300 238.454545 298.282230 238.676364 296.947146 238.898182 295.612100 239.120000 294.277145 239.341818 292.942336 239.563636 291.607725 239.785455 290.273366 240.007273 288.939311 240.229091 287.605615 240.450909 286.272331 240.672727 284.939511 240.894545 283.607210 241.116364 282.275480 241.338182 280.944376 241.560000 279.613949 241.781818 278.284255 242.003636 276.955345 242.225455 275.627273 242.447273 274.300093 242.669091 272.973858 242.890909 271.648621 243.112727 270.324436 243.334545 269.001356 243.556364 267.679434 243.778182 266.358723 244.000000 265.039278 244.221818 263.721150 244.443636 262.404394 244.665455 261.089063 244.887273 259.775211 245.109091 258.462889 245.330909 257.152153 245.552727 255.843054 245.774545 254.535648 245.996364 253.229986 246.218182 251.926122 246.440000 250.624110 246.661818 249.324002 246.883636 248.025853 247.105455 246.729715 247.327273 245.435642 247.549091 244.143687 247.770909 242.853903 247.992727 241.566345 248.214545 240.281064 248.436364 238.998115 248.658182 237.717550 248.880000 236.439424 249.101818 235.163789 249.323636 233.890699 249.545455 232.620207 249.767273 231.352366 249.989091 230.087230 250.210909 228.824852 250.432727 227.565285 250.654545 226.308584 250.876364 225.054800 251.098182 223.803987 251.320000 222.556199 251.541818 221.311490 251.763636 220.069911 251.985455 218.831518 252.207273 217.596362 252.429091 216.364497 252.650909 215.135978 252.872727 213.910856 253.094545 212.689185 253.316364 211.471020 253.538182 210.256412 253.760000 209.045415 253.981818 207.838083 254.203636 206.634469 254.425455 205.434626 254.647273 204.238608 254.869091 203.046468 255.090909 201.858259 255.312727 200.674035 255.534545 199.493848 255.756364 198.317753 255.978182 197.145802 256.200000 195.978050 256.421818 194.814548 256.643636 193.655351 256.865455 192.500512 257.087273 191.350084 257.309091 190.204121 257.530909 189.062675 257.752727 187.925801 257.974545 186.793551 258.196364 185.665979 258.418182 184.543138 258.640000 183.425082 258.861818 182.311864 259.083636 181.203536 259.305455 180.100153 259.527273 179.001768 259.749091 177.908435 259.970909 176.820205 260.192727 175.737133 260.414545 174.659273 260.636364 173.586677 260.858182 172.519398 261.080000 171.457491 261.301818 170.401008 261.523636 169.350003 261.745455 168.304529 261.967273 167.264640 262.189091 166.230388 262.410909 165.201827 262.632727 164.179011 262.854545 163.161992 263.076364 162.150825 263.298182 161.145561 263.520000 160.146256 263.741818 159.152961 263.963636 158.165731 264.185455 157.184619 264.407273 156.209677 264.629091 155.240960 264.850909 154.278521 265.072727 153.322412 265.294545 152.372688 265.516364 151.429401 265.738182 150.492606 265.960000 149.562355 266.181818 148.638701 266.403636 147.721699 266.625455 146.811400 266.847273 145.907859 267.069091 145.011130 267.290909 144.121264 267.512727 143.238316 267.734545 142.362339 267.956364 141.493386 268.178182 140.631511 268.400000 139.776767 268.621818 138.929207 268.843636 138.088884 269.065455 137.255853 269.287273 136.430165 269.509091 135.611876 269.730909 134.801037 269.952727 133.997702 270.174545 133.201925 270.396364 132.413758 270.618182 131.633256 270.840000 130.860471 271.061818 130.095457 271.283636 129.338268 271.505455 128.588955 271.727273 127.847574 271.949091 127.114177 272.170909 126.388817 272.392727 125.671548 272.614545 124.962423 272.836364 124.261496 273.058182 123.568819 273.280000 122.884447 273.501818 122.208431 273.723636 121.540827 273.945455 120.881687 274.167273 120.231064 274.389091 119.589012 274.610909 118.955584 274.832727 118.330833 275.054545 117.714814 275.276364 117.107578 275.498182 116.509179 275.720000 115.919672 275.941818 115.339108 276.163636 114.767542 276.385455 114.205026 276.607273 113.651614 276.829091 113.107360 277.050909 112.572317 277.272727 112.046537 277.494545 111.530075 277.716364 111.022983 277.938182 110.525316 278.160000 110.037125 278.381818 109.558466 278.603636 109.089390 278.825455 108.629952 279.047273 108.180204 279.269091 107.740200 279.490909 107.309994 279.712727 106.889638 279.934545 106.479186 280.156364 106.078691 280.378182 105.688207 280.600000 105.307787 280.821818 104.937484 281.043636 104.577351 281.265455 104.227443 281.487273 103.887811 281.709091 103.558511 281.930909 103.239594 282.152727 102.931114 282.374545 102.633125 282.596364 102.345680 282.818182 102.068832 283.040000 101.802634 283.261818 101.547141 283.483636 101.302404 283.705455 101.068478 283.927273 100.845416 284.149091 100.633271 284.370909 100.432096 284.592727 100.241946 284.814545 100.062872 285.036364 99.894929 285.258182 99.738169 285.480000 99.592647 285.701818 99.458415 285.923636 99.335527 286.145455 99.224037 286.367273 99.123996 286.589091 99.035459 286.810909 98.958480 287.032727 98.893110 287.254545 98.839405 287.476364 98.797417 287.698182 98.767199 287.920000 98.748804 288.141818 98.742287 288.363636 98.747700 288.585455 98.765097 288.807273 98.794531 289.029091 98.836055 289.250909 98.889723 289.472727 98.955588 289.694545 99.033678 289.916364 99.123922 290.138182 99.226224 290.360000 99.340487 290.581818 99.466614 290.803636 99.604509 291.025455 99.754076 291.247273 99.915218 291.469091 100.087839 291.690909 100.271843 291.912727 100.467132 292.134545 100.673610 292.356364 100.891182 292.578182 101.119750 292.800000 101.359218 293.021818 101.609490 293.243636 101.870469 293.465455 102.142059 293.687273 102.424163 293.909091 102.716685 294.130909 103.019529 294.352727 103.332597 294.574545 103.655794 294.796364 103.989023 295.018182 104.332187 295.240000 104.685191 295.461818 105.047938 295.683636 105.420330 295.905455 105.802273 296.127273 106.193669 296.349091 106.594422 296.570909 107.004436 296.792727 107.423613 297.014545 107.851858 297.236364 108.289075 297.458182 108.735166 297.680000 109.190035 297.901818 109.653586 298.123636 110.125723 298.345455 110.606348 298.567273 111.095366 298.789091 111.592680 299.010909 112.098194 299.232727 112.611811 299.454545 113.133434 299.676364 113.662968 299.898182 114.200315 300.120000 114.745380 300.341818 115.298066 300.563636 115.858276 300.785455 116.425915 301.007273 117.000885 301.229091 117.583090 301.450909 118.172433 301.672727 118.768819 301.894545 119.372151 302.116364 119.982332 302.338182 120.599266 302.560000 121.222857 302.781818 121.853007 303.003636 122.489621 303.225455 123.132602 303.447273 123.781854 303.669091 124.437280 303.890909 125.098784 304.112727 125.766269 304.334545 126.439639 304.556364 127.118797 304.778182 127.803648 305.000000 128.494094 305.221818 129.190039 305.443636 129.891387 305.665455 130.598041 305.887273 131.309904 306.109091 132.026881 306.330909 132.748875 306.552727 133.475789 306.774545 134.207528 306.996364 134.943994 307.218182 135.685090 307.440000 136.430722 307.661818 137.180792 307.883636 137.935203 308.105455 138.693860 308.327273 139.456665 308.549091 140.223523 308.770909 140.994337 308.992727 141.769011 309.214545 142.547447 309.436364 143.329551 309.658182 144.115224 309.880000 144.904371 310.101818 145.696895 310.323636 146.492700 310.545455 147.291690 310.767273 148.093767 310.989091 148.898836 311.210909 149.706800 311.432727 150.517563 311.654545 151.331028 311.876364 152.147098 312.098182 152.965678 312.320000 153.786671 312.541818 154.609980 312.763636 155.435509 312.985455 156.263161 313.207273 157.092840 313.429091 157.924450 313.650909 158.757894 313.872727 159.593076 314.094545 160.429899 314.316364 161.268267 314.538182 162.108083 314.760000 162.949251 314.981818 163.791675 315.203636 164.635257 315.425455 165.479903 315.647273 166.325514 315.869091 167.171995 316.090909 168.019249 316.312727 168.867180 316.534545 169.715691 316.756364 170.564686 316.978182 171.414069 317.200000 172.263742 317.421818 173.113611 317.643636 173.963577 317.865455 174.813545 318.087273 175.663418 318.309091 176.513100 318.530909 177.362494 318.752727 178.211504 318.974545 179.060034 319.196364 179.907986 319.418182 180.755265 319.640000 181.601774 319.861818 182.447417 320.083636 183.292097 320.305455 184.135718 320.527273 184.978183 320.749091 185.819396 320.970909 186.659260 321.192727 187.497679 321.414545 188.334557 321.636364 189.169797 321.858182 190.003302 322.080000 190.834977 322.301818 191.664724 322.523636 192.492448 322.745455 193.318051 322.967273 194.141438 323.189091 194.962512 323.410909 195.781176 323.632727 196.597335 323.854545 197.410890 324.076364 198.221748 324.298182 199.029809 324.520000 199.834980 324.741818 200.637162 324.963636 201.436259 325.185455 202.232175 325.407273 203.024814 325.629091 203.814079 325.850909 204.599873 326.072727 205.382100 326.294545 206.160665 326.516364 206.935469 326.738182 207.706417 326.960000 208.473413 327.181818 209.236359 327.403636 209.995160 327.625455 210.749719 327.847273 211.499940 328.069091 212.245726 328.290909 212.986980 328.512727 213.723607 328.734545 214.455509 328.956364 215.182591 329.178182 215.904755 329.400000 216.621907 329.621818 217.333948 329.843636 218.040782 330.065455 218.742314 330.287273 219.438446 330.509091 220.129083 330.730909 220.814128 330.952727 221.493483 331.174545 222.167054 331.396364 222.834743 331.618182 223.496454 331.840000 224.152091 332.061818 224.801556 332.283636 225.444754 332.505455 226.081589 332.727273 226.711963 332.949091 227.335781 333.170909 227.952945 333.392727 228.563360 333.614545 229.166929 333.836364 229.763555 334.058182 230.353143 334.280000 230.935595 334.501818 231.510815 334.723636 232.078707 334.945455 232.639174 335.167273 233.192120 335.389091 233.737449 335.610909 234.275063 335.832727 234.804867 336.054545 235.326764 336.276364 235.840658 336.498182 236.346452 336.720000 236.844049 336.941818 237.333354 337.163636 237.814269 337.385455 238.286699 337.607273 238.750547 337.829091 239.205717 338.050909 239.652111 338.272727 240.089634 338.494545 240.518190 338.716364 240.937680 338.938182 241.348011 339.160000 241.749084 339.381818 242.140803 339.603636 242.523072 339.825455 242.895795 340.047273 243.258875 340.269091 243.612215 340.490909 243.955719 340.712727 244.289292 340.934545 244.612835 341.156364 244.926253 341.378182 245.229450 341.600000 245.522328 341.821818 245.804792 342.043636 246.076745 342.265455 246.338090 342.487273 246.588732 342.709091 246.828573 342.930909 247.057518 343.152727 247.275469 343.374545 247.482330 343.596364 247.678006 343.818182 247.862399 344.040000 248.035413 344.261818 248.196951 344.483636 248.346918 344.705455 248.485216 344.927273 248.611749 345.149091 248.726452 345.370909 248.829377 345.592727 248.920611 345.814545 249.000237 346.036364 249.068341 346.258182 249.125006 346.480000 249.170318 346.701818 249.204361 346.923636 249.227219 347.145455 249.238978 347.367273 249.239722 347.589091 249.229535 347.810909 249.208503 348.032727 249.176709 348.254545 249.134239 348.476364 249.081177 348.698182 249.017607 348.920000 248.943614 349.141818 248.859284 349.363636 248.764700 349.585455 248.659947 349.807273 248.545109 350.029091 248.420272 350.250909 248.285520 350.472727 248.140937 350.694545 247.986609 350.916364 247.822620 351.138182 247.649053 351.360000 247.465995 351.581818 247.273530 351.803636 247.071741 352.025455 246.860715 352.247273 246.640535 352.469091 246.411286 352.690909 246.173053 352.912727 245.925920 353.134545 245.669972 353.356364 245.405294 353.578182 245.131970 353.800000 244.850085 354.021818 244.559723 354.243636 244.260969 354.465455 243.953908 354.687273 243.638624 354.909091 243.315202 355.130909 242.983726 355.352727 242.644281 355.574545 242.296953 355.796364 241.941824 356.018182 241.578981 356.240000 241.208507 356.461818 240.830487 356.683636 240.445006 356.905455 240.052149 357.127273 239.652000 357.349091 239.244643 357.570909 238.830163 357.792727 238.408646 358.014545 237.980175 358.236364 237.544835 358.458182 237.102711 358.680000 236.653887 358.901818 236.198448 359.123636 235.736479 359.345455 235.268063 359.567273 234.793287 359.789091 234.312234 360.010909 233.824990 360.232727 233.331637 360.454545 232.832263 360.676364 232.326950 360.898182 231.815783 361.120000 231.298848 361.341818 230.776229 361.563636 230.248009 361.785455 229.714275 362.007273 229.175111 362.229091 228.630600 362.450909 228.080829 362.672727 227.525881 362.894545 226.965841 363.116364 226.400794 363.338182 225.830824 363.560000 225.256016 363.781818 224.676454 364.003636 224.092224 364.225455 223.503409 364.447273 222.910095 364.669091 222.312366 364.890909 221.710306 365.112727 221.104000 365.334545 220.493534 365.556364 219.878991 365.778182 219.260456 366.000000 218.638013 366.221818 218.011748 366.443636 217.381745 366.665455 216.748089 366.887273 216.110863 367.109091 215.470154 367.330909 214.826045 367.552727 214.178620 367.774545 213.527966 367.996364 212.874165 368.218182 212.217304 368.440000 211.557466 368.661818 210.894736 368.883636 210.229199 369.105455 209.560939 369.327273 208.890041 369.549091 208.216590 369.770909 207.540670 369.992727 206.862365 370.214545 206.181761 370.436364 205.498942 370.658182 204.813993 370.880000 204.126998 371.101818 203.438041 371.323636 202.747209 371.545455 202.054584 371.767273 201.360252 371.989091 200.664298 372.210909 199.966805 372.432727 199.267859 372.654545 198.567544 372.876364 197.865945 373.098182 197.163146 373.320000 196.459233 373.541818 195.754289 373.763636 195.048399 373.985455 194.341648 374.207273 193.634121 374.429091 192.925902 374.650909 192.217075 374.872727 191.507726 375.094545 190.797939 375.316364 190.087799 375.538182 189.377389 375.760000 188.666796 375.981818 187.956103 376.203636 187.245394 376.425455 186.534756 376.647273 185.824272 376.869091 185.114027 377.090909 184.404105 377.312727 183.694591 377.534545 182.985571 377.756364 182.277127 377.978182 181.569346 378.200000 180.862311 378.421818 180.156107 378.643636 179.450819 378.865455 178.746532 379.087273 178.043329 379.309091 177.341297 379.530909 176.640518 379.752727 175.941079 379.974545 175.243063 380.196364 174.546555 380.418182 173.851640 380.640000 173.158402 380.861818 172.466926 381.083636 171.777297 381.305455 171.089599 381.527273 170.403917 381.749091 169.720336 381.970909 169.038939 382.192727 168.359812 382.414545 167.683040 382.636364 167.008706 382.858182 166.336896 383.080000 165.667694 383.301818 165.001185 383.523636 164.337454 383.745455 163.676584 383.967273 163.018661 384.189091 162.363769 384.410909 161.711993 384.632727 161.063417 384.854545 160.418127 385.076364 159.776206 385.298182 159.137739 385.520000 158.502812 385.741818 157.871508 385.963636 157.243912 386.185455 156.620109 386.407273 156.000183 386.629091 155.384220 386.850909 154.772303 387.072727 154.164517 387.294545 153.560947 387.516364 152.961678 387.738182 152.366793 387.960000 151.776379 388.181818 151.190519 388.403636 150.609297 388.625455 150.032800 388.847273 149.461110 389.069091 148.894313 389.290909 148.332494 389.512727 147.775737 389.734545 147.224126 389.956364 146.677746 390.178182 146.136683 390.400000 145.601020 390.621818 145.070842 390.843636 144.546234 391.065455 144.027280 391.287273 143.514065 391.509091 143.006673 391.730909 142.505190 391.952727 142.009700 392.174545 141.520287 392.396364 141.037036 392.618182 140.560032 392.840000 140.089359 393.061818 139.625102 393.283636 139.167345 393.505455 138.716174 393.727273 138.271672 393.949091 137.833925 394.170909 137.403016 394.392727 136.979032 394.614545 136.562055 394.836364 136.152171 395.058182 135.749465 395.280000 135.354021 395.501818 134.965923 395.723636 134.585257 395.945455 134.212106 396.167273 133.846556 396.389091 133.488691 396.610909 133.138596 396.832727 132.796356 397.054545 132.462054 397.276364 132.135776 397.498182 131.817606 397.720000 131.507629 397.941818 131.205930 398.163636 130.912592 398.385455 130.627701 398.607273 130.351342 398.829091 130.083598 399.050909 129.824555 399.272727 129.574297 399.494545 129.332909 399.716364 129.100475 399.938182 128.877080 400.160000 128.662809 400.381818 128.457746 400.603636 128.261950 400.825455 128.075376 401.047273 127.897955 401.269091 127.729614 401.490909 127.570284 401.712727 127.419895 401.934545 127.278375 402.156364 127.145655 402.378182 127.021663 402.600000 126.906330 402.821818 126.799584 403.043636 126.701356 403.265455 126.611574 403.487273 126.530168 403.709091 126.457068 403.930909 126.392204 404.152727 126.335504 404.374545 126.286898 404.596364 126.246315 404.818182 126.213686 405.040000 126.188940 405.261818 126.172005 405.483636 126.162812 405.705455 126.161290 405.927273 126.167369 406.149091 126.180978 406.370909 126.202046 406.592727 126.230504 406.814545 126.266280 407.036364 126.309303 407.258182 126.359505 407.480000 126.416813 407.701818 126.481158 407.923636 126.552469 408.145455 126.630675 408.367273 126.715706 408.589091 126.807492 408.810909 126.905961 409.032727 127.011044 409.254545 127.122670 409.476364 127.240768 409.698182 127.365268 409.920000 127.496099 410.141818 127.633191 410.363636 127.776474 410.585455 127.925876 410.807273 128.081328 411.029091 128.242758 411.250909 128.410097 411.472727 128.583273 411.694545 128.762217 411.916364 128.946857 412.138182 129.137124 412.360000 129.332947 412.581818 129.534254 412.803636 129.740976 413.025455 129.953043 413.247273 130.170383 413.469091 130.392926 413.690909 130.620602 413.912727 130.853340 414.134545 131.091070 414.356364 131.333721 414.578182 131.581222 414.800000 131.833504 415.021818 132.090495 415.243636 132.352125 415.465455 132.618324 415.687273 132.889021 415.909091 133.164145 416.130909 133.443626 416.352727 133.727394 416.574545 134.015378 416.796364 134.307507 417.018182 134.603712 417.240000 134.903920 417.461818 135.208063 417.683636 135.516069 417.905455 135.827868 418.127273 136.143390 418.349091 136.462563 418.570909 136.785318 418.792727 137.111583 419.014545 137.441289 419.236364 137.774365 419.458182 138.110740 419.680000 138.450344 419.901818 138.793107 420.123636 139.138957 420.345455 139.487824 420.567273 139.839638 420.789091 140.194329 421.010909 140.551825 421.232727 140.912056 421.454545 141.274953 421.676364 141.640443 421.898182 142.008457 422.120000 142.378925 422.341818 142.751775 422.563636 143.126937 422.785455 143.504341 423.007273 143.883916 423.229091 144.265591 423.450909 144.649297 423.672727 145.034963 423.894545 145.422517 424.116364 145.811890 424.338182 146.203012 424.560000 146.595810 424.781818 146.990216 425.003636 147.386159 425.225455 147.783567 425.447273 148.182371 425.669091 148.582500 425.890909 148.983883 426.112727 149.386451 426.334545 149.790132 426.556364 150.194855 426.778182 150.600552 427.000000 151.007150 427.221818 151.414580 427.443636 151.822770 427.665455 152.231651 427.887273 152.641152 428.109091 153.051203 428.330909 153.461732 428.552727 153.872669 428.774545 154.283945 428.996364 154.695487 429.218182 155.107227 429.440000 155.519093 429.661818 155.931014 429.883636 156.342921 430.105455 156.754743 430.327273 157.166409 430.549091 157.577848 430.770909 157.988991 430.992727 158.399767 431.214545 158.810105 431.436364 159.219934 431.658182 159.629185 431.880000 160.037787 432.101818 160.445668 432.323636 160.852760 432.545455 161.258990 432.767273 161.664289 432.989091 162.068586 433.210909 162.471811 433.432727 162.873893 433.654545 163.274761 433.876364 163.674346 434.098182 164.072576 434.320000 164.469381 434.541818 164.864691 434.763636 165.258435 434.985455 165.650542 435.207273 166.040942 435.429091 166.429565 435.650909 166.816340 435.872727 167.201196 436.094545 167.584063 436.316364 167.964871 436.538182 168.343548 436.760000 168.720025 436.981818 169.094231 437.203636 169.466095 437.425455 169.835547 437.647273 170.202517 437.869091 170.566933 438.090909 170.928726 438.312727 171.287825 438.534545 171.644158 438.756364 171.997657 438.978182 172.348250 439.200000 172.695867 439.421818 173.040437 439.643636 173.381890 439.865455 173.720155 440.087273 174.055162 440.309091 174.386840 440.530909 174.715119 440.752727 175.039928 440.974545 175.361196 441.196364 175.678854 441.418182 175.992831 441.640000 176.303056 441.861818 176.609458 442.083636 176.911967 442.305455 177.210514 442.527273 177.505026 442.749091 177.795434 442.970909 178.081667 443.192727 178.363654 443.414545 178.641326 443.636364 178.914611 443.858182 179.183439 444.080000 179.447740 444.301818 179.707442 444.523636 179.962477 444.745455 180.212772 444.967273 180.458258 445.189091 180.698863 445.410909 180.934519 445.632727 181.165153 445.854545 181.390695 446.076364 181.611076 446.298182 181.826224 446.520000 182.036068 446.741818 182.240540 446.963636 182.439567 447.185455 182.633079 447.407273 182.821006 447.629091 183.003278 447.850909 183.179823 448.072727 183.350572 448.294545 183.515454 448.516364 183.674398 448.738182 183.827333 448.960000 183.974190 449.181818 184.114898 449.403636 184.249386 449.625455 184.377583 449.847273 184.499420 450.069091 184.614826 450.290909 184.723730 450.512727 184.826061 450.734545 184.921750 450.956364 185.010725 451.178182 185.092917 451.400000 185.168254 451.621818 185.236666 451.843636 185.298083 452.065455 185.352434 452.287273 185.399649 452.509091 185.439656 452.730909 185.472386 452.952727 185.497769 453.174545 185.515733 453.396364 185.526207 453.618182 185.529123 453.840000 185.524408 454.061818 185.511993 454.283636 185.491807 454.505455 185.463779 454.727273 185.427840 454.949091 185.383918 455.170909 185.331942 455.392727 185.271844 455.614545 185.203551 455.836364 185.126993 456.058182 185.042121 456.280000 184.948967 456.501818 184.847584 456.723636 184.738024 456.945455 184.620342 457.167273 184.494589 457.389091 184.360820 457.610909 184.219086 457.832727 184.069441 458.054545 183.911938 458.276364 183.746630 458.498182 183.573569 458.720000 183.392810 458.941818 183.204404 459.163636 183.008406 459.385455 182.804867 459.607273 182.593841 459.829091 182.375381 460.050909 182.149540 460.272727 181.916370 460.494545 181.675926 460.716364 181.428259 460.938182 181.173424 461.160000 180.911472 461.381818 180.642457 461.603636 180.366432 461.825455 180.083449 462.047273 179.793563 462.269091 179.496825 462.490909 179.193289 462.712727 178.883008 462.934545 178.566035 463.156364 178.242423 463.378182 177.912225 463.600000 177.575493 463.821818 177.232281 464.043636 176.882643 464.265455 176.526630 464.487273 176.164295 464.709091 175.795693 464.930909 175.420875 465.152727 175.039896 465.374545 174.652807 465.596364 174.259662 465.818182 173.860514 466.040000 173.455415 466.261818 173.044420 466.483636 172.627580 466.705455 172.204949 466.927273 171.776580 467.149091 171.342526 467.370909 170.902839 467.592727 170.457573 467.814545 170.006782 468.036364 169.550516 468.258182 169.088831 468.480000 168.621779 468.701818 168.149412 468.923636 167.671784 469.145455 167.188948 469.367273 166.700957 469.589091 166.207864 469.810909 165.709721 470.032727 165.206582 470.254545 164.698500 470.476364 164.185528 470.698182 163.667719 470.920000 163.145125 471.141818 162.617800 471.363636 162.085797 471.585455 161.549169 471.807273 161.007968 472.029091 160.462248 472.250909 159.912062 472.472727 159.357463 472.694545 158.798504 472.916364 158.235237 473.138182 157.667716 473.360000 157.095994 473.581818 156.520124 473.803636 155.940158 474.025455 155.356151 474.247273 154.768154 474.469091 154.176220 474.690909 153.580404 474.912727 152.980757 475.134545 152.377333 475.356364 151.770185 475.578182 151.159366 475.800000 150.544928 476.021818 149.926925 476.243636 149.305410 476.465455 148.680436 476.687273 148.052055 476.909091 147.420321 477.130909 146.785287 477.352727 146.147005 477.574545 145.505530 477.796364 144.860913 478.018182 144.213208 478.240000 143.562467 478.461818 142.908744 478.683636 142.252092 478.905455 141.592564 479.127273 140.930213 479.349091 140.265091 479.570909 139.597252 479.792727 138.926748 480.014545 138.253634 480.236364 137.577961 480.458182 136.899783 480.680000 136.219152 480.901818 135.536123 481.123636 134.850747 481.345455 134.163077 481.567273 133.473168 481.789091 132.781071 482.010909 132.086840 482.232727 131.390527 482.454545 130.692187 482.676364 129.991871 482.898182 129.289632 483.120000 128.585525 483.341818 127.879601 483.563636 127.171913 483.785455 126.462516 484.007273 125.751461 484.229091 125.038802 484.450909 124.324592 484.672727 123.608883 484.894545 122.891729 485.116364 122.173183 485.338182 121.453297 485.560000 120.732125 485.781818 120.009720 486.003636 119.286134 486.225455 118.561421 486.447273 117.835634 486.669091 117.108825 486.890909 116.381048 487.112727 115.652356 487.334545 114.922802 487.556364 114.192438 487.778182 113.461318 488.000000 112.729494 488.221818 111.997020 488.443636 111.263949 488.665455 110.530334 488.887273 109.796227 489.109091 109.061682 489.330909 108.326751 489.552727 107.591488 489.774545 106.855946 489.996364 106.120178 490.218182 105.384236 490.440000 104.648173 490.661818 103.912044 490.883636 103.175900 491.105455 102.439795 491.327273 101.703781 491.549091 100.967912 491.770909 100.232241 491.992727 99.496820 492.214545 98.761703 492.436364 98.026942 492.658182 97.292592 492.880000 96.558703 493.101818 95.825331 493.323636 95.092527 493.545455 94.360345 493.767273 93.628837 493.989091 92.898057 494.210909 92.168058 494.432727 91.438892 494.654545 90.710613 494.876364 89.983273 495.098182 89.256926 495.320000 88.531625 495.541818 87.807423 495.763636 87.084372 495.985455 86.362525 496.207273 85.641936 496.429091 84.922658 496.650909 84.204744 496.872727 83.488246 497.094545 82.773217 497.316364 82.059711 497.538182 81.347781 497.760000 80.637480 497.981818 79.928860 498.203636 79.221974 498.425455 78.516877 498.647273 77.813619 498.869091 77.112256 499.090909 76.412839 499.312727 75.715421 499.534545 75.020057 499.756364 74.326797 499.978182 73.635697 500.200000 72.946808 500.421818 72.260183 500.643636 71.575876 500.865455 70.893940 501.087273 70.214427 501.309091 69.537391 501.530909 68.862885 501.752727 68.190961 501.974545 67.521672 502.196364 66.855072 502.418182 66.191214 502.640000 65.530150 502.861818 64.871934 503.083636 64.216619 503.305455 63.564257 503.527273 62.914901 503.749091 62.268605 503.970909 61.625422 504.192727 60.985404 504.414545 60.348605 504.636364 59.715077 504.858182 59.084874 505.080000 58.458048 505.301818 57.834653 505.523636 57.214742 505.745455 56.598367 505.967273 55.985582 506.189091 55.376439 506.410909 54.770991 506.632727 54.169293 506.854545 53.571395 507.076364 52.977353 507.298182 52.387218 507.520000 51.801043 507.741818 51.218882 507.963636 50.640787 508.185455 50.066812 508.407273 49.497010 508.629091 48.931433 508.850909 48.370134 509.072727 47.813167 509.294545 47.260585 509.516364 46.712440 509.738182 46.168786 509.960000 45.629675 510.181818 45.095160 510.403636 44.565295 510.625455 44.040133 510.847273 43.519726 511.069091 43.004128 511.290909 42.493391 511.512727 41.987557 511.734545 41.486616 511.956364 40.990548 512.178182 40.499333 512.400000 40.012949 512.621818 39.531376 512.843636 39.054594 513.065455 38.582581 513.287273 38.115317 513.509091 37.652781 513.730909 37.194952 513.952727 36.741811 514.174545 36.293335 514.396364 35.849504 514.618182 35.410298 514.840000 34.975696 515.061818 34.545677 515.283636 34.120220 515.505455 33.699306 515.727273 33.282912 515.949091 32.871018 516.170909 32.463604 516.392727 32.060649 516.614545 31.662133 516.836364 31.268033 517.058182 30.878331 517.280000 30.493004 517.501818 30.112033 517.723636 29.735397 517.945455 29.363074 518.167273 28.995045 518.389091 28.631288 518.610909 28.271783 518.832727 27.916509 519.054545 27.565445 519.276364 27.218571 519.498182 26.875867 519.720000 26.537310 519.941818 26.202881 520.163636 25.872558 520.385455 25.546322 520.607273 25.224151 520.829091 24.906025 521.050909 24.591923 521.272727 24.281825 521.494545 23.975708 521.716364 23.673554 521.938182 23.375341 522.160000 23.081048 522.381818 22.790655 522.603636 22.504141 522.825455 22.221486 523.047273 21.942668 523.269091 21.667666 523.490909 21.396461 523.712727 21.129032 523.934545 20.865357 524.156364 20.605417 524.378182 20.349189 524.600000 20.096655 524.821818 19.847792 525.043636 19.602581 525.265455 19.361000 525.487273 19.123029 525.709091 18.888647 525.930909 18.657833 526.152727 18.430567 526.374545 18.206828 526.596364 17.986595 526.818182 17.769848 527.040000 17.556566 527.261818 17.346727 527.483636 17.140313 527.705455 16.937301 527.927273 16.737670 528.149091 16.541402 528.370909 16.348473 528.592727 16.158865 528.814545 15.972556 529.036364 15.789525 529.258182 15.609752 529.480000 15.433216 529.701818 15.259897 529.923636 15.089773 530.145455 14.922823 530.367273 14.759029 530.589091 14.598367 530.810909 14.440818 531.032727 14.286362 531.254545 14.134977 531.476364 13.986642 531.698182 13.841337 531.920000 13.699042 532.141818 13.559735 532.363636 13.423396 532.585455 13.290004 532.807273 13.159539 533.029091 13.031979 533.250909 12.907304 533.472727 12.785493 533.694545 12.666526 533.916364 12.550382 534.138182 12.437040 534.360000 12.326479 534.581818 12.218679 534.803636 12.113619 535.025455 12.011278 535.247273 11.911636 535.469091 11.814672 535.690909 11.720365 535.912727 11.628694 536.134545 11.539640 536.356364 11.453180 536.578182 11.369294 536.800000 11.287962 537.021818 11.209163 537.243636 11.132877 537.465455 11.059082 537.687273 10.987757 537.909091 10.918883 538.130909 10.852438 538.352727 10.788401 538.574545 10.726753 538.796364 10.667472 539.018182 10.610537 539.240000 10.555928 539.461818 10.503624 539.683636 10.453605 539.905455 10.405849 540.127273 10.360337 540.349091 10.317046 540.570909 10.275958 540.792727 10.237050 541.014545 10.200302 541.236364 10.165693 541.458182 10.133204 541.680000 10.102812 541.901818 10.074497 542.123636 10.048240 542.345455 10.024018 542.567273 10.001811 542.789091 9.981599 543.010909 9.963360 543.232727 9.947075 543.454545 9.932722 543.676364 9.920280 543.898182 9.909729 544.120000 9.901049 544.341818 9.894218 544.563636 9.889216 544.785455 9.886022 545.007273 9.884615 545.229091 9.884975 545.450909 9.887081 545.672727 9.890913 545.894545 9.896448 546.116364 9.903668 546.338182 9.912550 546.560000 9.923075 546.781818 9.935222 547.003636 9.948970 547.225455 9.964298 547.447273 9.981186 547.669091 9.999612 547.890909 10.019557 548.112727 10.040999 548.334545 10.063917 548.556364 10.088292 548.778182 10.114102 549.000000 10.141327 549.221818 10.169945 549.443636 10.199937 549.665455 10.231281 549.887273 10.263957 550.109091 10.297944 550.330909 10.333222 550.552727 10.369768 550.774545 10.407564 550.996364 10.446588 551.218182 10.486820 551.440000 10.528238 551.661818 10.570823 551.883636 10.614553 552.105455 10.659407 552.327273 10.705366 552.549091 10.752408 552.770909 10.800512 552.992727 10.849658 553.214545 10.899825 553.436364 10.950993 553.658182 11.003140 553.880000 11.056246 554.101818 11.110291 554.323636 11.165253 554.545455 11.221112 554.767273 11.277847 554.989091 11.335438 555.210909 11.393863 555.432727 11.453103 555.654545 11.513135 555.876364 11.573940 556.098182 11.635498 556.320000 11.697786 556.541818 11.760785 556.763636 11.824473 556.985455 11.888831 557.207273 11.953837 557.429091 12.019471 557.650909 12.085711 557.872727 12.152538 558.094545 12.219930 558.316364 12.287867 558.538182 12.356328 558.760000 12.425293 558.981818 12.494740 559.203636 12.564649 559.425455 12.635000 559.647273 12.705771 559.869091 12.776941 560.090909 12.848491 560.312727 12.920400 560.534545 12.992646 560.756364 13.065209 560.978182 13.138068 561.200000 13.211203 561.421818 13.284593 561.643636 13.358217 561.865455 13.432054 562.087273 13.506084 562.309091 13.580286 562.530909 13.654640 562.752727 13.729124 562.974545 13.803718 563.196364 13.878401 563.418182 13.953152 563.640000 14.027952 563.861818 14.102778 564.083636 14.177611 564.305455 14.252429 564.527273 14.327213 564.749091 14.401940 564.970909 14.476591 565.192727 14.551145 565.414545 14.625581 565.636364 14.699879 565.858182 14.774017 566.080000 14.847975 566.301818 14.921732 566.523636 14.995268 566.745455 15.068561 566.967273 15.141596 567.189091 15.214368 567.410909 15.286880 567.632727 15.359132 567.854545 15.431126 568.076364 15.502862 568.298182 15.574341 568.520000 15.645565 568.741818 15.716534 568.963636 15.787250 569.185455 15.857713 569.407273 15.927926 569.629091 15.997887 569.850909 16.067600 570.072727 16.137065 570.294545 16.206282 570.516364 16.275254 570.738182 16.343980 570.960000 16.412463 571.181818 16.480702 571.403636 16.548700 571.625455 16.616457 571.847273 16.683974 572.069091 16.751253 572.290909 16.818294 572.512727 16.885098 572.734545 16.951667 572.956364 17.018001 573.178182 17.084102 573.400000 17.149971 573.621818 17.215608 573.843636 17.281015 574.065455 17.346192 574.287273 17.411142 574.509091 17.475864 574.730909 17.540361 574.952727 17.604632 575.174545 17.668679 575.396364 17.732504 575.618182 17.796106 575.840000 17.859488 576.061818 17.922650 576.283636 17.985593 576.505455 18.048319 576.727273 18.110828 576.949091 18.173121 577.170909 18.235200 577.392727 18.297065 577.614545 18.358719 577.836364 18.420160 578.058182 18.481392 578.280000 18.542414 578.501818 18.603228 578.723636 18.663835 578.945455 18.724235 579.167273 18.784431 579.389091 18.844423 579.610909 18.904212 579.832727 18.963799 580.054545 19.023185 580.276364 19.082371 580.498182 19.141358 580.720000 19.200148 580.941818 19.258742 581.163636 19.317139 581.385455 19.375342 581.607273 19.433352 581.829091 19.491169 582.050909 19.548795 582.272727 19.606231 582.494545 19.663477 582.716364 19.720535 582.938182 19.777406 583.160000 19.834091 583.381818 19.890590 583.603636 19.946906 583.825455 20.003039 584.047273 20.058990 584.269091 20.114760 584.490909 20.170350 584.712727 20.225761 584.934545 20.280995 585.156364 20.336052 585.378182 20.390934 585.600000 20.445640 585.821818 20.500174 586.043636 20.554535 586.265455 20.608724 586.487273 20.662744 586.709091 20.716594 586.930909 20.770275 587.152727 20.823790 587.374545 20.877138 587.596364 20.930322 587.818182 20.983341 588.040000 21.036197 588.261818 21.088892 588.483636 21.141425 588.705455 21.193799 588.927273 21.246014 589.149091 21.298071 589.370909 21.349971 589.592727 21.401716 589.814545 21.453307 590.036364 21.504743 590.258182 21.556028 590.480000 21.607161 590.701818 21.658143 590.923636 21.708976 591.145455 21.759661 591.367273 21.810199 591.589091 21.860591 591.810909 21.910837 592.032727 21.960940 592.254545 22.010899 592.476364 22.060717 592.698182 22.110393 592.920000 22.159930 593.141818 22.209328 593.363636 22.258588 593.585455 22.307712 593.807273 22.356699 594.029091 22.405553 594.250909 22.454273 594.472727 22.502860 594.694545 22.551316 594.916364 22.599641 595.138182 22.647837 595.360000 22.695905 595.581818 22.743846 595.803636 22.791660 596.025455 22.839349 596.247273 22.886914 596.469091 22.934357 596.690909 22.981677 596.912727 23.028876 597.134545 23.075955 597.356364 23.122916 597.578182 23.169759 597.800000 23.216485 598.021818 23.263095 598.243636 23.309591 598.465455 23.355974 598.687273 23.402243 598.909091 23.448402 599.130909 23.494450 599.352727 23.540388 599.574545 23.586218 599.796364 23.631941 600.018182 23.677558 600.240000 23.723070 600.461818 23.768477 600.683636 23.813782 600.905455 23.858984 601.127273 23.904086 601.349091 23.949088 601.570909 23.993990 601.792727 24.038795 602.014545 24.083504 602.236364 24.128116 602.458182 24.172634 602.680000 24.217059 602.901818 24.261391 603.123636 24.305631 603.345455 24.349781 603.567273 24.393841 603.789091 24.437814 604.010909 24.481699 604.232727 24.525497 604.454545 24.569211 604.676364 24.612841 604.898182 24.656387 605.120000 24.699851 605.341818 24.743235 605.563636 24.786538 605.785455 24.829763 606.007273 24.872910 606.229091 24.915980 606.450909 24.958974 606.672727 25.001894 606.894545 25.044740 607.116364 25.087514 607.338182 25.130216 607.560000 25.172847 607.781818 25.215409 608.003636 25.257903 608.225455 25.300330 608.447273 25.342690 608.669091 25.384985 608.890909 25.427216 609.112727 25.469384 609.334545 25.511490 609.556364 25.553535 609.778182 25.595520 610.000000 25.637446 610.221818 25.679314 610.443636 25.721126 610.665455 25.762881 610.887273 25.804582 611.109091 25.846230 611.330909 25.887825 611.552727 25.929368 611.774545 25.970861 611.996364 26.012304 612.218182 26.053699 612.440000 26.095047 612.661818 26.136348 612.883636 26.177605 613.105455 26.218817 613.327273 26.259986 613.549091 26.301113 613.770909 26.342199 613.992727 26.383245 614.214545 26.424252 614.436364 26.465221 614.658182 26.506153 614.880000 26.547050 615.101818 26.587912 615.323636 26.628740 615.545455 26.669536 615.767273 26.710300 615.989091 26.751034 616.210909 26.791738 616.432727 26.832414 616.654545 26.873062 616.876364 26.913684 617.098182 26.954281 617.320000 26.994854 617.541818 27.035404 617.763636 27.075931 617.985455 27.116438 618.207273 27.156925 618.429091 27.197392 618.650909 27.237842 618.872727 27.278275 619.094545 27.318692 619.316364 27.359095 619.538182 27.399483 619.760000 27.439859 619.981818 27.480224 620.203636 27.520578 620.425455 27.560923 620.647273 27.601259 620.869091 27.641588 621.090909 27.681910 621.312727 27.722228 621.534545 27.762541 621.756364 27.802851 621.978182 27.843158 622.200000 27.883465 622.200000 514.000000" /></g></g><g class="titles"><text class="title plot_title" x="400.0" y="26">2552 summary</text></g><g class="plot overlay" transform="translate(145, 46)"><g class="series serie-0 color-0"><g class="dots"><circle class="dot reactive tooltip-trigger" cx="12.2" cy="348.4059839290994" r="2.5" /><desc class="value">10990138</desc><desc class="x top">12.2</desc><desc class="y top">348.4059839290994</desc><desc class="x_label">Jan</desc></g><g class="dots"><circle class="dot reactive tooltip-trigger" cx="67.65454545454546" cy="468.74422692210413" r="2.5" /><desc class="value">10372901</desc><desc class="x top">67.65454545454546</desc><desc class="y top">468.74422692210413</desc><desc class="x_label">Feb</desc></g><g class="dots"><circle class="dot reactive tooltip-trigger" cx="123.1090909090909" cy="78.86798747026927" r="2.5" /><desc class="value">12372648</desc><desc class="x ">123.1090909090909</desc><desc class="y ">78.86798747026927</desc><desc class="x_label">Mar</desc></g><g class="dots"><circle class="dot reactive tooltip-trigger" cx="178.56363636363636" cy="443.80302808015347" r="2.5" /><desc class="value">10500829</desc><desc class="x top">178.56363636363636</desc><desc class="y top">443.80302808015347</desc><desc class="x_label">Apr</desc></g><g class="dots"><circle class="dot reactive tooltip-trigger" cx="234.01818181818183" cy="324.90984923117145" r="2.5" /><desc class="value">11110654</desc><desc class="x top">234.01818181818183</desc><desc class="y top">324.90984923117145</desc><desc class="x_label">May</desc></g><g class="dots"><circle class="dot reactive tooltip-trigger" cx="289.47272727272724" cy="98.95558784143668" r="2.5" /><desc class="value">12269615</desc><desc class="x ">289.47272727272724</desc><desc class="y ">98.95558784143668</desc><desc class="x_label">Jun</desc></g><g class="dots"><circle class="dot reactive tooltip-trigger" cx="344.9272727272727" cy="248.61174918113647" r="2.5" /><desc class="value">11502001</desc><desc class="x left">344.9272727272727</desc><desc class="y left">248.61174918113647</desc><desc class="x_label">Jul</desc></g><g class="dots"><circle class="dot reactive tooltip-trigger" cx="400.3818181818181" cy="128.4577460176112" r="2.5" /><desc class="value">12118293</desc><desc class="x left">400.3818181818181</desc><desc class="y left">128.4577460176112</desc><desc class="x_label">Aug</desc></g><g class="dots"><circle class="dot reactive tooltip-trigger" cx="455.8363636363636" cy="185.12699312374338" r="2.5" /><desc class="value">11827626</desc><desc class="x left">455.8363636363636</desc><desc class="y left">185.12699312374338</desc><desc class="x_label">Sep</desc></g><g class="dots"><circle class="dot reactive tooltip-trigger" cx="511.2909090909091" cy="42.49339121033853" r="2.5" /><desc class="value">12559220</desc><desc class="x left">511.2909090909091</desc><desc class="y left">42.49339121033853</desc><desc class="x_label">Oct</desc></g><g class="dots"><circle class="dot reactive tooltip-trigger" cx="566.7454545454545" cy="15.068561481892232" r="2.5" /><desc class="value">12699887</desc><desc class="x left">566.7454545454545</desc><desc class="y left">15.068561481892232</desc><desc class="x_label">Nov</desc></g><g class="dots"><circle class="dot reactive tooltip-trigger" cx="622.1999999999999" cy="27.883465176794232" r="2.5" /><desc class="value">12634157</desc><desc class="x left">622.1999999999999</desc><desc class="y left">27.883465176794232</desc><desc class="x_label">Dec</desc></g></g></g><g class="plot text-overlay" transform="translate(145, 46)"><g class="series serie-0 color-0" /></g><g class="plot tooltip-overlay" transform="translate(145, 46)"><g class="tooltip" style="opacity: 0" transform="translate(0 0)"><rect class="tooltip-box" height="0" rx="0" ry="0" width="0" /><g class="text" /></g></g><g class="legends" transform="translate(10, 56)"><g class="legend reactive activate-serie" id="activate-serie-0"><rect class="color-0 reactive" height="12" width="12" x="0.0" y="1.0" /><text x="17.0" y="11.2">2552</text></g></g><g class="legends" transform="translate(790, 56)" /></g></svg>