<?xml version='1.0' encoding='utf-8'?>
<svg xmlns:xlink="http://www.w3.org/1999/xlink" class="pygal-chart" id="chart-48840ed6-b119-4029-8b20-65403a597795" viewBox="0 0 800 600" xmlns="http://www.w3.org/2000/svg"><!--Generated with pygal 2.0.11 (etree) ©Kozea 2011-2015 on 2015-12-10--><!--http://pygal.org--><!--http://github.com/Kozea/pygal--><defs><style type="text/css">#chart-48840ed6-b119-4029-8b20-65403a597795{-webkit-user-select:none;-webkit-font-smoothing:antialiased;font-family:Consolas,"Liberation Mono",Menlo,Courier,monospace}#chart-48840ed6-b119-4029-8b20-65403a597795 .title{font-family:Consolas,"Liberation Mono",Menlo,Courier,monospace;font-size:16px}#chart-48840ed6-b119-4029-8b20-65403a597795 .legends .legend text{font-family:Consolas,"Liberation Mono",Menlo,Courier,monospace;font-size:14px}#chart-48840ed6-b119-4029-8b20-65403a597795 .axis text{font-family:Consolas,"Liberation Mono",Menlo,Courier,monospace;font-size:10px}#chart-48840ed6-b119-4029-8b20-65403a597795 .axis text.major{font-family:Consolas,"Liberation Mono",Menlo,Courier,monospace;font-size:10px}#chart-48840ed6-b119-4029-8b20-65403a597795 .text-overlay text.value{font-family:Consolas,"Liberation Mono",Menlo,Courier,monospace;font-size:16px}#chart-48840ed6-b119-4029-8b20-65403a597795 .text-overlay text.label{font-family:Consolas,"Liberation Mono",Menlo,Courier,monospace;font-size:10px}#chart-48840ed6-b119-4029-8b20-65403a597795 .tooltip{font-family:Consolas,"Liberation Mono",Menlo,Courier,monospace;font-size:14px}#chart-48840ed6-b119-4029-8b20-65403a597795 text.no_data{font-family:Consolas,"Liberation Mono",Menlo,Courier,monospace;font-size:64px}
#chart-48840ed6-b119-4029-8b20-65403a597795{background-color:black}#chart-48840ed6-b119-4029-8b20-65403a597795 path,#chart-48840ed6-b119-4029-8b20-65403a597795 line,#chart-48840ed6-b119-4029-8b20-65403a597795 rect,#chart-48840ed6-b119-4029-8b20-65403a597795 circle{-webkit-transition:250ms;-moz-transition:250ms;transition:250ms}#chart-48840ed6-b119-4029-8b20-65403a597795 .graph &gt; .background{fill:black}#chart-48840ed6-b119-4029-8b20-65403a597795 .plot &gt; .background{fill:#111}#chart-48840ed6-b119-4029-8b20-65403a597795 .graph{fill:#999}#chart-48840ed6-b119-4029-8b20-65403a597795 text.no_data{fill:#eee}#chart-48840ed6-b119-4029-8b20-65403a597795 .title{fill:#eee}#chart-48840ed6-b119-4029-8b20-65403a597795 .legends .legend text{fill:#999}#chart-48840ed6-b119-4029-8b20-65403a597795 .legends .legend:hover text{fill:#eee}#chart-48840ed6-b119-4029-8b20-65403a597795 .axis .line{stroke:#eee}#chart-48840ed6-b119-4029-8b20-65403a597795 .axis .guide.line{stroke:#555}#chart-48840ed6-b119-4029-8b20-65403a597795 .axis .major.line{stroke:#999}#chart-48840ed6-b119-4029-8b20-65403a597795 .axis text.major{fill:#eee}#chart-48840ed6-b119-4029-8b20-65403a597795 .axis.y .guides:hover .guide.line,#chart-48840ed6-b119-4029-8b20-65403a597795 .line-graph .axis.x .guides:hover .guide.line,#chart-48840ed6-b119-4029-8b20-65403a597795 .stackedline-graph .axis.x .guides:hover .guide.line,#chart-48840ed6-b119-4029-8b20-65403a597795 .xy-graph .axis.x .guides:hover .guide.line{stroke:#eee}#chart-48840ed6-b119-4029-8b20-65403a597795 .axis .guides:hover text{fill:#eee}#chart-48840ed6-b119-4029-8b20-65403a597795 .reactive{fill-opacity:.8}#chart-48840ed6-b119-4029-8b20-65403a597795 .reactive.active,#chart-48840ed6-b119-4029-8b20-65403a597795 .active .reactive{fill-opacity:.4;stroke-width:4}#chart-48840ed6-b119-4029-8b20-65403a597795 .series text{fill:#eee}#chart-48840ed6-b119-4029-8b20-65403a597795 .tooltip rect{fill:#111;stroke:#eee;-webkit-transition:opacity 250ms;-moz-transition:opacity 250ms;transition:opacity 250ms}#chart-48840ed6-b119-4029-8b20-65403a597795 .tooltip .label{fill:#999}#chart-48840ed6-b119-4029-8b20-65403a597795 .tooltip .label{fill:#999}#chart-48840ed6-b119-4029-8b20-65403a597795 .tooltip .legend{font-size:.8em;fill:#555}#chart-48840ed6-b119-4029-8b20-65403a597795 .tooltip .x_label{font-size:.6em;fill:#eee}#chart-48840ed6-b119-4029-8b20-65403a597795 .tooltip .xlink{font-size:.5em;text-decoration:underline}#chart-48840ed6-b119-4029-8b20-65403a597795 .tooltip .value{font-size:1.5em}#chart-48840ed6-b119-4029-8b20-65403a597795 .map-element{fill:#111;stroke:#555 !important}#chart-48840ed6-b119-4029-8b20-65403a597795 .map-element .reactive{fill-opacity:inherit}#chart-48840ed6-b119-4029-8b20-65403a597795 .color-0,#chart-48840ed6-b119-4029-8b20-65403a597795 .color-0 a:visited{stroke:#ff5995;fill:#ff5995}#chart-48840ed6-b119-4029-8b20-65403a597795 .text-overlay .color-0 text{fill:black}
#chart-48840ed6-b119-4029-8b20-65403a597795 text.no_data{text-anchor:middle}#chart-48840ed6-b119-4029-8b20-65403a597795 .guide.line{fill:none}#chart-48840ed6-b119-4029-8b20-65403a597795 .centered{text-anchor:middle}#chart-48840ed6-b119-4029-8b20-65403a597795 .title{text-anchor:middle}#chart-48840ed6-b119-4029-8b20-65403a597795 .legends .legend text{fill-opacity:1}#chart-48840ed6-b119-4029-8b20-65403a597795 .axis.x text{text-anchor:middle}#chart-48840ed6-b119-4029-8b20-65403a597795 .axis.x:not(.web) text[transform]{text-anchor:start}#chart-48840ed6-b119-4029-8b20-65403a597795 .axis.x:not(.web) text[transform].backwards{text-anchor:end}#chart-48840ed6-b119-4029-8b20-65403a597795 .axis.y text{text-anchor:end}#chart-48840ed6-b119-4029-8b20-65403a597795 .axis.y text[transform].backwards{text-anchor:start}#chart-48840ed6-b119-4029-8b20-65403a597795 .axis.y2 text{text-anchor:start}#chart-48840ed6-b119-4029-8b20-65403a597795 .axis.y2 text[transform].backwards{text-anchor:end}#chart-48840ed6-b119-4029-8b20-65403a597795 .axis .guide.line{stroke-dasharray:4,4}#chart-48840ed6-b119-4029-8b20-65403a597795 .axis .major.guide.line{stroke-dasharray:6,6}#chart-48840ed6-b119-4029-8b20-65403a597795 .horizontal .axis.y .guide.line,#chart-48840ed6-b119-4029-8b20-65403a597795 .horizontal .axis.y2 .guide.line,#chart-48840ed6-b119-4029-8b20-65403a597795 .vertical .axis.x .guide.line{opacity:0}#chart-48840ed6-b119-4029-8b20-65403a597795 .horizontal .axis.always_show .guide.line,#chart-48840ed6-b119-4029-8b20-65403a597795 .vertical .axis.always_show .guide.line{opacity:1 !important}#chart-48840ed6-b119-4029-8b20-65403a597795 .axis.y .guides:hover .guide.line,#chart-48840ed6-b119-4029-8b20-65403a597795 .axis.y2 .guides:hover .guide.line,#chart-48840ed6-b119-4029-8b20-65403a597795 .axis.x .guides:hover .guide.line{opacity:1}#chart-48840ed6-b119-4029-8b20-65403a597795 .axis .guides:hover text{opacity:1}#chart-48840ed6-b119-4029-8b20-65403a597795 .nofill{fill:none}#chart-48840ed6-b119-4029-8b20-65403a597795 .subtle-fill{fill-opacity:.2}#chart-48840ed6-b119-4029-8b20-65403a597795 .dot{stroke-width:1px;fill-opacity:1}#chart-48840ed6-b119-4029-8b20-65403a597795 .dot.active{stroke-width:5px}#chart-48840ed6-b119-4029-8b20-65403a597795 .dot.negative{fill:transparent}#chart-48840ed6-b119-4029-8b20-65403a597795 text,#chart-48840ed6-b119-4029-8b20-65403a597795 tspan{stroke:none !important}#chart-48840ed6-b119-4029-8b20-65403a597795 .series text.active{opacity:1}#chart-48840ed6-b119-4029-8b20-65403a597795 .tooltip rect{fill-opacity:.95;stroke-width:.5}#chart-48840ed6-b119-4029-8b20-65403a597795 .tooltip text{fill-opacity:1}#chart-48840ed6-b119-4029-8b20-65403a597795 .showable{visibility:hidden}#chart-48840ed6-b119-4029-8b20-65403a597795 .showable.shown{visibility:visible}</style><script type="text/javascript">window.pygal = window.pygal || {};window.pygal.config = window.pygal.config || {};window.pygal.config['48840ed6-b119-4029-8b20-65403a597795'] = {"x_labels_major_count": null, "max_scale": 16, "force_uri_protocol": null, "box_mode": "extremes", "human_readable": false, "rounded_bars": null, "show_dots": true, "title": "2553 summary", "interpolation_precision": 250, "inverse_y_axis": false, "y_label_rotation": 0, "tooltip_border_radius": 0, "legends": ["2553"], "margin": 20, "x_labels_major": null, "show_only_major_dots": false, "spacing": 10, "legend_box_size": 12, "include_x_axis": false, "show_legend": true, "print_values": false, "print_zeroes": true, "pretty_print": false, "range": null, "secondary_range": null, "show_minor_x_labels": true, "legend_at_bottom_columns": null, "strict": false, "half_pie": false, "margin_right": null, "inner_radius": 0, "x_title": null, "dynamic_print_values": false, "value_formatter": null, "print_labels": false, "min_scale": 4, "interpolate": "cubic", "order_min": null, "y_labels_major_every": null, "interpolation_parameters": {}, "stroke_style": null, "style": {"no_data_font_size": 64, "legend_font_family": "Consolas, \"Liberation Mono\", Menlo, Courier, monospace", "value_font_size": 16, "plot_background": "#111", "title_font_family": "Consolas, \"Liberation Mono\", Menlo, Courier, monospace", "major_guide_stroke_dasharray": "6,6", "opacity": ".8", "title_font_size": 16, "font_family": "Consolas, \"Liberation Mono\", Menlo, Courier, monospace", "label_font_size": 10, "major_label_font_size": 10, "colors": ["#ff5995", "#b6e354", "#feed6c", "#8cedff", "#9e6ffe", "#899ca1", "#f8f8f2", "#bf4646", "#516083", "#f92672", "#82b414", "#fd971f", "#56c2d6", "#808384", "#8c54fe", "#465457"], "tooltip_font_size": 14, "transition": "250ms", "value_colors": [], "value_font_family": "Consolas, \"Liberation Mono\", Menlo, Courier, monospace", "value_label_font_family": "Consolas, \"Liberation Mono\", Menlo, Courier, monospace", "foreground_subtle": "#555", "foreground_strong": "#eee", "legend_font_size": 14, "background": "black", "tooltip_font_family": "Consolas, \"Liberation Mono\", Menlo, Courier, monospace", "opacity_hover": ".4", "guide_stroke_dasharray": "4,4", "major_label_font_family": "Consolas, \"Liberation Mono\", Menlo, Courier, monospace", "label_font_family": "Consolas, \"Liberation Mono\", Menlo, Courier, monospace", "no_data_font_family": "Consolas, \"Liberation Mono\", Menlo, Courier, monospace", "value_label_font_size": 10, "foreground": "#999"}, "x_labels": ["Jan", "Feb", "Mar", "Apr", "May", "Jun", "Jul", "Aug", "Sep", "Oct", "Nov", "Dec"], "x_label_rotation": 0, "show_y_guides": true, "width": 800, "margin_bottom": null, "no_prefix": false, "legend_at_bottom": false, "x_labels_major_every": null, "dots_size": 2.5, "fill": true, "disable_xml_declaration": false, "y_title": null, "height": 600, "show_x_labels": true, "stroke": true, "truncate_legend": null, "y_labels_major_count": null, "xrange": null, "margin_left": null, "margin_top": null, "logarithmic": false, "show_minor_y_labels": true, "defs": [], "missing_value_fill_truncation": "x", "no_data_text": "No data", "show_y_labels": true, "zero": 0, "x_value_formatter": null, "js": ["//kozea.github.io/pygal.js/2.0.x/pygal-tooltips.min.js"], "tooltip_fancy_mode": true, "stack_from_top": false, "truncate_label": null, "show_x_guides": false, "css": ["file://style.css", "file://graph.css"], "y_labels_major": null, "y_labels": null, "explicit_size": false}</script><script type="text/javascript" xlink:href="//kozea.github.io/pygal.js/2.0.x/pygal-tooltips.min.js" /></defs><title>2553 summary</title><g class="graph line-graph vertical"><rect class="background" height="600" width="800" x="0" y="0" /><g class="plot" transform="translate(145, 46)"><rect class="background" height="514" width="634.4" x="0" y="0" /><g class="axis y"><path class="line" d="M0.000000 514.000000 h634.400000" /><g class="guides"><path class="guide line" d="M0.000000 465.732366 h634.400000" /><text class="" x="-5" y="469.23236590666">7000000.0</text><title>7000000.0</title></g><g class="guides"><path class="guide line" d="M0.000000 393.570709 h634.400000" /><text class="" x="-5" y="397.0707093434347">8000000.0</text><title>8000000.0</title></g><g class="guides"><path class="guide line" d="M0.000000 321.409053 h634.400000" /><text class="" x="-5" y="324.9090527802094">9000000.0</text><title>9000000.0</title></g><g class="guides"><path class="major guide line" d="M0.000000 249.247396 h634.400000" /><text class="major" x="-5" y="252.74739621698404">10000000.0</text><title>10000000.0</title></g><g class="guides"><path class="guide line" d="M0.000000 177.085740 h634.400000" /><text class="" x="-5" y="180.58573965375876">11000000.0</text><title>11000000.0</title></g><g class="guides"><path class="guide line" d="M0.000000 104.924083 h634.400000" /><text class="" x="-5" y="108.42408309053343">12000000.0</text><title>12000000.0</title></g><g class="guides"><path class="guide line" d="M0.000000 32.762427 h634.400000" /><text class="" x="-5" y="36.262426527308094">13000000.0</text><title>13000000.0</title></g></g><g class="axis x"><g class="guides"><path class="line" d="M12.200000 0.000000 v514.000000" /><text class="" x="12.2" y="529.0">Jan</text></g><g class="guides"><path class="guide line" d="M67.654545 0.000000 v514.000000" /><text class="" x="67.65454545454546" y="529.0">Feb</text></g><g class="guides"><path class="guide line" d="M123.109091 0.000000 v514.000000" /><text class="" x="123.1090909090909" y="529.0">Mar</text></g><g class="guides"><path class="guide line" d="M178.563636 0.000000 v514.000000" /><text class="" x="178.56363636363636" y="529.0">Apr</text></g><g class="guides"><path class="guide line" d="M234.018182 0.000000 v514.000000" /><text class="" x="234.01818181818183" y="529.0">May</text></g><g class="guides"><path class="guide line" d="M289.472727 0.000000 v514.000000" /><text class="" x="289.47272727272724" y="529.0">Jun</text></g><g class="guides"><path class="guide line" d="M344.927273 0.000000 v514.000000" /><text class="" x="344.9272727272727" y="529.0">Jul</text></g><g class="guides"><path class="guide line" d="M400.381818 0.000000 v514.000000" /><text class="" x="400.3818181818181" y="529.0">Aug</text></g><g class="guides"><path class="guide line" d="M455.836364 0.000000 v514.000000" /><text class="" x="455.8363636363636" y="529.0">Sep</text></g><g class="guides"><path class="guide line" d="M511.290909 0.000000 v514.000000" /><text class="" x="511.2909090909091" y="529.0">Oct</text></g><g class="guides"><path class="guide line" d="M566.745455 0.000000 v514.000000" /><text class="" x="566.7454545454545" y="529.0">Nov</text></g><g class="guides"><path class="guide line" d="M622.200000 0.000000 v514.000000" /><text class="" x="622.1999999999999" y="529.0">Dec</text></g></g><g class="series serie-0 color-0"><path class="line reactive" d="M12.200000 514.000000 L12.200000 79.238214 12.421818 79.595955 12.643636 79.953675 12.865455 80.311355 13.087273 80.668972 13.309091 81.026506 13.530909 81.383937 13.752727 81.741245 13.974545 82.098407 14.196364 82.455404 14.418182 82.812215 14.640000 83.168820 14.861818 83.525197 15.083636 83.881326 15.305455 84.237186 15.527273 84.592757 15.749091 84.948018 15.970909 85.302948 16.192727 85.657527 16.414545 86.011734 16.636364 86.365548 16.858182 86.718948 17.080000 87.071915 17.301818 87.424427 17.523636 87.776464 17.745455 88.128004 17.967273 88.479028 18.189091 88.829514 18.410909 89.179443 18.632727 89.528792 18.854545 89.877542 19.076364 90.225672 19.298182 90.573162 19.520000 90.919990 19.741818 91.266136 19.963636 91.611579 20.185455 91.956298 20.407273 92.300274 20.629091 92.643485 20.850909 92.985910 21.072727 93.327530 21.294545 93.668322 21.516364 94.008267 21.738182 94.347345 21.960000 94.685533 22.181818 95.022812 22.403636 95.359160 22.625455 95.694558 22.847273 96.028985 23.069091 96.362419 23.290909 96.694841 23.512727 97.026229 23.734545 97.356563 23.956364 97.685822 24.178182 98.013986 24.400000 98.341034 24.621818 98.666945 24.843636 98.991698 25.065455 99.315274 25.287273 99.637650 25.509091 99.958807 25.730909 100.278724 25.952727 100.597380 26.174545 100.914755 26.396364 101.230827 26.618182 101.545577 26.840000 101.858983 27.061818 102.171025 27.283636 102.481682 27.505455 102.790933 27.727273 103.098759 27.949091 103.405138 28.170909 103.710049 28.392727 104.013472 28.614545 104.315386 28.836364 104.615771 29.058182 104.914605 29.280000 105.211869 29.501818 105.507541 29.723636 105.801601 29.945455 106.094028 30.167273 106.384801 30.389091 106.673900 30.610909 106.961305 30.832727 107.246994 31.054545 107.530947 31.276364 107.813143 31.498182 108.093561 31.720000 108.372181 31.941818 108.648982 32.163636 108.923944 32.385455 109.197045 32.607273 109.468266 32.829091 109.737585 33.050909 110.004982 33.272727 110.270436 33.494545 110.533926 33.716364 110.795433 33.938182 111.054934 34.160000 111.312410 34.381818 111.567839 34.603636 111.821202 34.825455 112.072477 35.047273 112.321643 35.269091 112.568681 35.490909 112.813570 35.712727 113.056288 35.934545 113.296815 36.156364 113.535130 36.378182 113.771213 36.600000 114.005044 36.821818 114.236601 37.043636 114.465863 37.265455 114.692811 37.487273 114.917422 37.709091 115.139678 37.930909 115.359557 38.152727 115.577038 38.374545 115.792101 38.596364 116.004725 38.818182 116.214889 39.040000 116.422573 39.261818 116.627756 39.483636 116.830418 39.705455 117.030537 39.927273 117.228093 40.149091 117.423065 40.370909 117.615434 40.592727 117.805177 40.814545 117.992275 41.036364 118.176706 41.258182 118.358450 41.480000 118.537487 41.701818 118.713796 41.923636 118.887355 42.145455 119.058145 42.367273 119.226144 42.589091 119.391333 42.810909 119.553690 43.032727 119.713194 43.254545 119.869826 43.476364 120.023563 43.698182 120.174387 43.920000 120.322275 44.141818 120.467208 44.363636 120.609165 44.585455 120.748124 44.807273 120.884066 45.029091 121.016969 45.250909 121.146814 45.472727 121.273579 45.694545 121.397243 45.916364 121.517786 46.138182 121.635188 46.360000 121.749427 46.581818 121.860484 46.803636 121.968336 47.025455 122.072964 47.247273 122.174347 47.469091 122.272465 47.690909 122.367296 47.912727 122.458820 48.134545 122.547016 48.356364 122.631864 48.578182 122.713343 48.800000 122.791432 49.021818 122.866111 49.243636 122.937359 49.465455 123.005155 49.687273 123.069478 49.909091 123.130309 50.130909 123.187626 50.352727 123.241408 50.574545 123.291635 50.796364 123.338287 51.018182 123.381342 51.240000 123.420780 51.461818 123.456580 51.683636 123.488722 51.905455 123.517185 52.127273 123.541948 52.349091 123.562991 52.570909 123.580292 52.792727 123.593832 53.014545 123.603590 53.236364 123.609544 53.458182 123.611674 53.680000 123.609960 53.901818 123.604381 54.123636 123.594916 54.345455 123.581545 54.567273 123.564247 54.789091 123.543000 55.010909 123.517786 55.232727 123.488582 55.454545 123.455368 55.676364 123.418124 55.898182 123.376829 56.120000 123.331462 56.341818 123.282003 56.563636 123.228430 56.785455 123.170724 57.007273 123.108863 57.229091 123.042827 57.450909 122.972595 57.672727 122.898147 57.894545 122.819461 58.116364 122.736518 58.338182 122.649296 58.560000 122.557775 58.781818 122.461934 59.003636 122.361753 59.225455 122.257211 59.447273 122.148286 59.669091 122.034960 59.890909 121.917210 60.112727 121.795016 60.334545 121.668358 60.556364 121.537214 60.778182 121.401565 61.000000 121.261389 61.221818 121.116666 61.443636 120.967375 61.665455 120.813496 61.887273 120.655007 62.109091 120.491889 62.330909 120.324120 62.552727 120.151679 62.774545 119.974547 62.996364 119.792703 63.218182 119.606125 63.440000 119.414793 63.661818 119.218687 63.883636 119.017786 64.105455 118.812068 64.327273 118.601514 64.549091 118.386103 64.770909 118.165814 64.992727 117.940627 65.214545 117.710520 65.436364 117.475473 65.658182 117.235466 65.880000 116.990477 66.101818 116.740487 66.323636 116.485474 66.545455 116.225418 66.767273 115.960297 66.989091 115.690093 67.210909 115.414783 67.432727 115.134347 67.654545 114.848764 67.876364 114.558028 68.098182 114.262181 68.320000 113.961281 68.541818 113.655386 68.763636 113.344552 68.985455 113.028838 69.207273 112.708299 69.429091 112.382993 69.650909 112.052979 69.872727 111.718311 70.094545 111.379049 70.316364 111.035249 70.538182 110.686969 70.760000 110.334265 70.981818 109.977194 71.203636 109.615815 71.425455 109.250184 71.647273 108.880359 71.869091 108.506396 72.090909 108.128354 72.312727 107.746288 72.534545 107.360257 72.756364 106.970317 72.978182 106.576527 73.200000 106.178942 73.421818 105.777621 73.643636 105.372620 73.865455 104.963996 74.087273 104.551808 74.309091 104.136112 74.530909 103.716965 74.752727 103.294425 74.974545 102.868549 75.196364 102.439393 75.418182 102.007016 75.640000 101.571475 75.861818 101.132826 76.083636 100.691127 76.305455 100.246435 76.527273 99.798807 76.749091 99.348301 76.970909 98.894974 77.192727 98.438883 77.414545 97.980085 77.636364 97.518638 77.858182 97.054598 78.080000 96.588023 78.301818 96.118971 78.523636 95.647497 78.745455 95.173661 78.967273 94.697518 79.189091 94.219126 79.410909 93.738542 79.632727 93.255824 79.854545 92.771028 80.076364 92.284212 80.298182 91.795434 80.520000 91.304750 80.741818 90.812217 80.963636 90.317893 81.185455 89.821835 81.407273 89.324100 81.629091 88.824746 81.850909 88.323830 82.072727 87.821408 82.294545 87.317538 82.516364 86.812278 82.738182 86.305684 82.960000 85.797814 83.181818 85.288725 83.403636 84.778475 83.625455 84.267119 83.847273 83.754717 84.069091 83.241324 84.290909 82.726998 84.512727 82.211797 84.734545 81.695777 84.956364 81.178996 85.178182 80.661511 85.400000 80.143379 85.621818 79.624657 85.843636 79.105403 86.065455 78.585674 86.287273 78.065528 86.509091 77.545020 86.730909 77.024209 86.952727 76.503151 87.174545 75.981905 87.396364 75.460527 87.618182 74.939074 87.840000 74.417604 88.061818 73.896174 88.283636 73.374840 88.505455 72.853661 88.727273 72.332694 88.949091 71.811995 89.170909 71.291623 89.392727 70.771633 89.614545 70.252084 89.836364 69.733032 90.058182 69.214536 90.280000 68.696651 90.501818 68.179436 90.723636 67.662947 90.945455 67.147242 91.167273 66.632377 91.389091 66.118411 91.610909 65.605401 91.832727 65.093403 92.054545 64.582474 92.276364 64.072673 92.498182 63.564056 92.720000 63.056681 92.941818 62.550604 93.163636 62.045883 93.385455 61.542576 93.607273 61.040739 93.829091 60.540429 94.050909 60.041704 94.272727 59.544621 94.494545 59.049238 94.716364 58.555611 94.938182 58.063797 95.160000 57.573855 95.381818 57.085841 95.603636 56.599812 95.825455 56.115825 96.047273 55.633939 96.269091 55.154209 96.490909 54.676694 96.712727 54.201450 96.934545 53.728535 97.156364 53.258006 97.378182 52.789920 97.600000 52.324334 97.821818 51.861306 98.043636 51.400893 98.265455 50.943151 98.487273 50.488139 98.709091 50.035914 98.930909 49.586532 99.152727 49.140051 99.374545 48.696528 99.596364 48.256020 99.818182 47.818585 100.040000 47.384280 100.261818 46.953162 100.483636 46.525288 100.705455 46.100715 100.927273 45.679501 101.149091 45.261703 101.370909 44.847378 101.592727 44.436583 101.814545 44.029376 102.036364 43.625814 102.258182 43.225954 102.480000 42.829853 102.701818 42.437568 102.923636 42.049157 103.145455 41.664677 103.367273 41.284185 103.589091 40.907738 103.810909 40.535394 104.032727 40.167210 104.254545 39.803243 104.476364 39.443549 104.698182 39.088188 104.920000 38.737214 105.141818 38.390687 105.363636 38.048663 105.585455 37.711199 105.807273 37.378353 106.029091 37.050181 106.250909 36.726742 106.472727 36.408091 106.694545 36.094287 106.916364 35.785387 107.138182 35.481447 107.360000 35.182526 107.581818 34.888680 107.803636 34.599966 108.025455 34.316442 108.247273 34.038165 108.469091 33.765192 108.690909 33.497581 108.912727 33.235388 109.134545 32.978671 109.356364 32.727487 109.578182 32.481894 109.800000 32.241948 110.021818 32.007707 110.243636 31.779227 110.465455 31.556567 110.687273 31.339783 110.909091 31.128933 111.130909 30.924074 111.352727 30.725262 111.574545 30.532556 111.796364 30.346013 112.018182 30.165689 112.240000 29.991642 112.461818 29.823929 112.683636 29.662608 112.905455 29.507735 113.127273 29.359368 113.349091 29.217564 113.570909 29.082380 113.792727 28.953874 114.014545 28.832103 114.236364 28.717123 114.458182 28.608993 114.680000 28.507769 114.901818 28.413508 115.123636 28.326269 115.345455 28.246107 115.567273 28.173081 115.789091 28.107247 116.010909 28.048663 116.232727 27.997386 116.454545 27.953472 116.676364 27.916981 116.898182 27.887967 117.120000 27.866490 117.341818 27.852606 117.563636 27.846372 117.785455 27.847845 118.007273 27.857083 118.229091 27.874143 118.450909 27.899082 118.672727 27.931957 118.894545 27.972826 119.116364 28.021746 119.338182 28.078774 119.560000 28.143967 119.781818 28.217382 120.003636 28.299077 120.225455 28.389109 120.447273 28.487535 120.669091 28.594412 120.890909 28.709798 121.112727 28.833750 121.334545 28.966325 121.556364 29.107580 121.778182 29.257572 122.000000 29.416359 122.221818 29.583998 122.443636 29.760546 122.665455 29.946061 122.887273 30.140599 123.109091 30.344217 123.330909 30.556959 123.552727 30.778807 123.774545 31.009730 123.996364 31.249695 124.218182 31.498671 124.440000 31.756627 124.661818 32.023530 124.883636 32.299348 125.105455 32.584051 125.327273 32.877606 125.549091 33.179981 125.770909 33.491145 125.992727 33.811066 126.214545 34.139713 126.436364 34.477053 126.658182 34.823054 126.880000 35.177686 127.101818 35.540915 127.323636 35.912711 127.545455 36.293042 127.767273 36.681876 127.989091 37.079181 128.210909 37.484926 128.432727 37.899078 128.654545 38.321606 128.876364 38.752479 129.098182 39.191663 129.320000 39.639129 129.541818 40.094844 129.763636 40.558775 129.985455 41.030893 130.207273 41.511164 130.429091 41.999556 130.650909 42.496039 130.872727 43.000581 131.094545 43.513149 131.316364 44.033713 131.538182 44.562239 131.760000 45.098697 131.981818 45.643054 132.203636 46.195280 132.425455 46.755342 132.647273 47.323208 132.869091 47.898847 133.090909 48.482226 133.312727 49.073315 133.534545 49.672082 133.756364 50.278494 133.978182 50.892520 134.200000 51.514128 134.421818 52.143287 134.643636 52.779965 134.865455 53.424129 135.087273 54.075748 135.309091 54.734791 135.530909 55.401226 135.752727 56.075021 135.974545 56.756144 136.196364 57.444563 136.418182 58.140247 136.640000 58.843163 136.861818 59.553282 137.083636 60.270569 137.305455 60.994994 137.527273 61.726525 137.749091 62.465130 137.970909 63.210778 138.192727 63.963436 138.414545 64.723074 138.636364 65.489658 138.858182 66.263158 139.080000 67.043542 139.301818 67.830777 139.523636 68.624833 139.745455 69.425677 139.967273 70.233278 140.189091 71.047603 140.410909 71.868622 140.632727 72.696302 140.854545 73.530612 141.076364 74.371520 141.298182 75.218994 141.520000 76.073002 141.741818 76.933514 141.963636 77.800495 142.185455 78.673917 142.407273 79.553745 142.629091 80.439949 142.850909 81.332498 143.072727 82.231358 143.294545 83.136498 143.516364 84.047888 143.738182 84.965494 143.960000 85.889285 144.181818 86.819230 144.403636 87.755297 144.625455 88.697453 144.847273 89.645668 145.069091 90.599909 145.290909 91.560144 145.512727 92.526343 145.734545 93.498472 145.956364 94.476501 146.178182 95.460398 146.400000 96.450130 146.621818 97.445667 146.843636 98.446976 147.065455 99.454026 147.287273 100.466785 147.509091 101.485220 147.730909 102.509301 147.952727 103.538996 148.174545 104.574273 148.396364 105.615100 148.618182 106.661445 148.840000 107.713277 149.061818 108.770563 149.283636 109.833273 149.505455 110.901375 149.727273 111.974835 149.949091 113.053624 150.170909 114.137709 150.392727 115.227058 150.614545 116.321640 150.836364 117.421423 151.058182 118.526375 151.280000 119.636464 151.501818 120.751659 151.723636 121.871928 151.945455 122.997239 152.167273 124.127560 152.389091 125.262860 152.610909 126.403107 152.832727 127.548269 153.054545 128.698314 153.276364 129.853211 153.498182 131.012927 153.720000 132.177432 153.941818 133.346693 154.163636 134.520679 154.385455 135.699358 154.607273 136.882698 154.829091 138.070667 155.050909 139.263234 155.272727 140.460366 155.494545 141.662033 155.716364 142.868202 155.938182 144.078842 156.160000 145.293921 156.381818 146.513406 156.603636 147.737267 156.825455 148.965472 157.047273 150.197988 157.269091 151.434785 157.490909 152.675830 157.712727 153.921092 157.934545 155.170538 158.156364 156.424137 158.378182 157.681858 158.600000 158.943669 158.821818 160.209537 159.043636 161.479431 159.265455 162.753320 159.487273 164.031172 159.709091 165.312954 159.930909 166.598635 160.152727 167.888184 160.374545 169.181568 160.596364 170.478756 160.818182 171.779716 161.040000 173.084416 161.261818 174.392825 161.483636 175.704911 161.705455 177.020642 161.927273 178.339987 162.149091 179.662913 162.370909 180.989388 162.592727 182.319382 162.814545 183.652862 163.036364 184.989797 163.258182 186.330154 163.480000 187.673903 163.701818 189.021011 163.923636 190.371447 164.145455 191.725178 164.367273 193.082173 164.589091 194.442401 164.810909 195.805829 165.032727 197.172427 165.254545 198.542161 165.476364 199.915000 165.698182 201.290913 165.920000 202.669868 166.141818 204.051833 166.363636 205.436777 166.585455 206.824667 166.807273 208.215471 167.029091 209.609159 167.250909 211.005698 167.472727 212.405057 167.694545 213.807203 167.916364 215.212106 168.138182 216.619733 168.360000 218.030052 168.581818 219.443032 168.803636 220.858641 169.025455 222.276848 169.247273 223.697620 169.469091 225.120926 169.690909 226.546734 169.912727 227.975012 170.134545 229.405729 170.356364 230.838853 170.578182 232.274351 170.800000 233.712193 171.021818 235.152347 171.243636 236.594780 171.465455 238.039462 171.687273 239.486359 171.909091 240.935442 172.130909 242.386677 172.352727 243.840033 172.574545 245.295478 172.796364 246.752981 173.018182 248.212510 173.240000 249.674032 173.461818 251.137517 173.683636 252.602933 173.905455 254.070247 174.127273 255.539429 174.349091 257.010445 174.570909 258.483265 174.792727 259.957857 175.014545 261.434189 175.236364 262.912230 175.458182 264.391947 175.680000 265.873308 175.901818 267.356283 176.123636 268.840839 176.345455 270.326944 176.567273 271.814567 176.789091 273.303677 177.010909 274.794240 177.232727 276.286226 177.454545 277.779603 177.676364 279.274339 177.898182 280.770402 178.120000 282.267761 178.341818 283.766383 178.563636 285.266238 178.785455 286.767284 179.007273 288.269452 179.229091 289.772661 179.450909 291.276831 179.672727 292.781884 179.894545 294.287740 180.116364 295.794318 180.338182 297.301541 180.560000 298.809328 180.781818 300.317599 181.003636 301.826276 181.225455 303.335278 181.447273 304.844527 181.669091 306.353943 181.890909 307.863445 182.112727 309.372956 182.334545 310.882394 182.556364 312.391682 182.778182 313.900738 183.000000 315.409484 183.221818 316.917841 183.443636 318.425728 183.665455 319.933066 183.887273 321.439776 184.109091 322.945778 184.330909 324.450993 184.552727 325.955341 184.774545 327.458743 184.996364 328.961119 185.218182 330.462390 185.440000 331.962475 185.661818 333.461297 185.883636 334.958775 186.105455 336.454829 186.327273 337.949380 186.549091 339.442349 186.770909 340.933657 186.992727 342.423222 187.214545 343.910967 187.436364 345.396812 187.658182 346.880677 187.880000 348.362482 188.101818 349.842149 188.323636 351.319597 188.545455 352.794747 188.767273 354.267520 188.989091 355.737836 189.210909 357.205616 189.432727 358.670780 189.654545 360.133248 189.876364 361.592942 190.098182 363.049781 190.320000 364.503686 190.541818 365.954578 190.763636 367.402376 190.985455 368.847003 191.207273 370.288377 191.429091 371.726421 191.650909 373.161053 191.872727 374.592195 192.094545 376.019766 192.316364 377.443689 192.538182 378.863882 192.760000 380.280267 192.981818 381.692764 193.203636 383.101294 193.425455 384.505777 193.647273 385.906133 193.869091 387.302283 194.090909 388.694148 194.312727 390.081648 194.534545 391.464703 194.756364 392.843235 194.978182 394.217163 195.200000 395.586408 195.421818 396.950890 195.643636 398.310531 195.865455 399.665250 196.087273 401.014968 196.309091 402.359605 196.530909 403.699083 196.752727 405.033321 196.974545 406.362240 197.196364 407.685760 197.418182 409.003803 197.640000 410.316288 197.861818 411.623136 198.083636 412.924267 198.305455 414.219603 198.527273 415.509063 198.749091 416.792568 198.970909 418.070038 199.192727 419.341394 199.414545 420.606557 199.636364 421.865447 199.858182 423.117984 200.080000 424.364089 200.301818 425.603683 200.523636 426.836685 200.745455 428.063017 200.967273 429.282599 201.189091 430.495352 201.410909 431.701195 201.632727 432.900050 201.854545 434.091836 202.076364 435.276476 202.298182 436.453888 202.520000 437.623993 202.741818 438.786712 202.963636 439.941966 203.185455 441.089675 203.407273 442.229759 203.629091 443.362139 203.850909 444.486735 204.072727 445.603468 204.294545 446.712259 204.516364 447.813027 204.738182 448.905694 204.960000 449.990180 205.181818 451.066405 205.403636 452.134290 205.625455 453.193756 205.847273 454.244722 206.069091 455.287109 206.290909 456.320839 206.512727 457.345831 206.734545 458.362005 206.956364 459.369283 207.178182 460.367585 207.400000 461.356831 207.621818 462.336942 207.843636 463.307839 208.065455 464.269441 208.287273 465.221670 208.509091 466.164445 208.730909 467.097688 208.952727 468.021318 209.174545 468.935257 209.396364 469.839425 209.618182 470.733742 209.840000 471.618128 210.061818 472.492505 210.283636 473.356793 210.505455 474.210912 210.727273 475.054783 210.949091 475.888327 211.170909 476.711463 211.392727 477.524112 211.614545 478.326195 211.836364 479.117632 212.058182 479.898345 212.280000 480.668252 212.501818 481.427275 212.723636 482.175335 212.945455 482.912351 213.167273 483.638244 213.389091 484.352935 213.610909 485.056345 213.832727 485.748393 214.054545 486.429001 214.276364 487.098088 214.498182 487.755575 214.720000 488.401383 214.941818 489.035433 215.163636 489.657644 215.385455 490.267937 215.607273 490.866233 215.829091 491.452452 216.050909 492.026515 216.272727 492.588343 216.494545 493.137854 216.716364 493.674972 216.938182 494.199614 217.160000 494.711703 217.381818 495.211159 217.603636 495.697902 217.825455 496.171853 218.047273 496.632931 218.269091 497.081059 218.490909 497.516155 218.712727 497.938142 218.934545 498.346938 219.156364 498.742465 219.378182 499.124644 219.600000 499.493393 219.821818 499.848636 220.043636 500.190290 220.265455 500.518278 220.487273 500.832520 220.709091 501.132935 220.930909 501.419446 221.152727 501.691971 221.374545 501.950432 221.596364 502.194750 221.818182 502.424844 222.040000 502.640635 222.261818 502.842043 222.483636 503.028990 222.705455 503.201395 222.927273 503.359180 223.149091 503.502264 223.370909 503.630568 223.592727 503.744013 223.814545 503.842519 224.036364 503.926006 224.258182 503.994396 224.480000 504.047608 224.701818 504.085563 224.923636 504.108182 225.145455 504.115385 225.367273 504.107092 225.589091 504.083225 225.810909 504.043703 226.032727 503.988447 226.254545 503.917378 226.476364 503.830415 226.698182 503.727481 226.920000 503.608494 227.141818 503.473376 227.363636 503.322047 227.585455 503.154428 227.807273 502.970438 228.029091 502.769999 228.250909 502.553031 228.472727 502.319455 228.694545 502.069191 228.916364 501.802159 229.138182 501.518280 229.360000 501.217475 229.581818 500.899664 229.803636 500.564767 230.025455 500.212705 230.247273 499.843399 230.469091 499.456769 230.690909 499.052735 230.912727 498.631218 231.134545 498.192139 231.356364 497.735418 231.578182 497.260975 231.800000 496.768731 232.021818 496.258607 232.243636 495.730522 232.465455 495.184398 232.687273 494.620155 232.909091 494.037714 233.130909 493.436994 233.352727 492.817917 233.574545 492.180403 233.796364 491.524373 234.018182 490.849746 234.240000 490.156479 234.461818 489.444672 234.683636 488.714458 234.905455 487.965974 235.127273 487.199352 235.349091 486.414729 235.570909 485.612238 235.792727 484.792016 236.014545 483.954195 236.236364 483.098911 236.458182 482.226300 236.680000 481.336495 236.901818 480.429631 237.123636 479.505843 237.345455 478.565266 237.567273 477.608034 237.789091 476.634282 238.010909 475.644146 238.232727 474.637759 238.454545 473.615257 238.676364 472.576773 238.898182 471.522444 239.120000 470.452403 239.341818 469.366786 239.563636 468.265726 239.785455 467.149360 240.007273 466.017821 240.229091 464.871244 240.450909 463.709764 240.672727 462.533517 240.894545 461.342635 241.116364 460.137255 241.338182 458.917511 241.560000 457.683537 241.781818 456.435469 242.003636 455.173442 242.225455 453.897589 242.447273 452.608045 242.669091 451.304946 242.890909 449.988427 243.112727 448.658621 243.334545 447.315663 243.556364 445.959689 243.778182 444.590834 244.000000 443.209230 244.221818 441.815015 244.443636 440.408321 244.665455 438.989285 244.887273 437.558040 245.109091 436.114722 245.330909 434.659465 245.552727 433.192404 245.774545 431.713674 245.996364 430.223409 246.218182 428.721744 246.440000 427.208815 246.661818 425.684754 246.883636 424.149698 247.105455 422.603782 247.327273 421.047139 247.549091 419.479904 247.770909 417.902213 247.992727 416.314200 248.214545 414.716000 248.436364 413.107747 248.658182 411.489576 248.880000 409.861623 249.101818 408.224021 249.323636 406.576905 249.545455 404.920411 249.767273 403.254673 249.989091 401.579825 250.210909 399.896003 250.432727 398.203341 250.654545 396.501973 250.876364 394.792036 251.098182 393.073662 251.320000 391.346988 251.541818 389.612147 251.763636 387.869275 251.985455 386.118506 252.207273 384.359976 252.429091 382.593818 252.650909 380.820167 252.872727 379.039159 253.094545 377.250927 253.316364 375.455608 253.538182 373.653334 253.760000 371.844242 253.981818 370.028466 254.203636 368.206140 254.425455 366.377400 254.647273 364.542380 254.869091 362.701214 255.090909 360.854038 255.312727 359.000987 255.534545 357.142194 255.756364 355.277796 255.978182 353.407926 256.200000 351.532719 256.421818 349.652310 256.643636 347.766833 256.865455 345.876424 257.087273 343.981218 257.309091 342.081348 257.530909 340.176950 257.752727 338.268158 257.974545 336.355108 258.196364 334.437933 258.418182 332.516769 258.640000 330.591750 258.861818 328.663011 259.083636 326.730687 259.305455 324.794913 259.527273 322.855822 259.749091 320.913551 259.970909 318.968234 260.192727 317.020005 260.414545 315.068999 260.636364 313.115351 260.858182 311.159196 261.080000 309.200669 261.301818 307.239903 261.523636 305.277034 261.745455 303.312197 261.967273 301.345527 262.189091 299.377157 262.410909 297.407223 262.632727 295.435860 262.854545 293.463202 263.076364 291.489384 263.298182 289.514541 263.520000 287.538807 263.741818 285.562318 263.963636 283.585208 264.185455 281.607611 264.407273 279.629663 264.629091 277.651498 264.850909 275.673251 265.072727 273.695056 265.294545 271.717049 265.516364 269.739364 265.738182 267.762136 265.960000 265.785499 266.181818 263.809589 266.403636 261.834540 266.625455 259.860487 266.847273 257.887564 267.069091 255.915906 267.290909 253.945649 267.512727 251.976926 267.734545 250.009873 267.956364 248.044623 268.178182 246.081313 268.400000 244.120077 268.621818 242.161049 268.843636 240.204364 269.065455 238.250157 269.287273 236.298562 269.509091 234.349715 269.730909 232.403750 269.952727 230.460802 270.174545 228.521006 270.396364 226.584495 270.618182 224.651406 270.840000 222.721873 271.061818 220.796030 271.283636 218.874012 271.505455 216.955954 271.727273 215.041991 271.949091 213.132257 272.170909 211.226888 272.392727 209.326017 272.614545 207.429781 272.836364 205.538312 273.058182 203.651747 273.280000 201.770219 273.501818 199.893864 273.723636 198.022817 273.945455 196.157211 274.167273 194.297183 274.389091 192.442865 274.610909 190.594395 274.832727 188.751905 275.054545 186.915530 275.276364 185.085407 275.498182 183.261668 275.720000 181.444450 275.941818 179.633886 276.163636 177.830112 276.385455 176.033261 276.607273 174.243470 276.829091 172.460872 277.050909 170.685603 277.272727 168.917796 277.494545 167.157588 277.716364 165.405112 277.938182 163.660503 278.160000 161.923897 278.381818 160.195427 278.603636 158.475229 278.825455 156.763436 279.047273 155.060185 279.269091 153.365610 279.490909 151.679845 279.712727 150.003025 279.934545 148.335285 280.156364 146.676760 280.378182 145.027584 280.600000 143.387893 280.821818 141.757820 281.043636 140.137501 281.265455 138.527070 281.487273 136.926662 281.709091 135.336412 281.930909 133.756454 282.152727 132.186924 282.374545 130.627956 282.596364 129.079684 282.818182 127.542244 283.040000 126.015771 283.261818 124.500398 283.483636 122.996261 283.705455 121.503494 283.927273 120.022232 284.149091 118.552610 284.370909 117.094763 284.592727 115.648826 284.814545 114.214932 285.036364 112.793217 285.258182 111.383816 285.480000 109.986863 285.701818 108.602493 285.923636 107.230841 286.145455 105.872041 286.367273 104.526229 286.589091 103.193538 286.810909 101.874105 287.032727 100.568062 287.254545 99.275546 287.476364 97.996691 287.698182 96.731632 287.920000 95.480503 288.141818 94.243439 288.363636 93.020574 288.585455 91.812045 288.807273 90.617985 289.029091 89.438528 289.250909 88.273811 289.472727 87.123967 289.694545 85.989096 289.916364 84.869157 290.138182 83.764073 290.360000 82.673767 290.581818 81.598163 290.803636 80.537184 291.025455 79.490753 291.247273 78.458794 291.469091 77.441229 291.690909 76.437983 291.912727 75.448979 292.134545 74.474140 292.356364 73.513390 292.578182 72.566651 292.800000 71.633847 293.021818 70.714901 293.243636 69.809738 293.465455 68.918279 293.687273 68.040449 293.909091 67.176171 294.130909 66.325368 294.352727 65.487964 294.574545 64.663881 294.796364 63.853043 295.018182 63.055374 295.240000 62.270797 295.461818 61.499235 295.683636 60.740612 295.905455 59.994851 296.127273 59.261875 296.349091 58.541607 296.570909 57.833972 296.792727 57.138891 297.014545 56.456290 297.236364 55.786090 297.458182 55.128216 297.680000 54.482590 297.901818 53.849137 298.123636 53.227778 298.345455 52.618439 298.567273 52.021041 298.789091 51.435509 299.010909 50.861766 299.232727 50.299734 299.454545 49.749339 299.676364 49.210501 299.898182 48.683146 300.120000 48.167197 300.341818 47.662576 300.563636 47.169208 300.785455 46.687014 301.007273 46.215920 301.229091 45.755848 301.450909 45.306722 301.672727 44.868464 301.894545 44.440998 302.116364 44.024249 302.338182 43.618138 302.560000 43.222589 302.781818 42.837526 303.003636 42.462871 303.225455 42.098550 303.447273 41.744483 303.669091 41.400596 303.890909 41.066811 304.112727 40.743051 304.334545 40.429241 304.556364 40.125303 304.778182 39.831161 305.000000 39.546738 305.221818 39.271957 305.443636 39.006741 305.665455 38.751015 305.887273 38.504702 306.109091 38.267724 306.330909 38.040005 306.552727 37.821469 306.774545 37.612038 306.996364 37.411637 307.218182 37.220188 307.440000 37.037614 307.661818 36.863840 307.883636 36.698789 308.105455 36.542383 308.327273 36.394547 308.549091 36.255203 308.770909 36.124275 308.992727 36.001687 309.214545 35.887360 309.436364 35.781220 309.658182 35.683189 309.880000 35.593191 310.101818 35.511149 310.323636 35.436986 310.545455 35.370625 310.767273 35.311991 310.989091 35.261006 311.210909 35.217593 311.432727 35.181677 311.654545 35.153180 311.876364 35.132026 312.098182 35.118137 312.320000 35.111439 312.541818 35.111853 312.763636 35.119303 312.985455 35.133712 313.207273 35.155004 313.429091 35.183103 313.650909 35.217930 313.872727 35.259411 314.094545 35.307468 314.316364 35.362024 314.538182 35.423003 314.760000 35.490329 314.981818 35.563924 315.203636 35.643711 315.425455 35.729615 315.647273 35.821559 315.869091 35.919466 316.090909 36.023258 316.312727 36.132861 316.534545 36.248196 316.756364 36.369188 316.978182 36.495759 317.200000 36.627833 317.421818 36.765334 317.643636 36.908184 317.865455 37.056307 318.087273 37.209627 318.309091 37.368066 318.530909 37.531548 318.752727 37.699997 318.974545 37.873335 319.196364 38.051487 319.418182 38.234375 319.640000 38.421923 319.861818 38.614054 320.083636 38.810691 320.305455 39.011758 320.527273 39.217178 320.749091 39.426875 320.970909 39.640772 321.192727 39.858791 321.414545 40.080858 321.636364 40.306894 321.858182 40.536823 322.080000 40.770569 322.301818 41.008055 322.523636 41.249204 322.745455 41.493940 322.967273 41.742186 323.189091 41.993865 323.410909 42.248900 323.632727 42.507216 323.854545 42.768735 324.076364 43.033380 324.298182 43.301076 324.520000 43.571744 324.741818 43.845310 324.963636 44.121696 325.185455 44.400824 325.407273 44.682620 325.629091 44.967006 325.850909 45.253905 326.072727 45.543241 326.294545 45.834937 326.516364 46.128917 326.738182 46.425103 326.960000 46.723419 327.181818 47.023789 327.403636 47.326136 327.625455 47.630383 327.847273 47.936453 328.069091 48.244270 328.290909 48.553758 328.512727 48.864839 328.734545 49.177437 328.956364 49.491475 329.178182 49.806877 329.400000 50.123565 329.621818 50.441464 329.843636 50.760497 330.065455 51.080586 330.287273 51.401656 330.509091 51.723630 330.730909 52.046430 330.952727 52.369981 331.174545 52.694205 331.396364 53.019027 331.618182 53.344369 331.840000 53.670154 332.061818 53.996307 332.283636 54.322750 332.505455 54.649407 332.727273 54.976201 332.949091 55.303055 333.170909 55.629893 333.392727 55.956639 333.614545 56.283214 333.836364 56.609544 334.058182 56.935550 334.280000 57.261158 334.501818 57.586289 334.723636 57.910867 334.945455 58.234816 335.167273 58.558058 335.389091 58.880518 335.610909 59.202119 335.832727 59.522783 336.054545 59.842435 336.276364 60.160997 336.498182 60.478393 336.720000 60.794546 336.941818 61.109381 337.163636 61.422819 337.385455 61.734784 337.607273 62.045200 337.829091 62.353990 338.050909 62.661078 338.272727 62.966386 338.494545 63.269838 338.716364 63.571358 338.938182 63.870868 339.160000 64.168293 339.381818 64.463554 339.603636 64.756577 339.825455 65.047284 340.047273 65.335598 340.269091 65.621443 340.490909 65.904742 340.712727 66.185419 340.934545 66.463396 341.156364 66.738598 341.378182 67.010947 341.600000 67.280367 341.821818 67.546781 342.043636 67.810113 342.265455 68.070286 342.487273 68.327223 342.709091 68.580848 342.930909 68.831083 343.152727 69.077853 343.374545 69.321080 343.596364 69.560689 343.818182 69.796601 344.040000 70.028742 344.261818 70.257033 344.483636 70.481399 344.705455 70.701762 344.927273 70.918047 345.149091 71.130192 345.370909 71.338206 345.592727 71.542112 345.814545 71.741935 346.036364 71.937697 346.258182 72.129423 346.480000 72.317138 346.701818 72.500864 346.923636 72.680626 347.145455 72.856448 347.367273 73.028353 347.589091 73.196366 347.810909 73.360510 348.032727 73.520810 348.254545 73.677289 348.476364 73.829971 348.698182 73.978881 348.920000 74.124041 349.141818 74.265477 349.363636 74.403211 349.585455 74.537269 349.807273 74.667673 350.029091 74.794448 350.250909 74.917618 350.472727 75.037206 350.694545 75.153237 350.916364 75.265734 351.138182 75.374721 351.360000 75.480223 351.581818 75.582263 351.803636 75.680865 352.025455 75.776053 352.247273 75.867851 352.469091 75.956283 352.690909 76.041373 352.912727 76.123145 353.134545 76.201622 353.356364 76.276829 353.578182 76.348789 353.800000 76.417527 354.021818 76.483066 354.243636 76.545431 354.465455 76.604645 354.687273 76.660732 354.909091 76.713716 355.130909 76.763620 355.352727 76.810470 355.574545 76.854289 355.796364 76.895101 356.018182 76.932929 356.240000 76.967798 356.461818 76.999731 356.683636 77.028753 356.905455 77.054887 357.127273 77.078158 357.349091 77.098588 357.570909 77.116203 357.792727 77.131026 358.014545 77.143081 358.236364 77.152393 358.458182 77.158983 358.680000 77.162878 358.901818 77.164101 359.123636 77.162675 359.345455 77.158624 359.567273 77.151973 359.789091 77.142746 360.010909 77.130966 360.232727 77.116657 360.454545 77.099843 360.676364 77.080549 360.898182 77.058797 361.120000 77.034613 361.341818 77.008019 361.563636 76.979040 361.785455 76.947700 362.007273 76.914023 362.229091 76.878032 362.450909 76.839752 362.672727 76.799206 362.894545 76.756418 363.116364 76.711413 363.338182 76.664214 363.560000 76.614845 363.781818 76.563330 364.003636 76.509694 364.225455 76.453959 364.447273 76.396150 364.669091 76.336290 364.890909 76.274405 365.112727 76.210517 365.334545 76.144650 365.556364 76.076829 365.778182 76.007078 366.000000 75.935420 366.221818 75.861878 366.443636 75.786479 366.665455 75.709244 366.887273 75.630198 367.109091 75.549365 367.330909 75.466769 367.552727 75.382434 367.774545 75.296384 367.996364 75.208642 368.218182 75.119232 368.440000 75.028180 368.661818 74.935507 368.883636 74.841239 369.105455 74.745399 369.327273 74.648012 369.549091 74.549100 369.770909 74.448689 369.992727 74.346801 370.214545 74.243462 370.436364 74.138694 370.658182 74.032522 370.880000 73.924969 371.101818 73.816061 371.323636 73.705819 371.545455 73.594269 371.767273 73.481435 371.989091 73.367339 372.210909 73.252007 372.432727 73.135463 372.654545 73.017729 372.876364 72.898830 373.098182 72.778790 373.320000 72.657633 373.541818 72.535382 373.763636 72.412063 373.985455 72.287697 374.207273 72.162311 374.429091 72.035927 374.650909 71.908569 374.872727 71.780262 375.094545 71.651028 375.316364 71.520893 375.538182 71.389880 375.760000 71.258013 375.981818 71.125316 376.203636 70.991813 376.425455 70.857528 376.647273 70.722484 376.869091 70.586706 377.090909 70.450217 377.312727 70.313042 377.534545 70.175205 377.756364 70.036728 377.978182 69.897637 378.200000 69.757955 378.421818 69.617707 378.643636 69.476915 378.865455 69.335604 379.087273 69.193798 379.309091 69.051521 379.530909 68.908797 379.752727 68.765649 379.974545 68.622102 380.196364 68.478179 380.418182 68.333905 380.640000 68.189303 380.861818 68.044397 381.083636 67.899212 381.305455 67.753770 381.527273 67.608097 381.749091 67.462216 381.970909 67.316150 382.192727 67.169925 382.414545 67.023563 382.636364 66.877089 382.858182 66.730526 383.080000 66.583899 383.301818 66.437232 383.523636 66.290547 383.745455 66.143871 383.967273 65.997225 384.189091 65.850634 384.410909 65.704123 384.632727 65.557714 384.854545 65.411433 385.076364 65.265302 385.298182 65.119346 385.520000 64.973589 385.741818 64.828054 385.963636 64.682766 386.185455 64.537748 386.407273 64.393025 386.629091 64.248620 386.850909 64.104558 387.072727 63.960861 387.294545 63.817555 387.516364 63.674662 387.738182 63.532208 387.960000 63.390215 388.181818 63.248709 388.403636 63.107712 388.625455 62.967248 388.847273 62.827342 389.069091 62.688018 389.290909 62.549299 389.512727 62.411209 389.734545 62.273773 389.956364 62.137014 390.178182 62.000956 390.400000 61.865623 390.621818 61.731039 390.843636 61.597228 391.065455 61.464213 391.287273 61.332020 391.509091 61.200671 391.730909 61.070190 391.952727 60.940603 392.174545 60.811931 392.396364 60.684200 392.618182 60.557433 392.840000 60.431655 393.061818 60.306888 393.283636 60.183158 393.505455 60.060488 393.727273 59.938901 393.949091 59.818423 394.170909 59.699076 394.392727 59.580885 394.614545 59.463873 394.836364 59.348065 395.058182 59.233485 395.280000 59.120156 395.501818 59.008102 395.723636 58.897347 395.945455 58.787916 396.167273 58.679831 396.389091 58.573118 396.610909 58.467800 396.832727 58.363900 397.054545 58.261443 397.276364 58.160453 397.498182 58.060954 397.720000 57.962969 397.941818 57.866523 398.163636 57.771639 398.385455 57.678341 398.607273 57.586654 398.829091 57.496600 399.050909 57.408205 399.272727 57.321492 399.494545 57.236485 399.716364 57.153208 399.938182 57.071685 400.160000 56.991939 400.381818 56.913995 400.603636 56.837870 400.825455 56.763557 401.047273 56.691041 401.269091 56.620310 401.490909 56.551347 401.712727 56.484141 401.934545 56.418676 402.156364 56.354939 402.378182 56.292916 402.600000 56.232593 402.821818 56.173955 403.043636 56.116989 403.265455 56.061682 403.487273 56.008018 403.709091 55.955984 403.930909 55.905566 404.152727 55.856750 404.374545 55.809522 404.596364 55.763868 404.818182 55.719774 405.040000 55.677226 405.261818 55.636211 405.483636 55.596713 405.705455 55.558720 405.927273 55.522217 406.149091 55.487190 406.370909 55.453625 406.592727 55.421509 406.814545 55.390827 407.036364 55.361565 407.258182 55.333709 407.480000 55.307246 407.701818 55.282162 407.923636 55.258442 408.145455 55.236072 408.367273 55.215039 408.589091 55.195328 408.810909 55.176926 409.032727 55.159818 409.254545 55.143991 409.476364 55.129430 409.698182 55.116122 409.920000 55.104053 410.141818 55.093209 410.363636 55.083575 410.585455 55.075138 410.807273 55.067884 411.029091 55.061798 411.250909 55.056867 411.472727 55.053077 411.694545 55.050414 411.916364 55.048864 412.138182 55.048413 412.360000 55.049047 412.581818 55.050751 412.803636 55.053513 413.025455 55.057318 413.247273 55.062152 413.469091 55.068000 413.690909 55.074850 413.912727 55.082687 414.134545 55.091498 414.356364 55.101267 414.578182 55.111981 414.800000 55.123627 415.021818 55.136190 415.243636 55.149657 415.465455 55.164012 415.687273 55.179243 415.909091 55.195335 416.130909 55.212275 416.352727 55.230048 416.574545 55.248640 416.796364 55.268038 417.018182 55.288228 417.240000 55.309195 417.461818 55.330925 417.683636 55.353405 417.905455 55.376621 418.127273 55.400558 418.349091 55.425203 418.570909 55.450541 418.792727 55.476559 419.014545 55.503243 419.236364 55.530579 419.458182 55.558552 419.680000 55.587149 419.901818 55.616356 420.123636 55.646159 420.345455 55.676544 420.567273 55.707496 420.789091 55.739003 421.010909 55.771049 421.232727 55.803622 421.454545 55.836706 421.676364 55.870288 421.898182 55.904355 422.120000 55.938891 422.341818 55.973884 422.563636 56.009319 422.785455 56.045182 423.007273 56.081459 423.229091 56.118136 423.450909 56.155199 423.672727 56.192635 423.894545 56.230429 424.116364 56.268567 424.338182 56.307036 424.560000 56.345821 424.781818 56.384908 425.003636 56.424284 425.225455 56.463934 425.447273 56.503845 425.669091 56.544002 425.890909 56.584392 426.112727 56.625000 426.334545 56.665812 426.556364 56.706816 426.778182 56.747996 427.000000 56.789338 427.221818 56.830829 427.443636 56.872455 427.665455 56.914202 427.887273 56.956055 428.109091 56.998001 428.330909 57.040026 428.552727 57.082116 428.774545 57.124256 428.996364 57.166434 429.218182 57.208634 429.440000 57.250843 429.661818 57.293047 429.883636 57.335232 430.105455 57.377384 430.327273 57.419490 430.549091 57.461534 430.770909 57.503503 430.992727 57.545383 431.214545 57.587161 431.436364 57.628821 431.658182 57.670351 431.880000 57.711736 432.101818 57.752962 432.323636 57.794016 432.545455 57.834882 432.767273 57.875548 432.989091 57.916000 433.210909 57.956222 433.432727 57.996202 433.654545 58.035926 433.876364 58.075379 434.098182 58.114547 434.320000 58.153417 434.541818 58.191974 434.763636 58.230205 434.985455 58.268096 435.207273 58.305632 435.429091 58.342799 435.650909 58.379584 435.872727 58.415973 436.094545 58.451952 436.316364 58.487506 436.538182 58.522622 436.760000 58.557286 436.981818 58.591484 437.203636 58.625201 437.425455 58.658424 437.647273 58.691140 437.869091 58.723333 438.090909 58.754989 438.312727 58.786096 438.534545 58.816639 438.756364 58.846604 438.978182 58.875977 439.200000 58.904744 439.421818 58.932891 439.643636 58.960404 439.865455 58.987269 440.087273 59.013472 440.309091 59.039000 440.530909 59.063837 440.752727 59.087971 440.974545 59.111388 441.196364 59.134072 441.418182 59.156011 441.640000 59.177190 441.861818 59.197595 442.083636 59.217213 442.305455 59.236029 442.527273 59.254030 442.749091 59.271201 442.970909 59.287529 443.192727 59.302999 443.414545 59.317597 443.636364 59.331311 443.858182 59.344124 444.080000 59.356025 444.301818 59.366998 444.523636 59.377029 444.745455 59.386106 444.967273 59.394213 445.189091 59.401337 445.410909 59.407463 445.632727 59.412578 445.854545 59.416669 446.076364 59.419720 446.298182 59.421717 446.520000 59.422648 446.741818 59.422498 446.963636 59.421253 447.185455 59.418898 447.407273 59.415421 447.629091 59.410806 447.850909 59.405041 448.072727 59.398111 448.294545 59.390002 448.516364 59.380699 448.738182 59.370191 448.960000 59.358461 449.181818 59.345496 449.403636 59.331283 449.625455 59.315807 449.847273 59.299054 450.069091 59.281011 450.290909 59.261662 450.512727 59.240996 450.734545 59.218996 450.956364 59.195650 451.178182 59.170944 451.400000 59.144863 451.621818 59.117393 451.843636 59.088521 452.065455 59.058232 452.287273 59.026513 452.509091 58.993350 452.730909 58.958728 452.952727 58.922634 453.174545 58.885053 453.396364 58.845972 453.618182 58.805377 453.840000 58.763253 454.061818 58.719588 454.283636 58.674366 454.505455 58.627574 454.727273 58.579198 454.949091 58.529223 455.170909 58.477637 455.392727 58.424424 455.614545 58.369572 455.836364 58.313065 456.058182 58.254895 456.280000 58.195067 456.501818 58.133593 456.723636 58.070484 456.945455 58.005751 457.167273 57.939404 457.389091 57.871454 457.610909 57.801913 457.832727 57.730791 458.054545 57.658099 458.276364 57.583848 458.498182 57.508049 458.720000 57.430713 458.941818 57.351851 459.163636 57.271473 459.385455 57.189591 459.607273 57.106216 459.829091 57.021357 460.050909 56.935027 460.272727 56.847237 460.494545 56.757996 460.716364 56.667316 460.938182 56.575208 461.160000 56.481683 461.381818 56.386752 461.603636 56.290425 461.825455 56.192714 462.047273 56.093629 462.269091 55.993181 462.490909 55.891382 462.712727 55.788241 462.934545 55.683771 463.156364 55.577982 463.378182 55.470884 463.600000 55.362490 463.821818 55.252808 464.043636 55.141852 464.265455 55.029631 464.487273 54.916156 464.709091 54.801438 464.930909 54.685489 465.152727 54.568319 465.374545 54.449938 465.596364 54.330359 465.818182 54.209591 466.040000 54.087646 466.261818 53.964534 466.483636 53.840267 466.705455 53.714856 466.927273 53.588310 467.149091 53.460642 467.370909 53.331862 467.592727 53.201981 467.814545 53.071010 468.036364 52.938960 468.258182 52.805841 468.480000 52.671665 468.701818 52.536443 468.923636 52.400185 469.145455 52.262902 469.367273 52.124606 469.589091 51.985307 469.810909 51.845015 470.032727 51.703743 470.254545 51.561501 470.476364 51.418299 470.698182 51.274149 470.920000 51.129061 471.141818 50.983047 471.363636 50.836118 471.585455 50.688283 471.807273 50.539555 472.029091 50.389944 472.250909 50.239461 472.472727 50.088117 472.694545 49.935922 472.916364 49.782889 473.138182 49.629027 473.360000 49.474347 473.581818 49.318861 473.803636 49.162579 474.025455 49.005512 474.247273 48.847672 474.469091 48.689068 474.690909 48.529713 474.912727 48.369616 475.134545 48.208789 475.356364 48.047243 475.578182 47.884988 475.800000 47.722036 476.021818 47.558397 476.243636 47.394082 476.465455 47.229102 476.687273 47.063469 476.909091 46.897192 477.130909 46.730284 477.352727 46.562754 477.574545 46.394614 477.796364 46.225874 478.018182 46.056546 478.240000 45.886641 478.461818 45.716168 478.683636 45.545140 478.905455 45.373567 479.127273 45.201460 479.349091 45.028830 479.570909 44.855688 479.792727 44.682044 480.014545 44.507910 480.236364 44.333297 480.458182 44.158215 480.680000 43.982675 480.901818 43.806689 481.123636 43.630266 481.345455 43.453419 481.567273 43.276158 481.789091 43.098494 482.010909 42.920437 482.232727 42.741999 482.454545 42.563191 482.676364 42.384023 482.898182 42.204506 483.120000 42.024652 483.341818 41.844471 483.563636 41.663974 483.785455 41.483172 484.007273 41.302076 484.229091 41.120697 484.450909 40.939046 484.672727 40.757133 484.894545 40.574969 485.116364 40.392566 485.338182 40.209935 485.560000 40.027085 485.781818 39.844029 486.003636 39.660777 486.225455 39.477340 486.447273 39.293728 486.669091 39.109954 486.890909 38.926027 487.112727 38.741958 487.334545 38.557759 487.556364 38.373440 487.778182 38.189013 488.000000 38.004488 488.221818 37.819876 488.443636 37.635188 488.665455 37.450434 488.887273 37.265627 489.109091 37.080776 489.330909 36.895893 489.552727 36.710988 489.774545 36.526073 489.996364 36.341158 490.218182 36.156255 490.440000 35.971373 490.661818 35.786524 490.883636 35.601720 491.105455 35.416970 491.327273 35.232286 491.549091 35.047678 491.770909 34.863159 491.992727 34.678737 492.214545 34.494425 492.436364 34.310233 492.658182 34.126173 492.880000 33.942254 493.101818 33.758488 493.323636 33.574887 493.545455 33.391460 493.767273 33.208218 493.989091 33.025173 494.210909 32.842336 494.432727 32.659717 494.654545 32.477328 494.876364 32.295178 495.098182 32.113280 495.320000 31.931644 495.541818 31.750281 495.763636 31.569201 495.985455 31.388416 496.207273 31.207937 496.429091 31.027775 496.650909 30.847939 496.872727 30.668442 497.094545 30.489295 497.316364 30.310507 497.538182 30.132091 497.760000 29.954056 497.981818 29.776415 498.203636 29.599177 498.425455 29.422354 498.647273 29.245956 498.869091 29.069995 499.090909 28.894481 499.312727 28.719426 499.534545 28.544839 499.756364 28.370733 499.978182 28.197118 500.200000 28.024004 500.421818 27.851404 500.643636 27.679327 500.865455 27.507785 501.087273 27.336788 501.309091 27.166348 501.530909 26.996475 501.752727 26.827180 501.974545 26.658474 502.196364 26.490369 502.418182 26.322874 502.640000 26.156001 502.861818 25.989761 503.083636 25.824165 503.305455 25.659223 503.527273 25.494947 503.749091 25.331346 503.970909 25.168434 504.192727 25.006219 504.414545 24.844714 504.636364 24.683928 504.858182 24.523873 505.080000 24.364560 505.301818 24.206000 505.523636 24.048204 505.745455 23.891181 505.967273 23.734945 506.189091 23.579504 506.410909 23.424871 506.632727 23.271056 506.854545 23.118070 507.076364 22.965924 507.298182 22.814628 507.520000 22.664195 507.741818 22.514634 507.963636 22.365957 508.185455 22.218174 508.407273 22.071296 508.629091 21.925335 508.850909 21.780300 509.072727 21.636204 509.294545 21.493057 509.516364 21.350870 509.738182 21.209653 509.960000 21.069418 510.181818 20.930176 510.403636 20.791937 510.625455 20.654712 510.847273 20.518513 511.069091 20.383350 511.290909 20.249234 511.512727 20.116174 511.734545 19.984168 511.956364 19.853213 512.178182 19.723306 512.400000 19.594442 512.621818 19.466618 512.843636 19.339831 513.065455 19.214078 513.287273 19.089353 513.509091 18.965655 513.730909 18.842979 513.952727 18.721322 514.174545 18.600680 514.396364 18.481050 514.618182 18.362429 514.840000 18.244811 515.061818 18.128195 515.283636 18.012577 515.505455 17.897952 515.727273 17.784318 515.949091 17.671671 516.170909 17.560007 516.392727 17.449323 516.614545 17.339615 516.836364 17.230880 517.058182 17.123113 517.280000 17.016312 517.501818 16.910474 517.723636 16.805593 517.945455 16.701668 518.167273 16.598693 518.389091 16.496667 518.610909 16.395584 518.832727 16.295443 519.054545 16.196238 519.276364 16.097967 519.498182 16.000625 519.720000 15.904211 519.941818 15.808718 520.163636 15.714146 520.385455 15.620489 520.607273 15.527744 520.829091 15.435907 521.050909 15.344976 521.272727 15.254946 521.494545 15.165814 521.716364 15.077577 521.938182 14.990230 522.160000 14.903771 522.381818 14.818195 522.603636 14.733500 522.825455 14.649681 523.047273 14.566735 523.269091 14.484658 523.490909 14.403448 523.712727 14.323100 523.934545 14.243610 524.156364 14.164976 524.378182 14.087194 524.600000 14.010259 524.821818 13.934169 525.043636 13.858921 525.265455 13.784509 525.487273 13.710932 525.709091 13.638185 525.930909 13.566265 526.152727 13.495168 526.374545 13.424890 526.596364 13.355429 526.818182 13.286780 527.040000 13.218941 527.261818 13.151906 527.483636 13.085674 527.705455 13.020240 527.927273 12.955601 528.149091 12.891753 528.370909 12.828692 528.592727 12.766416 528.814545 12.704920 529.036364 12.644201 529.258182 12.584256 529.480000 12.525081 529.701818 12.466671 529.923636 12.409025 530.145455 12.352138 530.367273 12.296006 530.589091 12.240627 530.810909 12.185996 531.032727 12.132110 531.254545 12.078965 531.476364 12.026559 531.698182 11.974886 531.920000 11.923945 532.141818 11.873730 532.363636 11.824239 532.585455 11.775468 532.807273 11.727414 533.029091 11.680073 533.250909 11.633441 533.472727 11.587515 533.694545 11.542291 533.916364 11.497766 534.138182 11.453936 534.360000 11.410798 534.581818 11.368348 534.803636 11.326582 535.025455 11.285497 535.247273 11.245090 535.469091 11.205356 535.690909 11.166293 535.912727 11.127896 536.134545 11.090163 536.356364 11.053089 536.578182 11.016671 536.800000 10.980906 537.021818 10.945790 537.243636 10.911319 537.465455 10.877489 537.687273 10.844298 537.909091 10.811742 538.130909 10.779817 538.352727 10.748520 538.574545 10.717846 538.796364 10.687793 539.018182 10.658357 539.240000 10.629534 539.461818 10.601321 539.683636 10.573715 539.905455 10.546711 540.127273 10.520306 540.349091 10.494496 540.570909 10.469279 540.792727 10.444650 541.014545 10.420606 541.236364 10.397144 541.458182 10.374259 541.680000 10.351948 541.901818 10.330208 542.123636 10.309035 542.345455 10.288426 542.567273 10.268377 542.789091 10.248884 543.010909 10.229944 543.232727 10.211553 543.454545 10.193709 543.676364 10.176406 543.898182 10.159642 544.120000 10.143413 544.341818 10.127716 544.563636 10.112546 544.785455 10.097901 545.007273 10.083777 545.229091 10.070171 545.450909 10.057078 545.672727 10.044495 545.894545 10.032419 546.116364 10.020845 546.338182 10.009772 546.560000 9.999194 546.781818 9.989109 547.003636 9.979513 547.225455 9.970402 547.447273 9.961772 547.669091 9.953621 547.890909 9.945945 548.112727 9.938739 548.334545 9.932002 548.556364 9.925728 548.778182 9.919914 549.000000 9.914557 549.221818 9.909654 549.443636 9.905200 549.665455 9.901193 549.887273 9.897628 550.109091 9.894502 550.330909 9.891811 550.552727 9.889553 550.774545 9.887723 550.996364 9.886318 551.218182 9.885334 551.440000 9.884767 551.661818 9.884615 551.883636 9.884874 552.105455 9.885539 552.327273 9.886608 552.549091 9.888077 552.770909 9.889943 552.992727 9.892201 553.214545 9.894848 553.436364 9.897881 553.658182 9.901296 553.880000 9.905090 554.101818 9.909259 554.323636 9.913799 554.545455 9.918708 554.767273 9.923980 554.989091 9.929613 555.210909 9.935604 555.432727 9.941948 555.654545 9.948643 555.876364 9.955684 556.098182 9.963068 556.320000 9.970791 556.541818 9.978850 556.763636 9.987242 556.985455 9.995962 557.207273 10.005008 557.429091 10.014375 557.650909 10.024061 557.872727 10.034061 558.094545 10.044372 558.316364 10.054990 558.538182 10.065912 558.760000 10.077135 558.981818 10.088654 559.203636 10.100467 559.425455 10.112569 559.647273 10.124958 559.869091 10.137629 560.090909 10.150578 560.312727 10.163804 560.534545 10.177301 560.756364 10.191066 560.978182 10.205097 561.200000 10.219388 561.421818 10.233937 561.643636 10.248740 561.865455 10.263794 562.087273 10.279094 562.309091 10.294638 562.530909 10.310422 562.752727 10.326442 562.974545 10.342695 563.196364 10.359177 563.418182 10.375885 563.640000 10.392815 563.861818 10.409963 564.083636 10.427327 564.305455 10.444901 564.527273 10.462684 564.749091 10.480670 564.970909 10.498858 565.192727 10.517243 565.414545 10.535821 565.636364 10.554589 565.858182 10.573544 566.080000 10.592682 566.301818 10.611999 566.523636 10.631492 566.745455 10.651157 566.967273 10.670991 567.189091 10.690994 567.410909 10.711163 567.632727 10.731500 567.854545 10.752002 568.076364 10.772670 568.298182 10.793503 568.520000 10.814499 568.741818 10.835659 568.963636 10.856981 569.185455 10.878466 569.407273 10.900111 569.629091 10.921918 569.850909 10.943884 570.072727 10.966009 570.294545 10.988293 570.516364 11.010735 570.738182 11.033334 570.960000 11.056090 571.181818 11.079002 571.403636 11.102069 571.625455 11.125290 571.847273 11.148665 572.069091 11.172194 572.290909 11.195875 572.512727 11.219707 572.734545 11.243691 572.956364 11.267826 573.178182 11.292110 573.400000 11.316543 573.621818 11.341125 573.843636 11.365855 574.065455 11.390732 574.287273 11.415755 574.509091 11.440924 574.730909 11.466238 574.952727 11.491696 575.174545 11.517298 575.396364 11.543044 575.618182 11.568931 575.840000 11.594961 576.061818 11.621131 576.283636 11.647442 576.505455 11.673892 576.727273 11.700482 576.949091 11.727210 577.170909 11.754075 577.392727 11.781078 577.614545 11.808216 577.836364 11.835491 578.058182 11.862900 578.280000 11.890444 578.501818 11.918121 578.723636 11.945931 578.945455 11.973874 579.167273 12.001948 579.389091 12.030153 579.610909 12.058488 579.832727 12.086953 580.054545 12.115547 580.276364 12.144269 580.498182 12.173118 580.720000 12.202095 580.941818 12.231197 581.163636 12.260425 581.385455 12.289778 581.607273 12.319255 581.829091 12.348856 582.050909 12.378579 582.272727 12.408425 582.494545 12.438392 582.716364 12.468480 582.938182 12.498688 583.160000 12.529015 583.381818 12.559461 583.603636 12.590025 583.825455 12.620707 584.047273 12.651505 584.269091 12.682420 584.490909 12.713450 584.712727 12.744594 584.934545 12.775853 585.156364 12.807225 585.378182 12.838710 585.600000 12.870307 585.821818 12.902015 586.043636 12.933833 586.265455 12.965762 586.487273 12.997800 586.709091 13.029947 586.930909 13.062202 587.152727 13.094564 587.374545 13.127032 587.596364 13.159607 587.818182 13.192287 588.040000 13.225071 588.261818 13.257959 588.483636 13.290951 588.705455 13.324045 588.927273 13.357241 589.149091 13.390539 589.370909 13.423937 589.592727 13.457434 589.814545 13.491031 590.036364 13.524727 590.258182 13.558520 590.480000 13.592411 590.701818 13.626398 590.923636 13.660480 591.145455 13.694658 591.367273 13.728931 591.589091 13.763297 591.810909 13.797756 592.032727 13.832308 592.254545 13.866952 592.476364 13.901687 592.698182 13.936512 592.920000 13.971427 593.141818 14.006431 593.363636 14.041523 593.585455 14.076703 593.807273 14.111970 594.029091 14.147324 594.250909 14.182763 594.472727 14.218287 594.694545 14.253896 594.916364 14.289588 595.138182 14.325363 595.360000 14.361221 595.581818 14.397160 595.803636 14.433181 596.025455 14.469281 596.247273 14.505461 596.469091 14.541721 596.690909 14.578058 596.912727 14.614473 597.134545 14.650965 597.356364 14.687533 597.578182 14.724177 597.800000 14.760896 598.021818 14.797689 598.243636 14.834555 598.465455 14.871495 598.687273 14.908506 598.909091 14.945589 599.130909 14.982743 599.352727 15.019968 599.574545 15.057261 599.796364 15.094624 600.018182 15.132055 600.240000 15.169553 600.461818 15.207118 600.683636 15.244749 600.905455 15.282445 601.127273 15.320207 601.349091 15.358032 601.570909 15.395921 601.792727 15.433873 602.014545 15.471886 602.236364 15.509961 602.458182 15.548097 602.680000 15.586293 602.901818 15.624549 603.123636 15.662863 603.345455 15.701235 603.567273 15.739664 603.789091 15.778150 604.010909 15.816692 604.232727 15.855290 604.454545 15.893942 604.676364 15.932648 604.898182 15.971407 605.120000 16.010220 605.341818 16.049084 605.563636 16.087999 605.785455 16.126965 606.007273 16.165981 606.229091 16.205046 606.450909 16.244159 606.672727 16.283321 606.894545 16.322530 607.116364 16.361785 607.338182 16.401087 607.560000 16.440433 607.781818 16.479824 608.003636 16.519259 608.225455 16.558737 608.447273 16.598258 608.669091 16.637820 608.890909 16.677424 609.112727 16.717068 609.334545 16.756752 609.556364 16.796475 609.778182 16.836237 610.000000 16.876036 610.221818 16.915873 610.443636 16.955745 610.665455 16.995654 610.887273 17.035598 611.109091 17.075576 611.330909 17.115588 611.552727 17.155633 611.774545 17.195710 611.996364 17.235819 612.218182 17.275959 612.440000 17.316130 612.661818 17.356330 612.883636 17.396559 613.105455 17.436817 613.327273 17.477102 613.549091 17.517414 613.770909 17.557753 613.992727 17.598117 614.214545 17.638506 614.436364 17.678920 614.658182 17.719357 614.880000 17.759817 615.101818 17.800299 615.323636 17.840803 615.545455 17.881328 615.767273 17.921873 615.989091 17.962437 616.210909 18.003021 616.432727 18.043622 616.654545 18.084242 616.876364 18.124878 617.098182 18.165530 617.320000 18.206198 617.541818 18.246881 617.763636 18.287578 617.985455 18.328288 618.207273 18.369011 618.429091 18.409746 618.650909 18.450493 618.872727 18.491251 619.094545 18.532019 619.316364 18.572796 619.538182 18.613582 619.760000 18.654376 619.981818 18.695177 620.203636 18.735985 620.425455 18.776800 620.647273 18.817619 620.869091 18.858444 621.090909 18.899272 621.312727 18.940104 621.534545 18.980939 621.756364 19.021775 621.978182 19.062613 622.200000 19.103452 622.200000 514.000000" /></g></g><g class="titles"><text class="title plot_title" x="400.0" y="26">2553 summary</text></g><g class="plot overlay" transform="translate(145, 46)"><g class="series serie-0 color-0"><g class="dots"><circle class="dot reactive tooltip-trigger" cx="12.2" cy="79.23821359850996" r="2.5" /><desc class="value">12355949</desc><desc class="x ">12.2</desc><desc class="y ">79.23821359850996</desc><desc class="x_label">Jan</desc></g><g class="dots"><circle class="dot reactive tooltip-trigger" cx="67.65454545454546" cy="114.84876436430005" r="2.5" /><desc class="value">11862466</desc><desc class="x ">67.65454545454546</desc><desc class="y ">114.84876436430005</desc><desc class="x_label">Feb</desc></g><g class="dots"><circle class="dot reactive tooltip-trigger" cx="123.1090909090909" cy="30.34421725421788" r="2.5" /><desc class="value">13033511</desc><desc class="x ">123.1090909090909</desc><desc class="y ">30.34421725421788</desc><desc class="x_label">Mar</desc></g><g class="dots"><circle class="dot reactive tooltip-trigger" cx="178.56363636363636" cy="285.2662376356089" r="2.5" /><desc class="value">9500859</desc><desc class="x top">178.56363636363636</desc><desc class="y top">285.2662376356089</desc><desc class="x_label">Apr</desc></g><g class="dots"><circle class="dot reactive tooltip-trigger" cx="234.01818181818183" cy="490.8497458682784" r="2.5" /><desc class="value">6651929</desc><desc class="x top">234.01818181818183</desc><desc class="y top">490.8497458682784</desc><desc class="x_label">May</desc></g><g class="dots"><circle class="dot reactive tooltip-trigger" cx="289.47272727272724" cy="87.12396726608267" r="2.5" /><desc class="value">12246670</desc><desc class="x ">289.47272727272724</desc><desc class="y ">87.12396726608267</desc><desc class="x_label">Jun</desc></g><g class="dots"><circle class="dot reactive tooltip-trigger" cx="344.9272727272727" cy="70.91804675842661" r="2.5" /><desc class="value">12471248</desc><desc class="x left">344.9272727272727</desc><desc class="y left">70.91804675842661</desc><desc class="x_label">Jul</desc></g><g class="dots"><circle class="dot reactive tooltip-trigger" cx="400.3818181818181" cy="56.9139948774843" r="2.5" /><desc class="value">12665313</desc><desc class="x left">400.3818181818181</desc><desc class="y left">56.9139948774843</desc><desc class="x_label">Aug</desc></g><g class="dots"><circle class="dot reactive tooltip-trigger" cx="455.8363636363636" cy="58.313065074932126" r="2.5" /><desc class="value">12645925</desc><desc class="x left">455.8363636363636</desc><desc class="y left">58.313065074932126</desc><desc class="x_label">Sep</desc></g><g class="dots"><circle class="dot reactive tooltip-trigger" cx="511.2909090909091" cy="20.24923447096205" r="2.5" /><desc class="value">13173405</desc><desc class="x left">511.2909090909091</desc><desc class="y left">20.24923447096205</desc><desc class="x_label">Oct</desc></g><g class="dots"><circle class="dot reactive tooltip-trigger" cx="566.7454545454545" cy="10.651156854800547" r="2.5" /><desc class="value">13306413</desc><desc class="x left">566.7454545454545</desc><desc class="y left">10.651156854800547</desc><desc class="x_label">Nov</desc></g><g class="dots"><circle class="dot reactive tooltip-trigger" cx="622.1999999999999" cy="19.103451688051166" r="2.5" /><desc class="value">13189283</desc><desc class="x left">622.1999999999999</desc><desc class="y left">19.103451688051166</desc><desc class="x_label">Dec</desc></g></g></g><g class="plot text-overlay" transform="translate(145, 46)"><g class="series serie-0 color-0" /></g><g class="plot tooltip-overlay" transform="translate(145, 46)"><g class="tooltip" style="opacity: 0" transform="translate(0 0)"><rect class="tooltip-box" height="0" rx="0" ry="0" width="0" /><g class="text" /></g></g><g class="legends" transform="translate(10, 56)"><g class="legend reactive activate-serie" id="activate-serie-0"><rect class="color-0 reactive" height="12" width="12" x="0.0" y="1.0" /><text x="17.0" y="11.2">2553</text></g></g><g class="legends" transform="translate(790, 56)" /></g></svg>