<?xml version='1.0' encoding='utf-8'?>
<svg xmlns:xlink="http://www.w3.org/1999/xlink" class="pygal-chart" id="chart-47cf1396-e4ad-4764-9d1e-7c5f31bab446" viewBox="0 0 800 600" xmlns="http://www.w3.org/2000/svg"><!--Generated with pygal 2.0.11 (etree) ©Kozea 2011-2015 on 2015-12-10--><!--http://pygal.org--><!--http://github.com/Kozea/pygal--><defs><style type="text/css">#chart-47cf1396-e4ad-4764-9d1e-7c5f31bab446{-webkit-user-select:none;-webkit-font-smoothing:antialiased;font-family:Consolas,"Liberation Mono",Menlo,Courier,monospace}#chart-47cf1396-e4ad-4764-9d1e-7c5f31bab446 .title{font-family:Consolas,"Liberation Mono",Menlo,Courier,monospace;font-size:16px}#chart-47cf1396-e4ad-4764-9d1e-7c5f31bab446 .legends .legend text{font-family:Consolas,"Liberation Mono",Menlo,Courier,monospace;font-size:14px}#chart-47cf1396-e4ad-4764-9d1e-7c5f31bab446 .axis text{font-family:Consolas,"Liberation Mono",Menlo,Courier,monospace;font-size:10px}#chart-47cf1396-e4ad-4764-9d1e-7c5f31bab446 .axis text.major{font-family:Consolas,"Liberation Mono",Menlo,Courier,monospace;font-size:10px}#chart-47cf1396-e4ad-4764-9d1e-7c5f31bab446 .text-overlay text.value{font-family:Consolas,"Liberation Mono",Menlo,Courier,monospace;font-size:16px}#chart-47cf1396-e4ad-4764-9d1e-7c5f31bab446 .text-overlay text.label{font-family:Consolas,"Liberation Mono",Menlo,Courier,monospace;font-size:10px}#chart-47cf1396-e4ad-4764-9d1e-7c5f31bab446 .tooltip{font-family:Consolas,"Liberation Mono",Menlo,Courier,monospace;font-size:14px}#chart-47cf1396-e4ad-4764-9d1e-7c5f31bab446 text.no_data{font-family:Consolas,"Liberation Mono",Menlo,Courier,monospace;font-size:64px}
#chart-47cf1396-e4ad-4764-9d1e-7c5f31bab446{background-color:black}#chart-47cf1396-e4ad-4764-9d1e-7c5f31bab446 path,#chart-47cf1396-e4ad-4764-9d1e-7c5f31bab446 line,#chart-47cf1396-e4ad-4764-9d1e-7c5f31bab446 rect,#chart-47cf1396-e4ad-4764-9d1e-7c5f31bab446 circle{-webkit-transition:250ms;-moz-transition:250ms;transition:250ms}#chart-47cf1396-e4ad-4764-9d1e-7c5f31bab446 .graph &gt; .background{fill:black}#chart-47cf1396-e4ad-4764-9d1e-7c5f31bab446 .plot &gt; .background{fill:#111}#chart-47cf1396-e4ad-4764-9d1e-7c5f31bab446 .graph{fill:#999}#chart-47cf1396-e4ad-4764-9d1e-7c5f31bab446 text.no_data{fill:#eee}#chart-47cf1396-e4ad-4764-9d1e-7c5f31bab446 .title{fill:#eee}#chart-47cf1396-e4ad-4764-9d1e-7c5f31bab446 .legends .legend text{fill:#999}#chart-47cf1396-e4ad-4764-9d1e-7c5f31bab446 .legends .legend:hover text{fill:#eee}#chart-47cf1396-e4ad-4764-9d1e-7c5f31bab446 .axis .line{stroke:#eee}#chart-47cf1396-e4ad-4764-9d1e-7c5f31bab446 .axis .guide.line{stroke:#555}#chart-47cf1396-e4ad-4764-9d1e-7c5f31bab446 .axis .major.line{stroke:#999}#chart-47cf1396-e4ad-4764-9d1e-7c5f31bab446 .axis text.major{fill:#eee}#chart-47cf1396-e4ad-4764-9d1e-7c5f31bab446 .axis.y .guides:hover .guide.line,#chart-47cf1396-e4ad-4764-9d1e-7c5f31bab446 .line-graph .axis.x .guides:hover .guide.line,#chart-47cf1396-e4ad-4764-9d1e-7c5f31bab446 .stackedline-graph .axis.x .guides:hover .guide.line,#chart-47cf1396-e4ad-4764-9d1e-7c5f31bab446 .xy-graph .axis.x .guides:hover .guide.line{stroke:#eee}#chart-47cf1396-e4ad-4764-9d1e-7c5f31bab446 .axis .guides:hover text{fill:#eee}#chart-47cf1396-e4ad-4764-9d1e-7c5f31bab446 .reactive{fill-opacity:.8}#chart-47cf1396-e4ad-4764-9d1e-7c5f31bab446 .reactive.active,#chart-47cf1396-e4ad-4764-9d1e-7c5f31bab446 .active .reactive{fill-opacity:.4;stroke-width:4}#chart-47cf1396-e4ad-4764-9d1e-7c5f31bab446 .series text{fill:#eee}#chart-47cf1396-e4ad-4764-9d1e-7c5f31bab446 .tooltip rect{fill:#111;stroke:#eee;-webkit-transition:opacity 250ms;-moz-transition:opacity 250ms;transition:opacity 250ms}#chart-47cf1396-e4ad-4764-9d1e-7c5f31bab446 .tooltip .label{fill:#999}#chart-47cf1396-e4ad-4764-9d1e-7c5f31bab446 .tooltip .label{fill:#999}#chart-47cf1396-e4ad-4764-9d1e-7c5f31bab446 .tooltip .legend{font-size:.8em;fill:#555}#chart-47cf1396-e4ad-4764-9d1e-7c5f31bab446 .tooltip .x_label{font-size:.6em;fill:#eee}#chart-47cf1396-e4ad-4764-9d1e-7c5f31bab446 .tooltip .xlink{font-size:.5em;text-decoration:underline}#chart-47cf1396-e4ad-4764-9d1e-7c5f31bab446 .tooltip .value{font-size:1.5em}#chart-47cf1396-e4ad-4764-9d1e-7c5f31bab446 .map-element{fill:#111;stroke:#555 !important}#chart-47cf1396-e4ad-4764-9d1e-7c5f31bab446 .map-element .reactive{fill-opacity:inherit}#chart-47cf1396-e4ad-4764-9d1e-7c5f31bab446 .color-0,#chart-47cf1396-e4ad-4764-9d1e-7c5f31bab446 .color-0 a:visited{stroke:#ff5995;fill:#ff5995}#chart-47cf1396-e4ad-4764-9d1e-7c5f31bab446 .text-overlay .color-0 text{fill:black}
#chart-47cf1396-e4ad-4764-9d1e-7c5f31bab446 text.no_data{text-anchor:middle}#chart-47cf1396-e4ad-4764-9d1e-7c5f31bab446 .guide.line{fill:none}#chart-47cf1396-e4ad-4764-9d1e-7c5f31bab446 .centered{text-anchor:middle}#chart-47cf1396-e4ad-4764-9d1e-7c5f31bab446 .title{text-anchor:middle}#chart-47cf1396-e4ad-4764-9d1e-7c5f31bab446 .legends .legend text{fill-opacity:1}#chart-47cf1396-e4ad-4764-9d1e-7c5f31bab446 .axis.x text{text-anchor:middle}#chart-47cf1396-e4ad-4764-9d1e-7c5f31bab446 .axis.x:not(.web) text[transform]{text-anchor:start}#chart-47cf1396-e4ad-4764-9d1e-7c5f31bab446 .axis.x:not(.web) text[transform].backwards{text-anchor:end}#chart-47cf1396-e4ad-4764-9d1e-7c5f31bab446 .axis.y text{text-anchor:end}#chart-47cf1396-e4ad-4764-9d1e-7c5f31bab446 .axis.y text[transform].backwards{text-anchor:start}#chart-47cf1396-e4ad-4764-9d1e-7c5f31bab446 .axis.y2 text{text-anchor:start}#chart-47cf1396-e4ad-4764-9d1e-7c5f31bab446 .axis.y2 text[transform].backwards{text-anchor:end}#chart-47cf1396-e4ad-4764-9d1e-7c5f31bab446 .axis .guide.line{stroke-dasharray:4,4}#chart-47cf1396-e4ad-4764-9d1e-7c5f31bab446 .axis .major.guide.line{stroke-dasharray:6,6}#chart-47cf1396-e4ad-4764-9d1e-7c5f31bab446 .horizontal .axis.y .guide.line,#chart-47cf1396-e4ad-4764-9d1e-7c5f31bab446 .horizontal .axis.y2 .guide.line,#chart-47cf1396-e4ad-4764-9d1e-7c5f31bab446 .vertical .axis.x .guide.line{opacity:0}#chart-47cf1396-e4ad-4764-9d1e-7c5f31bab446 .horizontal .axis.always_show .guide.line,#chart-47cf1396-e4ad-4764-9d1e-7c5f31bab446 .vertical .axis.always_show .guide.line{opacity:1 !important}#chart-47cf1396-e4ad-4764-9d1e-7c5f31bab446 .axis.y .guides:hover .guide.line,#chart-47cf1396-e4ad-4764-9d1e-7c5f31bab446 .axis.y2 .guides:hover .guide.line,#chart-47cf1396-e4ad-4764-9d1e-7c5f31bab446 .axis.x .guides:hover .guide.line{opacity:1}#chart-47cf1396-e4ad-4764-9d1e-7c5f31bab446 .axis .guides:hover text{opacity:1}#chart-47cf1396-e4ad-4764-9d1e-7c5f31bab446 .nofill{fill:none}#chart-47cf1396-e4ad-4764-9d1e-7c5f31bab446 .subtle-fill{fill-opacity:.2}#chart-47cf1396-e4ad-4764-9d1e-7c5f31bab446 .dot{stroke-width:1px;fill-opacity:1}#chart-47cf1396-e4ad-4764-9d1e-7c5f31bab446 .dot.active{stroke-width:5px}#chart-47cf1396-e4ad-4764-9d1e-7c5f31bab446 .dot.negative{fill:transparent}#chart-47cf1396-e4ad-4764-9d1e-7c5f31bab446 text,#chart-47cf1396-e4ad-4764-9d1e-7c5f31bab446 tspan{stroke:none !important}#chart-47cf1396-e4ad-4764-9d1e-7c5f31bab446 .series text.active{opacity:1}#chart-47cf1396-e4ad-4764-9d1e-7c5f31bab446 .tooltip rect{fill-opacity:.95;stroke-width:.5}#chart-47cf1396-e4ad-4764-9d1e-7c5f31bab446 .tooltip text{fill-opacity:1}#chart-47cf1396-e4ad-4764-9d1e-7c5f31bab446 .showable{visibility:hidden}#chart-47cf1396-e4ad-4764-9d1e-7c5f31bab446 .showable.shown{visibility:visible}</style><script type="text/javascript">window.pygal = window.pygal || {};window.pygal.config = window.pygal.config || {};window.pygal.config['47cf1396-e4ad-4764-9d1e-7c5f31bab446'] = {"x_labels_major_count": null, "max_scale": 16, "force_uri_protocol": null, "box_mode": "extremes", "human_readable": false, "rounded_bars": null, "show_dots": true, "title": "2554 summary", "interpolation_precision": 250, "inverse_y_axis": false, "y_label_rotation": 0, "tooltip_border_radius": 0, "legends": ["2554"], "margin": 20, "x_labels_major": null, "show_only_major_dots": false, "spacing": 10, "legend_box_size": 12, "include_x_axis": false, "show_legend": true, "print_values": false, "print_zeroes": true, "pretty_print": false, "range": null, "secondary_range": null, "show_minor_x_labels": true, "legend_at_bottom_columns": null, "strict": false, "half_pie": false, "margin_right": null, "inner_radius": 0, "x_title": null, "dynamic_print_values": false, "value_formatter": null, "print_labels": false, "min_scale": 4, "interpolate": "cubic", "order_min": null, "y_labels_major_every": null, "interpolation_parameters": {}, "stroke_style": null, "style": {"no_data_font_size": 64, "legend_font_family": "Consolas, \"Liberation Mono\", Menlo, Courier, monospace", "value_font_size": 16, "plot_background": "#111", "title_font_family": "Consolas, \"Liberation Mono\", Menlo, Courier, monospace", "major_guide_stroke_dasharray": "6,6", "opacity": ".8", "title_font_size": 16, "font_family": "Consolas, \"Liberation Mono\", Menlo, Courier, monospace", "label_font_size": 10, "major_label_font_size": 10, "colors": ["#ff5995", "#b6e354", "#feed6c", "#8cedff", "#9e6ffe", "#899ca1", "#f8f8f2", "#bf4646", "#516083", "#f92672", "#82b414", "#fd971f", "#56c2d6", "#808384", "#8c54fe", "#465457"], "tooltip_font_size": 14, "transition": "250ms", "value_colors": [], "value_font_family": "Consolas, \"Liberation Mono\", Menlo, Courier, monospace", "value_label_font_family": "Consolas, \"Liberation Mono\", Menlo, Courier, monospace", "foreground_subtle": "#555", "foreground_strong": "#eee", "legend_font_size": 14, "background": "black", "tooltip_font_family": "Consolas, \"Liberation Mono\", Menlo, Courier, monospace", "opacity_hover": ".4", "guide_stroke_dasharray": "4,4", "major_label_font_family": "Consolas, \"Liberation Mono\", Menlo, Courier, monospace", "label_font_family": "Consolas, \"Liberation Mono\", Menlo, Courier, monospace", "no_data_font_family": "Consolas, \"Liberation Mono\", Menlo, Courier, monospace", "value_label_font_size": 10, "foreground": "#999"}, "x_labels": ["Jan", "Feb", "Mar", "Apr", "May", "Jun", "Jul", "Aug", "Sep", "Oct", "Nov", "Dec"], "x_label_rotation": 0, "show_y_guides": true, "width": 800, "margin_bottom": null, "no_prefix": false, "legend_at_bottom": false, "x_labels_major_every": null, "dots_size": 2.5, "fill": true, "disable_xml_declaration": false, "y_title": null, "height": 600, "show_x_labels": true, "stroke": true, "truncate_legend": null, "y_labels_major_count": null, "xrange": null, "margin_left": null, "margin_top": null, "logarithmic": false, "show_minor_y_labels": true, "defs": [], "missing_value_fill_truncation": "x", "no_data_text": "No data", "show_y_labels": true, "zero": 0, "x_value_formatter": null, "js": ["//kozea.github.io/pygal.js/2.0.x/pygal-tooltips.min.js"], "tooltip_fancy_mode": true, "stack_from_top": false, "truncate_label": null, "show_x_guides": false, "css": ["file://style.css", "file://graph.css"], "y_labels_major": null, "y_labels": null, "explicit_size": false}</script><script type="text/javascript" xlink:href="//kozea.github.io/pygal.js/2.0.x/pygal-tooltips.min.js" /></defs><title>2554 summary</title><g class="graph line-graph vertical"><rect class="background" height="600" width="800" x="0" y="0" /><g class="plot" transform="translate(145, 46)"><rect class="background" height="514" width="634.4" x="0" y="0" /><g class="axis y"><path class="line" d="M0.000000 514.000000 h634.400000" /><g class="guides"><path class="guide line" d="M0.000000 485.056582 h634.400000" /><text class="" x="-5" y="488.5565819201463">12000000.0</text><title>12000000.0</title></g><g class="guides"><path class="guide line" d="M0.000000 434.213593 h634.400000" /><text class="" x="-5" y="437.71359282062633">12400000.0</text><title>12400000.0</title></g><g class="guides"><path class="guide line" d="M0.000000 383.370604 h634.400000" /><text class="" x="-5" y="386.87060372110636">12800000.0</text><title>12800000.0</title></g><g class="guides"><path class="guide line" d="M0.000000 332.527615 h634.400000" /><text class="" x="-5" y="336.02761462158634">13200000.0</text><title>13200000.0</title></g><g class="guides"><path class="guide line" d="M0.000000 281.684626 h634.400000" /><text class="" x="-5" y="285.1846255220663">13600000.0</text><title>13600000.0</title></g><g class="guides"><path class="guide line" d="M0.000000 230.841636 h634.400000" /><text class="" x="-5" y="234.34163642254634">14000000.0</text><title>14000000.0</title></g><g class="guides"><path class="guide line" d="M0.000000 179.998647 h634.400000" /><text class="" x="-5" y="183.49864732302638">14400000.0</text><title>14400000.0</title></g><g class="guides"><path class="guide line" d="M0.000000 129.155658 h634.400000" /><text class="" x="-5" y="132.65565822350635">14800000.0</text><title>14800000.0</title></g><g class="guides"><path class="guide line" d="M0.000000 78.312669 h634.400000" /><text class="" x="-5" y="81.81266912398638">15200000.0</text><title>15200000.0</title></g><g class="guides"><path class="guide line" d="M0.000000 27.469680 h634.400000" /><text class="" x="-5" y="30.969680024466413">15600000.0</text><title>15600000.0</title></g></g><g class="axis x"><g class="guides"><path class="line" d="M12.200000 0.000000 v514.000000" /><text class="" x="12.2" y="529.0">Jan</text></g><g class="guides"><path class="guide line" d="M67.654545 0.000000 v514.000000" /><text class="" x="67.65454545454546" y="529.0">Feb</text></g><g class="guides"><path class="guide line" d="M123.109091 0.000000 v514.000000" /><text class="" x="123.1090909090909" y="529.0">Mar</text></g><g class="guides"><path class="guide line" d="M178.563636 0.000000 v514.000000" /><text class="" x="178.56363636363636" y="529.0">Apr</text></g><g class="guides"><path class="guide line" d="M234.018182 0.000000 v514.000000" /><text class="" x="234.01818181818183" y="529.0">May</text></g><g class="guides"><path class="guide line" d="M289.472727 0.000000 v514.000000" /><text class="" x="289.47272727272724" y="529.0">Jun</text></g><g class="guides"><path class="guide line" d="M344.927273 0.000000 v514.000000" /><text class="" x="344.9272727272727" y="529.0">Jul</text></g><g class="guides"><path class="guide line" d="M400.381818 0.000000 v514.000000" /><text class="" x="400.3818181818181" y="529.0">Aug</text></g><g class="guides"><path class="guide line" d="M455.836364 0.000000 v514.000000" /><text class="" x="455.8363636363636" y="529.0">Sep</text></g><g class="guides"><path class="guide line" d="M511.290909 0.000000 v514.000000" /><text class="" x="511.2909090909091" y="529.0">Oct</text></g><g class="guides"><path class="guide line" d="M566.745455 0.000000 v514.000000" /><text class="" x="566.7454545454545" y="529.0">Nov</text></g><g class="guides"><path class="guide line" d="M622.200000 0.000000 v514.000000" /><text class="" x="622.1999999999999" y="529.0">Dec</text></g></g><g class="series serie-0 color-0"><path class="line reactive" d="M12.200000 514.000000 L12.200000 379.013105 12.421818 380.029853 12.643636 381.046542 12.865455 382.063110 13.087273 383.079500 13.309091 384.095651 13.530909 385.111504 13.752727 386.126998 13.974545 387.142074 14.196364 388.156673 14.418182 389.170735 14.640000 390.184199 14.861818 391.197007 15.083636 392.209099 15.305455 393.220414 15.527273 394.230894 15.749091 395.240478 15.970909 396.249107 16.192727 397.256721 16.414545 398.263260 16.636364 399.268666 16.858182 400.272877 17.080000 401.275835 17.301818 402.277479 17.523636 403.277750 17.745455 404.276588 17.967273 405.273934 18.189091 406.269728 18.410909 407.263910 18.632727 408.256421 18.854545 409.247200 19.076364 410.236188 19.298182 411.223326 19.520000 412.208553 19.741818 413.191810 19.963636 414.173037 20.185455 415.152175 20.407273 416.129164 20.629091 417.103944 20.850909 418.076456 21.072727 419.046639 21.294545 420.014434 21.516364 420.979782 21.738182 421.942622 21.960000 422.902896 22.181818 423.860542 22.403636 424.815502 22.625455 425.767716 22.847273 426.717125 23.069091 427.663667 23.290909 428.607285 23.512727 429.547917 23.734545 430.485505 23.956364 431.419989 24.178182 432.351309 24.400000 433.279404 24.621818 434.204217 24.843636 435.125686 25.065455 436.043753 25.287273 436.958357 25.509091 437.869439 25.730909 438.776939 25.952727 439.680797 26.174545 440.580954 26.396364 441.477350 26.618182 442.369926 26.840000 443.258621 27.061818 444.143375 27.283636 445.024131 27.505455 445.900826 27.727273 446.773403 27.949091 447.641800 28.170909 448.505959 28.392727 449.365820 28.614545 450.221322 28.836364 451.072408 29.058182 451.919015 29.280000 452.761086 29.501818 453.598560 29.723636 454.431377 29.945455 455.259478 30.167273 456.082803 30.389091 456.901293 30.610909 457.714887 30.832727 458.523527 31.054545 459.327152 31.276364 460.125702 31.498182 460.919119 31.720000 461.707341 31.941818 462.490310 32.163636 463.267967 32.385455 464.040250 32.607273 464.807100 32.829091 465.568459 33.050909 466.324265 33.272727 467.074460 33.494545 467.818983 33.716364 468.557776 33.938182 469.290778 34.160000 470.017929 34.381818 470.739170 34.603636 471.454441 34.825455 472.163683 35.047273 472.866835 35.269091 473.563839 35.490909 474.254634 35.712727 474.939160 35.934545 475.617359 36.156364 476.289170 36.378182 476.954533 36.600000 477.613390 36.821818 478.265679 37.043636 478.911342 37.265455 479.550319 37.487273 480.182550 37.709091 480.807975 37.930909 481.426535 38.152727 482.038170 38.374545 482.642820 38.596364 483.240426 38.818182 483.830928 39.040000 484.414265 39.261818 484.990380 39.483636 485.559211 39.705455 486.120699 39.927273 486.674785 40.149091 487.221408 40.370909 487.760510 40.592727 488.292030 40.814545 488.815908 41.036364 489.332085 41.258182 489.840502 41.480000 490.341098 41.701818 490.833813 41.923636 491.318589 42.145455 491.795366 42.367273 492.264083 42.589091 492.724681 42.810909 493.177100 43.032727 493.621281 43.254545 494.057164 43.476364 494.484689 43.698182 494.903797 43.920000 495.314428 44.141818 495.716521 44.363636 496.110018 44.585455 496.494859 44.807273 496.870984 45.029091 497.238333 45.250909 497.596847 45.472727 497.946466 45.694545 498.287130 45.916364 498.618780 46.138182 498.941355 46.360000 499.254797 46.581818 499.559045 46.803636 499.854040 47.025455 500.139722 47.247273 500.416031 47.469091 500.682908 47.690909 500.940293 47.912727 501.188126 48.134545 501.426348 48.356364 501.654898 48.578182 501.873718 48.800000 502.082747 49.021818 502.281926 49.243636 502.471195 49.465455 502.650495 49.687273 502.819765 49.909091 502.978946 50.130909 503.127978 50.352727 503.266802 50.574545 503.395358 50.796364 503.513586 51.018182 503.621427 51.240000 503.718820 51.461818 503.805706 51.683636 503.882026 51.905455 503.947719 52.127273 504.002727 52.349091 504.046989 52.570909 504.080445 52.792727 504.103036 53.014545 504.114703 53.236364 504.115385 53.458182 504.105022 53.680000 504.083556 53.901818 504.050927 54.123636 504.007073 54.345455 503.951937 54.567273 503.885459 54.789091 503.807578 55.010909 503.718235 55.232727 503.617370 55.454545 503.504923 55.676364 503.380836 55.898182 503.245047 56.120000 503.097498 56.341818 502.938129 56.563636 502.766879 56.785455 502.583690 57.007273 502.388502 57.229091 502.181255 57.450909 501.961888 57.672727 501.730344 57.894545 501.486561 58.116364 501.230480 58.338182 500.962042 58.560000 500.681187 58.781818 500.387854 59.003636 500.081985 59.225455 499.763520 59.447273 499.432398 59.669091 499.088561 59.890909 498.731948 60.112727 498.362500 60.334545 497.980158 60.556364 497.584860 60.778182 497.176549 61.000000 496.755163 61.221818 496.320644 61.443636 495.872932 61.665455 495.411966 61.887273 494.937688 62.109091 494.450038 62.330909 493.948955 62.552727 493.434380 62.774545 492.906254 62.996364 492.364517 63.218182 491.809109 63.440000 491.239970 63.661818 490.657041 63.883636 490.060262 64.105455 489.449573 64.327273 488.824914 64.549091 488.186227 64.770909 487.533451 64.992727 486.866526 65.214545 486.185393 65.436364 485.489992 65.658182 484.780264 65.880000 484.056148 66.101818 483.317585 66.323636 482.564516 66.545455 481.796880 66.767273 481.014618 66.989091 480.217670 67.210909 479.405977 67.432727 478.579478 67.654545 477.738115 67.876364 476.881861 68.098182 476.010826 68.320000 475.125155 68.541818 474.224991 68.763636 473.310479 68.985455 472.381761 69.207273 471.438983 69.429091 470.482289 69.650909 469.511821 69.872727 468.527725 70.094545 467.530144 70.316364 466.519222 70.538182 465.495103 70.760000 464.457931 70.981818 463.407850 71.203636 462.345005 71.425455 461.269538 71.647273 460.181595 71.869091 459.081318 72.090909 457.968853 72.312727 456.844342 72.534545 455.707931 72.756364 454.559762 72.978182 453.399980 73.200000 452.228729 73.421818 451.046153 73.643636 449.852396 73.865455 448.647601 74.087273 447.431913 74.309091 446.205476 74.530909 444.968434 74.752727 443.720930 74.974545 442.463109 75.196364 441.195115 75.418182 439.917092 75.640000 438.629182 75.861818 437.331532 76.083636 436.024284 76.305455 434.707583 76.527273 433.381572 76.749091 432.046396 76.970909 430.702198 77.192727 429.349122 77.414545 427.987313 77.636364 426.616915 77.858182 425.238071 78.080000 423.850925 78.301818 422.455621 78.523636 421.052304 78.745455 419.641117 78.967273 418.222205 79.189091 416.795710 79.410909 415.361778 79.632727 413.920552 79.854545 412.472176 80.076364 411.016795 80.298182 409.554551 80.520000 408.085590 80.741818 406.610055 80.963636 405.128089 81.185455 403.639838 81.407273 402.145445 81.629091 400.645054 81.850909 399.138808 82.072727 397.626853 82.294545 396.109332 82.516364 394.586388 82.738182 393.058167 82.960000 391.524811 83.181818 389.986465 83.403636 388.443273 83.625455 386.895379 83.847273 385.342926 84.069091 383.786059 84.290909 382.224922 84.512727 380.659659 84.734545 379.090413 84.956364 377.517329 85.178182 375.940550 85.400000 374.360222 85.621818 372.776486 85.843636 371.189488 86.065455 369.599372 86.287273 368.006282 86.509091 366.410360 86.730909 364.811753 86.952727 363.210602 87.174545 361.607054 87.396364 360.001250 87.618182 358.393336 87.840000 356.783455 88.061818 355.171752 88.283636 353.558370 88.505455 351.943453 88.727273 350.327145 88.949091 348.709591 89.170909 347.090934 89.392727 345.471318 89.614545 343.850887 89.836364 342.229785 90.058182 340.608157 90.280000 338.986145 90.501818 337.363895 90.723636 335.741550 90.945455 334.119254 91.167273 332.497150 91.389091 330.875384 91.610909 329.254099 91.832727 327.633438 92.054545 326.013547 92.276364 324.394568 92.498182 322.776647 92.720000 321.159926 92.941818 319.544550 93.163636 317.930663 93.385455 316.318408 93.607273 314.707931 93.829091 313.099374 94.050909 311.492881 94.272727 309.888598 94.494545 308.286667 94.716364 306.687233 94.938182 305.090439 95.160000 303.496430 95.381818 301.905350 95.603636 300.317342 95.825455 298.732550 96.047273 297.151119 96.269091 295.573193 96.490909 293.998915 96.712727 292.428429 96.934545 290.861880 97.156364 289.299412 97.378182 287.741167 97.600000 286.187291 97.821818 284.637928 98.043636 283.093220 98.265455 281.553313 98.487273 280.018350 98.709091 278.488476 98.930909 276.963833 99.152727 275.444567 99.374545 273.930821 99.596364 272.422739 99.818182 270.920465 100.040000 269.424143 100.261818 267.933918 100.483636 266.449932 100.705455 264.972330 100.927273 263.501257 101.149091 262.036855 101.370909 260.579269 101.592727 259.128644 101.814545 257.685122 102.036364 256.248848 102.258182 254.819966 102.480000 253.398619 102.701818 251.984953 102.923636 250.579110 103.145455 249.181235 103.367273 247.791472 103.589091 246.409965 103.810909 245.036857 104.032727 243.672293 104.254545 242.316417 104.476364 240.969372 104.698182 239.631303 104.920000 238.302353 105.141818 236.982667 105.363636 235.672389 105.585455 234.371662 105.807273 233.080630 106.029091 231.799439 106.250909 230.528230 106.472727 229.267149 106.694545 228.016339 106.916364 226.775945 107.138182 225.546110 107.360000 224.326978 107.581818 223.118694 107.803636 221.921401 108.025455 220.735243 108.247273 219.560365 108.469091 218.396910 108.690909 217.245022 108.912727 216.104845 109.134545 214.976523 109.356364 213.860200 109.578182 212.756021 109.800000 211.664128 110.021818 210.584667 110.243636 209.517781 110.465455 208.463613 110.687273 207.422309 110.909091 206.394012 111.130909 205.378865 111.352727 204.377014 111.574545 203.388601 111.796364 202.413771 112.018182 201.452669 112.240000 200.505437 112.461818 199.572219 112.683636 198.653161 112.905455 197.748405 113.127273 196.858096 113.349091 195.982378 113.570909 195.121395 113.792727 194.275290 114.014545 193.444208 114.236364 192.628292 114.458182 191.827687 114.680000 191.042537 114.901818 190.272985 115.123636 189.519176 115.345455 188.781253 115.567273 188.059360 115.789091 187.353643 116.010909 186.664243 116.232727 185.991306 116.454545 185.334976 116.676364 184.695395 116.898182 184.072710 117.120000 183.467062 117.341818 182.878597 117.563636 182.307458 117.785455 181.753789 118.007273 181.217735 118.229091 180.699439 118.450909 180.199044 118.672727 179.716697 118.894545 179.252539 119.116364 178.806715 119.338182 178.379370 119.560000 177.970646 119.781818 177.580689 120.003636 177.209642 120.225455 176.857648 120.447273 176.524853 120.669091 176.211399 120.890909 175.917432 121.112727 175.643094 121.334545 175.388531 121.556364 175.153885 121.778182 174.939301 122.000000 174.744923 122.221818 174.570895 122.443636 174.417360 122.665455 174.284463 122.887273 174.172348 123.109091 174.081159 123.330909 174.010992 123.552727 173.961755 123.774545 173.933308 123.996364 173.925512 124.218182 173.938226 124.440000 173.971311 124.661818 174.024628 124.883636 174.098036 125.105455 174.191396 125.327273 174.304567 125.549091 174.437411 125.770909 174.589787 125.992727 174.761557 126.214545 174.952579 126.436364 175.162714 126.658182 175.391823 126.880000 175.639765 127.101818 175.906402 127.323636 176.191592 127.545455 176.495198 127.767273 176.817078 127.989091 177.157093 128.210909 177.515103 128.432727 177.890969 128.654545 178.284551 128.876364 178.695708 129.098182 179.124302 129.320000 179.570192 129.541818 180.033240 129.763636 180.513304 129.985455 181.010246 130.207273 181.523925 130.429091 182.054202 130.650909 182.600936 130.872727 183.163990 131.094545 183.743222 131.316364 184.338492 131.538182 184.949662 131.760000 185.576591 131.981818 186.219139 132.203636 186.877168 132.425455 187.550536 132.647273 188.239105 132.869091 188.942735 133.090909 189.661285 133.312727 190.394616 133.534545 191.142589 133.756364 191.905063 133.978182 192.681900 134.200000 193.472958 134.421818 194.278099 134.643636 195.097182 134.865455 195.930068 135.087273 196.776617 135.309091 197.636690 135.530909 198.510146 135.752727 199.396846 135.974545 200.296651 136.196364 201.209419 136.418182 202.135013 136.640000 203.073291 136.861818 204.024114 137.083636 204.987343 137.305455 205.962838 137.527273 206.950458 137.749091 207.950065 137.970909 208.961517 138.192727 209.984677 138.414545 211.019404 138.636364 212.065557 138.858182 213.122999 139.080000 214.191588 139.301818 215.271184 139.523636 216.361649 139.745455 217.462843 139.967273 218.574625 140.189091 219.696856 140.410909 220.829396 140.632727 221.972106 140.854545 223.124846 141.076364 224.287475 141.298182 225.459855 141.520000 226.641845 141.741818 227.833306 141.963636 229.034098 142.185455 230.244081 142.407273 231.463116 142.629091 232.691062 142.850909 233.927780 143.072727 235.173131 143.294545 236.426974 143.516364 237.689170 143.738182 238.959579 143.960000 240.238061 144.181818 241.524477 144.403636 242.818686 144.625455 244.120550 144.847273 245.429928 145.069091 246.746680 145.290909 248.070667 145.512727 249.401749 145.734545 250.739787 145.956364 252.084640 146.178182 253.436168 146.400000 254.794233 146.621818 256.158694 146.843636 257.529412 147.065455 258.906247 147.287273 260.289058 147.509091 261.677707 147.730909 263.072054 147.952727 264.471958 148.174545 265.877281 148.396364 267.287881 148.618182 268.703621 148.840000 270.124359 149.061818 271.549956 149.283636 272.980273 149.505455 274.415169 149.727273 275.854505 149.949091 277.298141 150.170909 278.745938 150.392727 280.197755 150.614545 281.653453 150.836364 283.112893 151.058182 284.575933 151.280000 286.042435 151.501818 287.512260 151.723636 288.985266 151.945455 290.461314 152.167273 291.940266 152.389091 293.421980 152.610909 294.906317 152.832727 296.393138 153.054545 297.882303 153.276364 299.373671 153.498182 300.867103 153.720000 302.362460 153.941818 303.859602 154.163636 305.358389 154.385455 306.858680 154.607273 308.360337 154.829091 309.863220 155.050909 311.367189 155.272727 312.872104 155.494545 314.377826 155.716364 315.884214 155.938182 317.391129 156.160000 318.898431 156.381818 320.405981 156.603636 321.913639 156.825455 323.421264 157.047273 324.928718 157.269091 326.435860 157.490909 327.942551 157.712727 329.448651 157.934545 330.954020 158.156364 332.458519 158.378182 333.962007 158.600000 335.464345 158.821818 336.965394 159.043636 338.465013 159.265455 339.963063 159.487273 341.459404 159.709091 342.953896 159.930909 344.446400 160.152727 345.936776 160.374545 347.424883 160.596364 348.910583 160.818182 350.393735 161.040000 351.874201 161.261818 353.351839 161.483636 354.826510 161.705455 356.298075 161.927273 357.766394 162.149091 359.231327 162.370909 360.692734 162.592727 362.150476 162.814545 363.604413 163.036364 365.054404 163.258182 366.500311 163.480000 367.941994 163.701818 369.379312 163.923636 370.812127 164.145455 372.240298 164.367273 373.663685 164.589091 375.082150 164.810909 376.495551 165.032727 377.903750 165.254545 379.306606 165.476364 380.703980 165.698182 382.095733 165.920000 383.481723 166.141818 384.861813 166.363636 386.235861 166.585455 387.603728 166.807273 388.965275 167.029091 390.320361 167.250909 391.668848 167.472727 393.010594 167.694545 394.345461 167.916364 395.673308 168.138182 396.993997 168.360000 398.307386 168.581818 399.613337 168.803636 400.911710 169.025455 402.202364 169.247273 403.485161 169.469091 404.759960 169.690909 406.026622 169.912727 407.285006 170.134545 408.534974 170.356364 409.776386 170.578182 411.009101 170.800000 412.232980 171.021818 413.447883 171.243636 414.653670 171.465455 415.850203 171.687273 417.037340 171.909091 418.214942 172.130909 419.382870 172.352727 420.540984 172.574545 421.689144 172.796364 422.827210 173.018182 423.955042 173.240000 425.072501 173.461818 426.179447 173.683636 427.275741 173.905455 428.361242 174.127273 429.435810 174.349091 430.499307 174.570909 431.551592 174.792727 432.592525 175.014545 433.621967 175.236364 434.639778 175.458182 435.645819 175.680000 436.639949 175.901818 437.622029 176.123636 438.591918 176.345455 439.549478 176.567273 440.494569 176.789091 441.427050 177.010909 442.346783 177.232727 443.253627 177.454545 444.147442 177.676364 445.028089 177.898182 445.895428 178.120000 446.749320 178.341818 447.589624 178.563636 448.416201 178.785455 449.228943 179.007273 450.027875 179.229091 450.813052 179.450909 451.584532 179.672727 452.342369 179.894545 453.086620 180.116364 453.817342 180.338182 454.534591 180.560000 455.238422 180.781818 455.928893 181.003636 456.606059 181.225455 457.269977 181.447273 457.920702 181.669091 458.558292 181.890909 459.182802 182.112727 459.794288 182.334545 460.392808 182.556364 460.978416 182.778182 461.551169 183.000000 462.111124 183.221818 462.658337 183.443636 463.192863 183.665455 463.714760 183.887273 464.224083 184.109091 464.720889 184.330909 465.205234 184.552727 465.677173 184.774545 466.136764 184.996364 466.584063 185.218182 467.019125 185.440000 467.442007 185.661818 467.852766 185.883636 468.251457 186.105455 468.638137 186.327273 469.012861 186.549091 469.375687 186.770909 469.726670 186.992727 470.065867 187.214545 470.393334 187.436364 470.709126 187.658182 471.013302 187.880000 471.305915 188.101818 471.587024 188.323636 471.856683 188.545455 472.114950 188.767273 472.361880 188.989091 472.597530 189.210909 472.821955 189.432727 473.035213 189.654545 473.237360 189.876364 473.428451 190.098182 473.608543 190.320000 473.777691 190.541818 473.935954 190.763636 474.083386 190.985455 474.220043 191.207273 474.345983 191.429091 474.461261 191.650909 474.565933 191.872727 474.660056 192.094545 474.743686 192.316364 474.816879 192.538182 474.879692 192.760000 474.932180 192.981818 474.974400 193.203636 475.006408 193.425455 475.028260 193.647273 475.040013 193.869091 475.041723 194.090909 475.033446 194.312727 475.015238 194.534545 474.987156 194.756364 474.949255 194.978182 474.901592 195.200000 474.844223 195.421818 474.777205 195.643636 474.700594 195.865455 474.614445 196.087273 474.518815 196.309091 474.413761 196.530909 474.299338 196.752727 474.175603 196.974545 474.042612 197.196364 473.900422 197.418182 473.749088 197.640000 473.588666 197.861818 473.419214 198.083636 473.240786 198.305455 473.053440 198.527273 472.857232 198.749091 472.652218 198.970909 472.438453 199.192727 472.215995 199.414545 471.984900 199.636364 471.745223 199.858182 471.497022 200.080000 471.240351 200.301818 470.975269 200.523636 470.701829 200.745455 470.420090 200.967273 470.130107 201.189091 469.831937 201.410909 469.525635 201.632727 469.211258 201.854545 468.888862 202.076364 468.558503 202.298182 468.220238 202.520000 467.874123 202.741818 467.520214 202.963636 467.158567 203.185455 466.789238 203.407273 466.412284 203.629091 466.027762 203.850909 465.635726 204.072727 465.236234 204.294545 464.829341 204.516364 464.415105 204.738182 463.993580 204.960000 463.564824 205.181818 463.128892 205.403636 462.685841 205.625455 462.235728 205.847273 461.778607 206.069091 461.314536 206.290909 460.843571 206.512727 460.365767 206.734545 459.881182 206.956364 459.389871 207.178182 458.891891 207.400000 458.387298 207.621818 457.876148 207.843636 457.358497 208.065455 456.834402 208.287273 456.303919 208.509091 455.767103 208.730909 455.224012 208.952727 454.674702 209.174545 454.119228 209.396364 453.557647 209.618182 452.990016 209.840000 452.416389 210.061818 451.836825 210.283636 451.251378 210.505455 450.660105 210.727273 450.063063 210.949091 449.460307 211.170909 448.851895 211.392727 448.237881 211.614545 447.618322 211.836364 446.993275 212.058182 446.362796 212.280000 445.726941 212.501818 445.085766 212.723636 444.439327 212.945455 443.787681 213.167273 443.130884 213.389091 442.468992 213.610909 441.802061 213.832727 441.130148 214.054545 440.453309 214.276364 439.771599 214.498182 439.085076 214.720000 438.393796 214.941818 437.697814 215.163636 436.997187 215.385455 436.291972 215.607273 435.582224 215.829091 434.867999 216.050909 434.149355 216.272727 433.426346 216.494545 432.699030 216.716364 431.967463 216.938182 431.231700 217.160000 430.491799 217.381818 429.747814 217.603636 428.999803 217.825455 428.247822 218.047273 427.491927 218.269091 426.732174 218.490909 425.968620 218.712727 425.201320 218.934545 424.430331 219.156364 423.655709 219.378182 422.877511 219.600000 422.095792 219.821818 421.310609 220.043636 420.522018 220.265455 419.730076 220.487273 418.934838 220.709091 418.136360 220.930909 417.334700 221.152727 416.529912 221.374545 415.722055 221.596364 414.911183 221.818182 414.097352 222.040000 413.280620 222.261818 412.461043 222.483636 411.638676 222.705455 410.813575 222.927273 409.985798 223.149091 409.155400 223.370909 408.322438 223.592727 407.486967 223.814545 406.649044 224.036364 405.808726 224.258182 404.966068 224.480000 404.121127 224.701818 403.273958 224.923636 402.424619 225.145455 401.573165 225.367273 400.719653 225.589091 399.864138 225.810909 399.006678 226.032727 398.147328 226.254545 397.286144 226.476364 396.423183 226.698182 395.558501 226.920000 394.692154 227.141818 393.824199 227.363636 392.954692 227.585455 392.083688 227.807273 391.211245 228.029091 390.337417 228.250909 389.462263 228.472727 388.585837 228.694545 387.708197 228.916364 386.829397 229.138182 385.949496 229.360000 385.068547 229.581818 384.186609 229.803636 383.303738 230.025455 382.419988 230.247273 381.535418 230.469091 380.650082 230.690909 379.764037 230.912727 378.877340 231.134545 377.990046 231.356364 377.102212 231.578182 376.213895 231.800000 375.325149 232.021818 374.436032 232.243636 373.546600 232.465455 372.656909 232.687273 371.767015 232.909091 370.876975 233.130909 369.986844 233.352727 369.096679 233.574545 368.206536 233.796364 367.316472 234.018182 366.426542 234.240000 365.536797 234.461818 364.647264 234.683636 363.757964 234.905455 362.868916 235.127273 361.980143 235.349091 361.091665 235.570909 360.203503 235.792727 359.315678 236.014545 358.428210 236.236364 357.541120 236.458182 356.654430 236.680000 355.768160 236.901818 354.882330 237.123636 353.996963 237.345455 353.112077 237.567273 352.227696 237.789091 351.343838 238.010909 350.460526 238.232727 349.577779 238.454545 348.695620 238.676364 347.814068 238.898182 346.933144 239.120000 346.052869 239.341818 345.173265 239.563636 344.294352 239.785455 343.416150 240.007273 342.538681 240.229091 341.661965 240.450909 340.786024 240.672727 339.910878 240.894545 339.036548 241.116364 338.163054 241.338182 337.290419 241.560000 336.418661 241.781818 335.547803 242.003636 334.677865 242.225455 333.808869 242.447273 332.940834 242.669091 332.073781 242.890909 331.207732 243.112727 330.342708 243.334545 329.478728 243.556364 328.615815 243.778182 327.753988 244.000000 326.893270 244.221818 326.033679 244.443636 325.175238 244.665455 324.317968 244.887273 323.461888 245.109091 322.607020 245.330909 321.753385 245.552727 320.901003 245.774545 320.049896 245.996364 319.200084 246.218182 318.351588 246.440000 317.504429 246.661818 316.658627 246.883636 315.814205 247.105455 314.971181 247.327273 314.129578 247.549091 313.289416 247.770909 312.450716 247.992727 311.613498 248.214545 310.777785 248.436364 309.943595 248.658182 309.110951 248.880000 308.279873 249.101818 307.450382 249.323636 306.622499 249.545455 305.796244 249.767273 304.971639 249.989091 304.148704 250.210909 303.327460 250.432727 302.507928 250.654545 301.690129 250.876364 300.874084 251.098182 300.059813 251.320000 299.247337 251.541818 298.436678 251.763636 297.627855 251.985455 296.820891 252.207273 296.015805 252.429091 295.212618 252.650909 294.411352 252.872727 293.612027 253.094545 292.814664 253.316364 292.019284 253.538182 291.225907 253.760000 290.434555 253.981818 289.645249 254.203636 288.858008 254.425455 288.072855 254.647273 287.289810 254.869091 286.508893 255.090909 285.730126 255.312727 284.953529 255.534545 284.179123 255.756364 283.406930 255.978182 282.636969 256.200000 281.869262 256.421818 281.103830 256.643636 280.340693 256.865455 279.579872 257.087273 278.821388 257.309091 278.065263 257.530909 277.311516 257.752727 276.560168 257.974545 275.811241 258.196364 275.064756 258.418182 274.320732 258.640000 273.579192 258.861818 272.840155 259.083636 272.103643 259.305455 271.369676 259.527273 270.638275 259.749091 269.909462 259.970909 269.183257 260.192727 268.459680 260.414545 267.738753 260.636364 267.020497 260.858182 266.304932 261.080000 265.592079 261.301818 264.881959 261.523636 264.174592 261.745455 263.470001 261.967273 262.768205 262.189091 262.069225 262.410909 261.373083 262.632727 260.679798 262.854545 259.989393 263.076364 259.301887 263.298182 258.617301 263.520000 257.935657 263.741818 257.256975 263.963636 256.581277 264.185455 255.908582 264.407273 255.238912 264.629091 254.572287 264.850909 253.908729 265.072727 253.248258 265.294545 252.590895 265.516364 251.936660 265.738182 251.285576 265.960000 250.637662 266.181818 249.992940 266.403636 249.351430 266.625455 248.713153 266.847273 248.078130 267.069091 247.446381 267.290909 246.817928 267.512727 246.192792 267.734545 245.570993 267.956364 244.952552 268.178182 244.337490 268.400000 243.725828 268.621818 243.117586 268.843636 242.512786 269.065455 241.911448 269.287273 241.313593 269.509091 240.719243 269.730909 240.128417 269.952727 239.541136 270.174545 238.957423 270.396364 238.377296 270.618182 237.800778 270.840000 237.227888 271.061818 236.658649 271.283636 236.093080 271.505455 235.531203 271.727273 234.973038 271.949091 234.418606 272.170909 233.867928 272.392727 233.321025 272.614545 232.777918 272.836364 232.238627 273.058182 231.703173 273.280000 231.171578 273.501818 230.643862 273.723636 230.120046 273.945455 229.600150 274.167273 229.084196 274.389091 228.572205 274.610909 228.064196 274.832727 227.560192 275.054545 227.060213 275.276364 226.564279 275.498182 226.072412 275.720000 225.584632 275.941818 225.100961 276.163636 224.621418 276.385455 224.146026 276.607273 223.674804 276.829091 223.207774 277.050909 222.744957 277.272727 222.286372 277.494545 221.832042 277.716364 221.381987 277.938182 220.936227 278.160000 220.494784 278.381818 220.057679 278.603636 219.624932 278.825455 219.196564 279.047273 218.772596 279.269091 218.353049 279.490909 217.937943 279.712727 217.527300 279.934545 217.121140 280.156364 216.719485 280.378182 216.322354 280.600000 215.929769 280.821818 215.541751 281.043636 215.158320 281.265455 214.779498 281.487273 214.405305 281.709091 214.035762 281.930909 213.670890 282.152727 213.310709 282.374545 212.955241 282.596364 212.604507 282.818182 212.258526 283.040000 211.917321 283.261818 211.580912 283.483636 211.249319 283.705455 210.922564 283.927273 210.600667 284.149091 210.283649 284.370909 209.971532 284.592727 209.664335 284.814545 209.362080 285.036364 209.064788 285.258182 208.772479 285.480000 208.485175 285.701818 208.202895 285.923636 207.925662 286.145455 207.653495 286.367273 207.386415 286.589091 207.124445 286.810909 206.867603 287.032727 206.615912 287.254545 206.369391 287.476364 206.128063 287.698182 205.891947 287.920000 205.661064 288.141818 205.435436 288.363636 205.215083 288.585455 205.000026 288.807273 204.790285 289.029091 204.585883 289.250909 204.386838 289.472727 204.193173 289.694545 204.004897 289.916364 203.821970 290.138182 203.644342 290.360000 203.471963 290.581818 203.304783 290.803636 203.142750 291.025455 202.985815 291.247273 202.833927 291.469091 202.687036 291.690909 202.545090 291.912727 202.408040 292.134545 202.275836 292.356364 202.148426 292.578182 202.025760 292.800000 201.907788 293.021818 201.794460 293.243636 201.685724 293.465455 201.581531 293.687273 201.481830 293.909091 201.386571 294.130909 201.295703 294.352727 201.209175 294.574545 201.126938 294.796364 201.048940 295.018182 200.975132 295.240000 200.905462 295.461818 200.839881 295.683636 200.778338 295.905455 200.720783 296.127273 200.667164 296.349091 200.617432 296.570909 200.571536 296.792727 200.529426 297.014545 200.491051 297.236364 200.456361 297.458182 200.425306 297.680000 200.397834 297.901818 200.373895 298.123636 200.353440 298.345455 200.336417 298.567273 200.322776 298.789091 200.312467 299.010909 200.305439 299.232727 200.301642 299.454545 200.301025 299.676364 200.303538 299.898182 200.309130 300.120000 200.317751 300.341818 200.329351 300.563636 200.343878 300.785455 200.361283 301.007273 200.381516 301.229091 200.404525 301.450909 200.430260 301.672727 200.458671 301.894545 200.489707 302.116364 200.523318 302.338182 200.559453 302.560000 200.598063 302.781818 200.639096 303.003636 200.682501 303.225455 200.728230 303.447273 200.776231 303.669091 200.826453 303.890909 200.878846 304.112727 200.933361 304.334545 200.989945 304.556364 201.048550 304.778182 201.109124 305.000000 201.171617 305.221818 201.235978 305.443636 201.302158 305.665455 201.370105 305.887273 201.439769 306.109091 201.511100 306.330909 201.584048 306.552727 201.658561 306.774545 201.734589 306.996364 201.812082 307.218182 201.890990 307.440000 201.971262 307.661818 202.052847 307.883636 202.135696 308.105455 202.219757 308.327273 202.304980 308.549091 202.391315 308.770909 202.478711 308.992727 202.567119 309.214545 202.656486 309.436364 202.746764 309.658182 202.837900 309.880000 202.929846 310.101818 203.022551 310.323636 203.115964 310.545455 203.210034 310.767273 203.304712 310.989091 203.399946 311.210909 203.495687 311.432727 203.591883 311.654545 203.688485 311.876364 203.785442 312.098182 203.882703 312.320000 203.980219 312.541818 204.077938 312.763636 204.175810 312.985455 204.273785 313.207273 204.371812 313.429091 204.469841 313.650909 204.567821 313.872727 204.665702 314.094545 204.763434 314.316364 204.860966 314.538182 204.958247 314.760000 205.055227 314.981818 205.151856 315.203636 205.248083 315.425455 205.343858 315.647273 205.439130 315.869091 205.533848 316.090909 205.627964 316.312727 205.721425 316.534545 205.814181 316.756364 205.906183 316.978182 205.997379 317.200000 206.087720 317.421818 206.177154 317.643636 206.265631 317.865455 206.353101 318.087273 206.439513 318.309091 206.524817 318.530909 206.608962 318.752727 206.691899 318.974545 206.773576 319.196364 206.853943 319.418182 206.932949 319.640000 207.010545 319.861818 207.086679 320.083636 207.161302 320.305455 207.234362 320.527273 207.305810 320.749091 207.375595 320.970909 207.443666 321.192727 207.509973 321.414545 207.574465 321.636364 207.637093 321.858182 207.697805 322.080000 207.756552 322.301818 207.813282 322.523636 207.867945 322.745455 207.920491 322.967273 207.970870 323.189091 208.019030 323.410909 208.064922 323.632727 208.108495 323.854545 208.149699 324.076364 208.188482 324.298182 208.224795 324.520000 208.258588 324.741818 208.289809 324.963636 208.318408 325.185455 208.344336 325.407273 208.367540 325.629091 208.387972 325.850909 208.405580 326.072727 208.420314 326.294545 208.432124 326.516364 208.440959 326.738182 208.446768 326.960000 208.449502 327.181818 208.449109 327.403636 208.445540 327.625455 208.438744 327.847273 208.428670 328.069091 208.415268 328.290909 208.398488 328.512727 208.378278 328.734545 208.354589 328.956364 208.327371 329.178182 208.296572 329.400000 208.262142 329.621818 208.224031 329.843636 208.182189 330.065455 208.136564 330.287273 208.087107 330.509091 208.033767 330.730909 207.976493 330.952727 207.915236 331.174545 207.849944 331.396364 207.780567 331.618182 207.707055 331.840000 207.629357 332.061818 207.547423 332.283636 207.461203 332.505455 207.370645 332.727273 207.275700 332.949091 207.176317 333.170909 207.072445 333.392727 206.964035 333.614545 206.851035 333.836364 206.733396 334.058182 206.611066 334.280000 206.483995 334.501818 206.352134 334.723636 206.215430 334.945455 206.073835 335.167273 205.927297 335.389091 205.775766 335.610909 205.619192 335.832727 205.457524 336.054545 205.290712 336.276364 205.118705 336.498182 204.941452 336.720000 204.758904 336.941818 204.571010 337.163636 204.377720 337.385455 204.178982 337.607273 203.974747 337.829091 203.764964 338.050909 203.549582 338.272727 203.328552 338.494545 203.101822 338.716364 202.869343 338.938182 202.631064 339.160000 202.386934 339.381818 202.136902 339.603636 201.880920 339.825455 201.618935 340.047273 201.350898 340.269091 201.076757 340.490909 200.796464 340.712727 200.509967 340.934545 200.217215 341.156364 199.918159 341.378182 199.612748 341.600000 199.300931 341.821818 198.982658 342.043636 198.657878 342.265455 198.326542 342.487273 197.988598 342.709091 197.643996 342.930909 197.292686 343.152727 196.934617 343.374545 196.569739 343.596364 196.198001 343.818182 195.819353 344.040000 195.433744 344.261818 195.041125 344.483636 194.641444 344.705455 194.234651 344.927273 193.820695 345.149091 193.399545 345.370909 192.971243 345.592727 192.535847 345.814545 192.093418 346.036364 191.644017 346.258182 191.187702 346.480000 190.724535 346.701818 190.254574 346.923636 189.777880 347.145455 189.294513 347.367273 188.804532 347.589091 188.307999 347.810909 187.804972 348.032727 187.295512 348.254545 186.779678 348.476364 186.257531 348.698182 185.729130 348.920000 185.194536 349.141818 184.653809 349.363636 184.107008 349.585455 183.554193 349.807273 182.995424 350.029091 182.430762 350.250909 181.860267 350.472727 181.283997 350.694545 180.702014 350.916364 180.114377 351.138182 179.521145 351.360000 178.922380 351.581818 178.318141 351.803636 177.708489 352.025455 177.093482 352.247273 176.473180 352.469091 175.847645 352.690909 175.216936 352.912727 174.581113 353.134545 173.940235 353.356364 173.294363 353.578182 172.643557 353.800000 171.987876 354.021818 171.327381 354.243636 170.662132 354.465455 169.992188 354.687273 169.317609 354.909091 168.638456 355.130909 167.954789 355.352727 167.266667 355.574545 166.574150 355.796364 165.877299 356.018182 165.176173 356.240000 164.470832 356.461818 163.761336 356.683636 163.047746 356.905455 162.330120 357.127273 161.608520 357.349091 160.883005 357.570909 160.153634 357.792727 159.420469 358.014545 158.683569 358.236364 157.942993 358.458182 157.198803 358.680000 156.451057 358.901818 155.699816 359.123636 154.945140 359.345455 154.187088 359.567273 153.425721 359.789091 152.661099 360.010909 151.893281 360.232727 151.122328 360.454545 150.348299 360.676364 149.571255 360.898182 148.791255 361.120000 148.008360 361.341818 147.222629 361.563636 146.434123 361.785455 145.642900 362.007273 144.849022 362.229091 144.052548 362.450909 143.253538 362.672727 142.452053 362.894545 141.648151 363.116364 140.841894 363.338182 140.033340 363.560000 139.222550 363.781818 138.409585 364.003636 137.594503 364.225455 136.777365 364.447273 135.958231 364.669091 135.137161 364.890909 134.314215 365.112727 133.489452 365.334545 132.662933 365.556364 131.834717 365.778182 131.004865 366.000000 130.173437 366.221818 129.340492 366.443636 128.506091 366.665455 127.670293 366.887273 126.833158 367.109091 125.994747 367.330909 125.155119 367.552727 124.314334 367.774545 123.472453 367.996364 122.629535 368.218182 121.785640 368.440000 120.940828 368.661818 120.095159 368.883636 119.248694 369.105455 118.401491 369.327273 117.553611 369.549091 116.705114 369.770909 115.856061 369.992727 115.006510 370.214545 114.156521 370.436364 113.306156 370.658182 112.455473 370.880000 111.604533 371.101818 110.753396 371.323636 109.902121 371.545455 109.050769 371.767273 108.199400 371.989091 107.348073 372.210909 106.496848 372.432727 105.645786 372.654545 104.794946 372.876364 103.944389 373.098182 103.094174 373.320000 102.244361 373.541818 101.395011 373.763636 100.546183 373.985455 99.697936 374.207273 98.850332 374.429091 98.003431 374.650909 97.157291 374.872727 96.311973 375.094545 95.467537 375.316364 94.624043 375.538182 93.781551 375.760000 92.940121 375.981818 92.099813 376.203636 91.260686 376.425455 90.422801 376.647273 89.586218 376.869091 88.750997 377.090909 87.917197 377.312727 87.084879 377.534545 86.254102 377.756364 85.424927 377.978182 84.597413 378.200000 83.771621 378.421818 82.947610 378.643636 82.125441 378.865455 81.305173 379.087273 80.486866 379.309091 79.670581 379.530909 78.856376 379.752727 78.044313 379.974545 77.234451 380.196364 76.426850 380.418182 75.621570 380.640000 74.818671 380.861818 74.018213 381.083636 73.220256 381.305455 72.424860 381.527273 71.632085 381.749091 70.841991 381.970909 70.054637 382.192727 69.270084 382.414545 68.488392 382.636364 67.709621 382.858182 66.933830 383.080000 66.161079 383.301818 65.391430 383.523636 64.624941 383.745455 63.861672 383.967273 63.101684 384.189091 62.345036 384.410909 61.591788 384.632727 60.842001 384.854545 60.095734 385.076364 59.353048 385.298182 58.614001 385.520000 57.878655 385.741818 57.147069 385.963636 56.419303 386.185455 55.695417 386.407273 54.975471 386.629091 54.259525 386.850909 53.547639 387.072727 52.839873 387.294545 52.136287 387.516364 51.436941 387.738182 50.741894 387.960000 50.051207 388.181818 49.364940 388.403636 48.683153 388.625455 48.005905 388.847273 47.333257 389.069091 46.665268 389.290909 46.001999 389.512727 45.343509 389.734545 44.689859 389.956364 44.041108 390.178182 43.397317 390.400000 42.758545 390.621818 42.124852 390.843636 41.496298 391.065455 40.872944 391.287273 40.254849 391.509091 39.642073 391.730909 39.034676 391.952727 38.432718 392.174545 37.836259 392.396364 37.245359 392.618182 36.660078 392.840000 36.080476 393.061818 35.506613 393.283636 34.938549 393.505455 34.376343 393.727273 33.820057 393.949091 33.269748 394.170909 32.725479 394.392727 32.187308 394.614545 31.655296 394.836364 31.129503 395.058182 30.609988 395.280000 30.096811 395.501818 29.590033 395.723636 29.089713 395.945455 28.595912 396.167273 28.108689 396.389091 27.628104 396.610909 27.154218 396.832727 26.687089 397.054545 26.226779 397.276364 25.773347 397.498182 25.326853 397.720000 24.887358 397.941818 24.454920 398.163636 24.029600 398.385455 23.611458 398.607273 23.200554 398.829091 22.796948 399.050909 22.400700 399.272727 22.011870 399.494545 21.630517 399.716364 21.256702 399.938182 20.890485 400.160000 20.531925 400.381818 20.181083 400.603636 19.838003 400.825455 19.502664 401.047273 19.175031 401.269091 18.855068 401.490909 18.542738 401.712727 18.238007 401.934545 17.940837 402.156364 17.651194 402.378182 17.369040 402.600000 17.094341 402.821818 16.827060 403.043636 16.567162 403.265455 16.314610 403.487273 16.069368 403.709091 15.831401 403.930909 15.600673 404.152727 15.377147 404.374545 15.160788 404.596364 14.951560 404.818182 14.749427 405.040000 14.554353 405.261818 14.366302 405.483636 14.185238 405.705455 14.011125 405.927273 13.843927 406.149091 13.683609 406.370909 13.530134 406.592727 13.383467 406.814545 13.243572 407.036364 13.110412 407.258182 12.983951 407.480000 12.864155 407.701818 12.750986 407.923636 12.644409 408.145455 12.544388 408.367273 12.450888 408.589091 12.363871 408.810909 12.283303 409.032727 12.209147 409.254545 12.141367 409.476364 12.079928 409.698182 12.024793 409.920000 11.975926 410.141818 11.933293 410.363636 11.896856 410.585455 11.866580 410.807273 11.842428 411.029091 11.824366 411.250909 11.812356 411.472727 11.806364 411.694545 11.806353 411.916364 11.812287 412.138182 11.824130 412.360000 11.841847 412.581818 11.865401 412.803636 11.894756 413.025455 11.929877 413.247273 11.970728 413.469091 12.017272 413.690909 12.069474 413.912727 12.127298 414.134545 12.190708 414.356364 12.259668 414.578182 12.334142 414.800000 12.414094 415.021818 12.499489 415.243636 12.590289 415.465455 12.686460 415.687273 12.787966 415.909091 12.894770 416.130909 13.006836 416.352727 13.124129 416.574545 13.246613 416.796364 13.374251 417.018182 13.507009 417.240000 13.644849 417.461818 13.787736 417.683636 13.935634 417.905455 14.088508 418.127273 14.246321 418.349091 14.409037 418.570909 14.576620 418.792727 14.749035 419.014545 14.926245 419.236364 15.108214 419.458182 15.294908 419.680000 15.486289 419.901818 15.682322 420.123636 15.882970 420.345455 16.088199 420.567273 16.297972 420.789091 16.512252 421.010909 16.731005 421.232727 16.954194 421.454545 17.181783 421.676364 17.413737 421.898182 17.650019 422.120000 17.890593 422.341818 18.135425 422.563636 18.384476 422.785455 18.637713 423.007273 18.895098 423.229091 19.156596 423.450909 19.422171 423.672727 19.691787 423.894545 19.965408 424.116364 20.242998 424.338182 20.524521 424.560000 20.809942 424.781818 21.099224 425.003636 21.392331 425.225455 21.689228 425.447273 21.989878 425.669091 22.294246 425.890909 22.602296 426.112727 22.913991 426.334545 23.229297 426.556364 23.548176 426.778182 23.870593 427.000000 24.196512 427.221818 24.525898 427.443636 24.858713 427.665455 25.194923 427.887273 25.534492 428.109091 25.877382 428.330909 26.223559 428.552727 26.572987 428.774545 26.925629 428.996364 27.281450 429.218182 27.640414 429.440000 28.002485 429.661818 28.367626 429.883636 28.735803 430.105455 29.106978 430.327273 29.481117 430.549091 29.858183 430.770909 30.238140 430.992727 30.620953 431.214545 31.006585 431.436364 31.395000 431.658182 31.786163 431.880000 32.180038 432.101818 32.576588 432.323636 32.975778 432.545455 33.377572 432.767273 33.781934 432.989091 34.188828 433.210909 34.598217 433.432727 35.010067 433.654545 35.424342 433.876364 35.841004 434.098182 36.260019 434.320000 36.681350 434.541818 37.104962 434.763636 37.530818 434.985455 37.958883 435.207273 38.389121 435.429091 38.821495 435.650909 39.255970 435.872727 39.692510 436.094545 40.131079 436.316364 40.571641 436.538182 41.014161 436.760000 41.458601 436.981818 41.904927 437.203636 42.353102 437.425455 42.803090 437.647273 43.254856 437.869091 43.708364 438.090909 44.163577 438.312727 44.620460 438.534545 45.078977 438.756364 45.539091 438.978182 46.000767 439.200000 46.463970 439.421818 46.928662 439.643636 47.394809 439.865455 47.862373 440.087273 48.331320 440.309091 48.801614 440.530909 49.273217 440.752727 49.746096 440.974545 50.220212 441.196364 50.695532 441.418182 51.172018 441.640000 51.649635 441.861818 52.128347 442.083636 52.608117 442.305455 53.088911 442.527273 53.570691 442.749091 54.053423 442.970909 54.537070 443.192727 55.021596 443.414545 55.506966 443.636364 55.993143 443.858182 56.480092 444.080000 56.967776 444.301818 57.456159 444.523636 57.945207 444.745455 58.434882 444.967273 58.925149 445.189091 59.415971 445.410909 59.907314 445.632727 60.399141 445.854545 60.891416 446.076364 61.384103 446.298182 61.877167 446.520000 62.370571 446.741818 62.864279 446.963636 63.358256 447.185455 63.852465 447.407273 64.346871 447.629091 64.841437 447.850909 65.336129 448.072727 65.830909 448.294545 66.325742 448.516364 66.820592 448.738182 67.315423 448.960000 67.810200 449.181818 68.304885 449.403636 68.799444 449.625455 69.293840 449.847273 69.788037 450.069091 70.282000 450.290909 70.775693 450.512727 71.269079 450.734545 71.762123 450.956364 72.254788 451.178182 72.747040 451.400000 73.238841 451.621818 73.730156 451.843636 74.220950 452.065455 74.711185 452.287273 75.200827 452.509091 75.689839 452.730909 76.178185 452.952727 76.665830 453.174545 77.152737 453.396364 77.638870 453.618182 78.124195 453.840000 78.608674 454.061818 79.092272 454.283636 79.574952 454.505455 80.056680 454.727273 80.537418 454.949091 81.017132 455.170909 81.495784 455.392727 81.973340 455.614545 82.449764 455.836364 82.925018 456.058182 83.399076 456.280000 83.871944 456.501818 84.343634 456.723636 84.814161 456.945455 85.283539 457.167273 85.751781 457.389091 86.218902 457.610909 86.684915 457.832727 87.149833 458.054545 87.613671 458.276364 88.076443 458.498182 88.538162 458.720000 88.998842 458.941818 89.458497 459.163636 89.917141 459.385455 90.374787 459.607273 90.831450 459.829091 91.287142 460.050909 91.741879 460.272727 92.195673 460.494545 92.648539 460.716364 93.100491 460.938182 93.551541 461.160000 94.001705 461.381818 94.450995 461.603636 94.899426 461.825455 95.347011 462.047273 95.793765 462.269091 96.239700 462.490909 96.684832 462.712727 97.129173 462.934545 97.572737 463.156364 98.015539 463.378182 98.457592 463.600000 98.898910 463.821818 99.339506 464.043636 99.779395 464.265455 100.218590 464.487273 100.657106 464.709091 101.094955 464.930909 101.532152 465.152727 101.968710 465.374545 102.404644 465.596364 102.839967 465.818182 103.274693 466.040000 103.708836 466.261818 104.142409 466.483636 104.575427 466.705455 105.007903 466.927273 105.439850 467.149091 105.871284 467.370909 106.302217 467.592727 106.732664 467.814545 107.162638 468.036364 107.592153 468.258182 108.021223 468.480000 108.449861 468.701818 108.878082 468.923636 109.305899 469.145455 109.733326 469.367273 110.160377 469.589091 110.587066 469.810909 111.013407 470.032727 111.439412 470.254545 111.865097 470.476364 112.290475 470.698182 112.715559 470.920000 113.140364 471.141818 113.564903 471.363636 113.989191 471.585455 114.413240 471.807273 114.837065 472.029091 115.260680 472.250909 115.684098 472.472727 116.107333 472.694545 116.530400 472.916364 116.953311 473.138182 117.376080 473.360000 117.798723 473.581818 118.221251 473.803636 118.643679 474.025455 119.066022 474.247273 119.488292 474.469091 119.910503 474.690909 120.332670 474.912727 120.754805 475.134545 121.176924 475.356364 121.599039 475.578182 122.021165 475.800000 122.443315 476.021818 122.865504 476.243636 123.287744 476.465455 123.710050 476.687273 124.132435 476.909091 124.554914 477.130909 124.977500 477.352727 125.400207 477.574545 125.823049 477.796364 126.246039 478.018182 126.669192 478.240000 127.092521 478.461818 127.516040 478.683636 127.939763 478.905455 128.363703 479.127273 128.787875 479.349091 129.212292 479.570909 129.636968 479.792727 130.061917 480.014545 130.487153 480.236364 130.912689 480.458182 131.338539 480.680000 131.764718 480.901818 132.191238 481.123636 132.618114 481.345455 133.045360 481.567273 133.472989 481.789091 133.901015 482.010909 134.329452 482.232727 134.758313 482.454545 135.187613 482.676364 135.617366 482.898182 136.047585 483.120000 136.478284 483.341818 136.909476 483.563636 137.341176 483.785455 137.773398 484.007273 138.206154 484.229091 138.639460 484.450909 139.073329 484.672727 139.507774 484.894545 139.942810 485.116364 140.378449 485.338182 140.814707 485.560000 141.251597 485.781818 141.689133 486.003636 142.127328 486.225455 142.566196 486.447273 143.005751 486.669091 143.446007 486.890909 143.886978 487.112727 144.328678 487.334545 144.771120 487.556364 145.214317 487.778182 145.658285 488.000000 146.103037 488.221818 146.548586 488.443636 146.994947 488.665455 147.442132 488.887273 147.890157 489.109091 148.339034 489.330909 148.788778 489.552727 149.239403 489.774545 149.690922 489.996364 150.143348 490.218182 150.596697 490.440000 151.050981 490.661818 151.506215 490.883636 151.962411 491.105455 152.419585 491.327273 152.877750 491.549091 153.336920 491.770909 153.797108 491.992727 154.258328 492.214545 154.720594 492.436364 155.183920 492.658182 155.648320 492.880000 156.113808 493.101818 156.580397 493.323636 157.048101 493.545455 157.516934 493.767273 157.986909 493.989091 158.458041 494.210909 158.930344 494.432727 159.403831 494.654545 159.878516 494.876364 160.354412 495.098182 160.831534 495.320000 161.309896 495.541818 161.789511 495.763636 162.270392 495.985455 162.752555 496.207273 163.236012 496.429091 163.720778 496.650909 164.206866 496.872727 164.694290 497.094545 165.183064 497.316364 165.673202 497.538182 166.164717 497.760000 166.657623 497.981818 167.151935 498.203636 167.647665 498.425455 168.144828 498.647273 168.643438 498.869091 169.143508 499.090909 169.645052 499.312727 170.148084 499.534545 170.652618 499.756364 171.158668 499.978182 171.666247 500.200000 172.175369 500.421818 172.686048 500.643636 173.198297 500.865455 173.712132 501.087273 174.227565 501.309091 174.744610 501.530909 175.263281 501.752727 175.783592 501.974545 176.305556 502.196364 176.829188 502.418182 177.354502 502.640000 177.881510 502.861818 178.410227 503.083636 178.940667 503.305455 179.472844 503.527273 180.006770 503.749091 180.542461 503.970909 181.079930 504.192727 181.619191 504.414545 182.160257 504.636364 182.703142 504.858182 183.247861 505.080000 183.794426 505.301818 184.342852 505.523636 184.893153 505.745455 185.445342 505.967273 185.999434 506.189091 186.555441 506.410909 187.113378 506.632727 187.673259 506.854545 188.235098 507.076364 188.798907 507.298182 189.364702 507.520000 189.932495 507.741818 190.502301 507.963636 191.074134 508.185455 191.648006 508.407273 192.223933 508.629091 192.801928 508.850909 193.382004 509.072727 193.964176 509.294545 194.548457 509.516364 195.134862 509.738182 195.723403 509.960000 196.314095 510.181818 196.906952 510.403636 197.501987 510.625455 198.099214 510.847273 198.698647 511.069091 199.300300 511.290909 199.904186 511.512727 200.510309 511.734545 201.118632 511.956364 201.729107 512.178182 202.341684 512.400000 202.956317 512.621818 203.572958 512.843636 204.191557 513.065455 204.812069 513.287273 205.434443 513.509091 206.058633 513.730909 206.684590 513.952727 207.312267 514.174545 207.941615 514.396364 208.572586 514.618182 209.205133 514.840000 209.839207 515.061818 210.474760 515.283636 211.111745 515.505455 211.750113 515.727273 212.389817 515.949091 213.030807 516.170909 213.673038 516.392727 214.316459 516.614545 214.961024 516.836364 215.606684 517.058182 216.253391 517.280000 216.901098 517.501818 217.549756 517.723636 218.199318 517.945455 218.849734 518.167273 219.500959 518.389091 220.152942 518.610909 220.805637 518.832727 221.458995 519.054545 222.112968 519.276364 222.767509 519.498182 223.422569 519.720000 224.078100 519.941818 224.734054 520.163636 225.390384 520.385455 226.047041 520.607273 226.703978 520.829091 227.361146 521.050909 228.018497 521.272727 228.675983 521.494545 229.333556 521.716364 229.991169 521.938182 230.648774 522.160000 231.306321 522.381818 231.963764 522.603636 232.621054 522.825455 233.278143 523.047273 233.934983 523.269091 234.591527 523.490909 235.247726 523.712727 235.903532 523.934545 236.558898 524.156364 237.213775 524.378182 237.868115 524.600000 238.521870 524.821818 239.174993 525.043636 239.827434 525.265455 240.479148 525.487273 241.130084 525.709091 241.780195 525.930909 242.429434 526.152727 243.077752 526.374545 243.725101 526.596364 244.371434 526.818182 245.016701 527.040000 245.660856 527.261818 246.303851 527.483636 246.945636 527.705455 247.586164 527.927273 248.225388 528.149091 248.863259 528.370909 249.499729 528.592727 250.134751 528.814545 250.768275 529.036364 251.400255 529.258182 252.030642 529.480000 252.659389 529.701818 253.286446 529.923636 253.911767 530.145455 254.535302 530.367273 255.157005 530.589091 255.776828 530.810909 256.394721 531.032727 257.010637 531.254545 257.624529 531.476364 258.236348 531.698182 258.846046 531.920000 259.453575 532.141818 260.058888 532.363636 260.661935 532.585455 261.262670 532.807273 261.861044 533.029091 262.457009 533.250909 263.050517 533.472727 263.641521 533.694545 264.229971 533.916364 264.815821 534.138182 265.399022 534.360000 265.979526 534.581818 266.557285 534.803636 267.132251 535.025455 267.704377 535.247273 268.273613 535.469091 268.839913 535.690909 269.403228 535.912727 269.963510 536.134545 270.520711 536.356364 271.074783 536.578182 271.625678 536.800000 272.173349 537.021818 272.717746 537.243636 273.258823 537.465455 273.796531 537.687273 274.330822 537.909091 274.861648 538.130909 275.388961 538.352727 275.912713 538.574545 276.432857 538.796364 276.949343 539.018182 277.462124 539.240000 277.971153 539.461818 278.476381 539.683636 278.977760 539.905455 279.475242 540.127273 279.968779 540.349091 280.458323 540.570909 280.943826 540.792727 281.425240 541.014545 281.902517 541.236364 282.375610 541.458182 282.844469 541.680000 283.309048 541.901818 283.769297 542.123636 284.225170 542.345455 284.676617 542.567273 285.123592 542.789091 285.566046 543.010909 286.003931 543.232727 286.437199 543.454545 286.865802 543.676364 287.289692 543.898182 287.708821 544.120000 288.123141 544.341818 288.532604 544.563636 288.937162 544.785455 289.336768 545.007273 289.731372 545.229091 290.120927 545.450909 290.505385 545.672727 290.884699 545.894545 291.258819 546.116364 291.627699 546.338182 291.991289 546.560000 292.349542 546.781818 292.702411 547.003636 293.049846 547.225455 293.391801 547.447273 293.728226 547.669091 294.059075 547.890909 294.384298 548.112727 294.703849 548.334545 295.017678 548.556364 295.325739 548.778182 295.627982 549.000000 295.924361 549.221818 296.214826 549.443636 296.499330 549.665455 296.777826 549.887273 297.050264 550.109091 297.316598 550.330909 297.576778 550.552727 297.830757 550.774545 298.078488 550.996364 298.319921 551.218182 298.555009 551.440000 298.783704 551.661818 299.005959 551.883636 299.221724 552.105455 299.430952 552.327273 299.633595 552.549091 299.829605 552.770909 300.018934 552.992727 300.201534 553.214545 300.377356 553.436364 300.546354 553.658182 300.708479 553.880000 300.863683 554.101818 301.011917 554.323636 301.153135 554.545455 301.287287 554.767273 301.414327 554.989091 301.534205 555.210909 301.646874 555.432727 301.752286 555.654545 301.850393 555.876364 301.941147 556.098182 302.024500 556.320000 302.100404 556.541818 302.168811 556.763636 302.229673 556.985455 302.282941 557.207273 302.328569 557.429091 302.366507 557.650909 302.396708 557.872727 302.419124 558.094545 302.433707 558.316364 302.440409 558.538182 302.439182 558.760000 302.429978 558.981818 302.412748 559.203636 302.387446 559.425455 302.354022 559.647273 302.312430 559.869091 302.262620 560.090909 302.204545 560.312727 302.138157 560.534545 302.063407 560.756364 301.980249 560.978182 301.888633 561.200000 301.788513 561.421818 301.679839 561.643636 301.562564 561.865455 301.436640 562.087273 301.302019 562.309091 301.158652 562.530909 301.006493 562.752727 300.845492 562.974545 300.675602 563.196364 300.496775 563.418182 300.308963 563.640000 300.112117 563.861818 299.906191 564.083636 299.691135 564.305455 299.466902 564.527273 299.233444 564.749091 298.990713 564.970909 298.738661 565.192727 298.477239 565.414545 298.206400 565.636364 297.926096 565.858182 297.636279 566.080000 297.336901 566.301818 297.027913 566.523636 296.709269 566.745455 296.380919 566.967273 296.042830 567.189091 295.695027 567.410909 295.337549 567.632727 294.970435 567.854545 294.593724 568.076364 294.207454 568.298182 293.811666 568.520000 293.406397 568.741818 292.991687 568.963636 292.567576 569.185455 292.134101 569.407273 291.691302 569.629091 291.239218 569.850909 290.777888 570.072727 290.307351 570.294545 289.827645 570.516364 289.338811 570.738182 288.840887 570.960000 288.333912 571.181818 287.817925 571.403636 287.292965 571.625455 286.759071 571.847273 286.216283 572.069091 285.664638 572.290909 285.104176 572.512727 284.534937 572.734545 283.956959 572.956364 283.370280 573.178182 282.774941 573.400000 282.170981 573.621818 281.558437 573.843636 280.937349 574.065455 280.307757 574.287273 279.669699 574.509091 279.023214 574.730909 278.368342 574.952727 277.705120 575.174545 277.033589 575.396364 276.353788 575.618182 275.665754 575.840000 274.969528 576.061818 274.265148 576.283636 273.552654 576.505455 272.832084 576.727273 272.103477 576.949091 271.366872 577.170909 270.622309 577.392727 269.869827 577.614545 269.109464 577.836364 268.341259 578.058182 267.565252 578.280000 266.781481 578.501818 265.989985 578.723636 265.190804 578.945455 264.383977 579.167273 263.569542 579.389091 262.747539 579.610909 261.918006 579.832727 261.080983 580.054545 260.236508 580.276364 259.384621 580.498182 258.525360 580.720000 257.658765 580.941818 256.784874 581.163636 255.903728 581.385455 255.015363 581.607273 254.119821 581.829091 253.217139 582.050909 252.307357 582.272727 251.390513 582.494545 250.466647 582.716364 249.535798 582.938182 248.598005 583.160000 247.653306 583.381818 246.701741 583.603636 245.743349 583.825455 244.778169 584.047273 243.806239 584.269091 242.827599 584.490909 241.842288 584.712727 240.850345 584.934545 239.851809 585.156364 238.846718 585.378182 237.835113 585.600000 236.817031 585.821818 235.792512 586.043636 234.761595 586.265455 233.724319 586.487273 232.680723 586.709091 231.630846 586.930909 230.574727 587.152727 229.512404 587.374545 228.443918 587.596364 227.369307 587.818182 226.288610 588.040000 225.201865 588.261818 224.109113 588.483636 223.010392 588.705455 221.905741 588.927273 220.795199 589.149091 219.678805 589.370909 218.556598 589.592727 217.428617 589.814545 216.294901 590.036364 215.155490 590.258182 214.010421 590.480000 212.859735 590.701818 211.703470 590.923636 210.541665 591.145455 209.374359 591.367273 208.201592 591.589091 207.023402 591.810909 205.839827 592.032727 204.650909 592.254545 203.456684 592.476364 202.257193 592.698182 201.052474 592.920000 199.842566 593.141818 198.627509 593.363636 197.407341 593.585455 196.182101 593.807273 194.951829 594.029091 193.716563 594.250909 192.476342 594.472727 191.231206 594.694545 189.981193 594.916364 188.726342 595.138182 187.466693 595.360000 186.202285 595.581818 184.933156 595.803636 183.659345 596.025455 182.380892 596.247273 181.097835 596.469091 179.810214 596.690909 178.518067 596.912727 177.221434 597.134545 175.920354 597.356364 174.614865 597.578182 173.305006 597.800000 171.990817 598.021818 170.672337 598.243636 169.349604 598.465455 168.022658 598.687273 166.691538 598.909091 165.356282 599.130909 164.016930 599.352727 162.673520 599.574545 161.326092 599.796364 159.974685 600.018182 158.619338 600.240000 157.260089 600.461818 155.896978 600.683636 154.530044 600.905455 153.159325 601.127273 151.784862 601.349091 150.406692 601.570909 149.024855 601.792727 147.639390 602.014545 146.250335 602.236364 144.857730 602.458182 143.461615 602.680000 142.062027 602.901818 140.659006 603.123636 139.252590 603.345455 137.842820 603.567273 136.429734 603.789091 135.013370 604.010909 133.593769 604.232727 132.170968 604.454545 130.745008 604.676364 129.315926 604.898182 127.883763 605.120000 126.448556 605.341818 125.010345 605.563636 123.569170 605.785455 122.125068 606.007273 120.678080 606.229091 119.228243 606.450909 117.775598 606.672727 116.320183 606.894545 114.862037 607.116364 113.401199 607.338182 111.937708 607.560000 110.471603 607.781818 109.002923 608.003636 107.531708 608.225455 106.057996 608.447273 104.581826 608.669091 103.103237 608.890909 101.622268 609.112727 100.138959 609.334545 98.653348 609.556364 97.165474 609.778182 95.675376 610.000000 94.183094 610.221818 92.688666 610.443636 91.192131 610.665455 89.693528 610.887273 88.192897 611.109091 86.690277 611.330909 85.185705 611.552727 83.679222 611.774545 82.170867 611.996364 80.660677 612.218182 79.148694 612.440000 77.634954 612.661818 76.119498 612.883636 74.602365 613.105455 73.083593 613.327273 71.563221 613.549091 70.041289 613.770909 68.517836 613.992727 66.992900 614.214545 65.466520 614.436364 63.938736 614.658182 62.409587 614.880000 60.879111 615.101818 59.347347 615.323636 57.814336 615.545455 56.280115 615.767273 54.744723 615.989091 53.208200 616.210909 51.670585 616.432727 50.131916 616.654545 48.592234 616.876364 47.051575 617.098182 45.509981 617.320000 43.967489 617.541818 42.424139 617.763636 40.879970 617.985455 39.335020 618.207273 37.789329 618.429091 36.242936 618.650909 34.695880 618.872727 33.148199 619.094545 31.599933 619.316364 30.051121 619.538182 28.501802 619.760000 26.952015 619.981818 25.401799 620.203636 23.851192 620.425455 22.300235 620.647273 20.748965 620.869091 19.197422 621.090909 17.645645 621.312727 16.093673 621.534545 14.541546 621.756364 12.989300 621.978182 11.436977 622.200000 9.884615 622.200000 514.000000" /></g></g><g class="titles"><text class="title plot_title" x="400.0" y="26">2554 summary</text></g><g class="plot overlay" transform="translate(145, 46)"><g class="series serie-0 color-0"><g class="dots"><circle class="dot reactive tooltip-trigger" cx="12.2" cy="379.013105340332" r="2.5" /><desc class="value">12834282</desc><desc class="x top">12.2</desc><desc class="y top">379.013105340332</desc><desc class="x_label">Jan</desc></g><g class="dots"><circle class="dot reactive tooltip-trigger" cx="67.65454545454546" cy="477.73811496168867" r="2.5" /><desc class="value">12057577</desc><desc class="x top">67.65454545454546</desc><desc class="y top">477.73811496168867</desc><desc class="x_label">Feb</desc></g><g class="dots"><circle class="dot reactive tooltip-trigger" cx="123.1090909090909" cy="174.08115892920597" r="2.5" /><desc class="value">14446555</desc><desc class="x ">123.1090909090909</desc><desc class="y ">174.08115892920597</desc><desc class="x_label">Mar</desc></g><g class="dots"><circle class="dot reactive tooltip-trigger" cx="178.56363636363636" cy="448.41620050315896" r="2.5" /><desc class="value">12288263</desc><desc class="x top">178.56363636363636</desc><desc class="y top">448.41620050315896</desc><desc class="x_label">Apr</desc></g><g class="dots"><circle class="dot reactive tooltip-trigger" cx="234.01818181818183" cy="366.42654206632756" r="2.5" /><desc class="value">12933305</desc><desc class="x top">234.01818181818183</desc><desc class="y top">366.42654206632756</desc><desc class="x_label">May</desc></g><g class="dots"><circle class="dot reactive tooltip-trigger" cx="289.47272727272724" cy="204.19317343834217" r="2.5" /><desc class="value">14209653</desc><desc class="x ">289.47272727272724</desc><desc class="y ">204.19317343834217</desc><desc class="x_label">Jun</desc></g><g class="dots"><circle class="dot reactive tooltip-trigger" cx="344.9272727272727" cy="193.82069523214915" r="2.5" /><desc class="value">14291257</desc><desc class="x left">344.9272727272727</desc><desc class="y left">193.82069523214915</desc><desc class="x_label">Jul</desc></g><g class="dots"><circle class="dot reactive tooltip-trigger" cx="400.3818181818181" cy="20.181083322104712" r="2.5" /><desc class="value">15657342</desc><desc class="x left">400.3818181818181</desc><desc class="y left">20.181083322104712</desc><desc class="x_label">Aug</desc></g><g class="dots"><circle class="dot reactive tooltip-trigger" cx="455.8363636363636" cy="82.92501798762208" r="2.5" /><desc class="value">15163713</desc><desc class="x left">455.8363636363636</desc><desc class="y left">82.92501798762208</desc><desc class="x_label">Sep</desc></g><g class="dots"><circle class="dot reactive tooltip-trigger" cx="511.2909090909091" cy="199.90418598537946" r="2.5" /><desc class="value">14243396</desc><desc class="x left">511.2909090909091</desc><desc class="y left">199.90418598537946</desc><desc class="x_label">Oct</desc></g><g class="dots"><circle class="dot reactive tooltip-trigger" cx="566.7454545454545" cy="296.38091862875535" r="2.5" /><desc class="value">13484379</desc><desc class="x left top">566.7454545454545</desc><desc class="y left top">296.38091862875535</desc><desc class="x_label">Nov</desc></g><g class="dots"><circle class="dot reactive tooltip-trigger" cx="622.1999999999999" cy="9.884615384615415" r="2.5" /><desc class="value">15738348</desc><desc class="x left">622.1999999999999</desc><desc class="y left">9.884615384615415</desc><desc class="x_label">Dec</desc></g></g></g><g class="plot text-overlay" transform="translate(145, 46)"><g class="series serie-0 color-0" /></g><g class="plot tooltip-overlay" transform="translate(145, 46)"><g class="tooltip" style="opacity: 0" transform="translate(0 0)"><rect class="tooltip-box" height="0" rx="0" ry="0" width="0" /><g class="text" /></g></g><g class="legends" transform="translate(10, 56)"><g class="legend reactive activate-serie" id="activate-serie-0"><rect class="color-0 reactive" height="12" width="12" x="0.0" y="1.0" /><text x="17.0" y="11.2">2554</text></g></g><g class="legends" transform="translate(790, 56)" /></g></svg>