<?xml version='1.0' encoding='utf-8'?>
<svg xmlns:xlink="http://www.w3.org/1999/xlink" class="pygal-chart" id="chart-e92e2e96-0fa5-4fe4-aa02-be895a950716" viewBox="0 0 800 600" xmlns="http://www.w3.org/2000/svg"><!--Generated with pygal 2.0.11 (etree) ©Kozea 2011-2015 on 2015-12-10--><!--http://pygal.org--><!--http://github.com/Kozea/pygal--><defs><style type="text/css">#chart-e92e2e96-0fa5-4fe4-aa02-be895a950716{-webkit-user-select:none;-webkit-font-smoothing:antialiased;font-family:Consolas,"Liberation Mono",Menlo,Courier,monospace}#chart-e92e2e96-0fa5-4fe4-aa02-be895a950716 .title{font-family:Consolas,"Liberation Mono",Menlo,Courier,monospace;font-size:16px}#chart-e92e2e96-0fa5-4fe4-aa02-be895a950716 .legends .legend text{font-family:Consolas,"Liberation Mono",Menlo,Courier,monospace;font-size:14px}#chart-e92e2e96-0fa5-4fe4-aa02-be895a950716 .axis text{font-family:Consolas,"Liberation Mono",Menlo,Courier,monospace;font-size:10px}#chart-e92e2e96-0fa5-4fe4-aa02-be895a950716 .axis text.major{font-family:Consolas,"Liberation Mono",Menlo,Courier,monospace;font-size:10px}#chart-e92e2e96-0fa5-4fe4-aa02-be895a950716 .text-overlay text.value{font-family:Consolas,"Liberation Mono",Menlo,Courier,monospace;font-size:16px}#chart-e92e2e96-0fa5-4fe4-aa02-be895a950716 .text-overlay text.label{font-family:Consolas,"Liberation Mono",Menlo,Courier,monospace;font-size:10px}#chart-e92e2e96-0fa5-4fe4-aa02-be895a950716 .tooltip{font-family:Consolas,"Liberation Mono",Menlo,Courier,monospace;font-size:14px}#chart-e92e2e96-0fa5-4fe4-aa02-be895a950716 text.no_data{font-family:Consolas,"Liberation Mono",Menlo,Courier,monospace;font-size:64px}
#chart-e92e2e96-0fa5-4fe4-aa02-be895a950716{background-color:black}#chart-e92e2e96-0fa5-4fe4-aa02-be895a950716 path,#chart-e92e2e96-0fa5-4fe4-aa02-be895a950716 line,#chart-e92e2e96-0fa5-4fe4-aa02-be895a950716 rect,#chart-e92e2e96-0fa5-4fe4-aa02-be895a950716 circle{-webkit-transition:250ms;-moz-transition:250ms;transition:250ms}#chart-e92e2e96-0fa5-4fe4-aa02-be895a950716 .graph &gt; .background{fill:black}#chart-e92e2e96-0fa5-4fe4-aa02-be895a950716 .plot &gt; .background{fill:#111}#chart-e92e2e96-0fa5-4fe4-aa02-be895a950716 .graph{fill:#999}#chart-e92e2e96-0fa5-4fe4-aa02-be895a950716 text.no_data{fill:#eee}#chart-e92e2e96-0fa5-4fe4-aa02-be895a950716 .title{fill:#eee}#chart-e92e2e96-0fa5-4fe4-aa02-be895a950716 .legends .legend text{fill:#999}#chart-e92e2e96-0fa5-4fe4-aa02-be895a950716 .legends .legend:hover text{fill:#eee}#chart-e92e2e96-0fa5-4fe4-aa02-be895a950716 .axis .line{stroke:#eee}#chart-e92e2e96-0fa5-4fe4-aa02-be895a950716 .axis .guide.line{stroke:#555}#chart-e92e2e96-0fa5-4fe4-aa02-be895a950716 .axis .major.line{stroke:#999}#chart-e92e2e96-0fa5-4fe4-aa02-be895a950716 .axis text.major{fill:#eee}#chart-e92e2e96-0fa5-4fe4-aa02-be895a950716 .axis.y .guides:hover .guide.line,#chart-e92e2e96-0fa5-4fe4-aa02-be895a950716 .line-graph .axis.x .guides:hover .guide.line,#chart-e92e2e96-0fa5-4fe4-aa02-be895a950716 .stackedline-graph .axis.x .guides:hover .guide.line,#chart-e92e2e96-0fa5-4fe4-aa02-be895a950716 .xy-graph .axis.x .guides:hover .guide.line{stroke:#eee}#chart-e92e2e96-0fa5-4fe4-aa02-be895a950716 .axis .guides:hover text{fill:#eee}#chart-e92e2e96-0fa5-4fe4-aa02-be895a950716 .reactive{fill-opacity:.8}#chart-e92e2e96-0fa5-4fe4-aa02-be895a950716 .reactive.active,#chart-e92e2e96-0fa5-4fe4-aa02-be895a950716 .active .reactive{fill-opacity:.4;stroke-width:4}#chart-e92e2e96-0fa5-4fe4-aa02-be895a950716 .series text{fill:#eee}#chart-e92e2e96-0fa5-4fe4-aa02-be895a950716 .tooltip rect{fill:#111;stroke:#eee;-webkit-transition:opacity 250ms;-moz-transition:opacity 250ms;transition:opacity 250ms}#chart-e92e2e96-0fa5-4fe4-aa02-be895a950716 .tooltip .label{fill:#999}#chart-e92e2e96-0fa5-4fe4-aa02-be895a950716 .tooltip .label{fill:#999}#chart-e92e2e96-0fa5-4fe4-aa02-be895a950716 .tooltip .legend{font-size:.8em;fill:#555}#chart-e92e2e96-0fa5-4fe4-aa02-be895a950716 .tooltip .x_label{font-size:.6em;fill:#eee}#chart-e92e2e96-0fa5-4fe4-aa02-be895a950716 .tooltip .xlink{font-size:.5em;text-decoration:underline}#chart-e92e2e96-0fa5-4fe4-aa02-be895a950716 .tooltip .value{font-size:1.5em}#chart-e92e2e96-0fa5-4fe4-aa02-be895a950716 .map-element{fill:#111;stroke:#555 !important}#chart-e92e2e96-0fa5-4fe4-aa02-be895a950716 .map-element .reactive{fill-opacity:inherit}#chart-e92e2e96-0fa5-4fe4-aa02-be895a950716 .color-0,#chart-e92e2e96-0fa5-4fe4-aa02-be895a950716 .color-0 a:visited{stroke:#ff5995;fill:#ff5995}#chart-e92e2e96-0fa5-4fe4-aa02-be895a950716 .text-overlay .color-0 text{fill:black}
#chart-e92e2e96-0fa5-4fe4-aa02-be895a950716 text.no_data{text-anchor:middle}#chart-e92e2e96-0fa5-4fe4-aa02-be895a950716 .guide.line{fill:none}#chart-e92e2e96-0fa5-4fe4-aa02-be895a950716 .centered{text-anchor:middle}#chart-e92e2e96-0fa5-4fe4-aa02-be895a950716 .title{text-anchor:middle}#chart-e92e2e96-0fa5-4fe4-aa02-be895a950716 .legends .legend text{fill-opacity:1}#chart-e92e2e96-0fa5-4fe4-aa02-be895a950716 .axis.x text{text-anchor:middle}#chart-e92e2e96-0fa5-4fe4-aa02-be895a950716 .axis.x:not(.web) text[transform]{text-anchor:start}#chart-e92e2e96-0fa5-4fe4-aa02-be895a950716 .axis.x:not(.web) text[transform].backwards{text-anchor:end}#chart-e92e2e96-0fa5-4fe4-aa02-be895a950716 .axis.y text{text-anchor:end}#chart-e92e2e96-0fa5-4fe4-aa02-be895a950716 .axis.y text[transform].backwards{text-anchor:start}#chart-e92e2e96-0fa5-4fe4-aa02-be895a950716 .axis.y2 text{text-anchor:start}#chart-e92e2e96-0fa5-4fe4-aa02-be895a950716 .axis.y2 text[transform].backwards{text-anchor:end}#chart-e92e2e96-0fa5-4fe4-aa02-be895a950716 .axis .guide.line{stroke-dasharray:4,4}#chart-e92e2e96-0fa5-4fe4-aa02-be895a950716 .axis .major.guide.line{stroke-dasharray:6,6}#chart-e92e2e96-0fa5-4fe4-aa02-be895a950716 .horizontal .axis.y .guide.line,#chart-e92e2e96-0fa5-4fe4-aa02-be895a950716 .horizontal .axis.y2 .guide.line,#chart-e92e2e96-0fa5-4fe4-aa02-be895a950716 .vertical .axis.x .guide.line{opacity:0}#chart-e92e2e96-0fa5-4fe4-aa02-be895a950716 .horizontal .axis.always_show .guide.line,#chart-e92e2e96-0fa5-4fe4-aa02-be895a950716 .vertical .axis.always_show .guide.line{opacity:1 !important}#chart-e92e2e96-0fa5-4fe4-aa02-be895a950716 .axis.y .guides:hover .guide.line,#chart-e92e2e96-0fa5-4fe4-aa02-be895a950716 .axis.y2 .guides:hover .guide.line,#chart-e92e2e96-0fa5-4fe4-aa02-be895a950716 .axis.x .guides:hover .guide.line{opacity:1}#chart-e92e2e96-0fa5-4fe4-aa02-be895a950716 .axis .guides:hover text{opacity:1}#chart-e92e2e96-0fa5-4fe4-aa02-be895a950716 .nofill{fill:none}#chart-e92e2e96-0fa5-4fe4-aa02-be895a950716 .subtle-fill{fill-opacity:.2}#chart-e92e2e96-0fa5-4fe4-aa02-be895a950716 .dot{stroke-width:1px;fill-opacity:1}#chart-e92e2e96-0fa5-4fe4-aa02-be895a950716 .dot.active{stroke-width:5px}#chart-e92e2e96-0fa5-4fe4-aa02-be895a950716 .dot.negative{fill:transparent}#chart-e92e2e96-0fa5-4fe4-aa02-be895a950716 text,#chart-e92e2e96-0fa5-4fe4-aa02-be895a950716 tspan{stroke:none !important}#chart-e92e2e96-0fa5-4fe4-aa02-be895a950716 .series text.active{opacity:1}#chart-e92e2e96-0fa5-4fe4-aa02-be895a950716 .tooltip rect{fill-opacity:.95;stroke-width:.5}#chart-e92e2e96-0fa5-4fe4-aa02-be895a950716 .tooltip text{fill-opacity:1}#chart-e92e2e96-0fa5-4fe4-aa02-be895a950716 .showable{visibility:hidden}#chart-e92e2e96-0fa5-4fe4-aa02-be895a950716 .showable.shown{visibility:visible}</style><script type="text/javascript">window.pygal = window.pygal || {};window.pygal.config = window.pygal.config || {};window.pygal.config['e92e2e96-0fa5-4fe4-aa02-be895a950716'] = {"x_labels_major_count": null, "max_scale": 16, "force_uri_protocol": null, "box_mode": "extremes", "human_readable": false, "rounded_bars": null, "show_dots": true, "title": "2556 summary", "interpolation_precision": 250, "inverse_y_axis": false, "y_label_rotation": 0, "tooltip_border_radius": 0, "legends": ["2556"], "margin": 20, "x_labels_major": null, "show_only_major_dots": false, "spacing": 10, "legend_box_size": 12, "include_x_axis": false, "show_legend": true, "print_values": false, "print_zeroes": true, "pretty_print": false, "range": null, "secondary_range": null, "show_minor_x_labels": true, "legend_at_bottom_columns": null, "strict": false, "half_pie": false, "margin_right": null, "inner_radius": 0, "x_title": null, "dynamic_print_values": false, "value_formatter": null, "print_labels": false, "min_scale": 4, "interpolate": "cubic", "order_min": null, "y_labels_major_every": null, "interpolation_parameters": {}, "stroke_style": null, "style": {"no_data_font_size": 64, "legend_font_family": "Consolas, \"Liberation Mono\", Menlo, Courier, monospace", "value_font_size": 16, "plot_background": "#111", "title_font_family": "Consolas, \"Liberation Mono\", Menlo, Courier, monospace", "major_guide_stroke_dasharray": "6,6", "opacity": ".8", "title_font_size": 16, "font_family": "Consolas, \"Liberation Mono\", Menlo, Courier, monospace", "label_font_size": 10, "major_label_font_size": 10, "colors": ["#ff5995", "#b6e354", "#feed6c", "#8cedff", "#9e6ffe", "#899ca1", "#f8f8f2", "#bf4646", "#516083", "#f92672", "#82b414", "#fd971f", "#56c2d6", "#808384", "#8c54fe", "#465457"], "tooltip_font_size": 14, "transition": "250ms", "value_colors": [], "value_font_family": "Consolas, \"Liberation Mono\", Menlo, Courier, monospace", "value_label_font_family": "Consolas, \"Liberation Mono\", Menlo, Courier, monospace", "foreground_subtle": "#555", "foreground_strong": "#eee", "legend_font_size": 14, "background": "black", "tooltip_font_family": "Consolas, \"Liberation Mono\", Menlo, Courier, monospace", "opacity_hover": ".4", "guide_stroke_dasharray": "4,4", "major_label_font_family": "Consolas, \"Liberation Mono\", Menlo, Courier, monospace", "label_font_family": "Consolas, \"Liberation Mono\", Menlo, Courier, monospace", "no_data_font_family": "Consolas, \"Liberation Mono\", Menlo, Courier, monospace", "value_label_font_size": 10, "foreground": "#999"}, "x_labels": ["Jan", "Feb", "Mar", "Apr", "May", "Jun", "Jul", "Aug", "Sep", "Oct", "Nov", "Dec"], "x_label_rotation": 0, "show_y_guides": true, "width": 800, "margin_bottom": null, "no_prefix": false, "legend_at_bottom": false, "x_labels_major_every": null, "dots_size": 2.5, "fill": true, "disable_xml_declaration": false, "y_title": null, "height": 600, "show_x_labels": true, "stroke": true, "truncate_legend": null, "y_labels_major_count": null, "xrange": null, "margin_left": null, "margin_top": null, "logarithmic": false, "show_minor_y_labels": true, "defs": [], "missing_value_fill_truncation": "x", "no_data_text": "No data", "show_y_labels": true, "zero": 0, "x_value_formatter": null, "js": ["//kozea.github.io/pygal.js/2.0.x/pygal-tooltips.min.js"], "tooltip_fancy_mode": true, "stack_from_top": false, "truncate_label": null, "show_x_guides": false, "css": ["file://style.css", "file://graph.css"], "y_labels_major": null, "y_labels": null, "explicit_size": false}</script><script type="text/javascript" xlink:href="//kozea.github.io/pygal.js/2.0.x/pygal-tooltips.min.js" /></defs><title>2556 summary</title><g class="graph line-graph vertical"><rect class="background" height="600" width="800" x="0" y="0" /><g class="plot" transform="translate(145, 46)"><rect class="background" height="514" width="634.4" x="0" y="0" /><g class="axis y"><path class="line" d="M0.000000 514.000000 h634.400000" /><g class="guides"><path class="guide line" d="M0.000000 468.215718 h634.400000" /><text class="" x="-5" y="471.71571821442166">15600000.0</text><title>15600000.0</title></g><g class="guides"><path class="guide line" d="M0.000000 407.780962 h634.400000" /><text class="" x="-5" y="411.28096234485224">16000000.0</text><title>16000000.0</title></g><g class="guides"><path class="guide line" d="M0.000000 347.346206 h634.400000" /><text class="" x="-5" y="350.8462064752829">16400000.0</text><title>16400000.0</title></g><g class="guides"><path class="guide line" d="M0.000000 286.911451 h634.400000" /><text class="" x="-5" y="290.41145060571347">16800000.0</text><title>16800000.0</title></g><g class="guides"><path class="guide line" d="M0.000000 226.476695 h634.400000" /><text class="" x="-5" y="229.97669473614405">17200000.0</text><title>17200000.0</title></g><g class="guides"><path class="guide line" d="M0.000000 166.041939 h634.400000" /><text class="" x="-5" y="169.5419388665747">17600000.0</text><title>17600000.0</title></g><g class="guides"><path class="guide line" d="M0.000000 105.607183 h634.400000" /><text class="" x="-5" y="109.10718299700528">18000000.0</text><title>18000000.0</title></g><g class="guides"><path class="guide line" d="M0.000000 45.172427 h634.400000" /><text class="" x="-5" y="48.672427127435924">18400000.0</text><title>18400000.0</title></g></g><g class="axis x"><g class="guides"><path class="line" d="M12.200000 0.000000 v514.000000" /><text class="" x="12.2" y="529.0">Jan</text></g><g class="guides"><path class="guide line" d="M67.654545 0.000000 v514.000000" /><text class="" x="67.65454545454546" y="529.0">Feb</text></g><g class="guides"><path class="guide line" d="M123.109091 0.000000 v514.000000" /><text class="" x="123.1090909090909" y="529.0">Mar</text></g><g class="guides"><path class="guide line" d="M178.563636 0.000000 v514.000000" /><text class="" x="178.56363636363636" y="529.0">Apr</text></g><g class="guides"><path class="guide line" d="M234.018182 0.000000 v514.000000" /><text class="" x="234.01818181818183" y="529.0">May</text></g><g class="guides"><path class="guide line" d="M289.472727 0.000000 v514.000000" /><text class="" x="289.47272727272724" y="529.0">Jun</text></g><g class="guides"><path class="guide line" d="M344.927273 0.000000 v514.000000" /><text class="" x="344.9272727272727" y="529.0">Jul</text></g><g class="guides"><path class="guide line" d="M400.381818 0.000000 v514.000000" /><text class="" x="400.3818181818181" y="529.0">Aug</text></g><g class="guides"><path class="guide line" d="M455.836364 0.000000 v514.000000" /><text class="" x="455.8363636363636" y="529.0">Sep</text></g><g class="guides"><path class="guide line" d="M511.290909 0.000000 v514.000000" /><text class="" x="511.2909090909091" y="529.0">Oct</text></g><g class="guides"><path class="guide line" d="M566.745455 0.000000 v514.000000" /><text class="" x="566.7454545454545" y="529.0">Nov</text></g><g class="guides"><path class="guide line" d="M622.200000 0.000000 v514.000000" /><text class="" x="622.1999999999999" y="529.0">Dec</text></g></g><g class="series serie-0 color-0"><path class="line reactive" d="M12.200000 514.000000 L12.200000 262.234731 12.421818 264.082889 12.643636 265.930952 12.865455 267.778822 13.087273 269.626405 13.309091 271.473604 13.530909 273.320324 13.752727 275.166468 13.974545 277.011941 14.196364 278.856646 14.418182 280.700489 14.640000 282.543372 14.861818 284.385200 15.083636 286.225877 15.305455 288.065308 15.527273 289.903395 15.749091 291.740044 15.970909 293.575158 16.192727 295.408642 16.414545 297.240400 16.636364 299.070335 16.858182 300.898352 17.080000 302.724354 17.301818 304.548247 17.523636 306.369934 17.745455 308.189319 17.967273 310.006306 18.189091 311.820799 18.410909 313.632703 18.632727 315.441921 18.854545 317.248358 19.076364 319.051917 19.298182 320.852504 19.520000 322.650021 19.741818 324.444373 19.963636 326.235464 20.185455 328.023198 20.407273 329.807479 20.629091 331.588211 20.850909 333.365299 21.072727 335.138647 21.294545 336.908158 21.516364 338.673736 21.738182 340.435286 21.960000 342.192712 22.181818 343.945918 22.403636 345.694808 22.625455 347.439286 22.847273 349.179256 23.069091 350.914623 23.290909 352.645289 23.512727 354.371161 23.734545 356.092140 23.956364 357.808132 24.178182 359.519041 24.400000 361.224771 24.621818 362.925226 24.843636 364.620309 25.065455 366.309926 25.287273 367.993980 25.509091 369.672375 25.730909 371.345015 25.952727 373.011805 26.174545 374.672648 26.396364 376.327448 26.618182 377.976111 26.840000 379.618539 27.061818 381.254637 27.283636 382.884309 27.505455 384.507459 27.727273 386.123991 27.949091 387.733809 28.170909 389.336818 28.392727 390.932921 28.614545 392.522022 28.836364 394.104026 29.058182 395.678836 29.280000 397.246358 29.501818 398.806494 29.723636 400.359149 29.945455 401.904227 30.167273 403.441632 30.389091 404.971268 30.610909 406.493039 30.832727 408.006850 31.054545 409.512605 31.276364 411.010206 31.498182 412.499560 31.720000 413.980569 31.941818 415.453138 32.163636 416.917171 32.385455 418.372571 32.607273 419.819244 32.829091 421.257093 33.050909 422.686022 33.272727 424.105936 33.494545 425.516738 33.716364 426.918332 33.938182 428.310623 34.160000 429.693515 34.381818 431.066911 34.603636 432.430716 34.825455 433.784834 35.047273 435.129170 35.269091 436.463626 35.490909 437.788108 35.712727 439.102518 35.934545 440.406763 36.156364 441.700744 36.378182 442.984368 36.600000 444.257536 36.821818 445.520155 37.043636 446.772128 37.265455 448.013358 37.487273 449.243750 37.709091 450.463209 37.930909 451.671637 38.152727 452.868940 38.374545 454.055022 38.596364 455.229785 38.818182 456.393136 39.040000 457.544976 39.261818 458.685212 39.483636 459.813746 39.705455 460.930484 39.927273 462.035328 40.149091 463.128183 40.370909 464.208954 40.592727 465.277543 40.814545 466.333856 41.036364 467.377797 41.258182 468.409269 41.480000 469.428176 41.701818 470.434423 41.923636 471.427914 42.145455 472.408553 42.367273 473.376244 42.589091 474.330891 42.810909 475.272398 43.032727 476.200669 43.254545 477.115608 43.476364 478.017120 43.698182 478.905109 43.920000 479.779478 44.141818 480.640131 44.363636 481.486973 44.585455 482.319909 44.807273 483.138841 45.029091 483.943674 45.250909 484.734312 45.472727 485.510659 45.694545 486.272620 45.916364 487.020098 46.138182 487.752997 46.360000 488.471222 46.581818 489.174677 46.803636 489.863265 47.025455 490.536892 47.247273 491.195460 47.469091 491.838874 47.690909 492.467038 47.912727 493.079856 48.134545 493.677233 48.356364 494.259071 48.578182 494.825277 48.800000 495.375752 49.021818 495.910403 49.243636 496.429132 49.465455 496.931844 49.687273 497.418443 49.909091 497.888832 50.130909 498.342917 50.352727 498.780601 50.574545 499.201788 50.796364 499.606382 51.018182 499.994288 51.240000 500.365410 51.461818 500.719650 51.683636 501.056915 51.905455 501.377107 52.127273 501.680131 52.349091 501.965892 52.570909 502.234292 52.792727 502.485236 53.014545 502.718628 53.236364 502.934373 53.458182 503.132374 53.680000 503.312536 53.901818 503.474762 54.123636 503.618956 54.345455 503.745024 54.567273 503.852868 54.789091 503.942393 55.010909 504.013503 55.232727 504.066103 55.454545 504.100095 55.676364 504.115385 55.898182 504.111876 56.120000 504.089472 56.341818 504.048078 56.563636 503.987598 56.785455 503.907935 57.007273 503.808994 57.229091 503.690679 57.450909 503.552894 57.672727 503.395543 57.894545 503.218530 58.116364 503.021759 58.338182 502.805135 58.560000 502.568561 58.781818 502.311942 59.003636 502.035181 59.225455 501.738183 59.447273 501.420851 59.669091 501.083091 59.890909 500.724805 60.112727 500.345899 60.334545 499.946275 60.556364 499.525839 60.778182 499.084494 61.000000 498.622144 61.221818 498.138694 61.443636 497.634048 61.665455 497.108109 61.887273 496.560782 62.109091 495.991970 62.330909 495.401579 62.552727 494.789512 62.774545 494.155672 62.996364 493.499965 63.218182 492.822294 63.440000 492.122564 63.661818 491.400678 63.883636 490.656540 64.105455 489.890055 64.327273 489.101127 64.549091 488.289660 64.770909 487.455557 64.992727 486.598723 65.214545 485.719063 65.436364 484.816480 65.658182 483.890878 65.880000 482.942161 66.101818 481.970234 66.323636 480.975000 66.545455 479.956363 66.767273 478.914229 66.989091 477.848500 67.210909 476.759081 67.432727 475.645876 67.654545 474.508789 67.876364 473.347778 68.098182 472.163010 68.320000 470.954710 68.541818 469.723100 68.763636 468.468401 68.985455 467.190836 69.207273 465.890628 69.429091 464.568000 69.650909 463.223173 69.872727 461.856370 70.094545 460.467814 70.316364 459.057727 70.538182 457.626331 70.760000 456.173849 70.981818 454.700503 71.203636 453.206516 71.425455 451.692110 71.647273 450.157507 71.869091 448.602931 72.090909 447.028603 72.312727 445.434746 72.534545 443.821583 72.756364 442.189335 72.978182 440.538226 73.200000 438.868477 73.421818 437.180311 73.643636 435.473951 73.865455 433.749619 74.087273 432.007537 74.309091 430.247928 74.530909 428.471015 74.752727 426.677019 74.974545 424.866164 75.196364 423.038671 75.418182 421.194763 75.640000 419.334663 75.861818 417.458592 76.083636 415.566774 76.305455 413.659431 76.527273 411.736785 76.749091 409.799059 76.970909 407.846475 77.192727 405.879256 77.414545 403.897623 77.636364 401.901800 77.858182 399.892009 78.080000 397.868473 78.301818 395.831413 78.523636 393.781052 78.745455 391.717613 78.967273 389.641318 79.189091 387.552390 79.410909 385.451051 79.632727 383.337523 79.854545 381.212029 80.076364 379.074791 80.298182 376.926032 80.520000 374.765974 80.741818 372.594840 80.963636 370.412852 81.185455 368.220232 81.407273 366.017204 81.629091 363.803988 81.850909 361.580809 82.072727 359.347888 82.294545 357.105447 82.516364 354.853710 82.738182 352.592898 82.960000 350.323235 83.181818 348.044941 83.403636 345.758241 83.625455 343.463356 83.847273 341.160509 84.069091 338.849922 84.290909 336.531817 84.512727 334.206418 84.734545 331.873946 84.956364 329.534625 85.178182 327.188675 85.400000 324.836321 85.621818 322.477784 85.843636 320.113286 86.065455 317.743051 86.287273 315.367300 86.509091 312.986257 86.730909 310.600143 86.952727 308.209181 87.174545 305.813593 87.396364 303.413602 87.618182 301.009430 87.840000 298.601300 88.061818 296.189434 88.283636 293.774055 88.505455 291.355385 88.727273 288.933646 88.949091 286.509061 89.170909 284.081853 89.392727 281.652243 89.614545 279.220454 89.836364 276.786709 90.058182 274.351230 90.280000 271.914240 90.501818 269.475961 90.723636 267.036615 90.945455 264.596425 91.167273 262.155613 91.389091 259.714402 91.610909 257.273014 91.832727 254.831671 92.054545 252.390597 92.276364 249.950013 92.498182 247.510143 92.720000 245.071207 92.941818 242.633429 93.163636 240.197032 93.385455 237.762237 93.607273 235.329268 93.829091 232.898346 94.050909 230.469693 94.272727 228.043534 94.494545 225.620089 94.716364 223.199582 94.938182 220.782234 95.160000 218.368269 95.381818 215.957908 95.603636 213.551374 95.825455 211.148890 96.047273 208.750678 96.269091 206.356960 96.490909 203.967959 96.712727 201.583897 96.934545 199.204997 97.156364 196.831481 97.378182 194.463572 97.600000 192.101492 97.821818 189.745463 98.043636 187.395709 98.265455 185.052450 98.487273 182.715911 98.709091 180.386312 98.930909 178.063877 99.152727 175.748829 99.374545 173.441389 99.596364 171.141780 99.818182 168.850224 100.040000 166.566944 100.261818 164.292163 100.483636 162.026102 100.705455 159.768985 100.927273 157.521033 101.149091 155.282469 101.370909 153.053516 101.592727 150.834396 101.814545 148.625331 102.036364 146.426544 102.258182 144.238257 102.480000 142.060693 102.701818 139.894074 102.923636 137.738623 103.145455 135.594561 103.367273 133.462112 103.589091 131.341498 103.810909 129.232942 104.032727 127.136665 104.254545 125.052890 104.476364 122.981841 104.698182 120.923738 104.920000 118.878804 105.141818 116.847263 105.363636 114.829336 105.585455 112.825246 105.807273 110.835216 106.029091 108.859467 106.250909 106.898222 106.472727 104.951704 106.694545 103.020135 106.916364 101.103737 107.138182 99.202734 107.360000 97.317347 107.581818 95.447798 107.803636 93.594311 108.025455 91.757108 108.247273 89.936410 108.469091 88.132442 108.690909 86.345424 108.912727 84.575580 109.134545 82.823131 109.356364 81.088301 109.578182 79.371312 109.800000 77.672386 110.021818 75.991746 110.243636 74.329614 110.465455 72.686212 110.687273 71.061763 110.909091 69.456490 111.130909 67.870615 111.352727 66.304359 111.574545 64.757947 111.796364 63.231600 112.018182 61.725540 112.240000 60.239991 112.461818 58.775174 112.683636 57.331311 112.905455 55.908627 113.127273 54.507342 113.349091 53.127679 113.570909 51.769861 113.792727 50.434110 114.014545 49.120649 114.236364 47.829700 114.458182 46.561485 114.680000 45.316227 114.901818 44.094148 115.123636 42.895472 115.345455 41.720419 115.567273 40.569213 115.789091 39.442076 116.010909 38.339231 116.232727 37.260899 116.454545 36.207304 116.676364 35.178668 116.898182 34.175213 117.120000 33.197162 117.341818 32.244737 117.563636 31.318161 117.785455 30.417656 118.007273 29.543444 118.229091 28.695748 118.450909 27.874791 118.672727 27.080794 118.894545 26.313981 119.116364 25.574573 119.338182 24.862793 119.560000 24.178864 119.781818 23.523008 120.003636 22.895447 120.225455 22.296405 120.447273 21.726102 120.669091 21.184763 120.890909 20.672608 121.112727 20.189861 121.334545 19.736744 121.556364 19.313480 121.778182 18.920291 122.000000 18.557399 122.221818 18.225027 122.443636 17.923397 122.665455 17.652732 122.887273 17.413255 123.109091 17.205186 123.330909 17.028677 123.552727 16.883583 123.774545 16.769688 123.996364 16.686776 124.218182 16.634629 124.440000 16.613032 124.661818 16.621767 124.883636 16.660619 125.105455 16.729370 125.327273 16.827805 125.549091 16.955706 125.770909 17.112858 125.992727 17.299043 126.214545 17.514045 126.436364 17.757647 126.658182 18.029634 126.880000 18.329788 127.101818 18.657892 127.323636 19.013731 127.545455 19.397088 127.767273 19.807746 127.989091 20.245489 128.210909 20.710100 128.432727 21.201363 128.654545 21.719061 128.876364 22.262977 129.098182 22.832895 129.320000 23.428599 129.541818 24.049872 129.763636 24.696497 129.985455 25.368258 130.207273 26.064938 130.429091 26.786321 130.650909 27.532190 130.872727 28.302329 131.094545 29.096522 131.316364 29.914550 131.538182 30.756199 131.760000 31.621252 131.981818 32.509491 132.203636 33.420701 132.425455 34.354665 132.647273 35.311166 132.869091 36.289988 133.090909 37.290914 133.312727 38.313728 133.534545 39.358214 133.756364 40.424154 133.978182 41.511332 134.200000 42.619532 134.421818 43.748537 134.643636 44.898130 134.865455 46.068096 135.087273 47.258216 135.309091 48.468276 135.530909 49.698058 135.752727 50.947346 135.974545 52.215924 136.196364 53.503574 136.418182 54.810080 136.640000 56.135226 136.861818 57.478795 137.083636 58.840571 137.305455 60.220336 137.527273 61.617876 137.749091 63.032972 137.970909 64.465408 138.192727 65.914969 138.414545 67.381437 138.636364 68.864596 138.858182 70.364229 139.080000 71.880120 139.301818 73.412052 139.523636 74.959808 139.745455 76.523173 139.967273 78.101930 140.189091 79.695861 140.410909 81.304751 140.632727 82.928383 140.854545 84.566540 141.076364 86.219007 141.298182 87.885565 141.520000 89.566000 141.741818 91.260093 141.963636 92.967630 142.185455 94.688392 142.407273 96.422165 142.629091 98.168730 142.850909 99.927872 143.072727 101.699374 143.294545 103.483020 143.516364 105.278592 143.738182 107.085875 143.960000 108.904652 144.181818 110.734706 144.403636 112.575821 144.625455 114.427780 144.847273 116.290367 145.069091 118.163365 145.290909 120.046558 145.512727 121.939729 145.734545 123.842661 145.956364 125.755139 146.178182 127.676945 146.400000 129.607862 146.621818 131.547676 146.843636 133.496168 147.065455 135.453122 147.287273 137.418323 147.509091 139.391552 147.730909 141.372595 147.952727 143.361233 148.174545 145.357251 148.396364 147.360432 148.618182 149.370560 148.840000 151.387418 149.061818 153.410789 149.283636 155.440457 149.505455 157.476206 149.727273 159.517818 149.949091 161.565078 150.170909 163.617768 150.392727 165.675673 150.614545 167.738576 150.836364 169.806259 151.058182 171.878507 151.280000 173.955104 151.501818 176.035832 151.723636 178.120475 151.945455 180.208816 152.167273 182.300639 152.389091 184.395728 152.610909 186.493865 152.832727 188.594835 153.054545 190.698421 153.276364 192.804406 153.498182 194.912573 153.720000 197.022707 153.941818 199.134590 154.163636 201.248006 154.385455 203.362739 154.607273 205.478572 154.829091 207.595289 155.050909 209.712672 155.272727 211.830506 155.494545 213.948573 155.716364 216.066658 155.938182 218.184543 156.160000 220.302013 156.381818 222.418850 156.603636 224.534839 156.825455 226.649762 157.047273 228.763403 157.269091 230.875546 157.490909 232.985974 157.712727 235.094470 157.934545 237.200818 158.156364 239.304802 158.378182 241.406204 158.600000 243.504809 158.821818 245.600399 159.043636 247.692758 159.265455 249.781671 159.487273 251.866919 159.709091 253.948287 159.930909 256.025558 160.152727 258.098515 160.374545 260.166943 160.596364 262.230624 160.818182 264.289341 161.040000 266.342880 161.261818 268.391021 161.483636 270.433551 161.705455 272.470251 161.927273 274.500905 162.149091 276.525297 162.370909 278.543210 162.592727 280.554427 162.814545 282.558733 163.036364 284.555910 163.258182 286.545742 163.480000 288.528012 163.701818 290.502505 163.923636 292.469002 164.145455 294.427289 164.367273 296.377147 164.589091 298.318362 164.810909 300.250716 165.032727 302.173992 165.254545 304.087974 165.476364 305.992446 165.698182 307.887191 165.920000 309.771993 166.141818 311.646634 166.363636 313.510899 166.585455 315.364571 166.807273 317.207433 167.029091 319.039269 167.250909 320.859862 167.472727 322.668996 167.694545 324.466454 167.916364 326.252019 168.138182 328.025476 168.360000 329.786607 168.581818 331.535197 168.803636 333.271027 169.025455 334.993883 169.247273 336.703547 169.469091 338.399803 169.690909 340.082435 169.912727 341.751225 170.134545 343.405957 170.356364 345.046415 170.578182 346.672382 170.800000 348.283642 171.021818 349.879978 171.243636 351.461173 171.465455 353.027012 171.687273 354.577277 171.909091 356.111752 172.130909 357.630220 172.352727 359.132465 172.574545 360.618270 172.796364 362.087420 173.018182 363.539696 173.240000 364.974883 173.461818 366.392764 173.683636 367.793123 173.905455 369.175743 174.127273 370.540408 174.349091 371.886900 174.570909 373.215004 174.792727 374.524503 175.014545 375.815180 175.236364 377.086819 175.458182 378.339204 175.680000 379.572117 175.901818 380.785342 176.123636 381.978663 176.345455 383.151863 176.567273 384.304726 176.789091 385.437035 177.010909 386.548573 177.232727 387.639125 177.454545 388.708473 177.676364 389.756400 177.898182 390.782691 178.120000 391.787129 178.341818 392.769497 178.563636 393.729579 178.785455 394.667216 179.007273 395.582475 179.229091 396.475483 179.450909 397.346366 179.672727 398.195249 179.894545 399.022259 180.116364 399.827521 180.338182 400.611161 180.560000 401.373305 180.781818 402.114079 181.003636 402.833608 181.225455 403.532019 181.447273 404.209437 181.669091 404.865988 181.890909 405.501798 182.112727 406.116992 182.334545 406.711697 182.556364 407.286039 182.778182 407.840143 183.000000 408.374135 183.221818 408.888141 183.443636 409.382286 183.665455 409.856698 183.887273 410.311500 184.109091 410.746820 184.330909 411.162783 184.552727 411.559515 184.774545 411.937142 184.996364 412.295789 185.218182 412.635583 185.440000 412.956649 185.661818 413.259114 185.883636 413.543102 186.105455 413.808740 186.327273 414.056153 186.549091 414.285468 186.770909 414.496810 186.992727 414.690306 187.214545 414.866080 187.436364 415.024259 187.658182 415.164969 187.880000 415.288336 188.101818 415.394484 188.323636 415.483541 188.545455 415.555632 188.767273 415.610882 188.989091 415.649418 189.210909 415.671366 189.432727 415.676851 189.654545 415.665999 189.876364 415.638936 190.098182 415.595788 190.320000 415.536681 190.541818 415.461740 190.763636 415.371091 190.985455 415.264861 191.207273 415.143175 191.429091 415.006158 191.650909 414.853937 191.872727 414.686638 192.094545 414.504386 192.316364 414.307307 192.538182 414.095527 192.760000 413.869172 192.981818 413.628368 193.203636 413.373240 193.425455 413.103915 193.647273 412.820518 193.869091 412.523175 194.090909 412.212011 194.312727 411.887154 194.534545 411.548728 194.756364 411.196859 194.978182 410.831674 195.200000 410.453297 195.421818 410.061856 195.643636 409.657475 195.865455 409.240281 196.087273 408.810399 196.309091 408.367955 196.530909 407.913076 196.752727 407.445886 196.974545 406.966512 197.196364 406.475080 197.418182 405.971715 197.640000 405.456543 197.861818 404.929690 198.083636 404.391282 198.305455 403.841445 198.527273 403.280305 198.749091 402.707987 198.970909 402.124617 199.192727 401.530322 199.414545 400.925226 199.636364 400.309456 199.858182 399.683137 200.080000 399.046396 200.301818 398.399359 200.523636 397.742150 200.745455 397.074896 200.967273 396.397724 201.189091 395.710757 201.410909 395.014123 201.632727 394.307948 201.854545 393.592356 202.076364 392.867475 202.298182 392.133429 202.520000 391.390345 202.741818 390.638349 202.963636 389.877565 203.185455 389.108121 203.407273 388.330142 203.629091 387.543753 203.850909 386.749081 204.072727 385.946252 204.294545 385.135391 204.516364 384.316624 204.738182 383.490077 204.960000 382.655876 205.181818 381.814147 205.403636 380.965015 205.625455 380.108606 205.847273 379.245047 206.069091 378.374462 206.290909 377.496978 206.512727 376.612721 206.734545 375.721817 206.956364 374.824391 207.178182 373.920569 207.400000 373.010477 207.621818 372.094241 207.843636 371.171986 208.065455 370.243839 208.287273 369.309926 208.509091 368.370371 208.730909 367.425302 208.952727 366.474843 209.174545 365.519121 209.396364 364.558262 209.618182 363.592391 209.840000 362.621634 210.061818 361.646117 210.283636 360.665966 210.505455 359.681307 210.727273 358.692266 210.949091 357.698967 211.170909 356.701538 211.392727 355.700104 211.614545 354.694791 211.836364 353.685725 212.058182 352.673031 212.280000 351.656835 212.501818 350.637264 212.723636 349.614443 212.945455 348.588498 213.167273 347.559554 213.389091 346.527738 213.610909 345.493176 213.832727 344.455992 214.054545 343.416314 214.276364 342.374267 214.498182 341.329976 214.720000 340.283568 214.941818 339.235168 215.163636 338.184903 215.385455 337.132898 215.607273 336.079278 215.829091 335.024171 216.050909 333.967701 216.272727 332.909994 216.494545 331.851177 216.716364 330.791375 216.938182 329.730713 217.160000 328.669319 217.381818 327.607317 217.603636 326.544834 217.825455 325.481994 218.047273 324.418925 218.269091 323.355752 218.490909 322.292601 218.712727 321.229597 218.934545 320.166867 219.156364 319.104536 219.378182 318.042730 219.600000 316.981576 219.821818 315.921198 220.043636 314.861722 220.265455 313.803275 220.487273 312.745983 220.709091 311.689970 220.930909 310.635364 221.152727 309.582289 221.374545 308.530872 221.596364 307.481238 221.818182 306.433514 222.040000 305.387825 222.261818 304.344297 222.483636 303.303056 222.705455 302.264227 222.927273 301.227937 223.149091 300.194311 223.370909 299.163476 223.592727 298.135556 223.814545 297.110678 224.036364 296.088968 224.258182 295.070552 224.480000 294.055555 224.701818 293.044103 224.923636 292.036322 225.145455 291.032337 225.367273 290.032276 225.589091 289.036263 225.810909 288.044424 226.032727 287.056886 226.254545 286.073774 226.476364 285.095213 226.698182 284.121331 226.920000 283.152251 227.141818 282.188102 227.363636 281.229007 227.585455 280.275093 227.807273 279.326487 228.029091 278.383313 228.250909 277.445697 228.472727 276.513766 228.694545 275.587645 228.916364 274.667461 229.138182 273.753338 229.360000 272.845403 229.581818 271.943781 229.803636 271.048599 230.025455 270.159982 230.247273 269.278056 230.469091 268.402947 230.690909 267.534781 230.912727 266.673684 231.134545 265.819780 231.356364 264.973197 231.578182 264.134061 231.800000 263.302496 232.021818 262.478629 232.243636 261.662585 232.465455 260.854491 232.687273 260.054472 232.909091 259.262654 233.130909 258.479163 233.352727 257.704125 233.574545 256.937666 233.796364 256.179911 234.018182 255.430986 234.240000 254.690989 234.461818 253.959903 234.683636 253.237682 234.905455 252.524281 235.127273 251.819655 235.349091 251.123758 235.570909 250.436546 235.792727 249.757972 236.014545 249.087991 236.236364 248.426558 236.458182 247.773628 236.680000 247.129156 236.901818 246.493095 237.123636 245.865401 237.345455 245.246029 237.567273 244.634932 237.789091 244.032066 238.010909 243.437385 238.232727 242.850844 238.454545 242.272397 238.676364 241.702000 238.898182 241.139607 239.120000 240.585172 239.341818 240.038651 239.563636 239.499997 239.785455 238.969166 240.007273 238.446112 240.229091 237.930789 240.450909 237.423154 240.672727 236.923159 240.894545 236.430760 241.116364 235.945911 241.338182 235.468568 241.560000 234.998684 241.781818 234.536215 242.003636 234.081115 242.225455 233.633338 242.447273 233.192840 242.669091 232.759575 242.890909 232.333498 243.112727 231.914563 243.334545 231.502725 243.556364 231.097938 243.778182 230.700158 244.000000 230.309339 244.221818 229.925435 244.443636 229.548402 244.665455 229.178193 244.887273 228.814764 245.109091 228.458070 245.330909 228.108064 245.552727 227.764702 245.774545 227.427938 245.996364 227.097727 246.218182 226.774023 246.440000 226.456781 246.661818 226.145957 246.883636 225.841503 247.105455 225.543376 247.327273 225.251530 247.549091 224.965919 247.770909 224.686498 247.992727 224.413222 248.214545 224.146046 248.436364 223.884923 248.658182 223.629809 248.880000 223.380659 249.101818 223.137426 249.323636 222.900066 249.545455 222.668534 249.767273 222.442783 249.989091 222.222770 250.210909 222.008447 250.432727 221.799771 250.654545 221.596695 250.876364 221.399174 251.098182 221.207163 251.320000 221.020617 251.541818 220.839490 251.763636 220.663737 251.985455 220.493312 252.207273 220.328171 252.429091 220.168268 252.650909 220.013557 252.872727 219.863993 253.094545 219.719531 253.316364 219.580125 253.538182 219.445731 253.760000 219.316302 253.981818 219.191794 254.203636 219.072161 254.425455 218.957358 254.647273 218.847339 254.869091 218.742059 255.090909 218.641473 255.312727 218.545535 255.534545 218.454201 255.756364 218.367423 255.978182 218.285159 256.200000 218.207361 256.421818 218.133985 256.643636 218.064985 256.865455 218.000317 257.087273 217.939933 257.309091 217.883790 257.530909 217.831843 257.752727 217.784044 257.974545 217.740350 258.196364 217.700715 258.418182 217.665093 258.640000 217.633440 258.861818 217.605709 259.083636 217.581856 259.305455 217.561835 259.527273 217.545601 259.749091 217.533108 259.970909 217.524312 260.192727 217.519166 260.414545 217.517626 260.636364 217.519645 260.858182 217.525180 261.080000 217.534184 261.301818 217.546612 261.523636 217.562419 261.745455 217.581559 261.967273 217.603987 262.189091 217.629658 262.410909 217.658526 262.632727 217.690547 262.854545 217.725673 263.076364 217.763862 263.298182 217.805066 263.520000 217.849241 263.741818 217.896341 263.963636 217.946321 264.185455 217.999135 264.407273 218.054739 264.629091 218.113087 264.850909 218.174133 265.072727 218.237832 265.294545 218.304140 265.516364 218.373010 265.738182 218.444397 265.960000 218.518256 266.181818 218.594541 266.403636 218.673207 266.625455 218.754210 266.847273 218.837502 267.069091 218.923040 267.290909 219.010778 267.512727 219.100670 267.734545 219.192671 267.956364 219.286736 268.178182 219.382819 268.400000 219.480875 268.621818 219.580859 268.843636 219.682726 269.065455 219.786429 269.287273 219.891924 269.509091 219.999165 269.730909 220.108107 269.952727 220.218705 270.174545 220.330913 270.396364 220.444686 270.618182 220.559979 270.840000 220.676746 271.061818 220.794942 271.283636 220.914521 271.505455 221.035439 271.727273 221.157649 271.949091 221.281107 272.170909 221.405768 272.392727 221.531585 272.614545 221.658513 272.836364 221.786508 273.058182 221.915523 273.280000 222.045514 273.501818 222.176435 273.723636 222.308241 273.945455 222.440886 274.167273 222.574325 274.389091 222.708513 274.610909 222.843405 274.832727 222.978954 275.054545 223.115116 275.276364 223.251846 275.498182 223.389097 275.720000 223.526826 275.941818 223.664985 276.163636 223.803530 276.385455 223.942417 276.607273 224.081598 276.829091 224.221029 277.050909 224.360665 277.272727 224.500460 277.494545 224.640369 277.716364 224.780347 277.938182 224.920348 278.160000 225.060327 278.381818 225.200238 278.603636 225.340036 278.825455 225.479677 279.047273 225.619114 279.269091 225.758301 279.490909 225.897195 279.712727 226.035749 279.934545 226.173919 280.156364 226.311658 280.378182 226.448921 280.600000 226.585664 280.821818 226.721840 281.043636 226.857405 281.265455 226.992313 281.487273 227.126518 281.709091 227.259976 281.930909 227.392641 282.152727 227.524468 282.374545 227.655410 282.596364 227.785424 282.818182 227.914464 283.040000 228.042483 283.261818 228.169438 283.483636 228.295282 283.705455 228.419971 283.927273 228.543459 284.149091 228.665700 284.370909 228.786649 284.592727 228.906261 284.814545 229.024491 285.036364 229.141293 285.258182 229.256621 285.480000 229.370431 285.701818 229.482678 285.923636 229.593315 286.145455 229.702298 286.367273 229.809580 286.589091 229.915118 286.810909 230.018865 287.032727 230.120776 287.254545 230.220806 287.476364 230.318909 287.698182 230.415040 287.920000 230.509154 288.141818 230.601206 288.363636 230.691149 288.585455 230.778939 288.807273 230.864530 289.029091 230.947878 289.250909 231.028936 289.472727 231.107659 289.694545 231.184009 289.916364 231.257971 290.138182 231.329538 290.360000 231.398704 290.581818 231.465461 290.803636 231.529801 291.025455 231.591717 291.247273 231.651202 291.469091 231.708249 291.690909 231.762850 291.912727 231.814998 292.134545 231.864686 292.356364 231.911906 292.578182 231.956652 292.800000 231.998916 293.021818 232.038690 293.243636 232.075967 293.465455 232.110741 293.687273 232.143003 293.909091 232.172747 294.130909 232.199965 294.352727 232.224650 294.574545 232.246794 294.796364 232.266391 295.018182 232.283432 295.240000 232.297912 295.461818 232.309822 295.683636 232.319155 295.905455 232.325904 296.127273 232.330061 296.349091 232.331620 296.570909 232.330573 296.792727 232.326912 297.014545 232.320631 297.236364 232.311722 297.458182 232.300178 297.680000 232.285991 297.901818 232.269155 298.123636 232.249661 298.345455 232.227503 298.567273 232.202674 298.789091 232.175166 299.010909 232.144972 299.232727 232.112084 299.454545 232.076495 299.676364 232.038198 299.898182 231.997186 300.120000 231.953452 300.341818 231.906987 300.563636 231.857785 300.785455 231.805839 301.007273 231.751141 301.229091 231.693684 301.450909 231.633460 301.672727 231.570463 301.894545 231.504685 302.116364 231.436118 302.338182 231.364756 302.560000 231.290592 302.781818 231.213617 303.003636 231.133825 303.225455 231.051208 303.447273 230.965759 303.669091 230.877471 303.890909 230.786336 304.112727 230.692348 304.334545 230.595498 304.556364 230.495780 304.778182 230.393187 305.000000 230.287710 305.221818 230.179343 305.443636 230.068078 305.665455 229.953909 305.887273 229.836828 306.109091 229.716827 306.330909 229.593899 306.552727 229.468037 306.774545 229.339234 306.996364 229.207483 307.218182 229.072775 307.440000 228.935105 307.661818 228.794464 307.883636 228.650845 308.105455 228.504241 308.327273 228.354645 308.549091 228.202049 308.770909 228.046446 308.992727 227.887829 309.214545 227.726191 309.436364 227.561524 309.658182 227.393821 309.880000 227.223074 310.101818 227.049277 310.323636 226.872422 310.545455 226.692501 310.767273 226.509509 310.989091 226.323436 311.210909 226.134276 311.432727 225.942022 311.654545 225.746667 311.876364 225.548202 312.098182 225.346621 312.320000 225.141917 312.541818 224.934081 312.763636 224.723108 312.985455 224.508989 313.207273 224.291718 313.429091 224.071287 313.650909 223.847688 313.872727 223.620915 314.094545 223.390960 314.316364 223.157816 314.538182 222.921475 314.760000 222.681931 314.981818 222.439175 315.203636 222.193202 315.425455 221.944003 315.647273 221.691571 315.869091 221.435899 316.090909 221.176979 316.312727 220.914805 316.534545 220.649369 316.756364 220.380663 316.978182 220.108681 317.200000 219.833415 317.421818 219.554857 317.643636 219.273002 317.865455 218.987840 318.087273 218.699366 318.309091 218.407571 318.530909 218.112448 318.752727 217.813991 318.974545 217.512191 319.196364 217.207042 319.418182 216.898537 319.640000 216.586667 319.861818 216.271426 320.083636 215.952806 320.305455 215.630800 320.527273 215.305401 320.749091 214.976601 320.970909 214.644394 321.192727 214.308772 321.414545 213.969727 321.636364 213.627252 321.858182 213.281341 322.080000 212.931985 322.301818 212.579178 322.523636 212.222912 322.745455 211.863180 322.967273 211.499975 323.189091 211.133289 323.410909 210.763114 323.632727 210.389445 323.854545 210.012273 324.076364 209.631591 324.298182 209.247392 324.520000 208.859669 324.741818 208.468414 324.963636 208.073620 325.185455 207.675280 325.407273 207.273386 325.629091 206.867931 325.850909 206.458908 326.072727 206.046310 326.294545 205.630129 326.516364 205.210358 326.738182 204.786989 326.960000 204.360016 327.181818 203.929431 327.403636 203.495227 327.625455 203.057397 327.847273 202.615932 328.069091 202.170827 328.290909 201.722073 328.512727 201.269664 328.734545 200.813592 328.956364 200.353849 329.178182 199.890429 329.400000 199.423325 329.621818 198.952528 329.843636 198.478032 330.065455 197.999829 330.287273 197.517912 330.509091 197.032274 330.730909 196.542908 330.952727 196.049806 331.174545 195.552961 331.396364 195.052365 331.618182 194.548012 331.840000 194.039893 332.061818 193.528003 332.283636 193.012333 332.505455 192.492876 332.727273 191.969625 332.949091 191.442572 333.170909 190.911711 333.392727 190.377034 333.614545 189.838534 333.836364 189.296203 334.058182 188.750034 334.280000 188.200020 334.501818 187.646154 334.723636 187.088428 334.945455 186.526835 335.167273 185.961368 335.389091 185.392019 335.610909 184.818781 335.832727 184.241647 336.054545 183.660610 336.276364 183.075662 336.498182 182.486795 336.720000 181.894004 336.941818 181.297280 337.163636 180.696616 337.385455 180.092005 337.607273 179.483439 337.829091 178.870912 338.050909 178.254416 338.272727 177.633943 338.494545 177.009487 338.716364 176.381039 338.938182 175.748594 339.160000 175.112143 339.381818 174.471679 339.603636 173.827195 339.825455 173.178684 340.047273 172.526138 340.269091 171.869551 340.490909 171.208914 340.712727 170.544220 340.934545 169.875463 341.156364 169.202634 341.378182 168.525728 341.600000 167.844735 341.821818 167.159650 342.043636 166.470464 342.265455 165.777171 342.487273 165.079763 342.709091 164.378233 342.930909 163.672573 343.152727 162.962777 343.374545 162.248837 343.596364 161.530745 343.818182 160.808495 344.040000 160.082079 344.261818 159.351490 344.483636 158.616721 344.705455 157.877763 344.927273 157.134611 345.149091 156.387269 345.370909 155.635791 345.592727 154.880245 345.814545 154.120697 346.036364 153.357213 346.258182 152.589862 346.480000 151.818708 346.701818 151.043820 346.923636 150.265265 347.145455 149.483107 347.367273 148.697416 347.589091 147.908257 347.810909 147.115697 348.032727 146.319803 348.254545 145.520642 348.476364 144.718281 348.698182 143.912786 348.920000 143.104224 349.141818 142.292662 349.363636 141.478167 349.585455 140.660806 349.807273 139.840644 350.029091 139.017750 350.250909 138.192190 350.472727 137.364031 350.694545 136.533339 350.916364 135.700182 351.138182 134.864625 351.360000 134.026737 351.581818 133.186583 351.803636 132.344231 352.025455 131.499747 352.247273 130.653198 352.469091 129.804651 352.690909 128.954173 352.912727 128.101830 353.134545 127.247689 353.356364 126.391818 353.578182 125.534282 353.800000 124.675149 354.021818 123.814485 354.243636 122.952358 354.465455 122.088833 354.687273 121.223978 354.909091 120.357860 355.130909 119.490546 355.352727 118.622101 355.574545 117.752594 355.796364 116.882090 356.018182 116.010657 356.240000 115.138361 356.461818 114.265269 356.683636 113.391449 356.905455 112.516966 357.127273 111.641887 357.349091 110.766280 357.570909 109.890211 357.792727 109.013747 358.014545 108.136954 358.236364 107.259900 358.458182 106.382652 358.680000 105.505275 358.901818 104.627837 359.123636 103.750405 359.345455 102.873046 359.567273 101.995825 359.789091 101.118811 360.010909 100.242070 360.232727 99.365668 360.454545 98.489672 360.676364 97.614150 360.898182 96.739168 361.120000 95.864793 361.341818 94.991091 361.563636 94.118129 361.785455 93.245975 362.007273 92.374695 362.229091 91.504355 362.450909 90.635023 362.672727 89.766766 362.894545 88.899649 363.116364 88.033741 363.338182 87.169107 363.560000 86.305815 363.781818 85.443931 364.003636 84.583522 364.225455 83.724655 364.447273 82.867397 364.669091 82.011814 364.890909 81.157974 365.112727 80.305942 365.334545 79.455787 365.556364 78.607574 365.778182 77.761371 366.000000 76.917243 366.221818 76.075259 366.443636 75.235485 366.665455 74.397987 366.887273 73.562833 367.109091 72.730089 367.330909 71.899822 367.552727 71.072099 367.774545 70.246986 367.996364 69.424551 368.218182 68.604860 368.440000 67.787980 368.661818 66.973977 368.883636 66.162920 369.105455 65.354873 369.327273 64.549905 369.549091 63.748082 369.770909 62.949470 369.992727 62.154137 370.214545 61.362149 370.436364 60.573573 370.658182 59.788477 370.880000 59.006925 371.101818 58.228987 371.323636 57.454727 371.545455 56.684214 371.767273 55.917514 371.989091 55.154693 372.210909 54.395819 372.432727 53.640958 372.654545 52.890177 372.876364 52.143542 373.098182 51.401122 373.320000 50.662982 373.541818 49.929189 373.763636 49.199810 373.985455 48.474912 374.207273 47.754561 374.429091 47.038825 374.650909 46.327770 374.872727 45.621463 375.094545 44.919971 375.316364 44.223360 375.538182 43.531698 375.760000 42.845050 375.981818 42.163485 376.203636 41.487068 376.425455 40.815867 376.647273 40.149949 376.869091 39.489379 377.090909 38.834225 377.312727 38.184554 377.534545 37.540432 377.756364 36.901927 377.978182 36.269105 378.200000 35.642033 378.421818 35.020777 378.643636 34.405405 378.865455 33.795982 379.087273 33.192577 379.309091 32.595256 379.530909 32.004086 379.752727 31.419133 379.974545 30.840464 380.196364 30.268146 380.418182 29.702245 380.640000 29.142830 380.861818 28.589966 381.083636 28.043720 381.305455 27.504159 381.527273 26.971349 381.749091 26.445359 381.970909 25.926253 382.192727 25.414100 382.414545 24.908965 382.636364 24.410917 382.858182 23.920021 383.080000 23.436344 383.301818 22.959953 383.523636 22.490915 383.745455 22.029297 383.967273 21.575166 384.189091 21.128587 384.410909 20.689629 384.632727 20.258357 384.854545 19.834840 385.076364 19.419142 385.298182 19.011332 385.520000 18.611476 385.741818 18.219641 385.963636 17.835893 386.185455 17.460300 386.407273 17.092928 386.629091 16.733844 386.850909 16.383114 387.072727 16.040807 387.294545 15.706987 387.516364 15.381723 387.738182 15.065081 387.960000 14.757128 388.181818 14.457930 388.403636 14.167554 388.625455 13.886068 388.847273 13.613537 389.069091 13.350030 389.290909 13.095611 389.512727 12.850349 389.734545 12.614311 389.956364 12.387562 390.178182 12.170169 390.400000 11.962200 390.621818 11.763722 390.843636 11.574800 391.065455 11.395503 391.287273 11.225896 391.509091 11.066046 391.730909 10.916021 391.952727 10.775887 392.174545 10.645710 392.396364 10.525558 392.618182 10.415498 392.840000 10.315596 393.061818 10.225919 393.283636 10.146533 393.505455 10.077506 393.727273 10.018905 393.949091 9.970795 394.170909 9.933245 394.392727 9.906320 394.614545 9.890088 394.836364 9.884615 395.058182 9.889969 395.280000 9.906215 395.501818 9.933421 395.723636 9.971654 395.945455 10.020979 396.167273 10.081465 396.389091 10.153178 396.610909 10.236185 396.832727 10.330551 397.054545 10.436346 397.276364 10.553634 397.498182 10.682483 397.720000 10.822960 397.941818 10.975131 398.163636 11.139063 398.385455 11.314824 398.607273 11.502479 398.829091 11.702096 399.050909 11.913741 399.272727 12.137482 399.494545 12.373384 399.716364 12.621515 399.938182 12.881942 400.160000 13.154732 400.381818 13.439950 400.603636 13.737636 400.825455 14.047720 401.047273 14.370100 401.269091 14.704678 401.490909 15.051355 401.712727 15.410030 401.934545 15.780605 402.156364 16.162981 402.378182 16.557057 402.600000 16.962735 402.821818 17.379914 403.043636 17.808497 403.265455 18.248382 403.487273 18.699472 403.709091 19.161666 403.930909 19.634865 404.152727 20.118970 404.374545 20.613881 404.596364 21.119499 404.818182 21.635725 405.040000 22.162459 405.261818 22.699601 405.483636 23.247053 405.705455 23.804715 405.927273 24.372488 406.149091 24.950271 406.370909 25.537967 406.592727 26.135475 406.814545 26.742696 407.036364 27.359531 407.258182 27.985879 407.480000 28.621643 407.701818 29.266723 407.923636 29.921018 408.145455 30.584430 408.367273 31.256859 408.589091 31.938207 408.810909 32.628373 409.032727 33.327258 409.254545 34.034762 409.476364 34.750787 409.698182 35.475233 409.920000 36.208001 410.141818 36.948991 410.363636 37.698103 410.585455 38.455239 410.807273 39.220300 411.029091 39.993184 411.250909 40.773794 411.472727 41.562030 411.694545 42.357792 411.916364 43.160981 412.138182 43.971498 412.360000 44.789244 412.581818 45.614118 412.803636 46.446022 413.025455 47.284855 413.247273 48.130520 413.469091 48.982916 413.690909 49.841944 413.912727 50.707504 414.134545 51.579498 414.356364 52.457825 414.578182 53.342387 414.800000 54.233084 415.021818 55.129816 415.243636 56.032485 415.465455 56.940990 415.687273 57.855233 415.909091 58.775114 416.130909 59.700533 416.352727 60.631392 416.574545 61.567591 416.796364 62.509030 417.018182 63.455611 417.240000 64.407233 417.461818 65.363797 417.683636 66.325204 417.905455 67.291355 418.127273 68.262150 418.349091 69.237490 418.570909 70.217275 418.792727 71.201407 419.014545 72.189784 419.236364 73.182309 419.458182 74.178882 419.680000 75.179403 419.901818 76.183773 420.123636 77.191893 420.345455 78.203664 420.567273 79.218985 420.789091 80.237757 421.010909 81.259882 421.232727 82.285259 421.454545 83.313790 421.676364 84.345374 421.898182 85.379913 422.120000 86.417307 422.341818 87.457457 422.563636 88.500264 422.785455 89.545627 423.007273 90.593448 423.229091 91.643627 423.450909 92.696064 423.672727 93.750662 423.894545 94.807319 424.116364 95.865937 424.338182 96.926416 424.560000 97.988657 424.781818 99.052560 425.003636 100.118027 425.225455 101.184957 425.447273 102.253252 425.669091 103.322811 425.890909 104.393536 426.112727 105.465327 426.334545 106.538085 426.556364 107.611710 426.778182 108.686103 427.000000 109.761164 427.221818 110.836795 427.443636 111.912896 427.665455 112.989367 427.887273 114.066109 428.109091 115.143022 428.330909 116.220008 428.552727 117.296967 428.774545 118.373799 428.996364 119.450405 429.218182 120.526686 429.440000 121.602542 429.661818 122.677874 429.883636 123.752582 430.105455 124.826568 430.327273 125.899731 430.549091 126.971972 430.770909 128.043193 430.992727 129.113293 431.214545 130.182173 431.436364 131.249734 431.658182 132.315877 431.880000 133.380501 432.101818 134.443508 432.323636 135.504798 432.545455 136.564272 432.767273 137.621830 432.989091 138.677374 433.210909 139.730803 433.432727 140.782018 433.654545 141.830920 433.876364 142.877410 434.098182 143.921388 434.320000 144.962754 434.541818 146.001410 434.763636 147.037256 434.985455 148.070192 435.207273 149.100119 435.429091 150.126938 435.650909 151.150550 435.872727 152.170854 436.094545 153.187752 436.316364 154.201144 436.538182 155.210931 436.760000 156.217014 436.981818 157.219292 437.203636 158.217667 437.425455 159.212040 437.647273 160.202310 437.869091 161.188378 438.090909 162.170146 438.312727 163.147513 438.534545 164.120381 438.756364 165.088650 438.978182 166.052220 439.200000 167.010992 439.421818 167.964867 439.643636 168.913745 439.865455 169.857527 440.087273 170.796114 440.309091 171.729406 440.530909 172.657303 440.752727 173.579708 440.974545 174.496519 441.196364 175.407637 441.418182 176.312964 441.640000 177.212400 441.861818 178.105845 442.083636 178.993201 442.305455 179.874367 442.527273 180.749244 442.749091 181.617733 442.970909 182.479734 443.192727 183.335149 443.414545 184.183877 443.636364 185.025820 443.858182 185.860878 444.080000 186.688951 444.301818 187.509940 444.523636 188.323747 444.745455 189.130270 444.967273 189.929412 445.189091 190.721072 445.410909 191.505151 445.632727 192.281550 445.854545 193.050169 446.076364 193.810910 446.298182 194.563672 446.520000 195.308357 446.741818 196.044864 446.963636 196.773095 447.185455 197.492950 447.407273 198.204329 447.629091 198.907134 447.850909 199.601265 448.072727 200.286622 448.294545 200.963107 448.516364 201.630619 448.738182 202.289060 448.960000 202.938329 449.181818 203.578328 449.403636 204.208958 449.625455 204.830118 449.847273 205.441709 450.069091 206.043633 450.290909 206.635789 450.512727 207.218078 450.734545 207.790402 450.956364 208.352659 451.178182 208.904752 451.400000 209.446581 451.621818 209.978045 451.843636 210.499047 452.065455 211.009486 452.287273 211.509263 452.509091 211.998279 452.730909 212.476435 452.952727 212.943630 453.174545 213.399766 453.396364 213.844743 453.618182 214.278462 453.840000 214.700823 454.061818 215.111727 454.283636 215.511075 454.505455 215.898767 454.727273 216.274704 454.949091 216.638786 455.170909 216.990915 455.392727 217.330990 455.614545 217.658912 455.836364 217.974582 456.058182 218.277929 456.280000 218.568990 456.501818 218.847834 456.723636 219.114526 456.945455 219.369133 457.167273 219.611722 457.389091 219.842360 457.610909 220.061114 457.832727 220.268049 458.054545 220.463233 458.276364 220.646733 458.498182 220.818615 458.720000 220.978946 458.941818 221.127792 459.163636 221.265221 459.385455 221.391299 459.607273 221.506092 459.829091 221.609668 460.050909 221.702093 460.272727 221.783433 460.494545 221.853756 460.716364 221.913129 460.938182 221.961617 461.160000 221.999287 461.381818 222.026207 461.603636 222.042443 461.825455 222.048062 462.047273 222.043130 462.269091 222.027714 462.490909 222.001881 462.712727 221.965697 462.934545 221.919230 463.156364 221.862545 463.378182 221.795710 463.600000 221.718791 463.821818 221.631856 464.043636 221.534970 464.265455 221.428200 464.487273 221.311613 464.709091 221.185276 464.930909 221.049256 465.152727 220.903618 465.374545 220.748431 465.596364 220.583760 465.818182 220.409673 466.040000 220.226235 466.261818 220.033514 466.483636 219.831576 466.705455 219.620489 466.927273 219.400318 467.149091 219.171131 467.370909 218.932994 467.592727 218.685973 467.814545 218.430136 468.036364 218.165550 468.258182 217.892280 468.480000 217.610395 468.701818 217.319959 468.923636 217.021041 469.145455 216.713706 469.367273 216.398022 469.589091 216.074055 469.810909 215.741871 470.032727 215.401539 470.254545 215.053123 470.476364 214.696692 470.698182 214.332311 470.920000 213.960047 471.141818 213.579968 471.363636 213.192139 471.585455 212.796628 471.807273 212.393501 472.029091 211.982825 472.250909 211.564666 472.472727 211.139091 472.694545 210.706168 472.916364 210.265962 473.138182 209.818540 473.360000 209.363970 473.581818 208.902317 473.803636 208.433649 474.025455 207.958032 474.247273 207.475532 474.469091 206.986218 474.690909 206.490154 474.912727 205.987408 475.134545 205.478047 475.356364 204.962138 475.578182 204.439746 475.800000 203.910939 476.021818 203.375784 476.243636 202.834347 476.465455 202.286694 476.687273 201.732893 476.909091 201.173010 477.130909 200.607113 477.352727 200.035267 477.574545 199.457539 477.796364 198.873996 478.018182 198.284705 478.240000 197.689732 478.461818 197.089145 478.683636 196.483009 478.905455 195.871392 479.127273 195.254360 479.349091 194.631980 479.570909 194.004319 479.792727 193.371443 480.014545 192.733419 480.236364 192.090313 480.458182 191.442193 480.680000 190.789126 480.901818 190.131177 481.123636 189.468413 481.345455 188.800902 481.567273 188.128710 481.789091 187.451903 482.010909 186.770549 482.232727 186.084713 482.454545 185.394464 482.676364 184.699867 482.898182 184.000988 483.120000 183.297896 483.341818 182.590656 483.563636 181.879336 483.785455 181.164001 484.007273 180.444719 484.229091 179.721557 484.450909 178.994580 484.672727 178.263856 484.894545 177.529451 485.116364 176.791433 485.338182 176.049867 485.560000 175.304821 485.781818 174.556361 486.003636 173.804554 486.225455 173.049466 486.447273 172.291165 486.669091 171.529717 486.890909 170.765189 487.112727 169.997647 487.334545 169.227158 487.556364 168.453789 487.778182 167.677606 488.000000 166.898677 488.221818 166.117067 488.443636 165.332844 488.665455 164.546074 488.887273 163.756825 489.109091 162.965162 489.330909 162.171152 489.552727 161.374863 489.774545 160.576360 489.996364 159.775711 490.218182 158.972982 490.440000 158.168240 490.661818 157.361551 490.883636 156.552983 491.105455 155.742602 491.327273 154.930474 491.549091 154.116667 491.770909 153.301247 491.992727 152.484281 492.214545 151.665835 492.436364 150.845977 492.658182 150.024772 492.880000 149.202288 493.101818 148.378591 493.323636 147.553748 493.545455 146.727826 493.767273 145.900891 493.989091 145.073011 494.210909 144.244251 494.432727 143.414678 494.654545 142.584360 494.876364 141.753363 495.098182 140.921753 495.320000 140.089597 495.541818 139.256963 495.763636 138.423916 495.985455 137.590523 496.207273 136.756852 496.429091 135.922968 496.650909 135.088939 496.872727 134.254831 497.094545 133.420711 497.316364 132.586645 497.538182 131.752701 497.760000 130.918945 497.981818 130.085443 498.203636 129.252263 498.425455 128.419471 498.647273 127.587133 498.869091 126.755317 499.090909 125.924090 499.312727 125.093517 499.534545 124.263665 499.756364 123.434602 499.978182 122.606394 500.200000 121.779108 500.421818 120.952810 500.643636 120.127567 500.865455 119.303445 501.087273 118.480512 501.309091 117.658835 501.530909 116.838479 501.752727 116.019512 501.974545 115.202000 502.196364 114.386010 502.418182 113.571608 502.640000 112.758862 502.861818 111.947838 503.083636 111.138603 503.305455 110.331223 503.527273 109.525766 503.749091 108.722297 503.970909 107.920884 504.192727 107.121593 504.414545 106.324491 504.636364 105.529645 504.858182 104.737121 505.080000 103.946986 505.301818 103.159307 505.523636 102.374150 505.745455 101.591582 505.967273 100.811671 506.189091 100.034481 506.410909 99.260082 506.632727 98.488538 506.854545 97.719916 507.076364 96.954284 507.298182 96.191708 507.520000 95.432255 507.741818 94.675991 507.963636 93.922984 508.185455 93.173299 508.407273 92.427003 508.629091 91.684164 508.850909 90.944848 509.072727 90.209122 509.294545 89.477052 509.516364 88.748705 509.738182 88.024147 509.960000 87.303447 510.181818 86.586669 510.403636 85.873881 510.625455 85.165149 510.847273 84.460541 511.069091 83.760123 511.290909 83.063961 511.512727 82.372112 511.734545 81.684584 511.956364 81.001378 512.178182 80.322491 512.400000 79.647923 512.621818 78.977673 512.843636 78.311738 513.065455 77.650119 513.287273 76.992813 513.509091 76.339821 513.730909 75.691139 513.952727 75.046768 514.174545 74.406707 514.396364 73.770953 514.618182 73.139506 514.840000 72.512365 515.061818 71.889528 515.283636 71.270994 515.505455 70.656762 515.727273 70.046832 515.949091 69.441201 516.170909 68.839868 516.392727 68.242833 516.614545 67.650094 516.836364 67.061650 517.058182 66.477500 517.280000 65.897642 517.501818 65.322076 517.723636 64.750800 517.945455 64.183814 518.167273 63.621115 518.389091 63.062703 518.610909 62.508576 518.832727 61.958734 519.054545 61.413174 519.276364 60.871897 519.498182 60.334901 519.720000 59.802184 519.941818 59.273746 520.163636 58.749585 520.385455 58.229700 520.607273 57.714090 520.829091 57.202754 521.050909 56.695690 521.272727 56.192898 521.494545 55.694376 521.716364 55.200123 521.938182 54.710137 522.160000 54.224419 522.381818 53.742965 522.603636 53.265776 522.825455 52.792850 523.047273 52.324186 523.269091 51.859783 523.490909 51.399639 523.712727 50.943754 523.934545 50.492126 524.156364 50.044754 524.378182 49.601636 524.600000 49.162773 524.821818 48.728161 525.043636 48.297802 525.265455 47.871692 525.487273 47.449831 525.709091 47.032218 525.930909 46.618851 526.152727 46.209730 526.374545 45.804853 526.596364 45.404219 526.818182 45.007826 527.040000 44.615675 527.261818 44.227763 527.483636 43.844089 527.705455 43.464652 527.927273 43.089451 528.149091 42.718485 528.370909 42.351753 528.592727 41.989253 528.814545 41.630984 529.036364 41.276945 529.258182 40.927135 529.480000 40.581553 529.701818 40.240197 529.923636 39.903066 530.145455 39.570160 530.367273 39.241476 530.589091 38.917015 530.810909 38.596773 531.032727 38.280752 531.254545 37.968948 531.476364 37.661361 531.698182 37.357991 531.920000 37.058835 532.141818 36.763892 532.363636 36.473162 532.585455 36.186643 532.807273 35.904333 533.029091 35.626233 533.250909 35.352340 533.472727 35.082654 533.694545 34.817172 533.916364 34.555895 534.138182 34.298821 534.360000 34.045948 534.581818 33.797276 534.803636 33.552803 535.025455 33.312528 535.247273 33.076450 535.469091 32.844568 535.690909 32.616881 535.912727 32.393387 536.134545 32.174085 536.356364 31.958974 536.578182 31.748053 536.800000 31.541321 537.021818 31.338776 537.243636 31.140418 537.465455 30.946244 537.687273 30.756255 537.909091 30.570449 538.130909 30.388824 538.352727 30.211379 538.574545 30.038114 538.796364 29.869026 539.018182 29.704116 539.240000 29.543381 539.461818 29.386821 539.683636 29.234434 539.905455 29.086220 540.127273 28.942176 540.349091 28.802302 540.570909 28.666596 540.792727 28.535058 541.014545 28.407687 541.236364 28.284480 541.458182 28.165437 541.680000 28.050557 541.901818 27.939839 542.123636 27.833280 542.345455 27.730881 542.567273 27.632640 542.789091 27.538556 543.010909 27.448627 543.232727 27.362853 543.454545 27.281232 543.676364 27.203763 543.898182 27.130445 544.120000 27.061276 544.341818 26.996256 544.563636 26.935384 544.785455 26.878658 545.007273 26.826076 545.229091 26.777639 545.450909 26.733344 545.672727 26.693190 545.894545 26.657177 546.116364 26.625303 546.338182 26.597566 546.560000 26.573967 546.781818 26.554503 547.003636 26.539173 547.225455 26.527976 547.447273 26.520912 547.669091 26.517978 547.890909 26.519174 548.112727 26.524498 548.334545 26.533950 548.556364 26.547527 548.778182 26.565230 549.000000 26.587056 549.221818 26.613005 549.443636 26.643075 549.665455 26.677265 549.887273 26.715575 550.109091 26.758002 550.330909 26.804545 550.552727 26.855205 550.774545 26.909978 550.996364 26.968865 551.218182 27.031863 551.440000 27.098972 551.661818 27.170191 551.883636 27.245518 552.105455 27.324952 552.327273 27.408493 552.549091 27.496138 552.770909 27.587887 552.992727 27.683738 553.214545 27.783690 553.436364 27.887743 553.658182 27.995894 553.880000 28.108144 554.101818 28.224489 554.323636 28.344931 554.545455 28.469466 554.767273 28.598094 554.989091 28.730814 555.210909 28.867625 555.432727 29.008525 555.654545 29.153514 555.876364 29.302590 556.098182 29.455751 556.320000 29.612998 556.541818 29.774328 556.763636 29.939740 556.985455 30.109233 557.207273 30.282807 557.429091 30.460459 557.650909 30.642189 557.872727 30.827996 558.094545 31.017877 558.316364 31.211833 558.538182 31.409862 558.760000 31.611962 558.981818 31.818133 559.203636 32.028374 559.425455 32.242683 559.647273 32.461058 559.869091 32.683500 560.090909 32.910006 560.312727 33.140576 560.534545 33.375208 560.756364 33.613901 560.978182 33.856654 561.200000 34.103466 561.421818 34.354335 561.643636 34.609261 561.865455 34.868242 562.087273 35.131277 562.309091 35.398365 562.530909 35.669504 562.752727 35.944694 562.974545 36.223934 563.196364 36.507221 563.418182 36.794555 563.640000 37.085936 563.861818 37.381360 564.083636 37.680829 564.305455 37.984339 564.527273 38.291890 564.749091 38.603482 564.970909 38.919111 565.192727 39.238779 565.414545 39.562483 565.636364 39.890222 565.858182 40.221994 566.080000 40.557800 566.301818 40.897637 566.523636 41.241505 566.745455 41.589402 566.967273 41.941324 567.189091 42.297258 567.410909 42.657188 567.632727 43.021098 567.854545 43.388972 568.076364 43.760793 568.298182 44.136545 568.520000 44.516212 568.741818 44.899779 568.963636 45.287229 569.185455 45.678546 569.407273 46.073713 569.629091 46.472715 569.850909 46.875536 570.072727 47.282159 570.294545 47.692569 570.516364 48.106749 570.738182 48.524683 570.960000 48.946355 571.181818 49.371749 571.403636 49.800848 571.625455 50.233638 571.847273 50.670101 572.069091 51.110221 572.290909 51.553983 572.512727 52.001370 572.734545 52.452366 572.956364 52.906956 573.178182 53.365122 573.400000 53.826849 573.621818 54.292120 573.843636 54.760920 574.065455 55.233233 574.287273 55.709042 574.509091 56.188331 574.730909 56.671084 574.952727 57.157286 575.174545 57.646919 575.396364 58.139968 575.618182 58.636417 575.840000 59.136249 576.061818 59.639449 576.283636 60.146000 576.505455 60.655886 576.727273 61.169091 576.949091 61.685599 577.170909 62.205395 577.392727 62.728461 577.614545 63.254781 577.836364 63.784341 578.058182 64.317122 578.280000 64.853110 578.501818 65.392288 578.723636 65.934641 578.945455 66.480151 579.167273 67.028803 579.389091 67.580581 579.610909 68.135469 579.832727 68.693450 580.054545 69.254508 580.276364 69.818628 580.498182 70.385793 580.720000 70.955987 580.941818 71.529194 581.163636 72.105398 581.385455 72.684583 581.607273 73.266732 581.829091 73.851830 582.050909 74.439861 582.272727 75.030807 582.494545 75.624654 582.716364 76.221385 582.938182 76.820984 583.160000 77.423435 583.381818 78.028721 583.603636 78.636827 583.825455 79.247737 584.047273 79.861434 584.269091 80.477902 584.490909 81.097126 584.712727 81.719088 584.934545 82.343774 585.156364 82.971166 585.378182 83.601249 585.600000 84.234007 585.821818 84.869423 586.043636 85.507482 586.265455 86.148167 586.487273 86.791462 586.709091 87.437351 586.930909 88.085818 587.152727 88.736847 587.374545 89.390422 587.596364 90.046526 587.818182 90.705144 588.040000 91.366259 588.261818 92.029856 588.483636 92.695917 588.705455 93.364428 588.927273 94.035372 589.149091 94.708732 589.370909 95.384493 589.592727 96.062639 589.814545 96.743153 590.036364 97.426020 590.258182 98.111223 590.480000 98.798746 590.701818 99.488573 590.923636 100.180688 591.145455 100.875075 591.367273 101.571717 591.589091 102.270600 591.810909 102.971705 592.032727 103.675018 592.254545 104.380522 592.476364 105.088202 592.698182 105.798040 592.920000 106.510022 593.141818 107.224130 593.363636 107.940349 593.585455 108.658662 593.807273 109.379054 594.029091 110.101508 594.250909 110.826009 594.472727 111.552539 594.694545 112.281084 594.916364 113.011627 595.138182 113.744151 595.360000 114.478641 595.581818 115.215081 595.803636 115.953454 596.025455 116.693744 596.247273 117.435936 596.469091 118.180013 596.690909 118.925959 596.912727 119.673757 597.134545 120.423393 597.356364 121.174849 597.578182 121.928110 597.800000 122.683159 598.021818 123.439981 598.243636 124.198559 598.465455 124.958876 598.687273 125.720918 598.909091 126.484668 599.130909 127.250110 599.352727 128.017227 599.574545 128.786004 599.796364 129.556424 600.018182 130.328472 600.240000 131.102130 600.461818 131.877384 600.683636 132.654217 600.905455 133.432613 601.127273 134.212556 601.349091 134.994029 601.570909 135.777016 601.792727 136.561503 602.014545 137.347471 602.236364 138.134906 602.458182 138.923791 602.680000 139.714109 602.901818 140.505846 603.123636 141.298985 603.345455 142.093509 603.567273 142.889402 603.789091 143.686649 604.010909 144.485234 604.232727 145.285139 604.454545 146.086350 604.676364 146.888849 604.898182 147.692622 605.120000 148.497651 605.341818 149.303921 605.563636 150.111415 605.785455 150.920118 606.007273 151.730013 606.229091 152.541084 606.450909 153.353316 606.672727 154.166691 606.894545 154.981194 607.116364 155.796809 607.338182 156.613520 607.560000 157.431310 607.781818 158.250163 608.003636 159.070064 608.225455 159.890996 608.447273 160.712943 608.669091 161.535889 608.890909 162.359818 609.112727 163.184713 609.334545 164.010560 609.556364 164.837340 609.778182 165.665039 610.000000 166.493641 610.221818 167.323128 610.443636 168.153486 610.665455 168.984697 610.887273 169.816747 611.109091 170.649618 611.330909 171.483294 611.552727 172.317760 611.774545 173.153000 611.996364 173.988997 612.218182 174.825735 612.440000 175.663198 612.661818 176.501370 612.883636 177.340235 613.105455 178.179776 613.327273 179.019978 613.549091 179.860825 613.770909 180.702300 613.992727 181.544387 614.214545 182.387070 614.436364 183.230334 614.658182 184.074161 614.880000 184.918536 615.101818 185.763443 615.323636 186.608866 615.545455 187.454788 615.767273 188.301193 615.989091 189.148066 616.210909 189.995389 616.432727 190.843148 616.654545 191.691326 616.876364 192.539906 617.098182 193.388873 617.320000 194.238211 617.541818 195.087903 617.763636 195.937934 617.985455 196.788286 618.207273 197.638945 618.429091 198.489894 618.650909 199.341117 618.872727 200.192598 619.094545 201.044320 619.316364 201.896268 619.538182 202.748425 619.760000 203.600776 619.981818 204.453304 620.203636 205.305993 620.425455 206.158827 620.647273 207.011790 620.869091 207.864866 621.090909 208.718038 621.312727 209.571291 621.534545 210.424609 621.756364 211.277974 621.978182 212.131372 622.200000 212.984787 622.200000 514.000000" /></g></g><g class="titles"><text class="title plot_title" x="400.0" y="26">2556 summary</text></g><g class="plot overlay" transform="translate(145, 46)"><g class="series serie-0 color-0"><g class="dots"><circle class="dot reactive tooltip-trigger" cx="12.2" cy="262.2347310890509" r="2.5" /><desc class="value">16963328</desc><desc class="x top">12.2</desc><desc class="y top">262.2347310890509</desc><desc class="x_label">Jan</desc></g><g class="dots"><circle class="dot reactive tooltip-trigger" cx="67.65454545454546" cy="474.50878934311993" r="2.5" /><desc class="value">15558348</desc><desc class="x top">67.65454545454546</desc><desc class="y top">474.50878934311993</desc><desc class="x_label">Feb</desc></g><g class="dots"><circle class="dot reactive tooltip-trigger" cx="123.1090909090909" cy="17.205186240564956" r="2.5" /><desc class="value">18585107</desc><desc class="x ">123.1090909090909</desc><desc class="y ">17.205186240564956</desc><desc class="x_label">Mar</desc></g><g class="dots"><circle class="dot reactive tooltip-trigger" cx="178.56363636363636" cy="393.72957943139807" r="2.5" /><desc class="value">16093002</desc><desc class="x top">178.56363636363636</desc><desc class="y top">393.72957943139807</desc><desc class="x_label">Apr</desc></g><g class="dots"><circle class="dot reactive tooltip-trigger" cx="234.01818181818183" cy="255.43098627325475" r="2.5" /><desc class="value">17008360</desc><desc class="x ">234.01818181818183</desc><desc class="y ">255.43098627325475</desc><desc class="x_label">May</desc></g><g class="dots"><circle class="dot reactive tooltip-trigger" cx="289.47272727272724" cy="231.1076589915395" r="2.5" /><desc class="value">17169349</desc><desc class="x ">289.47272727272724</desc><desc class="y ">231.1076589915395</desc><desc class="x_label">Jun</desc></g><g class="dots"><circle class="dot reactive tooltip-trigger" cx="344.9272727272727" cy="157.13461128584856" r="2.5" /><desc class="value">17658955</desc><desc class="x left">344.9272727272727</desc><desc class="y left">157.13461128584856</desc><desc class="x_label">Jul</desc></g><g class="dots"><circle class="dot reactive tooltip-trigger" cx="400.3818181818181" cy="13.439949863001118" r="2.5" /><desc class="value">18610028</desc><desc class="x left">400.3818181818181</desc><desc class="y left">13.439949863001118</desc><desc class="x_label">Aug</desc></g><g class="dots"><circle class="dot reactive tooltip-trigger" cx="455.8363636363636" cy="217.97458219352336" r="2.5" /><desc class="value">17256273</desc><desc class="x left">455.8363636363636</desc><desc class="y left">217.97458219352336</desc><desc class="x_label">Sep</desc></g><g class="dots"><circle class="dot reactive tooltip-trigger" cx="511.2909090909091" cy="83.06396144942823" r="2.5" /><desc class="value">18149207</desc><desc class="x left">511.2909090909091</desc><desc class="y left">83.06396144942823</desc><desc class="x_label">Oct</desc></g><g class="dots"><circle class="dot reactive tooltip-trigger" cx="566.7454545454545" cy="41.589401538818834" r="2.5" /><desc class="value">18423715</desc><desc class="x left">566.7454545454545</desc><desc class="y left">41.589401538818834</desc><desc class="x_label">Nov</desc></g><g class="dots"><circle class="dot reactive tooltip-trigger" cx="622.1999999999999" cy="212.98478657515238" r="2.5" /><desc class="value">17289299</desc><desc class="x left">622.1999999999999</desc><desc class="y left">212.98478657515238</desc><desc class="x_label">Dec</desc></g></g></g><g class="plot text-overlay" transform="translate(145, 46)"><g class="series serie-0 color-0" /></g><g class="plot tooltip-overlay" transform="translate(145, 46)"><g class="tooltip" style="opacity: 0" transform="translate(0 0)"><rect class="tooltip-box" height="0" rx="0" ry="0" width="0" /><g class="text" /></g></g><g class="legends" transform="translate(10, 56)"><g class="legend reactive activate-serie" id="activate-serie-0"><rect class="color-0 reactive" height="12" width="12" x="0.0" y="1.0" /><text x="17.0" y="11.2">2556</text></g></g><g class="legends" transform="translate(790, 56)" /></g></svg>