<?xml version='1.0' encoding='utf-8'?>
<svg xmlns:xlink="http://www.w3.org/1999/xlink" class="pygal-chart" id="chart-6f8d43fe-a006-4d8d-b909-4efaae31fb7b" viewBox="0 0 800 600" xmlns="http://www.w3.org/2000/svg"><!--Generated with pygal 2.0.11 (etree) ©Kozea 2011-2015 on 2015-12-10--><!--http://pygal.org--><!--http://github.com/Kozea/pygal--><defs><style type="text/css">#chart-6f8d43fe-a006-4d8d-b909-4efaae31fb7b{-webkit-user-select:none;-webkit-font-smoothing:antialiased;font-family:Consolas,"Liberation Mono",Menlo,Courier,monospace}#chart-6f8d43fe-a006-4d8d-b909-4efaae31fb7b .title{font-family:Consolas,"Liberation Mono",Menlo,Courier,monospace;font-size:16px}#chart-6f8d43fe-a006-4d8d-b909-4efaae31fb7b .legends .legend text{font-family:Consolas,"Liberation Mono",Menlo,Courier,monospace;font-size:14px}#chart-6f8d43fe-a006-4d8d-b909-4efaae31fb7b .axis text{font-family:Consolas,"Liberation Mono",Menlo,Courier,monospace;font-size:10px}#chart-6f8d43fe-a006-4d8d-b909-4efaae31fb7b .axis text.major{font-family:Consolas,"Liberation Mono",Menlo,Courier,monospace;font-size:10px}#chart-6f8d43fe-a006-4d8d-b909-4efaae31fb7b .text-overlay text.value{font-family:Consolas,"Liberation Mono",Menlo,Courier,monospace;font-size:16px}#chart-6f8d43fe-a006-4d8d-b909-4efaae31fb7b .text-overlay text.label{font-family:Consolas,"Liberation Mono",Menlo,Courier,monospace;font-size:10px}#chart-6f8d43fe-a006-4d8d-b909-4efaae31fb7b .tooltip{font-family:Consolas,"Liberation Mono",Menlo,Courier,monospace;font-size:14px}#chart-6f8d43fe-a006-4d8d-b909-4efaae31fb7b text.no_data{font-family:Consolas,"Liberation Mono",Menlo,Courier,monospace;font-size:64px}
#chart-6f8d43fe-a006-4d8d-b909-4efaae31fb7b{background-color:black}#chart-6f8d43fe-a006-4d8d-b909-4efaae31fb7b path,#chart-6f8d43fe-a006-4d8d-b909-4efaae31fb7b line,#chart-6f8d43fe-a006-4d8d-b909-4efaae31fb7b rect,#chart-6f8d43fe-a006-4d8d-b909-4efaae31fb7b circle{-webkit-transition:250ms;-moz-transition:250ms;transition:250ms}#chart-6f8d43fe-a006-4d8d-b909-4efaae31fb7b .graph &gt; .background{fill:black}#chart-6f8d43fe-a006-4d8d-b909-4efaae31fb7b .plot &gt; .background{fill:#111}#chart-6f8d43fe-a006-4d8d-b909-4efaae31fb7b .graph{fill:#999}#chart-6f8d43fe-a006-4d8d-b909-4efaae31fb7b text.no_data{fill:#eee}#chart-6f8d43fe-a006-4d8d-b909-4efaae31fb7b .title{fill:#eee}#chart-6f8d43fe-a006-4d8d-b909-4efaae31fb7b .legends .legend text{fill:#999}#chart-6f8d43fe-a006-4d8d-b909-4efaae31fb7b .legends .legend:hover text{fill:#eee}#chart-6f8d43fe-a006-4d8d-b909-4efaae31fb7b .axis .line{stroke:#eee}#chart-6f8d43fe-a006-4d8d-b909-4efaae31fb7b .axis .guide.line{stroke:#555}#chart-6f8d43fe-a006-4d8d-b909-4efaae31fb7b .axis .major.line{stroke:#999}#chart-6f8d43fe-a006-4d8d-b909-4efaae31fb7b .axis text.major{fill:#eee}#chart-6f8d43fe-a006-4d8d-b909-4efaae31fb7b .axis.y .guides:hover .guide.line,#chart-6f8d43fe-a006-4d8d-b909-4efaae31fb7b .line-graph .axis.x .guides:hover .guide.line,#chart-6f8d43fe-a006-4d8d-b909-4efaae31fb7b .stackedline-graph .axis.x .guides:hover .guide.line,#chart-6f8d43fe-a006-4d8d-b909-4efaae31fb7b .xy-graph .axis.x .guides:hover .guide.line{stroke:#eee}#chart-6f8d43fe-a006-4d8d-b909-4efaae31fb7b .axis .guides:hover text{fill:#eee}#chart-6f8d43fe-a006-4d8d-b909-4efaae31fb7b .reactive{fill-opacity:.8}#chart-6f8d43fe-a006-4d8d-b909-4efaae31fb7b .reactive.active,#chart-6f8d43fe-a006-4d8d-b909-4efaae31fb7b .active .reactive{fill-opacity:.4;stroke-width:4}#chart-6f8d43fe-a006-4d8d-b909-4efaae31fb7b .series text{fill:#eee}#chart-6f8d43fe-a006-4d8d-b909-4efaae31fb7b .tooltip rect{fill:#111;stroke:#eee;-webkit-transition:opacity 250ms;-moz-transition:opacity 250ms;transition:opacity 250ms}#chart-6f8d43fe-a006-4d8d-b909-4efaae31fb7b .tooltip .label{fill:#999}#chart-6f8d43fe-a006-4d8d-b909-4efaae31fb7b .tooltip .label{fill:#999}#chart-6f8d43fe-a006-4d8d-b909-4efaae31fb7b .tooltip .legend{font-size:.8em;fill:#555}#chart-6f8d43fe-a006-4d8d-b909-4efaae31fb7b .tooltip .x_label{font-size:.6em;fill:#eee}#chart-6f8d43fe-a006-4d8d-b909-4efaae31fb7b .tooltip .xlink{font-size:.5em;text-decoration:underline}#chart-6f8d43fe-a006-4d8d-b909-4efaae31fb7b .tooltip .value{font-size:1.5em}#chart-6f8d43fe-a006-4d8d-b909-4efaae31fb7b .map-element{fill:#111;stroke:#555 !important}#chart-6f8d43fe-a006-4d8d-b909-4efaae31fb7b .map-element .reactive{fill-opacity:inherit}#chart-6f8d43fe-a006-4d8d-b909-4efaae31fb7b .color-0,#chart-6f8d43fe-a006-4d8d-b909-4efaae31fb7b .color-0 a:visited{stroke:#ff5995;fill:#ff5995}#chart-6f8d43fe-a006-4d8d-b909-4efaae31fb7b .text-overlay .color-0 text{fill:black}
#chart-6f8d43fe-a006-4d8d-b909-4efaae31fb7b text.no_data{text-anchor:middle}#chart-6f8d43fe-a006-4d8d-b909-4efaae31fb7b .guide.line{fill:none}#chart-6f8d43fe-a006-4d8d-b909-4efaae31fb7b .centered{text-anchor:middle}#chart-6f8d43fe-a006-4d8d-b909-4efaae31fb7b .title{text-anchor:middle}#chart-6f8d43fe-a006-4d8d-b909-4efaae31fb7b .legends .legend text{fill-opacity:1}#chart-6f8d43fe-a006-4d8d-b909-4efaae31fb7b .axis.x text{text-anchor:middle}#chart-6f8d43fe-a006-4d8d-b909-4efaae31fb7b .axis.x:not(.web) text[transform]{text-anchor:start}#chart-6f8d43fe-a006-4d8d-b909-4efaae31fb7b .axis.x:not(.web) text[transform].backwards{text-anchor:end}#chart-6f8d43fe-a006-4d8d-b909-4efaae31fb7b .axis.y text{text-anchor:end}#chart-6f8d43fe-a006-4d8d-b909-4efaae31fb7b .axis.y text[transform].backwards{text-anchor:start}#chart-6f8d43fe-a006-4d8d-b909-4efaae31fb7b .axis.y2 text{text-anchor:start}#chart-6f8d43fe-a006-4d8d-b909-4efaae31fb7b .axis.y2 text[transform].backwards{text-anchor:end}#chart-6f8d43fe-a006-4d8d-b909-4efaae31fb7b .axis .guide.line{stroke-dasharray:4,4}#chart-6f8d43fe-a006-4d8d-b909-4efaae31fb7b .axis .major.guide.line{stroke-dasharray:6,6}#chart-6f8d43fe-a006-4d8d-b909-4efaae31fb7b .horizontal .axis.y .guide.line,#chart-6f8d43fe-a006-4d8d-b909-4efaae31fb7b .horizontal .axis.y2 .guide.line,#chart-6f8d43fe-a006-4d8d-b909-4efaae31fb7b .vertical .axis.x .guide.line{opacity:0}#chart-6f8d43fe-a006-4d8d-b909-4efaae31fb7b .horizontal .axis.always_show .guide.line,#chart-6f8d43fe-a006-4d8d-b909-4efaae31fb7b .vertical .axis.always_show .guide.line{opacity:1 !important}#chart-6f8d43fe-a006-4d8d-b909-4efaae31fb7b .axis.y .guides:hover .guide.line,#chart-6f8d43fe-a006-4d8d-b909-4efaae31fb7b .axis.y2 .guides:hover .guide.line,#chart-6f8d43fe-a006-4d8d-b909-4efaae31fb7b .axis.x .guides:hover .guide.line{opacity:1}#chart-6f8d43fe-a006-4d8d-b909-4efaae31fb7b .axis .guides:hover text{opacity:1}#chart-6f8d43fe-a006-4d8d-b909-4efaae31fb7b .nofill{fill:none}#chart-6f8d43fe-a006-4d8d-b909-4efaae31fb7b .subtle-fill{fill-opacity:.2}#chart-6f8d43fe-a006-4d8d-b909-4efaae31fb7b .dot{stroke-width:1px;fill-opacity:1}#chart-6f8d43fe-a006-4d8d-b909-4efaae31fb7b .dot.active{stroke-width:5px}#chart-6f8d43fe-a006-4d8d-b909-4efaae31fb7b .dot.negative{fill:transparent}#chart-6f8d43fe-a006-4d8d-b909-4efaae31fb7b text,#chart-6f8d43fe-a006-4d8d-b909-4efaae31fb7b tspan{stroke:none !important}#chart-6f8d43fe-a006-4d8d-b909-4efaae31fb7b .series text.active{opacity:1}#chart-6f8d43fe-a006-4d8d-b909-4efaae31fb7b .tooltip rect{fill-opacity:.95;stroke-width:.5}#chart-6f8d43fe-a006-4d8d-b909-4efaae31fb7b .tooltip text{fill-opacity:1}#chart-6f8d43fe-a006-4d8d-b909-4efaae31fb7b .showable{visibility:hidden}#chart-6f8d43fe-a006-4d8d-b909-4efaae31fb7b .showable.shown{visibility:visible}</style><script type="text/javascript">window.pygal = window.pygal || {};window.pygal.config = window.pygal.config || {};window.pygal.config['6f8d43fe-a006-4d8d-b909-4efaae31fb7b'] = {"x_labels_major_count": null, "max_scale": 16, "force_uri_protocol": null, "box_mode": "extremes", "human_readable": false, "rounded_bars": null, "show_dots": true, "title": "2558 summary", "interpolation_precision": 250, "inverse_y_axis": false, "y_label_rotation": 0, "tooltip_border_radius": 0, "legends": ["2558"], "margin": 20, "x_labels_major": null, "show_only_major_dots": false, "spacing": 10, "legend_box_size": 12, "include_x_axis": false, "show_legend": true, "print_values": false, "print_zeroes": true, "pretty_print": false, "range": null, "secondary_range": null, "show_minor_x_labels": true, "legend_at_bottom_columns": null, "strict": false, "half_pie": false, "margin_right": null, "inner_radius": 0, "x_title": null, "dynamic_print_values": false, "value_formatter": null, "print_labels": false, "min_scale": 4, "interpolate": "cubic", "order_min": null, "y_labels_major_every": null, "interpolation_parameters": {}, "stroke_style": null, "style": {"no_data_font_size": 64, "legend_font_family": "Consolas, \"Liberation Mono\", Menlo, Courier, monospace", "value_font_size": 16, "plot_background": "#111", "title_font_family": "Consolas, \"Liberation Mono\", Menlo, Courier, monospace", "major_guide_stroke_dasharray": "6,6", "opacity": ".8", "title_font_size": 16, "font_family": "Consolas, \"Liberation Mono\", Menlo, Courier, monospace", "label_font_size": 10, "major_label_font_size": 10, "colors": ["#ff5995", "#b6e354", "#feed6c", "#8cedff", "#9e6ffe", "#899ca1", "#f8f8f2", "#bf4646", "#516083", "#f92672", "#82b414", "#fd971f", "#56c2d6", "#808384", "#8c54fe", "#465457"], "tooltip_font_size": 14, "transition": "250ms", "value_colors": [], "value_font_family": "Consolas, \"Liberation Mono\", Menlo, Courier, monospace", "value_label_font_family": "Consolas, \"Liberation Mono\", Menlo, Courier, monospace", "foreground_subtle": "#555", "foreground_strong": "#eee", "legend_font_size": 14, "background": "black", "tooltip_font_family": "Consolas, \"Liberation Mono\", Menlo, Courier, monospace", "opacity_hover": ".4", "guide_stroke_dasharray": "4,4", "major_label_font_family": "Consolas, \"Liberation Mono\", Menlo, Courier, monospace", "label_font_family": "Consolas, \"Liberation Mono\", Menlo, Courier, monospace", "no_data_font_family": "Consolas, \"Liberation Mono\", Menlo, Courier, monospace", "value_label_font_size": 10, "foreground": "#999"}, "x_labels": ["Jan", "Feb", "Mar", "Apr", "May", "Jun", "Jul", "Aug", "Sep", "Oct", "Nov", "Dec"], "x_label_rotation": 0, "show_y_guides": true, "width": 800, "margin_bottom": null, "no_prefix": false, "legend_at_bottom": false, "x_labels_major_every": null, "dots_size": 2.5, "fill": true, "disable_xml_declaration": false, "y_title": null, "height": 600, "show_x_labels": true, "stroke": true, "truncate_legend": null, "y_labels_major_count": null, "xrange": null, "margin_left": null, "margin_top": null, "logarithmic": false, "show_minor_y_labels": true, "defs": [], "missing_value_fill_truncation": "x", "no_data_text": "No data", "show_y_labels": true, "zero": 0, "x_value_formatter": null, "js": ["//kozea.github.io/pygal.js/2.0.x/pygal-tooltips.min.js"], "tooltip_fancy_mode": true, "stack_from_top": false, "truncate_label": null, "show_x_guides": false, "css": ["file://style.css", "file://graph.css"], "y_labels_major": null, "y_labels": null, "explicit_size": false}</script><script type="text/javascript" xlink:href="//kozea.github.io/pygal.js/2.0.x/pygal-tooltips.min.js" /></defs><title>2558 summary</title><g class="graph line-graph vertical"><rect class="background" height="600" width="800" x="0" y="0" /><g class="plot" transform="translate(145, 46)"><rect class="background" height="514" width="634.4" x="0" y="0" /><g class="axis y"><g class="guides"><path class="guide line" d="M0.000000 491.766913 h634.400000" /><text class="" x="-5" y="495.2669133949629">-2000000.0</text><title>-2000000.0</title></g><g class="guides"><path class="major line" d="M0.000000 450.948943 h634.400000" /><text class="major" x="-5" y="454.4489429965892">0.0</text><title>0.0</title></g><g class="guides"><path class="guide line" d="M0.000000 410.130973 h634.400000" /><text class="" x="-5" y="413.63097259821546">2000000.0</text><title>2000000.0</title></g><g class="guides"><path class="guide line" d="M0.000000 369.313002 h634.400000" /><text class="" x="-5" y="372.8130021998418">4000000.0</text><title>4000000.0</title></g><g class="guides"><path class="guide line" d="M0.000000 328.495032 h634.400000" /><text class="" x="-5" y="331.99503180146803">6000000.0</text><title>6000000.0</title></g><g class="guides"><path class="guide line" d="M0.000000 287.677061 h634.400000" /><text class="" x="-5" y="291.1770614030943">8000000.0</text><title>8000000.0</title></g><g class="guides"><path class="major guide line" d="M0.000000 246.859091 h634.400000" /><text class="major" x="-5" y="250.3590910047206">10000000.0</text><title>10000000.0</title></g><g class="guides"><path class="guide line" d="M0.000000 206.041121 h634.400000" /><text class="" x="-5" y="209.54112060634685">12000000.0</text><title>12000000.0</title></g><g class="guides"><path class="guide line" d="M0.000000 165.223150 h634.400000" /><text class="" x="-5" y="168.72315020797316">14000000.0</text><title>14000000.0</title></g><g class="guides"><path class="guide line" d="M0.000000 124.405180 h634.400000" /><text class="" x="-5" y="127.90517980959947">16000000.0</text><title>16000000.0</title></g><g class="guides"><path class="guide line" d="M0.000000 83.587209 h634.400000" /><text class="" x="-5" y="87.08720941122573">18000000.0</text><title>18000000.0</title></g><g class="guides"><path class="major guide line" d="M0.000000 42.769239 h634.400000" /><text class="major" x="-5" y="46.26923901285204">20000000.0</text><title>20000000.0</title></g></g><g class="axis x"><g class="guides"><path class="line" d="M12.200000 0.000000 v514.000000" /><text class="" x="12.2" y="529.0">Jan</text></g><g class="guides"><path class="guide line" d="M67.654545 0.000000 v514.000000" /><text class="" x="67.65454545454546" y="529.0">Feb</text></g><g class="guides"><path class="guide line" d="M123.109091 0.000000 v514.000000" /><text class="" x="123.1090909090909" y="529.0">Mar</text></g><g class="guides"><path class="guide line" d="M178.563636 0.000000 v514.000000" /><text class="" x="178.56363636363636" y="529.0">Apr</text></g><g class="guides"><path class="guide line" d="M234.018182 0.000000 v514.000000" /><text class="" x="234.01818181818183" y="529.0">May</text></g><g class="guides"><path class="guide line" d="M289.472727 0.000000 v514.000000" /><text class="" x="289.47272727272724" y="529.0">Jun</text></g><g class="guides"><path class="guide line" d="M344.927273 0.000000 v514.000000" /><text class="" x="344.9272727272727" y="529.0">Jul</text></g><g class="guides"><path class="guide line" d="M400.381818 0.000000 v514.000000" /><text class="" x="400.3818181818181" y="529.0">Aug</text></g><g class="guides"><path class="guide line" d="M455.836364 0.000000 v514.000000" /><text class="" x="455.8363636363636" y="529.0">Sep</text></g><g class="guides"><path class="guide line" d="M511.290909 0.000000 v514.000000" /><text class="" x="511.2909090909091" y="529.0">Oct</text></g><g class="guides"><path class="guide line" d="M566.745455 0.000000 v514.000000" /><text class="" x="566.7454545454545" y="529.0">Nov</text></g><g class="guides"><path class="guide line" d="M622.200000 0.000000 v514.000000" /><text class="" x="622.1999999999999" y="529.0">Dec</text></g></g><g class="series serie-0 color-0"><path class="line reactive" d="M12.200000 450.948943 L12.200000 70.686363 12.421818 70.838864 12.643636 70.991357 12.865455 71.143833 13.087273 71.296283 13.309091 71.448699 13.530909 71.601072 13.752727 71.753394 13.974545 71.905657 14.196364 72.057851 14.418182 72.209968 14.640000 72.362001 14.861818 72.513939 15.083636 72.665776 15.305455 72.817501 15.527273 72.969108 15.749091 73.120586 15.970909 73.271928 16.192727 73.423125 16.414545 73.574169 16.636364 73.725050 16.858182 73.875762 17.080000 74.026294 17.301818 74.176639 17.523636 74.326787 17.745455 74.476732 17.967273 74.626463 18.189091 74.775972 18.410909 74.925252 18.632727 75.074292 18.854545 75.223086 19.076364 75.371624 19.298182 75.519898 19.520000 75.667898 19.741818 75.815618 19.963636 75.963048 20.185455 76.110180 20.407273 76.257004 20.629091 76.403514 20.850909 76.549699 21.072727 76.695552 21.294545 76.841064 21.516364 76.986227 21.738182 77.131032 21.960000 77.275470 22.181818 77.419533 22.403636 77.563213 22.625455 77.706500 22.847273 77.849387 23.069091 77.991865 23.290909 78.133926 23.512727 78.275560 23.734545 78.416759 23.956364 78.557515 24.178182 78.697820 24.400000 78.837664 24.621818 78.977040 24.843636 79.115938 25.065455 79.254350 25.287273 79.392268 25.509091 79.529683 25.730909 79.666587 25.952727 79.802971 26.174545 79.938826 26.396364 80.074145 26.618182 80.208918 26.840000 80.343137 27.061818 80.476793 27.283636 80.609879 27.505455 80.742384 27.727273 80.874302 27.949091 81.005623 28.170909 81.136339 28.392727 81.266441 28.614545 81.395921 28.836364 81.524771 29.058182 81.652981 29.280000 81.780543 29.501818 81.907449 29.723636 82.033691 29.945455 82.159259 30.167273 82.284145 30.389091 82.408340 30.610909 82.531837 30.832727 82.654627 31.054545 82.776700 31.276364 82.898049 31.498182 83.018665 31.720000 83.138540 31.941818 83.257664 32.163636 83.376030 32.385455 83.493629 32.607273 83.610452 32.829091 83.726491 33.050909 83.841737 33.272727 83.956183 33.494545 84.069818 33.716364 84.182635 33.938182 84.294626 34.160000 84.405781 34.381818 84.516093 34.603636 84.625552 34.825455 84.734150 35.047273 84.841879 35.269091 84.948730 35.490909 85.054695 35.712727 85.159765 35.934545 85.263931 36.156364 85.367185 36.378182 85.469519 36.600000 85.570924 36.821818 85.671391 37.043636 85.770912 37.265455 85.869479 37.487273 85.967082 37.709091 86.063714 37.930909 86.159366 38.152727 86.254029 38.374545 86.347695 38.596364 86.440355 38.818182 86.532000 39.040000 86.622623 39.261818 86.712215 39.483636 86.800767 39.705455 86.888270 39.927273 86.974717 40.149091 87.060098 40.370909 87.144406 40.592727 87.227631 40.814545 87.309764 41.036364 87.390799 41.258182 87.470725 41.480000 87.549535 41.701818 87.627220 41.923636 87.703771 42.145455 87.779180 42.367273 87.853439 42.589091 87.926538 42.810909 87.998470 43.032727 88.069225 43.254545 88.138796 43.476364 88.207174 43.698182 88.274350 43.920000 88.340315 44.141818 88.405062 44.363636 88.468581 44.585455 88.530865 44.807273 88.591904 45.029091 88.651690 45.250909 88.710215 45.472727 88.767469 45.694545 88.823446 45.916364 88.878135 46.138182 88.931529 46.360000 88.983619 46.581818 89.034396 46.803636 89.083852 47.025455 89.131978 47.247273 89.178767 47.469091 89.224209 47.690909 89.268295 47.912727 89.311018 48.134545 89.352368 48.356364 89.392338 48.578182 89.430919 48.800000 89.468102 49.021818 89.503878 49.243636 89.538240 49.465455 89.571178 49.687273 89.602684 49.909091 89.632750 50.130909 89.661367 50.352727 89.688527 50.574545 89.714220 50.796364 89.738439 51.018182 89.761175 51.240000 89.782420 51.461818 89.802164 51.683636 89.820400 51.905455 89.837118 52.127273 89.852311 52.349091 89.865970 52.570909 89.878086 52.792727 89.888651 53.014545 89.897657 53.236364 89.905094 53.458182 89.910954 53.680000 89.915228 53.901818 89.917909 54.123636 89.918988 54.345455 89.918456 54.567273 89.916304 54.789091 89.912525 55.010909 89.907109 55.232727 89.900048 55.454545 89.891333 55.676364 89.880957 55.898182 89.868910 56.120000 89.855184 56.341818 89.839770 56.563636 89.822660 56.785455 89.803846 57.007273 89.783318 57.229091 89.761069 57.450909 89.737090 57.672727 89.711371 57.894545 89.683906 58.116364 89.654685 58.338182 89.623699 58.560000 89.590941 58.781818 89.556401 59.003636 89.520072 59.225455 89.481944 59.447273 89.442009 59.669091 89.400259 59.890909 89.356685 60.112727 89.311278 60.334545 89.264030 60.556364 89.214933 60.778182 89.163978 61.000000 89.111156 61.221818 89.056459 61.443636 88.999879 61.665455 88.941406 61.887273 88.881033 62.109091 88.818750 62.330909 88.754550 62.552727 88.688423 62.774545 88.620362 62.996364 88.550358 63.218182 88.478401 63.440000 88.404485 63.661818 88.328599 63.883636 88.250736 64.105455 88.170887 64.327273 88.089044 64.549091 88.005198 64.770909 87.919340 64.992727 87.831463 65.214545 87.741557 65.436364 87.649614 65.658182 87.555625 65.880000 87.459582 66.101818 87.361477 66.323636 87.261300 66.545455 87.159044 66.767273 87.054700 66.989091 86.948259 67.210909 86.839712 67.432727 86.729052 67.654545 86.616270 67.876364 86.501362 68.098182 86.384343 68.320000 86.265235 68.541818 86.144057 68.763636 86.020829 68.985455 85.895573 69.207273 85.768309 69.429091 85.639057 69.650909 85.507837 69.872727 85.374670 70.094545 85.239576 70.316364 85.102576 70.538182 84.963691 70.760000 84.822940 70.981818 84.680343 71.203636 84.535922 71.425455 84.389697 71.647273 84.241688 71.869091 84.091916 72.090909 83.940401 72.312727 83.787163 72.534545 83.632223 72.756364 83.475601 72.978182 83.317318 73.200000 83.157394 73.421818 82.995849 73.643636 82.832704 73.865455 82.667980 74.087273 82.501696 74.309091 82.333873 74.530909 82.164532 74.752727 81.993693 74.974545 81.821376 75.196364 81.647602 75.418182 81.472391 75.640000 81.295763 75.861818 81.117740 76.083636 80.938341 76.305455 80.757586 76.527273 80.575497 76.749091 80.392094 76.970909 80.207396 77.192727 80.021425 77.414545 79.834201 77.636364 79.645745 77.858182 79.456075 78.080000 79.265214 78.301818 79.073182 78.523636 78.879998 78.745455 78.685683 78.967273 78.490259 79.189091 78.293744 79.410909 78.096160 79.632727 77.897527 79.854545 77.697865 80.076364 77.497196 80.298182 77.295538 80.520000 77.092913 80.741818 76.889340 80.963636 76.684842 81.185455 76.479437 81.407273 76.273146 81.629091 76.065990 81.850909 75.857989 82.072727 75.649164 82.294545 75.439534 82.516364 75.229121 82.738182 75.017944 82.960000 74.806025 83.181818 74.593383 83.403636 74.380038 83.625455 74.166013 83.847273 73.951326 84.069091 73.735998 84.290909 73.520050 84.512727 73.303501 84.734545 73.086373 84.956364 72.868686 85.178182 72.650460 85.400000 72.431716 85.621818 72.212474 85.843636 71.992754 86.065455 71.772577 86.287273 71.551963 86.509091 71.330933 86.730909 71.109507 86.952727 70.887706 87.174545 70.665549 87.396364 70.443058 87.618182 70.220253 87.840000 69.997153 88.061818 69.773780 88.283636 69.550155 88.505455 69.326296 88.727273 69.102225 88.949091 68.877963 89.170909 68.653529 89.392727 68.428944 89.614545 68.204228 89.836364 67.979403 90.058182 67.754487 90.280000 67.529502 90.501818 67.304468 90.723636 67.079406 90.945455 66.854336 91.167273 66.629277 91.389091 66.404252 91.610909 66.179280 91.832727 65.954381 92.054545 65.729576 92.276364 65.504885 92.498182 65.280329 92.720000 65.055929 92.941818 64.831704 93.163636 64.607675 93.385455 64.383862 93.607273 64.160286 93.829091 63.936967 94.050909 63.713926 94.272727 63.491183 94.494545 63.268758 94.716364 63.046673 94.938182 62.824946 95.160000 62.603599 95.381818 62.382652 95.603636 62.162126 95.825455 61.942041 96.047273 61.722417 96.269091 61.503274 96.490909 61.284634 96.712727 61.066516 96.934545 60.848942 97.156364 60.631930 97.378182 60.415503 97.600000 60.199679 97.821818 59.984481 98.043636 59.769927 98.265455 59.556038 98.487273 59.342836 98.709091 59.130340 98.930909 58.918570 99.152727 58.707547 99.374545 58.497292 99.596364 58.287825 99.818182 58.079166 100.040000 57.871336 100.261818 57.664354 100.483636 57.458243 100.705455 57.253021 100.927273 57.048710 101.149091 56.845329 101.370909 56.642899 101.592727 56.441441 101.814545 56.240976 102.036364 56.041522 102.258182 55.843101 102.480000 55.645734 102.701818 55.449440 102.923636 55.254240 103.145455 55.060154 103.367273 54.867204 103.589091 54.675408 103.810909 54.484789 104.032727 54.295365 104.254545 54.107158 104.476364 53.920188 104.698182 53.734475 104.920000 53.550040 105.141818 53.366903 105.363636 53.185084 105.585455 53.004605 105.807273 52.825484 106.029091 52.647744 106.250909 52.471404 106.472727 52.296484 106.694545 52.123006 106.916364 51.950988 107.138182 51.780453 107.360000 51.611420 107.581818 51.443909 107.803636 51.277942 108.025455 51.113538 108.247273 50.950718 108.469091 50.789502 108.690909 50.629911 108.912727 50.471965 109.134545 50.315684 109.356364 50.161090 109.578182 50.008201 109.800000 49.857040 110.021818 49.707626 110.243636 49.559979 110.465455 49.414120 110.687273 49.270070 110.909091 49.127848 111.130909 48.987476 111.352727 48.848973 111.574545 48.712360 111.796364 48.577658 112.018182 48.444887 112.240000 48.314066 112.461818 48.185218 112.683636 48.058361 112.905455 47.933517 113.127273 47.810706 113.349091 47.689949 113.570909 47.571265 113.792727 47.454675 114.014545 47.340200 114.236364 47.227859 114.458182 47.117674 114.680000 47.009665 114.901818 46.903852 115.123636 46.800255 115.345455 46.698896 115.567273 46.599794 115.789091 46.502970 116.010909 46.408444 116.232727 46.316236 116.454545 46.226368 116.676364 46.138859 116.898182 46.053730 117.120000 45.971002 117.341818 45.890694 117.563636 45.812827 117.785455 45.737422 118.007273 45.664498 118.229091 45.594077 118.450909 45.526179 118.672727 45.460824 118.894545 45.398032 119.116364 45.337824 119.338182 45.280221 119.560000 45.225243 119.781818 45.172910 120.003636 45.123242 120.225455 45.076260 120.447273 45.031985 120.669091 44.990437 120.890909 44.951636 121.112727 44.915603 121.334545 44.882357 121.556364 44.851921 121.778182 44.824313 122.000000 44.799554 122.221818 44.777665 122.443636 44.758667 122.665455 44.742579 122.887273 44.729421 123.109091 44.719216 123.330909 44.711975 123.552727 44.707686 123.774545 44.706329 123.996364 44.707885 124.218182 44.712333 124.440000 44.719654 124.661818 44.729827 124.883636 44.742834 125.105455 44.758654 125.327273 44.777267 125.549091 44.798653 125.770909 44.822794 125.992727 44.849668 126.214545 44.879256 126.436364 44.911539 126.658182 44.946496 126.880000 44.984107 127.101818 45.024354 127.323636 45.067215 127.545455 45.112671 127.767273 45.160703 127.989091 45.211290 128.210909 45.264413 128.432727 45.320052 128.654545 45.378186 128.876364 45.438797 129.098182 45.501864 129.320000 45.567368 129.541818 45.635288 129.763636 45.705606 129.985455 45.778300 130.207273 45.853352 130.429091 45.930740 130.650909 46.010447 130.872727 46.092451 131.094545 46.176734 131.316364 46.263274 131.538182 46.352053 131.760000 46.443050 131.981818 46.536246 132.203636 46.631620 132.425455 46.729154 132.647273 46.828827 132.869091 46.930619 133.090909 47.034510 133.312727 47.140482 133.534545 47.248513 133.756364 47.358584 133.978182 47.470676 134.200000 47.584767 134.421818 47.700840 134.643636 47.818873 134.865455 47.938847 135.087273 48.060743 135.309091 48.184539 135.530909 48.310217 135.752727 48.437757 135.974545 48.567138 136.196364 48.698342 136.418182 48.831347 136.640000 48.966135 136.861818 49.102686 137.083636 49.240979 137.305455 49.380995 137.527273 49.522714 137.749091 49.666116 137.970909 49.811182 138.192727 49.957891 138.414545 50.106224 138.636364 50.256161 138.858182 50.407682 139.080000 50.560768 139.301818 50.715397 139.523636 50.871552 139.745455 51.029211 139.967273 51.188355 140.189091 51.348965 140.410909 51.511019 140.632727 51.674500 140.854545 51.839385 141.076364 52.005657 141.298182 52.173295 141.520000 52.342279 141.741818 52.512589 141.963636 52.684206 142.185455 52.857110 142.407273 53.031281 142.629091 53.206698 142.850909 53.383343 143.072727 53.561196 143.294545 53.740236 143.516364 53.920444 143.738182 54.101800 143.960000 54.284284 144.181818 54.467876 144.403636 54.652557 144.625455 54.838307 144.847273 55.025105 145.069091 55.212932 145.290909 55.401769 145.512727 55.591595 145.734545 55.782391 145.956364 55.974136 146.178182 56.166811 146.400000 56.360396 146.621818 56.554872 146.843636 56.750218 147.065455 56.946415 147.287273 57.143442 147.509091 57.341281 147.730909 57.539910 147.952727 57.739311 148.174545 57.939463 148.396364 58.140347 148.618182 58.341943 148.840000 58.544231 149.061818 58.747191 149.283636 58.950804 149.505455 59.155049 149.727273 59.359907 149.949091 59.565358 150.170909 59.771381 150.392727 59.977958 150.614545 60.185069 150.836364 60.392693 151.058182 60.600811 151.280000 60.809403 151.501818 61.018449 151.723636 61.227929 151.945455 61.437824 152.167273 61.648114 152.389091 61.858778 152.610909 62.069797 152.832727 62.281152 153.054545 62.492822 153.276364 62.704787 153.498182 62.917028 153.720000 63.129526 153.941818 63.342259 154.163636 63.555208 154.385455 63.768354 154.607273 63.981677 154.829091 64.195156 155.050909 64.408772 155.272727 64.622505 155.494545 64.836336 155.716364 65.050244 155.938182 65.264210 156.160000 65.478214 156.381818 65.692235 156.603636 65.906255 156.825455 66.120254 157.047273 66.334210 157.269091 66.548106 157.490909 66.761920 157.712727 66.975634 157.934545 67.189226 158.156364 67.402679 158.378182 67.615970 158.600000 67.829082 158.821818 68.041993 159.043636 68.254685 159.265455 68.467137 159.487273 68.679329 159.709091 68.891242 159.930909 69.102856 160.152727 69.314151 160.374545 69.525107 160.596364 69.735705 160.818182 69.945924 161.040000 70.155744 161.261818 70.365147 161.483636 70.574112 161.705455 70.782619 161.927273 70.990648 162.149091 71.198180 162.370909 71.405195 162.592727 71.611672 162.814545 71.817593 163.036364 72.022937 163.258182 72.227685 163.480000 72.431816 163.701818 72.635311 163.923636 72.838150 164.145455 73.040313 164.367273 73.241781 164.589091 73.442533 164.810909 73.642549 165.032727 73.841811 165.254545 74.040298 165.476364 74.237990 165.698182 74.434867 165.920000 74.630910 166.141818 74.826099 166.363636 75.020414 166.585455 75.213835 166.807273 75.406342 167.029091 75.597915 167.250909 75.788535 167.472727 75.978182 167.694545 76.166837 167.916364 76.354478 168.138182 76.541086 168.360000 76.726642 168.581818 76.911126 168.803636 77.094518 169.025455 77.276798 169.247273 77.457946 169.469091 77.637942 169.690909 77.816767 169.912727 77.994401 170.134545 78.170823 170.356364 78.346015 170.578182 78.519956 170.800000 78.692627 171.021818 78.864007 171.243636 79.034077 171.465455 79.202817 171.687273 79.370207 171.909091 79.536227 172.130909 79.700858 172.352727 79.864080 172.574545 80.025873 172.796364 80.186216 173.018182 80.345091 173.240000 80.502477 173.461818 80.658355 173.683636 80.812705 173.905455 80.965506 174.127273 81.116740 174.349091 81.266386 174.570909 81.414424 174.792727 81.560835 175.014545 81.705599 175.236364 81.848696 175.458182 81.990105 175.680000 82.129809 175.901818 82.267786 176.123636 82.404016 176.345455 82.538480 176.567273 82.671159 176.789091 82.802031 177.010909 82.931078 177.232727 83.058280 177.454545 83.183616 177.676364 83.307068 177.898182 83.428614 178.120000 83.548236 178.341818 83.665913 178.563636 83.781625 178.785455 83.895359 179.007273 84.007117 179.229091 84.116909 179.450909 84.224745 179.672727 84.330632 179.894545 84.434581 180.116364 84.536600 180.338182 84.636699 180.560000 84.734886 180.781818 84.831171 181.003636 84.925562 181.225455 85.018070 181.447273 85.108702 181.669091 85.197469 181.890909 85.284379 182.112727 85.369441 182.334545 85.452664 182.556364 85.534058 182.778182 85.613631 183.000000 85.691393 183.221818 85.767352 183.443636 85.841519 183.665455 85.913901 183.887273 85.984508 184.109091 86.053350 184.330909 86.120434 184.552727 86.185771 184.774545 86.249369 184.996364 86.311238 185.218182 86.371387 185.440000 86.429824 185.661818 86.486559 185.883636 86.541600 186.105455 86.594958 186.327273 86.646641 186.549091 86.696658 186.770909 86.745018 186.992727 86.791730 187.214545 86.836804 187.436364 86.880249 187.658182 86.922073 187.880000 86.962286 188.101818 87.000897 188.323636 87.037914 188.545455 87.073348 188.767273 87.107207 188.989091 87.139500 189.210909 87.170236 189.432727 87.199425 189.654545 87.227075 189.876364 87.253196 190.098182 87.277797 190.320000 87.300886 190.541818 87.322473 190.763636 87.342567 190.985455 87.361178 191.207273 87.378313 191.429091 87.393983 191.650909 87.408196 191.872727 87.420961 192.094545 87.432289 192.316364 87.442186 192.538182 87.450664 192.760000 87.457730 192.981818 87.463395 193.203636 87.467666 193.425455 87.470553 193.647273 87.472066 193.869091 87.472213 194.090909 87.471004 194.312727 87.468447 194.534545 87.464551 194.756364 87.459326 194.978182 87.452782 195.200000 87.444926 195.421818 87.435768 195.643636 87.425317 195.865455 87.413582 196.087273 87.400573 196.309091 87.386298 196.530909 87.370766 196.752727 87.353987 196.974545 87.335970 197.196364 87.316723 197.418182 87.296256 197.640000 87.274579 197.861818 87.251699 198.083636 87.227626 198.305455 87.202370 198.527273 87.175939 198.749091 87.148343 198.970909 87.119590 199.192727 87.089689 199.414545 87.058651 199.636364 87.026483 199.858182 86.993195 200.080000 86.958796 200.301818 86.923295 200.523636 86.886702 200.745455 86.849024 200.967273 86.810272 201.189091 86.770455 201.410909 86.729581 201.632727 86.687660 201.854545 86.644701 202.076364 86.600712 202.298182 86.555704 202.520000 86.509684 202.741818 86.462663 202.963636 86.414649 203.185455 86.365651 203.407273 86.315679 203.629091 86.264741 203.850909 86.212847 204.072727 86.160006 204.294545 86.106227 204.516364 86.051518 204.738182 85.995890 204.960000 85.939350 205.181818 85.881909 205.403636 85.823575 205.625455 85.764358 205.847273 85.704266 206.069091 85.643309 206.290909 85.581495 206.512727 85.518834 206.734545 85.455335 206.956364 85.391007 207.178182 85.325859 207.400000 85.259901 207.621818 85.193140 207.843636 85.125587 208.065455 85.057250 208.287273 84.988139 208.509091 84.918263 208.730909 84.847630 208.952727 84.776250 209.174545 84.704133 209.396364 84.631286 209.618182 84.557719 209.840000 84.483442 210.061818 84.408463 210.283636 84.332791 210.505455 84.256436 210.727273 84.179406 210.949091 84.101711 211.170909 84.023360 211.392727 83.944362 211.614545 83.864726 211.836364 83.784461 212.058182 83.703576 212.280000 83.622080 212.501818 83.539983 212.723636 83.457293 212.945455 83.374020 213.167273 83.290173 213.389091 83.205760 213.610909 83.120791 213.832727 83.035275 214.054545 82.949222 214.276364 82.862639 214.498182 82.775536 214.720000 82.687923 214.941818 82.599809 215.163636 82.511201 215.385455 82.422111 215.607273 82.332546 215.829091 82.242516 216.050909 82.152030 216.272727 82.061097 216.494545 81.969726 216.716364 81.877926 216.938182 81.785707 217.160000 81.693077 217.381818 81.600046 217.603636 81.506622 217.825455 81.412814 218.047273 81.318633 218.269091 81.224086 218.490909 81.129184 218.712727 81.033934 218.934545 80.938347 219.156364 80.842430 219.378182 80.746195 219.600000 80.649648 219.821818 80.552801 220.043636 80.455660 220.265455 80.358237 220.487273 80.260539 220.709091 80.162577 220.930909 80.064358 221.152727 79.965893 221.374545 79.867189 221.596364 79.768257 221.818182 79.669106 222.040000 79.569744 222.261818 79.470180 222.483636 79.370425 222.705455 79.270486 222.927273 79.170373 223.149091 79.070094 223.370909 78.969660 223.592727 78.869080 223.814545 78.768361 224.036364 78.667514 224.258182 78.566547 224.480000 78.465470 224.701818 78.364291 224.923636 78.263021 225.145455 78.161667 225.367273 78.060239 225.589091 77.958746 225.810909 77.857197 226.032727 77.755602 226.254545 77.653968 226.476364 77.552307 226.698182 77.450625 226.920000 77.348934 227.141818 77.247241 227.363636 77.145556 227.585455 77.043887 227.807273 76.942245 228.029091 76.840638 228.250909 76.739075 228.472727 76.637565 228.694545 76.536118 228.916364 76.434742 229.138182 76.333447 229.360000 76.232241 229.581818 76.131135 229.803636 76.030136 230.025455 75.929254 230.247273 75.828498 230.469091 75.727877 230.690909 75.627401 230.912727 75.527077 231.134545 75.426917 231.356364 75.326927 231.578182 75.227119 231.800000 75.127500 232.021818 75.028080 232.243636 74.928868 232.465455 74.829873 232.687273 74.731104 232.909091 74.632570 233.130909 74.534280 233.352727 74.436244 233.574545 74.338471 233.796364 74.240969 234.018182 74.143747 234.240000 74.046814 234.461818 73.950169 234.683636 73.853810 234.905455 73.757735 235.127273 73.661943 235.349091 73.566432 235.570909 73.471200 235.792727 73.376246 236.014545 73.281567 236.236364 73.187162 236.458182 73.093029 236.680000 72.999167 236.901818 72.905573 237.123636 72.812246 237.345455 72.719184 237.567273 72.626385 237.789091 72.533847 238.010909 72.441570 238.232727 72.349550 238.454545 72.257786 238.676364 72.166277 238.898182 72.075021 239.120000 71.984015 239.341818 71.893259 239.563636 71.802749 239.785455 71.712486 240.007273 71.622466 240.229091 71.532688 240.450909 71.443150 240.672727 71.353851 240.894545 71.264789 241.116364 71.175962 241.338182 71.087367 241.560000 70.999005 241.781818 70.910871 242.003636 70.822966 242.225455 70.735287 242.447273 70.647832 242.669091 70.560600 242.890909 70.473589 243.112727 70.386796 243.334545 70.300221 243.556364 70.213861 243.778182 70.127715 244.000000 70.041781 244.221818 69.956058 244.443636 69.870542 244.665455 69.785234 244.887273 69.700130 245.109091 69.615229 245.330909 69.530530 245.552727 69.446030 245.774545 69.361728 245.996364 69.277622 246.218182 69.193711 246.440000 69.109992 246.661818 69.026463 246.883636 68.943124 247.105455 68.859972 247.327273 68.777005 247.549091 68.694222 247.770909 68.611621 247.992727 68.529200 248.214545 68.446957 248.436364 68.364891 248.658182 68.282999 248.880000 68.201281 249.101818 68.119734 249.323636 68.038357 249.545455 67.957147 249.767273 67.876103 249.989091 67.795224 250.210909 67.714506 250.432727 67.633950 250.654545 67.553553 250.876364 67.473312 251.098182 67.393227 251.320000 67.313296 251.541818 67.233516 251.763636 67.153887 251.985455 67.074405 252.207273 66.995071 252.429091 66.915881 252.650909 66.836834 252.872727 66.757928 253.094545 66.679161 253.316364 66.600533 253.538182 66.522040 253.760000 66.443681 253.981818 66.365455 254.203636 66.287360 254.425455 66.209393 254.647273 66.131553 254.869091 66.053839 255.090909 65.976248 255.312727 65.898779 255.534545 65.821430 255.756364 65.744199 255.978182 65.667084 256.200000 65.590084 256.421818 65.513198 256.643636 65.436422 256.865455 65.359756 257.087273 65.283197 257.309091 65.206744 257.530909 65.130395 257.752727 65.054149 257.974545 64.978003 258.196364 64.901956 258.418182 64.826005 258.640000 64.750150 258.861818 64.674389 259.083636 64.598719 259.305455 64.523139 259.527273 64.447648 259.749091 64.372242 259.970909 64.296922 260.192727 64.221684 260.414545 64.146527 260.636364 64.071450 260.858182 63.996450 261.080000 63.921526 261.301818 63.846676 261.523636 63.771898 261.745455 63.697190 261.967273 63.622552 262.189091 63.547980 262.410909 63.473473 262.632727 63.399030 262.854545 63.324648 263.076364 63.250327 263.298182 63.176063 263.520000 63.101856 263.741818 63.027703 263.963636 62.953603 264.185455 62.879554 264.407273 62.805554 264.629091 62.731602 264.850909 62.657696 265.072727 62.583833 265.294545 62.510013 265.516364 62.436233 265.738182 62.362491 265.960000 62.288787 266.181818 62.215118 266.403636 62.141482 266.625455 62.067877 266.847273 61.994302 267.069091 61.920756 267.290909 61.847235 267.512727 61.773739 267.734545 61.700266 267.956364 61.626814 268.178182 61.553381 268.400000 61.479965 268.621818 61.406565 268.843636 61.333179 269.065455 61.259805 269.287273 61.186441 269.509091 61.113086 269.730909 61.039738 269.952727 60.966394 270.174545 60.893054 270.396364 60.819716 270.618182 60.746377 270.840000 60.673036 271.061818 60.599691 271.283636 60.526341 271.505455 60.452984 271.727273 60.379617 271.949091 60.306239 272.170909 60.232849 272.392727 60.159444 272.614545 60.086023 272.836364 60.012585 273.058182 59.939126 273.280000 59.865646 273.501818 59.792143 273.723636 59.718614 273.945455 59.645059 274.167273 59.571476 274.389091 59.497861 274.610909 59.424215 274.832727 59.350535 275.054545 59.276820 275.276364 59.203066 275.498182 59.129274 275.720000 59.055441 275.941818 58.981565 276.163636 58.907644 276.385455 58.833678 276.607273 58.759663 276.829091 58.685598 277.050909 58.611482 277.272727 58.537313 277.494545 58.463088 277.716364 58.388807 277.938182 58.314467 278.160000 58.240066 278.381818 58.165604 278.603636 58.091077 278.825455 58.016485 279.047273 57.941825 279.269091 57.867096 279.490909 57.792296 279.712727 57.717423 279.934545 57.642476 280.156364 57.567452 280.378182 57.492351 280.600000 57.417169 280.821818 57.341906 281.043636 57.266559 281.265455 57.191127 281.487273 57.115608 281.709091 57.040001 281.930909 56.964303 282.152727 56.888513 282.374545 56.812628 282.596364 56.736648 282.818182 56.660571 283.040000 56.584394 283.261818 56.508116 283.483636 56.431735 283.705455 56.355250 283.927273 56.278658 284.149091 56.201958 284.370909 56.125148 284.592727 56.048227 284.814545 55.971192 285.036364 55.894041 285.258182 55.816774 285.480000 55.739388 285.701818 55.661881 285.923636 55.584252 286.145455 55.506499 286.367273 55.428621 286.589091 55.350614 286.810909 55.272478 287.032727 55.194211 287.254545 55.115811 287.476364 55.037277 287.698182 54.958606 287.920000 54.879796 288.141818 54.800847 288.363636 54.721756 288.585455 54.642522 288.807273 54.563142 289.029091 54.483615 289.250909 54.403939 289.472727 54.324113 289.694545 54.244135 289.916364 54.164008 290.138182 54.083736 290.360000 54.003323 290.581818 53.922771 290.803636 53.842086 291.025455 53.761269 291.247273 53.680325 291.469091 53.599258 291.690909 53.518071 291.912727 53.436767 292.134545 53.355351 292.356364 53.273825 292.578182 53.192194 292.800000 53.110460 293.021818 53.028629 293.243636 52.946702 293.465455 52.864684 293.687273 52.782579 293.909091 52.700390 294.130909 52.618120 294.352727 52.535773 294.574545 52.453354 294.796364 52.370864 295.018182 52.288309 295.240000 52.205691 295.461818 52.123015 295.683636 52.040283 295.905455 51.957499 296.127273 51.874668 296.349091 51.791792 296.570909 51.708875 296.792727 51.625921 297.014545 51.542934 297.236364 51.459916 297.458182 51.376872 297.680000 51.293805 297.901818 51.210719 298.123636 51.127617 298.345455 51.044503 298.567273 50.961381 298.789091 50.878254 299.010909 50.795126 299.232727 50.712000 299.454545 50.628880 299.676364 50.545769 299.898182 50.462672 300.120000 50.379591 300.341818 50.296531 300.563636 50.213495 300.785455 50.130486 301.007273 50.047508 301.229091 49.964565 301.450909 49.881661 301.672727 49.798798 301.894545 49.715981 302.116364 49.633213 302.338182 49.550498 302.560000 49.467839 302.781818 49.385240 303.003636 49.302705 303.225455 49.220236 303.447273 49.137839 303.669091 49.055515 303.890909 48.973270 304.112727 48.891106 304.334545 48.809027 304.556364 48.727037 304.778182 48.645140 305.000000 48.563338 305.221818 48.481635 305.443636 48.400036 305.665455 48.318544 305.887273 48.237162 306.109091 48.155893 306.330909 48.074742 306.552727 47.993713 306.774545 47.912808 306.996364 47.832031 307.218182 47.751386 307.440000 47.670877 307.661818 47.590507 307.883636 47.510279 308.105455 47.430198 308.327273 47.350266 308.549091 47.270489 308.770909 47.190868 308.992727 47.111408 309.214545 47.032112 309.436364 46.952984 309.658182 46.874027 309.880000 46.795246 310.101818 46.716643 310.323636 46.638222 310.545455 46.559988 310.767273 46.481943 310.989091 46.404090 311.210909 46.326435 311.432727 46.248980 311.654545 46.171728 311.876364 46.094685 312.098182 46.017852 312.320000 45.941234 312.541818 45.864834 312.763636 45.788656 312.985455 45.712703 313.207273 45.636979 313.429091 45.561488 313.650909 45.486234 313.872727 45.411219 314.094545 45.336447 314.316364 45.261923 314.538182 45.187649 314.760000 45.113630 314.981818 45.039868 315.203636 44.966368 315.425455 44.893133 315.647273 44.820166 315.869091 44.747472 316.090909 44.675053 316.312727 44.602914 316.534545 44.531058 316.756364 44.459489 316.978182 44.388209 317.200000 44.317224 317.421818 44.246536 317.643636 44.176149 317.865455 44.106066 318.087273 44.036292 318.309091 43.966830 318.530909 43.897683 318.752727 43.828855 318.974545 43.760350 319.196364 43.692170 319.418182 43.624321 319.640000 43.556805 319.861818 43.489626 320.083636 43.422788 320.305455 43.356293 320.527273 43.290147 320.749091 43.224352 320.970909 43.158912 321.192727 43.093831 321.414545 43.029111 321.636364 42.964758 321.858182 42.900774 322.080000 42.837163 322.301818 42.773928 322.523636 42.711074 322.745455 42.648603 322.967273 42.586520 323.189091 42.524828 323.410909 42.463530 323.632727 42.402630 323.854545 42.342133 324.076364 42.282040 324.298182 42.222357 324.520000 42.163086 324.741818 42.104231 324.963636 42.045796 325.185455 41.987785 325.407273 41.930200 325.629091 41.873046 325.850909 41.816326 326.072727 41.760044 326.294545 41.704203 326.516364 41.648807 326.738182 41.593860 326.960000 41.539365 327.181818 41.485325 327.403636 41.431745 327.625455 41.378628 327.847273 41.325977 328.069091 41.273797 328.290909 41.222090 328.512727 41.170860 328.734545 41.120112 328.956364 41.069848 329.178182 41.020072 329.400000 40.970788 329.621818 40.921999 329.843636 40.873709 330.065455 40.825922 330.287273 40.778640 330.509091 40.731869 330.730909 40.685611 330.952727 40.639869 331.174545 40.594648 331.396364 40.549952 331.618182 40.505783 331.840000 40.462145 332.061818 40.419042 332.283636 40.376478 332.505455 40.334456 332.727273 40.292979 332.949091 40.252052 333.170909 40.211678 333.392727 40.171860 333.614545 40.132602 333.836364 40.093908 334.058182 40.055781 334.280000 40.018225 334.501818 39.981244 334.723636 39.944841 334.945455 39.909019 335.167273 39.873783 335.389091 39.839135 335.610909 39.805080 335.832727 39.771621 336.054545 39.738762 336.276364 39.706506 336.498182 39.674857 336.720000 39.643818 336.941818 39.613394 337.163636 39.583587 337.385455 39.554401 337.607273 39.525840 337.829091 39.497908 338.050909 39.470608 338.272727 39.443943 338.494545 39.417918 338.716364 39.392535 338.938182 39.367799 339.160000 39.343713 339.381818 39.320281 339.603636 39.297506 339.825455 39.275392 340.047273 39.253942 340.269091 39.233160 340.490909 39.213050 340.712727 39.193615 340.934545 39.174859 341.156364 39.156785 341.378182 39.139398 341.600000 39.122700 341.821818 39.106695 342.043636 39.091387 342.265455 39.076779 342.487273 39.062876 342.709091 39.049680 342.930909 39.037195 343.152727 39.025426 343.374545 39.014374 343.596364 39.004045 343.818182 38.994441 344.040000 38.985567 344.261818 38.977425 344.483636 38.970019 344.705455 38.963354 344.927273 38.957432 345.149091 38.952257 345.370909 38.947828 345.592727 38.944144 345.814545 38.941204 346.036364 38.939006 346.258182 38.937551 346.480000 38.936836 346.701818 38.936861 346.923636 38.937624 347.145455 38.939125 347.367273 38.941362 347.589091 38.944334 347.810909 38.948040 348.032727 38.952480 348.254545 38.957652 348.476364 38.963554 348.698182 38.970187 348.920000 38.977548 349.141818 38.985636 349.363636 38.994452 349.585455 39.003993 349.807273 39.014258 350.029091 39.025247 350.250909 39.036958 350.472727 39.049390 350.694545 39.062542 350.916364 39.076413 351.138182 39.091002 351.360000 39.106308 351.581818 39.122329 351.803636 39.139065 352.025455 39.156515 352.247273 39.174677 352.469091 39.193551 352.690909 39.213135 352.912727 39.233428 353.134545 39.254430 353.356364 39.276138 353.578182 39.298552 353.800000 39.321671 354.021818 39.345495 354.243636 39.370020 354.465455 39.395248 354.687273 39.421175 354.909091 39.447803 355.130909 39.475129 355.352727 39.503152 355.574545 39.531871 355.796364 39.561285 356.018182 39.591393 356.240000 39.622195 356.461818 39.653688 356.683636 39.685872 356.905455 39.718746 357.127273 39.752308 357.349091 39.786558 357.570909 39.821494 357.792727 39.857115 358.014545 39.893421 358.236364 39.930410 358.458182 39.968081 358.680000 40.006433 358.901818 40.045465 359.123636 40.085176 359.345455 40.125565 359.567273 40.166630 359.789091 40.208371 360.010909 40.250786 360.232727 40.293875 360.454545 40.337636 360.676364 40.382069 360.898182 40.427171 361.120000 40.472943 361.341818 40.519382 361.563636 40.566489 361.785455 40.614261 362.007273 40.662698 362.229091 40.711799 362.450909 40.761562 362.672727 40.811987 362.894545 40.863072 363.116364 40.914816 363.338182 40.967219 363.560000 41.020278 363.781818 41.073994 364.003636 41.128365 364.225455 41.183390 364.447273 41.239067 364.669091 41.295396 364.890909 41.352376 365.112727 41.410005 365.334545 41.468283 365.556364 41.527208 365.778182 41.586780 366.000000 41.646996 366.221818 41.707857 366.443636 41.769361 366.665455 41.831507 366.887273 41.894293 367.109091 41.957719 367.330909 42.021785 367.552727 42.086487 367.774545 42.151826 367.996364 42.217801 368.218182 42.284410 368.440000 42.351652 368.661818 42.419526 368.883636 42.488032 369.105455 42.557167 369.327273 42.626932 369.549091 42.697324 369.770909 42.768343 369.992727 42.839988 370.214545 42.912257 370.436364 42.985150 370.658182 43.058665 370.880000 43.132801 371.101818 43.207558 371.323636 43.282934 371.545455 43.358928 371.767273 43.435539 371.989091 43.512766 372.210909 43.590607 372.432727 43.669063 372.654545 43.748131 372.876364 43.827810 373.098182 43.908100 373.320000 43.989000 373.541818 44.070507 373.763636 44.152622 373.985455 44.235343 374.207273 44.318670 374.429091 44.402600 374.650909 44.487133 374.872727 44.572268 375.094545 44.658003 375.316364 44.744338 375.538182 44.831272 375.760000 44.918803 375.981818 45.006930 376.203636 45.095653 376.425455 45.184970 376.647273 45.274880 376.869091 45.365382 377.090909 45.456475 377.312727 45.548158 377.534545 45.640430 377.756364 45.733289 377.978182 45.826735 378.200000 45.920767 378.421818 46.015382 378.643636 46.110582 378.865455 46.206363 379.087273 46.302726 379.309091 46.399669 379.530909 46.497190 379.752727 46.595290 379.974545 46.693967 380.196364 46.793219 380.418182 46.893046 380.640000 46.993446 380.861818 47.094419 381.083636 47.195964 381.305455 47.298078 381.527273 47.400762 381.749091 47.504015 381.970909 47.607834 382.192727 47.712219 382.414545 47.817169 382.636364 47.922683 382.858182 48.028760 383.080000 48.135398 383.301818 48.242597 383.523636 48.350355 383.745455 48.458672 383.967273 48.567546 384.189091 48.676976 384.410909 48.786961 384.632727 48.897501 384.854545 49.008593 385.076364 49.120237 385.298182 49.232432 385.520000 49.345177 385.741818 49.458470 385.963636 49.572311 386.185455 49.686698 386.407273 49.801631 386.629091 49.917108 386.850909 50.033128 387.072727 50.149691 387.294545 50.266794 387.516364 50.384437 387.738182 50.502619 387.960000 50.621339 388.181818 50.740596 388.403636 50.860388 388.625455 50.980714 388.847273 51.101575 389.069091 51.222967 389.290909 51.344891 389.512727 51.467345 389.734545 51.590327 389.956364 51.713838 390.178182 51.837876 390.400000 51.962440 390.621818 52.087528 390.843636 52.213141 391.065455 52.339275 391.287273 52.465931 391.509091 52.593108 391.730909 52.720804 391.952727 52.849018 392.174545 52.977749 392.396364 53.106997 392.618182 53.236759 392.840000 53.367035 393.061818 53.497824 393.283636 53.629125 393.505455 53.760937 393.727273 53.893258 393.949091 54.026087 394.170909 54.159424 394.392727 54.293267 394.614545 54.427615 394.836364 54.562468 395.058182 54.697823 395.280000 54.833681 395.501818 54.970039 395.723636 55.106897 395.945455 55.244254 396.167273 55.382109 396.389091 55.520460 396.610909 55.659306 396.832727 55.798647 397.054545 55.938481 397.276364 56.078807 397.498182 56.219625 397.720000 56.360932 397.941818 56.502729 398.163636 56.645013 398.385455 56.787784 398.607273 56.931040 398.829091 57.074782 399.050909 57.219006 399.272727 57.363714 399.494545 57.508902 399.716364 57.654571 399.938182 57.800719 400.160000 57.947345 400.381818 58.094448 400.603636 58.242024 400.825455 58.390058 401.047273 58.538530 401.269091 58.687424 401.490909 58.836719 401.712727 58.986398 401.934545 59.136443 402.156364 59.286835 402.378182 59.437555 402.600000 59.588585 402.821818 59.739907 403.043636 59.891502 403.265455 60.043352 403.487273 60.195439 403.709091 60.347743 403.930909 60.500247 404.152727 60.652932 404.374545 60.805780 404.596364 60.958772 404.818182 61.111890 405.040000 61.265115 405.261818 61.418429 405.483636 61.571814 405.705455 61.725251 405.927273 61.878722 406.149091 62.032208 406.370909 62.185692 406.592727 62.339153 406.814545 62.492575 407.036364 62.645938 407.258182 62.799224 407.480000 62.952415 407.701818 63.105493 407.923636 63.258438 408.145455 63.411233 408.367273 63.563859 408.589091 63.716298 408.810909 63.868531 409.032727 64.020540 409.254545 64.172306 409.476364 64.323811 409.698182 64.475036 409.920000 64.625964 410.141818 64.776575 410.363636 64.926852 410.585455 65.076776 410.807273 65.226327 411.029091 65.375489 411.250909 65.524243 411.472727 65.672569 411.694545 65.820451 411.916364 65.967868 412.138182 66.114804 412.360000 66.261239 412.581818 66.407155 412.803636 66.552533 413.025455 66.697356 413.247273 66.841604 413.469091 66.985260 413.690909 67.128305 413.912727 67.270720 414.134545 67.412487 414.356364 67.553588 414.578182 67.694004 414.800000 67.833717 415.021818 67.972708 415.243636 68.110959 415.465455 68.248452 415.687273 68.385167 415.909091 68.521088 416.130909 68.656194 416.352727 68.790469 416.574545 68.923893 416.796364 69.056447 417.018182 69.188115 417.240000 69.318876 417.461818 69.448713 417.683636 69.577608 417.905455 69.705541 418.127273 69.832495 418.349091 69.958450 418.570909 70.083390 418.792727 70.207294 419.014545 70.330145 419.236364 70.451925 419.458182 70.572614 419.680000 70.692195 419.901818 70.810648 420.123636 70.927957 420.345455 71.044101 420.567273 71.159064 420.789091 71.272825 421.010909 71.385368 421.232727 71.496673 421.454545 71.606722 421.676364 71.715497 421.898182 71.822979 422.120000 71.929150 422.341818 72.033991 422.563636 72.137484 422.785455 72.239611 423.007273 72.340352 423.229091 72.439691 423.450909 72.537607 423.672727 72.634084 423.894545 72.729102 424.116364 72.822642 424.338182 72.914688 424.560000 73.005219 424.781818 73.094218 425.003636 73.181667 425.225455 73.267546 425.447273 73.351838 425.669091 73.434524 425.890909 73.515585 426.112727 73.595004 426.334545 73.672761 426.556364 73.748838 426.778182 73.823218 427.000000 73.895881 427.221818 73.966809 427.443636 74.035983 427.665455 74.103386 427.887273 74.168999 428.109091 74.232803 428.330909 74.294779 428.552727 74.354911 428.774545 74.413178 428.996364 74.469563 429.218182 74.524047 429.440000 74.576612 429.661818 74.627240 429.883636 74.675911 430.105455 74.722608 430.327273 74.767312 430.549091 74.810005 430.770909 74.850667 430.992727 74.889282 431.214545 74.925830 431.436364 74.960293 431.658182 74.992653 431.880000 75.022891 432.101818 75.050989 432.323636 75.076927 432.545455 75.100689 432.767273 75.122255 432.989091 75.141607 433.210909 75.158727 433.432727 75.173596 433.654545 75.186196 433.876364 75.196508 434.098182 75.204514 434.320000 75.210195 434.541818 75.213533 434.763636 75.214510 434.985455 75.213108 435.207273 75.209307 435.429091 75.203089 435.650909 75.194436 435.872727 75.183330 436.094545 75.169752 436.316364 75.153684 436.538182 75.135106 436.760000 75.114002 436.981818 75.090352 437.203636 75.064138 437.425455 75.035341 437.647273 75.003944 437.869091 74.969927 438.090909 74.933273 438.312727 74.893962 438.534545 74.851977 438.756364 74.807299 438.978182 74.759909 439.200000 74.709789 439.421818 74.656922 439.643636 74.601287 439.865455 74.542868 440.087273 74.481644 440.309091 74.417599 440.530909 74.350714 440.752727 74.280969 440.974545 74.208348 441.196364 74.132830 441.418182 74.054399 441.640000 73.973035 441.861818 73.888720 442.083636 73.801436 442.305455 73.711164 442.527273 73.617886 442.749091 73.521583 442.970909 73.422237 443.192727 73.319830 443.414545 73.214342 443.636364 73.105757 443.858182 72.994054 444.080000 72.879217 444.301818 72.761226 444.523636 72.640062 444.745455 72.515709 444.967273 72.388146 445.189091 72.257356 445.410909 72.123321 445.632727 71.986021 445.854545 71.845439 446.076364 71.701555 446.298182 71.554353 446.520000 71.403812 446.741818 71.249915 446.963636 71.092644 447.185455 70.931979 447.407273 70.767903 447.629091 70.600397 447.850909 70.429442 448.072727 70.255021 448.294545 70.077114 448.516364 69.895704 448.738182 69.710772 448.960000 69.522299 449.181818 69.330267 449.403636 69.134658 449.625455 68.935453 449.847273 68.732634 450.069091 68.526182 450.290909 68.316079 450.512727 68.102307 450.734545 67.884847 450.956364 67.663680 451.178182 67.438789 451.400000 67.210155 451.621818 66.977759 451.843636 66.741583 452.065455 66.501608 452.287273 66.257817 452.509091 66.010190 452.730909 65.758710 452.952727 65.503357 453.174545 65.244114 453.396364 64.980962 453.618182 64.713883 453.840000 64.442857 454.061818 64.167868 454.283636 63.888895 454.505455 63.605922 454.727273 63.318929 454.949091 63.027898 455.170909 62.732811 455.392727 62.433649 455.614545 62.130394 455.836364 61.823027 456.058182 61.511545 456.280000 61.196007 456.501818 60.876487 456.723636 60.553059 456.945455 60.225797 457.167273 59.894774 457.389091 59.560064 457.610909 59.221742 457.832727 58.879882 458.054545 58.534556 458.276364 58.185840 458.498182 57.833807 458.720000 57.478532 458.941818 57.120087 459.163636 56.758547 459.385455 56.393987 459.607273 56.026479 459.829091 55.656098 460.050909 55.282917 460.272727 54.907011 460.494545 54.528454 460.716364 54.147320 460.938182 53.763682 461.160000 53.377614 461.381818 52.989190 461.603636 52.598485 461.825455 52.205572 462.047273 51.810526 462.269091 51.413419 462.490909 51.014326 462.712727 50.613321 462.934545 50.210478 463.156364 49.805871 463.378182 49.399573 463.600000 48.991660 463.821818 48.582203 464.043636 48.171279 464.265455 47.758959 464.487273 47.345320 464.709091 46.930433 464.930909 46.514374 465.152727 46.097216 465.374545 45.679033 465.596364 45.259899 465.818182 44.839888 466.040000 44.419074 466.261818 43.997531 466.483636 43.575333 466.705455 43.152553 466.927273 42.729266 467.149091 42.305546 467.370909 41.881466 467.592727 41.457101 467.814545 41.032524 468.036364 40.607809 468.258182 40.183031 468.480000 39.758263 468.701818 39.333579 468.923636 38.909053 469.145455 38.484759 469.367273 38.060771 469.589091 37.637163 469.810909 37.214009 470.032727 36.791382 470.254545 36.369357 470.476364 35.948008 470.698182 35.527408 470.920000 35.107631 471.141818 34.688752 471.363636 34.270845 471.585455 33.853982 471.807273 33.438239 472.029091 33.023689 472.250909 32.610406 472.472727 32.198464 472.694545 31.787937 472.916364 31.378899 473.138182 30.971424 473.360000 30.565585 473.581818 30.161457 473.803636 29.759113 474.025455 29.358629 474.247273 28.960076 474.469091 28.563530 474.690909 28.169065 474.912727 27.776753 475.134545 27.386670 475.356364 26.998889 475.578182 26.613484 475.800000 26.230529 476.021818 25.850098 476.243636 25.472264 476.465455 25.097103 476.687273 24.724687 476.909091 24.355091 477.130909 23.988389 477.352727 23.624654 477.574545 23.263961 477.796364 22.906383 478.018182 22.551994 478.240000 22.200869 478.461818 21.853080 478.683636 21.508703 478.905455 21.167811 479.127273 20.830478 479.349091 20.496778 479.570909 20.166785 479.792727 19.840572 480.014545 19.518215 480.236364 19.199786 480.458182 18.885359 480.680000 18.575010 480.901818 18.268810 481.123636 17.966835 481.345455 17.669158 481.567273 17.375854 481.789091 17.086996 482.010909 16.802658 482.232727 16.522914 482.454545 16.247838 482.676364 15.977504 482.898182 15.711986 483.120000 15.451357 483.341818 15.195692 483.563636 14.945066 483.785455 14.699550 484.007273 14.459220 484.229091 14.224150 484.450909 13.994413 484.672727 13.770083 484.894545 13.551235 485.116364 13.337942 485.338182 13.130278 485.560000 12.928317 485.781818 12.732133 486.003636 12.541800 486.225455 12.357392 486.447273 12.178982 486.669091 12.006646 486.890909 11.840456 487.112727 11.680486 487.334545 11.526812 487.556364 11.379505 487.778182 11.238641 488.000000 11.104294 488.221818 10.976537 488.443636 10.855443 488.665455 10.741089 488.887273 10.633546 489.109091 10.532889 489.330909 10.439192 489.552727 10.352529 489.774545 10.272973 489.996364 10.200600 490.218182 10.135482 490.440000 10.077694 490.661818 10.027309 490.883636 9.984402 491.105455 9.949046 491.327273 9.921316 491.549091 9.901284 491.770909 9.889026 491.992727 9.884615 492.214545 9.888126 492.436364 9.899631 492.658182 9.919205 492.880000 9.946922 493.101818 9.982856 493.323636 10.027080 493.545455 10.079670 493.767273 10.140697 493.989091 10.210238 494.210909 10.288365 494.432727 10.375152 494.654545 10.470674 494.876364 10.575003 495.098182 10.688215 495.320000 10.810384 495.541818 10.941582 495.763636 11.081884 495.985455 11.231365 496.207273 11.390097 496.429091 11.558155 496.650909 11.735612 496.872727 11.922544 497.094545 12.119023 497.316364 12.325123 497.538182 12.540919 497.760000 12.766485 497.981818 13.001893 498.203636 13.247219 498.425455 13.502536 498.647273 13.767919 498.869091 14.043440 499.090909 14.329175 499.312727 14.625196 499.534545 14.931578 499.756364 15.248395 499.978182 15.575721 500.200000 15.913630 500.421818 16.262195 500.643636 16.621490 500.865455 16.991591 501.087273 17.372569 501.309091 17.764500 501.530909 18.167457 501.752727 18.581515 501.974545 19.006746 502.196364 19.443226 502.418182 19.891027 502.640000 20.350225 502.861818 20.820892 503.083636 21.303103 503.305455 21.796932 503.527273 22.302453 503.749091 22.819739 503.970909 23.348865 504.192727 23.889904 504.414545 24.442931 504.636364 25.008019 504.858182 25.585243 505.080000 26.174675 505.301818 26.776391 505.523636 27.390464 505.745455 28.016967 505.967273 28.655976 506.189091 29.307564 506.410909 29.971804 506.632727 30.648771 506.854545 31.338539 507.076364 32.041181 507.298182 32.756772 507.520000 33.485386 507.741818 34.227096 507.963636 34.981976 508.185455 35.750101 508.407273 36.531543 508.629091 37.326378 508.850909 38.134679 509.072727 38.956520 509.294545 39.791975 509.516364 40.641118 509.738182 41.504023 509.960000 42.380763 510.181818 43.271413 510.403636 44.176047 510.625455 45.094738 510.847273 46.027561 511.069091 46.974589 511.290909 47.935896 511.512727 48.911526 511.734545 49.901399 511.956364 50.905404 512.178182 51.923431 512.400000 52.955370 512.621818 54.001109 512.843636 55.060540 513.065455 56.133550 513.287273 57.220030 513.509091 58.319869 513.730909 59.432956 513.952727 60.559182 514.174545 61.698436 514.396364 62.850607 514.618182 64.015586 514.840000 65.193260 515.061818 66.383521 515.283636 67.586257 515.505455 68.801358 515.727273 70.028714 515.949091 71.268214 516.170909 72.519747 516.392727 73.783204 516.614545 75.058474 516.836364 76.345446 517.058182 77.644010 517.280000 78.954055 517.501818 80.275472 517.723636 81.608149 517.945455 82.951976 518.167273 84.306842 518.389091 85.672638 518.610909 87.049252 518.832727 88.436575 519.054545 89.834495 519.276364 91.242903 519.498182 92.661688 519.720000 94.090739 519.941818 95.529946 520.163636 96.979199 520.385455 98.438386 520.607273 99.907399 520.829091 101.386125 521.050909 102.874455 521.272727 104.372278 521.494545 105.879484 521.716364 107.395963 521.938182 108.921603 522.160000 110.456295 522.381818 111.999927 522.603636 113.552390 522.825455 115.113574 523.047273 116.683366 523.269091 118.261658 523.490909 119.848339 523.712727 121.443298 523.934545 123.046424 524.156364 124.657608 524.378182 126.276739 524.600000 127.903706 524.821818 129.538399 525.043636 131.180707 525.265455 132.830521 525.487273 134.487729 525.709091 136.152221 525.930909 137.823887 526.152727 139.502616 526.374545 141.188298 526.596364 142.880823 526.818182 144.580079 527.040000 146.285956 527.261818 147.998344 527.483636 149.717133 527.705455 151.442212 527.927273 153.173470 528.149091 154.910798 528.370909 156.654084 528.592727 158.403218 528.814545 160.158090 529.036364 161.918590 529.258182 163.684606 529.480000 165.456029 529.701818 167.232747 529.923636 169.014651 530.145455 170.801630 530.367273 172.593573 530.589091 174.390371 530.810909 176.191912 531.032727 177.998087 531.254545 179.808784 531.476364 181.623893 531.698182 183.443305 531.920000 185.266907 532.141818 187.094591 532.363636 188.926245 532.585455 190.761759 532.807273 192.601022 533.029091 194.443925 533.250909 196.290356 533.472727 198.140205 533.694545 199.993362 533.916364 201.849717 534.138182 203.709158 534.360000 205.571575 534.581818 207.436859 534.803636 209.304898 535.025455 211.175581 535.247273 213.048800 535.469091 214.924442 535.690909 216.802398 535.912727 218.682557 536.134545 220.564809 536.356364 222.449043 536.578182 224.335149 536.800000 226.223017 537.021818 228.112535 537.243636 230.003593 537.465455 231.896082 537.687273 233.789890 537.909091 235.684907 538.130909 237.581023 538.352727 239.478127 538.574545 241.376108 538.796364 243.274857 539.018182 245.174263 539.240000 247.074214 539.461818 248.974602 539.683636 250.875315 539.905455 252.776243 540.127273 254.677276 540.349091 256.578303 540.570909 258.479213 540.792727 260.379896 541.014545 262.280243 541.236364 264.180141 541.458182 266.079481 541.680000 267.978152 541.901818 269.876045 542.123636 271.773047 542.345455 273.669050 542.567273 275.563942 542.789091 277.457613 543.010909 279.349953 543.232727 281.240850 543.454545 283.130196 543.676364 285.017879 543.898182 286.903788 544.120000 288.787814 544.341818 290.669845 544.563636 292.549772 544.785455 294.427484 545.007273 296.302871 545.229091 298.175821 545.450909 300.046225 545.672727 301.913972 545.894545 303.778952 546.116364 305.641054 546.338182 307.500167 546.560000 309.356182 546.781818 311.208988 547.003636 313.058474 547.225455 314.904530 547.447273 316.747046 547.669091 318.585911 547.890909 320.421014 548.112727 322.252245 548.334545 324.079494 548.556364 325.902650 548.778182 327.721603 549.000000 329.536242 549.221818 331.346456 549.443636 333.152137 549.665455 334.953172 549.887273 336.749451 550.109091 338.540865 550.330909 340.327302 550.552727 342.108652 550.774545 343.884805 550.996364 345.655650 551.218182 347.421077 551.440000 349.180975 551.661818 350.935234 551.883636 352.683743 552.105455 354.426392 552.327273 356.163070 552.549091 357.893668 552.770909 359.618074 552.992727 361.336178 553.214545 363.047870 553.436364 364.753039 553.658182 366.451574 553.880000 368.143366 554.101818 369.828304 554.323636 371.506277 554.545455 373.177174 554.767273 374.840887 554.989091 376.497303 555.210909 378.146313 555.432727 379.787805 555.654545 381.421671 555.876364 383.047798 556.098182 384.666078 556.320000 386.276398 556.541818 387.878649 556.763636 389.472721 556.985455 391.058502 557.207273 392.635883 557.429091 394.204753 557.650909 395.765002 557.872727 397.316518 558.094545 398.859192 558.316364 400.392913 558.538182 401.917571 558.760000 403.433055 558.981818 404.939255 559.203636 406.436060 559.425455 407.923360 559.647273 409.401044 559.869091 410.869003 560.090909 412.327124 560.312727 413.775299 560.534545 415.213417 560.756364 416.641366 560.978182 418.059038 561.200000 419.466320 561.421818 420.863103 561.643636 422.249277 561.865455 423.624730 562.087273 424.989353 562.309091 426.343035 562.530909 427.685665 562.752727 429.017133 562.974545 430.337329 563.196364 431.646142 563.418182 432.943461 563.640000 434.229177 563.861818 435.503178 564.083636 436.765355 564.305455 438.015597 564.527273 439.253793 564.749091 440.479833 564.970909 441.693606 565.192727 442.895002 565.414545 444.083911 565.636364 445.260222 565.858182 446.423825 566.080000 447.574609 566.301818 448.712463 566.523636 449.837278 566.745455 450.948943 566.967273 452.047374 567.189091 453.132598 567.410909 454.204667 567.632727 455.263635 567.854545 456.309554 568.076364 457.342478 568.298182 458.362459 568.520000 459.369551 568.741818 460.363807 568.963636 461.345280 569.185455 462.314022 569.407273 463.270087 569.629091 464.213528 569.850909 465.144398 570.072727 466.062750 570.294545 466.968637 570.516364 467.862112 570.738182 468.743228 570.960000 469.612038 571.181818 470.468596 571.403636 471.312953 571.625455 472.145164 571.847273 472.965281 572.069091 473.773358 572.290909 474.569447 572.512727 475.353601 572.734545 476.125874 572.956364 476.886318 573.178182 477.634987 573.400000 478.371933 573.621818 479.097210 573.843636 479.810871 574.065455 480.512969 574.287273 481.203556 574.509091 481.882686 574.730909 482.550412 574.952727 483.206787 575.174545 483.851864 575.396364 484.485695 575.618182 485.108335 575.840000 485.719836 576.061818 486.320251 576.283636 486.909633 576.505455 487.488035 576.727273 488.055511 576.949091 488.612113 577.170909 489.157894 577.392727 489.692907 577.614545 490.217206 577.836364 490.730844 578.058182 491.233873 578.280000 491.726346 578.501818 492.208317 578.723636 492.679839 578.945455 493.140964 579.167273 493.591746 579.389091 494.032238 579.610909 494.462492 579.832727 494.882562 580.054545 495.292502 580.276364 495.692363 580.498182 496.082199 580.720000 496.462063 580.941818 496.832008 581.163636 497.192087 581.385455 497.542354 581.607273 497.882860 581.829091 498.213660 582.050909 498.534806 582.272727 498.846351 582.494545 499.148349 582.716364 499.440852 582.938182 499.723914 583.160000 499.997587 583.381818 500.261924 583.603636 500.516979 583.825455 500.762805 584.047273 500.999454 584.269091 501.226980 584.490909 501.445436 584.712727 501.654874 584.934545 501.855348 585.156364 502.046911 585.378182 502.229616 585.600000 502.403516 585.821818 502.568664 586.043636 502.725113 586.265455 502.872916 586.487273 503.012126 586.709091 503.142797 586.930909 503.264980 587.152727 503.378730 587.374545 503.484099 587.596364 503.581140 587.818182 503.669907 588.040000 503.750452 588.261818 503.822829 588.483636 503.887090 588.705455 503.943288 588.927273 503.991477 589.149091 504.031710 589.370909 504.064039 589.592727 504.088519 589.814545 504.105200 590.036364 504.114138 590.258182 504.115385 590.480000 504.108993 590.701818 504.095016 590.923636 504.073508 591.145455 504.044520 591.367273 504.008106 591.589091 503.964319 591.810909 503.913213 592.032727 503.854840 592.254545 503.789253 592.476364 503.716505 592.698182 503.636649 592.920000 503.549739 593.141818 503.455827 593.363636 503.354967 593.585455 503.247211 593.807273 503.132613 594.029091 503.011225 594.250909 502.883100 594.472727 502.748293 594.694545 502.606855 594.916364 502.458840 595.138182 502.304300 595.360000 502.143290 595.581818 501.975861 595.803636 501.802067 596.025455 501.621961 596.247273 501.435596 596.469091 501.243025 596.690909 501.044301 596.912727 500.839478 597.134545 500.628607 597.356364 500.411743 597.578182 500.188938 597.800000 499.960245 598.021818 499.725717 598.243636 499.485408 598.465455 499.239370 598.687273 498.987657 598.909091 498.730321 599.130909 498.467416 599.352727 498.198994 599.574545 497.925109 599.796364 497.645813 600.018182 497.361160 600.240000 497.071203 600.461818 496.775995 600.683636 496.475589 600.905455 496.170037 601.127273 495.859394 601.349091 495.543711 601.570909 495.223042 601.792727 494.897441 602.014545 494.566959 602.236364 494.231651 602.458182 493.891569 602.680000 493.546766 602.901818 493.197295 603.123636 492.843210 603.345455 492.484562 603.567273 492.121407 603.789091 491.753795 604.010909 491.381782 604.232727 491.005418 604.454545 490.624759 604.676364 490.239855 604.898182 489.850762 605.120000 489.457531 605.341818 489.060216 605.563636 488.658870 605.785455 488.253545 606.007273 487.844295 606.229091 487.431174 606.450909 487.014233 606.672727 486.593526 606.894545 486.169106 607.116364 485.741026 607.338182 485.309340 607.560000 484.874099 607.781818 484.435358 608.003636 483.993169 608.225455 483.547585 608.447273 483.098660 608.669091 482.646445 608.890909 482.190996 609.112727 481.732363 609.334545 481.270602 609.556364 480.805763 609.778182 480.337902 610.000000 479.867070 610.221818 479.393320 610.443636 478.916707 610.665455 478.437282 610.887273 477.955098 611.109091 477.470210 611.330909 476.982670 611.552727 476.492530 611.774545 475.999845 611.996364 475.504666 612.218182 475.007047 612.440000 474.507042 612.661818 474.004703 612.883636 473.500083 613.105455 472.993235 613.327273 472.484212 613.549091 471.973068 613.770909 471.459854 613.992727 470.944626 614.214545 470.427435 614.436364 469.908334 614.658182 469.387377 614.880000 468.864616 615.101818 468.340105 615.323636 467.813896 615.545455 467.286044 615.767273 466.756599 615.989091 466.225617 616.210909 465.693150 616.432727 465.159250 616.654545 464.623971 616.876364 464.087367 617.098182 463.549489 617.320000 463.010391 617.541818 462.470126 617.763636 461.928748 617.985455 461.386308 618.207273 460.842861 618.429091 460.298459 618.650909 459.753155 618.872727 459.207003 619.094545 458.660054 619.316364 458.112364 619.538182 457.563984 619.760000 457.014967 619.981818 456.465367 620.203636 455.915236 620.425455 455.364628 620.647273 454.813596 620.869091 454.262192 621.090909 453.710470 621.312727 453.158483 621.534545 452.606284 621.756364 452.053925 621.978182 451.501461 622.200000 450.948943 622.200000 450.948943" /></g></g><g class="titles"><text class="title plot_title" x="400.0" y="26">2558 summary</text></g><g class="plot overlay" transform="translate(145, 46)"><g class="series serie-0 color-0"><g class="dots"><circle class="dot reactive tooltip-trigger" cx="12.2" cy="70.68636332305653" r="2.5" /><desc class="value">18632116</desc><desc class="x ">12.2</desc><desc class="y ">70.68636332305653</desc><desc class="x_label">Jan</desc></g><g class="dots"><circle class="dot reactive tooltip-trigger" cx="67.65454545454546" cy="86.61627017651864" r="2.5" /><desc class="value">17851582</desc><desc class="x ">67.65454545454546</desc><desc class="y ">86.61627017651864</desc><desc class="x_label">Feb</desc></g><g class="dots"><circle class="dot reactive tooltip-trigger" cx="123.1090909090909" cy="44.71921550370831" r="2.5" /><desc class="value">19904455</desc><desc class="x ">123.1090909090909</desc><desc class="y ">44.71921550370831</desc><desc class="x_label">Mar</desc></g><g class="dots"><circle class="dot reactive tooltip-trigger" cx="178.56363636363636" cy="83.78162540423318" r="2.5" /><desc class="value">17990474</desc><desc class="x ">178.56363636363636</desc><desc class="y ">83.78162540423318</desc><desc class="x_label">Apr</desc></g><g class="dots"><circle class="dot reactive tooltip-trigger" cx="234.01818181818183" cy="74.1437474607248" r="2.5" /><desc class="value">18462711</desc><desc class="x ">234.01818181818183</desc><desc class="y ">74.1437474607248</desc><desc class="x_label">May</desc></g><g class="dots"><circle class="dot reactive tooltip-trigger" cx="289.47272727272724" cy="54.324112527134844" r="2.5" /><desc class="value">19433834</desc><desc class="x ">289.47272727272724</desc><desc class="y ">54.324112527134844</desc><desc class="x_label">Jun</desc></g><g class="dots"><circle class="dot reactive tooltip-trigger" cx="344.9272727272727" cy="38.95743243821471" r="2.5" /><desc class="value">20186771</desc><desc class="x left">344.9272727272727</desc><desc class="y left">38.95743243821471</desc><desc class="x_label">Jul</desc></g><g class="dots"><circle class="dot reactive tooltip-trigger" cx="400.3818181818181" cy="58.09444804384742" r="2.5" /><desc class="value">19249095</desc><desc class="x left">400.3818181818181</desc><desc class="y left">58.09444804384742</desc><desc class="x_label">Aug</desc></g><g class="dots"><circle class="dot reactive tooltip-trigger" cx="455.8363636363636" cy="61.82302677684248" r="2.5" /><desc class="value">19066402</desc><desc class="x left">455.8363636363636</desc><desc class="y left">61.82302677684248</desc><desc class="x_label">Sep</desc></g><g class="dots"><circle class="dot reactive tooltip-trigger" cx="511.2909090909091" cy="47.93589606993737" r="2.5" /><desc class="value">19746844</desc><desc class="x left">511.2909090909091</desc><desc class="y left">47.93589606993737</desc><desc class="x_label">Oct</desc></g><g class="dots"><circle class="dot reactive tooltip-trigger" cx="566.7454545454545" cy="450.9489429965892" r="2.5" /><desc class="value">0</desc><desc class="x left top">566.7454545454545</desc><desc class="y left top">450.9489429965892</desc><desc class="x_label">Nov</desc></g><g class="dots"><circle class="dot reactive tooltip-trigger" cx="622.1999999999999" cy="450.9489429965892" r="2.5" /><desc class="value">0</desc><desc class="x left top">622.1999999999999</desc><desc class="y left top">450.9489429965892</desc><desc class="x_label">Dec</desc></g></g></g><g class="plot text-overlay" transform="translate(145, 46)"><g class="series serie-0 color-0" /></g><g class="plot tooltip-overlay" transform="translate(145, 46)"><g class="tooltip" style="opacity: 0" transform="translate(0 0)"><rect class="tooltip-box" height="0" rx="0" ry="0" width="0" /><g class="text" /></g></g><g class="legends" transform="translate(10, 56)"><g class="legend reactive activate-serie" id="activate-serie-0"><rect class="color-0 reactive" height="12" width="12" x="0.0" y="1.0" /><text x="17.0" y="11.2">2558</text></g></g><g class="legends" transform="translate(790, 56)" /></g></svg>