<?xml version='1.0' encoding='utf-8'?>
<svg xmlns:xlink="http://www.w3.org/1999/xlink" class="pygal-chart" id="chart-e7adf8c4-e530-401a-a1b9-361c858abab8" viewBox="0 0 800 600" xmlns="http://www.w3.org/2000/svg"><!--Generated with pygal 2.0.11 (etree) ©Kozea 2011-2015 on 2015-12-10--><!--http://pygal.org--><!--http://github.com/Kozea/pygal--><defs><style type="text/css">#chart-e7adf8c4-e530-401a-a1b9-361c858abab8{-webkit-user-select:none;-webkit-font-smoothing:antialiased;font-family:Consolas,"Liberation Mono",Menlo,Courier,monospace}#chart-e7adf8c4-e530-401a-a1b9-361c858abab8 .title{font-family:Consolas,"Liberation Mono",Menlo,Courier,monospace;font-size:16px}#chart-e7adf8c4-e530-401a-a1b9-361c858abab8 .legends .legend text{font-family:Consolas,"Liberation Mono",Menlo,Courier,monospace;font-size:14px}#chart-e7adf8c4-e530-401a-a1b9-361c858abab8 .axis text{font-family:Consolas,"Liberation Mono",Menlo,Courier,monospace;font-size:10px}#chart-e7adf8c4-e530-401a-a1b9-361c858abab8 .axis text.major{font-family:Consolas,"Liberation Mono",Menlo,Courier,monospace;font-size:10px}#chart-e7adf8c4-e530-401a-a1b9-361c858abab8 .text-overlay text.value{font-family:Consolas,"Liberation Mono",Menlo,Courier,monospace;font-size:16px}#chart-e7adf8c4-e530-401a-a1b9-361c858abab8 .text-overlay text.label{font-family:Consolas,"Liberation Mono",Menlo,Courier,monospace;font-size:10px}#chart-e7adf8c4-e530-401a-a1b9-361c858abab8 .tooltip{font-family:Consolas,"Liberation Mono",Menlo,Courier,monospace;font-size:14px}#chart-e7adf8c4-e530-401a-a1b9-361c858abab8 text.no_data{font-family:Consolas,"Liberation Mono",Menlo,Courier,monospace;font-size:64px}
#chart-e7adf8c4-e530-401a-a1b9-361c858abab8{background-color:black}#chart-e7adf8c4-e530-401a-a1b9-361c858abab8 path,#chart-e7adf8c4-e530-401a-a1b9-361c858abab8 line,#chart-e7adf8c4-e530-401a-a1b9-361c858abab8 rect,#chart-e7adf8c4-e530-401a-a1b9-361c858abab8 circle{-webkit-transition:250ms;-moz-transition:250ms;transition:250ms}#chart-e7adf8c4-e530-401a-a1b9-361c858abab8 .graph &gt; .background{fill:black}#chart-e7adf8c4-e530-401a-a1b9-361c858abab8 .plot &gt; .background{fill:#111}#chart-e7adf8c4-e530-401a-a1b9-361c858abab8 .graph{fill:#999}#chart-e7adf8c4-e530-401a-a1b9-361c858abab8 text.no_data{fill:#eee}#chart-e7adf8c4-e530-401a-a1b9-361c858abab8 .title{fill:#eee}#chart-e7adf8c4-e530-401a-a1b9-361c858abab8 .legends .legend text{fill:#999}#chart-e7adf8c4-e530-401a-a1b9-361c858abab8 .legends .legend:hover text{fill:#eee}#chart-e7adf8c4-e530-401a-a1b9-361c858abab8 .axis .line{stroke:#eee}#chart-e7adf8c4-e530-401a-a1b9-361c858abab8 .axis .guide.line{stroke:#555}#chart-e7adf8c4-e530-401a-a1b9-361c858abab8 .axis .major.line{stroke:#999}#chart-e7adf8c4-e530-401a-a1b9-361c858abab8 .axis text.major{fill:#eee}#chart-e7adf8c4-e530-401a-a1b9-361c858abab8 .axis.y .guides:hover .guide.line,#chart-e7adf8c4-e530-401a-a1b9-361c858abab8 .line-graph .axis.x .guides:hover .guide.line,#chart-e7adf8c4-e530-401a-a1b9-361c858abab8 .stackedline-graph .axis.x .guides:hover .guide.line,#chart-e7adf8c4-e530-401a-a1b9-361c858abab8 .xy-graph .axis.x .guides:hover .guide.line{stroke:#eee}#chart-e7adf8c4-e530-401a-a1b9-361c858abab8 .axis .guides:hover text{fill:#eee}#chart-e7adf8c4-e530-401a-a1b9-361c858abab8 .reactive{fill-opacity:.8}#chart-e7adf8c4-e530-401a-a1b9-361c858abab8 .reactive.active,#chart-e7adf8c4-e530-401a-a1b9-361c858abab8 .active .reactive{fill-opacity:.4;stroke-width:4}#chart-e7adf8c4-e530-401a-a1b9-361c858abab8 .series text{fill:#eee}#chart-e7adf8c4-e530-401a-a1b9-361c858abab8 .tooltip rect{fill:#111;stroke:#eee;-webkit-transition:opacity 250ms;-moz-transition:opacity 250ms;transition:opacity 250ms}#chart-e7adf8c4-e530-401a-a1b9-361c858abab8 .tooltip .label{fill:#999}#chart-e7adf8c4-e530-401a-a1b9-361c858abab8 .tooltip .label{fill:#999}#chart-e7adf8c4-e530-401a-a1b9-361c858abab8 .tooltip .legend{font-size:.8em;fill:#555}#chart-e7adf8c4-e530-401a-a1b9-361c858abab8 .tooltip .x_label{font-size:.6em;fill:#eee}#chart-e7adf8c4-e530-401a-a1b9-361c858abab8 .tooltip .xlink{font-size:.5em;text-decoration:underline}#chart-e7adf8c4-e530-401a-a1b9-361c858abab8 .tooltip .value{font-size:1.5em}#chart-e7adf8c4-e530-401a-a1b9-361c858abab8 .map-element{fill:#111;stroke:#555 !important}#chart-e7adf8c4-e530-401a-a1b9-361c858abab8 .map-element .reactive{fill-opacity:inherit}#chart-e7adf8c4-e530-401a-a1b9-361c858abab8 .color-0,#chart-e7adf8c4-e530-401a-a1b9-361c858abab8 .color-0 a:visited{stroke:#ff5995;fill:#ff5995}#chart-e7adf8c4-e530-401a-a1b9-361c858abab8 .text-overlay .color-0 text{fill:black}
#chart-e7adf8c4-e530-401a-a1b9-361c858abab8 text.no_data{text-anchor:middle}#chart-e7adf8c4-e530-401a-a1b9-361c858abab8 .guide.line{fill:none}#chart-e7adf8c4-e530-401a-a1b9-361c858abab8 .centered{text-anchor:middle}#chart-e7adf8c4-e530-401a-a1b9-361c858abab8 .title{text-anchor:middle}#chart-e7adf8c4-e530-401a-a1b9-361c858abab8 .legends .legend text{fill-opacity:1}#chart-e7adf8c4-e530-401a-a1b9-361c858abab8 .axis.x text{text-anchor:middle}#chart-e7adf8c4-e530-401a-a1b9-361c858abab8 .axis.x:not(.web) text[transform]{text-anchor:start}#chart-e7adf8c4-e530-401a-a1b9-361c858abab8 .axis.x:not(.web) text[transform].backwards{text-anchor:end}#chart-e7adf8c4-e530-401a-a1b9-361c858abab8 .axis.y text{text-anchor:end}#chart-e7adf8c4-e530-401a-a1b9-361c858abab8 .axis.y text[transform].backwards{text-anchor:start}#chart-e7adf8c4-e530-401a-a1b9-361c858abab8 .axis.y2 text{text-anchor:start}#chart-e7adf8c4-e530-401a-a1b9-361c858abab8 .axis.y2 text[transform].backwards{text-anchor:end}#chart-e7adf8c4-e530-401a-a1b9-361c858abab8 .axis .guide.line{stroke-dasharray:4,4}#chart-e7adf8c4-e530-401a-a1b9-361c858abab8 .axis .major.guide.line{stroke-dasharray:6,6}#chart-e7adf8c4-e530-401a-a1b9-361c858abab8 .horizontal .axis.y .guide.line,#chart-e7adf8c4-e530-401a-a1b9-361c858abab8 .horizontal .axis.y2 .guide.line,#chart-e7adf8c4-e530-401a-a1b9-361c858abab8 .vertical .axis.x .guide.line{opacity:0}#chart-e7adf8c4-e530-401a-a1b9-361c858abab8 .horizontal .axis.always_show .guide.line,#chart-e7adf8c4-e530-401a-a1b9-361c858abab8 .vertical .axis.always_show .guide.line{opacity:1 !important}#chart-e7adf8c4-e530-401a-a1b9-361c858abab8 .axis.y .guides:hover .guide.line,#chart-e7adf8c4-e530-401a-a1b9-361c858abab8 .axis.y2 .guides:hover .guide.line,#chart-e7adf8c4-e530-401a-a1b9-361c858abab8 .axis.x .guides:hover .guide.line{opacity:1}#chart-e7adf8c4-e530-401a-a1b9-361c858abab8 .axis .guides:hover text{opacity:1}#chart-e7adf8c4-e530-401a-a1b9-361c858abab8 .nofill{fill:none}#chart-e7adf8c4-e530-401a-a1b9-361c858abab8 .subtle-fill{fill-opacity:.2}#chart-e7adf8c4-e530-401a-a1b9-361c858abab8 .dot{stroke-width:1px;fill-opacity:1}#chart-e7adf8c4-e530-401a-a1b9-361c858abab8 .dot.active{stroke-width:5px}#chart-e7adf8c4-e530-401a-a1b9-361c858abab8 .dot.negative{fill:transparent}#chart-e7adf8c4-e530-401a-a1b9-361c858abab8 text,#chart-e7adf8c4-e530-401a-a1b9-361c858abab8 tspan{stroke:none !important}#chart-e7adf8c4-e530-401a-a1b9-361c858abab8 .series text.active{opacity:1}#chart-e7adf8c4-e530-401a-a1b9-361c858abab8 .tooltip rect{fill-opacity:.95;stroke-width:.5}#chart-e7adf8c4-e530-401a-a1b9-361c858abab8 .tooltip text{fill-opacity:1}#chart-e7adf8c4-e530-401a-a1b9-361c858abab8 .showable{visibility:hidden}#chart-e7adf8c4-e530-401a-a1b9-361c858abab8 .showable.shown{visibility:visible}</style><script type="text/javascript">window.pygal = window.pygal || {};window.pygal.config = window.pygal.config || {};window.pygal.config['e7adf8c4-e530-401a-a1b9-361c858abab8'] = {"print_values": false, "truncate_label": null, "human_readable": false, "explicit_size": false, "show_y_labels": true, "x_labels": ["Jan", "Feb", "Mar", "Apr", "May", "Jun", "Jul", "Aug", "Sep", "Oct", "Nov", "Dec"], "inverse_y_axis": false, "x_labels_major_count": null, "show_y_guides": true, "spacing": 10, "xrange": null, "rounded_bars": null, "margin": 20, "interpolation_precision": 250, "title": "Phloen-Chit 52", "stroke_style": null, "no_data_text": "No data", "fill": true, "box_mode": "extremes", "print_labels": false, "interpolate": "cubic", "zero": 0, "show_only_major_dots": false, "truncate_legend": null, "show_minor_x_labels": true, "js": ["//kozea.github.io/pygal.js/2.0.x/pygal-tooltips.min.js"], "x_labels_major_every": null, "legends": ["Phloen-Chit"], "tooltip_fancy_mode": true, "disable_xml_declaration": false, "show_x_guides": false, "print_zeroes": true, "show_legend": true, "legend_at_bottom": false, "y_labels_major_count": null, "secondary_range": null, "margin_bottom": null, "half_pie": false, "height": 600, "range": null, "show_minor_y_labels": true, "defs": [], "css": ["file://style.css", "file://graph.css"], "y_labels": null, "interpolation_parameters": {}, "width": 800, "strict": false, "pretty_print": false, "min_scale": 4, "margin_top": null, "dynamic_print_values": false, "order_min": null, "x_title": null, "margin_left": null, "margin_right": null, "y_labels_major_every": null, "stroke": true, "x_labels_major": null, "missing_value_fill_truncation": "x", "logarithmic": false, "stack_from_top": false, "show_dots": true, "style": {"title_font_size": 16, "title_font_family": "Consolas, \"Liberation Mono\", Menlo, Courier, monospace", "tooltip_font_family": "Consolas, \"Liberation Mono\", Menlo, Courier, monospace", "background": "black", "tooltip_font_size": 14, "opacity_hover": ".4", "value_label_font_size": 10, "opacity": ".8", "no_data_font_family": "Consolas, \"Liberation Mono\", Menlo, Courier, monospace", "label_font_size": 10, "plot_background": "#111", "value_font_size": 16, "value_font_family": "Consolas, \"Liberation Mono\", Menlo, Courier, monospace", "no_data_font_size": 64, "foreground_strong": "#eee", "font_family": "Consolas, \"Liberation Mono\", Menlo, Courier, monospace", "label_font_family": "Consolas, \"Liberation Mono\", Menlo, Courier, monospace", "transition": "250ms", "major_guide_stroke_dasharray": "6,6", "foreground_subtle": "#555", "value_colors": [], "value_label_font_family": "Consolas, \"Liberation Mono\", Menlo, Courier, monospace", "guide_stroke_dasharray": "4,4", "major_label_font_size": 10, "legend_font_family": "Consolas, \"Liberation Mono\", Menlo, Courier, monospace", "major_label_font_family": "Consolas, \"Liberation Mono\", Menlo, Courier, monospace", "foreground": "#999", "colors": ["#ff5995", "#b6e354", "#feed6c", "#8cedff", "#9e6ffe", "#899ca1", "#f8f8f2", "#bf4646", "#516083", "#f92672", "#82b414", "#fd971f", "#56c2d6", "#808384", "#8c54fe", "#465457"], "legend_font_size": 14}, "y_labels_major": null, "x_label_rotation": 0, "max_scale": 16, "value_formatter": null, "dots_size": 2.5, "legend_at_bottom_columns": null, "force_uri_protocol": null, "x_value_formatter": null, "legend_box_size": 12, "include_x_axis": false, "y_label_rotation": 0, "show_x_labels": true, "inner_radius": 0, "no_prefix": false, "tooltip_border_radius": 0, "y_title": null}</script><script type="text/javascript" xlink:href="//kozea.github.io/pygal.js/2.0.x/pygal-tooltips.min.js" /></defs><title>Phloen-Chit 52</title><g class="graph line-graph vertical"><rect class="background" height="600" width="800" x="0" y="0" /><g class="plot" transform="translate(192, 46)"><rect class="background" height="514" width="587.6" x="0" y="0" /><g class="axis y"><path class="line" d="M0.000000 514.000000 h587.600000" /><g class="guides"><path class="guide line" d="M0.000000 498.619955 h587.600000" /><text class="" x="-5" y="502.1199551248906">310000.0</text><title>310000.0</title></g><g class="guides"><path class="guide line" d="M0.000000 463.204351 h587.600000" /><text class="" x="-5" y="466.70435079588515">320000.0</text><title>320000.0</title></g><g class="guides"><path class="guide line" d="M0.000000 427.788746 h587.600000" /><text class="" x="-5" y="431.28874646687973">330000.0</text><title>330000.0</title></g><g class="guides"><path class="guide line" d="M0.000000 392.373142 h587.600000" /><text class="" x="-5" y="395.87314213787425">340000.0</text><title>340000.0</title></g><g class="guides"><path class="major guide line" d="M0.000000 356.957538 h587.600000" /><text class="major" x="-5" y="360.4575378088688">350000.0</text><title>350000.0</title></g><g class="guides"><path class="guide line" d="M0.000000 321.541933 h587.600000" /><text class="" x="-5" y="325.04193347986336">360000.0</text><title>360000.0</title></g><g class="guides"><path class="guide line" d="M0.000000 286.126329 h587.600000" /><text class="" x="-5" y="289.62632915085794">370000.0</text><title>370000.0</title></g><g class="guides"><path class="guide line" d="M0.000000 250.710725 h587.600000" /><text class="" x="-5" y="254.21072482185247">380000.0</text><title>380000.0</title></g><g class="guides"><path class="guide line" d="M0.000000 215.295120 h587.600000" /><text class="" x="-5" y="218.795120492847">390000.0</text><title>390000.0</title></g><g class="guides"><path class="major guide line" d="M0.000000 179.879516 h587.600000" /><text class="major" x="-5" y="183.37951616384157">400000.0</text><title>400000.0</title></g><g class="guides"><path class="guide line" d="M0.000000 144.463912 h587.600000" /><text class="" x="-5" y="147.9639118348361">410000.0</text><title>410000.0</title></g><g class="guides"><path class="guide line" d="M0.000000 109.048308 h587.600000" /><text class="" x="-5" y="112.54830750583068">420000.0</text><title>420000.0</title></g><g class="guides"><path class="guide line" d="M0.000000 73.632703 h587.600000" /><text class="" x="-5" y="77.1327031768252">430000.0</text><title>430000.0</title></g><g class="guides"><path class="guide line" d="M0.000000 38.217099 h587.600000" /><text class="" x="-5" y="41.717098847819784">440000.0</text><title>440000.0</title></g></g><g class="axis x"><g class="guides"><path class="line" d="M11.300000 0.000000 v514.000000" /><text class="" x="11.3" y="529.0">Jan</text></g><g class="guides"><path class="guide line" d="M62.663636 0.000000 v514.000000" /><text class="" x="62.66363636363637" y="529.0">Feb</text></g><g class="guides"><path class="guide line" d="M114.027273 0.000000 v514.000000" /><text class="" x="114.02727272727273" y="529.0">Mar</text></g><g class="guides"><path class="guide line" d="M165.390909 0.000000 v514.000000" /><text class="" x="165.39090909090908" y="529.0">Apr</text></g><g class="guides"><path class="guide line" d="M216.754545 0.000000 v514.000000" /><text class="" x="216.75454545454548" y="529.0">May</text></g><g class="guides"><path class="guide line" d="M268.118182 0.000000 v514.000000" /><text class="" x="268.1181818181818" y="529.0">Jun</text></g><g class="guides"><path class="guide line" d="M319.481818 0.000000 v514.000000" /><text class="" x="319.4818181818182" y="529.0">Jul</text></g><g class="guides"><path class="guide line" d="M370.845455 0.000000 v514.000000" /><text class="" x="370.8454545454546" y="529.0">Aug</text></g><g class="guides"><path class="guide line" d="M422.209091 0.000000 v514.000000" /><text class="" x="422.20909090909095" y="529.0">Sep</text></g><g class="guides"><path class="guide line" d="M473.572727 0.000000 v514.000000" /><text class="" x="473.5727272727273" y="529.0">Oct</text></g><g class="guides"><path class="guide line" d="M524.936364 0.000000 v514.000000" /><text class="" x="524.9363636363636" y="529.0">Nov</text></g><g class="guides"><path class="guide line" d="M576.300000 0.000000 v514.000000" /><text class="" x="576.3000000000001" y="529.0">Dec</text></g></g><g class="series serie-0 color-0"><path class="line reactive" d="M11.300000 514.000000 L11.300000 9.884615 11.505455 12.100581 11.710909 14.316476 11.916364 16.532231 12.121818 18.747777 12.327273 20.963043 12.532727 23.177959 12.738182 25.392455 12.943636 27.606462 13.149091 29.819910 13.354545 32.032728 13.560000 34.244846 13.765455 36.456195 13.970909 38.666705 14.176364 40.876306 14.381818 43.084928 14.587273 45.292501 14.792727 47.498954 14.998182 49.704219 15.203636 51.908225 15.409091 54.110902 15.614545 56.312180 15.820000 58.511989 16.025455 60.710260 16.230909 62.906922 16.436364 65.101906 16.641818 67.295142 16.847273 69.486559 17.052727 71.676087 17.258182 73.863657 17.463636 76.049200 17.669091 78.232644 17.874545 80.413920 18.080000 82.592957 18.285455 84.769687 18.490909 86.944039 18.696364 89.115944 18.901818 91.285330 19.107273 93.452129 19.312727 95.616270 19.518182 97.777683 19.723636 99.936299 19.929091 102.092048 20.134545 104.244859 20.340000 106.394663 20.545455 108.541389 20.750909 110.684969 20.956364 112.825331 21.161818 114.962406 21.367273 117.096124 21.572727 119.226415 21.778182 121.353209 21.983636 123.476436 22.189091 125.596027 22.394545 127.711911 22.600000 129.824018 22.805455 131.932279 23.010909 134.036623 23.216364 136.136980 23.421818 138.233281 23.627273 140.325456 23.832727 142.413435 24.038182 144.497147 24.243636 146.576523 24.449091 148.651493 24.654545 150.721987 24.860000 152.787935 25.065455 154.849268 25.270909 156.905914 25.476364 158.957804 25.681818 161.004869 25.887273 163.047038 26.092727 165.084242 26.298182 167.116410 26.503636 169.143472 26.709091 171.165359 26.914545 173.182001 27.120000 175.193327 27.325455 177.199269 27.530909 179.199755 27.736364 181.194716 27.941818 183.184081 28.147273 185.167782 28.352727 187.145748 28.558182 189.117909 28.763636 191.084196 28.969091 193.044537 29.174545 194.998864 29.380000 196.947106 29.585455 198.889194 29.790909 200.825057 29.996364 202.754626 30.201818 204.677831 30.407273 206.594601 30.612727 208.504867 30.818182 210.408559 31.023636 212.305606 31.229091 214.195940 31.434545 216.079489 31.640000 217.956185 31.845455 219.825957 32.050909 221.688735 32.256364 223.544449 32.461818 225.393030 32.667273 227.234407 32.872727 229.068510 33.078182 230.895270 33.283636 232.714616 33.489091 234.526479 33.694545 236.330789 33.900000 238.127476 34.105455 239.916469 34.310909 241.697699 34.516364 243.471096 34.721818 245.236591 34.927273 246.994112 35.132727 248.743590 35.338182 250.484956 35.543636 252.218138 35.749091 253.943068 35.954545 255.659676 36.160000 257.367891 36.365455 259.067643 36.570909 260.758863 36.776364 262.441481 36.981818 264.115426 37.187273 265.780629 37.392727 267.437019 37.598182 269.084528 37.803636 270.723085 38.009091 272.352619 38.214545 273.973062 38.420000 275.584343 38.625455 277.186391 38.830909 278.779139 39.036364 280.362514 39.241818 281.936448 39.447273 283.500870 39.652727 285.055711 39.858182 286.600900 40.063636 288.136368 40.269091 289.662044 40.474545 291.177860 40.680000 292.683744 40.885455 294.179627 41.090909 295.665438 41.296364 297.141109 41.501818 298.606569 41.707273 300.061748 41.912727 301.506576 42.118182 302.940984 42.323636 304.364900 42.529091 305.778256 42.734545 307.180982 42.940000 308.573007 43.145455 309.954261 43.350909 311.324675 43.556364 312.684179 43.761818 314.032702 43.967273 315.370175 44.172727 316.696528 44.378182 318.011691 44.583636 319.315594 44.789091 320.608167 44.994545 321.889340 45.200000 323.159044 45.405455 324.417207 45.610909 325.663761 45.816364 326.898635 46.021818 328.121759 46.227273 329.333064 46.432727 330.532480 46.638182 331.719936 46.843636 332.895363 47.049091 334.058690 47.254545 335.209848 47.460000 336.348767 47.665455 337.475377 47.870909 338.589608 48.076364 339.691390 48.281818 340.780653 48.487273 341.857327 48.692727 342.921343 48.898182 343.972629 49.103636 345.011117 49.309091 346.036737 49.514545 347.049418 49.720000 348.049090 49.925455 349.035684 50.130909 350.009130 50.336364 350.969357 50.541818 351.916296 50.747273 352.849877 50.952727 353.770030 51.158182 354.676684 51.363636 355.569771 51.569091 356.449220 51.774545 357.314961 51.980000 358.166924 52.185455 359.005040 52.390909 359.829237 52.596364 360.639448 52.801818 361.435600 53.007273 362.217625 53.212727 362.985453 53.418182 363.739013 53.623636 364.478236 53.829091 365.203052 54.034545 365.913391 54.240000 366.609182 54.445455 367.290357 54.650909 367.956844 54.856364 368.608575 55.061818 369.245478 55.267273 369.867485 55.472727 370.474525 55.678182 371.066529 55.883636 371.643426 56.089091 372.205146 56.294545 372.751620 56.500000 373.282777 56.705455 373.798548 56.910909 374.298862 57.116364 374.783651 57.321818 375.252843 57.527273 375.706369 57.732727 376.144159 57.938182 376.566143 58.143636 376.972251 58.349091 377.362413 58.554545 377.736560 58.760000 378.094620 58.965455 378.436525 59.170909 378.762204 59.376364 379.071588 59.581818 379.364606 59.787273 379.641189 59.992727 379.901267 60.198182 380.144769 60.403636 380.371625 60.609091 380.581767 60.814545 380.775123 61.020000 380.951625 61.225455 381.111201 61.430909 381.253783 61.636364 381.379299 61.841818 381.487681 62.047273 381.578858 62.252727 381.652760 62.458182 381.709318 62.663636 381.748461 62.869091 381.770155 63.074545 381.774506 63.280000 381.761655 63.485455 381.731745 63.690909 381.684917 63.896364 381.621312 64.101818 381.541073 64.307273 381.444341 64.512727 381.331256 64.718182 381.201962 64.923636 381.056600 65.129091 380.895311 65.334545 380.718236 65.540000 380.525519 65.745455 380.317299 65.950909 380.093719 66.156364 379.854920 66.361818 379.601045 66.567273 379.332234 66.772727 379.048629 66.978182 378.750372 67.183636 378.437604 67.389091 378.110468 67.594545 377.769104 67.800000 377.413654 68.005455 377.044260 68.210909 376.661064 68.416364 376.264207 68.621818 375.853831 68.827273 375.430077 69.032727 374.993087 69.238182 374.543002 69.443636 374.079965 69.649091 373.604117 69.854545 373.115599 70.060000 372.614553 70.265455 372.101121 70.470909 371.575444 70.676364 371.037664 70.881818 370.487923 71.087273 369.926362 71.292727 369.353122 71.498182 368.768346 71.703636 368.172175 71.909091 367.564750 72.114545 366.946214 72.320000 366.316708 72.525455 365.676373 72.730909 365.025351 72.936364 364.363784 73.141818 363.691813 73.347273 363.009580 73.552727 362.317227 73.758182 361.614894 73.963636 360.902725 74.169091 360.180860 74.374545 359.449441 74.580000 358.708609 74.785455 357.958507 74.990909 357.199276 75.196364 356.431057 75.401818 355.653992 75.607273 354.868223 75.812727 354.073891 76.018182 353.271139 76.223636 352.460106 76.429091 351.640936 76.634545 350.813770 76.840000 349.978749 77.045455 349.136016 77.250909 348.285710 77.456364 347.427976 77.661818 346.562952 77.867273 345.690783 78.072727 344.811609 78.278182 343.925571 78.483636 343.032811 78.689091 342.133472 78.894545 341.227694 79.100000 340.315620 79.305455 339.397390 79.510909 338.473146 79.716364 337.543031 79.921818 336.607185 80.127273 335.665751 80.332727 334.718869 80.538182 333.766682 80.743636 332.809332 80.949091 331.846958 81.154545 330.879705 81.360000 329.907712 81.565455 328.931122 81.770909 327.950075 81.976364 326.964715 82.181818 325.975183 82.387273 324.981619 82.592727 323.984166 82.798182 322.982965 83.003636 321.978158 83.209091 320.969887 83.414545 319.958293 83.620000 318.943517 83.825455 317.925702 84.030909 316.904989 84.236364 315.881520 84.441818 314.855435 84.647273 313.826878 84.852727 312.795989 85.058182 311.762910 85.263636 310.727783 85.469091 309.690749 85.674545 308.651950 85.880000 307.611528 86.085455 306.569624 86.290909 305.526379 86.496364 304.481936 86.701818 303.436436 86.907273 302.390020 87.112727 301.342831 87.318182 300.295010 87.523636 299.246698 87.729091 298.198037 87.934545 297.149169 88.140000 296.100235 88.345455 295.051377 88.550909 294.002737 88.756364 292.954456 88.961818 291.906676 89.167273 290.859538 89.372727 289.813184 89.578182 288.767755 89.783636 287.723394 89.989091 286.680242 90.194545 285.638440 90.400000 284.598131 90.605455 283.559455 90.810909 282.522554 91.016364 281.487571 91.221818 280.454646 91.427273 279.423921 91.632727 278.395538 91.838182 277.369638 92.043636 276.346364 92.249091 275.325856 92.454545 274.308256 92.660000 273.293706 92.865455 272.282348 93.070909 271.274323 93.276364 270.269773 93.481818 269.268838 93.687273 268.271662 93.892727 267.278386 94.098182 266.289150 94.303636 265.304098 94.509091 264.323370 94.714545 263.347108 94.920000 262.375453 95.125455 261.408548 95.330909 260.446534 95.536364 259.489553 95.741818 258.537745 95.947273 257.591253 96.152727 256.650219 96.358182 255.714783 96.563636 254.785089 96.769091 253.861276 96.974545 252.943487 97.180000 252.031864 97.385455 251.126548 97.590909 250.227680 97.796364 249.335403 98.001818 248.449857 98.207273 247.571185 98.412727 246.699529 98.618182 245.835029 98.823636 244.977827 99.029091 244.128066 99.234545 243.285886 99.440000 242.451429 99.645455 241.624837 99.850909 240.806252 100.056364 239.995814 100.261818 239.193667 100.467273 238.399950 100.672727 237.614807 100.878182 236.838378 101.083636 236.070805 101.289091 235.312230 101.494545 234.562795 101.700000 233.822640 101.905455 233.091909 102.110909 232.370741 102.316364 231.659279 102.521818 230.957665 102.727273 230.266040 102.932727 229.584545 103.138182 228.913323 103.343636 228.252515 103.549091 227.602262 103.754545 226.962707 103.960000 226.333990 104.165455 225.716254 104.370909 225.109640 104.576364 224.514289 104.781818 223.930344 104.987273 223.357945 105.192727 222.797235 105.398182 222.248355 105.603636 221.711447 105.809091 221.186652 106.014545 220.674113 106.220000 220.173969 106.425455 219.686364 106.630909 219.211439 106.836364 218.749335 107.041818 218.300194 107.247273 217.864158 107.452727 217.441368 107.658182 217.031966 107.863636 216.636094 108.069091 216.253893 108.274545 215.885504 108.480000 215.531070 108.685455 215.190732 108.890909 214.864631 109.096364 214.552910 109.301818 214.255709 109.507273 213.973171 109.712727 213.705437 109.918182 213.452648 110.123636 213.214947 110.329091 212.992475 110.534545 212.785373 110.740000 212.593783 110.945455 212.417848 111.150909 212.257707 111.356364 212.113504 111.561818 211.985379 111.767273 211.873474 111.972727 211.777931 112.178182 211.698892 112.383636 211.636498 112.589091 211.590890 112.794545 211.562211 113.000000 211.550601 113.205455 211.556204 113.410909 211.579159 113.616364 211.619609 113.821818 211.677696 114.027273 211.753560 114.232727 211.847300 114.438182 211.958839 114.643636 212.088055 114.849091 212.234827 115.054545 212.399034 115.260000 212.580555 115.465455 212.779268 115.670909 212.995053 115.876364 213.227788 116.081818 213.477352 116.287273 213.743623 116.492727 214.026482 116.698182 214.325805 116.903636 214.641473 117.109091 214.973365 117.314545 215.321358 117.520000 215.685332 117.725455 216.065165 117.930909 216.460737 118.136364 216.871926 118.341818 217.298611 118.547273 217.740671 118.752727 218.197985 118.958182 218.670431 119.163636 219.157888 119.369091 219.660236 119.574545 220.177352 119.780000 220.709116 119.985455 221.255407 120.190909 221.816104 120.396364 222.391084 120.601818 222.980228 120.807273 223.583413 121.012727 224.200519 121.218182 224.831425 121.423636 225.476009 121.629091 226.134150 121.834545 226.805728 122.040000 227.490620 122.245455 228.188705 122.450909 228.899863 122.656364 229.623973 122.861818 230.360912 123.067273 231.110560 123.272727 231.872796 123.478182 232.647499 123.683636 233.434547 123.889091 234.233819 124.094545 235.045194 124.300000 235.868551 124.505455 236.703769 124.710909 237.550726 124.916364 238.409302 125.121818 239.279374 125.327273 240.160823 125.532727 241.053526 125.738182 241.957363 125.943636 242.872212 126.149091 243.797952 126.354545 244.734463 126.560000 245.681622 126.765455 246.639309 126.970909 247.607403 127.176364 248.585782 127.381818 249.574325 127.587273 250.572911 127.792727 251.581418 127.998182 252.599727 128.203636 253.627714 128.409091 254.665260 128.614545 255.712243 128.820000 256.768542 129.025455 257.834036 129.230909 258.908603 129.436364 259.992123 129.641818 261.084473 129.847273 262.185534 130.052727 263.295183 130.258182 264.413300 130.463636 265.539764 130.669091 266.674453 130.874545 267.817246 131.080000 268.968022 131.285455 270.126659 131.490909 271.293037 131.696364 272.467035 131.901818 273.648530 132.107273 274.837403 132.312727 276.033532 132.518182 277.236795 132.723636 278.447071 132.929091 279.664240 133.134545 280.888181 133.340000 282.118771 133.545455 283.355889 133.750909 284.599416 133.956364 285.849228 134.161818 287.105206 134.367273 288.367228 134.572727 289.635173 134.778182 290.908920 134.983636 292.188347 135.189091 293.473333 135.394545 294.763758 135.600000 296.059499 135.805455 297.360437 136.010909 298.666449 136.216364 299.977414 136.421818 301.293211 136.627273 302.613720 136.832727 303.938819 137.038182 305.268386 137.243636 306.602301 137.449091 307.940442 137.654545 309.282688 137.860000 310.628918 138.065455 311.979011 138.270909 313.332846 138.476364 314.690301 138.681818 316.051256 138.887273 317.415588 139.092727 318.783178 139.298182 320.153903 139.503636 321.527643 139.709091 322.904276 139.914545 324.283681 140.120000 325.665738 140.325455 327.050324 140.530909 328.437319 140.736364 329.826601 140.941818 331.218050 141.147273 332.611544 141.352727 334.006961 141.558182 335.404182 141.763636 336.803084 141.969091 338.203546 142.174545 339.605448 142.380000 341.008668 142.585455 342.413084 142.790909 343.818577 142.996364 345.225023 143.201818 346.632303 143.407273 348.040296 143.612727 349.448879 143.818182 350.857932 144.023636 352.267334 144.229091 353.676963 144.434545 355.086698 144.640000 356.496418 144.845455 357.906003 145.050909 359.315330 145.256364 360.724278 145.461818 362.132727 145.667273 363.540555 145.872727 364.947641 146.078182 366.353864 146.283636 367.759103 146.489091 369.163236 146.694545 370.566142 146.900000 371.967700 147.105455 373.367790 147.310909 374.766289 147.516364 376.163076 147.721818 377.558031 147.927273 378.951032 148.132727 380.341958 148.338182 381.730688 148.543636 383.117101 148.749091 384.501075 148.954545 385.882490 149.160000 387.261223 149.365455 388.637155 149.570909 390.010163 149.776364 391.380127 149.981818 392.746926 150.187273 394.110437 150.392727 395.470541 150.598182 396.827115 150.803636 398.180039 151.009091 399.529192 151.214545 400.874452 151.420000 402.215698 151.625455 403.552809 151.830909 404.885664 152.036364 406.214142 152.241818 407.538121 152.447273 408.857480 152.652727 410.172098 152.858182 411.481855 153.063636 412.786627 153.269091 414.086296 153.474545 415.380739 153.680000 416.669835 153.885455 417.953463 154.090909 419.231502 154.296364 420.503830 154.501818 421.770327 154.707273 423.030871 154.912727 424.285341 155.118182 425.533617 155.323636 426.775576 155.529091 428.011097 155.734545 429.240060 155.940000 430.462343 156.145455 431.677825 156.350909 432.886386 156.556364 434.087902 156.761818 435.282254 156.967273 436.469321 157.172727 437.648980 157.378182 438.821112 157.583636 439.985594 157.789091 441.142306 157.994545 442.291127 158.200000 443.431934 158.405455 444.564608 158.610909 445.689026 158.816364 446.805069 159.021818 447.912613 159.227273 449.011539 159.432727 450.101726 159.638182 451.183051 159.843636 452.255394 160.049091 453.318633 160.254545 454.372648 160.460000 455.417318 160.665455 456.452520 160.870909 457.478134 161.076364 458.494039 161.281818 459.500114 161.487273 460.496237 161.692727 461.482287 161.898182 462.458143 162.103636 463.423684 162.309091 464.378788 162.514545 465.323335 162.720000 466.257204 162.925455 467.180272 163.130909 468.092420 163.336364 468.993525 163.541818 469.883466 163.747273 470.762123 163.952727 471.629375 164.158182 472.485099 164.363636 473.329175 164.569091 474.161482 164.774545 474.981898 164.980000 475.790303 165.185455 476.586575 165.390909 477.370593 165.596364 478.142263 165.801818 478.901603 166.007273 479.648659 166.212727 480.383475 166.418182 481.106097 166.623636 481.816570 166.829091 482.514940 167.034545 483.201251 167.240000 483.875549 167.445455 484.537879 167.650909 485.188287 167.856364 485.826818 168.061818 486.453516 168.267273 487.068428 168.472727 487.671599 168.678182 488.263073 168.883636 488.842896 169.089091 489.411114 169.294545 489.967772 169.500000 490.512914 169.705455 491.046586 169.910909 491.568834 170.116364 492.079703 170.321818 492.579237 170.527273 493.067483 170.732727 493.544486 170.938182 494.010290 171.143636 494.464941 171.349091 494.908484 171.554545 495.340966 171.760000 495.762430 171.965455 496.172922 172.170909 496.572487 172.376364 496.961172 172.581818 497.339020 172.787273 497.706077 172.992727 498.062389 173.198182 498.408001 173.403636 498.742958 173.609091 499.067305 173.814545 499.381087 174.020000 499.684351 174.225455 499.977140 174.430909 500.259501 174.636364 500.531479 174.841818 500.793118 175.047273 501.044465 175.252727 501.285564 175.458182 501.516461 175.663636 501.737201 175.869091 501.947829 176.074545 502.148391 176.280000 502.338931 176.485455 502.519496 176.690909 502.690130 176.896364 502.850879 177.101818 503.001787 177.307273 503.142901 177.512727 503.274265 177.718182 503.395925 177.923636 503.507925 178.129091 503.610312 178.334545 503.703131 178.540000 503.786426 178.745455 503.860243 178.950909 503.924628 179.156364 503.979625 179.361818 504.025280 179.567273 504.061638 179.772727 504.088745 179.978182 504.106645 180.183636 504.115385 180.389091 504.115008 180.594545 504.105561 180.800000 504.087089 181.005455 504.059636 181.210909 504.023249 181.416364 503.977973 181.621818 503.923852 181.827273 503.860933 182.032727 503.789259 182.238182 503.708878 182.443636 503.619833 182.649091 503.522171 182.854545 503.415936 183.060000 503.301174 183.265455 503.177929 183.470909 503.046248 183.676364 502.906176 183.881818 502.757757 184.087273 502.601037 184.292727 502.436062 184.498182 502.262877 184.703636 502.081526 184.909091 501.892055 185.114545 501.694510 185.320000 501.488935 185.525455 501.275377 185.730909 501.053879 185.936364 500.824488 186.141818 500.587249 186.347273 500.342207 186.552727 500.089408 186.758182 499.828895 186.963636 499.560716 187.169091 499.284915 187.374545 499.001537 187.580000 498.710628 187.785455 498.412233 187.990909 498.106396 188.196364 497.793165 188.401818 497.472583 188.607273 497.144696 188.812727 496.809550 189.018182 496.467189 189.223636 496.117658 189.429091 495.761004 189.634545 495.397272 189.840000 495.026505 190.045455 494.648751 190.250909 494.264054 190.456364 493.872460 190.661818 493.474013 190.867273 493.068759 191.072727 492.656743 191.278182 492.238011 191.483636 491.812607 191.689091 491.380578 191.894545 490.941968 192.100000 490.496823 192.305455 490.045187 192.510909 489.587107 192.716364 489.122627 192.921818 488.651792 193.127273 488.174649 193.332727 487.691242 193.538182 487.201616 193.743636 486.705817 193.949091 486.203890 194.154545 485.695880 194.360000 485.181833 194.565455 484.661794 194.770909 484.135808 194.976364 483.603920 195.181818 483.066176 195.387273 482.522621 195.592727 481.973300 195.798182 481.418258 196.003636 480.857541 196.209091 480.291195 196.414545 479.719263 196.620000 479.141792 196.825455 478.558827 197.030909 477.970413 197.236364 477.376595 197.441818 476.777419 197.647273 476.172929 197.852727 475.563172 198.058182 474.948192 198.263636 474.328035 198.469091 473.702746 198.674545 473.072370 198.880000 472.436953 199.085455 471.796539 199.290909 471.151175 199.496364 470.500905 199.701818 469.845774 199.907273 469.185828 200.112727 468.521112 200.318182 467.851672 200.523636 467.177553 200.729091 466.498799 200.934545 465.815456 201.140000 465.127570 201.345455 464.435186 201.550909 463.738349 201.756364 463.037104 201.961818 462.331496 202.167273 461.621572 202.372727 460.907375 202.578182 460.188952 202.783636 459.466348 202.989091 458.739607 203.194545 458.008775 203.400000 457.273898 203.605455 456.535021 203.810909 455.792189 204.016364 455.045447 204.221818 454.294840 204.427273 453.540414 204.632727 452.782215 204.838182 452.020286 205.043636 451.254675 205.249091 450.485425 205.454545 449.712582 205.660000 448.936192 205.865455 448.156299 206.070909 447.372949 206.276364 446.586188 206.481818 445.796060 206.687273 445.002610 206.892727 444.205885 207.098182 443.405929 207.303636 442.602788 207.509091 441.796506 207.714545 440.987130 207.920000 440.174704 208.125455 439.359274 208.330909 438.540884 208.536364 437.719581 208.741818 436.895409 208.947273 436.068414 209.152727 435.238641 209.358182 434.406135 209.563636 433.570942 209.769091 432.733106 209.974545 431.892674 210.180000 431.049690 210.385455 430.204199 210.590909 429.356248 210.796364 428.505881 211.001818 427.653143 211.207273 426.798079 211.412727 425.940736 211.618182 425.081158 211.823636 424.219390 212.029091 423.355479 212.234545 422.489468 212.440000 421.621404 212.645455 420.751331 212.850909 419.879295 213.056364 419.005341 213.261818 418.129515 213.467273 417.251861 213.672727 416.372425 213.878182 415.491252 214.083636 414.608388 214.289091 413.723878 214.494545 412.837766 214.700000 411.950099 214.905455 411.060922 215.110909 410.170279 215.316364 409.278216 215.521818 408.384779 215.727273 407.490013 215.932727 406.593962 216.138182 405.696672 216.343636 404.798189 216.549091 403.898558 216.754545 402.997823 216.960000 402.096029 217.165455 401.193208 217.370909 400.289392 217.576364 399.384611 217.781818 398.478898 217.987273 397.572283 218.192727 396.664798 218.398182 395.756473 218.603636 394.847340 218.809091 393.937431 219.014545 393.026776 219.220000 392.115407 219.425455 391.203354 219.630909 390.290650 219.836364 389.377325 220.041818 388.463410 220.247273 387.548937 220.452727 386.633937 220.658182 385.718441 220.863636 384.802481 221.069091 383.886087 221.274545 382.969291 221.480000 382.052124 221.685455 381.134618 221.890909 380.216802 222.096364 379.298710 222.301818 378.380371 222.507273 377.461818 222.712727 376.543080 222.918182 375.624191 223.123636 374.705180 223.329091 373.786079 223.534545 372.866919 223.740000 371.947732 223.945455 371.028548 224.150909 370.109399 224.356364 369.190316 224.561818 368.271331 224.767273 367.352474 224.972727 366.433777 225.178182 365.515270 225.383636 364.596986 225.589091 363.678955 225.794545 362.761209 226.000000 361.843779 226.205455 360.926695 226.410909 360.009990 226.616364 359.093694 226.821818 358.177839 227.027273 357.262456 227.232727 356.347576 227.438182 355.433230 227.643636 354.519450 227.849091 353.606267 228.054545 352.693711 228.260000 351.781815 228.465455 350.870609 228.670909 349.960125 228.876364 349.050393 229.081818 348.141446 229.287273 347.233314 229.492727 346.326028 229.698182 345.419620 229.903636 344.514122 230.109091 343.609563 230.314545 342.705975 230.520000 341.803390 230.725455 340.901839 230.930909 340.001353 231.136364 339.101963 231.341818 338.203701 231.547273 337.306597 231.752727 336.410683 231.958182 335.515990 232.163636 334.622550 232.369091 333.730393 232.574545 332.839551 232.780000 331.950055 232.985455 331.061936 233.190909 330.175225 233.396364 329.289954 233.601818 328.406154 233.807273 327.523855 234.012727 326.643091 234.218182 325.763890 234.423636 324.886285 234.629091 324.010308 234.834545 323.135988 235.040000 322.263358 235.245455 321.392448 235.450909 320.523290 235.656364 319.655915 235.861818 318.790354 236.067273 317.926639 236.272727 317.064800 236.478182 316.204869 236.683636 315.346878 236.889091 314.490856 237.094545 313.636836 237.300000 312.784849 237.505455 311.934926 237.710909 311.087098 237.916364 310.241396 238.121818 309.397852 238.327273 308.556497 238.532727 307.717362 238.738182 306.880478 238.943636 306.045876 239.149091 305.213588 239.354545 304.383645 239.560000 303.556079 239.765455 302.730919 239.970909 301.908198 240.176364 301.087947 240.381818 300.270197 240.587273 299.454979 240.792727 298.642325 240.998182 297.832265 241.203636 297.024831 241.409091 296.220054 241.614545 295.417966 241.820000 294.618596 242.025455 293.821978 242.230909 293.028142 242.436364 292.237118 242.641818 291.448939 242.847273 290.663636 243.052727 289.881240 243.258182 289.101781 243.463636 288.325292 243.669091 287.551803 243.874545 286.781346 244.080000 286.013952 244.285455 285.249652 244.490909 284.488477 244.696364 283.730459 244.901818 282.975629 245.107273 282.224017 245.312727 281.475656 245.518182 280.730576 245.723636 279.988809 245.929091 279.250386 246.134545 278.515337 246.340000 277.783695 246.545455 277.055491 246.750909 276.330755 246.956364 275.609519 247.161818 274.891814 247.367273 274.177672 247.572727 273.467123 247.778182 272.760199 247.983636 272.056931 248.189091 271.357351 248.394545 270.661488 248.600000 269.969376 248.805455 269.281044 249.010909 268.596525 249.216364 267.915848 249.421818 267.239047 249.627273 266.566151 249.832727 265.897192 250.038182 265.232201 250.243636 264.571209 250.449091 263.914249 250.654545 263.261350 250.860000 262.612544 251.065455 261.967862 251.270909 261.327336 251.476364 260.690997 251.681818 260.058875 251.887273 259.431003 252.092727 258.807411 252.298182 258.188130 252.503636 257.573193 252.709091 256.962629 252.914545 256.356471 253.120000 255.754749 253.325455 255.157494 253.530909 254.564739 253.736364 253.976513 253.941818 253.392849 254.147273 252.813778 254.352727 252.239330 254.558182 251.669537 254.763636 251.104431 254.969091 250.544042 255.174545 249.988401 255.380000 249.437540 255.585455 248.891490 255.790909 248.350283 255.996364 247.813949 256.201818 247.282520 256.407273 246.756026 256.612727 246.234500 256.818182 245.717972 257.023636 245.206474 257.229091 244.700036 257.434545 244.198691 257.640000 243.702468 257.845455 243.211400 258.050909 242.725518 258.256364 242.244853 258.461818 241.769435 258.667273 241.299297 258.872727 240.834470 259.078182 240.374984 259.283636 239.920871 259.489091 239.472163 259.694545 239.028890 259.900000 238.591083 260.105455 238.158774 260.310909 237.731994 260.516364 237.310775 260.721818 236.895147 260.927273 236.485141 261.132727 236.080790 261.338182 235.682123 261.543636 235.289173 261.749091 234.901971 261.954545 234.520547 262.160000 234.144934 262.365455 233.775161 262.570909 233.411261 262.776364 233.053265 262.981818 232.701203 263.187273 232.355107 263.392727 232.015009 263.598182 231.680940 263.803636 231.352930 264.009091 231.031011 264.214545 230.715214 264.420000 230.405570 264.625455 230.102111 264.830909 229.804868 265.036364 229.513872 265.241818 229.229154 265.447273 228.950746 265.652727 228.678678 265.858182 228.412982 266.063636 228.153690 266.269091 227.900831 266.474545 227.654439 266.680000 227.414543 266.885455 227.181174 267.090909 226.954366 267.296364 226.734147 267.501818 226.520550 267.707273 226.313606 267.912727 226.113346 268.118182 225.919802 268.323636 225.732991 268.529091 225.552885 268.734545 225.379441 268.940000 225.212616 269.145455 225.052369 269.350909 224.898656 269.556364 224.751437 269.761818 224.610667 269.967273 224.476306 270.172727 224.348311 270.378182 224.226639 270.583636 224.111248 270.789091 224.002096 270.994545 223.899140 271.200000 223.802339 271.405455 223.711650 271.610909 223.627031 271.816364 223.548439 272.021818 223.475832 272.227273 223.409167 272.432727 223.348404 272.638182 223.293498 272.843636 223.244408 273.049091 223.201092 273.254545 223.163507 273.460000 223.131611 273.665455 223.105362 273.870909 223.084717 274.076364 223.069634 274.281818 223.060071 274.487273 223.055985 274.692727 223.057335 274.898182 223.064077 275.103636 223.076170 275.309091 223.093571 275.514545 223.116238 275.720000 223.144129 275.925455 223.177201 276.130909 223.215412 276.336364 223.258719 276.541818 223.307082 276.747273 223.360456 276.952727 223.418800 277.158182 223.482072 277.363636 223.550229 277.569091 223.623228 277.774545 223.701029 277.980000 223.783588 278.185455 223.870863 278.390909 223.962811 278.596364 224.059391 278.801818 224.160560 279.007273 224.266276 279.212727 224.376496 279.418182 224.491179 279.623636 224.610281 279.829091 224.733761 280.034545 224.861577 280.240000 224.993685 280.445455 225.130044 280.650909 225.270612 280.856364 225.415345 281.061818 225.564203 281.267273 225.717142 281.472727 225.874120 281.678182 226.035095 281.883636 226.200024 282.089091 226.368866 282.294545 226.541578 282.500000 226.718118 282.705455 226.898443 282.910909 227.082511 283.116364 227.270279 283.321818 227.461707 283.527273 227.656750 283.732727 227.855367 283.938182 228.057516 284.143636 228.263154 284.349091 228.472240 284.554545 228.684729 284.760000 228.900581 284.965455 229.119754 285.170909 229.342204 285.376364 229.567889 285.581818 229.796768 285.787273 230.028797 285.992727 230.263935 286.198182 230.502140 286.403636 230.743368 286.609091 230.987578 286.814545 231.234727 287.020000 231.484773 287.225455 231.737674 287.430909 231.993388 287.636364 232.251871 287.841818 232.513083 288.047273 232.776980 288.252727 233.043520 288.458182 233.312661 288.663636 233.584361 288.869091 233.858577 289.074545 234.135267 289.280000 234.414389 289.485455 234.695901 289.690909 234.979759 289.896364 235.265923 290.101818 235.554348 290.307273 235.844994 290.512727 236.137818 290.718182 236.432778 290.923636 236.729831 291.129091 237.028935 291.334545 237.330047 291.540000 237.633127 291.745455 237.938130 291.950909 238.245015 292.156364 238.553739 292.361818 238.864261 292.567273 239.176537 292.772727 239.490527 292.978182 239.806186 293.183636 240.123474 293.389091 240.442347 293.594545 240.762764 293.800000 241.084681 294.005455 241.408058 294.210909 241.732851 294.416364 242.059018 294.621818 242.386517 294.827273 242.715306 295.032727 243.045341 295.238182 243.376582 295.443636 243.708986 295.649091 244.042510 295.854545 244.377112 296.060000 244.712750 296.265455 245.049381 296.470909 245.386964 296.676364 245.725455 296.881818 246.064813 297.087273 246.404995 297.292727 246.745959 297.498182 247.087663 297.703636 247.430064 297.909091 247.773121 298.114545 248.116790 298.320000 248.461029 298.525455 248.805797 298.730909 249.151050 298.936364 249.496747 299.141818 249.842845 299.347273 250.189303 299.552727 250.536077 299.758182 250.883125 299.963636 251.230405 300.169091 251.577875 300.374545 251.925493 300.580000 252.273215 300.785455 252.621001 300.990909 252.968807 301.196364 253.316591 301.401818 253.664311 301.607273 254.011925 301.812727 254.359390 302.018182 254.706664 302.223636 255.053705 302.429091 255.400470 302.634545 255.746918 302.840000 256.093005 303.045455 256.438690 303.250909 256.783930 303.456364 257.128683 303.661818 257.472906 303.867273 257.816558 304.072727 258.159596 304.278182 258.501978 304.483636 258.843661 304.689091 259.184603 304.894545 259.524762 305.100000 259.864095 305.305455 260.202561 305.510909 260.540116 305.716364 260.876719 305.921818 261.212328 306.127273 261.546899 306.332727 261.880391 306.538182 262.212762 306.743636 262.543968 306.949091 262.873969 307.154545 263.202720 307.360000 263.530181 307.565455 263.856309 307.770909 264.181062 307.976364 264.504397 308.181818 264.826271 308.387273 265.146644 308.592727 265.465472 308.798182 265.782713 309.003636 266.098324 309.209091 266.412265 309.414545 266.724491 309.620000 267.034961 309.825455 267.343633 310.030909 267.650464 310.236364 267.955412 310.441818 268.258434 310.647273 268.559490 310.852727 268.858535 311.058182 269.155527 311.263636 269.450426 311.469091 269.743187 311.674545 270.033769 311.880000 270.322130 312.085455 270.608227 312.290909 270.892018 312.496364 271.173461 312.701818 271.452513 312.907273 271.729132 313.112727 272.003276 313.318182 272.274902 313.523636 272.543969 313.729091 272.810433 313.934545 273.074253 314.140000 273.335386 314.345455 273.593790 314.550909 273.849422 314.756364 274.102241 314.961818 274.352204 315.167273 274.599269 315.372727 274.843393 315.578182 275.084534 315.783636 275.322650 315.989091 275.557698 316.194545 275.789637 316.400000 276.018424 316.605455 276.244016 316.810909 276.466372 317.016364 276.685448 317.221818 276.901204 317.427273 277.113595 317.632727 277.322581 317.838182 277.528119 318.043636 277.730166 318.249091 277.928680 318.454545 278.123619 318.660000 278.314941 318.865455 278.502603 319.070909 278.686563 319.276364 278.866779 319.481818 279.043208 319.687273 279.215818 319.892727 279.384617 320.098182 279.549620 320.303636 279.710845 320.509091 279.868309 320.714545 280.022029 320.920000 280.172022 321.125455 280.318304 321.330909 280.460893 321.536364 280.599806 321.741818 280.735059 321.947273 280.866670 322.152727 280.994656 322.358182 281.119033 322.563636 281.239819 322.769091 281.357029 322.974545 281.470683 323.180000 281.580795 323.385455 281.687384 323.590909 281.790466 323.796364 281.890058 324.001818 281.986177 324.207273 282.078840 324.412727 282.168065 324.618182 282.253867 324.823636 282.336264 325.029091 282.415273 325.234545 282.490911 325.440000 282.563195 325.645455 282.632141 325.850909 282.697767 326.056364 282.760090 326.261818 282.819126 326.467273 282.874893 326.672727 282.927407 326.878182 282.976686 327.083636 283.022746 327.289091 283.065605 327.494545 283.105278 327.700000 283.141784 327.905455 283.175140 328.110909 283.205361 328.316364 283.232466 328.521818 283.256471 328.727273 283.277392 328.932727 283.295248 329.138182 283.310055 329.343636 283.321829 329.549091 283.330589 329.754545 283.336350 329.960000 283.339130 330.165455 283.338945 330.370909 283.335814 330.576364 283.329752 330.781818 283.320776 330.987273 283.308904 331.192727 283.294152 331.398182 283.276538 331.603636 283.256078 331.809091 283.232790 332.014545 283.206690 332.220000 283.177795 332.425455 283.146122 332.630909 283.111689 332.836364 283.074511 333.041818 283.034607 333.247273 282.991992 333.452727 282.946685 333.658182 282.898701 333.863636 282.848058 334.069091 282.794773 334.274545 282.738863 334.480000 282.680345 334.685455 282.619235 334.890909 282.555551 335.096364 282.489309 335.301818 282.420527 335.507273 282.349222 335.712727 282.275410 335.918182 282.199108 336.123636 282.120334 336.329091 282.039104 336.534545 281.955435 336.740000 281.869344 336.945455 281.780849 337.150909 281.689966 337.356364 281.596711 337.561818 281.501103 337.767273 281.403158 337.972727 281.302892 338.178182 281.200324 338.383636 281.095469 338.589091 280.988345 338.794545 280.878969 339.000000 280.767358 339.205455 280.653528 339.410909 280.537497 339.616364 280.419281 339.821818 280.298898 340.027273 280.176365 340.232727 280.051697 340.438182 279.924913 340.643636 279.796030 340.849091 279.665063 341.054545 279.532031 341.260000 279.396950 341.465455 279.259838 341.670909 279.120710 341.876364 278.979584 342.081818 278.836478 342.287273 278.691407 342.492727 278.544389 342.698182 278.395441 342.903636 278.244580 343.109091 278.091822 343.314545 277.937186 343.520000 277.780687 343.725455 277.622342 343.930909 277.462169 344.136364 277.300185 344.341818 277.136406 344.547273 276.970850 344.752727 276.803532 344.958182 276.634472 345.163636 276.463684 345.369091 276.291187 345.574545 276.116997 345.780000 275.941131 345.985455 275.763606 346.190909 275.584440 346.396364 275.403648 346.601818 275.221248 346.807273 275.037257 347.012727 274.851692 347.218182 274.664570 347.423636 274.475908 347.629091 274.285722 347.834545 274.094030 348.040000 273.900849 348.245455 273.706195 348.450909 273.510086 348.656364 273.312538 348.861818 273.113569 349.067273 272.913195 349.272727 272.711433 349.478182 272.508301 349.683636 272.303815 349.889091 272.097992 350.094545 271.890850 350.300000 271.682404 350.505455 271.472673 350.710909 271.261672 350.916364 271.049420 351.121818 270.835932 351.327273 270.621227 351.532727 270.405320 351.738182 270.188229 351.943636 269.969971 352.149091 269.750562 352.354545 269.530020 352.560000 269.308362 352.765455 269.085604 352.970909 268.861764 353.176364 268.636858 353.381818 268.410904 353.587273 268.183918 353.792727 267.955917 353.998182 267.726919 354.203636 267.496940 354.409091 267.265997 354.614545 267.034107 354.820000 266.801287 355.025455 266.567555 355.230909 266.332926 355.436364 266.097418 355.641818 265.861048 355.847273 265.623833 356.052727 265.385790 356.258182 265.146936 356.463636 264.907287 356.669091 264.666861 356.874545 264.425674 357.080000 264.183745 357.285455 263.941088 357.490909 263.697722 357.696364 263.453664 357.901818 263.208930 358.107273 262.963537 358.312727 262.717503 358.518182 262.470844 358.723636 262.223577 358.929091 261.975719 359.134545 261.727287 359.340000 261.478299 359.545455 261.228770 359.750909 260.978718 359.956364 260.728160 360.161818 260.477114 360.367273 260.225595 360.572727 259.973620 360.778182 259.721208 360.983636 259.468374 361.189091 259.215136 361.394545 258.961510 361.600000 258.707514 361.805455 258.453164 362.010909 258.198478 362.216364 257.943472 362.421818 257.688164 362.627273 257.432570 362.832727 257.176707 363.038182 256.920593 363.243636 256.664243 363.449091 256.407676 363.654545 256.150908 363.860000 255.893955 364.065455 255.636836 364.270909 255.379567 364.476364 255.122165 364.681818 254.864646 364.887273 254.607028 365.092727 254.349328 365.298182 254.091563 365.503636 253.833749 365.709091 253.575904 365.914545 253.318045 366.120000 253.060188 366.325455 252.802350 366.530909 252.544549 366.736364 252.286802 366.941818 252.029124 367.147273 251.771534 367.352727 251.514048 367.558182 251.256684 367.763636 250.999457 367.969091 250.742386 368.174545 250.485486 368.380000 250.228776 368.585455 249.972272 368.790909 249.715990 368.996364 249.459948 369.201818 249.204164 369.407273 248.948652 369.612727 248.693432 369.818182 248.438519 370.023636 248.183931 370.229091 247.929685 370.434545 247.675797 370.640000 247.422284 370.845455 247.169164 371.050909 246.916452 371.256364 246.664153 371.461818 246.412272 371.667273 246.160814 371.872727 245.909783 372.078182 245.659183 372.283636 245.409019 372.489091 245.159296 372.694545 244.910017 372.900000 244.661187 373.105455 244.412811 373.310909 244.164892 373.516364 243.917436 373.721818 243.670446 373.927273 243.423928 374.132727 243.177885 374.338182 242.932322 374.543636 242.687243 374.749091 242.442654 374.954545 242.198557 375.160000 241.954958 375.365455 241.711860 375.570909 241.469269 375.776364 241.227189 375.981818 240.985624 376.187273 240.744579 376.392727 240.504058 376.598182 240.264065 376.803636 240.024604 377.009091 239.785681 377.214545 239.547300 377.420000 239.309465 377.625455 239.072180 377.830909 238.835450 378.036364 238.599279 378.241818 238.363672 378.447273 238.128633 378.652727 237.894167 378.858182 237.660277 379.063636 237.426969 379.269091 237.194246 379.474545 236.962114 379.680000 236.730576 379.885455 236.499637 380.090909 236.269301 380.296364 236.039573 380.501818 235.810458 380.707273 235.581958 380.912727 235.354080 381.118182 235.126827 381.323636 234.900204 381.529091 234.674215 381.734545 234.448865 381.940000 234.224158 382.145455 234.000098 382.350909 233.776690 382.556364 233.553938 382.761818 233.331847 382.967273 233.110421 383.172727 232.889664 383.378182 232.669581 383.583636 232.450177 383.789091 232.231455 383.994545 232.013420 384.200000 231.796077 384.405455 231.579430 384.610909 231.363483 384.816364 231.148240 385.021818 230.933707 385.227273 230.719888 385.432727 230.506786 385.638182 230.294407 385.843636 230.082754 386.049091 229.871833 386.254545 229.661647 386.460000 229.452201 386.665455 229.243500 386.870909 229.035547 387.076364 228.828347 387.281818 228.621906 387.487273 228.416226 387.692727 228.211312 387.898182 228.007170 388.103636 227.803802 388.309091 227.601215 388.514545 227.399411 388.720000 227.198396 388.925455 226.998174 389.130909 226.798749 389.336364 226.600126 389.541818 226.402309 389.747273 226.205302 389.952727 226.009110 390.158182 225.813738 390.363636 225.619189 390.569091 225.425469 390.774545 225.232581 390.980000 225.040530 391.185455 224.849320 391.390909 224.658956 391.596364 224.469442 391.801818 224.280783 392.007273 224.092983 392.212727 223.906046 392.418182 223.719978 392.623636 223.534781 392.829091 223.350461 393.034545 223.167022 393.240000 222.984468 393.445455 222.802805 393.650909 222.622035 393.856364 222.442164 394.061818 222.263197 394.267273 222.085136 394.472727 221.907988 394.678182 221.731756 394.883636 221.556445 395.089091 221.382058 395.294545 221.208602 395.500000 221.036079 395.705455 220.864495 395.910909 220.693853 396.116364 220.524158 396.321818 220.355415 396.527273 220.187628 396.732727 220.020802 396.938182 219.854940 397.143636 219.690047 397.349091 219.526128 397.554545 219.363187 397.760000 219.201229 397.965455 219.040257 398.170909 218.880276 398.376364 218.721291 398.581818 218.563307 398.787273 218.406326 398.992727 218.250355 399.198182 218.095396 399.403636 217.941456 399.609091 217.788537 399.814545 217.636645 400.020000 217.485784 400.225455 217.335958 400.430909 217.187172 400.636364 217.039430 400.841818 216.892737 401.047273 216.747097 401.252727 216.602513 401.458182 216.458992 401.663636 216.316537 401.869091 216.175152 402.074545 216.034843 402.280000 215.895612 402.485455 215.757466 402.690909 215.620408 402.896364 215.484442 403.101818 215.349574 403.307273 215.215807 403.512727 215.083145 403.718182 214.951594 403.923636 214.821158 404.129091 214.691840 404.334545 214.563646 404.540000 214.436580 404.745455 214.310647 404.950909 214.185850 405.156364 214.062194 405.361818 213.939683 405.567273 213.818323 405.772727 213.698117 405.978182 213.579069 406.183636 213.461185 406.389091 213.344468 406.594545 213.228923 406.800000 213.114555 407.005455 213.001367 407.210909 212.889365 407.416364 212.778552 407.621818 212.668933 407.827273 212.560513 408.032727 212.453295 408.238182 212.347285 408.443636 212.242486 408.649091 212.138903 408.854545 212.036541 409.060000 211.935403 409.265455 211.835495 409.470909 211.736820 409.676364 211.639384 409.881818 211.543190 410.087273 211.448243 410.292727 211.354547 410.498182 211.262107 410.703636 211.170927 410.909091 211.081011 411.114545 210.992365 411.320000 210.904992 411.525455 210.818896 411.730909 210.734083 411.936364 210.650556 412.141818 210.568320 412.347273 210.487380 412.552727 210.407739 412.758182 210.329403 412.963636 210.252375 413.169091 210.176660 413.374545 210.102263 413.580000 210.029187 413.785455 209.957438 413.990909 209.887019 414.196364 209.817936 414.401818 209.750191 414.607273 209.683791 414.812727 209.618739 415.018182 209.555040 415.223636 209.492697 415.429091 209.431717 415.634545 209.372102 415.840000 209.313857 416.045455 209.256987 416.250909 209.201497 416.456364 209.147389 416.661818 209.094670 416.867273 209.043343 417.072727 208.993413 417.278182 208.944884 417.483636 208.897761 417.689091 208.852047 417.894545 208.807748 418.100000 208.764868 418.305455 208.723411 418.510909 208.683382 418.716364 208.644784 418.921818 208.607623 419.127273 208.571903 419.332727 208.537628 419.538182 208.504803 419.743636 208.473432 419.949091 208.443519 420.154545 208.415070 420.360000 208.388087 420.565455 208.362576 420.770909 208.338542 420.976364 208.315987 421.181818 208.294918 421.387273 208.275338 421.592727 208.257252 421.798182 208.240664 422.003636 208.225578 422.209091 208.212000 422.414545 208.199929 422.620000 208.189353 422.825455 208.180254 423.030909 208.172616 423.236364 208.166421 423.441818 208.161654 423.647273 208.158296 423.852727 208.156332 424.058182 208.155743 424.263636 208.156514 424.469091 208.158627 424.674545 208.162065 424.880000 208.166812 425.085455 208.172851 425.290909 208.180164 425.496364 208.188735 425.701818 208.198547 425.907273 208.209583 426.112727 208.221826 426.318182 208.235259 426.523636 208.249866 426.729091 208.265628 426.934545 208.282531 427.140000 208.300555 427.345455 208.319686 427.550909 208.339905 427.756364 208.361196 427.961818 208.383542 428.167273 208.406925 428.372727 208.431330 428.578182 208.456740 428.783636 208.483136 428.989091 208.510503 429.194545 208.538823 429.400000 208.568080 429.605455 208.598257 429.810909 208.629336 430.016364 208.661302 430.221818 208.694136 430.427273 208.727822 430.632727 208.762344 430.838182 208.797683 431.043636 208.833824 431.249091 208.870750 431.454545 208.908443 431.660000 208.946886 431.865455 208.986064 432.070909 209.025958 432.276364 209.066552 432.481818 209.107829 432.687273 209.149772 432.892727 209.192365 433.098182 209.235589 433.303636 209.279429 433.509091 209.323868 433.714545 209.368888 433.920000 209.414473 434.125455 209.460605 434.330909 209.507269 434.536364 209.554446 434.741818 209.602120 434.947273 209.650275 435.152727 209.698893 435.358182 209.747957 435.563636 209.797450 435.769091 209.847356 435.974545 209.897658 436.180000 209.948338 436.385455 209.999380 436.590909 210.050767 436.796364 210.102482 437.001818 210.154509 437.207273 210.206829 437.412727 210.259426 437.618182 210.312284 437.823636 210.365386 438.029091 210.418714 438.234545 210.472252 438.440000 210.525982 438.645455 210.579888 438.850909 210.633953 439.056364 210.688161 439.261818 210.742493 439.467273 210.796934 439.672727 210.851465 439.878182 210.906072 440.083636 210.960736 440.289091 211.015440 440.494545 211.070168 440.700000 211.124903 440.905455 211.179628 441.110909 211.234326 441.316364 211.288979 441.521818 211.343572 441.727273 211.398088 441.932727 211.452508 442.138182 211.506817 442.343636 211.560998 442.549091 211.615033 442.754545 211.668906 442.960000 211.722600 443.165455 211.776098 443.370909 211.829383 443.576364 211.882438 443.781818 211.935246 443.987273 211.987791 444.192727 212.040054 444.398182 212.092021 444.603636 212.143673 444.809091 212.194993 445.014545 212.245966 445.220000 212.296573 445.425455 212.346798 445.630909 212.396625 445.836364 212.446035 446.041818 212.495013 446.247273 212.543541 446.452727 212.591603 446.658182 212.639181 446.863636 212.686258 447.069091 212.732819 447.274545 212.778845 447.480000 212.824320 447.685455 212.869228 447.890909 212.913550 448.096364 212.957270 448.301818 213.000372 448.507273 213.042838 448.712727 213.084652 448.918182 213.125796 449.123636 213.166254 449.329091 213.206009 449.534545 213.245043 449.740000 213.283341 449.945455 213.320885 450.150909 213.357657 450.356364 213.393642 450.561818 213.428823 450.767273 213.463181 450.972727 213.496702 451.178182 213.529367 451.383636 213.561159 451.589091 213.592063 451.794545 213.622060 452.000000 213.651134 452.205455 213.679269 452.410909 213.706446 452.616364 213.732650 452.821818 213.757863 453.027273 213.782069 453.232727 213.805250 453.438182 213.827390 453.643636 213.848472 453.849091 213.868479 454.054545 213.887393 454.260000 213.905199 454.465455 213.921879 454.670909 213.937416 454.876364 213.951793 455.081818 213.964994 455.287273 213.977001 455.492727 213.987798 455.698182 213.997367 455.903636 214.005693 456.109091 214.012757 456.314545 214.018543 456.520000 214.023034 456.725455 214.026214 456.930909 214.028065 457.136364 214.028570 457.341818 214.027712 457.547273 214.025475 457.752727 214.021842 457.958182 214.016796 458.163636 214.010319 458.369091 214.002395 458.574545 213.993008 458.780000 213.982139 458.985455 213.969773 459.190909 213.955892 459.396364 213.940479 459.601818 213.923518 459.807273 213.904992 460.012727 213.884883 460.218182 213.863175 460.423636 213.839851 460.629091 213.814894 460.834545 213.788287 461.040000 213.760013 461.245455 213.730055 461.450909 213.698397 461.656364 213.665021 461.861818 213.629911 462.067273 213.593049 462.272727 213.554420 462.478182 213.514004 462.683636 213.471787 462.889091 213.427751 463.094545 213.381879 463.300000 213.334154 463.505455 213.284560 463.710909 213.233079 463.916364 213.179694 464.121818 213.124389 464.327273 213.067147 464.532727 213.007950 464.738182 212.946783 464.943636 212.883627 465.149091 212.818466 465.354545 212.751284 465.560000 212.682063 465.765455 212.610786 465.970909 212.537436 466.176364 212.461997 466.381818 212.384452 466.587273 212.304784 466.792727 212.222975 466.998182 212.139009 467.203636 212.052869 467.409091 211.964538 467.614545 211.874000 467.820000 211.781237 468.025455 211.686232 468.230909 211.588969 468.436364 211.489430 468.641818 211.387599 468.847273 211.283458 469.052727 211.176992 469.258182 211.068182 469.463636 210.957013 469.669091 210.843466 469.874545 210.727526 470.080000 210.609176 470.285455 210.488397 470.490909 210.365174 470.696364 210.239490 470.901818 210.111328 471.107273 209.980670 471.312727 209.847500 471.518182 209.711802 471.723636 209.573557 471.929091 209.432749 472.134545 209.289362 472.340000 209.143378 472.545455 208.994781 472.750909 208.843553 472.956364 208.689678 473.161818 208.533139 473.367273 208.373918 473.572727 208.212000 473.778182 208.047373 473.983636 207.880053 474.189091 207.710063 474.394545 207.537426 474.600000 207.362163 474.805455 207.184298 475.010909 207.003852 475.216364 206.820848 475.421818 206.635308 475.627273 206.447255 475.832727 206.256711 476.038182 206.063699 476.243636 205.868241 476.449091 205.670359 476.654545 205.470076 476.860000 205.267414 477.065455 205.062396 477.270909 204.855044 477.476364 204.645381 477.681818 204.433428 477.887273 204.219209 478.092727 204.002746 478.298182 203.784061 478.503636 203.563176 478.709091 203.340114 478.914545 203.114898 479.120000 202.887549 479.325455 202.658091 479.530909 202.426546 479.736364 202.192935 479.941818 201.957282 480.147273 201.719609 480.352727 201.479938 480.558182 201.238292 480.763636 200.994693 480.969091 200.749163 481.174545 200.501726 481.380000 200.252403 481.585455 200.001216 481.790909 199.748189 481.996364 199.493344 482.201818 199.236702 482.407273 198.978287 482.612727 198.718121 482.818182 198.456226 483.023636 198.192625 483.229091 197.927340 483.434545 197.660393 483.640000 197.391808 483.845455 197.121605 484.050909 196.849809 484.256364 196.576441 484.461818 196.301523 484.667273 196.025078 484.872727 195.747129 485.078182 195.467697 485.283636 195.186806 485.489091 194.904478 485.694545 194.620734 485.900000 194.335598 486.105455 194.049092 486.310909 193.761238 486.516364 193.472059 486.721818 193.181578 486.927273 192.889815 487.132727 192.596795 487.338182 192.302539 487.543636 192.007070 487.749091 191.710410 487.954545 191.412582 488.160000 191.113608 488.365455 190.813510 488.570909 190.512311 488.776364 190.210034 488.981818 189.906700 489.187273 189.602333 489.392727 189.296953 489.598182 188.990585 489.803636 188.683251 490.009091 188.374972 490.214545 188.065771 490.420000 187.755671 490.625455 187.444694 490.830909 187.132862 491.036364 186.820198 491.241818 186.506724 491.447273 186.192464 491.652727 185.877438 491.858182 185.561670 492.063636 185.245181 492.269091 184.927995 492.474545 184.610134 492.680000 184.291620 492.885455 183.972476 493.090909 183.652723 493.296364 183.332385 493.501818 183.011484 493.707273 182.690042 493.912727 182.368082 494.118182 182.045626 494.323636 181.722696 494.529091 181.399315 494.734545 181.075506 494.940000 180.751290 495.145455 180.426691 495.350909 180.101730 495.556364 179.776430 495.761818 179.450813 495.967273 179.124902 496.172727 178.798720 496.378182 178.472288 496.583636 178.145629 496.789091 177.818765 496.994545 177.491720 497.200000 177.164515 497.405455 176.837172 497.610909 176.509715 497.816364 176.182165 498.021818 175.854545 498.227273 175.526877 498.432727 175.199185 498.638182 174.871489 498.843636 174.543813 499.049091 174.216179 499.254545 173.888610 499.460000 173.561127 499.665455 173.233754 499.870909 172.906512 500.076364 172.579424 500.281818 172.252513 500.487273 171.925801 500.692727 171.599310 500.898182 171.273063 501.103636 170.947083 501.309091 170.621390 501.514545 170.296009 501.720000 169.970961 501.925455 169.646269 502.130909 169.321955 502.336364 168.998042 502.541818 168.674552 502.747273 168.351508 502.952727 168.028931 503.158182 167.706845 503.363636 167.385271 503.569091 167.064233 503.774545 166.743752 503.980000 166.423851 504.185455 166.104552 504.390909 165.785879 504.596364 165.467852 504.801818 165.150495 505.007273 164.833831 505.212727 164.517880 505.418182 164.202667 505.623636 163.888213 505.829091 163.574540 506.034545 163.261672 506.240000 162.949630 506.445455 162.638437 506.650909 162.328116 506.856364 162.018688 507.061818 161.710176 507.267273 161.402603 507.472727 161.095992 507.678182 160.790363 507.883636 160.485740 508.089091 160.182146 508.294545 159.879603 508.500000 159.578132 508.705455 159.277757 508.910909 158.978500 509.116364 158.680383 509.321818 158.383429 509.527273 158.087660 509.732727 157.793099 509.938182 157.499768 510.143636 157.207689 510.349091 156.916885 510.554545 156.627378 510.760000 156.339191 510.965455 156.052346 511.170909 155.766865 511.376364 155.482772 511.581818 155.200087 511.787273 154.918835 511.992727 154.639036 512.198182 154.360714 512.403636 154.083891 512.609091 153.808590 512.814545 153.534832 513.020000 153.262640 513.225455 152.992037 513.430909 152.723045 513.636364 152.455687 513.841818 152.189984 514.047273 151.925960 514.252727 151.663637 514.458182 151.403036 514.663636 151.144181 514.869091 150.887094 515.074545 150.631798 515.280000 150.378314 515.485455 150.126665 515.690909 149.876874 515.896364 149.628963 516.101818 149.382955 516.307273 149.138871 516.512727 148.896735 516.718182 148.656568 516.923636 148.418393 517.129091 148.182233 517.334545 147.948110 517.540000 147.716046 517.745455 147.486064 517.950909 147.258186 518.156364 147.032434 518.361818 146.808832 518.567273 146.587401 518.772727 146.368163 518.978182 146.151143 519.183636 145.936360 519.389091 145.723839 519.594545 145.513601 519.800000 145.305669 520.005455 145.100066 520.210909 144.896813 520.416364 144.695933 520.621818 144.497449 520.827273 144.301383 521.032727 144.107757 521.238182 143.916594 521.443636 143.727916 521.649091 143.541746 521.854545 143.358106 522.060000 143.177019 522.265455 142.998506 522.470909 142.822590 522.676364 142.649294 522.881818 142.478641 523.087273 142.310652 523.292727 142.145349 523.498182 141.982757 523.703636 141.822895 523.909091 141.665789 524.114545 141.511458 524.320000 141.359927 524.525455 141.211217 524.730909 141.065351 524.936364 140.922351 525.141818 140.782235 525.347273 140.644995 525.552727 140.510621 525.758182 140.379101 525.963636 140.250423 526.169091 140.124577 526.374545 140.001549 526.580000 139.881330 526.785455 139.763907 526.990909 139.649268 527.196364 139.537402 527.401818 139.428298 527.607273 139.321945 527.812727 139.218329 528.018182 139.117441 528.223636 139.019267 528.429091 138.923798 528.634545 138.831021 528.840000 138.740924 529.045455 138.653497 529.250909 138.568727 529.456364 138.486604 529.661818 138.407114 529.867273 138.330248 530.072727 138.255993 530.278182 138.184338 530.483636 138.115271 530.689091 138.048781 530.894545 137.984856 531.100000 137.923484 531.305455 137.864655 531.510909 137.808356 531.716364 137.754576 531.921818 137.703303 532.127273 137.654526 532.332727 137.608234 532.538182 137.564414 532.743636 137.523055 532.949091 137.484146 533.154545 137.447675 533.360000 137.413630 533.565455 137.382001 533.770909 137.352774 533.976364 137.325940 534.181818 137.301486 534.387273 137.279400 534.592727 137.259672 534.798182 137.242289 535.003636 137.227240 535.209091 137.214514 535.414545 137.204099 535.620000 137.195983 535.825455 137.190155 536.030909 137.186603 536.236364 137.185316 536.441818 137.186282 536.647273 137.189490 536.852727 137.194928 537.058182 137.202584 537.263636 137.212447 537.469091 137.224506 537.674545 137.238748 537.880000 137.255163 538.085455 137.273738 538.290909 137.294463 538.496364 137.317325 538.701818 137.342314 538.907273 137.369416 539.112727 137.398622 539.318182 137.429919 539.523636 137.463296 539.729091 137.498742 539.934545 137.536244 540.140000 137.575791 540.345455 137.617372 540.550909 137.660975 540.756364 137.706588 540.961818 137.754201 541.167273 137.803801 541.372727 137.855376 541.578182 137.908916 541.783636 137.964409 541.989091 138.021843 542.194545 138.081206 542.400000 138.142488 542.605455 138.205676 542.810909 138.270759 543.016364 138.337726 543.221818 138.406564 543.427273 138.477263 543.632727 138.549810 543.838182 138.624195 544.043636 138.700405 544.249091 138.778430 544.454545 138.858257 544.660000 138.939874 544.865455 139.023272 545.070909 139.108437 545.276364 139.195358 545.481818 139.284025 545.687273 139.374424 545.892727 139.466545 546.098182 139.560376 546.303636 139.655906 546.509091 139.753123 546.714545 139.852015 546.920000 139.952571 547.125455 140.054779 547.330909 140.158629 547.536364 140.264107 547.741818 140.371203 547.947273 140.479905 548.152727 140.590202 548.358182 140.702081 548.563636 140.815532 548.769091 140.930543 548.974545 141.047103 549.180000 141.165199 549.385455 141.284820 549.590909 141.405955 549.796364 141.528592 550.001818 141.652720 550.207273 141.778326 550.412727 141.905400 550.618182 142.033930 550.823636 142.163904 551.029091 142.295312 551.234545 142.428140 551.440000 142.562378 551.645455 142.698014 551.850909 142.835037 552.056364 142.973434 552.261818 143.113195 552.467273 143.254308 552.672727 143.396762 552.878182 143.540544 553.083636 143.685643 553.289091 143.832048 553.494545 143.979747 553.700000 144.128729 553.905455 144.278982 554.110909 144.430494 554.316364 144.583254 554.521818 144.737251 554.727273 144.892472 554.932727 145.048907 555.138182 145.206543 555.343636 145.365369 555.549091 145.525374 555.754545 145.686546 555.960000 145.848874 556.165455 146.012345 556.370909 146.176949 556.576364 146.342673 556.781818 146.509507 556.987273 146.677439 557.192727 146.846456 557.398182 147.016548 557.603636 147.187704 557.809091 147.359910 558.014545 147.533157 558.220000 147.707432 558.425455 147.882724 558.630909 148.059021 558.836364 148.236311 559.041818 148.414584 559.247273 148.593828 559.452727 148.774030 559.658182 148.955181 559.863636 149.137266 560.069091 149.320277 560.274545 149.504200 560.480000 149.689024 560.685455 149.874739 560.890909 150.061331 561.096364 150.248790 561.301818 150.437104 561.507273 150.626261 561.712727 150.816251 561.918182 151.007060 562.123636 151.198679 562.329091 151.391095 562.534545 151.584296 562.740000 151.778272 562.945455 151.973010 563.150909 152.168500 563.356364 152.364729 563.561818 152.561686 563.767273 152.759359 563.972727 152.957737 564.178182 153.156808 564.383636 153.356561 564.589091 153.556985 564.794545 153.758067 565.000000 153.959796 565.205455 154.162160 565.410909 154.365148 565.616364 154.568749 565.821818 154.772951 566.027273 154.977742 566.232727 155.183111 566.438182 155.389045 566.643636 155.595535 566.849091 155.802567 567.054545 156.010131 567.260000 156.218216 567.465455 156.426808 567.670909 156.635897 567.876364 156.845472 568.081818 157.055520 568.287273 157.266031 568.492727 157.476992 568.698182 157.688392 568.903636 157.900220 569.109091 158.112464 569.314545 158.325112 569.520000 158.538153 569.725455 158.751575 569.930909 158.965367 570.136364 159.179517 570.341818 159.394014 570.547273 159.608846 570.752727 159.824002 570.958182 160.039469 571.163636 160.255237 571.369091 160.471294 571.574545 160.687628 571.780000 160.904228 571.985455 161.121082 572.190909 161.338179 572.396364 161.555506 572.601818 161.773054 572.807273 161.990809 573.012727 162.208761 573.218182 162.426897 573.423636 162.645207 573.629091 162.863679 573.834545 163.082301 574.040000 163.301061 574.245455 163.519949 574.450909 163.738952 574.656364 163.958060 574.861818 164.177259 575.067273 164.396540 575.272727 164.615890 575.478182 164.835297 575.683636 165.054751 575.889091 165.274240 576.094545 165.493751 576.300000 165.713274 576.300000 514.000000" /></g></g><g class="titles"><text class="title plot_title" x="400.0" y="26">Phloen-Chit 52</text></g><g class="plot overlay" transform="translate(192, 46)"><g class="series serie-0 color-0"><g class="dots"><circle class="dot reactive tooltip-trigger" cx="11.3" cy="9.884615384615415" r="2.5" /><desc class="value">448000</desc><desc class="x ">11.3</desc><desc class="y ">9.884615384615415</desc><desc class="x_label">Jan</desc></g><g class="dots"><circle class="dot reactive tooltip-trigger" cx="62.66363636363637" cy="381.7484608391726" r="2.5" /><desc class="value">343000</desc><desc class="x top">62.66363636363637</desc><desc class="y top">381.7484608391726</desc><desc class="x_label">Feb</desc></g><g class="dots"><circle class="dot reactive tooltip-trigger" cx="114.02727272727273" cy="211.7535600599465" r="2.5" /><desc class="value">391000</desc><desc class="x ">114.02727272727273</desc><desc class="y ">211.7535600599465</desc><desc class="x_label">Mar</desc></g><g class="dots"><circle class="dot reactive tooltip-trigger" cx="165.39090909090908" cy="477.3705925274873" r="2.5" /><desc class="value">316000</desc><desc class="x top">165.39090909090908</desc><desc class="y top">477.3705925274873</desc><desc class="x_label">Apr</desc></g><g class="dots"><circle class="dot reactive tooltip-trigger" cx="216.75454545454548" cy="402.9978234365759" r="2.5" /><desc class="value">337000</desc><desc class="x top">216.75454545454548</desc><desc class="y top">402.9978234365759</desc><desc class="x_label">May</desc></g><g class="dots"><circle class="dot reactive tooltip-trigger" cx="268.1181818181818" cy="225.91980179154865" r="2.5" /><desc class="value">387000</desc><desc class="x ">268.1181818181818</desc><desc class="y ">225.91980179154865</desc><desc class="x_label">Jun</desc></g><g class="dots"><circle class="dot reactive tooltip-trigger" cx="319.4818181818182" cy="279.04320828505683" r="2.5" /><desc class="value">372000</desc><desc class="x left top">319.4818181818182</desc><desc class="y left top">279.04320828505683</desc><desc class="x_label">Jul</desc></g><g class="dots"><circle class="dot reactive tooltip-trigger" cx="370.8454545454546" cy="247.1691643889519" r="2.5" /><desc class="value">381000</desc><desc class="x left">370.8454545454546</desc><desc class="y left">247.1691643889519</desc><desc class="x_label">Aug</desc></g><g class="dots"><circle class="dot reactive tooltip-trigger" cx="422.20909090909095" cy="208.21199962704594" r="2.5" /><desc class="value">392000</desc><desc class="x left">422.20909090909095</desc><desc class="y left">208.21199962704594</desc><desc class="x_label">Sep</desc></g><g class="dots"><circle class="dot reactive tooltip-trigger" cx="473.5727272727273" cy="208.21199962704594" r="2.5" /><desc class="value">392000</desc><desc class="x left">473.5727272727273</desc><desc class="y left">208.21199962704594</desc><desc class="x_label">Oct</desc></g><g class="dots"><circle class="dot reactive tooltip-trigger" cx="524.9363636363636" cy="140.9223514019356" r="2.5" /><desc class="value">411000</desc><desc class="x left">524.9363636363636</desc><desc class="y left">140.9223514019356</desc><desc class="x_label">Nov</desc></g><g class="dots"><circle class="dot reactive tooltip-trigger" cx="576.3000000000001" cy="165.71327443223936" r="2.5" /><desc class="value">404000</desc><desc class="x left">576.3000000000001</desc><desc class="y left">165.71327443223936</desc><desc class="x_label">Dec</desc></g></g></g><g class="plot text-overlay" transform="translate(192, 46)"><g class="series serie-0 color-0" /></g><g class="plot tooltip-overlay" transform="translate(192, 46)"><g class="tooltip" style="opacity: 0" transform="translate(0 0)"><rect class="tooltip-box" height="0" rx="0" ry="0" width="0" /><g class="text" /></g></g><g class="legends" transform="translate(10, 56)"><g class="legend reactive activate-serie" id="activate-serie-0"><rect class="color-0 reactive" height="12" width="12" x="0.0" y="1.0" /><text x="17.0" y="11.2">Phloen-Chit</text></g></g><g class="legends" transform="translate(790, 56)" /></g></svg>