<?xml version='1.0' encoding='utf-8'?>
<svg xmlns:xlink="http://www.w3.org/1999/xlink" class="pygal-chart" id="chart-7dc6cf50-069b-49d7-b326-285efb6e765a" viewBox="0 0 800 600" xmlns="http://www.w3.org/2000/svg"><!--Generated with pygal 2.0.11 (etree) ©Kozea 2011-2015 on 2015-12-10--><!--http://pygal.org--><!--http://github.com/Kozea/pygal--><defs><style type="text/css">#chart-7dc6cf50-069b-49d7-b326-285efb6e765a{-webkit-user-select:none;-webkit-font-smoothing:antialiased;font-family:Consolas,"Liberation Mono",Menlo,Courier,monospace}#chart-7dc6cf50-069b-49d7-b326-285efb6e765a .title{font-family:Consolas,"Liberation Mono",Menlo,Courier,monospace;font-size:16px}#chart-7dc6cf50-069b-49d7-b326-285efb6e765a .legends .legend text{font-family:Consolas,"Liberation Mono",Menlo,Courier,monospace;font-size:14px}#chart-7dc6cf50-069b-49d7-b326-285efb6e765a .axis text{font-family:Consolas,"Liberation Mono",Menlo,Courier,monospace;font-size:10px}#chart-7dc6cf50-069b-49d7-b326-285efb6e765a .axis text.major{font-family:Consolas,"Liberation Mono",Menlo,Courier,monospace;font-size:10px}#chart-7dc6cf50-069b-49d7-b326-285efb6e765a .text-overlay text.value{font-family:Consolas,"Liberation Mono",Menlo,Courier,monospace;font-size:16px}#chart-7dc6cf50-069b-49d7-b326-285efb6e765a .text-overlay text.label{font-family:Consolas,"Liberation Mono",Menlo,Courier,monospace;font-size:10px}#chart-7dc6cf50-069b-49d7-b326-285efb6e765a .tooltip{font-family:Consolas,"Liberation Mono",Menlo,Courier,monospace;font-size:14px}#chart-7dc6cf50-069b-49d7-b326-285efb6e765a text.no_data{font-family:Consolas,"Liberation Mono",Menlo,Courier,monospace;font-size:64px}
#chart-7dc6cf50-069b-49d7-b326-285efb6e765a{background-color:black}#chart-7dc6cf50-069b-49d7-b326-285efb6e765a path,#chart-7dc6cf50-069b-49d7-b326-285efb6e765a line,#chart-7dc6cf50-069b-49d7-b326-285efb6e765a rect,#chart-7dc6cf50-069b-49d7-b326-285efb6e765a circle{-webkit-transition:250ms;-moz-transition:250ms;transition:250ms}#chart-7dc6cf50-069b-49d7-b326-285efb6e765a .graph &gt; .background{fill:black}#chart-7dc6cf50-069b-49d7-b326-285efb6e765a .plot &gt; .background{fill:#111}#chart-7dc6cf50-069b-49d7-b326-285efb6e765a .graph{fill:#999}#chart-7dc6cf50-069b-49d7-b326-285efb6e765a text.no_data{fill:#eee}#chart-7dc6cf50-069b-49d7-b326-285efb6e765a .title{fill:#eee}#chart-7dc6cf50-069b-49d7-b326-285efb6e765a .legends .legend text{fill:#999}#chart-7dc6cf50-069b-49d7-b326-285efb6e765a .legends .legend:hover text{fill:#eee}#chart-7dc6cf50-069b-49d7-b326-285efb6e765a .axis .line{stroke:#eee}#chart-7dc6cf50-069b-49d7-b326-285efb6e765a .axis .guide.line{stroke:#555}#chart-7dc6cf50-069b-49d7-b326-285efb6e765a .axis .major.line{stroke:#999}#chart-7dc6cf50-069b-49d7-b326-285efb6e765a .axis text.major{fill:#eee}#chart-7dc6cf50-069b-49d7-b326-285efb6e765a .axis.y .guides:hover .guide.line,#chart-7dc6cf50-069b-49d7-b326-285efb6e765a .line-graph .axis.x .guides:hover .guide.line,#chart-7dc6cf50-069b-49d7-b326-285efb6e765a .stackedline-graph .axis.x .guides:hover .guide.line,#chart-7dc6cf50-069b-49d7-b326-285efb6e765a .xy-graph .axis.x .guides:hover .guide.line{stroke:#eee}#chart-7dc6cf50-069b-49d7-b326-285efb6e765a .axis .guides:hover text{fill:#eee}#chart-7dc6cf50-069b-49d7-b326-285efb6e765a .reactive{fill-opacity:.8}#chart-7dc6cf50-069b-49d7-b326-285efb6e765a .reactive.active,#chart-7dc6cf50-069b-49d7-b326-285efb6e765a .active .reactive{fill-opacity:.4;stroke-width:4}#chart-7dc6cf50-069b-49d7-b326-285efb6e765a .series text{fill:#eee}#chart-7dc6cf50-069b-49d7-b326-285efb6e765a .tooltip rect{fill:#111;stroke:#eee;-webkit-transition:opacity 250ms;-moz-transition:opacity 250ms;transition:opacity 250ms}#chart-7dc6cf50-069b-49d7-b326-285efb6e765a .tooltip .label{fill:#999}#chart-7dc6cf50-069b-49d7-b326-285efb6e765a .tooltip .label{fill:#999}#chart-7dc6cf50-069b-49d7-b326-285efb6e765a .tooltip .legend{font-size:.8em;fill:#555}#chart-7dc6cf50-069b-49d7-b326-285efb6e765a .tooltip .x_label{font-size:.6em;fill:#eee}#chart-7dc6cf50-069b-49d7-b326-285efb6e765a .tooltip .xlink{font-size:.5em;text-decoration:underline}#chart-7dc6cf50-069b-49d7-b326-285efb6e765a .tooltip .value{font-size:1.5em}#chart-7dc6cf50-069b-49d7-b326-285efb6e765a .map-element{fill:#111;stroke:#555 !important}#chart-7dc6cf50-069b-49d7-b326-285efb6e765a .map-element .reactive{fill-opacity:inherit}#chart-7dc6cf50-069b-49d7-b326-285efb6e765a .color-0,#chart-7dc6cf50-069b-49d7-b326-285efb6e765a .color-0 a:visited{stroke:#ff5995;fill:#ff5995}#chart-7dc6cf50-069b-49d7-b326-285efb6e765a .text-overlay .color-0 text{fill:black}
#chart-7dc6cf50-069b-49d7-b326-285efb6e765a text.no_data{text-anchor:middle}#chart-7dc6cf50-069b-49d7-b326-285efb6e765a .guide.line{fill:none}#chart-7dc6cf50-069b-49d7-b326-285efb6e765a .centered{text-anchor:middle}#chart-7dc6cf50-069b-49d7-b326-285efb6e765a .title{text-anchor:middle}#chart-7dc6cf50-069b-49d7-b326-285efb6e765a .legends .legend text{fill-opacity:1}#chart-7dc6cf50-069b-49d7-b326-285efb6e765a .axis.x text{text-anchor:middle}#chart-7dc6cf50-069b-49d7-b326-285efb6e765a .axis.x:not(.web) text[transform]{text-anchor:start}#chart-7dc6cf50-069b-49d7-b326-285efb6e765a .axis.x:not(.web) text[transform].backwards{text-anchor:end}#chart-7dc6cf50-069b-49d7-b326-285efb6e765a .axis.y text{text-anchor:end}#chart-7dc6cf50-069b-49d7-b326-285efb6e765a .axis.y text[transform].backwards{text-anchor:start}#chart-7dc6cf50-069b-49d7-b326-285efb6e765a .axis.y2 text{text-anchor:start}#chart-7dc6cf50-069b-49d7-b326-285efb6e765a .axis.y2 text[transform].backwards{text-anchor:end}#chart-7dc6cf50-069b-49d7-b326-285efb6e765a .axis .guide.line{stroke-dasharray:4,4}#chart-7dc6cf50-069b-49d7-b326-285efb6e765a .axis .major.guide.line{stroke-dasharray:6,6}#chart-7dc6cf50-069b-49d7-b326-285efb6e765a .horizontal .axis.y .guide.line,#chart-7dc6cf50-069b-49d7-b326-285efb6e765a .horizontal .axis.y2 .guide.line,#chart-7dc6cf50-069b-49d7-b326-285efb6e765a .vertical .axis.x .guide.line{opacity:0}#chart-7dc6cf50-069b-49d7-b326-285efb6e765a .horizontal .axis.always_show .guide.line,#chart-7dc6cf50-069b-49d7-b326-285efb6e765a .vertical .axis.always_show .guide.line{opacity:1 !important}#chart-7dc6cf50-069b-49d7-b326-285efb6e765a .axis.y .guides:hover .guide.line,#chart-7dc6cf50-069b-49d7-b326-285efb6e765a .axis.y2 .guides:hover .guide.line,#chart-7dc6cf50-069b-49d7-b326-285efb6e765a .axis.x .guides:hover .guide.line{opacity:1}#chart-7dc6cf50-069b-49d7-b326-285efb6e765a .axis .guides:hover text{opacity:1}#chart-7dc6cf50-069b-49d7-b326-285efb6e765a .nofill{fill:none}#chart-7dc6cf50-069b-49d7-b326-285efb6e765a .subtle-fill{fill-opacity:.2}#chart-7dc6cf50-069b-49d7-b326-285efb6e765a .dot{stroke-width:1px;fill-opacity:1}#chart-7dc6cf50-069b-49d7-b326-285efb6e765a .dot.active{stroke-width:5px}#chart-7dc6cf50-069b-49d7-b326-285efb6e765a .dot.negative{fill:transparent}#chart-7dc6cf50-069b-49d7-b326-285efb6e765a text,#chart-7dc6cf50-069b-49d7-b326-285efb6e765a tspan{stroke:none !important}#chart-7dc6cf50-069b-49d7-b326-285efb6e765a .series text.active{opacity:1}#chart-7dc6cf50-069b-49d7-b326-285efb6e765a .tooltip rect{fill-opacity:.95;stroke-width:.5}#chart-7dc6cf50-069b-49d7-b326-285efb6e765a .tooltip text{fill-opacity:1}#chart-7dc6cf50-069b-49d7-b326-285efb6e765a .showable{visibility:hidden}#chart-7dc6cf50-069b-49d7-b326-285efb6e765a .showable.shown{visibility:visible}</style><script type="text/javascript">window.pygal = window.pygal || {};window.pygal.config = window.pygal.config || {};window.pygal.config['7dc6cf50-069b-49d7-b326-285efb6e765a'] = {"print_values": false, "truncate_label": null, "human_readable": false, "explicit_size": false, "show_y_labels": true, "x_labels": ["Jan", "Feb", "Mar", "Apr", "May", "Jun", "Jul", "Aug", "Sep", "Oct", "Nov", "Dec"], "inverse_y_axis": false, "x_labels_major_count": null, "show_y_guides": true, "spacing": 10, "xrange": null, "rounded_bars": null, "margin": 20, "interpolation_precision": 250, "title": "Phra-Khanong 52", "stroke_style": null, "no_data_text": "No data", "fill": true, "box_mode": "extremes", "print_labels": false, "interpolate": "cubic", "zero": 0, "show_only_major_dots": false, "truncate_legend": null, "show_minor_x_labels": true, "js": ["//kozea.github.io/pygal.js/2.0.x/pygal-tooltips.min.js"], "x_labels_major_every": null, "legends": ["Phra-Khanong"], "tooltip_fancy_mode": true, "disable_xml_declaration": false, "show_x_guides": false, "print_zeroes": true, "show_legend": true, "legend_at_bottom": false, "y_labels_major_count": null, "secondary_range": null, "margin_bottom": null, "half_pie": false, "height": 600, "range": null, "show_minor_y_labels": true, "defs": [], "css": ["file://style.css", "file://graph.css"], "y_labels": null, "interpolation_parameters": {}, "width": 800, "strict": false, "pretty_print": false, "min_scale": 4, "margin_top": null, "dynamic_print_values": false, "order_min": null, "x_title": null, "margin_left": null, "margin_right": null, "y_labels_major_every": null, "stroke": true, "x_labels_major": null, "missing_value_fill_truncation": "x", "logarithmic": false, "stack_from_top": false, "show_dots": true, "style": {"title_font_size": 16, "title_font_family": "Consolas, \"Liberation Mono\", Menlo, Courier, monospace", "tooltip_font_family": "Consolas, \"Liberation Mono\", Menlo, Courier, monospace", "background": "black", "tooltip_font_size": 14, "opacity_hover": ".4", "value_label_font_size": 10, "opacity": ".8", "no_data_font_family": "Consolas, \"Liberation Mono\", Menlo, Courier, monospace", "label_font_size": 10, "plot_background": "#111", "value_font_size": 16, "value_font_family": "Consolas, \"Liberation Mono\", Menlo, Courier, monospace", "no_data_font_size": 64, "foreground_strong": "#eee", "font_family": "Consolas, \"Liberation Mono\", Menlo, Courier, monospace", "label_font_family": "Consolas, \"Liberation Mono\", Menlo, Courier, monospace", "transition": "250ms", "major_guide_stroke_dasharray": "6,6", "foreground_subtle": "#555", "value_colors": [], "value_label_font_family": "Consolas, \"Liberation Mono\", Menlo, Courier, monospace", "guide_stroke_dasharray": "4,4", "major_label_font_size": 10, "legend_font_family": "Consolas, \"Liberation Mono\", Menlo, Courier, monospace", "major_label_font_family": "Consolas, \"Liberation Mono\", Menlo, Courier, monospace", "foreground": "#999", "colors": ["#ff5995", "#b6e354", "#feed6c", "#8cedff", "#9e6ffe", "#899ca1", "#f8f8f2", "#bf4646", "#516083", "#f92672", "#82b414", "#fd971f", "#56c2d6", "#808384", "#8c54fe", "#465457"], "legend_font_size": 14}, "y_labels_major": null, "x_label_rotation": 0, "max_scale": 16, "value_formatter": null, "dots_size": 2.5, "legend_at_bottom_columns": null, "force_uri_protocol": null, "x_value_formatter": null, "legend_box_size": 12, "include_x_axis": false, "y_label_rotation": 0, "show_x_labels": true, "inner_radius": 0, "no_prefix": false, "tooltip_border_radius": 0, "y_title": null}</script><script type="text/javascript" xlink:href="//kozea.github.io/pygal.js/2.0.x/pygal-tooltips.min.js" /></defs><title>Phra-Khanong 52</title><g class="graph line-graph vertical"><rect class="background" height="600" width="800" x="0" y="0" /><g class="plot" transform="translate(200, 46)"><rect class="background" height="514" width="579.2" x="0" y="0" /><g class="axis y"><path class="line" d="M0.000000 514.000000 h579.200000" /><g class="guides"><path class="guide line" d="M0.000000 444.239049 h579.200000" /><text class="" x="-5" y="447.7390486061446">210000.0</text><title>210000.0</title></g><g class="guides"><path class="guide line" d="M0.000000 328.231967 h579.200000" /><text class="" x="-5" y="331.73196682232765">220000.0</text><title>220000.0</title></g><g class="guides"><path class="guide line" d="M0.000000 212.224885 h579.200000" /><text class="" x="-5" y="215.72488503851065">230000.0</text><title>230000.0</title></g><g class="guides"><path class="guide line" d="M0.000000 96.217803 h579.200000" /><text class="" x="-5" y="99.7178032546937">240000.0</text><title>240000.0</title></g></g><g class="axis x"><g class="guides"><path class="line" d="M11.138462 0.000000 v514.000000" /><text class="" x="11.13846153846154" y="529.0">Jan</text></g><g class="guides"><path class="guide line" d="M61.767832 0.000000 v514.000000" /><text class="" x="61.76783216783217" y="529.0">Feb</text></g><g class="guides"><path class="guide line" d="M112.397203 0.000000 v514.000000" /><text class="" x="112.3972027972028" y="529.0">Mar</text></g><g class="guides"><path class="guide line" d="M163.026573 0.000000 v514.000000" /><text class="" x="163.02657342657344" y="529.0">Apr</text></g><g class="guides"><path class="guide line" d="M213.655944 0.000000 v514.000000" /><text class="" x="213.65594405594408" y="529.0">May</text></g><g class="guides"><path class="guide line" d="M264.285315 0.000000 v514.000000" /><text class="" x="264.2853146853147" y="529.0">Jun</text></g><g class="guides"><path class="guide line" d="M314.914685 0.000000 v514.000000" /><text class="" x="314.9146853146853" y="529.0">Jul</text></g><g class="guides"><path class="guide line" d="M365.544056 0.000000 v514.000000" /><text class="" x="365.54405594405597" y="529.0">Aug</text></g><g class="guides"><path class="guide line" d="M416.173427 0.000000 v514.000000" /><text class="" x="416.17342657342664" y="529.0">Sep</text></g><g class="guides"><path class="guide line" d="M466.802797 0.000000 v514.000000" /><text class="" x="466.8027972027973" y="529.0">Oct</text></g><g class="guides"><path class="guide line" d="M517.432168 0.000000 v514.000000" /><text class="" x="517.4321678321678" y="529.0">Nov</text></g><g class="guides"><path class="guide line" d="M568.061538 0.000000 v514.000000" /><text class="" x="568.0615384615386" y="529.0">Dec</text></g></g><g class="series serie-0 color-0"><path class="line reactive" d="M11.138462 514.000000 L11.138462 96.217803 11.340979 98.799355 11.543497 101.380815 11.746014 103.962092 11.948531 106.543092 12.151049 109.123725 12.353566 111.703898 12.556084 114.283520 12.758601 116.862498 12.961119 119.440741 13.163636 122.018157 13.366154 124.594654 13.568671 127.170139 13.771189 129.744521 13.973706 132.317709 14.176224 134.889610 14.378741 137.460132 14.581259 140.029183 14.783776 142.596672 14.986294 145.162506 15.188811 147.726594 15.391329 150.288843 15.593846 152.849162 15.796364 155.407459 15.998881 157.963642 16.201399 160.517619 16.403916 163.069298 16.606434 165.618587 16.808951 168.165395 17.011469 170.709628 17.213986 173.251197 17.416503 175.790007 17.619021 178.325968 17.821538 180.858988 18.024056 183.388975 18.226573 185.915836 18.429091 188.439481 18.631608 190.959816 18.834126 193.476750 19.036643 195.990192 19.239161 198.500049 19.441678 201.006229 19.644196 203.508640 19.846713 206.007191 20.049231 208.501790 20.251748 210.992344 20.454266 213.478762 20.656783 215.960952 20.859301 218.438821 21.061818 220.912279 21.264336 223.381233 21.466853 225.845591 21.669371 228.305261 21.871888 230.760151 22.074406 233.210170 22.276923 235.655226 22.479441 238.095225 22.681958 240.530078 22.884476 242.959691 23.086993 245.383973 23.289510 247.802832 23.492028 250.216176 23.694545 252.623913 23.897063 255.025952 24.099580 257.422199 24.302098 259.812564 24.504615 262.196954 24.707133 264.575278 24.909650 266.947443 25.112168 269.313358 25.314685 271.672930 25.517203 274.026069 25.719720 276.372681 25.922238 278.712675 26.124755 281.045960 26.327273 283.372442 26.529790 285.692031 26.732308 288.004634 26.934825 290.310159 27.137343 292.608515 27.339860 294.899610 27.542378 297.183351 27.744895 299.459646 27.947413 301.728405 28.149930 303.989535 28.352448 306.242943 28.554965 308.488539 28.757483 310.726229 28.960000 312.955923 29.162517 315.177529 29.365035 317.390953 29.567552 319.596105 29.770070 321.792893 29.972587 323.981224 30.175105 326.161007 30.377622 328.332150 30.580140 330.494561 30.782657 332.648148 30.985175 334.792818 31.187692 336.928481 31.390210 339.055044 31.592727 341.172416 31.795245 343.280504 31.997762 345.379216 32.200280 347.468461 32.402797 349.548146 32.605315 351.618180 32.807832 353.678471 33.010350 355.728927 33.212867 357.769456 33.415385 359.799966 33.617902 361.820365 33.820420 363.830561 34.022937 365.830463 34.225455 367.819978 34.427972 369.799014 34.630490 371.767480 34.833007 373.725284 35.035524 375.672333 35.238042 377.608536 35.440559 379.533802 35.643077 381.448036 35.845594 383.351150 36.048112 385.243049 36.250629 387.123642 36.453147 388.992838 36.655664 390.850544 36.858182 392.696668 37.060699 394.531119 37.263217 396.353805 37.465734 398.164634 37.668252 399.963513 37.870769 401.750351 38.073287 403.525056 38.275804 405.287536 38.478322 407.037699 38.680839 408.775454 38.883357 410.500707 39.085874 412.213369 39.288392 413.913345 39.490909 415.600545 39.693427 417.274877 39.895944 418.936248 40.098462 420.584568 40.300979 422.219743 40.503497 423.841682 40.706014 425.450293 40.908531 427.045484 41.111049 428.627164 41.313566 430.195240 41.516084 431.749620 41.718601 433.290212 41.921119 434.816926 42.123636 436.329667 42.326154 437.828346 42.528671 439.312869 42.731189 440.783145 42.933706 442.239082 43.136224 443.680588 43.338741 445.107572 43.541259 446.519940 43.743776 447.917602 43.946294 449.300465 44.148811 450.668438 44.351329 452.021428 44.553846 453.359343 44.756364 454.682093 44.958881 455.989584 45.161399 457.281725 45.363916 458.558424 45.566434 459.819589 45.768951 461.065129 45.971469 462.294950 46.173986 463.508962 46.376503 464.707072 46.579021 465.889188 46.781538 467.055219 46.984056 468.205073 47.186573 469.338657 47.389091 470.455880 47.591608 471.556650 47.794126 472.640875 47.996643 473.708463 48.199161 474.759323 48.401678 475.793361 48.604196 476.810486 48.806713 477.810607 49.009231 478.793632 49.211748 479.759468 49.414266 480.708023 49.616783 481.639207 49.819301 482.552926 50.021818 483.449089 50.224336 484.327603 50.426853 485.188378 50.629371 486.031321 50.831888 486.856340 51.034406 487.663344 51.236923 488.452240 51.439441 489.222936 51.641958 489.975341 51.844476 490.709362 52.046993 491.424908 52.249510 492.121887 52.452028 492.800207 52.654545 493.459776 52.857063 494.100501 53.059580 494.722292 53.262098 495.325056 53.464615 495.908701 53.667133 496.473136 53.869650 497.018268 54.072168 497.544006 54.274685 498.050257 54.477203 498.536930 54.679720 499.003933 54.882238 499.451173 55.084755 499.878560 55.287273 500.286000 55.489790 500.673403 55.692308 501.040676 55.894825 501.387727 56.097343 501.714464 56.299860 502.020796 56.502378 502.306630 56.704895 502.571875 56.907413 502.816439 57.109930 503.040229 57.312448 503.243155 57.514965 503.425123 57.717483 503.586042 57.920000 503.725821 58.122517 503.844366 58.325035 503.941587 58.527552 504.017391 58.730070 504.071687 58.932587 504.104382 59.135105 504.115385 59.337622 504.104603 59.540140 504.071945 59.742657 504.017319 59.945175 503.940633 60.147692 503.841795 60.350210 503.720713 60.552727 503.577295 60.755245 503.411450 60.957762 503.223085 61.160280 503.012108 61.362797 502.778428 61.565315 502.521952 61.767832 502.242589 61.970350 501.940293 62.172867 501.615201 62.375385 501.267497 62.577902 500.897363 62.780420 500.504984 62.982937 500.090542 63.185455 499.654222 63.387972 499.196206 63.590490 498.716678 63.793007 498.215821 63.995524 497.693820 64.198042 497.150856 64.400559 496.587114 64.603077 496.002776 64.805594 495.398027 65.008112 494.773050 65.210629 494.128027 65.413147 493.463144 65.615664 492.778582 65.818182 492.074525 66.020699 491.351157 66.223217 490.608661 66.425734 489.847220 66.628252 489.067019 66.830769 488.268239 67.033287 487.451066 67.235804 486.615681 67.438322 485.762269 67.640839 484.891012 67.843357 484.002095 68.045874 483.095700 68.248392 482.172012 68.450909 481.231212 68.653427 480.273486 68.855944 479.299016 69.058462 478.307985 69.260979 477.300577 69.463497 476.276976 69.666014 475.237365 69.868531 474.181926 70.071049 473.110845 70.273566 472.024303 70.476084 470.922484 70.678601 469.805573 70.881119 468.673751 71.083636 467.527203 71.286154 466.366112 71.488671 465.190661 71.691189 464.001034 71.893706 462.797415 72.096224 461.579985 72.298741 460.348930 72.501259 459.104432 72.703776 457.846674 72.906294 456.575841 73.108811 455.292115 73.311329 453.995680 73.513846 452.686719 73.716364 451.365416 73.918881 450.031954 74.121399 448.686517 74.323916 447.329287 74.526434 445.960449 74.728951 444.580185 74.931469 443.188680 75.133986 441.786115 75.336503 440.372676 75.539021 438.948545 75.741538 437.513905 75.944056 436.068941 76.146573 434.613835 76.349091 433.148771 76.551608 431.673932 76.754126 430.189501 76.956643 428.695663 77.159161 427.192600 77.361678 425.680496 77.564196 424.159533 77.766713 422.629897 77.969231 421.091769 78.171748 419.545334 78.374266 417.990775 78.576783 416.428275 78.779301 414.858017 78.981818 413.280185 79.184336 411.694963 79.386853 410.102533 79.589371 408.503080 79.791888 406.896786 79.994406 405.283835 80.196923 403.664410 80.399441 402.038695 80.601958 400.406873 80.804476 398.769128 81.006993 397.125642 81.209510 395.476600 81.412028 393.822185 81.614545 392.162579 81.817063 390.497967 82.019580 388.828532 82.222098 387.154457 82.424615 385.475926 82.627133 383.793122 82.829650 382.106228 83.032168 380.415429 83.234685 378.720906 83.437203 377.022844 83.639720 375.321426 83.842238 373.616836 84.044755 371.909256 84.247273 370.198871 84.449790 368.485863 84.652308 366.770416 84.854825 365.052714 85.057343 363.332940 85.259860 361.611276 85.462378 359.887907 85.664895 358.163017 85.867413 356.436787 86.069930 354.709403 86.272448 352.981046 86.474965 351.251901 86.677483 349.522151 86.880000 347.791980 87.082517 346.061570 87.285035 344.331105 87.487552 342.600769 87.690070 340.870745 87.892587 339.141216 88.095105 337.412366 88.297622 335.684378 88.500140 333.957436 88.702657 332.231722 88.905175 330.507421 89.107692 328.784715 89.310210 327.063789 89.512727 325.344825 89.715245 323.628007 89.917762 321.913518 90.120280 320.201542 90.322797 318.492262 90.525315 316.785861 90.727832 315.082524 90.930350 313.382432 91.132867 311.685770 91.335385 309.992722 91.537902 308.303469 91.740420 306.618197 91.942937 304.937088 92.145455 303.260325 92.347972 301.588092 92.550490 299.920573 92.753007 298.257951 92.955524 296.600409 93.158042 294.948130 93.360559 293.301299 93.563077 291.660097 93.765594 290.024710 93.968112 288.395320 94.170629 286.772110 94.373147 285.155265 94.575664 283.544966 94.778182 281.941399 94.980699 280.344746 95.183217 278.755190 95.385734 277.172915 95.588252 275.598104 95.790769 274.030942 95.993287 272.471610 96.195804 270.920293 96.398322 269.377174 96.600839 267.842436 96.803357 266.316263 97.005874 264.798838 97.208392 263.290344 97.410909 261.790966 97.613427 260.300885 97.815944 258.820287 98.018462 257.349353 98.220979 255.888268 98.423497 254.437215 98.626014 252.996377 98.828531 251.565938 99.031049 250.146081 99.233566 248.736989 99.436084 247.338846 99.638601 245.951835 99.841119 244.576140 100.043636 243.211944 100.246154 241.859431 100.448671 240.518783 100.651189 239.190185 100.853706 237.873819 101.056224 236.569869 101.258741 235.278519 101.461259 233.999951 101.663776 232.734349 101.866294 231.481898 102.068811 230.242779 102.271329 229.017176 102.473846 227.805273 102.676364 226.607254 102.878881 225.423301 103.081399 224.253598 103.283916 223.098328 103.486434 221.957675 103.688951 220.831823 103.891469 219.720953 104.093986 218.625251 104.296503 217.544899 104.499021 216.480081 104.701538 215.430980 104.904056 214.397779 105.106573 213.380663 105.309091 212.379813 105.511608 211.395415 105.714126 210.427650 105.916643 209.476703 106.119161 208.542757 106.321678 207.625995 106.524196 206.726601 106.726713 205.844757 106.929231 204.980649 107.131748 204.134458 107.334266 203.306368 107.536783 202.496563 107.739301 201.705227 107.941818 200.932541 108.144336 200.178691 108.346853 199.443858 108.549371 198.728228 108.751888 198.031982 108.954406 197.355305 109.156923 196.698379 109.359441 196.061389 109.561958 195.444517 109.764476 194.847948 109.966993 194.271863 110.169510 193.716448 110.372028 193.181884 110.574545 192.668357 110.777063 192.176048 110.979580 191.705142 111.182098 191.255821 111.384615 190.828270 111.587133 190.422671 111.789650 190.039208 111.992168 189.678064 112.194685 189.339423 112.397203 189.023469 112.599720 188.730329 112.802238 188.459916 113.004755 188.212088 113.207273 187.986700 113.409790 187.783611 113.612308 187.602678 113.814825 187.443759 114.017343 187.306709 114.219860 187.191387 114.422378 187.097650 114.624895 187.025355 114.827413 186.974359 115.029930 186.944521 115.232448 186.935696 115.434965 186.947742 115.637483 186.980516 115.840000 187.033877 116.042517 187.107680 116.245035 187.201783 116.447552 187.316044 116.650070 187.450320 116.852587 187.604467 117.055105 187.778344 117.257622 187.971808 117.460140 188.184715 117.662657 188.416923 117.865175 188.668290 118.067692 188.938672 118.270210 189.227926 118.472727 189.535911 118.675245 189.862483 118.877762 190.207500 119.080280 190.570819 119.282797 190.952297 119.485315 191.351791 119.687832 191.769159 119.890350 192.204257 120.092867 192.656944 120.295385 193.127076 120.497902 193.614511 120.700420 194.119106 120.902937 194.640718 121.105455 195.179204 121.307972 195.734423 121.510490 196.306230 121.713007 196.894483 121.915524 197.499040 122.118042 198.119757 122.320559 198.756493 122.523077 199.409104 122.725594 200.077447 122.928112 200.761380 123.130629 201.460761 123.333147 202.175445 123.535664 202.905291 123.738182 203.650156 123.940699 204.409897 124.143217 205.184371 124.345734 205.973436 124.548252 206.776949 124.750769 207.594767 124.953287 208.426747 125.155804 209.272747 125.358322 210.132624 125.560839 211.006235 125.763357 211.893438 125.965874 212.794089 126.168392 213.708046 126.370909 214.635166 126.573427 215.575307 126.775944 216.528326 126.978462 217.494079 127.180979 218.472425 127.383497 219.463220 127.586014 220.466322 127.788531 221.481588 127.991049 222.508876 128.193566 223.548041 128.396084 224.598943 128.598601 225.661438 128.801119 226.735383 129.003636 227.820636 129.206154 228.917053 129.408671 230.024493 129.611189 231.142812 129.813706 232.271867 130.016224 233.411517 130.218741 234.561617 130.421259 235.722026 130.623776 236.892601 130.826294 238.073199 131.028811 239.263676 131.231329 240.463892 131.433846 241.673702 131.636364 242.892964 131.838881 244.121535 132.041399 245.359272 132.243916 246.606034 132.446434 247.861676 132.648951 249.126057 132.851469 250.399033 133.053986 251.680462 133.256503 252.970201 133.459021 254.268107 133.661538 255.574038 133.864056 256.887851 134.066573 258.209402 134.269091 259.538550 134.471608 260.875152 134.674126 262.219065 134.876643 263.570146 135.079161 264.928252 135.281678 266.293240 135.484196 267.664969 135.686713 269.043295 135.889231 270.428075 136.091748 271.819167 136.294266 273.216428 136.496783 274.619715 136.699301 276.028885 136.901818 277.443797 137.104336 278.864306 137.306853 280.290270 137.509371 281.721547 137.711888 283.157994 137.914406 284.599468 138.116923 286.045826 138.319441 287.496925 138.521958 288.952624 138.724476 290.412778 138.926993 291.877246 139.129510 293.345884 139.332028 294.818551 139.534545 296.295102 139.737063 297.775395 139.939580 299.259289 140.142098 300.746639 140.344615 302.237303 140.547133 303.731139 140.749650 305.228003 140.952168 306.727754 141.154685 308.230247 141.357203 309.735341 141.559720 311.242893 141.762238 312.752759 141.964755 314.264798 142.167273 315.778866 142.369790 317.294821 142.572308 318.812520 142.774825 320.331821 142.977343 321.852580 143.179860 323.374654 143.382378 324.897902 143.584895 326.422180 143.787413 327.947345 143.989930 329.473256 144.192448 330.999768 144.394965 332.526740 144.597483 334.054028 144.800000 335.581490 145.002517 337.108984 145.205035 338.636365 145.407552 340.163493 145.610070 341.690223 145.812587 343.216413 146.015105 344.741921 146.217622 346.266604 146.420140 347.790318 146.622657 349.312922 146.825175 350.834272 147.027692 352.354226 147.230210 353.872641 147.432727 355.389374 147.635245 356.904282 147.837762 358.417224 148.040280 359.928055 148.242797 361.436634 148.445315 362.942817 148.647832 364.446462 148.850350 365.947426 149.052867 367.445566 149.255385 368.940740 149.457902 370.432805 149.660420 371.921618 149.862937 373.407036 150.065455 374.888917 150.267972 376.367118 150.470490 377.841496 150.673007 379.311908 150.875524 380.778212 151.078042 382.240265 151.280559 383.697924 151.483077 385.151046 151.685594 386.599489 151.888112 388.043110 152.090629 389.481767 152.293147 390.915316 152.495664 392.343614 152.698182 393.766520 152.900699 395.183890 153.103217 396.595581 153.305734 398.001451 153.508252 399.401357 153.710769 400.795157 153.913287 402.182707 154.115804 403.563865 154.318322 404.938488 154.520839 406.306433 154.723357 407.667558 154.925874 409.021719 155.128392 410.368775 155.330909 411.708582 155.533427 413.040998 155.735944 414.365880 155.938462 415.683085 156.140979 416.992470 156.343497 418.293893 156.546014 419.587211 156.748531 420.872281 156.951049 422.148961 157.153566 423.417107 157.356084 424.676578 157.558601 425.927229 157.761119 427.168919 157.963636 428.401505 158.166154 429.624844 158.368671 430.838793 158.571189 432.043210 158.773706 433.237951 158.976224 434.422875 159.178741 435.597837 159.381259 436.762697 159.583776 437.917310 159.786294 439.061534 159.988811 440.195227 160.191329 441.318245 160.393846 442.430446 160.596364 443.531688 160.798881 444.621826 161.001399 445.700720 161.203916 446.768225 161.406434 447.824200 161.608951 448.868500 161.811469 449.900985 162.013986 450.921511 162.216503 451.929934 162.419021 452.926114 162.621538 453.909906 162.824056 454.881168 163.026573 455.839757 163.229091 456.785559 163.431608 457.718572 163.634126 458.638823 163.836643 459.546339 164.039161 460.441147 164.241678 461.323272 164.444196 462.192743 164.646713 463.049585 164.849231 463.893826 165.051748 464.725492 165.254266 465.544609 165.456783 466.351206 165.659301 467.145307 165.861818 467.926941 166.064336 468.696134 166.266853 469.452912 166.469371 470.197302 166.671888 470.929332 166.874406 471.649027 167.076923 472.356415 167.279441 473.051522 167.481958 473.734375 167.684476 474.405001 167.886993 475.063426 168.089510 475.709677 168.292028 476.343782 168.494545 476.965766 168.697063 477.575656 168.899580 478.173480 169.102098 478.759263 169.304615 479.333033 169.507133 479.894817 169.709650 480.444640 169.912168 480.982530 170.114685 481.508514 170.317203 482.022619 170.519720 482.524870 170.722238 483.015295 170.924755 483.493920 171.127273 483.960773 171.329790 484.415880 171.532308 484.859267 171.734825 485.290962 171.937343 485.710991 172.139860 486.119382 172.342378 486.516159 172.544895 486.901351 172.747413 487.274985 172.949930 487.637086 173.152448 487.987682 173.354965 488.326799 173.557483 488.654464 173.760000 488.970704 173.962517 489.275546 174.165035 489.569016 174.367552 489.851141 174.570070 490.121947 174.772587 490.381463 174.975105 490.629713 175.177622 490.866726 175.380140 491.092527 175.582657 491.307143 175.785175 491.510602 175.987692 491.702930 176.190210 491.884154 176.392727 492.054299 176.595245 492.213394 176.797762 492.361465 177.000280 492.498539 177.202797 492.624642 177.405315 492.739800 177.607832 492.844042 177.810350 492.937393 178.012867 493.019881 178.215385 493.091532 178.417902 493.152372 178.620420 493.202429 178.822937 493.241729 179.025455 493.270299 179.227972 493.288166 179.430490 493.295356 179.633007 493.291897 179.835524 493.277814 180.038042 493.253135 180.240559 493.217887 180.443077 493.172095 180.645594 493.115788 180.848112 493.048991 181.050629 492.971731 181.253147 492.884036 181.455664 492.785931 181.658182 492.677444 181.860699 492.558602 182.063217 492.429430 182.265734 492.289956 182.468252 492.140206 182.670769 491.980208 182.873287 491.809988 183.075804 491.629572 183.278322 491.438988 183.480839 491.238262 183.683357 491.027421 183.885874 490.806492 184.088392 490.575501 184.290909 490.334475 184.493427 490.083441 184.695944 489.822426 184.898462 489.551456 185.100979 489.270558 185.303497 488.979759 185.506014 488.679086 185.708531 488.368564 185.911049 488.048222 186.113566 487.718086 186.316084 487.378182 186.518601 487.028537 186.721119 486.669178 186.923636 486.300132 187.126154 485.921426 187.328671 485.533086 187.531189 485.135138 187.733706 484.727610 187.936224 484.310529 188.138741 483.883921 188.341259 483.447812 188.543776 483.002231 188.746294 482.547202 188.948811 482.082754 189.151329 481.608912 189.353846 481.125704 189.556364 480.633157 189.758881 480.131296 189.961399 479.620149 190.163916 479.099743 190.366434 478.570103 190.568951 478.031258 190.771469 477.483234 190.973986 476.926057 191.176503 476.359754 191.379021 475.784352 191.581538 475.199878 191.784056 474.606358 191.986573 474.003819 192.189091 473.392288 192.391608 472.771792 192.594126 472.142357 192.796643 471.504010 192.999161 470.856778 193.201678 470.200688 193.404196 469.535765 193.606713 468.862038 193.809231 468.179533 194.011748 467.488276 194.214266 466.788294 194.416783 466.079615 194.619301 465.362264 194.821818 464.636268 195.024336 463.901655 195.226853 463.158450 195.429371 462.406681 195.631888 461.646375 195.834406 460.877558 196.036923 460.100256 196.239441 459.314497 196.441958 458.520308 196.644476 457.717714 196.846993 456.906744 197.049510 456.087423 197.252028 455.259778 197.454545 454.423836 197.657063 453.579624 197.859580 452.727169 198.062098 451.866497 198.264615 450.997634 198.467133 450.120609 198.669650 449.235447 198.872168 448.342175 199.074685 447.440820 199.277203 446.531408 199.479720 445.613967 199.682238 444.688523 199.884755 443.755103 200.087273 442.813734 200.289790 441.864442 200.492308 440.907254 200.694825 439.942197 200.897343 438.969297 201.099860 437.988582 201.302378 437.000077 201.504895 436.003811 201.707413 434.999809 201.909930 433.988098 202.112448 432.968705 202.314965 431.941657 202.517483 430.906980 202.720000 429.864701 202.922517 428.814848 203.125035 427.757445 203.327552 426.692522 203.530070 425.620103 203.732587 424.540217 203.935105 423.452889 204.137622 422.358146 204.340140 421.256015 204.542657 420.146523 204.745175 419.029697 204.947692 417.905563 205.150210 416.774148 205.352727 415.635479 205.555245 414.489582 205.757762 413.336485 205.960280 412.176213 206.162797 411.008794 206.365315 409.834255 206.567832 408.652621 206.770350 407.463921 206.972867 406.268180 207.175385 405.065426 207.377902 403.855685 207.580420 402.638984 207.782937 401.415349 207.985455 400.184807 208.187972 398.947386 208.390490 397.703111 208.593007 396.452010 208.795524 395.194110 208.998042 393.929436 209.200559 392.658016 209.403077 391.379877 209.605594 390.095044 209.808112 388.803546 210.010629 387.505409 210.213147 386.200658 210.415664 384.889322 210.618182 383.571427 210.820699 382.247000 211.023217 380.916067 211.225734 379.578655 211.428252 378.234791 211.630769 376.884501 211.833287 375.527813 212.035804 374.164753 212.238322 372.795348 212.440839 371.419624 212.643357 370.037609 212.845874 368.649328 213.048392 367.254810 213.250909 365.854079 213.453427 364.447164 213.655944 363.034091 213.858462 361.614897 214.060979 360.189656 214.263497 358.758453 214.466014 357.321373 214.668531 355.878501 214.871049 354.429922 215.073566 352.975720 215.276084 351.515980 215.478601 350.050788 215.681119 348.580227 215.883636 347.104383 216.086154 345.623341 216.288671 344.137184 216.491189 342.645999 216.693706 341.149869 216.896224 339.648881 217.098741 338.143117 217.301259 336.632664 217.503776 335.117606 217.706294 333.598027 217.908811 332.074013 218.111329 330.545649 218.313846 329.013018 218.516364 327.476207 218.718881 325.935300 218.921399 324.390380 219.123916 322.841535 219.326434 321.288847 219.528951 319.732403 219.731469 318.172286 219.933986 316.608582 220.136503 315.041375 220.339021 313.470750 220.541538 311.896792 220.744056 310.319586 220.946573 308.739216 221.149091 307.155767 221.351608 305.569325 221.554126 303.979974 221.756643 302.387798 221.959161 300.792883 222.161678 299.195313 222.364196 297.595173 222.566713 295.992548 222.769231 294.387522 222.971748 292.780181 223.174266 291.170610 223.376783 289.558892 223.579301 287.945113 223.781818 286.329358 223.984336 284.711711 224.186853 283.092258 224.389371 281.471082 224.591888 279.848269 224.794406 278.223904 224.996923 276.598071 225.199441 274.970856 225.401958 273.342342 225.604476 271.712615 225.806993 270.081760 226.009510 268.449861 226.212028 266.817004 226.414545 265.183272 226.617063 263.548751 226.819580 261.913526 227.022098 260.277681 227.224615 258.641301 227.427133 257.004471 227.629650 255.367275 227.832168 253.729800 228.034685 252.092128 228.237203 250.454346 228.439720 248.816538 228.642238 247.178788 228.844755 245.541182 229.047273 243.903804 229.249790 242.266739 229.452308 240.630072 229.654825 238.993888 229.857343 237.358271 230.059860 235.723306 230.262378 234.089079 230.464895 232.455673 230.667413 230.823174 230.869930 229.191666 231.072448 227.561235 231.274965 225.931965 231.477483 224.303940 231.680000 222.677247 231.882517 221.051968 232.085035 219.428190 232.287552 217.805997 232.490070 216.185473 232.692587 214.566704 232.895105 212.949775 233.097622 211.334770 233.300140 209.721773 233.502657 208.110871 233.705175 206.502147 233.907692 204.895686 234.110210 203.291574 234.312727 201.689894 234.515245 200.090732 234.717762 198.494173 234.920280 196.900301 235.122797 195.309201 235.325315 193.720959 235.527832 192.135657 235.730350 190.553383 235.932867 188.974220 236.135385 187.398252 236.337902 185.825566 236.540420 184.256245 236.742937 182.690375 236.945455 181.128040 237.147972 179.569326 237.350490 178.014316 237.553007 176.463095 237.755524 174.915749 237.958042 173.372363 238.160559 171.833020 238.363077 170.297807 238.565594 168.766807 238.768112 167.240105 238.970629 165.717787 239.173147 164.199936 239.375664 162.686639 239.578182 161.177979 239.780699 159.674041 239.983217 158.174911 240.185734 156.680672 240.388252 155.191411 240.590769 153.707211 240.793287 152.228157 240.995804 150.754335 241.198322 149.285828 241.400839 147.822722 241.603357 146.365102 241.805874 144.913052 242.008392 143.466658 242.210909 142.026003 242.413427 140.591173 242.615944 139.162252 242.818462 137.739326 243.020979 136.322479 243.223497 134.911796 243.426014 133.507361 243.628531 132.109261 243.831049 130.717578 244.033566 129.332398 244.236084 127.953807 244.438601 126.581888 244.641119 125.216726 244.843636 123.858407 245.046154 122.507014 245.248671 121.162634 245.451189 119.825350 245.653706 118.495248 245.856224 117.172412 246.058741 115.856927 246.261259 114.548878 246.463776 113.248349 246.666294 111.955426 246.868811 110.670193 247.071329 109.392735 247.273846 108.123137 247.476364 106.861484 247.678881 105.607860 247.881399 104.362350 248.083916 103.125039 248.286434 101.896012 248.488951 100.675353 248.691469 99.463148 248.893986 98.259481 249.096503 97.064436 249.299021 95.878100 249.501538 94.700556 249.704056 93.531890 249.906573 92.372185 250.109091 91.221528 250.311608 90.080002 250.514126 88.947693 250.716643 87.824685 250.919161 86.711063 251.121678 85.606912 251.324196 84.512317 251.526713 83.427362 251.729231 82.352133 251.931748 81.286713 252.134266 80.231189 252.336783 79.185644 252.539301 78.150164 252.741818 77.124832 252.944336 76.109735 253.146853 75.104957 253.349371 74.110582 253.551888 73.126696 253.754406 72.153383 253.956923 71.190728 254.159441 70.238816 254.361958 69.297732 254.564476 68.367560 254.766993 67.448385 254.969510 66.540292 255.172028 65.643366 255.374545 64.757691 255.577063 63.883353 255.779580 63.020436 255.982098 62.169025 256.184615 61.329205 256.387133 60.501060 256.589650 59.684676 256.792168 58.880137 256.994685 58.087528 257.197203 57.306933 257.399720 56.538438 257.602238 55.782127 257.804755 55.038086 258.007273 54.306398 258.209790 53.587149 258.412308 52.880424 258.614825 52.186307 258.817343 51.504883 259.019860 50.836237 259.222378 50.180453 259.424895 49.537617 259.627413 48.907814 259.829930 48.291127 260.032448 47.687642 260.234965 47.097444 260.437483 46.520617 260.640000 45.957247 260.842517 45.407417 261.045035 44.871214 261.247552 44.348721 261.450070 43.840023 261.652587 43.345206 261.855105 42.864354 262.057622 42.397551 262.260140 41.944883 262.462657 41.506435 262.665175 41.082291 262.867692 40.672535 263.070210 40.277254 263.272727 39.896531 263.475245 39.530451 263.677762 39.179100 263.880280 38.842561 264.082797 38.520921 264.285315 38.214262 264.487832 37.922642 264.690350 37.646000 264.892867 37.384246 265.095385 37.137289 265.297902 36.905042 265.500420 36.687412 265.702937 36.484312 265.905455 36.295651 266.107972 36.121340 266.310490 35.961289 266.513007 35.815407 266.715524 35.683606 266.918042 35.565796 267.120559 35.461886 267.323077 35.371788 267.525594 35.295411 267.728112 35.232666 267.930629 35.183463 268.133147 35.147712 268.335664 35.125324 268.538182 35.116208 268.740699 35.120276 268.943217 35.137437 269.145734 35.167601 269.348252 35.210680 269.550769 35.266583 269.753287 35.335220 269.955804 35.416502 270.158322 35.510339 270.360839 35.616642 270.563357 35.735320 270.765874 35.866283 270.968392 36.009443 271.170909 36.164710 271.373427 36.331993 271.575944 36.511203 271.778462 36.702250 271.980979 36.905045 272.183497 37.119497 272.386014 37.345518 272.588531 37.583017 272.791049 37.831904 272.993566 38.092090 273.196084 38.363486 273.398601 38.646001 273.601119 38.939545 273.803636 39.244030 274.006154 39.559365 274.208671 39.885460 274.411189 40.222226 274.613706 40.569574 274.816224 40.927412 275.018741 41.295652 275.221259 41.674204 275.423776 42.062979 275.626294 42.461885 275.828811 42.870835 276.031329 43.289737 276.233846 43.718503 276.436364 44.157042 276.638881 44.605265 276.841399 45.063082 277.043916 45.530404 277.246434 46.007140 277.448951 46.493201 277.651469 46.988497 277.853986 47.492939 278.056503 48.006437 278.259021 48.528900 278.461538 49.060240 278.664056 49.600366 278.866573 50.149189 279.069091 50.706620 279.271608 51.272567 279.474126 51.846943 279.676643 52.429656 279.879161 53.020617 280.081678 53.619737 280.284196 54.226926 280.486713 54.842094 280.689231 55.465151 280.891748 56.096008 281.094266 56.734574 281.296783 57.380761 281.499301 58.034478 281.701818 58.695636 281.904336 59.364145 282.106853 60.039915 282.309371 60.722856 282.511888 61.412879 282.714406 62.109895 282.916923 62.813812 283.119441 63.524542 283.321958 64.241996 283.524476 64.966082 283.726993 65.696712 283.929510 66.433795 284.132028 67.177242 284.334545 67.926964 284.537063 68.682870 284.739580 69.444871 284.942098 70.212877 285.144615 70.986799 285.347133 71.766546 285.549650 72.552029 285.752168 73.343158 285.954685 74.139843 286.157203 74.941996 286.359720 75.749525 286.562238 76.562342 286.764755 77.380356 286.967273 78.203478 287.169790 79.031618 287.372308 79.864686 287.574825 80.702593 287.777343 81.545249 287.979860 82.392564 288.182378 83.244449 288.384895 84.100813 288.587413 84.961568 288.789930 85.826623 288.992448 86.695888 289.194965 87.569274 289.397483 88.446691 289.600000 89.328050 289.802517 90.213260 290.005035 91.102233 290.207552 91.994877 290.410070 92.891104 290.612587 93.790824 290.815105 94.693947 291.017622 95.600383 291.220140 96.510043 291.422657 97.422836 291.625175 98.338674 291.827692 99.257466 292.030210 100.179123 292.232727 101.103555 292.435245 102.030672 292.637762 102.960384 292.840280 103.892603 293.042797 104.827237 293.245315 105.764198 293.447832 106.703395 293.650350 107.644739 293.852867 108.588141 294.055385 109.533509 294.257902 110.480756 294.460420 111.429791 294.662937 112.380523 294.865455 113.332865 295.067972 114.286725 295.270490 115.242014 295.473007 116.198643 295.675524 117.156521 295.878042 118.115559 296.080559 119.075667 296.283077 120.036756 296.485594 120.998736 296.688112 121.961516 296.890629 122.925008 297.093147 123.889121 297.295664 124.853767 297.498182 125.818854 297.700699 126.784293 297.903217 127.749996 298.105734 128.715871 298.308252 129.681830 298.510769 130.647781 298.713287 131.613637 298.915804 132.579307 299.118322 133.544701 299.320839 134.509730 299.523357 135.474303 299.725874 136.438332 299.928392 137.401726 300.130909 138.364395 300.333427 139.326251 300.535944 140.287203 300.738462 141.247161 300.940979 142.206036 301.143497 143.163738 301.346014 144.120178 301.548531 145.075265 301.751049 146.028910 301.953566 146.981023 302.156084 147.931514 302.358601 148.880295 302.561119 149.827274 302.763636 150.772362 302.966154 151.715470 303.168671 152.656508 303.371189 153.595386 303.573706 154.532014 303.776224 155.466303 303.978741 156.398163 304.181259 157.327503 304.383776 158.254236 304.586294 159.178270 304.788811 160.099516 304.991329 161.017884 305.193846 161.933285 305.396364 162.845628 305.598881 163.754825 305.801399 164.660785 306.003916 165.563419 306.206434 166.462637 306.408951 167.358349 306.611469 168.250465 306.813986 169.138896 307.016503 170.023552 307.219021 170.904343 307.421538 171.781180 307.624056 172.653973 307.826573 173.522632 308.029091 174.387067 308.231608 175.247189 308.434126 176.102908 308.636643 176.954134 308.839161 177.800777 309.041678 178.642749 309.244196 179.479958 309.446713 180.312316 309.649231 181.139732 309.851748 181.962117 310.054266 182.779381 310.256783 183.591435 310.459301 184.398188 310.661818 185.199552 310.864336 185.995435 311.066853 186.785749 311.269371 187.570404 311.471888 188.349310 311.674406 189.122377 311.876923 189.889516 312.079441 190.650636 312.281958 191.405649 312.484476 192.154464 312.686993 192.896992 312.889510 193.633143 313.092028 194.362827 313.294545 195.085955 313.497063 195.802437 313.699580 196.512182 313.902098 197.215102 314.104615 197.911107 314.307133 198.600106 314.509650 199.282011 314.712168 199.956731 314.914685 200.624177 315.117203 201.284277 315.319720 201.937033 315.522238 202.582466 315.724755 203.220595 315.927273 203.851441 316.129790 204.475024 316.332308 205.091365 316.534825 205.700482 316.737343 206.302397 316.939860 206.897130 317.142378 207.484700 317.344895 208.065129 317.547413 208.638436 317.749930 209.204641 317.952448 209.763766 318.154965 210.315829 318.357483 210.860851 318.560000 211.398852 318.762517 211.929853 318.965035 212.453873 319.167552 212.970933 319.370070 213.481053 319.572587 213.984254 319.775105 214.480554 319.977622 214.969976 320.180140 215.452538 320.382657 215.928261 320.585175 216.397165 320.787692 216.859270 320.990210 217.314597 321.192727 217.763166 321.395245 218.204997 321.597762 218.640110 321.800280 219.068525 322.002797 219.490262 322.205315 219.905342 322.407832 220.313785 322.610350 220.715611 322.812867 221.110841 323.015385 221.499494 323.217902 221.881590 323.420420 222.257150 323.622937 222.626194 323.825455 222.988743 324.027972 223.344815 324.230490 223.694433 324.433007 224.037615 324.635524 224.374382 324.838042 224.704754 325.040559 225.028752 325.243077 225.346395 325.445594 225.657704 325.648112 225.962698 325.850629 226.261399 326.053147 226.553826 326.255664 226.840000 326.458182 227.119940 326.660699 227.393667 326.863217 227.661202 327.065734 227.922563 327.268252 228.177772 327.470769 228.426848 327.673287 228.669813 327.875804 228.906685 328.078322 229.137485 328.280839 229.362234 328.483357 229.580952 328.685874 229.793658 328.888392 230.000373 329.090909 230.201117 329.293427 230.395911 329.495944 230.584774 329.698462 230.767727 329.900979 230.944790 330.103497 231.115983 330.306014 231.281326 330.508531 231.440840 330.711049 231.594544 330.913566 231.742460 331.116084 231.884606 331.318601 232.021003 331.521119 232.151672 331.723636 232.276633 331.926154 232.395905 332.128671 232.509510 332.331189 232.617466 332.533706 232.719796 332.736224 232.816517 332.938741 232.907651 333.141259 232.993219 333.343776 233.073239 333.546294 233.147733 333.748811 233.216720 333.951329 233.280222 334.153846 233.338257 334.356364 233.390846 334.558881 233.438009 334.761399 233.479767 334.963916 233.516139 335.166434 233.547147 335.368951 233.572809 335.571469 233.593147 335.773986 233.608180 335.976503 233.617929 336.179021 233.622414 336.381538 233.621654 336.584056 233.615671 336.786573 233.604484 336.989091 233.588114 337.191608 233.566581 337.394126 233.539904 337.596643 233.508105 337.799161 233.471203 338.001678 233.429218 338.204196 233.382172 338.406713 233.330083 338.609231 233.272972 338.811748 233.210860 339.014266 233.143766 339.216783 233.071711 339.419301 232.994714 339.621818 232.912797 339.824336 232.825979 340.026853 232.734280 340.229371 232.637721 340.431888 232.536322 340.634406 232.430103 340.836923 232.319084 341.039441 232.203285 341.241958 232.082727 341.444476 231.957430 341.646993 231.827414 341.849510 231.692699 342.052028 231.553305 342.254545 231.409253 342.457063 231.260562 342.659580 231.107254 342.862098 230.949347 343.064615 230.786863 343.267133 230.619821 343.469650 230.448243 343.672168 230.272146 343.874685 230.091553 344.077203 229.906484 344.279720 229.716957 344.482238 229.522994 344.684755 229.324616 344.887273 229.121841 345.089790 228.914690 345.292308 228.703184 345.494825 228.487342 345.697343 228.267185 345.899860 228.042733 346.102378 227.814006 346.304895 227.581025 346.507413 227.343809 346.709930 227.102379 346.912448 226.856754 347.114965 226.606956 347.317483 226.353004 347.520000 226.094919 347.722517 225.832720 347.925035 225.566428 348.127552 225.296064 348.330070 225.021646 348.532587 224.743196 348.735105 224.460734 348.937622 224.174279 349.140140 223.883852 349.342657 223.589474 349.545175 223.291164 349.747692 222.988943 349.950210 222.682830 350.152727 222.372846 350.355245 222.059012 350.557762 221.741347 350.760280 221.419871 350.962797 221.094605 351.165315 220.765569 351.367832 220.432783 351.570350 220.096268 351.772867 219.756043 351.975385 219.412129 352.177902 219.064545 352.380420 218.713313 352.582937 218.358451 352.785455 217.999982 352.987972 217.637924 353.190490 217.272297 353.393007 216.903123 353.595524 216.530421 353.798042 216.154212 354.000559 215.774514 354.203077 215.391350 354.405594 215.004739 354.608112 214.614701 354.810629 214.221256 355.013147 213.824425 355.215664 213.424227 355.418182 213.020684 355.620699 212.613814 355.823217 212.203639 356.025734 211.790178 356.228252 211.373452 356.430769 210.953481 356.633287 210.530285 356.835804 210.103884 357.038322 209.674299 357.240839 209.241549 357.443357 208.805656 357.645874 208.366638 357.848392 207.924516 358.050909 207.479311 358.253427 207.031042 358.455944 206.579730 358.658462 206.125395 358.860979 205.668058 359.063497 205.207737 359.266014 204.744455 359.468531 204.278229 359.671049 203.809082 359.873566 203.337033 360.076084 202.862103 360.278601 202.384310 360.481119 201.903677 360.683636 201.420222 360.886154 200.933966 361.088671 200.444930 361.291189 199.953133 361.493706 199.458596 361.696224 198.961338 361.898741 198.461381 362.101259 197.958744 362.303776 197.453447 362.506294 196.945511 362.708811 196.434955 362.911329 195.921801 363.113846 195.406068 363.316364 194.887776 363.518881 194.366945 363.721399 193.843597 363.923916 193.317750 364.126434 192.789426 364.328951 192.258643 364.531469 191.725423 364.733986 191.189786 364.936503 190.651752 365.139021 190.111341 365.341538 189.568573 365.544056 189.023469 365.746573 188.476050 365.949091 187.926352 366.151608 187.374408 366.354126 186.820255 366.556643 186.263928 366.759161 185.705463 366.961678 185.144896 367.164196 184.582263 367.366713 184.017599 367.569231 183.450940 367.771748 182.882321 367.974266 182.311778 368.176783 181.739348 368.379301 181.165065 368.581818 180.588965 368.784336 180.011084 368.986853 179.431459 369.189371 178.850123 369.391888 178.267114 369.594406 177.682466 369.796923 177.096216 369.999441 176.508399 370.201958 175.919050 370.404476 175.328207 370.606993 174.735903 370.809510 174.142176 371.012028 173.547060 371.214545 172.950591 371.417063 172.352806 371.619580 171.753739 371.822098 171.153426 372.024615 170.551904 372.227133 169.949207 372.429650 169.345372 372.632168 168.740433 372.834685 168.134428 373.037203 167.527391 373.239720 166.919359 373.442238 166.310366 373.644755 165.700449 373.847273 165.089643 374.049790 164.477984 374.252308 163.865508 374.454825 163.252250 374.657343 162.638247 374.859860 162.023533 375.062378 161.408144 375.264895 160.792117 375.467413 160.175486 375.669930 159.558288 375.872448 158.940558 376.074965 158.322332 376.277483 157.703646 376.480000 157.084534 376.682517 156.465034 376.885035 155.845181 377.087552 155.225009 377.290070 154.604556 377.492587 153.983857 377.695105 153.362947 377.897622 152.741862 378.100140 152.120638 378.302657 151.499310 378.505175 150.877915 378.707692 150.256487 378.910210 149.635063 379.112727 149.013678 379.315245 148.392368 379.517762 147.771169 379.720280 147.150116 379.922797 146.529245 380.125315 145.908592 380.327832 145.288193 380.530350 144.668082 380.732867 144.048296 380.935385 143.428871 381.137902 142.809842 381.340420 142.191244 381.542937 141.573114 381.745455 140.955488 381.947972 140.338400 382.150490 139.721887 382.353007 139.105985 382.555524 138.490728 382.758042 137.876153 382.960559 137.262295 383.163077 136.649191 383.365594 136.036875 383.568112 135.425384 383.770629 134.814753 383.973147 134.205017 384.175664 133.596214 384.378182 132.988377 384.580699 132.381543 384.783217 131.775748 384.985734 131.171028 385.188252 130.567417 385.390769 129.964952 385.593287 129.363668 385.795804 128.763602 385.998322 128.164788 386.200839 127.567262 386.403357 126.971061 386.605874 126.376219 386.808392 125.782773 387.010909 125.190759 387.213427 124.600211 387.415944 124.011166 387.618462 123.423659 387.820979 122.837726 388.023497 122.253402 388.226014 121.670724 388.428531 121.089727 388.631049 120.510447 388.833566 119.932919 389.036084 119.357180 389.238601 118.783264 389.441119 118.211208 389.643636 117.641046 389.846154 117.072816 390.048671 116.506553 390.251189 115.942291 390.453706 115.380068 390.656224 114.819918 390.858741 114.261877 391.061259 113.705982 391.263776 113.152267 391.466294 112.600769 391.668811 112.051523 391.871329 111.504564 392.073846 110.959929 392.276364 110.417654 392.478881 109.877773 392.681399 109.340322 392.883916 108.805338 393.086434 108.272856 393.288951 107.742912 393.491469 107.215541 393.693986 106.690778 393.896503 106.168661 394.099021 105.649224 394.301538 105.132503 394.504056 104.618534 394.706573 104.107352 394.909091 103.598993 395.111608 103.093494 395.314126 102.590889 395.516643 102.091214 395.719161 101.594505 395.921678 101.100797 396.124196 100.610127 396.326713 100.122530 396.529231 99.638042 396.731748 99.156698 396.934266 98.678534 397.136783 98.203586 397.339301 97.731889 397.541818 97.263479 397.744336 96.798393 397.946853 96.336664 398.149371 95.878330 398.351888 95.423426 398.554406 94.971988 398.756923 94.524051 398.959441 94.079651 399.161958 93.638823 399.364476 93.201604 399.566993 92.768029 399.769510 92.338133 399.972028 91.911954 400.174545 91.489525 400.377063 91.070883 400.579580 90.656063 400.782098 90.245102 400.984615 89.838035 401.187133 89.434897 401.389650 89.035724 401.592168 88.640553 401.794685 88.249418 401.997203 87.862356 402.199720 87.479401 402.402238 87.100590 402.604755 86.725959 402.807273 86.355543 403.009790 85.989377 403.212308 85.627499 403.414825 85.269942 403.617343 84.916743 403.819860 84.567938 404.022378 84.223562 404.224895 83.883651 404.427413 83.548240 404.629930 83.217366 404.832448 82.891064 405.034965 82.569370 405.237483 82.252319 405.440000 81.939947 405.642517 81.632290 405.845035 81.329384 406.047552 81.031263 406.250070 80.737965 406.452587 80.449524 406.655105 80.165976 406.857622 79.887357 407.060140 79.613703 407.262657 79.345049 407.465175 79.081431 407.667692 78.822885 407.870210 78.569447 408.072727 78.321151 408.275245 78.078034 408.477762 77.840132 408.680280 77.607479 408.882797 77.380113 409.085315 77.158068 409.287832 76.941380 409.490350 76.730086 409.692867 76.524220 409.895385 76.323818 410.097902 76.128916 410.300420 75.939550 410.502937 75.755755 410.705455 75.577567 410.907972 75.405023 411.110490 75.238156 411.313007 75.077004 411.515524 74.921601 411.718042 74.771984 411.920559 74.628188 412.123077 74.490250 412.325594 74.358203 412.528112 74.232085 412.730629 74.111931 412.933147 73.997777 413.135664 73.889658 413.338182 73.787610 413.540699 73.691669 413.743217 73.601870 413.945734 73.518250 414.148252 73.440843 414.350769 73.369686 414.553287 73.304814 414.755804 73.246262 414.958322 73.194068 415.160839 73.148265 415.363357 73.108891 415.565874 73.075980 415.768392 73.049569 415.970909 73.029693 416.173427 73.016387 416.375944 73.009672 416.578462 73.009508 416.780979 73.015839 416.983497 73.028607 417.186014 73.047758 417.388531 73.073235 417.591049 73.104982 417.793566 73.142943 417.996084 73.187062 418.198601 73.237284 418.401119 73.293551 418.603636 73.355808 418.806154 73.424000 419.008671 73.498069 419.211189 73.577959 419.413706 73.663616 419.616224 73.754982 419.818741 73.852003 420.021259 73.954620 420.223776 74.062780 420.426294 74.176424 420.628811 74.295499 420.831329 74.419947 421.033846 74.549712 421.236364 74.684739 421.438881 74.824971 421.641399 74.970352 421.843916 75.120827 422.046434 75.276338 422.248951 75.436831 422.451469 75.602250 422.653986 75.772537 422.856503 75.947637 423.059021 76.127494 423.261538 76.312053 423.464056 76.501256 423.666573 76.695048 423.869091 76.893373 424.071608 77.096174 424.274126 77.303397 424.476643 77.514984 424.679161 77.730879 424.881678 77.951028 425.084196 78.175373 425.286713 78.403858 425.489231 78.636428 425.691748 78.873027 425.894266 79.113598 426.096783 79.358085 426.299301 79.606432 426.501818 79.858584 426.704336 80.114484 426.906853 80.374076 427.109371 80.637305 427.311888 80.904113 427.514406 81.174446 427.716923 81.448246 427.919441 81.725459 428.121958 82.006027 428.324476 82.289895 428.526993 82.577008 428.729510 82.867307 428.932028 83.160739 429.134545 83.457247 429.337063 83.756774 429.539580 84.059265 429.742098 84.364663 429.944615 84.672913 430.147133 84.983958 430.349650 85.297743 430.552168 85.614211 430.754685 85.933307 430.957203 86.254974 431.159720 86.579156 431.362238 86.905798 431.564755 87.234843 431.767273 87.566235 431.969790 87.899918 432.172308 88.235836 432.374825 88.573933 432.577343 88.914153 432.779860 89.256440 432.982378 89.600738 433.184895 89.946991 433.387413 90.295142 433.589930 90.645137 433.792448 90.996918 433.994965 91.350430 434.197483 91.705616 434.400000 92.062421 434.602517 92.420789 434.805035 92.780663 435.007552 93.141988 435.210070 93.504707 435.412587 93.868764 435.615105 94.234104 435.817622 94.600670 436.020140 94.968407 436.222657 95.337257 436.425175 95.707166 436.627692 96.078077 436.830210 96.449934 437.032727 96.822681 437.235245 97.196262 437.437762 97.570621 437.640280 97.945702 437.842797 98.321449 438.045315 98.697805 438.247832 99.074716 438.450350 99.452124 438.652867 99.829974 438.855385 100.208209 439.057902 100.586775 439.260420 100.965613 439.462937 101.344670 439.665455 101.723887 439.867972 102.103211 440.070490 102.482583 440.273007 102.861949 440.475524 103.241252 440.678042 103.620437 440.880559 103.999447 441.083077 104.378226 441.285594 104.756718 441.488112 105.134867 441.690629 105.512617 441.893147 105.889913 442.095664 106.266697 442.298182 106.642914 442.500699 107.018508 442.703217 107.393423 442.905734 107.767603 443.108252 108.140992 443.310769 108.513533 443.513287 108.885171 443.715804 109.255849 443.918322 109.625512 444.120839 109.994104 444.323357 110.361568 444.525874 110.727849 444.728392 111.092890 444.930909 111.456635 445.133427 111.819029 445.335944 112.180015 445.538462 112.539538 445.740979 112.897540 445.943497 113.253967 446.146014 113.608762 446.348531 113.961869 446.551049 114.313231 446.753566 114.662794 446.956084 115.010501 447.158601 115.356296 447.361119 115.700123 447.563636 116.041925 447.766154 116.381647 447.968671 116.719233 448.171189 117.054627 448.373706 117.387772 448.576224 117.718613 448.778741 118.047093 448.981259 118.373157 449.183776 118.696749 449.386294 119.017812 449.588811 119.336290 449.791329 119.652127 449.993846 119.965268 450.196364 120.275656 450.398881 120.583236 450.601399 120.887950 450.803916 121.189744 451.006434 121.488561 451.208951 121.784345 451.411469 122.077039 451.613986 122.366589 451.816503 122.652938 452.019021 122.936030 452.221538 123.215808 452.424056 123.492217 452.626573 123.765201 452.829091 124.034704 453.031608 124.300669 453.234126 124.563041 453.436643 124.821764 453.639161 125.076781 453.841678 125.328036 454.044196 125.575474 454.246713 125.819039 454.449231 126.058673 454.651748 126.294322 454.854266 126.525930 455.056783 126.753439 455.259301 126.976795 455.461818 127.195941 455.664336 127.410821 455.866853 127.621379 456.069371 127.827559 456.271888 128.029305 456.474406 128.226561 456.676923 128.419271 456.879441 128.607379 457.081958 128.790828 457.284476 128.969564 457.486993 129.143529 457.689510 129.312667 457.892028 129.476924 458.094545 129.636242 458.297063 129.790565 458.499580 129.939838 458.702098 130.084004 458.904615 130.223008 459.107133 130.356794 459.309650 130.485304 459.512168 130.608484 459.714685 130.726277 459.917203 130.838627 460.119720 130.945479 460.322238 131.046775 460.524755 131.142461 460.727273 131.232480 460.929790 131.316775 461.132308 131.395292 461.334825 131.467974 461.537343 131.534764 461.739860 131.595607 461.942378 131.650447 462.144895 131.699228 462.347413 131.741893 462.549930 131.778387 462.752448 131.808654 462.954965 131.832637 463.157483 131.850281 463.360000 131.861529 463.562517 131.866326 463.765035 131.864615 463.967552 131.856340 464.170070 131.841446 464.372587 131.819876 464.575105 131.791574 464.777622 131.756484 464.980140 131.714551 465.182657 131.665717 465.385175 131.609928 465.587692 131.547126 465.790210 131.477257 465.992727 131.400264 466.195245 131.316090 466.397762 131.224680 466.600280 131.125978 466.802797 131.019928 467.005315 130.906492 467.207832 130.785706 467.410350 130.657626 467.612867 130.522306 467.815385 130.379801 468.017902 130.230166 468.220420 130.073456 468.422937 129.909725 468.625455 129.739029 468.827972 129.561422 469.030490 129.376959 469.233007 129.185696 469.435524 128.987685 469.638042 128.782984 469.840559 128.571646 470.043077 128.353726 470.245594 128.129280 470.448112 127.898361 470.650629 127.661025 470.853147 127.417327 471.055664 127.167322 471.258182 126.911064 471.460699 126.648608 471.663217 126.380009 471.865734 126.105321 472.068252 125.824601 472.270769 125.537902 472.473287 125.245280 472.675804 124.946788 472.878322 124.642483 473.080839 124.332419 473.283357 124.016650 473.485874 123.695232 473.688392 123.368220 473.890909 123.035668 474.093427 122.697630 474.295944 122.354163 474.498462 122.005321 474.700979 121.651158 474.903497 121.291730 475.106014 120.927091 475.308531 120.557296 475.511049 120.182400 475.713566 119.802458 475.916084 119.417525 476.118601 119.027655 476.321119 118.632903 476.523636 118.233325 476.726154 117.828975 476.928671 117.419908 477.131189 117.006178 477.333706 116.587841 477.536224 116.164951 477.738741 115.737564 477.941259 115.305733 478.143776 114.869515 478.346294 114.428963 478.548811 113.984133 478.751329 113.535079 478.953846 113.081857 479.156364 112.624520 479.358881 112.163125 479.561399 111.697725 479.763916 111.228376 479.966434 110.755133 480.168951 110.278050 480.371469 109.797182 480.573986 109.312584 480.776503 108.824310 480.979021 108.332417 481.181538 107.836958 481.384056 107.337988 481.586573 106.835563 481.789091 106.329737 481.991608 105.820564 482.194126 105.308100 482.396643 104.792400 482.599161 104.273518 482.801678 103.751509 483.004196 103.226429 483.206713 102.698331 483.409231 102.167271 483.611748 101.633304 483.814266 101.096484 484.016783 100.556867 484.219301 100.014506 484.421818 99.469458 484.624336 98.921776 484.826853 98.371516 485.029371 97.818733 485.231888 97.263480 485.434406 96.705814 485.636923 96.145789 485.839441 95.583460 486.041958 95.018881 486.244476 94.452108 486.446993 93.883196 486.649510 93.312198 486.852028 92.739171 487.054545 92.164168 487.257063 91.587245 487.459580 91.008457 487.662098 90.427858 487.864615 89.845504 488.067133 89.261448 488.269650 88.675746 488.472168 88.088454 488.674685 87.499624 488.877203 86.909314 489.079720 86.317576 489.282238 85.724467 489.484755 85.130040 489.687273 84.534351 489.889790 83.937455 490.092308 83.339407 490.294825 82.740261 490.497343 82.140072 490.699860 81.538895 490.902378 80.936784 491.104895 80.333796 491.307413 79.729984 491.509930 79.125403 491.712448 78.520109 491.914965 77.914156 492.117483 77.307598 492.320000 76.700491 492.522517 76.092890 492.725035 75.484849 492.927552 74.876424 493.130070 74.267668 493.332587 73.658638 493.535105 73.049387 493.737622 72.439971 493.940140 71.830444 494.142657 71.220862 494.345175 70.611278 494.547692 70.001749 494.750210 69.392329 494.952727 68.783072 495.155245 68.174033 495.357762 67.565268 495.560280 66.956831 495.762797 66.348777 495.965315 65.741161 496.167832 65.134038 496.370350 64.527462 496.572867 63.921489 496.775385 63.316172 496.977902 62.711568 497.180420 62.107731 497.382937 61.504715 497.585455 60.902576 497.787972 60.301369 497.990490 59.701147 498.193007 59.101967 498.395524 58.503883 498.598042 57.906949 498.800559 57.311221 499.003077 56.716754 499.205594 56.123602 499.408112 55.531819 499.610629 54.941462 499.813147 54.352585 500.015664 53.765242 500.218182 53.179489 500.420699 52.595380 500.623217 52.012971 500.825734 51.432315 501.028252 50.853468 501.230769 50.276485 501.433287 49.701421 501.635804 49.128330 501.838322 48.557267 502.040839 47.988287 502.243357 47.421445 502.445874 46.856795 502.648392 46.294394 502.850909 45.734294 503.053427 45.176552 503.255944 44.621222 503.458462 44.068359 503.660979 43.518018 503.863497 42.970253 504.066014 42.425120 504.268531 41.882673 504.471049 41.342967 504.673566 40.806058 504.876084 40.271999 505.078601 39.740845 505.281119 39.212653 505.483636 38.687475 505.686154 38.165368 505.888671 37.646386 506.091189 37.130583 506.293706 36.618015 506.496224 36.108737 506.698741 35.602803 506.901259 35.100269 507.103776 34.601188 507.306294 34.105617 507.508811 33.613609 507.711329 33.125219 507.913846 32.640503 508.116364 32.159516 508.318881 31.682311 508.521399 31.208945 508.723916 30.739471 508.926434 30.273944 509.128951 29.812421 509.331469 29.354954 509.533986 28.901600 509.736503 28.452413 509.939021 28.007447 510.141538 27.566758 510.344056 27.130401 510.546573 26.698430 510.749091 26.270900 510.951608 25.847866 511.154126 25.429383 511.356643 25.015506 511.559161 24.606289 511.761678 24.201788 511.964196 23.802057 512.166713 23.407151 512.369231 23.017124 512.571748 22.632033 512.774266 22.251931 512.976783 21.876874 513.179301 21.506916 513.381818 21.142112 513.584336 20.782517 513.786853 20.428185 513.989371 20.079172 514.191888 19.735533 514.394406 19.397322 514.596923 19.064595 514.799441 18.737405 515.001958 18.415808 515.204476 18.099858 515.406993 17.789612 515.609510 17.485122 515.812028 17.186445 516.014545 16.893635 516.217063 16.606746 516.419580 16.325834 516.622098 16.050954 516.824615 15.782161 517.027133 15.519508 517.229650 15.263052 517.432168 15.012846 517.634685 14.768933 517.837203 14.531300 518.039720 14.299923 518.242238 14.074776 518.444755 13.855833 518.647273 13.643070 518.849790 13.436462 519.052308 13.235983 519.254825 13.041608 519.457343 12.853311 519.659860 12.671068 519.862378 12.494854 520.064895 12.324642 520.267413 12.160408 520.469930 12.002127 520.672448 11.849773 520.874965 11.703322 521.077483 11.562747 521.280000 11.428024 521.482517 11.299128 521.685035 11.176033 521.887552 11.058714 522.090070 10.947146 522.292587 10.841303 522.495105 10.741161 522.697622 10.646694 522.900140 10.557877 523.102657 10.474685 523.305175 10.397092 523.507692 10.325073 523.710210 10.258604 523.912727 10.197658 524.115245 10.142211 524.317762 10.092238 524.520280 10.047712 524.722797 10.008609 524.925315 9.974905 525.127832 9.946572 525.330350 9.923587 525.532867 9.905924 525.735385 9.893558 525.937902 9.886464 526.140420 9.884615 526.342937 9.887988 526.545455 9.896557 526.747972 9.910297 526.950490 9.929182 527.153007 9.953187 527.355524 9.982288 527.558042 10.016458 527.760559 10.055673 527.963077 10.099907 528.165594 10.149135 528.368112 10.203333 528.570629 10.262474 528.773147 10.326533 528.975664 10.395486 529.178182 10.469307 529.380699 10.547970 529.583217 10.631451 529.785734 10.719725 529.988252 10.812766 530.190769 10.910548 530.393287 11.013047 530.595804 11.120238 530.798322 11.232095 531.000839 11.348593 531.203357 11.469707 531.405874 11.595412 531.608392 11.725681 531.810909 11.860491 532.013427 11.999816 532.215944 12.143631 532.418462 12.291910 532.620979 12.444628 532.823497 12.601760 533.026014 12.763281 533.228531 12.929166 533.431049 13.099389 533.633566 13.273925 533.836084 13.452749 534.038601 13.635836 534.241119 13.823160 534.443636 14.014697 534.646154 14.210420 534.848671 14.410305 535.051189 14.614327 535.253706 14.822460 535.456224 15.034679 535.658741 15.250960 535.861259 15.471276 536.063776 15.695602 536.266294 15.923913 536.468811 16.156185 536.671329 16.392391 536.873846 16.632507 537.076364 16.876507 537.278881 17.124367 537.481399 17.376060 537.683916 17.631562 537.886434 17.890847 538.088951 18.153891 538.291469 18.420667 538.493986 18.691152 538.696503 18.965319 538.899021 19.243143 539.101538 19.524599 539.304056 19.809663 539.506573 20.098307 539.709091 20.390509 539.911608 20.686241 540.114126 20.985480 540.316643 21.288199 540.519161 21.594374 540.721678 21.903979 540.924196 22.216990 541.126713 22.533380 541.329231 22.853125 541.531748 23.176199 541.734266 23.502578 541.936783 23.832235 542.139301 24.165146 542.341818 24.501286 542.544336 24.840629 542.746853 25.183150 542.949371 25.528825 543.151888 25.877626 543.354406 26.229530 543.556923 26.584512 543.759441 26.942545 543.961958 27.303605 544.164476 27.667667 544.366993 28.034705 544.569510 28.404694 544.772028 28.777609 544.974545 29.153424 545.177063 29.532115 545.379580 29.913656 545.582098 30.298023 545.784615 30.685188 545.987133 31.075129 546.189650 31.467819 546.392168 31.863232 546.594685 32.261345 546.797203 32.662131 546.999720 33.065566 547.202238 33.471624 547.404755 33.880280 547.607273 34.291509 547.809790 34.705285 548.012308 35.121583 548.214825 35.540379 548.417343 35.961646 548.619860 36.385360 548.822378 36.811495 549.024895 37.240027 549.227413 37.670929 549.429930 38.104178 549.632448 38.539747 549.834965 38.977611 550.037483 39.417745 550.240000 39.860124 550.442517 40.304722 550.645035 40.751515 550.847552 41.200478 551.050070 41.651584 551.252587 42.104809 551.455105 42.560127 551.657622 43.017514 551.860140 43.476944 552.062657 43.938391 552.265175 44.401831 552.467692 44.867239 552.670210 45.334589 552.872727 45.803855 553.075245 46.275014 553.277762 46.748039 553.480280 47.222905 553.682797 47.699587 553.885315 48.178060 554.087832 48.658299 554.290350 49.140278 554.492867 49.623972 554.695385 50.109356 554.897902 50.596405 555.100420 51.085094 555.302937 51.575396 555.505455 52.067288 555.707972 52.560744 555.910490 53.055738 556.113007 53.552245 556.315524 54.050241 556.518042 54.549700 556.720559 55.050596 556.923077 55.552905 557.125594 56.056601 557.328112 56.561659 557.530629 57.068054 557.733147 57.575760 557.935664 58.084753 558.138182 58.595007 558.340699 59.106497 558.543217 59.619198 558.745734 60.133084 558.948252 60.648131 559.150769 61.164312 559.353287 61.681603 559.555804 62.199979 559.758322 62.719414 559.960839 63.239884 560.163357 63.761362 560.365874 64.283824 560.568392 64.807245 560.770909 65.331598 560.973427 65.856860 561.175944 66.383004 561.378462 66.910007 561.580979 67.437841 561.783497 67.966483 561.986014 68.495906 562.188531 69.026086 562.391049 69.556998 562.593566 70.088616 562.796084 70.620915 562.998601 71.153870 563.201119 71.687455 563.403636 72.221646 563.606154 72.756416 563.808671 73.291742 564.011189 73.827598 564.213706 74.363957 564.416224 74.900796 564.618741 75.438090 564.821259 75.975811 565.023776 76.513937 565.226294 77.052441 565.428811 77.591298 565.631329 78.130482 565.833846 78.669970 566.036364 79.209735 566.238881 79.749752 566.441399 80.289996 566.643916 80.830442 566.846434 81.371065 567.048951 81.911839 567.251469 82.452738 567.453986 82.993739 567.656503 83.534816 567.859021 84.075943 568.061538 84.617095 568.061538 514.000000" /></g></g><g class="titles"><text class="title plot_title" x="400.0" y="26">Phra-Khanong 52</text></g><g class="plot overlay" transform="translate(200, 46)"><g class="series serie-0 color-0"><g class="dots"><circle class="dot reactive tooltip-trigger" cx="11.13846153846154" cy="96.2178032546937" r="2.5" /><desc class="value">240000</desc><desc class="x ">11.13846153846154</desc><desc class="y ">96.2178032546937</desc><desc class="x_label">Jan</desc></g><g class="dots"><circle class="dot reactive tooltip-trigger" cx="61.76783216783217" cy="502.24258949805306" r="2.5" /><desc class="value">205000</desc><desc class="x top">61.76783216783217</desc><desc class="y top">502.24258949805306</desc><desc class="x_label">Feb</desc></g><g class="dots"><circle class="dot reactive tooltip-trigger" cx="112.3972027972028" cy="189.02346868174726" r="2.5" /><desc class="value">232000</desc><desc class="x ">112.3972027972028</desc><desc class="y ">189.02346868174726</desc><desc class="x_label">Mar</desc></g><g class="dots"><circle class="dot reactive tooltip-trigger" cx="163.02657342657344" cy="455.8397567845263" r="2.5" /><desc class="value">209000</desc><desc class="x top">163.02657342657344</desc><desc class="y top">455.8397567845263</desc><desc class="x_label">Apr</desc></g><g class="dots"><circle class="dot reactive tooltip-trigger" cx="213.65594405594408" cy="363.0340913574727" r="2.5" /><desc class="value">217000</desc><desc class="x top">213.65594405594408</desc><desc class="y top">363.0340913574727</desc><desc class="x_label">May</desc></g><g class="dots"><circle class="dot reactive tooltip-trigger" cx="264.2853146853147" cy="38.214262362785234" r="2.5" /><desc class="value">245000</desc><desc class="x ">264.2853146853147</desc><desc class="y ">38.214262362785234</desc><desc class="x_label">Jun</desc></g><g class="dots"><circle class="dot reactive tooltip-trigger" cx="314.9146853146853" cy="200.62417686012896" r="2.5" /><desc class="value">231000</desc><desc class="x left">314.9146853146853</desc><desc class="y left">200.62417686012896</desc><desc class="x_label">Jul</desc></g><g class="dots"><circle class="dot reactive tooltip-trigger" cx="365.54405594405597" cy="189.02346868174726" r="2.5" /><desc class="value">232000</desc><desc class="x left">365.54405594405597</desc><desc class="y left">189.02346868174726</desc><desc class="x_label">Aug</desc></g><g class="dots"><circle class="dot reactive tooltip-trigger" cx="416.17342657342664" cy="73.01638689793032" r="2.5" /><desc class="value">242000</desc><desc class="x left">416.17342657342664</desc><desc class="y left">73.01638689793032</desc><desc class="x_label">Sep</desc></g><g class="dots"><circle class="dot reactive tooltip-trigger" cx="466.8027972027973" cy="131.0199277898388" r="2.5" /><desc class="value">237000</desc><desc class="x left">466.8027972027973</desc><desc class="y left">131.0199277898388</desc><desc class="x_label">Oct</desc></g><g class="dots"><circle class="dot reactive tooltip-trigger" cx="517.4321678321678" cy="15.012846006021846" r="2.5" /><desc class="value">247000</desc><desc class="x left">517.4321678321678</desc><desc class="y left">15.012846006021846</desc><desc class="x_label">Nov</desc></g><g class="dots"><circle class="dot reactive tooltip-trigger" cx="568.0615384615386" cy="84.61709507631201" r="2.5" /><desc class="value">241000</desc><desc class="x left">568.0615384615386</desc><desc class="y left">84.61709507631201</desc><desc class="x_label">Dec</desc></g></g></g><g class="plot text-overlay" transform="translate(200, 46)"><g class="series serie-0 color-0" /></g><g class="plot tooltip-overlay" transform="translate(200, 46)"><g class="tooltip" style="opacity: 0" transform="translate(0 0)"><rect class="tooltip-box" height="0" rx="0" ry="0" width="0" /><g class="text" /></g></g><g class="legends" transform="translate(10, 56)"><g class="legend reactive activate-serie" id="activate-serie-0"><rect class="color-0 reactive" height="12" width="12" x="0.0" y="1.0" /><text x="17.0" y="11.2">Phra-Khanong</text></g></g><g class="legends" transform="translate(790, 56)" /></g></svg>