<?xml version='1.0' encoding='utf-8'?>
<svg xmlns:xlink="http://www.w3.org/1999/xlink" class="pygal-chart" id="chart-4fbf47b4-955b-4694-b1dd-f6ec788233b6" viewBox="0 0 800 600" xmlns="http://www.w3.org/2000/svg"><!--Generated with pygal 2.0.11 (etree) ©Kozea 2011-2015 on 2015-12-10--><!--http://pygal.org--><!--http://github.com/Kozea/pygal--><defs><style type="text/css">#chart-4fbf47b4-955b-4694-b1dd-f6ec788233b6{-webkit-user-select:none;-webkit-font-smoothing:antialiased;font-family:Consolas,"Liberation Mono",Menlo,Courier,monospace}#chart-4fbf47b4-955b-4694-b1dd-f6ec788233b6 .title{font-family:Consolas,"Liberation Mono",Menlo,Courier,monospace;font-size:16px}#chart-4fbf47b4-955b-4694-b1dd-f6ec788233b6 .legends .legend text{font-family:Consolas,"Liberation Mono",Menlo,Courier,monospace;font-size:14px}#chart-4fbf47b4-955b-4694-b1dd-f6ec788233b6 .axis text{font-family:Consolas,"Liberation Mono",Menlo,Courier,monospace;font-size:10px}#chart-4fbf47b4-955b-4694-b1dd-f6ec788233b6 .axis text.major{font-family:Consolas,"Liberation Mono",Menlo,Courier,monospace;font-size:10px}#chart-4fbf47b4-955b-4694-b1dd-f6ec788233b6 .text-overlay text.value{font-family:Consolas,"Liberation Mono",Menlo,Courier,monospace;font-size:16px}#chart-4fbf47b4-955b-4694-b1dd-f6ec788233b6 .text-overlay text.label{font-family:Consolas,"Liberation Mono",Menlo,Courier,monospace;font-size:10px}#chart-4fbf47b4-955b-4694-b1dd-f6ec788233b6 .tooltip{font-family:Consolas,"Liberation Mono",Menlo,Courier,monospace;font-size:14px}#chart-4fbf47b4-955b-4694-b1dd-f6ec788233b6 text.no_data{font-family:Consolas,"Liberation Mono",Menlo,Courier,monospace;font-size:64px}
#chart-4fbf47b4-955b-4694-b1dd-f6ec788233b6{background-color:black}#chart-4fbf47b4-955b-4694-b1dd-f6ec788233b6 path,#chart-4fbf47b4-955b-4694-b1dd-f6ec788233b6 line,#chart-4fbf47b4-955b-4694-b1dd-f6ec788233b6 rect,#chart-4fbf47b4-955b-4694-b1dd-f6ec788233b6 circle{-webkit-transition:250ms;-moz-transition:250ms;transition:250ms}#chart-4fbf47b4-955b-4694-b1dd-f6ec788233b6 .graph &gt; .background{fill:black}#chart-4fbf47b4-955b-4694-b1dd-f6ec788233b6 .plot &gt; .background{fill:#111}#chart-4fbf47b4-955b-4694-b1dd-f6ec788233b6 .graph{fill:#999}#chart-4fbf47b4-955b-4694-b1dd-f6ec788233b6 text.no_data{fill:#eee}#chart-4fbf47b4-955b-4694-b1dd-f6ec788233b6 .title{fill:#eee}#chart-4fbf47b4-955b-4694-b1dd-f6ec788233b6 .legends .legend text{fill:#999}#chart-4fbf47b4-955b-4694-b1dd-f6ec788233b6 .legends .legend:hover text{fill:#eee}#chart-4fbf47b4-955b-4694-b1dd-f6ec788233b6 .axis .line{stroke:#eee}#chart-4fbf47b4-955b-4694-b1dd-f6ec788233b6 .axis .guide.line{stroke:#555}#chart-4fbf47b4-955b-4694-b1dd-f6ec788233b6 .axis .major.line{stroke:#999}#chart-4fbf47b4-955b-4694-b1dd-f6ec788233b6 .axis text.major{fill:#eee}#chart-4fbf47b4-955b-4694-b1dd-f6ec788233b6 .axis.y .guides:hover .guide.line,#chart-4fbf47b4-955b-4694-b1dd-f6ec788233b6 .line-graph .axis.x .guides:hover .guide.line,#chart-4fbf47b4-955b-4694-b1dd-f6ec788233b6 .stackedline-graph .axis.x .guides:hover .guide.line,#chart-4fbf47b4-955b-4694-b1dd-f6ec788233b6 .xy-graph .axis.x .guides:hover .guide.line{stroke:#eee}#chart-4fbf47b4-955b-4694-b1dd-f6ec788233b6 .axis .guides:hover text{fill:#eee}#chart-4fbf47b4-955b-4694-b1dd-f6ec788233b6 .reactive{fill-opacity:.8}#chart-4fbf47b4-955b-4694-b1dd-f6ec788233b6 .reactive.active,#chart-4fbf47b4-955b-4694-b1dd-f6ec788233b6 .active .reactive{fill-opacity:.4;stroke-width:4}#chart-4fbf47b4-955b-4694-b1dd-f6ec788233b6 .series text{fill:#eee}#chart-4fbf47b4-955b-4694-b1dd-f6ec788233b6 .tooltip rect{fill:#111;stroke:#eee;-webkit-transition:opacity 250ms;-moz-transition:opacity 250ms;transition:opacity 250ms}#chart-4fbf47b4-955b-4694-b1dd-f6ec788233b6 .tooltip .label{fill:#999}#chart-4fbf47b4-955b-4694-b1dd-f6ec788233b6 .tooltip .label{fill:#999}#chart-4fbf47b4-955b-4694-b1dd-f6ec788233b6 .tooltip .legend{font-size:.8em;fill:#555}#chart-4fbf47b4-955b-4694-b1dd-f6ec788233b6 .tooltip .x_label{font-size:.6em;fill:#eee}#chart-4fbf47b4-955b-4694-b1dd-f6ec788233b6 .tooltip .xlink{font-size:.5em;text-decoration:underline}#chart-4fbf47b4-955b-4694-b1dd-f6ec788233b6 .tooltip .value{font-size:1.5em}#chart-4fbf47b4-955b-4694-b1dd-f6ec788233b6 .map-element{fill:#111;stroke:#555 !important}#chart-4fbf47b4-955b-4694-b1dd-f6ec788233b6 .map-element .reactive{fill-opacity:inherit}#chart-4fbf47b4-955b-4694-b1dd-f6ec788233b6 .color-0,#chart-4fbf47b4-955b-4694-b1dd-f6ec788233b6 .color-0 a:visited{stroke:#ff5995;fill:#ff5995}#chart-4fbf47b4-955b-4694-b1dd-f6ec788233b6 .text-overlay .color-0 text{fill:black}
#chart-4fbf47b4-955b-4694-b1dd-f6ec788233b6 text.no_data{text-anchor:middle}#chart-4fbf47b4-955b-4694-b1dd-f6ec788233b6 .guide.line{fill:none}#chart-4fbf47b4-955b-4694-b1dd-f6ec788233b6 .centered{text-anchor:middle}#chart-4fbf47b4-955b-4694-b1dd-f6ec788233b6 .title{text-anchor:middle}#chart-4fbf47b4-955b-4694-b1dd-f6ec788233b6 .legends .legend text{fill-opacity:1}#chart-4fbf47b4-955b-4694-b1dd-f6ec788233b6 .axis.x text{text-anchor:middle}#chart-4fbf47b4-955b-4694-b1dd-f6ec788233b6 .axis.x:not(.web) text[transform]{text-anchor:start}#chart-4fbf47b4-955b-4694-b1dd-f6ec788233b6 .axis.x:not(.web) text[transform].backwards{text-anchor:end}#chart-4fbf47b4-955b-4694-b1dd-f6ec788233b6 .axis.y text{text-anchor:end}#chart-4fbf47b4-955b-4694-b1dd-f6ec788233b6 .axis.y text[transform].backwards{text-anchor:start}#chart-4fbf47b4-955b-4694-b1dd-f6ec788233b6 .axis.y2 text{text-anchor:start}#chart-4fbf47b4-955b-4694-b1dd-f6ec788233b6 .axis.y2 text[transform].backwards{text-anchor:end}#chart-4fbf47b4-955b-4694-b1dd-f6ec788233b6 .axis .guide.line{stroke-dasharray:4,4}#chart-4fbf47b4-955b-4694-b1dd-f6ec788233b6 .axis .major.guide.line{stroke-dasharray:6,6}#chart-4fbf47b4-955b-4694-b1dd-f6ec788233b6 .horizontal .axis.y .guide.line,#chart-4fbf47b4-955b-4694-b1dd-f6ec788233b6 .horizontal .axis.y2 .guide.line,#chart-4fbf47b4-955b-4694-b1dd-f6ec788233b6 .vertical .axis.x .guide.line{opacity:0}#chart-4fbf47b4-955b-4694-b1dd-f6ec788233b6 .horizontal .axis.always_show .guide.line,#chart-4fbf47b4-955b-4694-b1dd-f6ec788233b6 .vertical .axis.always_show .guide.line{opacity:1 !important}#chart-4fbf47b4-955b-4694-b1dd-f6ec788233b6 .axis.y .guides:hover .guide.line,#chart-4fbf47b4-955b-4694-b1dd-f6ec788233b6 .axis.y2 .guides:hover .guide.line,#chart-4fbf47b4-955b-4694-b1dd-f6ec788233b6 .axis.x .guides:hover .guide.line{opacity:1}#chart-4fbf47b4-955b-4694-b1dd-f6ec788233b6 .axis .guides:hover text{opacity:1}#chart-4fbf47b4-955b-4694-b1dd-f6ec788233b6 .nofill{fill:none}#chart-4fbf47b4-955b-4694-b1dd-f6ec788233b6 .subtle-fill{fill-opacity:.2}#chart-4fbf47b4-955b-4694-b1dd-f6ec788233b6 .dot{stroke-width:1px;fill-opacity:1}#chart-4fbf47b4-955b-4694-b1dd-f6ec788233b6 .dot.active{stroke-width:5px}#chart-4fbf47b4-955b-4694-b1dd-f6ec788233b6 .dot.negative{fill:transparent}#chart-4fbf47b4-955b-4694-b1dd-f6ec788233b6 text,#chart-4fbf47b4-955b-4694-b1dd-f6ec788233b6 tspan{stroke:none !important}#chart-4fbf47b4-955b-4694-b1dd-f6ec788233b6 .series text.active{opacity:1}#chart-4fbf47b4-955b-4694-b1dd-f6ec788233b6 .tooltip rect{fill-opacity:.95;stroke-width:.5}#chart-4fbf47b4-955b-4694-b1dd-f6ec788233b6 .tooltip text{fill-opacity:1}#chart-4fbf47b4-955b-4694-b1dd-f6ec788233b6 .showable{visibility:hidden}#chart-4fbf47b4-955b-4694-b1dd-f6ec788233b6 .showable.shown{visibility:visible}</style><script type="text/javascript">window.pygal = window.pygal || {};window.pygal.config = window.pygal.config || {};window.pygal.config['4fbf47b4-955b-4694-b1dd-f6ec788233b6'] = {"print_values": false, "truncate_label": null, "human_readable": false, "explicit_size": false, "show_y_labels": true, "x_labels": ["Jan", "Feb", "Mar", "Apr", "May", "Jun", "Jul", "Aug", "Sep", "Oct", "Nov", "Dec"], "inverse_y_axis": false, "x_labels_major_count": null, "show_y_guides": true, "spacing": 10, "xrange": null, "rounded_bars": null, "margin": 20, "interpolation_precision": 250, "title": "Phrom-Phong 52", "stroke_style": null, "no_data_text": "No data", "fill": true, "box_mode": "extremes", "print_labels": false, "interpolate": "cubic", "zero": 0, "show_only_major_dots": false, "truncate_legend": null, "show_minor_x_labels": true, "js": ["//kozea.github.io/pygal.js/2.0.x/pygal-tooltips.min.js"], "x_labels_major_every": null, "legends": ["Phrom-Phong"], "tooltip_fancy_mode": true, "disable_xml_declaration": false, "show_x_guides": false, "print_zeroes": true, "show_legend": true, "legend_at_bottom": false, "y_labels_major_count": null, "secondary_range": null, "margin_bottom": null, "half_pie": false, "height": 600, "range": null, "show_minor_y_labels": true, "defs": [], "css": ["file://style.css", "file://graph.css"], "y_labels": null, "interpolation_parameters": {}, "width": 800, "strict": false, "pretty_print": false, "min_scale": 4, "margin_top": null, "dynamic_print_values": false, "order_min": null, "x_title": null, "margin_left": null, "margin_right": null, "y_labels_major_every": null, "stroke": true, "x_labels_major": null, "missing_value_fill_truncation": "x", "logarithmic": false, "stack_from_top": false, "show_dots": true, "style": {"title_font_size": 16, "title_font_family": "Consolas, \"Liberation Mono\", Menlo, Courier, monospace", "tooltip_font_family": "Consolas, \"Liberation Mono\", Menlo, Courier, monospace", "background": "black", "tooltip_font_size": 14, "opacity_hover": ".4", "value_label_font_size": 10, "opacity": ".8", "no_data_font_family": "Consolas, \"Liberation Mono\", Menlo, Courier, monospace", "label_font_size": 10, "plot_background": "#111", "value_font_size": 16, "value_font_family": "Consolas, \"Liberation Mono\", Menlo, Courier, monospace", "no_data_font_size": 64, "foreground_strong": "#eee", "font_family": "Consolas, \"Liberation Mono\", Menlo, Courier, monospace", "label_font_family": "Consolas, \"Liberation Mono\", Menlo, Courier, monospace", "transition": "250ms", "major_guide_stroke_dasharray": "6,6", "foreground_subtle": "#555", "value_colors": [], "value_label_font_family": "Consolas, \"Liberation Mono\", Menlo, Courier, monospace", "guide_stroke_dasharray": "4,4", "major_label_font_size": 10, "legend_font_family": "Consolas, \"Liberation Mono\", Menlo, Courier, monospace", "major_label_font_family": "Consolas, \"Liberation Mono\", Menlo, Courier, monospace", "foreground": "#999", "colors": ["#ff5995", "#b6e354", "#feed6c", "#8cedff", "#9e6ffe", "#899ca1", "#f8f8f2", "#bf4646", "#516083", "#f92672", "#82b414", "#fd971f", "#56c2d6", "#808384", "#8c54fe", "#465457"], "legend_font_size": 14}, "y_labels_major": null, "x_label_rotation": 0, "max_scale": 16, "value_formatter": null, "dots_size": 2.5, "legend_at_bottom_columns": null, "force_uri_protocol": null, "x_value_formatter": null, "legend_box_size": 12, "include_x_axis": false, "y_label_rotation": 0, "show_x_labels": true, "inner_radius": 0, "no_prefix": false, "tooltip_border_radius": 0, "y_title": null}</script><script type="text/javascript" xlink:href="//kozea.github.io/pygal.js/2.0.x/pygal-tooltips.min.js" /></defs><title>Phrom-Phong 52</title><g class="graph line-graph vertical"><rect class="background" height="600" width="800" x="0" y="0" /><g class="plot" transform="translate(192, 46)"><rect class="background" height="514" width="587.6" x="0" y="0" /><g class="axis y"><path class="line" d="M0.000000 514.000000 h587.600000" /><g class="guides"><path class="major guide line" d="M0.000000 503.655086 h587.600000" /><text class="major" x="-5" y="507.1550859857654">450000.0</text><title>450000.0</title></g><g class="guides"><path class="guide line" d="M0.000000 468.132031 h587.600000" /><text class="" x="-5" y="471.63203054683373">460000.0</text><title>460000.0</title></g><g class="guides"><path class="guide line" d="M0.000000 432.608975 h587.600000" /><text class="" x="-5" y="436.1089751079021">470000.0</text><title>470000.0</title></g><g class="guides"><path class="guide line" d="M0.000000 397.085920 h587.600000" /><text class="" x="-5" y="400.5859196689704">480000.0</text><title>480000.0</title></g><g class="guides"><path class="guide line" d="M0.000000 361.562864 h587.600000" /><text class="" x="-5" y="365.0628642300387">490000.0</text><title>490000.0</title></g><g class="guides"><path class="major guide line" d="M0.000000 326.039809 h587.600000" /><text class="major" x="-5" y="329.539808791107">500000.0</text><title>500000.0</title></g><g class="guides"><path class="guide line" d="M0.000000 290.516753 h587.600000" /><text class="" x="-5" y="294.0167533521754">510000.0</text><title>510000.0</title></g><g class="guides"><path class="guide line" d="M0.000000 254.993698 h587.600000" /><text class="" x="-5" y="258.49369791324375">520000.0</text><title>520000.0</title></g><g class="guides"><path class="guide line" d="M0.000000 219.470642 h587.600000" /><text class="" x="-5" y="222.97064247431206">530000.0</text><title>530000.0</title></g><g class="guides"><path class="guide line" d="M0.000000 183.947587 h587.600000" /><text class="" x="-5" y="187.44758703538042">540000.0</text><title>540000.0</title></g><g class="guides"><path class="major guide line" d="M0.000000 148.424532 h587.600000" /><text class="major" x="-5" y="151.92453159644873">550000.0</text><title>550000.0</title></g><g class="guides"><path class="guide line" d="M0.000000 112.901476 h587.600000" /><text class="" x="-5" y="116.4014761575171">560000.0</text><title>560000.0</title></g><g class="guides"><path class="guide line" d="M0.000000 77.378421 h587.600000" /><text class="" x="-5" y="80.8784207185854">570000.0</text><title>570000.0</title></g><g class="guides"><path class="guide line" d="M0.000000 41.855365 h587.600000" /><text class="" x="-5" y="45.35536527965371">580000.0</text><title>580000.0</title></g></g><g class="axis x"><g class="guides"><path class="line" d="M11.300000 0.000000 v514.000000" /><text class="" x="11.3" y="529.0">Jan</text></g><g class="guides"><path class="guide line" d="M62.663636 0.000000 v514.000000" /><text class="" x="62.66363636363637" y="529.0">Feb</text></g><g class="guides"><path class="guide line" d="M114.027273 0.000000 v514.000000" /><text class="" x="114.02727272727273" y="529.0">Mar</text></g><g class="guides"><path class="guide line" d="M165.390909 0.000000 v514.000000" /><text class="" x="165.39090909090908" y="529.0">Apr</text></g><g class="guides"><path class="guide line" d="M216.754545 0.000000 v514.000000" /><text class="" x="216.75454545454548" y="529.0">May</text></g><g class="guides"><path class="guide line" d="M268.118182 0.000000 v514.000000" /><text class="" x="268.1181818181818" y="529.0">Jun</text></g><g class="guides"><path class="guide line" d="M319.481818 0.000000 v514.000000" /><text class="" x="319.4818181818182" y="529.0">Jul</text></g><g class="guides"><path class="guide line" d="M370.845455 0.000000 v514.000000" /><text class="" x="370.8454545454546" y="529.0">Aug</text></g><g class="guides"><path class="guide line" d="M422.209091 0.000000 v514.000000" /><text class="" x="422.20909090909095" y="529.0">Sep</text></g><g class="guides"><path class="guide line" d="M473.572727 0.000000 v514.000000" /><text class="" x="473.5727272727273" y="529.0">Oct</text></g><g class="guides"><path class="guide line" d="M524.936364 0.000000 v514.000000" /><text class="" x="524.9363636363636" y="529.0">Nov</text></g><g class="guides"><path class="guide line" d="M576.300000 0.000000 v514.000000" /><text class="" x="576.3000000000001" y="529.0">Dec</text></g></g><g class="series serie-0 color-0"><path class="line reactive" d="M11.300000 514.000000 L11.300000 240.784476 11.505455 241.595386 11.710909 242.406249 11.916364 243.217020 12.121818 244.027651 12.327273 244.838096 12.532727 245.648309 12.738182 246.458243 12.943636 247.267852 13.149091 248.077089 13.354545 248.885908 13.560000 249.694262 13.765455 250.502105 13.970909 251.309390 14.176364 252.116071 14.381818 252.922101 14.587273 253.727434 14.792727 254.532024 14.998182 255.335823 15.203636 256.138786 15.409091 256.940866 15.614545 257.742016 15.820000 258.542191 16.025455 259.341343 16.230909 260.139426 16.436364 260.936394 16.641818 261.732200 16.847273 262.526798 17.052727 263.320140 17.258182 264.112182 17.463636 264.902876 17.669091 265.692175 17.874545 266.480034 18.080000 267.266406 18.285455 268.051244 18.490909 268.834502 18.696364 269.616133 18.901818 270.396091 19.107273 271.174330 19.312727 271.950803 19.518182 272.725463 19.723636 273.498264 19.929091 274.269160 20.134545 275.038104 20.340000 275.805049 20.545455 276.569950 20.750909 277.332759 20.956364 278.093431 21.161818 278.851918 21.367273 279.608174 21.572727 280.362154 21.778182 281.113809 21.983636 281.863094 22.189091 282.609963 22.394545 283.354369 22.600000 284.096265 22.805455 284.835604 23.010909 285.572342 23.216364 286.306430 23.421818 287.037823 23.627273 287.766474 23.832727 288.492336 24.038182 289.215363 24.243636 289.935509 24.449091 290.652728 24.654545 291.366971 24.860000 292.078194 25.065455 292.786350 25.270909 293.491392 25.476364 294.193274 25.681818 294.891949 25.887273 295.587371 26.092727 296.279493 26.298182 296.968269 26.503636 297.653652 26.709091 298.335596 26.914545 299.014055 27.120000 299.688982 27.325455 300.360330 27.530909 301.028053 27.736364 301.692105 27.941818 302.352439 28.147273 303.009008 28.352727 303.661767 28.558182 304.310668 28.763636 304.955665 28.969091 305.596712 29.174545 306.233762 29.380000 306.866769 29.585455 307.495687 29.790909 308.120468 29.996364 308.741066 30.201818 309.357435 30.407273 309.969529 30.612727 310.577301 30.818182 311.180704 31.023636 311.779692 31.229091 312.374218 31.434545 312.964236 31.640000 313.549700 31.845455 314.130563 32.050909 314.706779 32.256364 315.278301 32.461818 315.845082 32.667273 316.407077 32.872727 316.964238 33.078182 317.516519 33.283636 318.063874 33.489091 318.606257 33.694545 319.143620 33.900000 319.675918 34.105455 320.203103 34.310909 320.725130 34.516364 321.241951 34.721818 321.753522 34.927273 322.259794 35.132727 322.760721 35.338182 323.256258 35.543636 323.746357 35.749091 324.230972 35.954545 324.710056 36.160000 325.183564 36.365455 325.651448 36.570909 326.113663 36.776364 326.570161 36.981818 327.020897 37.187273 327.465823 37.392727 327.904893 37.598182 328.338061 37.803636 328.765281 38.009091 329.186505 38.214545 329.601688 38.420000 330.010782 38.625455 330.413742 38.830909 330.810521 39.036364 331.201073 39.241818 331.585350 39.447273 331.963307 39.652727 332.334897 39.858182 332.700073 40.063636 333.058790 40.269091 333.411000 40.474545 333.756658 40.680000 334.095716 40.885455 334.428128 41.090909 334.753848 41.296364 335.072829 41.501818 335.385025 41.707273 335.690389 41.912727 335.988876 42.118182 336.280437 42.323636 336.565027 42.529091 336.842600 42.734545 337.113109 42.940000 337.376507 43.145455 337.632748 43.350909 337.881786 43.556364 338.123573 43.761818 338.358065 43.967273 338.585213 44.172727 338.804972 44.378182 339.017295 44.583636 339.222136 44.789091 339.419448 44.994545 339.609184 45.200000 339.791299 45.405455 339.965746 45.610909 340.132478 45.816364 340.291448 46.021818 340.442611 46.227273 340.585920 46.432727 340.721329 46.638182 340.848790 46.843636 340.968258 47.049091 341.079685 47.254545 341.183026 47.460000 341.278235 47.665455 341.365263 47.870909 341.444066 48.076364 341.514597 48.281818 341.576808 48.487273 341.630655 48.692727 341.676089 48.898182 341.713065 49.103636 341.741536 49.309091 341.761456 49.514545 341.772779 49.720000 341.775457 49.925455 341.769445 50.130909 341.754695 50.336364 341.731162 50.541818 341.698798 50.747273 341.657559 50.952727 341.607396 51.158182 341.548263 51.363636 341.480115 51.569091 341.402904 51.774545 341.316584 51.980000 341.221109 52.185455 341.116432 52.390909 341.002506 52.596364 340.879286 52.801818 340.746725 53.007273 340.604775 53.212727 340.453392 53.418182 340.292527 53.623636 340.122136 53.829091 339.942170 54.034545 339.752585 54.240000 339.553333 54.445455 339.344368 54.650909 339.125643 54.856364 338.897113 55.061818 338.658730 55.267273 338.410447 55.472727 338.152220 55.678182 337.884000 55.883636 337.605742 56.089091 337.317399 56.294545 337.018925 56.500000 336.710273 56.705455 336.391396 56.910909 336.062249 57.116364 335.722785 57.321818 335.372957 57.527273 335.012718 57.732727 334.642023 57.938182 334.260825 58.143636 333.869077 58.349091 333.466733 58.554545 333.053746 58.760000 332.630071 58.965455 332.195660 59.170909 331.750466 59.376364 331.294445 59.581818 330.827548 59.787273 330.349730 59.992727 329.860944 60.198182 329.361144 60.403636 328.850283 60.609091 328.328315 60.814545 327.795192 61.020000 327.250870 61.225455 326.695301 61.430909 326.128438 61.636364 325.550236 61.841818 324.960648 62.047273 324.359627 62.252727 323.747127 62.458182 323.123101 62.663636 322.487503 62.869091 321.840316 63.074545 321.181637 63.280000 320.511595 63.485455 319.830316 63.690909 319.137928 63.896364 318.434558 64.101818 317.720334 64.307273 316.995382 64.512727 316.259831 64.718182 315.513807 64.923636 314.757438 65.129091 313.990851 65.334545 313.214173 65.540000 312.427532 65.745455 311.631056 65.950909 310.824871 66.156364 310.009105 66.361818 309.183885 66.567273 308.349338 66.772727 307.505593 66.978182 306.652775 67.183636 305.791013 67.389091 304.920434 67.594545 304.041166 67.800000 303.153334 68.005455 302.257068 68.210909 301.352494 68.416364 300.439739 68.621818 299.518931 68.827273 298.590197 69.032727 297.653665 69.238182 296.709462 69.443636 295.757715 69.649091 294.798552 69.854545 293.832099 70.060000 292.858485 70.265455 291.877836 70.470909 290.890281 70.676364 289.895945 70.881818 288.894957 71.087273 287.887444 71.292727 286.873533 71.498182 285.853352 71.703636 284.827027 71.909091 283.794687 72.114545 282.756459 72.320000 281.712469 72.525455 280.662846 72.730909 279.607716 72.936364 278.547208 73.141818 277.481447 73.347273 276.410562 73.552727 275.334680 73.758182 274.253929 73.963636 273.168434 74.169091 272.078325 74.374545 270.983729 74.580000 269.884771 74.785455 268.781581 74.990909 267.674285 75.196364 266.563011 75.401818 265.447886 75.607273 264.329037 75.812727 263.206591 76.018182 262.080677 76.223636 260.951421 76.429091 259.818950 76.634545 258.683393 76.840000 257.544876 77.045455 256.403526 77.250909 255.259472 77.456364 254.112840 77.661818 252.963757 77.867273 251.812352 78.072727 250.658750 78.278182 249.503081 78.483636 248.345471 78.689091 247.186046 78.894545 246.024936 79.100000 244.862267 79.305455 243.698166 79.510909 242.532760 79.716364 241.366178 79.921818 240.198546 80.127273 239.029992 80.332727 237.860642 80.538182 236.690626 80.743636 235.520069 80.949091 234.349098 81.154545 233.177843 81.360000 232.006429 81.565455 230.834984 81.770909 229.663635 81.976364 228.492510 82.181818 227.321737 82.387273 226.151441 82.592727 224.981752 82.798182 223.812795 83.003636 222.644699 83.209091 221.477591 83.414545 220.311597 83.620000 219.146846 83.825455 217.983465 84.030909 216.821581 84.236364 215.661321 84.441818 214.502813 84.647273 213.346185 84.852727 212.191562 85.058182 211.039074 85.263636 209.888846 85.469091 208.741007 85.674545 207.595684 85.880000 206.453004 86.085455 205.313094 86.290909 204.176082 86.496364 203.042095 86.701818 201.911261 86.907273 200.783706 87.112727 199.659559 87.318182 198.538946 87.523636 197.421995 87.729091 196.308833 87.934545 195.199587 88.140000 194.094386 88.345455 192.993355 88.550909 191.896623 88.756364 190.804317 88.961818 189.716564 89.167273 188.633491 89.372727 187.555226 89.578182 186.481896 89.783636 185.413629 89.989091 184.350552 90.194545 183.292792 90.400000 182.240476 90.605455 181.193732 90.810909 180.152688 91.016364 179.117470 91.221818 178.088206 91.427273 177.065022 91.632727 176.048048 91.838182 175.037409 92.043636 174.033234 92.249091 173.035649 92.454545 172.044782 92.660000 171.060760 92.865455 170.083711 93.070909 169.113761 93.276364 168.151039 93.481818 167.195671 93.687273 166.247786 93.892727 165.307509 94.098182 164.374969 94.303636 163.450293 94.509091 162.533608 94.714545 161.625042 94.920000 160.724721 95.125455 159.832774 95.330909 158.949328 95.536364 158.074509 95.741818 157.208446 95.947273 156.351265 96.152727 155.503094 96.358182 154.664060 96.563636 153.834291 96.769091 153.013914 96.974545 152.203056 97.180000 151.401845 97.385455 150.610408 97.590909 149.828872 97.796364 149.057364 98.001818 148.296013 98.207273 147.544944 98.412727 146.804287 98.618182 146.074167 98.823636 145.354713 99.029091 144.646051 99.234545 143.948309 99.440000 143.261615 99.645455 142.586095 99.850909 141.921877 100.056364 141.269089 100.261818 140.627857 100.467273 139.998309 100.672727 139.380572 100.878182 138.774774 101.083636 138.181042 101.289091 137.599504 101.494545 137.030286 101.700000 136.473516 101.905455 135.929321 102.110909 135.397829 102.316364 134.879167 102.521818 134.373462 102.727273 133.880842 102.932727 133.401434 103.138182 132.935366 103.343636 132.482764 103.549091 132.043756 103.754545 131.618469 103.960000 131.207032 104.165455 130.809570 104.370909 130.426211 104.576364 130.057084 104.781818 129.702314 104.987273 129.362030 105.192727 129.036358 105.398182 128.725426 105.603636 128.429362 105.809091 128.148293 106.014545 127.882345 106.220000 127.631647 106.425455 127.396326 106.630909 127.176509 106.836364 126.972323 107.041818 126.783896 107.247273 126.611355 107.452727 126.454827 107.658182 126.314441 107.863636 126.190322 108.069091 126.082598 108.274545 125.991398 108.480000 125.916847 108.685455 125.859074 108.890909 125.818206 109.096364 125.794370 109.301818 125.787693 109.507273 125.798303 109.712727 125.826327 109.918182 125.871893 110.123636 125.935127 110.329091 126.016157 110.534545 126.115111 110.740000 126.232116 110.945455 126.367299 111.150909 126.520787 111.356364 126.692708 111.561818 126.883189 111.767273 127.092358 111.972727 127.320341 112.178182 127.567267 112.383636 127.833262 112.589091 128.118454 112.794545 128.422970 113.000000 128.746937 113.205455 129.090484 113.410909 129.453736 113.616364 129.836822 113.821818 130.239869 114.027273 130.663004 114.232727 131.106308 114.438182 131.569679 114.643636 132.052967 114.849091 132.556023 115.054545 133.078698 115.260000 133.620843 115.465455 134.182309 115.670909 134.762946 115.876364 135.362606 116.081818 135.981139 116.287273 136.618396 116.492727 137.274229 116.698182 137.948487 116.903636 138.641022 117.109091 139.351684 117.314545 140.080326 117.520000 140.826796 117.725455 141.590947 117.930909 142.372629 118.136364 143.171693 118.341818 143.987990 118.547273 144.821371 118.752727 145.671687 118.958182 146.538787 119.163636 147.422525 119.369091 148.322749 119.574545 149.239312 119.780000 150.172063 119.985455 151.120854 120.190909 152.085536 120.396364 153.065960 120.601818 154.061976 120.807273 155.073436 121.012727 156.100189 121.218182 157.142088 121.423636 158.198982 121.629091 159.270724 121.834545 160.357163 122.040000 161.458150 122.245455 162.573537 122.450909 163.703174 122.656364 164.846913 122.861818 166.004603 123.067273 167.176096 123.272727 168.361243 123.478182 169.559895 123.683636 170.771902 123.889091 171.997115 124.094545 173.235386 124.300000 174.486565 124.505455 175.750502 124.710909 177.027050 124.916364 178.316058 125.121818 179.617378 125.327273 180.930860 125.532727 182.256356 125.738182 183.593715 125.943636 184.942790 126.149091 186.303431 126.354545 187.675488 126.560000 189.058813 126.765455 190.453257 126.970909 191.858670 127.176364 193.274903 127.381818 194.701808 127.587273 196.139234 127.792727 197.587033 127.998182 199.045056 128.203636 200.513154 128.409091 201.991177 128.614545 203.478976 128.820000 204.976403 129.025455 206.483308 129.230909 207.999541 129.436364 209.524955 129.641818 211.059399 129.847273 212.602725 130.052727 214.154783 130.258182 215.715424 130.463636 217.284500 130.669091 218.861861 130.874545 220.447357 131.080000 222.040841 131.285455 223.642161 131.490909 225.251171 131.696364 226.867720 131.901818 228.491659 132.107273 230.122839 132.312727 231.761111 132.518182 233.406326 132.723636 235.058335 132.929091 236.716989 133.134545 238.382138 133.340000 240.053633 133.545455 241.731325 133.750909 243.415066 133.956364 245.104705 134.161818 246.800094 134.367273 248.501084 134.572727 250.207526 134.778182 251.919269 134.983636 253.636167 135.189091 255.358068 135.394545 257.084824 135.600000 258.816286 135.805455 260.552305 136.010909 262.292732 136.216364 264.037417 136.421818 265.786212 136.627273 267.538966 136.832727 269.295532 137.038182 271.055760 137.243636 272.819501 137.449091 274.586605 137.654545 276.356924 137.860000 278.130309 138.065455 279.906609 138.270909 281.685677 138.476364 283.467363 138.681818 285.251518 138.887273 287.037993 139.092727 288.826638 139.298182 290.617305 139.503636 292.409845 139.709091 294.204107 139.914545 295.999944 140.120000 297.797206 140.325455 299.595744 140.530909 301.395408 140.736364 303.196050 140.941818 304.997521 141.147273 306.799671 141.352727 308.602351 141.558182 310.405412 141.763636 312.208705 141.969091 314.012081 142.174545 315.815391 142.380000 317.618485 142.585455 319.421215 142.790909 321.223431 142.996364 323.024985 143.201818 324.825726 143.407273 326.625506 143.612727 328.424176 143.818182 330.221587 144.023636 332.017589 144.229091 333.812034 144.434545 335.604772 144.640000 337.395654 144.845455 339.184531 145.050909 340.971254 145.256364 342.755673 145.461818 344.537641 145.667273 346.317007 145.872727 348.093622 146.078182 349.867337 146.283636 351.638003 146.489091 353.405472 146.694545 355.169593 146.900000 356.930218 147.105455 358.687197 147.310909 360.440382 147.516364 362.189624 147.721818 363.934772 147.927273 365.675678 148.132727 367.412194 148.338182 369.144169 148.543636 370.871455 148.749091 372.593902 148.954545 374.311362 149.160000 376.023685 149.365455 377.730722 149.570909 379.432324 149.776364 381.128342 149.981818 382.818627 150.187273 384.503029 150.392727 386.181400 150.598182 387.853590 150.803636 389.519450 151.009091 391.178832 151.214545 392.831585 151.420000 394.477561 151.625455 396.116611 151.830909 397.748585 152.036364 399.373335 152.241818 400.990711 152.447273 402.600565 152.652727 404.202746 152.858182 405.797106 153.063636 407.383496 153.269091 408.961767 153.474545 410.531769 153.680000 412.093354 153.885455 413.646371 154.090909 415.190673 154.296364 416.726110 154.501818 418.252533 154.707273 419.769792 154.912727 421.277740 155.118182 422.776225 155.323636 424.265100 155.529091 425.744215 155.734545 427.213421 155.940000 428.672569 156.145455 430.121510 156.350909 431.560095 156.556364 432.988174 156.761818 434.405599 156.967273 435.812219 157.172727 437.207887 157.378182 438.592453 157.583636 439.965768 157.789091 441.327683 157.994545 442.678048 158.200000 444.016715 158.405455 445.343534 158.610909 446.658357 158.816364 447.961033 159.021818 449.251415 159.227273 450.529352 159.432727 451.794696 159.638182 453.047298 159.843636 454.287008 160.049091 455.513677 160.254545 456.727157 160.460000 457.927298 160.665455 459.113950 160.870909 460.286966 161.076364 461.446195 161.281818 462.591488 161.487273 463.722697 161.692727 464.839673 161.898182 465.942265 162.103636 467.030326 162.309091 468.103705 162.514545 469.162254 162.720000 470.205824 162.925455 471.234265 163.130909 472.247429 163.336364 473.245166 163.541818 474.227327 163.747273 475.193762 163.952727 476.144324 164.158182 477.078863 164.363636 477.997229 164.569091 478.899273 164.774545 479.784847 164.980000 480.653801 165.185455 481.505986 165.390909 482.341253 165.596364 483.159490 165.801818 483.960736 166.007273 484.745068 166.212727 485.512562 166.418182 486.263294 166.623636 486.997340 166.829091 487.714777 167.034545 488.415681 167.240000 489.100129 167.445455 489.768196 167.650909 490.419959 167.856364 491.055495 168.061818 491.674880 168.267273 492.278189 168.472727 492.865500 168.678182 493.436889 168.883636 493.992432 169.089091 494.532206 169.294545 495.056286 169.500000 495.564749 169.705455 496.057671 169.910909 496.535130 170.116364 496.997200 170.321818 497.443959 170.527273 497.875482 170.732727 498.291847 170.938182 498.693129 171.143636 499.079404 171.349091 499.450750 171.554545 499.807242 171.760000 500.148957 171.965455 500.475971 172.170909 500.788360 172.376364 501.086201 172.581818 501.369570 172.787273 501.638543 172.992727 501.893197 173.198182 502.133608 173.403636 502.359852 173.609091 502.572007 173.814545 502.770147 174.020000 502.954349 174.225455 503.124690 174.430909 503.281246 174.636364 503.424094 174.841818 503.553309 175.047273 503.668968 175.252727 503.771147 175.458182 503.859923 175.663636 503.935373 175.869091 503.997571 176.074545 504.046595 176.280000 504.082521 176.485455 504.105426 176.690909 504.115385 176.896364 504.112475 177.101818 504.096772 177.307273 504.068353 177.512727 504.027294 177.718182 503.973671 177.923636 503.907561 178.129091 503.829040 178.334545 503.738184 178.540000 503.635070 178.745455 503.519773 178.950909 503.392371 179.156364 503.252940 179.361818 503.101555 179.567273 502.938294 179.772727 502.763233 179.978182 502.576447 180.183636 502.378013 180.389091 502.168009 180.594545 501.946509 180.800000 501.713590 181.005455 501.469329 181.210909 501.213802 181.416364 500.947085 181.621818 500.669255 181.827273 500.380388 182.032727 500.080560 182.238182 499.769847 182.443636 499.448326 182.649091 499.116074 182.854545 498.773166 183.060000 498.419679 183.265455 498.055690 183.470909 497.681273 183.676364 497.296507 183.881818 496.901467 184.087273 496.496230 184.292727 496.080871 184.498182 495.655468 184.703636 495.220096 184.909091 494.774832 185.114545 494.319752 185.320000 493.854933 185.525455 493.380450 185.730909 492.896381 185.936364 492.402801 186.141818 491.899788 186.347273 491.387416 186.552727 490.865763 186.758182 490.334905 186.963636 489.794918 187.169091 489.245878 187.374545 488.687862 187.580000 488.120947 187.785455 487.545208 187.990909 486.960721 188.196364 486.367564 188.401818 485.765813 188.607273 485.155543 188.812727 484.536831 189.018182 483.909754 189.223636 483.274388 189.429091 482.630809 189.634545 481.979093 189.840000 481.319317 190.045455 480.651558 190.250909 479.975890 190.456364 479.292392 190.661818 478.601139 190.867273 477.902207 191.072727 477.195673 191.278182 476.481613 191.483636 475.760103 191.689091 475.031221 191.894545 474.295041 192.100000 473.551641 192.305455 472.801096 192.510909 472.043484 192.716364 471.278880 192.921818 470.507361 193.127273 469.729003 193.332727 468.943883 193.538182 468.152076 193.743636 467.353659 193.949091 466.548709 194.154545 465.737301 194.360000 464.919513 194.565455 464.095420 194.770909 463.265099 194.976364 462.428626 195.181818 461.586077 195.387273 460.737529 195.592727 459.883058 195.798182 459.022740 196.003636 458.156652 196.209091 457.284870 196.414545 456.407471 196.620000 455.524530 196.825455 454.636125 197.030909 453.742330 197.236364 452.843224 197.441818 451.938881 197.647273 451.029379 197.852727 450.114794 198.058182 449.195201 198.263636 448.270678 198.469091 447.341301 198.674545 446.407145 198.880000 445.468288 199.085455 444.524806 199.290909 443.576775 199.496364 442.624271 199.701818 441.667371 199.907273 440.706150 200.112727 439.740687 200.318182 438.771055 200.523636 437.797333 200.729091 436.819596 200.934545 435.837921 201.140000 434.852384 201.345455 433.863061 201.550909 432.870029 201.756364 431.873363 201.961818 430.873141 202.167273 429.869439 202.372727 428.862333 202.578182 427.851899 202.783636 426.838213 202.989091 425.821353 203.194545 424.801394 203.400000 423.778412 203.605455 422.752485 203.810909 421.723688 204.016364 420.692097 204.221818 419.657789 204.427273 418.620841 204.632727 417.581328 204.838182 416.539327 205.043636 415.494915 205.249091 414.448167 205.454545 413.399160 205.660000 412.347970 205.865455 411.294674 206.070909 410.239348 206.276364 409.182068 206.481818 408.122911 206.687273 407.061952 206.892727 405.999269 207.098182 404.934937 207.303636 403.869034 207.509091 402.801634 207.714545 401.732815 207.920000 400.662653 208.125455 399.591225 208.330909 398.518606 208.536364 397.444872 208.741818 396.370101 208.947273 395.294369 209.152727 394.217751 209.358182 393.140325 209.563636 392.062166 209.769091 390.983351 209.974545 389.903956 210.180000 388.824058 210.385455 387.743733 210.590909 386.663057 210.796364 385.582106 211.001818 384.500957 211.207273 383.419687 211.412727 382.338371 211.618182 381.257086 211.823636 380.175908 212.029091 379.094913 212.234545 378.014179 212.440000 376.933781 212.645455 375.853795 212.850909 374.774298 213.056364 373.695366 213.261818 372.617075 213.467273 371.539503 213.672727 370.462724 213.878182 369.386817 214.083636 368.311855 214.289091 367.237918 214.494545 366.165079 214.700000 365.093417 214.905455 364.023006 215.110909 362.953924 215.316364 361.886247 215.521818 360.820051 215.727273 359.755412 215.932727 358.692408 216.138182 357.631113 216.343636 356.571605 216.549091 355.513959 216.754545 354.458253 216.960000 353.404552 217.165455 352.352884 217.370909 351.303266 217.576364 350.255714 217.781818 349.210245 217.987273 348.166877 218.192727 347.125628 218.398182 346.086512 218.603636 345.049549 218.809091 344.014754 219.014545 342.982146 219.220000 341.951740 219.425455 340.923555 219.630909 339.897606 219.836364 338.873912 220.041818 337.852489 220.247273 336.833354 220.452727 335.816524 220.658182 334.802016 220.863636 333.789848 221.069091 332.780037 221.274545 331.772598 221.480000 330.767550 221.685455 329.764910 221.890909 328.764695 222.096364 327.766920 222.301818 326.771605 222.507273 325.778765 222.712727 324.788419 222.918182 323.800582 223.123636 322.815271 223.329091 321.832505 223.534545 320.852300 223.740000 319.874672 223.945455 318.899640 224.150909 317.927220 224.356364 316.957429 224.561818 315.990284 224.767273 315.025803 224.972727 314.064001 225.178182 313.104897 225.383636 312.148508 225.589091 311.194850 225.794545 310.243940 226.000000 309.295796 226.205455 308.350435 226.410909 307.407873 226.616364 306.468127 226.821818 305.531216 227.027273 304.597155 227.232727 303.665962 227.438182 302.737654 227.643636 301.812248 227.849091 300.889760 228.054545 299.970209 228.260000 299.053611 228.465455 298.139983 228.670909 297.229342 228.876364 296.321705 229.081818 295.417089 229.287273 294.515512 229.492727 293.616990 229.698182 292.721540 229.903636 291.829180 230.109091 290.939926 230.314545 290.053796 230.520000 289.170807 230.725455 288.290975 230.930909 287.414317 231.136364 286.540851 231.341818 285.670595 231.547273 284.803563 231.752727 283.939775 231.958182 283.079247 232.163636 282.221995 232.369091 281.368038 232.574545 280.517391 232.780000 279.670073 232.985455 278.826100 233.190909 277.985489 233.396364 277.148257 233.601818 276.314421 233.807273 275.483999 234.012727 274.657007 234.218182 273.833462 234.423636 273.013382 234.629091 272.196784 234.834545 271.383684 235.040000 270.574099 235.245455 269.768048 235.450909 268.965546 235.656364 268.166610 235.861818 267.371259 236.067273 266.579508 236.272727 265.791375 236.478182 265.006877 236.683636 264.226031 236.889091 263.448854 237.094545 262.675364 237.300000 261.905576 237.505455 261.139508 237.710909 260.377178 237.916364 259.618602 238.121818 258.863797 238.327273 258.112781 238.532727 257.365570 238.738182 256.622181 238.943636 255.882632 239.149091 255.146939 239.354545 254.415120 239.560000 253.687192 239.765455 252.963171 239.970909 252.243075 240.176364 251.526921 240.381818 250.814726 240.587273 250.106506 240.792727 249.402280 240.998182 248.702063 241.203636 248.005874 241.409091 247.313728 241.614545 246.625644 241.820000 245.941637 242.025455 245.261726 242.230909 244.585927 242.436364 243.914258 242.641818 243.246735 242.847273 242.583375 243.052727 241.924195 243.258182 241.269213 243.463636 240.618446 243.669091 239.971910 243.874545 239.329623 244.080000 238.691602 244.285455 238.057863 244.490909 237.428424 244.696364 236.803301 244.901818 236.182513 245.107273 235.566076 245.312727 234.954006 245.518182 234.346322 245.723636 233.743039 245.929091 233.144176 246.134545 232.549748 246.340000 231.959774 246.545455 231.374271 246.750909 230.793254 246.956364 230.216742 247.161818 229.644751 247.367273 229.077299 247.572727 228.514402 247.778182 227.956077 247.983636 227.402342 248.189091 226.853214 248.394545 226.308709 248.600000 225.768845 248.805455 225.233639 249.010909 224.703108 249.216364 224.177268 249.421818 223.656138 249.627273 223.139733 249.832727 222.628071 250.038182 222.121170 250.243636 221.619045 250.449091 221.121715 250.654545 220.629196 250.860000 220.141505 251.065455 219.658659 251.270909 219.180675 251.476364 218.707571 251.681818 218.239363 251.887273 217.776069 252.092727 217.317706 252.298182 216.864289 252.503636 216.415838 252.709091 215.972368 252.914545 215.533897 253.120000 215.100441 253.325455 214.672018 253.530909 214.248646 253.736364 213.830340 253.941818 213.417118 254.147273 213.008996 254.352727 212.605993 254.558182 212.208125 254.763636 211.815410 254.969091 211.427863 255.174545 211.045502 255.380000 210.668345 255.585455 210.296408 255.790909 209.929709 255.996364 209.568263 256.201818 209.212090 256.407273 208.861204 256.612727 208.515625 256.818182 208.175368 257.023636 207.840450 257.229091 207.510889 257.434545 207.186702 257.640000 206.867906 257.845455 206.554517 258.050909 206.246554 258.256364 205.944032 258.461818 205.646969 258.667273 205.355383 258.872727 205.069289 259.078182 204.788706 259.283636 204.513649 259.489091 204.244137 259.694545 203.980186 259.900000 203.721813 260.105455 203.469036 260.310909 203.221871 260.516364 202.980336 260.721818 202.744447 260.927273 202.514221 261.132727 202.289676 261.338182 202.070829 261.543636 201.857696 261.749091 201.650296 261.954545 201.448643 262.160000 201.252757 262.365455 201.062654 262.570909 200.878350 262.776364 200.699864 262.981818 200.527211 263.187273 200.360409 263.392727 200.199476 263.598182 200.044428 263.803636 199.895282 264.009091 199.752055 264.214545 199.614764 264.420000 199.483427 264.625455 199.358060 264.830909 199.238681 265.036364 199.125306 265.241818 199.017952 265.447273 198.916637 265.652727 198.821378 265.858182 198.732191 266.063636 198.649094 266.269091 198.572104 266.474545 198.501238 266.680000 198.436512 266.885455 198.377945 267.090909 198.325552 267.296364 198.279351 267.501818 198.239360 267.707273 198.205594 267.912727 198.178071 268.118182 198.156809 268.323636 198.141813 268.529091 198.133042 268.734545 198.130444 268.940000 198.133969 269.145455 198.143564 269.350909 198.159177 269.556364 198.180757 269.761818 198.208251 269.967273 198.241609 270.172727 198.280779 270.378182 198.325707 270.583636 198.376344 270.789091 198.432637 270.994545 198.494534 271.200000 198.561984 271.405455 198.634934 271.610909 198.713334 271.816364 198.797131 272.021818 198.886273 272.227273 198.980709 272.432727 199.080387 272.638182 199.185256 272.843636 199.295262 273.049091 199.410356 273.254545 199.530485 273.460000 199.655596 273.665455 199.785639 273.870909 199.920562 274.076364 200.060313 274.281818 200.204840 274.487273 200.354091 274.692727 200.508015 274.898182 200.666560 275.103636 200.829674 275.309091 200.997305 275.514545 201.169402 275.720000 201.345912 275.925455 201.526785 276.130909 201.711968 276.336364 201.901409 276.541818 202.095058 276.747273 202.292861 276.952727 202.494768 277.158182 202.700726 277.363636 202.910683 277.569091 203.124589 277.774545 203.342391 277.980000 203.564038 278.185455 203.789477 278.390909 204.018657 278.596364 204.251526 278.801818 204.488033 279.007273 204.728125 279.212727 204.971751 279.418182 205.218859 279.623636 205.469398 279.829091 205.723315 280.034545 205.980559 280.240000 206.241078 280.445455 206.504821 280.650909 206.771735 280.856364 207.041768 281.061818 207.314870 281.267273 207.590988 281.472727 207.870071 281.678182 208.152066 281.883636 208.436923 282.089091 208.724588 282.294545 209.015011 282.500000 209.308140 282.705455 209.603922 282.910909 209.902307 283.116364 210.203243 283.321818 210.506676 283.527273 210.812557 283.732727 211.120833 283.938182 211.431453 284.143636 211.744363 284.349091 212.059514 284.554545 212.376853 284.760000 212.696328 284.965455 213.017888 285.170909 213.341481 285.376364 213.667054 285.581818 213.994557 285.787273 214.323938 285.992727 214.655144 286.198182 214.988124 286.403636 215.322827 286.609091 215.659199 286.814545 215.997191 287.020000 216.336750 287.225455 216.677823 287.430909 217.020361 287.636364 217.364310 287.841818 217.709618 288.047273 218.056235 288.252727 218.404109 288.458182 218.753187 288.663636 219.103418 288.869091 219.454750 289.074545 219.807131 289.280000 220.160510 289.485455 220.514834 289.690909 220.870053 289.896364 221.226114 290.101818 221.582966 290.307273 221.940556 290.512727 222.298834 290.718182 222.657746 290.923636 223.017242 291.129091 223.377270 291.334545 223.737778 291.540000 224.098714 291.745455 224.460027 291.950909 224.821664 292.156364 225.183574 292.361818 225.545705 292.567273 225.908006 292.772727 226.270424 292.978182 226.632909 293.183636 226.995407 293.389091 227.357868 293.594545 227.720239 293.800000 228.082469 294.005455 228.444506 294.210909 228.806299 294.416364 229.167795 294.621818 229.528943 294.827273 229.889691 295.032727 230.249987 295.238182 230.609780 295.443636 230.969017 295.649091 231.327648 295.854545 231.685619 296.060000 232.042880 296.265455 232.399379 296.470909 232.755064 296.676364 233.109883 296.881818 233.463784 297.087273 233.816716 297.292727 234.168627 297.498182 234.519465 297.703636 234.869179 297.909091 235.217716 298.114545 235.565025 298.320000 235.911054 298.525455 236.255751 298.730909 236.599065 298.936364 236.940943 299.141818 237.281335 299.347273 237.620188 299.552727 237.957451 299.758182 238.293071 299.963636 238.626997 300.169091 238.959178 300.374545 239.289561 300.580000 239.618095 300.785455 239.944728 300.990909 240.269407 301.196364 240.592083 301.401818 240.912702 301.607273 241.231213 301.812727 241.547564 302.018182 241.861703 302.223636 242.173579 302.429091 242.483140 302.634545 242.790334 302.840000 243.095110 303.045455 243.397415 303.250909 243.697198 303.456364 243.994407 303.661818 244.288990 303.867273 244.580896 304.072727 244.870072 304.278182 245.156468 304.483636 245.440030 304.689091 245.720709 304.894545 245.998451 305.100000 246.273205 305.305455 246.544919 305.510909 246.813541 305.716364 247.079021 305.921818 247.341305 306.127273 247.600343 306.332727 247.856081 306.538182 248.108470 306.743636 248.357456 306.949091 248.602989 307.154545 248.845016 307.360000 249.083485 307.565455 249.318345 307.770909 249.549545 307.976364 249.777031 308.181818 250.000753 308.387273 250.220660 308.592727 250.436698 308.798182 250.648816 309.003636 250.856963 309.209091 251.061086 309.414545 251.261135 309.620000 251.457057 309.825455 251.648800 310.030909 251.836313 310.236364 252.019544 310.441818 252.198441 310.647273 252.372952 310.852727 252.543027 311.058182 252.708612 311.263636 252.869656 311.469091 253.026107 311.674545 253.177915 311.880000 253.325026 312.085455 253.467389 312.290909 253.604952 312.496364 253.737664 312.701818 253.865473 312.907273 253.988327 313.112727 254.106174 313.318182 254.218963 313.523636 254.326641 313.729091 254.429158 313.934545 254.526461 314.140000 254.618498 314.345455 254.705218 314.550909 254.786569 314.756364 254.862499 314.961818 254.932956 315.167273 254.997889 315.372727 255.057247 315.578182 255.110976 315.783636 255.159025 315.989091 255.201344 316.194545 255.237879 316.400000 255.268579 316.605455 255.293393 316.810909 255.312268 317.016364 255.325153 317.221818 255.331996 317.427273 255.332745 317.632727 255.327349 317.838182 255.315756 318.043636 255.297913 318.249091 255.273770 318.454545 255.243275 318.660000 255.206375 318.865455 255.163019 319.070909 255.113156 319.276364 255.056732 319.481818 254.993698 319.687273 254.924017 319.892727 254.847719 320.098182 254.764852 320.303636 254.675463 320.509091 254.579597 320.714545 254.477302 320.920000 254.368624 321.125455 254.253611 321.330909 254.132309 321.536364 254.004765 321.741818 253.871026 321.947273 253.731137 322.152727 253.585147 322.358182 253.433102 322.563636 253.275049 322.769091 253.111034 322.974545 252.941104 323.180000 252.765306 323.385455 252.583687 323.590909 252.396294 323.796364 252.203173 324.001818 252.004371 324.207273 251.799934 324.412727 251.589911 324.618182 251.374346 324.823636 251.153288 325.029091 250.926783 325.234545 250.694878 325.440000 250.457619 325.645455 250.215053 325.850909 249.967227 326.056364 249.714188 326.261818 249.455982 326.467273 249.192657 326.672727 248.924259 326.878182 248.650834 327.083636 248.372431 327.289091 248.089094 327.494545 247.800872 327.700000 247.507811 327.905455 247.209957 328.110909 246.907358 328.316364 246.600060 328.521818 246.288110 328.727273 245.971554 328.932727 245.650441 329.138182 245.324815 329.343636 244.994725 329.549091 244.660216 329.754545 244.321336 329.960000 243.978131 330.165455 243.630649 330.370909 243.278935 330.576364 242.923037 330.781818 242.563002 330.987273 242.198875 331.192727 241.830705 331.398182 241.458538 331.603636 241.082420 331.809091 240.702398 332.014545 240.318519 332.220000 239.930830 332.425455 239.539378 332.630909 239.144209 332.836364 238.745370 333.041818 238.342908 333.247273 237.936870 333.452727 237.527302 333.658182 237.114251 333.863636 236.697765 334.069091 236.277889 334.274545 235.854670 334.480000 235.428156 334.685455 234.998393 334.890909 234.565427 335.096364 234.129307 335.301818 233.690077 335.507273 233.247786 335.712727 232.802480 335.918182 232.354205 336.123636 231.903009 336.329091 231.448938 336.534545 230.992038 336.740000 230.532358 336.945455 230.069943 337.150909 229.604840 337.356364 229.137097 337.561818 228.666759 337.767273 228.193874 337.972727 227.718488 338.178182 227.240648 338.383636 226.760401 338.589091 226.277794 338.794545 225.792873 339.000000 225.305685 339.205455 224.816278 339.410909 224.324697 339.616364 223.830989 339.821818 223.335202 340.027273 222.837382 340.232727 222.337575 340.438182 221.835830 340.643636 221.332191 340.849091 220.826707 341.054545 220.319423 341.260000 219.810387 341.465455 219.299646 341.670909 218.787246 341.876364 218.273233 342.081818 217.757656 342.287273 217.240559 342.492727 216.721992 342.698182 216.201999 342.903636 215.680628 343.109091 215.157925 343.314545 214.633938 343.520000 214.108713 343.725455 213.582297 343.930909 213.054736 344.136364 212.526078 344.341818 211.996369 344.547273 211.465656 344.752727 210.933985 344.958182 210.401405 345.163636 209.867960 345.369091 209.333698 345.574545 208.798666 345.780000 208.262911 345.985455 207.726479 346.190909 207.189417 346.396364 206.651772 346.601818 206.113591 346.807273 205.574920 347.012727 205.035806 347.218182 204.496296 347.423636 203.956437 347.629091 203.416275 347.834545 202.875858 348.040000 202.335231 348.245455 201.794443 348.450909 201.253538 348.656364 200.712566 348.861818 200.171571 349.067273 199.630601 349.272727 199.089703 349.478182 198.548923 349.683636 198.008308 349.889091 197.467905 350.094545 196.927761 350.300000 196.387923 350.505455 195.848436 350.710909 195.309349 350.916364 194.770707 351.121818 194.232558 351.327273 193.694948 351.532727 193.157924 351.738182 192.621534 351.943636 192.085822 352.149091 191.550837 352.354545 191.016626 352.560000 190.483234 352.765455 189.950709 352.970909 189.419097 353.176364 188.888446 353.381818 188.358801 353.587273 187.830211 353.792727 187.302720 353.998182 186.776378 354.203636 186.251229 354.409091 185.727321 354.614545 185.204701 354.820000 184.683415 355.025455 184.163510 355.230909 183.645033 355.436364 183.128031 355.641818 182.612550 355.847273 182.098637 356.052727 181.586340 356.258182 181.075704 356.463636 180.566777 356.669091 180.059605 356.874545 179.554235 357.080000 179.050714 357.285455 178.549088 357.490909 178.049405 357.696364 177.551711 357.901818 177.056053 358.107273 176.562478 358.312727 176.071032 358.518182 175.581762 358.723636 175.094715 358.929091 174.609938 359.134545 174.127478 359.340000 173.647380 359.545455 173.169693 359.750909 172.694463 359.956364 172.221736 360.161818 171.751560 360.367273 171.283981 360.572727 170.819045 360.778182 170.356801 360.983636 169.897293 361.189091 169.440570 361.394545 168.986678 361.600000 168.535664 361.805455 168.087574 362.010909 167.642456 362.216364 167.200355 362.421818 166.761319 362.627273 166.325395 362.832727 165.892630 363.038182 165.463069 363.243636 165.036760 363.449091 164.613750 363.654545 164.194086 363.860000 163.777813 364.065455 163.364980 364.270909 162.955632 364.476364 162.549817 364.681818 162.147581 364.887273 161.748971 365.092727 161.354034 365.298182 160.962816 365.503636 160.575365 365.709091 160.191727 365.914545 159.811949 366.120000 159.436077 366.325455 159.064159 366.530909 158.696241 366.736364 158.332371 366.941818 157.972593 367.147273 157.616957 367.352727 157.265507 367.558182 156.918292 367.763636 156.575357 367.969091 156.236750 368.174545 155.902517 368.380000 155.572706 368.585455 155.247362 368.790909 154.926533 368.996364 154.610265 369.201818 154.298606 369.407273 153.991601 369.612727 153.689299 369.818182 153.391744 370.023636 153.098985 370.229091 152.811068 370.434545 152.528040 370.640000 152.249947 370.845455 151.976837 371.050909 151.708743 371.256364 151.445650 371.461818 151.187527 371.667273 150.934347 371.872727 150.686081 372.078182 150.442699 372.283636 150.204172 372.489091 149.970473 372.694545 149.741571 372.900000 149.517438 373.105455 149.298044 373.310909 149.083362 373.516364 148.873362 373.721818 148.668016 373.927273 148.467293 374.132727 148.271166 374.338182 148.079605 374.543636 147.892582 374.749091 147.710068 374.954545 147.532033 375.160000 147.358449 375.365455 147.189287 375.570909 147.024518 375.776364 146.864113 375.981818 146.708043 376.187273 146.556280 376.392727 146.408794 376.598182 146.265556 376.803636 146.126537 377.009091 145.991709 377.214545 145.861043 377.420000 145.734510 377.625455 145.612080 377.830909 145.493725 378.036364 145.379417 378.241818 145.269125 378.447273 145.162821 378.652727 145.060477 378.858182 144.962063 379.063636 144.867551 379.269091 144.776911 379.474545 144.690114 379.680000 144.607133 379.885455 144.527937 380.090909 144.452498 380.296364 144.380786 380.501818 144.312774 380.707273 144.248432 380.912727 144.187731 381.118182 144.130643 381.323636 144.077137 381.529091 144.027187 381.734545 143.980761 381.940000 143.937833 382.145455 143.898372 382.350909 143.862350 382.556364 143.829737 382.761818 143.800506 382.967273 143.774626 383.172727 143.752070 383.378182 143.732808 383.583636 143.716811 383.789091 143.704051 383.994545 143.694498 384.200000 143.688124 384.405455 143.684899 384.610909 143.684795 384.816364 143.687783 385.021818 143.693834 385.227273 143.702918 385.432727 143.715008 385.638182 143.730074 385.843636 143.748087 386.049091 143.769018 386.254545 143.792839 386.460000 143.819520 386.665455 143.849033 386.870909 143.881349 387.076364 143.916438 387.281818 143.954272 387.487273 143.994822 387.692727 144.038059 387.898182 144.083954 388.103636 144.132478 388.309091 144.183602 388.514545 144.237298 388.720000 144.293536 388.925455 144.352288 389.130909 144.413524 389.336364 144.477216 389.541818 144.543335 389.747273 144.611851 389.952727 144.682737 390.158182 144.755962 390.363636 144.831499 390.569091 144.909318 390.774545 144.989390 390.980000 145.071686 391.185455 145.156178 391.390909 145.242836 391.596364 145.331632 391.801818 145.422537 392.007273 145.515521 392.212727 145.610556 392.418182 145.707614 392.623636 145.806664 392.829091 145.907678 393.034545 146.010628 393.240000 146.115484 393.445455 146.222217 393.650909 146.330799 393.856364 146.441200 394.061818 146.553392 394.267273 146.667345 394.472727 146.783032 394.678182 146.900422 394.883636 147.019487 395.089091 147.140199 395.294545 147.262527 395.500000 147.386444 395.705455 147.511920 395.910909 147.638926 396.116364 147.767434 396.321818 147.897414 396.527273 148.028838 396.732727 148.161677 396.938182 148.295902 397.143636 148.431483 397.349091 148.568393 397.554545 148.706601 397.760000 148.846080 397.965455 148.986800 398.170909 149.128732 398.376364 149.271848 398.581818 149.416118 398.787273 149.561514 398.992727 149.708006 399.198182 149.855567 399.403636 150.004166 399.609091 150.153775 399.814545 150.304365 400.020000 150.455907 400.225455 150.608372 400.430909 150.761732 400.636364 150.915956 400.841818 151.071018 401.047273 151.226887 401.252727 151.383534 401.458182 151.540931 401.663636 151.699049 401.869091 151.857859 402.074545 152.017332 402.280000 152.177438 402.485455 152.338150 402.690909 152.499438 402.896364 152.661274 403.101818 152.823627 403.307273 152.986470 403.512727 153.149774 403.718182 153.313510 403.923636 153.477648 404.129091 153.642159 404.334545 153.807016 404.540000 153.972189 404.745455 154.137649 404.950909 154.303367 405.156364 154.469314 405.361818 154.635461 405.567273 154.801780 405.772727 154.968241 405.978182 155.134816 406.183636 155.301475 406.389091 155.468191 406.594545 155.634933 406.800000 155.801673 407.005455 155.968382 407.210909 156.135031 407.416364 156.301591 407.621818 156.468033 407.827273 156.634329 408.032727 156.800449 408.238182 156.966365 408.443636 157.132047 408.649091 157.297467 408.854545 157.462595 409.060000 157.627404 409.265455 157.791863 409.470909 157.955945 409.676364 158.119619 409.881818 158.282858 410.087273 158.445632 410.292727 158.607912 410.498182 158.769670 410.703636 158.930876 410.909091 159.091502 411.114545 159.251518 411.320000 159.410897 411.525455 159.569608 411.730909 159.727623 411.936364 159.884913 412.141818 160.041449 412.347273 160.197203 412.552727 160.352144 412.758182 160.506245 412.963636 160.659477 413.169091 160.811810 413.374545 160.963216 413.580000 161.113665 413.785455 161.263129 413.990909 161.411579 414.196364 161.558986 414.401818 161.705322 414.607273 161.850556 414.812727 161.994660 415.018182 162.137606 415.223636 162.279364 415.429091 162.419906 415.634545 162.559202 415.840000 162.697224 416.045455 162.833942 416.250909 162.969329 416.456364 163.103354 416.661818 163.235989 416.867273 163.367205 417.072727 163.496974 417.278182 163.625266 417.483636 163.752052 417.689091 163.877303 417.894545 164.000991 418.100000 164.123086 418.305455 164.243561 418.510909 164.362385 418.716364 164.479529 418.921818 164.594966 419.127273 164.708666 419.332727 164.820599 419.538182 164.930738 419.743636 165.039054 419.949091 165.145516 420.154545 165.250097 420.360000 165.352768 420.565455 165.453499 420.770909 165.552262 420.976364 165.649027 421.181818 165.743766 421.387273 165.836451 421.592727 165.927051 421.798182 166.015539 422.003636 166.101884 422.209091 166.186059 422.414545 166.268040 422.620000 166.347826 422.825455 166.425422 423.030909 166.500833 423.236364 166.574063 423.441818 166.645118 423.647273 166.714001 423.852727 166.780719 424.058182 166.845274 424.263636 166.907674 424.469091 166.967921 424.674545 167.026022 424.880000 167.081980 425.085455 167.135800 425.290909 167.187488 425.496364 167.237048 425.701818 167.284485 425.907273 167.329803 426.112727 167.373008 426.318182 167.414104 426.523636 167.453096 426.729091 167.489988 426.934545 167.524786 427.140000 167.557495 427.345455 167.588118 427.550909 167.616661 427.756364 167.643129 427.961818 167.667527 428.167273 167.689858 428.372727 167.710129 428.578182 167.728343 428.783636 167.744506 428.989091 167.758622 429.194545 167.770696 429.400000 167.780733 429.605455 167.788737 429.810909 167.794714 430.016364 167.798668 430.221818 167.800604 430.427273 167.800527 430.632727 167.798442 430.838182 167.794352 431.043636 167.788264 431.249091 167.780182 431.454545 167.770110 431.660000 167.758054 431.865455 167.744018 432.070909 167.728007 432.276364 167.710026 432.481818 167.690079 432.687273 167.668171 432.892727 167.644308 433.098182 167.618493 433.303636 167.590733 433.509091 167.561030 433.714545 167.529391 433.920000 167.495820 434.125455 167.460322 434.330909 167.422901 434.536364 167.383562 434.741818 167.342311 434.947273 167.299151 435.152727 167.254089 435.358182 167.207127 435.563636 167.158272 435.769091 167.107528 435.974545 167.054899 436.180000 167.000392 436.385455 166.944009 436.590909 166.885757 436.796364 166.825639 437.001818 166.763662 437.207273 166.699828 437.412727 166.634144 437.618182 166.566614 437.823636 166.497243 438.029091 166.426035 438.234545 166.352996 438.440000 166.278130 438.645455 166.201441 438.850909 166.122936 439.056364 166.042618 439.261818 165.960492 439.467273 165.876563 439.672727 165.790836 439.878182 165.703316 440.083636 165.614007 440.289091 165.522914 440.494545 165.430042 440.700000 165.335395 440.905455 165.238980 441.110909 165.140799 441.316364 165.040859 441.521818 164.939163 441.727273 164.835717 441.932727 164.730525 442.138182 164.623593 442.343636 164.514924 442.549091 164.404524 442.754545 164.292398 442.960000 164.178549 443.165455 164.062984 443.370909 163.945707 443.576364 163.826723 443.781818 163.706035 443.987273 163.583650 444.192727 163.459572 444.398182 163.333806 444.603636 163.206356 444.809091 163.077227 445.014545 162.946425 445.220000 162.813953 445.425455 162.679817 445.630909 162.544021 445.836364 162.406571 446.041818 162.267470 446.247273 162.126724 446.452727 161.984338 446.658182 161.840316 446.863636 161.694663 447.069091 161.547384 447.274545 161.398484 447.480000 161.247967 447.685455 161.095838 447.890909 160.942102 448.096364 160.786764 448.301818 160.629829 448.507273 160.471300 448.712727 160.311184 448.918182 160.149485 449.123636 159.986207 449.329091 159.821356 449.534545 159.654936 449.740000 159.486952 449.945455 159.317409 450.150909 159.146311 450.356364 158.973664 450.561818 158.799471 450.767273 158.623739 450.972727 158.446471 451.178182 158.267673 451.383636 158.087349 451.589091 157.905504 451.794545 157.722142 452.000000 157.537270 452.205455 157.350890 452.410909 157.163009 452.616364 156.973630 452.821818 156.782760 453.027273 156.590401 453.232727 156.396560 453.438182 156.201241 453.643636 156.004449 453.849091 155.806188 454.054545 155.606464 454.260000 155.405280 454.465455 155.202643 454.670909 154.998556 454.876364 154.793025 455.081818 154.586054 455.287273 154.377648 455.492727 154.167812 455.698182 153.956550 455.903636 153.743868 456.109091 153.529770 456.314545 153.314261 456.520000 153.097345 456.725455 152.879028 456.930909 152.659314 457.136364 152.438209 457.341818 152.215716 457.547273 151.991840 457.752727 151.766587 457.958182 151.539962 458.163636 151.311968 458.369091 151.082610 458.574545 150.851895 458.780000 150.619825 458.985455 150.386407 459.190909 150.151644 459.396364 149.915542 459.601818 149.678106 459.807273 149.439339 460.012727 149.199248 460.218182 148.957836 460.423636 148.715109 460.629091 148.471071 460.834545 148.225727 461.040000 147.979082 461.245455 147.731140 461.450909 147.481907 461.656364 147.231387 461.861818 146.979585 462.067273 146.726506 462.272727 146.472154 462.478182 146.216534 462.683636 145.959652 462.889091 145.701511 463.094545 145.442117 463.300000 145.181475 463.505455 144.919588 463.710909 144.656463 463.916364 144.392103 464.121818 144.126514 464.327273 143.859700 464.532727 143.591667 464.738182 143.322418 464.943636 143.051958 465.149091 142.780294 465.354545 142.507428 465.560000 142.233366 465.765455 141.958113 465.970909 141.681674 466.176364 141.404053 466.381818 141.125255 466.587273 140.845285 466.792727 140.564147 466.998182 140.281847 467.203636 139.998389 467.409091 139.713778 467.614545 139.428019 467.820000 139.141117 468.025455 138.853075 468.230909 138.563900 468.436364 138.273596 468.641818 137.982167 468.847273 137.689619 469.052727 137.395956 469.258182 137.101183 469.463636 136.805305 469.669091 136.508326 469.874545 136.210252 470.080000 135.911087 470.285455 135.610836 470.490909 135.309503 470.696364 135.007094 470.901818 134.703613 471.107273 134.399065 471.312727 134.093455 471.518182 133.786787 471.723636 133.479067 471.929091 133.170299 472.134545 132.860488 472.340000 132.549638 472.545455 132.237755 472.750909 131.924843 472.956364 131.610907 473.161818 131.295952 473.367273 130.979983 473.572727 130.663004 473.778182 130.345021 473.983636 130.026043 474.189091 129.706079 474.394545 129.385140 474.600000 129.063236 474.805455 128.740375 475.010909 128.416569 475.216364 128.091826 475.421818 127.766157 475.627273 127.439571 475.832727 127.112078 476.038182 126.783688 476.243636 126.454411 476.449091 126.124256 476.654545 125.793234 476.860000 125.461354 477.065455 125.128625 477.270909 124.795059 477.476364 124.460664 477.681818 124.125450 477.887273 123.789427 478.092727 123.452606 478.298182 123.114995 478.503636 122.776604 478.709091 122.437444 478.914545 122.097524 479.120000 121.756853 479.325455 121.415443 479.530909 121.073302 479.736364 120.730440 479.941818 120.386867 480.147273 120.042594 480.352727 119.697629 480.558182 119.351982 480.763636 119.005664 480.969091 118.658684 481.174545 118.311051 481.380000 117.962777 481.585455 117.613869 481.790909 117.264340 481.996364 116.914197 482.201818 116.563451 482.407273 116.212112 482.612727 115.860189 482.818182 115.507692 483.023636 115.154632 483.229091 114.801018 483.434545 114.446859 483.640000 114.092165 483.845455 113.736947 484.050909 113.381214 484.256364 113.024976 484.461818 112.668243 484.667273 112.311023 484.872727 111.953329 485.078182 111.595168 485.283636 111.236551 485.489091 110.877488 485.694545 110.517988 485.900000 110.158062 486.105455 109.797718 486.310909 109.436968 486.516364 109.075820 486.721818 108.714284 486.927273 108.352371 487.132727 107.990090 487.338182 107.627450 487.543636 107.264463 487.749091 106.901136 487.954545 106.537481 488.160000 106.173507 488.365455 105.809224 488.570909 105.444642 488.776364 105.079770 488.981818 104.714618 489.187273 104.349196 489.392727 103.983514 489.598182 103.617582 489.803636 103.251409 490.009091 102.885005 490.214545 102.518380 490.420000 102.151544 490.625455 101.784507 490.830909 101.417278 491.036364 101.049868 491.241818 100.682285 491.447273 100.314540 491.652727 99.946643 491.858182 99.578604 492.063636 99.210431 492.269091 98.842136 492.474545 98.473727 492.680000 98.105215 492.885455 97.736609 493.090909 97.367920 493.296364 96.999156 493.501818 96.630329 493.707273 96.261447 493.912727 95.892520 494.118182 95.523558 494.323636 95.154572 494.529091 94.785570 494.734545 94.416563 494.940000 94.047561 495.145455 93.678572 495.350909 93.309608 495.556364 92.940677 495.761818 92.571790 495.967273 92.202956 496.172727 91.834186 496.378182 91.465488 496.583636 91.096873 496.789091 90.728351 496.994545 90.359931 497.200000 89.991624 497.405455 89.623438 497.610909 89.255384 497.816364 88.887472 498.021818 88.519711 498.227273 88.152111 498.432727 87.784682 498.638182 87.417434 498.843636 87.050377 499.049091 86.683520 499.254545 86.316873 499.460000 85.950446 499.665455 85.584249 499.870909 85.218291 500.076364 84.852583 500.281818 84.487134 500.487273 84.121954 500.692727 83.757052 500.898182 83.392439 501.103636 83.028125 501.309091 82.664119 501.514545 82.300430 501.720000 81.937070 501.925455 81.574047 502.130909 81.211371 502.336364 80.849052 502.541818 80.487100 502.747273 80.125526 502.952727 79.764337 503.158182 79.403545 503.363636 79.043159 503.569091 78.683189 503.774545 78.323645 503.980000 77.964536 504.185455 77.605873 504.390909 77.247665 504.596364 76.889921 504.801818 76.532653 505.007273 76.175869 505.212727 75.819579 505.418182 75.463793 505.623636 75.108522 505.829091 74.753774 506.034545 74.399559 506.240000 74.045888 506.445455 73.692770 506.650909 73.340215 506.856364 72.988233 507.061818 72.636833 507.267273 72.286025 507.472727 71.935820 507.678182 71.586226 507.883636 71.237254 508.089091 70.888914 508.294545 70.541215 508.500000 70.194167 508.705455 69.847780 508.910909 69.502064 509.116364 69.157028 509.321818 68.812682 509.527273 68.469037 509.732727 68.126101 509.938182 67.783886 510.143636 67.442399 510.349091 67.101652 510.554545 66.761654 510.760000 66.422415 510.965455 66.083945 511.170909 65.746253 511.376364 65.409349 511.581818 65.073244 511.787273 64.737946 511.992727 64.403466 512.198182 64.069813 512.403636 63.736998 512.609091 63.405030 512.814545 63.073919 513.020000 62.743674 513.225455 62.414306 513.430909 62.085824 513.636364 61.758238 513.841818 61.431558 514.047273 61.105794 514.252727 60.780955 514.458182 60.457052 514.663636 60.134093 514.869091 59.812089 515.074545 59.491050 515.280000 59.170986 515.485455 58.851906 515.690909 58.533820 515.896364 58.216737 516.101818 57.900668 516.307273 57.585623 516.512727 57.271611 516.718182 56.958642 516.923636 56.646726 517.129091 56.335873 517.334545 56.026092 517.540000 55.717393 517.745455 55.409786 517.950909 55.103281 518.156364 54.797888 518.361818 54.493616 518.567273 54.190476 518.772727 53.888476 518.978182 53.587627 519.183636 53.287939 519.389091 52.989421 519.594545 52.692084 519.800000 52.395937 520.005455 52.100989 520.210909 51.807251 520.416364 51.514732 520.621818 51.223443 520.827273 50.933393 521.032727 50.644591 521.238182 50.357049 521.443636 50.070774 521.649091 49.785778 521.854545 49.502070 522.060000 49.219659 522.265455 48.938556 522.470909 48.658771 522.676364 48.380313 522.881818 48.103192 523.087273 47.827417 523.292727 47.552999 523.498182 47.279948 523.703636 47.008273 523.909091 46.737984 524.114545 46.469090 524.320000 46.201603 524.525455 45.935530 524.730909 45.670883 524.936364 45.407671 525.141818 45.145901 525.347273 44.885570 525.552727 44.626672 525.758182 44.369202 525.963636 44.113153 526.169091 43.858520 526.374545 43.605298 526.580000 43.353479 526.785455 43.103060 526.990909 42.854033 527.196364 42.606393 527.401818 42.360134 527.607273 42.115251 527.812727 41.871737 528.018182 41.629587 528.223636 41.388796 528.429091 41.149356 528.634545 40.911264 528.840000 40.674512 529.045455 40.439095 529.250909 40.205007 529.456364 39.972242 529.661818 39.740796 529.867273 39.510661 530.072727 39.281832 530.278182 39.054304 530.483636 38.828070 530.689091 38.603124 530.894545 38.379462 531.100000 38.157077 531.305455 37.935964 531.510909 37.716116 531.716364 37.497528 531.921818 37.280194 532.127273 37.064108 532.332727 36.849265 532.538182 36.635658 532.743636 36.423283 532.949091 36.212132 533.154545 36.002201 533.360000 35.793484 533.565455 35.585975 533.770909 35.379667 533.976364 35.174556 534.181818 34.970636 534.387273 34.767900 534.592727 34.566343 534.798182 34.365959 535.003636 34.166743 535.209091 33.968688 535.414545 33.771789 535.620000 33.576040 535.825455 33.381436 536.030909 33.187970 536.236364 32.995636 536.441818 32.804430 536.647273 32.614344 536.852727 32.425375 537.058182 32.237514 537.263636 32.050758 537.469091 31.865099 537.674545 31.680533 537.880000 31.497053 538.085455 31.314654 538.290909 31.133330 538.496364 30.953075 538.701818 30.773884 538.907273 30.595750 539.112727 30.418668 539.318182 30.242632 539.523636 30.067636 539.729091 29.893674 539.934545 29.720742 540.140000 29.548832 540.345455 29.377939 540.550909 29.208058 540.756364 29.039182 540.961818 28.871306 541.167273 28.704424 541.372727 28.538531 541.578182 28.373619 541.783636 28.209685 541.989091 28.046721 542.194545 27.884722 542.400000 27.723683 542.605455 27.563598 542.810909 27.404460 543.016364 27.246264 543.221818 27.089004 543.427273 26.932675 543.632727 26.777271 543.838182 26.622785 544.043636 26.469212 544.249091 26.316547 544.454545 26.164784 544.660000 26.013916 544.865455 25.863938 545.070909 25.714844 545.276364 25.566629 545.481818 25.419286 545.687273 25.272811 545.892727 25.127196 546.098182 24.982437 546.303636 24.838527 546.509091 24.695461 546.714545 24.553233 546.920000 24.411837 547.125455 24.271268 547.330909 24.131519 547.536364 23.992585 547.741818 23.854460 547.947273 23.717139 548.152727 23.580615 548.358182 23.444882 548.563636 23.309936 548.769091 23.175770 548.974545 23.042378 549.180000 22.909755 549.385455 22.777895 549.590909 22.646792 549.796364 22.516440 550.001818 22.386834 550.207273 22.257967 550.412727 22.129834 550.618182 22.002430 550.823636 21.875748 551.029091 21.749782 551.234545 21.624528 551.440000 21.499978 551.645455 21.376128 551.850909 21.252971 552.056364 21.130502 552.261818 21.008715 552.467273 20.887604 552.672727 20.767163 552.878182 20.647387 553.083636 20.528270 553.289091 20.409806 553.494545 20.291989 553.700000 20.174814 553.905455 20.058274 554.110909 19.942364 554.316364 19.827079 554.521818 19.712412 554.727273 19.598357 554.932727 19.484909 555.138182 19.372062 555.343636 19.259811 555.549091 19.148149 555.754545 19.037070 555.960000 18.926570 556.165455 18.816642 556.370909 18.707280 556.576364 18.598478 556.781818 18.490232 556.987273 18.382534 557.192727 18.275380 557.398182 18.168763 557.603636 18.062678 557.809091 17.957119 558.014545 17.852080 558.220000 17.747555 558.425455 17.643539 558.630909 17.540025 558.836364 17.437009 559.041818 17.334484 559.247273 17.232444 559.452727 17.130884 559.658182 17.029798 559.863636 16.929180 560.069091 16.829024 560.274545 16.729325 560.480000 16.630076 560.685455 16.531273 560.890909 16.432909 561.096364 16.334978 561.301818 16.237475 561.507273 16.140394 561.712727 16.043729 561.918182 15.947474 562.123636 15.851624 562.329091 15.756172 562.534545 15.661114 562.740000 15.566442 562.945455 15.472152 563.150909 15.378238 563.356364 15.284694 563.561818 15.191513 563.767273 15.098691 563.972727 15.006222 564.178182 14.914099 564.383636 14.822318 564.589091 14.730871 564.794545 14.639754 565.000000 14.548960 565.205455 14.458485 565.410909 14.368321 565.616364 14.278464 565.821818 14.188907 566.027273 14.099645 566.232727 14.010672 566.438182 13.921982 566.643636 13.833570 566.849091 13.745429 567.054545 13.657554 567.260000 13.569939 567.465455 13.482578 567.670909 13.395466 567.876364 13.308597 568.081818 13.221964 568.287273 13.135563 568.492727 13.049387 568.698182 12.963431 568.903636 12.877688 569.109091 12.792154 569.314545 12.706822 569.520000 12.621686 569.725455 12.536741 569.930909 12.451981 570.136364 12.367400 570.341818 12.282993 570.547273 12.198753 570.752727 12.114674 570.958182 12.030752 571.163636 11.946981 571.369091 11.863353 571.574545 11.779865 571.780000 11.696509 571.985455 11.613280 572.190909 11.530173 572.396364 11.447182 572.601818 11.364300 572.807273 11.281522 573.012727 11.198842 573.218182 11.116255 573.423636 11.033755 573.629091 10.951335 573.834545 10.868991 574.040000 10.786716 574.245455 10.704505 574.450909 10.622351 574.656364 10.540249 574.861818 10.458194 575.067273 10.376179 575.272727 10.294199 575.478182 10.212247 575.683636 10.130319 575.889091 10.048408 576.094545 9.966509 576.300000 9.884615 576.300000 514.000000" /></g></g><g class="titles"><text class="title plot_title" x="400.0" y="26">Phrom-Phong 52</text></g><g class="plot overlay" transform="translate(192, 46)"><g class="series serie-0 color-0"><g class="dots"><circle class="dot reactive tooltip-trigger" cx="11.3" cy="240.78447573767107" r="2.5" /><desc class="value">524000</desc><desc class="x ">11.3</desc><desc class="y ">240.78447573767107</desc><desc class="x_label">Jan</desc></g><g class="dots"><circle class="dot reactive tooltip-trigger" cx="62.66363636363637" cy="322.4875032472139" r="2.5" /><desc class="value">501000</desc><desc class="x top">62.66363636363637</desc><desc class="y top">322.4875032472139</desc><desc class="x_label">Feb</desc></g><g class="dots"><circle class="dot reactive tooltip-trigger" cx="114.02727272727273" cy="130.66300387698288" r="2.5" /><desc class="value">555000</desc><desc class="x ">114.02727272727273</desc><desc class="y ">130.66300387698288</desc><desc class="x_label">Mar</desc></g><g class="dots"><circle class="dot reactive tooltip-trigger" cx="165.39090909090908" cy="482.3412527224064" r="2.5" /><desc class="value">456000</desc><desc class="x top">165.39090909090908</desc><desc class="y top">482.3412527224064</desc><desc class="x_label">Apr</desc></g><g class="dots"><circle class="dot reactive tooltip-trigger" cx="216.75454545454548" cy="354.4582531422524" r="2.5" /><desc class="value">492000</desc><desc class="x top">216.75454545454548</desc><desc class="y top">354.4582531422524</desc><desc class="x_label">May</desc></g><g class="dots"><circle class="dot reactive tooltip-trigger" cx="268.1181818181818" cy="198.1568092109531" r="2.5" /><desc class="value">536000</desc><desc class="x ">268.1181818181818</desc><desc class="y ">198.1568092109531</desc><desc class="x_label">Jun</desc></g><g class="dots"><circle class="dot reactive tooltip-trigger" cx="319.4818181818182" cy="254.99369791324375" r="2.5" /><desc class="value">520000</desc><desc class="x left">319.4818181818182</desc><desc class="y left">254.99369791324375</desc><desc class="x_label">Jul</desc></g><g class="dots"><circle class="dot reactive tooltip-trigger" cx="370.8454545454546" cy="151.9768371403419" r="2.5" /><desc class="value">549000</desc><desc class="x left">370.8454545454546</desc><desc class="y left">151.9768371403419</desc><desc class="x_label">Aug</desc></g><g class="dots"><circle class="dot reactive tooltip-trigger" cx="422.20909090909095" cy="166.18605931591458" r="2.5" /><desc class="value">545000</desc><desc class="x left">422.20909090909095</desc><desc class="y left">166.18605931591458</desc><desc class="x_label">Sep</desc></g><g class="dots"><circle class="dot reactive tooltip-trigger" cx="473.5727272727273" cy="130.66300387698288" r="2.5" /><desc class="value">555000</desc><desc class="x left">473.5727272727273</desc><desc class="y left">130.66300387698288</desc><desc class="x_label">Oct</desc></g><g class="dots"><circle class="dot reactive tooltip-trigger" cx="524.9363636363636" cy="45.40767082354688" r="2.5" /><desc class="value">579000</desc><desc class="x left">524.9363636363636</desc><desc class="y left">45.40767082354688</desc><desc class="x_label">Nov</desc></g><g class="dots"><circle class="dot reactive tooltip-trigger" cx="576.3000000000001" cy="9.884615384615188" r="2.5" /><desc class="value">589000</desc><desc class="x left">576.3000000000001</desc><desc class="y left">9.884615384615188</desc><desc class="x_label">Dec</desc></g></g></g><g class="plot text-overlay" transform="translate(192, 46)"><g class="series serie-0 color-0" /></g><g class="plot tooltip-overlay" transform="translate(192, 46)"><g class="tooltip" style="opacity: 0" transform="translate(0 0)"><rect class="tooltip-box" height="0" rx="0" ry="0" width="0" /><g class="text" /></g></g><g class="legends" transform="translate(10, 56)"><g class="legend reactive activate-serie" id="activate-serie-0"><rect class="color-0 reactive" height="12" width="12" x="0.0" y="1.0" /><text x="17.0" y="11.2">Phrom-Phong</text></g></g><g class="legends" transform="translate(790, 56)" /></g></svg>