<?xml version='1.0' encoding='utf-8'?>
<svg xmlns:xlink="http://www.w3.org/1999/xlink" class="pygal-chart" id="chart-62b38155-f02b-4a97-bacc-251939f22de5" viewBox="0 0 800 600" xmlns="http://www.w3.org/2000/svg"><!--Generated with pygal 2.0.11 (etree) ©Kozea 2011-2015 on 2015-12-10--><!--http://pygal.org--><!--http://github.com/Kozea/pygal--><defs><style type="text/css">#chart-62b38155-f02b-4a97-bacc-251939f22de5{-webkit-user-select:none;-webkit-font-smoothing:antialiased;font-family:Consolas,"Liberation Mono",Menlo,Courier,monospace}#chart-62b38155-f02b-4a97-bacc-251939f22de5 .title{font-family:Consolas,"Liberation Mono",Menlo,Courier,monospace;font-size:16px}#chart-62b38155-f02b-4a97-bacc-251939f22de5 .legends .legend text{font-family:Consolas,"Liberation Mono",Menlo,Courier,monospace;font-size:14px}#chart-62b38155-f02b-4a97-bacc-251939f22de5 .axis text{font-family:Consolas,"Liberation Mono",Menlo,Courier,monospace;font-size:10px}#chart-62b38155-f02b-4a97-bacc-251939f22de5 .axis text.major{font-family:Consolas,"Liberation Mono",Menlo,Courier,monospace;font-size:10px}#chart-62b38155-f02b-4a97-bacc-251939f22de5 .text-overlay text.value{font-family:Consolas,"Liberation Mono",Menlo,Courier,monospace;font-size:16px}#chart-62b38155-f02b-4a97-bacc-251939f22de5 .text-overlay text.label{font-family:Consolas,"Liberation Mono",Menlo,Courier,monospace;font-size:10px}#chart-62b38155-f02b-4a97-bacc-251939f22de5 .tooltip{font-family:Consolas,"Liberation Mono",Menlo,Courier,monospace;font-size:14px}#chart-62b38155-f02b-4a97-bacc-251939f22de5 text.no_data{font-family:Consolas,"Liberation Mono",Menlo,Courier,monospace;font-size:64px}
#chart-62b38155-f02b-4a97-bacc-251939f22de5{background-color:black}#chart-62b38155-f02b-4a97-bacc-251939f22de5 path,#chart-62b38155-f02b-4a97-bacc-251939f22de5 line,#chart-62b38155-f02b-4a97-bacc-251939f22de5 rect,#chart-62b38155-f02b-4a97-bacc-251939f22de5 circle{-webkit-transition:250ms;-moz-transition:250ms;transition:250ms}#chart-62b38155-f02b-4a97-bacc-251939f22de5 .graph &gt; .background{fill:black}#chart-62b38155-f02b-4a97-bacc-251939f22de5 .plot &gt; .background{fill:#111}#chart-62b38155-f02b-4a97-bacc-251939f22de5 .graph{fill:#999}#chart-62b38155-f02b-4a97-bacc-251939f22de5 text.no_data{fill:#eee}#chart-62b38155-f02b-4a97-bacc-251939f22de5 .title{fill:#eee}#chart-62b38155-f02b-4a97-bacc-251939f22de5 .legends .legend text{fill:#999}#chart-62b38155-f02b-4a97-bacc-251939f22de5 .legends .legend:hover text{fill:#eee}#chart-62b38155-f02b-4a97-bacc-251939f22de5 .axis .line{stroke:#eee}#chart-62b38155-f02b-4a97-bacc-251939f22de5 .axis .guide.line{stroke:#555}#chart-62b38155-f02b-4a97-bacc-251939f22de5 .axis .major.line{stroke:#999}#chart-62b38155-f02b-4a97-bacc-251939f22de5 .axis text.major{fill:#eee}#chart-62b38155-f02b-4a97-bacc-251939f22de5 .axis.y .guides:hover .guide.line,#chart-62b38155-f02b-4a97-bacc-251939f22de5 .line-graph .axis.x .guides:hover .guide.line,#chart-62b38155-f02b-4a97-bacc-251939f22de5 .stackedline-graph .axis.x .guides:hover .guide.line,#chart-62b38155-f02b-4a97-bacc-251939f22de5 .xy-graph .axis.x .guides:hover .guide.line{stroke:#eee}#chart-62b38155-f02b-4a97-bacc-251939f22de5 .axis .guides:hover text{fill:#eee}#chart-62b38155-f02b-4a97-bacc-251939f22de5 .reactive{fill-opacity:.8}#chart-62b38155-f02b-4a97-bacc-251939f22de5 .reactive.active,#chart-62b38155-f02b-4a97-bacc-251939f22de5 .active .reactive{fill-opacity:.4;stroke-width:4}#chart-62b38155-f02b-4a97-bacc-251939f22de5 .series text{fill:#eee}#chart-62b38155-f02b-4a97-bacc-251939f22de5 .tooltip rect{fill:#111;stroke:#eee;-webkit-transition:opacity 250ms;-moz-transition:opacity 250ms;transition:opacity 250ms}#chart-62b38155-f02b-4a97-bacc-251939f22de5 .tooltip .label{fill:#999}#chart-62b38155-f02b-4a97-bacc-251939f22de5 .tooltip .label{fill:#999}#chart-62b38155-f02b-4a97-bacc-251939f22de5 .tooltip .legend{font-size:.8em;fill:#555}#chart-62b38155-f02b-4a97-bacc-251939f22de5 .tooltip .x_label{font-size:.6em;fill:#eee}#chart-62b38155-f02b-4a97-bacc-251939f22de5 .tooltip .xlink{font-size:.5em;text-decoration:underline}#chart-62b38155-f02b-4a97-bacc-251939f22de5 .tooltip .value{font-size:1.5em}#chart-62b38155-f02b-4a97-bacc-251939f22de5 .map-element{fill:#111;stroke:#555 !important}#chart-62b38155-f02b-4a97-bacc-251939f22de5 .map-element .reactive{fill-opacity:inherit}#chart-62b38155-f02b-4a97-bacc-251939f22de5 .color-0,#chart-62b38155-f02b-4a97-bacc-251939f22de5 .color-0 a:visited{stroke:#ff5995;fill:#ff5995}#chart-62b38155-f02b-4a97-bacc-251939f22de5 .text-overlay .color-0 text{fill:black}
#chart-62b38155-f02b-4a97-bacc-251939f22de5 text.no_data{text-anchor:middle}#chart-62b38155-f02b-4a97-bacc-251939f22de5 .guide.line{fill:none}#chart-62b38155-f02b-4a97-bacc-251939f22de5 .centered{text-anchor:middle}#chart-62b38155-f02b-4a97-bacc-251939f22de5 .title{text-anchor:middle}#chart-62b38155-f02b-4a97-bacc-251939f22de5 .legends .legend text{fill-opacity:1}#chart-62b38155-f02b-4a97-bacc-251939f22de5 .axis.x text{text-anchor:middle}#chart-62b38155-f02b-4a97-bacc-251939f22de5 .axis.x:not(.web) text[transform]{text-anchor:start}#chart-62b38155-f02b-4a97-bacc-251939f22de5 .axis.x:not(.web) text[transform].backwards{text-anchor:end}#chart-62b38155-f02b-4a97-bacc-251939f22de5 .axis.y text{text-anchor:end}#chart-62b38155-f02b-4a97-bacc-251939f22de5 .axis.y text[transform].backwards{text-anchor:start}#chart-62b38155-f02b-4a97-bacc-251939f22de5 .axis.y2 text{text-anchor:start}#chart-62b38155-f02b-4a97-bacc-251939f22de5 .axis.y2 text[transform].backwards{text-anchor:end}#chart-62b38155-f02b-4a97-bacc-251939f22de5 .axis .guide.line{stroke-dasharray:4,4}#chart-62b38155-f02b-4a97-bacc-251939f22de5 .axis .major.guide.line{stroke-dasharray:6,6}#chart-62b38155-f02b-4a97-bacc-251939f22de5 .horizontal .axis.y .guide.line,#chart-62b38155-f02b-4a97-bacc-251939f22de5 .horizontal .axis.y2 .guide.line,#chart-62b38155-f02b-4a97-bacc-251939f22de5 .vertical .axis.x .guide.line{opacity:0}#chart-62b38155-f02b-4a97-bacc-251939f22de5 .horizontal .axis.always_show .guide.line,#chart-62b38155-f02b-4a97-bacc-251939f22de5 .vertical .axis.always_show .guide.line{opacity:1 !important}#chart-62b38155-f02b-4a97-bacc-251939f22de5 .axis.y .guides:hover .guide.line,#chart-62b38155-f02b-4a97-bacc-251939f22de5 .axis.y2 .guides:hover .guide.line,#chart-62b38155-f02b-4a97-bacc-251939f22de5 .axis.x .guides:hover .guide.line{opacity:1}#chart-62b38155-f02b-4a97-bacc-251939f22de5 .axis .guides:hover text{opacity:1}#chart-62b38155-f02b-4a97-bacc-251939f22de5 .nofill{fill:none}#chart-62b38155-f02b-4a97-bacc-251939f22de5 .subtle-fill{fill-opacity:.2}#chart-62b38155-f02b-4a97-bacc-251939f22de5 .dot{stroke-width:1px;fill-opacity:1}#chart-62b38155-f02b-4a97-bacc-251939f22de5 .dot.active{stroke-width:5px}#chart-62b38155-f02b-4a97-bacc-251939f22de5 .dot.negative{fill:transparent}#chart-62b38155-f02b-4a97-bacc-251939f22de5 text,#chart-62b38155-f02b-4a97-bacc-251939f22de5 tspan{stroke:none !important}#chart-62b38155-f02b-4a97-bacc-251939f22de5 .series text.active{opacity:1}#chart-62b38155-f02b-4a97-bacc-251939f22de5 .tooltip rect{fill-opacity:.95;stroke-width:.5}#chart-62b38155-f02b-4a97-bacc-251939f22de5 .tooltip text{fill-opacity:1}#chart-62b38155-f02b-4a97-bacc-251939f22de5 .showable{visibility:hidden}#chart-62b38155-f02b-4a97-bacc-251939f22de5 .showable.shown{visibility:visible}</style><script type="text/javascript">window.pygal = window.pygal || {};window.pygal.config = window.pygal.config || {};window.pygal.config['62b38155-f02b-4a97-bacc-251939f22de5'] = {"print_values": false, "truncate_label": null, "human_readable": false, "explicit_size": false, "show_y_labels": true, "x_labels": ["Jan", "Feb", "Mar", "Apr", "May", "Jun", "Jul", "Aug", "Sep", "Oct", "Nov", "Dec"], "inverse_y_axis": false, "x_labels_major_count": null, "show_y_guides": true, "spacing": 10, "xrange": null, "rounded_bars": null, "margin": 20, "interpolation_precision": 250, "title": "Victory-Monument 52", "stroke_style": null, "no_data_text": "No data", "fill": true, "box_mode": "extremes", "print_labels": false, "interpolate": "cubic", "zero": 0, "show_only_major_dots": false, "truncate_legend": null, "show_minor_x_labels": true, "js": ["//kozea.github.io/pygal.js/2.0.x/pygal-tooltips.min.js"], "x_labels_major_every": null, "legends": ["Victory-Monument"], "tooltip_fancy_mode": true, "disable_xml_declaration": false, "show_x_guides": false, "print_zeroes": true, "show_legend": true, "legend_at_bottom": false, "y_labels_major_count": null, "secondary_range": null, "margin_bottom": null, "half_pie": false, "height": 600, "range": null, "show_minor_y_labels": true, "defs": [], "css": ["file://style.css", "file://graph.css"], "y_labels": null, "interpolation_parameters": {}, "width": 800, "strict": false, "pretty_print": false, "min_scale": 4, "margin_top": null, "dynamic_print_values": false, "order_min": null, "x_title": null, "margin_left": null, "margin_right": null, "y_labels_major_every": null, "stroke": true, "x_labels_major": null, "missing_value_fill_truncation": "x", "logarithmic": false, "stack_from_top": false, "show_dots": true, "style": {"title_font_size": 16, "title_font_family": "Consolas, \"Liberation Mono\", Menlo, Courier, monospace", "tooltip_font_family": "Consolas, \"Liberation Mono\", Menlo, Courier, monospace", "background": "black", "tooltip_font_size": 14, "opacity_hover": ".4", "value_label_font_size": 10, "opacity": ".8", "no_data_font_family": "Consolas, \"Liberation Mono\", Menlo, Courier, monospace", "label_font_size": 10, "plot_background": "#111", "value_font_size": 16, "value_font_family": "Consolas, \"Liberation Mono\", Menlo, Courier, monospace", "no_data_font_size": 64, "foreground_strong": "#eee", "font_family": "Consolas, \"Liberation Mono\", Menlo, Courier, monospace", "label_font_family": "Consolas, \"Liberation Mono\", Menlo, Courier, monospace", "transition": "250ms", "major_guide_stroke_dasharray": "6,6", "foreground_subtle": "#555", "value_colors": [], "value_label_font_family": "Consolas, \"Liberation Mono\", Menlo, Courier, monospace", "guide_stroke_dasharray": "4,4", "major_label_font_size": 10, "legend_font_family": "Consolas, \"Liberation Mono\", Menlo, Courier, monospace", "major_label_font_family": "Consolas, \"Liberation Mono\", Menlo, Courier, monospace", "foreground": "#999", "colors": ["#ff5995", "#b6e354", "#feed6c", "#8cedff", "#9e6ffe", "#899ca1", "#f8f8f2", "#bf4646", "#516083", "#f92672", "#82b414", "#fd971f", "#56c2d6", "#808384", "#8c54fe", "#465457"], "legend_font_size": 14}, "y_labels_major": null, "x_label_rotation": 0, "max_scale": 16, "value_formatter": null, "dots_size": 2.5, "legend_at_bottom_columns": null, "force_uri_protocol": null, "x_value_formatter": null, "legend_box_size": 12, "include_x_axis": false, "y_label_rotation": 0, "show_x_labels": true, "inner_radius": 0, "no_prefix": false, "tooltip_border_radius": 0, "y_title": null}</script><script type="text/javascript" xlink:href="//kozea.github.io/pygal.js/2.0.x/pygal-tooltips.min.js" /></defs><title>Victory-Monument 52</title><g class="graph line-graph vertical"><rect class="background" height="600" width="800" x="0" y="0" /><g class="plot" transform="translate(232, 46)"><rect class="background" height="514" width="548.0" x="0" y="0" /><g class="axis y"><path class="line" d="M0.000000 514.000000 h548.000000" /><g class="guides"><path class="guide line" d="M0.000000 484.979771 h548.000000" /><text class="" x="-5" y="488.47977062318523">840000.0</text><title>840000.0</title></g><g class="guides"><path class="guide line" d="M0.000000 447.124899 h548.000000" /><text class="" x="-5" y="450.62489886255673">860000.0</text><title>860000.0</title></g><g class="guides"><path class="guide line" d="M0.000000 409.270027 h548.000000" /><text class="" x="-5" y="412.77002710192824">880000.0</text><title>880000.0</title></g><g class="guides"><path class="major guide line" d="M0.000000 371.415155 h548.000000" /><text class="major" x="-5" y="374.91515534129974">900000.0</text><title>900000.0</title></g><g class="guides"><path class="guide line" d="M0.000000 333.560284 h548.000000" /><text class="" x="-5" y="337.06028358067124">920000.0</text><title>920000.0</title></g><g class="guides"><path class="guide line" d="M0.000000 295.705412 h548.000000" /><text class="" x="-5" y="299.20541182004274">940000.0</text><title>940000.0</title></g><g class="guides"><path class="guide line" d="M0.000000 257.850540 h548.000000" /><text class="" x="-5" y="261.35054005941424">960000.0</text><title>960000.0</title></g><g class="guides"><path class="guide line" d="M0.000000 219.995668 h548.000000" /><text class="" x="-5" y="223.4956682987857">980000.0</text><title>980000.0</title></g><g class="guides"><path class="major guide line" d="M0.000000 182.140797 h548.000000" /><text class="major" x="-5" y="185.6407965381572">1000000.0</text><title>1000000.0</title></g><g class="guides"><path class="guide line" d="M0.000000 144.285925 h548.000000" /><text class="" x="-5" y="147.7859247775287">1020000.0</text><title>1020000.0</title></g><g class="guides"><path class="guide line" d="M0.000000 106.431053 h548.000000" /><text class="" x="-5" y="109.9310530169002">1040000.0</text><title>1040000.0</title></g><g class="guides"><path class="guide line" d="M0.000000 68.576181 h548.000000" /><text class="" x="-5" y="72.0761812562717">1060000.0</text><title>1060000.0</title></g><g class="guides"><path class="guide line" d="M0.000000 30.721309 h548.000000" /><text class="" x="-5" y="34.2213094956432">1080000.0</text><title>1080000.0</title></g></g><g class="axis x"><g class="guides"><path class="line" d="M10.538462 0.000000 v514.000000" /><text class="" x="10.538461538461538" y="529.0">Jan</text></g><g class="guides"><path class="guide line" d="M58.440559 0.000000 v514.000000" /><text class="" x="58.44055944055944" y="529.0">Feb</text></g><g class="guides"><path class="guide line" d="M106.342657 0.000000 v514.000000" /><text class="" x="106.34265734265733" y="529.0">Mar</text></g><g class="guides"><path class="guide line" d="M154.244755 0.000000 v514.000000" /><text class="" x="154.24475524475523" y="529.0">Apr</text></g><g class="guides"><path class="guide line" d="M202.146853 0.000000 v514.000000" /><text class="" x="202.14685314685315" y="529.0">May</text></g><g class="guides"><path class="guide line" d="M250.048951 0.000000 v514.000000" /><text class="" x="250.04895104895104" y="529.0">Jun</text></g><g class="guides"><path class="guide line" d="M297.951049 0.000000 v514.000000" /><text class="" x="297.95104895104896" y="529.0">Jul</text></g><g class="guides"><path class="guide line" d="M345.853147 0.000000 v514.000000" /><text class="" x="345.8531468531468" y="529.0">Aug</text></g><g class="guides"><path class="guide line" d="M393.755245 0.000000 v514.000000" /><text class="" x="393.75524475524475" y="529.0">Sep</text></g><g class="guides"><path class="guide line" d="M441.657343 0.000000 v514.000000" /><text class="" x="441.65734265734267" y="529.0">Oct</text></g><g class="guides"><path class="guide line" d="M489.559441 0.000000 v514.000000" /><text class="" x="489.55944055944053" y="529.0">Nov</text></g><g class="guides"><path class="guide line" d="M537.461538 0.000000 v514.000000" /><text class="" x="537.4615384615385" y="529.0">Dec</text></g></g><g class="series serie-0 color-0"><path class="line reactive" d="M10.538462 514.000000 L10.538462 375.200643 10.730070 376.008083 10.921678 376.815461 11.113287 377.622714 11.304895 378.429781 11.496503 379.236598 11.688112 380.043105 11.879720 380.849238 12.071329 381.654935 12.262937 382.460134 12.454545 383.264773 12.646154 384.068789 12.837762 384.872120 13.029371 385.674705 13.220979 386.476480 13.412587 387.277384 13.604196 388.077354 13.795804 388.876328 13.987413 389.674243 14.179021 390.471038 14.370629 391.266651 14.562238 392.061018 14.753846 392.854078 14.945455 393.645768 15.137063 394.436027 15.328671 395.224791 15.520280 396.011999 15.711888 396.797589 15.903497 397.581498 16.095105 398.363664 16.286713 399.144024 16.478322 399.922517 16.669930 400.699080 16.861538 401.473651 17.053147 402.246168 17.244755 403.016568 17.436364 403.784789 17.627972 404.550770 17.819580 405.314447 18.011189 406.075758 18.202797 406.834641 18.394406 407.591035 18.586014 408.344876 18.777622 409.096102 18.969231 409.844652 19.160839 410.590462 19.352448 411.333472 19.544056 412.073617 19.735664 412.810837 19.927273 413.545069 20.118881 414.276250 20.310490 415.004319 20.502098 415.729212 20.693706 416.450869 20.885315 417.169226 21.076923 417.884222 21.268531 418.595794 21.460140 419.303880 21.651748 420.008417 21.843357 420.709344 22.034965 421.406597 22.226573 422.100116 22.418182 422.789837 22.609790 423.475699 22.801399 424.157639 22.993007 424.835595 23.184615 425.509504 23.376224 426.179305 23.567832 426.844934 23.759441 427.506331 23.951049 428.163432 24.142657 428.816176 24.334266 429.464499 24.525874 430.108341 24.717483 430.747638 24.909091 431.382328 25.100699 432.012350 25.292308 432.637640 25.483916 433.258137 25.675524 433.873778 25.867133 434.484501 26.058741 435.090245 26.250350 435.690945 26.441958 436.286541 26.633566 436.876971 26.825175 437.462170 27.016783 438.042079 27.208392 438.616634 27.400000 439.185773 27.591608 439.749433 27.783217 440.307554 27.974825 440.860071 28.166434 441.406924 28.358042 441.948049 28.549650 442.483385 28.741259 443.012869 28.932867 443.536440 29.124476 444.054034 29.316084 444.565589 29.507692 445.071044 29.699301 445.570336 29.890909 446.063403 30.082517 446.550182 30.274126 447.030612 30.465734 447.504629 30.657343 447.972173 30.848951 448.433179 31.040559 448.887588 31.232168 449.335335 31.423776 449.776359 31.615385 450.210597 31.806993 450.637988 31.998601 451.058468 32.190210 451.471977 32.381818 451.878451 32.573427 452.277828 32.765035 452.670046 32.956643 453.055043 33.148252 453.432757 33.339860 453.803124 33.531469 454.166084 33.723077 454.521573 33.914685 454.869530 34.106294 455.209893 34.297902 455.542598 34.489510 455.867584 34.681119 456.184788 34.872727 456.494148 35.064336 456.795603 35.255944 457.089089 35.447552 457.374545 35.639161 457.651908 35.830769 457.921116 36.022378 458.182107 36.213986 458.434818 36.405594 458.679187 36.597203 458.915152 36.788811 459.142651 36.980420 459.361622 37.172028 459.572001 37.363636 459.773728 37.555245 459.966739 37.746853 460.150973 37.938462 460.326367 38.130070 460.492859 38.321678 460.650386 38.513287 460.798887 38.704895 460.938299 38.896503 461.068560 39.088112 461.189608 39.279720 461.301380 39.471329 461.403815 39.662937 461.496849 39.854545 461.580421 40.046154 461.654468 40.237762 461.718929 40.429371 461.773740 40.620979 461.818840 40.812587 461.854167 41.004196 461.879658 41.195804 461.895250 41.387413 461.900882 41.579021 461.896492 41.770629 461.882017 41.962238 461.857395 42.153846 461.822563 42.345455 461.777460 42.537063 461.722022 42.728671 461.656189 42.920280 461.579898 43.111888 461.493085 43.303497 461.395690 43.495105 461.287650 43.686713 461.168902 43.878322 461.039385 44.069930 460.899036 44.261538 460.747793 44.453147 460.585593 44.644755 460.412375 44.836364 460.228076 45.027972 460.032634 45.219580 459.825986 45.411189 459.608071 45.602797 459.378826 45.794406 459.138188 45.986014 458.886097 46.177622 458.622488 46.369231 458.347301 46.560839 458.060472 46.752448 457.761941 46.944056 457.451643 47.135664 457.129518 47.327273 456.795502 47.518881 456.449534 47.710490 456.091551 47.902098 455.721492 48.093706 455.339293 48.285315 454.944893 48.476923 454.538229 48.668531 454.119239 48.860140 453.687861 49.051748 453.244033 49.243357 452.787692 49.434965 452.318776 49.626573 451.837222 49.818182 451.342970 50.009790 450.835955 50.201399 450.316117 50.393007 449.783393 50.584615 449.237720 50.776224 448.679036 50.967832 448.107279 51.159441 447.522387 51.351049 446.924298 51.542657 446.312949 51.734266 445.688278 51.925874 445.050223 52.117483 444.398721 52.309091 443.733711 52.500699 443.055130 52.692308 442.362915 52.883916 441.657005 53.075524 440.937337 53.267133 440.203850 53.458741 439.456480 53.650350 438.695165 53.841958 437.919844 54.033566 437.130454 54.225175 436.326932 54.416783 435.509217 54.608392 434.677247 54.800000 433.830958 54.991608 432.970289 55.183217 432.095178 55.374825 431.205561 55.566434 430.301378 55.758042 429.382566 55.949650 428.449062 56.141259 427.500804 56.332867 426.537730 56.524476 425.559778 56.716084 424.566886 56.907692 423.558990 57.099301 422.536030 57.290909 421.497942 57.482517 420.444665 57.674126 419.376136 57.865734 418.292293 58.057343 417.193074 58.248951 416.078416 58.440559 414.948258 58.632168 413.802575 58.823776 412.641497 59.015385 411.465195 59.206993 410.273835 59.398601 409.067588 59.590210 407.846622 59.781818 406.611105 59.973427 405.361208 60.165035 404.097097 60.356643 402.818943 60.548252 401.526914 60.739860 400.221178 60.931469 398.901905 61.123077 397.569264 61.314685 396.223423 61.506294 394.864551 61.697902 393.492817 61.889510 392.108389 62.081119 390.711437 62.272727 389.302129 62.464336 387.880634 62.655944 386.447121 62.847552 385.001759 63.039161 383.544716 63.230769 382.076162 63.422378 380.596264 63.613986 379.105193 63.805594 377.603116 63.997203 376.090203 64.188811 374.566622 64.380420 373.032542 64.572028 371.488132 64.763636 369.933561 64.955245 368.368997 65.146853 366.794610 65.338462 365.210567 65.530070 363.617039 65.721678 362.014194 65.913287 360.402200 66.104895 358.781226 66.296503 357.151442 66.488112 355.513016 66.679720 353.866116 66.871329 352.210912 67.062937 350.547572 67.254545 348.876266 67.446154 347.197161 67.637762 345.510428 67.829371 343.816234 68.020979 342.114748 68.212587 340.406140 68.404196 338.690578 68.595804 336.968230 68.787413 335.239266 68.979021 333.503855 69.170629 331.762165 69.362238 330.014365 69.553846 328.260624 69.745455 326.501110 69.937063 324.735993 70.128671 322.965441 70.320280 321.189624 70.511888 319.408709 70.703497 317.622866 70.895105 315.832263 71.086713 314.037070 71.278322 312.237455 71.469930 310.433586 71.661538 308.625634 71.853147 306.813766 72.044755 304.998151 72.236364 303.178959 72.427972 301.356357 72.619580 299.530515 72.811189 297.701602 73.002797 295.869786 73.194406 294.035236 73.386014 292.198122 73.577622 290.358611 73.769231 288.516872 73.960839 286.673075 74.152448 284.827388 74.344056 282.979981 74.535664 281.131021 74.727273 279.280677 74.918881 277.429119 75.110490 275.576515 75.302098 273.723035 75.493706 271.868846 75.685315 270.014118 75.876923 268.159019 76.068531 266.303718 76.260140 264.448385 76.451748 262.593187 76.643357 260.738294 76.834965 258.883874 77.026573 257.030097 77.218182 255.177131 77.409790 253.325145 77.601399 251.474307 77.793007 249.624787 77.984615 247.776753 78.176224 245.930375 78.367832 244.085820 78.559441 242.243258 78.751049 240.402857 78.942657 238.564787 79.134266 236.729216 79.325874 234.896313 79.517483 233.066246 79.709091 231.239186 79.900699 229.415299 80.092308 227.594756 80.283916 225.777724 80.475524 223.964374 80.667133 222.154873 80.858741 220.349390 81.050350 218.548095 81.241958 216.751155 81.433566 214.958741 81.625175 213.171020 81.816783 211.388161 82.008392 209.610334 82.200000 207.837706 82.391608 206.070448 82.583217 204.308727 82.774825 202.552712 82.966434 200.802573 83.158042 199.058478 83.349650 197.320595 83.541259 195.589095 83.732867 193.864145 83.924476 192.145914 84.116084 190.434571 84.307692 188.730285 84.499301 187.033224 84.690909 185.343559 84.882517 183.661456 85.074126 181.987086 85.265734 180.320616 85.457343 178.662216 85.648951 177.012055 85.840559 175.370301 86.032168 173.737123 86.223776 172.112690 86.415385 170.497171 86.606993 168.890734 86.798601 167.293549 86.990210 165.705784 87.181818 164.127608 87.373427 162.559190 87.565035 161.000698 87.756643 159.452301 87.948252 157.914169 88.139860 156.386470 88.331469 154.869372 88.523077 153.363045 88.714685 151.867658 88.906294 150.383379 89.097902 148.910376 89.289510 147.448820 89.481119 145.998878 89.672727 144.560720 89.864336 143.134514 90.055944 141.720429 90.247552 140.318633 90.439161 138.929297 90.630769 137.552588 90.822378 136.188675 91.013986 134.837727 91.205594 133.499913 91.397203 132.175402 91.588811 130.864362 91.780420 129.566962 91.972028 128.283372 92.163636 127.013760 92.355245 125.758294 92.546853 124.517144 92.738462 123.290478 92.930070 122.078465 93.121678 120.881274 93.313287 119.699074 93.504895 118.532033 93.696503 117.380321 93.888112 116.244106 94.079720 115.123556 94.271329 114.018842 94.462937 112.930131 94.654545 111.857593 94.846154 110.801395 95.037762 109.761708 95.229371 108.738700 95.420979 107.732539 95.612587 106.743394 95.804196 105.771435 95.995804 104.816829 96.187413 103.879747 96.379021 102.960356 96.570629 102.058826 96.762238 101.175324 96.953846 100.310021 97.145455 99.463085 97.337063 98.634684 97.528671 97.824988 97.720280 97.034165 97.911888 96.262384 98.103497 95.509814 98.295105 94.776623 98.486713 94.062981 98.678322 93.369057 98.869930 92.695018 99.061538 92.041035 99.253147 91.407275 99.444755 90.793907 99.636364 90.201101 99.827972 89.629025 100.019580 89.077848 100.211189 88.547738 100.402797 88.038866 100.594406 87.551398 100.786014 87.085505 100.977622 86.641354 101.169231 86.219116 101.360839 85.818958 101.552448 85.441049 101.744056 85.085558 101.935664 84.752655 102.127273 84.442507 102.318881 84.155284 102.510490 83.891154 102.702098 83.650286 102.893706 83.432850 103.085315 83.239013 103.276923 83.068945 103.468531 82.922814 103.660140 82.800789 103.851748 82.703040 104.043357 82.629734 104.234965 82.581041 104.426573 82.557129 104.618182 82.558168 104.809790 82.584326 105.001399 82.635771 105.193007 82.712673 105.384615 82.815201 105.576224 82.943523 105.767832 83.097808 105.959441 83.278225 106.151049 83.484943 106.342657 83.718130 106.534266 83.977895 106.725874 84.264109 106.917483 84.576579 107.109091 84.915115 107.300699 85.279527 107.492308 85.669624 107.683916 86.085214 107.875524 86.526109 108.067133 86.992116 108.258741 87.483045 108.450350 87.998706 108.641958 88.538907 108.833566 89.103458 109.025175 89.692169 109.216783 90.304848 109.408392 90.941305 109.600000 91.601350 109.791608 92.284791 109.983217 92.991438 110.174825 93.721100 110.366434 94.473587 110.558042 95.248707 110.749650 96.046270 110.941259 96.866086 111.132867 97.707964 111.324476 98.571713 111.516084 99.457142 111.707692 100.364060 111.899301 101.292278 112.090909 102.241604 112.282517 103.211847 112.474126 104.202818 112.665734 105.214324 112.857343 106.246177 113.048951 107.298183 113.240559 108.370155 113.432168 109.461899 113.623776 110.573226 113.815385 111.703946 114.006993 112.853866 114.198601 114.022798 114.390210 115.210549 114.581818 116.416930 114.773427 117.641749 114.965035 118.884816 115.156643 120.145940 115.348252 121.424931 115.539860 122.721598 115.731469 124.035750 115.923077 125.367196 116.114685 126.715746 116.306294 128.081210 116.497902 129.463395 116.689510 130.862112 116.881119 132.277171 117.072727 133.708379 117.264336 135.155548 117.455944 136.618485 117.647552 138.097000 117.839161 139.590903 118.030769 141.100003 118.222378 142.624109 118.413986 144.163030 118.605594 145.716577 118.797203 147.284557 118.988811 148.866781 119.180420 150.463057 119.372028 152.073196 119.563636 153.697006 119.755245 155.334296 119.946853 156.984877 120.138462 158.648556 120.330070 160.325145 120.521678 162.014451 120.713287 163.716284 120.904895 165.430454 121.096503 167.156770 121.288112 168.895040 121.479720 170.645076 121.671329 172.406685 121.862937 174.179677 122.054545 175.963861 122.246154 177.759047 122.437762 179.565044 122.629371 181.381661 122.820979 183.208708 123.012587 185.045994 123.204196 186.893328 123.395804 188.750519 123.587413 190.617378 123.779021 192.493712 123.970629 194.379332 124.162238 196.274047 124.353846 198.177666 124.545455 200.089998 124.737063 202.010853 124.928671 203.940040 125.120280 205.877368 125.311888 207.822646 125.503497 209.775685 125.695105 211.736293 125.886713 213.704279 126.078322 215.679454 126.269930 217.661625 126.461538 219.650603 126.653147 221.646197 126.844755 223.648216 127.036364 225.656469 127.227972 227.670766 127.419580 229.690916 127.611189 231.716728 127.802797 233.748012 127.994406 235.784577 128.186014 237.826232 128.377622 239.872786 128.569231 241.924050 128.760839 243.979831 128.952448 246.039941 129.144056 248.104187 129.335664 250.172379 129.527273 252.244326 129.718881 254.319838 129.910490 256.398725 130.102098 258.480794 130.293706 260.565857 130.485315 262.653721 130.676923 264.744196 130.868531 266.837092 131.060140 268.932218 131.251748 271.029384 131.443357 273.128397 131.634965 275.229069 131.826573 277.331207 132.018182 279.434623 132.209790 281.539123 132.401399 283.644519 132.593007 285.750620 132.784615 287.857234 132.976224 289.964170 133.167832 292.071240 133.359441 294.178251 133.551049 296.285012 133.742657 298.391334 133.934266 300.497026 134.125874 302.601896 134.317483 304.705755 134.509091 306.808410 134.700699 308.909673 134.892308 311.009352 135.083916 313.107256 135.275524 315.203195 135.467133 317.296978 135.658741 319.388414 135.850350 321.477313 136.041958 323.563484 136.233566 325.646736 136.425175 327.726878 136.616783 329.803721 136.808392 331.877072 137.000000 333.946742 137.191608 336.012540 137.383217 338.074275 137.574825 340.131756 137.766434 342.184793 137.958042 344.233196 138.149650 346.276772 138.341259 348.315332 138.532867 350.348685 138.724476 352.376640 138.916084 354.399007 139.107692 356.415595 139.299301 358.426213 139.490909 360.430670 139.682517 362.428777 139.874126 364.420341 140.065734 366.405173 140.257343 368.383081 140.448951 370.353876 140.640559 372.317366 140.832168 374.273361 141.023776 376.221669 141.215385 378.162101 141.406993 380.094466 141.598601 382.018572 141.790210 383.934230 141.981818 385.841248 142.173427 387.739436 142.365035 389.628603 142.556643 391.508558 142.748252 393.379111 142.939860 395.240072 143.131469 397.091249 143.323077 398.932451 143.514685 400.763488 143.706294 402.584170 143.897902 404.394305 144.089510 406.193704 144.281119 407.982174 144.472727 409.759526 144.664336 411.525569 144.855944 413.280112 145.047552 415.022965 145.239161 416.753936 145.430769 418.472835 145.622378 420.179472 145.813986 421.873656 146.005594 423.555195 146.197203 425.223900 146.388811 426.879579 146.580420 428.522043 146.772028 430.151099 146.963636 431.766559 147.155245 433.368230 147.346853 434.955922 147.538462 436.529445 147.730070 438.088607 147.921678 439.633219 148.113287 441.163089 148.304895 442.678027 148.496503 444.177842 148.688112 445.662343 148.879720 447.131340 149.071329 448.584642 149.262937 450.022058 149.454545 451.443397 149.646154 452.848470 149.837762 454.237085 150.029371 455.609051 150.220979 456.964178 150.412587 458.302275 150.604196 459.623152 150.795804 460.926617 150.987413 462.212481 151.179021 463.480552 151.370629 464.730639 151.562238 465.962553 151.753846 467.176102 151.945455 468.371095 152.137063 469.547342 152.328671 470.704653 152.520280 471.842836 152.711888 472.961701 152.903497 474.061057 153.095105 475.140713 153.286713 476.200480 153.478322 477.240165 153.669930 478.259579 153.861538 479.258530 154.053147 480.236829 154.244755 481.194283 154.436364 482.130751 154.627972 483.046273 154.819580 483.940940 155.011189 484.814841 155.202797 485.668066 155.394406 486.500705 155.586014 487.312846 155.777622 488.104580 155.969231 488.875996 156.160839 489.627183 156.352448 490.358232 156.544056 491.069231 156.735664 491.760270 156.927273 492.431439 157.118881 493.082828 157.310490 493.714525 157.502098 494.326621 157.693706 494.919205 157.885315 495.492366 158.076923 496.046194 158.268531 496.580779 158.460140 497.096210 158.651748 497.592577 158.843357 498.069969 159.034965 498.528476 159.226573 498.968187 159.418182 499.389192 159.609790 499.791580 159.801399 500.175442 159.993007 500.540866 160.184615 500.887942 160.376224 501.216759 160.567832 501.527408 160.759441 501.819978 160.951049 502.094558 161.142657 502.351238 161.334266 502.590107 161.525874 502.811255 161.717483 503.014771 161.909091 503.200746 162.100699 503.369268 162.292308 503.520428 162.483916 503.654314 162.675524 503.771016 162.867133 503.870624 163.058741 503.953227 163.250350 504.018915 163.441958 504.067778 163.633566 504.099905 163.825175 504.115385 164.016783 504.114308 164.208392 504.096764 164.400000 504.062842 164.591608 504.012631 164.783217 503.946222 164.974825 503.863704 165.166434 503.765166 165.358042 503.650698 165.549650 503.520390 165.741259 503.374330 165.932867 503.212609 166.124476 503.035316 166.316084 502.842541 166.507692 502.634373 166.699301 502.410902 166.890909 502.172217 167.082517 501.918408 167.274126 501.649564 167.465734 501.365776 167.657343 501.067132 167.848951 500.753721 168.040559 500.425635 168.232168 500.082961 168.423776 499.725791 168.615385 499.354212 168.806993 498.968316 168.998601 498.568190 169.190210 498.153926 169.381818 497.725612 169.573427 497.283338 169.765035 496.827193 169.956643 496.357268 170.148252 495.873651 170.339860 495.376433 170.531469 494.865702 170.723077 494.341548 170.914685 493.804061 171.106294 493.253331 171.297902 492.689447 171.489510 492.112498 171.681119 491.522574 171.872727 490.919764 172.064336 490.304159 172.255944 489.675848 172.447552 489.034919 172.639161 488.381464 172.830769 487.715571 173.022378 487.037329 173.213986 486.346829 173.405594 485.644160 173.597203 484.929412 173.788811 484.202673 173.980420 483.464035 174.172028 482.713585 174.363636 481.951414 174.555245 481.177611 174.746853 480.392267 174.938462 479.595469 175.130070 478.787308 175.321678 477.967874 175.513287 477.137256 175.704895 476.295544 175.896503 475.442826 176.088112 474.579193 176.279720 473.704735 176.471329 472.819540 176.662937 471.923698 176.854545 471.017300 177.046154 470.100433 177.237762 469.173189 177.429371 468.235656 177.620979 467.287924 177.812587 466.330083 178.004196 465.362222 178.195804 464.384430 178.387413 463.396798 178.579021 462.399415 178.770629 461.392370 178.962238 460.375752 179.153846 459.349653 179.345455 458.314160 179.537063 457.269364 179.728671 456.215353 179.920280 455.152219 180.111888 454.080050 180.303497 452.998935 180.495105 451.908965 180.686713 450.810228 180.878322 449.702815 181.069930 448.586815 181.261538 447.462317 181.453147 446.329411 181.644755 445.188187 181.836364 444.038734 182.027972 442.881142 182.219580 441.715499 182.411189 440.541897 182.602797 439.360424 182.794406 438.171170 182.986014 436.974224 183.177622 435.769676 183.369231 434.557616 183.560839 433.338132 183.752448 432.111316 183.944056 430.877255 184.135664 429.636040 184.327273 428.387761 184.518881 427.132506 184.710490 425.870366 184.902098 424.601429 185.093706 423.325786 185.285315 422.043526 185.476923 420.754738 185.668531 419.459513 185.860140 418.157939 186.051748 416.850107 186.243357 415.536105 186.434965 414.216023 186.626573 412.889952 186.818182 411.557979 187.009790 410.220196 187.201399 408.876691 187.393007 407.527554 187.584615 406.172875 187.776224 404.812743 187.967832 403.447247 188.159441 402.076478 188.351049 400.700525 188.542657 399.319477 188.734266 397.933423 188.925874 396.542455 189.117483 395.146660 189.309091 393.746128 189.500699 392.340950 189.692308 390.931215 189.883916 389.517011 190.075524 388.098430 190.267133 386.675559 190.458741 385.248489 190.650350 383.817310 190.841958 382.382111 191.033566 380.942981 191.225175 379.500010 191.416783 378.053288 191.608392 376.602904 191.800000 375.148947 191.991608 373.691508 192.183217 372.230675 192.374825 370.766539 192.566434 369.299189 192.758042 367.828714 192.949650 366.355204 193.141259 364.878748 193.332867 363.399437 193.524476 361.917359 193.716084 360.432604 193.907692 358.945262 194.099301 357.455422 194.290909 355.963174 194.482517 354.468608 194.674126 352.971812 194.865734 351.472877 195.057343 349.971892 195.248951 348.468946 195.440559 346.964129 195.632168 345.457531 195.823776 343.949241 196.015385 342.439349 196.206993 340.927944 196.398601 339.415116 196.590210 337.900955 196.781818 336.385549 196.973427 334.868989 197.165035 333.351364 197.356643 331.832763 197.548252 330.313277 197.739860 328.792994 197.931469 327.272005 198.123077 325.750398 198.314685 324.228263 198.506294 322.705691 198.697902 321.182770 198.889510 319.659590 199.081119 318.136240 199.272727 316.612810 199.464336 315.089390 199.655944 313.566070 199.847552 312.042938 200.039161 310.520084 200.230769 308.997598 200.422378 307.475569 200.613986 305.954087 200.805594 304.433242 200.997203 302.913123 201.188811 301.393819 201.380420 299.875421 201.572028 298.358017 201.763636 296.841697 201.955245 295.326551 202.146853 293.812668 202.338462 292.300131 202.530070 290.788991 202.721678 289.279294 202.913287 287.771083 203.104895 286.264405 203.296503 284.759303 203.488112 283.255822 203.679720 281.754007 203.871329 280.253902 204.062937 278.755553 204.254545 277.259004 204.446154 275.764300 204.637762 274.271486 204.829371 272.780605 205.020979 271.291704 205.212587 269.804826 205.404196 268.320017 205.595804 266.837321 205.787413 265.356783 205.979021 263.878448 206.170629 262.402360 206.362238 260.928564 206.553846 259.457105 206.745455 257.988027 206.937063 256.521375 207.128671 255.057195 207.320280 253.595530 207.511888 252.136426 207.703497 250.679926 207.895105 249.226077 208.086713 247.774922 208.278322 246.326507 208.469930 244.880875 208.661538 243.438073 208.853147 241.998143 209.044755 240.561132 209.236364 239.127084 209.427972 237.696044 209.619580 236.268056 209.811189 234.843165 210.002797 233.421416 210.194406 232.002854 210.386014 230.587522 210.577622 229.175467 210.769231 227.766733 210.960839 226.361364 211.152448 224.959405 211.344056 223.560901 211.535664 222.165897 211.727273 220.774437 211.918881 219.386566 212.110490 218.002329 212.302098 216.621771 212.493706 215.244936 212.685315 213.871868 212.876923 212.502614 213.068531 211.137217 213.260140 209.775722 213.451748 208.418174 213.643357 207.064617 213.834965 205.715097 214.026573 204.369658 214.218182 203.028345 214.409790 201.691202 214.601399 200.358274 214.793007 199.029607 214.984615 197.705244 215.176224 196.385230 215.367832 195.069611 215.559441 193.758431 215.751049 192.451734 215.942657 191.149565 216.134266 189.851969 216.325874 188.558991 216.517483 187.270676 216.709091 185.987068 216.900699 184.708212 217.092308 183.434152 217.283916 182.164934 217.475524 180.900601 217.667133 179.641200 217.858741 178.386774 218.050350 177.137369 218.241958 175.893028 218.433566 174.653797 218.625175 173.419721 218.816783 172.190844 219.008392 170.967211 219.200000 169.748866 219.391608 168.535855 219.583217 167.328221 219.774825 166.126011 219.966434 164.929268 220.158042 163.738037 220.349650 162.552364 220.541259 161.372292 220.732867 160.197866 220.924476 159.029131 221.116084 157.866133 221.307692 156.708915 221.499301 155.557522 221.690909 154.411999 221.882517 153.272392 222.074126 152.138743 222.265734 151.011099 222.457343 149.889504 222.648951 148.774002 222.840559 147.664639 223.032168 146.561459 223.223776 145.464507 223.415385 144.373827 223.606993 143.289465 223.798601 142.211464 223.990210 141.139870 224.181818 140.074728 224.373427 139.016082 224.565035 137.963977 224.756643 136.918458 224.948252 135.879569 225.139860 134.847355 225.331469 133.821860 225.523077 132.803131 225.714685 131.791210 225.906294 130.786144 226.097902 129.787976 226.289510 128.796752 226.481119 127.812516 226.672727 126.835312 226.864336 125.865187 227.055944 124.902184 227.247552 123.946347 227.439161 122.997723 227.630769 122.056355 227.822378 121.122288 228.013986 120.195567 228.205594 119.276237 228.397203 118.364342 228.588811 117.459928 228.780420 116.563038 228.972028 115.673718 229.163636 114.792012 229.355245 113.917965 229.546853 113.051622 229.738462 112.193028 229.930070 111.342226 230.121678 110.499263 230.313287 109.664182 230.504895 108.837028 230.696503 108.017847 230.888112 107.206683 231.079720 106.403580 231.271329 105.608583 231.462937 104.821737 231.654545 104.043087 231.846154 103.272678 232.037762 102.510553 232.229371 101.756759 232.420979 101.011339 232.612587 100.274339 232.804196 99.545802 232.995804 98.825774 233.187413 98.114300 233.379021 97.411424 233.570629 96.717192 233.762238 96.031646 233.953846 95.354834 234.145455 94.686798 234.337063 94.027584 234.528671 93.377237 234.720280 92.735801 234.911888 92.103321 235.103497 91.479842 235.295105 90.865409 235.486713 90.260065 235.678322 89.663857 235.869930 89.076828 236.061538 88.499024 236.253147 87.930488 236.444755 87.371267 236.636364 86.821404 236.827972 86.280945 237.019580 85.749933 237.211189 85.228414 237.402797 84.716433 237.594406 84.214034 237.786014 83.721261 237.977622 83.238161 238.169231 82.764777 238.360839 82.301153 238.552448 81.847336 238.744056 81.403369 238.935664 80.969298 239.127273 80.545166 239.318881 80.131019 239.510490 79.726902 239.702098 79.332858 239.893706 78.948934 240.085315 78.575173 240.276923 78.211621 240.468531 77.858321 240.660140 77.515320 240.851748 77.182661 241.043357 76.860389 241.234965 76.548549 241.426573 76.247185 241.618182 75.956344 241.809790 75.676068 242.001399 75.406403 242.193007 75.147394 242.384615 74.899085 242.576224 74.661521 242.767832 74.434747 242.959441 74.218807 243.151049 74.013746 243.342657 73.819610 243.534266 73.636442 243.725874 73.464287 243.917483 73.303191 244.109091 73.153197 244.300699 73.014351 244.492308 72.886697 244.683916 72.770280 244.875524 72.665145 245.067133 72.571336 245.258741 72.488899 245.450350 72.417877 245.641958 72.358316 245.833566 72.310261 246.025175 72.273755 246.216783 72.248844 246.408392 72.235573 246.600000 72.233986 246.791608 72.244128 246.983217 72.266044 247.174825 72.299778 247.366434 72.345375 247.558042 72.402880 247.749650 72.472338 247.941259 72.553793 248.132867 72.647290 248.324476 72.752874 248.516084 72.870589 248.707692 73.000480 248.899301 73.142593 249.090909 73.296971 249.282517 73.463660 249.474126 73.642703 249.665734 73.834147 249.857343 74.038035 250.048951 74.254412 250.240559 74.483299 250.432168 74.724620 250.623776 74.978273 250.815385 75.244159 251.006993 75.522177 251.198601 75.812226 251.390210 76.114205 251.581818 76.428015 251.773427 76.753554 251.965035 77.090722 252.156643 77.439419 252.348252 77.799544 252.539860 78.170996 252.731469 78.553675 252.923077 78.947480 253.114685 79.352311 253.306294 79.768067 253.497902 80.194648 253.689510 80.631952 253.881119 81.079881 254.072727 81.538332 254.264336 82.007205 254.455944 82.486401 254.647552 82.975817 254.839161 83.475355 255.030769 83.984912 255.222378 84.504389 255.413986 85.033686 255.605594 85.572700 255.797203 86.121333 255.988811 86.679483 256.180420 87.247050 256.372028 87.823933 256.563636 88.410032 256.755245 89.005247 256.946853 89.609475 257.138462 90.222618 257.330070 90.844575 257.521678 91.475244 257.713287 92.114526 257.904895 92.762320 258.096503 93.418525 258.288112 94.083041 258.479720 94.755767 258.671329 95.436602 258.862937 96.125447 259.054545 96.822200 259.246154 97.526762 259.437762 98.239030 259.629371 98.958906 259.820979 99.686288 260.012587 100.421076 260.204196 101.163169 260.395804 101.912466 260.587413 102.668868 260.779021 103.432274 260.970629 104.202582 261.162238 104.979693 261.353846 105.763505 261.545455 106.553920 261.737063 107.350834 261.928671 108.154150 262.120280 108.963764 262.311888 109.779578 262.503497 110.601491 262.695105 111.429401 262.886713 112.263209 263.078322 113.102814 263.269930 113.948116 263.461538 114.799013 263.653147 115.655405 263.844755 116.517192 264.036364 117.384274 264.227972 118.256549 264.419580 119.133917 264.611189 120.016277 264.802797 120.903529 264.994406 121.795573 265.186014 122.692308 265.377622 123.593633 265.569231 124.499447 265.760839 125.409651 265.952448 126.324143 266.144056 127.242824 266.335664 128.165592 266.527273 129.092347 266.718881 130.022988 266.910490 130.957415 267.102098 131.895528 267.293706 132.837225 267.485315 133.782406 267.676923 134.730971 267.868531 135.682820 268.060140 136.637850 268.251748 137.595963 268.443357 138.557057 268.634965 139.521032 268.826573 140.487787 269.018182 141.457222 269.209790 142.429237 269.401399 143.403729 269.593007 144.380600 269.784615 145.359749 269.976224 146.341075 270.167832 147.324477 270.359441 148.309854 270.551049 149.297108 270.742657 150.286136 270.934266 151.276838 271.125874 152.269114 271.317483 153.262863 271.509091 154.257984 271.700699 155.254378 271.892308 156.251943 272.083916 157.250579 272.275524 158.250185 272.467133 159.250661 272.658741 160.251907 272.850350 161.253821 273.041958 162.256303 273.233566 163.259253 273.425175 164.262570 273.616783 165.266153 273.808392 166.269902 274.000000 167.273717 274.191608 168.277496 274.383217 169.281140 274.574825 170.284547 274.766434 171.287618 274.958042 172.290251 275.149650 173.292346 275.341259 174.293803 275.532867 175.294520 275.724476 176.294398 275.916084 177.293336 276.107692 178.291233 276.299301 179.287989 276.490909 180.283503 276.682517 181.277675 276.874126 182.270403 277.065734 183.261589 277.257343 184.251130 277.448951 185.238926 277.640559 186.224878 277.832168 187.208884 278.023776 188.190843 278.215385 189.170656 278.406993 190.148221 278.598601 191.123438 278.790210 192.096207 278.981818 193.066427 279.173427 194.033998 279.365035 194.998818 279.556643 195.960787 279.748252 196.919806 279.939860 197.875772 280.131469 198.828586 280.323077 199.778147 280.514685 200.724355 280.706294 201.667109 280.897902 202.606308 281.089510 203.541852 281.281119 204.473641 281.472727 205.401573 281.664336 206.325548 281.855944 207.245467 282.047552 208.161227 282.239161 209.072729 282.430769 209.979872 282.622378 210.882555 282.813986 211.780678 283.005594 212.674141 283.197203 213.562842 283.388811 214.446682 283.580420 215.325559 283.772028 216.199373 283.963636 217.068024 284.155245 217.931411 284.346853 218.789434 284.538462 219.641991 284.730070 220.488983 284.921678 221.330309 285.113287 222.165868 285.304895 222.995559 285.496503 223.819283 285.688112 224.636938 285.879720 225.448425 286.071329 226.253642 286.262937 227.052489 286.454545 227.844865 286.646154 228.630670 286.837762 229.409803 287.029371 230.182164 287.220979 230.947653 287.412587 231.706167 287.604196 232.457608 287.795804 233.201875 287.987413 233.938866 288.179021 234.668482 288.370629 235.390622 288.562238 236.105185 288.753846 236.812070 288.945455 237.511178 289.137063 238.202408 289.328671 238.885659 289.520280 239.560830 289.711888 240.227821 289.903497 240.886531 290.095105 241.536861 290.286713 242.178709 290.478322 242.811974 290.669930 243.436557 290.861538 244.052356 291.053147 244.659272 291.244755 245.257203 291.436364 245.846049 291.627972 246.425709 291.819580 246.996084 292.011189 247.557071 292.202797 248.108572 292.394406 248.650485 292.586014 249.182709 292.777622 249.705144 292.969231 250.217690 293.160839 250.720247 293.352448 251.212712 293.544056 251.694987 293.735664 252.166969 293.927273 252.628560 294.118881 253.079658 294.310490 253.520162 294.502098 253.949973 294.693706 254.368989 294.885315 254.777111 295.076923 255.174236 295.268531 255.560266 295.460140 255.935099 295.651748 256.298635 295.843357 256.650773 296.034965 256.991413 296.226573 257.320454 296.418182 257.637796 296.609790 257.943337 296.801399 258.236978 296.993007 258.518618 297.184615 258.788157 297.376224 259.045493 297.567832 259.290527 297.759441 259.523157 297.951049 259.743284 298.142657 259.950837 298.334266 260.145871 298.525874 260.328473 298.717483 260.498727 298.909091 260.656719 299.100699 260.802535 299.292308 260.936261 299.483916 261.057982 299.675524 261.167784 299.867133 261.265752 300.058741 261.351973 300.250350 261.426532 300.441958 261.489514 300.633566 261.541005 300.825175 261.581092 301.016783 261.609858 301.208392 261.627391 301.400000 261.633776 301.591608 261.629099 301.783217 261.613444 301.974825 261.586899 302.166434 261.549548 302.358042 261.501477 302.549650 261.442772 302.741259 261.373518 302.932867 261.293802 303.124476 261.203708 303.316084 261.103323 303.507692 260.992732 303.699301 260.872021 303.890909 260.741275 304.082517 260.600581 304.274126 260.450023 304.465734 260.289688 304.657343 260.119660 304.848951 259.940027 305.040559 259.750873 305.232168 259.552284 305.423776 259.344346 305.615385 259.127144 305.806993 258.900764 305.998601 258.665292 306.190210 258.420814 306.381818 258.167414 306.573427 257.905180 306.765035 257.634195 306.956643 257.354547 307.148252 257.066320 307.339860 256.769601 307.531469 256.464475 307.723077 256.151027 307.914685 255.829344 308.106294 255.499511 308.297902 255.161613 308.489510 254.815737 308.681119 254.461968 308.872727 254.100391 309.064336 253.731093 309.255944 253.354159 309.447552 252.969674 309.639161 252.577725 309.830769 252.178396 310.022378 251.771775 310.213986 251.357945 310.405594 250.936994 310.597203 250.509006 310.788811 250.074067 310.980420 249.632264 311.172028 249.183680 311.363636 248.728404 311.555245 248.266519 311.746853 247.798111 311.938462 247.323267 312.130070 246.842072 312.321678 246.354612 312.513287 245.860971 312.704895 245.361237 312.896503 244.855494 313.088112 244.343828 313.279720 243.826325 313.471329 243.303071 313.662937 242.774150 313.854545 242.239650 314.046154 241.699655 314.237762 241.154252 314.429371 240.603525 314.620979 240.047561 314.812587 239.486445 315.004196 238.920262 315.195804 238.349099 315.387413 237.773042 315.579021 237.192175 315.770629 236.606584 315.962238 236.016356 316.153846 235.421576 316.345455 234.822329 316.537063 234.218701 316.728671 233.610777 316.920280 232.998645 317.111888 232.382388 317.303497 231.762093 317.495105 231.137846 317.686713 230.509731 317.878322 229.877836 318.069930 229.242245 318.261538 228.603043 318.453147 227.960318 318.644755 227.314154 318.836364 226.664637 319.027972 226.011853 319.219580 225.355887 319.411189 224.696825 319.602797 224.034753 319.794406 223.369756 319.986014 222.701920 320.177622 222.031331 320.369231 221.358074 320.560839 220.682235 320.752448 220.003900 320.944056 219.323154 321.135664 218.640084 321.327273 217.954773 321.518881 217.267309 321.710490 216.577778 321.902098 215.886263 322.093706 215.192852 322.285315 214.497630 322.476923 213.800683 322.668531 213.102096 322.860140 212.401955 323.051748 211.700345 323.243357 210.997353 323.434965 210.293063 323.626573 209.587562 323.818182 208.880936 324.009790 208.173269 324.201399 207.464648 324.393007 206.755158 324.584615 206.044885 324.776224 205.333915 324.967832 204.622332 325.159441 203.910224 325.351049 203.197675 325.542657 202.484772 325.734266 201.771599 325.925874 201.058243 326.117483 200.344789 326.309091 199.631322 326.500699 198.917930 326.692308 198.204696 326.883916 197.491707 327.075524 196.779049 327.267133 196.066807 327.458741 195.355067 327.650350 194.643914 327.841958 193.933434 328.033566 193.223713 328.225175 192.514837 328.416783 191.806891 328.608392 191.099960 328.800000 190.394131 328.991608 189.689489 329.183217 188.986120 329.374825 188.284109 329.566434 187.583542 329.758042 186.884505 329.949650 186.187084 330.141259 185.491363 330.332867 184.797429 330.524476 184.105368 330.716084 183.415265 330.907692 182.727205 331.099301 182.041275 331.290909 181.357560 331.482517 180.676145 331.674126 179.997117 331.865734 179.320561 332.057343 178.646563 332.248951 177.975207 332.440559 177.306581 332.632168 176.640770 332.823776 175.977859 333.015385 175.317934 333.206993 174.661080 333.398601 174.007384 333.590210 173.356931 333.781818 172.709807 333.973427 172.066096 334.165035 171.425886 334.356643 170.789262 334.548252 170.156308 334.739860 169.527112 334.931469 168.901758 335.123077 168.280332 335.314685 167.662921 335.506294 167.049609 335.697902 166.440482 335.889510 165.835626 336.081119 165.235127 336.272727 164.639070 336.464336 164.047541 336.655944 163.460625 336.847552 162.878409 337.039161 162.300977 337.230769 161.728416 337.422378 161.160811 337.613986 160.598249 337.805594 160.040813 337.997203 159.488591 338.188811 158.941668 338.380420 158.400129 338.572028 157.864060 338.763636 157.333547 338.955245 156.808676 339.146853 156.289532 339.338462 155.776200 339.530070 155.268767 339.721678 154.767319 339.913287 154.271940 340.104895 153.782716 340.296503 153.299734 340.488112 152.823078 340.679720 152.352835 340.871329 151.889090 341.062937 151.431929 341.254545 150.981437 341.446154 150.537700 341.637762 150.100804 341.829371 149.670835 342.020979 149.247877 342.212587 148.832017 342.404196 148.423341 342.595804 148.021934 342.787413 147.627881 342.979021 147.241269 343.170629 146.862183 343.362238 146.490708 343.553846 146.126931 343.745455 145.770937 343.937063 145.422812 344.128671 145.082641 344.320280 144.750510 344.511888 144.426504 344.703497 144.110710 344.895105 143.803213 345.086713 143.504099 345.278322 143.213453 345.469930 142.931361 345.661538 142.657908 345.853147 142.393181 346.044755 142.137240 346.236364 141.890043 346.427972 141.651525 346.619580 141.421619 346.811189 141.200259 347.002797 140.987380 347.194406 140.782914 347.386014 140.586795 347.577622 140.398958 347.769231 140.219336 347.960839 140.047863 348.152448 139.884473 348.344056 139.729099 348.535664 139.581676 348.727273 139.442137 348.918881 139.310415 349.110490 139.186446 349.302098 139.070161 349.493706 138.961497 349.685315 138.860385 349.876923 138.766760 350.068531 138.680556 350.260140 138.601706 350.451748 138.530145 350.643357 138.465806 350.834965 138.408622 351.026573 138.358529 351.218182 138.315458 351.409790 138.279345 351.601399 138.250124 351.793007 138.227727 351.984615 138.212088 352.176224 138.203142 352.367832 138.200823 352.559441 138.205063 352.751049 138.215798 352.942657 138.232960 353.134266 138.256483 353.325874 138.286302 353.517483 138.322350 353.709091 138.364560 353.900699 138.412867 354.092308 138.467205 354.283916 138.527507 354.475524 138.593707 354.667133 138.665739 354.858741 138.743536 355.050350 138.827033 355.241958 138.916163 355.433566 139.010860 355.625175 139.111058 355.816783 139.216690 356.008392 139.327691 356.200000 139.443994 356.391608 139.565533 356.583217 139.692242 356.774825 139.824054 356.966434 139.960904 357.158042 140.102725 357.349650 140.249451 357.541259 140.401016 357.732867 140.557353 357.924476 140.718397 358.116084 140.884081 358.307692 141.054339 358.499301 141.229104 358.690909 141.408312 358.882517 141.591894 359.074126 141.779786 359.265734 141.971920 359.457343 142.168232 359.648951 142.368654 359.840559 142.573120 360.032168 142.781565 360.223776 142.993921 360.415385 143.210123 360.606993 143.430105 360.798601 143.653800 360.990210 143.881142 361.181818 144.112065 361.373427 144.346503 361.565035 144.584389 361.756643 144.825658 361.948252 145.070242 362.139860 145.318077 362.331469 145.569095 362.523077 145.823231 362.714685 146.080418 362.906294 146.340590 363.097902 146.603681 363.289510 146.869625 363.481119 147.138355 363.672727 147.409806 363.864336 147.683911 364.055944 147.960603 364.247552 148.239817 364.439161 148.521487 364.630769 148.805546 364.822378 149.091928 365.013986 149.380567 365.205594 149.671396 365.397203 149.964350 365.588811 150.259363 365.780420 150.556367 365.972028 150.855297 366.163636 151.156087 366.355245 151.458670 366.546853 151.762980 366.738462 152.068952 366.930070 152.376518 367.121678 152.685613 367.313287 152.996170 367.504895 153.308124 367.696503 153.621408 367.888112 153.935955 368.079720 154.251700 368.271329 154.568577 368.462937 154.886518 368.654545 155.205459 368.846154 155.525332 369.037762 155.846072 369.229371 156.167613 369.420979 156.489888 369.612587 156.812830 369.804196 157.136375 369.995804 157.460455 370.187413 157.785004 370.379021 158.109957 370.570629 158.435246 370.762238 158.760806 370.953846 159.086571 371.145455 159.412475 371.337063 159.738450 371.528671 160.064431 371.720280 160.390352 371.911888 160.716147 372.103497 161.041749 372.295105 161.367092 372.486713 161.692110 372.678322 162.016737 372.869930 162.340907 373.061538 162.664552 373.253147 162.987608 373.444755 163.310008 373.636364 163.631686 373.827972 163.952575 374.019580 164.272609 374.211189 164.591722 374.402797 164.909849 374.594406 165.226922 374.786014 165.542875 374.977622 165.857643 375.169231 166.171159 375.360839 166.483357 375.552448 166.794171 375.744056 167.103534 375.935664 167.411380 376.127273 167.717644 376.318881 168.022258 376.510490 168.325157 376.702098 168.626275 376.893706 168.925544 377.085315 169.222900 377.276923 169.518276 377.468531 169.811605 377.660140 170.102822 377.851748 170.391860 378.043357 170.678653 378.234965 170.963135 378.426573 171.245240 378.618182 171.524901 378.809790 171.802052 379.001399 172.076628 379.193007 172.348561 379.384615 172.617786 379.576224 172.884236 379.767832 173.147846 379.959441 173.408548 380.151049 173.666278 380.342657 173.920967 380.534266 174.172552 380.725874 174.420964 380.917483 174.666139 381.109091 174.908009 381.300699 175.146509 381.492308 175.381573 381.683916 175.613134 381.875524 175.841125 382.067133 176.065482 382.258741 176.286137 382.450350 176.503024 382.641958 176.716077 382.833566 176.925231 383.025175 177.130418 383.216783 177.331573 383.408392 177.528629 383.600000 177.721521 383.791608 177.910181 383.983217 178.094544 384.174825 178.274544 384.366434 178.450114 384.558042 178.621188 384.749650 178.787701 384.941259 178.949584 385.132867 179.106774 385.324476 179.259203 385.516084 179.406805 385.707692 179.549513 385.899301 179.687263 386.090909 179.819987 386.282517 179.947620 386.474126 180.070094 386.665734 180.187345 386.857343 180.299305 387.048951 180.405908 387.240559 180.507089 387.432168 180.602782 387.623776 180.692919 387.815385 180.777434 388.006993 180.856263 388.198601 180.929337 388.390210 180.996592 388.581818 181.057960 388.773427 181.113376 388.965035 181.162774 389.156643 181.206087 389.348252 181.243249 389.539860 181.274194 389.731469 181.298855 389.923077 181.317167 390.114685 181.329064 390.306294 181.334478 390.497902 181.333344 390.689510 181.325596 390.881119 181.311167 391.072727 181.289992 391.264336 181.262003 391.455944 181.227136 391.647552 181.185323 391.839161 181.136499 392.030769 181.080596 392.222378 181.017550 392.413986 180.947294 392.605594 180.869761 392.797203 180.784886 392.988811 180.692601 393.180420 180.592842 393.372028 180.485542 393.563636 180.370634 393.755245 180.248053 393.946853 180.117751 394.138462 179.979760 394.330070 179.834131 394.521678 179.680913 394.713287 179.520157 394.904895 179.351914 395.096503 179.176234 395.288112 178.993168 395.479720 178.802766 395.671329 178.605079 395.862937 178.400157 396.054545 178.188051 396.246154 177.968811 396.437762 177.742488 396.629371 177.509132 396.820979 177.268794 397.012587 177.021524 397.204196 176.767374 397.395804 176.506392 397.587413 176.238630 397.779021 175.964138 397.970629 175.682968 398.162238 175.395168 398.353846 175.100790 398.545455 174.799885 398.737063 174.492503 398.928671 174.178693 399.120280 173.858508 399.311888 173.531997 399.503497 173.199211 399.695105 172.860200 399.886713 172.515015 400.078322 172.163706 400.269930 171.806325 400.461538 171.442920 400.653147 171.073544 400.844755 170.698246 401.036364 170.317076 401.227972 169.930086 401.419580 169.537326 401.611189 169.138847 401.802797 168.734698 401.994406 168.324931 402.186014 167.909595 402.377622 167.488742 402.569231 167.062422 402.760839 166.630686 402.952448 166.193583 403.144056 165.751165 403.335664 165.303481 403.527273 164.850584 403.718881 164.392522 403.910490 163.929346 404.102098 163.461108 404.293706 162.987857 404.485315 162.509643 404.676923 162.026519 404.868531 161.538533 405.060140 161.045737 405.251748 160.548181 405.443357 160.045915 405.634965 159.538990 405.826573 159.027457 406.018182 158.511366 406.209790 157.990767 406.401399 157.465712 406.593007 156.936250 406.784615 156.402431 406.976224 155.864308 407.167832 155.321929 407.359441 154.775346 407.551049 154.224609 407.742657 153.669769 407.934266 153.110875 408.125874 152.547980 408.317483 151.981132 408.509091 151.410383 408.700699 150.835783 408.892308 150.257382 409.083916 149.675232 409.275524 149.089382 409.467133 148.499883 409.658741 147.906786 409.850350 147.310141 410.041958 146.709998 410.233566 146.106409 410.425175 145.499423 410.616783 144.889092 410.808392 144.275465 411.000000 143.658593 411.191608 143.038526 411.383217 142.415316 411.574825 141.789013 411.766434 141.159667 411.958042 140.527328 412.149650 139.892048 412.341259 139.253876 412.532867 138.612863 412.724476 137.969060 412.916084 137.322517 413.107692 136.673285 413.299301 136.021414 413.490909 135.366955 413.682517 134.709958 413.874126 134.050474 414.065734 133.388553 414.257343 132.724245 414.448951 132.057602 414.640559 131.388674 414.832168 130.717510 415.023776 130.044163 415.215385 129.368682 415.406993 128.691117 415.598601 128.011520 415.790210 127.329940 415.981818 126.646429 416.173427 125.961036 416.365035 125.273813 416.556643 124.584810 416.748252 123.894076 416.939860 123.201664 417.131469 122.507623 417.323077 121.812004 417.514685 121.114857 417.706294 120.416232 417.897902 119.716181 418.089510 119.014754 418.281119 118.312001 418.472727 117.607973 418.664336 116.902721 418.855944 116.196294 419.047552 115.488743 419.239161 114.780120 419.430769 114.070473 419.622378 113.359855 419.813986 112.648315 420.005594 111.935903 420.197203 111.222671 420.388811 110.508669 420.580420 109.793948 420.772028 109.078557 420.963636 108.362547 421.155245 107.645970 421.346853 106.928875 421.538462 106.211312 421.730070 105.493333 421.921678 104.774988 422.113287 104.056328 422.304895 103.337402 422.496503 102.618262 422.688112 101.898958 422.879720 101.179540 423.071329 100.460059 423.262937 99.740565 423.454545 99.021110 423.646154 98.301743 423.837762 97.582515 424.029371 96.863476 424.220979 96.144677 424.412587 95.426169 424.604196 94.708002 424.795804 93.990226 424.987413 93.272892 425.179021 92.556051 425.370629 91.839752 425.562238 91.124048 425.753846 90.408987 425.945455 89.694620 426.137063 88.980999 426.328671 88.268173 426.520280 87.556193 426.711888 86.845110 426.903497 86.134974 427.095105 85.425835 427.286713 84.717744 427.478322 84.010752 427.669930 83.304909 427.861538 82.600266 428.053147 81.896872 428.244755 81.194779 428.436364 80.494038 428.627972 79.794697 428.819580 79.096809 429.011189 78.400423 429.202797 77.705591 429.394406 77.012362 429.586014 76.320787 429.777622 75.630917 429.969231 74.942802 430.160839 74.256492 430.352448 73.572039 430.544056 72.889492 430.735664 72.208903 430.927273 71.530321 431.118881 70.853797 431.310490 70.179382 431.502098 69.507125 431.693706 68.837079 431.885315 68.169293 432.076923 67.503817 432.268531 66.840703 432.460140 66.180000 432.651748 65.521759 432.843357 64.866031 433.034965 64.212867 433.226573 63.562316 433.418182 62.914429 433.609790 62.269256 433.801399 61.626850 433.993007 60.987258 434.184615 60.350533 434.376224 59.716725 434.567832 59.085884 434.759441 58.458060 434.951049 57.833305 435.142657 57.211669 435.334266 56.593202 435.525874 55.977954 435.717483 55.365977 435.909091 54.757321 436.100699 54.152036 436.292308 53.550172 436.483916 52.951781 436.675524 52.356913 436.867133 51.765618 437.058741 51.177946 437.250350 50.593949 437.441958 50.013677 437.633566 49.437180 437.825175 48.864509 438.016783 48.295714 438.208392 47.730847 438.400000 47.169956 438.591608 46.613093 438.783217 46.060309 438.974825 45.511653 439.166434 44.967177 439.358042 44.426930 439.549650 43.890964 439.741259 43.359329 439.932867 42.832075 440.124476 42.309253 440.316084 41.790913 440.507692 41.277106 440.699301 40.767883 440.890909 40.263293 441.082517 39.763388 441.274126 39.268218 441.465734 38.777833 441.657343 38.292284 441.848951 37.811610 442.040559 37.335803 442.232168 36.864845 442.423776 36.398718 442.615385 35.937401 442.806993 35.480877 442.998601 35.029127 443.190210 34.582131 443.381818 34.139871 443.573427 33.702329 443.765035 33.269485 443.956643 32.841320 444.148252 32.417817 444.339860 31.998955 444.531469 31.584717 444.723077 31.175083 444.914685 30.770035 445.106294 30.369553 445.297902 29.973619 445.489510 29.582215 445.681119 29.195321 445.872727 28.812919 446.064336 28.434990 446.255944 28.061514 446.447552 27.692474 446.639161 27.327850 446.830769 26.967624 447.022378 26.611777 447.213986 26.260290 447.405594 25.913144 447.597203 25.570320 447.788811 25.231800 447.980420 24.897565 448.172028 24.567596 448.363636 24.241874 448.555245 23.920380 448.746853 23.603097 448.938462 23.290004 449.130070 22.981083 449.321678 22.676315 449.513287 22.375682 449.704895 22.079164 449.896503 21.786743 450.088112 21.498400 450.279720 21.214117 450.471329 20.933874 450.662937 20.657652 450.854545 20.385434 451.046154 20.117199 451.237762 19.852930 451.429371 19.592607 451.620979 19.336212 451.812587 19.083725 452.004196 18.835129 452.195804 18.590404 452.387413 18.349531 452.579021 18.112492 452.770629 17.879268 452.962238 17.649840 453.153846 17.424189 453.345455 17.202297 453.537063 16.984144 453.728671 16.769712 453.920280 16.558982 454.111888 16.351936 454.303497 16.148554 454.495105 15.948817 454.686713 15.752707 454.878322 15.560206 455.069930 15.371294 455.261538 15.185952 455.453147 15.004162 455.644755 14.825904 455.836364 14.651161 456.027972 14.479913 456.219580 14.312142 456.411189 14.147828 456.602797 13.986953 456.794406 13.829498 456.986014 13.675444 457.177622 13.524773 457.369231 13.377465 457.560839 13.233503 457.752448 13.092866 457.944056 12.955537 458.135664 12.821496 458.327273 12.690725 458.518881 12.563205 458.710490 12.438916 458.902098 12.317841 459.093706 12.199961 459.285315 12.085256 459.476923 11.973708 459.668531 11.865298 459.860140 11.760008 460.051748 11.657818 460.243357 11.558709 460.434965 11.462664 460.626573 11.369662 460.818182 11.279686 461.009790 11.192716 461.201399 11.108734 461.393007 11.027721 461.584615 10.949658 461.776224 10.874527 461.967832 10.802307 462.159441 10.732982 462.351049 10.666531 462.542657 10.602937 462.734266 10.542179 462.925874 10.484240 463.117483 10.429101 463.309091 10.376743 463.500699 10.327147 463.692308 10.280294 463.883916 10.236166 464.075524 10.194743 464.267133 10.156007 464.458741 10.119940 464.650350 10.086521 464.841958 10.055734 465.033566 10.027557 465.225175 10.001974 465.416783 9.978965 465.608392 9.958511 465.800000 9.940594 465.991608 9.925194 466.183217 9.912293 466.374825 9.901873 466.566434 9.893914 466.758042 9.888397 466.949650 9.885304 467.141259 9.884615 467.332867 9.886313 467.524476 9.890379 467.716084 9.896792 467.907692 9.905536 468.099301 9.916590 468.290909 9.929936 468.482517 9.945556 468.674126 9.963431 468.865734 9.983541 469.057343 10.005867 469.248951 10.030392 469.440559 10.057097 469.632168 10.085962 469.823776 10.116968 470.015385 10.150098 470.206993 10.185331 470.398601 10.222650 470.590210 10.262036 470.781818 10.303469 470.973427 10.346931 471.165035 10.392403 471.356643 10.439867 471.548252 10.489303 471.739860 10.540693 471.931469 10.594018 472.123077 10.649259 472.314685 10.706397 472.506294 10.765413 472.697902 10.826290 472.889510 10.889007 473.081119 10.953547 473.272727 11.019890 473.464336 11.088017 473.655944 11.157910 473.847552 11.229550 474.039161 11.302919 474.230769 11.377996 474.422378 11.454764 474.613986 11.533204 474.805594 11.613297 474.997203 11.695024 475.188811 11.778366 475.380420 11.863305 475.572028 11.949821 475.763636 12.037897 475.955245 12.127512 476.146853 12.218649 476.338462 12.311289 476.530070 12.405412 476.721678 12.501000 476.913287 12.598034 477.104895 12.696496 477.296503 12.796366 477.488112 12.897626 477.679720 13.000257 477.871329 13.104240 478.062937 13.209557 478.254545 13.316188 478.446154 13.424115 478.637762 13.533318 478.829371 13.643780 479.020979 13.755481 479.212587 13.868403 479.404196 13.982527 479.595804 14.097833 479.787413 14.214304 479.979021 14.331920 480.170629 14.450662 480.362238 14.570513 480.553846 14.691452 480.745455 14.813461 480.937063 14.936522 481.128671 15.060616 481.320280 15.185723 481.511888 15.311825 481.703497 15.438903 481.895105 15.566939 482.086713 15.695913 482.278322 15.825807 482.469930 15.956602 482.661538 16.088279 482.853147 16.220820 483.044755 16.354205 483.236364 16.488416 483.427972 16.623433 483.619580 16.759239 483.811189 16.895815 484.002797 17.033141 484.194406 17.171198 484.386014 17.309969 484.577622 17.449434 484.769231 17.589574 484.960839 17.730371 485.152448 17.871806 485.344056 18.013859 485.535664 18.156513 485.727273 18.299748 485.918881 18.443546 486.110490 18.587888 486.302098 18.732754 486.493706 18.878127 486.685315 19.023987 486.876923 19.170316 487.068531 19.317094 487.260140 19.464304 487.451748 19.611925 487.643357 19.759940 487.834965 19.908330 488.026573 20.057075 488.218182 20.206158 488.409790 20.355558 488.601399 20.505258 488.793007 20.655239 488.984615 20.805482 489.176224 20.955967 489.367832 21.106677 489.559441 21.257592 489.751049 21.408696 489.942657 21.559987 490.134266 21.711462 490.325874 21.863122 490.517483 22.014966 490.709091 22.166992 490.900699 22.319201 491.092308 22.471591 491.283916 22.624161 491.475524 22.776912 491.667133 22.929841 491.858741 23.082949 492.050350 23.236235 492.241958 23.389697 492.433566 23.543336 492.625175 23.697150 492.816783 23.851139 493.008392 24.005301 493.200000 24.159637 493.391608 24.314145 493.583217 24.468825 493.774825 24.623676 493.966434 24.778697 494.158042 24.933887 494.349650 25.089246 494.541259 25.244773 494.732867 25.400468 494.924476 25.556328 495.116084 25.712355 495.307692 25.868546 495.499301 26.024902 495.690909 26.181421 495.882517 26.338102 496.074126 26.494946 496.265734 26.651951 496.457343 26.809116 496.648951 26.966441 496.840559 27.123925 497.032168 27.281568 497.223776 27.439368 497.415385 27.597324 497.606993 27.755437 497.798601 27.913705 497.990210 28.072127 498.181818 28.230703 498.373427 28.389432 498.565035 28.548313 498.756643 28.707346 498.948252 28.866530 499.139860 29.025864 499.331469 29.185347 499.523077 29.344978 499.714685 29.504757 499.906294 29.664684 500.097902 29.824756 500.289510 29.984974 500.481119 30.145337 500.672727 30.305844 500.864336 30.466495 501.055944 30.627288 501.247552 30.788222 501.439161 30.949298 501.630769 31.110514 501.822378 31.271870 502.013986 31.433364 502.205594 31.594997 502.397203 31.756767 502.588811 31.918673 502.780420 32.080716 502.972028 32.242893 503.163636 32.405205 503.355245 32.567650 503.546853 32.730229 503.738462 32.892939 503.930070 33.055781 504.121678 33.218753 504.313287 33.381855 504.504895 33.545087 504.696503 33.708447 504.888112 33.871934 505.079720 34.035548 505.271329 34.199289 505.462937 34.363154 505.654545 34.527145 505.846154 34.691259 506.037762 34.855497 506.229371 35.019857 506.420979 35.184338 506.612587 35.348941 506.804196 35.513664 506.995804 35.678506 507.187413 35.843466 507.379021 36.008545 507.570629 36.173741 507.762238 36.339053 507.953846 36.504481 508.145455 36.670024 508.337063 36.835682 508.528671 37.001452 508.720280 37.167335 508.911888 37.333331 509.103497 37.499437 509.295105 37.665654 509.486713 37.831981 509.678322 37.998417 509.869930 38.164961 510.061538 38.331612 510.253147 38.498370 510.444755 38.665234 510.636364 38.832203 510.827972 38.999277 511.019580 39.166455 511.211189 39.333735 511.402797 39.501118 511.594406 39.668603 511.786014 39.836188 511.977622 40.003873 512.169231 40.171657 512.360839 40.339540 512.552448 40.507521 512.744056 40.675599 512.935664 40.843773 513.127273 41.012042 513.318881 41.180407 513.510490 41.348865 513.702098 41.517417 513.893706 41.686061 514.085315 41.854797 514.276923 42.023624 514.468531 42.192542 514.660140 42.361549 514.851748 42.530645 515.043357 42.699829 515.234965 42.869100 515.426573 43.038458 515.618182 43.207901 515.809790 43.377430 516.001399 43.547043 516.193007 43.716740 516.384615 43.886519 516.576224 44.056381 516.767832 44.226324 516.959441 44.396348 517.151049 44.566451 517.342657 44.736634 517.534266 44.906895 517.725874 45.077233 517.917483 45.247649 518.109091 45.418140 518.300699 45.588707 518.492308 45.759349 518.683916 45.930064 518.875524 46.100853 519.067133 46.271714 519.258741 46.442647 519.450350 46.613650 519.641958 46.784724 519.833566 46.955867 520.025175 47.127079 520.216783 47.298359 520.408392 47.469706 520.600000 47.641120 520.791608 47.812599 520.983217 47.984143 521.174825 48.155751 521.366434 48.327423 521.558042 48.499157 521.749650 48.670953 521.941259 48.842811 522.132867 49.014729 522.324476 49.186706 522.516084 49.358743 522.707692 49.530838 522.899301 49.702990 523.090909 49.875199 523.282517 50.047464 523.474126 50.219785 523.665734 50.392159 523.857343 50.564588 524.048951 50.737069 524.240559 50.909603 524.432168 51.082188 524.623776 51.254824 524.815385 51.427510 525.006993 51.600246 525.198601 51.773030 525.390210 51.945861 525.581818 52.118740 525.773427 52.291665 525.965035 52.464635 526.156643 52.637650 526.348252 52.810709 526.539860 52.983812 526.731469 53.156957 526.923077 53.330144 527.114685 53.503372 527.306294 53.676640 527.497902 53.849948 527.689510 54.023294 527.881119 54.196679 528.072727 54.370101 528.264336 54.543559 528.455944 54.717054 528.647552 54.890583 528.839161 55.064147 529.030769 55.237744 529.222378 55.411375 529.413986 55.585037 529.605594 55.758731 529.797203 55.932455 529.988811 56.106209 530.180420 56.279992 530.372028 56.453804 530.563636 56.627643 530.755245 56.801509 530.946853 56.975401 531.138462 57.149319 531.330070 57.323261 531.521678 57.497227 531.713287 57.671216 531.904895 57.845228 532.096503 58.019261 532.288112 58.193315 532.479720 58.367390 532.671329 58.541483 532.862937 58.715596 533.054545 58.889726 533.246154 59.063874 533.437762 59.238037 533.629371 59.412217 533.820979 59.586412 534.012587 59.760620 534.204196 59.934842 534.395804 60.109077 534.587413 60.283324 534.779021 60.457582 534.970629 60.631850 535.162238 60.806128 535.353846 60.980415 535.545455 61.154711 535.737063 61.329013 535.928671 61.503323 536.120280 61.677638 536.311888 61.851959 536.503497 62.026284 536.695105 62.200613 536.886713 62.374945 537.078322 62.549279 537.269930 62.723614 537.461538 62.897950 537.461538 514.000000" /></g></g><g class="titles"><text class="title plot_title" x="400.0" y="26">Victory-Monument 52</text></g><g class="plot overlay" transform="translate(232, 46)"><g class="series serie-0 color-0"><g class="dots"><circle class="dot reactive tooltip-trigger" cx="10.538461538461538" cy="375.20064251736255" r="2.5" /><desc class="value">898000</desc><desc class="x top">10.538461538461538</desc><desc class="y top">375.20064251736255</desc><desc class="x_label">Jan</desc></g><g class="dots"><circle class="dot reactive tooltip-trigger" cx="58.44055944055944" cy="414.9482578660225" r="2.5" /><desc class="value">877000</desc><desc class="x top">58.44055944055944</desc><desc class="y top">414.9482578660225</desc><desc class="x_label">Feb</desc></g><g class="dots"><circle class="dot reactive tooltip-trigger" cx="106.34265734265733" cy="83.71812996052307" r="2.5" /><desc class="value">1052000</desc><desc class="x ">106.34265734265733</desc><desc class="y ">83.71812996052307</desc><desc class="x_label">Mar</desc></g><g class="dots"><circle class="dot reactive tooltip-trigger" cx="154.24475524475523" cy="481.1942834471224" r="2.5" /><desc class="value">842000</desc><desc class="x top">154.24475524475523</desc><desc class="y top">481.1942834471224</desc><desc class="x_label">Apr</desc></g><g class="dots"><circle class="dot reactive tooltip-trigger" cx="202.14685314685315" cy="293.81266823201133" r="2.5" /><desc class="value">941000</desc><desc class="x top">202.14685314685315</desc><desc class="y top">293.81266823201133</desc><desc class="x_label">May</desc></g><g class="dots"><circle class="dot reactive tooltip-trigger" cx="250.04895104895104" cy="74.25441202036598" r="2.5" /><desc class="value">1057000</desc><desc class="x ">250.04895104895104</desc><desc class="y ">74.25441202036598</desc><desc class="x_label">Jun</desc></g><g class="dots"><circle class="dot reactive tooltip-trigger" cx="297.95104895104896" cy="259.74328364744565" r="2.5" /><desc class="value">959000</desc><desc class="x left top">297.95104895104896</desc><desc class="y left top">259.74328364744565</desc><desc class="x_label">Jul</desc></g><g class="dots"><circle class="dot reactive tooltip-trigger" cx="345.8531468531468" cy="142.39318118949728" r="2.5" /><desc class="value">1021000</desc><desc class="x left">345.8531468531468</desc><desc class="y left">142.39318118949728</desc><desc class="x_label">Aug</desc></g><g class="dots"><circle class="dot reactive tooltip-trigger" cx="393.75524475524475" cy="180.24805295012578" r="2.5" /><desc class="value">1001000</desc><desc class="x left">393.75524475524475</desc><desc class="y left">180.24805295012578</desc><desc class="x_label">Sep</desc></g><g class="dots"><circle class="dot reactive tooltip-trigger" cx="441.65734265734267" cy="38.292283847768886" r="2.5" /><desc class="value">1076000</desc><desc class="x left">441.65734265734267</desc><desc class="y left">38.292283847768886</desc><desc class="x_label">Oct</desc></g><g class="dots"><circle class="dot reactive tooltip-trigger" cx="489.55944055944053" cy="21.257591555486044" r="2.5" /><desc class="value">1085000</desc><desc class="x left">489.55944055944053</desc><desc class="y left">21.257591555486044</desc><desc class="x_label">Nov</desc></g><g class="dots"><circle class="dot reactive tooltip-trigger" cx="537.4615384615385" cy="62.897950492177415" r="2.5" /><desc class="value">1063000</desc><desc class="x left">537.4615384615385</desc><desc class="y left">62.897950492177415</desc><desc class="x_label">Dec</desc></g></g></g><g class="plot text-overlay" transform="translate(232, 46)"><g class="series serie-0 color-0" /></g><g class="plot tooltip-overlay" transform="translate(232, 46)"><g class="tooltip" style="opacity: 0" transform="translate(0 0)"><rect class="tooltip-box" height="0" rx="0" ry="0" width="0" /><g class="text" /></g></g><g class="legends" transform="translate(10, 56)"><g class="legend reactive activate-serie" id="activate-serie-0"><rect class="color-0 reactive" height="12" width="12" x="0.0" y="1.0" /><text x="17.0" y="11.2">Victory-Monume…</text><title>Victory-Monument</title></g></g><g class="legends" transform="translate(790, 56)" /></g></svg>