<?xml version='1.0' encoding='utf-8'?>
<svg xmlns:xlink="http://www.w3.org/1999/xlink" class="pygal-chart" id="chart-1077314e-3975-449c-9d6f-19488a86e150" viewBox="0 0 800 600" xmlns="http://www.w3.org/2000/svg"><!--Generated with pygal 2.0.11 (etree) ©Kozea 2011-2015 on 2015-12-10--><!--http://pygal.org--><!--http://github.com/Kozea/pygal--><defs><style type="text/css">#chart-1077314e-3975-449c-9d6f-19488a86e150{-webkit-user-select:none;-webkit-font-smoothing:antialiased;font-family:Consolas,"Liberation Mono",Menlo,Courier,monospace}#chart-1077314e-3975-449c-9d6f-19488a86e150 .title{font-family:Consolas,"Liberation Mono",Menlo,Courier,monospace;font-size:16px}#chart-1077314e-3975-449c-9d6f-19488a86e150 .legends .legend text{font-family:Consolas,"Liberation Mono",Menlo,Courier,monospace;font-size:14px}#chart-1077314e-3975-449c-9d6f-19488a86e150 .axis text{font-family:Consolas,"Liberation Mono",Menlo,Courier,monospace;font-size:10px}#chart-1077314e-3975-449c-9d6f-19488a86e150 .axis text.major{font-family:Consolas,"Liberation Mono",Menlo,Courier,monospace;font-size:10px}#chart-1077314e-3975-449c-9d6f-19488a86e150 .text-overlay text.value{font-family:Consolas,"Liberation Mono",Menlo,Courier,monospace;font-size:16px}#chart-1077314e-3975-449c-9d6f-19488a86e150 .text-overlay text.label{font-family:Consolas,"Liberation Mono",Menlo,Courier,monospace;font-size:10px}#chart-1077314e-3975-449c-9d6f-19488a86e150 .tooltip{font-family:Consolas,"Liberation Mono",Menlo,Courier,monospace;font-size:14px}#chart-1077314e-3975-449c-9d6f-19488a86e150 text.no_data{font-family:Consolas,"Liberation Mono",Menlo,Courier,monospace;font-size:64px}
#chart-1077314e-3975-449c-9d6f-19488a86e150{background-color:black}#chart-1077314e-3975-449c-9d6f-19488a86e150 path,#chart-1077314e-3975-449c-9d6f-19488a86e150 line,#chart-1077314e-3975-449c-9d6f-19488a86e150 rect,#chart-1077314e-3975-449c-9d6f-19488a86e150 circle{-webkit-transition:250ms;-moz-transition:250ms;transition:250ms}#chart-1077314e-3975-449c-9d6f-19488a86e150 .graph &gt; .background{fill:black}#chart-1077314e-3975-449c-9d6f-19488a86e150 .plot &gt; .background{fill:#111}#chart-1077314e-3975-449c-9d6f-19488a86e150 .graph{fill:#999}#chart-1077314e-3975-449c-9d6f-19488a86e150 text.no_data{fill:#eee}#chart-1077314e-3975-449c-9d6f-19488a86e150 .title{fill:#eee}#chart-1077314e-3975-449c-9d6f-19488a86e150 .legends .legend text{fill:#999}#chart-1077314e-3975-449c-9d6f-19488a86e150 .legends .legend:hover text{fill:#eee}#chart-1077314e-3975-449c-9d6f-19488a86e150 .axis .line{stroke:#eee}#chart-1077314e-3975-449c-9d6f-19488a86e150 .axis .guide.line{stroke:#555}#chart-1077314e-3975-449c-9d6f-19488a86e150 .axis .major.line{stroke:#999}#chart-1077314e-3975-449c-9d6f-19488a86e150 .axis text.major{fill:#eee}#chart-1077314e-3975-449c-9d6f-19488a86e150 .axis.y .guides:hover .guide.line,#chart-1077314e-3975-449c-9d6f-19488a86e150 .line-graph .axis.x .guides:hover .guide.line,#chart-1077314e-3975-449c-9d6f-19488a86e150 .stackedline-graph .axis.x .guides:hover .guide.line,#chart-1077314e-3975-449c-9d6f-19488a86e150 .xy-graph .axis.x .guides:hover .guide.line{stroke:#eee}#chart-1077314e-3975-449c-9d6f-19488a86e150 .axis .guides:hover text{fill:#eee}#chart-1077314e-3975-449c-9d6f-19488a86e150 .reactive{fill-opacity:.8}#chart-1077314e-3975-449c-9d6f-19488a86e150 .reactive.active,#chart-1077314e-3975-449c-9d6f-19488a86e150 .active .reactive{fill-opacity:.4;stroke-width:4}#chart-1077314e-3975-449c-9d6f-19488a86e150 .series text{fill:#eee}#chart-1077314e-3975-449c-9d6f-19488a86e150 .tooltip rect{fill:#111;stroke:#eee;-webkit-transition:opacity 250ms;-moz-transition:opacity 250ms;transition:opacity 250ms}#chart-1077314e-3975-449c-9d6f-19488a86e150 .tooltip .label{fill:#999}#chart-1077314e-3975-449c-9d6f-19488a86e150 .tooltip .label{fill:#999}#chart-1077314e-3975-449c-9d6f-19488a86e150 .tooltip .legend{font-size:.8em;fill:#555}#chart-1077314e-3975-449c-9d6f-19488a86e150 .tooltip .x_label{font-size:.6em;fill:#eee}#chart-1077314e-3975-449c-9d6f-19488a86e150 .tooltip .xlink{font-size:.5em;text-decoration:underline}#chart-1077314e-3975-449c-9d6f-19488a86e150 .tooltip .value{font-size:1.5em}#chart-1077314e-3975-449c-9d6f-19488a86e150 .map-element{fill:#111;stroke:#555 !important}#chart-1077314e-3975-449c-9d6f-19488a86e150 .map-element .reactive{fill-opacity:inherit}#chart-1077314e-3975-449c-9d6f-19488a86e150 .color-0,#chart-1077314e-3975-449c-9d6f-19488a86e150 .color-0 a:visited{stroke:#ff5995;fill:#ff5995}#chart-1077314e-3975-449c-9d6f-19488a86e150 .text-overlay .color-0 text{fill:black}
#chart-1077314e-3975-449c-9d6f-19488a86e150 text.no_data{text-anchor:middle}#chart-1077314e-3975-449c-9d6f-19488a86e150 .guide.line{fill:none}#chart-1077314e-3975-449c-9d6f-19488a86e150 .centered{text-anchor:middle}#chart-1077314e-3975-449c-9d6f-19488a86e150 .title{text-anchor:middle}#chart-1077314e-3975-449c-9d6f-19488a86e150 .legends .legend text{fill-opacity:1}#chart-1077314e-3975-449c-9d6f-19488a86e150 .axis.x text{text-anchor:middle}#chart-1077314e-3975-449c-9d6f-19488a86e150 .axis.x:not(.web) text[transform]{text-anchor:start}#chart-1077314e-3975-449c-9d6f-19488a86e150 .axis.x:not(.web) text[transform].backwards{text-anchor:end}#chart-1077314e-3975-449c-9d6f-19488a86e150 .axis.y text{text-anchor:end}#chart-1077314e-3975-449c-9d6f-19488a86e150 .axis.y text[transform].backwards{text-anchor:start}#chart-1077314e-3975-449c-9d6f-19488a86e150 .axis.y2 text{text-anchor:start}#chart-1077314e-3975-449c-9d6f-19488a86e150 .axis.y2 text[transform].backwards{text-anchor:end}#chart-1077314e-3975-449c-9d6f-19488a86e150 .axis .guide.line{stroke-dasharray:4,4}#chart-1077314e-3975-449c-9d6f-19488a86e150 .axis .major.guide.line{stroke-dasharray:6,6}#chart-1077314e-3975-449c-9d6f-19488a86e150 .horizontal .axis.y .guide.line,#chart-1077314e-3975-449c-9d6f-19488a86e150 .horizontal .axis.y2 .guide.line,#chart-1077314e-3975-449c-9d6f-19488a86e150 .vertical .axis.x .guide.line{opacity:0}#chart-1077314e-3975-449c-9d6f-19488a86e150 .horizontal .axis.always_show .guide.line,#chart-1077314e-3975-449c-9d6f-19488a86e150 .vertical .axis.always_show .guide.line{opacity:1 !important}#chart-1077314e-3975-449c-9d6f-19488a86e150 .axis.y .guides:hover .guide.line,#chart-1077314e-3975-449c-9d6f-19488a86e150 .axis.y2 .guides:hover .guide.line,#chart-1077314e-3975-449c-9d6f-19488a86e150 .axis.x .guides:hover .guide.line{opacity:1}#chart-1077314e-3975-449c-9d6f-19488a86e150 .axis .guides:hover text{opacity:1}#chart-1077314e-3975-449c-9d6f-19488a86e150 .nofill{fill:none}#chart-1077314e-3975-449c-9d6f-19488a86e150 .subtle-fill{fill-opacity:.2}#chart-1077314e-3975-449c-9d6f-19488a86e150 .dot{stroke-width:1px;fill-opacity:1}#chart-1077314e-3975-449c-9d6f-19488a86e150 .dot.active{stroke-width:5px}#chart-1077314e-3975-449c-9d6f-19488a86e150 .dot.negative{fill:transparent}#chart-1077314e-3975-449c-9d6f-19488a86e150 text,#chart-1077314e-3975-449c-9d6f-19488a86e150 tspan{stroke:none !important}#chart-1077314e-3975-449c-9d6f-19488a86e150 .series text.active{opacity:1}#chart-1077314e-3975-449c-9d6f-19488a86e150 .tooltip rect{fill-opacity:.95;stroke-width:.5}#chart-1077314e-3975-449c-9d6f-19488a86e150 .tooltip text{fill-opacity:1}#chart-1077314e-3975-449c-9d6f-19488a86e150 .showable{visibility:hidden}#chart-1077314e-3975-449c-9d6f-19488a86e150 .showable.shown{visibility:visible}</style><script type="text/javascript">window.pygal = window.pygal || {};window.pygal.config = window.pygal.config || {};window.pygal.config['1077314e-3975-449c-9d6f-19488a86e150'] = {"value_formatter": null, "stroke_style": null, "show_minor_y_labels": true, "truncate_label": null, "explicit_size": false, "x_labels_major_every": null, "margin_right": null, "height": 600, "max_scale": 16, "x_labels_major_count": null, "logarithmic": false, "show_only_major_dots": false, "y_labels_major_count": null, "title": "Phrom-Phong 53", "force_uri_protocol": null, "width": 800, "x_value_formatter": null, "half_pie": false, "show_x_guides": false, "style": {"background": "black", "major_guide_stroke_dasharray": "6,6", "no_data_font_size": 64, "no_data_font_family": "Consolas, \"Liberation Mono\", Menlo, Courier, monospace", "value_label_font_family": "Consolas, \"Liberation Mono\", Menlo, Courier, monospace", "value_font_size": 16, "legend_font_size": 14, "transition": "250ms", "value_colors": [], "foreground": "#999", "opacity_hover": ".4", "label_font_family": "Consolas, \"Liberation Mono\", Menlo, Courier, monospace", "major_label_font_size": 10, "opacity": ".8", "major_label_font_family": "Consolas, \"Liberation Mono\", Menlo, Courier, monospace", "tooltip_font_family": "Consolas, \"Liberation Mono\", Menlo, Courier, monospace", "font_family": "Consolas, \"Liberation Mono\", Menlo, Courier, monospace", "value_font_family": "Consolas, \"Liberation Mono\", Menlo, Courier, monospace", "colors": ["#ff5995", "#b6e354", "#feed6c", "#8cedff", "#9e6ffe", "#899ca1", "#f8f8f2", "#bf4646", "#516083", "#f92672", "#82b414", "#fd971f", "#56c2d6", "#808384", "#8c54fe", "#465457"], "title_font_size": 16, "foreground_subtle": "#555", "legend_font_family": "Consolas, \"Liberation Mono\", Menlo, Courier, monospace", "plot_background": "#111", "guide_stroke_dasharray": "4,4", "tooltip_font_size": 14, "foreground_strong": "#eee", "label_font_size": 10, "value_label_font_size": 10, "title_font_family": "Consolas, \"Liberation Mono\", Menlo, Courier, monospace"}, "include_x_axis": false, "stroke": true, "interpolation_precision": 250, "inverse_y_axis": false, "js": ["//kozea.github.io/pygal.js/2.0.x/pygal-tooltips.min.js"], "human_readable": false, "y_labels": null, "missing_value_fill_truncation": "x", "no_prefix": false, "disable_xml_declaration": false, "show_y_guides": true, "no_data_text": "No data", "margin": 20, "show_legend": true, "print_zeroes": true, "spacing": 10, "legend_box_size": 12, "tooltip_border_radius": 0, "legends": ["Phrom-Phong"], "y_label_rotation": 0, "order_min": null, "min_scale": 4, "y_labels_major": null, "secondary_range": null, "x_title": null, "show_x_labels": true, "defs": [], "y_title": null, "x_labels": ["Jan", "Feb", "Mar", "Apr", "May", "Jun", "Jul", "Aug", "Sep", "Oct", "Nov", "Dec"], "stack_from_top": false, "print_values": false, "truncate_legend": null, "x_labels_major": null, "css": ["file://style.css", "file://graph.css"], "dots_size": 2.5, "show_y_labels": true, "interpolate": "cubic", "margin_left": null, "print_labels": false, "y_labels_major_every": null, "margin_top": null, "show_minor_x_labels": true, "legend_at_bottom_columns": null, "fill": true, "xrange": null, "strict": false, "zero": 0, "tooltip_fancy_mode": true, "interpolation_parameters": {}, "x_label_rotation": 0, "show_dots": true, "legend_at_bottom": false, "inner_radius": 0, "rounded_bars": null, "range": null, "margin_bottom": null, "box_mode": "extremes", "dynamic_print_values": false, "pretty_print": false}</script><script type="text/javascript" xlink:href="//kozea.github.io/pygal.js/2.0.x/pygal-tooltips.min.js" /></defs><title>Phrom-Phong 53</title><g class="graph line-graph vertical"><rect class="background" height="600" width="800" x="0" y="0" /><g class="plot" transform="translate(192, 46)"><rect class="background" height="514" width="587.6" x="0" y="0" /><g class="axis y"><path class="line" d="M0.000000 514.000000 h587.600000" /><g class="guides"><path class="guide line" d="M0.000000 488.827318 h587.600000" /><text class="" x="-5" y="492.3273178407687">380000.0</text><title>380000.0</title></g><g class="guides"><path class="major guide line" d="M0.000000 441.820305 h587.600000" /><text class="major" x="-5" y="445.32030496321715">400000.0</text><title>400000.0</title></g><g class="guides"><path class="guide line" d="M0.000000 394.813292 h587.600000" /><text class="" x="-5" y="398.3132920856656">420000.0</text><title>420000.0</title></g><g class="guides"><path class="guide line" d="M0.000000 347.806279 h587.600000" /><text class="" x="-5" y="351.3062792081141">440000.0</text><title>440000.0</title></g><g class="guides"><path class="guide line" d="M0.000000 300.799266 h587.600000" /><text class="" x="-5" y="304.29926633056255">460000.0</text><title>460000.0</title></g><g class="guides"><path class="guide line" d="M0.000000 253.792253 h587.600000" /><text class="" x="-5" y="257.29225345301097">480000.0</text><title>480000.0</title></g><g class="guides"><path class="major guide line" d="M0.000000 206.785241 h587.600000" /><text class="major" x="-5" y="210.2852405754594">500000.0</text><title>500000.0</title></g><g class="guides"><path class="guide line" d="M0.000000 159.778228 h587.600000" /><text class="" x="-5" y="163.27822769790788">520000.0</text><title>520000.0</title></g><g class="guides"><path class="guide line" d="M0.000000 112.771215 h587.600000" /><text class="" x="-5" y="116.2712148203563">540000.0</text><title>540000.0</title></g><g class="guides"><path class="guide line" d="M0.000000 65.764202 h587.600000" /><text class="" x="-5" y="69.26420194280479">560000.0</text><title>560000.0</title></g><g class="guides"><path class="guide line" d="M0.000000 18.757189 h587.600000" /><text class="" x="-5" y="22.257189065253215">580000.0</text><title>580000.0</title></g></g><g class="axis x"><g class="guides"><path class="line" d="M11.300000 0.000000 v514.000000" /><text class="" x="11.3" y="529.0">Jan</text></g><g class="guides"><path class="guide line" d="M62.663636 0.000000 v514.000000" /><text class="" x="62.66363636363637" y="529.0">Feb</text></g><g class="guides"><path class="guide line" d="M114.027273 0.000000 v514.000000" /><text class="" x="114.02727272727273" y="529.0">Mar</text></g><g class="guides"><path class="guide line" d="M165.390909 0.000000 v514.000000" /><text class="" x="165.39090909090908" y="529.0">Apr</text></g><g class="guides"><path class="guide line" d="M216.754545 0.000000 v514.000000" /><text class="" x="216.75454545454548" y="529.0">May</text></g><g class="guides"><path class="guide line" d="M268.118182 0.000000 v514.000000" /><text class="" x="268.1181818181818" y="529.0">Jun</text></g><g class="guides"><path class="guide line" d="M319.481818 0.000000 v514.000000" /><text class="" x="319.4818181818182" y="529.0">Jul</text></g><g class="guides"><path class="guide line" d="M370.845455 0.000000 v514.000000" /><text class="" x="370.8454545454546" y="529.0">Aug</text></g><g class="guides"><path class="guide line" d="M422.209091 0.000000 v514.000000" /><text class="" x="422.20909090909095" y="529.0">Sep</text></g><g class="guides"><path class="guide line" d="M473.572727 0.000000 v514.000000" /><text class="" x="473.5727272727273" y="529.0">Oct</text></g><g class="guides"><path class="guide line" d="M524.936364 0.000000 v514.000000" /><text class="" x="524.9363636363636" y="529.0">Nov</text></g><g class="guides"><path class="guide line" d="M576.300000 0.000000 v514.000000" /><text class="" x="576.3000000000001" y="529.0">Dec</text></g></g><g class="series serie-0 color-0"><path class="line reactive" d="M11.300000 514.000000 L11.300000 68.972431 11.505455 69.252661 11.710909 69.532881 11.916364 69.813078 12.121818 70.093243 12.327273 70.373365 12.532727 70.653431 12.738182 70.933432 12.943636 71.213357 13.149091 71.493194 13.354545 71.772933 13.560000 72.052562 13.765455 72.332071 13.970909 72.611450 14.176364 72.890686 14.381818 73.169769 14.587273 73.448688 14.792727 73.727432 14.998182 74.005991 15.203636 74.284352 15.409091 74.562507 15.614545 74.840442 15.820000 75.118148 16.025455 75.395614 16.230909 75.672828 16.436364 75.949780 16.641818 76.226459 16.847273 76.502854 17.052727 76.778953 17.258182 77.054747 17.463636 77.330224 17.669091 77.605373 17.874545 77.880183 18.080000 78.154643 18.285455 78.428743 18.490909 78.702471 18.696364 78.975817 18.901818 79.248769 19.107273 79.521317 19.312727 79.793449 19.518182 80.065156 19.723636 80.336425 19.929091 80.607246 20.134545 80.877609 20.340000 81.147501 20.545455 81.416912 20.750909 81.685832 20.956364 81.954249 21.161818 82.222152 21.367273 82.489531 21.572727 82.756375 21.778182 83.022671 21.983636 83.288411 22.189091 83.553582 22.394545 83.818174 22.600000 84.082176 22.805455 84.345577 23.010909 84.608366 23.216364 84.870532 23.421818 85.132064 23.627273 85.392952 23.832727 85.653183 24.038182 85.912748 24.243636 86.171636 24.449091 86.429835 24.654545 86.687334 24.860000 86.944124 25.065455 87.200192 25.270909 87.455527 25.476364 87.710120 25.681818 87.963959 25.887273 88.217032 26.092727 88.469330 26.298182 88.720841 26.503636 88.971554 26.709091 89.221458 26.914545 89.470543 27.120000 89.718797 27.325455 89.966210 27.530909 90.212770 27.736364 90.458467 27.941818 90.703290 28.147273 90.947227 28.352727 91.190269 28.558182 91.432403 28.763636 91.673619 28.969091 91.913907 29.174545 92.153254 29.380000 92.391651 29.585455 92.629086 29.790909 92.865549 29.996364 93.101028 30.201818 93.335512 30.407273 93.568991 30.612727 93.801454 30.818182 94.032889 31.023636 94.263287 31.229091 94.492635 31.434545 94.720923 31.640000 94.948140 31.845455 95.174275 32.050909 95.399318 32.256364 95.623256 32.461818 95.846080 32.667273 96.067779 32.872727 96.288340 33.078182 96.507755 33.283636 96.726011 33.489091 96.943097 33.694545 97.159003 33.900000 97.373719 34.105455 97.587232 34.310909 97.799531 34.516364 98.010607 34.721818 98.220449 34.927273 98.429044 35.132727 98.636382 35.338182 98.842453 35.543636 99.047245 35.749091 99.250748 35.954545 99.452950 36.160000 99.653841 36.365455 99.853409 36.570909 100.051644 36.776364 100.248535 36.981818 100.444071 37.187273 100.638241 37.392727 100.831034 37.598182 101.022439 37.803636 101.212445 38.009091 101.401041 38.214545 101.588217 38.420000 101.773961 38.625455 101.958262 38.830909 102.141110 39.036364 102.322494 39.241818 102.502402 39.447273 102.680825 39.652727 102.857749 39.858182 103.033166 40.063636 103.207064 40.269091 103.379432 40.474545 103.550259 40.680000 103.719534 40.885455 103.887246 41.090909 104.053384 41.296364 104.217938 41.501818 104.380897 41.707273 104.542249 41.912727 104.701984 42.118182 104.860090 42.323636 105.016557 42.529091 105.171374 42.734545 105.324529 42.940000 105.476013 43.145455 105.625814 43.350909 105.773921 43.556364 105.920323 43.761818 106.065009 43.967273 106.207969 44.172727 106.349191 44.378182 106.488664 44.583636 106.626378 44.789091 106.762322 44.994545 106.896484 45.200000 107.028854 45.405455 107.159421 45.610909 107.288173 45.816364 107.415101 46.021818 107.540193 46.227273 107.663438 46.432727 107.784825 46.638182 107.904343 46.843636 108.021982 47.049091 108.137730 47.254545 108.251576 47.460000 108.363510 47.665455 108.473521 47.870909 108.581597 48.076364 108.687728 48.281818 108.791903 48.487273 108.894111 48.692727 108.994341 48.898182 109.092581 49.103636 109.188822 49.309091 109.283052 49.514545 109.375261 49.720000 109.465436 49.925455 109.553568 50.130909 109.639646 50.336364 109.723658 50.541818 109.805594 50.747273 109.885442 50.952727 109.963192 51.158182 110.038833 51.363636 110.112354 51.569091 110.183744 51.774545 110.252992 51.980000 110.320087 52.185455 110.385018 52.390909 110.447775 52.596364 110.508345 52.801818 110.566720 53.007273 110.622886 53.212727 110.676834 53.418182 110.728553 53.623636 110.778032 53.829091 110.825259 54.034545 110.870224 54.240000 110.912916 54.445455 110.953324 54.650909 110.991437 54.856364 111.027244 55.061818 111.060735 55.267273 111.091897 55.472727 111.120721 55.678182 111.147196 55.883636 111.171310 56.089091 111.193052 56.294545 111.212412 56.500000 111.229379 56.705455 111.243941 56.910909 111.256088 57.116364 111.265810 57.321818 111.273094 57.527273 111.277930 57.732727 111.280307 57.938182 111.280215 58.143636 111.277642 58.349091 111.272577 58.554545 111.265009 58.760000 111.254928 58.965455 111.242323 59.170909 111.227182 59.376364 111.209495 59.581818 111.189251 59.787273 111.166438 59.992727 111.141047 60.198182 111.113065 60.403636 111.082483 60.609091 111.049288 60.814545 111.013471 61.020000 110.975020 61.225455 110.933924 61.430909 110.890173 61.636364 110.843755 61.841818 110.794660 62.047273 110.742877 62.252727 110.688394 62.458182 110.631201 62.663636 110.571287 62.869091 110.508647 63.074545 110.443301 63.280000 110.375276 63.485455 110.304599 63.690909 110.231296 63.896364 110.155394 64.101818 110.076919 64.307273 109.995898 64.512727 109.912357 64.718182 109.826322 64.923636 109.737822 65.129091 109.646881 65.334545 109.553526 65.540000 109.457785 65.745455 109.359683 65.950909 109.259248 66.156364 109.156505 66.361818 109.051481 66.567273 108.944203 66.772727 108.834697 66.978182 108.722991 67.183636 108.609109 67.389091 108.493080 67.594545 108.374929 67.800000 108.254683 68.005455 108.132369 68.210909 108.008013 68.416364 107.881641 68.621818 107.753281 68.827273 107.622959 69.032727 107.490701 69.238182 107.356534 69.443636 107.220484 69.649091 107.082578 69.854545 106.942843 70.060000 106.801305 70.265455 106.657991 70.470909 106.512926 70.676364 106.366139 70.881818 106.217655 71.087273 106.067500 71.292727 105.915702 71.498182 105.762287 71.703636 105.607281 71.909091 105.450711 72.114545 105.292604 72.320000 105.132986 72.525455 104.971884 72.730909 104.809324 72.936364 104.645332 73.141818 104.479936 73.347273 104.313162 73.552727 104.145036 73.758182 103.975585 73.963636 103.804835 74.169091 103.632814 74.374545 103.459547 74.580000 103.285061 74.785455 103.109383 74.990909 102.932539 75.196364 102.754556 75.401818 102.575460 75.607273 102.395278 75.812727 102.214037 76.018182 102.031762 76.223636 101.848481 76.429091 101.664220 76.634545 101.479006 76.840000 101.292865 77.045455 101.105823 77.250909 100.917908 77.456364 100.729146 77.661818 100.539563 77.867273 100.349185 78.072727 100.158041 78.278182 99.966155 78.483636 99.773555 78.689091 99.580266 78.894545 99.386317 79.100000 99.191732 79.305455 98.996540 79.510909 98.800765 79.716364 98.604436 79.921818 98.407578 80.127273 98.210217 80.332727 98.012382 80.538182 97.814097 80.743636 97.615390 80.949091 97.416286 81.154545 97.216814 81.360000 97.016999 81.565455 96.816867 81.770909 96.616446 81.976364 96.415761 82.181818 96.214840 82.387273 96.013709 82.592727 95.812395 82.798182 95.610923 83.003636 95.409321 83.209091 95.207615 83.414545 95.005832 83.620000 94.803998 83.825455 94.602140 84.030909 94.400284 84.236364 94.198457 84.441818 93.996686 84.647273 93.794996 84.852727 93.593415 85.058182 93.391969 85.263636 93.190684 85.469091 92.989588 85.674545 92.788706 85.880000 92.588066 86.085455 92.387694 86.290909 92.187615 86.496364 91.987858 86.701818 91.788448 86.907273 91.589412 87.112727 91.390777 87.318182 91.192569 87.523636 90.994814 87.729091 90.797540 87.934545 90.600772 88.140000 90.404537 88.345455 90.208863 88.550909 90.013775 88.756364 89.819299 88.961818 89.625463 89.167273 89.432293 89.372727 89.239816 89.578182 89.048058 89.783636 88.857045 89.989091 88.666805 90.194545 88.477363 90.400000 88.288747 90.605455 88.100982 90.810909 87.914096 91.016364 87.728115 91.221818 87.543065 91.427273 87.358974 91.632727 87.175867 91.838182 86.993771 92.043636 86.812713 92.249091 86.632719 92.454545 86.453815 92.660000 86.276029 92.865455 86.099387 93.070909 85.923916 93.276364 85.749641 93.481818 85.576590 93.687273 85.404789 93.892727 85.234264 94.098182 85.065043 94.303636 84.897151 94.509091 84.730616 94.714545 84.565463 94.920000 84.401720 95.125455 84.239413 95.330909 84.078568 95.536364 83.919212 95.741818 83.761371 95.947273 83.605073 96.152727 83.450343 96.358182 83.297209 96.563636 83.145696 96.769091 82.995831 96.974545 82.847642 97.180000 82.701153 97.385455 82.556393 97.590909 82.413387 97.796364 82.272162 98.001818 82.132745 98.207273 81.995161 98.412727 81.859439 98.618182 81.725603 98.823636 81.593681 99.029091 81.463700 99.234545 81.335686 99.440000 81.209664 99.645455 81.085663 99.850909 80.963708 100.056364 80.843827 100.261818 80.726045 100.467273 80.610389 100.672727 80.496885 100.878182 80.385561 101.083636 80.276443 101.289091 80.169557 101.494545 80.064930 101.700000 79.962588 101.905455 79.862558 102.110909 79.764867 102.316364 79.669541 102.521818 79.576606 102.727273 79.486090 102.932727 79.398018 103.138182 79.312418 103.343636 79.229315 103.549091 79.148737 103.754545 79.070709 103.960000 78.995259 104.165455 78.922413 104.370909 78.852198 104.576364 78.784640 104.781818 78.719765 104.987273 78.657600 105.192727 78.598172 105.398182 78.541508 105.603636 78.487633 105.809091 78.436575 106.014545 78.388359 106.220000 78.343013 106.425455 78.300563 106.630909 78.261036 106.836364 78.224457 107.041818 78.190855 107.247273 78.160254 107.452727 78.132683 107.658182 78.108166 107.863636 78.086732 108.069091 78.068405 108.274545 78.053214 108.480000 78.041184 108.685455 78.032343 108.890909 78.026715 109.096364 78.024329 109.301818 78.025211 109.507273 78.029387 109.712727 78.036884 109.918182 78.047728 110.123636 78.061945 110.329091 78.079564 110.534545 78.100609 110.740000 78.125108 110.945455 78.153086 111.150909 78.184572 111.356364 78.219590 111.561818 78.258169 111.767273 78.300333 111.972727 78.346110 112.178182 78.395527 112.383636 78.448610 112.589091 78.505385 112.794545 78.565879 113.000000 78.630118 113.205455 78.698130 113.410909 78.769940 113.616364 78.845575 113.821818 78.925062 114.027273 79.008428 114.232727 79.095695 114.438182 79.186875 114.643636 79.281978 114.849091 79.381010 115.054545 79.483981 115.260000 79.590898 115.465455 79.701772 115.670909 79.816609 115.876364 79.935418 116.081818 80.058208 116.287273 80.184988 116.492727 80.315764 116.698182 80.450547 116.903636 80.589345 117.109091 80.732165 117.314545 80.879016 117.520000 81.029908 117.725455 81.184847 117.930909 81.343843 118.136364 81.506904 118.341818 81.674039 118.547273 81.845256 118.752727 82.020563 118.958182 82.199968 119.163636 82.383481 119.369091 82.571110 119.574545 82.762863 119.780000 82.958748 119.985455 83.158774 120.190909 83.362950 120.396364 83.571284 120.601818 83.783783 120.807273 84.000458 121.012727 84.221315 121.218182 84.446364 121.423636 84.675613 121.629091 84.909071 121.834545 85.146745 122.040000 85.388645 122.245455 85.634779 122.450909 85.885154 122.656364 86.139780 122.861818 86.398666 123.067273 86.661818 123.272727 86.929247 123.478182 87.200960 123.683636 87.476966 123.889091 87.757273 124.094545 88.041889 124.300000 88.330824 124.505455 88.624085 124.710909 88.921681 124.916364 89.223621 125.121818 89.529912 125.327273 89.840563 125.532727 90.155583 125.738182 90.474981 125.943636 90.798764 126.149091 91.126940 126.354545 91.459519 126.560000 91.796510 126.765455 92.137919 126.970909 92.483756 127.176364 92.834029 127.381818 93.188747 127.587273 93.547917 127.792727 93.911550 127.998182 94.279652 128.203636 94.652232 128.409091 95.029299 128.614545 95.410861 128.820000 95.796927 129.025455 96.187505 129.230909 96.582604 129.436364 96.982231 129.641818 97.386395 129.847273 97.795106 130.052727 98.208371 130.258182 98.626198 130.463636 99.048596 130.669091 99.475574 130.874545 99.907140 131.080000 100.343302 131.285455 100.784069 131.490909 101.229449 131.696364 101.679451 131.901818 102.134083 132.107273 102.593354 132.312727 103.057272 132.518182 103.525845 132.723636 103.999081 132.929091 104.476991 133.134545 104.959580 133.340000 105.446859 133.545455 105.938836 133.750909 106.435519 133.956364 106.936916 134.161818 107.443036 134.367273 107.953887 134.572727 108.469478 134.778182 108.989817 134.983636 109.514913 135.189091 110.044774 135.394545 110.579408 135.600000 111.118824 135.805455 111.663031 136.010909 112.212036 136.216364 112.765849 136.421818 113.324477 136.627273 113.887930 136.832727 114.456215 137.038182 115.029340 137.243636 115.607316 137.449091 116.190149 137.654545 116.777848 137.860000 117.370422 138.065455 117.967879 138.270909 118.570228 138.476364 119.177477 138.681818 119.789634 138.887273 120.406708 139.092727 121.028707 139.298182 121.655640 139.503636 122.287515 139.709091 122.924341 139.914545 123.566125 140.120000 124.212878 140.325455 124.864606 140.530909 125.521318 140.736364 126.183023 140.941818 126.849730 141.147273 127.521446 141.352727 128.198180 141.558182 128.879941 141.763636 129.566736 141.969091 130.258575 142.174545 130.955466 142.380000 131.657416 142.585455 132.364436 142.790909 133.076533 142.996364 133.793715 143.201818 134.515991 143.407273 135.243370 143.612727 135.975859 143.818182 136.713468 144.023636 137.456204 144.229091 138.204076 144.434545 138.957094 144.640000 139.715264 144.845455 140.478595 145.050909 141.247096 145.256364 142.020776 145.461818 142.799642 145.667273 143.583704 145.872727 144.372969 146.078182 145.167446 146.283636 145.967144 146.489091 146.772071 146.694545 147.582235 146.900000 148.397644 147.105455 149.218308 147.310909 150.044235 147.516364 150.875432 147.721818 151.711909 147.927273 152.553674 148.132727 153.400736 148.338182 154.253102 148.543636 155.110781 148.749091 155.973782 148.954545 156.842114 149.160000 157.715783 149.365455 158.594800 149.570909 159.479172 149.776364 160.368908 149.981818 161.264017 150.187273 162.164506 150.392727 163.070384 150.598182 163.981659 150.803636 164.898341 151.009091 165.820437 151.214545 166.747956 151.420000 167.680907 151.625455 168.619297 151.830909 169.563135 152.036364 170.512430 152.241818 171.467190 152.447273 172.427423 152.652727 173.393138 152.858182 174.364344 153.063636 175.341048 153.269091 176.323260 153.474545 177.310987 153.680000 178.304239 153.885455 179.303023 154.090909 180.307347 154.296364 181.317222 154.501818 182.332654 154.707273 183.353652 154.912727 184.380225 155.118182 185.412381 155.323636 186.450129 155.529091 187.493476 155.734545 188.542432 155.940000 189.597005 156.145455 190.657203 156.350909 191.723035 156.556364 192.794509 156.761818 193.871634 156.967273 194.954417 157.172727 196.042869 157.378182 197.136995 157.583636 198.236807 157.789091 199.342311 157.994545 200.453516 158.200000 201.570431 158.405455 202.693064 158.610909 203.821423 158.816364 204.955518 159.021818 206.095355 159.227273 207.240945 159.432727 208.392294 159.638182 209.549413 159.843636 210.712308 160.049091 211.880989 160.254545 213.055464 160.460000 214.235741 160.665455 215.421829 160.870909 216.613737 161.076364 217.811472 161.281818 219.015043 161.487273 220.224459 161.692727 221.439728 161.898182 222.660858 162.103636 223.887858 162.309091 225.120736 162.514545 226.359501 162.720000 227.604161 162.925455 228.854725 163.130909 230.111201 163.336364 231.373597 163.541818 232.641922 163.747273 233.916185 163.952727 235.196393 164.158182 236.482556 164.363636 237.774681 164.569091 239.072777 164.774545 240.376853 164.980000 241.686916 165.185455 243.002976 165.390909 244.325041 165.596364 245.653101 165.801818 246.987073 166.007273 248.326858 166.212727 249.672353 166.418182 251.023460 166.623636 252.380076 166.829091 253.742102 167.034545 255.109436 167.240000 256.481979 167.445455 257.859629 167.650909 259.242285 167.856364 260.629848 168.061818 262.022217 168.267273 263.419290 168.472727 264.820968 168.678182 266.227149 168.883636 267.637733 169.089091 269.052620 169.294545 270.471708 169.500000 271.894897 169.705455 273.322086 169.910909 274.753176 170.116364 276.188064 170.321818 277.626651 170.527273 279.068835 170.732727 280.514517 170.938182 281.963595 171.143636 283.415969 171.349091 284.871539 171.554545 286.330203 171.760000 287.791861 171.965455 289.256412 172.170909 290.723756 172.376364 292.193792 172.581818 293.666419 172.787273 295.141537 172.992727 296.619045 173.198182 298.098843 173.403636 299.580829 173.609091 301.064904 173.814545 302.550966 174.020000 304.038915 174.225455 305.528650 174.430909 307.020071 174.636364 308.513077 174.841818 310.007567 175.047273 311.503441 175.252727 313.000598 175.458182 314.498937 175.663636 315.998358 175.869091 317.498760 176.074545 319.000042 176.280000 320.502105 176.485455 322.004846 176.690909 323.508166 176.896364 325.011964 177.101818 326.516139 177.307273 328.020591 177.512727 329.525219 177.718182 331.029922 177.923636 332.534599 178.129091 334.039151 178.334545 335.543476 178.540000 337.047474 178.745455 338.551044 178.950909 340.054085 179.156364 341.556498 179.361818 343.058180 179.567273 344.559032 179.772727 346.058953 179.978182 347.557842 180.183636 349.055598 180.389091 350.552122 180.594545 352.047312 180.800000 353.541068 181.005455 355.033288 181.210909 356.523873 181.416364 358.012722 181.621818 359.499734 181.827273 360.984808 182.032727 362.467845 182.238182 363.948742 182.443636 365.427400 182.649091 366.903718 182.854545 368.377595 183.060000 369.848930 183.265455 371.317624 183.470909 372.783575 183.676364 374.246682 183.881818 375.706846 184.087273 377.163965 184.292727 378.617939 184.498182 380.068667 184.703636 381.516048 184.909091 382.959982 185.114545 384.400369 185.320000 385.837107 185.525455 387.270095 185.730909 388.699234 185.936364 390.124423 186.141818 391.545561 186.347273 392.962547 186.552727 394.375280 186.758182 395.783661 186.963636 397.187588 187.169091 398.586961 187.374545 399.981679 187.580000 401.371641 187.785455 402.756747 187.990909 404.136897 188.196364 405.511989 188.401818 406.881922 188.607273 408.246598 188.812727 409.605913 189.018182 410.959769 189.223636 412.308064 189.429091 413.650698 189.634545 414.987569 189.840000 416.318579 190.045455 417.643624 190.250909 418.962606 190.456364 420.275424 190.661818 421.581976 190.867273 422.882163 191.072727 424.175883 191.278182 425.463036 191.483636 426.743521 191.689091 428.017238 191.894545 429.284085 192.100000 430.543963 192.305455 431.796771 192.510909 433.042408 192.716364 434.280773 192.921818 435.511766 193.127273 436.735286 193.332727 437.951233 193.538182 439.159505 193.743636 440.360003 193.949091 441.552625 194.154545 442.737271 194.360000 443.913841 194.565455 445.082233 194.770909 446.242346 194.976364 447.394082 195.181818 448.537338 195.387273 449.672014 195.592727 450.798009 195.798182 451.915223 196.003636 453.023555 196.209091 454.122905 196.414545 455.213172 196.620000 456.294255 196.825455 457.366053 197.030909 458.428466 197.236364 459.481394 197.441818 460.524735 197.647273 461.558389 197.852727 462.582255 198.058182 463.596233 198.263636 464.600223 198.469091 465.594122 198.674545 466.577831 198.880000 467.551250 199.085455 468.514277 199.290909 469.466812 199.496364 470.408754 199.701818 471.340002 199.907273 472.260457 200.112727 473.170016 200.318182 474.068581 200.523636 474.956049 200.729091 475.832321 200.934545 476.697295 201.140000 477.550871 201.345455 478.392949 201.550909 479.223428 201.756364 480.042207 201.961818 480.849185 202.167273 481.644262 202.372727 482.427337 202.578182 483.198310 202.783636 483.957079 202.989091 484.703545 203.194545 485.437607 203.400000 486.159164 203.605455 486.868114 203.810909 487.564359 204.016364 488.247797 204.221818 488.918327 204.427273 489.575849 204.632727 490.220262 204.838182 490.851465 205.043636 491.469358 205.249091 492.073841 205.454545 492.664812 205.660000 493.242171 205.865455 493.805817 206.070909 494.355650 206.276364 494.891569 206.481818 495.413473 206.687273 495.921262 206.892727 496.414835 207.098182 496.894092 207.303636 497.358931 207.509091 497.809252 207.714545 498.244955 207.920000 498.665938 208.125455 499.072102 208.330909 499.463346 208.536364 499.839568 208.741818 500.200669 208.947273 500.546547 209.152727 500.877102 209.358182 501.192234 209.563636 501.491841 209.769091 501.775823 209.974545 502.044080 210.180000 502.296510 210.385455 502.533014 210.590909 502.753490 210.796364 502.957838 211.001818 503.145958 211.207273 503.317747 211.412727 503.473107 211.618182 503.611936 211.823636 503.734134 212.029091 503.839599 212.234545 503.928232 212.440000 503.999932 212.645455 504.054597 212.850909 504.092129 213.056364 504.112425 213.261818 504.115385 213.467273 504.100908 213.672727 504.068895 213.878182 504.019243 214.083636 503.951853 214.289091 503.866624 214.494545 503.763456 214.700000 503.642247 214.905455 503.502897 215.110909 503.345305 215.316364 503.169371 215.521818 502.974995 215.727273 502.762074 215.932727 502.530509 216.138182 502.280200 216.343636 502.011045 216.549091 501.722944 216.754545 501.415796 216.960000 501.089538 217.165455 500.744258 217.370909 500.380081 217.576364 499.997132 217.781818 499.595537 217.987273 499.175419 218.192727 498.736906 218.398182 498.280121 218.603636 497.805191 218.809091 497.312239 219.014545 496.801392 219.220000 496.272775 219.425455 495.726512 219.630909 495.162729 219.836364 494.581551 220.041818 493.983104 220.247273 493.367512 220.452727 492.734901 220.658182 492.085395 220.863636 491.419121 221.069091 490.736203 221.274545 490.036766 221.480000 489.320936 221.685455 488.588837 221.890909 487.840596 222.096364 487.076336 222.301818 486.296184 222.507273 485.500264 222.712727 484.688702 222.918182 483.861623 223.123636 483.019152 223.329091 482.161414 223.534545 481.288534 223.740000 480.400638 223.945455 479.497851 224.150909 478.580298 224.356364 477.648103 224.561818 476.701393 224.767273 475.740293 224.972727 474.764927 225.178182 473.775421 225.383636 472.771900 225.589091 471.754489 225.794545 470.723314 226.000000 469.678499 226.205455 468.620170 226.410909 467.548452 226.616364 466.463470 226.821818 465.365349 227.027273 464.254214 227.232727 463.130192 227.438182 461.993406 227.643636 460.843982 227.849091 459.682045 228.054545 458.507721 228.260000 457.321134 228.465455 456.122410 228.670909 454.911674 228.876364 453.689051 229.081818 452.454667 229.287273 451.208646 229.492727 449.951113 229.698182 448.682194 229.903636 447.402015 230.109091 446.110699 230.314545 444.808373 230.520000 443.495162 230.725455 442.171190 230.930909 440.836583 231.136364 439.491466 231.341818 438.135964 231.547273 436.770203 231.752727 435.394308 231.958182 434.008403 232.163636 432.612615 232.369091 431.207068 232.574545 429.791887 232.780000 428.367197 232.985455 426.933124 233.190909 425.489794 233.396364 424.037330 233.601818 422.575858 233.807273 421.105504 234.012727 419.626393 234.218182 418.138650 234.423636 416.642399 234.629091 415.137767 234.834545 413.624878 235.040000 412.103858 235.245455 410.574831 235.450909 409.037923 235.656364 407.493260 235.861818 405.940965 236.067273 404.381166 236.272727 402.813985 236.478182 401.239550 236.683636 399.657985 236.889091 398.069414 237.094545 396.473964 237.300000 394.871760 237.505455 393.262927 237.710909 391.647589 237.916364 390.025872 238.121818 388.397902 238.327273 386.763803 238.532727 385.123701 238.738182 383.477721 238.943636 381.825988 239.149091 380.168626 239.354545 378.505763 239.560000 376.837521 239.765455 375.164028 239.970909 373.485407 240.176364 371.801785 240.381818 370.113285 240.587273 368.420035 240.792727 366.722158 240.998182 365.019779 241.203636 363.313025 241.409091 361.602020 241.614545 359.886889 241.820000 358.167758 242.025455 356.444751 242.230909 354.717995 242.436364 352.987613 242.641818 351.253732 242.847273 349.516476 243.052727 347.775971 243.258182 346.032342 243.463636 344.285714 243.669091 342.536211 243.874545 340.783961 244.080000 339.029086 244.285455 337.271714 244.490909 335.511968 244.696364 333.749975 244.901818 331.985859 245.107273 330.219745 245.312727 328.451759 245.518182 326.682025 245.723636 324.910670 245.929091 323.137818 246.134545 321.363594 246.340000 319.588124 246.545455 317.811533 246.750909 316.033945 246.956364 314.255486 247.161818 312.476282 247.367273 310.696457 247.572727 308.916137 247.778182 307.135447 247.983636 305.354511 248.189091 303.573456 248.394545 301.792406 248.600000 300.011487 248.805455 298.230824 249.010909 296.450541 249.216364 294.670764 249.421818 292.891619 249.627273 291.113230 249.832727 289.335723 250.038182 287.559223 250.243636 285.783854 250.449091 284.009743 250.654545 282.237014 250.860000 280.465793 251.065455 278.696204 251.270909 276.928373 251.476364 275.162426 251.681818 273.398486 251.887273 271.636680 252.092727 269.877133 252.298182 268.119970 252.503636 266.365315 252.709091 264.613295 252.914545 262.864034 253.120000 261.117657 253.325455 259.374291 253.530909 257.634059 253.736364 255.897087 253.941818 254.163501 254.147273 252.433425 254.352727 250.706984 254.558182 248.984305 254.763636 247.265511 254.969091 245.550729 255.174545 243.840083 255.380000 242.133698 255.585455 240.431700 255.790909 238.734214 255.996364 237.041365 256.201818 235.353279 256.407273 233.670080 256.612727 231.991893 256.818182 230.318844 257.023636 228.651059 257.229091 226.988661 257.434545 225.331777 257.640000 223.680531 257.845455 222.035049 258.050909 220.395456 258.256364 218.761877 258.461818 217.134437 258.667273 215.513262 258.872727 213.898477 259.078182 212.290206 259.283636 210.688575 259.489091 209.093709 259.694545 207.505734 259.900000 205.924774 260.105455 204.350955 260.310909 202.784402 260.516364 201.225239 260.721818 199.673593 260.927273 198.129589 261.132727 196.593351 261.338182 195.065005 261.543636 193.544676 261.749091 192.032489 261.954545 190.528570 262.160000 189.033043 262.365455 187.546033 262.570909 186.067667 262.776364 184.598069 262.981818 183.137363 263.187273 181.685677 263.392727 180.243134 263.598182 178.809860 263.803636 177.385979 264.009091 175.971618 264.214545 174.566901 264.420000 173.171954 264.625455 171.786902 264.830909 170.411869 265.036364 169.046982 265.241818 167.692364 265.447273 166.348142 265.652727 165.014441 265.858182 163.691386 266.063636 162.379101 266.269091 161.077713 266.474545 159.787346 266.680000 158.508126 266.885455 157.240177 267.090909 155.983625 267.296364 154.738595 267.501818 153.505213 267.707273 152.283603 267.912727 151.073890 268.118182 149.876200 268.323636 148.690628 268.529091 147.517148 268.734545 146.355702 268.940000 145.206234 269.145455 144.068687 269.350909 142.943005 269.556364 141.829131 269.761818 140.727008 269.967273 139.636580 270.172727 138.557790 270.378182 137.490582 270.583636 136.434898 270.789091 135.390682 270.994545 134.357878 271.200000 133.336428 271.405455 132.326276 271.610909 131.327366 271.816364 130.339641 272.021818 129.363043 272.227273 128.397517 272.432727 127.443006 272.638182 126.499453 272.843636 125.566802 273.049091 124.644995 273.254545 123.733976 273.460000 122.833689 273.665455 121.944076 273.870909 121.065082 274.076364 120.196649 274.281818 119.338721 274.487273 118.491242 274.692727 117.654153 274.898182 116.827400 275.103636 116.010925 275.309091 115.204671 275.514545 114.408582 275.720000 113.622601 275.925455 112.846672 276.130909 112.080738 276.336364 111.324742 276.541818 110.578628 276.747273 109.842338 276.952727 109.115817 277.158182 108.399007 277.363636 107.691852 277.569091 106.994295 277.774545 106.306281 277.980000 105.627750 278.185455 104.958649 278.390909 104.298919 278.596364 103.648503 278.801818 103.007346 279.007273 102.375391 279.212727 101.752581 279.418182 101.138859 279.623636 100.534169 279.829091 99.938453 280.034545 99.351656 280.240000 98.773721 280.445455 98.204591 280.650909 97.644209 280.856364 97.092519 281.061818 96.549463 281.267273 96.014986 281.472727 95.489031 281.678182 94.971541 281.883636 94.462460 282.089091 93.961730 282.294545 93.469295 282.500000 92.985098 282.705455 92.509083 282.910909 92.041194 283.116364 91.581373 283.321818 91.129563 283.527273 90.685709 283.732727 90.249753 283.938182 89.821639 284.143636 89.401310 284.349091 88.988709 284.554545 88.583780 284.760000 88.186467 284.965455 87.796712 285.170909 87.414458 285.376364 87.039650 285.581818 86.672231 285.787273 86.312143 285.992727 85.959330 286.198182 85.613736 286.403636 85.275304 286.609091 84.943977 286.814545 84.619698 287.020000 84.302412 287.225455 83.992061 287.430909 83.688588 287.636364 83.391937 287.841818 83.102051 288.047273 82.818874 288.252727 82.542349 288.458182 82.272419 288.663636 82.009028 288.869091 81.752118 289.074545 81.501634 289.280000 81.257518 289.485455 81.019715 289.690909 80.788167 289.896364 80.562817 290.101818 80.343609 290.307273 80.130487 290.512727 79.923393 290.718182 79.722272 290.923636 79.527065 291.129091 79.337718 291.334545 79.154172 291.540000 78.976372 291.745455 78.804260 291.950909 78.637780 292.156364 78.476876 292.361818 78.321490 292.567273 78.171567 292.772727 78.027049 292.978182 77.887879 293.183636 77.754002 293.389091 77.625360 293.594545 77.501897 293.800000 77.383556 294.005455 77.270280 294.210909 77.162014 294.416364 77.058699 294.621818 76.960279 294.827273 76.866699 295.032727 76.777900 295.238182 76.693827 295.443636 76.614423 295.649091 76.539631 295.854545 76.469395 296.060000 76.403657 296.265455 76.342361 296.470909 76.285451 296.676364 76.232870 296.881818 76.184561 297.087273 76.140468 297.292727 76.100533 297.498182 76.064700 297.703636 76.032913 297.909091 76.005115 298.114545 75.981250 298.320000 75.961259 298.525455 75.945088 298.730909 75.932679 298.936364 75.923975 299.141818 75.918921 299.347273 75.917458 299.552727 75.919531 299.758182 75.925083 299.963636 75.934058 300.169091 75.946398 300.374545 75.962047 300.580000 75.980948 300.785455 76.003045 300.990909 76.028281 301.196364 76.056599 301.401818 76.087943 301.607273 76.122256 301.812727 76.159481 302.018182 76.199562 302.223636 76.242441 302.429091 76.288063 302.634545 76.336371 302.840000 76.387308 303.045455 76.440817 303.250909 76.496842 303.456364 76.555326 303.661818 76.616213 303.867273 76.679445 304.072727 76.744966 304.278182 76.812720 304.483636 76.882649 304.689091 76.954697 304.894545 77.028808 305.100000 77.104925 305.305455 77.182990 305.510909 77.262949 305.716364 77.344742 305.921818 77.428315 306.127273 77.513611 306.332727 77.600572 306.538182 77.689143 306.743636 77.779266 306.949091 77.870884 307.154545 77.963942 307.360000 78.058383 307.565455 78.154149 307.770909 78.251184 307.976364 78.349432 308.181818 78.448836 308.387273 78.549339 308.592727 78.650884 308.798182 78.753416 309.003636 78.856876 309.209091 78.961209 309.414545 79.066359 309.620000 79.172267 309.825455 79.278878 310.030909 79.386134 310.236364 79.493980 310.441818 79.602359 310.647273 79.711214 310.852727 79.820487 311.058182 79.930124 311.263636 80.040066 311.469091 80.150258 311.674545 80.260642 311.880000 80.371162 312.085455 80.481762 312.290909 80.592384 312.496364 80.702972 312.701818 80.813470 312.907273 80.923820 313.112727 81.033966 313.318182 81.143852 313.523636 81.253420 313.729091 81.362614 313.934545 81.471378 314.140000 81.579654 314.345455 81.687387 314.550909 81.794518 314.756364 81.900993 314.961818 82.006753 315.167273 82.111743 315.372727 82.215906 315.578182 82.319185 315.783636 82.421523 315.989091 82.522864 316.194545 82.623151 316.400000 82.722327 316.605455 82.820337 316.810909 82.917122 317.016364 83.012627 317.221818 83.106794 317.427273 83.199568 317.632727 83.290891 317.838182 83.380708 318.043636 83.468960 318.249091 83.555591 318.454545 83.640546 318.660000 83.723767 318.865455 83.805197 319.070909 83.884780 319.276364 83.962459 319.481818 84.038178 319.687273 84.111891 319.892727 84.183598 320.098182 84.253309 320.303636 84.321036 320.509091 84.386788 320.714545 84.450578 320.920000 84.512416 321.125455 84.572312 321.330909 84.630278 321.536364 84.686324 321.741818 84.740462 321.947273 84.792701 322.152727 84.843053 322.358182 84.891529 322.563636 84.938140 322.769091 84.982896 322.974545 85.025808 323.180000 85.066887 323.385455 85.106144 323.590909 85.143590 323.796364 85.179235 324.001818 85.213090 324.207273 85.245167 324.412727 85.275475 324.618182 85.304027 324.823636 85.330832 325.029091 85.355902 325.234545 85.379247 325.440000 85.400878 325.645455 85.420806 325.850909 85.439042 326.056364 85.455597 326.261818 85.470481 326.467273 85.483706 326.672727 85.495281 326.878182 85.505219 327.083636 85.513530 327.289091 85.520224 327.494545 85.525312 327.700000 85.528806 327.905455 85.530716 328.110909 85.531054 328.316364 85.529828 328.521818 85.527052 328.727273 85.522735 328.932727 85.516888 329.138182 85.509523 329.343636 85.500649 329.549091 85.490279 329.754545 85.478422 329.960000 85.465089 330.165455 85.450292 330.370909 85.434041 330.576364 85.416347 330.781818 85.397220 330.987273 85.376672 331.192727 85.354714 331.398182 85.331356 331.603636 85.306609 331.809091 85.280484 332.014545 85.252992 332.220000 85.224144 332.425455 85.193950 332.630909 85.162421 332.836364 85.129569 333.041818 85.095403 333.247273 85.059935 333.452727 85.023176 333.658182 84.985136 333.863636 84.945827 334.069091 84.905258 334.274545 84.863442 334.480000 84.820388 334.685455 84.776108 334.890909 84.730613 335.096364 84.683912 335.301818 84.636018 335.507273 84.586941 335.712727 84.536691 335.918182 84.485280 336.123636 84.432719 336.329091 84.379018 336.534545 84.324188 336.740000 84.268239 336.945455 84.211184 337.150909 84.153032 337.356364 84.093795 337.561818 84.033483 337.767273 83.972107 337.972727 83.909677 338.178182 83.846206 338.383636 83.781703 338.589091 83.716180 338.794545 83.649647 339.000000 83.582115 339.205455 83.513595 339.410909 83.444097 339.616364 83.373634 339.821818 83.302214 340.027273 83.229850 340.232727 83.156552 340.438182 83.082331 340.643636 83.007197 340.849091 82.931163 341.054545 82.854237 341.260000 82.776432 341.465455 82.697758 341.670909 82.618226 341.876364 82.537846 342.081818 82.456630 342.287273 82.374589 342.492727 82.291732 342.698182 82.208072 342.903636 82.123619 343.109091 82.038383 343.314545 81.952376 343.520000 81.865608 343.725455 81.778091 343.930909 81.689834 344.136364 81.600850 344.341818 81.511148 344.547273 81.420740 344.752727 81.329636 344.958182 81.237847 345.163636 81.145384 345.369091 81.052259 345.574545 80.958480 345.780000 80.864061 345.985455 80.769011 346.190909 80.673341 346.396364 80.577062 346.601818 80.480185 346.807273 80.382720 347.012727 80.284680 347.218182 80.186073 347.423636 80.086912 347.629091 79.987207 347.834545 79.886968 348.040000 79.786208 348.245455 79.684935 348.450909 79.583163 348.656364 79.480900 348.861818 79.378158 349.067273 79.274949 349.272727 79.171282 349.478182 79.067168 349.683636 78.962619 349.889091 78.857645 350.094545 78.752257 350.300000 78.646466 350.505455 78.540282 350.710909 78.433717 350.916364 78.326782 351.121818 78.219486 351.327273 78.111842 351.532727 78.003859 351.738182 77.895549 351.943636 77.786923 352.149091 77.677991 352.354545 77.568764 352.560000 77.459253 352.765455 77.349468 352.970909 77.239422 353.176364 77.129124 353.381818 77.018585 353.587273 76.907817 353.792727 76.796829 353.998182 76.685634 354.203636 76.574241 354.409091 76.462661 354.614545 76.350906 354.820000 76.238986 355.025455 76.126912 355.230909 76.014694 355.436364 75.902345 355.641818 75.789873 355.847273 75.677292 356.052727 75.564610 356.258182 75.451839 356.463636 75.338990 356.669091 75.226074 356.874545 75.113101 357.080000 75.000082 357.285455 74.887029 357.490909 74.773952 357.696364 74.660861 357.901818 74.547768 358.107273 74.434683 358.312727 74.321618 358.518182 74.208583 358.723636 74.095589 358.929091 73.982646 359.134545 73.869766 359.340000 73.756960 359.545455 73.644238 359.750909 73.531611 359.956364 73.419090 360.161818 73.306686 360.367273 73.194409 360.572727 73.082271 360.778182 72.970282 360.983636 72.858454 361.189091 72.746796 361.394545 72.635320 361.600000 72.524036 361.805455 72.412956 362.010909 72.302091 362.216364 72.191450 362.421818 72.081045 362.627273 71.970887 362.832727 71.860987 363.038182 71.751355 363.243636 71.642003 363.449091 71.532940 363.654545 71.424178 363.860000 71.315729 364.065455 71.207601 364.270909 71.099807 364.476364 70.992358 364.681818 70.885263 364.887273 70.778535 365.092727 70.672183 365.298182 70.566219 365.503636 70.460653 365.709091 70.355496 365.914545 70.250760 366.120000 70.146454 366.325455 70.042590 366.530909 69.939179 366.736364 69.836231 366.941818 69.733757 367.147273 69.631769 367.352727 69.530276 367.558182 69.429290 367.763636 69.328822 367.969091 69.228882 368.174545 69.129481 368.380000 69.030630 368.585455 68.932340 368.790909 68.834622 368.996364 68.737487 369.201818 68.640945 369.407273 68.545007 369.612727 68.449684 369.818182 68.354987 370.023636 68.260926 370.229091 68.167514 370.434545 68.074759 370.640000 67.982674 370.845455 67.891269 371.050909 67.800553 371.256364 67.710529 371.461818 67.621197 371.667273 67.532558 371.872727 67.444613 372.078182 67.357363 372.283636 67.270807 372.489091 67.184948 372.694545 67.099786 372.900000 67.015320 373.105455 66.931553 373.310909 66.848485 373.516364 66.766117 373.721818 66.684449 373.927273 66.603482 374.132727 66.523217 374.338182 66.443654 374.543636 66.364795 374.749091 66.286639 374.954545 66.209189 375.160000 66.132444 375.365455 66.056405 375.570909 65.981073 375.776364 65.906448 375.981818 65.832532 376.187273 65.759325 376.392727 65.686828 376.598182 65.615042 376.803636 65.543967 377.009091 65.473603 377.214545 65.403953 377.420000 65.335016 377.625455 65.266793 377.830909 65.199286 378.036364 65.132494 378.241818 65.066418 378.447273 65.001059 378.652727 64.936419 378.858182 64.872497 379.063636 64.809294 379.269091 64.746811 379.474545 64.685049 379.680000 64.624009 379.885455 64.563691 380.090909 64.504096 380.296364 64.445224 380.501818 64.387077 380.707273 64.329655 380.912727 64.272959 381.118182 64.216990 381.323636 64.161748 381.529091 64.107234 381.734545 64.053448 381.940000 64.000393 382.145455 63.948067 382.350909 63.896473 382.556364 63.845610 382.761818 63.795480 382.967273 63.746083 383.172727 63.697420 383.378182 63.649491 383.583636 63.602298 383.789091 63.555841 383.994545 63.510121 384.200000 63.465138 384.405455 63.420894 384.610909 63.377389 384.816364 63.334623 385.021818 63.292598 385.227273 63.251314 385.432727 63.210772 385.638182 63.170973 385.843636 63.131917 386.049091 63.093605 386.254545 63.056038 386.460000 63.019217 386.665455 62.983141 386.870909 62.947813 387.076364 62.913233 387.281818 62.879401 387.487273 62.846319 387.692727 62.813986 387.898182 62.782404 388.103636 62.751574 388.309091 62.721495 388.514545 62.692170 388.720000 62.663598 388.925455 62.635780 389.130909 62.608718 389.336364 62.582411 389.541818 62.556861 389.747273 62.532068 389.952727 62.508033 390.158182 62.484757 390.363636 62.462240 390.569091 62.440483 390.774545 62.419488 390.980000 62.399253 391.185455 62.379782 391.390909 62.361073 391.596364 62.343128 391.801818 62.325948 392.007273 62.309533 392.212727 62.293884 392.418182 62.279001 392.623636 62.264886 392.829091 62.251540 393.034545 62.238962 393.240000 62.227154 393.445455 62.216116 393.650909 62.205849 393.856364 62.196354 394.061818 62.187632 394.267273 62.179683 394.472727 62.172508 394.678182 62.166108 394.883636 62.160483 395.089091 62.155635 395.294545 62.151563 395.500000 62.148269 395.705455 62.145754 395.910909 62.144018 396.116364 62.143061 396.321818 62.142885 396.527273 62.143490 396.732727 62.144878 396.938182 62.147048 397.143636 62.150002 397.349091 62.153740 397.554545 62.158263 397.760000 62.163571 397.965455 62.169666 398.170909 62.176549 398.376364 62.184219 398.581818 62.192677 398.787273 62.201925 398.992727 62.211963 399.198182 62.222792 399.403636 62.234413 399.609091 62.246825 399.814545 62.260031 400.020000 62.274030 400.225455 62.288824 400.430909 62.304413 400.636364 62.320798 400.841818 62.337980 401.047273 62.355959 401.252727 62.374736 401.458182 62.394311 401.663636 62.414687 401.869091 62.435862 402.074545 62.457839 402.280000 62.480617 402.485455 62.504198 402.690909 62.528582 402.896364 62.553770 403.101818 62.579763 403.307273 62.606561 403.512727 62.634165 403.718182 62.662576 403.923636 62.691794 404.129091 62.721821 404.334545 62.752657 404.540000 62.784303 404.745455 62.816759 404.950909 62.850026 405.156364 62.884105 405.361818 62.918997 405.567273 62.954703 405.772727 62.991222 405.978182 63.028557 406.183636 63.066707 406.389091 63.105673 406.594545 63.145456 406.800000 63.186057 407.005455 63.227477 407.210909 63.269716 407.416364 63.312775 407.621818 63.356654 407.827273 63.401355 408.032727 63.446879 408.238182 63.493225 408.443636 63.540394 408.649091 63.588388 408.854545 63.637207 409.060000 63.686852 409.265455 63.737324 409.470909 63.788622 409.676364 63.840749 409.881818 63.893704 410.087273 63.947489 410.292727 64.002104 410.498182 64.057550 410.703636 64.113828 410.909091 64.170938 411.114545 64.228881 411.320000 64.287658 411.525455 64.347269 411.730909 64.407716 411.936364 64.468999 412.141818 64.531118 412.347273 64.594075 412.552727 64.657871 412.758182 64.722505 412.963636 64.787978 413.169091 64.854293 413.374545 64.921448 413.580000 64.989445 413.785455 65.058285 413.990909 65.127968 414.196364 65.198495 414.401818 65.269867 414.607273 65.342084 414.812727 65.415148 415.018182 65.489058 415.223636 65.563817 415.429091 65.639423 415.634545 65.715879 415.840000 65.793185 416.045455 65.871341 416.250909 65.950348 416.456364 66.030208 416.661818 66.110921 416.867273 66.192487 417.072727 66.274907 417.278182 66.358182 417.483636 66.442313 417.689091 66.527300 417.894545 66.613145 418.100000 66.699847 418.305455 66.787408 418.510909 66.875829 418.716364 66.965109 418.921818 67.055250 419.127273 67.146253 419.332727 67.238118 419.538182 67.330847 419.743636 67.424438 419.949091 67.518895 420.154545 67.614216 420.360000 67.710404 420.565455 67.807458 420.770909 67.905379 420.976364 68.004169 421.181818 68.103827 421.387273 68.204355 421.592727 68.305753 421.798182 68.408023 422.003636 68.511164 422.209091 68.615177 422.414545 68.720062 422.620000 68.825807 422.825455 68.932400 423.030909 69.039828 423.236364 69.148078 423.441818 69.257138 423.647273 69.366995 423.852727 69.477637 424.058182 69.589050 424.263636 69.701222 424.469091 69.814140 424.674545 69.927792 424.880000 70.042165 425.085455 70.157246 425.290909 70.273022 425.496364 70.389481 425.701818 70.506610 425.907273 70.624397 426.112727 70.742828 426.318182 70.861891 426.523636 70.981573 426.729091 71.101862 426.934545 71.222745 427.140000 71.344209 427.345455 71.466242 427.550909 71.588830 427.756364 71.711961 427.961818 71.835623 428.167273 71.959803 428.372727 72.084487 428.578182 72.209664 428.783636 72.335320 428.989091 72.461444 429.194545 72.588021 429.400000 72.715040 429.605455 72.842488 429.810909 72.970352 430.016364 73.098620 430.221818 73.227278 430.427273 73.356314 430.632727 73.485715 430.838182 73.615469 431.043636 73.745563 431.249091 73.875985 431.454545 74.006721 431.660000 74.137758 431.865455 74.269085 432.070909 74.400688 432.276364 74.532555 432.481818 74.664674 432.687273 74.797030 432.892727 74.929612 433.098182 75.062407 433.303636 75.195403 433.509091 75.328586 433.714545 75.461943 433.920000 75.595463 434.125455 75.729133 434.330909 75.862939 434.536364 75.996869 434.741818 76.130911 434.947273 76.265052 435.152727 76.399278 435.358182 76.533578 435.563636 76.667938 435.769091 76.802346 435.974545 76.936790 436.180000 77.071256 436.385455 77.205732 436.590909 77.340205 436.796364 77.474662 437.001818 77.609091 437.207273 77.743479 437.412727 77.877813 437.618182 78.012082 437.823636 78.146270 438.029091 78.280368 438.234545 78.414360 438.440000 78.548236 438.645455 78.681982 438.850909 78.815585 439.056364 78.949033 439.261818 79.082313 439.467273 79.215412 439.672727 79.348318 439.878182 79.481018 440.083636 79.613500 440.289091 79.745750 440.494545 79.877755 440.700000 80.009504 440.905455 80.140983 441.110909 80.272181 441.316364 80.403083 441.521818 80.533678 441.727273 80.663952 441.932727 80.793893 442.138182 80.923489 442.343636 81.052726 442.549091 81.181592 442.754545 81.310074 442.960000 81.438160 443.165455 81.565837 443.370909 81.693092 443.576364 81.819912 443.781818 81.946285 443.987273 82.072198 444.192727 82.197638 444.398182 82.322593 444.603636 82.447050 444.809091 82.570996 445.014545 82.694418 445.220000 82.817305 445.425455 82.939642 445.630909 83.061419 445.836364 83.182620 446.041818 83.303235 446.247273 83.423250 446.452727 83.542653 446.658182 83.661431 446.863636 83.779571 447.069091 83.897061 447.274545 84.013887 447.480000 84.130038 447.685455 84.245500 447.890909 84.360261 448.096364 84.474308 448.301818 84.587629 448.507273 84.700210 448.712727 84.812039 448.918182 84.923103 449.123636 85.033390 449.329091 85.142887 449.534545 85.251581 449.740000 85.359460 449.945455 85.466511 450.150909 85.572720 450.356364 85.678076 450.561818 85.782566 450.767273 85.886177 450.972727 85.988896 451.178182 86.090710 451.383636 86.191608 451.589091 86.291576 451.794545 86.390601 452.000000 86.488671 452.205455 86.585774 452.410909 86.681895 452.616364 86.777024 452.821818 86.871147 453.027273 86.964251 453.232727 87.056323 453.438182 87.147352 453.643636 87.237324 453.849091 87.326226 454.054545 87.414046 454.260000 87.500772 454.465455 87.586390 454.670909 87.670888 454.876364 87.754252 455.081818 87.836472 455.287273 87.917532 455.492727 87.997422 455.698182 88.076128 455.903636 88.153638 456.109091 88.229939 456.314545 88.305018 456.520000 88.378862 456.725455 88.451459 456.930909 88.522796 457.136364 88.592861 457.341818 88.661641 457.547273 88.729122 457.752727 88.795293 457.958182 88.860140 458.163636 88.923651 458.369091 88.985814 458.574545 89.046615 458.780000 89.106042 458.985455 89.164082 459.190909 89.220723 459.396364 89.275951 459.601818 89.329754 459.807273 89.382120 460.012727 89.433035 460.218182 89.482487 460.423636 89.530464 460.629091 89.576952 460.834545 89.621939 461.040000 89.665412 461.245455 89.707359 461.450909 89.747766 461.656364 89.786622 461.861818 89.823912 462.067273 89.859626 462.272727 89.893750 462.478182 89.926270 462.683636 89.957176 462.889091 89.986453 463.094545 90.014090 463.300000 90.040073 463.505455 90.064389 463.710909 90.087027 463.916364 90.107974 464.121818 90.127216 464.327273 90.144741 464.532727 90.160536 464.738182 90.174589 464.943636 90.186887 465.149091 90.197417 465.354545 90.206167 465.560000 90.213124 465.765455 90.218274 465.970909 90.221607 466.176364 90.223107 466.381818 90.222764 466.587273 90.220565 466.792727 90.216496 466.998182 90.210544 467.203636 90.202699 467.409091 90.192945 467.614545 90.181272 467.820000 90.167666 468.025455 90.152114 468.230909 90.134604 468.436364 90.115123 468.641818 90.093658 468.847273 90.070197 469.052727 90.044728 469.258182 90.017236 469.463636 89.987710 469.669091 89.956137 469.874545 89.922504 470.080000 89.886799 470.285455 89.849008 470.490909 89.809119 470.696364 89.767120 470.901818 89.722998 471.107273 89.676740 471.312727 89.628333 471.518182 89.577764 471.723636 89.525022 471.929091 89.470093 472.134545 89.412964 472.340000 89.353623 472.545455 89.292057 472.750909 89.228254 472.956364 89.162200 473.161818 89.093884 473.367273 89.023292 473.572727 88.950411 473.778182 88.875234 473.983636 88.797770 474.189091 88.718033 474.394545 88.636038 474.600000 88.551799 474.805455 88.465329 475.010909 88.376644 475.216364 88.285756 475.421818 88.192682 475.627273 88.097433 475.832727 88.000026 476.038182 87.900473 476.243636 87.798790 476.449091 87.694990 476.654545 87.589087 476.860000 87.481097 477.065455 87.371032 477.270909 87.258907 477.476364 87.144736 477.681818 87.028534 477.887273 86.910315 478.092727 86.790092 478.298182 86.667880 478.503636 86.543693 478.709091 86.417546 478.914545 86.289452 479.120000 86.159426 479.325455 86.027482 479.530909 85.893634 479.736364 85.757897 479.941818 85.620283 480.147273 85.480808 480.352727 85.339487 480.558182 85.196332 480.763636 85.051358 480.969091 84.904580 481.174545 84.756011 481.380000 84.605666 481.585455 84.453559 481.790909 84.299704 481.996364 84.144115 482.201818 83.986806 482.407273 83.827793 482.612727 83.667088 482.818182 83.504706 483.023636 83.340661 483.229091 83.174968 483.434545 83.007640 483.640000 82.838692 483.845455 82.668138 484.050909 82.495992 484.256364 82.322269 484.461818 82.146981 484.667273 81.970145 484.872727 81.791773 485.078182 81.611880 485.283636 81.430481 485.489091 81.247589 485.694545 81.063218 485.900000 80.877384 486.105455 80.690099 486.310909 80.501378 486.516364 80.311236 486.721818 80.119686 486.927273 79.926742 487.132727 79.732420 487.338182 79.536733 487.543636 79.339695 487.749091 79.141320 487.954545 78.941623 488.160000 78.740617 488.365455 78.538318 488.570909 78.334739 488.776364 78.129894 488.981818 77.923797 489.187273 77.716463 489.392727 77.507906 489.598182 77.298141 489.803636 77.087180 490.009091 76.875039 490.214545 76.661731 490.420000 76.447271 490.625455 76.231673 490.830909 76.014952 491.036364 75.797120 491.241818 75.578193 491.447273 75.358185 491.652727 75.137110 491.858182 74.914981 492.063636 74.691814 492.269091 74.467623 492.474545 74.242421 492.680000 74.016223 492.885455 73.789042 493.090909 73.560894 493.296364 73.331793 493.501818 73.101752 493.707273 72.870785 493.912727 72.638908 494.118182 72.406133 494.323636 72.172476 494.529091 71.937950 494.734545 71.702570 494.940000 71.466350 495.145455 71.229303 495.350909 70.991445 495.556364 70.752789 495.761818 70.513350 495.967273 70.273141 496.172727 70.032178 496.378182 69.790473 496.583636 69.548042 496.789091 69.304898 496.994545 69.061056 497.200000 68.816529 497.405455 68.571333 497.610909 68.325481 497.816364 68.078987 498.021818 67.831866 498.227273 67.584131 498.432727 67.335798 498.638182 67.086879 498.843636 66.837390 499.049091 66.587344 499.254545 66.336756 499.460000 66.085640 499.665455 65.834010 499.870909 65.581880 500.076364 65.329264 500.281818 65.076177 500.487273 64.822633 500.692727 64.568645 500.898182 64.314229 501.103636 64.059398 501.309091 63.804167 501.514545 63.548549 501.720000 63.292559 501.925455 63.036211 502.130909 62.779519 502.336364 62.522498 502.541818 62.265161 502.747273 62.007523 502.952727 61.749598 503.158182 61.491400 503.363636 61.232943 503.569091 60.974242 503.774545 60.715311 503.980000 60.456163 504.185455 60.196814 504.390909 59.937277 504.596364 59.677566 504.801818 59.417695 505.007273 59.157680 505.212727 58.897533 505.418182 58.637270 505.623636 58.376904 505.829091 58.116449 506.034545 57.855921 506.240000 57.595332 506.445455 57.334697 506.650909 57.074030 506.856364 56.813346 507.061818 56.552658 507.267273 56.291981 507.472727 56.031329 507.678182 55.770717 507.883636 55.510157 508.089091 55.249665 508.294545 54.989255 508.500000 54.728941 508.705455 54.468737 508.910909 54.208657 509.116364 53.948715 509.321818 53.688926 509.527273 53.429304 509.732727 53.169863 509.938182 52.910617 510.143636 52.651581 510.349091 52.392768 510.554545 52.134192 510.760000 51.875869 510.965455 51.617812 511.170909 51.360035 511.376364 51.102552 511.581818 50.845378 511.787273 50.588527 511.992727 50.332013 512.198182 50.075850 512.403636 49.820052 512.609091 49.564634 512.814545 49.309610 513.020000 49.054994 513.225455 48.800799 513.430909 48.547041 513.636364 48.293734 513.841818 48.040891 514.047273 47.788527 514.252727 47.536656 514.458182 47.285292 514.663636 47.034449 514.869091 46.784143 515.074545 46.534385 515.280000 46.285192 515.485455 46.036577 515.690909 45.788554 515.896364 45.541138 516.101818 45.294342 516.307273 45.048181 516.512727 44.802670 516.718182 44.557821 516.923636 44.313650 517.129091 44.070170 517.334545 43.827396 517.540000 43.585343 517.745455 43.344023 517.950909 43.103451 518.156364 42.863642 518.361818 42.624610 518.567273 42.386369 518.772727 42.148932 518.978182 41.912315 519.183636 41.676531 519.389091 41.441595 519.594545 41.207521 519.800000 40.974322 520.005455 40.742014 520.210909 40.510610 520.416364 40.280124 520.621818 40.050572 520.827273 39.821966 521.032727 39.594321 521.238182 39.367651 521.443636 39.141971 521.649091 38.917294 521.854545 38.693636 522.060000 38.471009 522.265455 38.249428 522.470909 38.028908 522.676364 37.809462 522.881818 37.591105 523.087273 37.373851 523.292727 37.157713 523.498182 36.942707 523.703636 36.728847 523.909091 36.516146 524.114545 36.304619 524.320000 36.094280 524.525455 35.885143 524.730909 35.677223 524.936364 35.470532 525.141818 35.265084 525.347273 35.060875 525.552727 34.857901 525.758182 34.656157 525.963636 34.455638 526.169091 34.256338 526.374545 34.058253 526.580000 33.861378 526.785455 33.665708 526.990909 33.471238 527.196364 33.277963 527.401818 33.085878 527.607273 32.894978 527.812727 32.705257 528.018182 32.516712 528.223636 32.329337 528.429091 32.143127 528.634545 31.958076 528.840000 31.774182 529.045455 31.591437 529.250909 31.409837 529.456364 31.229377 529.661818 31.050053 529.867273 30.871859 530.072727 30.694790 530.278182 30.518841 530.483636 30.344008 530.689091 30.170284 530.894545 29.997667 531.100000 29.826149 531.305455 29.655727 531.510909 29.486395 531.716364 29.318149 531.921818 29.150983 532.127273 28.984892 532.332727 28.819872 532.538182 28.655917 532.743636 28.493023 532.949091 28.331184 533.154545 28.170396 533.360000 28.010654 533.565455 27.851952 533.770909 27.694286 533.976364 27.537650 534.181818 27.382040 534.387273 27.227450 534.592727 27.073877 534.798182 26.921314 535.003636 26.769756 535.209091 26.619200 535.414545 26.469639 535.620000 26.321069 535.825455 26.173485 536.030909 26.026882 536.236364 25.881254 536.441818 25.736598 536.647273 25.592907 536.852727 25.450177 537.058182 25.308404 537.263636 25.167581 537.469091 25.027704 537.674545 24.888768 537.880000 24.750768 538.085455 24.613700 538.290909 24.477557 538.496364 24.342335 538.701818 24.208030 538.907273 24.074635 539.112727 23.942147 539.318182 23.810560 539.523636 23.679869 539.729091 23.550070 539.934545 23.421156 540.140000 23.293124 540.345455 23.165968 540.550909 23.039684 540.756364 22.914266 540.961818 22.789709 541.167273 22.666008 541.372727 22.543159 541.578182 22.421156 541.783636 22.299995 541.989091 22.179670 542.194545 22.060177 542.400000 21.941510 542.605455 21.823665 542.810909 21.706636 543.016364 21.590418 543.221818 21.475008 543.427273 21.360399 543.632727 21.246586 543.838182 21.133565 544.043636 21.021331 544.249091 20.909879 544.454545 20.799203 544.660000 20.689299 544.865455 20.580161 545.070909 20.471786 545.276364 20.364167 545.481818 20.257300 545.687273 20.151180 545.892727 20.045802 546.098182 19.941160 546.303636 19.837251 546.509091 19.734068 546.714545 19.631608 546.920000 19.529864 547.125455 19.428832 547.330909 19.328507 547.536364 19.228885 547.741818 19.129959 547.947273 19.031725 548.152727 18.934179 548.358182 18.837314 548.563636 18.741127 548.769091 18.645612 548.974545 18.550764 549.180000 18.456578 549.385455 18.363050 549.590909 18.270173 549.796364 18.177944 550.001818 18.086357 550.207273 17.995408 550.412727 17.905090 550.618182 17.815401 550.823636 17.726333 551.029091 17.637883 551.234545 17.550045 551.440000 17.462815 551.645455 17.376187 551.850909 17.290157 552.056364 17.204719 552.261818 17.119868 552.467273 17.035600 552.672727 16.951910 552.878182 16.868792 553.083636 16.786242 553.289091 16.704254 553.494545 16.622824 553.700000 16.541947 553.905455 16.461618 554.110909 16.381831 554.316364 16.302581 554.521818 16.223865 554.727273 16.145676 554.932727 16.068010 555.138182 15.990862 555.343636 15.914227 555.549091 15.838100 555.754545 15.762475 555.960000 15.687348 556.165455 15.612714 556.370909 15.538569 556.576364 15.464906 556.781818 15.391721 556.987273 15.319009 557.192727 15.246765 557.398182 15.174984 557.603636 15.103661 557.809091 15.032791 558.014545 14.962370 558.220000 14.892391 558.425455 14.822851 558.630909 14.753743 558.836364 14.685064 559.041818 14.616808 559.247273 14.548971 559.452727 14.481546 559.658182 14.414530 559.863636 14.347917 560.069091 14.281703 560.274545 14.215882 560.480000 14.150449 560.685455 14.085399 560.890909 14.020728 561.096364 13.956431 561.301818 13.892501 561.507273 13.828936 561.712727 13.765728 561.918182 13.702875 562.123636 13.640369 562.329091 13.578208 562.534545 13.516384 562.740000 13.454895 562.945455 13.393734 563.150909 13.332896 563.356364 13.272378 563.561818 13.212173 563.767273 13.152276 563.972727 13.092684 564.178182 13.033390 564.383636 12.974390 564.589091 12.915678 564.794545 12.857251 565.000000 12.799102 565.205455 12.741227 565.410909 12.683621 565.616364 12.626279 565.821818 12.569195 566.027273 12.512366 566.232727 12.455786 566.438182 12.399449 566.643636 12.343352 566.849091 12.287488 567.054545 12.231854 567.260000 12.176443 567.465455 12.121252 567.670909 12.066275 567.876364 12.011507 568.081818 11.956943 568.287273 11.902578 568.492727 11.848407 568.698182 11.794426 568.903636 11.740629 569.109091 11.687011 569.314545 11.633567 569.520000 11.580292 569.725455 11.527182 569.930909 11.474231 570.136364 11.421435 570.341818 11.368788 570.547273 11.316285 570.752727 11.263922 570.958182 11.211693 571.163636 11.159593 571.369091 11.107618 571.574545 11.055763 571.780000 11.004022 571.985455 10.952390 572.190909 10.900864 572.396364 10.849436 572.601818 10.798104 572.807273 10.746861 573.012727 10.695702 573.218182 10.644623 573.423636 10.593619 573.629091 10.542685 573.834545 10.491815 574.040000 10.441005 574.245455 10.390250 574.450909 10.339545 574.656364 10.288884 574.861818 10.238263 575.067273 10.187678 575.272727 10.137122 575.478182 10.086590 575.683636 10.036079 575.889091 9.985583 576.094545 9.935097 576.300000 9.884615 576.300000 514.000000" /></g></g><g class="titles"><text class="title plot_title" x="400.0" y="26">Phrom-Phong 53</text></g><g class="plot overlay" transform="translate(192, 46)"><g class="series serie-0 color-0"><g class="dots"><circle class="dot reactive tooltip-trigger" cx="11.3" cy="68.97243057169766" r="2.5" /><desc class="value">558635</desc><desc class="x ">11.3</desc><desc class="y ">68.97243057169766</desc><desc class="x_label">Jan</desc></g><g class="dots"><circle class="dot reactive tooltip-trigger" cx="62.66363636363637" cy="110.5712866176869" r="2.5" /><desc class="value">540936</desc><desc class="x ">62.66363636363637</desc><desc class="y ">110.5712866176869</desc><desc class="x_label">Feb</desc></g><g class="dots"><circle class="dot reactive tooltip-trigger" cx="114.02727272727273" cy="79.00842782105491" r="2.5" /><desc class="value">554365</desc><desc class="x ">114.02727272727273</desc><desc class="y ">79.00842782105491</desc><desc class="x_label">Mar</desc></g><g class="dots"><circle class="dot reactive tooltip-trigger" cx="165.39090909090908" cy="244.32504105947208" r="2.5" /><desc class="value">484028</desc><desc class="x ">165.39090909090908</desc><desc class="y ">244.32504105947208</desc><desc class="x_label">Apr</desc></g><g class="dots"><circle class="dot reactive tooltip-trigger" cx="216.75454545454548" cy="501.415795889377" r="2.5" /><desc class="value">374644</desc><desc class="x top">216.75454545454548</desc><desc class="y top">501.415795889377</desc><desc class="x_label">May</desc></g><g class="dots"><circle class="dot reactive tooltip-trigger" cx="268.1181818181818" cy="149.87620043525163" r="2.5" /><desc class="value">524213</desc><desc class="x ">268.1181818181818</desc><desc class="y ">149.87620043525163</desc><desc class="x_label">Jun</desc></g><g class="dots"><circle class="dot reactive tooltip-trigger" cx="319.4818181818182" cy="84.03817819895295" r="2.5" /><desc class="value">552225</desc><desc class="x left">319.4818181818182</desc><desc class="y left">84.03817819895295</desc><desc class="x_label">Jul</desc></g><g class="dots"><circle class="dot reactive tooltip-trigger" cx="370.8454545454546" cy="67.89126927551399" r="2.5" /><desc class="value">559095</desc><desc class="x left">370.8454545454546</desc><desc class="y left">67.89126927551399</desc><desc class="x_label">Aug</desc></g><g class="dots"><circle class="dot reactive tooltip-trigger" cx="422.20909090909095" cy="68.6151772738283" r="2.5" /><desc class="value">558787</desc><desc class="x left">422.20909090909095</desc><desc class="y left">68.6151772738283</desc><desc class="x_label">Sep</desc></g><g class="dots"><circle class="dot reactive tooltip-trigger" cx="473.5727272727273" cy="88.95041104465707" r="2.5" /><desc class="value">550135</desc><desc class="x left">473.5727272727273</desc><desc class="y left">88.95041104465707</desc><desc class="x_label">Oct</desc></g><g class="dots"><circle class="dot reactive tooltip-trigger" cx="524.9363636363636" cy="35.4705324938667" r="2.5" /><desc class="value">572889</desc><desc class="x left">524.9363636363636</desc><desc class="y left">35.4705324938667</desc><desc class="x_label">Nov</desc></g><g class="dots"><circle class="dot reactive tooltip-trigger" cx="576.3000000000001" cy="9.884615384615358" r="2.5" /><desc class="value">583775</desc><desc class="x left">576.3000000000001</desc><desc class="y left">9.884615384615358</desc><desc class="x_label">Dec</desc></g></g></g><g class="plot text-overlay" transform="translate(192, 46)"><g class="series serie-0 color-0" /></g><g class="plot tooltip-overlay" transform="translate(192, 46)"><g class="tooltip" style="opacity: 0" transform="translate(0 0)"><rect class="tooltip-box" height="0" rx="0" ry="0" width="0" /><g class="text" /></g></g><g class="legends" transform="translate(10, 56)"><g class="legend reactive activate-serie" id="activate-serie-0"><rect class="color-0 reactive" height="12" width="12" x="0.0" y="1.0" /><text x="17.0" y="11.2">Phrom-Phong</text></g></g><g class="legends" transform="translate(790, 56)" /></g></svg>