<?xml version='1.0' encoding='utf-8'?>
<svg xmlns:xlink="http://www.w3.org/1999/xlink" class="pygal-chart" id="chart-6679a0be-44f2-43f7-be4d-0fe22ff9e044" viewBox="0 0 800 600" xmlns="http://www.w3.org/2000/svg"><!--Generated with pygal 2.0.11 (etree) ©Kozea 2011-2015 on 2015-12-10--><!--http://pygal.org--><!--http://github.com/Kozea/pygal--><defs><style type="text/css">#chart-6679a0be-44f2-43f7-be4d-0fe22ff9e044{-webkit-user-select:none;-webkit-font-smoothing:antialiased;font-family:Consolas,"Liberation Mono",Menlo,Courier,monospace}#chart-6679a0be-44f2-43f7-be4d-0fe22ff9e044 .title{font-family:Consolas,"Liberation Mono",Menlo,Courier,monospace;font-size:16px}#chart-6679a0be-44f2-43f7-be4d-0fe22ff9e044 .legends .legend text{font-family:Consolas,"Liberation Mono",Menlo,Courier,monospace;font-size:14px}#chart-6679a0be-44f2-43f7-be4d-0fe22ff9e044 .axis text{font-family:Consolas,"Liberation Mono",Menlo,Courier,monospace;font-size:10px}#chart-6679a0be-44f2-43f7-be4d-0fe22ff9e044 .axis text.major{font-family:Consolas,"Liberation Mono",Menlo,Courier,monospace;font-size:10px}#chart-6679a0be-44f2-43f7-be4d-0fe22ff9e044 .text-overlay text.value{font-family:Consolas,"Liberation Mono",Menlo,Courier,monospace;font-size:16px}#chart-6679a0be-44f2-43f7-be4d-0fe22ff9e044 .text-overlay text.label{font-family:Consolas,"Liberation Mono",Menlo,Courier,monospace;font-size:10px}#chart-6679a0be-44f2-43f7-be4d-0fe22ff9e044 .tooltip{font-family:Consolas,"Liberation Mono",Menlo,Courier,monospace;font-size:14px}#chart-6679a0be-44f2-43f7-be4d-0fe22ff9e044 text.no_data{font-family:Consolas,"Liberation Mono",Menlo,Courier,monospace;font-size:64px}
#chart-6679a0be-44f2-43f7-be4d-0fe22ff9e044{background-color:black}#chart-6679a0be-44f2-43f7-be4d-0fe22ff9e044 path,#chart-6679a0be-44f2-43f7-be4d-0fe22ff9e044 line,#chart-6679a0be-44f2-43f7-be4d-0fe22ff9e044 rect,#chart-6679a0be-44f2-43f7-be4d-0fe22ff9e044 circle{-webkit-transition:250ms;-moz-transition:250ms;transition:250ms}#chart-6679a0be-44f2-43f7-be4d-0fe22ff9e044 .graph &gt; .background{fill:black}#chart-6679a0be-44f2-43f7-be4d-0fe22ff9e044 .plot &gt; .background{fill:#111}#chart-6679a0be-44f2-43f7-be4d-0fe22ff9e044 .graph{fill:#999}#chart-6679a0be-44f2-43f7-be4d-0fe22ff9e044 text.no_data{fill:#eee}#chart-6679a0be-44f2-43f7-be4d-0fe22ff9e044 .title{fill:#eee}#chart-6679a0be-44f2-43f7-be4d-0fe22ff9e044 .legends .legend text{fill:#999}#chart-6679a0be-44f2-43f7-be4d-0fe22ff9e044 .legends .legend:hover text{fill:#eee}#chart-6679a0be-44f2-43f7-be4d-0fe22ff9e044 .axis .line{stroke:#eee}#chart-6679a0be-44f2-43f7-be4d-0fe22ff9e044 .axis .guide.line{stroke:#555}#chart-6679a0be-44f2-43f7-be4d-0fe22ff9e044 .axis .major.line{stroke:#999}#chart-6679a0be-44f2-43f7-be4d-0fe22ff9e044 .axis text.major{fill:#eee}#chart-6679a0be-44f2-43f7-be4d-0fe22ff9e044 .axis.y .guides:hover .guide.line,#chart-6679a0be-44f2-43f7-be4d-0fe22ff9e044 .line-graph .axis.x .guides:hover .guide.line,#chart-6679a0be-44f2-43f7-be4d-0fe22ff9e044 .stackedline-graph .axis.x .guides:hover .guide.line,#chart-6679a0be-44f2-43f7-be4d-0fe22ff9e044 .xy-graph .axis.x .guides:hover .guide.line{stroke:#eee}#chart-6679a0be-44f2-43f7-be4d-0fe22ff9e044 .axis .guides:hover text{fill:#eee}#chart-6679a0be-44f2-43f7-be4d-0fe22ff9e044 .reactive{fill-opacity:.8}#chart-6679a0be-44f2-43f7-be4d-0fe22ff9e044 .reactive.active,#chart-6679a0be-44f2-43f7-be4d-0fe22ff9e044 .active .reactive{fill-opacity:.4;stroke-width:4}#chart-6679a0be-44f2-43f7-be4d-0fe22ff9e044 .series text{fill:#eee}#chart-6679a0be-44f2-43f7-be4d-0fe22ff9e044 .tooltip rect{fill:#111;stroke:#eee;-webkit-transition:opacity 250ms;-moz-transition:opacity 250ms;transition:opacity 250ms}#chart-6679a0be-44f2-43f7-be4d-0fe22ff9e044 .tooltip .label{fill:#999}#chart-6679a0be-44f2-43f7-be4d-0fe22ff9e044 .tooltip .label{fill:#999}#chart-6679a0be-44f2-43f7-be4d-0fe22ff9e044 .tooltip .legend{font-size:.8em;fill:#555}#chart-6679a0be-44f2-43f7-be4d-0fe22ff9e044 .tooltip .x_label{font-size:.6em;fill:#eee}#chart-6679a0be-44f2-43f7-be4d-0fe22ff9e044 .tooltip .xlink{font-size:.5em;text-decoration:underline}#chart-6679a0be-44f2-43f7-be4d-0fe22ff9e044 .tooltip .value{font-size:1.5em}#chart-6679a0be-44f2-43f7-be4d-0fe22ff9e044 .map-element{fill:#111;stroke:#555 !important}#chart-6679a0be-44f2-43f7-be4d-0fe22ff9e044 .map-element .reactive{fill-opacity:inherit}#chart-6679a0be-44f2-43f7-be4d-0fe22ff9e044 .color-0,#chart-6679a0be-44f2-43f7-be4d-0fe22ff9e044 .color-0 a:visited{stroke:#ff5995;fill:#ff5995}#chart-6679a0be-44f2-43f7-be4d-0fe22ff9e044 .text-overlay .color-0 text{fill:black}
#chart-6679a0be-44f2-43f7-be4d-0fe22ff9e044 text.no_data{text-anchor:middle}#chart-6679a0be-44f2-43f7-be4d-0fe22ff9e044 .guide.line{fill:none}#chart-6679a0be-44f2-43f7-be4d-0fe22ff9e044 .centered{text-anchor:middle}#chart-6679a0be-44f2-43f7-be4d-0fe22ff9e044 .title{text-anchor:middle}#chart-6679a0be-44f2-43f7-be4d-0fe22ff9e044 .legends .legend text{fill-opacity:1}#chart-6679a0be-44f2-43f7-be4d-0fe22ff9e044 .axis.x text{text-anchor:middle}#chart-6679a0be-44f2-43f7-be4d-0fe22ff9e044 .axis.x:not(.web) text[transform]{text-anchor:start}#chart-6679a0be-44f2-43f7-be4d-0fe22ff9e044 .axis.x:not(.web) text[transform].backwards{text-anchor:end}#chart-6679a0be-44f2-43f7-be4d-0fe22ff9e044 .axis.y text{text-anchor:end}#chart-6679a0be-44f2-43f7-be4d-0fe22ff9e044 .axis.y text[transform].backwards{text-anchor:start}#chart-6679a0be-44f2-43f7-be4d-0fe22ff9e044 .axis.y2 text{text-anchor:start}#chart-6679a0be-44f2-43f7-be4d-0fe22ff9e044 .axis.y2 text[transform].backwards{text-anchor:end}#chart-6679a0be-44f2-43f7-be4d-0fe22ff9e044 .axis .guide.line{stroke-dasharray:4,4}#chart-6679a0be-44f2-43f7-be4d-0fe22ff9e044 .axis .major.guide.line{stroke-dasharray:6,6}#chart-6679a0be-44f2-43f7-be4d-0fe22ff9e044 .horizontal .axis.y .guide.line,#chart-6679a0be-44f2-43f7-be4d-0fe22ff9e044 .horizontal .axis.y2 .guide.line,#chart-6679a0be-44f2-43f7-be4d-0fe22ff9e044 .vertical .axis.x .guide.line{opacity:0}#chart-6679a0be-44f2-43f7-be4d-0fe22ff9e044 .horizontal .axis.always_show .guide.line,#chart-6679a0be-44f2-43f7-be4d-0fe22ff9e044 .vertical .axis.always_show .guide.line{opacity:1 !important}#chart-6679a0be-44f2-43f7-be4d-0fe22ff9e044 .axis.y .guides:hover .guide.line,#chart-6679a0be-44f2-43f7-be4d-0fe22ff9e044 .axis.y2 .guides:hover .guide.line,#chart-6679a0be-44f2-43f7-be4d-0fe22ff9e044 .axis.x .guides:hover .guide.line{opacity:1}#chart-6679a0be-44f2-43f7-be4d-0fe22ff9e044 .axis .guides:hover text{opacity:1}#chart-6679a0be-44f2-43f7-be4d-0fe22ff9e044 .nofill{fill:none}#chart-6679a0be-44f2-43f7-be4d-0fe22ff9e044 .subtle-fill{fill-opacity:.2}#chart-6679a0be-44f2-43f7-be4d-0fe22ff9e044 .dot{stroke-width:1px;fill-opacity:1}#chart-6679a0be-44f2-43f7-be4d-0fe22ff9e044 .dot.active{stroke-width:5px}#chart-6679a0be-44f2-43f7-be4d-0fe22ff9e044 .dot.negative{fill:transparent}#chart-6679a0be-44f2-43f7-be4d-0fe22ff9e044 text,#chart-6679a0be-44f2-43f7-be4d-0fe22ff9e044 tspan{stroke:none !important}#chart-6679a0be-44f2-43f7-be4d-0fe22ff9e044 .series text.active{opacity:1}#chart-6679a0be-44f2-43f7-be4d-0fe22ff9e044 .tooltip rect{fill-opacity:.95;stroke-width:.5}#chart-6679a0be-44f2-43f7-be4d-0fe22ff9e044 .tooltip text{fill-opacity:1}#chart-6679a0be-44f2-43f7-be4d-0fe22ff9e044 .showable{visibility:hidden}#chart-6679a0be-44f2-43f7-be4d-0fe22ff9e044 .showable.shown{visibility:visible}</style><script type="text/javascript">window.pygal = window.pygal || {};window.pygal.config = window.pygal.config || {};window.pygal.config['6679a0be-44f2-43f7-be4d-0fe22ff9e044'] = {"css": ["file://style.css", "file://graph.css"], "legend_at_bottom": false, "stroke_style": null, "missing_value_fill_truncation": "x", "tooltip_border_radius": 0, "inner_radius": 0, "min_scale": 4, "show_x_guides": false, "y_label_rotation": 0, "show_only_major_dots": false, "interpolation_precision": 250, "margin_right": null, "x_label_rotation": 0, "dynamic_print_values": false, "margin_top": null, "x_labels_major_count": null, "js": ["//kozea.github.io/pygal.js/2.0.x/pygal-tooltips.min.js"], "interpolation_parameters": {}, "no_prefix": false, "title": "Nationnal-Stadium 50", "x_labels": ["Jan", "Feb", "Mar", "Apr", "May", "Jun", "Jul", "Aug", "Sep", "Oct", "Nov", "Dec"], "width": 800, "range": null, "show_y_guides": true, "truncate_legend": null, "force_uri_protocol": null, "x_title": null, "interpolate": "cubic", "fill": true, "print_zeroes": true, "margin_left": null, "legend_box_size": 12, "show_minor_y_labels": true, "logarithmic": false, "legend_at_bottom_columns": null, "value_formatter": null, "stroke": true, "margin_bottom": null, "pretty_print": false, "show_minor_x_labels": true, "y_labels_major_count": null, "disable_xml_declaration": false, "y_labels_major_every": null, "truncate_label": null, "stack_from_top": false, "defs": [], "human_readable": false, "include_x_axis": false, "show_legend": true, "tooltip_fancy_mode": true, "y_title": null, "style": {"tooltip_font_size": 14, "major_label_font_family": "Consolas, \"Liberation Mono\", Menlo, Courier, monospace", "value_font_family": "Consolas, \"Liberation Mono\", Menlo, Courier, monospace", "foreground": "#999", "tooltip_font_family": "Consolas, \"Liberation Mono\", Menlo, Courier, monospace", "opacity": ".8", "font_family": "Consolas, \"Liberation Mono\", Menlo, Courier, monospace", "foreground_subtle": "#555", "colors": ["#ff5995", "#b6e354", "#feed6c", "#8cedff", "#9e6ffe", "#899ca1", "#f8f8f2", "#bf4646", "#516083", "#f92672", "#82b414", "#fd971f", "#56c2d6", "#808384", "#8c54fe", "#465457"], "foreground_strong": "#eee", "no_data_font_size": 64, "opacity_hover": ".4", "plot_background": "#111", "value_font_size": 16, "legend_font_family": "Consolas, \"Liberation Mono\", Menlo, Courier, monospace", "value_label_font_size": 10, "major_guide_stroke_dasharray": "6,6", "legend_font_size": 14, "label_font_family": "Consolas, \"Liberation Mono\", Menlo, Courier, monospace", "label_font_size": 10, "transition": "250ms", "title_font_size": 16, "value_label_font_family": "Consolas, \"Liberation Mono\", Menlo, Courier, monospace", "background": "black", "title_font_family": "Consolas, \"Liberation Mono\", Menlo, Courier, monospace", "value_colors": [], "no_data_font_family": "Consolas, \"Liberation Mono\", Menlo, Courier, monospace", "guide_stroke_dasharray": "4,4", "major_label_font_size": 10}, "strict": false, "xrange": null, "rounded_bars": null, "x_labels_major": null, "dots_size": 2.5, "show_dots": true, "order_min": null, "no_data_text": "No data", "y_labels": null, "print_labels": false, "spacing": 10, "y_labels_major": null, "print_values": false, "legends": ["Nationnal-Stadium"], "zero": 0, "height": 600, "margin": 20, "box_mode": "extremes", "show_y_labels": true, "inverse_y_axis": false, "max_scale": 16, "show_x_labels": true, "explicit_size": false, "x_value_formatter": null, "secondary_range": null, "x_labels_major_every": null, "half_pie": false}</script><script type="text/javascript" xlink:href="//kozea.github.io/pygal.js/2.0.x/pygal-tooltips.min.js" /></defs><title>Nationnal-Stadium 50</title><g class="graph line-graph vertical"><rect class="background" height="600" width="800" x="0" y="0" /><g class="plot" transform="translate(226, 46)"><rect class="background" height="514" width="554.0" x="0" y="0" /><g class="axis y"><path class="line" d="M0.000000 514.000000 h554.000000" /><g class="guides"><path class="guide line" d="M0.000000 464.350096 h554.000000" /><text class="" x="-5" y="467.8500955283902">410000.0</text><title>410000.0</title></g><g class="guides"><path class="guide line" d="M0.000000 405.455175 h554.000000" /><text class="" x="-5" y="408.9551746018957">420000.0</text><title>420000.0</title></g><g class="guides"><path class="guide line" d="M0.000000 346.560254 h554.000000" /><text class="" x="-5" y="350.0602536754012">430000.0</text><title>430000.0</title></g><g class="guides"><path class="guide line" d="M0.000000 287.665333 h554.000000" /><text class="" x="-5" y="291.1653327489067">440000.0</text><title>440000.0</title></g><g class="guides"><path class="major guide line" d="M0.000000 228.770412 h554.000000" /><text class="major" x="-5" y="232.2704118224122">450000.0</text><title>450000.0</title></g><g class="guides"><path class="guide line" d="M0.000000 169.875491 h554.000000" /><text class="" x="-5" y="173.37549089591766">460000.0</text><title>460000.0</title></g><g class="guides"><path class="guide line" d="M0.000000 110.980570 h554.000000" /><text class="" x="-5" y="114.48056996942319">470000.0</text><title>470000.0</title></g><g class="guides"><path class="guide line" d="M0.000000 52.085649 h554.000000" /><text class="" x="-5" y="55.58564904292865">480000.0</text><title>480000.0</title></g></g><g class="axis x"><g class="guides"><path class="line" d="M10.653846 0.000000 v514.000000" /><text class="" x="10.653846153846153" y="529.0">Jan</text></g><g class="guides"><path class="guide line" d="M59.080420 0.000000 v514.000000" /><text class="" x="59.08041958041958" y="529.0">Feb</text></g><g class="guides"><path class="guide line" d="M107.506993 0.000000 v514.000000" /><text class="" x="107.506993006993" y="529.0">Mar</text></g><g class="guides"><path class="guide line" d="M155.933566 0.000000 v514.000000" /><text class="" x="155.93356643356643" y="529.0">Apr</text></g><g class="guides"><path class="guide line" d="M204.360140 0.000000 v514.000000" /><text class="" x="204.36013986013987" y="529.0">May</text></g><g class="guides"><path class="guide line" d="M252.786713 0.000000 v514.000000" /><text class="" x="252.78671328671325" y="529.0">Jun</text></g><g class="guides"><path class="guide line" d="M301.213287 0.000000 v514.000000" /><text class="" x="301.2132867132867" y="529.0">Jul</text></g><g class="guides"><path class="guide line" d="M349.639860 0.000000 v514.000000" /><text class="" x="349.6398601398601" y="529.0">Aug</text></g><g class="guides"><path class="guide line" d="M398.066434 0.000000 v514.000000" /><text class="" x="398.06643356643355" y="529.0">Sep</text></g><g class="guides"><path class="guide line" d="M446.493007 0.000000 v514.000000" /><text class="" x="446.493006993007" y="529.0">Oct</text></g><g class="guides"><path class="guide line" d="M494.919580 0.000000 v514.000000" /><text class="" x="494.9195804195804" y="529.0">Nov</text></g><g class="guides"><path class="guide line" d="M543.346154 0.000000 v514.000000" /><text class="" x="543.3461538461538" y="529.0">Dec</text></g></g><g class="series serie-0 color-0"><path class="line reactive" d="M10.653846 514.000000 L10.653846 57.975141 10.847552 59.391163 11.041259 60.807122 11.234965 62.222953 11.428671 63.638594 11.622378 65.053981 11.816084 66.469049 12.009790 67.883736 12.203497 69.297979 12.397203 70.711712 12.590909 72.124874 12.784615 73.537400 12.978322 74.949226 13.172028 76.360290 13.365734 77.770528 13.559441 79.179875 13.753147 80.588269 13.946853 81.995646 14.140559 83.401942 14.334266 84.807094 14.527972 86.211038 14.721678 87.613710 14.915385 89.015048 15.109091 90.414987 15.302797 91.813464 15.496503 93.210416 15.690210 94.605778 15.883916 95.999487 16.077622 97.391481 16.271329 98.781694 16.465035 100.170063 16.658741 101.556526 16.852448 102.941018 17.046154 104.323475 17.239860 105.703835 17.433566 107.082034 17.627273 108.458008 17.820979 109.831693 18.014685 111.203026 18.208392 112.571943 18.402098 113.938382 18.595804 115.302277 18.789510 116.663566 18.983217 118.022186 19.176923 119.378072 19.370629 120.731160 19.564336 122.081389 19.758042 123.428693 19.951748 124.773009 20.145455 126.114274 20.339161 127.452424 20.532867 128.787395 20.726573 130.119125 20.920280 131.447549 21.113986 132.772604 21.307692 134.094226 21.501399 135.412352 21.695105 136.726918 21.888811 138.037860 22.082517 139.345116 22.276224 140.648621 22.469930 141.948311 22.663636 143.244124 22.857343 144.535996 23.051049 145.823863 23.244755 147.107662 23.438462 148.387328 23.632168 149.662799 23.825874 150.934011 24.019580 152.200900 24.213287 153.463403 24.406993 154.721456 24.600699 155.974996 24.794406 157.223958 24.988112 158.468280 25.181818 159.707898 25.375524 160.942749 25.569231 162.172768 25.762937 163.397892 25.956643 164.618058 26.150350 165.833202 26.344056 167.043260 26.537762 168.248170 26.731469 169.447866 26.925175 170.642287 27.118881 171.831367 27.312587 173.015045 27.506294 174.193255 27.700000 175.365935 27.893706 176.533020 28.087413 177.694448 28.281119 178.850155 28.474825 180.000077 28.668531 181.144151 28.862238 182.282313 29.055944 183.414499 29.249650 184.540646 29.443357 185.660691 29.637063 186.774569 29.830769 187.882218 30.024476 188.983573 30.218182 190.078572 30.411888 191.167149 30.605594 192.249243 30.799301 193.324790 30.993007 194.393725 31.186713 195.455985 31.380420 196.511507 31.574126 197.560227 31.767832 198.602082 31.961538 199.637007 32.155245 200.664940 32.348951 201.685817 32.542657 202.699574 32.736364 203.706148 32.930070 204.705475 33.123776 205.697492 33.317483 206.682134 33.511189 207.659339 33.704895 208.629043 33.898601 209.591182 34.092308 210.545692 34.286014 211.492511 34.479720 212.431575 34.673427 213.362819 34.867133 214.286181 35.060839 215.201597 35.254545 216.109003 35.448252 217.008336 35.641958 217.899532 35.835664 218.782527 36.029371 219.657259 36.223077 220.523663 36.416783 221.381676 36.610490 222.231234 36.804196 223.072274 36.997902 223.904732 37.191608 224.728545 37.385315 225.543649 37.579021 226.349980 37.772727 227.147475 37.966434 227.936071 38.160140 228.715703 38.353846 229.486308 38.547552 230.247823 38.741259 231.000184 38.934965 231.743328 39.128671 232.477191 39.322378 233.201708 39.516084 233.916818 39.709790 234.622456 39.903497 235.318558 40.097203 236.005062 40.290909 236.681903 40.484615 237.349018 40.678322 238.006343 40.872028 238.653816 41.065734 239.291371 41.259441 239.918946 41.453147 240.536477 41.646853 241.143901 41.840559 241.741153 42.034266 242.328171 42.227972 242.904891 42.421678 243.471249 42.615385 244.027182 42.809091 244.572626 43.002797 245.107517 43.196503 245.631792 43.390210 246.145388 43.583916 246.648240 43.777622 247.140286 43.971329 247.621462 44.165035 248.091703 44.358741 248.550947 44.552448 248.999131 44.746154 249.436189 44.939860 249.862060 45.133566 250.276678 45.327273 250.679982 45.520979 251.071906 45.714685 251.452388 45.908392 251.821364 46.102098 252.178771 46.295804 252.524544 46.489510 252.858621 46.683217 253.180937 46.876923 253.491430 47.070629 253.790035 47.264336 254.076689 47.458042 254.351328 47.651748 254.613890 47.845455 254.864310 48.039161 255.102524 48.232867 255.328470 48.426573 255.542083 48.620280 255.743300 48.813986 255.932058 49.007692 256.108293 49.201399 256.271941 49.395105 256.422939 49.588811 256.561223 49.782517 256.686729 49.976224 256.799395 50.169930 256.899156 50.363636 256.985949 50.557343 257.059710 50.751049 257.120376 50.944755 257.167884 51.138462 257.202168 51.332168 257.223167 51.525874 257.230817 51.719580 257.225053 51.913287 257.205813 52.106993 257.173033 52.300699 257.126649 52.494406 257.066597 52.688112 256.992815 52.881818 256.905238 53.075524 256.803803 53.269231 256.688446 53.462937 256.559104 53.656643 256.415713 53.850350 256.258211 54.044056 256.086532 54.237762 255.900613 54.431469 255.700392 54.625175 255.485804 54.818881 255.256786 55.012587 255.013274 55.206294 254.755205 55.400000 254.482515 55.593706 254.195140 55.787413 253.893018 55.981119 253.576084 56.174825 253.244274 56.368531 252.897526 56.562238 252.535776 56.755944 252.158960 56.949650 251.767014 57.143357 251.359875 57.337063 250.937480 57.530769 250.499765 57.724476 250.046666 57.918182 249.578119 58.111888 249.094062 58.305594 248.594430 58.499301 248.079161 58.693007 247.548189 58.886713 247.001453 59.080420 246.438888 59.274126 245.860469 59.467832 245.266324 59.661538 244.656620 59.855245 244.031522 60.048951 243.391197 60.242657 242.735811 60.436364 242.065532 60.630070 241.380524 60.823776 240.680954 61.017483 239.966989 61.211189 239.238795 61.404895 238.496538 61.598601 237.740385 61.792308 236.970502 61.986014 236.187055 62.179720 235.390210 62.373427 234.580135 62.567133 233.756994 62.760839 232.920955 62.954545 232.072184 63.148252 231.210847 63.341958 230.337111 63.535664 229.451141 63.729371 228.553104 63.923077 227.643167 64.116783 226.721495 64.310490 225.788256 64.504196 224.843615 64.697902 223.887739 64.891608 222.920793 65.085315 221.942945 65.279021 220.954361 65.472727 219.955207 65.666434 218.945649 65.860140 217.925853 66.053846 216.895987 66.247552 215.856216 66.441259 214.806706 66.634965 213.747625 66.828671 212.679137 67.022378 211.601410 67.216084 210.514610 67.409790 209.418904 67.603497 208.314456 67.797203 207.201435 67.990909 206.080006 68.184615 204.950335 68.378322 203.812589 68.572028 202.666934 68.765734 201.513537 68.959441 200.352563 69.153147 199.184179 69.346853 198.008552 69.540559 196.825847 69.734266 195.636232 69.927972 194.439872 70.121678 193.236933 70.315385 192.027583 70.509091 190.811987 70.702797 189.590311 70.896503 188.362723 71.090210 187.129388 71.283916 185.890472 71.477622 184.646142 71.671329 183.396565 71.865035 182.141906 72.058741 180.882332 72.252448 179.618009 72.446154 178.349104 72.639860 177.075783 72.833566 175.798211 73.027273 174.516557 73.220979 173.230985 73.414685 171.941662 73.608392 170.648755 73.802098 169.352429 73.995804 168.052851 74.189510 166.750188 74.383217 165.444606 74.576923 164.136271 74.770629 162.825349 74.964336 161.512006 75.158042 160.196410 75.351748 158.878726 75.545455 157.559121 75.739161 156.237761 75.932867 154.914812 76.126573 153.590440 76.320280 152.264813 76.513986 150.938096 76.707692 149.610455 76.901399 148.282057 77.095105 146.953069 77.288811 145.623656 77.482517 144.293985 77.676224 142.964222 77.869930 141.634533 78.063636 140.305086 78.257343 138.976045 78.451049 137.647578 78.644755 136.319851 78.838462 134.993030 79.032168 133.667281 79.225874 132.342771 79.419580 131.019666 79.613287 129.698133 79.806993 128.378337 80.000699 127.060445 80.194406 125.744624 80.388112 124.431039 80.581818 123.119857 80.775524 121.811245 80.969231 120.505368 81.162937 119.202393 81.356643 117.902487 81.550350 116.605815 81.744056 115.312543 81.937762 114.022840 82.131469 112.736869 82.325175 111.454799 82.518881 110.176794 82.712587 108.903023 82.906294 107.633650 83.100000 106.368842 83.293706 105.108766 83.487413 103.853587 83.681119 102.603473 83.874825 101.358589 84.068531 100.119101 84.262238 98.885177 84.455944 97.656983 84.649650 96.434683 84.843357 95.218446 85.037063 94.008438 85.230769 92.804824 85.424476 91.607771 85.618182 90.417445 85.811888 89.234013 86.005594 88.057641 86.199301 86.888495 86.393007 85.726742 86.586713 84.572548 86.780420 83.426079 86.974126 82.287502 87.167832 81.156982 87.361538 80.034687 87.555245 78.920782 87.748951 77.815434 87.942657 76.718809 88.136364 75.631074 88.330070 74.552394 88.523776 73.482937 88.717483 72.422868 88.911189 71.372354 89.104895 70.331560 89.298601 69.300655 89.492308 68.279803 89.686014 67.269171 89.879720 66.268925 90.073427 65.279232 90.267133 64.300259 90.460839 63.332170 90.654545 62.375133 90.848252 61.429314 91.041958 60.494880 91.235664 59.571996 91.429371 58.660829 91.623077 57.761545 91.816783 56.874311 92.010490 55.999292 92.204196 55.136656 92.397902 54.286568 92.591608 53.449196 92.785315 52.624704 92.979021 51.813260 93.172727 51.015030 93.366434 50.230180 93.560140 49.458876 93.753846 48.701285 93.947552 47.957573 94.141259 47.227907 94.334965 46.512453 94.528671 45.811376 94.722378 45.124844 94.916084 44.453022 95.109790 43.796078 95.303497 43.154177 95.497203 42.527485 95.690909 41.916170 95.884615 41.320397 96.078322 40.740332 96.272028 40.176143 96.465734 39.627994 96.659441 39.096054 96.853147 38.580487 97.046853 38.081460 97.240559 37.599140 97.434266 37.133693 97.627972 36.685285 97.821678 36.254082 98.015385 35.840252 98.209091 35.443959 98.402797 35.065371 98.596503 34.704654 98.790210 34.361974 98.983916 34.037497 99.177622 33.731390 99.371329 33.443819 99.565035 33.174951 99.758741 32.924951 99.952448 32.693986 100.146154 32.482223 100.339860 32.289827 100.533566 32.116966 100.727273 31.963804 100.920979 31.830509 101.114685 31.717248 101.308392 31.624185 101.502098 31.551488 101.695804 31.499323 101.889510 31.467856 102.083217 31.457254 102.276923 31.467683 102.470629 31.499309 102.664336 31.552298 102.858042 31.626817 103.051748 31.723033 103.245455 31.841111 103.439161 31.981217 103.632867 32.143519 103.826573 32.328182 104.020280 32.535374 104.213986 32.765259 104.407692 33.018004 104.601399 33.293776 104.795105 33.592742 104.988811 33.915066 105.182517 34.260917 105.376224 34.630459 105.569930 35.023860 105.763636 35.441285 105.957343 35.882901 106.151049 36.348875 106.344755 36.839372 106.538462 37.354559 106.732168 37.894602 106.925874 38.459668 107.119580 39.049923 107.313287 39.665533 107.506993 40.306665 107.700699 40.973423 107.894406 41.665671 108.088112 42.383207 108.281818 43.125835 108.475524 43.893353 108.669231 44.685563 108.862937 45.502267 109.056643 46.343264 109.250350 47.208356 109.444056 48.097343 109.637762 49.010027 109.831469 49.946207 110.025175 50.905686 110.218881 51.888264 110.412587 52.893741 110.606294 53.921919 110.800000 54.972598 110.993706 56.045579 111.187413 57.140664 111.381119 58.257652 111.574825 59.396345 111.768531 60.556544 111.962238 61.738049 112.155944 62.940662 112.349650 64.164183 112.543357 65.408412 112.737063 66.673152 112.930769 67.958202 113.124476 69.263364 113.318182 70.588438 113.511888 71.933225 113.705594 73.297527 113.899301 74.681143 114.093007 76.083875 114.286713 77.505524 114.480420 78.945890 114.674126 80.404775 114.867832 81.881978 115.061538 83.377302 115.255245 84.890546 115.448951 86.421513 115.642657 87.970001 115.836364 89.535813 116.030070 91.118750 116.223776 92.718611 116.417483 94.335198 116.611189 95.968312 116.804895 97.617754 116.998601 99.283324 117.192308 100.964823 117.386014 102.662053 117.579720 104.374813 117.773427 106.102905 117.967133 107.846130 118.160839 109.604289 118.354545 111.377182 118.548252 113.164610 118.741958 114.966374 118.935664 116.782275 119.129371 118.612114 119.323077 120.455691 119.516783 122.312808 119.710490 124.183265 119.904196 126.066863 120.097902 127.963403 120.291608 129.872686 120.485315 131.794513 120.679021 133.728684 120.872727 135.675001 121.066434 137.633264 121.260140 139.603273 121.453846 141.584831 121.647552 143.577738 121.841259 145.581794 122.034965 147.596800 122.228671 149.622558 122.422378 151.658868 122.616084 153.705531 122.809790 155.762348 123.003497 157.829119 123.197203 159.905646 123.390909 161.991729 123.584615 164.087170 123.778322 166.191768 123.972028 168.305325 124.165734 170.427643 124.359441 172.558520 124.553147 174.697759 124.746853 176.845161 124.940559 179.000525 125.134266 181.163654 125.327972 183.334347 125.521678 185.512406 125.715385 187.697632 125.909091 189.889824 126.102797 192.088786 126.296503 194.294316 126.490210 196.506216 126.683916 198.724286 126.877622 200.948328 127.071329 203.178143 127.265035 205.413531 127.458741 207.654293 127.652448 209.900230 127.846154 212.151143 128.039860 214.406833 128.233566 216.667100 128.427273 218.931745 128.620979 221.200569 128.814685 223.473374 129.008392 225.749959 129.202098 228.030127 129.395804 230.313676 129.589510 232.600410 129.783217 234.890127 129.976923 237.182630 130.170629 239.477718 130.364336 241.775193 130.558042 244.074856 130.751748 246.376508 130.945455 248.679948 131.139161 250.984979 131.332867 253.291401 131.526573 255.599015 131.720280 257.907622 131.913986 260.217022 132.107692 262.527017 132.301399 264.837406 132.495105 267.147992 132.688811 269.458575 132.882517 271.768956 133.076224 274.078935 133.269930 276.388314 133.463636 278.696893 133.657343 281.004473 133.851049 283.310856 134.044755 285.615841 134.238462 287.919230 134.432168 290.220823 134.625874 292.520422 134.819580 294.817827 135.013287 297.112840 135.206993 299.405260 135.400699 301.694889 135.594406 303.981528 135.788112 306.264977 135.981818 308.545037 136.175524 310.821510 136.369231 313.094195 136.562937 315.362895 136.756643 317.627409 136.950350 319.887539 137.144056 322.143085 137.337762 324.393848 137.531469 326.639630 137.725175 328.880230 137.918881 331.115450 138.112587 333.345091 138.306294 335.568953 138.500000 337.786838 138.693706 339.998546 138.887413 342.203878 139.081119 344.402634 139.274825 346.594617 139.468531 348.779626 139.662238 350.957462 139.855944 353.127926 140.049650 355.290820 140.243357 357.445944 140.437063 359.593098 140.630769 361.732084 140.824476 363.862702 141.018182 365.984754 141.211888 368.098040 141.405594 370.202361 141.599301 372.297518 141.793007 374.383311 141.986713 376.459542 142.180420 378.526012 142.374126 380.582520 142.567832 382.628869 142.761538 384.664859 142.955245 386.690290 143.148951 388.704964 143.342657 390.708682 143.536364 392.701244 143.730070 394.682451 143.923776 396.652104 144.117483 398.610003 144.311189 400.555951 144.504895 402.489747 144.698601 404.411192 144.892308 406.320088 145.086014 408.216235 145.279720 410.099434 145.473427 411.969485 145.667133 413.826190 145.860839 415.669350 146.054545 417.498764 146.248252 419.314235 146.441958 421.115563 146.635664 422.902549 146.829371 424.674994 147.023077 426.432698 147.216783 428.175462 147.410490 429.903088 147.604196 431.615375 147.797902 433.312126 147.991608 434.993140 148.185315 436.658219 148.379021 438.307164 148.572727 439.939774 148.766434 441.555852 148.960140 443.155198 149.153846 444.737613 149.347552 446.302897 149.541259 447.850852 149.734965 449.381278 149.928671 450.893977 150.122378 452.388748 150.316084 453.865394 150.509790 455.323714 150.703497 456.763510 150.897203 458.184582 151.090909 459.586731 151.284615 460.969759 151.478322 462.333466 151.672028 463.677652 151.865734 465.002120 152.059441 466.306668 152.253147 467.591099 152.446853 468.855214 152.640559 470.098812 152.834266 471.321695 153.027972 472.523664 153.221678 473.704520 153.415385 474.864063 153.609091 476.002094 153.802797 477.118414 153.996503 478.212825 154.190210 479.285126 154.383916 480.335119 154.577622 481.362604 154.771329 482.367383 154.965035 483.349256 155.158741 484.308024 155.352448 485.243488 155.546154 486.155449 155.739860 487.043707 155.933566 487.908064 156.127273 488.748375 156.320979 489.564716 156.514685 490.357218 156.708392 491.126011 156.902098 491.871226 157.095804 492.592994 157.289510 493.291446 157.483217 493.966712 157.676923 494.618923 157.870629 495.248210 158.064336 495.854703 158.258042 496.438533 158.451748 496.999831 158.645455 497.538728 158.839161 498.055354 159.032867 498.549841 159.226573 499.022318 159.420280 499.472916 159.613986 499.901767 159.807692 500.309000 160.001399 500.694747 160.195105 501.059139 160.388811 501.402305 160.582517 501.724378 160.776224 502.025486 160.969930 502.305762 161.163636 502.565336 161.357343 502.804339 161.551049 503.022901 161.744755 503.221153 161.938462 503.399226 162.132168 503.557250 162.325874 503.695356 162.519580 503.813676 162.713287 503.912339 162.906993 503.991477 163.100699 504.051219 163.294406 504.091698 163.488112 504.113042 163.681818 504.115385 163.875524 504.098855 164.069231 504.063584 164.262937 504.009702 164.456643 503.937340 164.650350 503.846629 164.844056 503.737700 165.037762 503.610683 165.231469 503.465709 165.425175 503.302908 165.618881 503.122412 165.812587 502.924351 166.006294 502.708856 166.200000 502.476058 166.393706 502.226087 166.587413 501.959074 166.781119 501.675149 166.974825 501.374444 167.168531 501.057089 167.362238 500.723215 167.555944 500.372953 167.749650 500.006433 167.943357 499.623786 168.137063 499.225142 168.330769 498.810634 168.524476 498.380390 168.718182 497.934542 168.911888 497.473221 169.105594 496.996557 169.299301 496.504681 169.493007 495.997724 169.686713 495.475816 169.880420 494.939089 170.074126 494.387672 170.267832 493.821697 170.461538 493.241294 170.655245 492.646595 170.848951 492.037729 171.042657 491.414828 171.236364 490.778022 171.430070 490.127441 171.623776 489.463218 171.817483 488.785482 172.011189 488.094363 172.204895 487.389994 172.398601 486.672504 172.592308 485.942025 172.786014 485.198686 172.979720 484.442619 173.173427 483.673954 173.367133 482.892823 173.560839 482.099355 173.754545 481.293682 173.948252 480.475934 174.141958 479.646242 174.335664 478.804737 174.529371 477.951549 174.723077 477.086809 174.916783 476.210648 175.110490 475.323197 175.304196 474.424585 175.497902 473.514945 175.691608 472.594407 175.885315 471.663101 176.079021 470.721158 176.272727 469.768709 176.466434 468.805884 176.660140 467.832815 176.853846 466.849631 177.047552 465.856465 177.241259 464.853446 177.434965 463.840705 177.628671 462.818373 177.822378 461.786580 178.016084 460.745458 178.209790 459.695137 178.403497 458.635747 178.597203 457.567420 178.790909 456.490286 178.984615 455.404476 179.178322 454.310121 179.372028 453.207351 179.565734 452.096297 179.759441 450.977090 179.953147 449.849860 180.146853 448.714738 180.340559 447.571856 180.534266 446.421343 180.727972 445.263330 180.921678 444.097948 181.115385 442.925328 181.309091 441.745601 181.502797 440.558897 181.696503 439.365346 181.890210 438.165081 182.083916 436.958230 182.277622 435.744926 182.471329 434.525299 182.665035 433.299479 182.858741 432.067597 183.052448 430.829784 183.246154 429.586171 183.439860 428.336888 183.633566 427.082067 183.827273 425.821837 184.020979 424.556330 184.214685 423.285675 184.408392 422.010005 184.602098 420.729450 184.795804 419.444140 184.989510 418.154206 185.183217 416.859779 185.376923 415.560989 185.570629 414.257968 185.764336 412.950846 185.958042 411.639753 186.151748 410.324821 186.345455 409.006180 186.539161 407.683961 186.732867 406.358294 186.926573 405.029311 187.120280 403.697141 187.313986 402.361917 187.507692 401.023767 187.701399 399.682824 187.895105 398.339218 188.088811 396.993079 188.282517 395.644539 188.476224 394.293728 188.669930 392.940776 188.863636 391.585815 189.057343 390.228975 189.251049 388.870387 189.444755 387.510182 189.638462 386.148489 189.832168 384.785441 190.025874 383.421168 190.219580 382.055800 190.413287 380.689468 190.606993 379.322304 190.800699 377.954436 190.994406 376.585998 191.188112 375.217118 191.381818 373.847928 191.575524 372.478558 191.769231 371.109140 191.962937 369.739803 192.156643 368.370680 192.350350 367.001899 192.544056 365.633593 192.737762 364.265891 192.931469 362.898925 193.125175 361.532826 193.318881 360.167723 193.512587 358.803747 193.706294 357.441031 193.900000 356.079703 194.093706 354.719895 194.287413 353.361738 194.481119 352.005361 194.674825 350.650897 194.868531 349.298476 195.062238 347.948228 195.255944 346.600284 195.449650 345.254774 195.643357 343.911831 195.837063 342.571583 196.030769 341.234163 196.224476 339.899700 196.418182 338.568326 196.611888 337.240171 196.805594 335.915365 196.999301 334.594041 197.193007 333.276327 197.386713 331.962356 197.580420 330.652257 197.774126 329.346162 197.967832 328.044200 198.161538 326.746504 198.355245 325.453203 198.548951 324.164429 198.742657 322.880312 198.936364 321.600982 199.130070 320.326571 199.323776 319.057209 199.517483 317.793026 199.711189 316.534155 199.904895 315.280725 200.098601 314.032866 200.292308 312.790711 200.486014 311.554389 200.679720 310.324031 200.873427 309.099768 201.067133 307.881731 201.260839 306.670050 201.454545 305.464856 201.648252 304.266280 201.841958 303.074452 202.035664 301.889504 202.229371 300.711565 202.423077 299.540768 202.616783 298.377241 202.810490 297.221117 203.004196 296.072525 203.197902 294.931597 203.391608 293.798463 203.585315 292.673254 203.779021 291.556101 203.972727 290.447134 204.166434 289.346484 204.360140 288.254282 204.553846 287.170629 204.747552 286.095511 204.941259 285.028884 205.134965 283.970703 205.328671 282.920925 205.522378 281.879506 205.716084 280.846401 205.909790 279.821567 206.103497 278.804960 206.297203 277.796536 206.490909 276.796251 206.684615 275.804061 206.878322 274.819922 207.072028 273.843790 207.265734 272.875622 207.459441 271.915372 207.653147 270.962997 207.846853 270.018454 208.040559 269.081698 208.234266 268.152686 208.427972 267.231372 208.621678 266.317714 208.815385 265.411668 209.009091 264.513189 209.202797 263.622234 209.396503 262.738758 209.590210 261.862718 209.783916 260.994069 209.977622 260.132768 210.171329 259.278771 210.365035 258.432034 210.558741 257.592512 210.752448 256.760163 210.946154 255.934941 211.139860 255.116803 211.333566 254.305706 211.527273 253.501604 211.720979 252.704454 211.914685 251.914213 212.108392 251.130835 212.302098 250.354278 212.495804 249.584497 212.689510 248.821449 212.883217 248.065088 213.076923 247.315372 213.270629 246.572257 213.464336 245.835698 213.658042 245.105651 213.851748 244.382073 214.045455 243.664920 214.239161 242.954147 214.432867 242.249711 214.626573 241.551568 214.820280 240.859673 215.013986 240.173983 215.207692 239.494454 215.401399 238.821042 215.595105 238.153702 215.788811 237.492392 215.982517 236.837067 216.176224 236.187683 216.369930 235.544195 216.563636 234.906561 216.757343 234.274736 216.951049 233.648677 217.144755 233.028338 217.338462 232.413677 217.532168 231.804649 217.725874 231.201211 217.919580 230.603318 218.113287 230.010927 218.306993 229.423993 218.500699 228.842472 218.694406 228.266321 218.888112 227.695496 219.081818 227.129952 219.275524 226.569646 219.469231 226.014534 219.662937 225.464572 219.856643 224.919716 220.050350 224.379921 220.244056 223.845144 220.437762 223.315342 220.631469 222.790469 220.825175 222.270482 221.018881 221.755338 221.212587 221.244991 221.406294 220.739399 221.600000 220.238517 221.793706 219.742301 221.987413 219.250708 222.181119 218.763693 222.374825 218.281212 222.568531 217.803222 222.762238 217.329678 222.955944 216.860536 223.149650 216.395754 223.343357 215.935286 223.537063 215.479088 223.730769 215.027117 223.924476 214.579329 224.118182 214.135680 224.311888 213.696125 224.505594 213.260621 224.699301 212.829124 224.893007 212.401591 225.086713 211.977976 225.280420 211.558236 225.474126 211.142327 225.667832 210.730205 225.861538 210.321826 226.055245 209.917147 226.248951 209.516123 226.442657 209.118710 226.636364 208.724864 226.830070 208.334542 227.023776 207.947699 227.217483 207.564291 227.411189 207.184275 227.604895 206.807607 227.798601 206.434242 227.992308 206.064137 228.186014 205.697247 228.379720 205.333529 228.573427 204.972939 228.767133 204.615432 228.960839 204.260966 229.154545 203.909495 229.348252 203.560976 229.541958 203.215365 229.735664 202.872618 229.929371 202.532691 230.123077 202.195540 230.316783 201.861121 230.510490 201.529390 230.704196 201.200304 230.897902 200.873818 231.091608 200.549888 231.285315 200.228470 231.479021 199.909521 231.672727 199.592996 231.866434 199.278851 232.060140 198.967043 232.253846 198.657528 232.447552 198.350261 232.641259 198.045199 232.834965 197.742297 233.028671 197.441512 233.222378 197.142800 233.416084 196.846116 233.609790 196.551418 233.803497 196.258660 233.997203 195.967799 234.190909 195.678791 234.384615 195.391592 234.578322 195.106158 234.772028 194.822445 234.965734 194.540410 235.159441 194.260007 235.353147 193.981194 235.546853 193.703925 235.740559 193.428159 235.934266 193.153849 236.127972 192.880953 236.321678 192.609426 236.515385 192.339225 236.709091 192.070305 236.902797 191.802623 237.096503 191.536134 237.290210 191.270795 237.483916 191.006561 237.677622 190.743390 237.871329 190.481236 238.065035 190.220055 238.258741 189.959805 238.452448 189.700440 238.646154 189.441918 238.839860 189.184193 239.033566 188.927222 239.227273 188.670962 239.420979 188.415367 239.614685 188.160394 239.808392 187.906000 240.002098 187.652140 240.195804 187.398770 240.389510 187.145847 240.583217 186.893325 240.776923 186.641162 240.970629 186.389314 241.164336 186.137736 241.358042 185.886384 241.551748 185.635215 241.745455 185.384185 241.939161 185.133249 242.132867 184.882364 242.326573 184.631486 242.520280 184.380570 242.713986 184.129573 242.907692 183.878451 243.101399 183.627160 243.295105 183.375656 243.488811 183.123894 243.682517 182.871832 243.876224 182.619425 244.069930 182.366629 244.263636 182.113400 244.457343 181.859694 244.651049 181.605467 244.844755 181.350676 245.038462 181.095275 245.232168 180.839223 245.425874 180.582473 245.619580 180.324983 245.813287 180.066709 246.006993 179.807606 246.200699 179.547630 246.394406 179.286738 246.588112 179.024886 246.781818 178.762029 246.975524 178.498124 247.169231 178.233127 247.362937 177.966994 247.556643 177.699680 247.750350 177.431143 247.944056 177.161337 248.137762 176.890219 248.331469 176.617745 248.525175 176.343872 248.718881 176.068554 248.912587 175.791749 249.106294 175.513411 249.300000 175.233498 249.493706 174.951965 249.687413 174.668769 249.881119 174.383865 250.074825 174.097209 250.268531 173.808757 250.462238 173.518466 250.655944 173.226292 250.849650 172.932190 251.043357 172.636117 251.237063 172.338028 251.430769 172.037880 251.624476 171.735629 251.818182 171.431230 252.011888 171.124641 252.205594 170.815816 252.399301 170.504712 252.593007 170.191285 252.786713 169.875491 252.980420 169.557296 253.174126 169.236703 253.367832 168.913728 253.561538 168.588385 253.755245 168.260687 253.948951 167.930649 254.142657 167.598284 254.336364 167.263607 254.530070 166.926633 254.723776 166.587375 254.917483 166.245847 255.111189 165.902063 255.304895 165.556038 255.498601 165.207786 255.692308 164.857321 255.886014 164.504656 256.079720 164.149807 256.273427 163.792787 256.467133 163.433610 256.660839 163.072291 256.854545 162.708844 257.048252 162.343282 257.241958 161.975620 257.435664 161.605873 257.629371 161.234053 257.823077 160.860176 258.016783 160.484255 258.210490 160.106305 258.404196 159.726339 258.597902 159.344373 258.791608 158.960419 258.985315 158.574492 259.179021 158.186607 259.372727 157.796777 259.566434 157.405016 259.760140 157.011340 259.953846 156.615760 260.147552 156.218293 260.341259 155.818952 260.534965 155.417751 260.728671 155.014704 260.922378 154.609826 261.116084 154.203130 261.309790 153.794631 261.503497 153.384342 261.697203 152.972279 261.890909 152.558455 262.084615 152.142883 262.278322 151.725580 262.472028 151.306557 262.665734 150.885831 262.859441 150.463414 263.053147 150.039321 263.246853 149.613566 263.440559 149.186163 263.634266 148.757126 263.827972 148.326470 264.021678 147.894208 264.215385 147.460355 264.409091 147.024924 264.602797 146.587931 264.796503 146.149388 264.990210 145.709311 265.183916 145.267713 265.377622 144.824609 265.571329 144.380012 265.765035 143.933937 265.958741 143.486398 266.152448 143.037408 266.346154 142.586983 266.539860 142.135136 266.733566 141.681882 266.927273 141.227233 267.120979 140.771206 267.314685 140.313813 267.508392 139.855069 267.702098 139.394989 267.895804 138.933585 268.089510 138.470873 268.283217 138.006866 268.476923 137.541578 268.670629 137.075025 268.864336 136.607219 269.058042 136.138175 269.251748 135.667907 269.445455 135.196430 269.639161 134.723757 269.832867 134.249902 270.026573 133.774880 270.220280 133.298704 270.413986 132.821390 270.607692 132.342950 270.801399 131.863400 270.995105 131.382753 271.188811 130.901023 271.382517 130.418225 271.576224 129.934372 271.769930 129.449480 271.963636 128.963561 272.157343 128.476630 272.351049 127.988702 272.544755 127.499789 272.738462 127.009908 272.932168 126.519071 273.125874 126.027292 273.319580 125.534587 273.513287 125.040968 273.706993 124.546450 273.900699 124.051048 274.094406 123.554775 274.288112 123.057646 274.481818 122.559674 274.675524 122.060874 274.869231 121.561260 275.062937 121.060846 275.256643 120.559647 275.450350 120.057675 275.644056 119.554946 275.837762 119.051474 276.031469 118.547272 276.225175 118.042355 276.418881 117.536737 276.612587 117.030432 276.806294 116.523454 277.000000 116.015818 277.193706 115.507537 277.387413 114.998626 277.581119 114.489098 277.774825 113.978969 277.968531 113.468251 278.162238 112.956960 278.355944 112.445108 278.549650 111.932712 278.743357 111.419783 278.937063 110.906338 279.130769 110.392389 279.324476 109.877951 279.518182 109.363039 279.711888 108.847665 279.905594 108.331845 280.099301 107.815592 280.293007 107.298921 280.486713 106.781846 280.680420 106.264380 280.874126 105.746539 281.067832 105.228335 281.261538 104.709784 281.455245 104.190899 281.648951 103.671695 281.842657 103.152185 282.036364 102.632385 282.230070 102.112307 282.423776 101.591966 282.617483 101.071376 282.811189 100.550552 283.004895 100.029507 283.198601 99.508256 283.392308 98.986812 283.586014 98.465190 283.779720 97.943404 283.973427 97.421469 284.167133 96.899397 284.360839 96.377204 284.554545 95.854903 284.748252 95.332509 284.941958 94.810036 285.135664 94.287498 285.329371 93.764908 285.523077 93.242282 285.716783 92.719633 285.910490 92.196976 286.104196 91.674324 286.297902 91.151692 286.491608 90.629093 286.685315 90.106543 286.879021 89.584055 287.072727 89.061642 287.266434 88.539321 287.460140 88.017103 287.653846 87.495004 287.847552 86.973038 288.041259 86.451219 288.234965 85.929561 288.428671 85.408078 288.622378 84.886784 288.816084 84.365694 289.009790 83.844821 289.203497 83.324180 289.397203 82.803785 289.590909 82.283649 289.784615 81.763788 289.978322 81.244215 290.172028 80.724944 290.365734 80.205989 290.559441 79.687366 290.753147 79.169086 290.946853 78.651166 291.140559 78.133619 291.334266 77.616459 291.527972 77.099700 291.721678 76.583356 291.915385 76.067442 292.109091 75.551972 292.302797 75.036959 292.496503 74.522418 292.690210 74.008363 292.883916 73.494809 293.077622 72.981769 293.271329 72.469257 293.465035 71.957287 293.658741 71.445875 293.852448 70.935033 294.046154 70.424776 294.239860 69.915119 294.433566 69.406074 294.627273 68.897657 294.820979 68.389881 295.014685 67.882761 295.208392 67.376311 295.402098 66.870545 295.595804 66.365476 295.789510 65.861120 295.983217 65.357490 296.176923 64.854600 296.370629 64.352465 296.564336 63.851099 296.758042 63.350515 296.951748 62.850729 297.145455 62.351753 297.339161 61.853603 297.532867 61.356292 297.726573 60.859834 297.920280 60.364244 298.113986 59.869536 298.307692 59.375723 298.501399 58.882821 298.695105 58.390842 298.888811 57.899802 299.082517 57.409715 299.276224 56.920593 299.469930 56.432453 299.663636 55.945307 299.857343 55.459170 300.051049 54.974057 300.244755 54.489980 300.438462 54.006955 300.632168 53.524995 300.825874 53.044114 301.019580 52.564328 301.213287 52.085649 301.406993 51.608095 301.600699 51.131693 301.794406 50.656473 301.988112 50.182466 302.181818 49.709701 302.375524 49.238210 302.569231 48.768021 302.762937 48.299166 302.956643 47.831673 303.150350 47.365575 303.344056 46.900900 303.537762 46.437679 303.731469 45.975942 303.925175 45.515719 304.118881 45.057041 304.312587 44.599937 304.506294 44.144438 304.700000 43.690574 304.893706 43.238375 305.087413 42.787871 305.281119 42.339093 305.474825 41.892071 305.668531 41.446834 305.862238 41.003413 306.055944 40.561838 306.249650 40.122140 306.443357 39.684348 306.637063 39.248493 306.830769 38.814605 307.024476 38.382713 307.218182 37.952849 307.411888 37.525042 307.605594 37.099323 307.799301 36.675722 307.993007 36.254268 308.186713 35.834993 308.380420 35.417925 308.574126 35.003097 308.767832 34.590536 308.961538 34.180275 309.155245 33.772342 309.348951 33.366769 309.542657 32.963585 309.736364 32.562820 309.930070 32.164505 310.123776 31.768670 310.317483 31.375344 310.511189 30.984559 310.704895 30.596345 310.898601 30.210730 311.092308 29.827747 311.286014 29.447424 311.479720 29.069792 311.673427 28.694882 311.867133 28.322723 312.060839 27.953345 312.254545 27.586780 312.448252 27.223056 312.641958 26.862204 312.835664 26.504254 313.029371 26.149237 313.223077 25.797183 313.416783 25.448121 313.610490 25.102082 313.804196 24.759097 313.997902 24.419194 314.191608 24.082405 314.385315 23.748760 314.579021 23.418289 314.772727 23.091021 314.966434 22.766988 315.160140 22.446219 315.353846 22.128745 315.547552 21.814595 315.741259 21.503800 315.934965 21.196390 316.128671 20.892396 316.322378 20.591847 316.516084 20.294773 316.709790 20.001205 316.903497 19.711173 317.097203 19.424707 317.290909 19.141838 317.484615 18.862595 317.678322 18.587008 317.872028 18.315108 318.065734 18.046926 318.259441 17.782490 318.453147 17.521832 318.646853 17.264981 318.840559 17.011968 319.034266 16.762822 319.227972 16.517575 319.421678 16.276256 319.615385 16.038895 319.809091 15.805523 320.002797 15.576169 320.196503 15.350865 320.390210 15.129639 320.583916 14.912523 320.777622 14.699546 320.971329 14.490738 321.165035 14.286131 321.358741 14.085753 321.552448 13.889635 321.746154 13.697808 321.939860 13.510301 322.133566 13.327145 322.327273 13.148369 322.520979 12.974005 322.714685 12.804081 322.908392 12.638629 323.102098 12.477679 323.295804 12.321260 323.489510 12.169403 323.683217 12.022138 323.876923 11.879495 324.070629 11.741505 324.264336 11.608197 324.458042 11.479602 324.651748 11.355749 324.845455 11.236670 325.039161 11.122394 325.232867 11.012951 325.426573 10.908372 325.620280 10.808687 325.813986 10.713926 326.007692 10.624119 326.201399 10.539296 326.395105 10.459488 326.588811 10.384724 326.782517 10.315035 326.976224 10.250451 327.169930 10.191002 327.363636 10.136719 327.557343 10.087631 327.751049 10.043768 327.944755 10.005162 328.138462 9.971841 328.332168 9.943837 328.525874 9.921179 328.719580 9.903898 328.913287 9.892024 329.106993 9.885586 329.300699 9.884615 329.494406 9.889142 329.688112 9.899196 329.881818 9.914808 330.075524 9.936007 330.269231 9.962825 330.462937 9.995290 330.656643 10.033434 330.850350 10.077287 331.044056 10.126878 331.237762 10.182237 331.431469 10.243396 331.625175 10.310384 331.818881 10.383231 332.012587 10.461968 332.206294 10.546625 332.400000 10.637231 332.593706 10.733818 332.787413 10.836414 332.981119 10.945051 333.174825 11.059759 333.368531 11.180567 333.562238 11.307507 333.755944 11.440607 333.949650 11.579899 334.143357 11.725412 334.337063 11.877176 334.530769 12.035223 334.724476 12.199581 334.918182 12.370282 335.111888 12.547355 335.305594 12.730830 335.499301 12.920738 335.693007 13.117109 335.886713 13.319973 336.080420 13.529360 336.274126 13.745300 336.467832 13.967824 336.661538 14.196961 336.855245 14.432743 337.048951 14.675198 337.242657 14.924358 337.436364 15.180252 337.630070 15.442911 337.823776 15.712365 338.017483 15.988643 338.211189 16.271777 338.404895 16.561795 338.598601 16.858730 338.792308 17.162610 338.986014 17.473465 339.179720 17.791327 339.373427 18.116225 339.567133 18.448189 339.760839 18.787249 339.954545 19.133437 340.148252 19.486781 340.341958 19.847312 340.535664 20.215060 340.729371 20.590056 340.923077 20.972329 341.116783 21.361910 341.310490 21.758829 341.504196 22.163116 341.697902 22.574801 341.891608 22.993914 342.085315 23.420486 342.279021 23.854547 342.472727 24.296127 342.666434 24.745256 342.860140 25.201964 343.053846 25.666282 343.247552 26.138239 343.441259 26.617867 343.634965 27.105194 343.828671 27.600251 344.022378 28.103068 344.216084 28.613677 344.409790 29.132105 344.603497 29.658385 344.797203 30.192546 344.990909 30.734618 345.184615 31.284631 345.378322 31.842616 345.572028 32.408602 345.765734 32.982621 345.959441 33.564701 346.153147 34.154874 346.346853 34.753169 346.540559 35.359617 346.734266 35.974247 346.927972 36.597091 347.121678 37.228177 347.315385 37.867537 347.509091 38.515201 347.702797 39.171198 347.896503 39.835559 348.090210 40.508313 348.283916 41.189493 348.477622 41.879126 348.671329 42.577244 348.865035 43.283876 349.058741 43.999054 349.252448 44.722806 349.446154 45.455164 349.639860 46.196157 349.833566 46.945798 350.027273 47.704025 350.220979 48.470762 350.414685 49.245930 350.608392 50.029450 350.802098 50.821244 350.995804 51.621233 351.189510 52.429341 351.383217 53.245487 351.576923 54.069595 351.770629 54.901585 351.964336 55.741380 352.158042 56.588900 352.351748 57.444069 352.545455 58.306807 352.739161 59.177036 352.932867 60.054678 353.126573 60.939655 353.320280 61.831888 353.513986 62.731299 353.707692 63.637810 353.901399 64.551342 354.095105 65.471818 354.288811 66.399158 354.482517 67.333285 354.676224 68.274120 354.869930 69.221586 355.063636 70.175603 355.257343 71.136093 355.451049 72.102979 355.644755 73.076181 355.838462 74.055622 356.032168 75.041224 356.225874 76.032907 356.419580 77.030594 356.613287 78.034206 356.806993 79.043666 357.000699 80.058894 357.194406 81.079813 357.388112 82.106344 357.581818 83.138409 357.775524 84.175930 357.969231 85.218828 358.162937 86.267025 358.356643 87.320443 358.550350 88.379004 358.744056 89.442629 358.937762 90.511239 359.131469 91.584757 359.325175 92.663105 359.518881 93.746204 359.712587 94.833975 359.906294 95.926341 360.100000 97.023223 360.293706 98.124543 360.487413 99.230222 360.681119 100.340183 360.874825 101.454347 361.068531 102.572636 361.262238 103.694971 361.455944 104.821274 361.649650 105.951467 361.843357 107.085471 362.037063 108.223209 362.230769 109.364602 362.424476 110.509572 362.618182 111.658040 362.811888 112.809928 363.005594 113.965158 363.199301 115.123651 363.393007 116.285330 363.586713 117.450115 363.780420 118.617930 363.974126 119.788694 364.167832 120.962331 364.361538 122.138762 364.555245 123.317908 364.748951 124.499691 364.942657 125.684033 365.136364 126.870856 365.330070 128.060081 365.523776 129.251630 365.717483 130.445425 365.911189 131.641388 366.104895 132.839439 366.298601 134.039502 366.492308 135.241497 366.686014 136.445346 366.879720 137.650972 367.073427 138.858295 367.267133 140.067238 367.460839 141.277721 367.654545 142.489668 367.848252 143.702999 368.041958 144.917637 368.235664 146.133502 368.429371 147.350517 368.623077 148.568604 368.816783 149.787684 369.010490 151.007678 369.204196 152.228509 369.397902 153.450098 369.591608 154.672368 369.785315 155.895239 369.979021 157.118633 370.172727 158.342472 370.366434 159.566678 370.560140 160.791173 370.753846 162.015878 370.947552 163.240715 371.141259 164.465605 371.334965 165.690471 371.528671 166.915234 371.722378 168.139815 371.916084 169.364138 372.109790 170.588122 372.303497 171.811690 372.497203 173.034764 372.690909 174.257265 372.884615 175.479115 373.078322 176.700236 373.272028 177.920549 373.465734 179.139976 373.659441 180.358440 373.853147 181.575861 374.046853 182.792161 374.240559 184.007262 374.434266 185.221086 374.627972 186.433554 374.821678 187.644588 375.015385 188.854110 375.209091 190.062042 375.402797 191.268305 375.596503 192.472821 375.790210 193.675512 375.983916 194.876298 376.177622 196.075104 376.371329 197.271848 376.565035 198.466455 376.758741 199.658844 376.952448 200.848939 377.146154 202.036660 377.339860 203.221929 377.533566 204.404669 377.727273 205.584800 377.920979 206.762245 378.114685 207.936925 378.308392 209.108762 378.502098 210.277677 378.695804 211.443593 378.889510 212.606431 379.083217 213.766112 379.276923 214.922559 379.470629 216.075694 379.664336 217.225437 379.858042 218.371710 380.051748 219.514436 380.245455 220.653536 380.439161 221.788931 380.632867 222.920544 380.826573 224.048296 381.020280 225.172109 381.213986 226.291905 381.407692 227.407604 381.601399 228.519130 381.795105 229.626403 381.988811 230.729346 382.182517 231.827880 382.376224 232.921926 382.569930 234.011407 382.763636 235.096245 382.957343 236.176360 383.151049 237.251675 383.344755 238.322111 383.538462 239.387590 383.732168 240.448034 383.925874 241.503365 384.119580 242.553504 384.313287 243.598372 384.506993 244.637893 384.700699 245.671986 384.894406 246.700575 385.088112 247.723580 385.281818 248.740924 385.475524 249.752528 385.669231 250.758313 385.862937 251.758203 386.056643 252.752117 386.250350 253.739979 386.444056 254.721709 386.637762 255.697230 386.831469 256.666463 387.025175 257.629329 387.218881 258.585752 387.412587 259.535651 387.606294 260.478950 387.800000 261.415569 387.993706 262.345430 388.187413 263.268456 388.381119 264.184567 388.574825 265.093686 388.768531 265.995734 388.962238 266.890633 389.155944 267.778305 389.349650 268.658671 389.543357 269.531653 389.737063 270.397173 389.930769 271.255152 390.124476 272.105513 390.318182 272.948176 390.511888 273.783064 390.705594 274.610098 390.899301 275.429201 391.093007 276.240293 391.286713 277.043296 391.480420 277.838133 391.674126 278.624725 391.867832 279.402993 392.061538 280.172859 392.255245 280.934246 392.448951 281.687074 392.642657 282.431265 392.836364 283.166742 393.030070 283.893426 393.223776 284.611238 393.417483 285.320100 393.611189 286.019934 393.804895 286.710662 393.998601 287.392206 394.192308 288.064486 394.386014 288.727425 394.579720 289.380945 394.773427 290.024967 394.967133 290.659413 395.160839 291.284204 395.354545 291.899263 395.548252 292.504511 395.741958 293.099870 395.935664 293.685261 396.129371 294.260606 396.323077 294.825828 396.516783 295.380847 396.710490 295.925585 396.904196 296.459964 397.097902 296.983906 397.291608 297.497333 397.485315 298.000165 397.679021 298.492326 397.872727 298.973736 398.066434 299.444317 398.260140 299.904012 398.453846 300.352848 398.647552 300.790872 398.841259 301.218132 399.034965 301.634675 399.228671 302.040548 399.422378 302.435800 399.616084 302.820478 399.809790 303.194629 400.003497 303.558302 400.197203 303.911543 400.390909 304.254400 400.584615 304.586921 400.778322 304.909153 400.972028 305.221143 401.165734 305.522941 401.359441 305.814592 401.553147 306.096144 401.746853 306.367646 401.940559 306.629144 402.134266 306.880686 402.327972 307.122321 402.521678 307.354094 402.715385 307.576054 402.909091 307.788249 403.102797 307.990725 403.296503 308.183531 403.490210 308.366714 403.683916 308.540322 403.877622 308.704402 404.071329 308.859001 404.265035 309.004168 404.458741 309.139950 404.652448 309.266394 404.846154 309.383548 405.039860 309.491459 405.233566 309.590176 405.427273 309.679745 405.620979 309.760215 405.814685 309.831632 406.008392 309.894045 406.202098 309.947500 406.395804 309.992046 406.589510 310.027730 406.783217 310.054599 406.976923 310.072701 407.170629 310.082085 407.364336 310.082796 407.558042 310.074883 407.751748 310.058393 407.945455 310.033375 408.139161 309.999874 408.332867 309.957940 408.526573 309.907619 408.720280 309.848960 408.913986 309.782009 409.107692 309.706814 409.301399 309.623423 409.495105 309.531884 409.688811 309.432243 409.882517 309.324549 410.076224 309.208849 410.269930 309.085190 410.463636 308.953621 410.657343 308.814188 410.851049 308.666939 411.044755 308.511923 411.238462 308.349185 411.432168 308.178775 411.625874 308.000739 411.819580 307.815125 412.013287 307.621981 412.206993 307.421354 412.400699 307.213291 412.594406 306.997841 412.788112 306.775051 412.981818 306.544968 413.175524 306.307640 413.369231 306.063114 413.562937 305.811439 413.756643 305.552661 413.950350 305.286828 414.144056 305.013988 414.337762 304.734189 414.531469 304.447477 414.725175 304.153901 414.918881 303.853507 415.112587 303.546344 415.306294 303.232459 415.500000 302.911900 415.693706 302.584714 415.887413 302.250949 416.081119 301.910652 416.274825 301.563871 416.468531 301.210654 416.662238 300.851047 416.855944 300.485099 417.049650 300.112857 417.243357 299.734368 417.437063 299.349681 417.630769 298.958843 417.824476 298.561901 418.018182 298.158903 418.211888 297.749896 418.405594 297.334928 418.599301 296.914047 418.793007 296.487300 418.986713 296.054735 419.180420 295.616399 419.374126 295.172340 419.567832 294.722605 419.761538 294.267242 419.955245 293.806298 420.148951 293.339821 420.342657 292.867859 420.536364 292.390460 420.730070 291.907669 420.923776 291.419537 421.117483 290.926108 421.311189 290.427433 421.504895 289.923557 421.698601 289.414529 421.892308 288.900395 422.086014 288.381205 422.279720 287.857004 422.473427 287.327841 422.667133 286.793764 422.860839 286.254819 423.054545 285.711055 423.248252 285.162519 423.441958 284.609258 423.635664 284.051320 423.829371 283.488753 424.023077 282.921604 424.216783 282.349921 424.410490 281.773751 424.604196 281.193142 424.797902 280.608141 424.991608 280.018796 425.185315 279.425155 425.379021 278.827265 425.572727 278.225173 425.766434 277.618928 425.960140 277.008577 426.153846 276.394166 426.347552 275.775745 426.541259 275.153360 426.734965 274.527059 426.928671 273.896890 427.122378 273.262900 427.316084 272.625136 427.509790 271.983647 427.703497 271.338479 427.897203 270.689681 428.090909 270.037299 428.284615 269.381382 428.478322 268.721977 428.672028 268.059132 428.865734 267.392894 429.059441 266.723310 429.253147 266.050429 429.446853 265.374297 429.640559 264.694963 429.834266 264.012474 430.027972 263.326877 430.221678 262.638220 430.415385 261.946551 430.609091 261.251917 430.802797 260.554366 430.996503 259.853944 431.190210 259.150701 431.383916 258.444683 431.577622 257.735938 431.771329 257.024514 431.965035 256.310457 432.158741 255.593816 432.352448 254.874639 432.546154 254.152972 432.739860 253.428863 432.933566 252.702360 433.127273 251.973511 433.320979 251.242362 433.514685 250.508962 433.708392 249.773358 433.902098 249.035598 434.095804 248.295729 434.289510 247.553798 434.483217 246.809854 434.676923 246.063944 434.870629 245.316115 435.064336 244.566415 435.258042 243.814892 435.451748 243.061593 435.645455 242.306565 435.839161 241.549857 436.032867 240.791515 436.226573 240.031588 436.420280 239.270122 436.613986 238.507166 436.807692 237.742767 437.001399 236.976973 437.195105 236.209830 437.388811 235.441387 437.582517 234.671692 437.776224 233.900791 437.969930 233.128733 438.163636 232.355564 438.357343 231.581333 438.551049 230.806087 438.744755 230.029874 438.938462 229.252740 439.132168 228.474735 439.325874 227.695904 439.519580 226.916297 439.713287 226.135959 439.906993 225.354940 440.100699 224.573286 440.294406 223.791045 440.488112 223.008265 440.681818 222.224993 440.875524 221.441276 441.069231 220.657163 441.262937 219.872701 441.456643 219.087937 441.650350 218.302919 441.844056 217.517694 442.037762 216.732311 442.231469 215.946816 442.425175 215.161257 442.618881 214.375682 442.812587 213.590138 443.006294 212.804673 443.200000 212.019335 443.393706 211.234170 443.587413 210.449227 443.781119 209.664553 443.974825 208.880196 444.168531 208.096203 444.362238 207.312621 444.555944 206.529499 444.749650 205.746884 444.943357 204.964823 445.137063 204.183364 445.330769 203.402555 445.524476 202.622443 445.718182 201.843075 445.911888 201.064500 446.105594 200.286764 446.299301 199.509916 446.493007 198.734002 446.686713 197.959066 446.880420 197.185127 447.074126 196.412202 447.267832 195.640305 447.461538 194.869452 447.655245 194.099659 447.848951 193.330940 448.042657 192.563312 448.236364 191.796789 448.430070 191.031386 448.623776 190.267121 448.817483 189.504006 449.011189 188.742059 449.204895 187.981295 449.398601 187.221728 449.592308 186.463374 449.786014 185.706249 449.979720 184.950368 450.173427 184.195747 450.367133 183.442400 450.560839 182.690343 450.754545 181.939592 450.948252 181.190161 451.141958 180.442067 451.335664 179.695325 451.529371 178.949950 451.723077 178.205957 451.916783 177.463362 452.110490 176.722180 452.304196 175.982427 452.497902 175.244118 452.691608 174.507268 452.885315 173.771893 453.079021 173.038008 453.272727 172.305629 453.466434 171.574771 453.660140 170.845449 453.853846 170.117678 454.047552 169.391475 454.241259 168.666854 454.434965 167.943831 454.628671 167.222421 454.822378 166.502640 455.016084 165.784503 455.209790 165.068025 455.403497 164.353222 455.597203 163.640110 455.790909 162.928702 455.984615 162.219016 456.178322 161.511066 456.372028 160.804868 456.565734 160.100436 456.759441 159.397788 456.953147 158.696937 457.146853 157.997899 457.340559 157.300690 457.534266 156.605325 457.727972 155.911820 457.921678 155.220189 458.115385 154.530448 458.309091 153.842613 458.502797 153.156699 458.696503 152.472721 458.890210 151.790695 459.083916 151.110636 459.277622 150.432560 459.471329 149.756481 459.665035 149.082416 459.858741 148.410379 460.052448 147.740386 460.246154 147.072453 460.439860 146.406594 460.633566 145.742826 460.827273 145.081163 461.020979 144.421621 461.214685 143.764216 461.408392 143.108962 461.602098 142.455876 461.795804 141.804971 461.989510 141.156265 462.183217 140.509772 462.376923 139.865508 462.570629 139.223487 462.764336 138.583727 462.958042 137.946240 463.151748 137.311045 463.345455 136.678154 463.539161 136.047585 463.732867 135.419352 463.926573 134.793471 464.120280 134.169956 464.313986 133.548825 464.507692 132.930091 464.701399 132.313770 464.895105 131.699879 465.088811 131.088431 465.282517 130.479442 465.476224 129.872929 465.669930 129.268906 465.863636 128.667388 466.057343 128.068391 466.251049 127.471931 466.444755 126.878022 466.638462 126.286680 466.832168 125.697921 467.025874 125.111760 467.219580 124.528212 467.413287 123.947293 467.606993 123.369018 467.800699 122.793402 467.994406 122.220461 468.188112 121.650211 468.381818 121.082666 468.575524 120.517842 468.769231 119.955754 468.962937 119.396418 469.156643 118.839849 469.350350 118.286063 469.544056 117.735074 469.737762 117.186899 469.931469 116.641553 470.125175 116.099050 470.318881 115.559408 470.512587 115.022639 470.706294 114.488762 470.900000 113.957789 471.093706 113.429738 471.287413 112.904623 471.481119 112.382460 471.674825 111.863264 471.868531 111.347051 472.062238 110.833835 472.255944 110.323633 472.449650 109.816459 472.643357 109.312330 472.837063 108.811260 473.030769 108.313265 473.224476 107.818360 473.418182 107.326561 473.611888 106.837882 473.805594 106.352340 473.999301 105.869950 474.193007 105.390727 474.386713 104.914687 474.580420 104.441844 474.774126 103.972215 474.967832 103.505815 475.161538 103.042658 475.355245 102.582761 475.548951 102.126139 475.742657 101.672807 475.936364 101.222781 476.130070 100.776076 476.323776 100.332707 476.517483 99.892690 476.711189 99.456040 476.904895 99.022773 477.098601 98.592904 477.292308 98.166448 477.486014 97.743420 477.679720 97.323837 477.873427 96.907713 478.067133 96.495064 478.260839 96.085906 478.454545 95.680253 478.648252 95.278121 478.841958 94.879525 479.035664 94.484481 479.229371 94.093005 479.423077 93.705111 479.616783 93.320814 479.810490 92.940132 480.004196 92.563078 480.197902 92.189668 480.391608 91.819917 480.585315 91.453842 480.779021 91.091456 480.972727 90.732777 481.166434 90.377818 481.360140 90.026596 481.553846 89.679125 481.747552 89.335422 481.941259 88.995501 482.134965 88.659379 482.328671 88.327069 482.522378 87.998589 482.716084 87.673952 482.909790 87.353175 483.103497 87.036273 483.297203 86.723261 483.490909 86.414155 483.684615 86.108970 483.878322 85.807721 484.072028 85.510424 484.265734 85.217094 484.459441 84.927747 484.653147 84.642398 484.846853 84.361062 485.040559 84.083755 485.234266 83.810492 485.427972 83.541288 485.621678 83.276160 485.815385 83.015122 486.009091 82.758189 486.202797 82.505377 486.396503 82.256702 486.590210 82.012179 486.783916 81.771823 486.977622 81.535649 487.171329 81.303674 487.365035 81.075912 487.558741 80.852378 487.752448 80.633089 487.946154 80.418059 488.139860 80.207304 488.333566 80.000840 488.527273 79.798681 488.720979 79.600843 488.914685 79.407341 489.108392 79.218192 489.302098 79.033409 489.495804 78.853010 489.689510 78.677008 489.883217 78.505420 490.076923 78.338260 490.270629 78.175544 490.464336 78.017288 490.658042 77.863507 490.851748 77.714217 491.045455 77.569432 491.239161 77.429168 491.432867 77.293440 491.626573 77.162264 491.820280 77.035656 492.013986 76.913630 492.207692 76.796202 492.401399 76.683388 492.595105 76.575202 492.788811 76.471660 492.982517 76.372778 493.176224 76.278571 493.369930 76.189054 493.563636 76.104243 493.757343 76.024153 493.951049 75.948800 494.144755 75.878198 494.338462 75.812364 494.532168 75.751312 494.725874 75.695058 494.919580 75.643617 495.113287 75.597000 495.306993 75.555192 495.500699 75.518174 495.694406 75.485927 495.888112 75.458432 496.081818 75.435668 496.275524 75.417618 496.469231 75.404261 496.662937 75.395579 496.856643 75.391551 497.050350 75.392159 497.244056 75.397383 497.437762 75.407205 497.631469 75.421604 497.825175 75.440561 498.018881 75.464057 498.212587 75.492073 498.406294 75.524590 498.600000 75.561588 498.793706 75.603047 498.987413 75.648949 499.181119 75.699274 499.374825 75.754003 499.568531 75.813117 499.762238 75.876595 499.955944 75.944420 500.149650 76.016571 500.343357 76.093029 500.537063 76.173776 500.730769 76.258791 500.924476 76.348055 501.118182 76.441550 501.311888 76.539255 501.505594 76.641151 501.699301 76.747220 501.893007 76.857441 502.086713 76.971795 502.280420 77.090264 502.474126 77.212828 502.667832 77.339467 502.861538 77.470162 503.055245 77.604894 503.248951 77.743644 503.442657 77.886392 503.636364 78.033119 503.830070 78.183805 504.023776 78.338432 504.217483 78.496980 504.411189 78.659429 504.604895 78.825760 504.798601 78.995955 504.992308 79.169994 505.186014 79.347856 505.379720 79.529524 505.573427 79.714978 505.767133 79.904198 505.960839 80.097165 506.154545 80.293860 506.348252 80.494264 506.541958 80.698356 506.735664 80.906119 506.929371 81.117532 507.123077 81.332576 507.316783 81.551233 507.510490 81.773481 507.704196 81.999304 507.897902 82.228680 508.091608 82.461591 508.285315 82.698017 508.479021 82.937939 508.672727 83.181338 508.866434 83.428194 509.060140 83.678489 509.253846 83.932202 509.447552 84.189315 509.641259 84.449807 509.834965 84.713661 510.028671 84.980856 510.222378 85.251374 510.416084 85.525194 510.609790 85.802298 510.803497 86.082666 510.997203 86.366279 511.190909 86.653117 511.384615 86.943162 511.578322 87.236394 511.772028 87.532794 511.965734 87.832342 512.159441 88.135019 512.353147 88.440806 512.546853 88.749683 512.740559 89.061631 512.934266 89.376631 513.127972 89.694664 513.321678 90.015709 513.515385 90.339749 513.709091 90.666763 513.902797 90.996732 514.096503 91.329637 514.290210 91.665459 514.483916 92.004178 514.677622 92.345775 514.871329 92.690231 515.065035 93.037526 515.258741 93.387640 515.452448 93.740556 515.646154 94.096253 515.839860 94.454712 516.033566 94.815914 516.227273 95.179839 516.420979 95.546469 516.614685 95.915783 516.808392 96.287762 517.002098 96.662388 517.195804 97.039641 517.389510 97.419501 517.583217 97.801949 517.776923 98.186967 517.970629 98.574534 518.164336 98.964631 518.358042 99.357239 518.551748 99.752339 518.745455 100.149911 518.939161 100.549936 519.132867 100.952395 519.326573 101.357268 519.520280 101.764537 519.713986 102.174181 519.907692 102.586181 520.101399 103.000519 520.295105 103.417174 520.488811 103.836128 520.682517 104.257362 520.876224 104.680855 521.069930 105.106588 521.263636 105.534543 521.457343 105.964700 521.651049 106.397039 521.844755 106.831542 522.038462 107.268188 522.232168 107.706960 522.425874 108.147836 522.619580 108.590799 522.813287 109.035828 523.006993 109.482905 523.200699 109.932010 523.394406 110.383124 523.588112 110.836227 523.781818 111.291300 523.975524 111.748324 524.169231 112.207280 524.362937 112.668148 524.556643 113.130908 524.750350 113.595542 524.944056 114.062031 525.137762 114.530354 525.331469 115.000493 525.525175 115.472429 525.718881 115.946141 525.912587 116.421611 526.106294 116.898819 526.300000 117.377747 526.493706 117.858374 526.687413 118.340681 526.881119 118.824650 527.074825 119.310260 527.268531 119.797493 527.462238 120.286329 527.655944 120.776749 527.849650 121.268734 528.043357 121.762263 528.237063 122.257319 528.430769 122.753881 528.624476 123.251930 528.818182 123.751448 529.011888 124.252414 529.205594 124.754809 529.399301 125.258614 529.593007 125.763810 529.786713 126.270377 529.980420 126.778297 530.174126 127.287549 530.367832 127.798115 530.561538 128.309974 530.755245 128.823109 530.948951 129.337499 531.142657 129.853125 531.336364 130.369968 531.530070 130.888008 531.723776 131.407227 531.917483 131.927605 532.111189 132.449122 532.304895 132.971759 532.498601 133.495498 532.692308 134.020318 532.886014 134.546200 533.079720 135.073126 533.273427 135.601075 533.467133 136.130028 533.660839 136.659967 533.854545 137.190871 534.048252 137.722722 534.241958 138.255500 534.435664 138.789186 534.629371 139.323760 534.823077 139.859204 535.016783 140.395497 535.210490 140.932621 535.404196 141.470556 535.597902 142.009283 535.791608 142.548782 535.985315 143.089035 536.179021 143.630022 536.372727 144.171724 536.566434 144.714120 536.760140 145.257193 536.953846 145.800923 537.147552 146.345290 537.341259 146.890275 537.534965 147.435859 537.728671 147.982022 537.922378 148.528746 538.116084 149.076010 538.309790 149.623796 538.503497 150.172084 538.697203 150.720854 538.890909 151.270089 539.084615 151.819768 539.278322 152.369871 539.472028 152.920380 539.665734 153.471276 539.859441 154.022538 540.053147 154.574148 540.246853 155.126087 540.440559 155.678335 540.634266 156.230872 540.827972 156.783680 541.021678 157.336738 541.215385 157.890029 541.409091 158.443532 541.602797 158.997228 541.796503 159.551098 541.990210 160.105123 542.183916 160.659283 542.377622 161.213558 542.571329 161.767930 542.765035 162.322380 542.958741 162.876887 543.152448 163.431433 543.346154 163.985999 543.346154 514.000000" /></g></g><g class="titles"><text class="title plot_title" x="400.0" y="26">Nationnal-Stadium 50</text></g><g class="plot overlay" transform="translate(226, 46)"><g class="series serie-0 color-0"><g class="dots"><circle class="dot reactive tooltip-trigger" cx="10.653846153846153" cy="57.9751411355781" r="2.5" /><desc class="value">479000</desc><desc class="x ">10.653846153846153</desc><desc class="y ">57.9751411355781</desc><desc class="x_label">Jan</desc></g><g class="dots"><circle class="dot reactive tooltip-trigger" cx="59.08041958041958" cy="246.43888810036054" r="2.5" /><desc class="value">447000</desc><desc class="x ">59.08041958041958</desc><desc class="y ">246.43888810036054</desc><desc class="x_label">Feb</desc></g><g class="dots"><circle class="dot reactive tooltip-trigger" cx="107.506993006993" cy="40.306664857629755" r="2.5" /><desc class="value">482000</desc><desc class="x ">107.506993006993</desc><desc class="y ">40.306664857629755</desc><desc class="x_label">Mar</desc></g><g class="dots"><circle class="dot reactive tooltip-trigger" cx="155.93356643356643" cy="487.9080638989881" r="2.5" /><desc class="value">406000</desc><desc class="x top">155.93356643356643</desc><desc class="y top">487.9080638989881</desc><desc class="x_label">Apr</desc></g><g class="dots"><circle class="dot reactive tooltip-trigger" cx="204.36013986013987" cy="288.25428195817165" r="2.5" /><desc class="value">439900</desc><desc class="x top">204.36013986013987</desc><desc class="y top">288.25428195817165</desc><desc class="x_label">May</desc></g><g class="dots"><circle class="dot reactive tooltip-trigger" cx="252.78671328671325" cy="169.87549089591766" r="2.5" /><desc class="value">460000</desc><desc class="x ">252.78671328671325</desc><desc class="y ">169.87549089591766</desc><desc class="x_label">Jun</desc></g><g class="dots"><circle class="dot reactive tooltip-trigger" cx="301.2132867132867" cy="52.08564904292865" r="2.5" /><desc class="value">480000</desc><desc class="x left">301.2132867132867</desc><desc class="y left">52.08564904292865</desc><desc class="x_label">Jul</desc></g><g class="dots"><circle class="dot reactive tooltip-trigger" cx="349.6398601398601" cy="46.1961569502792" r="2.5" /><desc class="value">481000</desc><desc class="x left">349.6398601398601</desc><desc class="y left">46.1961569502792</desc><desc class="x_label">Aug</desc></g><g class="dots"><circle class="dot reactive tooltip-trigger" cx="398.06643356643355" cy="299.44431693420563" r="2.5" /><desc class="value">438000</desc><desc class="x left top">398.06643356643355</desc><desc class="y left top">299.44431693420563</desc><desc class="x_label">Sep</desc></g><g class="dots"><circle class="dot reactive tooltip-trigger" cx="446.493006993007" cy="198.7340021499" r="2.5" /><desc class="value">455100</desc><desc class="x left">446.493006993007</desc><desc class="y left">198.7340021499</desc><desc class="x_label">Oct</desc></g><g class="dots"><circle class="dot reactive tooltip-trigger" cx="494.9195804195804" cy="75.64361741352644" r="2.5" /><desc class="value">476000</desc><desc class="x left">494.9195804195804</desc><desc class="y left">75.64361741352644</desc><desc class="x_label">Nov</desc></g><g class="dots"><circle class="dot reactive tooltip-trigger" cx="543.3461538461538" cy="163.98599880326822" r="2.5" /><desc class="value">461000</desc><desc class="x left">543.3461538461538</desc><desc class="y left">163.98599880326822</desc><desc class="x_label">Dec</desc></g></g></g><g class="plot text-overlay" transform="translate(226, 46)"><g class="series serie-0 color-0" /></g><g class="plot tooltip-overlay" transform="translate(226, 46)"><g class="tooltip" style="opacity: 0" transform="translate(0 0)"><rect class="tooltip-box" height="0" rx="0" ry="0" width="0" /><g class="text" /></g></g><g class="legends" transform="translate(10, 56)"><g class="legend reactive activate-serie" id="activate-serie-0"><rect class="color-0 reactive" height="12" width="12" x="0.0" y="1.0" /><text x="17.0" y="11.2">Nationnal-Stad…</text><title>Nationnal-Stadium</title></g></g><g class="legends" transform="translate(790, 56)" /></g></svg>