<?xml version='1.0' encoding='utf-8'?>
<svg xmlns:xlink="http://www.w3.org/1999/xlink" class="pygal-chart" id="chart-6c0c48e7-678e-4124-8df6-ca0002570857" viewBox="0 0 800 600" xmlns="http://www.w3.org/2000/svg"><!--Generated with pygal 2.0.11 (etree) ©Kozea 2011-2015 on 2015-12-10--><!--http://pygal.org--><!--http://github.com/Kozea/pygal--><defs><style type="text/css">#chart-6c0c48e7-678e-4124-8df6-ca0002570857{-webkit-user-select:none;-webkit-font-smoothing:antialiased;font-family:Consolas,"Liberation Mono",Menlo,Courier,monospace}#chart-6c0c48e7-678e-4124-8df6-ca0002570857 .title{font-family:Consolas,"Liberation Mono",Menlo,Courier,monospace;font-size:16px}#chart-6c0c48e7-678e-4124-8df6-ca0002570857 .legends .legend text{font-family:Consolas,"Liberation Mono",Menlo,Courier,monospace;font-size:14px}#chart-6c0c48e7-678e-4124-8df6-ca0002570857 .axis text{font-family:Consolas,"Liberation Mono",Menlo,Courier,monospace;font-size:10px}#chart-6c0c48e7-678e-4124-8df6-ca0002570857 .axis text.major{font-family:Consolas,"Liberation Mono",Menlo,Courier,monospace;font-size:10px}#chart-6c0c48e7-678e-4124-8df6-ca0002570857 .text-overlay text.value{font-family:Consolas,"Liberation Mono",Menlo,Courier,monospace;font-size:16px}#chart-6c0c48e7-678e-4124-8df6-ca0002570857 .text-overlay text.label{font-family:Consolas,"Liberation Mono",Menlo,Courier,monospace;font-size:10px}#chart-6c0c48e7-678e-4124-8df6-ca0002570857 .tooltip{font-family:Consolas,"Liberation Mono",Menlo,Courier,monospace;font-size:14px}#chart-6c0c48e7-678e-4124-8df6-ca0002570857 text.no_data{font-family:Consolas,"Liberation Mono",Menlo,Courier,monospace;font-size:64px}
#chart-6c0c48e7-678e-4124-8df6-ca0002570857{background-color:black}#chart-6c0c48e7-678e-4124-8df6-ca0002570857 path,#chart-6c0c48e7-678e-4124-8df6-ca0002570857 line,#chart-6c0c48e7-678e-4124-8df6-ca0002570857 rect,#chart-6c0c48e7-678e-4124-8df6-ca0002570857 circle{-webkit-transition:250ms;-moz-transition:250ms;transition:250ms}#chart-6c0c48e7-678e-4124-8df6-ca0002570857 .graph &gt; .background{fill:black}#chart-6c0c48e7-678e-4124-8df6-ca0002570857 .plot &gt; .background{fill:#111}#chart-6c0c48e7-678e-4124-8df6-ca0002570857 .graph{fill:#999}#chart-6c0c48e7-678e-4124-8df6-ca0002570857 text.no_data{fill:#eee}#chart-6c0c48e7-678e-4124-8df6-ca0002570857 .title{fill:#eee}#chart-6c0c48e7-678e-4124-8df6-ca0002570857 .legends .legend text{fill:#999}#chart-6c0c48e7-678e-4124-8df6-ca0002570857 .legends .legend:hover text{fill:#eee}#chart-6c0c48e7-678e-4124-8df6-ca0002570857 .axis .line{stroke:#eee}#chart-6c0c48e7-678e-4124-8df6-ca0002570857 .axis .guide.line{stroke:#555}#chart-6c0c48e7-678e-4124-8df6-ca0002570857 .axis .major.line{stroke:#999}#chart-6c0c48e7-678e-4124-8df6-ca0002570857 .axis text.major{fill:#eee}#chart-6c0c48e7-678e-4124-8df6-ca0002570857 .axis.y .guides:hover .guide.line,#chart-6c0c48e7-678e-4124-8df6-ca0002570857 .line-graph .axis.x .guides:hover .guide.line,#chart-6c0c48e7-678e-4124-8df6-ca0002570857 .stackedline-graph .axis.x .guides:hover .guide.line,#chart-6c0c48e7-678e-4124-8df6-ca0002570857 .xy-graph .axis.x .guides:hover .guide.line{stroke:#eee}#chart-6c0c48e7-678e-4124-8df6-ca0002570857 .axis .guides:hover text{fill:#eee}#chart-6c0c48e7-678e-4124-8df6-ca0002570857 .reactive{fill-opacity:.8}#chart-6c0c48e7-678e-4124-8df6-ca0002570857 .reactive.active,#chart-6c0c48e7-678e-4124-8df6-ca0002570857 .active .reactive{fill-opacity:.4;stroke-width:4}#chart-6c0c48e7-678e-4124-8df6-ca0002570857 .series text{fill:#eee}#chart-6c0c48e7-678e-4124-8df6-ca0002570857 .tooltip rect{fill:#111;stroke:#eee;-webkit-transition:opacity 250ms;-moz-transition:opacity 250ms;transition:opacity 250ms}#chart-6c0c48e7-678e-4124-8df6-ca0002570857 .tooltip .label{fill:#999}#chart-6c0c48e7-678e-4124-8df6-ca0002570857 .tooltip .label{fill:#999}#chart-6c0c48e7-678e-4124-8df6-ca0002570857 .tooltip .legend{font-size:.8em;fill:#555}#chart-6c0c48e7-678e-4124-8df6-ca0002570857 .tooltip .x_label{font-size:.6em;fill:#eee}#chart-6c0c48e7-678e-4124-8df6-ca0002570857 .tooltip .xlink{font-size:.5em;text-decoration:underline}#chart-6c0c48e7-678e-4124-8df6-ca0002570857 .tooltip .value{font-size:1.5em}#chart-6c0c48e7-678e-4124-8df6-ca0002570857 .map-element{fill:#111;stroke:#555 !important}#chart-6c0c48e7-678e-4124-8df6-ca0002570857 .map-element .reactive{fill-opacity:inherit}#chart-6c0c48e7-678e-4124-8df6-ca0002570857 .color-0,#chart-6c0c48e7-678e-4124-8df6-ca0002570857 .color-0 a:visited{stroke:#ff5995;fill:#ff5995}#chart-6c0c48e7-678e-4124-8df6-ca0002570857 .text-overlay .color-0 text{fill:black}
#chart-6c0c48e7-678e-4124-8df6-ca0002570857 text.no_data{text-anchor:middle}#chart-6c0c48e7-678e-4124-8df6-ca0002570857 .guide.line{fill:none}#chart-6c0c48e7-678e-4124-8df6-ca0002570857 .centered{text-anchor:middle}#chart-6c0c48e7-678e-4124-8df6-ca0002570857 .title{text-anchor:middle}#chart-6c0c48e7-678e-4124-8df6-ca0002570857 .legends .legend text{fill-opacity:1}#chart-6c0c48e7-678e-4124-8df6-ca0002570857 .axis.x text{text-anchor:middle}#chart-6c0c48e7-678e-4124-8df6-ca0002570857 .axis.x:not(.web) text[transform]{text-anchor:start}#chart-6c0c48e7-678e-4124-8df6-ca0002570857 .axis.x:not(.web) text[transform].backwards{text-anchor:end}#chart-6c0c48e7-678e-4124-8df6-ca0002570857 .axis.y text{text-anchor:end}#chart-6c0c48e7-678e-4124-8df6-ca0002570857 .axis.y text[transform].backwards{text-anchor:start}#chart-6c0c48e7-678e-4124-8df6-ca0002570857 .axis.y2 text{text-anchor:start}#chart-6c0c48e7-678e-4124-8df6-ca0002570857 .axis.y2 text[transform].backwards{text-anchor:end}#chart-6c0c48e7-678e-4124-8df6-ca0002570857 .axis .guide.line{stroke-dasharray:4,4}#chart-6c0c48e7-678e-4124-8df6-ca0002570857 .axis .major.guide.line{stroke-dasharray:6,6}#chart-6c0c48e7-678e-4124-8df6-ca0002570857 .horizontal .axis.y .guide.line,#chart-6c0c48e7-678e-4124-8df6-ca0002570857 .horizontal .axis.y2 .guide.line,#chart-6c0c48e7-678e-4124-8df6-ca0002570857 .vertical .axis.x .guide.line{opacity:0}#chart-6c0c48e7-678e-4124-8df6-ca0002570857 .horizontal .axis.always_show .guide.line,#chart-6c0c48e7-678e-4124-8df6-ca0002570857 .vertical .axis.always_show .guide.line{opacity:1 !important}#chart-6c0c48e7-678e-4124-8df6-ca0002570857 .axis.y .guides:hover .guide.line,#chart-6c0c48e7-678e-4124-8df6-ca0002570857 .axis.y2 .guides:hover .guide.line,#chart-6c0c48e7-678e-4124-8df6-ca0002570857 .axis.x .guides:hover .guide.line{opacity:1}#chart-6c0c48e7-678e-4124-8df6-ca0002570857 .axis .guides:hover text{opacity:1}#chart-6c0c48e7-678e-4124-8df6-ca0002570857 .nofill{fill:none}#chart-6c0c48e7-678e-4124-8df6-ca0002570857 .subtle-fill{fill-opacity:.2}#chart-6c0c48e7-678e-4124-8df6-ca0002570857 .dot{stroke-width:1px;fill-opacity:1}#chart-6c0c48e7-678e-4124-8df6-ca0002570857 .dot.active{stroke-width:5px}#chart-6c0c48e7-678e-4124-8df6-ca0002570857 .dot.negative{fill:transparent}#chart-6c0c48e7-678e-4124-8df6-ca0002570857 text,#chart-6c0c48e7-678e-4124-8df6-ca0002570857 tspan{stroke:none !important}#chart-6c0c48e7-678e-4124-8df6-ca0002570857 .series text.active{opacity:1}#chart-6c0c48e7-678e-4124-8df6-ca0002570857 .tooltip rect{fill-opacity:.95;stroke-width:.5}#chart-6c0c48e7-678e-4124-8df6-ca0002570857 .tooltip text{fill-opacity:1}#chart-6c0c48e7-678e-4124-8df6-ca0002570857 .showable{visibility:hidden}#chart-6c0c48e7-678e-4124-8df6-ca0002570857 .showable.shown{visibility:visible}</style><script type="text/javascript">window.pygal = window.pygal || {};window.pygal.config = window.pygal.config || {};window.pygal.config['6c0c48e7-678e-4124-8df6-ca0002570857'] = {"css": ["file://style.css", "file://graph.css"], "legend_at_bottom": false, "stroke_style": null, "missing_value_fill_truncation": "x", "tooltip_border_radius": 0, "inner_radius": 0, "min_scale": 4, "show_x_guides": false, "y_label_rotation": 0, "show_only_major_dots": false, "interpolation_precision": 250, "margin_right": null, "x_label_rotation": 0, "dynamic_print_values": false, "margin_top": null, "x_labels_major_count": null, "js": ["//kozea.github.io/pygal.js/2.0.x/pygal-tooltips.min.js"], "interpolation_parameters": {}, "no_prefix": false, "title": "Ratchadamri 50", "x_labels": ["Jan", "Feb", "Mar", "Apr", "May", "Jun", "Jul", "Aug", "Sep", "Oct", "Nov", "Dec"], "width": 800, "range": null, "show_y_guides": true, "truncate_legend": null, "force_uri_protocol": null, "x_title": null, "interpolate": "cubic", "fill": true, "print_zeroes": true, "margin_left": null, "legend_box_size": 12, "show_minor_y_labels": true, "logarithmic": false, "legend_at_bottom_columns": null, "value_formatter": null, "stroke": true, "margin_bottom": null, "pretty_print": false, "show_minor_x_labels": true, "y_labels_major_count": null, "disable_xml_declaration": false, "y_labels_major_every": null, "truncate_label": null, "stack_from_top": false, "defs": [], "human_readable": false, "include_x_axis": false, "show_legend": true, "tooltip_fancy_mode": true, "y_title": null, "style": {"tooltip_font_size": 14, "major_label_font_family": "Consolas, \"Liberation Mono\", Menlo, Courier, monospace", "value_font_family": "Consolas, \"Liberation Mono\", Menlo, Courier, monospace", "foreground": "#999", "tooltip_font_family": "Consolas, \"Liberation Mono\", Menlo, Courier, monospace", "opacity": ".8", "font_family": "Consolas, \"Liberation Mono\", Menlo, Courier, monospace", "foreground_subtle": "#555", "colors": ["#ff5995", "#b6e354", "#feed6c", "#8cedff", "#9e6ffe", "#899ca1", "#f8f8f2", "#bf4646", "#516083", "#f92672", "#82b414", "#fd971f", "#56c2d6", "#808384", "#8c54fe", "#465457"], "foreground_strong": "#eee", "no_data_font_size": 64, "opacity_hover": ".4", "plot_background": "#111", "value_font_size": 16, "legend_font_family": "Consolas, \"Liberation Mono\", Menlo, Courier, monospace", "value_label_font_size": 10, "major_guide_stroke_dasharray": "6,6", "legend_font_size": 14, "label_font_family": "Consolas, \"Liberation Mono\", Menlo, Courier, monospace", "label_font_size": 10, "transition": "250ms", "title_font_size": 16, "value_label_font_family": "Consolas, \"Liberation Mono\", Menlo, Courier, monospace", "background": "black", "title_font_family": "Consolas, \"Liberation Mono\", Menlo, Courier, monospace", "value_colors": [], "no_data_font_family": "Consolas, \"Liberation Mono\", Menlo, Courier, monospace", "guide_stroke_dasharray": "4,4", "major_label_font_size": 10}, "strict": false, "xrange": null, "rounded_bars": null, "x_labels_major": null, "dots_size": 2.5, "show_dots": true, "order_min": null, "no_data_text": "No data", "y_labels": null, "print_labels": false, "spacing": 10, "y_labels_major": null, "print_values": false, "legends": ["Ratchadamri"], "zero": 0, "height": 600, "margin": 20, "box_mode": "extremes", "show_y_labels": true, "inverse_y_axis": false, "max_scale": 16, "show_x_labels": true, "explicit_size": false, "x_value_formatter": null, "secondary_range": null, "x_labels_major_every": null, "half_pie": false}</script><script type="text/javascript" xlink:href="//kozea.github.io/pygal.js/2.0.x/pygal-tooltips.min.js" /></defs><title>Ratchadamri 50</title><g class="graph line-graph vertical"><rect class="background" height="600" width="800" x="0" y="0" /><g class="plot" transform="translate(192, 46)"><rect class="background" height="514" width="587.6" x="0" y="0" /><g class="axis y"><path class="line" d="M0.000000 514.000000 h587.600000" /><g class="guides"><path class="guide line" d="M0.000000 503.925460 h587.600000" /><text class="" x="-5" y="507.425460401012">92000.0</text><title>92000.0</title></g><g class="guides"><path class="guide line" d="M0.000000 471.559046 h587.600000" /><text class="" x="-5" y="475.0590460386154">94000.0</text><title>94000.0</title></g><g class="guides"><path class="guide line" d="M0.000000 439.192632 h587.600000" /><text class="" x="-5" y="442.69263167621887">96000.0</text><title>96000.0</title></g><g class="guides"><path class="guide line" d="M0.000000 406.826217 h587.600000" /><text class="" x="-5" y="410.32621731382227">98000.0</text><title>98000.0</title></g><g class="guides"><path class="major guide line" d="M0.000000 374.459803 h587.600000" /><text class="major" x="-5" y="377.9598029514257">100000.0</text><title>100000.0</title></g><g class="guides"><path class="guide line" d="M0.000000 342.093389 h587.600000" /><text class="" x="-5" y="345.5933885890291">102000.0</text><title>102000.0</title></g><g class="guides"><path class="guide line" d="M0.000000 309.726974 h587.600000" /><text class="" x="-5" y="313.2269742266325">104000.0</text><title>104000.0</title></g><g class="guides"><path class="guide line" d="M0.000000 277.360560 h587.600000" /><text class="" x="-5" y="280.86055986423594">106000.0</text><title>106000.0</title></g><g class="guides"><path class="guide line" d="M0.000000 244.994146 h587.600000" /><text class="" x="-5" y="248.49414550183934">108000.0</text><title>108000.0</title></g><g class="guides"><path class="major guide line" d="M0.000000 212.627731 h587.600000" /><text class="major" x="-5" y="216.12773113944274">110000.0</text><title>110000.0</title></g><g class="guides"><path class="guide line" d="M0.000000 180.261317 h587.600000" /><text class="" x="-5" y="183.76131677704615">112000.0</text><title>112000.0</title></g><g class="guides"><path class="guide line" d="M0.000000 147.894902 h587.600000" /><text class="" x="-5" y="151.39490241464955">114000.0</text><title>114000.0</title></g><g class="guides"><path class="guide line" d="M0.000000 115.528488 h587.600000" /><text class="" x="-5" y="119.02848805225295">116000.0</text><title>116000.0</title></g><g class="guides"><path class="guide line" d="M0.000000 83.162074 h587.600000" /><text class="" x="-5" y="86.66207368985641">118000.0</text><title>118000.0</title></g><g class="guides"><path class="major guide line" d="M0.000000 50.795659 h587.600000" /><text class="major" x="-5" y="54.295659327459816">120000.0</text><title>120000.0</title></g><g class="guides"><path class="guide line" d="M0.000000 18.429245 h587.600000" /><text class="" x="-5" y="21.92924496506322">122000.0</text><title>122000.0</title></g></g><g class="axis x"><g class="guides"><path class="line" d="M11.300000 0.000000 v514.000000" /><text class="" x="11.3" y="529.0">Jan</text></g><g class="guides"><path class="guide line" d="M62.663636 0.000000 v514.000000" /><text class="" x="62.66363636363637" y="529.0">Feb</text></g><g class="guides"><path class="guide line" d="M114.027273 0.000000 v514.000000" /><text class="" x="114.02727272727273" y="529.0">Mar</text></g><g class="guides"><path class="guide line" d="M165.390909 0.000000 v514.000000" /><text class="" x="165.39090909090908" y="529.0">Apr</text></g><g class="guides"><path class="guide line" d="M216.754545 0.000000 v514.000000" /><text class="" x="216.75454545454548" y="529.0">May</text></g><g class="guides"><path class="guide line" d="M268.118182 0.000000 v514.000000" /><text class="" x="268.1181818181818" y="529.0">Jun</text></g><g class="guides"><path class="guide line" d="M319.481818 0.000000 v514.000000" /><text class="" x="319.4818181818182" y="529.0">Jul</text></g><g class="guides"><path class="guide line" d="M370.845455 0.000000 v514.000000" /><text class="" x="370.8454545454546" y="529.0">Aug</text></g><g class="guides"><path class="guide line" d="M422.209091 0.000000 v514.000000" /><text class="" x="422.20909090909095" y="529.0">Sep</text></g><g class="guides"><path class="guide line" d="M473.572727 0.000000 v514.000000" /><text class="" x="473.5727272727273" y="529.0">Oct</text></g><g class="guides"><path class="guide line" d="M524.936364 0.000000 v514.000000" /><text class="" x="524.9363636363636" y="529.0">Nov</text></g><g class="guides"><path class="guide line" d="M576.300000 0.000000 v514.000000" /><text class="" x="576.3000000000001" y="529.0">Dec</text></g></g><g class="series serie-0 color-0"><path class="line reactive" d="M11.300000 514.000000 L11.300000 102.581922 11.505455 103.241268 11.710909 103.900581 11.916364 104.559827 12.121818 105.218972 12.327273 105.877983 12.532727 106.536828 12.738182 107.195471 12.943636 107.853880 13.149091 108.512021 13.354545 109.169861 13.560000 109.827366 13.765455 110.484503 13.970909 111.141239 14.176364 111.797539 14.381818 112.453371 14.587273 113.108701 14.792727 113.763495 14.998182 114.417721 15.203636 115.071344 15.409091 115.724331 15.614545 116.376648 15.820000 117.028263 16.025455 117.679142 16.230909 118.329250 16.436364 118.978556 16.641818 119.627025 16.847273 120.274623 17.052727 120.921318 17.258182 121.567076 17.463636 122.211863 17.669091 122.855646 17.874545 123.498391 18.080000 124.140066 18.285455 124.780636 18.490909 125.420068 18.696364 126.058329 18.901818 126.695385 19.107273 127.331202 19.312727 127.965748 19.518182 128.598988 19.723636 129.230890 19.929091 129.861419 20.134545 130.490543 20.340000 131.118228 20.545455 131.744439 20.750909 132.369145 20.956364 132.992312 21.161818 133.613905 21.367273 134.233891 21.572727 134.852238 21.778182 135.468911 21.983636 136.083878 22.189091 136.697104 22.394545 137.308556 22.600000 137.918201 22.805455 138.526005 23.010909 139.131935 23.216364 139.735957 23.421818 140.338038 23.627273 140.938144 23.832727 141.536242 24.038182 142.132298 24.243636 142.726280 24.449091 143.318153 24.654545 143.907883 24.860000 144.495439 25.065455 145.080785 25.270909 145.663889 25.476364 146.244717 25.681818 146.823236 25.887273 147.399412 26.092727 147.973212 26.298182 148.544602 26.503636 149.113548 26.709091 149.680018 26.914545 150.243978 27.120000 150.805394 27.325455 151.364233 27.530909 151.920462 27.736364 152.474046 27.941818 153.024953 28.147273 153.573149 28.352727 154.118601 28.558182 154.661274 28.763636 155.201137 28.969091 155.738154 29.174545 156.272293 29.380000 156.803520 29.585455 157.331802 29.790909 157.857105 29.996364 158.379397 30.201818 158.898642 30.407273 159.414808 30.612727 159.927862 30.818182 160.437769 31.023636 160.944497 31.229091 161.448013 31.434545 161.948281 31.640000 162.445270 31.845455 162.938945 32.050909 163.429273 32.256364 163.916221 32.461818 164.399755 32.667273 164.879842 32.872727 165.356448 33.078182 165.829540 33.283636 166.299084 33.489091 166.765047 33.694545 167.227395 33.900000 167.686095 34.105455 168.141114 34.310909 168.592418 34.516364 169.039973 34.721818 169.483746 34.927273 169.923703 35.132727 170.359812 35.338182 170.792038 35.543636 171.220349 35.749091 171.644710 35.954545 172.065088 36.160000 172.481450 36.365455 172.893763 36.570909 173.301992 36.776364 173.706104 36.981818 174.106067 37.187273 174.501846 37.392727 174.893407 37.598182 175.280718 37.803636 175.663745 38.009091 176.042455 38.214545 176.416814 38.420000 176.786788 38.625455 177.152344 38.830909 177.513449 39.036364 177.870069 39.241818 178.222171 39.447273 178.569721 39.652727 178.912686 39.858182 179.251032 40.063636 179.584726 40.269091 179.913734 40.474545 180.238024 40.680000 180.557560 40.885455 180.872311 41.090909 181.182242 41.296364 181.487320 41.501818 181.787512 41.707273 182.082783 41.912727 182.373102 42.118182 182.658433 42.323636 182.938744 42.529091 183.214001 42.734545 183.484171 42.940000 183.749221 43.145455 184.009116 43.350909 184.263823 43.556364 184.513309 43.761818 184.757541 43.967273 184.996485 44.172727 185.230107 44.378182 185.458374 44.583636 185.681252 44.789091 185.898709 44.994545 186.110710 45.200000 186.317222 45.405455 186.518212 45.610909 186.713646 45.816364 186.903491 46.021818 187.087713 46.227273 187.266279 46.432727 187.439155 46.638182 187.606307 46.843636 187.767704 47.049091 187.923310 47.254545 188.073092 47.460000 188.217018 47.665455 188.355053 47.870909 188.487164 48.076364 188.613317 48.281818 188.733480 48.487273 188.847618 48.692727 188.955698 48.898182 189.057687 49.103636 189.153551 49.309091 189.243257 49.514545 189.326771 49.720000 189.404060 49.925455 189.475090 50.130909 189.539828 50.336364 189.598241 50.541818 189.650294 50.747273 189.695955 50.952727 189.735190 51.158182 189.767965 51.363636 189.794247 51.569091 189.814003 51.774545 189.827199 51.980000 189.833802 52.185455 189.833778 52.390909 189.827093 52.596364 189.813715 52.801818 189.793610 53.007273 189.766743 53.212727 189.733083 53.418182 189.692595 53.623636 189.645246 53.829091 189.591002 54.034545 189.529830 54.240000 189.461697 54.445455 189.386569 54.650909 189.304412 54.856364 189.215193 55.061818 189.118879 55.267273 189.015436 55.472727 188.904830 55.678182 188.787029 55.883636 188.661999 56.089091 188.529706 56.294545 188.390116 56.500000 188.243197 56.705455 188.088915 56.910909 187.927236 57.116364 187.758127 57.321818 187.581555 57.527273 187.397485 57.732727 187.205885 57.938182 187.006721 58.143636 186.799960 58.349091 186.585568 58.554545 186.363511 58.760000 186.133756 58.965455 185.896270 59.170909 185.651020 59.376364 185.397971 59.581818 185.137090 59.787273 184.868345 59.992727 184.591700 60.198182 184.307124 60.403636 184.014581 60.609091 183.714040 60.814545 183.405467 61.020000 183.088827 61.225455 182.764088 61.430909 182.431216 61.636364 182.090177 61.841818 181.740939 62.047273 181.383467 62.252727 181.017728 62.458182 180.643689 62.663636 180.261317 62.869091 179.870601 63.074545 179.471631 63.280000 179.064519 63.485455 178.649378 63.690909 178.226320 63.896364 177.795459 64.101818 177.356906 64.307273 176.910774 64.512727 176.457177 64.718182 175.996226 64.923636 175.528034 65.129091 175.052715 65.334545 174.570380 65.540000 174.081143 65.745455 173.585115 65.950909 173.082411 66.156364 172.573141 66.361818 172.057420 66.567273 171.535359 66.772727 171.007071 66.978182 170.472670 67.183636 169.932267 67.389091 169.385975 67.594545 168.833907 67.800000 168.276176 68.005455 167.712894 68.210909 167.144173 68.416364 166.570128 68.621818 165.990869 68.827273 165.406511 69.032727 164.817165 69.238182 164.222944 69.443636 163.623961 69.649091 163.020329 69.854545 162.412159 70.060000 161.799566 70.265455 161.182661 70.470909 160.561557 70.676364 159.936367 70.881818 159.307203 71.087273 158.674178 71.292727 158.037406 71.498182 157.396997 71.703636 156.753066 71.909091 156.105724 72.114545 155.455085 72.320000 154.801261 72.525455 154.144364 72.730909 153.484508 72.936364 152.821805 73.141818 152.156368 73.347273 151.488309 73.552727 150.817741 73.758182 150.144777 73.963636 149.469529 74.169091 148.792110 74.374545 148.112632 74.580000 147.431209 74.785455 146.747953 74.990909 146.062976 75.196364 145.376392 75.401818 144.688313 75.607273 143.998851 75.812727 143.308119 76.018182 142.616231 76.223636 141.923298 76.429091 141.229433 76.634545 140.534749 76.840000 139.839358 77.045455 139.143374 77.250909 138.446909 77.456364 137.750075 77.661818 137.052985 77.867273 136.355752 78.072727 135.658488 78.278182 134.961307 78.483636 134.264321 78.689091 133.567642 78.894545 132.871383 79.100000 132.175656 79.305455 131.480576 79.510909 130.786253 79.716364 130.092801 79.921818 129.400332 80.127273 128.708960 80.332727 128.018796 80.538182 127.329954 80.743636 126.642545 80.949091 125.956684 81.154545 125.272481 81.360000 124.590051 81.565455 123.909505 81.770909 123.230957 81.976364 122.554519 82.181818 121.880303 82.387273 121.208423 82.592727 120.538990 82.798182 119.872119 83.003636 119.207920 83.209091 118.546507 83.414545 117.887993 83.620000 117.232491 83.825455 116.580112 84.030909 115.930969 84.236364 115.285176 84.441818 114.642845 84.647273 114.004088 84.852727 113.369019 85.058182 112.737749 85.263636 112.110392 85.469091 111.487060 85.674545 110.867866 85.880000 110.252922 86.085455 109.642342 86.290909 109.036237 86.496364 108.434721 86.701818 107.837906 86.907273 107.245905 87.112727 106.658830 87.318182 106.076794 87.523636 105.499910 87.729091 104.928290 87.934545 104.362048 88.140000 103.801295 88.345455 103.246144 88.550909 102.696709 88.756364 102.153101 88.961818 101.615434 89.167273 101.083820 89.372727 100.558371 89.578182 100.039200 89.783636 99.526421 89.989091 99.020145 90.194545 98.520486 90.400000 98.027556 90.605455 97.541467 90.810909 97.062332 91.016364 96.590265 91.221818 96.125377 91.427273 95.667781 91.632727 95.217590 91.838182 94.774917 92.043636 94.339874 92.249091 93.912574 92.454545 93.493129 92.660000 93.081653 92.865455 92.678257 93.070909 92.283055 93.276364 91.896159 93.481818 91.517682 93.687273 91.147737 93.892727 90.786435 94.098182 90.433891 94.303636 90.090216 94.509091 89.755523 94.714545 89.429924 94.920000 89.113534 95.125455 88.806463 95.330909 88.508825 95.536364 88.220733 95.741818 87.942298 95.947273 87.673635 96.152727 87.414854 96.358182 87.166070 96.563636 86.927394 96.769091 86.698940 96.974545 86.480820 97.180000 86.273147 97.385455 86.076033 97.590909 85.889590 97.796364 85.713933 98.001818 85.549173 98.207273 85.395423 98.412727 85.252795 98.618182 85.121403 98.823636 85.001359 99.029091 84.892775 99.234545 84.795764 99.440000 84.710440 99.645455 84.636914 99.850909 84.575299 100.056364 84.525708 100.261818 84.488254 100.467273 84.463049 100.672727 84.450206 100.878182 84.449837 101.083636 84.462055 101.289091 84.486974 101.494545 84.524705 101.700000 84.575361 101.905455 84.639054 102.110909 84.715899 102.316364 84.806006 102.521818 84.909489 102.727273 85.026461 102.932727 85.157034 103.138182 85.301320 103.343636 85.459433 103.549091 85.631485 103.754545 85.817589 103.960000 86.017857 104.165455 86.232403 104.370909 86.461337 104.576364 86.704775 104.781818 86.962827 104.987273 87.235607 105.192727 87.523228 105.398182 87.825801 105.603636 88.143440 105.809091 88.476257 106.014545 88.824366 106.220000 89.187878 106.425455 89.566906 106.630909 89.961563 106.836364 90.371962 107.041818 90.798215 107.247273 91.240435 107.452727 91.698735 107.658182 92.173226 107.863636 92.664023 108.069091 93.171237 108.274545 93.694982 108.480000 94.235369 108.685455 94.792512 108.890909 95.366523 109.096364 95.957515 109.301818 96.565601 109.507273 97.190892 109.712727 97.833503 109.918182 98.493545 110.123636 99.171131 110.329091 99.866374 110.534545 100.579386 110.740000 101.310281 110.945455 102.059170 111.150909 102.826166 111.356364 103.611383 111.561818 104.414933 111.767273 105.236928 111.972727 106.077480 112.178182 106.936704 112.383636 107.814711 112.589091 108.711614 112.794545 109.627526 113.000000 110.562559 113.205455 111.516826 113.410909 112.490440 113.616364 113.483513 113.821818 114.496158 114.027273 115.528488 114.232727 116.580565 114.438182 117.652251 114.643636 118.743357 114.849091 119.853695 115.054545 120.983076 115.260000 122.131312 115.465455 123.298215 115.670909 124.483595 115.876364 125.687266 116.081818 126.909037 116.287273 128.148721 116.492727 129.406128 116.698182 130.681072 116.903636 131.973362 117.109091 133.282811 117.314545 134.609231 117.520000 135.952432 117.725455 137.312226 117.930909 138.688425 118.136364 140.080840 118.341818 141.489283 118.547273 142.913566 118.752727 144.353499 118.958182 145.808895 119.163636 147.279564 119.369091 148.765319 119.574545 150.265971 119.780000 151.781331 119.985455 153.311211 120.190909 154.855423 120.396364 156.413778 120.601818 157.986088 120.807273 159.572163 121.012727 161.171816 121.218182 162.784859 121.423636 164.411102 121.629091 166.050357 121.834545 167.702435 122.040000 169.367150 122.245455 171.044310 122.450909 172.733730 122.656364 174.435219 122.861818 176.148589 123.067273 177.873652 123.272727 179.610220 123.478182 181.358103 123.683636 183.117114 123.889091 184.887064 124.094545 186.667764 124.300000 188.459026 124.505455 190.260662 124.710909 192.072483 124.916364 193.894301 125.121818 195.725927 125.327273 197.567172 125.532727 199.417848 125.738182 201.277767 125.943636 203.146741 126.149091 205.024580 126.354545 206.911096 126.560000 208.806101 126.765455 210.709407 126.970909 212.620824 127.176364 214.540164 127.381818 216.467240 127.587273 218.401862 127.792727 220.343842 127.998182 222.292991 128.203636 224.249121 128.409091 226.212044 128.614545 228.181571 128.820000 230.157513 129.025455 232.139683 129.230909 234.127891 129.436364 236.121949 129.641818 238.121669 129.847273 240.126862 130.052727 242.137339 130.258182 244.152913 130.463636 246.173395 130.669091 248.198596 130.874545 250.228328 131.080000 252.262402 131.285455 254.300630 131.490909 256.342823 131.696364 258.388793 131.901818 260.438352 132.107273 262.491310 132.312727 264.547481 132.518182 266.606674 132.723636 268.668701 132.929091 270.733375 133.134545 272.800506 133.340000 274.869906 133.545455 276.941387 133.750909 279.014760 133.956364 281.089837 134.161818 283.166429 134.367273 285.244348 134.572727 287.323405 134.778182 289.403411 134.983636 291.484179 135.189091 293.565520 135.394545 295.647245 135.600000 297.729166 135.805455 299.811095 136.010909 301.892842 136.216364 303.974220 136.421818 306.055040 136.627273 308.135113 136.832727 310.214251 137.038182 312.292266 137.243636 314.368969 137.449091 316.444171 137.654545 318.517685 137.860000 320.589321 138.065455 322.658891 138.270909 324.726207 138.476364 326.791081 138.681818 328.853323 138.887273 330.912745 139.092727 332.969159 139.298182 335.022377 139.503636 337.072209 139.709091 339.118467 139.914545 341.160964 140.120000 343.199510 140.325455 345.233917 140.530909 347.263996 140.736364 349.289559 140.941818 351.310418 141.147273 353.326384 141.352727 355.337268 141.558182 357.342883 141.763636 359.343039 141.969091 361.337548 142.174545 363.326222 142.380000 365.308872 142.585455 367.285310 142.790909 369.255347 142.996364 371.218795 143.201818 373.175465 143.407273 375.125169 143.612727 377.067718 143.818182 379.002924 144.023636 380.930599 144.229091 382.850553 144.434545 384.762599 144.640000 386.666548 144.845455 388.562211 145.050909 390.449400 145.256364 392.327927 145.461818 394.197603 145.667273 396.058239 145.872727 397.909648 146.078182 399.751640 146.283636 401.584027 146.489091 403.406621 146.694545 405.219233 146.900000 407.021675 147.105455 408.813758 147.310909 410.595294 147.516364 412.366094 147.721818 414.125971 147.927273 415.874734 148.132727 417.612196 148.338182 419.338169 148.543636 421.052464 148.749091 422.754892 148.954545 424.445265 149.160000 426.123394 149.365455 427.789092 149.570909 429.442169 149.776364 431.082437 149.981818 432.709708 150.187273 434.323793 150.392727 435.924504 150.598182 437.511651 150.803636 439.085048 151.009091 440.644505 151.214545 442.189833 151.420000 443.720845 151.625455 445.237351 151.830909 446.739164 152.036364 448.226095 152.241818 449.697955 152.447273 451.154556 152.652727 452.595709 152.858182 454.021226 153.063636 455.430919 153.269091 456.824599 153.474545 458.202077 153.680000 459.563166 153.885455 460.907675 154.090909 462.235418 154.296364 463.546206 154.501818 464.839850 154.707273 466.116161 154.912727 467.374952 155.118182 468.616033 155.323636 469.839217 155.529091 471.044314 155.734545 472.231137 155.940000 473.399496 156.145455 474.549204 156.350909 475.680072 156.556364 476.791911 156.761818 477.884533 156.967273 478.957749 157.172727 480.011371 157.378182 481.045211 157.583636 482.059080 157.789091 483.052790 157.994545 484.026151 158.200000 484.978976 158.405455 485.911076 158.610909 486.822263 158.816364 487.712348 159.021818 488.581143 159.227273 489.428459 159.432727 490.254107 159.638182 491.057900 159.843636 491.839649 160.049091 492.599165 160.254545 493.336259 160.460000 494.050745 160.665455 494.742432 160.870909 495.411132 161.076364 496.056657 161.281818 496.678819 161.487273 497.277429 161.692727 497.852298 161.898182 498.403239 162.103636 498.930062 162.309091 499.432579 162.514545 499.910601 162.720000 500.363941 162.925455 500.792409 163.130909 501.195818 163.336364 501.573978 163.541818 501.926702 163.747273 502.253800 163.952727 502.555085 164.158182 502.830367 164.363636 503.079459 164.569091 503.302171 164.774545 503.498316 164.980000 503.667705 165.185455 503.810149 165.390909 503.925460 165.596364 504.013509 165.801818 504.074402 166.007273 504.108305 166.212727 504.115385 166.418182 504.095806 166.623636 504.049734 166.829091 503.977337 167.034545 503.878779 167.240000 503.754226 167.445455 503.603844 167.650909 503.427799 167.856364 503.226256 168.061818 502.999383 168.267273 502.747344 168.472727 502.470305 168.678182 502.168432 168.883636 501.841891 169.089091 501.490848 169.294545 501.115469 169.500000 500.715920 169.705455 500.292365 169.910909 499.844972 170.116364 499.373906 170.321818 498.879333 170.527273 498.361419 170.732727 497.820330 170.938182 497.256230 171.143636 496.669287 171.349091 496.059667 171.554545 495.427534 171.760000 494.773055 171.965455 494.096396 172.170909 493.397722 172.376364 492.677200 172.581818 491.934994 172.787273 491.171272 172.992727 490.386199 173.198182 489.579941 173.403636 488.752663 173.609091 487.904531 173.814545 487.035712 174.020000 486.146371 174.225455 485.236674 174.430909 484.306787 174.636364 483.356876 174.841818 482.387106 175.047273 481.397643 175.252727 480.388653 175.458182 479.360303 175.663636 478.312758 175.869091 477.246183 176.074545 476.160745 176.280000 475.056609 176.485455 473.933941 176.690909 472.792908 176.896364 471.633675 177.101818 470.456407 177.307273 469.261271 177.512727 468.048433 177.718182 466.818057 177.923636 465.570311 178.129091 464.305361 178.334545 463.023371 178.540000 461.724507 178.745455 460.408937 178.950909 459.076824 179.156364 457.728336 179.361818 456.363638 179.567273 454.982896 179.772727 453.586276 179.978182 452.173944 180.183636 450.746065 180.389091 449.302805 180.594545 447.844330 180.800000 446.370807 181.005455 444.882400 181.210909 443.379276 181.416364 441.861601 181.621818 440.329540 181.827273 438.783259 182.032727 437.222924 182.238182 435.648702 182.443636 434.060757 182.649091 432.459256 182.854545 430.844364 183.060000 429.216247 183.265455 427.575072 183.470909 425.921004 183.676364 424.254208 183.881818 422.574851 184.087273 420.883099 184.292727 419.179117 184.498182 417.463072 184.703636 415.735128 184.909091 413.995453 185.114545 412.244211 185.320000 410.481569 185.525455 408.707692 185.730909 406.922746 185.936364 405.126898 186.141818 403.320313 186.347273 401.503156 186.552727 399.675595 186.758182 397.837793 186.963636 395.989919 187.169091 394.132136 187.374545 392.264611 187.580000 390.387511 187.785455 388.501000 187.990909 386.605245 188.196364 384.700411 188.401818 382.786664 188.607273 380.864171 188.812727 378.933097 189.018182 376.993607 189.223636 375.045868 189.429091 373.090046 189.634545 371.126306 189.840000 369.154814 190.045455 367.175736 190.250909 365.189238 190.456364 363.195486 190.661818 361.194646 190.867273 359.186883 191.072727 357.172363 191.278182 355.151252 191.483636 353.123717 191.689091 351.089922 191.894545 349.050034 192.100000 347.004218 192.305455 344.952641 192.510909 342.895467 192.716364 340.832864 192.921818 338.764997 193.127273 336.692032 193.332727 334.614134 193.538182 332.531469 193.743636 330.444204 193.949091 328.352504 194.154545 326.256535 194.360000 324.156463 194.565455 322.052453 194.770909 319.944672 194.976364 317.833285 195.181818 315.718458 195.387273 313.600358 195.592727 311.479149 195.798182 309.354998 196.003636 307.228071 196.209091 305.098533 196.414545 302.966550 196.620000 300.832288 196.825455 298.695913 197.030909 296.557591 197.236364 294.417488 197.441818 292.275769 197.647273 290.132601 197.852727 287.988149 198.058182 285.842578 198.263636 283.696056 198.469091 281.548747 198.674545 279.400818 198.880000 277.252434 199.085455 275.103762 199.290909 272.954966 199.496364 270.806214 199.701818 268.657670 199.907273 266.509501 200.112727 264.361873 200.318182 262.214950 200.523636 260.068900 200.729091 257.923888 200.934545 255.780080 201.140000 253.637641 201.345455 251.496738 201.550909 249.357537 201.756364 247.220202 201.961818 245.084901 202.167273 242.951798 202.372727 240.821061 202.578182 238.692854 202.783636 236.567343 202.989091 234.444695 203.194545 232.325075 203.400000 230.208649 203.605455 228.095582 203.810909 225.986042 204.016364 223.880193 204.221818 221.778201 204.427273 219.680233 204.632727 217.586453 204.838182 215.497029 205.043636 213.412125 205.249091 211.331908 205.454545 209.256543 205.660000 207.186197 205.865455 205.121035 206.070909 203.061222 206.276364 201.006926 206.481818 198.958311 206.687273 196.915544 206.892727 194.878790 207.098182 192.848215 207.303636 190.823986 207.509091 188.806267 207.714545 186.795225 207.920000 184.791026 208.125455 182.793835 208.330909 180.803818 208.536364 178.821141 208.741818 176.845971 208.947273 174.878472 209.152727 172.918811 209.358182 170.967153 209.563636 169.023665 209.769091 167.088512 209.974545 165.161860 210.180000 163.243875 210.385455 161.334723 210.590909 159.434569 210.796364 157.543579 211.001818 155.661920 211.207273 153.789757 211.412727 151.927256 211.618182 150.074583 211.823636 148.231903 212.029091 146.399383 212.234545 144.577188 212.440000 142.765485 212.645455 140.964438 212.850909 139.174214 213.056364 137.394979 213.261818 135.626899 213.467273 133.870139 213.672727 132.124865 213.878182 130.391244 214.083636 128.669440 214.289091 126.959620 214.494545 125.261950 214.700000 123.576595 214.905455 121.903722 215.110909 120.243495 215.316364 118.596082 215.521818 116.961648 215.727273 115.340358 215.932727 113.732379 216.138182 112.137876 216.343636 110.557015 216.549091 108.989963 216.754545 107.436884 216.960000 105.897911 217.165455 104.373034 217.370909 102.862211 217.576364 101.365399 217.781818 99.882554 217.987273 98.413635 218.192727 96.958597 218.398182 95.517397 218.603636 94.089994 218.809091 92.676343 219.014545 91.276402 219.220000 89.890127 219.425455 88.517476 219.630909 87.158406 219.836364 85.812874 220.041818 84.480836 220.247273 83.162250 220.452727 81.857072 220.658182 80.565260 220.863636 79.286771 221.069091 78.021561 221.274545 76.769588 221.480000 75.530809 221.685455 74.305180 221.890909 73.092659 222.096364 71.893202 222.301818 70.706767 222.507273 69.533310 222.712727 68.372789 222.918182 67.225161 223.123636 66.090382 223.329091 64.968409 223.534545 63.859200 223.740000 62.762712 223.945455 61.678901 224.150909 60.607725 224.356364 59.549140 224.561818 58.503103 224.767273 57.469572 224.972727 56.448504 225.178182 55.439855 225.383636 54.443582 225.589091 53.459643 225.794545 52.487994 226.000000 51.528593 226.205455 50.581396 226.410909 49.646361 226.616364 48.723444 226.821818 47.812602 227.027273 46.913793 227.232727 46.026973 227.438182 45.152099 227.643636 44.289129 227.849091 43.438019 228.054545 42.598727 228.260000 41.771208 228.465455 40.955421 228.670909 40.151323 228.876364 39.358870 229.081818 38.578019 229.287273 37.808727 229.492727 37.050952 229.698182 36.304650 229.903636 35.569778 230.109091 34.846293 230.314545 34.134153 230.520000 33.433314 230.725455 32.743733 230.930909 32.065367 231.136364 31.398174 231.341818 30.742110 231.547273 30.097132 231.752727 29.463197 231.958182 28.840263 232.163636 28.228285 232.369091 27.627222 232.574545 27.037030 232.780000 26.457666 232.985455 25.889087 233.190909 25.331251 233.396364 24.784113 233.601818 24.247632 233.807273 23.721764 234.012727 23.206465 234.218182 22.701694 234.423636 22.207407 234.629091 21.723562 234.834545 21.250114 235.040000 20.787021 235.245455 20.334240 235.450909 19.891729 235.656364 19.459443 235.861818 19.037341 236.067273 18.625378 236.272727 18.223513 236.478182 17.831701 236.683636 17.449901 236.889091 17.078068 237.094545 16.716161 237.300000 16.364135 237.505455 16.021948 237.710909 15.689558 237.916364 15.366920 238.121818 15.053992 238.327273 14.750732 238.532727 14.457095 238.738182 14.173039 238.943636 13.898521 239.149091 13.633498 239.354545 13.377927 239.560000 13.131764 239.765455 12.894968 239.970909 12.667494 240.176364 12.449301 240.381818 12.240344 240.587273 12.040581 240.792727 11.849969 240.998182 11.668464 241.203636 11.496025 241.409091 11.332607 241.614545 11.178168 241.820000 11.032665 242.025455 10.896055 242.230909 10.768294 242.436364 10.649341 242.641818 10.539151 242.847273 10.437682 243.052727 10.344890 243.258182 10.260733 243.463636 10.185168 243.669091 10.118152 243.874545 10.059642 244.080000 10.009594 244.285455 9.967966 244.490909 9.934714 244.696364 9.909797 244.901818 9.893169 245.107273 9.884790 245.312727 9.884615 245.518182 9.892602 245.723636 9.908708 245.929091 9.932889 246.134545 9.965103 246.340000 10.005306 246.545455 10.053457 246.750909 10.109510 246.956364 10.173424 247.161818 10.245156 247.367273 10.324663 247.572727 10.411901 247.778182 10.506827 247.983636 10.609400 248.189091 10.719574 248.394545 10.837309 248.600000 10.962559 248.805455 11.095284 249.010909 11.235438 249.216364 11.382981 249.421818 11.537868 249.627273 11.700056 249.832727 11.869503 250.038182 12.046165 250.243636 12.230000 250.449091 12.420964 250.654545 12.619015 250.860000 12.824109 251.065455 13.036203 251.270909 13.255255 251.476364 13.481221 251.681818 13.714059 251.887273 13.953725 252.092727 14.200177 252.298182 14.453371 252.503636 14.713264 252.709091 14.979814 252.914545 15.252977 253.120000 15.532711 253.325455 15.818971 253.530909 16.111717 253.736364 16.410903 253.941818 16.716488 254.147273 17.028428 254.352727 17.346680 254.558182 17.671202 254.763636 18.001950 254.969091 18.338881 255.174545 18.681953 255.380000 19.031122 255.585455 19.386345 255.790909 19.747579 255.996364 20.114782 256.201818 20.487909 256.407273 20.866919 256.612727 21.251769 256.818182 21.642414 257.023636 22.038813 257.229091 22.440922 257.434545 22.848698 257.640000 23.262098 257.845455 23.681079 258.050909 24.105599 258.256364 24.535613 258.461818 24.971080 258.667273 25.411956 258.872727 25.858198 259.078182 26.309764 259.283636 26.766609 259.489091 27.228691 259.694545 27.695968 259.900000 28.168395 260.105455 28.645931 260.310909 29.128532 260.516364 29.616155 260.721818 30.108757 260.927273 30.606295 261.132727 31.108726 261.338182 31.616007 261.543636 32.128095 261.749091 32.644947 261.954545 33.166520 262.160000 33.692771 262.365455 34.223657 262.570909 34.759135 262.776364 35.299162 262.981818 35.843695 263.187273 36.392691 263.392727 36.946107 263.598182 37.503899 263.803636 38.066026 264.009091 38.632444 264.214545 39.203109 264.420000 39.777980 264.625455 40.357012 264.830909 40.940164 265.036364 41.527391 265.241818 42.118651 265.447273 42.713901 265.652727 43.313098 265.858182 43.916198 266.063636 44.523160 266.269091 45.133939 266.474545 45.748493 266.680000 46.366779 266.885455 46.988754 267.090909 47.614375 267.296364 48.243598 267.501818 48.876381 267.707273 49.512681 267.912727 50.152455 268.118182 50.795659 268.323636 51.442250 268.529091 52.092175 268.734545 52.745383 268.940000 53.401820 269.145455 54.061433 269.350909 54.724170 269.556364 55.389977 269.761818 56.058802 269.967273 56.730592 270.172727 57.405294 270.378182 58.082856 270.583636 58.763224 270.789091 59.446345 270.994545 60.132167 271.200000 60.820637 271.405455 61.511703 271.610909 62.205310 271.816364 62.901406 272.021818 63.599939 272.227273 64.300856 272.432727 65.004103 272.638182 65.709629 272.843636 66.417379 273.049091 67.127302 273.254545 67.839344 273.460000 68.553452 273.665455 69.269575 273.870909 69.987658 274.076364 70.707649 274.281818 71.429495 274.487273 72.153143 274.692727 72.878541 274.898182 73.605635 275.103636 74.334374 275.309091 75.064703 275.514545 75.796570 275.720000 76.529922 275.925455 77.264707 276.130909 78.000871 276.336364 78.738362 276.541818 79.477126 276.747273 80.217112 276.952727 80.958265 277.158182 81.700534 277.363636 82.443865 277.569091 83.188206 277.774545 83.933503 277.980000 84.679705 278.185455 85.426757 278.390909 86.174607 278.596364 86.923203 278.801818 87.672491 279.007273 88.422419 279.212727 89.172933 279.418182 89.923982 279.623636 90.675511 279.829091 91.427469 280.034545 92.179802 280.240000 92.932457 280.445455 93.685383 280.650909 94.438525 280.856364 95.191830 281.061818 95.945247 281.267273 96.698723 281.472727 97.452203 281.678182 98.205637 281.883636 98.958970 282.089091 99.712150 282.294545 100.465123 282.500000 101.217838 282.705455 101.970242 282.910909 102.722280 283.116364 103.473902 283.321818 104.225053 283.527273 104.975681 283.732727 105.725733 283.938182 106.475157 284.143636 107.223898 284.349091 107.971905 284.554545 108.719125 284.760000 109.465505 284.965455 110.210992 285.170909 110.955533 285.376364 111.699075 285.581818 112.441565 285.787273 113.182951 285.992727 113.923180 286.198182 114.662199 286.403636 115.399955 286.609091 116.136394 286.814545 116.871466 287.020000 117.605115 287.225455 118.337291 287.430909 119.067939 287.636364 119.797007 287.841818 120.524442 288.047273 121.250191 288.252727 121.974202 288.458182 122.696422 288.663636 123.416796 288.869091 124.135274 289.074545 124.851802 289.280000 125.566327 289.485455 126.278796 289.690909 126.989157 289.896364 127.697356 290.101818 128.403341 290.307273 129.107059 290.512727 129.808457 290.718182 130.507482 290.923636 131.204082 291.129091 131.898203 291.334545 132.589792 291.540000 133.278798 291.745455 133.965166 291.950909 134.648844 292.156364 135.329780 292.361818 136.007920 292.567273 136.683212 292.772727 137.355602 292.978182 138.025038 293.183636 138.691468 293.389091 139.354837 293.594545 140.015094 293.800000 140.672185 294.005455 141.326058 294.210909 141.976659 294.416364 142.623937 294.621818 143.267837 294.827273 143.908308 295.032727 144.545296 295.238182 145.178748 295.443636 145.808612 295.649091 146.434835 295.854545 147.057364 296.060000 147.676147 296.265455 148.291129 296.470909 148.902259 296.676364 149.509483 296.881818 150.112749 297.087273 150.712004 297.292727 151.307195 297.498182 151.898269 297.703636 152.485174 297.909091 153.067856 298.114545 153.646262 298.320000 154.220340 298.525455 154.790038 298.730909 155.355301 298.936364 155.916078 299.141818 156.472314 299.347273 157.023959 299.552727 157.570958 299.758182 158.113259 299.963636 158.650809 300.169091 159.183555 300.374545 159.711444 300.580000 160.234424 300.785455 160.752441 300.990909 161.265444 301.196364 161.773378 301.401818 162.276191 301.607273 162.773830 301.812727 163.266242 302.018182 163.753375 302.223636 164.235176 302.429091 164.711592 302.634545 165.182569 302.840000 165.648055 303.045455 166.107998 303.250909 166.562344 303.456364 167.011041 303.661818 167.454035 303.867273 167.891275 304.072727 168.322706 304.278182 168.748276 304.483636 169.167933 304.689091 169.581623 304.894545 169.989294 305.100000 170.390892 305.305455 170.786365 305.510909 171.175661 305.716364 171.558725 305.921818 171.935506 306.127273 172.305951 306.332727 172.670006 306.538182 173.027619 306.743636 173.378737 306.949091 173.723307 307.154545 174.061276 307.360000 174.392592 307.565455 174.717201 307.770909 175.035051 307.976364 175.346089 308.181818 175.650261 308.387273 175.947516 308.592727 176.237801 308.798182 176.521061 309.003636 176.797246 309.209091 177.066301 309.414545 177.328174 309.620000 177.582812 309.825455 177.830162 310.030909 178.070172 310.236364 178.302788 310.441818 178.527958 310.647273 178.745629 310.852727 178.955747 311.058182 179.158261 311.263636 179.353117 311.469091 179.540263 311.674545 179.719645 311.880000 179.891211 312.085455 180.054907 312.290909 180.210682 312.496364 180.358482 312.701818 180.498254 312.907273 180.629946 313.112727 180.753504 313.318182 180.868876 313.523636 180.976009 313.729091 181.074851 313.934545 181.165347 314.140000 181.247446 314.345455 181.321094 314.550909 181.386239 314.756364 181.442828 314.961818 181.490808 315.167273 181.530126 315.372727 181.560729 315.578182 181.582565 315.783636 181.595580 315.989091 181.599722 316.194545 181.594938 316.400000 181.581175 316.605455 181.558380 316.810909 181.526500 317.016364 181.485483 317.221818 181.435276 317.427273 181.375825 317.632727 181.307079 317.838182 181.228983 318.043636 181.141486 318.249091 181.044534 318.454545 180.938075 318.660000 180.822055 318.865455 180.696422 319.070909 180.561124 319.276364 180.416106 319.481818 180.261317 319.687273 180.096727 319.892727 179.922400 320.098182 179.738426 320.303636 179.544893 320.509091 179.341890 320.714545 179.129504 320.920000 178.907824 321.125455 178.676940 321.330909 178.436939 321.536364 178.187909 321.741818 177.929940 321.947273 177.663119 322.152727 177.387536 322.358182 177.103279 322.563636 176.810435 322.769091 176.509095 322.974545 176.199345 323.180000 175.881276 323.385455 175.554974 323.590909 175.220529 323.796364 174.878029 324.001818 174.527562 324.207273 174.169218 324.412727 173.803084 324.618182 173.429249 324.823636 173.047802 325.029091 172.658831 325.234545 172.262424 325.440000 171.858670 325.645455 171.447658 325.850909 171.029475 326.056364 170.604211 326.261818 170.171954 326.467273 169.732792 326.672727 169.286813 326.878182 168.834108 327.083636 168.374763 327.289091 167.908867 327.494545 167.436509 327.700000 166.957777 327.905455 166.472760 328.110909 165.981546 328.316364 165.484224 328.521818 164.980882 328.727273 164.471609 328.932727 163.956493 329.138182 163.435622 329.343636 162.909086 329.549091 162.376972 329.754545 161.839369 329.960000 161.296366 330.165455 160.748051 330.370909 160.194512 330.576364 159.635838 330.781818 159.072118 330.987273 158.503440 331.192727 157.929892 331.398182 157.351563 331.603636 156.768541 331.809091 156.180915 332.014545 155.588774 332.220000 154.992206 332.425455 154.391298 332.630909 153.786141 332.836364 153.176822 333.041818 152.563430 333.247273 151.946052 333.452727 151.324779 333.658182 150.699698 333.863636 150.070898 334.069091 149.438466 334.274545 148.802493 334.480000 148.163065 334.685455 147.520272 334.890909 146.874203 335.096364 146.224944 335.301818 145.572586 335.507273 144.917217 335.712727 144.258924 335.918182 143.597797 336.123636 142.933924 336.329091 142.267394 336.534545 141.598294 336.740000 140.926714 336.945455 140.252742 337.150909 139.576466 337.356364 138.897975 337.561818 138.217357 337.767273 137.534701 337.972727 136.850096 338.178182 136.163629 338.383636 135.475390 338.589091 134.785466 338.794545 134.093947 339.000000 133.400921 339.205455 132.706475 339.410909 132.010700 339.616364 131.313682 339.821818 130.615511 340.027273 129.916276 340.232727 129.216064 340.438182 128.514964 340.643636 127.813064 340.849091 127.110454 341.054545 126.407221 341.260000 125.703455 341.465455 124.999242 341.670909 124.294673 341.876364 123.589836 342.081818 122.884818 342.287273 122.179709 342.492727 121.474596 342.698182 120.769569 342.903636 120.064716 343.109091 119.360126 343.314545 118.655886 343.520000 117.952085 343.725455 117.248812 343.930909 116.546156 344.136364 115.844204 344.341818 115.143046 344.547273 114.442769 344.752727 113.743463 344.958182 113.045215 345.163636 112.348115 345.369091 111.652250 345.574545 110.957709 345.780000 110.264581 345.985455 109.572954 346.190909 108.882917 346.396364 108.194558 346.601818 107.507965 346.807273 106.823227 347.012727 106.140433 347.218182 105.459671 347.423636 104.781029 347.629091 104.104597 347.834545 103.430461 348.040000 102.758712 348.245455 102.089437 348.450909 101.422725 348.656364 100.758664 348.861818 100.097344 349.067273 99.438851 349.272727 98.783276 349.478182 98.130705 349.683636 97.481229 349.889091 96.834934 350.094545 96.191911 350.300000 95.552247 350.505455 94.916030 350.710909 94.283350 350.916364 93.654294 351.121818 93.028951 351.327273 92.407410 351.532727 91.789759 351.738182 91.176087 351.943636 90.566482 352.149091 89.961033 352.354545 89.359827 352.560000 88.762954 352.765455 88.170502 352.970909 87.582560 353.176364 86.999215 353.381818 86.420557 353.587273 85.846674 353.792727 85.277654 353.998182 84.713586 354.203636 84.154559 354.409091 83.600660 354.614545 83.051979 354.820000 82.508604 355.025455 81.970622 355.230909 81.438124 355.436364 80.911197 355.641818 80.389930 355.847273 79.874411 356.052727 79.364728 356.258182 78.860971 356.463636 78.363228 356.669091 77.871586 356.874545 77.386136 357.080000 76.906964 357.285455 76.434160 357.490909 75.967812 357.696364 75.508009 357.901818 75.054839 358.107273 74.608390 358.312727 74.168752 358.518182 73.736011 358.723636 73.310258 358.929091 72.891580 359.134545 72.480067 359.340000 72.075805 359.545455 71.678885 359.750909 71.289394 359.956364 70.907420 360.161818 70.533054 360.367273 70.166382 360.572727 69.807493 360.778182 69.456476 360.983636 69.113419 361.189091 68.778411 361.394545 68.451541 361.600000 68.132896 361.805455 67.822565 362.010909 67.520637 362.216364 67.227200 362.421818 66.942343 362.627273 66.666154 362.832727 66.398721 363.038182 66.140134 363.243636 65.890480 363.449091 65.649848 363.654545 65.418327 363.860000 65.196005 364.065455 64.982970 364.270909 64.779311 364.476364 64.585117 364.681818 64.400476 364.887273 64.225476 365.092727 64.060206 365.298182 63.904754 365.503636 63.759209 365.709091 63.623660 365.914545 63.498194 366.120000 63.382901 366.325455 63.277869 366.530909 63.183186 366.736364 63.098940 366.941818 63.025221 367.147273 62.962117 367.352727 62.909716 367.558182 62.868106 367.763636 62.837377 367.969091 62.817616 368.174545 62.808913 368.380000 62.811355 368.585455 62.825031 368.790909 62.850030 368.996364 62.886439 369.201818 62.934349 369.407273 62.993846 369.612727 63.065020 369.818182 63.147959 370.023636 63.242751 370.229091 63.349486 370.434545 63.468250 370.640000 63.599134 370.845455 63.742225 371.050909 63.897583 371.256364 64.065151 371.461818 64.244842 371.667273 64.436571 371.872727 64.640252 372.078182 64.855798 372.283636 65.083124 372.489091 65.322143 372.694545 65.572770 372.900000 65.834918 373.105455 66.108501 373.310909 66.393434 373.516364 66.689629 373.721818 66.997002 373.927273 67.315466 374.132727 67.644934 374.338182 67.985322 374.543636 68.336543 374.749091 68.698510 374.954545 69.071138 375.160000 69.454340 375.365455 69.848032 375.570909 70.252125 375.776364 70.666536 375.981818 71.091176 376.187273 71.525961 376.392727 71.970804 376.598182 72.425620 376.803636 72.890322 377.009091 73.364823 377.214545 73.849039 377.420000 74.342883 377.625455 74.846269 377.830909 75.359110 378.036364 75.881322 378.241818 76.412817 378.447273 76.953510 378.652727 77.503314 378.858182 78.062144 379.063636 78.629914 379.269091 79.206537 379.474545 79.791927 379.680000 80.385999 379.885455 80.988666 380.090909 81.599842 380.296364 82.219441 380.501818 82.847378 380.707273 83.483565 380.912727 84.127917 381.118182 84.780349 381.323636 85.440773 381.529091 86.109103 381.734545 86.785255 381.940000 87.469141 382.145455 88.160676 382.350909 88.859773 382.556364 89.566347 382.761818 90.280311 382.967273 91.001579 383.172727 91.730066 383.378182 92.465685 383.583636 93.208350 383.789091 93.957975 383.994545 94.714475 384.200000 95.477762 384.405455 96.247751 384.610909 97.024356 384.816364 97.807491 385.021818 98.597069 385.227273 99.393005 385.432727 100.195213 385.638182 101.003607 385.843636 101.818099 386.049091 102.638606 386.254545 103.465039 386.460000 104.297314 386.665455 105.135345 386.870909 105.979044 387.076364 106.828326 387.281818 107.683106 387.487273 108.543296 387.692727 109.408812 387.898182 110.279566 388.103636 111.155474 388.309091 112.036447 388.514545 112.922402 388.720000 113.813251 388.925455 114.708909 389.130909 115.609290 389.336364 116.514306 389.541818 117.423874 389.747273 118.337905 389.952727 119.256315 390.158182 120.179017 390.363636 121.105925 390.569091 122.036953 390.774545 122.972016 390.980000 123.911026 391.185455 124.853898 391.390909 125.800546 391.596364 126.750884 391.801818 127.704825 392.007273 128.662284 392.212727 129.623175 392.418182 130.587411 392.623636 131.554907 392.829091 132.525576 393.034545 133.499333 393.240000 134.476090 393.445455 135.455763 393.650909 136.438266 393.856364 137.423511 394.061818 138.411413 394.267273 139.401887 394.472727 140.394845 394.678182 141.390202 394.883636 142.387872 395.089091 143.387769 395.294545 144.389806 395.500000 145.393898 395.705455 146.399959 395.910909 147.407902 396.116364 148.417641 396.321818 149.429091 396.527273 150.442165 396.732727 151.456778 396.938182 152.472842 397.143636 153.490273 397.349091 154.508984 397.554545 155.528889 397.760000 156.549901 397.965455 157.571936 398.170909 158.594907 398.376364 159.618727 398.581818 160.643311 398.787273 161.668573 398.992727 162.694426 399.198182 163.720785 399.403636 164.747563 399.609091 165.774674 399.814545 166.802033 400.020000 167.829554 400.225455 168.857149 400.430909 169.884734 400.636364 170.912221 400.841818 171.939526 401.047273 172.966562 401.252727 173.993243 401.458182 175.019482 401.663636 176.045194 401.869091 177.070293 402.074545 178.094693 402.280000 179.118307 402.485455 180.141050 402.690909 181.162835 402.896364 182.183577 403.101818 183.203189 403.307273 184.221586 403.512727 185.238680 403.718182 186.254387 403.923636 187.268620 404.129091 188.281293 404.334545 189.292320 404.540000 190.301615 404.745455 191.309092 404.950909 192.314665 405.156364 193.318247 405.361818 194.319753 405.567273 195.319097 405.772727 196.316192 405.978182 197.310953 406.183636 198.303294 406.389091 199.293127 406.594545 200.280368 406.800000 201.264930 407.005455 202.246728 407.210909 203.225675 407.416364 204.201684 407.621818 205.174671 407.827273 206.144549 408.032727 207.111231 408.238182 208.074633 408.443636 209.034667 408.649091 209.991248 408.854545 210.944289 409.060000 211.893706 409.265455 212.839410 409.470909 213.781318 409.676364 214.719341 409.881818 215.653395 410.087273 216.583393 410.292727 217.509250 410.498182 218.430879 410.703636 219.348193 410.909091 220.261108 411.114545 221.169537 411.320000 222.073394 411.525455 222.972592 411.730909 223.867047 411.936364 224.756671 412.141818 225.641379 412.347273 226.521084 412.552727 227.395701 412.758182 228.265144 412.963636 229.129326 413.169091 229.988161 413.374545 230.841564 413.580000 231.689447 413.785455 232.531726 413.990909 233.368315 414.196364 234.199126 414.401818 235.024074 414.607273 235.843074 414.812727 236.656038 415.018182 237.462881 415.223636 238.263516 415.429091 239.057859 415.634545 239.845822 415.840000 240.627320 416.045455 241.402266 416.250909 242.170574 416.456364 242.932160 416.661818 243.686935 416.867273 244.434815 417.072727 245.175713 417.278182 245.909543 417.483636 246.636219 417.689091 247.355655 417.894545 248.067765 418.100000 248.772463 418.305455 249.469663 418.510909 250.159279 418.716364 250.841224 418.921818 251.515413 419.127273 252.181760 419.332727 252.840178 419.538182 253.490582 419.743636 254.132885 419.949091 254.767002 420.154545 255.392846 420.360000 256.010331 420.565455 256.619371 420.770909 257.219881 420.976364 257.811773 421.181818 258.394963 421.387273 258.969363 421.592727 259.534888 421.798182 260.091452 422.003636 260.638969 422.209091 261.177353 422.414545 261.706537 422.620000 262.226533 422.825455 262.737374 423.030909 263.239092 423.236364 263.731719 423.441818 264.215287 423.647273 264.689828 423.852727 265.155373 424.058182 265.611956 424.263636 266.059607 424.469091 266.498360 424.674545 266.928246 424.880000 267.349297 425.085455 267.761545 425.290909 268.165023 425.496364 268.559761 425.701818 268.945794 425.907273 269.323151 426.112727 269.691866 426.318182 270.051971 426.523636 270.403497 426.729091 270.746477 426.934545 271.080942 427.140000 271.406925 427.345455 271.724458 427.550909 272.033572 427.756364 272.334300 427.961818 272.626675 428.167273 272.910727 428.372727 273.186489 428.578182 273.453993 428.783636 273.713271 428.989091 273.964355 429.194545 274.207277 429.400000 274.442070 429.605455 274.668765 429.810909 274.887394 430.016364 275.097989 430.221818 275.300583 430.427273 275.495207 430.632727 275.681893 430.838182 275.860674 431.043636 276.031582 431.249091 276.194648 431.454545 276.349905 431.660000 276.497385 431.865455 276.637119 432.070909 276.769140 432.276364 276.893480 432.481818 277.010171 432.687273 277.119244 432.892727 277.220733 433.098182 277.314668 433.303636 277.401083 433.509091 277.480009 433.714545 277.551478 433.920000 277.615522 434.125455 277.672173 434.330909 277.721464 434.536364 277.763426 434.741818 277.798091 434.947273 277.825491 435.152727 277.845660 435.358182 277.858627 435.563636 277.864426 435.769091 277.863089 435.974545 277.854648 436.180000 277.839134 436.385455 277.816580 436.590909 277.787017 436.796364 277.750479 437.001818 277.706996 437.207273 277.656601 437.412727 277.599327 437.618182 277.535204 437.823636 277.464265 438.029091 277.386542 438.234545 277.302068 438.440000 277.210874 438.645455 277.112992 438.850909 277.008454 439.056364 276.897292 439.261818 276.779539 439.467273 276.655226 439.672727 276.524386 439.878182 276.387051 440.083636 276.243251 440.289091 276.093021 440.494545 275.936391 440.700000 275.773394 440.905455 275.604061 441.110909 275.428426 441.316364 275.246519 441.521818 275.058373 441.727273 274.864020 441.932727 274.663491 442.138182 274.456820 442.343636 274.244038 442.549091 274.025177 442.754545 273.800270 442.960000 273.569347 443.165455 273.332442 443.370909 273.089585 443.576364 272.840811 443.781818 272.586149 443.987273 272.325633 444.192727 272.059295 444.398182 271.787166 444.603636 271.509278 444.809091 271.225665 445.014545 270.936356 445.220000 270.641386 445.425455 270.340785 445.630909 270.034586 445.836364 269.722821 446.041818 269.405522 446.247273 269.082720 446.452727 268.754449 446.658182 268.420740 446.863636 268.081624 447.069091 267.737135 447.274545 267.387304 447.480000 267.032163 447.685455 266.671745 447.890909 266.306080 448.096364 265.935202 448.301818 265.559143 448.507273 265.177934 448.712727 264.791607 448.918182 264.400195 449.123636 264.003729 449.329091 263.602242 449.534545 263.195766 449.740000 262.784332 449.945455 262.367973 450.150909 261.946721 450.356364 261.520607 450.561818 261.089665 450.767273 260.653925 450.972727 260.213421 451.178182 259.768183 451.383636 259.318245 451.589091 258.863637 451.794545 258.404393 452.000000 257.940544 452.205455 257.472122 452.410909 256.999160 452.616364 256.521689 452.821818 256.039741 453.027273 255.553349 453.232727 255.062544 453.438182 254.567358 453.643636 254.067824 453.849091 253.563974 454.054545 253.055840 454.260000 252.543453 454.465455 252.026846 454.670909 251.506050 454.876364 250.981099 455.081818 250.452023 455.287273 249.918856 455.492727 249.381628 455.698182 248.840372 455.903636 248.295121 456.109091 247.745905 456.314545 247.192758 456.520000 246.635711 456.725455 246.074796 456.930909 245.510045 457.136364 244.941491 457.341818 244.369165 457.547273 243.793100 457.752727 243.213327 457.958182 242.629878 458.163636 242.042786 458.369091 241.452083 458.574545 240.857800 458.780000 240.259970 458.985455 239.658625 459.190909 239.053797 459.396364 238.445517 459.601818 237.833819 459.807273 237.218733 460.012727 236.600292 460.218182 235.978528 460.423636 235.353474 460.629091 234.725160 460.834545 234.093620 461.040000 233.458885 461.245455 232.820987 461.450909 232.179958 461.656364 231.535831 461.861818 230.888637 462.067273 230.238408 462.272727 229.585177 462.478182 228.928976 462.683636 228.269836 462.889091 227.607790 463.094545 226.942869 463.300000 226.275106 463.505455 225.604533 463.710909 224.931182 463.916364 224.255084 464.121818 223.576272 464.327273 222.894779 464.532727 222.210635 464.738182 221.523873 464.943636 220.834525 465.149091 220.142624 465.354545 219.448201 465.560000 218.751287 465.765455 218.051916 465.970909 217.350120 466.176364 216.645930 466.381818 215.939378 466.587273 215.230496 466.792727 214.519317 466.998182 213.805873 467.203636 213.090195 467.409091 212.372316 467.614545 211.652267 467.820000 210.930081 468.025455 210.205790 468.230909 209.479426 468.436364 208.751020 468.641818 208.020606 468.847273 207.288214 469.052727 206.553877 469.258182 205.817628 469.463636 205.079497 469.669091 204.339518 469.874545 203.597721 470.080000 202.854140 470.285455 202.108806 470.490909 201.361752 470.696364 200.613009 470.901818 199.862609 471.107273 199.110585 471.312727 198.356968 471.518182 197.601790 471.723636 196.845085 471.929091 196.086882 472.134545 195.327216 472.340000 194.566117 472.545455 193.803618 472.750909 193.039751 472.956364 192.274548 473.161818 191.508040 473.367273 190.740261 473.572727 189.971241 473.778182 189.201014 473.983636 188.429614 474.189091 187.657076 474.394545 186.883435 474.600000 186.108725 474.805455 185.332982 475.010909 184.556241 475.216364 183.778536 475.421818 182.999903 475.627273 182.220377 475.832727 181.439991 476.038182 180.658783 476.243636 179.876785 476.449091 179.094034 476.654545 178.310563 476.860000 177.526409 477.065455 176.741606 477.270909 175.956189 477.476364 175.170192 477.681818 174.383652 477.887273 173.596602 478.092727 172.809078 478.298182 172.021115 478.503636 171.232747 478.709091 170.444010 478.914545 169.654938 479.120000 168.865566 479.325455 168.075930 479.530909 167.286064 479.736364 166.496003 479.941818 165.705783 480.147273 164.915437 480.352727 164.125002 480.558182 163.334511 480.763636 162.544000 480.969091 161.753504 481.174545 160.963058 481.380000 160.172697 481.585455 159.382455 481.790909 158.592368 481.996364 157.802470 482.201818 157.012796 482.407273 156.223382 482.612727 155.434263 482.818182 154.645472 483.023636 153.857046 483.229091 153.069019 483.434545 152.281426 483.640000 151.494301 483.845455 150.707681 484.050909 149.921600 484.256364 149.136092 484.461818 148.351193 484.667273 147.566938 484.872727 146.783362 485.078182 146.000499 485.283636 145.218384 485.489091 144.437053 485.694545 143.656540 485.900000 142.876881 486.105455 142.098110 486.310909 141.320261 486.516364 140.543371 486.721818 139.767474 486.927273 138.992605 487.132727 138.218799 487.338182 137.446091 487.543636 136.674516 487.749091 135.904108 487.954545 135.134903 488.160000 134.366935 488.365455 133.600240 488.570909 132.834853 488.776364 132.070808 488.981818 131.308140 489.187273 130.546885 489.392727 129.787076 489.598182 129.028750 489.803636 128.271941 490.009091 127.516684 490.214545 126.763014 490.420000 126.010966 490.625455 125.260575 490.830909 124.511875 491.036364 123.764902 491.241818 123.019691 491.447273 122.276276 491.652727 121.534693 491.858182 120.794976 492.063636 120.057161 492.269091 119.321282 492.474545 118.587374 492.680000 117.855473 492.885455 117.125612 493.090909 116.397828 493.296364 115.672155 493.501818 114.948627 493.707273 114.227281 493.912727 113.508150 494.118182 112.791270 494.323636 112.076676 494.529091 111.364402 494.734545 110.654484 494.940000 109.946957 495.145455 109.241855 495.350909 108.539213 495.556364 107.839067 495.761818 107.141450 495.967273 106.446399 496.172727 105.753948 496.378182 105.064133 496.583636 104.376987 496.789091 103.692546 496.994545 103.010845 497.200000 102.331918 497.405455 101.655802 497.610909 100.982530 497.816364 100.312138 498.021818 99.644660 498.227273 98.980132 498.432727 98.318588 498.638182 97.660064 498.843636 97.004594 499.049091 96.352213 499.254545 95.702956 499.460000 95.056858 499.665455 94.413955 499.870909 93.774280 500.076364 93.137869 500.281818 92.504758 500.487273 91.874979 500.692727 91.248570 500.898182 90.625564 501.103636 90.005997 501.309091 89.389904 501.514545 88.777319 501.720000 88.168277 501.925455 87.562814 502.130909 86.960964 502.336364 86.362762 502.541818 85.768243 502.747273 85.177442 502.952727 84.590395 503.158182 84.007135 503.363636 83.427699 503.569091 82.852120 503.774545 82.280434 503.980000 81.712675 504.185455 81.148879 504.390909 80.589081 504.596364 80.033315 504.801818 79.481617 505.007273 78.934021 505.212727 78.390563 505.418182 77.851277 505.623636 77.316198 505.829091 76.785361 506.034545 76.258801 506.240000 75.736553 506.445455 75.218652 506.650909 74.705133 506.856364 74.196031 507.061818 73.691381 507.267273 73.191217 507.472727 72.695575 507.678182 72.204490 507.883636 71.717996 508.089091 71.236128 508.294545 70.758922 508.500000 70.286412 508.705455 69.818633 508.910909 69.355621 509.116364 68.897409 509.321818 68.444034 509.527273 67.995530 509.732727 67.551932 509.938182 67.113274 510.143636 66.679593 510.349091 66.250922 510.554545 65.827296 510.760000 65.408752 510.965455 64.995323 511.170909 64.587044 511.376364 64.183951 511.581818 63.786078 511.787273 63.393461 511.992727 63.006133 512.198182 62.624131 512.403636 62.247489 512.609091 61.876242 512.814545 61.510425 513.020000 61.150073 513.225455 60.795221 513.430909 60.445904 513.636364 60.102156 513.841818 59.764013 514.047273 59.431510 514.252727 59.104681 514.458182 58.783562 514.663636 58.468187 514.869091 58.158591 515.074545 57.854810 515.280000 57.556877 515.485455 57.264829 515.690909 56.978701 515.896364 56.698526 516.101818 56.424340 516.307273 56.156178 516.512727 55.894075 516.718182 55.638065 516.923636 55.388185 517.129091 55.144468 517.334545 54.906949 517.540000 54.675664 517.745455 54.450648 517.950909 54.231935 518.156364 54.019560 518.361818 53.813559 518.567273 53.613966 518.772727 53.420816 518.978182 53.234143 519.183636 53.053984 519.389091 52.880373 519.594545 52.713345 519.800000 52.552935 520.005455 52.399177 520.210909 52.252108 520.416364 52.111760 520.621818 51.978171 520.827273 51.851373 521.032727 51.731404 521.238182 51.618296 521.443636 51.512086 521.649091 51.412809 521.854545 51.320498 522.060000 51.235190 522.265455 51.156918 522.470909 51.085719 522.676364 51.021626 522.881818 50.964676 523.087273 50.914902 523.292727 50.872340 523.498182 50.837025 523.703636 50.808991 523.909091 50.788274 524.114545 50.774908 524.320000 50.768929 524.525455 50.770371 524.730909 50.779270 524.936364 50.795659 525.141818 50.819564 525.347273 50.850965 525.552727 50.889832 525.758182 50.936135 525.963636 50.989844 526.169091 51.050928 526.374545 51.119358 526.580000 51.195104 526.785455 51.278134 526.990909 51.368420 527.196364 51.465931 527.401818 51.570637 527.607273 51.682508 527.812727 51.801514 528.018182 51.927624 528.223636 52.060810 528.429091 52.201039 528.634545 52.348283 528.840000 52.502511 529.045455 52.663694 529.250909 52.831800 529.456364 53.006801 529.661818 53.188665 529.867273 53.377364 530.072727 53.572865 530.278182 53.775141 530.483636 53.984160 530.689091 54.199892 530.894545 54.422307 531.100000 54.651376 531.305455 54.887067 531.510909 55.129352 531.716364 55.378199 531.921818 55.633579 532.127273 55.895462 532.332727 56.163817 532.538182 56.438615 532.743636 56.719825 532.949091 57.007417 533.154545 57.301361 533.360000 57.601627 533.565455 57.908186 533.770909 58.221005 533.976364 58.540057 534.181818 58.865310 534.387273 59.196735 534.592727 59.534301 534.798182 59.877978 535.003636 60.227736 535.209091 60.583545 535.414545 60.945376 535.620000 61.313197 535.825455 61.686979 536.030909 62.066691 536.236364 62.452304 536.441818 62.843788 536.647273 63.241112 536.852727 63.644246 537.058182 64.053160 537.263636 64.467824 537.469091 64.888208 537.674545 65.314282 537.880000 65.746015 538.085455 66.183378 538.290909 66.626340 538.496364 67.074872 538.701818 67.528944 538.907273 67.988524 539.112727 68.453583 539.318182 68.924091 539.523636 69.400019 539.729091 69.881335 539.934545 70.368009 540.140000 70.860012 540.345455 71.357314 540.550909 71.859883 540.756364 72.367691 540.961818 72.880708 541.167273 73.398902 541.372727 73.922244 541.578182 74.450704 541.783636 74.984251 541.989091 75.522856 542.194545 76.066489 542.400000 76.615119 542.605455 77.168716 542.810909 77.727251 543.016364 78.290692 543.221818 78.859011 543.427273 79.432176 543.632727 80.010158 543.838182 80.592927 544.043636 81.180452 544.249091 81.772704 544.454545 82.369652 544.660000 82.971266 544.865455 83.577517 545.070909 84.188373 545.276364 84.803806 545.481818 85.423784 545.687273 86.048278 545.892727 86.677257 546.098182 87.310692 546.303636 87.948552 546.509091 88.590808 546.714545 89.237429 546.920000 89.888385 547.125455 90.543646 547.330909 91.203181 547.536364 91.866962 547.741818 92.534957 547.947273 93.207137 548.152727 93.883471 548.358182 94.563930 548.563636 95.248482 548.769091 95.937099 548.974545 96.629750 549.180000 97.326405 549.385455 98.027034 549.590909 98.731606 549.796364 99.440092 550.001818 100.152461 550.207273 100.868684 550.412727 101.588731 550.618182 102.312570 550.823636 103.040172 551.029091 103.771508 551.234545 104.506546 551.440000 105.245257 551.645455 105.987611 551.850909 106.733577 552.056364 107.483126 552.261818 108.236227 552.467273 108.992851 552.672727 109.752966 552.878182 110.516544 553.083636 111.283554 553.289091 112.053965 553.494545 112.827748 553.700000 113.604873 553.905455 114.385309 554.110909 115.169027 554.316364 115.955996 554.521818 116.746186 554.727273 117.539567 554.932727 118.336109 555.138182 119.135782 555.343636 119.938556 555.549091 120.744401 555.754545 121.553286 555.960000 122.365182 556.165455 123.180058 556.370909 123.997884 556.576364 124.818631 556.781818 125.642267 556.987273 126.468763 557.192727 127.298090 557.398182 128.130216 557.603636 128.965111 557.809091 129.802747 558.014545 130.643091 558.220000 131.486115 558.425455 132.331788 558.630909 133.180080 558.836364 134.030962 559.041818 134.884402 559.247273 135.740371 559.452727 136.598838 559.658182 137.459775 559.863636 138.323149 560.069091 139.188932 560.274545 140.057094 560.480000 140.927603 560.685455 141.800431 560.890909 142.675546 561.096364 143.552920 561.301818 144.432521 561.507273 145.314320 561.712727 146.198286 561.918182 147.084390 562.123636 147.972601 562.329091 148.862889 562.534545 149.755225 562.740000 150.649577 562.945455 151.545916 563.150909 152.444212 563.356364 153.344435 563.561818 154.246555 563.767273 155.150541 563.972727 156.056363 564.178182 156.963992 564.383636 157.873396 564.589091 158.784547 564.794545 159.697414 565.000000 160.611967 565.205455 161.528175 565.410909 162.446009 565.616364 163.365439 565.821818 164.286434 566.027273 165.208965 566.232727 166.133000 566.438182 167.058511 566.643636 167.985467 566.849091 168.913838 567.054545 169.843593 567.260000 170.774704 567.465455 171.707138 567.670909 172.640868 567.876364 173.575862 568.081818 174.512090 568.287273 175.449522 568.492727 176.388128 568.698182 177.327879 568.903636 178.268743 569.109091 179.210691 569.314545 180.153692 569.520000 181.097718 569.725455 182.042736 569.930909 182.988718 570.136364 183.935634 570.341818 184.883452 570.547273 185.832143 570.752727 186.781678 570.958182 187.732025 571.163636 188.683155 571.369091 189.635037 571.574545 190.587642 571.780000 191.540940 571.985455 192.494900 572.190909 193.449492 572.396364 194.404686 572.601818 195.360452 572.807273 196.316760 573.012727 197.273579 573.218182 198.230881 573.423636 199.188634 573.629091 200.146808 573.834545 201.105374 574.040000 202.064301 574.245455 203.023559 574.450909 203.983118 574.656364 204.942948 574.861818 205.903019 575.067273 206.863301 575.272727 207.823764 575.478182 208.784376 575.683636 209.745110 575.889091 210.705933 576.094545 211.666817 576.300000 212.627731 576.300000 514.000000" /></g></g><g class="titles"><text class="title plot_title" x="400.0" y="26">Ratchadamri 50</text></g><g class="plot overlay" transform="translate(192, 46)"><g class="series serie-0 color-0"><g class="dots"><circle class="dot reactive tooltip-trigger" cx="11.3" cy="102.58192230729435" r="2.5" /><desc class="value">116800</desc><desc class="x ">11.3</desc><desc class="y ">102.58192230729435</desc><desc class="x_label">Jan</desc></g><g class="dots"><circle class="dot reactive tooltip-trigger" cx="62.66363636363637" cy="180.26131677704615" r="2.5" /><desc class="value">112000</desc><desc class="x ">62.66363636363637</desc><desc class="y ">180.26131677704615</desc><desc class="x_label">Feb</desc></g><g class="dots"><circle class="dot reactive tooltip-trigger" cx="114.02727272727273" cy="115.52848805225295" r="2.5" /><desc class="value">116000</desc><desc class="x ">114.02727272727273</desc><desc class="y ">115.52848805225295</desc><desc class="x_label">Mar</desc></g><g class="dots"><circle class="dot reactive tooltip-trigger" cx="165.39090909090908" cy="503.925460401012" r="2.5" /><desc class="value">92000</desc><desc class="x top">165.39090909090908</desc><desc class="y top">503.925460401012</desc><desc class="x_label">Apr</desc></g><g class="dots"><circle class="dot reactive tooltip-trigger" cx="216.75454545454548" cy="107.43688446165385" r="2.5" /><desc class="value">116500</desc><desc class="x ">216.75454545454548</desc><desc class="y ">107.43688446165385</desc><desc class="x_label">May</desc></g><g class="dots"><circle class="dot reactive tooltip-trigger" cx="268.1181818181818" cy="50.795659327459816" r="2.5" /><desc class="value">120000</desc><desc class="x ">268.1181818181818</desc><desc class="y ">50.795659327459816</desc><desc class="x_label">Jun</desc></g><g class="dots"><circle class="dot reactive tooltip-trigger" cx="319.4818181818182" cy="180.26131677704615" r="2.5" /><desc class="value">112000</desc><desc class="x left">319.4818181818182</desc><desc class="y left">180.26131677704615</desc><desc class="x_label">Jul</desc></g><g class="dots"><circle class="dot reactive tooltip-trigger" cx="370.8454545454546" cy="63.74222507241842" r="2.5" /><desc class="value">119200</desc><desc class="x left">370.8454545454546</desc><desc class="y left">63.74222507241842</desc><desc class="x_label">Aug</desc></g><g class="dots"><circle class="dot reactive tooltip-trigger" cx="422.20909090909095" cy="261.1773526830376" r="2.5" /><desc class="value">107000</desc><desc class="x left top">422.20909090909095</desc><desc class="y left top">261.1773526830376</desc><desc class="x_label">Sep</desc></g><g class="dots"><circle class="dot reactive tooltip-trigger" cx="473.5727272727273" cy="189.97124108576514" r="2.5" /><desc class="value">111400</desc><desc class="x left">473.5727272727273</desc><desc class="y left">189.97124108576514</desc><desc class="x_label">Oct</desc></g><g class="dots"><circle class="dot reactive tooltip-trigger" cx="524.9363636363636" cy="50.795659327459816" r="2.5" /><desc class="value">120000</desc><desc class="x left">524.9363636363636</desc><desc class="y left">50.795659327459816</desc><desc class="x_label">Nov</desc></g><g class="dots"><circle class="dot reactive tooltip-trigger" cx="576.3000000000001" cy="212.62773113944274" r="2.5" /><desc class="value">110000</desc><desc class="x left">576.3000000000001</desc><desc class="y left">212.62773113944274</desc><desc class="x_label">Dec</desc></g></g></g><g class="plot text-overlay" transform="translate(192, 46)"><g class="series serie-0 color-0" /></g><g class="plot tooltip-overlay" transform="translate(192, 46)"><g class="tooltip" style="opacity: 0" transform="translate(0 0)"><rect class="tooltip-box" height="0" rx="0" ry="0" width="0" /><g class="text" /></g></g><g class="legends" transform="translate(10, 56)"><g class="legend reactive activate-serie" id="activate-serie-0"><rect class="color-0 reactive" height="12" width="12" x="0.0" y="1.0" /><text x="17.0" y="11.2">Ratchadamri</text></g></g><g class="legends" transform="translate(790, 56)" /></g></svg>