<?xml version='1.0' encoding='utf-8'?>
<svg xmlns:xlink="http://www.w3.org/1999/xlink" class="pygal-chart" id="chart-988f86da-f508-4821-a363-1f512b69a2de" viewBox="0 0 800 600" xmlns="http://www.w3.org/2000/svg"><!--Generated with pygal 2.0.11 (etree) ©Kozea 2011-2015 on 2015-12-10--><!--http://pygal.org--><!--http://github.com/Kozea/pygal--><defs><style type="text/css">#chart-988f86da-f508-4821-a363-1f512b69a2de{-webkit-user-select:none;-webkit-font-smoothing:antialiased;font-family:Consolas,"Liberation Mono",Menlo,Courier,monospace}#chart-988f86da-f508-4821-a363-1f512b69a2de .title{font-family:Consolas,"Liberation Mono",Menlo,Courier,monospace;font-size:16px}#chart-988f86da-f508-4821-a363-1f512b69a2de .legends .legend text{font-family:Consolas,"Liberation Mono",Menlo,Courier,monospace;font-size:14px}#chart-988f86da-f508-4821-a363-1f512b69a2de .axis text{font-family:Consolas,"Liberation Mono",Menlo,Courier,monospace;font-size:10px}#chart-988f86da-f508-4821-a363-1f512b69a2de .axis text.major{font-family:Consolas,"Liberation Mono",Menlo,Courier,monospace;font-size:10px}#chart-988f86da-f508-4821-a363-1f512b69a2de .text-overlay text.value{font-family:Consolas,"Liberation Mono",Menlo,Courier,monospace;font-size:16px}#chart-988f86da-f508-4821-a363-1f512b69a2de .text-overlay text.label{font-family:Consolas,"Liberation Mono",Menlo,Courier,monospace;font-size:10px}#chart-988f86da-f508-4821-a363-1f512b69a2de .tooltip{font-family:Consolas,"Liberation Mono",Menlo,Courier,monospace;font-size:14px}#chart-988f86da-f508-4821-a363-1f512b69a2de text.no_data{font-family:Consolas,"Liberation Mono",Menlo,Courier,monospace;font-size:64px}
#chart-988f86da-f508-4821-a363-1f512b69a2de{background-color:black}#chart-988f86da-f508-4821-a363-1f512b69a2de path,#chart-988f86da-f508-4821-a363-1f512b69a2de line,#chart-988f86da-f508-4821-a363-1f512b69a2de rect,#chart-988f86da-f508-4821-a363-1f512b69a2de circle{-webkit-transition:250ms;-moz-transition:250ms;transition:250ms}#chart-988f86da-f508-4821-a363-1f512b69a2de .graph &gt; .background{fill:black}#chart-988f86da-f508-4821-a363-1f512b69a2de .plot &gt; .background{fill:#111}#chart-988f86da-f508-4821-a363-1f512b69a2de .graph{fill:#999}#chart-988f86da-f508-4821-a363-1f512b69a2de text.no_data{fill:#eee}#chart-988f86da-f508-4821-a363-1f512b69a2de .title{fill:#eee}#chart-988f86da-f508-4821-a363-1f512b69a2de .legends .legend text{fill:#999}#chart-988f86da-f508-4821-a363-1f512b69a2de .legends .legend:hover text{fill:#eee}#chart-988f86da-f508-4821-a363-1f512b69a2de .axis .line{stroke:#eee}#chart-988f86da-f508-4821-a363-1f512b69a2de .axis .guide.line{stroke:#555}#chart-988f86da-f508-4821-a363-1f512b69a2de .axis .major.line{stroke:#999}#chart-988f86da-f508-4821-a363-1f512b69a2de .axis text.major{fill:#eee}#chart-988f86da-f508-4821-a363-1f512b69a2de .axis.y .guides:hover .guide.line,#chart-988f86da-f508-4821-a363-1f512b69a2de .line-graph .axis.x .guides:hover .guide.line,#chart-988f86da-f508-4821-a363-1f512b69a2de .stackedline-graph .axis.x .guides:hover .guide.line,#chart-988f86da-f508-4821-a363-1f512b69a2de .xy-graph .axis.x .guides:hover .guide.line{stroke:#eee}#chart-988f86da-f508-4821-a363-1f512b69a2de .axis .guides:hover text{fill:#eee}#chart-988f86da-f508-4821-a363-1f512b69a2de .reactive{fill-opacity:.8}#chart-988f86da-f508-4821-a363-1f512b69a2de .reactive.active,#chart-988f86da-f508-4821-a363-1f512b69a2de .active .reactive{fill-opacity:.4;stroke-width:4}#chart-988f86da-f508-4821-a363-1f512b69a2de .series text{fill:#eee}#chart-988f86da-f508-4821-a363-1f512b69a2de .tooltip rect{fill:#111;stroke:#eee;-webkit-transition:opacity 250ms;-moz-transition:opacity 250ms;transition:opacity 250ms}#chart-988f86da-f508-4821-a363-1f512b69a2de .tooltip .label{fill:#999}#chart-988f86da-f508-4821-a363-1f512b69a2de .tooltip .label{fill:#999}#chart-988f86da-f508-4821-a363-1f512b69a2de .tooltip .legend{font-size:.8em;fill:#555}#chart-988f86da-f508-4821-a363-1f512b69a2de .tooltip .x_label{font-size:.6em;fill:#eee}#chart-988f86da-f508-4821-a363-1f512b69a2de .tooltip .xlink{font-size:.5em;text-decoration:underline}#chart-988f86da-f508-4821-a363-1f512b69a2de .tooltip .value{font-size:1.5em}#chart-988f86da-f508-4821-a363-1f512b69a2de .map-element{fill:#111;stroke:#555 !important}#chart-988f86da-f508-4821-a363-1f512b69a2de .map-element .reactive{fill-opacity:inherit}#chart-988f86da-f508-4821-a363-1f512b69a2de .color-0,#chart-988f86da-f508-4821-a363-1f512b69a2de .color-0 a:visited{stroke:#ff5995;fill:#ff5995}#chart-988f86da-f508-4821-a363-1f512b69a2de .text-overlay .color-0 text{fill:black}
#chart-988f86da-f508-4821-a363-1f512b69a2de text.no_data{text-anchor:middle}#chart-988f86da-f508-4821-a363-1f512b69a2de .guide.line{fill:none}#chart-988f86da-f508-4821-a363-1f512b69a2de .centered{text-anchor:middle}#chart-988f86da-f508-4821-a363-1f512b69a2de .title{text-anchor:middle}#chart-988f86da-f508-4821-a363-1f512b69a2de .legends .legend text{fill-opacity:1}#chart-988f86da-f508-4821-a363-1f512b69a2de .axis.x text{text-anchor:middle}#chart-988f86da-f508-4821-a363-1f512b69a2de .axis.x:not(.web) text[transform]{text-anchor:start}#chart-988f86da-f508-4821-a363-1f512b69a2de .axis.x:not(.web) text[transform].backwards{text-anchor:end}#chart-988f86da-f508-4821-a363-1f512b69a2de .axis.y text{text-anchor:end}#chart-988f86da-f508-4821-a363-1f512b69a2de .axis.y text[transform].backwards{text-anchor:start}#chart-988f86da-f508-4821-a363-1f512b69a2de .axis.y2 text{text-anchor:start}#chart-988f86da-f508-4821-a363-1f512b69a2de .axis.y2 text[transform].backwards{text-anchor:end}#chart-988f86da-f508-4821-a363-1f512b69a2de .axis .guide.line{stroke-dasharray:4,4}#chart-988f86da-f508-4821-a363-1f512b69a2de .axis .major.guide.line{stroke-dasharray:6,6}#chart-988f86da-f508-4821-a363-1f512b69a2de .horizontal .axis.y .guide.line,#chart-988f86da-f508-4821-a363-1f512b69a2de .horizontal .axis.y2 .guide.line,#chart-988f86da-f508-4821-a363-1f512b69a2de .vertical .axis.x .guide.line{opacity:0}#chart-988f86da-f508-4821-a363-1f512b69a2de .horizontal .axis.always_show .guide.line,#chart-988f86da-f508-4821-a363-1f512b69a2de .vertical .axis.always_show .guide.line{opacity:1 !important}#chart-988f86da-f508-4821-a363-1f512b69a2de .axis.y .guides:hover .guide.line,#chart-988f86da-f508-4821-a363-1f512b69a2de .axis.y2 .guides:hover .guide.line,#chart-988f86da-f508-4821-a363-1f512b69a2de .axis.x .guides:hover .guide.line{opacity:1}#chart-988f86da-f508-4821-a363-1f512b69a2de .axis .guides:hover text{opacity:1}#chart-988f86da-f508-4821-a363-1f512b69a2de .nofill{fill:none}#chart-988f86da-f508-4821-a363-1f512b69a2de .subtle-fill{fill-opacity:.2}#chart-988f86da-f508-4821-a363-1f512b69a2de .dot{stroke-width:1px;fill-opacity:1}#chart-988f86da-f508-4821-a363-1f512b69a2de .dot.active{stroke-width:5px}#chart-988f86da-f508-4821-a363-1f512b69a2de .dot.negative{fill:transparent}#chart-988f86da-f508-4821-a363-1f512b69a2de text,#chart-988f86da-f508-4821-a363-1f512b69a2de tspan{stroke:none !important}#chart-988f86da-f508-4821-a363-1f512b69a2de .series text.active{opacity:1}#chart-988f86da-f508-4821-a363-1f512b69a2de .tooltip rect{fill-opacity:.95;stroke-width:.5}#chart-988f86da-f508-4821-a363-1f512b69a2de .tooltip text{fill-opacity:1}#chart-988f86da-f508-4821-a363-1f512b69a2de .showable{visibility:hidden}#chart-988f86da-f508-4821-a363-1f512b69a2de .showable.shown{visibility:visible}</style><script type="text/javascript">window.pygal = window.pygal || {};window.pygal.config = window.pygal.config || {};window.pygal.config['988f86da-f508-4821-a363-1f512b69a2de'] = {"css": ["file://style.css", "file://graph.css"], "legend_at_bottom": false, "stroke_style": null, "missing_value_fill_truncation": "x", "tooltip_border_radius": 0, "inner_radius": 0, "min_scale": 4, "show_x_guides": false, "y_label_rotation": 0, "show_only_major_dots": false, "interpolation_precision": 250, "margin_right": null, "x_label_rotation": 0, "dynamic_print_values": false, "margin_top": null, "x_labels_major_count": null, "js": ["//kozea.github.io/pygal.js/2.0.x/pygal-tooltips.min.js"], "interpolation_parameters": {}, "no_prefix": false, "title": "Saphan-Taksin 50", "x_labels": ["Jan", "Feb", "Mar", "Apr", "May", "Jun", "Jul", "Aug", "Sep", "Oct", "Nov", "Dec"], "width": 800, "range": null, "show_y_guides": true, "truncate_legend": null, "force_uri_protocol": null, "x_title": null, "interpolate": "cubic", "fill": true, "print_zeroes": true, "margin_left": null, "legend_box_size": 12, "show_minor_y_labels": true, "logarithmic": false, "legend_at_bottom_columns": null, "value_formatter": null, "stroke": true, "margin_bottom": null, "pretty_print": false, "show_minor_x_labels": true, "y_labels_major_count": null, "disable_xml_declaration": false, "y_labels_major_every": null, "truncate_label": null, "stack_from_top": false, "defs": [], "human_readable": false, "include_x_axis": false, "show_legend": true, "tooltip_fancy_mode": true, "y_title": null, "style": {"tooltip_font_size": 14, "major_label_font_family": "Consolas, \"Liberation Mono\", Menlo, Courier, monospace", "value_font_family": "Consolas, \"Liberation Mono\", Menlo, Courier, monospace", "foreground": "#999", "tooltip_font_family": "Consolas, \"Liberation Mono\", Menlo, Courier, monospace", "opacity": ".8", "font_family": "Consolas, \"Liberation Mono\", Menlo, Courier, monospace", "foreground_subtle": "#555", "colors": ["#ff5995", "#b6e354", "#feed6c", "#8cedff", "#9e6ffe", "#899ca1", "#f8f8f2", "#bf4646", "#516083", "#f92672", "#82b414", "#fd971f", "#56c2d6", "#808384", "#8c54fe", "#465457"], "foreground_strong": "#eee", "no_data_font_size": 64, "opacity_hover": ".4", "plot_background": "#111", "value_font_size": 16, "legend_font_family": "Consolas, \"Liberation Mono\", Menlo, Courier, monospace", "value_label_font_size": 10, "major_guide_stroke_dasharray": "6,6", "legend_font_size": 14, "label_font_family": "Consolas, \"Liberation Mono\", Menlo, Courier, monospace", "label_font_size": 10, "transition": "250ms", "title_font_size": 16, "value_label_font_family": "Consolas, \"Liberation Mono\", Menlo, Courier, monospace", "background": "black", "title_font_family": "Consolas, \"Liberation Mono\", Menlo, Courier, monospace", "value_colors": [], "no_data_font_family": "Consolas, \"Liberation Mono\", Menlo, Courier, monospace", "guide_stroke_dasharray": "4,4", "major_label_font_size": 10}, "strict": false, "xrange": null, "rounded_bars": null, "x_labels_major": null, "dots_size": 2.5, "show_dots": true, "order_min": null, "no_data_text": "No data", "y_labels": null, "print_labels": false, "spacing": 10, "y_labels_major": null, "print_values": false, "legends": ["Saphan-Taksin"], "zero": 0, "height": 600, "margin": 20, "box_mode": "extremes", "show_y_labels": true, "inverse_y_axis": false, "max_scale": 16, "show_x_labels": true, "explicit_size": false, "x_value_formatter": null, "secondary_range": null, "x_labels_major_every": null, "half_pie": false}</script><script type="text/javascript" xlink:href="//kozea.github.io/pygal.js/2.0.x/pygal-tooltips.min.js" /></defs><title>Saphan-Taksin 50</title><g class="graph line-graph vertical"><rect class="background" height="600" width="800" x="0" y="0" /><g class="plot" transform="translate(209, 46)"><rect class="background" height="514" width="570.8" x="0" y="0" /><g class="axis y"><path class="line" d="M0.000000 514.000000 h570.800000" /><g class="guides"><path class="major guide line" d="M0.000000 456.683049 h570.800000" /><text class="major" x="-5" y="460.18304900671484">500000.0</text><title>500000.0</title></g><g class="guides"><path class="guide line" d="M0.000000 396.866649 h570.800000" /><text class="" x="-5" y="400.3666486238429">520000.0</text><title>520000.0</title></g><g class="guides"><path class="guide line" d="M0.000000 337.050248 h570.800000" /><text class="" x="-5" y="340.55024824097086">540000.0</text><title>540000.0</title></g><g class="guides"><path class="guide line" d="M0.000000 277.233848 h570.800000" /><text class="" x="-5" y="280.7338478580989">560000.0</text><title>560000.0</title></g><g class="guides"><path class="guide line" d="M0.000000 217.417447 h570.800000" /><text class="" x="-5" y="220.91744747522688">580000.0</text><title>580000.0</title></g><g class="guides"><path class="major guide line" d="M0.000000 157.601047 h570.800000" /><text class="major" x="-5" y="161.10104709235492">600000.0</text><title>600000.0</title></g><g class="guides"><path class="guide line" d="M0.000000 97.784647 h570.800000" /><text class="" x="-5" y="101.28464670948296">620000.0</text><title>620000.0</title></g><g class="guides"><path class="guide line" d="M0.000000 37.968246 h570.800000" /><text class="" x="-5" y="41.468246326610995">640000.0</text><title>640000.0</title></g></g><g class="axis x"><g class="guides"><path class="line" d="M10.976923 0.000000 v514.000000" /><text class="" x="10.976923076923075" y="529.0">Jan</text></g><g class="guides"><path class="guide line" d="M60.872028 0.000000 v514.000000" /><text class="" x="60.872027972027965" y="529.0">Feb</text></g><g class="guides"><path class="guide line" d="M110.767133 0.000000 v514.000000" /><text class="" x="110.76713286713284" y="529.0">Mar</text></g><g class="guides"><path class="guide line" d="M160.662238 0.000000 v514.000000" /><text class="" x="160.66223776223774" y="529.0">Apr</text></g><g class="guides"><path class="guide line" d="M210.557343 0.000000 v514.000000" /><text class="" x="210.55734265734264" y="529.0">May</text></g><g class="guides"><path class="guide line" d="M260.452448 0.000000 v514.000000" /><text class="" x="260.45244755244755" y="529.0">Jun</text></g><g class="guides"><path class="guide line" d="M310.347552 0.000000 v514.000000" /><text class="" x="310.3475524475524" y="529.0">Jul</text></g><g class="guides"><path class="guide line" d="M360.242657 0.000000 v514.000000" /><text class="" x="360.2426573426573" y="529.0">Aug</text></g><g class="guides"><path class="guide line" d="M410.137762 0.000000 v514.000000" /><text class="" x="410.1377622377622" y="529.0">Sep</text></g><g class="guides"><path class="guide line" d="M460.032867 0.000000 v514.000000" /><text class="" x="460.0328671328671" y="529.0">Oct</text></g><g class="guides"><path class="guide line" d="M509.927972 0.000000 v514.000000" /><text class="" x="509.9279720279719" y="529.0">Nov</text></g><g class="guides"><path class="guide line" d="M559.823077 0.000000 v514.000000" /><text class="" x="559.8230769230769" y="529.0">Dec</text></g></g><g class="series serie-0 color-0"><path class="line reactive" d="M10.976923 514.000000 L10.976923 73.394509 11.176503 74.054520 11.376084 74.714513 11.575664 75.374470 11.775245 76.034374 11.974825 76.694206 12.174406 77.353949 12.373986 78.013586 12.573566 78.673097 12.773147 79.332466 12.972727 79.991675 13.172308 80.650706 13.371888 81.309540 13.571469 81.968161 13.771049 82.626550 13.970629 83.284690 14.170210 83.942562 14.369790 84.600149 14.569371 85.257434 14.768951 85.914397 14.968531 86.571022 15.168112 87.227291 15.367692 87.883186 15.567273 88.538688 15.766853 89.193781 15.966434 89.848446 16.166014 90.502665 16.365594 91.156422 16.565175 91.809697 16.764755 92.462473 16.964336 93.114732 17.163916 93.766457 17.363497 94.417630 17.563077 95.068232 17.762657 95.718247 17.962238 96.367655 18.161818 97.016440 18.361399 97.664584 18.560979 98.312068 18.760559 98.958875 18.960140 99.604987 19.159720 100.250386 19.359301 100.895055 19.558881 101.538976 19.758462 102.182130 19.958042 102.824500 20.157622 103.466069 20.357203 104.106817 20.556783 104.746729 20.756364 105.385785 20.955944 106.023967 21.155524 106.661259 21.355105 107.297643 21.554685 107.933099 21.754266 108.567612 21.953846 109.201162 22.153427 109.833732 22.353007 110.465304 22.552587 111.095860 22.752168 111.725383 22.951748 112.353855 23.151329 112.981258 23.350909 113.607574 23.550490 114.232785 23.750070 114.856873 23.949650 115.479821 24.149231 116.101611 24.348811 116.722225 24.548392 117.341645 24.747972 117.959853 24.947552 118.576832 25.147133 119.192563 25.346713 119.807030 25.546294 120.420213 25.745874 121.032096 25.945455 121.642660 26.145035 122.251888 26.344615 122.859762 26.544196 123.466263 26.743776 124.071375 26.943357 124.675079 27.142937 125.277357 27.342517 125.878193 27.542098 126.477567 27.741678 127.075462 27.941259 127.671860 28.140839 128.266744 28.340420 128.860096 28.540000 129.451897 28.739580 130.042130 28.939161 130.630777 29.138741 131.217821 29.338322 131.803243 29.537902 132.387026 29.737483 132.969152 29.937063 133.549603 30.136643 134.128361 30.336224 134.705409 30.535804 135.280728 30.735385 135.854301 30.934965 136.426109 31.134545 136.996136 31.334126 137.564364 31.533706 138.130774 31.733287 138.695348 31.932867 139.258070 32.132448 139.818920 32.332028 140.377882 32.531608 140.934937 32.731189 141.490068 32.930769 142.043256 33.130350 142.594484 33.329930 143.143735 33.529510 143.690990 33.729091 144.236231 33.928671 144.779442 34.128252 145.320603 34.327832 145.859697 34.527413 146.396706 34.726993 146.931613 34.926573 147.464399 35.126154 147.995047 35.325734 148.523539 35.525315 149.049857 35.724895 149.573984 35.924476 150.095901 36.124056 150.615590 36.323636 151.133035 36.523217 151.648216 36.722797 152.161117 36.922378 152.671719 37.121958 153.180005 37.321538 153.685957 37.521119 154.189556 37.720699 154.690786 37.920280 155.189628 38.119860 155.686064 38.319441 156.180077 38.519021 156.671650 38.718601 157.160763 38.918182 157.647399 39.117762 158.131541 39.317343 158.613170 39.516923 159.092269 39.716503 159.568820 39.916084 160.042805 40.115664 160.514206 40.315245 160.983006 40.514825 161.449187 40.714406 161.912731 40.913986 162.373619 41.113566 162.831835 41.313147 163.287360 41.512727 163.740177 41.712308 164.190267 41.911888 164.637614 42.111469 165.082198 42.311049 165.524003 42.510629 165.963010 42.710210 166.399202 42.909790 166.832561 43.109371 167.263069 43.308951 167.690708 43.508531 168.115461 43.708112 168.537309 43.907692 168.956235 44.107273 169.372221 44.306853 169.785249 44.506434 170.195301 44.706014 170.602360 44.905594 171.006407 45.105175 171.407425 45.304755 171.805397 45.504336 172.200303 45.703916 172.592127 45.903497 172.980851 46.103077 173.366456 46.302657 173.748925 46.502238 174.128240 46.701818 174.504384 46.901399 174.877338 47.100979 175.247085 47.300559 175.613606 47.500140 175.976885 47.699720 176.336903 47.899301 176.693642 48.098881 177.047085 48.298462 177.397213 48.498042 177.744010 48.697622 178.087456 48.897203 178.427535 49.096783 178.764229 49.296364 179.097519 49.495944 179.427387 49.695524 179.753817 49.895105 180.076790 50.094685 180.396289 50.294266 180.712295 50.493846 181.024791 50.693427 181.333759 50.893007 181.639180 51.092587 181.941039 51.292168 182.239315 51.491748 182.533992 51.691329 182.825053 51.890909 183.112478 52.090490 183.396250 52.290070 183.676352 52.489650 183.952765 52.689231 184.225472 52.888811 184.494455 53.088392 184.759696 53.287972 185.021177 53.487552 185.278881 53.687133 185.532790 53.886713 185.782885 54.086294 186.029149 54.285874 186.271565 54.485455 186.510114 54.685035 186.744778 54.884615 186.975541 55.084196 187.202383 55.283776 187.425287 55.483357 187.644236 55.682937 187.859211 55.882517 188.070194 56.082098 188.277169 56.281678 188.480116 56.481259 188.679019 56.680839 188.873859 56.880420 189.064619 57.080000 189.251280 57.279580 189.433825 57.479161 189.612237 57.678741 189.786496 57.878322 189.956586 58.077902 190.122489 58.277483 190.284187 58.477063 190.441661 58.676643 190.594895 58.876224 190.743870 59.075804 190.888569 59.275385 191.028973 59.474965 191.165066 59.674545 191.296828 59.874126 191.424243 60.073706 191.547292 60.273287 191.665958 60.472867 191.780223 60.672448 191.890068 60.872028 191.995477 61.071608 192.096444 61.271189 192.193016 61.470769 192.285251 61.670350 192.373208 61.869930 192.456947 62.069510 192.536527 62.269091 192.612006 62.468671 192.683445 62.668252 192.750900 62.867832 192.814433 63.067413 192.874102 63.266993 192.929966 63.466573 192.982083 63.666154 193.030514 63.865734 193.075317 64.065315 193.116551 64.264895 193.154275 64.464476 193.188549 64.664056 193.219431 64.863636 193.246980 65.063217 193.271256 65.262797 193.292317 65.462378 193.310223 65.661958 193.325033 65.861538 193.336805 66.061119 193.345599 66.260699 193.351473 66.460280 193.354488 66.659860 193.354701 66.859441 193.352173 67.059021 193.346961 67.258601 193.339125 67.458182 193.328725 67.657762 193.315818 67.857343 193.300465 68.056923 193.282724 68.256503 193.262655 68.456084 193.240316 68.655664 193.215766 68.855245 193.189065 69.054825 193.160271 69.254406 193.129444 69.453986 193.096642 69.653566 193.061926 69.853147 193.025353 70.052727 192.986982 70.252308 192.946874 70.451888 192.905086 70.651469 192.861679 70.851049 192.816711 71.050629 192.770240 71.250210 192.722327 71.449790 192.673030 71.649371 192.622408 71.848951 192.570521 72.048531 192.517427 72.248112 192.463185 72.447692 192.407855 72.647273 192.351495 72.846853 192.294165 73.046434 192.235923 73.246014 192.176829 73.445594 192.116942 73.645175 192.056321 73.844755 191.995024 74.044336 191.933112 74.243916 191.870642 74.443497 191.807674 74.643077 191.744268 74.842657 191.680481 75.042238 191.616374 75.241818 191.552005 75.441399 191.487433 75.640979 191.422718 75.840559 191.357917 76.040140 191.293092 76.239720 191.228300 76.439301 191.163600 76.638881 191.099052 76.838462 191.034715 77.038042 190.970647 77.237622 190.906908 77.437203 190.843557 77.636783 190.780653 77.836364 190.718255 78.035944 190.656421 78.235524 190.595212 78.435105 190.534686 78.634685 190.474902 78.834266 190.415919 79.033846 190.357796 79.233427 190.300593 79.433007 190.244368 79.632587 190.189181 79.832168 190.135090 80.031748 190.082154 80.231329 190.030433 80.430909 189.979986 80.630490 189.930872 80.830070 189.883149 81.029650 189.836877 81.229231 189.792115 81.428811 189.748921 81.628392 189.707356 81.827972 189.667478 82.027552 189.629345 82.227133 189.593018 82.426713 189.558555 82.626294 189.526016 82.825874 189.495458 83.025455 189.466942 83.225035 189.440526 83.424615 189.416270 83.624196 189.394232 83.823776 189.374472 84.023357 189.357049 84.222937 189.342021 84.422517 189.329447 84.622098 189.319388 84.821678 189.311901 85.021259 189.307047 85.220839 189.304883 85.420420 189.305469 85.620000 189.308864 85.819580 189.315128 86.019161 189.324318 86.218741 189.336495 86.418322 189.351717 86.617902 189.370043 86.817483 189.391533 87.017063 189.416245 87.216643 189.444238 87.416224 189.475573 87.615804 189.510306 87.815385 189.548499 88.014965 189.590209 88.214545 189.635495 88.414126 189.684418 88.613706 189.737035 88.813287 189.793407 89.012867 189.853591 89.212448 189.917647 89.412028 189.985635 89.611608 190.057612 89.811189 190.133639 90.010769 190.213774 90.210350 190.298076 90.409930 190.386605 90.609510 190.479419 90.809091 190.576577 91.008671 190.678139 91.208252 190.784164 91.407832 190.894710 91.607413 191.009837 91.806993 191.129603 92.006573 191.254069 92.206154 191.383292 92.405734 191.517332 92.605315 191.656248 92.804895 191.800099 93.004476 191.948944 93.204056 192.102842 93.403636 192.261853 93.603217 192.426034 93.802797 192.595446 94.002378 192.770147 94.201958 192.950197 94.401538 193.135654 94.601119 193.326577 94.800699 193.523026 95.000280 193.725060 95.199860 193.932737 95.399441 194.146117 95.599021 194.365259 95.798601 194.590221 95.998182 194.821063 96.197762 195.057845 96.397343 195.300624 96.596923 195.549460 96.796503 195.804413 96.996084 196.065540 97.195664 196.332902 97.395245 196.606557 97.594825 196.886564 97.794406 197.172983 97.993986 197.465872 98.193566 197.765290 98.393147 198.071297 98.592727 198.383952 98.792308 198.703313 98.991888 199.029440 99.191469 199.362392 99.391049 199.702227 99.590629 200.049005 99.790210 200.402786 99.989790 200.763627 100.189371 201.131588 100.388951 201.506728 100.588531 201.889106 100.788112 202.278782 100.987692 202.675814 101.187273 203.080260 101.386853 203.492182 101.586434 203.911637 101.786014 204.338684 101.985594 204.773382 102.185175 205.215791 102.384755 205.665970 102.584336 206.123978 102.783916 206.589873 102.983497 207.063715 103.183077 207.545563 103.382657 208.035475 103.582238 208.533512 103.781818 209.039731 103.981399 209.554193 104.180979 210.076956 104.380559 210.608078 104.580140 211.147620 104.779720 211.695641 104.979301 212.252198 105.178881 212.817352 105.378462 213.391162 105.578042 213.973686 105.777622 214.564983 105.977203 215.165113 106.176783 215.774134 106.376364 216.392107 106.575944 217.019089 106.775524 217.655140 106.975105 218.300318 107.174685 218.954684 107.374266 219.618295 107.573846 220.291212 107.773427 220.973493 107.973007 221.665196 108.172587 222.366382 108.372168 223.077110 108.571748 223.797437 108.771329 224.527424 108.970909 225.267129 109.170490 226.016612 109.370070 226.775931 109.569650 227.545146 109.769231 228.324315 109.968811 229.113498 110.168392 229.912754 110.367972 230.722141 110.567552 231.541719 110.767133 232.371548 110.966713 233.211658 111.166294 234.061977 111.365874 234.922404 111.565455 235.792838 111.765035 236.673180 111.964615 237.563327 112.164196 238.463181 112.363776 239.372640 112.563357 240.291604 112.762937 241.219973 112.962517 242.157645 113.162098 243.104521 113.361678 244.060499 113.561259 245.025480 113.760839 245.999363 113.960420 246.982048 114.160000 247.973433 114.359580 248.973419 114.559161 249.981904 114.758741 250.998789 114.958322 252.023973 115.157902 253.057356 115.357483 254.098836 115.557063 255.148313 115.756643 256.205688 115.956224 257.270859 116.155804 258.343726 116.355385 259.424188 116.554965 260.512145 116.754545 261.607496 116.954126 262.710142 117.153706 263.819980 117.353287 264.936912 117.552867 266.060836 117.752448 267.191652 117.952028 268.329259 118.151608 269.473557 118.351189 270.624445 118.550769 271.781824 118.750350 272.945591 118.949930 274.115648 119.149510 275.291893 119.349091 276.474226 119.548671 277.662546 119.748252 278.856753 119.947832 280.056746 120.147413 281.262425 120.346993 282.473690 120.546573 283.690439 120.746154 284.912573 120.945734 286.139990 121.145315 287.372591 121.344895 288.610275 121.544476 289.852941 121.744056 291.100489 121.943636 292.352818 122.143217 293.609828 122.342797 294.871418 122.542378 296.137489 122.741958 297.407938 122.941538 298.682667 123.141119 299.961573 123.340699 301.244558 123.540280 302.531520 123.739860 303.822358 123.939441 305.116973 124.139021 306.415264 124.338601 307.717130 124.538182 309.022471 124.737762 310.331186 124.937343 311.643175 125.136923 312.958337 125.336503 314.276572 125.536084 315.597780 125.735664 316.921859 125.935245 318.248710 126.134825 319.578231 126.334406 320.910322 126.533986 322.244884 126.733566 323.581814 126.933147 324.921014 127.132727 326.262382 127.332308 327.605817 127.531888 328.951220 127.731469 330.298489 127.931049 331.647525 128.130629 332.998227 128.330210 334.350494 128.529790 335.704225 128.729371 337.059321 128.928951 338.415681 129.128531 339.773204 129.328112 341.131790 129.527692 342.491338 129.727273 343.851747 129.926853 345.212918 130.126434 346.574750 130.326014 347.937142 130.525594 349.299994 130.725175 350.663205 130.924755 352.026675 131.124336 353.390303 131.323916 354.753988 131.523497 356.117631 131.723077 357.481131 131.922657 358.844387 132.122238 360.207299 132.321818 361.569766 132.521399 362.931687 132.720979 364.292963 132.920559 365.653493 133.120140 367.013176 133.319720 368.371911 133.519301 369.729599 133.718881 371.086138 133.918462 372.441429 134.118042 373.795371 134.317622 375.147862 134.517203 376.498804 134.716783 377.848094 134.916364 379.195633 135.115944 380.541321 135.315524 381.885056 135.515105 383.226739 135.714685 384.566268 135.914266 385.903543 136.113846 387.238464 136.313427 388.570930 136.513007 389.900841 136.712587 391.228096 136.912168 392.552595 137.111748 393.874237 137.311329 395.192921 137.510909 396.508548 137.710490 397.821017 137.910070 399.130226 138.109650 400.436077 138.309231 401.738467 138.508811 403.037298 138.708392 404.332467 138.907972 405.623875 139.107552 406.911421 139.307133 408.195005 139.506713 409.474526 139.706294 410.749884 139.905874 412.020978 140.105455 413.287707 140.305035 414.549972 140.504615 415.807671 140.704196 417.060705 140.903776 418.308972 141.103357 419.552372 141.302937 420.790805 141.502517 422.024170 141.702098 423.252367 141.901678 424.475295 142.101259 425.692853 142.300839 426.904942 142.500420 428.111460 142.700000 429.312308 142.899580 430.507384 143.099161 431.696588 143.298741 432.879820 143.498322 434.056979 143.697902 435.227964 143.897483 436.392676 144.097063 437.551013 144.296643 438.702876 144.496224 439.848163 144.695804 440.986774 144.895385 442.118609 145.094965 443.243567 145.294545 444.361547 145.494126 445.472450 145.693706 446.576174 145.893287 447.672619 146.092867 448.761685 146.292448 449.843271 146.492028 450.917277 146.691608 451.983602 146.891189 453.042145 147.090769 454.092806 147.290350 455.135485 147.489930 456.170081 147.689510 457.196494 147.889091 458.214623 148.088671 459.224367 148.288252 460.225626 148.487832 461.218300 148.687413 462.202288 148.886993 463.177490 149.086573 464.143805 149.286154 465.101132 149.485734 466.049371 149.685315 466.988422 149.884895 467.918184 150.084476 468.838557 150.284056 469.749439 150.483636 470.650732 150.683217 471.542333 150.882797 472.424143 151.082378 473.296060 151.281958 474.157986 151.481538 475.009818 151.681119 475.851457 151.880699 476.682802 152.080280 477.503753 152.279860 478.314208 152.479441 479.114069 152.679021 479.903233 152.878601 480.681600 153.078182 481.449071 153.277762 482.205544 153.477343 482.950920 153.676923 483.685097 153.876503 484.407974 154.076084 485.119453 154.275664 485.819431 154.475245 486.507809 154.674825 487.184486 154.874406 487.849362 155.073986 488.502335 155.273566 489.143306 155.473147 489.772174 155.672727 490.388839 155.872308 490.993199 156.071888 491.585155 156.271469 492.164606 156.471049 492.731452 156.670629 493.285591 156.870210 493.826924 157.069790 494.355350 157.269371 494.870769 157.468951 495.373080 157.668531 495.862182 157.868112 496.337975 158.067692 496.800358 158.267273 497.249232 158.466853 497.684494 158.666434 498.106046 158.866014 498.513787 159.065594 498.907615 159.265175 499.287431 159.464755 499.653134 159.664336 500.004623 159.863916 500.341799 160.063497 500.664559 160.263077 500.972805 160.462657 501.266435 160.662238 501.545349 160.861818 501.809476 161.061399 502.058861 161.260979 502.293579 161.460559 502.513705 161.660140 502.719314 161.859720 502.910480 162.059301 503.087278 162.258881 503.249783 162.458462 503.398069 162.658042 503.532213 162.857622 503.652287 163.057203 503.758368 163.256783 503.850529 163.456364 503.928846 163.655944 503.993394 163.855524 504.044247 164.055105 504.081480 164.254685 504.105167 164.454266 504.115385 164.653846 504.112206 164.853427 504.095707 165.053007 504.065962 165.252587 504.023045 165.452168 503.967032 165.651748 503.897997 165.851329 503.816015 166.050909 503.721162 166.250490 503.613510 166.450070 503.493136 166.649650 503.360115 166.849231 503.214520 167.048811 503.056427 167.248392 502.885911 167.447972 502.703046 167.647552 502.507907 167.847133 502.300570 168.046713 502.081107 168.246294 501.849596 168.445874 501.606109 168.645455 501.350723 168.845035 501.083511 169.044615 500.804550 169.244196 500.513912 169.443776 500.211674 169.643357 499.897909 169.842937 499.572694 170.042517 499.236102 170.242098 498.888208 170.441678 498.529088 170.641259 498.158815 170.840839 497.777465 171.040420 497.385112 171.240000 496.981832 171.439580 496.567699 171.639161 496.142788 171.838741 495.707173 172.038322 495.260929 172.237902 494.804132 172.437483 494.336856 172.637063 493.859175 172.836643 493.371165 173.036224 492.872901 173.235804 492.364456 173.435385 491.845906 173.634965 491.317326 173.834545 490.778791 174.034126 490.230375 174.233706 489.672152 174.433287 489.104199 174.632867 488.526589 174.832448 487.939397 175.032028 487.342699 175.231608 486.736568 175.431189 486.121081 175.630769 485.496311 175.830350 484.862333 176.029930 484.219222 176.229510 483.567053 176.429091 482.905901 176.628671 482.235840 176.828252 481.556945 177.027832 480.869291 177.227413 480.172953 177.426993 479.468006 177.626573 478.754524 177.826154 478.032582 178.025734 477.302256 178.225315 476.563618 178.424895 475.816746 178.624476 475.061712 178.824056 474.298593 179.023636 473.527463 179.223217 472.748396 179.422797 471.961467 179.622378 471.166752 179.821958 470.364325 180.021538 469.554260 180.221119 468.736634 180.420699 467.911519 180.620280 467.078992 180.819860 466.239126 181.019441 465.391997 181.219021 464.537680 181.418601 463.676249 181.618182 462.807779 181.817762 461.932345 182.017343 461.050021 182.216923 460.160883 182.416503 459.265005 182.616084 458.362462 182.815664 457.453328 183.015245 456.537680 183.214825 455.615590 183.414406 454.687135 183.613986 453.752388 183.813566 452.811426 184.013147 451.864321 184.212727 450.911150 184.412308 449.951987 184.611888 448.986907 184.811469 448.015985 185.011049 447.039294 185.210629 446.056911 185.410210 445.068910 185.609790 444.075366 185.809371 443.076353 186.008951 442.071947 186.208531 441.062221 186.408112 440.047252 186.607692 439.027113 186.807273 438.001879 187.006853 436.971626 187.206434 435.936428 187.406014 434.896359 187.605594 433.851495 187.805175 432.801911 188.004755 431.747681 188.204336 430.688879 188.403916 429.625582 188.603497 428.557863 188.803077 427.485797 189.002657 426.409459 189.202238 425.328924 189.401818 424.244267 189.601399 423.155562 189.800979 422.062884 190.000559 420.966308 190.200140 419.865910 190.399720 418.761762 190.599301 417.653941 190.798881 416.542521 190.998462 415.427578 191.198042 414.309184 191.397622 413.187417 191.597203 412.062349 191.796783 410.934057 191.996364 409.802614 192.195944 408.668096 192.395524 407.530578 192.595105 406.390133 192.794685 405.246838 192.994266 404.100767 193.193846 402.951993 193.393427 401.800594 193.593007 400.646642 193.792587 399.490214 193.992168 398.331383 194.191748 397.170224 194.391329 396.006813 194.590909 394.841223 194.790490 393.673531 194.990070 392.503810 195.189650 391.332136 195.389231 390.158583 195.588811 388.983225 195.788392 387.806139 195.987972 386.627398 196.187552 385.447077 196.387133 384.265252 196.586713 383.081996 196.786294 381.897385 196.985874 380.711493 197.185455 379.524396 197.385035 378.336168 197.584615 377.146883 197.784196 375.956617 197.983776 374.765445 198.183357 373.573440 198.382937 372.380679 198.582517 371.187235 198.782098 369.993184 198.981678 368.798600 199.181259 367.603558 199.380839 366.408134 199.580420 365.212400 199.780000 364.016433 199.979580 362.820308 200.179161 361.624098 200.378741 360.427879 200.578322 359.231726 200.777902 358.035713 200.977483 356.839915 201.177063 355.644408 201.376643 354.449264 201.576224 353.254561 201.775804 352.060372 201.975385 350.866771 202.174965 349.673835 202.374545 348.481637 202.574126 347.290253 202.773706 346.099757 202.973287 344.910223 203.172867 343.721728 203.372448 342.534345 203.572028 341.348150 203.771608 340.163216 203.971189 338.979620 204.170769 337.797435 204.370350 336.616737 204.569930 335.437600 204.769510 334.260099 204.969091 333.084309 205.168671 331.910304 205.368252 330.738160 205.567832 329.567951 205.767413 328.399752 205.966993 327.233638 206.166573 326.069683 206.366154 324.907963 206.565734 323.748552 206.765315 322.591524 206.964895 321.436956 207.164476 320.284920 207.364056 319.135493 207.563636 317.988750 207.763217 316.844763 207.962797 315.703610 208.162378 314.565364 208.361958 313.430100 208.561538 312.297893 208.761119 311.168818 208.960699 310.042949 209.160280 308.920361 209.359860 307.801130 209.559441 306.685330 209.759021 305.573035 209.958601 304.464321 210.158182 303.359261 210.357762 302.257932 210.557343 301.160408 210.756923 300.066750 210.956503 298.976969 211.156084 297.891060 211.355664 296.809021 211.555245 295.730847 211.754825 294.656536 211.954406 293.586085 212.153986 292.519489 212.353566 291.456746 212.553147 290.397852 212.752727 289.342803 212.952308 288.291596 213.151888 287.244229 213.351469 286.200697 213.551049 285.160997 213.750629 284.125125 213.950210 283.093079 214.149790 282.064855 214.349371 281.040449 214.548951 280.019858 214.748531 279.003079 214.948112 277.990108 215.147692 276.980942 215.347273 275.975578 215.546853 274.974012 215.746434 273.976240 215.946014 272.982260 216.145594 271.992067 216.345175 271.005659 216.544755 270.023032 216.744336 269.044183 216.943916 268.069109 217.143497 267.097805 217.343077 266.130268 217.542657 265.166496 217.742238 264.206485 217.941818 263.250231 218.141399 262.297731 218.340979 261.348981 218.540559 260.403979 218.740140 259.462720 218.939720 258.525202 219.139301 257.591421 219.338881 256.661373 219.538462 255.735056 219.738042 254.812465 219.937622 253.893598 220.137203 252.978451 220.336783 252.067020 220.536364 251.159303 220.735944 250.255295 220.935524 249.354994 221.135105 248.458396 221.334685 247.565497 221.534266 246.676295 221.733846 245.790785 221.933427 244.908965 222.133007 244.030831 222.332587 243.156380 222.532168 242.285608 222.731748 241.418512 222.931329 240.555088 223.130909 239.695333 223.330490 238.839244 223.530070 237.986818 223.729650 237.138050 223.929231 236.292938 224.128811 235.451477 224.328392 234.613666 224.527972 233.779500 224.727552 232.948975 224.927133 232.122090 225.126713 231.298839 225.326294 230.479220 225.525874 229.663229 225.725455 228.850864 225.925035 228.042119 226.124615 227.236993 226.324196 226.435482 226.523776 225.637582 226.723357 224.843290 226.922937 224.052603 227.122517 223.265517 227.322098 222.482028 227.521678 221.702134 227.721259 220.925831 227.920839 220.153116 228.120420 219.383984 228.320000 218.618434 228.519580 217.856461 228.719161 217.098061 228.918741 216.343233 229.118322 215.591972 229.317902 214.844274 229.517483 214.100137 229.717063 213.359557 229.916643 212.622531 230.116224 211.889054 230.315804 211.159125 230.515385 210.432739 230.714965 209.709893 230.914545 208.990584 231.114126 208.274808 231.313706 207.562562 231.513287 206.853843 231.712867 206.148646 231.912448 205.446969 232.112028 204.748809 232.311608 204.054161 232.511189 203.363023 232.710769 202.675391 232.910350 201.991261 233.109930 201.310631 233.309510 200.633497 233.509091 199.959855 233.708671 199.289703 233.908252 198.623036 234.107832 197.959852 234.307413 197.300146 234.506993 196.643916 234.706573 195.991158 234.906154 195.341869 235.105734 194.696045 235.305315 194.053684 235.504895 193.414780 235.704476 192.779332 235.904056 192.147336 236.103636 191.518788 236.303217 190.893685 236.502797 190.272024 236.702378 189.653800 236.901958 189.039012 237.101538 188.427655 237.301119 187.819726 237.500699 187.215222 237.700280 186.614139 237.899860 186.016473 238.099441 185.422222 238.299021 184.831382 238.498601 184.243950 238.698182 183.659922 238.897762 183.079295 239.097343 182.502065 239.296923 181.928230 239.496503 181.357784 239.696084 180.790727 239.895664 180.227053 240.095245 179.666759 240.294825 179.109843 240.494406 178.556300 240.693986 178.006128 240.893566 177.459322 241.093147 176.915880 241.292727 176.375798 241.492308 175.839073 241.691888 175.305701 241.891469 174.775679 242.091049 174.249004 242.290629 173.725671 242.490210 173.205679 242.689790 172.689022 242.889371 172.175699 243.088951 171.665705 243.288531 171.159038 243.488112 170.655693 243.687692 170.155667 243.887273 169.658957 244.086853 169.165560 244.286434 168.675472 244.486014 168.188690 244.685594 167.705210 244.885175 167.225030 245.084755 166.748144 245.284336 166.274551 245.483916 165.804247 245.683497 165.337228 245.883077 164.873492 246.082657 164.413033 246.282238 163.955850 246.481818 163.501939 246.681399 163.051296 246.880979 162.603919 247.080559 162.159803 247.280140 161.718945 247.479720 161.281342 247.679301 160.846990 247.878881 160.415887 248.078462 159.988028 248.278042 159.563410 248.477622 159.142030 248.677203 158.723885 248.876783 158.308971 249.076364 157.897284 249.275944 157.488822 249.475524 157.083581 249.675105 156.681557 249.874685 156.282747 250.074266 155.887148 250.273846 155.494757 250.473427 155.105569 250.673007 154.719581 250.872587 154.336791 251.072168 153.957195 251.271748 153.580789 251.471329 153.207569 251.670909 152.837534 251.870490 152.470678 252.070070 152.106999 252.269650 151.746494 252.469231 151.389159 252.668811 151.034990 252.868392 150.683984 253.067972 150.336138 253.267552 149.991448 253.467133 149.649912 253.666713 149.311525 253.866294 148.976284 254.065874 148.644186 254.265455 148.315227 254.465035 147.989405 254.664615 147.666715 254.864196 147.347154 255.063776 147.030719 255.263357 146.717406 255.462937 146.407213 255.662517 146.100135 255.862098 145.796169 256.061678 145.495312 256.261259 145.197561 256.460839 144.902912 256.660420 144.611361 256.860000 144.322906 257.059580 144.037542 257.259161 143.755267 257.458741 143.476077 257.658322 143.199969 257.857902 142.926939 258.057483 142.656983 258.257063 142.390100 258.456643 142.126284 258.656224 141.865533 258.855804 141.607844 259.055385 141.353212 259.254965 141.101635 259.454545 140.853109 259.654126 140.607631 259.853706 140.365197 260.053287 140.125804 260.252867 139.889448 260.452448 139.656127 260.652028 139.425833 260.851608 139.198549 261.051189 138.974251 261.250769 138.752919 261.450350 138.534530 261.649930 138.319063 261.849510 138.106496 262.049091 137.896807 262.248671 137.689974 262.448252 137.485976 262.647832 137.284790 262.847413 137.086395 263.046993 136.890769 263.246573 136.697890 263.446154 136.507737 263.645734 136.320287 263.845315 136.135520 264.044895 135.953412 264.244476 135.773942 264.444056 135.597088 264.643636 135.422830 264.843217 135.251144 265.042797 135.082008 265.242378 134.915402 265.441958 134.751303 265.641538 134.589690 265.841119 134.430540 266.040699 134.273833 266.240280 134.119545 266.439860 133.967655 266.639441 133.818142 266.839021 133.670984 267.038601 133.526158 267.238182 133.383644 267.437762 133.243418 267.637343 133.105460 267.836923 132.969748 268.036503 132.836259 268.236084 132.704973 268.435664 132.575866 268.635245 132.448918 268.834825 132.324106 269.034406 132.201409 269.233986 132.080805 269.433566 131.962272 269.633147 131.845788 269.832727 131.731332 270.032308 131.618881 270.231888 131.508414 270.431469 131.399910 270.631049 131.293345 270.830629 131.188699 271.030210 131.085949 271.229790 130.985075 271.429371 130.886053 271.628951 130.788863 271.828531 130.693481 272.028112 130.599888 272.227692 130.508060 272.427273 130.417976 272.626853 130.329614 272.826434 130.242953 273.026014 130.157970 273.225594 130.074643 273.425175 129.992952 273.624755 129.912873 273.824336 129.834386 274.023916 129.757469 274.223497 129.682099 274.423077 129.608254 274.622657 129.535914 274.822238 129.465056 275.021818 129.395659 275.221399 129.327700 275.420979 129.261157 275.620559 129.196010 275.820140 129.132236 276.019720 129.069813 276.219301 129.008720 276.418881 128.948934 276.618462 128.890435 276.818042 128.833199 277.017622 128.777206 277.217203 128.722433 277.416783 128.668859 277.616364 128.616462 277.815944 128.565220 278.015524 128.515111 278.215105 128.466114 278.414685 128.418206 278.614266 128.371366 278.813846 128.325572 279.013427 128.280802 279.213007 128.237035 279.412587 128.194248 279.612168 128.152419 279.811748 128.111528 280.011329 128.071552 280.210909 128.032469 280.410490 127.994258 280.610070 127.956897 280.809650 127.920363 281.009231 127.884635 281.208811 127.849692 281.408392 127.815511 281.607972 127.782071 281.807552 127.749350 282.007133 127.717326 282.206713 127.685976 282.406294 127.655281 282.605874 127.625217 282.805455 127.595762 283.005035 127.566896 283.204615 127.538596 283.404196 127.510840 283.603776 127.483607 283.803357 127.456875 284.002937 127.430621 284.202517 127.404825 284.402098 127.379463 284.601678 127.354516 284.801259 127.329960 285.000839 127.305774 285.200420 127.281936 285.400000 127.258424 285.599580 127.235217 285.799161 127.212292 285.998741 127.189628 286.198322 127.167203 286.397902 127.144995 286.597483 127.122983 286.797063 127.101144 286.996643 127.079457 287.196224 127.057901 287.395804 127.036452 287.595385 127.015089 287.794965 126.993791 287.994545 126.972536 288.194126 126.951302 288.393706 126.930066 288.593287 126.908808 288.792867 126.887506 288.992448 126.866137 289.192028 126.844680 289.391608 126.823113 289.591189 126.801415 289.790769 126.779562 289.990350 126.757535 290.189930 126.735310 290.389510 126.712866 290.589091 126.690181 290.788671 126.667234 290.988252 126.644002 291.187832 126.620464 291.387413 126.596598 291.586993 126.572382 291.786573 126.547795 291.986154 126.522814 292.185734 126.497417 292.385315 126.471584 292.584895 126.445291 292.784476 126.418518 292.984056 126.391242 293.183636 126.363442 293.383217 126.335096 293.582797 126.306182 293.782378 126.276678 293.981958 126.246562 294.181538 126.215813 294.381119 126.184409 294.580699 126.152328 294.780280 126.119548 294.979860 126.086047 295.179441 126.051804 295.379021 126.016796 295.578601 125.981003 295.778182 125.944401 295.977762 125.906970 296.177343 125.868688 296.376923 125.829532 296.576503 125.789480 296.776084 125.748512 296.975664 125.706606 297.175245 125.663738 297.374825 125.619889 297.574406 125.575035 297.773986 125.529155 297.973566 125.482227 298.173147 125.434230 298.372727 125.385141 298.572308 125.334939 298.771888 125.283602 298.971469 125.231108 299.171049 125.177435 299.370629 125.122562 299.570210 125.066467 299.769790 125.009128 299.969371 124.950522 300.168951 124.890629 300.368531 124.829426 300.568112 124.766893 300.767692 124.703005 300.967273 124.637743 301.166853 124.571085 301.366434 124.503007 301.566014 124.433489 301.765594 124.362509 301.965175 124.290045 302.164755 124.216075 302.364336 124.140578 302.563916 124.063531 302.763497 123.984913 302.963077 123.904701 303.162657 123.822875 303.362238 123.739413 303.561818 123.654291 303.761399 123.567490 303.960979 123.478986 304.160559 123.388758 304.360140 123.296785 304.559720 123.203044 304.759301 123.107513 304.958881 123.010172 305.158462 122.910997 305.358042 122.809968 305.557622 122.707062 305.757203 122.602258 305.956783 122.495533 306.156364 122.386867 306.355944 122.276236 306.555524 122.163620 306.755105 122.048997 306.954685 121.932344 307.154266 121.813640 307.353846 121.692863 307.553427 121.569992 307.753007 121.445004 307.952587 121.317878 308.152168 121.188591 308.351748 121.057123 308.551329 120.923450 308.750909 120.787553 308.950490 120.649408 309.150070 120.508993 309.349650 120.366288 309.549231 120.221270 309.748811 120.073917 309.948392 119.924208 310.147972 119.772120 310.347552 119.617633 310.547133 119.460732 310.746713 119.301437 310.946294 119.139775 311.145874 118.975775 311.345455 118.809465 311.545035 118.640872 311.744615 118.470024 311.944196 118.296948 312.143776 118.121674 312.343357 117.944228 312.542937 117.764638 312.742517 117.582932 312.942098 117.399138 313.141678 117.213284 313.341259 117.025398 313.540839 116.835506 313.740420 116.643638 313.940000 116.449821 314.139580 116.254083 314.339161 116.056452 314.538741 115.856955 314.738322 115.655620 314.937902 115.452475 315.137483 115.247548 315.337063 115.040867 315.536643 114.832459 315.736224 114.622353 315.935804 114.410576 316.135385 114.197156 316.334965 113.982120 316.534545 113.765498 316.734126 113.547315 316.933706 113.327601 317.133287 113.106383 317.332867 112.883689 317.532448 112.659546 317.732028 112.433983 317.931608 112.207028 318.131189 111.978707 318.330769 111.749049 318.530350 111.518082 318.729930 111.285834 318.929510 111.052332 319.129091 110.817604 319.328671 110.581679 319.528252 110.344583 319.727832 110.106345 319.927413 109.866992 320.126993 109.626552 320.326573 109.385054 320.526154 109.142525 320.725734 108.898992 320.925315 108.654484 321.124895 108.409028 321.324476 108.162652 321.524056 107.915385 321.723636 107.667253 321.923217 107.418285 322.122797 107.168508 322.322378 106.917950 322.521958 106.666640 322.721538 106.414604 322.921119 106.161872 323.120699 105.908469 323.320280 105.654425 323.519860 105.399767 323.719441 105.144523 323.919021 104.888721 324.118601 104.632389 324.318182 104.375554 324.517762 104.118244 324.717343 103.860487 324.916923 103.602311 325.116503 103.343744 325.316084 103.084813 325.515664 102.825546 325.715245 102.565972 325.914825 102.306118 326.114406 102.046011 326.313986 101.785680 326.513566 101.525152 326.713147 101.264455 326.912727 101.003618 327.112308 100.742667 327.311888 100.481631 327.511469 100.220537 327.711049 99.959414 327.910629 99.698289 328.110210 99.437189 328.309790 99.176144 328.509371 98.915180 328.708951 98.654325 328.908531 98.393607 329.108112 98.133055 329.307692 97.872695 329.507273 97.612556 329.706853 97.352665 329.906434 97.093051 330.106014 96.833740 330.305594 96.574762 330.505175 96.316143 330.704755 96.057911 330.904336 95.800095 331.103916 95.542722 331.303497 95.285821 331.503077 95.029417 331.702657 94.773541 331.902238 94.518219 332.101818 94.263479 332.301399 94.009349 332.500979 93.755857 332.700559 93.503030 332.900140 93.250897 333.099720 92.999486 333.299301 92.748823 333.498881 92.498938 333.698462 92.249857 333.898042 92.001608 334.097622 91.754221 334.297203 91.507721 334.496783 91.262137 334.696364 91.017497 334.895944 90.773829 335.095524 90.531160 335.295105 90.289519 335.494685 90.048932 335.694266 89.809429 335.893846 89.571036 336.093427 89.333781 336.293007 89.097693 336.492587 88.862800 336.692168 88.629128 336.891748 88.396706 337.091329 88.165561 337.290909 87.935722 337.490490 87.707216 337.690070 87.480072 337.889650 87.254316 338.089231 87.029977 338.288811 86.807082 338.488392 86.585660 338.687972 86.365737 338.887552 86.147343 339.087133 85.930505 339.286713 85.715250 339.486294 85.501606 339.685874 85.289602 339.885455 85.079265 340.085035 84.870622 340.284615 84.663702 340.484196 84.458533 340.683776 84.255142 340.883357 84.053557 341.082937 83.853806 341.282517 83.655917 341.482098 83.459917 341.681678 83.265834 341.881259 83.073697 342.080839 82.883533 342.280420 82.695370 342.480000 82.509235 342.679580 82.325157 342.879161 82.143163 343.078741 81.963281 343.278322 81.785538 343.477902 81.609964 343.677483 81.436585 343.877063 81.265430 344.076643 81.096525 344.276224 80.929900 344.475804 80.765581 344.675385 80.603597 344.874965 80.443976 345.074545 80.286744 345.274126 80.131931 345.473706 79.979563 345.673287 79.829670 345.872867 79.682277 346.072448 79.537414 346.272028 79.395108 346.471608 79.255387 346.671189 79.118279 346.870769 78.983812 347.070350 78.852012 347.269930 78.722909 347.469510 78.596530 347.669091 78.472903 347.868671 78.352056 348.068252 78.234016 348.267832 78.118811 348.467413 78.006469 348.666993 77.897018 348.866573 77.790486 349.066154 77.686901 349.265734 77.586290 349.465315 77.488681 349.664895 77.394102 349.864476 77.302581 350.064056 77.214145 350.263636 77.128823 350.463217 77.046642 350.662797 76.967630 350.862378 76.891815 351.061958 76.819225 351.261538 76.749887 351.461119 76.683830 351.660699 76.621081 351.860280 76.561667 352.059860 76.505618 352.259441 76.452960 352.459021 76.403721 352.658601 76.357930 352.858182 76.315614 353.057762 76.276801 353.257343 76.241518 353.456923 76.209794 353.656503 76.181656 353.856084 76.157132 354.055664 76.136250 354.255245 76.119038 354.454825 76.105523 354.654406 76.095734 354.853986 76.089698 355.053566 76.087443 355.253147 76.088997 355.452727 76.094387 355.652308 76.103642 355.851888 76.116789 356.051469 76.133856 356.251049 76.154872 356.450629 76.179863 356.650210 76.208857 356.849790 76.241883 357.049371 76.278968 357.248951 76.320140 357.448531 76.365426 357.648112 76.414856 357.847692 76.468455 358.047273 76.526253 358.246853 76.588277 358.446434 76.654555 358.646014 76.725115 358.845594 76.799984 359.045175 76.879191 359.244755 76.962762 359.444336 77.050727 359.643916 77.143112 359.843497 77.239946 360.043077 77.341256 360.242657 77.447071 360.442238 77.557409 360.641818 77.672262 360.841399 77.791610 361.040979 77.915434 361.240559 78.043718 361.440140 78.176441 361.639720 78.313587 361.839301 78.455136 362.038881 78.601070 362.238462 78.751371 362.438042 78.906020 362.637622 79.064999 362.837203 79.228290 363.036783 79.395874 363.236364 79.567734 363.435944 79.743850 363.635524 79.924204 363.835105 80.108778 364.034685 80.297553 364.234266 80.490512 364.433846 80.687636 364.633427 80.888906 364.833007 81.094304 365.032587 81.303812 365.232168 81.517411 365.431748 81.735083 365.631329 81.956810 365.830909 82.182573 366.030490 82.412354 366.230070 82.646134 366.429650 82.883896 366.629231 83.125621 366.828811 83.371290 367.028392 83.620885 367.227972 83.874388 367.427552 84.131780 367.627133 84.393043 367.826713 84.658159 368.026294 84.927109 368.225874 85.199876 368.425455 85.476439 368.625035 85.756782 368.824615 86.040886 369.024196 86.328733 369.223776 86.620303 369.423357 86.915579 369.622937 87.214543 369.822517 87.517176 370.022098 87.823459 370.221678 88.133375 370.421259 88.446905 370.620839 88.764030 370.820420 89.084732 371.020000 89.408994 371.219580 89.736796 371.419161 90.068120 371.618741 90.402948 371.818322 90.741261 372.017902 91.083042 372.217483 91.428271 372.417063 91.776930 372.616643 92.129002 372.816224 92.484467 373.015804 92.843307 373.215385 93.205505 373.414965 93.571041 373.614545 93.939897 373.814126 94.312054 374.013706 94.687496 374.213287 95.066202 374.412867 95.448155 374.612448 95.833337 374.812028 96.221729 375.011608 96.613312 375.211189 97.008068 375.410769 97.405980 375.610350 97.807028 375.809930 98.211194 376.009510 98.618460 376.209091 99.028808 376.408671 99.442219 376.608252 99.858674 376.807832 100.278156 377.007413 100.700646 377.206993 101.126126 377.406573 101.554577 377.606154 101.985980 377.805734 102.420319 378.005315 102.857574 378.204895 103.297726 378.404476 103.740759 378.604056 104.186652 378.803636 104.635388 379.003217 105.086948 379.202797 105.541315 379.402378 105.998469 379.601958 106.458393 379.801538 106.921068 380.001119 107.386475 380.200699 107.854597 380.400280 108.325414 380.599860 108.798909 380.799441 109.275063 380.999021 109.753858 381.198601 110.235276 381.398182 110.719297 381.597762 111.205904 381.797343 111.695079 381.996923 112.186803 382.196503 112.681057 382.396084 113.177824 382.595664 113.677084 382.795245 114.178820 382.994825 114.683014 383.194406 115.189646 383.393986 115.698699 383.593566 116.210153 383.793147 116.723992 383.992727 117.240196 384.192308 117.758747 384.391888 118.279627 384.591469 118.802817 384.791049 119.328299 384.990629 119.856054 385.190210 120.386065 385.389790 120.918313 385.589371 121.452779 385.788951 121.989445 385.988531 122.528293 386.188112 123.069305 386.387692 123.612461 386.587273 124.157745 386.786853 124.705136 386.986434 125.254618 387.186014 125.806171 387.385594 126.359778 387.585175 126.915419 387.784755 127.473077 387.984336 128.032733 388.183916 128.594369 388.383497 129.157966 388.583077 129.723507 388.782657 130.290972 388.982238 130.860344 389.181818 131.431603 389.381399 132.004733 389.580979 132.579713 389.780559 133.156527 389.980140 133.735155 390.179720 134.315579 390.379301 134.897781 390.578881 135.481743 390.778462 136.067445 390.978042 136.654871 391.177622 137.244000 391.377203 137.834816 391.576783 138.427300 391.776364 139.021433 391.975944 139.617196 392.175524 140.214573 392.375105 140.813544 392.574685 141.414090 392.774266 142.016194 392.973846 142.619837 393.173427 143.225001 393.373007 143.831667 393.572587 144.439818 393.772168 145.049434 393.971748 145.660497 394.171329 146.272990 394.370909 146.886893 394.570490 147.502188 394.770070 148.118857 394.969650 148.736882 395.169231 149.356244 395.368811 149.976925 395.568392 150.598906 395.767972 151.222169 395.967552 151.846696 396.167133 152.472468 396.366713 153.099468 396.566294 153.727676 396.765874 154.357074 396.965455 154.987644 397.165035 155.619368 397.364615 156.252227 397.564196 156.886203 397.763776 157.521277 397.963357 158.157431 398.162937 158.794647 398.362517 159.432907 398.562098 160.072191 398.761678 160.712483 398.961259 161.353762 399.160839 161.996012 399.360420 162.639213 399.560000 163.283347 399.759580 163.928396 399.959161 164.574342 400.158741 165.221165 400.358322 165.868849 400.557902 166.517374 400.757483 167.166722 400.957063 167.816875 401.156643 168.467814 401.356224 169.119521 401.555804 169.771977 401.755385 170.425165 401.954965 171.079066 402.154545 171.733661 402.354126 172.388933 402.553706 173.044862 402.753287 173.701431 402.952867 174.358621 403.152448 175.016413 403.352028 175.674790 403.551608 176.333733 403.751189 176.993224 403.950769 177.653243 404.150350 178.313774 404.349930 178.974797 404.549510 179.636295 404.749091 180.298248 404.948671 180.960639 405.148252 181.623449 405.347832 182.286659 405.547413 182.950252 405.746993 183.614209 405.946573 184.278512 406.146154 184.943142 406.345734 185.608081 406.545315 186.273311 406.744895 186.938812 406.944476 187.604568 407.144056 188.270559 407.343636 188.936767 407.543217 189.603174 407.742797 190.269762 407.942378 190.936511 408.141958 191.603404 408.341538 192.270423 408.541119 192.937548 408.740699 193.604762 408.940280 194.272047 409.139860 194.939383 409.339441 195.606752 409.539021 196.274137 409.738601 196.941519 409.938182 197.608879 410.137762 198.276199 410.337343 198.943458 410.536923 199.610618 410.736503 200.277642 410.936084 200.944488 411.135664 201.611119 411.335245 202.277494 411.534825 202.943574 411.734406 203.609319 411.933986 204.274690 412.133566 204.939648 412.333147 205.604152 412.532727 206.268164 412.732308 206.931644 412.931888 207.594553 413.131469 208.256851 413.331049 208.918498 413.530629 209.579456 413.730210 210.239684 413.929790 210.899144 414.129371 211.557795 414.328951 212.215598 414.528531 212.872515 414.728112 213.528504 414.927692 214.183528 415.127273 214.837545 415.326853 215.490518 415.526434 216.142406 415.726014 216.793170 415.925594 217.442771 416.125175 218.091169 416.324755 218.738324 416.524336 219.384197 416.723916 220.028749 416.923497 220.671940 417.123077 221.313730 417.322657 221.954081 417.522238 222.592952 417.721818 223.230305 417.921399 223.866100 418.120979 224.500296 418.320559 225.132856 418.520140 225.763739 418.719720 226.392906 418.919301 227.020317 419.118881 227.645933 419.318462 228.269714 419.518042 228.891622 419.717622 229.511616 419.917203 230.129657 420.116783 230.745705 420.316364 231.359722 420.515944 231.971668 420.715524 232.581502 420.915105 233.189186 421.114685 233.794680 421.314266 234.397945 421.513846 234.998942 421.713427 235.597630 421.913007 236.193970 422.112587 236.787924 422.312168 237.379450 422.511748 237.968511 422.711329 238.555066 422.910909 239.139075 423.110490 239.720501 423.310070 240.299302 423.509650 240.875440 423.709231 241.448875 423.908811 242.019567 424.108392 242.587478 424.307972 243.152567 424.507552 243.714796 424.707133 244.274124 424.906713 244.830512 425.106294 245.383921 425.305874 245.934311 425.505455 246.481644 425.705035 247.025878 425.904615 247.566975 426.104196 248.104896 426.303776 248.639601 426.503357 249.171050 426.702937 249.699204 426.902517 250.224023 427.102098 250.745469 427.301678 251.263501 427.501259 251.778080 427.700839 252.289167 427.900420 252.796722 428.100000 253.300705 428.299580 253.801078 428.499161 254.297801 428.698741 254.790833 428.898322 255.280137 429.097902 255.765672 429.297483 256.247398 429.497063 256.725277 429.696643 257.199269 429.896224 257.669334 430.095804 258.135433 430.295385 258.597527 430.494965 259.055576 430.694545 259.509540 430.894126 259.959380 431.093706 260.405057 431.293287 260.846531 431.492867 261.283762 431.692448 261.716712 431.892028 262.145340 432.091608 262.569607 432.291189 262.989475 432.490769 263.404902 432.690350 263.815851 432.889930 264.222280 433.089510 264.624152 433.289091 265.021425 433.488671 265.414062 433.688252 265.802022 433.887832 266.185266 434.087413 266.563755 434.286993 266.937449 434.486573 267.306308 434.686154 267.670293 434.885734 268.029365 435.085315 268.383484 435.284895 268.732610 435.484476 269.076705 435.684056 269.415729 435.883636 269.749641 436.083217 270.078404 436.282797 270.401976 436.482378 270.720320 436.681958 271.033395 436.881538 271.341162 437.081119 271.643581 437.280699 271.940613 437.480280 272.232218 437.679860 272.518358 437.879441 272.798992 438.079021 273.074081 438.278601 273.343585 438.478182 273.607466 438.677762 273.865683 438.877343 274.118198 439.076923 274.364970 439.276503 274.605960 439.476084 274.841129 439.675664 275.070437 439.875245 275.293845 440.074825 275.511314 440.274406 275.722803 440.473986 275.928274 440.673566 276.127686 440.873147 276.321001 441.072727 276.508179 441.272308 276.689180 441.471888 276.863965 441.671469 277.032495 441.871049 277.194730 442.070629 277.350630 442.270210 277.500157 442.469790 277.643270 442.669371 277.779930 442.868951 277.910098 443.068531 278.033734 443.268112 278.150799 443.467692 278.261254 443.667273 278.365058 443.866853 278.462172 444.066434 278.552557 444.266014 278.636174 444.465594 278.712982 444.665175 278.782943 444.864755 278.846017 445.064336 278.902165 445.263916 278.951346 445.463497 278.993522 445.663077 279.028653 445.862657 279.056700 446.062238 279.077623 446.261818 279.091382 446.461399 279.097939 446.660979 279.097253 446.860559 279.089286 447.060140 279.073997 447.259720 279.051347 447.459301 279.021298 447.658881 278.983809 447.858462 278.938840 448.058042 278.886354 448.257622 278.826309 448.457203 278.758666 448.656783 278.683386 448.856364 278.600430 449.055944 278.509758 449.255524 278.411331 449.455105 278.305109 449.654685 278.191052 449.854266 278.069122 450.053846 277.939278 450.253427 277.801481 450.453007 277.655692 450.652587 277.501871 450.852168 277.339980 451.051748 277.169977 451.251329 276.991824 451.450909 276.805482 451.650490 276.610910 451.850070 276.408070 452.049650 276.196922 452.249231 275.977427 452.448811 275.749544 452.648392 275.513235 452.847972 275.268460 453.047552 275.015180 453.247133 274.753354 453.446713 274.482945 453.646294 274.203911 453.845874 273.916215 454.045455 273.619815 454.245035 273.314673 454.444615 273.000750 454.644196 272.678005 454.843776 272.346400 455.043357 272.005894 455.242937 271.656449 455.442517 271.298025 455.642098 270.930582 455.841678 270.554081 456.041259 270.168483 456.240839 269.773748 456.440420 269.369836 456.640000 268.956709 456.839580 268.534326 457.039161 268.102648 457.238741 267.661636 457.438322 267.211250 457.637902 266.751451 457.837483 266.282199 458.037063 265.803454 458.236643 265.315178 458.436224 264.817331 458.635804 264.309874 458.835385 263.792766 459.034965 263.265968 459.234545 262.729442 459.434126 262.183147 459.633706 261.627044 459.833287 261.061093 460.032867 260.485256 460.232448 259.899512 460.432028 259.303925 460.631608 258.698578 460.831189 258.083552 461.030769 257.458932 461.230350 256.824799 461.429930 256.181238 461.629510 255.528330 461.829091 254.866159 462.028671 254.194807 462.228252 253.514358 462.427832 252.824894 462.627413 252.126498 462.826993 251.419253 463.026573 250.703242 463.226154 249.978548 463.425734 249.245254 463.625315 248.503442 463.824895 247.753195 464.024476 246.994597 464.224056 246.227730 464.423636 245.452677 464.623217 244.669521 464.822797 243.878345 465.022378 243.079231 465.221958 242.272263 465.421538 241.457524 465.621119 240.635096 465.820699 239.805062 466.020280 238.967505 466.219860 238.122508 466.419441 237.270155 466.619021 236.410527 466.818601 235.543707 467.018182 234.669779 467.217762 233.788826 467.417343 232.900929 467.616923 232.006173 467.816503 231.104640 468.016084 230.196413 468.215664 229.281574 468.415245 228.360208 468.614825 227.432396 468.814406 226.498221 469.013986 225.557766 469.213566 224.611115 469.413147 223.658350 469.612727 222.699554 469.812308 221.734810 470.011888 220.764200 470.211469 219.787808 470.411049 218.805716 470.610629 217.818008 470.810210 216.824766 471.009790 215.826074 471.209371 214.822013 471.408951 213.812667 471.608531 212.798119 471.808112 211.778451 472.007692 210.753747 472.207273 209.724090 472.406853 208.689561 472.606434 207.650245 472.806014 206.606224 473.005594 205.557581 473.205175 204.504399 473.404755 203.446760 473.604336 202.384748 473.803916 201.318445 474.003497 200.247935 474.203077 199.173300 474.402657 198.094623 474.602238 197.011987 474.801818 195.925475 475.001399 194.835169 475.200979 193.741154 475.400559 192.643510 475.600140 191.542322 475.799720 190.437673 475.999301 189.329644 476.198881 188.218319 476.398462 187.103782 476.598042 185.986114 476.797622 184.865399 476.997203 183.741719 477.196783 182.615158 477.396364 181.485798 477.595944 180.353722 477.795524 179.219013 477.995105 178.081754 478.194685 176.942028 478.394266 175.799918 478.593846 174.655506 478.793427 173.508876 478.993007 172.360110 479.192587 171.209291 479.392168 170.056503 479.591748 168.901827 479.791329 167.745348 479.990909 166.587147 480.190490 165.427307 480.390070 164.265912 480.589650 163.103045 480.789231 161.938788 480.988811 160.773223 481.188392 159.606435 481.387972 158.438506 481.587552 157.269519 481.787133 156.099556 481.986713 154.928701 482.186294 153.757036 482.385874 152.584645 482.585455 151.411610 482.785035 150.238014 482.984615 149.063939 483.184196 147.889470 483.383776 146.714688 483.583357 145.539677 483.782937 144.364520 483.982517 143.189299 484.182098 142.014097 484.381678 140.838997 484.581259 139.664082 484.780839 138.489435 484.980420 137.315139 485.180000 136.141276 485.379580 134.967930 485.579161 133.795183 485.778741 132.623119 485.978322 131.451819 486.177902 130.281368 486.377483 129.111848 486.577063 127.943341 486.776643 126.775931 486.976224 125.609701 487.175804 124.444733 487.375385 123.281111 487.574965 122.118916 487.774545 120.958233 487.974126 119.799144 488.173706 118.641731 488.373287 117.486079 488.572867 116.332269 488.772448 115.180384 488.972028 114.030508 489.171608 112.882723 489.371189 111.737112 489.570769 110.593758 489.770350 109.452744 489.969930 108.314153 490.169510 107.178067 490.369091 106.044570 490.568671 104.913744 490.768252 103.785673 490.967832 102.660439 491.167413 101.538124 491.366993 100.418813 491.566573 99.302588 491.766154 98.189531 491.965734 97.079726 492.165315 95.973255 492.364895 94.870202 492.564476 93.770649 492.764056 92.674679 492.963636 91.582375 493.163217 90.493819 493.362797 89.409096 493.562378 88.328287 493.761958 87.251476 493.961538 86.178744 494.161119 85.110177 494.360699 84.045855 494.560280 82.985862 494.759860 81.930282 494.959441 80.879196 495.159021 79.832688 495.358601 78.790840 495.558182 77.753735 495.757762 76.721457 495.957343 75.694089 496.156923 74.671712 496.356503 73.654410 496.556084 72.642266 496.755664 71.635363 496.955245 70.633783 497.154825 69.637610 497.354406 68.646926 497.553986 67.661814 497.753566 66.682357 497.953147 65.708639 498.152727 64.740741 498.352308 63.778747 498.551888 62.822740 498.751469 61.872802 498.951049 60.929016 499.150629 59.991466 499.350210 59.060234 499.549790 58.135403 499.749371 57.217056 499.948951 56.305275 500.148531 55.400145 500.348112 54.501747 500.547692 53.610164 500.747273 52.725480 500.946853 51.847776 501.146434 50.977137 501.346014 50.113645 501.545594 49.257383 501.745175 48.408433 501.944755 47.566879 502.144336 46.732803 502.343916 45.906289 502.543497 45.087419 502.743077 44.276276 502.942657 43.472944 503.142238 42.677504 503.341818 41.890039 503.541399 41.110634 503.740979 40.339370 503.940559 39.576330 504.140140 38.821598 504.339720 38.075255 504.539301 37.337386 504.738881 36.608073 504.938462 35.887398 505.138042 35.175446 505.337622 34.472297 505.537203 33.778037 505.736783 33.092746 505.936364 32.416509 506.135944 31.749408 506.335524 31.091526 506.535105 30.442945 506.734685 29.803750 506.934266 29.174021 507.133846 28.553844 507.333427 27.943300 507.533007 27.342472 507.732587 26.751443 507.932168 26.170296 508.131748 25.599114 508.331329 25.037980 508.530909 24.486977 508.730490 23.946187 508.930070 23.415693 509.129650 22.895579 509.329231 22.385927 509.528811 21.886820 509.728392 21.398341 509.927972 20.920572 510.127552 20.453577 510.327133 19.997331 510.526713 19.551794 510.726294 19.116920 510.925874 18.692668 511.125455 18.278993 511.325035 17.875853 511.524615 17.483204 511.724196 17.101004 511.923776 16.729208 512.123357 16.367775 512.322937 16.016660 512.522517 15.675821 512.722098 15.345215 512.921678 15.024798 513.121259 14.714526 513.320839 14.414358 513.520420 14.124250 513.720000 13.844158 513.919580 13.574039 514.119161 13.313850 514.318741 13.063549 514.518322 12.823091 514.717902 12.592434 514.917483 12.371535 515.117063 12.160350 515.316643 11.958836 515.516224 11.766950 515.715804 11.584649 515.915385 11.411889 516.114965 11.248628 516.314545 11.094822 516.514126 10.950428 516.713706 10.815404 516.913287 10.689705 517.112867 10.573288 517.312448 10.466111 517.512028 10.368130 517.711608 10.279302 517.911189 10.199584 518.110769 10.128933 518.310350 10.067305 518.509930 10.014658 518.709510 9.970948 518.909091 9.936132 519.108671 9.910166 519.308252 9.893009 519.507832 9.884615 519.707413 9.884943 519.906993 9.893950 520.106573 9.911591 520.306154 9.937824 520.505734 9.972605 520.705315 10.015892 520.904895 10.067642 521.104476 10.127810 521.304056 10.196354 521.503636 10.273231 521.703217 10.358398 521.902797 10.451810 522.102378 10.553427 522.301958 10.663203 522.501538 10.781096 522.701119 10.907062 522.900699 11.041059 523.100280 11.183044 523.299860 11.332973 523.499441 11.490802 523.699021 11.656490 523.898601 11.829992 524.098182 12.011265 524.297762 12.200267 524.497343 12.396954 524.696923 12.601283 524.896503 12.813211 525.096084 13.032694 525.295664 13.259690 525.495245 13.494154 525.694825 13.736045 525.894406 13.985319 526.093986 14.241933 526.293566 14.505843 526.493147 14.777006 526.692727 15.055380 526.892308 15.340920 527.091888 15.633585 527.291469 15.933330 527.491049 16.240112 527.690629 16.553889 527.890210 16.874617 528.089790 17.202253 528.289371 17.536754 528.488951 17.878077 528.688531 18.226178 528.888112 18.581014 529.087692 18.942542 529.287273 19.310719 529.486853 19.685502 529.686434 20.066847 529.886014 20.454712 530.085594 20.849053 530.285175 21.249827 530.484755 21.656991 530.684336 22.070502 530.883916 22.490316 531.083497 22.916390 531.283077 23.348682 531.482657 23.787148 531.682238 24.231744 531.881818 24.682428 532.081399 25.139157 532.280979 25.601887 532.480559 26.070575 532.680140 26.545178 532.879720 27.025652 533.079301 27.511956 533.278881 28.004044 533.478462 28.501875 533.678042 29.005405 533.877622 29.514591 534.077203 30.029390 534.276783 30.549758 534.476364 31.075653 534.675944 31.607030 534.875524 32.143848 535.075105 32.686063 535.274685 33.233631 535.474266 33.786510 535.673846 34.344656 535.873427 34.908026 536.073007 35.476578 536.272587 36.050267 536.472168 36.629050 536.671748 37.212885 536.871329 37.801729 537.070909 38.395537 537.270490 38.994268 537.470070 39.597877 537.669650 40.206321 537.869231 40.819559 538.068811 41.437545 538.268392 42.060237 538.467972 42.687593 538.667552 43.319568 538.867133 43.956119 539.066713 44.597204 539.266294 45.242779 539.465874 45.892801 539.665455 46.547227 539.865035 47.206013 540.064615 47.869117 540.264196 48.536496 540.463776 49.208105 540.663357 49.883902 540.862937 50.563844 541.062517 51.247888 541.262098 51.935990 541.461678 52.628108 541.661259 53.324197 541.860839 54.024216 542.060420 54.728120 542.260000 55.435867 542.459580 56.147413 542.659161 56.862715 542.858741 57.581730 543.058322 58.304415 543.257902 59.030727 543.457483 59.760623 543.657063 60.494058 543.856643 61.230991 544.056224 61.971378 544.255804 62.715176 544.455385 63.462341 544.654965 64.212830 544.854545 64.966601 545.054126 65.723611 545.253706 66.483815 545.453287 67.247170 545.652867 68.013635 545.852448 68.783165 546.052028 69.555717 546.251608 70.331248 546.451189 71.109715 546.650769 71.891074 546.850350 72.675284 547.049930 73.462299 547.249510 74.252078 547.449091 75.044577 547.648671 75.839752 547.848252 76.637561 548.047832 77.437961 548.247413 78.240908 548.446993 79.046359 548.646573 79.854272 548.846154 80.664602 549.045734 81.477306 549.245315 82.292342 549.444895 83.109666 549.644476 83.929236 549.844056 84.751007 550.043636 85.574937 550.243217 86.400983 550.442797 87.229100 550.642378 88.059248 550.841958 88.891381 551.041538 89.725457 551.241119 90.561433 551.440699 91.399265 551.640280 92.238911 551.839860 93.080326 552.039441 93.923469 552.239021 94.768296 552.438601 95.614763 552.638182 96.462828 552.837762 97.312447 553.037343 98.163577 553.236923 99.016175 553.436503 99.870198 553.636084 100.725602 553.835664 101.582345 554.035245 102.440383 554.234825 103.299673 554.434406 104.160172 554.633986 105.021837 554.833566 105.884624 555.033147 106.748491 555.232727 107.613394 555.432308 108.479289 555.631888 109.346135 555.831469 110.213888 556.031049 111.082503 556.230629 111.951940 556.430210 112.822153 556.629790 113.693100 556.829371 114.564738 557.028951 115.437024 557.228531 116.309914 557.428112 117.183366 557.627692 118.057335 557.827273 118.931780 558.026853 119.806656 558.226434 120.681921 558.426014 121.557531 558.625594 122.433443 558.825175 123.309615 559.024755 124.186002 559.224336 125.062562 559.423916 125.939252 559.623497 126.816028 559.823077 127.692847 559.823077 514.000000" /></g></g><g class="titles"><text class="title plot_title" x="400.0" y="26">Saphan-Taksin 50</text></g><g class="plot overlay" transform="translate(209, 46)"><g class="series serie-0 color-0"><g class="dots"><circle class="dot reactive tooltip-trigger" cx="10.976923076923075" cy="73.39450945336694" r="2.5" /><desc class="value">628155</desc><desc class="x ">10.976923076923075</desc><desc class="y ">73.39450945336694</desc><desc class="x_label">Jan</desc></g><g class="dots"><circle class="dot reactive tooltip-trigger" cx="60.872027972027965" cy="191.9954773125063" r="2.5" /><desc class="value">588500</desc><desc class="x ">60.872027972027965</desc><desc class="y ">191.9954773125063</desc><desc class="x_label">Feb</desc></g><g class="dots"><circle class="dot reactive tooltip-trigger" cx="110.76713286713284" cy="232.37154757094487" r="2.5" /><desc class="value">575000</desc><desc class="x ">110.76713286713284</desc><desc class="y ">232.37154757094487</desc><desc class="x_label">Mar</desc></g><g class="dots"><circle class="dot reactive tooltip-trigger" cx="160.66223776223774" cy="501.5453492938688" r="2.5" /><desc class="value">485000</desc><desc class="x top">160.66223776223774</desc><desc class="y top">501.5453492938688</desc><desc class="x_label">Apr</desc></g><g class="dots"><circle class="dot reactive tooltip-trigger" cx="210.55734265734264" cy="301.1604080112477" r="2.5" /><desc class="value">552000</desc><desc class="x top">210.55734265734264</desc><desc class="y top">301.1604080112477</desc><desc class="x_label">May</desc></g><g class="dots"><circle class="dot reactive tooltip-trigger" cx="260.45244755244755" cy="139.65612697749333" r="2.5" /><desc class="value">606000</desc><desc class="x ">260.45244755244755</desc><desc class="y ">139.65612697749333</desc><desc class="x_label">Jun</desc></g><g class="dots"><circle class="dot reactive tooltip-trigger" cx="310.3475524475524" cy="119.61763284923126" r="2.5" /><desc class="value">612700</desc><desc class="x left">310.3475524475524</desc><desc class="y left">119.61763284923126</desc><desc class="x_label">Jul</desc></g><g class="dots"><circle class="dot reactive tooltip-trigger" cx="360.2426573426573" cy="77.44707057930651" r="2.5" /><desc class="value">626800</desc><desc class="x left">360.2426573426573</desc><desc class="y left">77.44707057930651</desc><desc class="x_label">Aug</desc></g><g class="dots"><circle class="dot reactive tooltip-trigger" cx="410.1377622377622" cy="198.27619935270786" r="2.5" /><desc class="value">586400</desc><desc class="x left">410.1377622377622</desc><desc class="y left">198.27619935270786</desc><desc class="x_label">Sep</desc></g><g class="dots"><circle class="dot reactive tooltip-trigger" cx="460.0328671328671" cy="260.48525575089474" r="2.5" /><desc class="value">565600</desc><desc class="x left top">460.0328671328671</desc><desc class="y left top">260.48525575089474</desc><desc class="x_label">Oct</desc></g><g class="dots"><circle class="dot reactive tooltip-trigger" cx="509.9279720279719" cy="20.920572217492463" r="2.5" /><desc class="value">645700</desc><desc class="x left">509.9279720279719</desc><desc class="y left">20.920572217492463</desc><desc class="x_label">Nov</desc></g><g class="dots"><circle class="dot reactive tooltip-trigger" cx="559.8230769230769" cy="127.69284690091894" r="2.5" /><desc class="value">610000</desc><desc class="x left">559.8230769230769</desc><desc class="y left">127.69284690091894</desc><desc class="x_label">Dec</desc></g></g></g><g class="plot text-overlay" transform="translate(209, 46)"><g class="series serie-0 color-0" /></g><g class="plot tooltip-overlay" transform="translate(209, 46)"><g class="tooltip" style="opacity: 0" transform="translate(0 0)"><rect class="tooltip-box" height="0" rx="0" ry="0" width="0" /><g class="text" /></g></g><g class="legends" transform="translate(10, 56)"><g class="legend reactive activate-serie" id="activate-serie-0"><rect class="color-0 reactive" height="12" width="12" x="0.0" y="1.0" /><text x="17.0" y="11.2">Saphan-Taksin</text></g></g><g class="legends" transform="translate(790, 56)" /></g></svg>