<?xml version='1.0' encoding='utf-8'?>
<svg xmlns:xlink="http://www.w3.org/1999/xlink" class="pygal-chart" id="chart-b1c89838-2b51-4789-91fd-3df826b47b91" viewBox="0 0 800 600" xmlns="http://www.w3.org/2000/svg"><!--Generated with pygal 2.0.11 (etree) ©Kozea 2011-2015 on 2015-12-10--><!--http://pygal.org--><!--http://github.com/Kozea/pygal--><defs><style type="text/css">#chart-b1c89838-2b51-4789-91fd-3df826b47b91{-webkit-user-select:none;-webkit-font-smoothing:antialiased;font-family:Consolas,"Liberation Mono",Menlo,Courier,monospace}#chart-b1c89838-2b51-4789-91fd-3df826b47b91 .title{font-family:Consolas,"Liberation Mono",Menlo,Courier,monospace;font-size:16px}#chart-b1c89838-2b51-4789-91fd-3df826b47b91 .legends .legend text{font-family:Consolas,"Liberation Mono",Menlo,Courier,monospace;font-size:14px}#chart-b1c89838-2b51-4789-91fd-3df826b47b91 .axis text{font-family:Consolas,"Liberation Mono",Menlo,Courier,monospace;font-size:10px}#chart-b1c89838-2b51-4789-91fd-3df826b47b91 .axis text.major{font-family:Consolas,"Liberation Mono",Menlo,Courier,monospace;font-size:10px}#chart-b1c89838-2b51-4789-91fd-3df826b47b91 .text-overlay text.value{font-family:Consolas,"Liberation Mono",Menlo,Courier,monospace;font-size:16px}#chart-b1c89838-2b51-4789-91fd-3df826b47b91 .text-overlay text.label{font-family:Consolas,"Liberation Mono",Menlo,Courier,monospace;font-size:10px}#chart-b1c89838-2b51-4789-91fd-3df826b47b91 .tooltip{font-family:Consolas,"Liberation Mono",Menlo,Courier,monospace;font-size:14px}#chart-b1c89838-2b51-4789-91fd-3df826b47b91 text.no_data{font-family:Consolas,"Liberation Mono",Menlo,Courier,monospace;font-size:64px}
#chart-b1c89838-2b51-4789-91fd-3df826b47b91{background-color:black}#chart-b1c89838-2b51-4789-91fd-3df826b47b91 path,#chart-b1c89838-2b51-4789-91fd-3df826b47b91 line,#chart-b1c89838-2b51-4789-91fd-3df826b47b91 rect,#chart-b1c89838-2b51-4789-91fd-3df826b47b91 circle{-webkit-transition:250ms;-moz-transition:250ms;transition:250ms}#chart-b1c89838-2b51-4789-91fd-3df826b47b91 .graph &gt; .background{fill:black}#chart-b1c89838-2b51-4789-91fd-3df826b47b91 .plot &gt; .background{fill:#111}#chart-b1c89838-2b51-4789-91fd-3df826b47b91 .graph{fill:#999}#chart-b1c89838-2b51-4789-91fd-3df826b47b91 text.no_data{fill:#eee}#chart-b1c89838-2b51-4789-91fd-3df826b47b91 .title{fill:#eee}#chart-b1c89838-2b51-4789-91fd-3df826b47b91 .legends .legend text{fill:#999}#chart-b1c89838-2b51-4789-91fd-3df826b47b91 .legends .legend:hover text{fill:#eee}#chart-b1c89838-2b51-4789-91fd-3df826b47b91 .axis .line{stroke:#eee}#chart-b1c89838-2b51-4789-91fd-3df826b47b91 .axis .guide.line{stroke:#555}#chart-b1c89838-2b51-4789-91fd-3df826b47b91 .axis .major.line{stroke:#999}#chart-b1c89838-2b51-4789-91fd-3df826b47b91 .axis text.major{fill:#eee}#chart-b1c89838-2b51-4789-91fd-3df826b47b91 .axis.y .guides:hover .guide.line,#chart-b1c89838-2b51-4789-91fd-3df826b47b91 .line-graph .axis.x .guides:hover .guide.line,#chart-b1c89838-2b51-4789-91fd-3df826b47b91 .stackedline-graph .axis.x .guides:hover .guide.line,#chart-b1c89838-2b51-4789-91fd-3df826b47b91 .xy-graph .axis.x .guides:hover .guide.line{stroke:#eee}#chart-b1c89838-2b51-4789-91fd-3df826b47b91 .axis .guides:hover text{fill:#eee}#chart-b1c89838-2b51-4789-91fd-3df826b47b91 .reactive{fill-opacity:.8}#chart-b1c89838-2b51-4789-91fd-3df826b47b91 .reactive.active,#chart-b1c89838-2b51-4789-91fd-3df826b47b91 .active .reactive{fill-opacity:.4;stroke-width:4}#chart-b1c89838-2b51-4789-91fd-3df826b47b91 .series text{fill:#eee}#chart-b1c89838-2b51-4789-91fd-3df826b47b91 .tooltip rect{fill:#111;stroke:#eee;-webkit-transition:opacity 250ms;-moz-transition:opacity 250ms;transition:opacity 250ms}#chart-b1c89838-2b51-4789-91fd-3df826b47b91 .tooltip .label{fill:#999}#chart-b1c89838-2b51-4789-91fd-3df826b47b91 .tooltip .label{fill:#999}#chart-b1c89838-2b51-4789-91fd-3df826b47b91 .tooltip .legend{font-size:.8em;fill:#555}#chart-b1c89838-2b51-4789-91fd-3df826b47b91 .tooltip .x_label{font-size:.6em;fill:#eee}#chart-b1c89838-2b51-4789-91fd-3df826b47b91 .tooltip .xlink{font-size:.5em;text-decoration:underline}#chart-b1c89838-2b51-4789-91fd-3df826b47b91 .tooltip .value{font-size:1.5em}#chart-b1c89838-2b51-4789-91fd-3df826b47b91 .map-element{fill:#111;stroke:#555 !important}#chart-b1c89838-2b51-4789-91fd-3df826b47b91 .map-element .reactive{fill-opacity:inherit}#chart-b1c89838-2b51-4789-91fd-3df826b47b91 .color-0,#chart-b1c89838-2b51-4789-91fd-3df826b47b91 .color-0 a:visited{stroke:#ff5995;fill:#ff5995}#chart-b1c89838-2b51-4789-91fd-3df826b47b91 .text-overlay .color-0 text{fill:black}
#chart-b1c89838-2b51-4789-91fd-3df826b47b91 text.no_data{text-anchor:middle}#chart-b1c89838-2b51-4789-91fd-3df826b47b91 .guide.line{fill:none}#chart-b1c89838-2b51-4789-91fd-3df826b47b91 .centered{text-anchor:middle}#chart-b1c89838-2b51-4789-91fd-3df826b47b91 .title{text-anchor:middle}#chart-b1c89838-2b51-4789-91fd-3df826b47b91 .legends .legend text{fill-opacity:1}#chart-b1c89838-2b51-4789-91fd-3df826b47b91 .axis.x text{text-anchor:middle}#chart-b1c89838-2b51-4789-91fd-3df826b47b91 .axis.x:not(.web) text[transform]{text-anchor:start}#chart-b1c89838-2b51-4789-91fd-3df826b47b91 .axis.x:not(.web) text[transform].backwards{text-anchor:end}#chart-b1c89838-2b51-4789-91fd-3df826b47b91 .axis.y text{text-anchor:end}#chart-b1c89838-2b51-4789-91fd-3df826b47b91 .axis.y text[transform].backwards{text-anchor:start}#chart-b1c89838-2b51-4789-91fd-3df826b47b91 .axis.y2 text{text-anchor:start}#chart-b1c89838-2b51-4789-91fd-3df826b47b91 .axis.y2 text[transform].backwards{text-anchor:end}#chart-b1c89838-2b51-4789-91fd-3df826b47b91 .axis .guide.line{stroke-dasharray:4,4}#chart-b1c89838-2b51-4789-91fd-3df826b47b91 .axis .major.guide.line{stroke-dasharray:6,6}#chart-b1c89838-2b51-4789-91fd-3df826b47b91 .horizontal .axis.y .guide.line,#chart-b1c89838-2b51-4789-91fd-3df826b47b91 .horizontal .axis.y2 .guide.line,#chart-b1c89838-2b51-4789-91fd-3df826b47b91 .vertical .axis.x .guide.line{opacity:0}#chart-b1c89838-2b51-4789-91fd-3df826b47b91 .horizontal .axis.always_show .guide.line,#chart-b1c89838-2b51-4789-91fd-3df826b47b91 .vertical .axis.always_show .guide.line{opacity:1 !important}#chart-b1c89838-2b51-4789-91fd-3df826b47b91 .axis.y .guides:hover .guide.line,#chart-b1c89838-2b51-4789-91fd-3df826b47b91 .axis.y2 .guides:hover .guide.line,#chart-b1c89838-2b51-4789-91fd-3df826b47b91 .axis.x .guides:hover .guide.line{opacity:1}#chart-b1c89838-2b51-4789-91fd-3df826b47b91 .axis .guides:hover text{opacity:1}#chart-b1c89838-2b51-4789-91fd-3df826b47b91 .nofill{fill:none}#chart-b1c89838-2b51-4789-91fd-3df826b47b91 .subtle-fill{fill-opacity:.2}#chart-b1c89838-2b51-4789-91fd-3df826b47b91 .dot{stroke-width:1px;fill-opacity:1}#chart-b1c89838-2b51-4789-91fd-3df826b47b91 .dot.active{stroke-width:5px}#chart-b1c89838-2b51-4789-91fd-3df826b47b91 .dot.negative{fill:transparent}#chart-b1c89838-2b51-4789-91fd-3df826b47b91 text,#chart-b1c89838-2b51-4789-91fd-3df826b47b91 tspan{stroke:none !important}#chart-b1c89838-2b51-4789-91fd-3df826b47b91 .series text.active{opacity:1}#chart-b1c89838-2b51-4789-91fd-3df826b47b91 .tooltip rect{fill-opacity:.95;stroke-width:.5}#chart-b1c89838-2b51-4789-91fd-3df826b47b91 .tooltip text{fill-opacity:1}#chart-b1c89838-2b51-4789-91fd-3df826b47b91 .showable{visibility:hidden}#chart-b1c89838-2b51-4789-91fd-3df826b47b91 .showable.shown{visibility:visible}</style><script type="text/javascript">window.pygal = window.pygal || {};window.pygal.config = window.pygal.config || {};window.pygal.config['b1c89838-2b51-4789-91fd-3df826b47b91'] = {"css": ["file://style.css", "file://graph.css"], "legend_at_bottom": false, "stroke_style": null, "missing_value_fill_truncation": "x", "tooltip_border_radius": 0, "inner_radius": 0, "min_scale": 4, "show_x_guides": false, "y_label_rotation": 0, "show_only_major_dots": false, "interpolation_precision": 250, "margin_right": null, "x_label_rotation": 0, "dynamic_print_values": false, "margin_top": null, "x_labels_major_count": null, "js": ["//kozea.github.io/pygal.js/2.0.x/pygal-tooltips.min.js"], "interpolation_parameters": {}, "no_prefix": false, "title": "Saphan-Khwai 50", "x_labels": ["Jan", "Feb", "Mar", "Apr", "May", "Jun", "Jul", "Aug", "Sep", "Oct", "Nov", "Dec"], "width": 800, "range": null, "show_y_guides": true, "truncate_legend": null, "force_uri_protocol": null, "x_title": null, "interpolate": "cubic", "fill": true, "print_zeroes": true, "margin_left": null, "legend_box_size": 12, "show_minor_y_labels": true, "logarithmic": false, "legend_at_bottom_columns": null, "value_formatter": null, "stroke": true, "margin_bottom": null, "pretty_print": false, "show_minor_x_labels": true, "y_labels_major_count": null, "disable_xml_declaration": false, "y_labels_major_every": null, "truncate_label": null, "stack_from_top": false, "defs": [], "human_readable": false, "include_x_axis": false, "show_legend": true, "tooltip_fancy_mode": true, "y_title": null, "style": {"tooltip_font_size": 14, "major_label_font_family": "Consolas, \"Liberation Mono\", Menlo, Courier, monospace", "value_font_family": "Consolas, \"Liberation Mono\", Menlo, Courier, monospace", "foreground": "#999", "tooltip_font_family": "Consolas, \"Liberation Mono\", Menlo, Courier, monospace", "opacity": ".8", "font_family": "Consolas, \"Liberation Mono\", Menlo, Courier, monospace", "foreground_subtle": "#555", "colors": ["#ff5995", "#b6e354", "#feed6c", "#8cedff", "#9e6ffe", "#899ca1", "#f8f8f2", "#bf4646", "#516083", "#f92672", "#82b414", "#fd971f", "#56c2d6", "#808384", "#8c54fe", "#465457"], "foreground_strong": "#eee", "no_data_font_size": 64, "opacity_hover": ".4", "plot_background": "#111", "value_font_size": 16, "legend_font_family": "Consolas, \"Liberation Mono\", Menlo, Courier, monospace", "value_label_font_size": 10, "major_guide_stroke_dasharray": "6,6", "legend_font_size": 14, "label_font_family": "Consolas, \"Liberation Mono\", Menlo, Courier, monospace", "label_font_size": 10, "transition": "250ms", "title_font_size": 16, "value_label_font_family": "Consolas, \"Liberation Mono\", Menlo, Courier, monospace", "background": "black", "title_font_family": "Consolas, \"Liberation Mono\", Menlo, Courier, monospace", "value_colors": [], "no_data_font_family": "Consolas, \"Liberation Mono\", Menlo, Courier, monospace", "guide_stroke_dasharray": "4,4", "major_label_font_size": 10}, "strict": false, "xrange": null, "rounded_bars": null, "x_labels_major": null, "dots_size": 2.5, "show_dots": true, "order_min": null, "no_data_text": "No data", "y_labels": null, "print_labels": false, "spacing": 10, "y_labels_major": null, "print_values": false, "legends": ["Saphan-Khwai"], "zero": 0, "height": 600, "margin": 20, "box_mode": "extremes", "show_y_labels": true, "inverse_y_axis": false, "max_scale": 16, "show_x_labels": true, "explicit_size": false, "x_value_formatter": null, "secondary_range": null, "x_labels_major_every": null, "half_pie": false}</script><script type="text/javascript" xlink:href="//kozea.github.io/pygal.js/2.0.x/pygal-tooltips.min.js" /></defs><title>Saphan-Khwai 50</title><g class="graph line-graph vertical"><rect class="background" height="600" width="800" x="0" y="0" /><g class="plot" transform="translate(200, 46)"><rect class="background" height="514" width="579.2" x="0" y="0" /><g class="axis y"><path class="line" d="M0.000000 514.000000 h579.200000" /><g class="guides"><path class="guide line" d="M0.000000 465.061594 h579.200000" /><text class="" x="-5" y="468.56159378445943">176000.0</text><title>176000.0</title></g><g class="guides"><path class="guide line" d="M0.000000 412.015771 h579.200000" /><text class="" x="-5" y="415.51577092468807">180000.0</text><title>180000.0</title></g><g class="guides"><path class="guide line" d="M0.000000 358.969948 h579.200000" /><text class="" x="-5" y="362.4699480649167">184000.0</text><title>184000.0</title></g><g class="guides"><path class="guide line" d="M0.000000 305.924125 h579.200000" /><text class="" x="-5" y="309.4241252051454">188000.0</text><title>188000.0</title></g><g class="guides"><path class="guide line" d="M0.000000 252.878302 h579.200000" /><text class="" x="-5" y="256.37830234537404">192000.0</text><title>192000.0</title></g><g class="guides"><path class="guide line" d="M0.000000 199.832479 h579.200000" /><text class="" x="-5" y="203.33247948560273">196000.0</text><title>196000.0</title></g><g class="guides"><path class="guide line" d="M0.000000 146.786657 h579.200000" /><text class="" x="-5" y="150.28665662583137">200000.0</text><title>200000.0</title></g><g class="guides"><path class="guide line" d="M0.000000 93.740834 h579.200000" /><text class="" x="-5" y="97.24083376606006">204000.0</text><title>204000.0</title></g><g class="guides"><path class="guide line" d="M0.000000 40.695011 h579.200000" /><text class="" x="-5" y="44.19501090628876">208000.0</text><title>208000.0</title></g></g><g class="axis x"><g class="guides"><path class="line" d="M11.138462 0.000000 v514.000000" /><text class="" x="11.13846153846154" y="529.0">Jan</text></g><g class="guides"><path class="guide line" d="M61.767832 0.000000 v514.000000" /><text class="" x="61.76783216783217" y="529.0">Feb</text></g><g class="guides"><path class="guide line" d="M112.397203 0.000000 v514.000000" /><text class="" x="112.3972027972028" y="529.0">Mar</text></g><g class="guides"><path class="guide line" d="M163.026573 0.000000 v514.000000" /><text class="" x="163.02657342657344" y="529.0">Apr</text></g><g class="guides"><path class="guide line" d="M213.655944 0.000000 v514.000000" /><text class="" x="213.65594405594408" y="529.0">May</text></g><g class="guides"><path class="guide line" d="M264.285315 0.000000 v514.000000" /><text class="" x="264.2853146853147" y="529.0">Jun</text></g><g class="guides"><path class="guide line" d="M314.914685 0.000000 v514.000000" /><text class="" x="314.9146853146853" y="529.0">Jul</text></g><g class="guides"><path class="guide line" d="M365.544056 0.000000 v514.000000" /><text class="" x="365.54405594405597" y="529.0">Aug</text></g><g class="guides"><path class="guide line" d="M416.173427 0.000000 v514.000000" /><text class="" x="416.17342657342664" y="529.0">Sep</text></g><g class="guides"><path class="guide line" d="M466.802797 0.000000 v514.000000" /><text class="" x="466.8027972027973" y="529.0">Oct</text></g><g class="guides"><path class="guide line" d="M517.432168 0.000000 v514.000000" /><text class="" x="517.4321678321678" y="529.0">Nov</text></g><g class="guides"><path class="guide line" d="M568.061538 0.000000 v514.000000" /><text class="" x="568.0615384615386" y="529.0">Dec</text></g></g><g class="series serie-0 color-0"><path class="line reactive" d="M11.138462 514.000000 L11.138462 239.616847 11.340979 240.803288 11.543497 241.989656 11.746014 243.175878 11.948531 244.361880 12.151049 245.547590 12.353566 246.732934 12.556084 247.917839 12.758601 249.102231 12.961119 250.286039 13.163636 251.469188 13.366154 252.651605 13.568671 253.833218 13.771189 255.013953 13.973706 256.193736 14.176224 257.372496 14.378741 258.550158 14.581259 259.726649 14.783776 260.901897 14.986294 262.075828 15.188811 263.248369 15.391329 264.419446 15.593846 265.588988 15.796364 266.756919 15.998881 267.923168 16.201399 269.087661 16.403916 270.250326 16.606434 271.411088 16.808951 272.569874 17.011469 273.726612 17.213986 274.881229 17.416503 276.033651 17.619021 277.183804 17.821538 278.331617 18.024056 279.477015 18.226573 280.619926 18.429091 281.760276 18.631608 282.897993 18.834126 284.033003 19.036643 285.165232 19.239161 286.294608 19.441678 287.421058 19.644196 288.544508 19.846713 289.664886 20.049231 290.782117 20.251748 291.896130 20.454266 293.006850 20.656783 294.114205 20.859301 295.218121 21.061818 296.318526 21.264336 297.415346 21.466853 298.508508 21.669371 299.597939 21.871888 300.683565 22.074406 301.765314 22.276923 302.843112 22.479441 303.916886 22.681958 304.986564 22.884476 306.052071 23.086993 307.113335 23.289510 308.170282 23.492028 309.222840 23.694545 310.270935 23.897063 311.314494 24.099580 312.353444 24.302098 313.387712 24.504615 314.417224 24.707133 315.441908 24.909650 316.461690 25.112168 317.476497 25.314685 318.486256 25.517203 319.490894 25.719720 320.490338 25.922238 321.484513 26.124755 322.473349 26.327273 323.456770 26.529790 324.434704 26.732308 325.407078 26.934825 326.373819 27.137343 327.334853 27.339860 328.290108 27.542378 329.239510 27.744895 330.182985 27.947413 331.120462 28.149930 332.051866 28.352448 332.977125 28.554965 333.896166 28.757483 334.808914 28.960000 335.715297 29.162517 336.615243 29.365035 337.508677 29.567552 338.395527 29.770070 339.275719 29.972587 340.149180 30.175105 341.015837 30.377622 341.875618 30.580140 342.728448 30.782657 343.574255 30.985175 344.412965 31.187692 345.244505 31.390210 346.068803 31.592727 346.885784 31.795245 347.695377 31.997762 348.497507 32.200280 349.292101 32.402797 350.079087 32.605315 350.858391 32.807832 351.629940 33.010350 352.393661 33.212867 353.149480 33.415385 353.897325 33.617902 354.637123 33.820420 355.368799 34.022937 356.092282 34.225455 356.807497 34.427972 357.514373 34.630490 358.212835 34.833007 358.902810 35.035524 359.584225 35.238042 360.257008 35.440559 360.921084 35.643077 361.576381 35.845594 362.222826 36.048112 362.860345 36.250629 363.488866 36.453147 364.108315 36.655664 364.718618 36.858182 365.319703 37.060699 365.911498 37.263217 366.493927 37.465734 367.066919 37.668252 367.630400 37.870769 368.184297 38.073287 368.728537 38.275804 369.263046 38.478322 369.787752 38.680839 370.302581 38.883357 370.807461 39.085874 371.302317 39.288392 371.787078 39.490909 372.261669 39.693427 372.726018 39.895944 373.180051 40.098462 373.623695 40.300979 374.056878 40.503497 374.479525 40.706014 374.891564 40.908531 375.292922 41.111049 375.683525 41.313566 376.063300 41.516084 376.432175 41.718601 376.790075 41.921119 377.136928 42.123636 377.472661 42.326154 377.797200 42.528671 378.110473 42.731189 378.412406 42.933706 378.702925 43.136224 378.981959 43.338741 379.249433 43.541259 379.505275 43.743776 379.749411 43.946294 379.981768 44.148811 380.202274 44.351329 380.410854 44.553846 380.607436 44.756364 380.791946 44.958881 380.964312 45.161399 381.124460 45.363916 381.272317 45.566434 381.407810 45.768951 381.530866 45.971469 381.641411 46.173986 381.739373 46.376503 381.824678 46.579021 381.897253 46.781538 381.957025 46.984056 382.003921 47.186573 382.037867 47.389091 382.058791 47.591608 382.066619 47.794126 382.061278 47.996643 382.042696 48.199161 382.010798 48.401678 381.965512 48.604196 381.906764 48.806713 381.834481 49.009231 381.748591 49.211748 381.649020 49.414266 381.535695 49.616783 381.408542 49.819301 381.267489 50.021818 381.112462 50.224336 380.943389 50.426853 380.760195 50.629371 380.562809 50.831888 380.351156 51.034406 380.125164 51.236923 379.884759 51.439441 379.629868 51.641958 379.360419 51.844476 379.076337 52.046993 378.777550 52.249510 378.463985 52.452028 378.135568 52.654545 377.792227 52.857063 377.433887 53.059580 377.060477 53.262098 376.671923 53.464615 376.268151 53.667133 375.849088 53.869650 375.414662 54.072168 374.964799 54.274685 374.499426 54.477203 374.018470 54.679720 373.521858 54.882238 373.009516 55.084755 372.481372 55.287273 371.937351 55.489790 371.377382 55.692308 370.801391 55.894825 370.209304 56.097343 369.601049 56.299860 368.976553 56.502378 368.335741 56.704895 367.678542 56.907413 367.004882 57.109930 366.314687 57.312448 365.607885 57.514965 364.884402 57.717483 364.144166 57.920000 363.387103 58.122517 362.613140 58.325035 361.822203 58.527552 361.014220 58.730070 360.189118 58.932587 359.346823 59.135105 358.487262 59.337622 357.610363 59.540140 356.716051 59.742657 355.804253 59.945175 354.874897 60.147692 353.927910 60.350210 352.963218 60.552727 351.980748 60.755245 350.980426 60.957762 349.962181 61.160280 348.925938 61.362797 347.871624 61.565315 346.799167 61.767832 345.708492 61.970350 344.599573 62.172867 343.472561 62.375385 342.327655 62.577902 341.165052 62.780420 339.984950 62.982937 338.787547 63.185455 337.573040 63.387972 336.341627 63.590490 335.093506 63.793007 333.828875 63.995524 332.547931 64.198042 331.250873 64.400559 329.937897 64.603077 328.609202 64.805594 327.264986 65.008112 325.905446 65.210629 324.530779 65.413147 323.141185 65.615664 321.736860 65.818182 320.318002 66.020699 318.884809 66.223217 317.437479 66.425734 315.976209 66.628252 314.501197 66.830769 313.012642 67.033287 311.510740 67.235804 309.995690 67.438322 308.467689 67.640839 306.926935 67.843357 305.373625 68.045874 303.807958 68.248392 302.230132 68.450909 300.640343 68.653427 299.038790 68.855944 297.425671 69.058462 295.801183 69.260979 294.165523 69.463497 292.518891 69.666014 290.861483 69.868531 289.193498 70.071049 287.515132 70.273566 285.826584 70.476084 284.128052 70.678601 282.419733 70.881119 280.701825 71.083636 278.974526 71.286154 277.238033 71.488671 275.492545 71.691189 273.738258 71.893706 271.975372 72.096224 270.204083 72.298741 268.424589 72.501259 266.637088 72.703776 264.841778 72.906294 263.038857 73.108811 261.228522 73.311329 259.410971 73.513846 257.586402 73.716364 255.755012 73.918881 253.917000 74.121399 252.072563 74.323916 250.221898 74.526434 248.365204 74.728951 246.502679 74.931469 244.634519 75.133986 242.760924 75.336503 240.882090 75.539021 238.998215 75.741538 237.109497 75.944056 235.216135 76.146573 233.318324 76.349091 231.416265 76.551608 229.510153 76.754126 227.600187 76.956643 225.686565 77.159161 223.769484 77.361678 221.849142 77.564196 219.925737 77.766713 217.999467 77.969231 216.070529 78.171748 214.139121 78.374266 212.205441 78.576783 210.269687 78.779301 208.332056 78.981818 206.392746 79.184336 204.451955 79.386853 202.509880 79.589371 200.566720 79.791888 198.622673 79.994406 196.677935 80.196923 194.732704 80.399441 192.787180 80.601958 190.841558 80.804476 188.896037 81.006993 186.950815 81.209510 185.006089 81.412028 183.062057 81.614545 181.118918 81.817063 179.176868 82.019580 177.236105 82.222098 175.296827 82.424615 173.359233 82.627133 171.423519 82.829650 169.489884 83.032168 167.558524 83.234685 165.629639 83.437203 163.703425 83.639720 161.780081 83.842238 159.859804 84.044755 157.942792 84.247273 156.029243 84.449790 154.119354 84.652308 152.213323 84.854825 150.311348 85.057343 148.413627 85.259860 146.520357 85.462378 144.631737 85.664895 142.747963 85.867413 140.869235 86.069930 138.995748 86.272448 137.127702 86.474965 135.265294 86.677483 133.408722 86.880000 131.558183 87.082517 129.713875 87.285035 127.875997 87.487552 126.044745 87.690070 124.220317 87.892587 122.402912 88.095105 120.592727 88.297622 118.789959 88.500140 116.994807 88.702657 115.207469 88.905175 113.428141 89.107692 111.657022 89.310210 109.894309 89.512727 108.140201 89.715245 106.394895 89.917762 104.658589 90.120280 102.931480 90.322797 101.213766 90.525315 99.505645 90.727832 97.807315 90.930350 96.118974 91.132867 94.440819 91.335385 92.773048 91.537902 91.115859 91.740420 89.469449 91.942937 87.834017 92.145455 86.209759 92.347972 84.596875 92.550490 82.995561 92.753007 81.406015 92.955524 79.828435 93.158042 78.263020 93.360559 76.709965 93.563077 75.169470 93.765594 73.641732 93.968112 72.126949 94.170629 70.625319 94.373147 69.137038 94.575664 67.662306 94.778182 66.201320 94.980699 64.754277 95.183217 63.321376 95.385734 61.902814 95.588252 60.498788 95.790769 59.109497 95.993287 57.735139 96.195804 56.375910 96.398322 55.032009 96.600839 53.703634 96.803357 52.390983 97.005874 51.094252 97.208392 49.813640 97.410909 48.549345 97.613427 47.301565 97.815944 46.070496 98.018462 44.856337 98.220979 43.659286 98.423497 42.479540 98.626014 41.317298 98.828531 40.172756 99.031049 39.046113 99.233566 37.937566 99.436084 36.847313 99.638601 35.775553 99.841119 34.722481 100.043636 33.688298 100.246154 32.673199 100.448671 31.677383 100.651189 30.701048 100.853706 29.744392 101.056224 28.807611 101.258741 27.890905 101.461259 26.994470 101.663776 26.118504 101.866294 25.263206 102.068811 24.428773 102.271329 23.615402 102.473846 22.823292 102.676364 22.052639 102.878881 21.303643 103.081399 20.576501 103.283916 19.871410 103.486434 19.188568 103.688951 18.528173 103.891469 17.890422 104.093986 17.275515 104.296503 16.683647 104.499021 16.115017 104.701538 15.569823 104.904056 15.048263 105.106573 14.550533 105.309091 14.076833 105.511608 13.627359 105.714126 13.202310 105.916643 12.801883 106.119161 12.426276 106.321678 12.075687 106.524196 11.750313 106.726713 11.450352 106.929231 11.176002 107.131748 10.927462 107.334266 10.704927 107.536783 10.508597 107.739301 10.338669 107.941818 10.195340 108.144336 10.078809 108.346853 9.989274 108.549371 9.926931 108.751888 9.891979 108.954406 9.884615 109.156923 9.905038 109.359441 9.953445 109.561958 10.030033 109.764476 10.135002 109.966993 10.268547 110.169510 10.430867 110.372028 10.622160 110.574545 10.842624 110.777063 11.092456 110.979580 11.371854 111.182098 11.681016 111.384615 12.020139 111.587133 12.389421 111.789650 12.789061 111.992168 13.219255 112.194685 13.680202 112.397203 14.172099 112.599720 14.695072 112.802238 15.248953 113.004755 15.833504 113.207273 16.448486 113.409790 17.093659 113.612308 17.768784 113.814825 18.473622 114.017343 19.207935 114.219860 19.971482 114.422378 20.764024 114.624895 21.585323 114.827413 22.435139 115.029930 23.313233 115.232448 24.219366 115.434965 25.153299 115.637483 26.114793 115.840000 27.103608 116.042517 28.119505 116.245035 29.162245 116.447552 30.231589 116.650070 31.327298 116.852587 32.449133 117.055105 33.596854 117.257622 34.770222 117.460140 35.968998 117.662657 37.192943 117.865175 38.441818 118.067692 39.715384 118.270210 41.013401 118.472727 42.335631 118.675245 43.681833 118.877762 45.051769 119.080280 46.445201 119.282797 47.861888 119.485315 49.301591 119.687832 50.764072 119.890350 52.249090 120.092867 53.756408 120.295385 55.285786 120.497902 56.836984 120.700420 58.409764 120.902937 60.003886 121.105455 61.619111 121.307972 63.255200 121.510490 64.911914 121.713007 66.589013 121.915524 68.286259 122.118042 70.003413 122.320559 71.740234 122.523077 73.496485 122.725594 75.271925 122.928112 77.066316 123.130629 78.879419 123.333147 80.710994 123.535664 82.560802 123.738182 84.428604 123.940699 86.314161 124.143217 88.217234 124.345734 90.137583 124.548252 92.074969 124.750769 94.029154 124.953287 95.999898 125.155804 97.986962 125.358322 99.990106 125.560839 102.009092 125.763357 104.043680 125.965874 106.093631 126.168392 108.158707 126.370909 110.238667 126.573427 112.333273 126.775944 114.442286 126.978462 116.565466 127.180979 118.702574 127.383497 120.853371 127.586014 123.017618 127.788531 125.195076 127.991049 127.385505 128.193566 129.588667 128.396084 131.804322 128.598601 134.032231 128.801119 136.272155 129.003636 138.523855 129.206154 140.787092 129.408671 143.061625 129.611189 145.347217 129.813706 147.643628 130.016224 149.950619 130.218741 152.267951 130.421259 154.595385 130.623776 156.932680 130.826294 159.279599 131.028811 161.635902 131.231329 164.001351 131.433846 166.375704 131.636364 168.758725 131.838881 171.150173 132.041399 173.549809 132.243916 175.957394 132.446434 178.372689 132.648951 180.795455 132.851469 183.225453 133.053986 185.662443 133.256503 188.106186 133.459021 190.556444 133.661538 193.012976 133.864056 195.475545 134.066573 197.943910 134.269091 200.417832 134.471608 202.897073 134.674126 205.381392 134.876643 207.870552 135.079161 210.364313 135.281678 212.862435 135.484196 215.364680 135.686713 217.870808 135.889231 220.380580 136.091748 222.893757 136.294266 225.410100 136.496783 227.929370 136.699301 230.451327 136.901818 232.975733 137.104336 235.502347 137.306853 238.030932 137.509371 240.561247 137.711888 243.093055 137.914406 245.626114 138.116923 248.160187 138.319441 250.695035 138.521958 253.230417 138.724476 255.766095 138.926993 258.301830 139.129510 260.837382 139.332028 263.372513 139.534545 265.906983 139.737063 268.440553 139.939580 270.972983 140.142098 273.504036 140.344615 276.033471 140.547133 278.561049 140.749650 281.086532 140.952168 283.609680 141.154685 286.130253 141.357203 288.648013 141.559720 291.162721 141.762238 293.674137 141.964755 296.182023 142.167273 298.686138 142.369790 301.186245 142.572308 303.682103 142.774825 306.173474 142.977343 308.660118 143.179860 311.141796 143.382378 313.618269 143.584895 316.089299 143.787413 318.554645 143.989930 321.014069 144.192448 323.467331 144.394965 325.914192 144.597483 328.354413 144.800000 330.787756 145.002517 333.213980 145.205035 335.632847 145.407552 338.044117 145.610070 340.447551 145.812587 342.842911 146.015105 345.229956 146.217622 347.608448 146.420140 349.978148 146.622657 352.338816 146.825175 354.690214 147.027692 357.032102 147.230210 359.364240 147.432727 361.686391 147.635245 363.998314 147.837762 366.299770 148.040280 368.590521 148.242797 370.870327 148.445315 373.138949 148.647832 375.396148 148.850350 377.641684 149.052867 379.875319 149.255385 382.096813 149.457902 384.305927 149.660420 386.502423 149.862937 388.686060 150.065455 390.856599 150.267972 393.013803 150.470490 395.157430 150.673007 397.287243 150.875524 399.403002 151.078042 401.504467 151.280559 403.591400 151.483077 405.663562 151.685594 407.720713 151.888112 409.762615 152.090629 411.789027 152.293147 413.799711 152.495664 415.794428 152.698182 417.772938 152.900699 419.735003 153.103217 421.680382 153.305734 423.608838 153.508252 425.520131 153.710769 427.414021 153.913287 429.290270 154.115804 431.148639 154.318322 432.988887 154.520839 434.810777 154.723357 436.614068 154.925874 438.398522 155.128392 440.163900 155.330909 441.909962 155.533427 443.636469 155.735944 445.343183 155.938462 447.029863 156.140979 448.696271 156.343497 450.342168 156.546014 451.967313 156.748531 453.571470 156.951049 455.154397 157.153566 456.715856 157.356084 458.255608 157.558601 459.773413 157.761119 461.269033 157.963636 462.742228 158.166154 464.192759 158.368671 465.620388 158.571189 467.024873 158.773706 468.405978 158.976224 469.763462 159.178741 471.097086 159.381259 472.406611 159.583776 473.691798 159.786294 474.952408 159.988811 476.188202 160.191329 477.398940 160.393846 478.584383 160.596364 479.744292 160.798881 480.878428 161.001399 481.986553 161.203916 483.068425 161.406434 484.123807 161.608951 485.152460 161.811469 486.154143 162.013986 487.128619 162.216503 488.075647 162.419021 488.994989 162.621538 489.886406 162.824056 490.749657 163.026573 491.584505 163.229091 492.390779 163.431608 493.168581 163.634126 493.918083 163.836643 494.639458 164.039161 495.332877 164.241678 495.998511 164.444196 496.636533 164.646713 497.247114 164.849231 497.830426 165.051748 498.386641 165.254266 498.915931 165.456783 499.418466 165.659301 499.894420 165.861818 500.343963 166.064336 500.767268 166.266853 501.164506 166.469371 501.535849 166.671888 501.881469 166.874406 502.201537 167.076923 502.496226 167.279441 502.765706 167.481958 503.010151 167.684476 503.229730 167.886993 503.424617 168.089510 503.594983 168.292028 503.741000 168.494545 503.862839 168.697063 503.960673 168.899580 504.034672 169.102098 504.085010 169.304615 504.111857 169.507133 504.115385 169.709650 504.095766 169.912168 504.053171 170.114685 503.987774 170.317203 503.899744 170.519720 503.789255 170.722238 503.656477 170.924755 503.501583 171.127273 503.324744 171.329790 503.126133 171.532308 502.905920 171.734825 502.664277 171.937343 502.401377 172.139860 502.117390 172.342378 501.812490 172.544895 501.486847 172.747413 501.140633 172.949930 500.774021 173.152448 500.387181 173.354965 499.980285 173.557483 499.553506 173.760000 499.107015 173.962517 498.640984 174.165035 498.155584 174.367552 497.650988 174.570070 497.127366 174.772587 496.584892 174.975105 496.023736 175.177622 495.444070 175.380140 494.846066 175.582657 494.229896 175.785175 493.595732 175.987692 492.943744 176.190210 492.274106 176.392727 491.586989 176.595245 490.882564 176.797762 490.161004 177.000280 489.422479 177.202797 488.667163 177.405315 487.895225 177.607832 487.106840 177.810350 486.302177 178.012867 485.481409 178.215385 484.644707 178.417902 483.792244 178.620420 482.924191 178.822937 482.040720 179.025455 481.142002 179.227972 480.228210 179.430490 479.299515 179.633007 478.356088 179.835524 477.398102 180.038042 476.425729 180.240559 475.439139 180.443077 474.438505 180.645594 473.423999 180.848112 472.395792 181.050629 471.354056 181.253147 470.298963 181.455664 469.230685 181.658182 468.149393 181.860699 467.055259 182.063217 465.948455 182.265734 464.829152 182.468252 463.697523 182.670769 462.553738 182.873287 461.397971 183.075804 460.230392 183.278322 459.051174 183.480839 457.860487 183.683357 456.658505 183.885874 455.445398 184.088392 454.221338 184.290909 452.986497 184.493427 451.741048 184.695944 450.485160 184.898462 449.219008 185.100979 447.942761 185.303497 446.656592 185.506014 445.360673 185.708531 444.055175 185.911049 442.740270 186.113566 441.416130 186.316084 440.082926 186.518601 438.740831 186.721119 437.390016 186.923636 436.030653 187.126154 434.662913 187.328671 433.286969 187.531189 431.902992 187.733706 430.511154 187.936224 429.111626 188.138741 427.704581 188.341259 426.290189 188.543776 424.868624 188.746294 423.440056 188.948811 422.004658 189.151329 420.562601 189.353846 419.114056 189.556364 417.659196 189.758881 416.198193 189.961399 414.731218 190.163916 413.258442 190.366434 411.780038 190.568951 410.296178 190.771469 408.807032 190.973986 407.312774 191.176503 405.813574 191.379021 404.309605 191.581538 402.801037 191.784056 401.288044 191.986573 399.770796 192.189091 398.249465 192.391608 396.724224 192.594126 395.195243 192.796643 393.662695 192.999161 392.126752 193.201678 390.587584 193.404196 389.045365 193.606713 387.500265 193.809231 385.952457 194.011748 384.402111 194.214266 382.849401 194.416783 381.294497 194.619301 379.737571 194.821818 378.178796 195.024336 376.618343 195.226853 375.056383 195.429371 373.493088 195.631888 371.928631 195.834406 370.363183 196.036923 368.796915 196.239441 367.230000 196.441958 365.662609 196.644476 364.094913 196.846993 362.527086 197.049510 360.959298 197.252028 359.391720 197.454545 357.824526 197.657063 356.257887 197.859580 354.691974 198.062098 353.126959 198.264615 351.563014 198.467133 350.000310 198.669650 348.439020 198.872168 346.879315 199.074685 345.321367 199.277203 343.765348 199.479720 342.211429 199.682238 340.659783 199.884755 339.110580 200.087273 337.563993 200.289790 336.020193 200.492308 334.479352 200.694825 332.941643 200.897343 331.407236 201.099860 329.876303 201.302378 328.349017 201.504895 326.825549 201.707413 325.306070 201.909930 323.790753 202.112448 322.279768 202.314965 320.773289 202.517483 319.271487 202.720000 317.774532 202.922517 316.282599 203.125035 314.795857 203.327552 313.314478 203.530070 311.838635 203.732587 310.368500 203.935105 308.904243 204.137622 307.446037 204.340140 305.994053 204.542657 304.548464 204.745175 303.109440 204.947692 301.677154 205.150210 300.251778 205.352727 298.833483 205.555245 297.422440 205.757762 296.018823 205.960280 294.622802 206.162797 293.234549 206.365315 291.854236 206.567832 290.482035 206.770350 289.118117 206.972867 287.762654 207.175385 286.415818 207.377902 285.077781 207.580420 283.748715 207.782937 282.428791 207.985455 281.118180 208.187972 279.817056 208.390490 278.525588 208.593007 277.243950 208.795524 275.972313 208.998042 274.710849 209.200559 273.459729 209.403077 272.219126 209.605594 270.989210 209.808112 269.770154 210.010629 268.562129 210.213147 267.365308 210.415664 266.179862 210.618182 265.005962 210.820699 263.843781 211.023217 262.693490 211.225734 261.555261 211.428252 260.429266 211.630769 259.315676 211.833287 258.214664 212.035804 257.126400 212.238322 256.051058 212.440839 254.988807 212.643357 253.939821 212.845874 252.904271 213.048392 251.882329 213.250909 250.874166 213.453427 249.879954 213.655944 248.899866 213.858462 247.934031 214.060979 246.982420 214.263497 246.044960 214.466014 245.121581 214.668531 244.212210 214.871049 243.316777 215.073566 242.435209 215.276084 241.567436 215.478601 240.713385 215.681119 239.872985 215.883636 239.046164 216.086154 238.232852 216.288671 237.432977 216.491189 236.646466 216.693706 235.873249 216.896224 235.113255 217.098741 234.366410 217.301259 233.632645 217.503776 232.911887 217.706294 232.204066 217.908811 231.509108 218.111329 230.826944 218.313846 230.157502 218.516364 229.500709 218.718881 228.856495 218.921399 228.224787 219.123916 227.605515 219.326434 226.998607 219.528951 226.403992 219.731469 225.821597 219.933986 225.251352 220.136503 224.693184 220.339021 224.147023 220.541538 223.612797 220.744056 223.090434 220.946573 222.579863 221.149091 222.081013 221.351608 221.593811 221.554126 221.118186 221.756643 220.654067 221.959161 220.201383 222.161678 219.760061 222.364196 219.330031 222.566713 218.911220 222.769231 218.503557 222.971748 218.106971 223.174266 217.721391 223.376783 217.346744 223.579301 216.982959 223.781818 216.629965 223.984336 216.287690 224.186853 215.956063 224.389371 215.635011 224.591888 215.324465 224.794406 215.024351 224.996923 214.734600 225.199441 214.455138 225.401958 214.185895 225.604476 213.926799 225.806993 213.677778 226.009510 213.438761 226.212028 213.209677 226.414545 212.990454 226.617063 212.781021 226.819580 212.581306 227.022098 212.391237 227.224615 212.210742 227.427133 212.039752 227.629650 211.878193 227.832168 211.725995 228.034685 211.583086 228.237203 211.449394 228.439720 211.324848 228.642238 211.209376 228.844755 211.102908 229.047273 211.005370 229.249790 210.916693 229.452308 210.836804 229.654825 210.765632 229.857343 210.703105 230.059860 210.649151 230.262378 210.603701 230.464895 210.566680 230.667413 210.538020 230.869930 210.517647 231.072448 210.505490 231.274965 210.501478 231.477483 210.505539 231.680000 210.517602 231.882517 210.537595 232.085035 210.565447 232.287552 210.601086 232.490070 210.644440 232.692587 210.695439 232.895105 210.754010 233.097622 210.820083 233.300140 210.893585 233.502657 210.974445 233.705175 211.062592 233.907692 211.157954 234.110210 211.260460 234.312727 211.370038 234.515245 211.486616 234.717762 211.610123 234.920280 211.740488 235.122797 211.877638 235.325315 212.021504 235.527832 212.172012 235.730350 212.329092 235.932867 212.492671 236.135385 212.662680 236.337902 212.839045 236.540420 213.021695 236.742937 213.210560 236.945455 213.405567 237.147972 213.606644 237.350490 213.813722 237.553007 214.026727 237.755524 214.245588 237.958042 214.470234 238.160559 214.700594 238.363077 214.936596 238.565594 215.178167 238.768112 215.425238 238.970629 215.677736 239.173147 215.935590 239.375664 216.198728 239.578182 216.467078 239.780699 216.740570 239.983217 217.019132 240.185734 217.302692 240.388252 217.591179 240.590769 217.884520 240.793287 218.182646 240.995804 218.485484 241.198322 218.792962 241.400839 219.105010 241.603357 219.421555 241.805874 219.742526 242.008392 220.067852 242.210909 220.397461 242.413427 220.731282 242.615944 221.069243 242.818462 221.411272 243.020979 221.757298 243.223497 222.107250 243.426014 222.461056 243.628531 222.818645 243.831049 223.179944 244.033566 223.544883 244.236084 223.913391 244.438601 224.285394 244.641119 224.660823 244.843636 225.039605 245.046154 225.421668 245.248671 225.806943 245.451189 226.195356 245.653706 226.586837 245.856224 226.981313 246.058741 227.378714 246.261259 227.778968 246.463776 228.182003 246.666294 228.587749 246.868811 228.996132 247.071329 229.407082 247.273846 229.820528 247.476364 230.236397 247.678881 230.654619 247.881399 231.075121 248.083916 231.497833 248.286434 231.922683 248.488951 232.349599 248.691469 232.778509 248.893986 233.209343 249.096503 233.642028 249.299021 234.076494 249.501538 234.512668 249.704056 234.950480 249.906573 235.389857 250.109091 235.830728 250.311608 236.273023 250.514126 236.716668 250.716643 237.161592 250.919161 237.607725 251.121678 238.054995 251.324196 238.503329 251.526713 238.952658 251.729231 239.402908 251.931748 239.854009 252.134266 240.305888 252.336783 240.758476 252.539301 241.211699 252.741818 241.665487 252.944336 242.119768 253.146853 242.574470 253.349371 243.029523 253.551888 243.484853 253.754406 243.940391 253.956923 244.396064 254.159441 244.851802 254.361958 245.307531 254.564476 245.763182 254.766993 246.218681 254.969510 246.673959 255.172028 247.128943 255.374545 247.583562 255.577063 248.037744 255.779580 248.491419 255.982098 248.944513 256.184615 249.396956 256.387133 249.848677 256.589650 250.299603 256.792168 250.749664 256.994685 251.198787 257.197203 251.646902 257.399720 252.093936 257.602238 252.539819 257.804755 252.984478 258.007273 253.427843 258.209790 253.869841 258.412308 254.310401 258.614825 254.749452 258.817343 255.186923 259.019860 255.622740 259.222378 256.056834 259.424895 256.489133 259.627413 256.919565 259.829930 257.348058 260.032448 257.774542 260.234965 258.198944 260.437483 258.621193 260.640000 259.041217 260.842517 259.458946 261.045035 259.874307 261.247552 260.287230 261.450070 260.697641 261.652587 261.105471 261.855105 261.510647 262.057622 261.913099 262.260140 262.312753 262.462657 262.709540 262.665175 263.103387 262.867692 263.494223 263.070210 263.881976 263.272727 264.266576 263.475245 264.647949 263.677762 265.026026 263.880280 265.400734 264.082797 265.772002 264.285315 266.139758 264.487832 266.503944 264.690350 266.864555 264.892867 267.221599 265.095385 267.575083 265.297902 267.925015 265.500420 268.271403 265.702937 268.614256 265.905455 268.953580 266.107972 269.289384 266.310490 269.621676 266.513007 269.950463 266.715524 270.275753 266.918042 270.597555 267.120559 270.915876 267.323077 271.230723 267.525594 271.542106 267.728112 271.850031 267.930629 272.154507 268.133147 272.455541 268.335664 272.753141 268.538182 273.047315 268.740699 273.338072 268.943217 273.625418 269.145734 273.909362 269.348252 274.189912 269.550769 274.467075 269.753287 274.740859 269.955804 275.011272 270.158322 275.278323 270.360839 275.542018 270.563357 275.802366 270.765874 276.059375 270.968392 276.313052 271.170909 276.563406 271.373427 276.810444 271.575944 277.054174 271.778462 277.294604 271.980979 277.531741 272.183497 277.765595 272.386014 277.996172 272.588531 278.223480 272.791049 278.447528 272.993566 278.668322 273.196084 278.885872 273.398601 279.100185 273.601119 279.311268 273.803636 279.519130 274.006154 279.723778 274.208671 279.925221 274.411189 280.123466 274.613706 280.318521 274.816224 280.510393 275.018741 280.699092 275.221259 280.884624 275.423776 281.066998 275.626294 281.246221 275.828811 281.422301 276.031329 281.595247 276.233846 281.765065 276.436364 281.931764 276.638881 282.095352 276.841399 282.255837 277.043916 282.413225 277.246434 282.567527 277.448951 282.718748 277.651469 282.866897 277.853986 283.011982 278.056503 283.154011 278.259021 283.292992 278.461538 283.428932 278.664056 283.561839 278.866573 283.691722 279.069091 283.818587 279.271608 283.942444 279.474126 284.063299 279.676643 284.181161 279.879161 284.296037 280.081678 284.407936 280.284196 284.516865 280.486713 284.622832 280.689231 284.725846 280.891748 284.825913 281.094266 284.923041 281.296783 285.017240 281.499301 285.108515 281.701818 285.196876 281.904336 285.282330 282.106853 285.364886 282.309371 285.444550 282.511888 285.521331 282.714406 285.595236 282.916923 285.666274 283.119441 285.734452 283.321958 285.799779 283.524476 285.862261 283.726993 285.921908 283.929510 285.978726 284.132028 286.032724 284.334545 286.083909 284.537063 286.132290 284.739580 286.177874 284.942098 286.220670 285.144615 286.260684 285.347133 286.297925 285.549650 286.332401 285.752168 286.364119 285.954685 286.393088 286.157203 286.419315 286.359720 286.442808 286.562238 286.463576 286.764755 286.481625 286.967273 286.496964 287.169790 286.509601 287.372308 286.519543 287.574825 286.526798 287.777343 286.531375 287.979860 286.533281 288.182378 286.532524 288.384895 286.529111 288.587413 286.523051 288.789930 286.514352 288.992448 286.503021 289.194965 286.489067 289.397483 286.472496 289.600000 286.453318 289.802517 286.431539 290.005035 286.407169 290.207552 286.380213 290.410070 286.350682 290.612587 286.318581 290.815105 286.283920 291.017622 286.246706 291.220140 286.206947 291.422657 286.164650 291.625175 286.119824 291.827692 286.072477 292.030210 286.022616 292.232727 285.970249 292.435245 285.915384 292.637762 285.858030 292.840280 285.798193 293.042797 285.735882 293.245315 285.671104 293.447832 285.603868 293.650350 285.534181 293.852867 285.462051 294.055385 285.387487 294.257902 285.310495 294.460420 285.231084 294.662937 285.149261 294.865455 285.065035 295.067972 284.978413 295.270490 284.889404 295.473007 284.798014 295.675524 284.704253 295.878042 284.608127 296.080559 284.509645 296.283077 284.408814 296.485594 284.305643 296.688112 284.200139 296.890629 284.092310 297.093147 283.982165 297.295664 283.869710 297.498182 283.754953 297.700699 283.637904 297.903217 283.518568 298.105734 283.396955 298.308252 283.273073 298.510769 283.146928 298.713287 283.018529 298.915804 282.887884 299.118322 282.755000 299.320839 282.619886 299.523357 282.482549 299.725874 282.342998 299.928392 282.201239 300.130909 282.057282 300.333427 281.911133 300.535944 281.762801 300.738462 281.612294 300.940979 281.459619 301.143497 281.304784 301.346014 281.147797 301.548531 280.988667 301.751049 280.827400 301.953566 280.664005 302.156084 280.498489 302.358601 280.330861 302.561119 280.161128 302.763636 279.989299 302.966154 279.815380 303.168671 279.639380 303.371189 279.461307 303.573706 279.281169 303.776224 279.098973 303.978741 278.914728 304.181259 278.728441 304.383776 278.540120 304.586294 278.349773 304.788811 278.157407 304.991329 277.963032 305.193846 277.766653 305.396364 277.568281 305.598881 277.367921 305.801399 277.165583 306.003916 276.961274 306.206434 276.755001 306.408951 276.546774 306.611469 276.336599 306.813986 276.124484 307.016503 275.910438 307.219021 275.694468 307.421538 275.476582 307.624056 275.256788 307.826573 275.035093 308.029091 274.811506 308.231608 274.586035 308.434126 274.358687 308.636643 274.129471 308.839161 273.898393 309.041678 273.665463 309.244196 273.430687 309.446713 273.194074 309.649231 272.955632 309.851748 272.715368 310.054266 272.473290 310.256783 272.229406 310.459301 271.983725 310.661818 271.736253 310.864336 271.486999 311.066853 271.235971 311.269371 270.983176 311.471888 270.728623 311.674406 270.472318 311.876923 270.214271 312.079441 269.954489 312.281958 269.692979 312.484476 269.429750 312.686993 269.164810 312.889510 268.898166 313.092028 268.629826 313.294545 268.359799 313.497063 268.088091 313.699580 267.814711 313.902098 267.539667 314.104615 267.262967 314.307133 266.984618 314.509650 266.704628 314.712168 266.423006 314.914685 266.139758 315.117203 265.854898 315.319720 265.568458 315.522238 265.280473 315.724755 264.990981 315.927273 264.700017 316.129790 264.407619 316.332308 264.113823 316.534825 263.818665 316.737343 263.522182 316.939860 263.224410 317.142378 262.925386 317.344895 262.625147 317.547413 262.323728 317.749930 262.021166 317.952448 261.717498 318.154965 261.412760 318.357483 261.106989 318.560000 260.800222 318.762517 260.492494 318.965035 260.183842 319.167552 259.874303 319.370070 259.563913 319.572587 259.252709 319.775105 258.940727 319.977622 258.628003 320.180140 258.314575 320.382657 258.000478 320.585175 257.685750 320.787692 257.370426 320.990210 257.054543 321.192727 256.738138 321.395245 256.421246 321.597762 256.103906 321.800280 255.786152 322.002797 255.468022 322.205315 255.149553 322.407832 254.830779 322.610350 254.511739 322.812867 254.192468 323.015385 253.873003 323.217902 253.553381 323.420420 253.233637 323.622937 252.913810 323.825455 252.593934 324.027972 252.274046 324.230490 251.954184 324.433007 251.634382 324.635524 251.314679 324.838042 250.995111 325.040559 250.675713 325.243077 250.356522 325.445594 250.037576 325.648112 249.718909 325.850629 249.400560 326.053147 249.082564 326.255664 248.764958 326.458182 248.447778 326.660699 248.131061 326.863217 247.814843 327.065734 247.499162 327.268252 247.184052 327.470769 246.869551 327.673287 246.555696 327.875804 246.242522 328.078322 245.930066 328.280839 245.618366 328.483357 245.307456 328.685874 244.997374 328.888392 244.688157 329.090909 244.379840 329.293427 244.072460 329.495944 243.766054 329.698462 243.460658 329.900979 243.156309 330.103497 242.853043 330.306014 242.550897 330.508531 242.249906 330.711049 241.950109 330.913566 241.651540 331.116084 241.354237 331.318601 241.058236 331.521119 240.763574 331.723636 240.470287 331.926154 240.178411 332.128671 239.887984 332.331189 239.599041 332.533706 239.311619 332.736224 239.025754 332.938741 238.741484 333.141259 238.458844 333.343776 238.177871 333.546294 237.898602 333.748811 237.621072 333.951329 237.345319 334.153846 237.071379 334.356364 236.799288 334.558881 236.529084 334.761399 236.260801 334.963916 235.994478 335.166434 235.730150 335.368951 235.467854 335.571469 235.207626 335.773986 234.949503 335.976503 234.693522 336.179021 234.439718 336.381538 234.188129 336.584056 233.938791 336.786573 233.691740 336.989091 233.447012 337.191608 233.204645 337.394126 232.964675 337.596643 232.727138 337.799161 232.492071 338.001678 232.259510 338.204196 232.029492 338.406713 231.802053 338.609231 231.577230 338.811748 231.355059 339.014266 231.135577 339.216783 230.918820 339.419301 230.704824 339.621818 230.493627 339.824336 230.285265 340.026853 230.079774 340.229371 229.877190 340.431888 229.677550 340.634406 229.480892 340.836923 229.287250 341.039441 229.096662 341.241958 228.909164 341.444476 228.724792 341.646993 228.543584 341.849510 228.365575 342.052028 228.190802 342.254545 228.019302 342.457063 227.851111 342.659580 227.686265 342.862098 227.524802 343.064615 227.366757 343.267133 227.212167 343.469650 227.061068 343.672168 226.913497 343.874685 226.769491 344.077203 226.629086 344.279720 226.492318 344.482238 226.359225 344.684755 226.229841 344.887273 226.104205 345.089790 225.982352 345.292308 225.864319 345.494825 225.750142 345.697343 225.639858 345.899860 225.533504 346.102378 225.431115 346.304895 225.332729 346.507413 225.238382 346.709930 225.148110 346.912448 225.061949 347.114965 224.979937 347.317483 224.902110 347.520000 224.828504 347.722517 224.759156 347.925035 224.694103 348.127552 224.633380 348.330070 224.577024 348.532587 224.525072 348.735105 224.477560 348.937622 224.434525 349.140140 224.396003 349.342657 224.362031 349.545175 224.332645 349.747692 224.307882 349.950210 224.287778 350.152727 224.272369 350.355245 224.261693 350.557762 224.255785 350.760280 224.254683 350.962797 224.258422 351.165315 224.267039 351.367832 224.280571 351.570350 224.299054 351.772867 224.322524 351.975385 224.351019 352.177902 224.384574 352.380420 224.423226 352.582937 224.467012 352.785455 224.515968 352.987972 224.570130 353.190490 224.629535 353.393007 224.694220 353.595524 224.764221 353.798042 224.839574 354.000559 224.920316 354.203077 225.006484 354.405594 225.098113 354.608112 225.195242 354.810629 225.297905 355.013147 225.406139 355.215664 225.519981 355.418182 225.639468 355.620699 225.764636 355.823217 225.895521 356.025734 226.032160 356.228252 226.174589 356.430769 226.322845 356.633287 226.476964 356.835804 226.636984 357.038322 226.802939 357.240839 226.974868 357.443357 227.152806 357.645874 227.336789 357.848392 227.526855 358.050909 227.723039 358.253427 227.925379 358.455944 228.133911 358.658462 228.348671 358.860979 228.569695 359.063497 228.797021 359.266014 229.030684 359.468531 229.270722 359.671049 229.517170 359.873566 229.770066 360.076084 230.029445 360.278601 230.295345 360.481119 230.567801 360.683636 230.846850 360.886154 231.132529 361.088671 231.424874 361.291189 231.723921 361.493706 232.029708 361.696224 232.342270 361.898741 232.661644 362.101259 232.987867 362.303776 233.320975 362.506294 233.661005 362.708811 234.007992 362.911329 234.361974 363.113846 234.722987 363.316364 235.091068 363.518881 235.466253 363.721399 235.848578 363.923916 236.238080 364.126434 236.634795 364.328951 237.038761 364.531469 237.450013 364.733986 237.868588 364.936503 238.294522 365.139021 238.727852 365.341538 239.168615 365.544056 239.616847 365.746573 240.072564 365.949091 240.535704 366.151608 241.006184 366.354126 241.483922 366.556643 241.968836 366.759161 242.460842 366.961678 242.959858 367.164196 243.465802 367.366713 243.978591 367.569231 244.498143 367.771748 245.024375 367.974266 245.557204 368.176783 246.096549 368.379301 246.642326 368.581818 247.194453 368.784336 247.752847 368.986853 248.317426 369.189371 248.888108 369.391888 249.464809 369.594406 250.047448 369.796923 250.635941 369.999441 251.230207 370.201958 251.830163 370.404476 252.435725 370.606993 253.046813 370.809510 253.663342 371.012028 254.285231 371.214545 254.912397 371.417063 255.544758 371.619580 256.182231 371.822098 256.824733 372.024615 257.472182 372.227133 258.124495 372.429650 258.781591 372.632168 259.443385 372.834685 260.109797 373.037203 260.780743 373.239720 261.456140 373.442238 262.135907 373.644755 262.819961 373.847273 263.508218 374.049790 264.200598 374.252308 264.897016 374.454825 265.597391 374.657343 266.301640 374.859860 267.009681 375.062378 267.721430 375.264895 268.436806 375.467413 269.155726 375.669930 269.878107 375.872448 270.603868 376.074965 271.332924 376.277483 272.065194 376.480000 272.800596 376.682517 273.539046 376.885035 274.280463 377.087552 275.024763 377.290070 275.771864 377.492587 276.521684 377.695105 277.274140 377.897622 278.029150 378.100140 278.786630 378.302657 279.546499 378.505175 280.308675 378.707692 281.073073 378.910210 281.839612 379.112727 282.608210 379.315245 283.378784 379.517762 284.151251 379.720280 284.925528 379.922797 285.701534 380.125315 286.479186 380.327832 287.258401 380.530350 288.039096 380.732867 288.821190 380.935385 289.604599 381.137902 290.389242 381.340420 291.175034 381.542937 291.961895 381.745455 292.749742 381.947972 293.538491 382.150490 294.328060 382.353007 295.118368 382.555524 295.909331 382.758042 296.700867 382.960559 297.492893 383.163077 298.285326 383.365594 299.078085 383.568112 299.871087 383.770629 300.664249 383.973147 301.457488 384.175664 302.250723 384.378182 303.043870 384.580699 303.836847 384.783217 304.629572 384.985734 305.421962 385.188252 306.213934 385.390769 307.005406 385.593287 307.796296 385.795804 308.586520 385.998322 309.375997 386.200839 310.164643 386.403357 310.952377 386.605874 311.739115 386.808392 312.524776 387.010909 313.309276 387.213427 314.092534 387.415944 314.874466 387.618462 315.654990 387.820979 316.434024 388.023497 317.211485 388.226014 317.987290 388.428531 318.761357 388.631049 319.533604 388.833566 320.303947 389.036084 321.072305 389.238601 321.838595 389.441119 322.602734 389.643636 323.364640 389.846154 324.124230 390.048671 324.881422 390.251189 325.636133 390.453706 326.388281 390.656224 327.137783 390.858741 327.884556 391.061259 328.628518 391.263776 329.369587 391.466294 330.107681 391.668811 330.842715 391.871329 331.574608 392.073846 332.303278 392.276364 333.028642 392.478881 333.750617 392.681399 334.469121 392.883916 335.184071 393.086434 335.895385 393.288951 336.602980 393.491469 337.306774 393.693986 338.006684 393.896503 338.702628 394.099021 339.394523 394.301538 340.082286 394.504056 340.765835 394.706573 341.445088 394.909091 342.119962 395.111608 342.790374 395.314126 343.456243 395.516643 344.117484 395.719161 344.774017 395.921678 345.425758 396.124196 346.072624 396.326713 346.714534 396.529231 347.351405 396.731748 347.983154 396.934266 348.609698 397.136783 349.230956 397.339301 349.846844 397.541818 350.457281 397.744336 351.062183 397.946853 351.661468 398.149371 352.255053 398.351888 352.842856 398.554406 353.424795 398.756923 354.000787 398.959441 354.570749 399.161958 355.134599 399.364476 355.692254 399.566993 356.243632 399.769510 356.788651 399.972028 357.327227 400.174545 357.859278 400.377063 358.384722 400.579580 358.903476 400.782098 359.415457 400.984615 359.920584 401.187133 360.418773 401.389650 360.909942 401.592168 361.394009 401.794685 361.870891 401.997203 362.340505 402.199720 362.802769 402.402238 363.257600 402.604755 363.704916 402.807273 364.144634 403.009790 364.576672 403.212308 365.000948 403.414825 365.417378 403.617343 365.825880 403.819860 366.226372 404.022378 366.618771 404.224895 367.002994 404.427413 367.378960 404.629930 367.746585 404.832448 368.105787 405.034965 368.456484 405.237483 368.798592 405.440000 369.132030 405.642517 369.456715 405.845035 369.772564 406.047552 370.079494 406.250070 370.377425 406.452587 370.666271 406.655105 370.945952 406.857622 371.216385 407.060140 371.477487 407.262657 371.729175 407.465175 371.971368 407.667692 372.203982 407.870210 372.426935 408.072727 372.640145 408.275245 372.843529 408.477762 373.037004 408.680280 373.220488 408.882797 373.393898 409.085315 373.557152 409.287832 373.710167 409.490350 373.852862 409.692867 373.985152 409.895385 374.106956 410.097902 374.218192 410.300420 374.318776 410.502937 374.408626 410.705455 374.487660 410.907972 374.555795 411.110490 374.612948 411.313007 374.659037 411.515524 374.693980 411.718042 374.717694 411.920559 374.730096 412.123077 374.731104 412.325594 374.720636 412.528112 374.698608 412.730629 374.664938 412.933147 374.619545 413.135664 374.562344 413.338182 374.493255 413.540699 374.412193 413.743217 374.319077 413.945734 374.213824 414.148252 374.096352 414.350769 373.966578 414.553287 373.824419 414.755804 373.669793 414.958322 373.502618 415.160839 373.322810 415.363357 373.130288 415.565874 372.924969 415.768392 372.706770 415.970909 372.475610 416.173427 372.231404 416.375944 371.974100 416.578462 371.703765 416.780979 371.420492 416.983497 371.124377 417.186014 370.815515 417.388531 370.494001 417.591049 370.159929 417.793566 369.813396 417.996084 369.454495 418.198601 369.083323 418.401119 368.699973 418.603636 368.304542 418.806154 367.897124 419.008671 367.477814 419.211189 367.046707 419.413706 366.603898 419.616224 366.149482 419.818741 365.683555 420.021259 365.206211 420.223776 364.717545 420.426294 364.217652 420.628811 363.706628 420.831329 363.184567 421.033846 362.651565 421.236364 362.107716 421.438881 361.553115 421.641399 360.987858 421.843916 360.412040 422.046434 359.825755 422.248951 359.229098 422.451469 358.622165 422.653986 358.005051 422.856503 357.377851 423.059021 356.740659 423.261538 356.093571 423.464056 355.436681 423.666573 354.770086 423.869091 354.093879 424.071608 353.408156 424.274126 352.713012 424.476643 352.008542 424.679161 351.294841 424.881678 350.572004 425.084196 349.840125 425.286713 349.099301 425.489231 348.349626 425.691748 347.591194 425.894266 346.824102 426.096783 346.048444 426.299301 345.264316 426.501818 344.471811 426.704336 343.671026 426.906853 342.862054 427.109371 342.044992 427.311888 341.219935 427.514406 340.386977 427.716923 339.546213 427.919441 338.697738 428.121958 337.841648 428.324476 336.978037 428.526993 336.107001 428.729510 335.228634 428.932028 334.343032 429.134545 333.450290 429.337063 332.550502 429.539580 331.643763 429.742098 330.730169 429.944615 329.809815 430.147133 328.882796 430.349650 327.949206 430.552168 327.009141 430.754685 326.062696 430.957203 325.109966 431.159720 324.151046 431.362238 323.186030 431.564755 322.215014 431.767273 321.238094 431.969790 320.255363 432.172308 319.266917 432.374825 318.272851 432.577343 317.273261 432.779860 316.268240 432.982378 315.257884 433.184895 314.242289 433.387413 313.221549 433.589930 312.195759 433.792448 311.165014 433.994965 310.129410 434.197483 309.089040 434.400000 308.044001 434.602517 306.994388 434.805035 305.940294 435.007552 304.881817 435.210070 303.819049 435.412587 302.752087 435.615105 301.681026 435.817622 300.605960 436.020140 299.526984 436.222657 298.444194 436.425175 297.357685 436.627692 296.267552 436.830210 295.173889 437.032727 294.076791 437.235245 292.976355 437.437762 291.872674 437.640280 290.765844 437.842797 289.655960 438.045315 288.543116 438.247832 287.427409 438.450350 286.308932 438.652867 285.187781 438.855385 284.064051 439.057902 282.937837 439.260420 281.809235 439.462937 280.678338 439.665455 279.545242 439.867972 278.410042 440.070490 277.272834 440.273007 276.133711 440.475524 274.992770 440.678042 273.850105 440.880559 272.705811 441.083077 271.559984 441.285594 270.412718 441.488112 269.264108 441.690629 268.114249 441.893147 266.963237 442.095664 265.811166 442.298182 264.658132 442.500699 263.504229 442.703217 262.349553 442.905734 261.194198 443.108252 260.038260 443.310769 258.881833 443.513287 257.725013 443.715804 256.567894 443.918322 255.410573 444.120839 254.253142 444.323357 253.095699 444.525874 251.938337 444.728392 250.781153 444.930909 249.624240 445.133427 248.467693 445.335944 247.311609 445.538462 246.156082 445.740979 245.001206 445.943497 243.847078 446.146014 242.693791 446.348531 241.541442 446.551049 240.390124 446.753566 239.239934 446.956084 238.090965 447.158601 236.943314 447.361119 235.797075 447.563636 234.652343 447.766154 233.509214 447.968671 232.367781 448.171189 231.228141 448.373706 230.090389 448.576224 228.954618 448.778741 227.820925 448.981259 226.689404 449.183776 225.560151 449.386294 224.433260 449.588811 223.308827 449.791329 222.186946 449.993846 221.067713 450.196364 219.951222 450.398881 218.837569 450.601399 217.726848 450.803916 216.619155 451.006434 215.514585 451.208951 214.413233 451.411469 213.315193 451.613986 212.220561 451.816503 211.129432 452.019021 210.041900 452.221538 208.958062 452.424056 207.878011 452.626573 206.801843 452.829091 205.729653 453.031608 204.661537 453.234126 203.597588 453.436643 202.537902 453.639161 201.482574 453.841678 200.431700 454.044196 199.385373 454.246713 198.343690 454.449231 197.306744 454.651748 196.274632 454.854266 195.247448 455.056783 194.225288 455.259301 193.208246 455.461818 192.196417 455.664336 191.189896 455.866853 190.188779 456.069371 189.193160 456.271888 188.203135 456.474406 187.218798 456.676923 186.240244 456.879441 185.267569 457.081958 184.300868 457.284476 183.340235 457.486993 182.385766 457.689510 181.437555 457.892028 180.495698 458.094545 179.560290 458.297063 178.631425 458.499580 177.709200 458.702098 176.793708 458.904615 175.885044 459.107133 174.983305 459.309650 174.088585 459.512168 173.200978 459.714685 172.320580 459.917203 171.447487 460.119720 170.581792 460.322238 169.723591 460.524755 168.872979 460.727273 168.030052 460.929790 167.194903 461.132308 166.367629 461.334825 165.548324 461.537343 164.737082 461.739860 163.934001 461.942378 163.139173 462.144895 162.352695 462.347413 161.574661 462.549930 160.805166 462.752448 160.044305 462.954965 159.292174 463.157483 158.548868 463.360000 157.814481 463.562517 157.089108 463.765035 156.372845 463.967552 155.665786 464.170070 154.968027 464.372587 154.279663 464.575105 153.600788 464.777622 152.931497 464.980140 152.271887 465.182657 151.622051 465.385175 150.982085 465.587692 150.352083 465.790210 149.732142 465.992727 149.122355 466.195245 148.522818 466.397762 147.933626 466.600280 147.354874 466.802797 146.786657 467.005315 146.229046 467.207832 145.682023 467.410350 145.145544 467.612867 144.619566 467.815385 144.104046 468.017902 143.598941 468.220420 143.104208 468.422937 142.619804 468.625455 142.145687 468.827972 141.681813 469.030490 141.228139 469.233007 140.784623 469.435524 140.351221 469.638042 139.927890 469.840559 139.514588 470.043077 139.111272 470.245594 138.717898 470.448112 138.334423 470.650629 137.960805 470.853147 137.597001 471.055664 137.242967 471.258182 136.898661 471.460699 136.564040 471.663217 136.239060 471.865734 135.923680 472.068252 135.617855 472.270769 135.321543 472.473287 135.034701 472.675804 134.757286 472.878322 134.489254 473.080839 134.230564 473.283357 133.981172 473.485874 133.741035 473.688392 133.510110 473.890909 133.288355 474.093427 133.075725 474.295944 132.872179 474.498462 132.677673 474.700979 132.492164 474.903497 132.315609 475.106014 132.147966 475.308531 131.989192 475.511049 131.839242 475.713566 131.698075 475.916084 131.565648 476.118601 131.441917 476.321119 131.326840 476.523636 131.220374 476.726154 131.122475 476.928671 131.033100 477.131189 130.952208 477.333706 130.879754 477.536224 130.815696 477.738741 130.759991 477.941259 130.712595 478.143776 130.673467 478.346294 130.642562 478.548811 130.619839 478.751329 130.605253 478.953846 130.598762 479.156364 130.600324 479.358881 130.609894 479.561399 130.627431 479.763916 130.652891 479.966434 130.686231 480.168951 130.727408 480.371469 130.776380 480.573986 130.833103 480.776503 130.897534 480.979021 130.969631 481.181538 131.049350 481.384056 131.136648 481.586573 131.231483 481.789091 131.333812 481.991608 131.443591 482.194126 131.560777 482.396643 131.685328 482.599161 131.817201 482.801678 131.956353 483.004196 132.102740 483.206713 132.256320 483.409231 132.417050 483.611748 132.584887 483.814266 132.759787 484.016783 132.941709 484.219301 133.130608 484.421818 133.326442 484.624336 133.529169 484.826853 133.738744 485.029371 133.955125 485.231888 134.178270 485.434406 134.408135 485.636923 134.644677 485.839441 134.887853 486.041958 135.137620 486.244476 135.393936 486.446993 135.656757 486.649510 135.926040 486.852028 136.201743 487.054545 136.483822 487.257063 136.772234 487.459580 137.066938 487.662098 137.367888 487.864615 137.675043 488.067133 137.988360 488.269650 138.307796 488.472168 138.633307 488.674685 138.964851 488.877203 139.302384 489.079720 139.645864 489.282238 139.995249 489.484755 140.350494 489.687273 140.711556 489.889790 141.078394 490.092308 141.450964 490.294825 141.829223 490.497343 142.213127 490.699860 142.602635 490.902378 142.997703 491.104895 143.398288 491.307413 143.804347 491.509930 144.215838 491.712448 144.632716 491.914965 145.054940 492.117483 145.482466 492.320000 145.915252 492.522517 146.353254 492.725035 146.796429 492.927552 147.244734 493.130070 147.698128 493.332587 148.156565 493.535105 148.620005 493.737622 149.088402 493.940140 149.561716 494.142657 150.039902 494.345175 150.522918 494.547692 151.010720 494.750210 151.503266 494.952727 152.000513 495.155245 152.502418 495.357762 153.008938 495.560280 153.520030 495.762797 154.035650 495.965315 154.555757 496.167832 155.080306 496.370350 155.609256 496.572867 156.142562 496.775385 156.680183 496.977902 157.222075 497.180420 157.768195 497.382937 158.318500 497.585455 158.872948 497.787972 159.431495 497.990490 159.994098 498.193007 160.560714 498.395524 161.131301 498.598042 161.705815 498.800559 162.284214 499.003077 162.866454 499.205594 163.452493 499.408112 164.042287 499.610629 164.635794 499.813147 165.232970 500.015664 165.833774 500.218182 166.438160 500.420699 167.046088 500.623217 167.657513 500.825734 168.272394 501.028252 168.890686 501.230769 169.512346 501.433287 170.137333 501.635804 170.765603 501.838322 171.397113 502.040839 172.031819 502.243357 172.669680 502.445874 173.310652 502.648392 173.954692 502.850909 174.601757 503.053427 175.251805 503.255944 175.904791 503.458462 176.560674 503.660979 177.219410 503.863497 177.880957 504.066014 178.545270 504.268531 179.212309 504.471049 179.882028 504.673566 180.554386 504.876084 181.229340 505.078601 181.906846 505.281119 182.586862 505.483636 183.269344 505.686154 183.954250 505.888671 184.641537 506.091189 185.331161 506.293706 186.023080 506.496224 186.717251 506.698741 187.413631 506.901259 188.112177 507.103776 188.812845 507.306294 189.515593 507.508811 190.220379 507.711329 190.927158 507.913846 191.635889 508.116364 192.346527 508.318881 193.059031 508.521399 193.773356 508.723916 194.489461 508.926434 195.207302 509.128951 195.926837 509.331469 196.648021 509.533986 197.370813 509.736503 198.095169 509.939021 198.821047 510.141538 199.548403 510.344056 200.277194 510.546573 201.007378 510.749091 201.738912 510.951608 202.471752 511.154126 203.205855 511.356643 203.941180 511.559161 204.677682 511.761678 205.415318 511.964196 206.154046 512.166713 206.893824 512.369231 207.634606 512.571748 208.376352 512.774266 209.119018 512.976783 209.862560 513.179301 210.606937 513.381818 211.352104 513.584336 212.098020 513.786853 212.844640 513.989371 213.591923 514.191888 214.339824 514.394406 215.088302 514.596923 215.837313 514.799441 216.586814 515.001958 217.336763 515.204476 218.087115 515.406993 218.837830 515.609510 219.588862 515.812028 220.340170 516.014545 221.091710 516.217063 221.843440 516.419580 222.595316 516.622098 223.347296 516.824615 224.099336 517.027133 224.851394 517.229650 225.603427 517.432168 226.355391 517.634685 227.107251 517.837203 227.859000 518.039720 228.610639 518.242238 229.362168 518.444755 230.113588 518.647273 230.864898 518.849790 231.616100 519.052308 232.367194 519.254825 233.118180 519.457343 233.869058 519.659860 234.619830 519.862378 235.370495 520.064895 236.121055 520.267413 236.871509 520.469930 237.621858 520.672448 238.372102 520.874965 239.122242 521.077483 239.872278 521.280000 240.622211 521.482517 241.372042 521.685035 242.121769 521.887552 242.871395 522.090070 243.620920 522.292587 244.370343 522.495105 245.119666 522.697622 245.868888 522.900140 246.618011 523.102657 247.367035 523.305175 248.115960 523.507692 248.864786 523.710210 249.613515 523.912727 250.362146 524.115245 251.110680 524.317762 251.859117 524.520280 252.607458 524.722797 253.355703 524.925315 254.103854 525.127832 254.851909 525.330350 255.599870 525.532867 256.347737 525.735385 257.095511 525.937902 257.843191 526.140420 258.590779 526.342937 259.338275 526.545455 260.085679 526.747972 260.832992 526.950490 261.580214 527.153007 262.327346 527.355524 263.074387 527.558042 263.821340 527.760559 264.568203 527.963077 265.314978 528.165594 266.061664 528.368112 266.808263 528.570629 267.554774 528.773147 268.301199 528.975664 269.047538 529.178182 269.793790 529.380699 270.539957 529.583217 271.286039 529.785734 272.032036 529.988252 272.777950 530.190769 273.523779 530.393287 274.269525 530.595804 275.015189 530.798322 275.760770 531.000839 276.506269 531.203357 277.251687 531.405874 277.997024 531.608392 278.742280 531.810909 279.487456 532.013427 280.232553 532.215944 280.977570 532.418462 281.722508 532.620979 282.467368 532.823497 283.212150 533.026014 283.956855 533.228531 284.701482 533.431049 285.446033 533.633566 286.190508 533.836084 286.934908 534.038601 287.679232 534.241119 288.423481 534.443636 289.167656 534.646154 289.911757 534.848671 290.655784 535.051189 291.399739 535.253706 292.143621 535.456224 292.887431 535.658741 293.631169 535.861259 294.374836 536.063776 295.118432 536.266294 295.861958 536.468811 296.605414 536.671329 297.348800 536.873846 298.092118 537.076364 298.835367 537.278881 299.578547 537.481399 300.321661 537.683916 301.064707 537.886434 301.807686 538.088951 302.550599 538.291469 303.293446 538.493986 304.036227 538.696503 304.778944 538.899021 305.521596 539.101538 306.264183 539.304056 307.006708 539.506573 307.749169 539.709091 308.491567 539.911608 309.233903 540.114126 309.976177 540.316643 310.718390 540.519161 311.460541 540.721678 312.202632 540.924196 312.944663 541.126713 313.686635 541.329231 314.428547 541.531748 315.170400 541.734266 315.912195 541.936783 316.653932 542.139301 317.395612 542.341818 318.137235 542.544336 318.878801 542.746853 319.620311 542.949371 320.361766 543.151888 321.103165 543.354406 321.844509 543.556923 322.585800 543.759441 323.327036 543.961958 324.068219 544.164476 324.809349 544.366993 325.550426 544.569510 326.291452 544.772028 327.032425 544.974545 327.773348 545.177063 328.514220 545.379580 329.255041 545.582098 329.995813 545.784615 330.736535 545.987133 331.477208 546.189650 332.217833 546.392168 332.958410 546.594685 333.698939 546.797203 334.439420 546.999720 335.179855 547.202238 335.920244 547.404755 336.660587 547.607273 337.400885 547.809790 338.141137 548.012308 338.881345 548.214825 339.621509 548.417343 340.361629 548.619860 341.101707 548.822378 341.841741 549.024895 342.581733 549.227413 343.321683 549.429930 344.061592 549.632448 344.801460 549.834965 345.541288 550.037483 346.281075 550.240000 347.020823 550.442517 347.760531 550.645035 348.500201 550.847552 349.239833 551.050070 349.979426 551.252587 350.718983 551.455105 351.458502 551.657622 352.197985 551.860140 352.937432 552.062657 353.676843 552.265175 354.416219 552.467692 355.155560 552.670210 355.894867 552.872727 356.634140 553.075245 357.373380 553.277762 358.112587 553.480280 358.851761 553.682797 359.590904 553.885315 360.330015 554.087832 361.069094 554.290350 361.808143 554.492867 362.547161 554.695385 363.286150 554.897902 364.025110 555.100420 364.764040 555.302937 365.502942 555.505455 366.241816 555.707972 366.980662 555.910490 367.719481 556.113007 368.458274 556.315524 369.197040 556.518042 369.935780 556.720559 370.674495 556.923077 371.413185 557.125594 372.151851 557.328112 372.890492 557.530629 373.629110 557.733147 374.367705 557.935664 375.106277 558.138182 375.844827 558.340699 376.583355 558.543217 377.321861 558.745734 378.060347 558.948252 378.798812 559.150769 379.537257 559.353287 380.275683 559.555804 381.014089 559.758322 381.752477 559.960839 382.490847 560.163357 383.229198 560.365874 383.967533 560.568392 384.705850 560.770909 385.444151 560.973427 386.182436 561.175944 386.920705 561.378462 387.658959 561.580979 388.397199 561.783497 389.135424 561.986014 389.873636 562.188531 390.611834 562.391049 391.350019 562.593566 392.088192 562.796084 392.826353 562.998601 393.564502 563.201119 394.302640 563.403636 395.040767 563.606154 395.778884 563.808671 396.516991 564.011189 397.255089 564.213706 397.993178 564.416224 398.731259 564.618741 399.469332 564.821259 400.207397 565.023776 400.945455 565.226294 401.683506 565.428811 402.421551 565.631329 403.159590 565.833846 403.897624 566.036364 404.635653 566.238881 405.373677 566.441399 406.111698 566.643916 406.849715 566.846434 407.587729 567.048951 408.325740 567.251469 409.063749 567.453986 409.801756 567.656503 410.539762 567.859021 411.277766 568.061538 412.015771 568.061538 514.000000" /></g></g><g class="titles"><text class="title plot_title" x="400.0" y="26">Saphan-Khwai 50</text></g><g class="plot overlay" transform="translate(200, 46)"><g class="series serie-0 color-0"><g class="dots"><circle class="dot reactive tooltip-trigger" cx="11.13846153846154" cy="239.6168466304312" r="2.5" /><desc class="value">193000</desc><desc class="x ">11.13846153846154</desc><desc class="y ">239.6168466304312</desc><desc class="x_label">Jan</desc></g><g class="dots"><circle class="dot reactive tooltip-trigger" cx="61.76783216783217" cy="345.7084923499739" r="2.5" /><desc class="value">185000</desc><desc class="x top">61.76783216783217</desc><desc class="y top">345.7084923499739</desc><desc class="x_label">Feb</desc></g><g class="dots"><circle class="dot reactive tooltip-trigger" cx="112.3972027972028" cy="14.172099476403105" r="2.5" /><desc class="value">210000</desc><desc class="x ">112.3972027972028</desc><desc class="y ">14.172099476403105</desc><desc class="x_label">Mar</desc></g><g class="dots"><circle class="dot reactive tooltip-trigger" cx="163.02657342657344" cy="491.5845052143451" r="2.5" /><desc class="value">174000</desc><desc class="x top">163.02657342657344</desc><desc class="y top">491.5845052143451</desc><desc class="x_label">Apr</desc></g><g class="dots"><circle class="dot reactive tooltip-trigger" cx="213.65594405594408" cy="248.8998656308912" r="2.5" /><desc class="value">192300</desc><desc class="x ">213.65594405594408</desc><desc class="y ">248.8998656308912</desc><desc class="x_label">May</desc></g><g class="dots"><circle class="dot reactive tooltip-trigger" cx="264.2853146853147" cy="266.1397580603169" r="2.5" /><desc class="value">191000</desc><desc class="x top">264.2853146853147</desc><desc class="y top">266.1397580603169</desc><desc class="x_label">Jun</desc></g><g class="dots"><circle class="dot reactive tooltip-trigger" cx="314.9146853146853" cy="266.1397580603169" r="2.5" /><desc class="value">191000</desc><desc class="x left top">314.9146853146853</desc><desc class="y left top">266.1397580603169</desc><desc class="x_label">Jul</desc></g><g class="dots"><circle class="dot reactive tooltip-trigger" cx="365.54405594405597" cy="239.6168466304312" r="2.5" /><desc class="value">193000</desc><desc class="x left">365.54405594405597</desc><desc class="y left">239.6168466304312</desc><desc class="x_label">Aug</desc></g><g class="dots"><circle class="dot reactive tooltip-trigger" cx="416.17342657342664" cy="372.2314037798596" r="2.5" /><desc class="value">183000</desc><desc class="x left top">416.17342657342664</desc><desc class="y left top">372.2314037798596</desc><desc class="x_label">Sep</desc></g><g class="dots"><circle class="dot reactive tooltip-trigger" cx="466.8027972027973" cy="146.78665662583137" r="2.5" /><desc class="value">200000</desc><desc class="x left">466.8027972027973</desc><desc class="y left">146.78665662583137</desc><desc class="x_label">Oct</desc></g><g class="dots"><circle class="dot reactive tooltip-trigger" cx="517.4321678321678" cy="226.35539091548839" r="2.5" /><desc class="value">194000</desc><desc class="x left">517.4321678321678</desc><desc class="y left">226.35539091548839</desc><desc class="x_label">Nov</desc></g><g class="dots"><circle class="dot reactive tooltip-trigger" cx="568.0615384615386" cy="412.01577092468807" r="2.5" /><desc class="value">180000</desc><desc class="x left top">568.0615384615386</desc><desc class="y left top">412.01577092468807</desc><desc class="x_label">Dec</desc></g></g></g><g class="plot text-overlay" transform="translate(200, 46)"><g class="series serie-0 color-0" /></g><g class="plot tooltip-overlay" transform="translate(200, 46)"><g class="tooltip" style="opacity: 0" transform="translate(0 0)"><rect class="tooltip-box" height="0" rx="0" ry="0" width="0" /><g class="text" /></g></g><g class="legends" transform="translate(10, 56)"><g class="legend reactive activate-serie" id="activate-serie-0"><rect class="color-0 reactive" height="12" width="12" x="0.0" y="1.0" /><text x="17.0" y="11.2">Saphan-Khwai</text></g></g><g class="legends" transform="translate(790, 56)" /></g></svg>