<?xml version='1.0' encoding='utf-8'?>
<svg xmlns:xlink="http://www.w3.org/1999/xlink" class="pygal-chart" id="chart-7774f8d1-d9d1-4cb5-b84e-355628017239" viewBox="0 0 800 600" xmlns="http://www.w3.org/2000/svg"><!--Generated with pygal 2.0.11 (etree) ©Kozea 2011-2015 on 2015-12-10--><!--http://pygal.org--><!--http://github.com/Kozea/pygal--><defs><style type="text/css">#chart-7774f8d1-d9d1-4cb5-b84e-355628017239{-webkit-user-select:none;-webkit-font-smoothing:antialiased;font-family:Consolas,"Liberation Mono",Menlo,Courier,monospace}#chart-7774f8d1-d9d1-4cb5-b84e-355628017239 .title{font-family:Consolas,"Liberation Mono",Menlo,Courier,monospace;font-size:16px}#chart-7774f8d1-d9d1-4cb5-b84e-355628017239 .legends .legend text{font-family:Consolas,"Liberation Mono",Menlo,Courier,monospace;font-size:14px}#chart-7774f8d1-d9d1-4cb5-b84e-355628017239 .axis text{font-family:Consolas,"Liberation Mono",Menlo,Courier,monospace;font-size:10px}#chart-7774f8d1-d9d1-4cb5-b84e-355628017239 .axis text.major{font-family:Consolas,"Liberation Mono",Menlo,Courier,monospace;font-size:10px}#chart-7774f8d1-d9d1-4cb5-b84e-355628017239 .text-overlay text.value{font-family:Consolas,"Liberation Mono",Menlo,Courier,monospace;font-size:16px}#chart-7774f8d1-d9d1-4cb5-b84e-355628017239 .text-overlay text.label{font-family:Consolas,"Liberation Mono",Menlo,Courier,monospace;font-size:10px}#chart-7774f8d1-d9d1-4cb5-b84e-355628017239 .tooltip{font-family:Consolas,"Liberation Mono",Menlo,Courier,monospace;font-size:14px}#chart-7774f8d1-d9d1-4cb5-b84e-355628017239 text.no_data{font-family:Consolas,"Liberation Mono",Menlo,Courier,monospace;font-size:64px}
#chart-7774f8d1-d9d1-4cb5-b84e-355628017239{background-color:black}#chart-7774f8d1-d9d1-4cb5-b84e-355628017239 path,#chart-7774f8d1-d9d1-4cb5-b84e-355628017239 line,#chart-7774f8d1-d9d1-4cb5-b84e-355628017239 rect,#chart-7774f8d1-d9d1-4cb5-b84e-355628017239 circle{-webkit-transition:250ms;-moz-transition:250ms;transition:250ms}#chart-7774f8d1-d9d1-4cb5-b84e-355628017239 .graph &gt; .background{fill:black}#chart-7774f8d1-d9d1-4cb5-b84e-355628017239 .plot &gt; .background{fill:#111}#chart-7774f8d1-d9d1-4cb5-b84e-355628017239 .graph{fill:#999}#chart-7774f8d1-d9d1-4cb5-b84e-355628017239 text.no_data{fill:#eee}#chart-7774f8d1-d9d1-4cb5-b84e-355628017239 .title{fill:#eee}#chart-7774f8d1-d9d1-4cb5-b84e-355628017239 .legends .legend text{fill:#999}#chart-7774f8d1-d9d1-4cb5-b84e-355628017239 .legends .legend:hover text{fill:#eee}#chart-7774f8d1-d9d1-4cb5-b84e-355628017239 .axis .line{stroke:#eee}#chart-7774f8d1-d9d1-4cb5-b84e-355628017239 .axis .guide.line{stroke:#555}#chart-7774f8d1-d9d1-4cb5-b84e-355628017239 .axis .major.line{stroke:#999}#chart-7774f8d1-d9d1-4cb5-b84e-355628017239 .axis text.major{fill:#eee}#chart-7774f8d1-d9d1-4cb5-b84e-355628017239 .axis.y .guides:hover .guide.line,#chart-7774f8d1-d9d1-4cb5-b84e-355628017239 .line-graph .axis.x .guides:hover .guide.line,#chart-7774f8d1-d9d1-4cb5-b84e-355628017239 .stackedline-graph .axis.x .guides:hover .guide.line,#chart-7774f8d1-d9d1-4cb5-b84e-355628017239 .xy-graph .axis.x .guides:hover .guide.line{stroke:#eee}#chart-7774f8d1-d9d1-4cb5-b84e-355628017239 .axis .guides:hover text{fill:#eee}#chart-7774f8d1-d9d1-4cb5-b84e-355628017239 .reactive{fill-opacity:.8}#chart-7774f8d1-d9d1-4cb5-b84e-355628017239 .reactive.active,#chart-7774f8d1-d9d1-4cb5-b84e-355628017239 .active .reactive{fill-opacity:.4;stroke-width:4}#chart-7774f8d1-d9d1-4cb5-b84e-355628017239 .series text{fill:#eee}#chart-7774f8d1-d9d1-4cb5-b84e-355628017239 .tooltip rect{fill:#111;stroke:#eee;-webkit-transition:opacity 250ms;-moz-transition:opacity 250ms;transition:opacity 250ms}#chart-7774f8d1-d9d1-4cb5-b84e-355628017239 .tooltip .label{fill:#999}#chart-7774f8d1-d9d1-4cb5-b84e-355628017239 .tooltip .label{fill:#999}#chart-7774f8d1-d9d1-4cb5-b84e-355628017239 .tooltip .legend{font-size:.8em;fill:#555}#chart-7774f8d1-d9d1-4cb5-b84e-355628017239 .tooltip .x_label{font-size:.6em;fill:#eee}#chart-7774f8d1-d9d1-4cb5-b84e-355628017239 .tooltip .xlink{font-size:.5em;text-decoration:underline}#chart-7774f8d1-d9d1-4cb5-b84e-355628017239 .tooltip .value{font-size:1.5em}#chart-7774f8d1-d9d1-4cb5-b84e-355628017239 .map-element{fill:#111;stroke:#555 !important}#chart-7774f8d1-d9d1-4cb5-b84e-355628017239 .map-element .reactive{fill-opacity:inherit}#chart-7774f8d1-d9d1-4cb5-b84e-355628017239 .color-0,#chart-7774f8d1-d9d1-4cb5-b84e-355628017239 .color-0 a:visited{stroke:#ff5995;fill:#ff5995}#chart-7774f8d1-d9d1-4cb5-b84e-355628017239 .text-overlay .color-0 text{fill:black}
#chart-7774f8d1-d9d1-4cb5-b84e-355628017239 text.no_data{text-anchor:middle}#chart-7774f8d1-d9d1-4cb5-b84e-355628017239 .guide.line{fill:none}#chart-7774f8d1-d9d1-4cb5-b84e-355628017239 .centered{text-anchor:middle}#chart-7774f8d1-d9d1-4cb5-b84e-355628017239 .title{text-anchor:middle}#chart-7774f8d1-d9d1-4cb5-b84e-355628017239 .legends .legend text{fill-opacity:1}#chart-7774f8d1-d9d1-4cb5-b84e-355628017239 .axis.x text{text-anchor:middle}#chart-7774f8d1-d9d1-4cb5-b84e-355628017239 .axis.x:not(.web) text[transform]{text-anchor:start}#chart-7774f8d1-d9d1-4cb5-b84e-355628017239 .axis.x:not(.web) text[transform].backwards{text-anchor:end}#chart-7774f8d1-d9d1-4cb5-b84e-355628017239 .axis.y text{text-anchor:end}#chart-7774f8d1-d9d1-4cb5-b84e-355628017239 .axis.y text[transform].backwards{text-anchor:start}#chart-7774f8d1-d9d1-4cb5-b84e-355628017239 .axis.y2 text{text-anchor:start}#chart-7774f8d1-d9d1-4cb5-b84e-355628017239 .axis.y2 text[transform].backwards{text-anchor:end}#chart-7774f8d1-d9d1-4cb5-b84e-355628017239 .axis .guide.line{stroke-dasharray:4,4}#chart-7774f8d1-d9d1-4cb5-b84e-355628017239 .axis .major.guide.line{stroke-dasharray:6,6}#chart-7774f8d1-d9d1-4cb5-b84e-355628017239 .horizontal .axis.y .guide.line,#chart-7774f8d1-d9d1-4cb5-b84e-355628017239 .horizontal .axis.y2 .guide.line,#chart-7774f8d1-d9d1-4cb5-b84e-355628017239 .vertical .axis.x .guide.line{opacity:0}#chart-7774f8d1-d9d1-4cb5-b84e-355628017239 .horizontal .axis.always_show .guide.line,#chart-7774f8d1-d9d1-4cb5-b84e-355628017239 .vertical .axis.always_show .guide.line{opacity:1 !important}#chart-7774f8d1-d9d1-4cb5-b84e-355628017239 .axis.y .guides:hover .guide.line,#chart-7774f8d1-d9d1-4cb5-b84e-355628017239 .axis.y2 .guides:hover .guide.line,#chart-7774f8d1-d9d1-4cb5-b84e-355628017239 .axis.x .guides:hover .guide.line{opacity:1}#chart-7774f8d1-d9d1-4cb5-b84e-355628017239 .axis .guides:hover text{opacity:1}#chart-7774f8d1-d9d1-4cb5-b84e-355628017239 .nofill{fill:none}#chart-7774f8d1-d9d1-4cb5-b84e-355628017239 .subtle-fill{fill-opacity:.2}#chart-7774f8d1-d9d1-4cb5-b84e-355628017239 .dot{stroke-width:1px;fill-opacity:1}#chart-7774f8d1-d9d1-4cb5-b84e-355628017239 .dot.active{stroke-width:5px}#chart-7774f8d1-d9d1-4cb5-b84e-355628017239 .dot.negative{fill:transparent}#chart-7774f8d1-d9d1-4cb5-b84e-355628017239 text,#chart-7774f8d1-d9d1-4cb5-b84e-355628017239 tspan{stroke:none !important}#chart-7774f8d1-d9d1-4cb5-b84e-355628017239 .series text.active{opacity:1}#chart-7774f8d1-d9d1-4cb5-b84e-355628017239 .tooltip rect{fill-opacity:.95;stroke-width:.5}#chart-7774f8d1-d9d1-4cb5-b84e-355628017239 .tooltip text{fill-opacity:1}#chart-7774f8d1-d9d1-4cb5-b84e-355628017239 .showable{visibility:hidden}#chart-7774f8d1-d9d1-4cb5-b84e-355628017239 .showable.shown{visibility:visible}</style><script type="text/javascript">window.pygal = window.pygal || {};window.pygal.config = window.pygal.config || {};window.pygal.config['7774f8d1-d9d1-4cb5-b84e-355628017239'] = {"value_formatter": null, "stroke_style": null, "show_minor_y_labels": true, "truncate_label": null, "explicit_size": false, "x_labels_major_every": null, "margin_right": null, "height": 600, "max_scale": 16, "x_labels_major_count": null, "logarithmic": false, "show_only_major_dots": false, "y_labels_major_count": null, "title": "Siam 53", "force_uri_protocol": null, "width": 800, "x_value_formatter": null, "half_pie": false, "show_x_guides": false, "style": {"background": "black", "major_guide_stroke_dasharray": "6,6", "no_data_font_size": 64, "no_data_font_family": "Consolas, \"Liberation Mono\", Menlo, Courier, monospace", "value_label_font_family": "Consolas, \"Liberation Mono\", Menlo, Courier, monospace", "value_font_size": 16, "legend_font_size": 14, "transition": "250ms", "value_colors": [], "foreground": "#999", "opacity_hover": ".4", "label_font_family": "Consolas, \"Liberation Mono\", Menlo, Courier, monospace", "major_label_font_size": 10, "opacity": ".8", "major_label_font_family": "Consolas, \"Liberation Mono\", Menlo, Courier, monospace", "tooltip_font_family": "Consolas, \"Liberation Mono\", Menlo, Courier, monospace", "font_family": "Consolas, \"Liberation Mono\", Menlo, Courier, monospace", "value_font_family": "Consolas, \"Liberation Mono\", Menlo, Courier, monospace", "colors": ["#ff5995", "#b6e354", "#feed6c", "#8cedff", "#9e6ffe", "#899ca1", "#f8f8f2", "#bf4646", "#516083", "#f92672", "#82b414", "#fd971f", "#56c2d6", "#808384", "#8c54fe", "#465457"], "title_font_size": 16, "foreground_subtle": "#555", "legend_font_family": "Consolas, \"Liberation Mono\", Menlo, Courier, monospace", "plot_background": "#111", "guide_stroke_dasharray": "4,4", "tooltip_font_size": 14, "foreground_strong": "#eee", "label_font_size": 10, "value_label_font_size": 10, "title_font_family": "Consolas, \"Liberation Mono\", Menlo, Courier, monospace"}, "include_x_axis": false, "stroke": true, "interpolation_precision": 250, "inverse_y_axis": false, "js": ["//kozea.github.io/pygal.js/2.0.x/pygal-tooltips.min.js"], "human_readable": false, "y_labels": null, "missing_value_fill_truncation": "x", "no_prefix": false, "disable_xml_declaration": false, "show_y_guides": true, "no_data_text": "No data", "margin": 20, "show_legend": true, "print_zeroes": true, "spacing": 10, "legend_box_size": 12, "tooltip_border_radius": 0, "legends": ["Siam"], "y_label_rotation": 0, "order_min": null, "min_scale": 4, "y_labels_major": null, "secondary_range": null, "x_title": null, "show_x_labels": true, "defs": [], "y_title": null, "x_labels": ["Jan", "Feb", "Mar", "Apr", "May", "Jun", "Jul", "Aug", "Sep", "Oct", "Nov", "Dec"], "stack_from_top": false, "print_values": false, "truncate_legend": null, "x_labels_major": null, "css": ["file://style.css", "file://graph.css"], "dots_size": 2.5, "show_y_labels": true, "interpolate": "cubic", "margin_left": null, "print_labels": false, "y_labels_major_every": null, "margin_top": null, "show_minor_x_labels": true, "legend_at_bottom_columns": null, "fill": true, "xrange": null, "strict": false, "zero": 0, "tooltip_fancy_mode": true, "interpolation_parameters": {}, "x_label_rotation": 0, "show_dots": true, "legend_at_bottom": false, "inner_radius": 0, "rounded_bars": null, "range": null, "margin_bottom": null, "box_mode": "extremes", "dynamic_print_values": false, "pretty_print": false}</script><script type="text/javascript" xlink:href="//kozea.github.io/pygal.js/2.0.x/pygal-tooltips.min.js" /></defs><title>Siam 53</title><g class="graph line-graph vertical"><rect class="background" height="600" width="800" x="0" y="0" /><g class="plot" transform="translate(139, 46)"><rect class="background" height="514" width="640.4" x="0" y="0" /><g class="axis y"><path class="line" d="M0.000000 514.000000 h640.400000" /><g class="guides"><path class="major guide line" d="M0.000000 470.468685 h640.400000" /><text class="major" x="-5" y="473.9686851892435">500000.0</text><title>500000.0</title></g><g class="guides"><path class="guide line" d="M0.000000 430.686514 h640.400000" /><text class="" x="-5" y="434.1865137052731">600000.0</text><title>600000.0</title></g><g class="guides"><path class="guide line" d="M0.000000 390.904342 h640.400000" /><text class="" x="-5" y="394.40434222130267">700000.0</text><title>700000.0</title></g><g class="guides"><path class="guide line" d="M0.000000 351.122171 h640.400000" /><text class="" x="-5" y="354.6221707373323">800000.0</text><title>800000.0</title></g><g class="guides"><path class="guide line" d="M0.000000 311.339999 h640.400000" /><text class="" x="-5" y="314.83999925336184">900000.0</text><title>900000.0</title></g><g class="guides"><path class="major guide line" d="M0.000000 271.557828 h640.400000" /><text class="major" x="-5" y="275.05782776939145">1000000.0</text><title>1000000.0</title></g><g class="guides"><path class="guide line" d="M0.000000 231.775656 h640.400000" /><text class="" x="-5" y="235.27565628542106">1100000.0</text><title>1100000.0</title></g><g class="guides"><path class="guide line" d="M0.000000 191.993485 h640.400000" /><text class="" x="-5" y="195.49348480145062">1200000.0</text><title>1200000.0</title></g><g class="guides"><path class="guide line" d="M0.000000 152.211313 h640.400000" /><text class="" x="-5" y="155.71131331748023">1300000.0</text><title>1300000.0</title></g><g class="guides"><path class="guide line" d="M0.000000 112.429142 h640.400000" /><text class="" x="-5" y="115.92914183350985">1400000.0</text><title>1400000.0</title></g><g class="guides"><path class="major guide line" d="M0.000000 72.646970 h640.400000" /><text class="major" x="-5" y="76.14697034953946">1500000.0</text><title>1500000.0</title></g><g class="guides"><path class="guide line" d="M0.000000 32.864799 h640.400000" /><text class="" x="-5" y="36.36479886556907">1600000.0</text><title>1600000.0</title></g></g><g class="axis x"><g class="guides"><path class="line" d="M12.315385 0.000000 v514.000000" /><text class="" x="12.315384615384614" y="529.0">Jan</text></g><g class="guides"><path class="guide line" d="M68.294406 0.000000 v514.000000" /><text class="" x="68.2944055944056" y="529.0">Feb</text></g><g class="guides"><path class="guide line" d="M124.273427 0.000000 v514.000000" /><text class="" x="124.27342657342656" y="529.0">Mar</text></g><g class="guides"><path class="guide line" d="M180.252448 0.000000 v514.000000" /><text class="" x="180.25244755244753" y="529.0">Apr</text></g><g class="guides"><path class="guide line" d="M236.231469 0.000000 v514.000000" /><text class="" x="236.23146853146855" y="529.0">May</text></g><g class="guides"><path class="guide line" d="M292.210490 0.000000 v514.000000" /><text class="" x="292.2104895104895" y="529.0">Jun</text></g><g class="guides"><path class="guide line" d="M348.189510 0.000000 v514.000000" /><text class="" x="348.1895104895105" y="529.0">Jul</text></g><g class="guides"><path class="guide line" d="M404.168531 0.000000 v514.000000" /><text class="" x="404.1685314685314" y="529.0">Aug</text></g><g class="guides"><path class="guide line" d="M460.147552 0.000000 v514.000000" /><text class="" x="460.1475524475524" y="529.0">Sep</text></g><g class="guides"><path class="guide line" d="M516.126573 0.000000 v514.000000" /><text class="" x="516.1265734265735" y="529.0">Oct</text></g><g class="guides"><path class="guide line" d="M572.105594 0.000000 v514.000000" /><text class="" x="572.1055944055943" y="529.0">Nov</text></g><g class="guides"><path class="guide line" d="M628.084615 0.000000 v514.000000" /><text class="" x="628.0846153846153" y="529.0">Dec</text></g></g><g class="series serie-0 color-0"><path class="line reactive" d="M12.315385 514.000000 L12.315385 100.842187 12.539301 101.196384 12.763217 101.550561 12.987133 101.904697 13.211049 102.258772 13.434965 102.612765 13.658881 102.966655 13.882797 103.320422 14.106713 103.674046 14.330629 104.027506 14.554545 104.380781 14.778462 104.733852 15.002378 105.086697 15.226294 105.439296 15.450210 105.791629 15.674126 106.143674 15.898042 106.495413 16.121958 106.846823 16.345874 107.197885 16.569790 107.548578 16.793706 107.898882 17.017622 108.248776 17.241538 108.598240 17.465455 108.947252 17.689371 109.295794 17.913287 109.643843 18.137203 109.991381 18.361119 110.338385 18.585035 110.684836 18.808951 111.030713 19.032867 111.375996 19.256783 111.720664 19.480699 112.064697 19.704615 112.408074 19.928531 112.750774 20.152448 113.092778 20.376364 113.434065 20.600280 113.774614 20.824196 114.114404 21.048112 114.453416 21.272028 114.791629 21.495944 115.129021 21.719860 115.465574 21.943776 115.801266 22.167692 116.136076 22.391608 116.469985 22.615524 116.802972 22.839441 117.135016 23.063357 117.466097 23.287273 117.796194 23.511189 118.125287 23.735105 118.453355 23.959021 118.780378 24.182937 119.106335 24.406853 119.431207 24.630769 119.754971 24.854685 120.077608 25.078601 120.399098 25.302517 120.719420 25.526434 121.038553 25.750350 121.356477 25.974266 121.673171 26.198182 121.988615 26.422098 122.302788 26.646014 122.615671 26.869930 122.927242 27.093846 123.237480 27.317762 123.546366 27.541678 123.853880 27.765594 124.159999 27.989510 124.464704 28.213427 124.767975 28.437343 125.069791 28.661259 125.370131 28.885175 125.668976 29.109091 125.966303 29.333007 126.262094 29.556923 126.556327 29.780839 126.848982 30.004755 127.140039 30.228671 127.429477 30.452587 127.717275 30.676503 128.003413 30.900420 128.287871 31.124336 128.570628 31.348252 128.851663 31.572168 129.130956 31.796084 129.408487 32.020000 129.684235 32.243916 129.958179 32.467832 130.230300 32.691748 130.500576 32.915664 130.768987 33.139580 131.035513 33.363497 131.300133 33.587413 131.562826 33.811329 131.823573 34.035245 132.082352 34.259161 132.339143 34.483077 132.593926 34.706993 132.846680 34.930909 133.097385 35.154825 133.346020 35.378741 133.592564 35.602657 133.836998 35.826573 134.079300 36.050490 134.319450 36.274406 134.557428 36.498322 134.793214 36.722238 135.026786 36.946154 135.258124 37.170070 135.487208 37.393986 135.714017 37.617902 135.938530 37.841818 136.160728 38.065734 136.380590 38.289650 136.598095 38.513566 136.813223 38.737483 137.025953 38.961399 137.236264 39.185315 137.444137 39.409231 137.649551 39.633147 137.852485 39.857063 138.052918 40.080979 138.250831 40.304895 138.446203 40.528811 138.639013 40.752727 138.829241 40.976643 139.016866 41.200559 139.201868 41.424476 139.384227 41.648392 139.563921 41.872308 139.740930 42.096224 139.915235 42.320140 140.086813 42.544056 140.255646 42.767972 140.421712 42.991888 140.584990 43.215804 140.745461 43.439720 140.903104 43.663636 141.057899 43.887552 141.209824 44.111469 141.358860 44.335385 141.504985 44.559301 141.648180 44.783217 141.788424 45.007133 141.925696 45.231049 142.059976 45.454965 142.191244 45.678881 142.319479 45.902797 142.444660 46.126713 142.566767 46.350629 142.685779 46.574545 142.801676 46.798462 142.914438 47.022378 143.024044 47.246294 143.130473 47.470210 143.233706 47.694126 143.333721 47.918042 143.430497 48.141958 143.524016 48.365874 143.614255 48.589790 143.701195 48.813706 143.784815 49.037622 143.865094 49.261538 143.942013 49.485455 144.015550 49.709371 144.085685 49.933287 144.152397 50.157203 144.215667 50.381119 144.275473 50.605035 144.331796 50.828951 144.384613 51.052867 144.433907 51.276783 144.479654 51.500699 144.521836 51.724615 144.560431 51.948531 144.595420 52.172448 144.626781 52.396364 144.654494 52.620280 144.678539 52.844196 144.698895 53.068112 144.715541 53.292028 144.728458 53.515944 144.737624 53.739860 144.743020 53.963776 144.744624 54.187692 144.742417 54.411608 144.736377 54.635524 144.726484 54.859441 144.712718 55.083357 144.695059 55.307273 144.673485 55.531189 144.647976 55.755105 144.618512 55.979021 144.585072 56.202937 144.547636 56.426853 144.506183 56.650769 144.460693 56.874685 144.411145 57.098601 144.357519 57.322517 144.299794 57.546434 144.237950 57.770350 144.171966 57.994266 144.101822 58.218182 144.027497 58.442098 143.948971 58.666014 143.866224 58.889930 143.779234 59.113846 143.687981 59.337762 143.592446 59.561678 143.492606 59.785594 143.388443 60.009510 143.279935 60.233427 143.167061 60.457343 143.049802 60.681259 142.928137 60.905175 142.802046 61.129091 142.671507 61.353007 142.536501 61.576923 142.397006 61.800839 142.253003 62.024755 142.104471 62.248671 141.951389 62.472587 141.793737 62.696503 141.631494 62.920420 141.464641 63.144336 141.293156 63.368252 141.117018 63.592168 140.936209 63.816084 140.750706 64.040000 140.560490 64.263916 140.365539 64.487832 140.165834 64.711748 139.961354 64.935664 139.752079 65.159580 139.537988 65.383497 139.319060 65.607413 139.095275 65.831329 138.866612 66.055245 138.633052 66.279161 138.394573 66.503077 138.151155 66.726993 137.902778 66.950909 137.649420 67.174825 137.391063 67.398741 137.127684 67.622657 136.859264 67.846573 136.585782 68.070490 136.307217 68.294406 136.023550 68.518322 135.734774 68.742238 135.440940 68.966154 135.142116 69.190070 134.838368 69.413986 134.529762 69.637902 134.216365 69.861818 133.898242 70.085734 133.575461 70.309650 133.248088 70.533566 132.916188 70.757483 132.579830 70.981399 132.239078 71.205315 131.893999 71.429231 131.544661 71.653147 131.191128 71.877063 130.833468 72.100979 130.471747 72.324895 130.106031 72.548811 129.736387 72.772727 129.362881 72.996643 128.985580 73.220559 128.604549 73.444476 128.219856 73.668392 127.831566 73.892308 127.439747 74.116224 127.044464 74.340140 126.645784 74.564056 126.243773 74.787972 125.838498 75.011888 125.430025 75.235804 125.018420 75.459720 124.603750 75.683636 124.186082 75.907552 123.765481 76.131469 123.342014 76.355385 122.915747 76.579301 122.486748 76.803217 122.055082 77.027133 121.620815 77.251049 121.184014 77.474965 120.744746 77.698881 120.303077 77.922797 119.859072 78.146713 119.412800 78.370629 118.964325 78.594545 118.513715 78.818462 118.061036 79.042378 117.606354 79.266294 117.149735 79.490210 116.691246 79.714126 116.230954 79.938042 115.768925 80.161958 115.305224 80.385874 114.839920 80.609790 114.373077 80.833706 113.904763 81.057622 113.435043 81.281538 112.963984 81.505455 112.491653 81.729371 112.018117 81.953287 111.543440 82.177203 111.067690 82.401119 110.590933 82.625035 110.113236 82.848951 109.634665 83.072867 109.155286 83.296783 108.675165 83.520699 108.194370 83.744615 107.712967 83.968531 107.231021 84.192448 106.748599 84.416364 106.265769 84.640280 105.782595 84.864196 105.299145 85.088112 104.815485 85.312028 104.331681 85.535944 103.847799 85.759860 103.363907 85.983776 102.880070 86.207692 102.396355 86.431608 101.912829 86.655524 101.429557 86.879441 100.946606 87.103357 100.464042 87.327273 99.981932 87.551189 99.500343 87.775105 99.019340 87.999021 98.538990 88.222937 98.059360 88.446853 97.580516 88.670769 97.102523 88.894685 96.625450 89.118601 96.149361 89.342517 95.674324 89.566434 95.200404 89.790350 94.727669 90.014266 94.256184 90.238182 93.786017 90.462098 93.317232 90.686014 92.849898 90.909930 92.384079 91.133846 91.919844 91.357762 91.457257 91.581678 90.996385 91.805594 90.537296 92.029510 90.080054 92.253427 89.624727 92.477343 89.171381 92.701259 88.720083 92.925175 88.270898 93.149091 87.823893 93.373007 87.379135 93.596923 86.936689 93.820839 86.496623 94.044755 86.059003 94.268671 85.623895 94.492587 85.191365 94.716503 84.761480 94.940420 84.334307 95.164336 83.909911 95.388252 83.488360 95.612168 83.069719 95.836084 82.654054 96.060000 82.241433 96.283916 81.831922 96.507832 81.425587 96.731748 81.022494 96.955664 80.622710 97.179580 80.226302 97.403497 79.833335 97.627413 79.443876 97.851329 79.057991 98.075245 78.675748 98.299161 78.297211 98.523077 77.922448 98.746993 77.551526 98.970909 77.184510 99.194825 76.821466 99.418741 76.462462 99.642657 76.107563 99.866573 75.756837 100.090490 75.410349 100.314406 75.068165 100.538322 74.730353 100.762238 74.396979 100.986154 74.068108 101.210070 73.743808 101.433986 73.424144 101.657902 73.109184 101.881818 72.798994 102.105734 72.493639 102.329650 72.193187 102.553566 71.897703 102.777483 71.607255 103.001399 71.321908 103.225315 71.041729 103.449231 70.766785 103.673147 70.497141 103.897063 70.232864 104.120979 69.974021 104.344895 69.720678 104.568811 69.472901 104.792727 69.230757 105.016643 68.994312 105.240559 68.763633 105.464476 68.538785 105.688392 68.319836 105.912308 68.106851 106.136224 67.899898 106.360140 67.699042 106.584056 67.504350 106.807972 67.315888 107.031888 67.133723 107.255804 66.957921 107.479720 66.788549 107.703636 66.625672 107.927552 66.469358 108.151469 66.319672 108.375385 66.176681 108.599301 66.040452 108.823217 65.911051 109.047133 65.788543 109.271049 65.672997 109.494965 65.564478 109.718881 65.463052 109.942797 65.368785 110.166713 65.281746 110.390629 65.201998 110.614545 65.129610 110.838462 65.064647 111.062378 65.007176 111.286294 64.957263 111.510210 64.914975 111.734126 64.880378 111.958042 64.853538 112.181958 64.834522 112.405874 64.823396 112.629790 64.820226 112.853706 64.825080 113.077622 64.838023 113.301538 64.859122 113.525455 64.888443 113.749371 64.926053 113.973287 64.972017 114.197203 65.026403 114.421119 65.089276 114.645035 65.160704 114.868951 65.240752 115.092867 65.329488 115.316783 65.426976 115.540699 65.533285 115.764615 65.648479 115.988531 65.772626 116.212448 65.905792 116.436364 66.048043 116.660280 66.199446 116.884196 66.360067 117.108112 66.529972 117.332028 66.709229 117.555944 66.897902 117.779860 67.096060 118.003776 67.303767 118.227692 67.521091 118.451608 67.748098 118.675524 67.984854 118.899441 68.231425 119.123357 68.487879 119.347273 68.754281 119.571189 69.030698 119.795105 69.317197 120.019021 69.613843 120.242937 69.920703 120.466853 70.237843 120.690769 70.565331 120.914685 70.903231 121.138601 71.251611 121.362517 71.610538 121.586434 71.980076 121.810350 72.360294 122.034266 72.751256 122.258182 73.153030 122.482098 73.565683 122.706014 73.989279 122.929930 74.423887 123.153846 74.869571 123.377762 75.326400 123.601678 75.794438 123.825594 76.273752 124.049510 76.764410 124.273427 77.266476 124.497343 77.779996 124.721259 78.304923 124.945175 78.841191 125.169091 79.388731 125.393007 79.947476 125.616923 80.517357 125.840839 81.098308 126.064755 81.690260 126.288671 82.293146 126.512587 82.906898 126.736503 83.531448 126.960420 84.166729 127.184336 84.812673 127.408252 85.469211 127.632168 86.136277 127.856084 86.813803 128.080000 87.501720 128.303916 88.199961 128.527832 88.908459 128.751748 89.627146 128.975664 90.355954 129.199580 91.094814 129.423497 91.843661 129.647413 92.602425 129.871329 93.371039 130.095245 94.149435 130.319161 94.937546 130.543077 95.735304 130.766993 96.542641 130.990909 97.359489 131.214825 98.185781 131.438741 99.021449 131.662657 99.866425 131.886573 100.720641 132.110490 101.584031 132.334406 102.456525 132.558322 103.338056 132.782238 104.228557 133.006154 105.127960 133.230070 106.036197 133.453986 106.953200 133.677902 107.878902 133.901818 108.813235 134.125734 109.756131 134.349650 110.707522 134.573566 111.667341 134.797483 112.635520 135.021399 113.611991 135.245315 114.596686 135.469231 115.589539 135.693147 116.590480 135.917063 117.599443 136.140979 118.616359 136.364895 119.641161 136.588811 120.673782 136.812727 121.714152 137.036643 122.762206 137.260559 123.817874 137.484476 124.881089 137.708392 125.951784 137.932308 127.029891 138.156224 128.115341 138.380140 129.208068 138.604056 130.308003 138.827972 131.415080 139.051888 132.529229 139.275804 133.650383 139.499720 134.778476 139.723636 135.913438 139.947552 137.055202 140.171469 138.203701 140.395385 139.358866 140.619301 140.520630 140.843217 141.688926 141.067133 142.863685 141.291049 144.044840 141.514965 145.232323 141.738881 146.426066 141.962797 147.626002 142.186713 148.832062 142.410629 150.044180 142.634545 151.262287 142.858462 152.486316 143.082378 153.716198 143.306294 154.951867 143.530210 156.193255 143.754126 157.440293 143.978042 158.692914 144.201958 159.951050 144.425874 161.214634 144.649790 162.483598 144.873706 163.757873 145.097622 165.037393 145.321538 166.322090 145.545455 167.611896 145.769371 168.906743 145.993287 170.206563 146.217203 171.511289 146.441119 172.820852 146.665035 174.135187 146.888951 175.454223 147.112867 176.777894 147.336783 178.106133 147.560699 179.438871 147.784615 180.776040 148.008531 182.117573 148.232448 183.463402 148.456364 184.813460 148.680280 186.167678 148.904196 187.525989 149.128112 188.888326 149.352028 190.254620 149.575944 191.624803 149.799860 192.998809 150.023776 194.376569 150.247692 195.758015 150.471608 197.143081 150.695524 198.531697 150.919441 199.923797 151.143357 201.319312 151.367273 202.718175 151.591189 204.120319 151.815105 205.525674 152.039021 206.934175 152.262937 208.345752 152.486853 209.760339 152.710769 211.177867 152.934685 212.598269 153.158601 214.021477 153.382517 215.447424 153.606434 216.876041 153.830350 218.307260 154.054266 219.741015 154.278182 221.177238 154.502098 222.615860 154.726014 224.056813 154.949930 225.500032 155.173846 226.945446 155.397762 228.392989 155.621678 229.842594 155.845594 231.294191 156.069510 232.747714 156.293427 234.203095 156.517343 235.660266 156.741259 237.119160 156.965175 238.579708 157.189091 240.041843 157.413007 241.505497 157.636923 242.970602 157.860839 244.437092 158.084755 245.904897 158.308671 247.373950 158.532587 248.844184 158.756503 250.315531 158.980420 251.787923 159.204336 253.261292 159.428252 254.735570 159.652168 256.210691 159.876084 257.686586 160.100000 259.163187 160.323916 260.640426 160.547832 262.118237 160.771748 263.596551 160.995664 265.075300 161.219580 266.554417 161.443497 268.033834 161.667413 269.513484 161.891329 270.993298 162.115245 272.473208 162.339161 273.953148 162.563077 275.433049 162.786993 276.912844 163.010909 278.392465 163.234825 279.871844 163.458741 281.350913 163.682657 282.829605 163.906573 284.307852 164.130490 285.785586 164.354406 287.262740 164.578322 288.739246 164.802238 290.215035 165.026154 291.690041 165.250070 293.164196 165.473986 294.637431 165.697902 296.109680 165.921818 297.580874 166.145734 299.050945 166.369650 300.519827 166.593566 301.987450 166.817483 303.453749 167.041399 304.918654 167.265315 306.382098 167.489231 307.844013 167.713147 309.304332 167.937063 310.762986 168.160979 312.219909 168.384895 313.675032 168.608811 315.128288 168.832727 316.579608 169.056643 318.028926 169.280559 319.476174 169.504476 320.921282 169.728392 322.364185 169.952308 323.804815 170.176224 325.243102 170.400140 326.678981 170.624056 328.112382 170.847972 329.543239 171.071888 330.971484 171.295804 332.397048 171.519720 333.819864 171.743636 335.239865 171.967552 336.656983 172.191469 338.071149 172.415385 339.482297 172.639301 340.890358 172.863217 342.295265 173.087133 343.696950 173.311049 345.095345 173.534965 346.490383 173.758881 347.881996 173.982797 349.270115 174.206713 350.654674 174.430629 352.035605 174.654545 353.412840 174.878462 354.786311 175.102378 356.155950 175.326294 357.521690 175.550210 358.883463 175.774126 360.241201 175.998042 361.594837 176.221958 362.944302 176.445874 364.289530 176.669790 365.630452 176.893706 366.967000 177.117622 368.299108 177.341538 369.626706 177.565455 370.949728 177.789371 372.268106 178.013287 373.581771 178.237203 374.890657 178.461119 376.194695 178.685035 377.493818 178.908951 378.787958 179.132867 380.077048 179.356783 381.361018 179.580699 382.639803 179.804615 383.913334 180.028531 385.181543 180.252448 386.444363 180.476364 387.701733 180.700280 388.953625 180.924196 390.200016 181.148112 391.440886 181.372028 392.676212 181.595944 393.905972 181.819860 395.130146 182.043776 396.348711 182.267692 397.561646 182.491608 398.768929 182.715524 399.970539 182.939441 401.166453 183.163357 402.356651 183.387273 403.541111 183.611189 404.719811 183.835105 405.892729 184.059021 407.059844 184.282937 408.221135 184.506853 409.376578 184.730769 410.526154 184.954685 411.669840 185.178601 412.807615 185.402517 413.939456 185.626434 415.065343 185.850350 416.185254 186.074266 417.299167 186.298182 418.407060 186.522098 419.508912 186.746014 420.604702 186.969930 421.694407 187.193846 422.778006 187.417762 423.855477 187.641678 424.926799 187.865594 425.991950 188.089510 427.050908 188.313427 428.103652 188.537343 429.150161 188.761259 430.190412 188.985175 431.224384 189.209091 432.252055 189.433007 433.273404 189.656923 434.288408 189.880839 435.297048 190.104755 436.299299 190.328671 437.295142 190.552587 438.284555 190.776503 439.267515 191.000420 440.244002 191.224336 441.213993 191.448252 442.177467 191.672168 443.134403 191.896084 444.084778 192.120000 445.028571 192.343916 445.965760 192.567832 446.896325 192.791748 447.820242 193.015664 448.737491 193.239580 449.648050 193.463497 450.551898 193.687413 451.449012 193.911329 452.339370 194.135245 453.222953 194.359161 454.099737 194.583077 454.969701 194.806993 455.832823 195.030909 456.689083 195.254825 457.538458 195.478741 458.380926 195.702657 459.216466 195.926573 460.045057 196.150490 460.866676 196.374406 461.681302 196.598322 462.488914 196.822238 463.289489 197.046154 464.083007 197.270070 464.869445 197.493986 465.648782 197.717902 466.420996 197.941818 467.186066 198.165734 467.943970 198.389650 468.694686 198.613566 469.438194 198.837483 470.174470 199.061399 470.903493 199.285315 471.625243 199.509231 472.339697 199.733147 473.046833 199.957063 473.746630 200.180979 474.439067 200.404895 475.124121 200.628811 475.801771 200.852727 476.471996 201.076643 477.134773 201.300559 477.790082 201.524476 478.437900 201.748392 479.078206 201.972308 479.710978 202.196224 480.336195 202.420140 480.953835 202.644056 481.563877 202.867972 482.166298 203.091888 482.761077 203.315804 483.348192 203.539720 483.927623 203.763636 484.499346 203.987552 485.063342 204.211469 485.619587 204.435385 486.168060 204.659301 486.708741 204.883217 487.241606 205.107133 487.766634 205.331049 488.283805 205.554965 488.793095 205.778881 489.294485 206.002797 489.787951 206.226713 490.273472 206.450629 490.751027 206.674545 491.220594 206.898462 491.682151 207.122378 492.135677 207.346294 492.581150 207.570210 493.018548 207.794126 493.447851 208.018042 493.869035 208.241958 494.282080 208.465874 494.686965 208.689790 495.083666 208.913706 495.472163 209.137622 495.852434 209.361538 496.224458 209.585455 496.588212 209.809371 496.943675 210.033287 497.290826 210.257203 497.629643 210.481119 497.960104 210.705035 498.282188 210.928951 498.595873 211.152867 498.901137 211.376783 499.197959 211.600699 499.486317 211.824615 499.766189 212.048531 500.037554 212.272448 500.300391 212.496364 500.554677 212.720280 500.800391 212.944196 501.037511 213.168112 501.266016 213.392028 501.485884 213.615944 501.697093 213.839860 501.899622 214.063776 502.093450 214.287692 502.278553 214.511608 502.454912 214.735524 502.622504 214.959441 502.781308 215.183357 502.931301 215.407273 503.072463 215.631189 503.204772 215.855105 503.328205 216.079021 503.442742 216.302937 503.548361 216.526853 503.645041 216.750769 503.732758 216.974685 503.811493 217.198601 503.881223 217.422517 503.941927 217.646434 503.993583 217.870350 504.036169 218.094266 504.069664 218.318182 504.094046 218.542098 504.109293 218.766014 504.115385 218.989930 504.112298 219.213846 504.100013 219.437762 504.078506 219.661678 504.047757 219.885594 504.007743 220.109510 503.958443 220.333427 503.899836 220.557343 503.831900 220.781259 503.754613 221.005175 503.667953 221.229091 503.571900 221.453007 503.466431 221.676923 503.351524 221.900839 503.227158 222.124755 503.093312 222.348671 502.949964 222.572587 502.797091 222.796503 502.634674 223.020420 502.462689 223.244336 502.281115 223.468252 502.089931 223.692168 501.889115 223.916084 501.678645 224.140000 501.458501 224.363916 501.228659 224.587832 500.989098 224.811748 500.739798 225.035664 500.480735 225.259580 500.211889 225.483497 499.933238 225.707413 499.644761 225.931329 499.346435 226.155245 499.038239 226.379161 498.720151 226.603077 498.392151 226.826993 498.054215 227.050909 497.706323 227.274825 497.348453 227.498741 496.980583 227.722657 496.602691 227.946573 496.214757 228.170490 495.816758 228.394406 495.408672 228.618322 494.990479 228.842238 494.562156 229.066154 494.123682 229.290070 493.675035 229.513986 493.216194 229.737902 492.747137 229.961818 492.267842 230.185734 491.778287 230.409650 491.278452 230.633566 490.768314 230.857483 490.247852 231.081399 489.717044 231.305315 489.175868 231.529231 488.624304 231.753147 488.062328 231.977063 487.489920 232.200979 486.907058 232.424895 486.313721 232.648811 485.709886 232.872727 485.095532 233.096643 484.470638 233.320559 483.835182 233.544476 483.189141 233.768392 482.532496 233.992308 481.865223 234.216224 481.187301 234.440140 480.498709 234.664056 479.799425 234.887972 479.089428 235.111888 478.368695 235.335804 477.637206 235.559720 476.894938 235.783636 476.141870 236.007552 475.377980 236.231469 474.603246 236.455385 473.817665 236.679301 473.021301 236.903217 472.214236 237.127133 471.396552 237.351049 470.568332 237.574965 469.729656 237.798881 468.880608 238.022797 468.021269 238.246713 467.151721 238.470629 466.272047 238.694545 465.382329 238.918462 464.482648 239.142378 463.573086 239.366294 462.653726 239.590210 461.724650 239.814126 460.785939 240.038042 459.837677 240.261958 458.879944 240.485874 457.912823 240.709790 456.936396 240.933706 455.950745 241.157622 454.955951 241.381538 453.952098 241.605455 452.939267 241.829371 451.917541 242.053287 450.887000 242.277203 449.847728 242.501119 448.799806 242.725035 447.743316 242.948951 446.678341 243.172867 445.604963 243.396783 444.523263 243.620699 443.433323 243.844615 442.335226 244.068531 441.229054 244.292448 440.114888 244.516364 438.992812 244.740280 437.862906 244.964196 436.725253 245.188112 435.579935 245.412028 434.427034 245.635944 433.266631 245.859860 432.098810 246.083776 430.923653 246.307692 429.741240 246.531608 428.551654 246.755524 427.354978 246.979441 426.151293 247.203357 424.940682 247.427273 423.723226 247.651189 422.499007 247.875105 421.268108 248.099021 420.030610 248.322937 418.786597 248.546853 417.536148 248.770769 416.279348 248.994685 415.016277 249.218601 413.747018 249.442517 412.471653 249.666434 411.190264 249.890350 409.902933 250.114266 408.609742 250.338182 407.310773 250.562098 406.006108 250.786014 404.695830 251.009930 403.380019 251.233846 402.058759 251.457762 400.732131 251.681678 399.400218 251.905594 398.063101 252.129510 396.720862 252.353427 395.373585 252.577343 394.021349 252.801259 392.664238 253.025175 391.302334 253.249091 389.935719 253.473007 388.564474 253.696923 387.188683 253.920839 385.808426 254.144755 384.423786 254.368671 383.034845 254.592587 381.641685 254.816503 380.244388 255.040420 378.843036 255.264336 377.437712 255.488252 376.028496 255.712168 374.615472 255.936084 373.198722 256.160000 371.778326 256.383916 370.354369 256.607832 368.926930 256.831748 367.496093 257.055664 366.061940 257.279580 364.624552 257.503497 363.184012 257.727413 361.740402 257.951329 360.293804 258.175245 358.844299 258.399161 357.391971 258.623077 355.936900 258.846993 354.479169 259.070909 353.018860 259.294825 351.556055 259.518741 350.090837 259.742657 348.623287 259.966573 347.153486 260.190490 345.681519 260.414406 344.207465 260.638322 342.731408 260.862238 341.253429 261.086154 339.773611 261.310070 338.292035 261.533986 336.808784 261.757902 335.323940 261.981818 333.837584 262.205734 332.349799 262.429650 330.860667 262.653566 329.370269 262.877483 327.878689 263.101399 326.386007 263.325315 324.892307 263.549231 323.397669 263.773147 321.902177 263.997063 320.405911 264.220979 318.908955 264.444895 317.411390 264.668811 315.913299 264.892727 314.414763 265.116643 312.915864 265.340559 311.416684 265.564476 309.917306 265.788392 308.417812 266.012308 306.918283 266.236224 305.418802 266.460140 303.919450 266.684056 302.420310 266.907972 300.921464 267.131888 299.422994 267.355804 297.924982 267.579720 296.427510 267.803636 294.930659 268.027552 293.434513 268.251469 291.939153 268.475385 290.444661 268.699301 288.951119 268.923217 287.458609 269.147133 285.967214 269.371049 284.477015 269.594965 282.988094 269.818881 281.500534 270.042797 280.014417 270.266713 278.529823 270.490629 277.046837 270.714545 275.565539 270.938462 274.086012 271.162378 272.608337 271.386294 271.132598 271.610210 269.658875 271.834126 268.187251 272.058042 266.717808 272.281958 265.250628 272.505874 263.785793 272.729790 262.323385 272.953706 260.863486 273.177622 259.406179 273.401538 257.951544 273.625455 256.499665 273.849371 255.050624 274.073287 253.604501 274.297203 252.161380 274.521119 250.721343 274.745035 249.284471 274.968951 247.850847 275.192867 246.420553 275.416783 244.993670 275.640699 243.570281 275.864615 242.150467 276.088531 240.734312 276.312448 239.321896 276.536364 237.913302 276.760280 236.508613 276.984196 235.107909 277.208112 233.711274 277.432028 232.318788 277.655944 230.930535 277.879860 229.546596 278.103776 228.167053 278.327692 226.791989 278.551608 225.421485 278.775524 224.055624 278.999441 222.694487 279.223357 221.338156 279.447273 219.986715 279.671189 218.640243 279.895105 217.298825 280.119021 215.962541 280.342937 214.631474 280.566853 213.305706 280.790769 211.985319 281.014685 210.670395 281.238601 209.361016 281.462517 208.057263 281.686434 206.759220 281.910350 205.466968 282.134266 204.180589 282.358182 202.900166 282.582098 201.625780 282.806014 200.357513 283.029930 199.095447 283.253846 197.839665 283.477762 196.590249 283.701678 195.347280 283.925594 194.110840 284.149510 192.881013 284.373427 191.657879 284.597343 190.441520 284.821259 189.232020 285.045175 188.029459 285.269091 186.833921 285.493007 185.645486 285.716923 184.464237 285.940839 183.290256 286.164755 182.123626 286.388671 180.964427 286.612587 179.812743 286.836503 178.668655 287.060420 177.532245 287.284336 176.403596 287.508252 175.282789 287.732168 174.169906 287.956084 173.065030 288.180000 171.968243 288.403916 170.879626 288.627832 169.799261 288.851748 168.727232 289.075664 167.663619 289.299580 166.608505 289.523497 165.561972 289.747413 164.524102 289.971329 163.494976 290.195245 162.474678 290.419161 161.463289 290.643077 160.460891 290.866993 159.467566 291.090909 158.483396 291.314825 157.508463 291.538741 156.542850 291.762657 155.586638 291.986573 154.639910 292.210490 153.702747 292.434406 152.775210 292.658322 151.857275 292.882238 150.948897 293.106154 150.050030 293.330070 149.160629 293.553986 148.280648 293.777902 147.410042 294.001818 146.548765 294.225734 145.696772 294.449650 144.854017 294.673566 144.020455 294.897483 143.196041 295.121399 142.380729 295.345315 141.574474 295.569231 140.777229 295.793147 139.988951 296.017063 139.209592 296.240979 138.439109 296.464895 137.677455 296.688811 136.924584 296.912727 136.180452 297.136643 135.445013 297.360559 134.718222 297.584476 134.000033 297.808392 133.290400 298.032308 132.589278 298.256224 131.896623 298.480140 131.212387 298.704056 130.536526 298.927972 129.868995 299.151888 129.209747 299.375804 128.558738 299.599720 127.915922 299.823636 127.281254 300.047552 126.654687 300.271469 126.036178 300.495385 125.425679 300.719301 124.823146 300.943217 124.228533 301.167133 123.641796 301.391049 123.062887 301.614965 122.491763 301.838881 121.928377 302.062797 121.372684 302.286713 120.824638 302.510629 120.284195 302.734545 119.751308 302.958462 119.225932 303.182378 118.708023 303.406294 118.197533 303.630210 117.694418 303.854126 117.198633 304.078042 116.710132 304.301958 116.228869 304.525874 115.754799 304.749790 115.287877 304.973706 114.828056 305.197622 114.375293 305.421538 113.929540 305.645455 113.490754 305.869371 113.058888 306.093287 112.633896 306.317203 112.215734 306.541119 111.804356 306.765035 111.399716 306.988951 111.001770 307.212867 110.610471 307.436783 110.225774 307.660699 109.847634 307.884615 109.476005 308.108531 109.110841 308.332448 108.752098 308.556364 108.399730 308.780280 108.053692 309.004196 107.713937 309.228112 107.380421 309.452028 107.053098 309.675944 106.731922 309.899860 106.416849 310.123776 106.107832 310.347692 105.804826 310.571608 105.507787 310.795524 105.216667 311.019441 104.931423 311.243357 104.652008 311.467273 104.378376 311.691189 104.110484 311.915105 103.848284 312.139021 103.591732 312.362937 103.340782 312.586853 103.095389 312.810769 102.855507 313.034685 102.621091 313.258601 102.392095 313.482517 102.168475 313.706434 101.950183 313.930350 101.737176 314.154266 101.529407 314.378182 101.326831 314.602098 101.129403 314.826014 100.937076 315.049930 100.749807 315.273846 100.567549 315.497762 100.390257 315.721678 100.217885 315.945594 100.050388 316.169510 99.887720 316.393427 99.729836 316.617343 99.576691 316.841259 99.428239 317.065175 99.284435 317.289091 99.145232 317.513007 99.010587 317.736923 98.880453 317.960839 98.754784 318.184755 98.633536 318.408671 98.516663 318.632587 98.404119 318.856503 98.295860 319.080420 98.191839 319.304336 98.092011 319.528252 97.996330 319.752168 97.904752 319.976084 97.817231 320.200000 97.733720 320.423916 97.654176 320.647832 97.578552 320.871748 97.506803 321.095664 97.438883 321.319580 97.374748 321.543497 97.314351 321.767413 97.257647 321.991329 97.204591 322.215245 97.155137 322.439161 97.109239 322.663077 97.066853 322.886993 97.027933 323.110909 96.992433 323.334825 96.960308 323.558741 96.931513 323.782657 96.906002 324.006573 96.883729 324.230490 96.864649 324.454406 96.848717 324.678322 96.835888 324.902238 96.826115 325.126154 96.819353 325.350070 96.815557 325.573986 96.814682 325.797902 96.816681 326.021818 96.821510 326.245734 96.829123 326.469650 96.839475 326.693566 96.852520 326.917483 96.868212 327.141399 96.886507 327.365315 96.907358 327.589231 96.930721 327.813147 96.956550 328.037063 96.984799 328.260979 97.015423 328.484895 97.048376 328.708811 97.083614 328.932727 97.121090 329.156643 97.160759 329.380559 97.202576 329.604476 97.246496 329.828392 97.292472 330.052308 97.340459 330.276224 97.390412 330.500140 97.442286 330.724056 97.496035 330.947972 97.551613 331.171888 97.608975 331.395804 97.668076 331.619720 97.728870 331.843636 97.791312 332.067552 97.855356 332.291469 97.920956 332.515385 97.988068 332.739301 98.056646 332.963217 98.126645 333.187133 98.198018 333.411049 98.270721 333.634965 98.344708 333.858881 98.419934 334.082797 98.496353 334.306713 98.573919 334.530629 98.652588 334.754545 98.732314 334.978462 98.813051 335.202378 98.894754 335.426294 98.977377 335.650210 99.060875 335.874126 99.145203 336.098042 99.230315 336.321958 99.316166 336.545874 99.402710 336.769790 99.489901 336.993706 99.577695 337.217622 99.666046 337.441538 99.754908 337.665455 99.844236 337.889371 99.933984 338.113287 100.024107 338.337203 100.114560 338.561119 100.205297 338.785035 100.296273 339.008951 100.387442 339.232867 100.478759 339.456783 100.570178 339.680699 100.661653 339.904615 100.753141 340.128531 100.844594 340.352448 100.935967 340.576364 101.027216 340.800280 101.118294 341.024196 101.209156 341.248112 101.299757 341.472028 101.390051 341.695944 101.479993 341.919860 101.569538 342.143776 101.658639 342.367692 101.747251 342.591608 101.835330 342.815524 101.922828 343.039441 102.009702 343.263357 102.095906 343.487273 102.181394 343.711189 102.266120 343.935105 102.350039 344.159021 102.433107 344.382937 102.515276 344.606853 102.596503 344.830769 102.676741 345.054685 102.755945 345.278601 102.834069 345.502517 102.911068 345.726434 102.986897 345.950350 103.061510 346.174266 103.134862 346.398182 103.206907 346.622098 103.277600 346.846014 103.346895 347.069930 103.414747 347.293846 103.481111 347.517762 103.545940 347.741678 103.609190 347.965594 103.670815 348.189510 103.730770 348.413427 103.789019 348.637343 103.845568 348.861259 103.900434 349.085175 103.953632 349.309091 104.005178 349.533007 104.055089 349.756923 104.103380 349.980839 104.150067 350.204755 104.195168 350.428671 104.238697 350.652587 104.280670 350.876503 104.321105 351.100420 104.360016 351.324336 104.397420 351.548252 104.433333 351.772168 104.467772 351.996084 104.500751 352.220000 104.532287 352.443916 104.562397 352.667832 104.591095 352.891748 104.618399 353.115664 104.644324 353.339580 104.668887 353.563497 104.692103 353.787413 104.713989 354.011329 104.734560 354.235245 104.753833 354.459161 104.771824 354.683077 104.788548 354.906993 104.804022 355.130909 104.818262 355.354825 104.831284 355.578741 104.843103 355.802657 104.853737 356.026573 104.863201 356.250490 104.871511 356.474406 104.878683 356.698322 104.884733 356.922238 104.889678 357.146154 104.893533 357.370070 104.896315 357.593986 104.898039 357.817902 104.898721 358.041818 104.898378 358.265734 104.897026 358.489650 104.894680 358.713566 104.891357 358.937483 104.887073 359.161399 104.881844 359.385315 104.875685 359.609231 104.868614 359.833147 104.860646 360.057063 104.851796 360.280979 104.842082 360.504895 104.831519 360.728811 104.820124 360.952727 104.807911 361.176643 104.794898 361.400559 104.781101 361.624476 104.766535 361.848392 104.751216 362.072308 104.735161 362.296224 104.718386 362.520140 104.700906 362.744056 104.682739 362.967972 104.663899 363.191888 104.644402 363.415804 104.624266 363.639720 104.603506 363.863636 104.582138 364.087552 104.560178 364.311469 104.537642 364.535385 104.514546 364.759301 104.490907 364.983217 104.466740 365.207133 104.442061 365.431049 104.416887 365.654965 104.391233 365.878881 104.365116 366.102797 104.338551 366.326713 104.311555 366.550629 104.284144 366.774545 104.256333 366.998462 104.228140 367.222378 104.199579 367.446294 104.170667 367.670210 104.141420 367.894126 104.111854 368.118042 104.081986 368.341958 104.051830 368.565874 104.021404 368.789790 103.990723 369.013706 103.959804 369.237622 103.928661 369.461538 103.897313 369.685455 103.865773 369.909371 103.834060 370.133287 103.802187 370.357203 103.770173 370.581119 103.738032 370.805035 103.705782 371.028951 103.673437 371.252867 103.641013 371.476783 103.608528 371.700699 103.575997 371.924615 103.543436 372.148531 103.510861 372.372448 103.478288 372.596364 103.445734 372.820280 103.413214 373.044196 103.380744 373.268112 103.348340 373.492028 103.316019 373.715944 103.283797 373.939860 103.251689 374.163776 103.219712 374.387692 103.187881 374.611608 103.156213 374.835524 103.124724 375.059441 103.093430 375.283357 103.062347 375.507273 103.031491 375.731189 103.000878 375.955105 102.970523 376.179021 102.940444 376.402937 102.910657 376.626853 102.881176 376.850769 102.852019 377.074685 102.823201 377.298601 102.794739 377.522517 102.766648 377.746434 102.738944 377.970350 102.711644 378.194266 102.684764 378.418182 102.658320 378.642098 102.632327 378.866014 102.606802 379.089930 102.581761 379.313846 102.557220 379.537762 102.533195 379.761678 102.509702 379.985594 102.486757 380.209510 102.464376 380.433427 102.442576 380.657343 102.421371 380.881259 102.400779 381.105175 102.380816 381.329091 102.361497 381.553007 102.342838 381.776923 102.324856 382.000839 102.307567 382.224755 102.290986 382.448671 102.275130 382.672587 102.260014 382.896503 102.245656 383.120420 102.232070 383.344336 102.219274 383.568252 102.207282 383.792168 102.196111 384.016084 102.185778 384.240000 102.176298 384.463916 102.167686 384.687832 102.159961 384.911748 102.153136 385.135664 102.147229 385.359580 102.142256 385.583497 102.138232 385.807413 102.135173 386.031329 102.133096 386.255245 102.132017 386.479161 102.131951 386.703077 102.132916 386.926993 102.134926 387.150909 102.137998 387.374825 102.142148 387.598741 102.147392 387.822657 102.153746 388.046573 102.161226 388.270490 102.169849 388.494406 102.179629 388.718322 102.190584 388.942238 102.202730 389.166154 102.216082 389.390070 102.230656 389.613986 102.246468 389.837902 102.263536 390.061818 102.281874 390.285734 102.301498 390.509650 102.322426 390.733566 102.344672 390.957483 102.368253 391.181399 102.393185 391.405315 102.419484 391.629231 102.447166 391.853147 102.476247 392.077063 102.506743 392.300979 102.538671 392.524895 102.572045 392.748811 102.606883 392.972727 102.643201 393.196643 102.681014 393.420559 102.720338 393.644476 102.761190 393.868392 102.803585 394.092308 102.847540 394.316224 102.893071 394.540140 102.940193 394.764056 102.988924 394.987972 103.039278 395.211888 103.091272 395.435804 103.144922 395.659720 103.200245 395.883636 103.257255 396.107552 103.315969 396.331469 103.376404 396.555385 103.438575 396.779301 103.502498 397.003217 103.568190 397.227133 103.635666 397.451049 103.704943 397.674965 103.776036 397.898881 103.848962 398.122797 103.923736 398.346713 104.000375 398.570629 104.078895 398.794545 104.159312 399.018462 104.241641 399.242378 104.325900 399.466294 104.412104 399.690210 104.500268 399.914126 104.590410 400.138042 104.682545 400.361958 104.776689 400.585874 104.872859 400.809790 104.971070 401.033706 105.071338 401.257622 105.173679 401.481538 105.278111 401.705455 105.384647 401.929371 105.493306 402.153287 105.604102 402.377203 105.717052 402.601119 105.832171 402.825035 105.949477 403.048951 106.068984 403.272867 106.190709 403.496783 106.314669 403.720699 106.440878 403.944615 106.569354 404.168531 106.700111 404.392448 106.833159 404.616364 106.968474 404.840280 107.106025 405.064196 107.245779 405.288112 107.387706 405.512028 107.531774 405.735944 107.677953 405.959860 107.826209 406.183776 107.976513 406.407692 108.128832 406.631608 108.283136 406.855524 108.439392 407.079441 108.597570 407.303357 108.757639 407.527273 108.919565 407.751189 109.083319 407.975105 109.248869 408.199021 109.416184 408.422937 109.585231 408.646853 109.755980 408.870769 109.928400 409.094685 110.102458 409.318601 110.278124 409.542517 110.455366 409.766434 110.634153 409.990350 110.814453 410.214266 110.996235 410.438182 111.179467 410.662098 111.364119 410.886014 111.550158 411.109930 111.737554 411.333846 111.926274 411.557762 112.116288 411.781678 112.307565 412.005594 112.500072 412.229510 112.693778 412.453427 112.888652 412.677343 113.084663 412.901259 113.281779 413.125175 113.479968 413.349091 113.679200 413.573007 113.879443 413.796923 114.080666 414.020839 114.282837 414.244755 114.485924 414.468671 114.689897 414.692587 114.894724 414.916503 115.100373 415.140420 115.306814 415.364336 115.514014 415.588252 115.721942 415.812168 115.930568 416.036084 116.139859 416.260000 116.349785 416.483916 116.560313 416.707832 116.771413 416.931748 116.983052 417.155664 117.195200 417.379580 117.407826 417.603497 117.620897 417.827413 117.834383 418.051329 118.048251 418.275245 118.262471 418.499161 118.477012 418.723077 118.691841 418.946993 118.906928 419.170909 119.122240 419.394825 119.337748 419.618741 119.553418 419.842657 119.769220 420.066573 119.985123 420.290490 120.201095 420.514406 120.417104 420.738322 120.633120 420.962238 120.849111 421.186154 121.065045 421.410070 121.280891 421.633986 121.496617 421.857902 121.712193 422.081818 121.927587 422.305734 122.142767 422.529650 122.357703 422.753566 122.572362 422.977483 122.786713 423.201399 123.000725 423.425315 123.214366 423.649231 123.427606 423.873147 123.640412 424.097063 123.852754 424.320979 124.064599 424.544895 124.275917 424.768811 124.486676 424.992727 124.696845 425.216643 124.906392 425.440559 125.115286 425.664476 125.323496 425.888392 125.530989 426.112308 125.737735 426.336224 125.943703 426.560140 126.148860 426.784056 126.353176 427.007972 126.556619 427.231888 126.759158 427.455804 126.960761 427.679720 127.161397 427.903636 127.361035 428.127552 127.559642 428.351469 127.757189 428.575385 127.953642 428.799301 128.148972 429.023217 128.343146 429.247133 128.536134 429.471049 128.727903 429.694965 128.918422 429.918881 129.107661 430.142797 129.295586 430.366713 129.482169 430.590629 129.667375 430.814545 129.851176 431.038462 130.033538 431.262378 130.214430 431.486294 130.393822 431.710210 130.571682 431.934126 130.747978 432.158042 130.922679 432.381958 131.095754 432.605874 131.267170 432.829790 131.436898 433.053706 131.604905 433.277622 131.771160 433.501538 131.935631 433.725455 132.098288 433.949371 132.259099 434.173287 132.418031 434.397203 132.575055 434.621119 132.730139 434.845035 132.883251 435.068951 133.034359 435.292867 133.183433 435.516783 133.330441 435.740699 133.475352 435.964615 133.618133 436.188531 133.758755 436.412448 133.897185 436.636364 134.033392 436.860280 134.167345 437.084196 134.299012 437.308112 134.428362 437.532028 134.555363 437.755944 134.679984 437.979860 134.802194 438.203776 134.921961 438.427692 135.039254 438.651608 135.154041 438.875524 135.266292 439.099441 135.375974 439.323357 135.483057 439.547273 135.587508 439.771189 135.689297 439.995105 135.788391 440.219021 135.884761 440.442937 135.978374 440.666853 136.069198 440.890769 136.157203 441.114685 136.242358 441.338601 136.324629 441.562517 136.403988 441.786434 136.480401 442.010350 136.553837 442.234266 136.624266 442.458182 136.691655 442.682098 136.755974 442.906014 136.817190 443.129930 136.875273 443.353846 136.930192 443.577762 136.981913 443.801678 137.030408 444.025594 137.075643 444.249510 137.117587 444.473427 137.156210 444.697343 137.191480 444.921259 137.223364 445.145175 137.251833 445.369091 137.276854 445.593007 137.298397 445.816923 137.316429 446.040839 137.330919 446.264755 137.341837 446.488671 137.349150 446.712587 137.352827 446.936503 137.352837 447.160420 137.349148 447.384336 137.341729 447.608252 137.330549 447.832168 137.315576 448.056084 137.296778 448.280000 137.274125 448.503916 137.247585 448.727832 137.217127 448.951748 137.182719 449.175664 137.144329 449.399580 137.101927 449.623497 137.055481 449.847413 137.004959 450.071329 136.950331 450.295245 136.891564 450.519161 136.828628 450.743077 136.761491 450.966993 136.690121 451.190909 136.614488 451.414825 136.534560 451.638741 136.450304 451.862657 136.361691 452.086573 136.268689 452.310490 136.171265 452.534406 136.069390 452.758322 135.963031 452.982238 135.852157 453.206154 135.736736 453.430070 135.616738 453.653986 135.492131 453.877902 135.362883 454.101818 135.228963 454.325734 135.090340 454.549650 134.946982 454.773566 134.798857 454.997483 134.645936 455.221399 134.488185 455.445315 134.325574 455.669231 134.158071 455.893147 133.985645 456.117063 133.808265 456.340979 133.625898 456.564895 133.438515 456.788811 133.246082 457.012727 133.048570 457.236643 132.845945 457.460559 132.638178 457.684476 132.425237 457.908392 132.207090 458.132308 131.983706 458.356224 131.755053 458.580140 131.521101 458.804056 131.281817 459.027972 131.037170 459.251888 130.787129 459.475804 130.531663 459.699720 130.270740 459.923636 130.004328 460.147552 129.732397 460.371469 129.454928 460.595385 129.171956 460.819301 128.883528 461.043217 128.589693 461.267133 128.290499 461.491049 127.985992 461.714965 127.676221 461.938881 127.361234 462.162797 127.041079 462.386713 126.715804 462.610629 126.385456 462.834545 126.050083 463.058462 125.709734 463.282378 125.364455 463.506294 125.014295 463.730210 124.659302 463.954126 124.299524 464.178042 123.935008 464.401958 123.565802 464.625874 123.191954 464.849790 122.813513 465.073706 122.430525 465.297622 122.043039 465.521538 121.651102 465.745455 121.254762 465.969371 120.854068 466.193287 120.449067 466.417203 120.039807 466.641119 119.626336 466.865035 119.208701 467.088951 118.786951 467.312867 118.361133 467.536783 117.931295 467.760699 117.497486 467.984615 117.059752 468.208531 116.618142 468.432448 116.172703 468.656364 115.723484 468.880280 115.270533 469.104196 114.813896 469.328112 114.353623 469.552028 113.889760 469.775944 113.422356 469.999860 112.951459 470.223776 112.477116 470.447692 111.999376 470.671608 111.518285 470.895524 111.033893 471.119441 110.546246 471.343357 110.055393 471.567273 109.561382 471.791189 109.064260 472.015105 108.564075 472.239021 108.060875 472.462937 107.554708 472.686853 107.045622 472.910769 106.533665 473.134685 106.018884 473.358601 105.501328 473.582517 104.981044 473.806434 104.458080 474.030350 103.932483 474.254266 103.404303 474.478182 102.873586 474.702098 102.340381 474.926014 101.804735 475.149930 101.266696 475.373846 100.726312 475.597762 100.183631 475.821678 99.638701 476.045594 99.091569 476.269510 98.542284 476.493427 97.990893 476.717343 97.437444 476.941259 96.881986 477.165175 96.324565 477.389091 95.765229 477.613007 95.204028 477.836923 94.641008 478.060839 94.076217 478.284755 93.509703 478.508671 92.941514 478.732587 92.371698 478.956503 91.800303 479.180420 91.227376 479.404336 90.652965 479.628252 90.077119 479.852168 89.499885 480.076084 88.921311 480.300000 88.341444 480.523916 87.760333 480.747832 87.178026 480.971748 86.594570 481.195664 86.010014 481.419580 85.424404 481.643497 84.837789 481.867413 84.250217 482.091329 83.661736 482.315245 83.072393 482.539161 82.482236 482.763077 81.891313 482.986993 81.299673 483.210909 80.707362 483.434825 80.114430 483.658741 79.520922 483.882657 78.926888 484.106573 78.332376 484.330490 77.737432 484.554406 77.142106 484.778322 76.546444 485.002238 75.950495 485.226154 75.354307 485.450070 74.757927 485.673986 74.161403 485.897902 73.564784 486.121818 72.968116 486.345734 72.371448 486.569650 71.774828 486.793566 71.178303 487.017483 70.581922 487.241399 69.985732 487.465315 69.389781 487.689231 68.794117 487.913147 68.198787 488.137063 67.603840 488.360979 67.009324 488.584895 66.415286 488.808811 65.821775 489.032727 65.228837 489.256643 64.636521 489.480559 64.044875 489.704476 63.453947 489.928392 62.863784 490.152308 62.274434 490.376224 61.685945 490.600140 61.098366 490.824056 60.511743 491.047972 59.926125 491.271888 59.341560 491.495804 58.758095 491.719720 58.175778 491.943636 57.594657 492.167552 57.014781 492.391469 56.436196 492.615385 55.858951 492.839301 55.283093 493.063217 54.708671 493.287133 54.135732 493.511049 53.564324 493.734965 52.994495 493.958881 52.426293 494.182797 51.859766 494.406713 51.294961 494.630629 50.731926 494.854545 50.170710 495.078462 49.611359 495.302378 49.053923 495.526294 48.498448 495.750210 47.944983 495.974126 47.393575 496.198042 46.844273 496.421958 46.297124 496.645874 45.752176 496.869790 45.209476 497.093706 44.669074 497.317622 44.131016 497.541538 43.595351 497.765455 43.062125 497.989371 42.531388 498.213287 42.003187 498.437203 41.477570 498.661119 40.954584 498.885035 40.434278 499.108951 39.916700 499.332867 39.401897 499.556783 38.889916 499.780699 38.380807 500.004615 37.874617 500.228531 37.371393 500.452448 36.871184 500.676364 36.374037 500.900280 35.880000 501.124196 35.389122 501.348112 34.901449 501.572028 34.417030 501.795944 33.935913 502.019860 33.458145 502.243776 32.983775 502.467692 32.512849 502.691608 32.045417 502.915524 31.581526 503.139441 31.121224 503.363357 30.664558 503.587273 30.211576 503.811189 29.762327 504.035105 29.316858 504.259021 28.875217 504.482937 28.437452 504.706853 28.003610 504.930769 27.573741 505.154685 27.147890 505.378601 26.726107 505.602517 26.308439 505.826434 25.894934 506.050350 25.485640 506.274266 25.080604 506.498182 24.679875 506.722098 24.283501 506.946014 23.891528 507.169930 23.504006 507.393846 23.120982 507.617762 22.742503 507.841678 22.368618 508.065594 21.999375 508.289510 21.634821 508.513427 21.275004 508.737343 20.919973 508.961259 20.569774 509.185175 20.224456 509.409091 19.884066 509.633007 19.548653 509.856923 19.218265 510.080839 18.892948 510.304755 18.572752 510.528671 18.257723 510.752587 17.947911 510.976503 17.643361 511.200420 17.344124 511.424336 17.050245 511.648252 16.761774 511.872168 16.478758 512.096084 16.201244 512.320000 15.929281 512.543916 15.662917 512.767832 15.402199 512.991748 15.147176 513.215664 14.897894 513.439580 14.654403 513.663497 14.416749 513.887413 14.184981 514.111329 13.959147 514.335245 13.739294 514.559161 13.525470 514.783077 13.317723 515.006993 13.116101 515.230909 12.920652 515.454825 12.731424 515.678741 12.548464 515.902657 12.371821 516.126573 12.201541 516.350490 12.037659 516.574406 11.880148 516.798322 11.728966 517.022238 11.584072 517.246154 11.445425 517.470070 11.312984 517.693986 11.186707 517.917902 11.066553 518.141818 10.952481 518.365734 10.844449 518.589650 10.742416 518.813566 10.646342 519.037483 10.556184 519.261399 10.471901 519.485315 10.393452 519.709231 10.320796 519.933147 10.253891 520.157063 10.192696 520.380979 10.137171 520.604895 10.087272 520.828811 10.042960 521.052727 10.004193 521.276643 9.970930 521.500559 9.943129 521.724476 9.920749 521.948392 9.903749 522.172308 9.892088 522.396224 9.885724 522.620140 9.884615 522.844056 9.888722 523.067972 9.898001 523.291888 9.912413 523.515804 9.931916 523.739720 9.956468 523.963636 9.986028 524.187552 10.020555 524.411469 10.060008 524.635385 10.104345 524.859301 10.153526 525.083217 10.207508 525.307133 10.266250 525.531049 10.329712 525.754965 10.397851 525.978881 10.470627 526.202797 10.547999 526.426713 10.629924 526.650629 10.716362 526.874545 10.807272 527.098462 10.902612 527.322378 11.002340 527.546294 11.106417 527.770210 11.214799 527.994126 11.327447 528.218042 11.444318 528.441958 11.565372 528.665874 11.690566 528.889790 11.819861 529.113706 11.953214 529.337622 12.090584 529.561538 12.231931 529.785455 12.377212 530.009371 12.526386 530.233287 12.679413 530.457203 12.836250 530.681119 12.996857 530.905035 13.161192 531.128951 13.329214 531.352867 13.500882 531.576783 13.676154 531.800699 13.854989 532.024615 14.037346 532.248531 14.223184 532.472448 14.412460 532.696364 14.605135 532.920280 14.801166 533.144196 15.000512 533.368112 15.203133 533.592028 15.408986 533.815944 15.618031 534.039860 15.830226 534.263776 16.045530 534.487692 16.263901 534.711608 16.485299 534.935524 16.709682 535.159441 16.937008 535.383357 17.167237 535.607273 17.400328 535.831189 17.636238 536.055105 17.874926 536.279021 18.116352 536.502937 18.360474 536.726853 18.607250 536.950769 18.856640 537.174685 19.108602 537.398601 19.363095 537.622517 19.620078 537.846434 19.879508 538.070350 20.141346 538.294266 20.405550 538.518182 20.672077 538.742098 20.940888 538.966014 21.211941 539.189930 21.485194 539.413846 21.760607 539.637762 22.038137 539.861678 22.317744 540.085594 22.599386 540.309510 22.883023 540.533427 23.168612 540.757343 23.456113 540.981259 23.745484 541.205175 24.036684 541.429091 24.329671 541.653007 24.624405 541.876923 24.920844 542.100839 25.218946 542.324755 25.518672 542.548671 25.819978 542.772587 26.122824 542.996503 26.427169 543.220420 26.732971 543.444336 27.040189 543.668252 27.348782 543.892168 27.658708 544.116084 27.969926 544.340000 28.282396 544.563916 28.596075 544.787832 28.910922 545.011748 29.226896 545.235664 29.543956 545.459580 29.862060 545.683497 30.181167 545.907413 30.501237 546.131329 30.822226 546.355245 31.144095 546.579161 31.466802 546.803077 31.790306 547.026993 32.114565 547.250909 32.439538 547.474825 32.765184 547.698741 33.091462 547.922657 33.418329 548.146573 33.745746 548.370490 34.073670 548.594406 34.402061 548.818322 34.730877 549.042238 35.060076 549.266154 35.389618 549.490070 35.719462 549.713986 36.049565 549.937902 36.379887 550.161818 36.710386 550.385734 37.041021 550.609650 37.371751 550.833566 37.702534 551.057483 38.033330 551.281399 38.364096 551.505315 38.694792 551.729231 39.025376 551.953147 39.355808 552.177063 39.686045 552.400979 40.016047 552.624895 40.345771 552.848811 40.675178 553.072727 41.004225 553.296643 41.332871 553.520559 41.661076 553.744476 41.988797 553.968392 42.315993 554.192308 42.642624 554.416224 42.968647 554.640140 43.294023 554.864056 43.618708 555.087972 43.942662 555.311888 44.265844 555.535804 44.588212 555.759720 44.909726 555.983636 45.230343 556.207552 45.550023 556.431469 45.868724 556.655385 46.186405 556.879301 46.503024 557.103217 46.818541 557.327133 47.132914 557.551049 47.446102 557.774965 47.758063 557.998881 48.068757 558.222797 48.378141 558.446713 48.686175 558.670629 48.992817 558.894545 49.298027 559.118462 49.601762 559.342378 49.903982 559.566294 50.204644 559.790210 50.503709 560.014126 50.801134 560.238042 51.096879 560.461958 51.390902 560.685874 51.683161 560.909790 51.973616 561.133706 52.262225 561.357622 52.548946 561.581538 52.833740 561.805455 53.116563 562.029371 53.397376 562.253287 53.676136 562.477203 53.952803 562.701119 54.227335 562.925035 54.499691 563.148951 54.769829 563.372867 55.037708 563.596783 55.303288 563.820699 55.566526 564.044615 55.827382 564.268531 56.085813 564.492448 56.341780 564.716364 56.595240 564.940280 56.846152 565.164196 57.094475 565.388112 57.340168 565.612028 57.583189 565.835944 57.823497 566.059860 58.061051 566.283776 58.295810 566.507692 58.527731 566.731608 58.756775 566.955524 58.982899 567.179441 59.206063 567.403357 59.426224 567.627273 59.643343 567.851189 59.857377 568.075105 60.068285 568.299021 60.276026 568.522937 60.480558 568.746853 60.681841 568.970769 60.879833 569.194685 61.074492 569.418601 61.265778 569.642517 61.453649 569.866434 61.638064 570.090350 61.818982 570.314266 61.996361 570.538182 62.170160 570.762098 62.340337 570.986014 62.506852 571.209930 62.669663 571.433846 62.828729 571.657762 62.984008 571.881678 63.135460 572.105594 63.283043 572.329510 63.426725 572.553427 63.566512 572.777343 63.702420 573.001259 63.834465 573.225175 63.962662 573.449091 64.087026 573.673007 64.207575 573.896923 64.324322 574.120839 64.437285 574.344755 64.546477 574.568671 64.651916 574.792587 64.753617 575.016503 64.851595 575.240420 64.945866 575.464336 65.036445 575.688252 65.123349 575.912168 65.206593 576.136084 65.286193 576.360000 65.362163 576.583916 65.434521 576.807832 65.503281 577.031748 65.568459 577.255664 65.630071 577.479580 65.688132 577.703497 65.742659 577.927413 65.793666 578.151329 65.841169 578.375245 65.885185 578.599161 65.925728 578.823077 65.962815 579.046993 65.996460 579.270909 66.026680 579.494825 66.053490 579.718741 66.076906 579.942657 66.096943 580.166573 66.113618 580.390490 66.126945 580.614406 66.136940 580.838322 66.143620 581.062238 66.147000 581.286154 66.147094 581.510070 66.143920 581.733986 66.137492 581.957902 66.127827 582.181818 66.114939 582.405734 66.098845 582.629650 66.079560 582.853566 66.057100 583.077483 66.031481 583.301399 66.002717 583.525315 65.970826 583.749231 65.935821 583.973147 65.897720 584.197063 65.856537 584.420979 65.812289 584.644895 65.764991 584.868811 65.714658 585.092727 65.661306 585.316643 65.604952 585.540559 65.545609 585.764476 65.483295 585.988392 65.418025 586.212308 65.349814 586.436224 65.278678 586.660140 65.204633 586.884056 65.127695 587.107972 65.047878 587.331888 64.965199 587.555804 64.879673 587.779720 64.791317 588.003636 64.700144 588.227552 64.606172 588.451469 64.509416 588.675385 64.409891 588.899301 64.307614 589.123217 64.202599 589.347133 64.094863 589.571049 63.984420 589.794965 63.871288 590.018881 63.755480 590.242797 63.637014 590.466713 63.515904 590.690629 63.392167 590.914545 63.265818 591.138462 63.136872 591.362378 63.005345 591.586294 62.871253 591.810210 62.734611 592.034126 62.595436 592.258042 62.453742 592.481958 62.309546 592.705874 62.162863 592.929790 62.013708 593.153706 61.862098 593.377622 61.708048 593.601538 61.551573 593.825455 61.392690 594.049371 61.231413 594.273287 61.067759 594.497203 60.901743 594.721119 60.733381 594.945035 60.562689 595.168951 60.389681 595.392867 60.214374 595.616783 60.036784 595.840699 59.856926 596.064615 59.674815 596.288531 59.490467 596.512448 59.303899 596.736364 59.115125 596.960280 58.924161 597.184196 58.731023 597.408112 58.535727 597.632028 58.338288 597.855944 58.138721 598.079860 57.937043 598.303776 57.733269 598.527692 57.527415 598.751608 57.319496 598.975524 57.109528 599.199441 56.897527 599.423357 56.683508 599.647273 56.467487 599.871189 56.249480 600.095105 56.029501 600.319021 55.807568 600.542937 55.583695 600.766853 55.357898 600.990769 55.130193 601.214685 54.900595 601.438601 54.669120 601.662517 54.435784 601.886434 54.200603 602.110350 53.963591 602.334266 53.724765 602.558182 53.484140 602.782098 53.241732 603.006014 52.997557 603.229930 52.751630 603.453846 52.503966 603.677762 52.254582 603.901678 52.003493 604.125594 51.750715 604.349510 51.496263 604.573427 51.240154 604.797343 50.982402 605.021259 50.723023 605.245175 50.462033 605.469091 50.199448 605.693007 49.935283 605.916923 49.669554 606.140839 49.402276 606.364755 49.133466 606.588671 48.863138 606.812587 48.591309 607.036503 48.317994 607.260420 48.043208 607.484336 47.766968 607.708252 47.489289 607.932168 47.210187 608.156084 46.929677 608.380000 46.647774 608.603916 46.364496 608.827832 46.079856 609.051748 45.793872 609.275664 45.506557 609.499580 45.217930 609.723497 44.928003 609.947413 44.636795 610.171329 44.344319 610.395245 44.050592 610.619161 43.755629 610.843077 43.459446 611.066993 43.162059 611.290909 42.863483 611.514825 42.563734 611.738741 42.262828 611.962657 41.960780 612.186573 41.657605 612.410490 41.353321 612.634406 41.047941 612.858322 40.741482 613.082238 40.433959 613.306154 40.125388 613.530070 39.815785 613.753986 39.505166 613.977902 39.193545 614.201818 38.880939 614.425734 38.567363 614.649650 38.252833 614.873566 37.937365 615.097483 37.620973 615.321399 37.303675 615.545315 36.985485 615.769231 36.666419 615.993147 36.346493 616.217063 36.025722 616.440979 35.704122 616.664895 35.381709 616.888811 35.058498 617.112727 34.734505 617.336643 34.409746 617.560559 34.084236 617.784476 33.757990 618.008392 33.431025 618.232308 33.103357 618.456224 32.775000 618.680140 32.445970 618.904056 32.116284 619.127972 31.785956 619.351888 31.455003 619.575804 31.123440 619.799720 30.791282 620.023636 30.458546 620.247552 30.125246 620.471469 29.791399 620.695385 29.457020 620.919301 29.122125 621.143217 28.786730 621.367133 28.450850 621.591049 28.114500 621.814965 27.777697 622.038881 27.440456 622.262797 27.102792 622.486713 26.764722 622.710629 26.426261 622.934545 26.087424 623.158462 25.748228 623.382378 25.408688 623.606294 25.068819 623.830210 24.728637 624.054126 24.388158 624.278042 24.047398 624.501958 23.706372 624.725874 23.365095 624.949790 23.023584 625.173706 22.681854 625.397622 22.339920 625.621538 21.997799 625.845455 21.655506 626.069371 21.313056 626.293287 20.970465 626.517203 20.627750 626.741119 20.284925 626.965035 19.942006 627.188951 19.599009 627.412867 19.255949 627.636783 18.912842 627.860699 18.569705 628.084615 18.226551 628.084615 514.000000" /></g></g><g class="titles"><text class="title plot_title" x="400.0" y="26">Siam 53</text></g><g class="plot overlay" transform="translate(139, 46)"><g class="series serie-0 color-0"><g class="dots"><circle class="dot reactive tooltip-trigger" cx="12.315384615384614" cy="100.84218656708862" r="2.5" /><desc class="value">1429126</desc><desc class="x ">12.315384615384614</desc><desc class="y ">100.84218656708862</desc><desc class="x_label">Jan</desc></g><g class="dots"><circle class="dot reactive tooltip-trigger" cx="68.2944055944056" cy="136.02354991893782" r="2.5" /><desc class="value">1340691</desc><desc class="x ">68.2944055944056</desc><desc class="y ">136.02354991893782</desc><desc class="x_label">Feb</desc></g><g class="dots"><circle class="dot reactive tooltip-trigger" cx="124.27342657342656" cy="77.26647610225814" r="2.5" /><desc class="value">1488388</desc><desc class="x ">124.27342657342656</desc><desc class="y ">77.26647610225814</desc><desc class="x_label">Mar</desc></g><g class="dots"><circle class="dot reactive tooltip-trigger" cx="180.25244755244753" cy="386.44436297623474" r="2.5" /><desc class="value">711211</desc><desc class="x top">180.25244755244753</desc><desc class="y top">386.44436297623474</desc><desc class="x_label">Apr</desc></g><g class="dots"><circle class="dot reactive tooltip-trigger" cx="236.23146853146855" cy="474.6032462715725" r="2.5" /><desc class="value">489607</desc><desc class="x top">236.23146853146855</desc><desc class="y top">474.6032462715725</desc><desc class="x_label">May</desc></g><g class="dots"><circle class="dot reactive tooltip-trigger" cx="292.2104895104895" cy="153.7027469264143" r="2.5" /><desc class="value">1296251</desc><desc class="x ">292.2104895104895</desc><desc class="y ">153.7027469264143</desc><desc class="x_label">Jun</desc></g><g class="dots"><circle class="dot reactive tooltip-trigger" cx="348.1895104895105" cy="103.73077003853967" r="2.5" /><desc class="value">1421865</desc><desc class="x left">348.1895104895105</desc><desc class="y left">103.73077003853967</desc><desc class="x_label">Jul</desc></g><g class="dots"><circle class="dot reactive tooltip-trigger" cx="404.1685314685314" cy="106.70011131810327" r="2.5" /><desc class="value">1414401</desc><desc class="x left">404.1685314685314</desc><desc class="y left">106.70011131810327</desc><desc class="x_label">Aug</desc></g><g class="dots"><circle class="dot reactive tooltip-trigger" cx="460.1475524475524" cy="129.73239732046278" r="2.5" /><desc class="value">1356505</desc><desc class="x left">460.1475524475524</desc><desc class="y left">129.73239732046278</desc><desc class="x_label">Sep</desc></g><g class="dots"><circle class="dot reactive tooltip-trigger" cx="516.1265734265735" cy="12.201541175080024" r="2.5" /><desc class="value">1651941</desc><desc class="x left">516.1265734265735</desc><desc class="y left">12.201541175080024</desc><desc class="x_label">Oct</desc></g><g class="dots"><circle class="dot reactive tooltip-trigger" cx="572.1055944055943" cy="63.2830428256425" r="2.5" /><desc class="value">1523538</desc><desc class="x left">572.1055944055943</desc><desc class="y left">63.2830428256425</desc><desc class="x_label">Nov</desc></g><g class="dots"><circle class="dot reactive tooltip-trigger" cx="628.0846153846153" cy="18.2265510463273" r="2.5" /><desc class="value">1636796</desc><desc class="x left">628.0846153846153</desc><desc class="y left">18.2265510463273</desc><desc class="x_label">Dec</desc></g></g></g><g class="plot text-overlay" transform="translate(139, 46)"><g class="series serie-0 color-0" /></g><g class="plot tooltip-overlay" transform="translate(139, 46)"><g class="tooltip" style="opacity: 0" transform="translate(0 0)"><rect class="tooltip-box" height="0" rx="0" ry="0" width="0" /><g class="text" /></g></g><g class="legends" transform="translate(10, 56)"><g class="legend reactive activate-serie" id="activate-serie-0"><rect class="color-0 reactive" height="12" width="12" x="0.0" y="1.0" /><text x="17.0" y="11.2">Siam</text></g></g><g class="legends" transform="translate(790, 56)" /></g></svg>