<?xml version='1.0' encoding='utf-8'?>
<svg xmlns:xlink="http://www.w3.org/1999/xlink" class="pygal-chart" id="chart-ce0a2d4f-cc0e-4cf1-b2ca-14c3f24df5c9" viewBox="0 0 800 600" xmlns="http://www.w3.org/2000/svg"><!--Generated with pygal 2.0.11 (etree) ©Kozea 2011-2015 on 2015-12-10--><!--http://pygal.org--><!--http://github.com/Kozea/pygal--><defs><style type="text/css">#chart-ce0a2d4f-cc0e-4cf1-b2ca-14c3f24df5c9{-webkit-user-select:none;-webkit-font-smoothing:antialiased;font-family:Consolas,"Liberation Mono",Menlo,Courier,monospace}#chart-ce0a2d4f-cc0e-4cf1-b2ca-14c3f24df5c9 .title{font-family:Consolas,"Liberation Mono",Menlo,Courier,monospace;font-size:16px}#chart-ce0a2d4f-cc0e-4cf1-b2ca-14c3f24df5c9 .legends .legend text{font-family:Consolas,"Liberation Mono",Menlo,Courier,monospace;font-size:14px}#chart-ce0a2d4f-cc0e-4cf1-b2ca-14c3f24df5c9 .axis text{font-family:Consolas,"Liberation Mono",Menlo,Courier,monospace;font-size:10px}#chart-ce0a2d4f-cc0e-4cf1-b2ca-14c3f24df5c9 .axis text.major{font-family:Consolas,"Liberation Mono",Menlo,Courier,monospace;font-size:10px}#chart-ce0a2d4f-cc0e-4cf1-b2ca-14c3f24df5c9 .text-overlay text.value{font-family:Consolas,"Liberation Mono",Menlo,Courier,monospace;font-size:16px}#chart-ce0a2d4f-cc0e-4cf1-b2ca-14c3f24df5c9 .text-overlay text.label{font-family:Consolas,"Liberation Mono",Menlo,Courier,monospace;font-size:10px}#chart-ce0a2d4f-cc0e-4cf1-b2ca-14c3f24df5c9 .tooltip{font-family:Consolas,"Liberation Mono",Menlo,Courier,monospace;font-size:14px}#chart-ce0a2d4f-cc0e-4cf1-b2ca-14c3f24df5c9 text.no_data{font-family:Consolas,"Liberation Mono",Menlo,Courier,monospace;font-size:64px}
#chart-ce0a2d4f-cc0e-4cf1-b2ca-14c3f24df5c9{background-color:black}#chart-ce0a2d4f-cc0e-4cf1-b2ca-14c3f24df5c9 path,#chart-ce0a2d4f-cc0e-4cf1-b2ca-14c3f24df5c9 line,#chart-ce0a2d4f-cc0e-4cf1-b2ca-14c3f24df5c9 rect,#chart-ce0a2d4f-cc0e-4cf1-b2ca-14c3f24df5c9 circle{-webkit-transition:250ms;-moz-transition:250ms;transition:250ms}#chart-ce0a2d4f-cc0e-4cf1-b2ca-14c3f24df5c9 .graph &gt; .background{fill:black}#chart-ce0a2d4f-cc0e-4cf1-b2ca-14c3f24df5c9 .plot &gt; .background{fill:#111}#chart-ce0a2d4f-cc0e-4cf1-b2ca-14c3f24df5c9 .graph{fill:#999}#chart-ce0a2d4f-cc0e-4cf1-b2ca-14c3f24df5c9 text.no_data{fill:#eee}#chart-ce0a2d4f-cc0e-4cf1-b2ca-14c3f24df5c9 .title{fill:#eee}#chart-ce0a2d4f-cc0e-4cf1-b2ca-14c3f24df5c9 .legends .legend text{fill:#999}#chart-ce0a2d4f-cc0e-4cf1-b2ca-14c3f24df5c9 .legends .legend:hover text{fill:#eee}#chart-ce0a2d4f-cc0e-4cf1-b2ca-14c3f24df5c9 .axis .line{stroke:#eee}#chart-ce0a2d4f-cc0e-4cf1-b2ca-14c3f24df5c9 .axis .guide.line{stroke:#555}#chart-ce0a2d4f-cc0e-4cf1-b2ca-14c3f24df5c9 .axis .major.line{stroke:#999}#chart-ce0a2d4f-cc0e-4cf1-b2ca-14c3f24df5c9 .axis text.major{fill:#eee}#chart-ce0a2d4f-cc0e-4cf1-b2ca-14c3f24df5c9 .axis.y .guides:hover .guide.line,#chart-ce0a2d4f-cc0e-4cf1-b2ca-14c3f24df5c9 .line-graph .axis.x .guides:hover .guide.line,#chart-ce0a2d4f-cc0e-4cf1-b2ca-14c3f24df5c9 .stackedline-graph .axis.x .guides:hover .guide.line,#chart-ce0a2d4f-cc0e-4cf1-b2ca-14c3f24df5c9 .xy-graph .axis.x .guides:hover .guide.line{stroke:#eee}#chart-ce0a2d4f-cc0e-4cf1-b2ca-14c3f24df5c9 .axis .guides:hover text{fill:#eee}#chart-ce0a2d4f-cc0e-4cf1-b2ca-14c3f24df5c9 .reactive{fill-opacity:.8}#chart-ce0a2d4f-cc0e-4cf1-b2ca-14c3f24df5c9 .reactive.active,#chart-ce0a2d4f-cc0e-4cf1-b2ca-14c3f24df5c9 .active .reactive{fill-opacity:.4;stroke-width:4}#chart-ce0a2d4f-cc0e-4cf1-b2ca-14c3f24df5c9 .series text{fill:#eee}#chart-ce0a2d4f-cc0e-4cf1-b2ca-14c3f24df5c9 .tooltip rect{fill:#111;stroke:#eee;-webkit-transition:opacity 250ms;-moz-transition:opacity 250ms;transition:opacity 250ms}#chart-ce0a2d4f-cc0e-4cf1-b2ca-14c3f24df5c9 .tooltip .label{fill:#999}#chart-ce0a2d4f-cc0e-4cf1-b2ca-14c3f24df5c9 .tooltip .label{fill:#999}#chart-ce0a2d4f-cc0e-4cf1-b2ca-14c3f24df5c9 .tooltip .legend{font-size:.8em;fill:#555}#chart-ce0a2d4f-cc0e-4cf1-b2ca-14c3f24df5c9 .tooltip .x_label{font-size:.6em;fill:#eee}#chart-ce0a2d4f-cc0e-4cf1-b2ca-14c3f24df5c9 .tooltip .xlink{font-size:.5em;text-decoration:underline}#chart-ce0a2d4f-cc0e-4cf1-b2ca-14c3f24df5c9 .tooltip .value{font-size:1.5em}#chart-ce0a2d4f-cc0e-4cf1-b2ca-14c3f24df5c9 .map-element{fill:#111;stroke:#555 !important}#chart-ce0a2d4f-cc0e-4cf1-b2ca-14c3f24df5c9 .map-element .reactive{fill-opacity:inherit}#chart-ce0a2d4f-cc0e-4cf1-b2ca-14c3f24df5c9 .color-0,#chart-ce0a2d4f-cc0e-4cf1-b2ca-14c3f24df5c9 .color-0 a:visited{stroke:#ff5995;fill:#ff5995}#chart-ce0a2d4f-cc0e-4cf1-b2ca-14c3f24df5c9 .text-overlay .color-0 text{fill:black}
#chart-ce0a2d4f-cc0e-4cf1-b2ca-14c3f24df5c9 text.no_data{text-anchor:middle}#chart-ce0a2d4f-cc0e-4cf1-b2ca-14c3f24df5c9 .guide.line{fill:none}#chart-ce0a2d4f-cc0e-4cf1-b2ca-14c3f24df5c9 .centered{text-anchor:middle}#chart-ce0a2d4f-cc0e-4cf1-b2ca-14c3f24df5c9 .title{text-anchor:middle}#chart-ce0a2d4f-cc0e-4cf1-b2ca-14c3f24df5c9 .legends .legend text{fill-opacity:1}#chart-ce0a2d4f-cc0e-4cf1-b2ca-14c3f24df5c9 .axis.x text{text-anchor:middle}#chart-ce0a2d4f-cc0e-4cf1-b2ca-14c3f24df5c9 .axis.x:not(.web) text[transform]{text-anchor:start}#chart-ce0a2d4f-cc0e-4cf1-b2ca-14c3f24df5c9 .axis.x:not(.web) text[transform].backwards{text-anchor:end}#chart-ce0a2d4f-cc0e-4cf1-b2ca-14c3f24df5c9 .axis.y text{text-anchor:end}#chart-ce0a2d4f-cc0e-4cf1-b2ca-14c3f24df5c9 .axis.y text[transform].backwards{text-anchor:start}#chart-ce0a2d4f-cc0e-4cf1-b2ca-14c3f24df5c9 .axis.y2 text{text-anchor:start}#chart-ce0a2d4f-cc0e-4cf1-b2ca-14c3f24df5c9 .axis.y2 text[transform].backwards{text-anchor:end}#chart-ce0a2d4f-cc0e-4cf1-b2ca-14c3f24df5c9 .axis .guide.line{stroke-dasharray:4,4}#chart-ce0a2d4f-cc0e-4cf1-b2ca-14c3f24df5c9 .axis .major.guide.line{stroke-dasharray:6,6}#chart-ce0a2d4f-cc0e-4cf1-b2ca-14c3f24df5c9 .horizontal .axis.y .guide.line,#chart-ce0a2d4f-cc0e-4cf1-b2ca-14c3f24df5c9 .horizontal .axis.y2 .guide.line,#chart-ce0a2d4f-cc0e-4cf1-b2ca-14c3f24df5c9 .vertical .axis.x .guide.line{opacity:0}#chart-ce0a2d4f-cc0e-4cf1-b2ca-14c3f24df5c9 .horizontal .axis.always_show .guide.line,#chart-ce0a2d4f-cc0e-4cf1-b2ca-14c3f24df5c9 .vertical .axis.always_show .guide.line{opacity:1 !important}#chart-ce0a2d4f-cc0e-4cf1-b2ca-14c3f24df5c9 .axis.y .guides:hover .guide.line,#chart-ce0a2d4f-cc0e-4cf1-b2ca-14c3f24df5c9 .axis.y2 .guides:hover .guide.line,#chart-ce0a2d4f-cc0e-4cf1-b2ca-14c3f24df5c9 .axis.x .guides:hover .guide.line{opacity:1}#chart-ce0a2d4f-cc0e-4cf1-b2ca-14c3f24df5c9 .axis .guides:hover text{opacity:1}#chart-ce0a2d4f-cc0e-4cf1-b2ca-14c3f24df5c9 .nofill{fill:none}#chart-ce0a2d4f-cc0e-4cf1-b2ca-14c3f24df5c9 .subtle-fill{fill-opacity:.2}#chart-ce0a2d4f-cc0e-4cf1-b2ca-14c3f24df5c9 .dot{stroke-width:1px;fill-opacity:1}#chart-ce0a2d4f-cc0e-4cf1-b2ca-14c3f24df5c9 .dot.active{stroke-width:5px}#chart-ce0a2d4f-cc0e-4cf1-b2ca-14c3f24df5c9 .dot.negative{fill:transparent}#chart-ce0a2d4f-cc0e-4cf1-b2ca-14c3f24df5c9 text,#chart-ce0a2d4f-cc0e-4cf1-b2ca-14c3f24df5c9 tspan{stroke:none !important}#chart-ce0a2d4f-cc0e-4cf1-b2ca-14c3f24df5c9 .series text.active{opacity:1}#chart-ce0a2d4f-cc0e-4cf1-b2ca-14c3f24df5c9 .tooltip rect{fill-opacity:.95;stroke-width:.5}#chart-ce0a2d4f-cc0e-4cf1-b2ca-14c3f24df5c9 .tooltip text{fill-opacity:1}#chart-ce0a2d4f-cc0e-4cf1-b2ca-14c3f24df5c9 .showable{visibility:hidden}#chart-ce0a2d4f-cc0e-4cf1-b2ca-14c3f24df5c9 .showable.shown{visibility:visible}</style><script type="text/javascript">window.pygal = window.pygal || {};window.pygal.config = window.pygal.config || {};window.pygal.config['ce0a2d4f-cc0e-4cf1-b2ca-14c3f24df5c9'] = {"css": ["file://style.css", "file://graph.css"], "legend_at_bottom": false, "stroke_style": null, "missing_value_fill_truncation": "x", "tooltip_border_radius": 0, "inner_radius": 0, "min_scale": 4, "show_x_guides": false, "y_label_rotation": 0, "show_only_major_dots": false, "interpolation_precision": 250, "margin_right": null, "x_label_rotation": 0, "dynamic_print_values": false, "margin_top": null, "x_labels_major_count": null, "js": ["//kozea.github.io/pygal.js/2.0.x/pygal-tooltips.min.js"], "interpolation_parameters": {}, "no_prefix": false, "title": "Ari 50", "x_labels": ["Jan", "Feb", "Mar", "Apr", "May", "Jun", "Jul", "Aug", "Sep", "Oct", "Nov", "Dec"], "width": 800, "range": null, "show_y_guides": true, "truncate_legend": null, "force_uri_protocol": null, "x_title": null, "interpolate": "cubic", "fill": true, "print_zeroes": true, "margin_left": null, "legend_box_size": 12, "show_minor_y_labels": true, "logarithmic": false, "legend_at_bottom_columns": null, "value_formatter": null, "stroke": true, "margin_bottom": null, "pretty_print": false, "show_minor_x_labels": true, "y_labels_major_count": null, "disable_xml_declaration": false, "y_labels_major_every": null, "truncate_label": null, "stack_from_top": false, "defs": [], "human_readable": false, "include_x_axis": false, "show_legend": true, "tooltip_fancy_mode": true, "y_title": null, "style": {"tooltip_font_size": 14, "major_label_font_family": "Consolas, \"Liberation Mono\", Menlo, Courier, monospace", "value_font_family": "Consolas, \"Liberation Mono\", Menlo, Courier, monospace", "foreground": "#999", "tooltip_font_family": "Consolas, \"Liberation Mono\", Menlo, Courier, monospace", "opacity": ".8", "font_family": "Consolas, \"Liberation Mono\", Menlo, Courier, monospace", "foreground_subtle": "#555", "colors": ["#ff5995", "#b6e354", "#feed6c", "#8cedff", "#9e6ffe", "#899ca1", "#f8f8f2", "#bf4646", "#516083", "#f92672", "#82b414", "#fd971f", "#56c2d6", "#808384", "#8c54fe", "#465457"], "foreground_strong": "#eee", "no_data_font_size": 64, "opacity_hover": ".4", "plot_background": "#111", "value_font_size": 16, "legend_font_family": "Consolas, \"Liberation Mono\", Menlo, Courier, monospace", "value_label_font_size": 10, "major_guide_stroke_dasharray": "6,6", "legend_font_size": 14, "label_font_family": "Consolas, \"Liberation Mono\", Menlo, Courier, monospace", "label_font_size": 10, "transition": "250ms", "title_font_size": 16, "value_label_font_family": "Consolas, \"Liberation Mono\", Menlo, Courier, monospace", "background": "black", "title_font_family": "Consolas, \"Liberation Mono\", Menlo, Courier, monospace", "value_colors": [], "no_data_font_family": "Consolas, \"Liberation Mono\", Menlo, Courier, monospace", "guide_stroke_dasharray": "4,4", "major_label_font_size": 10}, "strict": false, "xrange": null, "rounded_bars": null, "x_labels_major": null, "dots_size": 2.5, "show_dots": true, "order_min": null, "no_data_text": "No data", "y_labels": null, "print_labels": false, "spacing": 10, "y_labels_major": null, "print_values": false, "legends": ["Ari"], "zero": 0, "height": 600, "margin": 20, "box_mode": "extremes", "show_y_labels": true, "inverse_y_axis": false, "max_scale": 16, "show_x_labels": true, "explicit_size": false, "x_value_formatter": null, "secondary_range": null, "x_labels_major_every": null, "half_pie": false}</script><script type="text/javascript" xlink:href="//kozea.github.io/pygal.js/2.0.x/pygal-tooltips.min.js" /></defs><title>Ari 50</title><g class="graph line-graph vertical"><rect class="background" height="600" width="800" x="0" y="0" /><g class="plot" transform="translate(125, 46)"><rect class="background" height="514" width="654.8" x="0" y="0" /><g class="axis y"><path class="line" d="M0.000000 514.000000 h654.800000" /><g class="guides"><path class="guide line" d="M0.000000 463.920748 h654.800000" /><text class="" x="-5" y="467.42074814406334">260000.0</text><title>260000.0</title></g><g class="guides"><path class="guide line" d="M0.000000 382.737385 h654.800000" /><text class="" x="-5" y="386.23738539217675">270000.0</text><title>270000.0</title></g><g class="guides"><path class="guide line" d="M0.000000 301.554023 h654.800000" /><text class="" x="-5" y="305.0540226402901">280000.0</text><title>280000.0</title></g><g class="guides"><path class="guide line" d="M0.000000 220.370660 h654.800000" /><text class="" x="-5" y="223.87065988840345">290000.0</text><title>290000.0</title></g><g class="guides"><path class="major guide line" d="M0.000000 139.187297 h654.800000" /><text class="major" x="-5" y="142.68729713651686">300000.0</text><title>300000.0</title></g><g class="guides"><path class="guide line" d="M0.000000 58.003934 h654.800000" /><text class="" x="-5" y="61.50393438463027">310000.0</text><title>310000.0</title></g></g><g class="axis x"><g class="guides"><path class="line" d="M12.592308 0.000000 v514.000000" /><text class="" x="12.592307692307692" y="529.0">Jan</text></g><g class="guides"><path class="guide line" d="M69.830070 0.000000 v514.000000" /><text class="" x="69.83006993006993" y="529.0">Feb</text></g><g class="guides"><path class="guide line" d="M127.067832 0.000000 v514.000000" /><text class="" x="127.06783216783215" y="529.0">Mar</text></g><g class="guides"><path class="guide line" d="M184.305594 0.000000 v514.000000" /><text class="" x="184.30559440559438" y="529.0">Apr</text></g><g class="guides"><path class="guide line" d="M241.543357 0.000000 v514.000000" /><text class="" x="241.54335664335662" y="529.0">May</text></g><g class="guides"><path class="guide line" d="M298.781119 0.000000 v514.000000" /><text class="" x="298.78111888111886" y="529.0">Jun</text></g><g class="guides"><path class="guide line" d="M356.018881 0.000000 v514.000000" /><text class="" x="356.0188811188811" y="529.0">Jul</text></g><g class="guides"><path class="guide line" d="M413.256643 0.000000 v514.000000" /><text class="" x="413.25664335664334" y="529.0">Aug</text></g><g class="guides"><path class="guide line" d="M470.494406 0.000000 v514.000000" /><text class="" x="470.4944055944056" y="529.0">Sep</text></g><g class="guides"><path class="guide line" d="M527.732168 0.000000 v514.000000" /><text class="" x="527.7321678321679" y="529.0">Oct</text></g><g class="guides"><path class="guide line" d="M584.969930 0.000000 v514.000000" /><text class="" x="584.96993006993" y="529.0">Nov</text></g><g class="guides"><path class="guide line" d="M642.207692 0.000000 v514.000000" /><text class="" x="642.2076923076922" y="529.0">Dec</text></g></g><g class="series serie-0 color-0"><path class="line reactive" d="M12.592308 514.000000 L12.592308 220.370660 12.821259 221.187020 13.050210 222.003330 13.279161 222.819540 13.508112 223.635598 13.737063 224.451455 13.966014 225.267061 14.194965 226.082365 14.423916 226.897316 14.652867 227.711866 14.881818 228.525962 15.110769 229.339555 15.339720 230.152594 15.568671 230.965030 15.797622 231.776812 16.026573 232.587889 16.255524 233.398212 16.484476 234.207730 16.713427 235.016392 16.942378 235.824149 17.171329 236.630949 17.400280 237.436744 17.629231 238.241481 17.858182 239.045112 18.087133 239.847586 18.316084 240.648852 18.545035 241.448860 18.773986 242.247560 19.002937 243.044901 19.231888 243.840834 19.460839 244.635308 19.689790 245.428272 19.918741 246.219676 20.147692 247.009471 20.376643 247.797605 20.605594 248.584028 20.834545 249.368690 21.063497 250.151541 21.292448 250.932531 21.521399 251.711608 21.750350 252.488723 21.979301 253.263826 22.208252 254.036865 22.437203 254.807792 22.666154 255.576555 22.895105 256.343104 23.124056 257.107389 23.353007 257.869359 23.581958 258.628965 23.810909 259.386155 24.039860 260.140881 24.268811 260.893090 24.497762 261.642733 24.726713 262.389761 24.955664 263.134121 25.184615 263.875764 25.413566 264.614641 25.642517 265.350699 25.871469 266.083890 26.100420 266.814162 26.329371 267.541466 26.558322 268.265751 26.787273 268.986967 27.016224 269.705063 27.245175 270.419989 27.474126 271.131696 27.703077 271.840132 27.932028 272.545247 28.160979 273.246991 28.389930 273.945314 28.618881 274.640165 28.847832 275.331494 29.076783 276.019250 29.305734 276.703385 29.534685 277.383846 29.763636 278.060583 29.992587 278.733548 30.221538 279.402688 30.450490 280.067954 30.679441 280.729296 30.908392 281.386663 31.137343 282.040004 31.366294 282.689270 31.595245 283.334411 31.824196 283.975375 32.053147 284.612113 32.282098 285.244574 32.511049 285.872708 32.740000 286.496465 32.968951 287.115794 33.197902 287.730645 33.426853 288.340968 33.655804 288.946712 33.884755 289.547827 34.113706 290.144263 34.342657 290.735970 34.571608 291.322896 34.800559 291.904993 35.029510 292.482208 35.258462 293.054493 35.487413 293.621797 35.716364 294.184070 35.945315 294.741261 36.174266 295.293319 36.403217 295.840196 36.632168 296.381839 36.861119 296.918200 37.090070 297.449227 37.319021 297.974871 37.547972 298.495080 37.776923 299.009806 38.005874 299.518996 38.234825 300.022602 38.463776 300.520573 38.692727 301.012858 38.921678 301.499407 39.150629 301.980170 39.379580 302.455097 39.608531 302.924137 39.837483 303.387240 40.066434 303.844355 40.295385 304.295433 40.524336 304.740422 40.753287 305.179273 40.982238 305.611936 41.211189 306.038359 41.440140 306.458494 41.669091 306.872288 41.898042 307.279693 42.126993 307.680657 42.355944 308.075131 42.584895 308.463064 42.813846 308.844406 43.042797 309.219106 43.271748 309.587115 43.500699 309.948381 43.729650 310.302855 43.958601 310.650486 44.187552 310.991224 44.416503 311.325019 44.645455 311.651820 44.874406 311.971577 45.103357 312.284239 45.332308 312.589757 45.561259 312.888080 45.790210 313.179158 46.019161 313.462940 46.248112 313.739376 46.477063 314.008416 46.706014 314.270010 46.934965 314.524107 47.163916 314.770656 47.392867 315.009608 47.621818 315.240912 47.850769 315.464518 48.079720 315.680376 48.308671 315.888435 48.537622 316.088645 48.766573 316.280955 48.995524 316.465316 49.224476 316.641677 49.453427 316.809987 49.682378 316.970197 49.911329 317.122256 50.140280 317.266114 50.369231 317.401720 50.598182 317.529024 50.827133 317.647976 51.056084 317.758526 51.285035 317.860622 51.513986 317.954216 51.742937 318.039256 51.971888 318.115692 52.200839 318.183475 52.429790 318.242553 52.658741 318.292876 52.887692 318.334394 53.116643 318.367057 53.345594 318.390814 53.574545 318.405615 53.803497 318.411410 54.032448 318.408148 54.261399 318.395780 54.490350 318.374254 54.719301 318.343520 54.948252 318.303529 55.177203 318.254230 55.406154 318.195572 55.635105 318.127505 55.864056 318.049979 56.093007 317.962944 56.321958 317.866349 56.550909 317.760144 56.779860 317.644279 57.008811 317.518703 57.237762 317.383366 57.466713 317.238217 57.695664 317.083207 57.924615 316.918285 58.153566 316.743401 58.382517 316.558504 58.611469 316.363544 58.840420 316.158472 59.069371 315.943235 59.298322 315.717785 59.527273 315.482071 59.756224 315.236042 59.985175 314.979648 60.214126 314.712839 60.443077 314.435565 60.672028 314.147776 60.900979 313.849420 61.129930 313.540448 61.358881 313.220809 61.587832 312.890453 61.816783 312.549330 62.045734 312.197389 62.274685 311.834580 62.503636 311.460854 62.732587 311.076158 62.961538 310.680444 63.190490 310.273660 63.419441 309.855758 63.648392 309.426685 63.877343 308.986392 64.106294 308.534829 64.335245 308.071945 64.564196 307.597690 64.793147 307.112013 65.022098 306.614865 65.251049 306.106195 65.480000 305.585952 65.708951 305.054087 65.937902 304.510549 66.166853 303.955288 66.395804 303.388253 66.624755 302.809394 66.853706 302.218661 67.082657 301.616004 67.311608 301.001371 67.540559 300.374714 67.769510 299.735981 67.998462 299.085122 68.227413 298.422087 68.456364 297.746826 68.685315 297.059288 68.914266 296.359423 69.143217 295.647181 69.372168 294.922511 69.601119 294.185363 69.830070 293.435686 70.059021 292.673464 70.287972 291.898809 70.516923 291.111866 70.745874 290.312782 70.974825 289.501701 71.203776 288.678769 71.432727 287.844132 71.661678 286.997936 71.890629 286.140326 72.119580 285.271447 72.348531 284.391446 72.577483 283.500467 72.806434 282.598657 73.035385 281.686160 73.264336 280.763123 73.493287 279.829691 73.722238 278.886010 73.951189 277.932225 74.180140 276.968482 74.409091 275.994926 74.638042 275.011704 74.866993 274.018959 75.095944 273.016839 75.324895 272.005489 75.553846 270.985054 75.782797 269.955680 76.011748 268.917512 76.240699 267.870696 76.469650 266.815378 76.698601 265.751703 76.927552 264.679817 77.156503 263.599865 77.385455 262.511993 77.614406 261.416347 77.843357 260.313071 78.072308 259.202313 78.301259 258.084216 78.530210 256.958928 78.759161 255.826593 78.988112 254.687356 79.217063 253.541365 79.446014 252.388763 79.674965 251.229698 79.903916 250.064313 80.132867 248.892755 80.361818 247.715170 80.590769 246.531703 80.819720 245.342500 81.048671 244.147705 81.277622 242.947466 81.506573 241.741927 81.735524 240.531233 81.964476 239.315531 82.193427 238.094967 82.422378 236.869685 82.651329 235.639831 82.880280 234.405551 83.109231 233.166991 83.338182 231.924295 83.567133 230.677610 83.796084 229.427081 84.025035 228.172854 84.253986 226.915074 84.482937 225.653887 84.711888 224.389439 84.940839 223.121874 85.169790 221.851339 85.398741 220.577980 85.627692 219.301941 85.856643 218.023368 86.085594 216.742408 86.314545 215.459205 86.543497 214.173905 86.772448 212.886654 87.001399 211.597596 87.230350 210.306879 87.459301 209.014647 87.688252 207.721047 87.917203 206.426222 88.146154 205.130320 88.375105 203.833486 88.604056 202.535865 88.833007 201.237603 89.061958 199.938845 89.290909 198.639737 89.519860 197.340425 89.748811 196.041054 89.977762 194.741770 90.206713 193.442718 90.435664 192.144044 90.664615 190.845894 90.893566 189.548413 91.122517 188.251746 91.351469 186.956040 91.580420 185.661440 91.809371 184.368091 92.038322 183.076139 92.267273 181.785729 92.496224 180.497008 92.725175 179.210120 92.954126 177.925212 93.183077 176.642429 93.412028 175.361916 93.640979 174.083819 93.869930 172.808284 94.098881 171.535456 94.327832 170.265480 94.556783 168.998503 94.785734 167.734670 95.014685 166.474127 95.243636 165.217019 95.472587 163.963491 95.701538 162.713690 95.930490 161.467760 96.159441 160.225848 96.388392 158.988099 96.617343 157.754658 96.846294 156.525672 97.075245 155.301285 97.304196 154.081644 97.533147 152.866893 97.762098 151.657179 97.991049 150.452647 98.220000 149.253443 98.448951 148.059712 98.677902 146.871599 98.906853 145.689251 99.135804 144.512813 99.364755 143.342431 99.593706 142.178249 99.822657 141.020414 100.051608 139.869072 100.280559 138.724367 100.509510 137.586446 100.738462 136.455454 100.967413 135.331536 101.196364 134.214839 101.425315 133.105507 101.654266 132.003687 101.883217 130.909523 102.112168 129.823162 102.341119 128.744749 102.570070 127.674430 102.799021 126.612350 103.027972 125.558654 103.256923 124.513489 103.485874 123.477000 103.714825 122.449333 103.943776 121.430632 104.172727 120.421045 104.401678 119.420715 104.630629 118.429789 104.859580 117.448413 105.088531 116.476732 105.317483 115.514891 105.546434 114.563037 105.775385 113.621314 106.004336 112.689869 106.233287 111.768846 106.462238 110.858392 106.691189 109.958652 106.920140 109.069772 107.149091 108.191897 107.378042 107.325173 107.606993 106.469745 107.835944 105.625759 108.064895 104.793360 108.293846 103.972695 108.522797 103.163908 108.751748 102.367146 108.980699 101.582554 109.209650 100.810276 109.438601 100.050460 109.667552 99.303251 109.896503 98.568793 110.125455 97.847234 110.354406 97.138718 110.583357 96.443390 110.812308 95.761397 111.041259 95.092885 111.270210 94.437997 111.499161 93.796881 111.728112 93.169682 111.957063 92.556545 112.186014 91.957617 112.414965 91.373041 112.643916 90.802965 112.872867 90.247534 113.101818 89.706892 113.330769 89.181187 113.559720 88.670563 113.788671 88.175166 114.017622 87.695142 114.246573 87.230636 114.475524 86.781793 114.704476 86.348760 114.933427 85.931682 115.162378 85.530704 115.391329 85.145973 115.620280 84.777633 115.849231 84.425830 116.078182 84.090710 116.307133 83.772418 116.536084 83.471101 116.765035 83.186903 116.993986 82.919970 117.222937 82.670448 117.451888 82.438482 117.680839 82.224217 117.909790 82.027801 118.138741 81.849377 118.367692 81.689092 118.596643 81.547091 118.825594 81.423520 119.054545 81.318524 119.283497 81.232249 119.512448 81.164841 119.741399 81.116445 119.970350 81.087206 120.199301 81.077270 120.428252 81.086784 120.657203 81.115891 120.886154 81.164739 121.115105 81.233472 121.344056 81.322237 121.573007 81.431178 121.801958 81.560441 122.030909 81.710172 122.259860 81.880517 122.488811 82.071621 122.717762 82.283629 122.946713 82.516687 123.175664 82.770941 123.404615 83.046537 123.633566 83.343619 123.862517 83.662334 124.091469 84.002827 124.320420 84.365244 124.549371 84.749730 124.778322 85.156431 125.007273 85.585492 125.236224 86.037059 125.465175 86.511277 125.694126 87.008293 125.923077 87.528251 126.152028 88.071298 126.380979 88.637579 126.609930 89.227239 126.838881 89.840424 127.067832 90.477279 127.296783 91.137895 127.525734 91.822135 127.754685 92.529806 127.983636 93.260717 128.212587 94.014675 128.441538 94.791488 128.670490 95.590965 128.899441 96.412912 129.128392 97.257138 129.357343 98.123450 129.586294 99.011656 129.815245 99.921564 130.044196 100.852982 130.273147 101.805718 130.502098 102.779579 130.731049 103.774373 130.960000 104.789908 131.188951 105.825992 131.417902 106.882432 131.646853 107.959037 131.875804 109.055614 132.104755 110.171971 132.333706 111.307916 132.562657 112.463256 132.791608 113.637799 133.020559 114.831354 133.249510 116.043728 133.478462 117.274728 133.707413 118.524163 133.936364 119.791840 134.165315 121.077568 134.394266 122.381153 134.623217 123.702405 134.852168 125.041129 135.081119 126.397135 135.310070 127.770230 135.539021 129.160223 135.767972 130.566919 135.996923 131.990129 136.225874 133.429659 136.454825 134.885316 136.683776 136.356910 136.912727 137.844248 137.141678 139.347137 137.370629 140.865385 137.599580 142.398801 137.828531 143.947191 138.057483 145.510365 138.286434 147.088128 138.515385 148.680290 138.744336 150.286658 138.973287 151.907041 139.202238 153.541244 139.431189 155.189078 139.660140 156.850348 139.889091 158.524864 140.118042 160.212433 140.346993 161.912862 140.575944 163.625960 140.804895 165.351535 141.033846 167.089393 141.262797 168.839343 141.491748 170.601193 141.720699 172.374751 141.949650 174.159824 142.178601 175.956220 142.407552 177.763746 142.636503 179.582212 142.865455 181.411424 143.094406 183.251190 143.323357 185.101319 143.552308 186.961617 143.781259 188.831893 144.010210 190.711955 144.239161 192.601610 144.468112 194.500666 144.697063 196.408931 144.926014 198.326212 145.154965 200.252318 145.383916 202.187057 145.612867 204.130235 145.841818 206.081661 146.070769 208.041143 146.299720 210.008489 146.528671 211.983506 146.757622 213.966002 146.986573 215.955784 147.215524 217.952662 147.444476 219.956442 147.673427 221.966932 147.902378 223.983940 148.131329 226.007274 148.360280 228.036742 148.589231 230.072152 148.818182 232.113310 149.047133 234.160026 149.276084 236.212107 149.505035 238.269360 149.733986 240.331594 149.962937 242.398616 150.191888 244.470234 150.420839 246.546256 150.649790 248.626489 150.878741 250.710742 151.107692 252.798823 151.336643 254.890538 151.565594 256.985696 151.794545 259.084105 152.023497 261.185573 152.252448 263.289906 152.481399 265.396914 152.710350 267.506403 152.939301 269.618183 153.168252 271.732059 153.397203 273.847841 153.626154 275.965336 153.855105 278.084352 154.084056 280.204697 154.313007 282.326177 154.541958 284.448603 154.770909 286.571780 154.999860 288.695517 155.228811 290.819622 155.457762 292.943902 155.686713 295.068165 155.915664 297.192220 156.144615 299.315873 156.373566 301.438933 156.602517 303.561207 156.831469 305.682504 157.060420 307.802631 157.289371 309.921395 157.518322 312.038605 157.747273 314.154069 157.976224 316.267594 158.205175 318.378987 158.434126 320.488058 158.663077 322.594613 158.892028 324.698461 159.120979 326.799409 159.349930 328.897265 159.578881 330.991837 159.807832 333.082932 160.036783 335.170359 160.265734 337.253925 160.494685 339.333438 160.723636 341.408706 160.952587 343.479537 161.181538 345.545738 161.410490 347.607117 161.639441 349.663482 161.868392 351.714641 162.097343 353.760402 162.326294 355.800572 162.555245 357.834959 162.784196 359.863371 163.013147 361.885616 163.242098 363.901502 163.471049 365.910836 163.700000 367.913426 163.928951 369.909080 164.157902 371.897606 164.386853 373.878812 164.615804 375.852505 164.844755 377.818493 165.073706 379.776585 165.302657 381.726587 165.531608 383.668307 165.760559 385.601554 165.989510 387.526136 166.218462 389.441859 166.447413 391.348532 166.676364 393.245962 166.905315 395.133958 167.134266 397.012328 167.363217 398.880878 167.592168 400.739417 167.821119 402.587752 168.050070 404.425692 168.279021 406.253044 168.507972 408.069616 168.736923 409.875216 168.965874 411.669652 169.194825 413.452731 169.423776 415.224261 169.652727 416.984050 169.881678 418.731905 170.110629 420.467636 170.339580 422.191049 170.568531 423.901951 170.797483 425.600152 171.026434 427.285459 171.255385 428.957679 171.484336 430.616621 171.713287 432.262091 171.942238 433.893899 172.171189 435.511852 172.400140 437.115757 172.629091 438.705422 172.858042 440.280655 173.086993 441.841265 173.315944 443.387058 173.544895 444.917843 173.773846 446.433427 174.002797 447.933619 174.231748 449.418225 174.460699 450.887054 174.689650 452.339914 174.918601 453.776611 175.147552 455.196956 175.376503 456.600754 175.605455 457.987813 175.834406 459.357943 176.063357 460.710949 176.292308 462.046641 176.521259 463.364826 176.750210 464.665311 176.979161 465.947906 177.208112 467.212416 177.437063 468.458650 177.666014 469.686417 177.894965 470.895523 178.123916 472.085777 178.352867 473.256986 178.581818 474.408958 178.810769 475.541501 179.039720 476.654423 179.268671 477.747532 179.497622 478.820634 179.726573 479.873539 179.955524 480.906054 180.184476 481.917986 180.413427 482.909144 180.642378 483.879336 180.871329 484.828368 181.100280 485.756050 181.329231 486.662188 181.558182 487.546590 181.787133 488.409065 182.016084 489.249420 182.245035 490.067463 182.473986 490.863002 182.702937 491.635844 182.931888 492.385798 183.160839 493.112670 183.389790 493.816270 183.618741 494.496404 183.847692 495.152881 184.076643 495.785508 184.305594 496.394093 184.534545 496.978499 184.763497 497.538808 184.992448 498.075156 185.221399 498.587681 185.450350 499.076520 185.679301 499.541809 185.908252 499.983685 186.137203 500.402286 186.366154 500.797748 186.595105 501.170207 186.824056 501.519802 187.053007 501.846669 187.281958 502.150944 187.510909 502.432765 187.739860 502.692269 187.968811 502.929592 188.197762 503.144871 188.426713 503.338244 188.655664 503.509847 188.884615 503.659816 189.113566 503.788290 189.342517 503.895405 189.571469 503.981298 189.800420 504.046105 190.029371 504.089964 190.258322 504.113012 190.487273 504.115385 190.716224 504.097220 190.945175 504.058654 191.174126 503.999825 191.403077 503.920869 191.632028 503.821922 191.860979 503.703122 192.089930 503.564607 192.318881 503.406511 192.547832 503.228974 192.776783 503.032131 193.005734 502.816119 193.234685 502.581075 193.463636 502.327137 193.692587 502.054441 193.921538 501.763124 194.150490 501.453322 194.379441 501.125174 194.608392 500.778815 194.837343 500.414382 195.066294 500.032014 195.295245 499.631845 195.524196 499.214014 195.753147 498.778658 195.982098 498.325912 196.211049 497.855914 196.440000 497.368802 196.668951 496.864711 196.897902 496.343779 197.126853 495.806142 197.355804 495.251938 197.584755 494.681304 197.813706 494.094376 198.042657 493.491291 198.271608 492.872186 198.500559 492.237198 198.729510 491.586465 198.958462 490.920122 199.187413 490.238307 199.416364 489.541157 199.645315 488.828808 199.874266 488.101398 200.103217 487.359063 200.332168 486.601941 200.561119 485.830168 200.790070 485.043881 201.019021 484.243217 201.247972 483.428313 201.476923 482.599305 201.705874 481.756332 201.934825 480.899529 202.163776 480.029034 202.392727 479.144983 202.621678 478.247513 202.850629 477.336762 203.079580 476.412866 203.308531 475.475962 203.537483 474.526187 203.766434 473.563677 203.995385 472.588571 204.224336 471.601004 204.453287 470.601114 204.682238 469.589037 204.911189 468.564911 205.140140 467.528872 205.369091 466.481058 205.598042 465.421604 205.826993 464.350648 206.055944 463.268328 206.284895 462.174779 206.513846 461.070139 206.742797 459.954544 206.971748 458.828132 207.200699 457.691040 207.429650 456.543404 207.658601 455.385361 207.887552 454.217048 208.116503 453.038602 208.345455 451.850161 208.574406 450.651860 208.803357 449.443837 209.032308 448.226229 209.261259 446.999172 209.490210 445.762803 209.719161 444.517261 209.948112 443.262680 210.177063 441.999199 210.406014 440.726953 210.634965 439.446081 210.863916 438.156719 211.092867 436.859003 211.321818 435.553071 211.550769 434.239060 211.779720 432.917107 212.008671 431.587347 212.237622 430.249920 212.466573 428.904960 212.695524 427.552606 212.924476 426.192993 213.153427 424.826260 213.382378 423.452542 213.611329 422.071977 213.840280 420.684702 214.069231 419.290854 214.298182 417.890569 214.527133 416.483984 214.756084 415.071237 214.985035 413.652463 215.213986 412.227801 215.442937 410.797387 215.671888 409.361358 215.900839 407.919851 216.129790 406.473002 216.358741 405.020949 216.587692 403.563829 216.816643 402.101778 217.045594 400.634933 217.274545 399.163432 217.503497 397.687410 217.732448 396.207006 217.961399 394.722356 218.190350 393.233596 218.419301 391.740865 218.648252 390.244298 218.877203 388.744032 219.106154 387.240205 219.335105 385.732954 219.564056 384.222414 219.793007 382.708724 220.021958 381.192020 220.250909 379.672439 220.479860 378.150118 220.708811 376.625194 220.937762 375.097803 221.166713 373.568083 221.395664 372.036171 221.624615 370.502203 221.853566 368.966316 222.082517 367.428648 222.311469 365.889334 222.540420 364.348513 222.769371 362.806321 222.998322 361.262894 223.227273 359.718371 223.456224 358.172887 223.685175 356.626579 223.914126 355.079585 224.143077 353.532041 224.372028 351.984085 224.600979 350.435853 224.829930 348.887482 225.058881 347.339109 225.287832 345.790871 225.516783 344.242904 225.745734 342.695347 225.974685 341.148334 226.203636 339.602005 226.432587 338.056495 226.661538 336.511941 226.890490 334.968480 227.119441 333.426250 227.348392 331.885387 227.577343 330.346027 227.806294 328.808309 228.035245 327.272368 228.264196 325.738341 228.493147 324.206367 228.722098 322.676581 228.951049 321.149120 229.180000 319.624121 229.408951 318.101722 229.637902 316.582059 229.866853 315.065268 230.095804 313.551488 230.324755 312.040854 230.553706 310.533504 230.782657 309.029575 231.011608 307.529203 231.240559 306.032526 231.469510 304.539680 231.698462 303.050802 231.927413 301.566029 232.156364 300.085499 232.385315 298.609347 232.614266 297.137711 232.843217 295.670728 233.072168 294.208535 233.301119 292.751268 233.530070 291.299064 233.759021 289.852061 233.987972 288.410395 234.216923 286.974203 234.445874 285.543623 234.674825 284.118790 234.903776 282.699842 235.132727 281.286917 235.361678 279.880149 235.590629 278.479678 235.819580 277.085638 236.048531 275.698169 236.277483 274.317405 236.506434 272.943485 236.735385 271.576545 236.964336 270.216722 237.193287 268.864153 237.422238 267.518974 237.651189 266.181324 237.880140 264.851338 238.109091 263.529154 238.338042 262.214908 238.566993 260.908737 238.795944 259.610779 239.024895 258.321170 239.253846 257.040047 239.482797 255.767546 239.711748 254.503806 239.940699 253.248963 240.169650 252.003153 240.398601 250.766514 240.627552 249.539182 240.856503 248.321295 241.085455 247.112989 241.314406 245.914401 241.543357 244.725669 241.772308 243.546899 242.001259 242.378084 242.230210 241.219186 242.459161 240.070168 242.688112 238.930992 242.917063 237.801621 243.146014 236.682017 243.374965 235.572143 243.603916 234.471962 243.832867 233.381436 244.061818 232.300527 244.290769 231.229199 244.519720 230.167413 244.748671 229.115133 244.977622 228.072321 245.206573 227.038939 245.435524 226.014950 245.664476 225.000317 245.893427 223.995001 246.122378 222.998967 246.351329 222.012176 246.580280 221.034590 246.809231 220.066173 247.038182 219.106887 247.267133 218.156695 247.496084 217.215558 247.725035 216.283440 247.953986 215.360304 248.182937 214.446111 248.411888 213.540824 248.640839 212.644407 248.869790 211.756821 249.098741 210.878028 249.327692 210.007993 249.556643 209.146676 249.785594 208.294042 250.014545 207.450051 250.243497 206.614667 250.472448 205.787853 250.701399 204.969571 250.930350 204.159783 251.159301 203.358452 251.388252 202.565541 251.617203 201.781012 251.846154 201.004828 252.075105 200.236951 252.304056 199.477344 252.533007 198.725970 252.761958 197.982790 252.990909 197.247768 253.219860 196.520866 253.448811 195.802047 253.677762 195.091273 253.906713 194.388507 254.135664 193.693712 254.364615 193.006849 254.593566 192.327882 254.822517 191.656772 255.051469 190.993484 255.280420 190.337979 255.509371 189.690219 255.738322 189.050168 255.967273 188.417787 256.196224 187.793040 256.425175 187.175889 256.654126 186.566297 256.883077 185.964226 257.112028 185.369638 257.340979 184.782497 257.569930 184.202765 257.798881 183.630403 258.027832 183.065376 258.256783 182.507646 258.485734 181.957174 258.714685 181.413924 258.943636 180.877858 259.172587 180.348939 259.401538 179.827130 259.630490 179.312392 259.859441 178.804688 260.088392 178.303982 260.317343 177.810235 260.546294 177.323410 260.775245 176.843470 261.004196 176.370378 261.233147 175.904095 261.462098 175.444584 261.691049 174.991808 261.920000 174.545730 262.148951 174.106312 262.377902 173.673517 262.606853 173.247306 262.835804 172.827644 263.064755 172.414492 263.293706 172.007812 263.522657 171.607568 263.751608 171.213722 263.980559 170.826237 264.209510 170.445075 264.438462 170.070198 264.667413 169.701570 264.896364 169.339152 265.125315 168.982908 265.354266 168.632800 265.583217 168.288790 265.812168 167.950842 266.041119 167.618917 266.270070 167.292978 266.499021 166.972988 266.727972 166.658909 266.956923 166.350704 267.185874 166.048335 267.414825 165.751766 267.643776 165.460958 267.872727 165.175874 268.101678 164.896477 268.330629 164.622729 268.559580 164.354593 268.788531 164.092031 269.017483 163.835006 269.246434 163.583481 269.475385 163.337418 269.704336 163.096779 269.933287 162.861528 270.162238 162.631626 270.391189 162.407036 270.620140 162.187722 270.849091 161.973645 271.078042 161.764768 271.306993 161.561053 271.535944 161.362463 271.764895 161.168962 271.993846 160.980510 272.222797 160.797071 272.451748 160.618608 272.680699 160.445082 272.909650 160.276457 273.138601 160.112695 273.367552 159.953759 273.596503 159.799611 273.825455 159.650213 274.054406 159.505529 274.283357 159.365521 274.512308 159.230151 274.741259 159.099382 274.970210 158.973177 275.199161 158.851498 275.428112 158.734307 275.657063 158.621568 275.886014 158.513242 276.114965 158.409293 276.343916 158.309683 276.572867 158.214374 276.801818 158.123330 277.030769 158.036512 277.259720 157.953883 277.488671 157.875405 277.717622 157.801043 277.946573 157.730757 278.175524 157.664510 278.404476 157.602265 278.633427 157.543985 278.862378 157.489632 279.091329 157.439169 279.320280 157.392558 279.549231 157.349762 279.778182 157.310743 280.007133 157.275464 280.236084 157.243887 280.465035 157.215976 280.693986 157.191692 280.922937 157.170998 281.151888 157.153857 281.380839 157.140231 281.609790 157.130083 281.838741 157.123376 282.067692 157.120071 282.296643 157.120133 282.525594 157.123522 282.754545 157.130202 282.983497 157.140135 283.212448 157.153284 283.441399 157.169611 283.670350 157.189079 283.899301 157.211650 284.128252 157.237288 284.357203 157.265954 284.586154 157.297612 284.815105 157.332223 285.044056 157.369750 285.273007 157.410157 285.501958 157.453404 285.730909 157.499456 285.959860 157.548274 286.188811 157.599821 286.417762 157.654060 286.646713 157.710954 286.875664 157.770463 287.104615 157.832553 287.333566 157.897184 287.562517 157.964320 287.791469 158.033922 288.020420 158.105955 288.249371 158.180379 288.478322 158.257158 288.707273 158.336255 288.936224 158.417631 289.165175 158.501250 289.394126 158.587074 289.623077 158.675065 289.852028 158.765186 290.080979 158.857400 290.309930 158.951669 290.538881 159.047956 290.767832 159.146224 290.996783 159.246434 291.225734 159.348550 291.454685 159.452533 291.683636 159.558348 291.912587 159.665955 292.141538 159.775318 292.370490 159.886400 292.599441 159.999162 292.828392 160.113568 293.057343 160.229580 293.286294 160.347160 293.515245 160.466271 293.744196 160.586876 293.973147 160.708937 294.202098 160.832417 294.431049 160.957279 294.660000 161.083484 294.888951 161.210996 295.117902 161.339776 295.346853 161.469789 295.575804 161.600995 295.804755 161.733358 296.033706 161.866841 296.262657 162.001405 296.491608 162.137014 296.720559 162.273629 296.949510 162.411214 297.178462 162.549732 297.407413 162.689143 297.636364 162.829413 297.865315 162.970501 298.094266 163.112373 298.323217 163.254989 298.552168 163.398312 298.781119 163.542306 299.010070 163.686935 299.239021 163.832179 299.467972 163.978019 299.696923 164.124436 299.925874 164.271412 300.154825 164.418929 300.383776 164.566969 300.612727 164.715514 300.841678 164.864544 301.070629 165.014042 301.299580 165.163989 301.528531 165.314367 301.757483 165.465158 301.986434 165.616343 302.215385 165.767904 302.444336 165.919823 302.673287 166.072081 302.902238 166.224660 303.131189 166.377542 303.360140 166.530708 303.589091 166.684141 303.818042 166.837821 304.046993 166.991730 304.275944 167.145850 304.504895 167.300163 304.733846 167.454651 304.962797 167.609294 305.191748 167.764075 305.420699 167.918976 305.649650 168.073978 305.878601 168.229062 306.107552 168.384211 306.336503 168.539406 306.565455 168.694629 306.794406 168.849861 307.023357 169.005084 307.252308 169.160280 307.481259 169.315431 307.710210 169.470517 307.939161 169.625522 308.168112 169.780426 308.397063 169.935211 308.626014 170.089858 308.854965 170.244351 309.083916 170.398669 309.312867 170.552796 309.541818 170.706711 309.770769 170.860398 309.999720 171.013838 310.228671 171.167012 310.457622 171.319903 310.686573 171.472491 310.915524 171.624759 311.144476 171.776688 311.373427 171.928260 311.602378 172.079457 311.831329 172.230260 312.060280 172.380650 312.289231 172.530611 312.518182 172.680122 312.747133 172.829167 312.976084 172.977725 313.205035 173.125781 313.433986 173.273314 313.662937 173.420307 313.891888 173.566741 314.120839 173.712598 314.349790 173.857859 314.578741 174.002507 314.807692 174.146523 315.036643 174.289888 315.265594 174.432585 315.494545 174.574595 315.723497 174.715899 315.952448 174.856480 316.181399 174.996318 316.410350 175.135397 316.639301 175.273696 316.868252 175.411199 317.097203 175.547886 317.326154 175.683740 317.555105 175.818742 317.784056 175.952873 318.013007 176.086116 318.241958 176.218452 318.470909 176.349862 318.699860 176.480329 318.928811 176.609834 319.157762 176.738359 319.386713 176.865885 319.615664 176.992394 319.844615 177.117868 320.073566 177.242289 320.302517 177.365637 320.531469 177.487895 320.760420 177.609045 320.989371 177.729068 321.218322 177.847945 321.447273 177.965659 321.676224 178.082191 321.905175 178.197523 322.134126 178.311636 322.363077 178.424513 322.592028 178.536134 322.820979 178.646482 323.049930 178.755538 323.278881 178.863283 323.507832 178.969700 323.736783 179.074771 323.965734 179.178476 324.194685 179.280798 324.423636 179.381718 324.652587 179.481218 324.881538 179.579279 325.110490 179.675883 325.339441 179.771013 325.568392 179.864649 325.797343 179.956773 326.026294 180.047367 326.255245 180.136412 326.484196 180.223891 326.713147 180.309785 326.942098 180.394075 327.171049 180.476744 327.400000 180.557772 327.628951 180.637142 327.857902 180.714836 328.086853 180.790834 328.315804 180.865119 328.544755 180.937672 328.773706 181.008475 329.002657 181.077510 329.231608 181.144758 329.460559 181.210201 329.689510 181.273821 329.918462 181.335599 330.147413 181.395517 330.376364 181.453556 330.605315 181.509699 330.834266 181.563927 331.063217 181.616222 331.292168 181.666565 331.521119 181.714938 331.750070 181.761323 331.979021 181.805701 332.207972 181.848054 332.436923 181.888364 332.665874 181.926612 332.894825 181.962780 333.123776 181.996850 333.352727 182.028803 333.581678 182.058622 333.810629 182.086287 334.039580 182.111780 334.268531 182.135084 334.497483 182.156179 334.726434 182.175048 334.955385 182.191672 335.184336 182.206033 335.413287 182.218112 335.642238 182.227891 335.871189 182.235352 336.100140 182.240477 336.329091 182.243247 336.558042 182.243643 336.786993 182.241648 337.015944 182.237243 337.244895 182.230410 337.473846 182.221130 337.702797 182.209386 337.931748 182.195158 338.160699 182.178429 338.389650 182.159180 338.618601 182.137393 338.847552 182.113050 339.076503 182.086131 339.305455 182.056620 339.534406 182.024497 339.763357 181.989744 339.992308 181.952343 340.221259 181.912276 340.450210 181.869524 340.679161 181.824069 340.908112 181.775892 341.137063 181.724976 341.366014 181.671302 341.594965 181.614851 341.823916 181.555605 342.052867 181.493547 342.281818 181.428657 342.510769 181.360917 342.739720 181.290309 342.968671 181.216815 343.197622 181.140416 343.426573 181.061094 343.655524 180.978831 343.884476 180.893608 344.113427 180.805407 344.342378 180.714210 344.571329 180.619998 344.800280 180.522753 345.029231 180.422456 345.258182 180.319090 345.487133 180.212636 345.716084 180.103076 345.945035 179.990391 346.173986 179.874563 346.402937 179.755574 346.631888 179.633405 346.860839 179.508038 347.089790 179.379455 347.318741 179.247638 347.547692 179.112567 347.776643 178.974225 348.005594 178.832594 348.234545 178.687655 348.463497 178.539389 348.692448 178.387779 348.921399 178.232806 349.150350 178.074451 349.379301 177.912697 349.608252 177.747526 349.837203 177.578918 350.066154 177.406855 350.295105 177.231320 350.524056 177.052293 350.753007 176.869757 350.981958 176.683693 351.210909 176.494083 351.439860 176.300908 351.668811 176.104151 351.897762 175.903792 352.126713 175.699814 352.355664 175.492198 352.584615 175.280926 352.813566 175.065979 353.042517 174.847340 353.271469 174.624989 353.500420 174.398909 353.729371 174.169081 353.958322 173.935487 354.187273 173.698109 354.416224 173.456928 354.645175 173.211925 354.874126 172.963084 355.103077 172.710384 355.332028 172.453809 355.560979 172.193339 355.789930 171.928956 356.018881 171.660642 356.247832 171.388390 356.476783 171.112237 356.705734 170.832232 356.934685 170.548422 357.163636 170.260856 357.392587 169.969583 357.621538 169.674651 357.850490 169.376108 358.079441 169.074004 358.308392 168.768385 358.537343 168.459301 358.766294 168.146800 358.995245 167.830930 359.224196 167.511741 359.453147 167.189279 359.682098 166.863594 359.911049 166.534734 360.140000 166.202748 360.368951 165.867683 360.597902 165.529589 360.826853 165.188513 361.055804 164.844504 361.284755 164.497610 361.513706 164.147881 361.742657 163.795363 361.971608 163.440107 362.200559 163.082159 362.429510 162.721569 362.658462 162.358384 362.887413 161.992654 363.116364 161.624426 363.345315 161.253749 363.574266 160.880672 363.803217 160.505243 364.032168 160.127510 364.261119 159.747521 364.490070 159.365325 364.719021 158.980971 364.947972 158.594507 365.176923 158.205981 365.405874 157.815442 365.634825 157.422937 365.863776 157.028516 366.092727 156.632227 366.321678 156.234118 366.550629 155.834238 366.779580 155.432635 367.008531 155.029357 367.237483 154.624453 367.466434 154.217971 367.695385 153.809960 367.924336 153.400468 368.153287 152.989543 368.382238 152.577234 368.611189 152.163590 368.840140 151.748658 369.069091 151.332487 369.298042 150.915126 369.526993 150.496622 369.755944 150.077025 369.984895 149.656382 370.213846 149.234742 370.442797 148.812154 370.671748 148.388665 370.900699 147.964325 371.129650 147.539182 371.358601 147.113283 371.587552 146.686678 371.816503 146.259415 372.045455 145.831542 372.274406 145.403108 372.503357 144.974161 372.732308 144.544749 372.961259 144.114921 373.190210 143.684725 373.419161 143.254210 373.648112 142.823424 373.877063 142.392416 374.106014 141.961233 374.334965 141.529924 374.563916 141.098539 374.792867 140.667124 375.021818 140.235729 375.250769 139.804401 375.479720 139.373190 375.708671 138.942144 375.937622 138.511310 376.166573 138.080738 376.395524 137.650476 376.624476 137.220572 376.853427 136.791075 377.082378 136.362033 377.311329 135.933494 377.540280 135.505507 377.769231 135.078121 377.998182 134.651383 378.227133 134.225342 378.456084 133.800047 378.685035 133.375545 378.913986 132.951886 379.142937 132.529117 379.371888 132.107288 379.600839 131.686446 379.829790 131.266640 380.058741 130.847918 380.287692 130.430328 380.516643 130.013920 380.745594 129.598742 380.974545 129.184841 381.203497 128.772266 381.432448 128.361066 381.661399 127.951290 381.890350 127.542984 382.119301 127.136199 382.348252 126.730982 382.577203 126.327381 382.806154 125.925446 383.035105 125.525224 383.264056 125.126764 383.493007 124.730114 383.721958 124.335323 383.950909 123.942439 384.179860 123.551510 384.408811 123.162586 384.637762 122.775713 384.866713 122.390941 385.095664 122.008319 385.324615 121.627894 385.553566 121.249714 385.782517 120.873830 386.011469 120.500287 386.240420 120.129136 386.469371 119.760424 386.698322 119.394201 386.927273 119.030513 387.156224 118.669410 387.385175 118.310940 387.614126 117.955152 387.843077 117.602094 388.072028 117.251814 388.300979 116.904360 388.529930 116.559782 388.758881 116.218127 388.987832 115.879444 389.216783 115.543782 389.445734 115.211188 389.674685 114.881711 389.903636 114.555400 390.132587 114.232302 390.361538 113.912467 390.590490 113.595943 390.819441 113.282777 391.048392 112.973020 391.277343 112.666718 391.506294 112.363920 391.735245 112.064675 391.964196 111.769031 392.193147 111.477037 392.422098 111.188741 392.651049 110.904191 392.880000 110.623435 393.108951 110.346523 393.337902 110.073502 393.566853 109.804421 393.795804 109.539329 394.024755 109.278273 394.253706 109.021302 394.482657 108.768465 394.711608 108.519809 394.940559 108.275384 395.169510 108.035238 395.398462 107.799419 395.627413 107.567975 395.856364 107.340956 396.085315 107.118408 396.314266 106.900381 396.543217 106.686924 396.772168 106.478084 397.001119 106.273909 397.230070 106.074450 397.459021 105.879752 397.687972 105.689866 397.916923 105.504840 398.145874 105.324721 398.374825 105.149559 398.603776 104.979401 398.832727 104.814297 399.061678 104.654294 399.290629 104.499441 399.519580 104.349786 399.748531 104.205378 399.977483 104.066266 400.206434 103.932496 400.435385 103.804119 400.664336 103.681182 400.893287 103.563734 401.122238 103.451823 401.351189 103.345497 401.580140 103.244805 401.809091 103.149796 402.038042 103.060517 402.266993 102.977018 402.495944 102.899346 402.724895 102.827550 402.953846 102.761678 403.182797 102.701779 403.411748 102.647901 403.640699 102.600093 403.869650 102.558402 404.098601 102.522878 404.327552 102.493569 404.556503 102.470523 404.785455 102.453788 405.014406 102.443413 405.243357 102.439447 405.472308 102.441937 405.701259 102.450933 405.930210 102.466482 406.159161 102.488633 406.388112 102.517434 406.617063 102.552935 406.846014 102.595182 407.074965 102.644225 407.303916 102.700111 407.532867 102.762890 407.761818 102.832610 407.990769 102.909319 408.219720 102.993066 408.448671 103.083898 408.677622 103.181865 408.906573 103.287015 409.135524 103.399395 409.364476 103.519056 409.593427 103.646044 409.822378 103.780408 410.051329 103.922198 410.280280 104.071460 410.509231 104.228244 410.738182 104.392598 410.967133 104.564571 411.196084 104.744210 411.425035 104.931564 411.653986 105.126682 411.882937 105.329612 412.111888 105.540402 412.340839 105.759101 412.569790 105.985757 412.798741 106.220418 413.027692 106.463134 413.256643 106.713952 413.485594 106.972901 413.714545 107.239928 413.943497 107.514960 414.172448 107.797927 414.401399 108.088755 414.630350 108.387371 414.859301 108.693704 415.088252 109.007681 415.317203 109.329229 415.546154 109.658276 415.775105 109.994751 416.004056 110.338579 416.233007 110.689690 416.461958 111.048010 416.690909 111.413468 416.919860 111.785990 417.148811 112.165504 417.377762 112.551939 417.606713 112.945221 417.835664 113.345278 418.064615 113.752038 418.293566 114.165429 418.522517 114.585377 418.751469 115.011811 418.980420 115.444658 419.209371 115.883846 419.438322 116.329302 419.667273 116.780955 419.896224 117.238731 420.125175 117.702558 420.354126 118.172364 420.583077 118.648076 420.812028 119.129622 421.040979 119.616930 421.269930 120.109927 421.498881 120.608541 421.727832 121.112699 421.956783 121.622330 422.185734 122.137360 422.414685 122.657717 422.643636 123.183329 422.872587 123.714123 423.101538 124.250027 423.330490 124.790969 423.559441 125.336876 423.788392 125.887676 424.017343 126.443296 424.246294 127.003665 424.475245 127.568708 424.704196 128.138356 424.933147 128.712533 425.162098 129.291170 425.391049 129.874192 425.620000 130.461528 425.848951 131.053105 426.077902 131.648851 426.306853 132.248694 426.535804 132.852560 426.764755 133.460378 426.993706 134.072075 427.222657 134.687579 427.451608 135.306818 427.680559 135.929718 427.909510 136.556208 428.138462 137.186216 428.367413 137.819668 428.596364 138.456492 428.825315 139.096617 429.054266 139.739969 429.283217 140.386477 429.512168 141.036067 429.741119 141.688668 429.970070 142.344207 430.199021 143.002611 430.427972 143.663809 430.656923 144.327727 430.885874 144.994294 431.114825 145.663437 431.343776 146.335083 431.572727 147.009161 431.801678 147.685598 432.030629 148.364321 432.259580 149.045258 432.488531 149.728337 432.717483 150.413484 432.946434 151.100629 433.175385 151.789699 433.404336 152.480620 433.633287 153.173321 433.862238 153.867729 434.091189 154.563772 434.320140 155.261377 434.549091 155.960473 434.778042 156.660986 435.006993 157.362845 435.235944 158.065976 435.464895 158.770307 435.693846 159.475767 435.922797 160.182283 436.151748 160.889781 436.380699 161.598191 436.609650 162.307439 436.838601 163.017453 437.067552 163.728161 437.296503 164.439490 437.525455 165.151367 437.754406 165.863722 437.983357 166.576480 438.212308 167.289570 438.441259 168.002919 438.670210 168.716455 438.899161 169.430106 439.128112 170.143799 439.357063 170.857461 439.586014 171.571020 439.814965 172.284405 440.043916 172.997542 440.272867 173.710359 440.501818 174.422784 440.730769 175.134743 440.959720 175.846166 441.188671 176.556980 441.417622 177.267111 441.646573 177.976488 441.875524 178.685038 442.104476 179.392689 442.333427 180.099369 442.562378 180.805005 442.791329 181.509524 443.020280 182.212855 443.249231 182.914925 443.478182 183.615661 443.707133 184.314991 443.936084 185.012843 444.165035 185.709144 444.393986 186.403822 444.622937 187.096804 444.851888 187.788019 445.080839 188.477393 445.309790 189.164855 445.538741 189.850331 445.767692 190.533750 445.996643 191.215039 446.225594 191.894126 446.454545 192.570938 446.683497 193.245403 446.912448 193.917448 447.141399 194.587002 447.370350 195.253991 447.599301 195.918343 447.828252 196.579987 448.057203 197.238849 448.286154 197.894857 448.515105 198.547939 448.744056 199.198022 448.973007 199.845033 449.201958 200.488902 449.430909 201.129554 449.659860 201.766919 449.888811 202.400922 450.117762 203.031493 450.346713 203.658558 450.575664 204.282045 450.804615 204.901882 451.033566 205.517996 451.262517 206.130315 451.491469 206.738766 451.720420 207.343278 451.949371 207.943777 452.178322 208.540192 452.407273 209.132450 452.636224 209.720478 452.865175 210.304204 453.094126 210.883556 453.323077 211.458461 453.552028 212.028847 453.780979 212.594642 454.009930 213.155773 454.238881 213.712168 454.467832 214.263754 454.696783 214.810458 454.925734 215.352210 455.154685 215.888935 455.383636 216.420562 455.612587 216.947019 455.841538 217.468233 456.070490 217.984131 456.299441 218.494641 456.528392 218.999691 456.757343 219.499208 456.986294 219.993120 457.215245 220.481355 457.444196 220.963840 457.673147 221.440502 457.902098 221.911270 458.131049 222.376071 458.360000 222.834832 458.588951 223.287482 458.817902 223.733947 459.046853 224.174156 459.275804 224.608035 459.504755 225.035514 459.733706 225.456518 459.962657 225.870976 460.191608 226.278815 460.420559 226.679964 460.649510 227.074348 460.878462 227.461897 461.107413 227.842538 461.336364 228.216198 461.565315 228.582805 461.794266 228.942287 462.023217 229.294571 462.252168 229.639584 462.481119 229.977255 462.710070 230.307511 462.939021 230.630280 463.167972 230.945488 463.396923 231.253065 463.625874 231.552936 463.854825 231.845031 464.083776 232.129276 464.312727 232.405600 464.541678 232.673929 464.770629 232.934191 464.999580 233.186315 465.228531 233.430227 465.457483 233.665855 465.686434 233.893127 465.915385 234.111971 466.144336 234.322313 466.373287 234.524082 466.602238 234.717205 466.831189 234.901610 467.060140 235.077224 467.289091 235.243976 467.518042 235.401792 467.746993 235.550600 467.975944 235.690327 468.204895 235.820903 468.433846 235.942253 468.662797 236.054305 468.891748 236.156988 469.120699 236.250229 469.349650 236.333955 469.578601 236.408094 469.807552 236.472574 470.036503 236.527322 470.265455 236.572265 470.494406 236.607332 470.723357 236.632472 470.952308 236.647716 471.181259 236.653119 471.410210 236.648736 471.639161 236.634621 471.868112 236.610827 472.097063 236.577409 472.326014 236.534422 472.554965 236.481918 472.783916 236.419953 473.012867 236.348580 473.241818 236.267854 473.470769 236.177829 473.699720 236.078558 473.928671 235.970097 474.157622 235.852499 474.386573 235.725818 474.615524 235.590109 474.844476 235.445425 475.073427 235.291822 475.302378 235.129352 475.531329 234.958070 475.760280 234.778031 475.989231 234.589288 476.218182 234.391896 476.447133 234.185908 476.676084 233.971380 476.905035 233.748364 477.133986 233.516915 477.362937 233.277088 477.591888 233.028936 477.820839 232.772514 478.049790 232.507876 478.278741 232.235075 478.507692 231.954167 478.736643 231.665205 478.965594 231.368243 479.194545 231.063336 479.423497 230.750537 479.652448 230.429901 479.881399 230.101483 480.110350 229.765335 480.339301 229.421512 480.568252 229.070069 480.797203 228.711060 481.026154 228.344538 481.255105 227.970558 481.484056 227.589174 481.713007 227.200440 481.941958 226.804411 482.170909 226.401140 482.399860 225.990681 482.628811 225.573090 482.857762 225.148419 483.086713 224.716723 483.315664 224.278057 483.544615 223.832473 483.773566 223.380028 484.002517 222.920774 484.231469 222.454766 484.460420 221.982057 484.689371 221.502703 484.918322 221.016757 485.147273 220.524274 485.376224 220.025306 485.605175 219.519910 485.834126 219.008139 486.063077 218.490046 486.292028 217.965687 486.520979 217.435115 486.749930 216.898384 486.978881 216.355549 487.207832 215.806664 487.436783 215.251782 487.665734 214.690959 487.894685 214.124248 488.123636 213.551703 488.352587 212.973379 488.581538 212.389329 488.810490 211.799608 489.039441 211.204270 489.268392 210.603369 489.497343 209.996959 489.726294 209.385095 489.955245 208.767830 490.184196 208.145219 490.413147 207.517316 490.642098 206.884174 490.871049 206.245849 491.100000 205.602394 491.328951 204.953863 491.557902 204.300312 491.786853 203.641792 492.015804 202.978360 492.244755 202.310069 492.473706 201.636972 492.702657 200.959126 492.931608 200.276582 493.160559 199.589396 493.389510 198.897622 493.618462 198.201314 493.847413 197.500526 494.076364 196.795313 494.305315 196.085727 494.534266 195.371824 494.763217 194.653658 494.992168 193.931282 495.221119 193.204752 495.450070 192.474121 495.679021 191.739442 495.907972 191.000772 496.136923 190.258162 496.365874 189.511669 496.594825 188.761345 496.823776 188.007246 497.052727 187.249424 497.281678 186.487935 497.510629 185.722833 497.739580 184.954170 497.968531 184.182003 498.197483 183.406385 498.426434 182.627369 498.655385 181.845011 498.884336 181.059364 499.113287 180.270483 499.342238 179.478421 499.571189 178.683233 499.800140 177.884973 500.029091 177.083695 500.258042 176.279454 500.486993 175.472303 500.715944 174.662296 500.944895 173.849488 501.173846 173.033933 501.402797 172.215685 501.631748 171.394798 501.860699 170.571326 502.089650 169.745324 502.318601 168.916845 502.547552 168.085944 502.776503 167.252675 503.005455 166.417092 503.234406 165.579249 503.463357 164.739200 503.692308 163.897000 503.921259 163.052703 504.150210 162.206362 504.379161 161.358032 504.608112 160.507768 504.837063 159.655622 505.066014 158.801650 505.294965 157.945906 505.523916 157.088443 505.752867 156.229316 505.981818 155.368579 506.210769 154.506286 506.439720 153.642491 506.668671 152.777249 506.897622 151.910613 507.126573 151.042639 507.355524 150.173378 507.584476 149.302887 507.813427 148.431220 508.042378 147.558429 508.271329 146.684570 508.500280 145.809696 508.729231 144.933863 508.958182 144.057123 509.187133 143.179531 509.416084 142.301142 509.645035 141.422009 509.873986 140.542186 510.102937 139.661728 510.331888 138.780689 510.560839 137.899123 510.789790 137.017083 511.018741 136.134626 511.247692 135.251803 511.476643 134.368670 511.705594 133.485281 511.934545 132.601690 512.163497 131.717950 512.392448 130.834117 512.621399 129.950244 512.850350 129.066386 513.079301 128.182596 513.308252 127.298929 513.537203 126.415439 513.766154 125.532180 513.995105 124.649206 514.224056 123.766571 514.453007 122.884330 514.681958 122.002537 514.910909 121.121245 515.139860 120.240510 515.368811 119.360384 515.597762 118.480923 515.826713 117.602180 516.055664 116.724209 516.284615 115.847065 516.513566 114.970803 516.742517 114.095475 516.971469 113.221136 517.200420 112.347840 517.429371 111.475642 517.658322 110.604596 517.887273 109.734755 518.116224 108.866174 518.345175 107.998908 518.574126 107.133009 518.803077 106.268533 519.032028 105.405533 519.260979 104.544064 519.489930 103.684179 519.718881 102.825934 519.947832 101.969381 520.176783 101.114576 520.405734 100.261572 520.634685 99.410424 520.863636 98.561186 521.092587 97.713911 521.321538 96.868654 521.550490 96.025469 521.779441 95.184411 522.008392 94.345533 522.237343 93.508890 522.466294 92.674535 522.695245 91.842523 522.924196 91.012908 523.153147 90.185745 523.382098 89.361086 523.611049 88.538987 523.840000 87.719502 524.068951 86.902685 524.297902 86.088589 524.526853 85.277270 524.755804 84.468780 524.984755 83.663175 525.213706 82.860509 525.442657 82.060835 525.671608 81.264208 525.900559 80.470682 526.129510 79.680312 526.358462 78.893150 526.587413 78.109252 526.816364 77.328671 527.045315 76.551462 527.274266 75.777679 527.503217 75.007376 527.732168 74.240607 527.961119 73.477420 528.190070 72.717840 528.419021 71.961883 528.647972 71.209569 528.876923 70.460915 529.105874 69.715938 529.334825 68.974657 529.563776 68.237090 529.792727 67.503255 530.021678 66.773169 530.250629 66.046850 530.479580 65.324317 530.708531 64.605586 530.937483 63.890677 531.166434 63.179607 531.395385 62.472394 531.624336 61.769056 531.853287 61.069611 532.082238 60.374076 532.311189 59.682470 532.540140 58.994810 532.769091 58.311114 532.998042 57.631401 533.226993 56.955689 533.455944 56.283994 533.684895 55.616335 533.913846 54.952730 534.142797 54.293197 534.371748 53.637754 534.600699 52.986419 534.829650 52.339209 535.058601 51.696142 535.287552 51.057237 535.516503 50.422512 535.745455 49.791983 535.974406 49.165670 536.203357 48.543589 536.432308 47.925760 536.661259 47.312199 536.890210 46.702925 537.119161 46.097956 537.348112 45.497309 537.577063 44.901003 537.806014 44.309055 538.034965 43.721484 538.263916 43.138307 538.492867 42.559542 538.721818 41.985207 538.950769 41.415319 539.179720 40.849898 539.408671 40.288961 539.637622 39.732525 539.866573 39.180608 540.095524 38.633229 540.324476 38.090406 540.553427 37.552156 540.782378 37.018497 541.011329 36.489447 541.240280 35.965024 541.469231 35.445246 541.698182 34.930131 541.927133 34.419697 542.156084 33.913962 542.385035 33.412943 542.613986 32.916658 542.842937 32.425126 543.071888 31.938364 543.300839 31.456390 543.529790 30.979223 543.758741 30.506879 543.987692 30.039378 544.216643 29.576736 544.445594 29.118972 544.674545 28.666104 544.903497 28.218149 545.132448 27.775126 545.361399 27.337052 545.590350 26.903945 545.819301 26.475824 546.048252 26.052706 546.277203 25.634609 546.506154 25.221550 546.735105 24.813549 546.964056 24.410622 547.193007 24.012788 547.421958 23.620065 547.650909 23.232470 547.879860 22.850021 548.108811 22.472737 548.337762 22.100635 548.566713 21.733733 548.795664 21.372049 549.024615 21.015601 549.253566 20.664407 549.482517 20.318485 549.711469 19.977852 549.940420 19.642527 550.169371 19.312527 550.398322 18.987871 550.627273 18.668576 550.856224 18.354660 551.085175 18.046141 551.314126 17.743038 551.543077 17.445367 551.772028 17.153147 552.000979 16.866396 552.229930 16.585132 552.458881 16.309372 552.687832 16.039135 552.916783 15.774438 553.145734 15.515299 553.374685 15.261736 553.603636 15.013768 553.832587 14.771412 554.061538 14.534685 554.290490 14.303607 554.519441 14.078194 554.748392 13.858465 554.977343 13.644437 555.206294 13.436129 555.435245 13.233558 555.664196 13.036743 555.893147 12.845701 556.122098 12.660450 556.351049 12.481008 556.580000 12.307393 556.808951 12.139622 557.037902 11.977715 557.266853 11.821688 557.495804 11.671560 557.724755 11.527348 557.953706 11.389070 558.182657 11.256745 558.411608 11.130390 558.640559 11.010023 558.869510 10.895663 559.098462 10.787326 559.327413 10.685031 559.556364 10.588796 559.785315 10.498638 560.014266 10.414576 560.243217 10.336627 560.472168 10.264810 560.701119 10.199142 560.930070 10.139642 561.159021 10.086326 561.387972 10.039214 561.616923 9.998322 561.845874 9.963670 562.074825 9.935274 562.303776 9.913152 562.532727 9.897324 562.761678 9.887805 562.990629 9.884615 563.219580 9.887772 563.448531 9.897292 563.677483 9.913195 563.906434 9.935498 564.135385 9.964219 564.364336 9.999375 564.593287 10.040986 564.822238 10.089067 565.051189 10.143639 565.280140 10.204718 565.509091 10.272322 565.738042 10.346470 565.966993 10.427179 566.195944 10.514467 566.424895 10.608352 566.653846 10.708852 566.882797 10.815985 567.111748 10.929768 567.340699 11.050221 567.569650 11.177359 567.798601 11.311203 568.027552 11.451768 568.256503 11.599074 568.485455 11.753139 568.714406 11.913979 568.943357 12.081613 569.172308 12.256059 569.401259 12.437336 569.630210 12.625459 569.859161 12.820449 570.088112 13.022322 570.317063 13.231096 570.546014 13.446790 570.774965 13.669422 571.003916 13.899008 571.232867 14.135568 571.461818 14.379118 571.690769 14.629678 571.919720 14.887264 572.148671 15.151895 572.377622 15.423589 572.606573 15.702363 572.835524 15.988236 573.064476 16.281225 573.293427 16.581349 573.522378 16.888624 573.751329 17.203070 573.980280 17.524704 574.209231 17.853544 574.438182 18.189607 574.667133 18.532913 574.896084 18.883478 575.125035 19.241320 575.353986 19.606459 575.582937 19.978910 575.811888 20.358693 576.040839 20.745825 576.269790 21.140324 576.498741 21.542208 576.727692 21.951495 576.956643 22.368203 577.185594 22.792349 577.414545 23.223953 577.643497 23.663031 577.872448 24.109601 578.101399 24.563682 578.330350 25.025291 578.559301 25.494446 578.788252 25.971165 579.017203 26.455466 579.246154 26.947368 579.475105 27.446887 579.704056 27.954042 579.933007 28.468850 580.161958 28.991330 580.390909 29.521500 580.619860 30.059377 580.848811 30.604979 581.077762 31.158325 581.306713 31.719431 581.535664 32.288317 581.764615 32.864999 581.993566 33.449497 582.222517 34.041827 582.451469 34.642008 582.680420 35.250057 582.909371 35.865993 583.138322 36.489833 583.367273 37.121596 583.596224 37.761298 583.825175 38.408959 584.054126 39.064596 584.283077 39.728227 584.512028 40.399869 584.740979 41.079542 584.969930 41.767262 585.198881 42.463039 585.427832 43.166850 585.656783 43.878661 585.885734 44.598442 586.114685 45.326158 586.343636 46.061780 586.572587 46.805273 586.801538 47.556606 587.030490 48.315746 587.259441 49.082662 587.488392 49.857320 587.717343 50.639689 587.946294 51.429737 588.175245 52.227431 588.404196 53.032738 588.633147 53.845628 588.862098 54.666066 589.091049 55.494022 589.320000 56.329463 589.548951 57.172356 589.777902 58.022669 590.006853 58.880371 590.235804 59.745428 590.464755 60.617809 590.693706 61.497481 590.922657 62.384413 591.151608 63.278570 591.380559 64.179923 591.609510 65.088438 591.838462 66.004082 592.067413 66.926825 592.296364 67.856632 592.525315 68.793473 592.754266 69.737315 592.983217 70.688126 593.212168 71.645872 593.441119 72.610523 593.670070 73.582046 593.899021 74.560409 594.127972 75.545579 594.356923 76.537524 594.585874 77.536211 594.814825 78.541610 595.043776 79.553686 595.272727 80.572409 595.501678 81.597745 595.730629 82.629663 595.959580 83.668130 596.188531 84.713114 596.417483 85.764583 596.646434 86.822504 596.875385 87.886845 597.104336 88.957575 597.333287 90.034660 597.562238 91.118068 597.791189 92.207768 598.020140 93.303726 598.249091 94.405911 598.478042 95.514291 598.706993 96.628832 598.935944 97.749504 599.164895 98.876273 599.393846 100.009107 599.622797 101.147974 599.851748 102.292842 600.080699 103.443679 600.309650 104.600452 600.538601 105.763129 600.767552 106.931677 600.996503 108.106065 601.225455 109.286260 601.454406 110.472231 601.683357 111.663943 601.912308 112.861367 602.141259 114.064468 602.370210 115.273216 602.599161 116.487577 602.828112 117.707519 603.057063 118.933010 603.286014 120.164019 603.514965 121.400512 603.743916 122.642457 603.972867 123.889822 604.201818 125.142575 604.430769 126.400684 604.659720 127.664116 604.888671 128.932839 605.117622 130.206820 605.346573 131.486029 605.575524 132.770431 605.804476 134.059995 606.033427 135.354689 606.262378 136.654481 606.491329 137.959338 606.720280 139.269227 606.949231 140.584117 607.178182 141.903976 607.407133 143.228771 607.636084 144.558469 607.865035 145.893040 608.093986 147.232449 608.322937 148.576666 608.551888 149.925657 608.780839 151.279391 609.009790 152.637836 609.238741 154.000958 609.467692 155.368726 609.696643 156.741108 609.925594 158.118070 610.154545 159.499582 610.383497 160.885611 610.612448 162.276124 610.841399 163.671089 611.070350 165.070474 611.299301 166.474247 611.528252 167.882375 611.757203 169.294826 611.986154 170.711569 612.215105 172.132570 612.444056 173.557797 612.673007 174.987218 612.901958 176.420801 613.130909 177.858514 613.359860 179.300324 613.588811 180.746199 613.817762 182.196107 614.046713 183.650015 614.275664 185.107892 614.504615 186.569704 614.733566 188.035421 614.962517 189.505009 615.191469 190.978436 615.420420 192.455670 615.649371 193.936678 615.878322 195.421429 616.107273 196.909891 616.336224 198.402030 616.565175 199.897815 616.794126 201.397213 617.023077 202.900192 617.252028 204.406720 617.480979 205.916765 617.709930 207.430294 617.938881 208.947275 618.167832 210.467676 618.396783 211.991464 618.625734 213.518608 618.854685 215.049075 619.083636 216.582832 619.312587 218.119848 619.541538 219.660090 619.770490 221.203527 619.999441 222.750125 620.228392 224.299852 620.457343 225.852676 620.686294 227.408566 620.915245 228.967488 621.144196 230.529410 621.373147 232.094301 621.602098 233.662127 621.831049 235.232857 622.060000 236.806459 622.288951 238.382899 622.517902 239.962146 622.746853 241.544168 622.975804 243.128932 623.204755 244.716407 623.433706 246.306559 623.662657 247.899356 623.891608 249.494767 624.120559 251.092758 624.349510 252.693299 624.578462 254.296356 624.807413 255.901897 625.036364 257.509890 625.265315 259.120302 625.494266 260.733102 625.723217 262.348257 625.952168 263.965736 626.181119 265.585504 626.410070 267.207531 626.639021 268.831784 626.867972 270.458231 627.096923 272.086840 627.325874 273.717578 627.554825 275.350413 627.783776 276.985313 628.012727 278.622245 628.241678 280.261177 628.470629 281.902078 628.699580 283.544914 628.928531 285.189654 629.157483 286.836265 629.386434 288.484714 629.615385 290.134971 629.844336 291.787002 630.073287 293.440775 630.302238 295.096258 630.531189 296.753419 630.760140 298.412225 630.989091 300.072644 631.218042 301.734644 631.446993 303.398193 631.675944 305.063258 631.904895 306.729807 632.133846 308.397807 632.362797 310.067228 632.591748 311.738035 632.820699 313.410198 633.049650 315.083683 633.278601 316.758459 633.507552 318.434493 633.736503 320.111753 633.965455 321.790207 634.194406 323.469822 634.423357 325.150567 634.652308 326.832408 634.881259 328.515314 635.110210 330.199252 635.339161 331.884191 635.568112 333.570097 635.797063 335.256939 636.026014 336.944685 636.254965 338.633301 636.483916 340.322756 636.712867 342.013018 636.941818 343.704054 637.170769 345.395832 637.399720 347.088320 637.628671 348.781485 637.857622 350.475296 638.086573 352.169719 638.315524 353.864724 638.544476 355.560277 638.773427 357.256346 639.002378 358.952898 639.231329 360.649903 639.460280 362.347327 639.689231 364.045138 639.918182 365.743304 640.147133 367.441793 640.376084 369.140572 640.605035 370.839609 640.833986 372.538872 641.062937 374.238328 641.291888 375.937946 641.520839 377.637693 641.749790 379.337537 641.978741 381.037445 642.207692 382.737385 642.207692 514.000000" /></g></g><g class="titles"><text class="title plot_title" x="400.0" y="26">Ari 50</text></g><g class="plot overlay" transform="translate(125, 46)"><g class="series serie-0 color-0"><g class="dots"><circle class="dot reactive tooltip-trigger" cx="12.592307692307692" cy="220.37065988840345" r="2.5" /><desc class="value">290000</desc><desc class="x ">12.592307692307692</desc><desc class="y ">220.37065988840345</desc><desc class="x_label">Jan</desc></g><g class="dots"><circle class="dot reactive tooltip-trigger" cx="69.83006993006993" cy="293.43568636510145" r="2.5" /><desc class="value">281000</desc><desc class="x top">69.83006993006993</desc><desc class="y top">293.43568636510145</desc><desc class="x_label">Feb</desc></g><g class="dots"><circle class="dot reactive tooltip-trigger" cx="127.06783216783215" cy="90.47727948538488" r="2.5" /><desc class="value">306000</desc><desc class="x ">127.06783216783215</desc><desc class="y ">90.47727948538488</desc><desc class="x_label">Mar</desc></g><g class="dots"><circle class="dot reactive tooltip-trigger" cx="184.30559440559438" cy="496.39409324481795" r="2.5" /><desc class="value">256000</desc><desc class="x top">184.30559440559438</desc><desc class="y top">496.39409324481795</desc><desc class="x_label">Apr</desc></g><g class="dots"><circle class="dot reactive tooltip-trigger" cx="241.54335664335662" cy="244.72566871396947" r="2.5" /><desc class="value">287000</desc><desc class="x ">241.54335664335662</desc><desc class="y ">244.72566871396947</desc><desc class="x_label">May</desc></g><g class="dots"><circle class="dot reactive tooltip-trigger" cx="298.78111888111886" cy="163.54230596208282" r="2.5" /><desc class="value">297000</desc><desc class="x ">298.78111888111886</desc><desc class="y ">163.54230596208282</desc><desc class="x_label">Jun</desc></g><g class="dots"><circle class="dot reactive tooltip-trigger" cx="356.0188811188811" cy="171.66064223727153" r="2.5" /><desc class="value">296000</desc><desc class="x left">356.0188811188811</desc><desc class="y left">171.66064223727153</desc><desc class="x_label">Jul</desc></g><g class="dots"><circle class="dot reactive tooltip-trigger" cx="413.25664335664334" cy="106.71395203576225" r="2.5" /><desc class="value">304000</desc><desc class="x left">413.25664335664334</desc><desc class="y left">106.71395203576225</desc><desc class="x_label">Aug</desc></g><g class="dots"><circle class="dot reactive tooltip-trigger" cx="470.4944055944056" cy="236.60733243878082" r="2.5" /><desc class="value">288000</desc><desc class="x left">470.4944055944056</desc><desc class="y left">236.60733243878082</desc><desc class="x_label">Sep</desc></g><g class="dots"><circle class="dot reactive tooltip-trigger" cx="527.7321678321679" cy="74.24060693500758" r="2.5" /><desc class="value">308000</desc><desc class="x left">527.7321678321679</desc><desc class="y left">74.24060693500758</desc><desc class="x_label">Oct</desc></g><g class="dots"><circle class="dot reactive tooltip-trigger" cx="584.96993006993" cy="41.767261834252906" r="2.5" /><desc class="value">312000</desc><desc class="x left">584.96993006993</desc><desc class="y left">41.767261834252906</desc><desc class="x_label">Nov</desc></g><g class="dots"><circle class="dot reactive tooltip-trigger" cx="642.2076923076922" cy="382.73738539217675" r="2.5" /><desc class="value">270000</desc><desc class="x left top">642.2076923076922</desc><desc class="y left top">382.73738539217675</desc><desc class="x_label">Dec</desc></g></g></g><g class="plot text-overlay" transform="translate(125, 46)"><g class="series serie-0 color-0" /></g><g class="plot tooltip-overlay" transform="translate(125, 46)"><g class="tooltip" style="opacity: 0" transform="translate(0 0)"><rect class="tooltip-box" height="0" rx="0" ry="0" width="0" /><g class="text" /></g></g><g class="legends" transform="translate(10, 56)"><g class="legend reactive activate-serie" id="activate-serie-0"><rect class="color-0 reactive" height="12" width="12" x="0.0" y="1.0" /><text x="17.0" y="11.2">Ari</text></g></g><g class="legends" transform="translate(790, 56)" /></g></svg>