<?xml version='1.0' encoding='utf-8'?>
<svg xmlns:xlink="http://www.w3.org/1999/xlink" class="pygal-chart" id="chart-6334e16c-03d8-4be8-a0f6-3ed728655db3" viewBox="0 0 800 600" xmlns="http://www.w3.org/2000/svg"><!--Generated with pygal 2.0.11 (etree) ©Kozea 2011-2015 on 2015-12-10--><!--http://pygal.org--><!--http://github.com/Kozea/pygal--><defs><style type="text/css">#chart-6334e16c-03d8-4be8-a0f6-3ed728655db3{-webkit-user-select:none;-webkit-font-smoothing:antialiased;font-family:Consolas,"Liberation Mono",Menlo,Courier,monospace}#chart-6334e16c-03d8-4be8-a0f6-3ed728655db3 .title{font-family:Consolas,"Liberation Mono",Menlo,Courier,monospace;font-size:16px}#chart-6334e16c-03d8-4be8-a0f6-3ed728655db3 .legends .legend text{font-family:Consolas,"Liberation Mono",Menlo,Courier,monospace;font-size:14px}#chart-6334e16c-03d8-4be8-a0f6-3ed728655db3 .axis text{font-family:Consolas,"Liberation Mono",Menlo,Courier,monospace;font-size:10px}#chart-6334e16c-03d8-4be8-a0f6-3ed728655db3 .axis text.major{font-family:Consolas,"Liberation Mono",Menlo,Courier,monospace;font-size:10px}#chart-6334e16c-03d8-4be8-a0f6-3ed728655db3 .text-overlay text.value{font-family:Consolas,"Liberation Mono",Menlo,Courier,monospace;font-size:16px}#chart-6334e16c-03d8-4be8-a0f6-3ed728655db3 .text-overlay text.label{font-family:Consolas,"Liberation Mono",Menlo,Courier,monospace;font-size:10px}#chart-6334e16c-03d8-4be8-a0f6-3ed728655db3 .tooltip{font-family:Consolas,"Liberation Mono",Menlo,Courier,monospace;font-size:14px}#chart-6334e16c-03d8-4be8-a0f6-3ed728655db3 text.no_data{font-family:Consolas,"Liberation Mono",Menlo,Courier,monospace;font-size:64px}
#chart-6334e16c-03d8-4be8-a0f6-3ed728655db3{background-color:black}#chart-6334e16c-03d8-4be8-a0f6-3ed728655db3 path,#chart-6334e16c-03d8-4be8-a0f6-3ed728655db3 line,#chart-6334e16c-03d8-4be8-a0f6-3ed728655db3 rect,#chart-6334e16c-03d8-4be8-a0f6-3ed728655db3 circle{-webkit-transition:250ms;-moz-transition:250ms;transition:250ms}#chart-6334e16c-03d8-4be8-a0f6-3ed728655db3 .graph &gt; .background{fill:black}#chart-6334e16c-03d8-4be8-a0f6-3ed728655db3 .plot &gt; .background{fill:#111}#chart-6334e16c-03d8-4be8-a0f6-3ed728655db3 .graph{fill:#999}#chart-6334e16c-03d8-4be8-a0f6-3ed728655db3 text.no_data{fill:#eee}#chart-6334e16c-03d8-4be8-a0f6-3ed728655db3 .title{fill:#eee}#chart-6334e16c-03d8-4be8-a0f6-3ed728655db3 .legends .legend text{fill:#999}#chart-6334e16c-03d8-4be8-a0f6-3ed728655db3 .legends .legend:hover text{fill:#eee}#chart-6334e16c-03d8-4be8-a0f6-3ed728655db3 .axis .line{stroke:#eee}#chart-6334e16c-03d8-4be8-a0f6-3ed728655db3 .axis .guide.line{stroke:#555}#chart-6334e16c-03d8-4be8-a0f6-3ed728655db3 .axis .major.line{stroke:#999}#chart-6334e16c-03d8-4be8-a0f6-3ed728655db3 .axis text.major{fill:#eee}#chart-6334e16c-03d8-4be8-a0f6-3ed728655db3 .axis.y .guides:hover .guide.line,#chart-6334e16c-03d8-4be8-a0f6-3ed728655db3 .line-graph .axis.x .guides:hover .guide.line,#chart-6334e16c-03d8-4be8-a0f6-3ed728655db3 .stackedline-graph .axis.x .guides:hover .guide.line,#chart-6334e16c-03d8-4be8-a0f6-3ed728655db3 .xy-graph .axis.x .guides:hover .guide.line{stroke:#eee}#chart-6334e16c-03d8-4be8-a0f6-3ed728655db3 .axis .guides:hover text{fill:#eee}#chart-6334e16c-03d8-4be8-a0f6-3ed728655db3 .reactive{fill-opacity:.8}#chart-6334e16c-03d8-4be8-a0f6-3ed728655db3 .reactive.active,#chart-6334e16c-03d8-4be8-a0f6-3ed728655db3 .active .reactive{fill-opacity:.4;stroke-width:4}#chart-6334e16c-03d8-4be8-a0f6-3ed728655db3 .series text{fill:#eee}#chart-6334e16c-03d8-4be8-a0f6-3ed728655db3 .tooltip rect{fill:#111;stroke:#eee;-webkit-transition:opacity 250ms;-moz-transition:opacity 250ms;transition:opacity 250ms}#chart-6334e16c-03d8-4be8-a0f6-3ed728655db3 .tooltip .label{fill:#999}#chart-6334e16c-03d8-4be8-a0f6-3ed728655db3 .tooltip .label{fill:#999}#chart-6334e16c-03d8-4be8-a0f6-3ed728655db3 .tooltip .legend{font-size:.8em;fill:#555}#chart-6334e16c-03d8-4be8-a0f6-3ed728655db3 .tooltip .x_label{font-size:.6em;fill:#eee}#chart-6334e16c-03d8-4be8-a0f6-3ed728655db3 .tooltip .xlink{font-size:.5em;text-decoration:underline}#chart-6334e16c-03d8-4be8-a0f6-3ed728655db3 .tooltip .value{font-size:1.5em}#chart-6334e16c-03d8-4be8-a0f6-3ed728655db3 .map-element{fill:#111;stroke:#555 !important}#chart-6334e16c-03d8-4be8-a0f6-3ed728655db3 .map-element .reactive{fill-opacity:inherit}#chart-6334e16c-03d8-4be8-a0f6-3ed728655db3 .color-0,#chart-6334e16c-03d8-4be8-a0f6-3ed728655db3 .color-0 a:visited{stroke:#ff5995;fill:#ff5995}#chart-6334e16c-03d8-4be8-a0f6-3ed728655db3 .text-overlay .color-0 text{fill:black}
#chart-6334e16c-03d8-4be8-a0f6-3ed728655db3 text.no_data{text-anchor:middle}#chart-6334e16c-03d8-4be8-a0f6-3ed728655db3 .guide.line{fill:none}#chart-6334e16c-03d8-4be8-a0f6-3ed728655db3 .centered{text-anchor:middle}#chart-6334e16c-03d8-4be8-a0f6-3ed728655db3 .title{text-anchor:middle}#chart-6334e16c-03d8-4be8-a0f6-3ed728655db3 .legends .legend text{fill-opacity:1}#chart-6334e16c-03d8-4be8-a0f6-3ed728655db3 .axis.x text{text-anchor:middle}#chart-6334e16c-03d8-4be8-a0f6-3ed728655db3 .axis.x:not(.web) text[transform]{text-anchor:start}#chart-6334e16c-03d8-4be8-a0f6-3ed728655db3 .axis.x:not(.web) text[transform].backwards{text-anchor:end}#chart-6334e16c-03d8-4be8-a0f6-3ed728655db3 .axis.y text{text-anchor:end}#chart-6334e16c-03d8-4be8-a0f6-3ed728655db3 .axis.y text[transform].backwards{text-anchor:start}#chart-6334e16c-03d8-4be8-a0f6-3ed728655db3 .axis.y2 text{text-anchor:start}#chart-6334e16c-03d8-4be8-a0f6-3ed728655db3 .axis.y2 text[transform].backwards{text-anchor:end}#chart-6334e16c-03d8-4be8-a0f6-3ed728655db3 .axis .guide.line{stroke-dasharray:4,4}#chart-6334e16c-03d8-4be8-a0f6-3ed728655db3 .axis .major.guide.line{stroke-dasharray:6,6}#chart-6334e16c-03d8-4be8-a0f6-3ed728655db3 .horizontal .axis.y .guide.line,#chart-6334e16c-03d8-4be8-a0f6-3ed728655db3 .horizontal .axis.y2 .guide.line,#chart-6334e16c-03d8-4be8-a0f6-3ed728655db3 .vertical .axis.x .guide.line{opacity:0}#chart-6334e16c-03d8-4be8-a0f6-3ed728655db3 .horizontal .axis.always_show .guide.line,#chart-6334e16c-03d8-4be8-a0f6-3ed728655db3 .vertical .axis.always_show .guide.line{opacity:1 !important}#chart-6334e16c-03d8-4be8-a0f6-3ed728655db3 .axis.y .guides:hover .guide.line,#chart-6334e16c-03d8-4be8-a0f6-3ed728655db3 .axis.y2 .guides:hover .guide.line,#chart-6334e16c-03d8-4be8-a0f6-3ed728655db3 .axis.x .guides:hover .guide.line{opacity:1}#chart-6334e16c-03d8-4be8-a0f6-3ed728655db3 .axis .guides:hover text{opacity:1}#chart-6334e16c-03d8-4be8-a0f6-3ed728655db3 .nofill{fill:none}#chart-6334e16c-03d8-4be8-a0f6-3ed728655db3 .subtle-fill{fill-opacity:.2}#chart-6334e16c-03d8-4be8-a0f6-3ed728655db3 .dot{stroke-width:1px;fill-opacity:1}#chart-6334e16c-03d8-4be8-a0f6-3ed728655db3 .dot.active{stroke-width:5px}#chart-6334e16c-03d8-4be8-a0f6-3ed728655db3 .dot.negative{fill:transparent}#chart-6334e16c-03d8-4be8-a0f6-3ed728655db3 text,#chart-6334e16c-03d8-4be8-a0f6-3ed728655db3 tspan{stroke:none !important}#chart-6334e16c-03d8-4be8-a0f6-3ed728655db3 .series text.active{opacity:1}#chart-6334e16c-03d8-4be8-a0f6-3ed728655db3 .tooltip rect{fill-opacity:.95;stroke-width:.5}#chart-6334e16c-03d8-4be8-a0f6-3ed728655db3 .tooltip text{fill-opacity:1}#chart-6334e16c-03d8-4be8-a0f6-3ed728655db3 .showable{visibility:hidden}#chart-6334e16c-03d8-4be8-a0f6-3ed728655db3 .showable.shown{visibility:visible}</style><script type="text/javascript">window.pygal = window.pygal || {};window.pygal.config = window.pygal.config || {};window.pygal.config['6334e16c-03d8-4be8-a0f6-3ed728655db3'] = {"css": ["file://style.css", "file://graph.css"], "legend_at_bottom": false, "stroke_style": null, "missing_value_fill_truncation": "x", "tooltip_border_radius": 0, "inner_radius": 0, "min_scale": 4, "show_x_guides": false, "y_label_rotation": 0, "show_only_major_dots": false, "interpolation_precision": 250, "margin_right": null, "x_label_rotation": 0, "dynamic_print_values": false, "margin_top": null, "x_labels_major_count": null, "js": ["//kozea.github.io/pygal.js/2.0.x/pygal-tooltips.min.js"], "interpolation_parameters": {}, "no_prefix": false, "title": "Asok 50", "x_labels": ["Jan", "Feb", "Mar", "Apr", "May", "Jun", "Jul", "Aug", "Sep", "Oct", "Nov", "Dec"], "width": 800, "range": null, "show_y_guides": true, "truncate_legend": null, "force_uri_protocol": null, "x_title": null, "interpolate": "cubic", "fill": true, "print_zeroes": true, "margin_left": null, "legend_box_size": 12, "show_minor_y_labels": true, "logarithmic": false, "legend_at_bottom_columns": null, "value_formatter": null, "stroke": true, "margin_bottom": null, "pretty_print": false, "show_minor_x_labels": true, "y_labels_major_count": null, "disable_xml_declaration": false, "y_labels_major_every": null, "truncate_label": null, "stack_from_top": false, "defs": [], "human_readable": false, "include_x_axis": false, "show_legend": true, "tooltip_fancy_mode": true, "y_title": null, "style": {"tooltip_font_size": 14, "major_label_font_family": "Consolas, \"Liberation Mono\", Menlo, Courier, monospace", "value_font_family": "Consolas, \"Liberation Mono\", Menlo, Courier, monospace", "foreground": "#999", "tooltip_font_family": "Consolas, \"Liberation Mono\", Menlo, Courier, monospace", "opacity": ".8", "font_family": "Consolas, \"Liberation Mono\", Menlo, Courier, monospace", "foreground_subtle": "#555", "colors": ["#ff5995", "#b6e354", "#feed6c", "#8cedff", "#9e6ffe", "#899ca1", "#f8f8f2", "#bf4646", "#516083", "#f92672", "#82b414", "#fd971f", "#56c2d6", "#808384", "#8c54fe", "#465457"], "foreground_strong": "#eee", "no_data_font_size": 64, "opacity_hover": ".4", "plot_background": "#111", "value_font_size": 16, "legend_font_family": "Consolas, \"Liberation Mono\", Menlo, Courier, monospace", "value_label_font_size": 10, "major_guide_stroke_dasharray": "6,6", "legend_font_size": 14, "label_font_family": "Consolas, \"Liberation Mono\", Menlo, Courier, monospace", "label_font_size": 10, "transition": "250ms", "title_font_size": 16, "value_label_font_family": "Consolas, \"Liberation Mono\", Menlo, Courier, monospace", "background": "black", "title_font_family": "Consolas, \"Liberation Mono\", Menlo, Courier, monospace", "value_colors": [], "no_data_font_family": "Consolas, \"Liberation Mono\", Menlo, Courier, monospace", "guide_stroke_dasharray": "4,4", "major_label_font_size": 10}, "strict": false, "xrange": null, "rounded_bars": null, "x_labels_major": null, "dots_size": 2.5, "show_dots": true, "order_min": null, "no_data_text": "No data", "y_labels": null, "print_labels": false, "spacing": 10, "y_labels_major": null, "print_values": false, "legends": ["Asok"], "zero": 0, "height": 600, "margin": 20, "box_mode": "extremes", "show_y_labels": true, "inverse_y_axis": false, "max_scale": 16, "show_x_labels": true, "explicit_size": false, "x_value_formatter": null, "secondary_range": null, "x_labels_major_every": null, "half_pie": false}</script><script type="text/javascript" xlink:href="//kozea.github.io/pygal.js/2.0.x/pygal-tooltips.min.js" /></defs><title>Asok 50</title><g class="graph line-graph vertical"><rect class="background" height="600" width="800" x="0" y="0" /><g class="plot" transform="translate(133, 46)"><rect class="background" height="514" width="646.4" x="0" y="0" /><g class="axis y"><path class="line" d="M0.000000 514.000000 h646.400000" /><g class="guides"><path class="guide line" d="M0.000000 455.336267 h646.400000" /><text class="" x="-5" y="458.83626676806887">640000.0</text><title>640000.0</title></g><g class="guides"><path class="guide line" d="M0.000000 395.175951 h646.400000" /><text class="" x="-5" y="398.67595080402094">660000.0</text><title>660000.0</title></g><g class="guides"><path class="guide line" d="M0.000000 335.015635 h646.400000" /><text class="" x="-5" y="338.515634839973">680000.0</text><title>680000.0</title></g><g class="guides"><path class="major guide line" d="M0.000000 274.855319 h646.400000" /><text class="major" x="-5" y="278.35531887592504">700000.0</text><title>700000.0</title></g><g class="guides"><path class="guide line" d="M0.000000 214.695003 h646.400000" /><text class="" x="-5" y="218.19500291187705">720000.0</text><title>720000.0</title></g><g class="guides"><path class="guide line" d="M0.000000 154.534687 h646.400000" /><text class="" x="-5" y="158.03468694782907">740000.0</text><title>740000.0</title></g><g class="guides"><path class="guide line" d="M0.000000 94.374371 h646.400000" /><text class="" x="-5" y="97.87437098378109">760000.0</text><title>760000.0</title></g><g class="guides"><path class="guide line" d="M0.000000 34.214055 h646.400000" /><text class="" x="-5" y="37.71405501973311">780000.0</text><title>780000.0</title></g></g><g class="axis x"><g class="guides"><path class="line" d="M12.430769 0.000000 v514.000000" /><text class="" x="12.43076923076923" y="529.0">Jan</text></g><g class="guides"><path class="guide line" d="M68.934266 0.000000 v514.000000" /><text class="" x="68.93426573426574" y="529.0">Feb</text></g><g class="guides"><path class="guide line" d="M125.437762 0.000000 v514.000000" /><text class="" x="125.43776223776223" y="529.0">Mar</text></g><g class="guides"><path class="guide line" d="M181.941259 0.000000 v514.000000" /><text class="" x="181.94125874125874" y="529.0">Apr</text></g><g class="guides"><path class="guide line" d="M238.444755 0.000000 v514.000000" /><text class="" x="238.44475524475524" y="529.0">May</text></g><g class="guides"><path class="guide line" d="M294.948252 0.000000 v514.000000" /><text class="" x="294.9482517482517" y="529.0">Jun</text></g><g class="guides"><path class="guide line" d="M351.451748 0.000000 v514.000000" /><text class="" x="351.4517482517482" y="529.0">Jul</text></g><g class="guides"><path class="guide line" d="M407.955245 0.000000 v514.000000" /><text class="" x="407.95524475524473" y="529.0">Aug</text></g><g class="guides"><path class="guide line" d="M464.458741 0.000000 v514.000000" /><text class="" x="464.45874125874127" y="529.0">Sep</text></g><g class="guides"><path class="guide line" d="M520.962238 0.000000 v514.000000" /><text class="" x="520.9622377622377" y="529.0">Oct</text></g><g class="guides"><path class="guide line" d="M577.465734 0.000000 v514.000000" /><text class="" x="577.4657342657342" y="529.0">Nov</text></g><g class="guides"><path class="guide line" d="M633.969231 0.000000 v514.000000" /><text class="" x="633.9692307692308" y="529.0">Dec</text></g></g><g class="series serie-0 color-0"><path class="line reactive" d="M12.430769 514.000000 L12.430769 211.686987 12.656783 212.376308 12.882797 213.065587 13.108811 213.754779 13.334825 214.443841 13.560839 215.132732 13.786853 215.821407 14.012867 216.509824 14.238881 217.197939 14.464895 217.885710 14.690909 218.573092 14.916923 219.260045 15.142937 219.946523 15.368951 220.632485 15.594965 221.317886 15.820979 222.002685 16.046993 222.686837 16.273007 223.370300 16.499021 224.053031 16.725035 224.734987 16.951049 225.416124 17.177063 226.096400 17.403077 226.775771 17.629091 227.454194 17.855105 228.131627 18.081119 228.808026 18.307133 229.483348 18.533147 230.157551 18.759161 230.830590 18.985175 231.502423 19.211189 232.173007 19.437203 232.842299 19.663217 233.510256 19.889231 234.176834 20.115245 234.841991 20.341259 235.505683 20.567273 236.167868 20.793287 236.828502 21.019301 237.487542 21.245315 238.144945 21.471329 238.800669 21.697343 239.454670 21.923357 240.106904 22.149371 240.757330 22.375385 241.405903 22.601399 242.052581 22.827413 242.697321 23.053427 243.340079 23.279441 243.980813 23.505455 244.619479 23.731469 245.256035 23.957483 245.890437 24.183497 246.522642 24.409510 247.152607 24.635524 247.780290 24.861538 248.405646 25.087552 249.028633 25.313566 249.649208 25.539580 250.267328 25.765594 250.882950 25.991608 251.496030 26.217622 252.106526 26.443636 252.714395 26.669650 253.319593 26.895664 253.922077 27.121678 254.521804 27.347692 255.118732 27.573706 255.712816 27.799720 256.304015 28.025734 256.892285 28.251748 257.477583 28.477762 258.059865 28.703776 258.639089 28.929790 259.215212 29.155804 259.788191 29.381818 260.357982 29.607832 260.924542 29.833846 261.487829 30.059860 262.047799 30.285874 262.604409 30.511888 263.157617 30.737902 263.707378 30.963916 264.253651 31.189930 264.796392 31.415944 265.335557 31.641958 265.871104 31.867972 266.402990 32.093986 266.931172 32.320000 267.455606 32.546014 267.976249 32.772028 268.493059 32.998042 269.005993 33.224056 269.515006 33.450070 270.020057 33.676084 270.521102 33.902098 271.018098 34.128112 271.511002 34.354126 271.999771 34.580140 272.484362 34.806154 272.964731 35.032168 273.440836 35.258182 273.912634 35.484196 274.380081 35.710210 274.843135 35.936224 275.301752 36.162238 275.755889 36.388252 276.205504 36.614266 276.650553 36.840280 277.090992 37.066294 277.526780 37.292308 277.957873 37.518322 278.384228 37.744336 278.805801 37.970350 279.222551 38.196364 279.634432 38.422378 280.041404 38.648392 280.443422 38.874406 280.840443 39.100420 281.232425 39.326434 281.619324 39.552448 282.001097 39.778462 282.377701 40.004476 282.749093 40.230490 283.115230 40.456503 283.476070 40.682517 283.831568 40.908531 284.181681 41.134545 284.526368 41.360559 284.865584 41.586573 285.199286 41.812587 285.527432 42.038601 285.849979 42.264615 286.166883 42.490629 286.478101 42.716643 286.783590 42.942657 287.083307 43.168671 287.377209 43.394685 287.665253 43.620699 287.947396 43.846713 288.223595 44.072727 288.493807 44.298741 288.757988 44.524755 289.016096 44.750769 289.268087 44.976783 289.513919 45.202797 289.753548 45.428811 289.986931 45.654825 290.214025 45.880839 290.434788 46.106853 290.649176 46.332867 290.857145 46.558881 291.058654 46.784895 291.253658 47.010909 291.442115 47.236923 291.623982 47.462937 291.799216 47.688951 291.967773 47.914965 292.129610 48.140979 292.284685 48.366993 292.432954 48.593007 292.574374 48.819021 292.708903 49.045035 292.836497 49.271049 292.957112 49.497063 293.070707 49.723077 293.177237 49.949091 293.276661 50.175105 293.368934 50.401119 293.454013 50.627133 293.531856 50.853147 293.602420 51.079161 293.665661 51.305175 293.721537 51.531189 293.770003 51.757203 293.811018 51.983217 293.844539 52.209231 293.870521 52.435245 293.888922 52.661259 293.899699 52.887273 293.902809 53.113287 293.898208 53.339301 293.885855 53.565315 293.865705 53.791329 293.837715 54.017343 293.801843 54.243357 293.758045 54.469371 293.706279 54.695385 293.646501 54.921399 293.578668 55.147413 293.502737 55.373427 293.418665 55.599441 293.326409 55.825455 293.225926 56.051469 293.117173 56.277483 293.000106 56.503497 292.874684 56.729510 292.740861 56.955524 292.598596 57.181538 292.447846 57.407552 292.288567 57.633566 292.120716 57.859580 291.944251 58.085594 291.759127 58.311608 291.565303 58.537622 291.362735 58.763636 291.151379 58.989650 290.931194 59.215664 290.702135 59.441678 290.464160 59.667692 290.217225 59.893706 289.961288 60.119720 289.696306 60.345734 289.422235 60.571748 289.139032 60.797762 288.846654 61.023776 288.545059 61.249790 288.234203 61.475804 287.914042 61.701818 287.584535 61.927832 287.245638 62.153846 286.897307 62.379860 286.539500 62.605874 286.172174 62.831888 285.795285 63.057902 285.408791 63.283916 285.012648 63.509930 284.606814 63.735944 284.191245 63.961958 283.765898 64.187972 283.330730 64.413986 282.885698 64.640000 282.430760 64.866014 281.965871 65.092028 281.490989 65.318042 281.006071 65.544056 280.511073 65.770070 280.005953 65.996084 279.490668 66.222098 278.965174 66.448112 278.429428 66.674126 277.883388 66.900140 277.327010 67.126154 276.760252 67.352168 276.183069 67.578182 275.595419 67.804196 274.997260 68.030210 274.388547 68.256224 273.769238 68.482238 273.139290 68.708252 272.498659 68.934266 271.847303 69.160280 271.185207 69.386294 270.512472 69.612308 269.829225 69.838322 269.135596 70.064336 268.431714 70.290350 267.717706 70.516364 266.993703 70.742378 266.259832 70.968392 265.516223 71.194406 264.763004 71.420420 264.000304 71.646434 263.228251 71.872448 262.446975 72.098462 261.656604 72.324476 260.857267 72.550490 260.049093 72.776503 259.232209 73.002517 258.406746 73.228531 257.572832 73.454545 256.730595 73.680559 255.880164 73.906573 255.021669 74.132587 254.155237 74.358601 253.280998 74.584615 252.399080 74.810629 251.509612 75.036643 250.612723 75.262657 249.708541 75.488671 248.797195 75.714685 247.878815 75.940699 246.953528 76.166713 246.021463 76.392727 245.082750 76.618741 244.137516 76.844755 243.185891 77.070769 242.228004 77.296783 241.263982 77.522797 240.293956 77.748811 239.318053 77.974825 238.336402 78.200839 237.349132 78.426853 236.356373 78.652867 235.358251 78.878881 234.354897 79.104895 233.346439 79.330909 232.333006 79.556923 231.314727 79.782937 230.291729 80.008951 229.264143 80.234965 228.232096 80.460979 227.195718 80.686993 226.155137 80.913007 225.110481 81.139021 224.061881 81.365035 223.009464 81.591049 221.953359 81.817063 220.893695 82.043077 219.830601 82.269091 218.764205 82.495105 217.694636 82.721119 216.622023 82.947133 215.546494 83.173147 214.468179 83.399161 213.387206 83.625175 212.303704 83.851189 211.217801 84.077203 210.129627 84.303217 209.039309 84.529231 207.946977 84.755245 206.852760 84.981259 205.756786 85.207273 204.659184 85.433287 203.560083 85.659301 202.459611 85.885315 201.357898 86.111329 200.255071 86.337343 199.151260 86.563357 198.046593 86.789371 196.941200 87.015385 195.835208 87.241399 194.728748 87.467413 193.621946 87.693427 192.514933 87.919441 191.407836 88.145455 190.300785 88.371469 189.193908 88.597483 188.087335 88.823497 186.981193 89.049510 185.875611 89.275524 184.770719 89.501538 183.666645 89.727552 182.563518 89.953566 181.461466 90.179580 180.360619 90.405594 179.261104 90.631608 178.163051 90.857622 177.066589 91.083636 175.971846 91.309650 174.878951 91.535664 173.788032 91.761678 172.699219 91.987692 171.612640 92.213706 170.528424 92.439720 169.446699 92.665734 168.367595 92.891748 167.291240 93.117762 166.217763 93.343776 165.147292 93.569790 164.079957 93.795804 163.015885 94.021818 161.955207 94.247832 160.898050 94.473846 159.844543 94.699860 158.794815 94.925874 157.748996 95.151888 156.707212 95.377902 155.669594 95.603916 154.636270 95.829930 153.607368 96.055944 152.583018 96.281958 151.563348 96.507972 150.548487 96.733986 149.538564 96.960000 148.533707 97.186014 147.534045 97.412028 146.539708 97.638042 145.550822 97.864056 144.567518 98.090070 143.589925 98.316084 142.618170 98.542098 141.652382 98.768112 140.692691 98.994126 139.739225 99.220140 138.792113 99.446154 137.851483 99.672168 136.917465 99.898182 135.990187 100.124196 135.069777 100.350210 134.156365 100.576224 133.250079 100.802238 132.351048 101.028252 131.459401 101.254266 130.575266 101.480280 129.698772 101.706294 128.830048 101.932308 127.969223 102.158322 127.116426 102.384336 126.271784 102.610350 125.435428 102.836364 124.607485 103.062378 123.788084 103.288392 122.977354 103.514406 122.175425 103.740420 121.382424 103.966434 120.598480 104.192448 119.823722 104.418462 119.058279 104.644476 118.302279 104.870490 117.555852 105.096503 116.819126 105.322517 116.092230 105.548531 115.375292 105.774545 114.668441 106.000559 113.971806 106.226573 113.285516 106.452587 112.609699 106.678601 111.944485 106.904615 111.290001 107.130629 110.646378 107.356643 110.013742 107.582657 109.392224 107.808671 108.781951 108.034685 108.183053 108.260699 107.595659 108.486713 107.019896 108.712727 106.455895 108.938741 105.903783 109.164755 105.363689 109.390769 104.835743 109.616783 104.320072 109.842797 103.816805 110.068811 103.326072 110.294825 102.848001 110.520839 102.382721 110.746853 101.930360 110.972867 101.491047 111.198881 101.064912 111.424895 100.652082 111.650909 100.252686 111.876923 99.866854 112.102937 99.494713 112.328951 99.136394 112.554965 98.792023 112.780979 98.461731 113.006993 98.145646 113.233007 97.843896 113.459021 97.556610 113.685035 97.283918 113.911049 97.025947 114.137063 96.782828 114.363077 96.554687 114.589091 96.341654 114.815105 96.143858 115.041119 95.961428 115.267133 95.794492 115.493147 95.643179 115.719161 95.507618 115.945175 95.387937 116.171189 95.284265 116.397203 95.196732 116.623217 95.125465 116.849231 95.070593 117.075245 95.032246 117.301259 95.010552 117.527273 95.005639 117.753287 95.017636 117.979301 95.046673 118.205315 95.092878 118.431329 95.156379 118.657343 95.237306 118.883357 95.335786 119.109371 95.451950 119.335385 95.585925 119.561399 95.737840 119.787413 95.907825 120.013427 96.096007 120.239441 96.302515 120.465455 96.527479 120.691469 96.771027 120.917483 97.033288 121.143497 97.314390 121.369510 97.614462 121.595524 97.933634 121.821538 98.272033 122.047552 98.629788 122.273566 99.007029 122.499580 99.403883 122.725594 99.820481 122.951608 100.256949 123.177622 100.713418 123.403636 101.190015 123.629650 101.686871 123.855664 102.204112 124.081678 102.741869 124.307692 103.300269 124.533706 103.879442 124.759720 104.479516 124.985734 105.100621 125.211748 105.742884 125.437762 106.406434 125.663776 107.091351 125.889790 107.797511 126.115804 108.524742 126.341818 109.272871 126.567832 110.041725 126.793846 110.831133 127.019860 111.640920 127.245874 112.470914 127.471888 113.320943 127.697902 114.190833 127.923916 115.080413 128.149930 115.989509 128.375944 116.917949 128.601958 117.865560 128.827972 118.832169 129.053986 119.817603 129.280000 120.821690 129.506014 121.844257 129.732028 122.885132 129.958042 123.944141 130.184056 125.021113 130.410070 126.115873 130.636084 127.228250 130.862098 128.358070 131.088112 129.505162 131.314126 130.669352 131.540140 131.850468 131.766154 133.048336 131.992168 134.262785 132.218182 135.493641 132.444196 136.740732 132.670210 138.003885 132.896224 139.282928 133.122238 140.577686 133.348252 141.887989 133.574266 143.213663 133.800280 144.554536 134.026294 145.910434 134.252308 147.281185 134.478322 148.666616 134.704336 150.066555 134.930350 151.480829 135.156364 152.909265 135.382378 154.351691 135.608392 155.807933 135.834406 157.277819 136.060420 158.761177 136.286434 160.257833 136.512448 161.767615 136.738462 163.290350 136.964476 164.825865 137.190490 166.373989 137.416503 167.934547 137.642517 169.507367 137.868531 171.092277 138.094545 172.689104 138.320559 174.297675 138.546573 175.917817 138.772587 177.549358 138.998601 179.192125 139.224615 180.845945 139.450629 182.510646 139.676643 184.186055 139.902657 185.871998 140.128671 187.568304 140.354685 189.274800 140.580699 190.991313 140.806713 192.717670 141.032727 194.453698 141.258741 196.199225 141.484755 197.954078 141.710769 199.718085 141.936783 201.491072 142.162797 203.272868 142.388811 205.063298 142.614825 206.862191 142.840839 208.669374 143.066853 210.484674 143.292867 212.307918 143.518881 214.138933 143.744895 215.977548 143.970909 217.823589 144.196923 219.676883 144.422937 221.537258 144.648951 223.404542 144.874965 225.278560 145.100979 227.159141 145.326993 229.046112 145.553007 230.939300 145.779021 232.838533 146.005035 234.743637 146.231049 236.654441 146.457063 238.570771 146.683077 240.492454 146.909091 242.419318 147.135105 244.351190 147.361119 246.287898 147.587133 248.229269 147.813147 250.175129 148.039161 252.125307 148.265175 254.079630 148.491189 256.037924 148.717203 258.000017 148.943217 259.965737 149.169231 261.934911 149.395245 263.907365 149.621259 265.882928 149.847273 267.861427 150.073287 269.842688 150.299301 271.826539 150.525315 273.812808 150.751329 275.801322 150.977343 277.791907 151.203357 279.784392 151.429371 281.778603 151.655385 283.774368 151.881399 285.771514 152.107413 287.769869 152.333427 289.769259 152.559441 291.769512 152.785455 293.770456 153.011469 295.771917 153.237483 297.773723 153.463497 299.775701 153.689510 301.777678 153.915524 303.779482 154.141538 305.780940 154.367552 307.781879 154.593566 309.782126 154.819580 311.781510 155.045594 313.779856 155.271608 315.776993 155.497622 317.772748 155.723636 319.766947 155.949650 321.759419 156.175664 323.749990 156.401678 325.738488 156.627692 327.724740 156.853706 329.708573 157.079720 331.689815 157.305734 333.668293 157.531748 335.643834 157.757762 337.616265 157.983776 339.585414 158.209790 341.551109 158.435804 343.513175 158.661818 345.471441 158.887832 347.425735 159.113846 349.375882 159.339860 351.321711 159.565874 353.263048 159.791888 355.199722 160.017902 357.131558 160.243916 359.058386 160.469930 360.980031 160.695944 362.896321 160.921958 364.807084 161.147972 366.712147 161.373986 368.611336 161.600000 370.504480 161.826014 372.391406 162.052028 374.271940 162.278042 376.145910 162.504056 378.013144 162.730070 379.873469 162.956084 381.726711 163.182098 383.572699 163.408112 385.411260 163.634126 387.242220 163.860140 389.065407 164.086154 390.880649 164.312168 392.687772 164.538182 394.486605 164.764196 396.276974 164.990210 398.058706 165.216224 399.831629 165.442238 401.595570 165.668252 403.350356 165.894266 405.095816 166.120280 406.831775 166.346294 408.558061 166.572308 410.274502 166.798322 411.980925 167.024336 413.677157 167.250350 415.363025 167.476364 417.038356 167.702378 418.702979 167.928392 420.356720 168.154406 421.999407 168.380420 423.630866 168.606434 425.250925 168.832448 426.859412 169.058462 428.456153 169.284476 430.040976 169.510490 431.613709 169.736503 433.174178 169.962517 434.722211 170.188531 436.257634 170.414545 437.780276 170.640559 439.289964 170.866573 440.786525 171.092587 442.269785 171.318601 443.739574 171.544615 445.195717 171.770629 446.638042 171.996643 448.066376 172.222657 449.480547 172.448671 450.880382 172.674685 452.265708 172.900699 453.636352 173.126713 454.992143 173.352727 456.332906 173.578741 457.658469 173.804755 458.968660 174.030769 460.263306 174.256783 461.542234 174.482797 462.805272 174.708811 464.052246 174.934825 465.282985 175.160839 466.497314 175.386853 467.695062 175.612867 468.876056 175.838881 470.040123 176.064895 471.187091 176.290909 472.316786 176.516923 473.429036 176.742937 474.523669 176.968951 475.600511 177.194965 476.659390 177.420979 477.700132 177.646993 478.722567 177.873007 479.726520 178.099021 480.711819 178.325035 481.678291 178.551049 482.625764 178.777063 483.554065 179.003077 484.463020 179.229091 485.352458 179.455105 486.222206 179.681119 487.072091 179.907133 487.901940 180.133147 488.711580 180.359161 489.500839 180.585175 490.269545 180.811189 491.017523 181.037203 491.744603 181.263217 492.450610 181.489231 493.135372 181.715245 493.798717 181.941259 494.440472 182.167273 495.060512 182.393287 495.658904 182.619301 496.235763 182.845315 496.791205 183.071329 497.325344 183.297343 497.838296 183.523357 498.330175 183.749371 498.801098 183.975385 499.251178 184.201399 499.680531 184.427413 500.089273 184.653427 500.477518 184.879441 500.845381 185.105455 501.192978 185.331469 501.520424 185.557483 501.827833 185.783497 502.115321 186.009510 502.383003 186.235524 502.630995 186.461538 502.859410 186.687552 503.068365 186.913566 503.257974 187.139580 503.428353 187.365594 503.579616 187.591608 503.711879 187.817622 503.825257 188.043636 503.919865 188.269650 503.995819 188.495664 504.053232 188.721678 504.092221 188.947692 504.112900 189.173706 504.115385 189.399720 504.099790 189.625734 504.066231 189.851748 504.014823 190.077762 503.945681 190.303776 503.858921 190.529790 503.754656 190.755804 503.633003 190.981818 503.494076 191.207832 503.337991 191.433846 503.164863 191.659860 502.974806 191.885874 502.767936 192.111888 502.544369 192.337902 502.304218 192.563916 502.047600 192.789930 501.774629 193.015944 501.485421 193.241958 501.180090 193.467972 500.858752 193.693986 500.521521 193.920000 500.168514 194.146014 499.799844 194.372028 499.415628 194.598042 499.015980 194.824056 498.601016 195.050070 498.170850 195.276084 497.725597 195.502098 497.265374 195.728112 496.790294 195.954126 496.300473 196.180140 495.796026 196.406154 495.277068 196.632168 494.743715 196.858182 494.196081 197.084196 493.634282 197.310210 493.058432 197.536224 492.468647 197.762238 491.865041 197.988252 491.247731 198.214266 490.616831 198.440280 489.972456 198.666294 489.314721 198.892308 488.643742 199.118322 487.959633 199.344336 487.262510 199.570350 486.552487 199.796364 485.829681 200.022378 485.094205 200.248392 484.346176 200.474406 483.585708 200.700420 482.812916 200.926434 482.027915 201.152448 481.230821 201.378462 480.421749 201.604476 479.600813 201.830490 478.768130 202.056503 477.923813 202.282517 477.067978 202.508531 476.200741 202.734545 475.322216 202.960559 474.432519 203.186573 473.531764 203.412587 472.620066 203.638601 471.697542 203.864615 470.764305 204.090629 469.820472 204.316643 468.866156 204.542657 467.901474 204.768671 466.926540 204.994685 465.941469 205.220699 464.946378 205.446713 463.941379 205.672727 462.926590 205.898741 461.902125 206.124755 460.868098 206.350769 459.824626 206.576783 458.771823 206.802797 457.709804 207.028811 456.638685 207.254825 455.558580 207.480839 454.469605 207.706853 453.371875 207.932867 452.265505 208.158881 451.150610 208.384895 450.027305 208.610909 448.895705 208.836923 447.755926 209.062937 446.608082 209.288951 445.452289 209.514965 444.288662 209.740979 443.117315 209.966993 441.938364 210.193007 440.751925 210.419021 439.558111 210.645035 438.357039 210.871049 437.148823 211.097063 435.933579 211.323077 434.711421 211.549091 433.482465 211.775105 432.246826 212.001119 431.004619 212.227133 429.755959 212.453147 428.500961 212.679161 427.239740 212.905175 425.972412 213.131189 424.699092 213.357203 423.419894 213.583217 422.134933 213.809231 420.844326 214.035245 419.548187 214.261259 418.246630 214.487273 416.939772 214.713287 415.627728 214.939301 414.310611 215.165315 412.988538 215.391329 411.661624 215.617343 410.329984 215.843357 408.993732 216.069371 407.652985 216.295385 406.307856 216.521399 404.958462 216.747413 403.604917 216.973427 402.247337 217.199441 400.885836 217.425455 399.520530 217.651469 398.151533 217.877483 396.778962 218.103497 395.402930 218.329510 394.023554 218.555524 392.640948 218.781538 391.255227 219.007552 389.866507 219.233566 388.474902 219.459580 387.080528 219.685594 385.683500 219.911608 384.283932 220.137622 382.881941 220.363636 381.477641 220.589650 380.071147 220.815664 378.662574 221.041678 377.252038 221.267692 375.839653 221.493706 374.425536 221.719720 373.009800 221.945734 371.592560 222.171748 370.173933 222.397762 368.754033 222.623776 367.332976 222.849790 365.910876 223.075804 364.487848 223.301818 363.064008 223.527832 361.639470 223.753846 360.214351 223.979860 358.788764 224.205874 357.362825 224.431888 355.936650 224.657902 354.510353 224.883916 353.084049 225.109930 351.657854 225.335944 350.231882 225.561958 348.806249 225.787972 347.381070 226.013986 345.956460 226.240000 344.532534 226.466014 343.109407 226.692028 341.687195 226.918042 340.266011 227.144056 338.845973 227.370070 337.427194 227.596084 336.009790 227.822098 334.593875 228.048112 333.179566 228.274126 331.766977 228.500140 330.356222 228.726154 328.947419 228.952168 327.540680 229.178182 326.136122 229.404196 324.733860 229.630210 323.334009 229.856224 321.936683 230.082238 320.541999 230.308252 319.150070 230.534266 317.761013 230.760280 316.374942 230.986294 314.991973 231.212308 313.612220 231.438322 312.235799 231.664336 310.862824 231.890350 309.493412 232.116364 308.127676 232.342378 306.765733 232.568392 305.407696 232.794406 304.053682 233.020420 302.703806 233.246434 301.358182 233.472448 300.016926 233.698462 298.680153 233.924476 297.347977 234.150490 296.020515 234.376503 294.697881 234.602517 293.380190 234.828531 292.067557 235.054545 290.760098 235.280559 289.457927 235.506573 288.161160 235.732587 286.869912 235.958601 285.584298 236.184615 284.304433 236.410629 283.030432 236.636643 281.762410 236.862657 280.500483 237.088671 279.244765 237.314685 277.995371 237.540699 276.752418 237.766713 275.516019 237.992727 274.286290 238.218741 273.063347 238.444755 271.847303 238.670769 270.638253 238.896783 269.436205 239.122797 268.241144 239.348811 267.053056 239.574825 265.871927 239.800839 264.697744 240.026853 263.530492 240.252867 262.370158 240.478881 261.216727 240.704895 260.070186 240.930909 258.930520 241.156923 257.797715 241.382937 256.671758 241.608951 255.552635 241.834965 254.440331 242.060979 253.334833 242.286993 252.236126 242.513007 251.144197 242.739021 250.059031 242.965035 248.980615 243.191049 247.908935 243.417063 246.843976 243.643077 245.785725 243.869091 244.734168 244.095105 243.689291 244.321119 242.651079 244.547133 241.619519 244.773147 240.594597 244.999161 239.576298 245.225175 238.564610 245.451189 237.559517 245.677203 236.561006 245.903217 235.569064 246.129231 234.583674 246.355245 233.604825 246.581259 232.632502 246.807273 231.666691 247.033287 230.707378 247.259301 229.754548 247.485315 228.808189 247.711329 227.868286 247.937343 226.934825 248.163357 226.007792 248.389371 225.087173 248.615385 224.172954 248.841399 223.265121 249.067413 222.363660 249.293427 221.468558 249.519441 220.579800 249.745455 219.697372 249.971469 218.821260 250.197483 217.951450 250.423497 217.087929 250.649510 216.230682 250.875524 215.379695 251.101538 214.534954 251.327552 213.696446 251.553566 212.864157 251.779580 212.038071 252.005594 211.218176 252.231608 210.404457 252.457622 209.596901 252.683636 208.795494 252.909650 208.000220 253.135664 207.211067 253.361678 206.428021 253.587692 205.651067 253.813706 204.880192 254.039720 204.115381 254.265734 203.356621 254.491748 202.603898 254.717762 201.857197 254.943776 201.116505 255.169790 200.381807 255.395804 199.653090 255.621818 198.930340 255.847832 198.213542 256.073846 197.502684 256.299860 196.797750 256.525874 196.098726 256.751888 195.405600 256.977902 194.718356 257.203916 194.036981 257.429930 193.361461 257.655944 192.691782 257.881958 192.027930 258.107972 191.369890 258.333986 190.717650 258.560000 190.071194 258.786014 189.430510 259.012028 188.795582 259.238042 188.166397 259.464056 187.542942 259.690070 186.925201 259.916084 186.313162 260.142098 185.706809 260.368112 185.106130 260.594126 184.511109 260.820140 183.921734 261.046154 183.337990 261.272168 182.759863 261.498182 182.187340 261.724196 181.620405 261.950210 181.059046 262.176224 180.503248 262.402238 179.952997 262.628252 179.408280 262.854266 178.869081 263.080280 178.335389 263.306294 177.807187 263.532308 177.284463 263.758322 176.767202 263.984336 176.255390 264.210350 175.749014 264.436364 175.248060 264.662378 174.752513 264.888392 174.262359 265.114406 173.777585 265.340420 173.298176 265.566434 172.824119 265.792448 172.355399 266.018462 171.892003 266.244476 171.433916 266.470490 170.981125 266.696503 170.533616 266.922517 170.091374 267.148531 169.654386 267.374545 169.222638 267.600559 168.796115 267.826573 168.374804 268.052587 167.958691 268.278601 167.547761 268.504615 167.142001 268.730629 166.741397 268.956643 166.345935 269.182657 165.955601 269.408671 165.570380 269.634685 165.190260 269.860699 164.815225 270.086713 164.445262 270.312727 164.080357 270.538741 163.720496 270.764755 163.365665 270.990769 163.015850 271.216783 162.671037 271.442797 162.331211 271.668811 161.996360 271.894825 161.666469 272.120839 161.341524 272.346853 161.021511 272.572867 160.706417 272.798881 160.396226 273.024895 160.090925 273.250909 159.790501 273.476923 159.494939 273.702937 159.204225 273.928951 158.918345 274.154965 158.637285 274.380979 158.361032 274.606993 158.089571 274.833007 157.822888 275.059021 157.560970 275.285035 157.303802 275.511049 157.051370 275.737063 156.803660 275.963077 156.560659 276.189091 156.322353 276.415105 156.088727 276.641119 155.859767 276.867133 155.635459 277.093147 155.415791 277.319161 155.200746 277.545175 154.990313 277.771189 154.784475 277.997203 154.583221 278.223217 154.386534 278.449231 154.194403 278.675245 154.006812 278.901259 153.823748 279.127273 153.645196 279.353287 153.471143 279.579301 153.301575 279.805315 153.136477 280.031329 152.975836 280.257343 152.819638 280.483357 152.667869 280.709371 152.520514 280.935385 152.377560 281.161399 152.238993 281.387413 152.104799 281.613427 151.974964 281.839441 151.849473 282.065455 151.728314 282.291469 151.611471 282.517483 151.498931 282.743497 151.390681 282.969510 151.286705 283.195524 151.186990 283.421538 151.091522 283.647552 151.000287 283.873566 150.913272 284.099580 150.830461 284.325594 150.751842 284.551608 150.677399 284.777622 150.607120 285.003636 150.540989 285.229650 150.478994 285.455664 150.421121 285.681678 150.367354 285.907692 150.317680 286.133706 150.272086 286.359720 150.230557 286.585734 150.193079 286.811748 150.159639 287.037762 150.130222 287.263776 150.104814 287.489790 150.083401 287.715804 150.065970 287.941818 150.052507 288.167832 150.042996 288.393846 150.037425 288.619860 150.035780 288.845874 150.038046 289.071888 150.044209 289.297902 150.054256 289.523916 150.068173 289.749930 150.085945 289.975944 150.107558 290.201958 150.133000 290.427972 150.162254 290.653986 150.195309 290.880000 150.232148 291.106014 150.272760 291.332028 150.317129 291.558042 150.365242 291.784056 150.417085 292.010070 150.472643 292.236084 150.531903 292.462098 150.594851 292.688112 150.661473 292.914126 150.731754 293.140140 150.805682 293.366154 150.883241 293.592168 150.964418 293.818182 151.049198 294.044196 151.137569 294.270210 151.229516 294.496224 151.325024 294.722238 151.424081 294.948252 151.526671 295.174266 151.632778 295.400280 151.742367 295.626294 151.855402 295.852308 151.971845 296.078322 152.091659 296.304336 152.214807 296.530350 152.341251 296.756364 152.470955 296.982378 152.603881 297.208392 152.739991 297.434406 152.879249 297.660420 153.021618 297.886434 153.167059 298.112448 153.315536 298.338462 153.467012 298.564476 153.621450 298.790490 153.778811 299.016503 153.939059 299.242517 154.102157 299.468531 154.268068 299.694545 154.436753 299.920559 154.608177 300.146573 154.782301 300.372587 154.959088 300.598601 155.138502 300.824615 155.320504 301.050629 155.505059 301.276643 155.692128 301.502657 155.881673 301.728671 156.073659 301.954685 156.268048 302.180699 156.464802 302.406713 156.663885 302.632727 156.865258 302.858741 157.068885 303.084755 157.274729 303.310769 157.482752 303.536783 157.692917 303.762797 157.905187 303.988811 158.119525 304.214825 158.335892 304.440839 158.554253 304.666853 158.774570 304.892867 158.996805 305.118881 159.220922 305.344895 159.446882 305.570909 159.674650 305.796923 159.904187 306.022937 160.135457 306.248951 160.368422 306.474965 160.603044 306.700979 160.839287 306.926993 161.077114 307.153007 161.316487 307.379021 161.557369 307.605035 161.799722 307.831049 162.043510 308.057063 162.288696 308.283077 162.535241 308.509091 162.783109 308.735105 163.032262 308.961119 163.282664 309.187133 163.534276 309.413147 163.787063 309.639161 164.040985 309.865175 164.296008 310.091189 164.552092 310.317203 164.809201 310.543217 165.067297 310.769231 165.326344 310.995245 165.586304 311.221259 165.847140 311.447273 166.108814 311.673287 166.371290 311.899301 166.634529 312.125315 166.898496 312.351329 167.163152 312.577343 167.428461 312.803357 167.694385 313.029371 167.960886 313.255385 168.227929 313.481399 168.495474 313.707413 168.763486 313.933427 169.031927 314.159441 169.300760 314.385455 169.569946 314.611469 169.839451 314.837483 170.109235 315.063497 170.379261 315.289510 170.649494 315.515524 170.919894 315.741538 171.190426 315.967552 171.461051 316.193566 171.731733 316.419580 172.002434 316.645594 172.273117 316.871608 172.543745 317.097622 172.814280 317.323636 173.084686 317.549650 173.354925 317.775664 173.624959 318.001678 173.894752 318.227692 174.164267 318.453706 174.433465 318.679720 174.702311 318.905734 174.970766 319.131748 175.238793 319.357762 175.506356 319.583776 175.773416 319.809790 176.039937 320.035804 176.305882 320.261818 176.571212 320.487832 176.835892 320.713846 177.099883 320.939860 177.363149 321.165874 177.625652 321.391888 177.887355 321.617902 178.148220 321.843916 178.408211 322.069930 178.667290 322.295944 178.925420 322.521958 179.182564 322.747972 179.438685 322.973986 179.693744 323.200000 179.947706 323.426014 180.200533 323.652028 180.452187 323.878042 180.702631 324.104056 180.951828 324.330070 181.199742 324.556084 181.446333 324.782098 181.691566 325.008112 181.935404 325.234126 182.177808 325.460140 182.418741 325.686154 182.658167 325.912168 182.896048 326.138182 183.132347 326.364196 183.367027 326.590210 183.600050 326.816224 183.831379 327.042238 184.060977 327.268252 184.288807 327.494266 184.514831 327.720280 184.739012 327.946294 184.961313 328.172308 185.181697 328.398322 185.400127 328.624336 185.616564 328.850350 185.830973 329.076364 186.043315 329.302378 186.253554 329.528392 186.461652 329.754406 186.667573 329.980420 186.871277 330.206434 187.072730 330.432448 187.271893 330.658462 187.468728 330.884476 187.663200 331.110490 187.855270 331.336503 188.044901 331.562517 188.232057 331.788531 188.416699 332.014545 188.598791 332.240559 188.778295 332.466573 188.955175 332.692587 189.129392 332.918601 189.300910 333.144615 189.469691 333.370629 189.635699 333.596643 189.798895 333.822657 189.959243 334.048671 190.116705 334.274685 190.271245 334.500699 190.422825 334.726713 190.571407 334.952727 190.716954 335.178741 190.859430 335.404755 190.998797 335.630769 191.135018 335.856783 191.268055 336.082797 191.397871 336.308811 191.524429 336.534825 191.647692 336.760839 191.767623 336.986853 191.884184 337.212867 191.997338 337.438881 192.107047 337.664895 192.213276 337.890909 192.315985 338.116923 192.415139 338.342937 192.510699 338.568951 192.602629 338.794965 192.690892 339.020979 192.775449 339.246993 192.856264 339.473007 192.933300 339.699021 193.006520 339.925035 193.075885 340.151049 193.141359 340.377063 193.202906 340.603077 193.260486 340.829091 193.314064 341.055105 193.363601 341.281119 193.409061 341.507133 193.450407 341.733147 193.487601 341.959161 193.520606 342.185175 193.549384 342.411189 193.573899 342.637203 193.594113 342.863217 193.609990 343.089231 193.621491 343.315245 193.628579 343.541259 193.631218 343.767273 193.629370 343.993287 193.622997 344.219301 193.612063 344.445315 193.596531 344.671329 193.576362 344.897343 193.551521 345.123357 193.521968 345.349371 193.487669 345.575385 193.448584 345.801399 193.404677 346.027413 193.355911 346.253427 193.302248 346.479441 193.243651 346.705455 193.180084 346.931469 193.111507 347.157483 193.037886 347.383497 192.959181 347.609510 192.875356 347.835524 192.786374 348.061538 192.692198 348.287552 192.592789 348.513566 192.488112 348.739580 192.378128 348.965594 192.262801 349.191608 192.142093 349.417622 192.015967 349.643636 191.884385 349.869650 191.747311 350.095664 191.604708 350.321678 191.456537 350.547692 191.302763 350.773706 191.143346 350.999720 190.978251 351.225734 190.807441 351.451748 190.630877 351.677762 190.448537 351.903776 190.260462 352.129790 190.066705 352.355804 189.867321 352.581818 189.662364 352.807832 189.451888 353.033846 189.235948 353.259860 189.014598 353.485874 188.787892 353.711888 188.555886 353.937902 188.318633 354.163916 188.076187 354.389930 187.828604 354.615944 187.575937 354.841958 187.318240 355.067972 187.055569 355.293986 186.787977 355.520000 186.515520 355.746014 186.238250 355.972028 185.956223 356.198042 185.669493 356.424056 185.378114 356.650070 185.082141 356.876084 184.781628 357.102098 184.476630 357.328112 184.167200 357.554126 183.853394 357.780140 183.535265 358.006154 183.212868 358.232168 182.886258 358.458182 182.555488 358.684196 182.220613 358.910210 181.881688 359.136224 181.538766 359.362238 181.191903 359.588252 180.841152 359.814266 180.486568 360.040280 180.128205 360.266294 179.766118 360.492308 179.400361 360.718322 179.030988 360.944336 178.658054 361.170350 178.281614 361.396364 177.901720 361.622378 177.518429 361.848392 177.131794 362.074406 176.741869 362.300420 176.348710 362.526434 175.952369 362.752448 175.552903 362.978462 175.150365 363.204476 174.744809 363.430490 174.336290 363.656503 173.924862 363.882517 173.510579 364.108531 173.093497 364.334545 172.673669 364.560559 172.251150 364.786573 171.825993 365.012587 171.398254 365.238601 170.967987 365.464615 170.535246 365.690629 170.100086 365.916643 169.662560 366.142657 169.222724 366.368671 168.780632 366.594685 168.336337 366.820699 167.889895 367.046713 167.441360 367.272727 166.990785 367.498741 166.538227 367.724755 166.083738 367.950769 165.627373 368.176783 165.169187 368.402797 164.709234 368.628811 164.247569 368.854825 163.784245 369.080839 163.319317 369.306853 162.852839 369.532867 162.384867 369.758881 161.915454 369.984895 161.444654 370.210909 160.972522 370.436923 160.499112 370.662937 160.024480 370.888951 159.548678 371.114965 159.071762 371.340979 158.593785 371.566993 158.114803 371.793007 157.634869 372.019021 157.154038 372.245035 156.672365 372.471049 156.189903 372.697063 155.706707 372.923077 155.222831 373.149091 154.738330 373.375105 154.253259 373.601119 153.767671 373.827133 153.281620 374.053147 152.795162 374.279161 152.308351 374.505175 151.821241 374.731189 151.333886 374.957203 150.846340 375.183217 150.358659 375.409231 149.870896 375.635245 149.383106 375.861259 148.895344 376.087273 148.407663 376.313287 147.920117 376.539301 147.432763 376.765315 146.945652 376.991329 146.458841 377.217343 145.972384 377.443357 145.486334 377.669371 145.000746 377.895385 144.515675 378.121399 144.031175 378.347413 143.547300 378.573427 143.064105 378.799441 142.581643 379.025455 142.099971 379.251469 141.619141 379.477483 141.139208 379.703497 140.660226 379.929510 140.182251 380.155524 139.705335 380.381538 139.229535 380.607552 138.754903 380.833566 138.281495 381.059580 137.809364 381.285594 137.338565 381.511608 136.869153 381.737622 136.401182 381.963636 135.934706 382.189650 135.469780 382.415664 135.006457 382.641678 134.544793 382.867692 134.084842 383.093706 133.626658 383.319720 133.170295 383.545734 132.715808 383.771748 132.263251 383.997762 131.812678 384.223776 131.364145 384.449790 130.917705 384.675804 130.473412 384.901818 130.031322 385.127832 129.591488 385.353846 129.153964 385.579860 128.718806 385.805874 128.286067 386.031888 127.855803 386.257902 127.428066 386.483916 127.002912 386.709930 126.580395 386.935944 126.160570 387.161958 125.743490 387.387972 125.329210 387.613986 124.917785 387.840000 124.509269 388.066014 124.103715 388.292028 123.701180 388.518042 123.301716 388.744056 122.905379 388.970070 122.512222 389.196084 122.122301 389.422098 121.735669 389.648112 121.352380 389.874126 120.972490 390.100140 120.596053 390.326154 120.223122 390.552168 119.853753 390.778182 119.487999 391.004196 119.125915 391.230210 118.767556 391.456224 118.412976 391.682238 118.062228 391.908252 117.715369 392.134266 117.372451 392.360280 117.033529 392.586294 116.698658 392.812308 116.367892 393.038322 116.041285 393.264336 115.718892 393.490350 115.400767 393.716364 115.086965 393.942378 114.777539 394.168392 114.472545 394.394406 114.172036 394.620420 113.876068 394.846434 113.584693 395.072448 113.297968 395.298462 113.015945 395.524476 112.738680 395.750490 112.466226 395.976503 112.198639 396.202517 111.935972 396.428531 111.678281 396.654545 111.425618 396.880559 111.178040 397.106573 110.935599 397.332587 110.698350 397.558601 110.466349 397.784615 110.239649 398.010629 110.018304 398.236643 109.802369 398.462657 109.591898 398.688671 109.386946 398.914685 109.187567 399.140699 108.993815 399.366713 108.805745 399.592727 108.623411 399.818741 108.446868 400.044755 108.276169 400.270769 108.111370 400.496783 107.952524 400.722797 107.799686 400.948811 107.652911 401.174825 107.512252 401.400839 107.377764 401.626853 107.249502 401.852867 107.127520 402.078881 107.011871 402.304895 106.902612 402.530909 106.799795 402.756923 106.703475 402.982937 106.613708 403.208951 106.530546 403.434965 106.454045 403.660979 106.384258 403.886993 106.321241 404.113007 106.265047 404.339021 106.215731 404.565035 106.173347 404.791049 106.137950 405.017063 106.109594 405.243077 106.088333 405.469091 106.074222 405.695105 106.067315 405.921119 106.067667 406.147133 106.075331 406.373147 106.090363 406.599161 106.112816 406.825175 106.142745 407.051189 106.180205 407.277203 106.225249 407.503217 106.277933 407.729231 106.338310 407.955245 106.406434 408.181259 106.482342 408.407273 106.565993 408.633287 106.657329 408.859301 106.756289 409.085315 106.862817 409.311329 106.976851 409.537343 107.098334 409.763357 107.227207 409.989371 107.363410 410.215385 107.506884 410.441399 107.657571 410.667413 107.815412 410.893427 107.980348 411.119441 108.152319 411.345455 108.331267 411.571469 108.517133 411.797483 108.709858 412.023497 108.909382 412.249510 109.115648 412.475524 109.328596 412.701538 109.548167 412.927552 109.774301 413.153566 110.006941 413.379580 110.246027 413.605594 110.491501 413.831608 110.743302 414.057622 111.001373 414.283636 111.265655 414.509650 111.536087 414.735664 111.812612 414.961678 112.095171 415.187692 112.383704 415.413706 112.678153 415.639720 112.978458 415.865734 113.284561 416.091748 113.596402 416.317762 113.913924 416.543776 114.237066 416.769790 114.565770 416.995804 114.899976 417.221818 115.239627 417.447832 115.584663 417.673846 115.935024 417.899860 116.290653 418.125874 116.651490 418.351888 117.017476 418.577902 117.388552 418.803916 117.764659 419.029930 118.145738 419.255944 118.531731 419.481958 118.922578 419.707972 119.318221 419.933986 119.718600 420.160000 120.123656 420.386014 120.533331 420.612028 120.947566 420.838042 121.366301 421.064056 121.789477 421.290070 122.217037 421.516084 122.648920 421.742098 123.085068 421.968112 123.525421 422.194126 123.969922 422.420140 124.418510 422.646154 124.871127 422.872168 125.327715 423.098182 125.788213 423.324196 126.252563 423.550210 126.720707 423.776224 127.192585 424.002238 127.668138 424.228252 128.147307 424.454266 128.630033 424.680280 129.116258 424.906294 129.605922 425.132308 130.098966 425.358322 130.595332 425.584336 131.094961 425.810350 131.597793 426.036364 132.103769 426.262378 132.612831 426.488392 133.124920 426.714406 133.639977 426.940420 134.157942 427.166434 134.678757 427.392448 135.202363 427.618462 135.728701 427.844476 136.257712 428.070490 136.789336 428.296503 137.323516 428.522517 137.860192 428.748531 138.399305 428.974545 138.940796 429.200559 139.484606 429.426573 140.030676 429.652587 140.578948 429.878601 141.129362 430.104615 141.681859 430.330629 142.236381 430.556643 142.792868 430.782657 143.351262 431.008671 143.911503 431.234685 144.473533 431.460699 145.037292 431.686713 145.602722 431.912727 146.169764 432.138741 146.738359 432.364755 147.308447 432.590769 147.879970 432.816783 148.452869 433.042797 149.027085 433.268811 149.602559 433.494825 150.179231 433.720839 150.757044 433.946853 151.335938 434.172867 151.915854 434.398881 152.496734 434.624895 153.078517 434.850909 153.661146 435.076923 154.244561 435.302937 154.828703 435.528951 155.413514 435.754965 155.998934 435.980979 156.584905 436.206993 157.171367 436.433007 157.758262 436.659021 158.345530 436.885035 158.933113 437.111049 159.520951 437.337063 160.108987 437.563077 160.697160 437.789091 161.285412 438.015105 161.873684 438.241119 162.461917 438.467133 163.050051 438.693147 163.638029 438.919161 164.225791 439.145175 164.813277 439.371189 165.400430 439.597203 165.987190 439.823217 166.573498 440.049231 167.159296 440.275245 167.744524 440.501259 168.329123 440.727273 168.913034 440.953287 169.496199 441.179301 170.078558 441.405315 170.660053 441.631329 171.240625 441.857343 171.820214 442.083357 172.398761 442.309371 172.976208 442.535385 173.552496 442.761399 174.127566 442.987413 174.701359 443.213427 175.273815 443.439441 175.844876 443.665455 176.414484 443.891469 176.982578 444.117483 177.549100 444.343497 178.113991 444.569510 178.677193 444.795524 179.238645 445.021538 179.798290 445.247552 180.356068 445.473566 180.911920 445.699580 181.465788 445.925594 182.017612 446.151608 182.567333 446.377622 183.114893 446.603636 183.660232 446.829650 184.203292 447.055664 184.744013 447.281678 185.282337 447.507692 185.818204 447.733706 186.351557 447.959720 186.882335 448.185734 187.410480 448.411748 187.935932 448.637762 188.458634 448.863776 188.978526 449.089790 189.495548 449.315804 190.009642 449.541818 190.520750 449.767832 191.028812 449.993846 191.533768 450.219860 192.035561 450.445874 192.534131 450.671888 193.029420 450.897902 193.521367 451.123916 194.009915 451.349930 194.495005 451.575944 194.976577 451.801958 195.454572 452.027972 195.928932 452.253986 196.399597 452.480000 196.866509 452.706014 197.329609 452.932028 197.788838 453.158042 198.244136 453.384056 198.695445 453.610070 199.142705 453.836084 199.585859 454.062098 200.024846 454.288112 200.459609 454.514126 200.890087 454.740140 201.316223 454.966154 201.737956 455.192168 202.155229 455.418182 202.567982 455.644196 202.976156 455.870210 203.379692 456.096224 203.778532 456.322238 204.172616 456.548252 204.561885 456.774266 204.946281 457.000280 205.325744 457.226294 205.700215 457.452308 206.069637 457.678322 206.433948 457.904336 206.793092 458.130350 207.147008 458.356364 207.495638 458.582378 207.838923 458.808392 208.176803 459.034406 208.509220 459.260420 208.836116 459.486434 209.157430 459.712448 209.473104 459.938462 209.783079 460.164476 210.087296 460.390490 210.385697 460.616503 210.678221 460.842517 210.964811 461.068531 211.245407 461.294545 211.519950 461.520559 211.788381 461.746573 212.050642 461.972587 212.306673 462.198601 212.556416 462.424615 212.799811 462.650629 213.036800 462.876643 213.267324 463.102657 213.491323 463.328671 213.708738 463.554685 213.919512 463.780699 214.123584 464.006713 214.320896 464.232727 214.511388 464.458741 214.695003 464.684755 214.871695 464.910769 215.041476 465.136783 215.204374 465.362797 215.360415 465.588811 215.509625 465.814825 215.652031 466.040839 215.787661 466.266853 215.916540 466.492867 216.038696 466.718881 216.154155 466.944895 216.262943 467.170909 216.365088 467.396923 216.460615 467.622937 216.549553 467.848951 216.631927 468.074965 216.707764 468.300979 216.777091 468.526993 216.839934 468.753007 216.896320 468.979021 216.946276 469.205035 216.989829 469.431049 217.027004 469.657063 217.057830 469.883077 217.082332 470.109091 217.100537 470.335105 217.112472 470.561119 217.118164 470.787133 217.117639 471.013147 217.110923 471.239161 217.098045 471.465175 217.079029 471.691189 217.053904 471.917203 217.022695 472.143217 216.985429 472.369231 216.942133 472.595245 216.892834 472.821259 216.837558 473.047273 216.776333 473.273287 216.709183 473.499301 216.636138 473.725315 216.557222 473.951329 216.472463 474.177343 216.381887 474.403357 216.285521 474.629371 216.183392 474.855385 216.075527 475.081399 215.961951 475.307413 215.842693 475.533427 215.717777 475.759441 215.587232 475.985455 215.451084 476.211469 215.309359 476.437483 215.162084 476.663497 215.009286 476.889510 214.850992 477.115524 214.687228 477.341538 214.518020 477.567552 214.343396 477.793566 214.163383 478.019580 213.978006 478.245594 213.787293 478.471608 213.591270 478.697622 213.389963 478.923636 213.183401 479.149650 212.971609 479.375664 212.754613 479.601678 212.532442 479.827692 212.305120 480.053706 212.072676 480.279720 211.835135 480.505734 211.592525 480.731748 211.344872 480.957762 211.092202 481.183776 210.834543 481.409790 210.571920 481.635804 210.304362 481.861818 210.031894 482.087832 209.754543 482.313846 209.472335 482.539860 209.185299 482.765874 208.893459 482.991888 208.596843 483.217902 208.295477 483.443916 207.989389 483.669930 207.678604 483.895944 207.363150 484.121958 207.043053 484.347972 206.718340 484.573986 206.389038 484.800000 206.055172 485.026014 205.716771 485.252028 205.373860 485.478042 205.026466 485.704056 204.674617 485.930070 204.318337 486.156084 203.957656 486.382098 203.592598 486.608112 203.223190 486.834126 202.849460 487.060140 202.471434 487.286154 202.089139 487.512168 201.702601 487.738182 201.311847 487.964196 200.916903 488.190210 200.517797 488.416224 200.114555 488.642238 199.707204 488.868252 199.295770 489.094266 198.880280 489.320280 198.460761 489.546294 198.037240 489.772308 197.609742 489.998322 197.178295 490.224336 196.742926 490.450350 196.303661 490.676364 195.860527 490.902378 195.413550 491.128392 194.962757 491.354406 194.508175 491.580420 194.049831 491.806434 193.587751 492.032448 193.121962 492.258462 192.652490 492.484476 192.179362 492.710490 191.702606 492.936503 191.222247 493.162517 190.738312 493.388531 190.250828 493.614545 189.759822 493.840559 189.265320 494.066573 188.767350 494.292587 188.265936 494.518601 187.761107 494.744615 187.252889 494.970629 186.741309 495.196643 186.226393 495.422657 185.708169 495.648671 185.186661 495.874685 184.661899 496.100699 184.133907 496.326713 183.602713 496.552727 183.068344 496.778741 182.530825 497.004755 181.990184 497.230769 181.446448 497.456783 180.899643 497.682797 180.349796 497.908811 179.796933 498.134825 179.241082 498.360839 178.682268 498.586853 178.120519 498.812867 177.555861 499.038881 176.988320 499.264895 176.417925 499.490909 175.844700 499.716923 175.268674 499.942937 174.689872 500.168951 174.108321 500.394965 173.524048 500.620979 172.937080 500.846993 172.347443 501.073007 171.755165 501.299021 171.160270 501.525035 170.562787 501.751049 169.962743 501.977063 169.360162 502.203077 168.755073 502.429091 168.147503 502.655105 167.537476 502.881119 166.925022 503.107133 166.310165 503.333147 165.692933 503.559161 165.073353 503.785175 164.451450 504.011189 163.827252 504.237203 163.200786 504.463217 162.572078 504.689231 161.941155 504.915245 161.308043 505.141259 160.672769 505.367273 160.035360 505.593287 159.395843 505.819301 158.754244 506.045315 158.110590 506.271329 157.464907 506.497343 156.817223 506.723357 156.167563 506.949371 155.515955 507.175385 154.862425 507.401399 154.207000 507.627413 153.549707 507.853427 152.890572 508.079441 152.229622 508.305455 151.566884 508.531469 150.902384 508.757483 150.236149 508.983497 149.568205 509.209510 148.898580 509.435524 148.227300 509.661538 147.554392 509.887552 146.879882 510.113566 146.203797 510.339580 145.526164 510.565594 144.847009 510.791608 144.166360 511.017622 143.484242 511.243636 142.800683 511.469650 142.115708 511.695664 141.429346 511.921678 140.741622 512.147692 140.052563 512.373706 139.362196 512.599720 138.670547 512.825734 137.977644 513.051748 137.283512 513.277762 136.588180 513.503776 135.891672 513.729790 135.194016 513.955804 134.495239 514.181818 133.795367 514.407832 133.094427 514.633846 132.392445 514.859860 131.689449 515.085874 130.985465 515.311888 130.280519 515.537902 129.574639 515.763916 128.867850 515.989930 128.160181 516.215944 127.451656 516.441958 126.742304 516.667972 126.032151 516.893986 125.321222 517.120000 124.609546 517.346014 123.897149 517.572028 123.184057 517.798042 122.470297 518.024056 121.755896 518.250070 121.040880 518.476084 120.325276 518.702098 119.609111 518.928112 118.892412 519.154126 118.175205 519.380140 117.457516 519.606154 116.739374 519.832168 116.020803 520.058182 115.301831 520.284196 114.582485 520.510210 113.862791 520.736224 113.142775 520.962238 112.422466 521.188252 111.701890 521.414266 110.981082 521.640280 110.260076 521.866294 109.538910 522.092308 108.817617 522.318322 108.096233 522.544336 107.374794 522.770350 106.653336 522.996364 105.931893 523.222378 105.210501 523.448392 104.489195 523.674406 103.768011 523.900420 103.046984 524.126434 102.326150 524.352448 101.605544 524.578462 100.885201 524.804476 100.165157 525.030490 99.445448 525.256503 98.726108 525.482517 98.007173 525.708531 97.288679 525.934545 96.570661 526.160559 95.853154 526.386573 95.136194 526.612587 94.419815 526.838601 93.704055 527.064615 92.988948 527.290629 92.274529 527.516643 91.560833 527.742657 90.847897 527.968671 90.135756 528.194685 89.424445 528.420699 88.713999 528.646713 88.004454 528.872727 87.295846 529.098741 86.588209 529.324755 85.881579 529.550769 85.175992 529.776783 84.471483 530.002797 83.768087 530.228811 83.065840 530.454825 82.364777 530.680839 81.664933 530.906853 80.966345 531.132867 80.269047 531.358881 79.573076 531.584895 78.878465 531.810909 78.185251 532.036923 77.493469 532.262937 76.803155 532.488951 76.114343 532.714965 75.427070 532.940979 74.741371 533.166993 74.057280 533.393007 73.374835 533.619021 72.694069 533.845035 72.015019 534.071049 71.337720 534.297063 70.662206 534.523077 69.988515 534.749091 69.316680 534.975105 68.646738 535.201119 67.978724 535.427133 67.312673 535.653147 66.648621 535.879161 65.986603 536.105175 65.326655 536.331189 64.668811 536.557203 64.013108 536.783217 63.359581 537.009231 62.708265 537.235245 62.059195 537.461259 61.412408 537.687273 60.767938 537.913287 60.125820 538.139301 59.486091 538.365315 58.848786 538.591329 58.213940 538.817343 57.581588 539.043357 56.951767 539.269371 56.324510 539.495385 55.699854 539.721399 55.077835 539.947413 54.458487 540.173427 53.841846 540.399441 53.227947 540.625455 52.616826 540.851469 52.008519 541.077483 51.403060 541.303497 50.800485 541.529510 50.200830 541.755524 49.604129 541.981538 49.010419 542.207552 48.419734 542.433566 47.832111 542.659580 47.247584 542.885594 46.666189 543.111608 46.087962 543.337622 45.512937 543.563636 44.941150 543.789650 44.372637 544.015664 43.807433 544.241678 43.245574 544.467692 42.687094 544.693706 42.132030 544.919720 41.580416 545.145734 41.032288 545.371748 40.487682 545.597762 39.946633 545.823776 39.409176 546.049790 38.875346 546.275804 38.345180 546.501818 37.818713 546.727832 37.295979 546.953846 36.777015 547.179860 36.261856 547.405874 35.750537 547.631888 35.243093 547.857902 34.739561 548.083916 34.239975 548.309930 33.744371 548.535944 33.252784 548.761958 32.765250 548.987972 32.281804 549.213986 31.802481 549.440000 31.327318 549.666014 30.856349 549.892028 30.389609 550.118042 29.927135 550.344056 29.468961 550.570070 29.015124 550.796084 28.565658 551.022098 28.120598 551.248112 27.679981 551.474126 27.243842 551.700140 26.812215 551.926154 26.385137 552.152168 25.962643 552.378182 25.544769 552.604196 25.131549 552.830210 24.723019 553.056224 24.319215 553.282238 23.920172 553.508252 23.525925 553.734266 23.136510 553.960280 22.751962 554.186294 22.372317 554.412308 21.997610 554.638322 21.627876 554.864336 21.263151 555.090350 20.903470 555.316364 20.548869 555.542378 20.199384 555.768392 19.855048 555.994406 19.515899 556.220420 19.181971 556.446434 18.853300 556.672448 18.529921 556.898462 18.211870 557.124476 17.899181 557.350490 17.591891 557.576503 17.290035 557.802517 16.993648 558.028531 16.702766 558.254545 16.417423 558.480559 16.137657 558.706573 15.863501 558.932587 15.594991 559.158601 15.332164 559.384615 15.075053 559.610629 14.823695 559.836643 14.578125 560.062657 14.338378 560.288671 14.104490 560.514685 13.876496 560.740699 13.654432 560.966713 13.438333 561.192727 13.228234 561.418741 13.024172 561.644755 12.826180 561.870769 12.634295 562.096783 12.448553 562.322797 12.268987 562.548811 12.095635 562.774825 11.928531 563.000839 11.767711 563.226853 11.613210 563.452867 11.465064 563.678881 11.323307 563.904895 11.187976 564.130909 11.059106 564.356923 10.936732 564.582937 10.820890 564.808951 10.711615 565.034965 10.608942 565.260979 10.512907 565.486993 10.423546 565.713007 10.340893 565.939021 10.264984 566.165035 10.195855 566.391049 10.133541 566.617063 10.078077 566.843077 10.029499 567.069091 9.987842 567.295105 9.953142 567.521119 9.925434 567.747133 9.904753 567.973147 9.891135 568.199161 9.884615 568.425175 9.885229 568.651189 9.893013 568.877203 9.908000 569.103217 9.930228 569.329231 9.959731 569.555245 9.996545 569.781259 10.040704 570.007273 10.092246 570.233287 10.151204 570.459301 10.217615 570.685315 10.291514 570.911329 10.372936 571.137343 10.461916 571.363357 10.558491 571.589371 10.662695 571.815385 10.774564 572.041399 10.894133 572.267413 11.021438 572.493427 11.156514 572.719441 11.299397 572.945455 11.450121 573.171469 11.608723 573.397483 11.775238 573.623497 11.949701 573.849510 12.132147 574.075524 12.322613 574.301538 12.521133 574.527552 12.727743 574.753566 12.942478 574.979580 13.165374 575.205594 13.396466 575.431608 13.635789 575.657622 13.883379 575.883636 14.139272 576.109650 14.403502 576.335664 14.676106 576.561678 14.957118 576.787692 15.246574 577.013706 15.544509 577.239720 15.850960 577.465734 16.165960 577.691748 16.489535 577.917762 16.821661 578.143776 17.162303 578.369790 17.511429 578.595804 17.869002 578.821818 18.234990 579.047832 18.609357 579.273846 18.992070 579.499860 19.383093 579.725874 19.782393 579.951888 20.189935 580.177902 20.605685 580.403916 21.029608 580.629930 21.461671 580.855944 21.901839 581.081958 22.350077 581.307972 22.806351 581.533986 23.270627 581.760000 23.742870 581.986014 24.223047 582.212028 24.711122 582.438042 25.207062 582.664056 25.710832 582.890070 26.222398 583.116084 26.741725 583.342098 27.268779 583.568112 27.803526 583.794126 28.345932 584.020140 28.895961 584.246154 29.453580 584.472168 30.018754 584.698182 30.591450 584.924196 31.171632 585.150210 31.759267 585.376224 32.354319 585.602238 32.956755 585.828252 33.566541 586.054266 34.183641 586.280280 34.808022 586.506294 35.439649 586.732308 36.078489 586.958322 36.724505 587.184336 37.377665 587.410350 38.037934 587.636364 38.705278 587.862378 39.379662 588.088392 40.061051 588.314406 40.749413 588.540420 41.444711 588.766434 42.146912 588.992448 42.855982 589.218462 43.571886 589.444476 44.294590 589.670490 45.024059 589.896503 45.760259 590.122517 46.503157 590.348531 47.252716 590.574545 48.008904 590.800559 48.771686 591.026573 49.541027 591.252587 50.316893 591.478601 51.099249 591.704615 51.888063 591.930629 52.683298 592.156643 53.484921 592.382657 54.292897 592.608671 55.107193 592.834685 55.927773 593.060699 56.754603 593.286713 57.587649 593.512727 58.426877 593.738741 59.272253 593.964755 60.123741 594.190769 60.981308 594.416783 61.844920 594.642797 62.714541 594.868811 63.590138 595.094825 64.471676 595.320839 65.359121 595.546853 66.252438 595.772867 67.151594 595.998881 68.056554 596.224895 68.967283 596.450909 69.883748 596.676923 70.805913 596.902937 71.733745 597.128951 72.667209 597.354965 73.606271 597.580979 74.550896 597.806993 75.501051 598.033007 76.456700 598.259021 77.417810 598.485035 78.384346 598.711049 79.356274 598.937063 80.333559 599.163077 81.316167 599.389091 82.304064 599.615105 83.297215 599.841119 84.295587 600.067133 85.299144 600.293147 86.307853 600.519161 87.321678 600.745175 88.340587 600.971189 89.364543 601.197203 90.393514 601.423217 91.427465 601.649231 92.466360 601.875245 93.510167 602.101259 94.558850 602.327273 95.612376 602.553287 96.670710 602.779301 97.733817 603.005315 98.801663 603.231329 99.874215 603.457343 100.951437 603.683357 102.033295 603.909371 103.119755 604.135385 104.210783 604.361399 105.306344 604.587413 106.406404 604.813427 107.510928 605.039441 108.619882 605.265455 109.733233 605.491469 110.850945 605.717483 111.972984 605.943497 113.099316 606.169510 114.229906 606.395524 115.364720 606.621538 116.503725 606.847552 117.646884 607.073566 118.794165 607.299580 119.945533 607.525594 121.100953 607.751608 122.260391 607.977622 123.423813 608.203636 124.591184 608.429650 125.762470 608.655664 126.937637 608.881678 128.116651 609.107692 129.299476 609.333706 130.486079 609.559720 131.676426 609.785734 132.870481 610.011748 134.068211 610.237762 135.269581 610.463776 136.474558 610.689790 137.683106 610.915804 138.895191 611.141818 140.110779 611.367832 141.329836 611.593846 142.552327 611.819860 143.778218 612.045874 145.007474 612.271888 146.240062 612.497902 147.475947 612.723916 148.715094 612.949930 149.957469 613.175944 151.203039 613.401958 152.451767 613.627972 153.703621 613.853986 154.958566 614.080000 156.216567 614.306014 157.477591 614.532028 158.741602 614.758042 160.008566 614.984056 161.278450 615.210070 162.551219 615.436084 163.826838 615.662098 165.105273 615.888112 166.386490 616.114126 167.670454 616.340140 168.957131 616.566154 170.246487 616.792168 171.538487 617.018182 172.833098 617.244196 174.130284 617.470210 175.430011 617.696224 176.732246 617.922238 178.036953 618.148252 179.344098 618.374266 180.653648 618.600280 181.965567 618.826294 183.279821 619.052308 184.596377 619.278322 185.915199 619.504336 187.236253 619.730350 188.559505 619.956364 189.884920 620.182378 191.212465 620.408392 192.542105 620.634406 193.873806 620.860420 195.207532 621.086434 196.543251 621.312448 197.880927 621.538462 199.220526 621.764476 200.562014 621.990490 201.905356 622.216503 203.250519 622.442517 204.597467 622.668531 205.946167 622.894545 207.296584 623.120559 208.648684 623.346573 210.002433 623.572587 211.357795 623.798601 212.714737 624.024615 214.073225 624.250629 215.433223 624.476643 216.794699 624.702657 218.157617 624.928671 219.521942 625.154685 220.887642 625.380699 222.254681 625.606713 223.623025 625.832727 224.992639 626.058741 226.363490 626.284755 227.735543 626.510769 229.108763 626.736783 230.483117 626.962797 231.858570 627.188811 233.235088 627.414825 234.612635 627.640839 235.991179 627.866853 237.370684 628.092867 238.751117 628.318881 240.132442 628.544895 241.514626 628.770909 242.897634 628.996923 244.281432 629.222937 245.665986 629.448951 247.051260 629.674965 248.437222 629.900979 249.823836 630.126993 251.211068 630.353007 252.598885 630.579021 253.987250 630.805035 255.376131 631.031049 256.765492 631.257063 258.155300 631.483077 259.545520 631.709091 260.936118 631.935105 262.327060 632.161119 263.718310 632.387133 265.109835 632.613147 266.501601 632.839161 267.893572 633.065175 269.285715 633.291189 270.677996 633.517203 272.070380 633.743217 273.462832 633.969231 274.855319 633.969231 514.000000" /></g></g><g class="titles"><text class="title plot_title" x="400.0" y="26">Asok 50</text></g><g class="plot overlay" transform="translate(133, 46)"><g class="series serie-0 color-0"><g class="dots"><circle class="dot reactive tooltip-trigger" cx="12.43076923076923" cy="211.68698711367466" r="2.5" /><desc class="value">721000</desc><desc class="x ">12.43076923076923</desc><desc class="y ">211.68698711367466</desc><desc class="x_label">Jan</desc></g><g class="dots"><circle class="dot reactive tooltip-trigger" cx="68.93426573426574" cy="271.8473030777226" r="2.5" /><desc class="value">701000</desc><desc class="x top">68.93426573426574</desc><desc class="y top">271.8473030777226</desc><desc class="x_label">Feb</desc></g><g class="dots"><circle class="dot reactive tooltip-trigger" cx="125.43776223776223" cy="106.40643417659066" r="2.5" /><desc class="value">756000</desc><desc class="x ">125.43776223776223</desc><desc class="y ">106.40643417659066</desc><desc class="x_label">Mar</desc></g><g class="dots"><circle class="dot reactive tooltip-trigger" cx="181.94125874125874" cy="494.44047214470004" r="2.5" /><desc class="value">627000</desc><desc class="x top">181.94125874125874</desc><desc class="y top">494.44047214470004</desc><desc class="x_label">Apr</desc></g><g class="dots"><circle class="dot reactive tooltip-trigger" cx="238.44475524475524" cy="271.8473030777226" r="2.5" /><desc class="value">701000</desc><desc class="x top">238.44475524475524</desc><desc class="y top">271.8473030777226</desc><desc class="x_label">May</desc></g><g class="dots"><circle class="dot reactive tooltip-trigger" cx="294.9482517482517" cy="151.52667114962668" r="2.5" /><desc class="value">741000</desc><desc class="x ">294.9482517482517</desc><desc class="y ">151.52667114962668</desc><desc class="x_label">Jun</desc></g><g class="dots"><circle class="dot reactive tooltip-trigger" cx="351.4517482517482" cy="190.63087652625785" r="2.5" /><desc class="value">728000</desc><desc class="x left">351.4517482517482</desc><desc class="y left">190.63087652625785</desc><desc class="x_label">Jul</desc></g><g class="dots"><circle class="dot reactive tooltip-trigger" cx="407.95524475524473" cy="106.40643417659066" r="2.5" /><desc class="value">756000</desc><desc class="x left">407.95524475524473</desc><desc class="y left">106.40643417659066</desc><desc class="x_label">Aug</desc></g><g class="dots"><circle class="dot reactive tooltip-trigger" cx="464.45874125874127" cy="214.69500291187705" r="2.5" /><desc class="value">720000</desc><desc class="x left">464.45874125874127</desc><desc class="y left">214.69500291187705</desc><desc class="x_label">Sep</desc></g><g class="dots"><circle class="dot reactive tooltip-trigger" cx="520.9622377622377" cy="112.42246577299551" r="2.5" /><desc class="value">754000</desc><desc class="x left">520.9622377622377</desc><desc class="y left">112.42246577299551</desc><desc class="x_label">Oct</desc></g><g class="dots"><circle class="dot reactive tooltip-trigger" cx="577.4657342657342" cy="16.16596023051875" r="2.5" /><desc class="value">786000</desc><desc class="x left">577.4657342657342</desc><desc class="y left">16.16596023051875</desc><desc class="x_label">Nov</desc></g><g class="dots"><circle class="dot reactive tooltip-trigger" cx="633.9692307692308" cy="274.85531887592504" r="2.5" /><desc class="value">700000</desc><desc class="x left top">633.9692307692308</desc><desc class="y left top">274.85531887592504</desc><desc class="x_label">Dec</desc></g></g></g><g class="plot text-overlay" transform="translate(133, 46)"><g class="series serie-0 color-0" /></g><g class="plot tooltip-overlay" transform="translate(133, 46)"><g class="tooltip" style="opacity: 0" transform="translate(0 0)"><rect class="tooltip-box" height="0" rx="0" ry="0" width="0" /><g class="text" /></g></g><g class="legends" transform="translate(10, 56)"><g class="legend reactive activate-serie" id="activate-serie-0"><rect class="color-0 reactive" height="12" width="12" x="0.0" y="1.0" /><text x="17.0" y="11.2">Asok</text></g></g><g class="legends" transform="translate(790, 56)" /></g></svg>