<?xml version='1.0' encoding='utf-8'?>
<svg xmlns:xlink="http://www.w3.org/1999/xlink" class="pygal-chart" id="chart-20b23b78-db96-45a9-87ac-6ea25c25f1bf" viewBox="0 0 800 600" xmlns="http://www.w3.org/2000/svg"><!--Generated with pygal 2.0.11 (etree) ©Kozea 2011-2015 on 2015-12-10--><!--http://pygal.org--><!--http://github.com/Kozea/pygal--><defs><style type="text/css">#chart-20b23b78-db96-45a9-87ac-6ea25c25f1bf{-webkit-user-select:none;-webkit-font-smoothing:antialiased;font-family:Consolas,"Liberation Mono",Menlo,Courier,monospace}#chart-20b23b78-db96-45a9-87ac-6ea25c25f1bf .title{font-family:Consolas,"Liberation Mono",Menlo,Courier,monospace;font-size:16px}#chart-20b23b78-db96-45a9-87ac-6ea25c25f1bf .legends .legend text{font-family:Consolas,"Liberation Mono",Menlo,Courier,monospace;font-size:14px}#chart-20b23b78-db96-45a9-87ac-6ea25c25f1bf .axis text{font-family:Consolas,"Liberation Mono",Menlo,Courier,monospace;font-size:10px}#chart-20b23b78-db96-45a9-87ac-6ea25c25f1bf .axis text.major{font-family:Consolas,"Liberation Mono",Menlo,Courier,monospace;font-size:10px}#chart-20b23b78-db96-45a9-87ac-6ea25c25f1bf .text-overlay text.value{font-family:Consolas,"Liberation Mono",Menlo,Courier,monospace;font-size:16px}#chart-20b23b78-db96-45a9-87ac-6ea25c25f1bf .text-overlay text.label{font-family:Consolas,"Liberation Mono",Menlo,Courier,monospace;font-size:10px}#chart-20b23b78-db96-45a9-87ac-6ea25c25f1bf .tooltip{font-family:Consolas,"Liberation Mono",Menlo,Courier,monospace;font-size:14px}#chart-20b23b78-db96-45a9-87ac-6ea25c25f1bf text.no_data{font-family:Consolas,"Liberation Mono",Menlo,Courier,monospace;font-size:64px}
#chart-20b23b78-db96-45a9-87ac-6ea25c25f1bf{background-color:black}#chart-20b23b78-db96-45a9-87ac-6ea25c25f1bf path,#chart-20b23b78-db96-45a9-87ac-6ea25c25f1bf line,#chart-20b23b78-db96-45a9-87ac-6ea25c25f1bf rect,#chart-20b23b78-db96-45a9-87ac-6ea25c25f1bf circle{-webkit-transition:250ms;-moz-transition:250ms;transition:250ms}#chart-20b23b78-db96-45a9-87ac-6ea25c25f1bf .graph &gt; .background{fill:black}#chart-20b23b78-db96-45a9-87ac-6ea25c25f1bf .plot &gt; .background{fill:#111}#chart-20b23b78-db96-45a9-87ac-6ea25c25f1bf .graph{fill:#999}#chart-20b23b78-db96-45a9-87ac-6ea25c25f1bf text.no_data{fill:#eee}#chart-20b23b78-db96-45a9-87ac-6ea25c25f1bf .title{fill:#eee}#chart-20b23b78-db96-45a9-87ac-6ea25c25f1bf .legends .legend text{fill:#999}#chart-20b23b78-db96-45a9-87ac-6ea25c25f1bf .legends .legend:hover text{fill:#eee}#chart-20b23b78-db96-45a9-87ac-6ea25c25f1bf .axis .line{stroke:#eee}#chart-20b23b78-db96-45a9-87ac-6ea25c25f1bf .axis .guide.line{stroke:#555}#chart-20b23b78-db96-45a9-87ac-6ea25c25f1bf .axis .major.line{stroke:#999}#chart-20b23b78-db96-45a9-87ac-6ea25c25f1bf .axis text.major{fill:#eee}#chart-20b23b78-db96-45a9-87ac-6ea25c25f1bf .axis.y .guides:hover .guide.line,#chart-20b23b78-db96-45a9-87ac-6ea25c25f1bf .line-graph .axis.x .guides:hover .guide.line,#chart-20b23b78-db96-45a9-87ac-6ea25c25f1bf .stackedline-graph .axis.x .guides:hover .guide.line,#chart-20b23b78-db96-45a9-87ac-6ea25c25f1bf .xy-graph .axis.x .guides:hover .guide.line{stroke:#eee}#chart-20b23b78-db96-45a9-87ac-6ea25c25f1bf .axis .guides:hover text{fill:#eee}#chart-20b23b78-db96-45a9-87ac-6ea25c25f1bf .reactive{fill-opacity:.8}#chart-20b23b78-db96-45a9-87ac-6ea25c25f1bf .reactive.active,#chart-20b23b78-db96-45a9-87ac-6ea25c25f1bf .active .reactive{fill-opacity:.4;stroke-width:4}#chart-20b23b78-db96-45a9-87ac-6ea25c25f1bf .series text{fill:#eee}#chart-20b23b78-db96-45a9-87ac-6ea25c25f1bf .tooltip rect{fill:#111;stroke:#eee;-webkit-transition:opacity 250ms;-moz-transition:opacity 250ms;transition:opacity 250ms}#chart-20b23b78-db96-45a9-87ac-6ea25c25f1bf .tooltip .label{fill:#999}#chart-20b23b78-db96-45a9-87ac-6ea25c25f1bf .tooltip .label{fill:#999}#chart-20b23b78-db96-45a9-87ac-6ea25c25f1bf .tooltip .legend{font-size:.8em;fill:#555}#chart-20b23b78-db96-45a9-87ac-6ea25c25f1bf .tooltip .x_label{font-size:.6em;fill:#eee}#chart-20b23b78-db96-45a9-87ac-6ea25c25f1bf .tooltip .xlink{font-size:.5em;text-decoration:underline}#chart-20b23b78-db96-45a9-87ac-6ea25c25f1bf .tooltip .value{font-size:1.5em}#chart-20b23b78-db96-45a9-87ac-6ea25c25f1bf .map-element{fill:#111;stroke:#555 !important}#chart-20b23b78-db96-45a9-87ac-6ea25c25f1bf .map-element .reactive{fill-opacity:inherit}#chart-20b23b78-db96-45a9-87ac-6ea25c25f1bf .color-0,#chart-20b23b78-db96-45a9-87ac-6ea25c25f1bf .color-0 a:visited{stroke:#ff5995;fill:#ff5995}#chart-20b23b78-db96-45a9-87ac-6ea25c25f1bf .text-overlay .color-0 text{fill:black}
#chart-20b23b78-db96-45a9-87ac-6ea25c25f1bf text.no_data{text-anchor:middle}#chart-20b23b78-db96-45a9-87ac-6ea25c25f1bf .guide.line{fill:none}#chart-20b23b78-db96-45a9-87ac-6ea25c25f1bf .centered{text-anchor:middle}#chart-20b23b78-db96-45a9-87ac-6ea25c25f1bf .title{text-anchor:middle}#chart-20b23b78-db96-45a9-87ac-6ea25c25f1bf .legends .legend text{fill-opacity:1}#chart-20b23b78-db96-45a9-87ac-6ea25c25f1bf .axis.x text{text-anchor:middle}#chart-20b23b78-db96-45a9-87ac-6ea25c25f1bf .axis.x:not(.web) text[transform]{text-anchor:start}#chart-20b23b78-db96-45a9-87ac-6ea25c25f1bf .axis.x:not(.web) text[transform].backwards{text-anchor:end}#chart-20b23b78-db96-45a9-87ac-6ea25c25f1bf .axis.y text{text-anchor:end}#chart-20b23b78-db96-45a9-87ac-6ea25c25f1bf .axis.y text[transform].backwards{text-anchor:start}#chart-20b23b78-db96-45a9-87ac-6ea25c25f1bf .axis.y2 text{text-anchor:start}#chart-20b23b78-db96-45a9-87ac-6ea25c25f1bf .axis.y2 text[transform].backwards{text-anchor:end}#chart-20b23b78-db96-45a9-87ac-6ea25c25f1bf .axis .guide.line{stroke-dasharray:4,4}#chart-20b23b78-db96-45a9-87ac-6ea25c25f1bf .axis .major.guide.line{stroke-dasharray:6,6}#chart-20b23b78-db96-45a9-87ac-6ea25c25f1bf .horizontal .axis.y .guide.line,#chart-20b23b78-db96-45a9-87ac-6ea25c25f1bf .horizontal .axis.y2 .guide.line,#chart-20b23b78-db96-45a9-87ac-6ea25c25f1bf .vertical .axis.x .guide.line{opacity:0}#chart-20b23b78-db96-45a9-87ac-6ea25c25f1bf .horizontal .axis.always_show .guide.line,#chart-20b23b78-db96-45a9-87ac-6ea25c25f1bf .vertical .axis.always_show .guide.line{opacity:1 !important}#chart-20b23b78-db96-45a9-87ac-6ea25c25f1bf .axis.y .guides:hover .guide.line,#chart-20b23b78-db96-45a9-87ac-6ea25c25f1bf .axis.y2 .guides:hover .guide.line,#chart-20b23b78-db96-45a9-87ac-6ea25c25f1bf .axis.x .guides:hover .guide.line{opacity:1}#chart-20b23b78-db96-45a9-87ac-6ea25c25f1bf .axis .guides:hover text{opacity:1}#chart-20b23b78-db96-45a9-87ac-6ea25c25f1bf .nofill{fill:none}#chart-20b23b78-db96-45a9-87ac-6ea25c25f1bf .subtle-fill{fill-opacity:.2}#chart-20b23b78-db96-45a9-87ac-6ea25c25f1bf .dot{stroke-width:1px;fill-opacity:1}#chart-20b23b78-db96-45a9-87ac-6ea25c25f1bf .dot.active{stroke-width:5px}#chart-20b23b78-db96-45a9-87ac-6ea25c25f1bf .dot.negative{fill:transparent}#chart-20b23b78-db96-45a9-87ac-6ea25c25f1bf text,#chart-20b23b78-db96-45a9-87ac-6ea25c25f1bf tspan{stroke:none !important}#chart-20b23b78-db96-45a9-87ac-6ea25c25f1bf .series text.active{opacity:1}#chart-20b23b78-db96-45a9-87ac-6ea25c25f1bf .tooltip rect{fill-opacity:.95;stroke-width:.5}#chart-20b23b78-db96-45a9-87ac-6ea25c25f1bf .tooltip text{fill-opacity:1}#chart-20b23b78-db96-45a9-87ac-6ea25c25f1bf .showable{visibility:hidden}#chart-20b23b78-db96-45a9-87ac-6ea25c25f1bf .showable.shown{visibility:visible}</style><script type="text/javascript">window.pygal = window.pygal || {};window.pygal.config = window.pygal.config || {};window.pygal.config['20b23b78-db96-45a9-87ac-6ea25c25f1bf'] = {"css": ["file://style.css", "file://graph.css"], "legend_at_bottom": false, "stroke_style": null, "missing_value_fill_truncation": "x", "tooltip_border_radius": 0, "inner_radius": 0, "min_scale": 4, "show_x_guides": false, "y_label_rotation": 0, "show_only_major_dots": false, "interpolation_precision": 250, "margin_right": null, "x_label_rotation": 0, "dynamic_print_values": false, "margin_top": null, "x_labels_major_count": null, "js": ["//kozea.github.io/pygal.js/2.0.x/pygal-tooltips.min.js"], "interpolation_parameters": {}, "no_prefix": false, "title": "Mo-Chit 50", "x_labels": ["Jan", "Feb", "Mar", "Apr", "May", "Jun", "Jul", "Aug", "Sep", "Oct", "Nov", "Dec"], "width": 800, "range": null, "show_y_guides": true, "truncate_legend": null, "force_uri_protocol": null, "x_title": null, "interpolate": "cubic", "fill": true, "print_zeroes": true, "margin_left": null, "legend_box_size": 12, "show_minor_y_labels": true, "logarithmic": false, "legend_at_bottom_columns": null, "value_formatter": null, "stroke": true, "margin_bottom": null, "pretty_print": false, "show_minor_x_labels": true, "y_labels_major_count": null, "disable_xml_declaration": false, "y_labels_major_every": null, "truncate_label": null, "stack_from_top": false, "defs": [], "human_readable": false, "include_x_axis": false, "show_legend": true, "tooltip_fancy_mode": true, "y_title": null, "style": {"tooltip_font_size": 14, "major_label_font_family": "Consolas, \"Liberation Mono\", Menlo, Courier, monospace", "value_font_family": "Consolas, \"Liberation Mono\", Menlo, Courier, monospace", "foreground": "#999", "tooltip_font_family": "Consolas, \"Liberation Mono\", Menlo, Courier, monospace", "opacity": ".8", "font_family": "Consolas, \"Liberation Mono\", Menlo, Courier, monospace", "foreground_subtle": "#555", "colors": ["#ff5995", "#b6e354", "#feed6c", "#8cedff", "#9e6ffe", "#899ca1", "#f8f8f2", "#bf4646", "#516083", "#f92672", "#82b414", "#fd971f", "#56c2d6", "#808384", "#8c54fe", "#465457"], "foreground_strong": "#eee", "no_data_font_size": 64, "opacity_hover": ".4", "plot_background": "#111", "value_font_size": 16, "legend_font_family": "Consolas, \"Liberation Mono\", Menlo, Courier, monospace", "value_label_font_size": 10, "major_guide_stroke_dasharray": "6,6", "legend_font_size": 14, "label_font_family": "Consolas, \"Liberation Mono\", Menlo, Courier, monospace", "label_font_size": 10, "transition": "250ms", "title_font_size": 16, "value_label_font_family": "Consolas, \"Liberation Mono\", Menlo, Courier, monospace", "background": "black", "title_font_family": "Consolas, \"Liberation Mono\", Menlo, Courier, monospace", "value_colors": [], "no_data_font_family": "Consolas, \"Liberation Mono\", Menlo, Courier, monospace", "guide_stroke_dasharray": "4,4", "major_label_font_size": 10}, "strict": false, "xrange": null, "rounded_bars": null, "x_labels_major": null, "dots_size": 2.5, "show_dots": true, "order_min": null, "no_data_text": "No data", "y_labels": null, "print_labels": false, "spacing": 10, "y_labels_major": null, "print_values": false, "legends": ["Mo-Chit"], "zero": 0, "height": 600, "margin": 20, "box_mode": "extremes", "show_y_labels": true, "inverse_y_axis": false, "max_scale": 16, "show_x_labels": true, "explicit_size": false, "x_value_formatter": null, "secondary_range": null, "x_labels_major_every": null, "half_pie": false}</script><script type="text/javascript" xlink:href="//kozea.github.io/pygal.js/2.0.x/pygal-tooltips.min.js" /></defs><title>Mo-Chit 50</title><g class="graph line-graph vertical"><rect class="background" height="600" width="800" x="0" y="0" /><g class="plot" transform="translate(164, 46)"><rect class="background" height="514" width="615.2" x="0" y="0" /><g class="axis y"><path class="line" d="M0.000000 514.000000 h615.200000" /><g class="guides"><path class="guide line" d="M0.000000 497.140996 h615.200000" /><text class="" x="-5" y="500.6409963551575">880000.0</text><title>880000.0</title></g><g class="guides"><path class="major guide line" d="M0.000000 443.840308 h615.200000" /><text class="major" x="-5" y="447.34030810773777">900000.0</text><title>900000.0</title></g><g class="guides"><path class="guide line" d="M0.000000 390.539620 h615.200000" /><text class="" x="-5" y="394.03961986031806">920000.0</text><title>920000.0</title></g><g class="guides"><path class="guide line" d="M0.000000 337.238932 h615.200000" /><text class="" x="-5" y="340.73893161289834">940000.0</text><title>940000.0</title></g><g class="guides"><path class="guide line" d="M0.000000 283.938243 h615.200000" /><text class="" x="-5" y="287.4382433654786">960000.0</text><title>960000.0</title></g><g class="guides"><path class="guide line" d="M0.000000 230.637555 h615.200000" /><text class="" x="-5" y="234.1375551180589">980000.0</text><title>980000.0</title></g><g class="guides"><path class="major guide line" d="M0.000000 177.336867 h615.200000" /><text class="major" x="-5" y="180.8368668706392">1000000.0</text><title>1000000.0</title></g><g class="guides"><path class="guide line" d="M0.000000 124.036179 h615.200000" /><text class="" x="-5" y="127.53617862321948">1020000.0</text><title>1020000.0</title></g><g class="guides"><path class="guide line" d="M0.000000 70.735490 h615.200000" /><text class="" x="-5" y="74.23549037579983">1040000.0</text><title>1040000.0</title></g><g class="guides"><path class="guide line" d="M0.000000 17.434802 h615.200000" /><text class="" x="-5" y="20.934802128380113">1060000.0</text><title>1060000.0</title></g></g><g class="axis x"><g class="guides"><path class="line" d="M11.830769 0.000000 v514.000000" /><text class="" x="11.830769230769233" y="529.0">Jan</text></g><g class="guides"><path class="guide line" d="M65.606993 0.000000 v514.000000" /><text class="" x="65.60699300699302" y="529.0">Feb</text></g><g class="guides"><path class="guide line" d="M119.383217 0.000000 v514.000000" /><text class="" x="119.38321678321678" y="529.0">Mar</text></g><g class="guides"><path class="guide line" d="M173.159441 0.000000 v514.000000" /><text class="" x="173.15944055944055" y="529.0">Apr</text></g><g class="guides"><path class="guide line" d="M226.935664 0.000000 v514.000000" /><text class="" x="226.93566433566437" y="529.0">May</text></g><g class="guides"><path class="guide line" d="M280.711888 0.000000 v514.000000" /><text class="" x="280.71188811188813" y="529.0">Jun</text></g><g class="guides"><path class="guide line" d="M334.488112 0.000000 v514.000000" /><text class="" x="334.4881118881119" y="529.0">Jul</text></g><g class="guides"><path class="guide line" d="M388.264336 0.000000 v514.000000" /><text class="" x="388.2643356643357" y="529.0">Aug</text></g><g class="guides"><path class="guide line" d="M442.040559 0.000000 v514.000000" /><text class="" x="442.0405594405595" y="529.0">Sep</text></g><g class="guides"><path class="guide line" d="M495.816783 0.000000 v514.000000" /><text class="" x="495.81678321678334" y="529.0">Oct</text></g><g class="guides"><path class="guide line" d="M549.593007 0.000000 v514.000000" /><text class="" x="549.5930069930071" y="529.0">Nov</text></g><g class="guides"><path class="guide line" d="M603.369231 0.000000 v514.000000" /><text class="" x="603.3692307692307" y="529.0">Dec</text></g></g><g class="series serie-0 color-0"><path class="line reactive" d="M11.830769 514.000000 L11.830769 246.627762 12.045874 247.680922 12.260979 248.734024 12.476084 249.787013 12.691189 250.839830 12.906294 251.892419 13.121399 252.944723 13.336503 253.996683 13.551608 255.048245 13.766713 256.099349 13.981818 257.149939 14.196923 258.199959 14.412028 259.249350 14.627133 260.298056 14.842238 261.346020 15.057343 262.393185 15.272448 263.439493 15.487552 264.484887 15.702657 265.529311 15.917762 266.572707 16.132867 267.615018 16.347972 268.656187 16.563077 269.696157 16.778182 270.734871 16.993287 271.772272 17.208392 272.808302 17.423497 273.842904 17.638601 274.876022 17.853706 275.907599 18.068811 276.937577 18.283916 277.965898 18.499021 278.992507 18.714126 280.017346 18.929231 281.040357 19.144336 282.061485 19.359441 283.080670 19.574545 284.097858 19.789650 285.112990 20.004755 286.126009 20.219860 287.136858 20.434965 288.145481 20.650070 289.151819 20.865175 290.155817 21.080280 291.157416 21.295385 292.156560 21.510490 293.153192 21.725594 294.147254 21.940699 295.138690 22.155804 296.127442 22.370909 297.113453 22.586014 298.096667 22.801119 299.077025 23.016224 300.054471 23.231329 301.028948 23.446434 302.000399 23.661538 302.968767 23.876643 303.933994 24.091748 304.896024 24.306853 305.854799 24.521958 306.810262 24.737063 307.762356 24.952168 308.711024 25.167273 309.656210 25.382378 310.597855 25.597483 311.535903 25.812587 312.470296 26.027692 313.400978 26.242797 314.327892 26.457902 315.250980 26.673007 316.170185 26.888112 317.085450 27.103217 317.996719 27.318322 318.903933 27.533427 319.807036 27.748531 320.705971 27.963636 321.600681 28.178741 322.491108 28.393846 323.377196 28.608951 324.258887 28.824056 325.136124 29.039161 326.008850 29.254266 326.877009 29.469371 327.740542 29.684476 328.599393 29.899580 329.453505 30.114685 330.302821 30.329790 331.147283 30.544895 331.986835 30.760000 332.821419 30.975105 333.650979 31.190210 334.475456 31.405315 335.294795 31.620420 336.108937 31.835524 336.917827 32.050629 337.721406 32.265734 338.519618 32.480839 339.312405 32.695944 340.099711 32.911049 340.881479 33.126154 341.657650 33.341259 342.428169 33.556364 343.192978 33.771469 343.952020 33.986573 344.705238 34.201678 345.452574 34.416783 346.193972 34.631888 346.929375 34.846993 347.658725 35.062098 348.381966 35.277203 349.099040 35.492308 349.809890 35.707413 350.514459 35.922517 351.212690 36.137622 351.904527 36.352727 352.589910 36.567832 353.268785 36.782937 353.941093 36.998042 354.606778 37.213147 355.265782 37.428252 355.918048 37.643357 356.563520 37.858462 357.202139 38.073566 357.833850 38.288671 358.458594 38.503776 359.076315 38.718881 359.686956 38.933986 360.290460 39.149091 360.886769 39.364196 361.475827 39.579301 362.057575 39.794406 362.631958 40.009510 363.198918 40.224615 363.758399 40.439720 364.310342 40.654825 364.854690 40.869930 365.391388 41.085035 365.920377 41.300140 366.441601 41.515245 366.955002 41.730350 367.460523 41.945455 367.958107 42.160559 368.447698 42.375664 368.929238 42.590769 369.402669 42.805874 369.867936 43.020979 370.324980 43.236084 370.773744 43.451189 371.214173 43.666294 371.646207 43.881399 372.069791 44.096503 372.484867 44.311608 372.891379 44.526713 373.289268 44.741818 373.678478 44.956923 374.058952 45.172028 374.430633 45.387133 374.793463 45.602238 375.147386 45.817343 375.492345 46.032448 375.828281 46.247552 376.155139 46.462657 376.472861 46.677762 376.781390 46.892867 377.080669 47.107972 377.370641 47.323077 377.651248 47.538182 377.922434 47.753287 378.184142 47.968392 378.436314 48.183497 378.678894 48.398601 378.911823 48.613706 379.135046 48.828811 379.348505 49.043916 379.552143 49.259021 379.745902 49.474126 379.929727 49.689231 380.103559 49.904336 380.267341 50.119441 380.421017 50.334545 380.564529 50.549650 380.697821 50.764755 380.820834 50.979860 380.933513 51.194965 381.035800 51.410070 381.127637 51.625175 381.208969 51.840280 381.279736 52.055385 381.339884 52.270490 381.389354 52.485594 381.428089 52.700699 381.456032 52.915804 381.473127 53.130909 381.479316 53.346014 381.474541 53.561119 381.458747 53.776224 381.431875 53.991329 381.393869 54.206434 381.344671 54.421538 381.284225 54.636643 381.212473 54.851748 381.129359 55.066853 381.034824 55.281958 380.928813 55.497063 380.811268 55.712168 380.682131 55.927273 380.541347 56.142378 380.388857 56.357483 380.224604 56.572587 380.048532 56.787692 379.860583 57.002797 379.660701 57.217902 379.448828 57.433007 379.224906 57.648112 378.988880 57.863217 378.740692 58.078322 378.480284 58.293427 378.207600 58.508531 377.922583 58.723636 377.625175 58.938741 377.315320 59.153846 376.992959 59.368951 376.658037 59.584056 376.310496 59.799161 375.950279 60.014266 375.577329 60.229371 375.191589 60.444476 374.793001 60.659580 374.381509 60.874685 373.957055 61.089790 373.519583 61.304895 373.069035 61.520000 372.605354 61.735105 372.128484 61.950210 371.638366 62.165315 371.134944 62.380420 370.618161 62.595524 370.087960 62.810629 369.544283 63.025734 368.987073 63.240839 368.416274 63.455944 367.831829 63.671049 367.233679 63.886154 366.621769 64.101259 365.996041 64.316364 365.356437 64.531469 364.702901 64.746573 364.035376 64.961678 363.353805 65.176783 362.658130 65.391888 361.948295 65.606993 361.224241 65.822098 360.485948 66.037203 359.733530 66.252308 358.967138 66.467413 358.186923 66.682517 357.393034 66.897622 356.585623 67.112727 355.764839 67.327832 354.930834 67.542937 354.083757 67.758042 353.223758 67.973147 352.350989 68.188252 351.465600 68.403357 350.567741 68.618462 349.657563 68.833566 348.735215 69.048671 347.800849 69.263776 346.854614 69.478881 345.896662 69.693986 344.927142 69.909091 343.946206 70.124196 342.954002 70.339301 341.950683 70.554406 340.936398 70.769510 339.911297 70.984615 338.875532 71.199720 337.829252 71.414825 336.772608 71.629930 335.705750 71.845035 334.628828 72.060140 333.541994 72.275245 332.445398 72.490350 331.339189 72.705455 330.223519 72.920559 329.098537 73.135664 327.964395 73.350769 326.821242 73.565874 325.669229 73.780979 324.508507 73.996084 323.339225 74.211189 322.161535 74.426294 320.975586 74.641399 319.781530 74.856503 318.579515 75.071608 317.369694 75.286713 316.152216 75.501818 314.927231 75.716923 313.694891 75.932028 312.455345 76.147133 311.208744 76.362238 309.955239 76.577343 308.694979 76.792448 307.428115 77.007552 306.154798 77.222657 304.875178 77.437762 303.589405 77.652867 302.297630 77.867972 301.000003 78.083077 299.696675 78.298182 298.387795 78.513287 297.073516 78.728392 295.753986 78.943497 294.429356 79.158601 293.099777 79.373706 291.765399 79.588811 290.426373 79.803916 289.082848 80.019021 287.734976 80.234126 286.382907 80.449231 285.026790 80.664336 283.666777 80.879441 282.303018 81.094545 280.935664 81.309650 279.564864 81.524755 278.190770 81.739860 276.813531 81.954965 275.433298 82.170070 274.050221 82.385175 272.664452 82.600280 271.276139 82.815385 269.885434 83.030490 268.492488 83.245594 267.097449 83.460699 265.700470 83.675804 264.301700 83.890909 262.901289 84.106014 261.499389 84.321119 260.096149 84.536224 258.691721 84.751329 257.286253 84.966434 255.879898 85.181538 254.472804 85.396643 253.065123 85.611748 251.657005 85.826853 250.248601 86.041958 248.840060 86.257063 247.431533 86.472168 246.023171 86.687273 244.615125 86.902378 243.207543 87.117483 241.800578 87.332587 240.394378 87.547692 238.989096 87.762797 237.584880 87.977902 236.181882 88.193007 234.780252 88.408112 233.380141 88.623217 231.981698 88.838322 230.585074 89.053427 229.190420 89.268531 227.797886 89.483636 226.407622 89.698741 225.019779 89.913846 223.634507 90.128951 222.251957 90.344056 220.872278 90.559161 219.495623 90.774266 218.122140 90.989371 216.751980 91.204476 215.385294 91.419580 214.022232 91.634685 212.662945 91.849790 211.307582 92.064895 209.956295 92.280000 208.609234 92.495105 207.266548 92.710210 205.928390 92.925315 204.594908 93.140420 203.266253 93.355524 201.942577 93.570629 200.624028 93.785734 199.310758 94.000839 198.002917 94.215944 196.700656 94.431049 195.404124 94.646154 194.113473 94.861259 192.828852 95.076364 191.550413 95.291469 190.278305 95.506573 189.012678 95.721678 187.753685 95.936783 186.501473 96.151888 185.256195 96.366993 184.018001 96.582098 182.787040 96.797203 181.563464 97.012308 180.347422 97.227413 179.139066 97.442517 177.938545 97.657622 176.746010 97.872727 175.561612 98.087832 174.385500 98.302937 173.217826 98.518042 172.058739 98.733147 170.908391 98.948252 169.766931 99.163357 168.634509 99.378462 167.511277 99.593566 166.397385 99.808671 165.292983 100.023776 164.198221 100.238881 163.113251 100.453986 162.038221 100.669091 160.973283 100.884196 159.918588 101.099301 158.874285 101.314406 157.840525 101.529510 156.817459 101.744615 155.805236 101.959720 154.804007 102.174825 153.813923 102.389930 152.835135 102.605035 151.867791 102.820140 150.912044 103.035245 149.968042 103.250350 149.035938 103.465455 148.115880 103.680559 147.208020 103.895664 146.312508 104.110769 145.429494 104.325874 144.559129 104.540979 143.701563 104.756084 142.856947 104.971189 142.025430 105.186294 141.207164 105.401399 140.402299 105.616503 139.610985 105.831608 138.833373 106.046713 138.069612 106.261818 137.319854 106.476923 136.584249 106.692028 135.862947 106.907133 135.156099 107.122238 134.463855 107.337343 133.786365 107.552448 133.123781 107.767552 132.476251 107.982657 131.843927 108.197762 131.226960 108.412867 130.625499 108.627972 130.039695 108.843077 129.469698 109.058182 128.915659 109.273287 128.377728 109.488392 127.856056 109.703497 127.350793 109.918601 126.862089 110.133706 126.390095 110.348811 125.934961 110.563916 125.496838 110.779021 125.075876 110.994126 124.672225 111.209231 124.286037 111.424336 123.917460 111.639441 123.566647 111.854545 123.233746 112.069650 122.918909 112.284755 122.622286 112.499860 122.344027 112.714965 122.084283 112.930070 121.843204 113.145175 121.620941 113.360280 121.417644 113.575385 121.233463 113.790490 121.068549 114.005594 120.923052 114.220699 120.797123 114.435804 120.690911 114.650909 120.604569 114.866014 120.538245 115.081119 120.492090 115.296224 120.466255 115.511329 120.460890 115.726434 120.476146 115.941538 120.512173 116.156643 120.569121 116.371748 120.647140 116.586853 120.746382 116.801958 120.866997 117.017063 121.009134 117.232168 121.172945 117.447273 121.358579 117.662378 121.566188 117.877483 121.795921 118.092587 122.047930 118.307692 122.322364 118.522797 122.619373 118.737902 122.939109 118.953007 123.281722 119.168112 123.647361 119.383217 124.036179 119.598322 124.448269 119.813427 124.883510 120.028531 125.341725 120.243636 125.822736 120.458741 126.326367 120.673846 126.852440 120.888951 127.400777 121.104056 127.971203 121.319161 128.563539 121.534266 129.177609 121.749371 129.813235 121.964476 130.470240 122.179580 131.148447 122.394685 131.847680 122.609790 132.567760 122.824895 133.308510 123.040000 134.069754 123.255105 134.851315 123.470210 135.653014 123.685315 136.474676 123.900420 137.316122 124.115524 138.177176 124.330629 139.057661 124.545734 139.957399 124.760839 140.876213 124.975944 141.813926 125.191049 142.770361 125.406154 143.745341 125.621259 144.738689 125.836364 145.750227 126.051469 146.779778 126.266573 147.827166 126.481678 148.892212 126.696783 149.974741 126.911888 151.074574 127.126993 152.191534 127.342098 153.325445 127.557203 154.476130 127.772308 155.643410 127.987413 156.827109 128.202517 158.027050 128.417622 159.243056 128.632727 160.474949 128.847832 161.722552 129.062937 162.985689 129.278042 164.264181 129.493147 165.557853 129.708252 166.866526 129.923357 168.190024 130.138462 169.528169 130.353566 170.880784 130.568671 172.247693 130.783776 173.628717 130.998881 175.023680 131.213986 176.432405 131.429091 177.854714 131.644196 179.290431 131.859301 180.739378 132.074406 182.201378 132.289510 183.676253 132.504615 185.163828 132.719720 186.663924 132.934825 188.176364 133.149930 189.700972 133.365035 191.237570 133.580140 192.785980 133.795245 194.346027 134.010350 195.917532 134.225455 197.500319 134.440559 199.094210 134.655664 200.699028 134.870769 202.314596 135.085874 203.940737 135.300979 205.577274 135.516084 207.224029 135.731189 208.880826 135.946294 210.547487 136.161399 212.223835 136.376503 213.909693 136.591608 215.604884 136.806713 217.309231 137.021818 219.022556 137.236923 220.744682 137.452028 222.475433 137.667133 224.214631 137.882238 225.962098 138.097343 227.717658 138.312448 229.481134 138.527552 231.252349 138.742657 233.031124 138.957762 234.817284 139.172867 236.610651 139.387972 238.411047 139.603077 240.218296 139.818182 242.032221 140.033287 243.852644 140.248392 245.679388 140.463497 247.512276 140.678601 249.351132 140.893706 251.195776 141.108811 253.046034 141.323916 254.901727 141.539021 256.762678 141.754126 258.628711 141.969231 260.499647 142.184336 262.375310 142.399441 264.255523 142.614545 266.140108 142.829650 268.028889 143.044755 269.921688 143.259860 271.818328 143.474965 273.718632 143.690070 275.622423 143.905175 277.529523 144.120280 279.439756 144.335385 281.352944 144.550490 283.268910 144.765594 285.187477 144.980699 287.108468 145.195804 289.031705 145.410909 290.957013 145.626014 292.884212 145.841119 294.813127 146.056224 296.743580 146.271329 298.675394 146.486434 300.608391 146.701538 302.542395 146.916643 304.477229 147.131748 306.412715 147.346853 308.348676 147.561958 310.284935 147.777063 312.221315 147.992168 314.157639 148.207273 316.093729 148.422378 318.029408 148.637483 319.964500 148.852587 321.898827 149.067692 323.832212 149.282797 325.764477 149.497902 327.695446 149.713007 329.624942 149.928112 331.552787 150.143217 333.478804 150.358322 335.402816 150.573427 337.324646 150.788531 339.244117 151.003636 341.161051 151.218741 343.075272 151.433846 344.986602 151.648951 346.894864 151.864056 348.799881 152.079161 350.701475 152.294266 352.599471 152.509371 354.493689 152.724476 356.383955 152.939580 358.270089 153.154685 360.151915 153.369790 362.029256 153.584895 363.901935 153.800000 365.769775 154.015105 367.632597 154.230210 369.490227 154.445315 371.342485 154.660420 373.189195 154.875524 375.030180 155.090629 376.865262 155.305734 378.694266 155.520839 380.517012 155.735944 382.333325 155.951049 384.143026 156.166154 385.945940 156.381259 387.741888 156.596364 389.530694 156.811469 391.312180 157.026573 393.086169 157.241678 394.852485 157.456783 396.610949 157.671888 398.361386 157.886993 400.103617 158.102098 401.837465 158.317203 403.562754 158.532308 405.279306 158.747413 406.986944 158.962517 408.685491 159.177622 410.374770 159.392727 412.054603 159.607832 413.724814 159.822937 415.385224 160.038042 417.035659 160.253147 418.675939 160.468252 420.305887 160.683357 421.925328 160.898462 423.534083 161.113566 425.131975 161.328671 426.718828 161.543776 428.294463 161.758881 429.858705 161.973986 431.411375 162.189091 432.952297 162.404196 434.481293 162.619301 435.998187 162.834406 437.502800 163.049510 438.994957 163.264615 440.474480 163.479720 441.941191 163.694825 443.394913 163.909930 444.835470 164.125035 446.262685 164.340140 447.676379 164.555245 449.076376 164.770350 450.462499 164.985455 451.834571 165.200559 453.192414 165.415664 454.535851 165.630769 455.864705 165.845874 457.178800 166.060979 458.477957 166.276084 459.762000 166.491189 461.030751 166.706294 462.284034 166.921399 463.521671 167.136503 464.743485 167.351608 465.949299 167.566713 467.138936 167.781818 468.312218 167.996923 469.468969 168.212028 470.609011 168.427133 471.732168 168.642238 472.838261 168.857343 473.927114 169.072448 474.998550 169.287552 476.052391 169.502657 477.088461 169.717762 478.106582 169.932867 479.106577 170.147972 480.088269 170.363077 481.051481 170.578182 481.996035 170.793287 482.921755 171.008392 483.828463 171.223497 484.715982 171.438601 485.584135 171.653706 486.432746 171.868811 487.261635 172.083916 488.070628 172.299021 488.859546 172.514126 489.628212 172.729231 490.376449 172.944336 491.104080 173.159441 491.810928 173.374545 492.496862 173.589650 493.161941 173.804755 493.806269 174.019860 494.429952 174.234965 495.033093 174.450070 495.615798 174.665175 496.178172 174.880280 496.720320 175.095385 497.242346 175.310490 497.744355 175.525594 498.226452 175.740699 498.688742 175.955804 499.131331 176.170909 499.554321 176.386014 499.957819 176.601119 500.341930 176.816224 500.706758 177.031329 501.052407 177.246434 501.378984 177.461538 501.686592 177.676643 501.975337 177.891748 502.245323 178.106853 502.496656 178.321958 502.729440 178.537063 502.943779 178.752168 503.139780 178.967273 503.317546 179.182378 503.477183 179.397483 503.618795 179.612587 503.742487 179.827692 503.848364 180.042797 503.936531 180.257902 504.007093 180.473007 504.060154 180.688112 504.095820 180.903217 504.114195 181.118322 504.115385 181.333427 504.099493 181.548531 504.066625 181.763636 504.016886 181.978741 503.950380 182.193846 503.867213 182.408951 503.767488 182.624056 503.651312 182.839161 503.518789 183.054266 503.370024 183.269371 503.205121 183.484476 503.024185 183.699580 502.827322 183.914685 502.614636 184.129790 502.386232 184.344895 502.142215 184.560000 501.882690 184.775105 501.607761 184.990210 501.317533 185.205315 501.012112 185.420420 500.691602 185.635524 500.356107 185.850629 500.005734 186.065734 499.640586 186.280839 499.260768 186.495944 498.866386 186.711049 498.457544 186.926154 498.034347 187.141259 497.596900 187.356364 497.145307 187.571469 496.679674 187.786573 496.200106 188.001678 495.706706 188.216783 495.199581 188.431888 494.678835 188.646993 494.144572 188.862098 493.596899 189.077203 493.035918 189.292308 492.461736 189.507413 491.874457 189.722517 491.274186 189.937622 490.661028 190.152727 490.035088 190.367832 489.396470 190.582937 488.745280 190.798042 488.081622 191.013147 487.405601 191.228252 486.717322 191.443357 486.016889 191.658462 485.304409 191.873566 484.579985 192.088671 483.843722 192.303776 483.095725 192.518881 482.336100 192.733986 481.564950 192.949091 480.782381 193.164196 479.988498 193.379301 479.183405 193.594406 478.367207 193.809510 477.540009 194.024615 476.701917 194.239720 475.853034 194.454825 474.993466 194.669930 474.123317 194.885035 473.242693 195.100140 472.351698 195.315245 471.450437 195.530350 470.539015 195.745455 469.617536 195.960559 468.686106 196.175664 467.744830 196.390769 466.793812 196.605874 465.833157 196.820979 464.862970 197.036084 463.883356 197.251189 462.894419 197.466294 461.896265 197.681399 460.888998 197.896503 459.872724 198.111608 458.847547 198.326713 457.813571 198.541818 456.770902 198.756923 455.719645 198.972028 454.659905 199.187133 453.591785 199.402238 452.515392 199.617343 451.430830 199.832448 450.338203 200.047552 449.237618 200.262657 448.129177 200.477762 447.012988 200.692867 445.889153 200.907972 444.757779 201.123077 443.618969 201.338182 442.472829 201.553287 441.319464 201.768392 440.158978 201.983497 438.991477 202.198601 437.817064 202.413706 436.635846 202.628811 435.447927 202.843916 434.253411 203.059021 433.052404 203.274126 431.845010 203.489231 430.631335 203.704336 429.411482 203.919441 428.185558 204.134545 426.953666 204.349650 425.715912 204.564755 424.472400 204.779860 423.223236 204.994965 421.968524 205.210070 420.708369 205.425175 419.442875 205.640280 418.172149 205.855385 416.896294 206.070490 415.615415 206.285594 414.329618 206.500699 413.039007 206.715804 411.743687 206.930909 410.443762 207.146014 409.139338 207.361119 407.830520 207.576224 406.517412 207.791329 405.200119 208.006434 403.878746 208.221538 402.553398 208.436643 401.224180 208.651748 399.891197 208.866853 398.554553 209.081958 397.214353 209.297063 395.870702 209.512168 394.523705 209.727273 393.173467 209.942378 391.820093 210.157483 390.463687 210.372587 389.104354 210.587692 387.742200 210.802797 386.377329 211.017902 385.009845 211.233007 383.639855 211.448112 382.267462 211.663217 380.892771 211.878322 379.515888 212.093427 378.136917 212.308531 376.755962 212.523636 375.373130 212.738741 373.988524 212.953846 372.602250 213.168951 371.214412 213.384056 369.825116 213.599161 368.434465 213.814266 367.042566 214.029371 365.649522 214.244476 364.255438 214.459580 362.860421 214.674685 361.464573 214.889790 360.068001 215.104895 358.670808 215.320000 357.273101 215.535105 355.874983 215.750210 354.476560 215.965315 353.077936 216.180420 351.679216 216.395524 350.280505 216.610629 348.881908 216.825734 347.483530 217.040839 346.085476 217.255944 344.687850 217.471049 343.290758 217.686154 341.894303 217.901259 340.498592 218.116364 339.103728 218.331469 337.709817 218.546573 336.316964 218.761678 334.925273 218.976783 333.534849 219.191888 332.145798 219.406993 330.758223 219.622098 329.372230 219.837203 327.987924 220.052308 326.605409 220.267413 325.224791 220.482517 323.846174 220.697622 322.469662 220.912727 321.095362 221.127832 319.723377 221.342937 318.353813 221.558042 316.986775 221.773147 315.622366 221.988252 314.260693 222.203357 312.901859 222.418462 311.545971 222.633566 310.193132 222.848671 308.843448 223.063776 307.497022 223.278881 306.153961 223.493986 304.814370 223.709091 303.478352 223.924196 302.146012 224.139301 300.817457 224.354406 299.492789 224.569510 298.172115 224.784615 296.855539 224.999720 295.543167 225.214825 294.235101 225.429930 292.931449 225.645035 291.632314 225.860140 290.337801 226.075245 289.048016 226.290350 287.763063 226.505455 286.483046 226.720559 285.208071 226.935664 283.938243 227.150769 282.673649 227.365874 281.414301 227.580979 280.160198 227.796084 278.911335 228.011189 277.667708 228.226294 276.429314 228.441399 275.196148 228.656503 273.968207 228.871608 272.745487 229.086713 271.527985 229.301818 270.315696 229.516923 269.108617 229.732028 267.906744 229.947133 266.710073 230.162238 265.518600 230.377343 264.332322 230.592448 263.151235 230.807552 261.975335 231.022657 260.804618 231.237762 259.639080 231.452867 258.478718 231.667972 257.323528 231.883077 256.173506 232.098182 255.028648 232.313287 253.888951 232.528392 252.754410 232.743497 251.625023 232.958601 250.500784 233.173706 249.381691 233.388811 248.267739 233.603916 247.158925 233.819021 246.055245 234.034126 244.956695 234.249231 243.863272 234.464336 242.774971 234.679441 241.691789 234.894545 240.613721 235.109650 239.540766 235.324755 238.472917 235.539860 237.410172 235.754965 236.352527 235.970070 235.299978 236.185175 234.252521 236.400280 233.210153 236.615385 232.172870 236.830490 231.140667 237.045594 230.113541 237.260699 229.091489 237.475804 228.074506 237.690909 227.062589 237.906014 226.055734 238.121119 225.053937 238.336224 224.057195 238.551329 223.065503 238.766434 222.078858 238.981538 221.097255 239.196643 220.120692 239.411748 219.149165 239.626853 218.182669 239.841958 217.221201 240.057063 216.264757 240.272168 215.313333 240.487273 214.366925 240.702378 213.425531 240.917483 212.489145 241.132587 211.557764 241.347692 210.631385 241.562797 209.710003 241.777902 208.793615 241.993007 207.882216 242.208112 206.975804 242.423217 206.074374 242.638322 205.177923 242.853427 204.286447 243.068531 203.399941 243.283636 202.518403 243.498741 201.641828 243.713846 200.770213 243.928951 199.903554 244.144056 199.041846 244.359161 198.185087 244.574266 197.333272 244.789371 196.486398 245.004476 195.644461 245.219580 194.807457 245.434685 193.975383 245.649790 193.148233 245.864895 192.326006 246.080000 191.508696 246.295105 190.696301 246.510210 189.888816 246.725315 189.086237 246.940420 188.288561 247.155524 187.495784 247.370629 186.707903 247.585734 185.924913 247.800839 185.146810 248.015944 184.373591 248.231049 183.605252 248.446154 182.841790 248.661259 182.083200 248.876364 181.329478 249.091469 180.580622 249.306573 179.836626 249.521678 179.097488 249.736783 178.363203 249.951888 177.633768 250.166993 176.909179 250.382098 176.189432 250.597203 175.474524 250.812308 174.764450 251.027413 174.059206 251.242517 173.358790 251.457622 172.663197 251.672727 171.972423 251.887832 171.286465 252.102937 170.605318 252.318042 169.928980 252.533147 169.257446 252.748252 168.590712 252.963357 167.928775 253.178462 167.271631 253.393566 166.619276 253.608671 165.971706 253.823776 165.328918 254.038881 164.690907 254.253986 164.057670 254.469091 163.429204 254.684196 162.805503 254.899301 162.186566 255.114406 161.572387 255.329510 160.962963 255.544615 160.358290 255.759720 159.758364 255.974825 159.163182 256.189930 158.572740 256.405035 157.987034 256.620140 157.406060 256.835245 156.829815 257.050350 156.258294 257.265455 155.691494 257.480559 155.129411 257.695664 154.572042 257.910769 154.019381 258.125874 153.471427 258.340979 152.928174 258.556084 152.389620 258.771189 151.855760 258.986294 151.326590 259.201399 150.802107 259.416503 150.282308 259.631608 149.767187 259.846713 149.256742 260.061818 148.750968 260.276923 148.249862 260.492028 147.753420 260.707133 147.261638 260.922238 146.774513 261.137343 146.292040 261.352448 145.814216 261.567552 145.341037 261.782657 144.872500 261.997762 144.408600 262.212867 143.949333 262.427972 143.494697 262.643077 143.044686 262.858182 142.599298 263.073287 142.158529 263.288392 141.722374 263.503497 141.290830 263.718601 140.863893 263.933706 140.441560 264.148811 140.023826 264.363916 139.610688 264.579021 139.202142 264.794126 138.798184 265.009231 138.398811 265.224336 138.004018 265.439441 137.613802 265.654545 137.228160 265.869650 136.847086 266.084755 136.470578 266.299860 136.098631 266.514965 135.731243 266.730070 135.368408 266.945175 135.010124 267.160280 134.656386 267.375385 134.307191 267.590490 133.962535 267.805594 133.622414 268.020699 133.286825 268.235804 132.955763 268.450909 132.629225 268.666014 132.307206 268.881119 131.989704 269.096224 131.676715 269.311329 131.368234 269.526434 131.064258 269.741538 130.764783 269.956643 130.469805 270.171748 130.179320 270.386853 129.893326 270.601958 129.611817 270.817063 129.334790 271.032168 129.062241 271.247273 128.794168 271.462378 128.530564 271.677483 128.271428 271.892587 128.016755 272.107692 127.766541 272.322797 127.520783 272.537902 127.279476 272.753007 127.042618 272.968112 126.810203 273.183217 126.582229 273.398322 126.358692 273.613427 126.139587 273.828531 125.924912 274.043636 125.714662 274.258741 125.508833 274.473846 125.307422 274.688951 125.110424 274.904056 124.917837 275.119161 124.729656 275.334266 124.545878 275.549371 124.366498 275.764476 124.191513 275.979580 124.020920 276.194685 123.854713 276.409790 123.692891 276.624895 123.535448 276.840000 123.382381 277.055105 123.233686 277.270210 123.089359 277.485315 122.949397 277.700420 122.813796 277.915524 122.682552 278.130629 122.555661 278.345734 122.433120 278.560839 122.314924 278.775944 122.201070 278.991049 122.091555 279.206154 121.986373 279.421259 121.885522 279.636364 121.788998 279.851469 121.696796 280.066573 121.608914 280.281678 121.525347 280.496783 121.446092 280.711888 121.371144 280.926993 121.300496 281.142098 121.234119 281.357203 121.171981 281.572308 121.114050 281.787413 121.060294 282.002517 121.010680 282.217622 120.965175 282.432727 120.923748 282.647832 120.886365 282.862937 120.852995 283.078042 120.823606 283.293147 120.798164 283.508252 120.776637 283.723357 120.758994 283.938462 120.745201 284.153566 120.735227 284.368671 120.729038 284.583776 120.726603 284.798881 120.727889 285.013986 120.732864 285.229091 120.741495 285.444196 120.753751 285.659301 120.769598 285.874406 120.789004 286.089510 120.811937 286.304615 120.838364 286.519720 120.868254 286.734825 120.901573 286.949930 120.938290 287.165035 120.978372 287.380140 121.021786 287.595245 121.068500 287.810350 121.118483 288.025455 121.171700 288.240559 121.228121 288.455664 121.287713 288.670769 121.350443 288.885874 121.416279 289.100979 121.485188 289.316084 121.557139 289.531189 121.632098 289.746294 121.710034 289.961399 121.790914 290.176503 121.874706 290.391608 121.961377 290.606713 122.050895 290.821818 122.143227 291.036923 122.238341 291.252028 122.336206 291.467133 122.436787 291.682238 122.540054 291.897343 122.645974 292.112448 122.754513 292.327552 122.865641 292.542657 122.979324 292.757762 123.095530 292.972867 123.214227 293.187972 123.335382 293.403077 123.458964 293.618182 123.584939 293.833287 123.713275 294.048392 123.843940 294.263497 123.976901 294.478601 124.112127 294.693706 124.249584 294.908811 124.389241 295.123916 124.531064 295.339021 124.675023 295.554126 124.821083 295.769231 124.969213 295.984336 125.119381 296.199441 125.271554 296.414545 125.425699 296.629650 125.581785 296.844755 125.739779 297.059860 125.899648 297.274965 126.061361 297.490070 126.224884 297.705175 126.390185 297.920280 126.557233 298.135385 126.725995 298.350490 126.896437 298.565594 127.068529 298.780699 127.242237 298.995804 127.417529 299.210909 127.594373 299.426014 127.772737 299.641119 127.952587 299.856224 128.133892 300.071329 128.316619 300.286434 128.500736 300.501538 128.686211 300.716643 128.873011 300.931748 129.061103 301.146853 129.250456 301.361958 129.441037 301.577063 129.632814 301.792168 129.825753 302.007273 130.019824 302.222378 130.214993 302.437483 130.411228 302.652587 130.608497 302.867692 130.806767 303.082797 131.006006 303.297902 131.206182 303.513007 131.407261 303.728112 131.609213 303.943217 131.812004 304.158322 132.015602 304.373427 132.219975 304.588531 132.425090 304.803636 132.630915 305.018741 132.837418 305.233846 133.044566 305.448951 133.252326 305.664056 133.460667 305.879161 133.669556 306.094266 133.878961 306.309371 134.088849 306.524476 134.299188 306.739580 134.509945 306.954685 134.721088 307.169790 134.932586 307.384895 135.144404 307.600000 135.356512 307.815105 135.568876 308.030210 135.781464 308.245315 135.994245 308.460420 136.207185 308.675524 136.420251 308.890629 136.633413 309.105734 136.846637 309.320839 137.059891 309.535944 137.273143 309.751049 137.486359 309.966154 137.699509 310.181259 137.912559 310.396364 138.125477 310.611469 138.338231 310.826573 138.550788 311.041678 138.763116 311.256783 138.975182 311.471888 139.186955 311.686993 139.398402 311.902098 139.609490 312.117203 139.820187 312.332308 140.030461 312.547413 140.240279 312.762517 140.449609 312.977622 140.658418 313.192727 140.866675 313.407832 141.074346 313.622937 141.281400 313.838042 141.487803 314.053147 141.693525 314.268252 141.898532 314.483357 142.102791 314.698462 142.306271 314.913566 142.508939 315.128671 142.710763 315.343776 142.911710 315.558881 143.111749 315.773986 143.310846 315.989091 143.508969 316.204196 143.706086 316.419301 143.902164 316.634406 144.097172 316.849510 144.291076 317.064615 144.483844 317.279720 144.675445 317.494825 144.865845 317.709930 145.055012 317.925035 145.242914 318.140140 145.429519 318.355245 145.614793 318.570350 145.798706 318.785455 145.981223 319.000559 146.162314 319.215664 146.341945 319.430769 146.520084 319.645874 146.696699 319.860979 146.871757 320.076084 147.045227 320.291189 147.217075 320.506294 147.387269 320.721399 147.555778 320.936503 147.722567 321.151608 147.887606 321.366713 148.050862 321.581818 148.212302 321.796923 148.371894 322.012028 148.529606 322.227133 148.685405 322.442238 148.839258 322.657343 148.991135 322.872448 149.141001 323.087552 149.288825 323.302657 149.434575 323.517762 149.578217 323.732867 149.719720 323.947972 149.859051 324.163077 149.996179 324.378182 150.131069 324.593287 150.263691 324.808392 150.394011 325.023497 150.521998 325.238601 150.647618 325.453706 150.770840 325.668811 150.891632 325.883916 151.009960 326.099021 151.125792 326.314126 151.239097 326.529231 151.349841 326.744336 151.457993 326.959441 151.563519 327.174545 151.666388 327.389650 151.766567 327.604755 151.864024 327.819860 151.958727 328.034965 152.050642 328.250070 152.139738 328.465175 152.225982 328.680280 152.309342 328.895385 152.389786 329.110490 152.467281 329.325594 152.541794 329.540699 152.613294 329.755804 152.681748 329.970909 152.747123 330.186014 152.809388 330.401119 152.868510 330.616224 152.924456 330.831329 152.977194 331.046434 153.026692 331.261538 153.072917 331.476643 153.115837 331.691748 153.155420 331.906853 153.191633 332.121958 153.224443 332.337063 153.253819 332.552168 153.279729 332.767273 153.302139 332.982378 153.321017 333.197483 153.336331 333.412587 153.348049 333.627692 153.356138 333.842797 153.360565 334.057902 153.361299 334.273007 153.358307 334.488112 153.351557 334.703217 153.341027 334.918322 153.326739 335.133427 153.308727 335.348531 153.287023 335.563636 153.261660 335.778741 153.232671 335.993846 153.200090 336.208951 153.163950 336.424056 153.124282 336.639161 153.081121 336.854266 153.034500 337.069371 152.984451 337.284476 152.931007 337.499580 152.874202 337.714685 152.814068 337.929790 152.750639 338.144895 152.683948 338.360000 152.614026 338.575105 152.540909 338.790210 152.464628 339.005315 152.385216 339.220420 152.302707 339.435524 152.217134 339.650629 152.128529 339.865734 152.036926 340.080839 151.942357 340.295944 151.844857 340.511049 151.744456 340.726154 151.641190 340.941259 151.535090 341.156364 151.426190 341.371469 151.314523 341.586573 151.200121 341.801678 151.083018 342.016783 150.963247 342.231888 150.840841 342.446993 150.715832 342.662098 150.588254 342.877203 150.458140 343.092308 150.325523 343.307413 150.190436 343.522517 150.052911 343.737622 149.912983 343.952727 149.770683 344.167832 149.626046 344.382937 149.479103 344.598042 149.329888 344.813147 149.178434 345.028252 149.024774 345.243357 148.868941 345.458462 148.710968 345.673566 148.550888 345.888671 148.388734 346.103776 148.224539 346.318881 148.058336 346.533986 147.890158 346.749091 147.720039 346.964196 147.548010 347.179301 147.374105 347.394406 147.198358 347.609510 147.020801 347.824615 146.841466 348.039720 146.660389 348.254825 146.477600 348.469930 146.293133 348.685035 146.107022 348.900140 145.919298 349.115245 145.729996 349.330350 145.539149 349.545455 145.346788 349.760559 145.152948 349.975664 144.957661 350.190769 144.760961 350.405874 144.562879 350.620979 144.363450 350.836084 144.162707 351.051189 143.960682 351.266294 143.757408 351.481399 143.552918 351.696503 143.347246 351.911608 143.140425 352.126713 142.932487 352.341818 142.723465 352.556923 142.513393 352.772028 142.302303 352.987133 142.090228 353.202238 141.877203 353.417343 141.663258 353.632448 141.448429 353.847552 141.232746 354.062657 141.016245 354.277762 140.798957 354.492867 140.580915 354.707972 140.362153 354.923077 140.142704 355.138182 139.922600 355.353287 139.701875 355.568392 139.480562 355.783497 139.258694 355.998601 139.036303 356.213706 138.813422 356.428811 138.590086 356.643916 138.366326 356.859021 138.142176 357.074126 137.917669 357.289231 137.692837 357.504336 137.467715 357.719441 137.242334 357.934545 137.016728 358.149650 136.790929 358.364755 136.564972 358.579860 136.338888 358.794965 136.112712 359.010070 135.886475 359.225175 135.660211 359.440280 135.433953 359.655385 135.207734 359.870490 134.981587 360.085594 134.755545 360.300699 134.529641 360.515804 134.303908 360.730909 134.078379 360.946014 133.853087 361.161119 133.628065 361.376224 133.403346 361.591329 133.178963 361.806434 132.954949 362.021538 132.731337 362.236643 132.508160 362.451748 132.285452 362.666853 132.063244 362.881958 131.841571 363.097063 131.620465 363.312168 131.399959 363.527273 131.180086 363.742378 130.960880 363.957483 130.742372 364.172587 130.524597 364.387692 130.307587 364.602797 130.091376 364.817902 129.875995 365.033007 129.661479 365.248112 129.447861 365.463217 129.235172 365.678322 129.023447 365.893427 128.812719 366.108531 128.603019 366.323636 128.394382 366.538741 128.186841 366.753846 127.980428 366.968951 127.775176 367.184056 127.571118 367.399161 127.368289 367.614266 127.166719 367.829371 126.966443 368.044476 126.767494 368.259580 126.569904 368.474685 126.373706 368.689790 126.178935 368.904895 125.985621 369.120000 125.793800 369.335105 125.603502 369.550210 125.414763 369.765315 125.227614 369.980420 125.042088 370.195524 124.858220 370.410629 124.676040 370.625734 124.495584 370.840839 124.316883 371.055944 124.139971 371.271049 123.964881 371.486154 123.791645 371.701259 123.620297 371.916364 123.450870 372.131469 123.283397 372.346573 123.117910 372.561678 122.954443 372.776783 122.793029 372.991888 122.633701 373.206993 122.476492 373.422098 122.321434 373.637203 122.168562 373.852308 122.017907 374.067413 121.869503 374.282517 121.723383 374.497622 121.579580 374.712727 121.438127 374.927832 121.299057 375.142937 121.162402 375.358042 121.028197 375.573147 120.896474 375.788252 120.767266 376.003357 120.640605 376.218462 120.516526 376.433566 120.395061 376.648671 120.276243 376.863776 120.160105 377.078881 120.046680 377.293986 119.936001 377.509091 119.828101 377.724196 119.723014 377.939301 119.620771 378.154406 119.521407 378.369510 119.424954 378.584615 119.331445 378.799720 119.240914 379.014825 119.153392 379.229930 119.068914 379.445035 118.987512 379.660140 118.909219 379.875245 118.834069 380.090350 118.762094 380.305455 118.693327 380.520559 118.627801 380.735664 118.565550 380.950769 118.506606 381.165874 118.451003 381.380979 118.398773 381.596084 118.349949 381.811189 118.304565 382.026294 118.262653 382.241399 118.224246 382.456503 118.189378 382.671608 118.158082 382.886713 118.130390 383.101818 118.106335 383.316923 118.085951 383.532028 118.069271 383.747133 118.056327 383.962238 118.047152 384.177343 118.041780 384.392448 118.040244 384.607552 118.042576 384.822657 118.048810 385.037762 118.058978 385.252867 118.073115 385.467972 118.091251 385.683077 118.113422 385.898182 118.139659 386.113287 118.169996 386.328392 118.204465 386.543497 118.243100 386.758601 118.285934 386.973706 118.333000 387.188811 118.384331 387.403916 118.439959 387.619021 118.499918 387.834126 118.564241 388.049231 118.632960 388.264336 118.706110 388.479441 118.783710 388.694545 118.865730 388.909650 118.952128 389.124755 119.042862 389.339860 119.137890 389.554965 119.237168 389.770070 119.340655 389.985175 119.448309 390.200280 119.560086 390.415385 119.675945 390.630490 119.795843 390.845594 119.919737 391.060699 120.047587 391.275804 120.179348 391.490909 120.314979 391.706014 120.454437 391.921119 120.597680 392.136224 120.744666 392.351329 120.895351 392.566434 121.049695 392.781538 121.207654 392.996643 121.369186 393.211748 121.534249 393.426853 121.702801 393.641958 121.874798 393.857063 122.050199 394.072168 122.228961 394.287273 122.411042 394.502378 122.596400 394.717483 122.784991 394.932587 122.976775 395.147692 123.171707 395.362797 123.369747 395.577902 123.570852 395.793007 123.774978 396.008112 123.982085 396.223217 124.192129 396.438322 124.405069 396.653427 124.620861 396.868531 124.839464 397.083636 125.060834 397.298741 125.284931 397.513846 125.511710 397.728951 125.741131 397.944056 125.973150 398.159161 126.207726 398.374266 126.444815 398.589371 126.684376 398.804476 126.926366 399.019580 127.170743 399.234685 127.417464 399.449790 127.666487 399.664895 127.917770 399.880000 128.171270 400.095105 128.426944 400.310210 128.684752 400.525315 128.944649 400.740420 129.206595 400.955524 129.470545 401.170629 129.736459 401.385734 130.004294 401.600839 130.274007 401.815944 130.545555 402.031049 130.818898 402.246154 131.093991 402.461259 131.370793 402.676364 131.649262 402.891469 131.929355 403.106573 132.211030 403.321678 132.494244 403.536783 132.778955 403.751888 133.065120 403.966993 133.352698 404.182098 133.641646 404.397203 133.931921 404.612308 134.223481 404.827413 134.516284 405.042517 134.810288 405.257622 135.105449 405.472727 135.401726 405.687832 135.699077 405.902937 135.997458 406.118042 136.296828 406.333147 136.597144 406.548252 136.898364 406.763357 137.200445 406.978462 137.503346 407.193566 137.807023 407.408671 138.111434 407.623776 138.416538 407.838881 138.722291 408.053986 139.028651 408.269091 139.335576 408.484196 139.643024 408.699301 139.950951 408.914406 140.259317 409.129510 140.568078 409.344615 140.877191 409.559720 141.186616 409.774825 141.496308 409.989930 141.806227 410.205035 142.116329 410.420140 142.426573 410.635245 142.736915 410.850350 143.047313 411.065455 143.357726 411.280559 143.668110 411.495664 143.978424 411.710769 144.288624 411.925874 144.598669 412.140979 144.908516 412.356084 145.218123 412.571189 145.527448 412.786294 145.836448 413.001399 146.145080 413.216503 146.453303 413.431608 146.761074 413.646713 147.068350 413.861818 147.375090 414.076923 147.681250 414.292028 147.986789 414.507133 148.291664 414.722238 148.595833 414.937343 148.899253 415.152448 149.201883 415.367552 149.503679 415.582657 149.804599 415.797762 150.104601 416.012867 150.403643 416.227972 150.701682 416.443077 150.998675 416.658182 151.294582 416.873287 151.589358 417.088392 151.882962 417.303497 152.175351 417.518601 152.466483 417.733706 152.756316 417.948811 153.044807 418.163916 153.331914 418.379021 153.617595 418.594126 153.901806 418.809231 154.184507 419.024336 154.465653 419.239441 154.745204 419.454545 155.023116 419.669650 155.299348 419.884755 155.573856 420.099860 155.846599 420.314965 156.117535 420.530070 156.386620 420.745175 156.653812 420.960280 156.919070 421.175385 157.182350 421.390490 157.443610 421.605594 157.702809 421.820699 157.959903 422.035804 158.214850 422.250909 158.467608 422.466014 158.718134 422.681119 158.966387 422.896224 159.212323 423.111329 159.455901 423.326434 159.697078 423.541538 159.935811 423.756643 160.172058 423.971748 160.405778 424.186853 160.636927 424.401958 160.865463 424.617063 161.091344 424.832168 161.314527 425.047273 161.534970 425.262378 161.752631 425.477483 161.967467 425.692587 162.179437 425.907692 162.388496 426.122797 162.594604 426.337902 162.797718 426.553007 162.997795 426.768112 163.194793 426.983217 163.388670 427.198322 163.579384 427.413427 163.766891 427.628531 163.951150 427.843636 164.132118 428.058741 164.309753 428.273846 164.484012 428.488951 164.654854 428.704056 164.822235 428.919161 164.986114 429.134266 165.146447 429.349371 165.303194 429.564476 165.456310 429.779580 165.605755 429.994685 165.751485 430.209790 165.893458 430.424895 166.031632 430.640000 166.165965 430.855105 166.296413 431.070210 166.422935 431.285315 166.545489 431.500420 166.664031 431.715524 166.778521 431.930629 166.888914 432.145734 166.995169 432.360839 167.097243 432.575944 167.195095 432.791049 167.288681 433.006154 167.377960 433.221259 167.462889 433.436364 167.543425 433.651469 167.619527 433.866573 167.691152 434.081678 167.758257 434.296783 167.820800 434.511888 167.878739 434.726993 167.932031 434.942098 167.980634 435.157203 168.024506 435.372308 168.063605 435.587413 168.097887 435.802517 168.127311 436.017622 168.151834 436.232727 168.171414 436.447832 168.186008 436.662937 168.195574 436.878042 168.200071 437.093147 168.199454 437.308252 168.193682 437.523357 168.182713 437.738462 168.166505 437.953566 168.145014 438.168671 168.118198 438.383776 168.086016 438.598881 168.048425 438.813986 168.005381 439.029091 167.956844 439.244196 167.902771 439.459301 167.843119 439.674406 167.777845 439.889510 167.706909 440.104615 167.630266 440.319720 167.547875 440.534825 167.459694 440.749930 167.365679 440.965035 167.265790 441.180140 167.159983 441.395245 167.048215 441.610350 166.930445 441.825455 166.806631 442.040559 166.676729 442.255664 166.540711 442.470769 166.398602 442.685874 166.250440 442.900979 166.096263 443.116084 165.936109 443.331189 165.770017 443.546294 165.598025 443.761399 165.420171 443.976503 165.236492 444.191608 165.047029 444.406713 164.851818 444.621818 164.650898 444.836923 164.444307 445.052028 164.232083 445.267133 164.014265 445.482238 163.790891 445.697343 163.561998 445.912448 163.327626 446.127552 163.087813 446.342657 162.842596 446.557762 162.592014 446.772867 162.336104 446.987972 162.074907 447.203077 161.808459 447.418182 161.536798 447.633287 161.259964 447.848392 160.977993 448.063497 160.690925 448.278601 160.398798 448.493706 160.101650 448.708811 159.799518 448.923916 159.492442 449.139021 159.180460 449.354126 158.863609 449.569231 158.541928 449.784336 158.215455 449.999441 157.884229 450.214545 157.548287 450.429650 157.207668 450.644755 156.862411 450.859860 156.512552 451.074965 156.158131 451.290070 155.799186 451.505175 155.435754 451.720280 155.067875 451.935385 154.695586 452.150490 154.318926 452.365594 153.937932 452.580699 153.552644 452.795804 153.163098 453.010909 152.769335 453.226014 152.371391 453.441119 151.969304 453.656224 151.563114 453.871329 151.152859 454.086434 150.738575 454.301538 150.320303 454.516643 149.898080 454.731748 149.471944 454.946853 149.041933 455.161958 148.608086 455.377063 148.170441 455.592168 147.729036 455.807273 147.283909 456.022378 146.835099 456.237483 146.382644 456.452587 145.926581 456.667692 145.466950 456.882797 145.003788 457.097902 144.537134 457.313007 144.067026 457.528112 143.593502 457.743217 143.116600 457.958322 142.636358 458.173427 142.152816 458.388531 141.666010 458.603636 141.175980 458.818741 140.682763 459.033846 140.186397 459.248951 139.686922 459.464056 139.184374 459.679161 138.678793 459.894266 138.170216 460.109371 137.658682 460.324476 137.144229 460.539580 136.626895 460.754685 136.106719 460.969790 135.583738 461.184895 135.057991 461.400000 134.529516 461.615105 133.998351 461.830210 133.464535 462.045315 132.928105 462.260420 132.389101 462.475524 131.847559 462.690629 131.303519 462.905734 130.757018 463.120839 130.208095 463.335944 129.656789 463.551049 129.103136 463.766154 128.547176 463.981259 127.988947 464.196364 127.428486 464.411469 126.865833 464.626573 126.301025 464.841678 125.734100 465.056783 125.165098 465.271888 124.594055 465.486993 124.021011 465.702098 123.446003 465.917203 122.869069 466.132308 122.290249 466.347413 121.709579 466.562517 121.127099 466.777622 120.542847 466.992727 119.956860 467.207832 119.369177 467.422937 118.779837 467.638042 118.188877 467.853147 117.596335 468.068252 117.002250 468.283357 116.406661 468.498462 115.809605 468.713566 115.211120 468.928671 114.611245 469.143776 114.010018 469.358881 113.407477 469.573986 112.803660 469.789091 112.198607 470.004196 111.592354 470.219301 110.984940 470.434406 110.376403 470.649510 109.766782 470.864615 109.156114 471.079720 108.544439 471.294825 107.931793 471.509930 107.318216 471.725035 106.703746 471.940140 106.088420 472.155245 105.472278 472.370350 104.855356 472.585455 104.237695 472.800559 103.619331 473.015664 103.000302 473.230769 102.380648 473.445874 101.760407 473.660979 101.139615 473.876084 100.518313 474.091189 99.896538 474.306294 99.274328 474.521399 98.651721 474.736503 98.028756 474.951608 97.405471 475.166713 96.781904 475.381818 96.158093 475.596923 95.534077 475.812028 94.909894 476.027133 94.285582 476.242238 93.661179 476.457343 93.036723 476.672448 92.412253 476.887552 91.787807 477.102657 91.163423 477.317762 90.539139 477.532867 89.914994 477.747972 89.291026 477.963077 88.667272 478.178182 88.043772 478.393287 87.420563 478.608392 86.797684 478.823497 86.175173 479.038601 85.553067 479.253706 84.931406 479.468811 84.310228 479.683916 83.689570 479.899021 83.069471 480.114126 82.449970 480.329231 81.831103 480.544336 81.212911 480.759441 80.595430 480.974545 79.978699 481.189650 79.362757 481.404755 78.747641 481.619860 78.133390 481.834965 77.520041 482.050070 76.907634 482.265175 76.296206 482.480280 75.685796 482.695385 75.076442 482.910490 74.468181 483.125594 73.861053 483.340699 73.255096 483.555804 72.650347 483.770909 72.046845 483.986014 71.444628 484.201119 70.843734 484.416224 70.244202 484.631329 69.646070 484.846434 69.049376 485.061538 68.454158 485.276643 67.860454 485.491748 67.268303 485.706853 66.677744 485.921958 66.088813 486.137063 65.501549 486.352168 64.915991 486.567273 64.332177 486.782378 63.750145 486.997483 63.169933 487.212587 62.591579 487.427692 62.015122 487.642797 61.440600 487.857902 60.868051 488.073007 60.297514 488.288112 59.729025 488.503217 59.162625 488.718322 58.598351 488.933427 58.036240 489.148531 57.476333 489.363636 56.918665 489.578741 56.363277 489.793846 55.810206 490.008951 55.259490 490.224056 54.711167 490.439161 54.165277 490.654266 53.621856 490.869371 53.080943 491.084476 52.542577 491.299580 52.006795 491.514685 51.473636 491.729790 50.943139 491.944895 50.415340 492.160000 49.890279 492.375105 49.367994 492.590210 48.848522 492.805315 48.331903 493.020420 47.818174 493.235524 47.307374 493.450629 46.799540 493.665734 46.294712 493.880839 45.792927 494.095944 45.294223 494.311049 44.798639 494.526154 44.306213 494.741259 43.816983 494.956364 43.330987 495.171469 42.848264 495.386573 42.368851 495.601678 41.892788 495.816783 41.420112 496.031888 40.950855 496.246993 40.485026 496.462098 40.022626 496.677203 39.563658 496.892308 39.108124 497.107413 38.656025 497.322517 38.207365 497.537622 37.762144 497.752727 37.320365 497.967832 36.882030 498.182937 36.447141 498.398042 36.015700 498.613147 35.587709 498.828252 35.163171 499.043357 34.742087 499.258462 34.324459 499.473566 33.910290 499.688671 33.499581 499.903776 33.092335 500.118881 32.688553 500.333986 32.288238 500.549091 31.891392 500.764196 31.498016 500.979301 31.108113 501.194406 30.721686 501.409510 30.338735 501.624615 29.959263 501.839720 29.583272 502.054825 29.210765 502.269930 28.841743 502.485035 28.476208 502.700140 28.114162 502.915245 27.755608 503.130350 27.400547 503.345455 27.048981 503.560559 26.700914 503.775664 26.356346 503.990769 26.015279 504.205874 25.677717 504.420979 25.343660 504.636084 25.013111 504.851189 24.686072 505.066294 24.362545 505.281399 24.042532 505.496503 23.726035 505.711608 23.413057 505.926713 23.103598 506.141818 22.797662 506.356923 22.495251 506.572028 22.196365 506.787133 21.901009 507.002238 21.609182 507.217343 21.320889 507.432448 21.036130 507.647552 20.754908 507.862657 20.477225 508.077762 20.203082 508.292867 19.932483 508.507972 19.665428 508.723077 19.401920 508.938182 19.141962 509.153287 18.885555 509.368392 18.632701 509.583497 18.383402 509.798601 18.137661 510.013706 17.895479 510.228811 17.656858 510.443916 17.421801 510.659021 17.190310 510.874126 16.962386 511.089231 16.738032 511.304336 16.517250 511.519441 16.300041 511.734545 16.086409 511.949650 15.876354 512.164755 15.669880 512.379860 15.466987 512.594965 15.267679 512.810070 15.071957 513.025175 14.879823 513.240280 14.691280 513.455385 14.506329 513.670490 14.324972 513.885594 14.147212 514.100699 13.973050 514.315804 13.802489 514.530909 13.635531 514.746014 13.472178 514.961119 13.312431 515.176224 13.156293 515.391329 13.003766 515.606434 12.854852 515.821538 12.709553 516.036643 12.567872 516.251748 12.429809 516.466853 12.295368 516.681958 12.164550 516.897063 12.037357 517.112168 11.913792 517.327273 11.793856 517.542378 11.677552 517.757483 11.564882 517.972587 11.455847 518.187692 11.350450 518.402797 11.248692 518.617902 11.150577 518.833007 11.056105 519.048112 10.965280 519.263217 10.878102 519.478322 10.794574 519.693427 10.714699 519.908531 10.638478 520.123636 10.565913 520.338741 10.497007 520.553846 10.431761 520.768951 10.370177 520.984056 10.312258 521.199161 10.258005 521.414266 10.207421 521.629371 10.160508 521.844476 10.117268 522.059580 10.077702 522.274685 10.041814 522.489790 10.009604 522.704895 9.981075 522.920000 9.956229 523.135105 9.935069 523.350210 9.917596 523.565315 9.903811 523.780420 9.893719 523.995524 9.887319 524.210629 9.884615 524.425734 9.885609 524.640839 9.890302 524.855944 9.898697 525.071049 9.910795 525.286154 9.926599 525.501259 9.946111 525.716364 9.969333 525.931469 9.996267 526.146573 10.026915 526.361678 10.061278 526.576783 10.099360 526.791888 10.141162 527.006993 10.186687 527.222098 10.235935 527.437203 10.288910 527.652308 10.345614 527.867413 10.406048 528.082517 10.470214 528.297622 10.538115 528.512727 10.609753 528.727832 10.685129 528.942937 10.764246 529.158042 10.847106 529.373147 10.933711 529.588252 11.024063 529.803357 11.118164 530.018462 11.216016 530.233566 11.317621 530.448671 11.422981 530.663776 11.532099 530.878881 11.644976 531.093986 11.761614 531.309091 11.882016 531.524196 12.006183 531.739301 12.134118 531.954406 12.265822 532.169510 12.401298 532.384615 12.540548 532.599720 12.683574 532.814825 12.830378 533.029930 12.980961 533.245035 13.135327 533.460140 13.293477 533.675245 13.455412 533.890350 13.621136 534.105455 13.790650 534.320559 13.963957 534.535664 14.141058 534.750769 14.321955 534.965874 14.506651 535.180979 14.695147 535.396084 14.887446 535.611189 15.083550 535.826294 15.283460 536.041399 15.487179 536.256503 15.694709 536.471608 15.906052 536.686713 16.121210 536.901818 16.340185 537.116923 16.562979 537.332028 16.789594 537.547133 17.020033 537.762238 17.254297 537.977343 17.492388 538.192448 17.734308 538.407552 17.980060 538.622657 18.229645 538.837762 18.483067 539.052867 18.740325 539.267972 19.001424 539.483077 19.266364 539.698182 19.535148 539.913287 19.807778 540.128392 20.084256 540.343497 20.364583 540.558601 20.648763 540.773706 20.936797 540.988811 21.228688 541.203916 21.524436 541.419021 21.824045 541.634126 22.127516 541.849231 22.434852 542.064336 22.746054 542.279441 23.061125 542.494545 23.380067 542.709650 23.702881 542.924755 24.029569 543.139860 24.360135 543.354965 24.694580 543.570070 25.032905 543.785175 25.375113 544.000280 25.721207 544.215385 26.071187 544.430490 26.425057 544.645594 26.782818 544.860699 27.144473 545.075804 27.510022 545.290909 27.879469 545.506014 28.252816 545.721119 28.630064 545.936224 29.011216 546.151329 29.396273 546.366434 29.785238 546.581538 30.178113 546.796643 30.574900 547.011748 30.975600 547.226853 31.380217 547.441958 31.788752 547.657063 32.201206 547.872168 32.617583 548.087273 33.037884 548.302378 33.462112 548.517483 33.890267 548.732587 34.322353 548.947692 34.758372 549.162797 35.198325 549.377902 35.642215 549.593007 36.090043 549.808112 36.541809 550.023217 36.997500 550.238322 37.457100 550.453427 37.920594 550.668531 38.387965 550.883636 38.859198 551.098741 39.334277 551.313846 39.813187 551.528951 40.295911 551.744056 40.782434 551.959161 41.272740 552.174266 41.766813 552.389371 42.264638 552.604476 42.766199 552.819580 43.271480 553.034685 43.780465 553.249790 44.293138 553.464895 44.809484 553.680000 45.329488 553.895105 45.853132 554.110210 46.380402 554.325315 46.911281 554.540420 47.445755 554.755524 47.983806 554.970629 48.525420 555.185734 49.070581 555.400839 49.619273 555.615944 50.171479 555.831049 50.727185 556.046154 51.286375 556.261259 51.849032 556.476364 52.415141 556.691469 52.984687 556.906573 53.557653 557.121678 54.134024 557.336783 54.713784 557.551888 55.296918 557.766993 55.883408 557.982098 56.473241 558.197203 57.066399 558.412308 57.662868 558.627413 58.262631 558.842517 58.865672 559.057622 59.471977 559.272727 60.081528 559.487832 60.694312 559.702937 61.310310 559.918042 61.929509 560.133147 62.551891 560.348252 63.177442 560.563357 63.806146 560.778462 64.437986 560.993566 65.072947 561.208671 65.711014 561.423776 66.352170 561.638881 66.996400 561.853986 67.643688 562.069091 68.294018 562.284196 68.947374 562.499301 69.603742 562.714406 70.263104 562.929510 70.925445 563.144615 71.590750 563.359720 72.259002 563.574825 72.930186 563.789930 73.604287 564.005035 74.281288 564.220140 74.961173 564.435245 75.643927 564.650350 76.329534 564.865455 77.017979 565.080559 77.709245 565.295664 78.403317 565.510769 79.100178 565.725874 79.799815 565.940979 80.502209 566.156084 81.207347 566.371189 81.915211 566.586294 82.625786 566.801399 83.339057 567.016503 84.055008 567.231608 84.773622 567.446713 85.494885 567.661818 86.218780 567.876923 86.945292 568.092028 87.674404 568.307133 88.406102 568.522238 89.140369 568.737343 89.877190 568.952448 90.616548 569.167552 91.358428 569.382657 92.102815 569.597762 92.849692 569.812867 93.599044 570.027972 94.350855 570.243077 95.105110 570.458182 95.861791 570.673287 96.620885 570.888392 97.382374 571.103497 98.146244 571.318601 98.912478 571.533706 99.681060 571.748811 100.451976 571.963916 101.225208 572.179021 102.000742 572.394126 102.778562 572.609231 103.558651 572.824336 104.340995 573.039441 105.125577 573.254545 105.912381 573.469650 106.701393 573.684755 107.492595 573.899860 108.285972 574.114965 109.081509 574.330070 109.879190 574.545175 110.678999 574.760280 111.480920 574.975385 112.284937 575.190490 113.091035 575.405594 113.899198 575.620699 114.709410 575.835804 115.521656 576.050909 116.335919 576.266014 117.152184 576.481119 117.970436 576.696224 118.790657 576.911329 119.612833 577.126434 120.436948 577.341538 121.262986 577.556643 122.090932 577.771748 122.920769 577.986853 123.752481 578.201958 124.586054 578.417063 125.421471 578.632168 126.258716 578.847273 127.097774 579.062378 127.938629 579.277483 128.781266 579.492587 129.625667 579.707692 130.471819 579.922797 131.319704 580.137902 132.169307 580.353007 133.020613 580.568112 133.873606 580.783217 134.728269 580.998322 135.584587 581.213427 136.442545 581.428531 137.302126 581.643636 138.163315 581.858741 139.026097 582.073846 139.890454 582.288951 140.756372 582.504056 141.623835 582.719161 142.492826 582.934266 143.363331 583.149371 144.235334 583.364476 145.108818 583.579580 145.983768 583.794685 146.860168 584.009790 147.738003 584.224895 148.617256 584.440000 149.497912 584.655105 150.379955 584.870210 151.263370 585.085315 152.148140 585.300420 153.034250 585.515524 153.921684 585.730629 154.810427 585.945734 155.700462 586.160839 156.591774 586.375944 157.484347 586.591049 158.378165 586.806154 159.273212 587.021259 160.169474 587.236364 161.066933 587.451469 161.965574 587.666573 162.865382 587.881678 163.766341 588.096783 164.668435 588.311888 165.571647 588.526993 166.475963 588.742098 167.381367 588.957203 168.287843 589.172308 169.195375 589.387413 170.103947 589.602517 171.013543 589.817622 171.924149 590.032727 172.835747 590.247832 173.748323 590.462937 174.661861 590.678042 175.576344 590.893147 176.491757 591.108252 177.408084 591.323357 178.325310 591.538462 179.243419 591.753566 180.162394 591.968671 181.082221 592.183776 182.002883 592.398881 182.924365 592.613986 183.846651 592.829091 184.769724 593.044196 185.693571 593.259301 186.618174 593.474406 187.543517 593.689510 188.469586 593.904615 189.396364 594.119720 190.323836 594.334825 191.251985 594.549930 192.180797 594.765035 193.110255 594.980140 194.040343 595.195245 194.971046 595.410350 195.902348 595.625455 196.834233 595.840559 197.766686 596.055664 198.699691 596.270769 199.633231 596.485874 200.567291 596.700979 201.501856 596.916084 202.436910 597.131189 203.372436 597.346294 204.308420 597.561399 205.244845 597.776503 206.181696 597.991608 207.118956 598.206713 208.056610 598.421818 208.994643 598.636923 209.933038 598.852028 210.871781 599.067133 211.810854 599.282238 212.750242 599.497343 213.689930 599.712448 214.629901 599.927552 215.570141 600.142657 216.510633 600.357762 217.451361 600.572867 218.392310 600.787972 219.333464 601.003077 220.274807 601.218182 221.216323 601.433287 222.157997 601.648392 223.099813 601.863497 224.041755 602.078601 224.983807 602.293706 225.925954 602.508811 226.868180 602.723916 227.810468 602.939021 228.752804 603.154126 229.695172 603.369231 230.637555 603.369231 514.000000" /></g></g><g class="titles"><text class="title plot_title" x="400.0" y="26">Mo-Chit 50</text></g><g class="plot overlay" transform="translate(164, 46)"><g class="series serie-0 color-0"><g class="dots"><circle class="dot reactive tooltip-trigger" cx="11.830769230769233" cy="246.62776159228486" r="2.5" /><desc class="value">974000</desc><desc class="x ">11.830769230769233</desc><desc class="y ">246.62776159228486</desc><desc class="x_label">Jan</desc></g><g class="dots"><circle class="dot reactive tooltip-trigger" cx="65.60699300699302" cy="361.2242413242372" r="2.5" /><desc class="value">931000</desc><desc class="x top">65.60699300699302</desc><desc class="y top">361.2242413242372</desc><desc class="x_label">Feb</desc></g><g class="dots"><circle class="dot reactive tooltip-trigger" cx="119.38321678321678" cy="124.03617862321948" r="2.5" /><desc class="value">1020000</desc><desc class="x ">119.38321678321678</desc><desc class="y ">124.03617862321948</desc><desc class="x_label">Mar</desc></g><g class="dots"><circle class="dot reactive tooltip-trigger" cx="173.15944055944055" cy="491.8109275304155" r="2.5" /><desc class="value">882000</desc><desc class="x top">173.15944055944055</desc><desc class="y top">491.8109275304155</desc><desc class="x_label">Apr</desc></g><g class="dots"><circle class="dot reactive tooltip-trigger" cx="226.93566433566437" cy="283.9382433654786" r="2.5" /><desc class="value">960000</desc><desc class="x top">226.93566433566437</desc><desc class="y top">283.9382433654786</desc><desc class="x_label">May</desc></g><g class="dots"><circle class="dot reactive tooltip-trigger" cx="280.71188811188813" cy="121.37114421084851" r="2.5" /><desc class="value">1021000</desc><desc class="x ">280.71188811188813</desc><desc class="y ">121.37114421084851</desc><desc class="x_label">Jun</desc></g><g class="dots"><circle class="dot reactive tooltip-trigger" cx="334.4881118881119" cy="153.35155715930034" r="2.5" /><desc class="value">1009000</desc><desc class="x left">334.4881118881119</desc><desc class="y left">153.35155715930034</desc><desc class="x_label">Jul</desc></g><g class="dots"><circle class="dot reactive tooltip-trigger" cx="388.2643356643357" cy="118.70610979847754" r="2.5" /><desc class="value">1022000</desc><desc class="x left">388.2643356643357</desc><desc class="y left">118.70610979847754</desc><desc class="x_label">Aug</desc></g><g class="dots"><circle class="dot reactive tooltip-trigger" cx="442.0405594405595" cy="166.67672922115526" r="2.5" /><desc class="value">1004000</desc><desc class="x left">442.0405594405595</desc><desc class="y left">166.67672922115526</desc><desc class="x_label">Sep</desc></g><g class="dots"><circle class="dot reactive tooltip-trigger" cx="495.81678321678334" cy="41.42011183971897" r="2.5" /><desc class="value">1051000</desc><desc class="x left">495.81678321678334</desc><desc class="y left">41.42011183971897</desc><desc class="x_label">Oct</desc></g><g class="dots"><circle class="dot reactive tooltip-trigger" cx="549.5930069930071" cy="36.09004301497697" r="2.5" /><desc class="value">1053000</desc><desc class="x left">549.5930069930071</desc><desc class="y left">36.09004301497697</desc><desc class="x_label">Nov</desc></g><g class="dots"><circle class="dot reactive tooltip-trigger" cx="603.3692307692307" cy="230.6375551180589" r="2.5" /><desc class="value">980000</desc><desc class="x left">603.3692307692307</desc><desc class="y left">230.6375551180589</desc><desc class="x_label">Dec</desc></g></g></g><g class="plot text-overlay" transform="translate(164, 46)"><g class="series serie-0 color-0" /></g><g class="plot tooltip-overlay" transform="translate(164, 46)"><g class="tooltip" style="opacity: 0" transform="translate(0 0)"><rect class="tooltip-box" height="0" rx="0" ry="0" width="0" /><g class="text" /></g></g><g class="legends" transform="translate(10, 56)"><g class="legend reactive activate-serie" id="activate-serie-0"><rect class="color-0 reactive" height="12" width="12" x="0.0" y="1.0" /><text x="17.0" y="11.2">Mo-Chit</text></g></g><g class="legends" transform="translate(790, 56)" /></g></svg>