<?xml version='1.0' encoding='utf-8'?>
<svg xmlns:xlink="http://www.w3.org/1999/xlink" class="pygal-chart" id="chart-4a3cb896-211c-48df-8b7f-9b20cdaa06e7" viewBox="0 0 800 600" xmlns="http://www.w3.org/2000/svg"><!--Generated with pygal 2.0.11 (etree) ©Kozea 2011-2015 on 2015-12-10--><!--http://pygal.org--><!--http://github.com/Kozea/pygal--><defs><style type="text/css">#chart-4a3cb896-211c-48df-8b7f-9b20cdaa06e7{-webkit-user-select:none;-webkit-font-smoothing:antialiased;font-family:Consolas,"Liberation Mono",Menlo,Courier,monospace}#chart-4a3cb896-211c-48df-8b7f-9b20cdaa06e7 .title{font-family:Consolas,"Liberation Mono",Menlo,Courier,monospace;font-size:16px}#chart-4a3cb896-211c-48df-8b7f-9b20cdaa06e7 .legends .legend text{font-family:Consolas,"Liberation Mono",Menlo,Courier,monospace;font-size:14px}#chart-4a3cb896-211c-48df-8b7f-9b20cdaa06e7 .axis text{font-family:Consolas,"Liberation Mono",Menlo,Courier,monospace;font-size:10px}#chart-4a3cb896-211c-48df-8b7f-9b20cdaa06e7 .axis text.major{font-family:Consolas,"Liberation Mono",Menlo,Courier,monospace;font-size:10px}#chart-4a3cb896-211c-48df-8b7f-9b20cdaa06e7 .text-overlay text.value{font-family:Consolas,"Liberation Mono",Menlo,Courier,monospace;font-size:16px}#chart-4a3cb896-211c-48df-8b7f-9b20cdaa06e7 .text-overlay text.label{font-family:Consolas,"Liberation Mono",Menlo,Courier,monospace;font-size:10px}#chart-4a3cb896-211c-48df-8b7f-9b20cdaa06e7 .tooltip{font-family:Consolas,"Liberation Mono",Menlo,Courier,monospace;font-size:14px}#chart-4a3cb896-211c-48df-8b7f-9b20cdaa06e7 text.no_data{font-family:Consolas,"Liberation Mono",Menlo,Courier,monospace;font-size:64px}
#chart-4a3cb896-211c-48df-8b7f-9b20cdaa06e7{background-color:black}#chart-4a3cb896-211c-48df-8b7f-9b20cdaa06e7 path,#chart-4a3cb896-211c-48df-8b7f-9b20cdaa06e7 line,#chart-4a3cb896-211c-48df-8b7f-9b20cdaa06e7 rect,#chart-4a3cb896-211c-48df-8b7f-9b20cdaa06e7 circle{-webkit-transition:250ms;-moz-transition:250ms;transition:250ms}#chart-4a3cb896-211c-48df-8b7f-9b20cdaa06e7 .graph &gt; .background{fill:black}#chart-4a3cb896-211c-48df-8b7f-9b20cdaa06e7 .plot &gt; .background{fill:#111}#chart-4a3cb896-211c-48df-8b7f-9b20cdaa06e7 .graph{fill:#999}#chart-4a3cb896-211c-48df-8b7f-9b20cdaa06e7 text.no_data{fill:#eee}#chart-4a3cb896-211c-48df-8b7f-9b20cdaa06e7 .title{fill:#eee}#chart-4a3cb896-211c-48df-8b7f-9b20cdaa06e7 .legends .legend text{fill:#999}#chart-4a3cb896-211c-48df-8b7f-9b20cdaa06e7 .legends .legend:hover text{fill:#eee}#chart-4a3cb896-211c-48df-8b7f-9b20cdaa06e7 .axis .line{stroke:#eee}#chart-4a3cb896-211c-48df-8b7f-9b20cdaa06e7 .axis .guide.line{stroke:#555}#chart-4a3cb896-211c-48df-8b7f-9b20cdaa06e7 .axis .major.line{stroke:#999}#chart-4a3cb896-211c-48df-8b7f-9b20cdaa06e7 .axis text.major{fill:#eee}#chart-4a3cb896-211c-48df-8b7f-9b20cdaa06e7 .axis.y .guides:hover .guide.line,#chart-4a3cb896-211c-48df-8b7f-9b20cdaa06e7 .line-graph .axis.x .guides:hover .guide.line,#chart-4a3cb896-211c-48df-8b7f-9b20cdaa06e7 .stackedline-graph .axis.x .guides:hover .guide.line,#chart-4a3cb896-211c-48df-8b7f-9b20cdaa06e7 .xy-graph .axis.x .guides:hover .guide.line{stroke:#eee}#chart-4a3cb896-211c-48df-8b7f-9b20cdaa06e7 .axis .guides:hover text{fill:#eee}#chart-4a3cb896-211c-48df-8b7f-9b20cdaa06e7 .reactive{fill-opacity:.8}#chart-4a3cb896-211c-48df-8b7f-9b20cdaa06e7 .reactive.active,#chart-4a3cb896-211c-48df-8b7f-9b20cdaa06e7 .active .reactive{fill-opacity:.4;stroke-width:4}#chart-4a3cb896-211c-48df-8b7f-9b20cdaa06e7 .series text{fill:#eee}#chart-4a3cb896-211c-48df-8b7f-9b20cdaa06e7 .tooltip rect{fill:#111;stroke:#eee;-webkit-transition:opacity 250ms;-moz-transition:opacity 250ms;transition:opacity 250ms}#chart-4a3cb896-211c-48df-8b7f-9b20cdaa06e7 .tooltip .label{fill:#999}#chart-4a3cb896-211c-48df-8b7f-9b20cdaa06e7 .tooltip .label{fill:#999}#chart-4a3cb896-211c-48df-8b7f-9b20cdaa06e7 .tooltip .legend{font-size:.8em;fill:#555}#chart-4a3cb896-211c-48df-8b7f-9b20cdaa06e7 .tooltip .x_label{font-size:.6em;fill:#eee}#chart-4a3cb896-211c-48df-8b7f-9b20cdaa06e7 .tooltip .xlink{font-size:.5em;text-decoration:underline}#chart-4a3cb896-211c-48df-8b7f-9b20cdaa06e7 .tooltip .value{font-size:1.5em}#chart-4a3cb896-211c-48df-8b7f-9b20cdaa06e7 .map-element{fill:#111;stroke:#555 !important}#chart-4a3cb896-211c-48df-8b7f-9b20cdaa06e7 .map-element .reactive{fill-opacity:inherit}#chart-4a3cb896-211c-48df-8b7f-9b20cdaa06e7 .color-0,#chart-4a3cb896-211c-48df-8b7f-9b20cdaa06e7 .color-0 a:visited{stroke:#ff5995;fill:#ff5995}#chart-4a3cb896-211c-48df-8b7f-9b20cdaa06e7 .text-overlay .color-0 text{fill:black}
#chart-4a3cb896-211c-48df-8b7f-9b20cdaa06e7 text.no_data{text-anchor:middle}#chart-4a3cb896-211c-48df-8b7f-9b20cdaa06e7 .guide.line{fill:none}#chart-4a3cb896-211c-48df-8b7f-9b20cdaa06e7 .centered{text-anchor:middle}#chart-4a3cb896-211c-48df-8b7f-9b20cdaa06e7 .title{text-anchor:middle}#chart-4a3cb896-211c-48df-8b7f-9b20cdaa06e7 .legends .legend text{fill-opacity:1}#chart-4a3cb896-211c-48df-8b7f-9b20cdaa06e7 .axis.x text{text-anchor:middle}#chart-4a3cb896-211c-48df-8b7f-9b20cdaa06e7 .axis.x:not(.web) text[transform]{text-anchor:start}#chart-4a3cb896-211c-48df-8b7f-9b20cdaa06e7 .axis.x:not(.web) text[transform].backwards{text-anchor:end}#chart-4a3cb896-211c-48df-8b7f-9b20cdaa06e7 .axis.y text{text-anchor:end}#chart-4a3cb896-211c-48df-8b7f-9b20cdaa06e7 .axis.y text[transform].backwards{text-anchor:start}#chart-4a3cb896-211c-48df-8b7f-9b20cdaa06e7 .axis.y2 text{text-anchor:start}#chart-4a3cb896-211c-48df-8b7f-9b20cdaa06e7 .axis.y2 text[transform].backwards{text-anchor:end}#chart-4a3cb896-211c-48df-8b7f-9b20cdaa06e7 .axis .guide.line{stroke-dasharray:4,4}#chart-4a3cb896-211c-48df-8b7f-9b20cdaa06e7 .axis .major.guide.line{stroke-dasharray:6,6}#chart-4a3cb896-211c-48df-8b7f-9b20cdaa06e7 .horizontal .axis.y .guide.line,#chart-4a3cb896-211c-48df-8b7f-9b20cdaa06e7 .horizontal .axis.y2 .guide.line,#chart-4a3cb896-211c-48df-8b7f-9b20cdaa06e7 .vertical .axis.x .guide.line{opacity:0}#chart-4a3cb896-211c-48df-8b7f-9b20cdaa06e7 .horizontal .axis.always_show .guide.line,#chart-4a3cb896-211c-48df-8b7f-9b20cdaa06e7 .vertical .axis.always_show .guide.line{opacity:1 !important}#chart-4a3cb896-211c-48df-8b7f-9b20cdaa06e7 .axis.y .guides:hover .guide.line,#chart-4a3cb896-211c-48df-8b7f-9b20cdaa06e7 .axis.y2 .guides:hover .guide.line,#chart-4a3cb896-211c-48df-8b7f-9b20cdaa06e7 .axis.x .guides:hover .guide.line{opacity:1}#chart-4a3cb896-211c-48df-8b7f-9b20cdaa06e7 .axis .guides:hover text{opacity:1}#chart-4a3cb896-211c-48df-8b7f-9b20cdaa06e7 .nofill{fill:none}#chart-4a3cb896-211c-48df-8b7f-9b20cdaa06e7 .subtle-fill{fill-opacity:.2}#chart-4a3cb896-211c-48df-8b7f-9b20cdaa06e7 .dot{stroke-width:1px;fill-opacity:1}#chart-4a3cb896-211c-48df-8b7f-9b20cdaa06e7 .dot.active{stroke-width:5px}#chart-4a3cb896-211c-48df-8b7f-9b20cdaa06e7 .dot.negative{fill:transparent}#chart-4a3cb896-211c-48df-8b7f-9b20cdaa06e7 text,#chart-4a3cb896-211c-48df-8b7f-9b20cdaa06e7 tspan{stroke:none !important}#chart-4a3cb896-211c-48df-8b7f-9b20cdaa06e7 .series text.active{opacity:1}#chart-4a3cb896-211c-48df-8b7f-9b20cdaa06e7 .tooltip rect{fill-opacity:.95;stroke-width:.5}#chart-4a3cb896-211c-48df-8b7f-9b20cdaa06e7 .tooltip text{fill-opacity:1}#chart-4a3cb896-211c-48df-8b7f-9b20cdaa06e7 .showable{visibility:hidden}#chart-4a3cb896-211c-48df-8b7f-9b20cdaa06e7 .showable.shown{visibility:visible}</style><script type="text/javascript">window.pygal = window.pygal || {};window.pygal.config = window.pygal.config || {};window.pygal.config['4a3cb896-211c-48df-8b7f-9b20cdaa06e7'] = {"css": ["file://style.css", "file://graph.css"], "legend_at_bottom": false, "stroke_style": null, "missing_value_fill_truncation": "x", "tooltip_border_radius": 0, "inner_radius": 0, "min_scale": 4, "show_x_guides": false, "y_label_rotation": 0, "show_only_major_dots": false, "interpolation_precision": 250, "margin_right": null, "x_label_rotation": 0, "dynamic_print_values": false, "margin_top": null, "x_labels_major_count": null, "js": ["//kozea.github.io/pygal.js/2.0.x/pygal-tooltips.min.js"], "interpolation_parameters": {}, "no_prefix": false, "title": "Nana 50", "x_labels": ["Jan", "Feb", "Mar", "Apr", "May", "Jun", "Jul", "Aug", "Sep", "Oct", "Nov", "Dec"], "width": 800, "range": null, "show_y_guides": true, "truncate_legend": null, "force_uri_protocol": null, "x_title": null, "interpolate": "cubic", "fill": true, "print_zeroes": true, "margin_left": null, "legend_box_size": 12, "show_minor_y_labels": true, "logarithmic": false, "legend_at_bottom_columns": null, "value_formatter": null, "stroke": true, "margin_bottom": null, "pretty_print": false, "show_minor_x_labels": true, "y_labels_major_count": null, "disable_xml_declaration": false, "y_labels_major_every": null, "truncate_label": null, "stack_from_top": false, "defs": [], "human_readable": false, "include_x_axis": false, "show_legend": true, "tooltip_fancy_mode": true, "y_title": null, "style": {"tooltip_font_size": 14, "major_label_font_family": "Consolas, \"Liberation Mono\", Menlo, Courier, monospace", "value_font_family": "Consolas, \"Liberation Mono\", Menlo, Courier, monospace", "foreground": "#999", "tooltip_font_family": "Consolas, \"Liberation Mono\", Menlo, Courier, monospace", "opacity": ".8", "font_family": "Consolas, \"Liberation Mono\", Menlo, Courier, monospace", "foreground_subtle": "#555", "colors": ["#ff5995", "#b6e354", "#feed6c", "#8cedff", "#9e6ffe", "#899ca1", "#f8f8f2", "#bf4646", "#516083", "#f92672", "#82b414", "#fd971f", "#56c2d6", "#808384", "#8c54fe", "#465457"], "foreground_strong": "#eee", "no_data_font_size": 64, "opacity_hover": ".4", "plot_background": "#111", "value_font_size": 16, "legend_font_family": "Consolas, \"Liberation Mono\", Menlo, Courier, monospace", "value_label_font_size": 10, "major_guide_stroke_dasharray": "6,6", "legend_font_size": 14, "label_font_family": "Consolas, \"Liberation Mono\", Menlo, Courier, monospace", "label_font_size": 10, "transition": "250ms", "title_font_size": 16, "value_label_font_family": "Consolas, \"Liberation Mono\", Menlo, Courier, monospace", "background": "black", "title_font_family": "Consolas, \"Liberation Mono\", Menlo, Courier, monospace", "value_colors": [], "no_data_font_family": "Consolas, \"Liberation Mono\", Menlo, Courier, monospace", "guide_stroke_dasharray": "4,4", "major_label_font_size": 10}, "strict": false, "xrange": null, "rounded_bars": null, "x_labels_major": null, "dots_size": 2.5, "show_dots": true, "order_min": null, "no_data_text": "No data", "y_labels": null, "print_labels": false, "spacing": 10, "y_labels_major": null, "print_values": false, "legends": ["Nana"], "zero": 0, "height": 600, "margin": 20, "box_mode": "extremes", "show_y_labels": true, "inverse_y_axis": false, "max_scale": 16, "show_x_labels": true, "explicit_size": false, "x_value_formatter": null, "secondary_range": null, "x_labels_major_every": null, "half_pie": false}</script><script type="text/javascript" xlink:href="//kozea.github.io/pygal.js/2.0.x/pygal-tooltips.min.js" /></defs><title>Nana 50</title><g class="graph line-graph vertical"><rect class="background" height="600" width="800" x="0" y="0" /><g class="plot" transform="translate(133, 46)"><rect class="background" height="514" width="646.4" x="0" y="0" /><g class="axis y"><path class="line" d="M0.000000 514.000000 h646.400000" /><g class="guides"><path class="guide line" d="M0.000000 495.239460 h646.400000" /><text class="" x="-5" y="498.7394602983652">280000.0</text><title>280000.0</title></g><g class="guides"><path class="guide line" d="M0.000000 429.650968 h646.400000" /><text class="" x="-5" y="433.1509677424531">290000.0</text><title>290000.0</title></g><g class="guides"><path class="major guide line" d="M0.000000 364.062475 h646.400000" /><text class="major" x="-5" y="367.56247518654095">300000.0</text><title>300000.0</title></g><g class="guides"><path class="guide line" d="M0.000000 298.473983 h646.400000" /><text class="" x="-5" y="301.9739826306288">310000.0</text><title>310000.0</title></g><g class="guides"><path class="guide line" d="M0.000000 232.885490 h646.400000" /><text class="" x="-5" y="236.3854900747167">320000.0</text><title>320000.0</title></g><g class="guides"><path class="guide line" d="M0.000000 167.296998 h646.400000" /><text class="" x="-5" y="170.79699751880457">330000.0</text><title>330000.0</title></g><g class="guides"><path class="guide line" d="M0.000000 101.708505 h646.400000" /><text class="" x="-5" y="105.20850496289245">340000.0</text><title>340000.0</title></g><g class="guides"><path class="major guide line" d="M0.000000 36.120012 h646.400000" /><text class="major" x="-5" y="39.62001240698032">350000.0</text><title>350000.0</title></g></g><g class="axis x"><g class="guides"><path class="line" d="M12.430769 0.000000 v514.000000" /><text class="" x="12.43076923076923" y="529.0">Jan</text></g><g class="guides"><path class="guide line" d="M68.934266 0.000000 v514.000000" /><text class="" x="68.93426573426574" y="529.0">Feb</text></g><g class="guides"><path class="guide line" d="M125.437762 0.000000 v514.000000" /><text class="" x="125.43776223776223" y="529.0">Mar</text></g><g class="guides"><path class="guide line" d="M181.941259 0.000000 v514.000000" /><text class="" x="181.94125874125874" y="529.0">Apr</text></g><g class="guides"><path class="guide line" d="M238.444755 0.000000 v514.000000" /><text class="" x="238.44475524475524" y="529.0">May</text></g><g class="guides"><path class="guide line" d="M294.948252 0.000000 v514.000000" /><text class="" x="294.9482517482517" y="529.0">Jun</text></g><g class="guides"><path class="guide line" d="M351.451748 0.000000 v514.000000" /><text class="" x="351.4517482517482" y="529.0">Jul</text></g><g class="guides"><path class="guide line" d="M407.955245 0.000000 v514.000000" /><text class="" x="407.95524475524473" y="529.0">Aug</text></g><g class="guides"><path class="guide line" d="M464.458741 0.000000 v514.000000" /><text class="" x="464.45874125874127" y="529.0">Sep</text></g><g class="guides"><path class="guide line" d="M520.962238 0.000000 v514.000000" /><text class="" x="520.9622377622377" y="529.0">Oct</text></g><g class="guides"><path class="guide line" d="M577.465734 0.000000 v514.000000" /><text class="" x="577.4657342657342" y="529.0">Nov</text></g><g class="guides"><path class="guide line" d="M633.969231 0.000000 v514.000000" /><text class="" x="633.9692307692308" y="529.0">Dec</text></g></g><g class="series serie-0 color-0"><path class="line reactive" d="M12.430769 514.000000 L12.430769 9.884615 12.656783 10.872427 12.882797 11.860198 13.108811 12.847891 13.334825 13.835466 13.560839 14.822883 13.786853 15.810102 14.012867 16.797086 14.238881 17.783793 14.464895 18.770185 14.690909 19.756222 14.916923 20.741865 15.142937 21.727074 15.368951 22.711811 15.594965 23.696034 15.820979 24.679706 16.046993 25.662787 16.273007 26.645237 16.499021 27.627016 16.725035 28.608086 16.951049 29.588407 17.177063 30.567940 17.403077 31.546645 17.629091 32.524482 17.855105 33.501413 18.081119 34.477398 18.307133 35.452397 18.533147 36.426371 18.759161 37.399281 18.985175 38.371087 19.211189 39.341750 19.437203 40.311230 19.663217 41.279488 19.889231 42.246485 20.115245 43.212181 20.341259 44.176536 20.567273 45.139512 20.793287 46.101068 21.019301 47.061166 21.245315 48.019766 21.471329 48.976829 21.697343 49.932314 21.923357 50.886184 22.149371 51.838397 22.375385 52.788916 22.601399 53.737700 22.827413 54.684710 23.053427 55.629906 23.279441 56.573250 23.505455 57.514702 23.731469 58.454222 23.957483 59.391771 24.183497 60.327309 24.409510 61.260798 24.635524 62.192197 24.861538 63.121467 25.087552 64.048570 25.313566 64.973464 25.539580 65.896112 25.765594 66.816473 25.991608 67.734508 26.217622 68.650178 26.443636 69.563444 26.669650 70.474265 26.895664 71.382603 27.121678 72.288417 27.347692 73.191670 27.573706 74.092320 27.799720 74.990330 28.025734 75.885658 28.251748 76.778267 28.477762 77.668116 28.703776 78.555166 28.929790 79.439378 29.155804 80.320712 29.381818 81.199129 29.607832 82.074589 29.833846 82.947054 30.059860 83.816482 30.285874 84.682836 30.511888 85.546076 30.737902 86.406162 30.963916 87.263055 31.189930 88.116715 31.415944 88.967104 31.641958 89.814180 31.867972 90.657907 32.093986 91.498242 32.320000 92.335149 32.546014 93.168586 32.772028 93.998514 32.998042 94.824895 33.224056 95.647689 33.450070 96.466855 33.676084 97.282356 33.902098 98.094151 34.128112 98.902200 34.354126 99.706466 34.580140 100.506907 34.806154 101.303485 35.032168 102.096161 35.258182 102.884894 35.484196 103.669646 35.710210 104.450377 35.936224 105.227047 36.162238 105.999618 36.388252 106.768049 36.614266 107.532302 36.840280 108.292337 37.066294 109.048114 37.292308 109.799594 37.518322 110.546738 37.744336 111.289506 37.970350 112.027859 38.196364 112.761757 38.422378 113.491161 38.648392 114.216032 38.874406 114.936330 39.100420 115.652015 39.326434 116.363049 39.552448 117.069392 39.778462 117.771004 40.004476 118.467846 40.230490 119.159879 40.456503 119.847063 40.682517 120.529359 40.908531 121.206727 41.134545 121.879128 41.360559 122.546523 41.586573 123.208871 41.812587 123.866134 42.038601 124.518273 42.264615 125.165247 42.490629 125.807017 42.716643 126.443545 42.942657 127.074790 43.168671 127.700713 43.394685 128.321275 43.620699 128.936436 43.846713 129.546158 44.072727 130.150399 44.298741 130.749122 44.524755 131.342286 44.750769 131.929852 44.976783 132.511781 45.202797 133.088033 45.428811 133.658569 45.654825 134.223350 45.880839 134.782336 46.106853 135.335487 46.332867 135.882765 46.558881 136.424129 46.784895 136.959541 47.010909 137.488961 47.236923 138.012349 47.462937 138.529667 47.688951 139.040874 47.914965 139.545931 48.140979 140.044800 48.366993 140.537439 48.593007 141.023811 48.819021 141.503875 49.045035 141.977593 49.271049 142.444924 49.497063 142.905829 49.723077 143.360270 49.949091 143.808206 50.175105 144.249597 50.401119 144.684406 50.627133 145.112592 50.853147 145.534115 51.079161 145.948937 51.305175 146.357018 51.531189 146.758319 51.757203 147.152799 51.983217 147.540420 52.209231 147.921143 52.435245 148.294927 52.661259 148.661734 52.887273 149.021524 53.113287 149.374257 53.339301 149.719895 53.565315 150.058397 53.791329 150.389724 54.017343 150.713838 54.243357 151.030698 54.469371 151.340265 54.695385 151.642499 54.921399 151.937362 55.147413 152.224814 55.373427 152.504815 55.599441 152.777326 55.825455 153.042307 56.051469 153.299720 56.277483 153.549524 56.503497 153.791680 56.729510 154.026150 56.955524 154.252892 57.181538 154.471869 57.407552 154.683040 57.633566 154.886367 57.859580 155.081809 58.085594 155.269328 58.311608 155.448883 58.537622 155.620436 58.763636 155.783947 58.989650 155.939376 59.215664 156.086685 59.441678 156.225834 59.667692 156.356782 59.893706 156.479492 60.119720 156.593924 60.345734 156.700037 60.571748 156.797793 60.797762 156.887153 61.023776 156.968076 61.249790 157.040523 61.475804 157.104456 61.701818 157.159834 61.927832 157.206618 62.153846 157.244769 62.379860 157.274248 62.605874 157.295014 62.831888 157.307029 63.057902 157.310253 63.283916 157.304646 63.509930 157.290169 63.735944 157.266784 63.961958 157.234449 64.187972 157.193127 64.413986 157.142777 64.640000 157.083360 64.866014 157.014837 65.092028 156.937169 65.318042 156.850315 65.544056 156.754236 65.770070 156.648893 65.996084 156.534247 66.222098 156.410258 66.448112 156.276887 66.674126 156.134094 66.900140 155.981840 67.126154 155.820086 67.352168 155.648791 67.578182 155.467917 67.804196 155.277424 68.030210 155.077274 68.256224 154.867425 68.482238 154.647839 68.708252 154.418477 68.934266 154.179299 69.160280 153.930292 69.386294 153.671545 69.612308 153.403177 69.838322 153.125302 70.064336 152.838039 70.290350 152.541502 70.516364 152.235810 70.742378 151.921077 70.968392 151.597422 71.194406 151.264959 71.420420 150.923807 71.646434 150.574080 71.872448 150.215897 72.098462 149.849372 72.324476 149.474624 72.550490 149.091768 72.776503 148.700921 73.002517 148.302199 73.228531 147.895719 73.454545 147.481597 73.680559 147.059951 73.906573 146.630895 74.132587 146.194548 74.358601 145.751025 74.584615 145.300443 74.810629 144.842919 75.036643 144.378568 75.262657 143.907508 75.488671 143.429855 75.714685 142.945725 75.940699 142.455236 76.166713 141.958503 76.392727 141.455643 76.618741 140.946772 76.844755 140.432008 77.070769 139.911466 77.296783 139.385263 77.522797 138.853516 77.748811 138.316341 77.974825 137.773854 78.200839 137.226173 78.426853 136.673413 78.652867 136.115692 78.878881 135.553125 79.104895 134.985829 79.330909 134.413921 79.556923 133.837517 79.782937 133.256734 80.008951 132.671688 80.234965 132.082496 80.460979 131.489274 80.686993 130.892139 80.913007 130.291207 81.139021 129.686595 81.365035 129.078419 81.591049 128.466796 81.817063 127.851842 82.043077 127.233674 82.269091 126.612409 82.495105 125.988162 82.721119 125.361051 82.947133 124.731191 83.173147 124.098700 83.399161 123.463694 83.625175 122.826289 83.851189 122.186602 84.077203 121.544750 84.303217 120.900848 84.529231 120.255014 84.755245 119.607364 84.981259 118.958014 85.207273 118.307082 85.433287 117.654683 85.659301 117.000933 85.885315 116.345951 86.111329 115.689851 86.337343 115.032751 86.563357 114.374767 86.789371 113.716016 87.015385 113.056613 87.241399 112.396677 87.467413 111.736322 87.693427 111.075666 87.919441 110.414825 88.145455 109.753916 88.371469 109.093055 88.597483 108.432358 88.823497 107.771943 89.049510 107.111925 89.275524 106.452422 89.501538 105.793549 89.727552 105.135423 89.953566 104.478162 90.179580 103.821880 90.405594 103.166695 90.631608 102.512724 90.857622 101.860082 91.083636 101.208887 91.309650 100.559254 91.535664 99.911301 91.761678 99.265143 91.987692 98.620898 92.213706 97.978681 92.439720 97.338610 92.665734 96.700801 92.891748 96.065370 93.117762 95.432435 93.343776 94.802110 93.569790 94.174514 93.795804 93.549761 94.021818 92.927970 94.247832 92.309257 94.473846 91.693737 94.699860 91.081527 94.925874 90.472745 95.151888 89.867506 95.377902 89.265927 95.603916 88.668125 95.829930 88.074216 96.055944 87.484316 96.281958 86.898542 96.507972 86.317011 96.733986 85.739839 96.960000 85.167143 97.186014 84.599038 97.412028 84.035643 97.638042 83.477072 97.864056 82.923443 98.090070 82.374872 98.316084 81.831476 98.542098 81.293371 98.768112 80.760673 98.994126 80.233500 99.220140 79.711968 99.446154 79.196193 99.672168 78.686291 99.898182 78.182380 100.124196 77.684575 100.350210 77.192994 100.576224 76.707752 100.802238 76.228967 101.028252 75.756755 101.254266 75.291232 101.480280 74.832514 101.706294 74.380719 101.932308 73.935963 102.158322 73.498362 102.384336 73.068034 102.610350 72.645093 102.836364 72.229657 103.062378 71.821843 103.288392 71.421767 103.514406 71.029545 103.740420 70.645294 103.966434 70.269130 104.192448 69.901171 104.418462 69.541532 104.644476 69.190329 104.870490 68.847681 105.096503 68.513702 105.322517 68.188510 105.548531 67.872221 105.774545 67.564951 106.000559 67.266818 106.226573 66.977937 106.452587 66.698425 106.678601 66.428399 106.904615 66.167974 107.130629 65.917269 107.356643 65.676398 107.582657 65.445479 107.808671 65.224629 108.034685 65.013963 108.260699 64.813598 108.486713 64.623651 108.712727 64.444237 108.938741 64.275475 109.164755 64.117480 109.390769 63.970369 109.616783 63.834257 109.842797 63.709263 110.068811 63.595502 110.294825 63.493090 110.520839 63.402145 110.746853 63.322783 110.972867 63.255120 111.198881 63.199273 111.424895 63.155358 111.650909 63.123492 111.876923 63.103791 112.102937 63.096372 112.328951 63.101352 112.554965 63.118846 112.780979 63.148972 113.006993 63.191846 113.233007 63.247584 113.459021 63.316303 113.685035 63.398120 113.911049 63.493150 114.137063 63.601511 114.363077 63.723319 114.589091 63.858690 114.815105 64.007742 115.041119 64.170590 115.267133 64.347351 115.493147 64.538141 115.719161 64.743078 115.945175 64.962277 116.171189 65.195855 116.397203 65.443929 116.623217 65.706614 116.849231 65.984029 117.075245 66.276288 117.301259 66.583510 117.527273 66.905809 117.753287 67.243303 117.979301 67.596108 118.205315 67.964341 118.431329 68.348118 118.657343 68.747555 118.883357 69.162770 119.109371 69.593879 119.335385 70.040998 119.561399 70.504243 119.787413 70.983732 120.013427 71.479581 120.239441 71.991905 120.465455 72.520823 120.691469 73.066450 120.917483 73.628903 121.143497 74.208298 121.369510 74.804752 121.595524 75.418381 121.821538 76.049302 122.047552 76.697632 122.273566 77.363486 122.499580 78.046982 122.725594 78.748236 122.951608 79.467364 123.177622 80.204483 123.403636 80.959709 123.629650 81.733160 123.855664 82.524950 124.081678 83.335198 124.307692 84.164020 124.533706 85.011531 124.759720 85.877849 124.985734 86.763090 125.211748 87.667370 125.437762 88.590806 125.663776 89.533469 125.889790 90.495239 126.115804 91.475952 126.341818 92.475443 126.567832 93.493549 126.793846 94.530103 127.019860 95.584942 127.245874 96.657901 127.471888 97.748815 127.697902 98.857519 127.923916 99.983848 128.149930 101.127639 128.375944 102.288726 128.601958 103.466944 128.827972 104.662130 129.053986 105.874117 129.280000 107.102742 129.506014 108.347840 129.732028 109.609246 129.958042 110.886796 130.184056 112.180324 130.410070 113.489666 130.636084 114.814658 130.862098 116.155134 131.088112 117.510930 131.314126 118.881881 131.540140 120.267824 131.766154 121.668592 131.992168 123.084021 132.218182 124.513947 132.444196 125.958204 132.670210 127.416629 132.896224 128.889056 133.122238 130.375321 133.348252 131.875259 133.574266 133.388705 133.800280 134.915496 134.026294 136.455465 134.252308 138.008448 134.478322 139.574281 134.704336 141.152799 134.930350 142.743837 135.156364 144.347231 135.382378 145.962815 135.608392 147.590426 135.834406 149.229898 136.060420 150.881067 136.286434 152.543768 136.512448 154.217837 136.738462 155.903108 136.964476 157.599417 137.190490 159.306600 137.416503 161.024491 137.642517 162.752926 137.868531 164.491741 138.094545 166.240770 138.320559 167.999848 138.546573 169.768812 138.772587 171.547497 138.998601 173.335737 139.224615 175.133369 139.450629 176.940227 139.676643 178.756146 139.902657 180.580963 140.128671 182.414512 140.354685 184.256628 140.580699 186.107148 140.806713 187.965906 141.032727 189.832737 141.258741 191.707478 141.484755 193.589962 141.710769 195.480026 141.936783 197.377505 142.162797 199.282234 142.388811 201.194049 142.614825 203.112784 142.840839 205.038275 143.066853 206.970358 143.292867 208.908868 143.518881 210.853639 143.744895 212.804508 143.970909 214.761309 144.196923 216.723878 144.422937 218.692050 144.648951 220.665661 144.874965 222.644546 145.100979 224.628540 145.326993 226.617478 145.553007 228.611197 145.779021 230.609530 146.005035 232.612314 146.231049 234.619383 146.457063 236.630573 146.683077 238.645720 146.909091 240.664658 147.135105 242.687224 147.361119 244.713251 147.587133 246.742576 147.813147 248.775034 148.039161 250.810460 148.265175 252.848690 148.491189 254.889558 148.717203 256.932901 148.943217 258.978553 149.169231 261.026349 149.395245 263.076126 149.621259 265.127718 149.847273 267.180961 150.073287 269.235689 150.299301 271.291739 150.525315 273.348946 150.751329 275.407144 150.977343 277.466170 151.203357 279.525858 151.429371 281.586044 151.655385 283.646563 151.881399 285.707250 152.107413 287.767941 152.333427 289.828471 152.559441 291.888676 152.785455 293.948390 153.011469 296.007450 153.237483 298.065689 153.463497 300.122944 153.689510 302.179050 153.915524 304.233843 154.141538 306.287156 154.367552 308.338827 154.593566 310.388690 154.819580 312.436580 155.045594 314.482333 155.271608 316.525784 155.497622 318.566769 155.723636 320.605122 155.949650 322.640679 156.175664 324.673275 156.401678 326.702746 156.627692 328.728928 156.853706 330.751654 157.079720 332.770761 157.305734 334.786083 157.531748 336.797457 157.757762 338.804717 157.983776 340.807700 158.209790 342.806239 158.435804 344.800170 158.661818 346.789330 158.887832 348.773552 159.113846 350.752673 159.339860 352.726527 159.565874 354.694950 159.791888 356.657778 160.017902 358.614845 160.243916 360.565987 160.469930 362.511039 160.695944 364.449837 160.921958 366.382215 161.147972 368.308010 161.373986 370.227056 161.600000 372.139188 161.826014 374.044243 162.052028 375.942055 162.278042 377.832460 162.504056 379.715293 162.730070 381.590389 162.956084 383.457584 163.182098 385.316712 163.408112 387.167610 163.634126 389.010112 163.860140 390.844054 164.086154 392.669272 164.312168 394.485599 164.538182 396.292873 164.764196 398.090927 164.990210 399.879598 165.216224 401.658721 165.442238 403.428130 165.668252 405.187662 165.894266 406.937152 166.120280 408.676434 166.346294 410.405345 166.572308 412.123719 166.798322 413.831392 167.024336 415.528199 167.250350 417.213976 167.476364 418.888557 167.702378 420.551779 167.928392 422.203476 168.154406 423.843483 168.380420 425.471637 168.606434 427.087772 168.832448 428.691724 169.058462 430.283327 169.284476 431.862418 169.510490 433.428831 169.736503 434.982402 169.962517 436.522967 170.188531 438.050360 170.414545 439.564416 170.640559 441.064972 170.866573 442.551862 171.092587 444.024922 171.318601 445.483987 171.544615 446.928893 171.770629 448.359474 171.996643 449.775566 172.222657 451.177004 172.448671 452.563624 172.674685 453.935260 172.900699 455.291749 173.126713 456.632926 173.352727 457.958625 173.578741 459.268682 173.804755 460.562933 174.030769 461.841212 174.256783 463.103356 174.482797 464.349199 174.708811 465.578577 174.934825 466.791324 175.160839 467.987277 175.386853 469.166271 175.612867 470.328140 175.838881 471.472721 176.064895 472.599848 176.290909 473.709357 176.516923 474.801083 176.742937 475.874862 176.968951 476.930528 177.194965 477.967918 177.420979 478.986865 177.646993 479.987207 177.873007 480.968778 178.099021 481.931412 178.325035 482.874947 178.551049 483.799216 178.777063 484.704056 179.003077 485.589301 179.229091 486.454787 179.455105 487.300350 179.681119 488.125823 179.907133 488.931044 180.133147 489.715847 180.359161 490.480067 180.585175 491.223539 180.811189 491.946100 181.037203 492.647584 181.263217 493.327827 181.489231 493.986664 181.715245 494.623930 181.941259 495.239460 182.167273 495.833140 182.393287 496.405052 182.619301 496.955326 182.845315 497.484096 183.071329 497.991493 183.297343 498.477648 183.523357 498.942693 183.749371 499.386760 183.975385 499.809981 184.201399 500.212487 184.427413 500.594410 184.653427 500.955883 184.879441 501.297035 185.105455 501.618000 185.331469 501.918909 185.557483 502.199893 185.783497 502.461085 186.009510 502.702616 186.235524 502.924618 186.461538 503.127222 186.687552 503.310561 186.913566 503.474765 187.139580 503.619968 187.365594 503.746299 187.591608 503.853892 187.817622 503.942878 188.043636 504.013389 188.269650 504.065555 188.495664 504.099510 188.721678 504.115385 188.947692 504.113311 189.173706 504.093420 189.399720 504.055844 189.625734 504.000715 189.851748 503.928164 190.077762 503.838323 190.303776 503.731324 190.529790 503.607298 190.755804 503.466378 190.981818 503.308695 191.207832 503.134380 191.433846 502.943566 191.659860 502.736383 191.885874 502.512965 192.111888 502.273442 192.337902 502.017947 192.563916 501.746610 192.789930 501.459564 193.015944 501.156941 193.241958 500.838872 193.467972 500.505488 193.693986 500.156922 193.920000 499.793306 194.146014 499.414770 194.372028 499.021448 194.598042 498.613469 194.824056 498.190967 195.050070 497.754073 195.276084 497.302918 195.502098 496.837635 195.728112 496.358355 195.954126 495.865210 196.180140 495.358331 196.406154 494.837850 196.632168 494.303900 196.858182 493.756611 197.084196 493.196115 197.310210 492.622544 197.536224 492.036031 197.762238 491.436705 197.988252 490.824701 198.214266 490.200148 198.440280 489.563178 198.666294 488.913925 198.892308 488.252518 199.118322 487.579090 199.344336 486.893773 199.570350 486.196698 199.796364 485.487997 200.022378 484.767802 200.248392 484.036244 200.474406 483.293456 200.700420 482.539568 200.926434 481.774713 201.152448 480.999022 201.378462 480.212628 201.604476 479.415661 201.830490 478.608253 202.056503 477.790537 202.282517 476.962644 202.508531 476.124706 202.734545 475.276853 202.960559 474.419219 203.186573 473.551935 203.412587 472.675132 203.638601 471.788943 203.864615 470.893498 204.090629 469.988931 204.316643 469.075371 204.542657 468.152952 204.768671 467.221804 204.994685 466.282061 205.220699 465.333852 205.446713 464.377311 205.672727 463.412568 205.898741 462.439755 206.124755 461.459005 206.350769 460.470449 206.576783 459.474218 206.802797 458.470445 207.028811 457.459261 207.254825 456.440797 207.480839 455.415186 207.706853 454.382559 207.932867 453.343048 208.158881 452.296785 208.384895 451.243901 208.610909 450.184528 208.836923 449.118798 209.062937 448.046843 209.288951 446.968794 209.514965 445.884783 209.740979 444.794941 209.966993 443.699401 210.193007 442.598294 210.419021 441.491752 210.645035 440.379906 210.871049 439.262889 211.097063 438.140831 211.323077 437.013866 211.549091 435.882124 211.775105 434.745737 212.001119 433.604836 212.227133 432.459555 212.453147 431.310024 212.679161 430.156375 212.905175 428.998739 213.131189 427.837249 213.357203 426.672037 213.583217 425.503233 213.809231 424.330970 214.035245 423.155379 214.261259 421.976592 214.487273 420.794741 214.713287 419.609958 214.939301 418.422374 215.165315 417.232120 215.391329 416.039330 215.617343 414.844134 215.843357 413.646664 216.069371 412.447052 216.295385 411.245429 216.521399 410.041928 216.747413 408.836679 216.973427 407.629816 217.199441 406.421469 217.425455 405.211770 217.651469 404.000850 217.877483 402.788843 218.103497 401.575879 218.329510 400.362089 218.555524 399.147607 218.781538 397.932563 219.007552 396.717089 219.233566 395.501317 219.459580 394.285379 219.685594 393.069406 219.911608 391.853531 220.137622 390.637884 220.363636 389.422597 220.589650 388.207803 220.815664 386.993632 221.041678 385.780218 221.267692 384.567691 221.493706 383.356182 221.719720 382.145825 221.945734 380.936750 222.171748 379.729090 222.397762 378.522975 222.623776 377.318538 222.849790 376.115911 223.075804 374.915225 223.301818 373.716612 223.527832 372.520203 223.753846 371.326130 223.979860 370.134526 224.205874 368.945521 224.431888 367.759248 224.657902 366.575838 224.883916 365.395423 225.109930 364.218134 225.335944 363.044104 225.561958 361.873464 225.787972 360.706346 226.013986 359.542881 226.240000 358.383201 226.466014 357.227439 226.692028 356.075725 226.918042 354.928191 227.144056 353.784970 227.370070 352.646192 227.596084 351.511990 227.822098 350.382495 228.048112 349.257839 228.274126 348.138154 228.500140 347.023571 228.726154 345.914223 228.952168 344.810240 229.178182 343.711755 229.404196 342.618899 229.630210 341.531804 229.856224 340.450602 230.082238 339.375424 230.308252 338.306403 230.534266 337.243669 230.760280 336.187355 230.986294 335.137593 231.212308 334.094513 231.438322 333.058248 231.664336 332.028930 231.890350 331.006690 232.116364 329.991660 232.342378 328.983971 232.568392 327.983756 232.794406 326.991146 233.020420 326.006273 233.246434 325.029268 233.472448 324.060264 233.698462 323.099391 233.924476 322.146783 234.150490 321.202569 234.376503 320.266883 234.602517 319.339856 234.828531 318.421619 235.054545 317.512305 235.280559 316.612044 235.506573 315.720969 235.732587 314.839212 235.958601 313.966904 236.184615 313.104177 236.410629 312.251162 236.636643 311.407992 236.862657 310.574798 237.088671 309.751711 237.314685 308.938864 237.540699 308.136388 237.766713 307.344416 237.992727 306.563077 238.218741 305.792506 238.444755 305.032832 238.670769 304.284156 238.896783 303.546447 239.122797 302.819643 239.348811 302.103681 239.574825 301.398499 239.800839 300.704035 240.026853 300.020225 240.252867 299.347008 240.478881 298.684321 240.704895 298.032102 240.930909 297.390288 241.156923 296.758816 241.382937 296.137624 241.608951 295.526650 241.834965 294.925831 242.060979 294.335105 242.286993 293.754409 242.513007 293.183681 242.739021 292.622858 242.965035 292.071878 243.191049 291.530678 243.417063 290.999196 243.643077 290.477369 243.869091 289.965136 244.095105 289.462432 244.321119 288.969197 244.547133 288.485367 244.773147 288.010880 244.999161 287.545673 245.225175 287.089685 245.451189 286.642852 245.677203 286.205112 245.903217 285.776403 246.129231 285.356662 246.355245 284.945826 246.581259 284.543834 246.807273 284.150623 247.033287 283.766129 247.259301 283.390292 247.485315 283.023047 247.711329 282.664334 247.937343 282.314089 248.163357 281.972250 248.389371 281.638754 248.615385 281.313539 248.841399 280.996542 249.067413 280.687702 249.293427 280.386955 249.519441 280.094239 249.745455 279.809491 249.971469 279.532650 250.197483 279.263652 250.423497 279.002435 250.649510 278.748937 250.875524 278.503095 251.101538 278.264847 251.327552 278.034130 251.553566 277.810881 251.779580 277.595039 252.005594 277.386541 252.231608 277.185324 252.457622 276.991326 252.683636 276.804484 252.909650 276.624736 253.135664 276.452020 253.361678 276.286272 253.587692 276.127431 253.813706 275.975434 254.039720 275.830219 254.265734 275.691722 254.491748 275.559882 254.717762 275.434636 254.943776 275.315922 255.169790 275.203677 255.395804 275.097838 255.621818 274.998344 255.847832 274.905132 256.073846 274.818138 256.299860 274.737302 256.525874 274.662559 256.751888 274.593849 256.977902 274.531108 257.203916 274.474273 257.429930 274.423284 257.655944 274.378076 257.881958 274.338587 258.107972 274.304755 258.333986 274.276518 258.560000 274.253813 258.786014 274.236578 259.012028 274.224749 259.238042 274.218265 259.464056 274.217064 259.690070 274.221082 259.916084 274.230257 260.142098 274.244526 260.368112 274.263828 260.594126 274.288100 260.820140 274.317279 261.046154 274.351303 261.272168 274.390109 261.498182 274.433635 261.724196 274.481818 261.950210 274.534596 262.176224 274.591907 262.402238 274.653687 262.628252 274.719875 262.854266 274.790408 263.080280 274.865223 263.306294 274.944259 263.532308 275.027452 263.758322 275.114740 263.984336 275.206061 264.210350 275.301352 264.436364 275.400550 264.662378 275.503594 264.888392 275.610421 265.114406 275.720967 265.340420 275.835172 265.566434 275.952972 265.792448 276.074304 266.018462 276.199107 266.244476 276.327318 266.470490 276.458874 266.696503 276.593713 266.922517 276.731773 267.148531 276.872990 267.374545 277.017303 267.600559 277.164649 267.826573 277.314966 268.052587 277.468191 268.278601 277.624261 268.504615 277.783114 268.730629 277.944688 268.956643 278.108920 269.182657 278.275748 269.408671 278.445109 269.634685 278.616941 269.860699 278.791181 270.086713 278.967767 270.312727 279.146636 270.538741 279.327726 270.764755 279.510974 270.990769 279.696319 271.216783 279.883696 271.442797 280.073045 271.668811 280.264302 271.894825 280.457405 272.120839 280.652292 272.346853 280.848899 272.572867 281.047166 272.798881 281.247028 273.024895 281.448424 273.250909 281.651291 273.476923 281.855567 273.702937 282.061189 273.928951 282.268094 274.154965 282.476221 274.380979 282.685507 274.606993 282.895889 274.833007 283.107305 275.059021 283.319692 275.285035 283.532988 275.511049 283.747130 275.737063 283.962056 275.963077 284.177704 276.189091 284.394011 276.415105 284.610914 276.641119 284.828351 276.867133 285.046260 277.093147 285.264578 277.319161 285.483242 277.545175 285.702191 277.771189 285.921361 277.997203 286.140690 278.223217 286.360116 278.449231 286.579577 278.675245 286.799009 278.901259 287.018350 279.127273 287.237538 279.353287 287.456510 279.579301 287.675205 279.805315 287.893558 280.031329 288.111509 280.257343 288.328994 280.483357 288.545951 280.709371 288.762317 280.935385 288.978030 281.161399 289.193028 281.387413 289.407248 281.613427 289.620627 281.839441 289.833104 282.065455 290.044615 282.291469 290.255099 282.517483 290.464492 282.743497 290.672732 282.969510 290.879757 283.195524 291.085504 283.421538 291.289911 283.647552 291.492915 283.873566 291.694454 284.099580 291.894465 284.325594 292.092887 284.551608 292.289655 284.777622 292.484709 285.003636 292.677985 285.229650 292.869421 285.455664 293.058955 285.681678 293.246523 285.907692 293.432064 286.133706 293.615515 286.359720 293.796814 286.585734 293.975898 286.811748 294.152704 287.037762 294.327171 287.263776 294.499235 287.489790 294.668835 287.715804 294.835907 287.941818 295.000390 288.167832 295.162220 288.393846 295.321336 288.619860 295.477675 288.845874 295.631174 289.071888 295.781770 289.297902 295.929403 289.523916 296.074008 289.749930 296.215524 289.975944 296.353887 290.201958 296.489037 290.427972 296.620909 290.653986 296.749442 290.880000 296.874573 291.106014 296.996239 291.332028 297.114379 291.558042 297.228929 291.784056 297.339828 292.010070 297.447012 292.236084 297.550420 292.462098 297.649988 292.688112 297.745655 292.914126 297.837357 293.140140 297.925033 293.366154 298.008619 293.592168 298.088054 293.818182 298.163275 294.044196 298.234220 294.270210 298.300825 294.496224 298.363029 294.722238 298.420769 294.948252 298.473983 295.174266 298.522621 295.400280 298.566687 295.626294 298.606199 295.852308 298.641175 296.078322 298.671631 296.304336 298.697586 296.530350 298.719057 296.756364 298.736060 296.982378 298.748614 297.208392 298.756737 297.434406 298.760444 297.660420 298.759755 297.886434 298.754686 298.112448 298.745254 298.338462 298.731478 298.564476 298.713374 298.790490 298.690960 299.016503 298.664254 299.242517 298.633273 299.468531 298.598034 299.694545 298.558555 299.920559 298.514853 300.146573 298.466946 300.372587 298.414851 300.598601 298.358586 300.824615 298.298167 301.050629 298.233613 301.276643 298.164941 301.502657 298.092168 301.728671 298.015311 301.954685 297.934389 302.180699 297.849419 302.406713 297.760417 302.632727 297.667402 302.858741 297.570391 303.084755 297.469401 303.310769 297.364450 303.536783 297.255556 303.762797 297.142734 303.988811 297.026004 304.214825 296.905383 304.440839 296.780887 304.666853 296.652535 304.892867 296.520344 305.118881 296.384330 305.344895 296.244513 305.570909 296.100909 305.796923 295.953535 306.022937 295.802409 306.248951 295.647549 306.474965 295.488972 306.700979 295.326695 306.926993 295.160735 307.153007 294.991111 307.379021 294.817840 307.605035 294.640938 307.831049 294.460424 308.057063 294.276315 308.283077 294.088629 308.509091 293.897382 308.735105 293.702592 308.961119 293.504277 309.187133 293.302455 309.413147 293.097141 309.639161 292.888355 309.865175 292.676113 310.091189 292.460433 310.317203 292.241332 310.543217 292.018828 310.769231 291.792939 310.995245 291.563680 311.221259 291.331071 311.447273 291.095129 311.673287 290.855870 311.899301 290.613312 312.125315 290.367474 312.351329 290.118371 312.577343 289.866023 312.803357 289.610445 313.029371 289.351656 313.255385 289.089672 313.481399 288.824513 313.707413 288.556194 313.933427 288.284733 314.159441 288.010148 314.385455 287.732456 314.611469 287.451675 314.837483 287.167822 315.063497 286.880914 315.289510 286.590969 315.515524 286.298004 315.741538 286.002038 315.967552 285.703086 316.193566 285.401167 316.419580 285.096298 316.645594 284.788497 316.871608 284.477780 317.097622 284.164166 317.323636 283.847672 317.549650 283.528315 317.775664 283.206112 318.001678 282.881082 318.227692 282.553241 318.453706 282.222608 318.679720 281.889198 318.905734 281.553031 319.131748 281.214123 319.357762 280.872492 319.583776 280.528154 319.809790 280.181129 320.035804 279.831432 320.261818 279.479082 320.487832 279.124096 320.713846 278.766491 320.939860 278.406285 321.165874 278.043496 321.391888 277.678140 321.617902 277.310235 321.843916 276.939798 322.069930 276.566848 322.295944 276.191401 322.521958 275.813474 322.747972 275.433086 322.973986 275.050254 323.200000 274.664995 323.426014 274.277327 323.652028 273.887266 323.878042 273.494831 324.104056 273.100039 324.330070 272.702907 324.556084 272.303453 324.782098 271.901694 325.008112 271.497648 325.234126 271.091332 325.460140 270.682764 325.686154 270.271960 325.912168 269.858939 326.138182 269.443717 326.364196 269.026313 326.590210 268.606744 326.816224 268.185026 327.042238 267.761178 327.268252 267.335218 327.494266 266.907161 327.720280 266.477027 327.946294 266.044832 328.172308 265.610593 328.398322 265.174329 328.624336 264.736056 328.850350 264.295793 329.076364 263.853556 329.302378 263.409363 329.528392 262.963231 329.754406 262.515178 329.980420 262.065221 330.206434 261.613378 330.432448 261.159666 330.658462 260.704103 330.884476 260.246705 331.110490 259.787491 331.336503 259.326478 331.562517 258.863683 331.788531 258.399124 332.014545 257.932818 332.240559 257.464783 332.466573 256.995035 332.692587 256.523593 332.918601 256.050474 333.144615 255.575696 333.370629 255.099275 333.596643 254.621229 333.822657 254.141576 334.048671 253.660333 334.274685 253.177518 334.500699 252.693147 334.726713 252.207239 334.952727 251.719811 335.178741 251.230880 335.404755 250.740464 335.630769 250.248580 335.856783 249.755245 336.082797 249.260478 336.308811 248.764294 336.534825 248.266713 336.760839 247.767751 336.986853 247.267426 337.212867 246.765755 337.438881 246.262756 337.664895 245.758446 337.890909 245.252842 338.116923 244.745962 338.342937 244.237824 338.568951 243.728444 338.794965 243.217841 339.020979 242.706031 339.246993 242.193032 339.473007 241.678862 339.699021 241.163538 339.925035 240.647077 340.151049 240.129498 340.377063 239.610816 340.603077 239.091050 340.829091 238.570218 341.055105 238.048336 341.281119 237.525422 341.507133 237.001493 341.733147 236.476568 341.959161 235.950663 342.185175 235.423795 342.411189 234.895983 342.637203 234.367243 342.863217 233.837594 343.089231 233.307052 343.315245 232.775635 343.541259 232.243360 343.767273 231.710246 343.993287 231.176308 344.219301 230.641566 344.445315 230.106035 344.671329 229.569734 344.897343 229.032680 345.123357 228.494890 345.349371 227.956383 345.575385 227.417174 345.801399 226.877283 346.027413 226.336725 346.253427 225.795520 346.479441 225.253683 346.705455 224.711233 346.931469 224.168187 347.157483 223.624562 347.383497 223.080376 347.609510 222.535646 347.835524 221.990390 348.061538 221.444625 348.287552 220.898369 348.513566 220.351638 348.739580 219.804451 348.965594 219.256825 349.191608 218.708778 349.417622 218.160325 349.643636 217.611487 349.869650 217.062278 350.095664 216.512718 350.321678 215.962823 350.547692 215.412612 350.773706 214.862100 350.999720 214.311306 351.225734 213.760248 351.451748 213.208942 351.677762 212.657408 351.903776 212.105673 352.129790 211.553763 352.355804 211.001707 352.581818 210.449534 352.807832 209.897270 353.033846 209.344945 353.259860 208.792585 353.485874 208.240220 353.711888 207.687876 353.937902 207.135583 354.163916 206.583368 354.389930 206.031258 354.615944 205.479283 354.841958 204.927469 355.067972 204.375846 355.293986 203.824440 355.520000 203.273281 355.746014 202.722395 355.972028 202.171811 356.198042 201.621558 356.424056 201.071662 356.650070 200.522152 356.876084 199.973056 357.102098 199.424402 357.328112 198.876217 357.554126 198.328531 357.780140 197.781370 358.006154 197.234763 358.232168 196.688738 358.458182 196.143323 358.684196 195.598546 358.910210 195.054435 359.136224 194.511017 359.362238 193.968321 359.588252 193.426375 359.814266 192.885207 360.040280 192.344844 360.266294 191.805315 360.492308 191.266648 360.718322 190.728871 360.944336 190.192011 361.170350 189.656097 361.396364 189.121157 361.622378 188.587219 361.848392 188.054310 362.074406 187.522459 362.300420 186.991693 362.526434 186.462042 362.752448 185.933532 362.978462 185.406191 363.204476 184.880048 363.430490 184.355131 363.656503 183.831467 363.882517 183.309085 364.108531 182.788013 364.334545 182.268278 364.560559 181.749909 364.786573 181.232933 365.012587 180.717379 365.238601 180.203275 365.464615 179.690648 365.690629 179.179526 365.916643 178.669939 366.142657 178.161912 366.368671 177.655475 366.594685 177.150656 366.820699 176.647482 367.046713 176.145982 367.272727 175.646183 367.498741 175.148113 367.724755 174.651801 367.950769 174.157275 368.176783 173.664561 368.402797 173.173690 368.628811 172.684687 368.854825 172.197582 369.080839 171.712403 369.306853 171.229177 369.532867 170.747932 369.758881 170.268697 369.984895 169.791499 370.210909 169.316366 370.436923 168.843327 370.662937 168.372409 370.888951 167.903640 371.114965 167.437049 371.340979 166.972663 371.566993 166.510510 371.793007 166.050619 372.019021 165.593017 372.245035 165.137732 372.471049 164.684792 372.697063 164.234226 372.923077 163.786061 373.149091 163.340325 373.375105 162.897046 373.601119 162.456253 373.827133 162.017972 374.053147 161.582233 374.279161 161.149063 374.505175 160.718491 374.731189 160.290543 374.957203 159.865249 375.183217 159.442636 375.409231 159.022732 375.635245 158.605565 375.861259 158.191163 376.087273 157.779554 376.313287 157.370767 376.539301 156.964828 376.765315 156.561767 376.991329 156.161610 377.217343 155.764387 377.443357 155.370125 377.669371 154.978852 377.895385 154.590596 378.121399 154.205385 378.347413 153.823247 378.573427 153.444210 378.799441 153.068302 379.025455 152.695551 379.251469 152.325985 379.477483 151.959632 379.703497 151.596520 379.929510 151.236676 380.155524 150.880130 380.381538 150.526909 380.607552 150.177041 380.833566 149.830553 381.059580 149.487475 381.285594 149.147833 381.511608 148.811657 381.737622 148.478973 381.963636 148.149810 382.189650 147.824196 382.415664 147.502159 382.641678 147.183727 382.867692 146.868927 383.093706 146.557789 383.319720 146.250339 383.545734 145.946606 383.771748 145.646618 383.997762 145.350402 384.223776 145.057988 384.449790 144.769402 384.675804 144.484673 384.901818 144.203828 385.127832 143.926897 385.353846 143.653906 385.579860 143.384884 385.805874 143.119859 386.031888 142.858858 386.257902 142.601910 386.483916 142.349043 386.709930 142.100284 386.935944 141.855662 387.161958 141.615205 387.387972 141.378941 387.613986 141.146897 387.840000 140.919102 388.066014 140.695583 388.292028 140.476369 388.518042 140.261488 388.744056 140.050967 388.970070 139.844835 389.196084 139.643119 389.422098 139.445848 389.648112 139.253049 389.874126 139.064752 390.100140 138.880982 390.326154 138.701769 390.552168 138.527141 390.778182 138.357125 391.004196 138.191750 391.230210 138.031043 391.456224 137.875033 391.682238 137.723747 391.908252 137.577214 392.134266 137.435461 392.360280 137.298517 392.586294 137.166409 392.812308 137.039166 393.038322 136.916814 393.264336 136.799384 393.490350 136.686902 393.716364 136.579396 393.942378 136.476894 394.168392 136.379425 394.394406 136.287017 394.620420 136.199696 394.846434 136.117493 395.072448 136.040433 395.298462 135.968546 395.524476 135.901859 395.750490 135.840400 395.976503 135.784198 396.202517 135.733280 396.428531 135.687674 396.654545 135.647409 396.880559 135.612512 397.106573 135.583011 397.332587 135.558934 397.558601 135.540310 397.784615 135.527166 398.010629 135.519530 398.236643 135.517430 398.462657 135.520895 398.688671 135.529952 398.914685 135.544629 399.140699 135.564954 399.366713 135.590955 399.592727 135.622661 399.818741 135.660098 400.044755 135.703296 400.270769 135.752282 400.496783 135.807084 400.722797 135.867730 400.948811 135.934248 401.174825 136.006667 401.400839 136.085013 401.626853 136.169316 401.852867 136.259603 402.078881 136.355901 402.304895 136.458240 402.530909 136.566647 402.756923 136.681150 402.982937 136.801776 403.208951 136.928555 403.434965 137.061514 403.660979 137.200681 403.886993 137.346084 404.113007 137.497751 404.339021 137.655710 404.565035 137.819989 404.791049 137.990615 405.017063 138.167618 405.243077 138.351025 405.469091 138.540863 405.695105 138.737162 405.921119 138.939948 406.147133 139.149251 406.373147 139.365097 406.599161 139.587515 406.825175 139.816533 407.051189 140.052179 407.277203 140.294480 407.503217 140.543466 407.729231 140.799163 407.955245 141.061600 408.181259 141.330794 408.407273 141.606711 408.633287 141.889308 408.859301 142.178542 409.085315 142.474369 409.311329 142.776744 409.537343 143.085625 409.763357 143.400967 409.989371 143.722727 410.215385 144.050861 410.441399 144.385325 410.667413 144.726076 410.893427 145.073069 411.119441 145.426261 411.345455 145.785608 411.571469 146.151066 411.797483 146.522592 412.023497 146.900141 412.249510 147.283671 412.475524 147.673137 412.701538 148.068495 412.927552 148.469702 413.153566 148.876714 413.379580 149.289487 413.605594 149.707978 413.831608 150.132142 414.057622 150.561936 414.283636 150.997316 414.509650 151.438239 414.735664 151.884660 414.961678 152.336536 415.187692 152.793822 415.413706 153.256477 415.639720 153.724454 415.865734 154.197712 416.091748 154.676205 416.317762 155.159891 416.543776 155.648725 416.769790 156.142663 416.995804 156.641663 417.221818 157.145679 417.447832 157.654669 417.673846 158.168589 417.899860 158.687394 418.125874 159.211042 418.351888 159.739488 418.577902 160.272688 418.803916 160.810599 419.029930 161.353177 419.255944 161.900379 419.481958 162.452159 419.707972 163.008476 419.933986 163.569284 420.160000 164.134541 420.386014 164.704202 420.612028 165.278223 420.838042 165.856562 421.064056 166.439173 421.290070 167.026014 421.516084 167.617040 421.742098 168.212208 421.968112 168.811474 422.194126 169.414795 422.420140 170.022126 422.646154 170.633423 422.872168 171.248644 423.098182 171.867743 423.324196 172.490679 423.550210 173.117405 423.776224 173.747880 424.002238 174.382059 424.228252 175.019898 424.454266 175.661354 424.680280 176.306382 424.906294 176.954940 425.132308 177.606982 425.358322 178.262467 425.584336 178.921349 425.810350 179.583585 426.036364 180.249131 426.262378 180.917944 426.488392 181.589979 426.714406 182.265193 426.940420 182.943543 427.166434 183.624983 427.392448 184.309472 427.618462 184.996964 427.844476 185.687416 428.070490 186.380785 428.296503 187.077026 428.522517 187.776096 428.748531 188.477951 428.974545 189.182547 429.200559 189.889840 429.426573 190.599788 429.652587 191.312345 429.878601 192.027468 430.104615 192.745114 430.330629 193.465238 430.556643 194.187797 430.782657 194.912748 431.008671 195.640045 431.234685 196.369647 431.460699 197.101508 431.686713 197.835585 431.912727 198.571834 432.138741 199.310212 432.364755 200.050674 432.590769 200.793178 432.816783 201.537678 433.042797 202.284132 433.268811 203.032496 433.494825 203.782726 433.720839 204.534777 433.946853 205.288608 434.172867 206.044172 434.398881 206.801428 434.624895 207.560330 434.850909 208.320836 435.076923 209.082901 435.302937 209.846482 435.528951 210.611535 435.754965 211.378017 435.980979 212.145882 436.206993 212.915089 436.433007 213.685592 436.659021 214.457349 436.885035 215.230314 437.111049 216.004446 437.337063 216.779699 437.563077 217.556031 437.789091 218.333396 438.015105 219.111752 438.241119 219.891055 438.467133 220.671261 438.693147 221.452327 438.919161 222.234207 439.145175 223.016860 439.371189 223.800240 439.597203 224.584305 439.823217 225.369010 440.049231 226.154311 440.275245 226.940166 440.501259 227.726529 440.727273 228.513358 440.953287 229.300608 441.179301 230.088237 441.405315 230.876199 441.631329 231.664451 441.857343 232.452950 442.083357 233.241652 442.309371 234.030513 442.535385 234.819489 442.761399 235.608536 442.987413 236.397611 443.213427 237.186670 443.439441 237.975669 443.665455 238.764565 443.891469 239.553313 444.117483 240.341869 444.343497 241.130191 444.569510 241.918234 444.795524 242.705955 445.021538 243.493309 445.247552 244.280254 445.473566 245.066745 445.699580 245.852738 445.925594 246.638189 446.151608 247.423056 446.377622 248.207294 446.603636 248.990859 446.829650 249.773708 447.055664 250.555797 447.281678 251.337082 447.507692 252.117519 447.733706 252.897065 447.959720 253.675675 448.185734 254.453306 448.411748 255.229915 448.637762 256.005457 448.863776 256.779889 449.089790 257.553167 449.315804 258.325247 449.541818 259.096086 449.767832 259.865639 449.993846 260.633863 450.219860 261.400714 450.445874 262.166148 450.671888 262.930122 450.897902 263.692592 451.123916 264.453514 451.349930 265.212844 451.575944 265.970539 451.801958 266.726554 452.027972 267.480846 452.253986 268.233372 452.480000 268.984087 452.706014 269.732948 452.932028 270.479910 453.158042 271.224931 453.384056 271.967966 453.610070 272.708972 453.836084 273.447904 454.062098 274.184720 454.288112 274.919374 454.514126 275.651825 454.740140 276.382027 454.966154 277.109937 455.192168 277.835512 455.418182 278.558706 455.644196 279.279478 455.870210 279.997782 456.096224 280.713576 456.322238 281.426815 456.548252 282.137456 456.774266 282.845454 457.000280 283.550767 457.226294 284.253350 457.452308 284.953159 457.678322 285.650152 457.904336 286.344283 458.130350 287.035509 458.356364 287.723787 458.582378 288.409073 458.808392 289.091323 459.034406 289.770493 459.260420 290.446539 459.486434 291.119418 459.712448 291.789086 459.938462 292.455499 460.164476 293.118613 460.390490 293.778385 460.616503 294.434771 460.842517 295.087727 461.068531 295.737209 461.294545 296.383173 461.520559 297.025577 461.746573 297.664375 461.972587 298.299525 462.198601 298.930982 462.424615 299.558702 462.650629 300.182643 462.876643 300.802759 463.102657 301.419009 463.328671 302.031346 463.554685 302.639729 463.780699 303.244112 464.006713 303.844453 464.232727 304.440708 464.458741 305.032832 464.684755 305.620787 464.910769 306.204557 465.136783 306.784130 465.362797 307.359494 465.588811 307.930638 465.814825 308.497550 466.040839 309.060218 466.266853 309.618631 466.492867 310.172777 466.718881 310.722645 466.944895 311.268223 467.170909 311.809500 467.396923 312.346463 467.622937 312.879102 467.848951 313.407404 468.074965 313.931358 468.300979 314.450953 468.526993 314.966177 468.753007 315.477018 468.979021 315.983465 469.205035 316.485506 469.431049 316.983130 469.657063 317.476325 469.883077 317.965078 470.109091 318.449380 470.335105 318.929218 470.561119 319.404580 470.787133 319.875456 471.013147 320.341832 471.239161 320.803699 471.465175 321.261044 471.691189 321.713855 471.917203 322.162122 472.143217 322.605831 472.369231 323.044973 472.595245 323.479535 472.821259 323.909505 473.047273 324.334873 473.273287 324.755626 473.499301 325.171753 473.725315 325.583242 473.951329 325.990082 474.177343 326.392260 474.403357 326.789767 474.629371 327.182589 474.855385 327.570716 475.081399 327.954135 475.307413 328.332835 475.533427 328.706805 475.759441 329.076033 475.985455 329.440507 476.211469 329.800216 476.437483 330.155148 476.663497 330.505291 476.889510 330.850635 477.115524 331.191167 477.341538 331.526875 477.567552 331.857749 477.793566 332.183776 478.019580 332.504946 478.245594 332.821245 478.471608 333.132664 478.697622 333.439190 478.923636 333.740811 479.149650 334.037517 479.375664 334.329294 479.601678 334.616133 479.827692 334.898021 480.053706 335.174946 480.279720 335.446898 480.505734 335.713864 480.731748 335.975833 480.957762 336.232793 481.183776 336.484733 481.409790 336.731641 481.635804 336.973505 481.861818 337.210315 482.087832 337.442057 482.313846 337.668722 482.539860 337.890296 482.765874 338.106769 482.991888 338.318129 483.217902 338.524364 483.443916 338.725463 483.669930 338.921414 483.895944 339.112206 484.121958 339.297827 484.347972 339.478265 484.573986 339.653508 484.800000 339.823546 485.026014 339.988367 485.252028 340.147959 485.478042 340.302309 485.704056 340.451408 485.930070 340.595243 486.156084 340.733803 486.382098 340.867075 486.608112 340.995049 486.834126 341.117713 487.060140 341.235055 487.286154 341.347064 487.512168 341.453728 487.738182 341.555035 487.964196 341.650975 488.190210 341.741534 488.416224 341.826702 488.642238 341.906467 488.868252 341.980818 489.094266 342.049743 489.320280 342.113230 489.546294 342.171267 489.772308 342.223844 489.998322 342.270949 490.224336 342.312569 490.450350 342.348693 490.676364 342.379311 490.902378 342.404409 491.128392 342.423977 491.354406 342.438003 491.580420 342.446476 491.806434 342.449383 492.032448 342.446713 492.258462 342.438455 492.484476 342.424597 492.710490 342.405128 492.936503 342.380035 493.162517 342.349307 493.388531 342.312933 493.614545 342.270901 493.840559 342.223200 494.066573 342.169817 494.292587 342.110742 494.518601 342.045962 494.744615 341.975466 494.970629 341.899243 495.196643 341.817281 495.422657 341.729568 495.648671 341.636092 495.874685 341.536843 496.100699 341.431808 496.326713 341.320976 496.552727 341.204336 496.778741 341.081875 497.004755 340.953582 497.230769 340.819446 497.456783 340.679455 497.682797 340.533597 497.908811 340.381861 498.134825 340.224235 498.360839 340.060708 498.586853 339.891268 498.812867 339.715903 499.038881 339.534601 499.264895 339.347352 499.490909 339.154144 499.716923 338.954965 499.942937 338.749803 500.168951 338.538646 500.394965 338.321484 500.620979 338.098305 500.846993 337.869097 501.073007 337.633848 501.299021 337.392547 501.525035 337.145182 501.751049 336.891742 501.977063 336.632215 502.203077 336.366590 502.429091 336.094854 502.655105 335.816997 502.881119 335.533006 503.107133 335.242871 503.333147 334.946579 503.559161 334.644119 503.785175 334.335479 504.011189 334.020648 504.237203 333.699614 504.463217 333.372366 504.689231 333.038891 504.915245 332.699179 505.141259 332.353218 505.367273 332.000996 505.593287 331.642501 505.819301 331.277723 506.045315 330.906648 506.271329 330.529267 506.497343 330.145567 506.723357 329.755536 506.949371 329.359164 507.175385 328.956437 507.401399 328.547346 507.627413 328.131878 507.853427 327.710022 508.079441 327.281765 508.305455 326.847097 508.531469 326.406006 508.757483 325.958480 508.983497 325.504508 509.209510 325.044078 509.435524 324.577179 509.661538 324.103798 509.887552 323.623925 510.113566 323.137547 510.339580 322.644653 510.565594 322.145232 510.791608 321.639272 511.017622 321.126761 511.243636 320.607688 511.469650 320.082041 511.695664 319.549809 511.921678 319.010980 512.147692 318.465542 512.373706 317.913483 512.599720 317.354793 512.825734 316.789460 513.051748 316.217471 513.277762 315.638816 513.503776 315.053483 513.729790 314.461459 513.955804 313.862735 514.181818 313.257297 514.407832 312.645135 514.633846 312.026237 514.859860 311.400591 515.085874 310.768186 515.311888 310.129010 515.537902 309.483051 515.763916 308.830298 515.989930 308.170739 516.215944 307.504363 516.441958 306.831158 516.667972 306.151113 516.893986 305.464215 517.120000 304.770454 517.346014 304.069817 517.572028 303.362294 517.798042 302.647872 518.024056 301.926540 518.250070 301.198286 518.476084 300.463100 518.702098 299.720968 518.928112 298.971880 519.154126 298.215824 519.380140 297.452788 519.606154 296.682761 519.832168 295.905731 520.058182 295.121686 520.284196 294.330616 520.510210 293.532508 520.736224 292.727351 520.962238 291.915133 521.188252 291.095857 521.414266 290.269578 521.640280 289.436366 521.866294 288.596292 522.092308 287.749426 522.318322 286.895838 522.544336 286.035597 522.770350 285.168773 522.996364 284.295437 523.222378 283.415659 523.448392 282.529508 523.674406 281.637055 523.900420 280.738369 524.126434 279.833521 524.352448 278.922580 524.578462 278.005617 524.804476 277.082701 525.030490 276.153903 525.256503 275.219292 525.482517 274.278939 525.708531 273.332913 525.934545 272.381285 526.160559 271.424124 526.386573 270.461500 526.612587 269.493485 526.838601 268.520146 527.064615 267.541555 527.290629 266.557781 527.516643 265.568895 527.742657 264.574966 527.968671 263.576065 528.194685 262.572261 528.420699 261.563624 528.646713 260.550225 528.872727 259.532133 529.098741 258.509418 529.324755 257.482151 529.550769 256.450401 529.776783 255.414239 530.002797 254.373734 530.228811 253.328956 530.454825 252.279975 530.680839 251.226862 530.906853 250.169686 531.132867 249.108517 531.358881 248.043426 531.584895 246.974482 531.810909 245.901755 532.036923 244.825316 532.262937 243.745234 532.488951 242.661579 532.714965 241.574421 532.940979 240.483830 533.166993 239.389877 533.393007 238.292631 533.619021 237.192162 533.845035 236.088541 534.071049 234.981836 534.297063 233.872119 534.523077 232.759459 534.749091 231.643926 534.975105 230.525590 535.201119 229.404522 535.427133 228.280790 535.653147 227.154466 535.879161 226.025619 536.105175 224.894319 536.331189 223.760636 536.557203 222.624640 536.783217 221.486402 537.009231 220.345990 537.235245 219.203476 537.461259 218.058929 537.687273 216.912418 537.913287 215.764015 538.139301 214.613789 538.365315 213.461810 538.591329 212.308148 538.817343 211.152873 539.043357 209.996055 539.269371 208.837765 539.495385 207.678071 539.721399 206.517044 539.947413 205.354754 540.173427 204.191271 540.399441 203.026665 540.625455 201.861007 540.851469 200.694365 541.077483 199.526810 541.303497 198.358412 541.529510 197.189241 541.755524 196.019367 541.981538 194.848860 542.207552 193.677790 542.433566 192.506227 542.659580 191.334240 542.885594 190.161901 543.111608 188.989279 543.337622 187.816443 543.563636 186.643464 543.789650 185.470412 544.015664 184.297358 544.241678 183.124370 544.467692 181.951518 544.693706 180.778874 544.919720 179.606506 545.145734 178.434486 545.371748 177.262882 545.597762 176.091765 545.823776 174.921205 546.049790 173.751271 546.275804 172.582035 546.501818 171.413565 546.727832 170.245932 546.953846 169.079206 547.179860 167.913457 547.405874 166.748754 547.631888 165.585168 547.857902 164.422769 548.083916 163.261626 548.309930 162.101811 548.535944 160.943392 548.761958 159.786439 548.987972 158.631024 549.213986 157.477215 549.440000 156.325083 549.666014 155.174698 549.892028 154.026129 550.118042 152.879447 550.344056 151.734721 550.570070 150.592023 550.796084 149.451421 551.022098 148.312985 551.248112 147.176786 551.474126 146.042894 551.700140 144.911379 551.926154 143.782310 552.152168 142.655757 552.378182 141.531792 552.604196 140.410483 552.830210 139.291900 553.056224 138.176114 553.282238 137.063195 553.508252 135.953212 553.734266 134.846236 553.960280 133.742336 554.186294 132.641583 554.412308 131.544046 554.638322 130.449796 554.864336 129.358903 555.090350 128.271436 555.316364 127.187465 555.542378 126.107061 555.768392 125.030293 555.994406 123.957232 556.220420 122.887948 556.446434 121.822510 556.672448 120.760988 556.898462 119.703453 557.124476 118.649974 557.350490 117.600622 557.576503 116.555466 557.802517 115.514576 558.028531 114.478023 558.254545 113.445877 558.480559 112.418206 558.706573 111.395083 558.932587 110.376575 559.158601 109.362754 559.384615 108.353689 559.610629 107.349451 559.836643 106.350109 560.062657 105.355733 560.288671 104.366394 560.514685 103.382161 560.740699 102.403105 560.966713 101.429294 561.192727 100.460800 561.418741 99.497693 561.644755 98.540041 561.870769 97.587916 562.096783 96.641388 562.322797 95.700525 562.548811 94.765399 562.774825 93.836079 563.000839 92.912635 563.226853 91.995138 563.452867 91.083656 563.678881 90.178261 563.904895 89.279023 564.130909 88.386010 564.356923 87.499294 564.582937 86.618944 564.808951 85.745030 565.034965 84.877622 565.260979 84.016790 565.486993 83.162605 565.713007 82.315136 565.939021 81.474453 566.165035 80.640626 566.391049 79.813725 566.617063 78.993820 566.843077 78.180982 567.069091 77.375279 567.295105 76.576783 567.521119 75.785563 567.747133 75.001689 567.973147 74.225231 568.199161 73.456259 568.425175 72.694843 568.651189 71.941054 568.877203 71.194960 569.103217 70.456632 569.329231 69.726141 569.555245 69.003555 569.781259 68.288946 570.007273 67.582382 570.233287 66.883935 570.459301 66.193673 570.685315 65.511668 570.911329 64.837989 571.137343 64.172705 571.363357 63.515888 571.589371 62.867606 571.815385 62.227931 572.041399 61.596931 572.267413 60.974678 572.493427 60.361240 572.719441 59.756688 572.945455 59.161092 573.171469 58.574523 573.397483 57.997049 573.623497 57.428741 573.849510 56.869668 574.075524 56.319902 574.301538 55.779512 574.527552 55.248567 574.753566 54.727139 574.979580 54.215296 575.205594 53.713109 575.431608 53.220648 575.657622 52.737983 575.883636 52.265184 576.109650 51.802320 576.335664 51.349462 576.561678 50.906681 576.787692 50.474044 577.013706 50.051624 577.239720 49.639490 577.465734 49.237711 577.691748 48.846339 577.917762 48.465352 578.143776 48.094707 578.369790 47.734362 578.595804 47.384277 578.821818 47.044409 579.047832 46.714716 579.273846 46.395157 579.499860 46.085690 579.725874 45.786274 579.951888 45.496867 580.177902 45.217426 580.403916 44.947911 580.629930 44.688280 580.855944 44.438490 581.081958 44.198501 581.307972 43.968270 581.533986 43.747756 581.760000 43.536917 581.986014 43.335712 582.212028 43.144098 582.438042 42.962035 582.664056 42.789479 582.890070 42.626390 583.116084 42.472727 583.342098 42.328446 583.568112 42.193507 583.794126 42.067867 584.020140 41.951486 584.246154 41.844321 584.472168 41.746331 584.698182 41.657474 584.924196 41.577708 585.150210 41.506991 585.376224 41.445283 585.602238 41.392540 585.828252 41.348723 586.054266 41.313787 586.280280 41.287693 586.506294 41.270399 586.732308 41.261862 586.958322 41.262040 587.184336 41.270894 587.410350 41.288379 587.636364 41.314456 587.862378 41.349081 588.088392 41.392214 588.314406 41.443813 588.540420 41.503836 588.766434 41.572241 588.992448 41.648987 589.218462 41.734032 589.444476 41.827334 589.670490 41.928851 589.896503 42.038542 590.122517 42.156365 590.348531 42.282279 590.574545 42.416242 590.800559 42.558211 591.026573 42.708146 591.252587 42.866004 591.478601 43.031744 591.704615 43.205325 591.930629 43.386704 592.156643 43.575839 592.382657 43.772690 592.608671 43.977214 592.834685 44.189370 593.060699 44.409115 593.286713 44.636409 593.512727 44.871210 593.738741 45.113475 593.964755 45.363164 594.190769 45.620234 594.416783 45.884644 594.642797 46.156351 594.868811 46.435315 595.094825 46.721494 595.320839 47.014846 595.546853 47.315329 595.772867 47.622901 595.998881 47.937522 596.224895 48.259148 596.450909 48.587739 596.676923 48.923252 596.902937 49.265647 597.128951 49.614881 597.354965 49.970912 597.580979 50.333699 597.806993 50.703201 598.033007 51.079375 598.259021 51.462180 598.485035 51.851574 598.711049 52.247515 598.937063 52.649962 599.163077 53.058873 599.389091 53.474206 599.615105 53.895920 599.841119 54.323973 600.067133 54.758323 600.293147 55.198928 600.519161 55.645747 600.745175 56.098738 600.971189 56.557860 601.197203 57.023070 601.423217 57.494327 601.649231 57.971590 601.875245 58.454816 602.101259 58.943963 602.327273 59.438991 602.553287 59.939857 602.779301 60.446521 603.005315 60.958939 603.231329 61.477070 603.457343 62.000873 603.683357 62.530306 603.909371 63.065327 604.135385 63.605895 604.361399 64.151967 604.587413 64.703503 604.813427 65.260460 605.039441 65.822797 605.265455 66.390471 605.491469 66.963442 605.717483 67.541668 605.943497 68.125106 606.169510 68.713716 606.395524 69.307455 606.621538 69.906282 606.847552 70.510155 607.073566 71.119032 607.299580 71.732872 607.525594 72.351633 607.751608 72.975274 607.977622 73.603752 608.203636 74.237025 608.429650 74.875053 608.655664 75.517793 608.881678 76.165204 609.107692 76.817244 609.333706 77.473872 609.559720 78.135045 609.785734 78.800722 610.011748 79.470861 610.237762 80.145421 610.463776 80.824359 610.689790 81.507635 610.915804 82.195206 611.141818 82.887031 611.367832 83.583068 611.593846 84.283275 611.819860 84.987611 612.045874 85.696034 612.271888 86.408501 612.497902 87.124973 612.723916 87.845406 612.949930 88.569759 613.175944 89.297991 613.401958 90.030059 613.627972 90.765922 613.853986 91.505539 614.080000 92.248867 614.306014 92.995865 614.532028 93.746491 614.758042 94.500704 614.984056 95.258462 615.210070 96.019722 615.436084 96.784444 615.662098 97.552585 615.888112 98.324105 616.114126 99.098961 616.340140 99.877111 616.566154 100.658514 616.792168 101.443128 617.018182 102.230912 617.244196 103.021823 617.470210 103.815821 617.696224 104.612863 617.922238 105.412907 618.148252 106.215912 618.374266 107.021837 618.600280 107.830639 618.826294 108.642277 619.052308 109.456709 619.278322 110.273893 619.504336 111.093788 619.730350 111.916352 619.956364 112.741543 620.182378 113.569320 620.408392 114.399641 620.634406 115.232464 620.860420 116.067748 621.086434 116.905450 621.312448 117.745529 621.538462 118.587944 621.764476 119.432653 621.990490 120.279613 622.216503 121.128784 622.442517 121.980123 622.668531 122.833589 622.894545 123.689140 623.120559 124.546735 623.346573 125.406331 623.572587 126.267888 623.798601 127.131362 624.024615 127.996714 624.250629 128.863900 624.476643 129.732880 624.702657 130.603611 624.928671 131.476052 625.154685 132.350161 625.380699 133.225897 625.606713 134.103217 625.832727 134.982080 626.058741 135.862445 626.284755 136.744269 626.510769 137.627511 626.736783 138.512129 626.962797 139.398082 627.188811 140.285327 627.414825 141.173824 627.640839 142.063530 627.866853 142.954404 628.092867 143.846404 628.318881 144.739488 628.544895 145.633614 628.770909 146.528742 628.996923 147.424828 629.222937 148.321832 629.448951 149.219712 629.674965 150.118426 629.900979 151.017933 630.126993 151.918189 630.353007 152.819155 630.579021 153.720789 630.805035 154.623047 631.031049 155.525890 631.257063 156.429274 631.483077 157.333160 631.709091 158.237503 631.935105 159.142264 632.161119 160.047400 632.387133 160.952870 632.613147 161.858632 632.839161 162.764644 633.065175 163.670864 633.291189 164.577252 633.517203 165.483764 633.743217 166.390360 633.969231 167.296998 633.969231 514.000000" /></g></g><g class="titles"><text class="title plot_title" x="400.0" y="26">Nana 50</text></g><g class="plot overlay" transform="translate(133, 46)"><g class="series serie-0 color-0"><g class="dots"><circle class="dot reactive tooltip-trigger" cx="12.43076923076923" cy="9.884615384615472" r="2.5" /><desc class="value">354000</desc><desc class="x ">12.43076923076923</desc><desc class="y ">9.884615384615472</desc><desc class="x_label">Jan</desc></g><g class="dots"><circle class="dot reactive tooltip-trigger" cx="68.93426573426574" cy="154.17929900762215" r="2.5" /><desc class="value">332000</desc><desc class="x ">68.93426573426574</desc><desc class="y ">154.17929900762215</desc><desc class="x_label">Feb</desc></g><g class="dots"><circle class="dot reactive tooltip-trigger" cx="125.43776223776223" cy="88.59080645171002" r="2.5" /><desc class="value">342000</desc><desc class="x ">125.43776223776223</desc><desc class="y ">88.59080645171002</desc><desc class="x_label">Mar</desc></g><g class="dots"><circle class="dot reactive tooltip-trigger" cx="181.94125874125874" cy="495.2394602983652" r="2.5" /><desc class="value">280000</desc><desc class="x top">181.94125874125874</desc><desc class="y top">495.2394602983652</desc><desc class="x_label">Apr</desc></g><g class="dots"><circle class="dot reactive tooltip-trigger" cx="238.44475524475524" cy="305.03283188622004" r="2.5" /><desc class="value">309000</desc><desc class="x top">238.44475524475524</desc><desc class="y top">305.03283188622004</desc><desc class="x_label">May</desc></g><g class="dots"><circle class="dot reactive tooltip-trigger" cx="294.9482517482517" cy="298.4739826306288" r="2.5" /><desc class="value">310000</desc><desc class="x top">294.9482517482517</desc><desc class="y top">298.4739826306288</desc><desc class="x_label">Jun</desc></g><g class="dots"><circle class="dot reactive tooltip-trigger" cx="351.4517482517482" cy="213.20894230794306" r="2.5" /><desc class="value">323000</desc><desc class="x left">351.4517482517482</desc><desc class="y left">213.20894230794306</desc><desc class="x_label">Jul</desc></g><g class="dots"><circle class="dot reactive tooltip-trigger" cx="407.95524475524473" cy="141.06160049643972" r="2.5" /><desc class="value">334000</desc><desc class="x left">407.95524475524473</desc><desc class="y left">141.06160049643972</desc><desc class="x_label">Aug</desc></g><g class="dots"><circle class="dot reactive tooltip-trigger" cx="464.45874125874127" cy="305.03283188622004" r="2.5" /><desc class="value">309000</desc><desc class="x left top">464.45874125874127</desc><desc class="y left top">305.03283188622004</desc><desc class="x_label">Sep</desc></g><g class="dots"><circle class="dot reactive tooltip-trigger" cx="520.9622377622377" cy="291.9151333750376" r="2.5" /><desc class="value">311000</desc><desc class="x left top">520.9622377622377</desc><desc class="y left top">291.9151333750376</desc><desc class="x_label">Oct</desc></g><g class="dots"><circle class="dot reactive tooltip-trigger" cx="577.4657342657342" cy="49.23771091816275" r="2.5" /><desc class="value">348000</desc><desc class="x left">577.4657342657342</desc><desc class="y left">49.23771091816275</desc><desc class="x_label">Nov</desc></g><g class="dots"><circle class="dot reactive tooltip-trigger" cx="633.9692307692308" cy="167.29699751880457" r="2.5" /><desc class="value">330000</desc><desc class="x left">633.9692307692308</desc><desc class="y left">167.29699751880457</desc><desc class="x_label">Dec</desc></g></g></g><g class="plot text-overlay" transform="translate(133, 46)"><g class="series serie-0 color-0" /></g><g class="plot tooltip-overlay" transform="translate(133, 46)"><g class="tooltip" style="opacity: 0" transform="translate(0 0)"><rect class="tooltip-box" height="0" rx="0" ry="0" width="0" /><g class="text" /></g></g><g class="legends" transform="translate(10, 56)"><g class="legend reactive activate-serie" id="activate-serie-0"><rect class="color-0 reactive" height="12" width="12" x="0.0" y="1.0" /><text x="17.0" y="11.2">Nana</text></g></g><g class="legends" transform="translate(790, 56)" /></g></svg>