<?xml version='1.0' encoding='utf-8'?>
<svg xmlns:xlink="http://www.w3.org/1999/xlink" class="pygal-chart" id="chart-b22c22f8-ed50-405c-8a11-6877b1d6022f" viewBox="0 0 800 600" xmlns="http://www.w3.org/2000/svg"><!--Generated with pygal 2.0.11 (etree) ©Kozea 2011-2015 on 2015-12-10--><!--http://pygal.org--><!--http://github.com/Kozea/pygal--><defs><style type="text/css">#chart-b22c22f8-ed50-405c-8a11-6877b1d6022f{-webkit-user-select:none;-webkit-font-smoothing:antialiased;font-family:Consolas,"Liberation Mono",Menlo,Courier,monospace}#chart-b22c22f8-ed50-405c-8a11-6877b1d6022f .title{font-family:Consolas,"Liberation Mono",Menlo,Courier,monospace;font-size:16px}#chart-b22c22f8-ed50-405c-8a11-6877b1d6022f .legends .legend text{font-family:Consolas,"Liberation Mono",Menlo,Courier,monospace;font-size:14px}#chart-b22c22f8-ed50-405c-8a11-6877b1d6022f .axis text{font-family:Consolas,"Liberation Mono",Menlo,Courier,monospace;font-size:10px}#chart-b22c22f8-ed50-405c-8a11-6877b1d6022f .axis text.major{font-family:Consolas,"Liberation Mono",Menlo,Courier,monospace;font-size:10px}#chart-b22c22f8-ed50-405c-8a11-6877b1d6022f .text-overlay text.value{font-family:Consolas,"Liberation Mono",Menlo,Courier,monospace;font-size:16px}#chart-b22c22f8-ed50-405c-8a11-6877b1d6022f .text-overlay text.label{font-family:Consolas,"Liberation Mono",Menlo,Courier,monospace;font-size:10px}#chart-b22c22f8-ed50-405c-8a11-6877b1d6022f .tooltip{font-family:Consolas,"Liberation Mono",Menlo,Courier,monospace;font-size:14px}#chart-b22c22f8-ed50-405c-8a11-6877b1d6022f text.no_data{font-family:Consolas,"Liberation Mono",Menlo,Courier,monospace;font-size:64px}
#chart-b22c22f8-ed50-405c-8a11-6877b1d6022f{background-color:black}#chart-b22c22f8-ed50-405c-8a11-6877b1d6022f path,#chart-b22c22f8-ed50-405c-8a11-6877b1d6022f line,#chart-b22c22f8-ed50-405c-8a11-6877b1d6022f rect,#chart-b22c22f8-ed50-405c-8a11-6877b1d6022f circle{-webkit-transition:250ms;-moz-transition:250ms;transition:250ms}#chart-b22c22f8-ed50-405c-8a11-6877b1d6022f .graph &gt; .background{fill:black}#chart-b22c22f8-ed50-405c-8a11-6877b1d6022f .plot &gt; .background{fill:#111}#chart-b22c22f8-ed50-405c-8a11-6877b1d6022f .graph{fill:#999}#chart-b22c22f8-ed50-405c-8a11-6877b1d6022f text.no_data{fill:#eee}#chart-b22c22f8-ed50-405c-8a11-6877b1d6022f .title{fill:#eee}#chart-b22c22f8-ed50-405c-8a11-6877b1d6022f .legends .legend text{fill:#999}#chart-b22c22f8-ed50-405c-8a11-6877b1d6022f .legends .legend:hover text{fill:#eee}#chart-b22c22f8-ed50-405c-8a11-6877b1d6022f .axis .line{stroke:#eee}#chart-b22c22f8-ed50-405c-8a11-6877b1d6022f .axis .guide.line{stroke:#555}#chart-b22c22f8-ed50-405c-8a11-6877b1d6022f .axis .major.line{stroke:#999}#chart-b22c22f8-ed50-405c-8a11-6877b1d6022f .axis text.major{fill:#eee}#chart-b22c22f8-ed50-405c-8a11-6877b1d6022f .axis.y .guides:hover .guide.line,#chart-b22c22f8-ed50-405c-8a11-6877b1d6022f .line-graph .axis.x .guides:hover .guide.line,#chart-b22c22f8-ed50-405c-8a11-6877b1d6022f .stackedline-graph .axis.x .guides:hover .guide.line,#chart-b22c22f8-ed50-405c-8a11-6877b1d6022f .xy-graph .axis.x .guides:hover .guide.line{stroke:#eee}#chart-b22c22f8-ed50-405c-8a11-6877b1d6022f .axis .guides:hover text{fill:#eee}#chart-b22c22f8-ed50-405c-8a11-6877b1d6022f .reactive{fill-opacity:.8}#chart-b22c22f8-ed50-405c-8a11-6877b1d6022f .reactive.active,#chart-b22c22f8-ed50-405c-8a11-6877b1d6022f .active .reactive{fill-opacity:.4;stroke-width:4}#chart-b22c22f8-ed50-405c-8a11-6877b1d6022f .series text{fill:#eee}#chart-b22c22f8-ed50-405c-8a11-6877b1d6022f .tooltip rect{fill:#111;stroke:#eee;-webkit-transition:opacity 250ms;-moz-transition:opacity 250ms;transition:opacity 250ms}#chart-b22c22f8-ed50-405c-8a11-6877b1d6022f .tooltip .label{fill:#999}#chart-b22c22f8-ed50-405c-8a11-6877b1d6022f .tooltip .label{fill:#999}#chart-b22c22f8-ed50-405c-8a11-6877b1d6022f .tooltip .legend{font-size:.8em;fill:#555}#chart-b22c22f8-ed50-405c-8a11-6877b1d6022f .tooltip .x_label{font-size:.6em;fill:#eee}#chart-b22c22f8-ed50-405c-8a11-6877b1d6022f .tooltip .xlink{font-size:.5em;text-decoration:underline}#chart-b22c22f8-ed50-405c-8a11-6877b1d6022f .tooltip .value{font-size:1.5em}#chart-b22c22f8-ed50-405c-8a11-6877b1d6022f .map-element{fill:#111;stroke:#555 !important}#chart-b22c22f8-ed50-405c-8a11-6877b1d6022f .map-element .reactive{fill-opacity:inherit}#chart-b22c22f8-ed50-405c-8a11-6877b1d6022f .color-0,#chart-b22c22f8-ed50-405c-8a11-6877b1d6022f .color-0 a:visited{stroke:#ff5995;fill:#ff5995}#chart-b22c22f8-ed50-405c-8a11-6877b1d6022f .text-overlay .color-0 text{fill:black}
#chart-b22c22f8-ed50-405c-8a11-6877b1d6022f text.no_data{text-anchor:middle}#chart-b22c22f8-ed50-405c-8a11-6877b1d6022f .guide.line{fill:none}#chart-b22c22f8-ed50-405c-8a11-6877b1d6022f .centered{text-anchor:middle}#chart-b22c22f8-ed50-405c-8a11-6877b1d6022f .title{text-anchor:middle}#chart-b22c22f8-ed50-405c-8a11-6877b1d6022f .legends .legend text{fill-opacity:1}#chart-b22c22f8-ed50-405c-8a11-6877b1d6022f .axis.x text{text-anchor:middle}#chart-b22c22f8-ed50-405c-8a11-6877b1d6022f .axis.x:not(.web) text[transform]{text-anchor:start}#chart-b22c22f8-ed50-405c-8a11-6877b1d6022f .axis.x:not(.web) text[transform].backwards{text-anchor:end}#chart-b22c22f8-ed50-405c-8a11-6877b1d6022f .axis.y text{text-anchor:end}#chart-b22c22f8-ed50-405c-8a11-6877b1d6022f .axis.y text[transform].backwards{text-anchor:start}#chart-b22c22f8-ed50-405c-8a11-6877b1d6022f .axis.y2 text{text-anchor:start}#chart-b22c22f8-ed50-405c-8a11-6877b1d6022f .axis.y2 text[transform].backwards{text-anchor:end}#chart-b22c22f8-ed50-405c-8a11-6877b1d6022f .axis .guide.line{stroke-dasharray:4,4}#chart-b22c22f8-ed50-405c-8a11-6877b1d6022f .axis .major.guide.line{stroke-dasharray:6,6}#chart-b22c22f8-ed50-405c-8a11-6877b1d6022f .horizontal .axis.y .guide.line,#chart-b22c22f8-ed50-405c-8a11-6877b1d6022f .horizontal .axis.y2 .guide.line,#chart-b22c22f8-ed50-405c-8a11-6877b1d6022f .vertical .axis.x .guide.line{opacity:0}#chart-b22c22f8-ed50-405c-8a11-6877b1d6022f .horizontal .axis.always_show .guide.line,#chart-b22c22f8-ed50-405c-8a11-6877b1d6022f .vertical .axis.always_show .guide.line{opacity:1 !important}#chart-b22c22f8-ed50-405c-8a11-6877b1d6022f .axis.y .guides:hover .guide.line,#chart-b22c22f8-ed50-405c-8a11-6877b1d6022f .axis.y2 .guides:hover .guide.line,#chart-b22c22f8-ed50-405c-8a11-6877b1d6022f .axis.x .guides:hover .guide.line{opacity:1}#chart-b22c22f8-ed50-405c-8a11-6877b1d6022f .axis .guides:hover text{opacity:1}#chart-b22c22f8-ed50-405c-8a11-6877b1d6022f .nofill{fill:none}#chart-b22c22f8-ed50-405c-8a11-6877b1d6022f .subtle-fill{fill-opacity:.2}#chart-b22c22f8-ed50-405c-8a11-6877b1d6022f .dot{stroke-width:1px;fill-opacity:1}#chart-b22c22f8-ed50-405c-8a11-6877b1d6022f .dot.active{stroke-width:5px}#chart-b22c22f8-ed50-405c-8a11-6877b1d6022f .dot.negative{fill:transparent}#chart-b22c22f8-ed50-405c-8a11-6877b1d6022f text,#chart-b22c22f8-ed50-405c-8a11-6877b1d6022f tspan{stroke:none !important}#chart-b22c22f8-ed50-405c-8a11-6877b1d6022f .series text.active{opacity:1}#chart-b22c22f8-ed50-405c-8a11-6877b1d6022f .tooltip rect{fill-opacity:.95;stroke-width:.5}#chart-b22c22f8-ed50-405c-8a11-6877b1d6022f .tooltip text{fill-opacity:1}#chart-b22c22f8-ed50-405c-8a11-6877b1d6022f .showable{visibility:hidden}#chart-b22c22f8-ed50-405c-8a11-6877b1d6022f .showable.shown{visibility:visible}</style><script type="text/javascript">window.pygal = window.pygal || {};window.pygal.config = window.pygal.config || {};window.pygal.config['b22c22f8-ed50-405c-8a11-6877b1d6022f'] = {"css": ["file://style.css", "file://graph.css"], "legend_at_bottom": false, "stroke_style": null, "missing_value_fill_truncation": "x", "tooltip_border_radius": 0, "inner_radius": 0, "min_scale": 4, "show_x_guides": false, "y_label_rotation": 0, "show_only_major_dots": false, "interpolation_precision": 250, "margin_right": null, "x_label_rotation": 0, "dynamic_print_values": false, "margin_top": null, "x_labels_major_count": null, "js": ["//kozea.github.io/pygal.js/2.0.x/pygal-tooltips.min.js"], "interpolation_parameters": {}, "no_prefix": false, "title": "On-Nut 50", "x_labels": ["Jan", "Feb", "Mar", "Apr", "May", "Jun", "Jul", "Aug", "Sep", "Oct", "Nov", "Dec"], "width": 800, "range": null, "show_y_guides": true, "truncate_legend": null, "force_uri_protocol": null, "x_title": null, "interpolate": "cubic", "fill": true, "print_zeroes": true, "margin_left": null, "legend_box_size": 12, "show_minor_y_labels": true, "logarithmic": false, "legend_at_bottom_columns": null, "value_formatter": null, "stroke": true, "margin_bottom": null, "pretty_print": false, "show_minor_x_labels": true, "y_labels_major_count": null, "disable_xml_declaration": false, "y_labels_major_every": null, "truncate_label": null, "stack_from_top": false, "defs": [], "human_readable": false, "include_x_axis": false, "show_legend": true, "tooltip_fancy_mode": true, "y_title": null, "style": {"tooltip_font_size": 14, "major_label_font_family": "Consolas, \"Liberation Mono\", Menlo, Courier, monospace", "value_font_family": "Consolas, \"Liberation Mono\", Menlo, Courier, monospace", "foreground": "#999", "tooltip_font_family": "Consolas, \"Liberation Mono\", Menlo, Courier, monospace", "opacity": ".8", "font_family": "Consolas, \"Liberation Mono\", Menlo, Courier, monospace", "foreground_subtle": "#555", "colors": ["#ff5995", "#b6e354", "#feed6c", "#8cedff", "#9e6ffe", "#899ca1", "#f8f8f2", "#bf4646", "#516083", "#f92672", "#82b414", "#fd971f", "#56c2d6", "#808384", "#8c54fe", "#465457"], "foreground_strong": "#eee", "no_data_font_size": 64, "opacity_hover": ".4", "plot_background": "#111", "value_font_size": 16, "legend_font_family": "Consolas, \"Liberation Mono\", Menlo, Courier, monospace", "value_label_font_size": 10, "major_guide_stroke_dasharray": "6,6", "legend_font_size": 14, "label_font_family": "Consolas, \"Liberation Mono\", Menlo, Courier, monospace", "label_font_size": 10, "transition": "250ms", "title_font_size": 16, "value_label_font_family": "Consolas, \"Liberation Mono\", Menlo, Courier, monospace", "background": "black", "title_font_family": "Consolas, \"Liberation Mono\", Menlo, Courier, monospace", "value_colors": [], "no_data_font_family": "Consolas, \"Liberation Mono\", Menlo, Courier, monospace", "guide_stroke_dasharray": "4,4", "major_label_font_size": 10}, "strict": false, "xrange": null, "rounded_bars": null, "x_labels_major": null, "dots_size": 2.5, "show_dots": true, "order_min": null, "no_data_text": "No data", "y_labels": null, "print_labels": false, "spacing": 10, "y_labels_major": null, "print_values": false, "legends": ["On-Nut"], "zero": 0, "height": 600, "margin": 20, "box_mode": "extremes", "show_y_labels": true, "inverse_y_axis": false, "max_scale": 16, "show_x_labels": true, "explicit_size": false, "x_value_formatter": null, "secondary_range": null, "x_labels_major_every": null, "half_pie": false}</script><script type="text/javascript" xlink:href="//kozea.github.io/pygal.js/2.0.x/pygal-tooltips.min.js" /></defs><title>On-Nut 50</title><g class="graph line-graph vertical"><rect class="background" height="600" width="800" x="0" y="0" /><g class="plot" transform="translate(156, 46)"><rect class="background" height="514" width="623.6" x="0" y="0" /><g class="axis y"><path class="line" d="M0.000000 514.000000 h623.600000" /><g class="guides"><path class="guide line" d="M0.000000 501.285915 h623.600000" /><text class="" x="-5" y="504.78591521579955">920000.0</text><title>920000.0</title></g><g class="guides"><path class="guide line" d="M0.000000 441.898358 h623.600000" /><text class="" x="-5" y="445.39835753046736">940000.0</text><title>940000.0</title></g><g class="guides"><path class="guide line" d="M0.000000 382.510800 h623.600000" /><text class="" x="-5" y="386.01079984513524">960000.0</text><title>960000.0</title></g><g class="guides"><path class="guide line" d="M0.000000 323.123242 h623.600000" /><text class="" x="-5" y="326.6232421598031">980000.0</text><title>980000.0</title></g><g class="guides"><path class="major guide line" d="M0.000000 263.735684 h623.600000" /><text class="major" x="-5" y="267.23568447447093">1000000.0</text><title>1000000.0</title></g><g class="guides"><path class="guide line" d="M0.000000 204.348127 h623.600000" /><text class="" x="-5" y="207.8481267891388">1020000.0</text><title>1020000.0</title></g><g class="guides"><path class="guide line" d="M0.000000 144.960569 h623.600000" /><text class="" x="-5" y="148.46056910380662">1040000.0</text><title>1040000.0</title></g><g class="guides"><path class="guide line" d="M0.000000 85.573011 h623.600000" /><text class="" x="-5" y="89.0730114184745">1060000.0</text><title>1060000.0</title></g><g class="guides"><path class="guide line" d="M0.000000 26.185454 h623.600000" /><text class="" x="-5" y="29.68545373314231">1080000.0</text><title>1080000.0</title></g></g><g class="axis x"><g class="guides"><path class="line" d="M11.992308 0.000000 v514.000000" /><text class="" x="11.992307692307692" y="529.0">Jan</text></g><g class="guides"><path class="guide line" d="M66.502797 0.000000 v514.000000" /><text class="" x="66.50279720279721" y="529.0">Feb</text></g><g class="guides"><path class="guide line" d="M121.013287 0.000000 v514.000000" /><text class="" x="121.01328671328672" y="529.0">Mar</text></g><g class="guides"><path class="guide line" d="M175.523776 0.000000 v514.000000" /><text class="" x="175.52377622377622" y="529.0">Apr</text></g><g class="guides"><path class="guide line" d="M230.034266 0.000000 v514.000000" /><text class="" x="230.03426573426574" y="529.0">May</text></g><g class="guides"><path class="guide line" d="M284.544755 0.000000 v514.000000" /><text class="" x="284.54475524475527" y="529.0">Jun</text></g><g class="guides"><path class="guide line" d="M339.055245 0.000000 v514.000000" /><text class="" x="339.05524475524476" y="529.0">Jul</text></g><g class="guides"><path class="guide line" d="M393.565734 0.000000 v514.000000" /><text class="" x="393.56573426573425" y="529.0">Aug</text></g><g class="guides"><path class="guide line" d="M448.076224 0.000000 v514.000000" /><text class="" x="448.0762237762238" y="529.0">Sep</text></g><g class="guides"><path class="guide line" d="M502.586713 0.000000 v514.000000" /><text class="" x="502.5867132867133" y="529.0">Oct</text></g><g class="guides"><path class="guide line" d="M557.097203 0.000000 v514.000000" /><text class="" x="557.0972027972028" y="529.0">Nov</text></g><g class="guides"><path class="guide line" d="M611.607692 0.000000 v514.000000" /><text class="" x="611.6076923076923" y="529.0">Dec</text></g></g><g class="series serie-0 color-0"><path class="line reactive" d="M11.992308 514.000000 L11.992308 180.593104 12.210350 181.968374 12.428392 183.343569 12.646434 184.718615 12.864476 186.093435 13.082517 187.467955 13.300559 188.842100 13.518601 190.215795 13.736643 191.588965 13.954685 192.961535 14.172727 194.333429 14.390769 195.704574 14.608811 197.074893 14.826853 198.444312 15.044895 199.812756 15.262937 201.180150 15.480979 202.546418 15.699021 203.911486 15.917063 205.275279 16.135105 206.637722 16.353147 207.998739 16.571189 209.358257 16.789231 210.716198 17.007273 212.072490 17.225315 213.427056 17.443357 214.779822 17.661399 216.130712 17.879441 217.479652 18.097483 218.826567 18.315524 220.171381 18.533566 221.514020 18.751608 222.854408 18.969650 224.192471 19.187692 225.528133 19.405734 226.861320 19.623776 228.191956 19.841818 229.519967 20.059860 230.845277 20.277902 232.167812 20.495944 233.487496 20.713986 234.804254 20.932028 236.118012 21.150070 237.428695 21.368112 238.736226 21.586154 240.040532 21.804196 241.341538 22.022238 242.639167 22.240280 243.933346 22.458322 245.224000 22.676364 246.511052 22.894406 247.794429 23.112448 249.074055 23.330490 250.349855 23.548531 251.621755 23.766573 252.889678 23.984615 254.153551 24.202657 255.413298 24.420699 256.668845 24.638741 257.920115 24.856783 259.167034 25.074825 260.409528 25.292867 261.647521 25.510909 262.880937 25.728951 264.109703 25.946993 265.333743 26.165035 266.552982 26.383077 267.767345 26.601119 268.976757 26.819161 270.181143 27.037203 271.380428 27.255245 272.574536 27.473287 273.763394 27.691329 274.946926 27.909371 276.125056 28.127413 277.297711 28.345455 278.464814 28.563497 279.626292 28.781538 280.782068 28.999580 281.932068 29.217622 283.076217 29.435664 284.214439 29.653706 285.346661 29.871748 286.472806 30.089790 287.592800 30.307832 288.706567 30.525874 289.814034 30.743916 290.915124 30.961958 292.009763 31.180000 293.097875 31.398042 294.179386 31.616084 295.254221 31.834126 296.322305 32.052168 297.383562 32.270210 298.437918 32.488252 299.485297 32.706294 300.525625 32.924336 301.558826 33.142378 302.584826 33.360420 303.603550 33.578462 304.614922 33.796503 305.618867 34.014545 306.615312 34.232587 307.604179 34.450629 308.585395 34.668671 309.558885 34.886713 310.524572 35.104755 311.482384 35.322797 312.432243 35.540839 313.374077 35.758881 314.307808 35.976923 315.233363 36.194965 316.150666 36.413007 317.059642 36.631049 317.960217 36.849091 318.852315 37.067133 319.735862 37.285175 320.610781 37.503217 321.476999 37.721259 322.334440 37.939301 323.183030 38.157343 324.022692 38.375385 324.853353 38.593427 325.674937 38.811469 326.487369 39.029510 327.290574 39.247552 328.084477 39.465594 328.869004 39.683636 329.644078 39.901678 330.409626 40.119720 331.165572 40.337762 331.911840 40.555804 332.648357 40.773846 333.375047 40.991888 334.091835 41.209930 334.798645 41.427972 335.495404 41.646014 336.182036 41.864056 336.858466 42.082098 337.524618 42.300140 338.180419 42.518182 338.825792 42.736224 339.460664 42.954266 340.084958 43.172308 340.698600 43.390350 341.301515 43.608392 341.893627 43.826434 342.474863 44.044476 343.045146 44.262517 343.604402 44.480559 344.152556 44.698601 344.689533 44.916643 345.215257 45.134685 345.729654 45.352727 346.232649 45.570769 346.724167 45.788811 347.204132 46.006853 347.672470 46.224895 348.129105 46.442937 348.573963 46.660979 349.006969 46.879021 349.428047 47.097063 349.837123 47.315105 350.234122 47.533147 350.618968 47.751189 350.991586 47.969231 351.351902 48.187273 351.699841 48.405315 352.035327 48.623357 352.358285 48.841399 352.668642 49.059441 352.966320 49.277483 353.251246 49.495524 353.523344 49.713566 353.782540 49.931608 354.028758 50.149650 354.261924 50.367692 354.481961 50.585734 354.688797 50.803776 354.882354 51.021818 355.062559 51.239860 355.229336 51.457902 355.382611 51.675944 355.522307 51.893986 355.648351 52.112028 355.760667 52.330070 355.859181 52.548112 355.943817 52.766154 356.014499 52.984196 356.071154 53.202238 356.113706 53.420280 356.142081 53.638322 356.156202 53.856364 356.155996 54.074406 356.141386 54.292448 356.112299 54.510490 356.068659 54.728531 356.010391 54.946573 355.937420 55.164615 355.849671 55.382657 355.747069 55.600699 355.629539 55.818741 355.497006 56.036783 355.349394 56.254825 355.186630 56.472867 355.008638 56.690909 354.815343 56.908951 354.606669 57.126993 354.382543 57.345035 354.142888 57.563077 353.887630 57.781119 353.616695 57.999161 353.330005 58.217203 353.027488 58.435245 352.709068 58.653287 352.374669 58.871329 352.024217 59.089371 351.657637 59.307413 351.274854 59.525455 350.875792 59.743497 350.460377 59.961538 350.028534 60.179580 349.580187 60.397622 349.115262 60.615664 348.633684 60.833706 348.135377 61.051748 347.620267 61.269790 347.088279 61.487832 346.539337 61.705874 345.973366 61.923916 345.390293 62.141958 344.790040 62.360000 344.172535 62.578042 343.537701 62.796084 342.885463 63.014126 342.215747 63.232168 341.528477 63.450210 340.823579 63.668252 340.100977 63.886294 339.360597 64.104336 338.602363 64.322378 337.826200 64.540420 337.032034 64.758462 336.219789 64.976503 335.389391 65.194545 334.540764 65.412587 333.673833 65.630629 332.788523 65.848671 331.884760 66.066713 330.962468 66.284755 330.021572 66.502797 329.061998 66.720839 328.083715 66.938881 327.086876 67.156923 326.071677 67.374965 325.038316 67.593007 323.986990 67.811049 322.917896 68.029091 321.831232 68.247133 320.727194 68.465175 319.605980 68.683217 318.467787 68.901259 317.312812 69.119301 316.141253 69.337343 314.953306 69.555385 313.749169 69.773427 312.529039 69.991469 311.293114 70.209510 310.041589 70.427552 308.774664 70.645594 307.492534 70.863636 306.195397 71.081678 304.883450 71.299720 303.556890 71.517762 302.215916 71.735804 300.860723 71.953846 299.491509 72.171888 298.108471 72.389930 296.711806 72.607972 295.301712 72.826014 293.878386 73.044056 292.442025 73.262098 290.992826 73.480140 289.530986 73.698182 288.056703 73.916224 286.570173 74.134266 285.071595 74.352308 283.561165 74.570350 282.039080 74.788392 280.505537 75.006434 278.960735 75.224476 277.404869 75.442517 275.838137 75.660559 274.260737 75.878601 272.672866 76.096643 271.074720 76.314685 269.466497 76.532727 267.848394 76.750769 266.220608 76.968811 264.583337 77.186853 262.936778 77.404895 261.281127 77.622937 259.616583 77.840979 257.943342 78.059021 256.261602 78.277063 254.571559 78.495105 252.873411 78.713147 251.167355 78.931189 249.453589 79.149231 247.732309 79.367273 246.003713 79.585315 244.267998 79.803357 242.525360 80.021399 240.775999 80.239441 239.020109 80.457483 237.257889 80.675524 235.489537 80.893566 233.715248 81.111608 231.935220 81.329650 230.149651 81.547692 228.358738 81.765734 226.562678 81.983776 224.761667 82.201818 222.955904 82.419860 221.145586 82.637902 219.330909 82.855944 217.512071 83.073986 215.689269 83.292028 213.862700 83.510070 212.032562 83.728112 210.199051 83.946154 208.362365 84.164196 206.522702 84.382238 204.680257 84.600280 202.835229 84.818322 200.987815 85.036364 199.138211 85.254406 197.286616 85.472448 195.433226 85.690490 193.578238 85.908531 191.721850 86.126573 189.864259 86.344615 188.005661 86.562657 186.146255 86.780699 184.286238 86.998741 182.425806 87.216783 180.565157 87.434825 178.704487 87.652867 176.843996 87.870909 174.983878 88.088951 173.124332 88.306993 171.265555 88.525035 169.407744 88.743077 167.551096 88.961119 165.695809 89.179161 163.842079 89.397203 161.990104 89.615245 160.140081 89.833287 158.292207 90.051329 156.446680 90.269371 154.603696 90.487413 152.763453 90.705455 150.926148 90.923497 149.091978 91.141538 147.261141 91.359580 145.433833 91.577622 143.610252 91.795664 141.790594 92.013706 139.975058 92.231748 138.163841 92.449790 136.357139 92.667832 134.555150 92.885874 132.758070 93.103916 130.966098 93.321958 129.179431 93.540000 127.398264 93.758042 125.622797 93.976084 123.853226 94.194126 122.089747 94.412168 120.332559 94.630210 118.581859 94.848252 116.837843 95.066294 115.100710 95.284336 113.370655 95.502378 111.647877 95.720420 109.932572 95.938462 108.224938 96.156503 106.525172 96.374545 104.833471 96.592587 103.150033 96.810629 101.475054 97.028671 99.808732 97.246713 98.151263 97.464755 96.502846 97.682797 94.863677 97.900839 93.233954 98.118881 91.613873 98.336923 90.003633 98.554965 88.403429 98.773007 86.813460 98.991049 85.233922 99.209091 83.665013 99.427133 82.106929 99.645175 80.559869 99.863217 79.024030 100.081259 77.499607 100.299301 75.986800 100.517343 74.485804 100.735385 72.996817 100.953427 71.520037 101.171469 70.055660 101.389510 68.603884 101.607552 67.164906 101.825594 65.738923 102.043636 64.326132 102.261678 62.926730 102.479720 61.540916 102.697762 60.168885 102.915804 58.810835 103.133846 57.466963 103.351888 56.137467 103.569930 54.822544 103.787972 53.522390 104.006014 52.237204 104.224056 50.967182 104.442098 49.712521 104.660140 48.473419 104.878182 47.250072 105.096224 46.042679 105.314266 44.851436 105.532308 43.676541 105.750350 42.518190 105.968392 41.376581 106.186434 40.251911 106.404476 39.144377 106.622517 38.054176 106.840559 36.981507 107.058601 35.926565 107.276643 34.889548 107.494685 33.870653 107.712727 32.870078 107.930769 31.888020 108.148811 30.924675 108.366853 29.980241 108.584895 29.054915 108.802937 28.148895 109.020979 27.262378 109.239021 26.395560 109.457063 25.548639 109.675105 24.721813 109.893147 23.915278 110.111189 23.129231 110.329231 22.363871 110.547273 21.619393 110.765315 20.895995 110.983357 20.193875 111.201399 19.513230 111.419441 18.854256 111.637483 18.217151 111.855524 17.602113 112.073566 17.009337 112.291608 16.439023 112.509650 15.891366 112.727692 15.366564 112.945734 14.864814 113.163776 14.386314 113.381818 13.931260 113.599860 13.499850 113.817902 13.092281 114.035944 12.708750 114.253986 12.349455 114.472028 12.014592 114.690070 11.704358 114.908112 11.418952 115.126154 11.158570 115.344196 10.923409 115.562238 10.713667 115.780280 10.529540 115.998322 10.371227 116.216364 10.238924 116.434406 10.132827 116.652448 10.053136 116.870490 10.000046 117.088531 9.973755 117.306573 9.974461 117.524615 10.002359 117.742657 10.057648 117.960699 10.140525 118.178741 10.251187 118.396783 10.389831 118.614825 10.556654 118.832867 10.751854 119.050909 10.975627 119.268951 11.228171 119.486993 11.509684 119.705035 11.820361 119.923077 12.160402 120.141119 12.530002 120.359161 12.929358 120.577203 13.358669 120.795245 13.818131 121.013287 14.307942 121.231329 14.828227 121.449371 15.378825 121.667413 15.959503 121.885455 16.570029 122.103497 17.210171 122.321538 17.879695 122.539580 18.578370 122.757622 19.305962 122.975664 20.062239 123.193706 20.846968 123.411748 21.659917 123.629790 22.500853 123.847832 23.369543 124.065874 24.265756 124.283916 25.189258 124.501958 26.139817 124.720000 27.117200 124.938042 28.121174 125.156084 29.151508 125.374126 30.207968 125.592168 31.290321 125.810210 32.398336 126.028252 33.531780 126.246294 34.690419 126.464336 35.874022 126.682378 37.082356 126.900420 38.315188 127.118462 39.572286 127.336503 40.853416 127.554545 42.158347 127.772587 43.486846 127.990629 44.838681 128.208671 46.213618 128.426713 47.611425 128.644755 49.031869 128.862797 50.474718 129.080839 51.939740 129.298881 53.426701 129.516923 54.935370 129.734965 56.465512 129.953007 58.016897 130.171049 59.589291 130.389091 61.182462 130.607133 62.796177 130.825175 64.430204 131.043217 66.084309 131.261259 67.758261 131.479301 69.451826 131.697343 71.164773 131.915385 72.896868 132.133427 74.647879 132.351469 76.417574 132.569510 78.205719 132.787552 80.012083 133.005594 81.836432 133.223636 83.678534 133.441678 85.538156 133.659720 87.415067 133.877762 89.309032 134.095804 91.219820 134.313846 93.147198 134.531888 95.090934 134.749930 97.050794 134.967972 99.026547 135.186014 101.017959 135.404056 103.024798 135.622098 105.046832 135.840140 107.083827 136.058182 109.135552 136.276224 111.201774 136.494266 113.282259 136.712308 115.376776 136.930350 117.485092 137.148392 119.606974 137.366434 121.742190 137.584476 123.890507 137.802517 126.051692 138.020559 128.225514 138.238601 130.411739 138.456643 132.610134 138.674685 134.820468 138.892727 137.042507 139.110769 139.276019 139.328811 141.520771 139.546853 143.776531 139.764895 146.043066 139.982937 148.320144 140.200979 150.607532 140.419021 152.904997 140.637063 155.212307 140.855105 157.529229 141.073147 159.855531 141.291189 162.190979 141.509231 164.535342 141.727273 166.888387 141.945315 169.249881 142.163357 171.619592 142.381399 173.997287 142.599441 176.382733 142.817483 178.775698 143.035524 181.175949 143.253566 183.583254 143.471608 185.997379 143.689650 188.418094 143.907692 190.845164 144.125734 193.278357 144.343776 195.717441 144.561818 198.162184 144.779860 200.612351 144.997902 203.067712 145.215944 205.528033 145.433986 207.993081 145.652028 210.462625 145.870070 212.936431 146.088112 215.414267 146.306154 217.895900 146.524196 220.381098 146.742238 222.869628 146.960280 225.361258 147.178322 227.855755 147.396364 230.352886 147.614406 232.852418 147.832448 235.354120 148.050490 237.857759 148.268531 240.363101 148.486573 242.869915 148.704615 245.377967 148.922657 247.887026 149.140699 250.396858 149.358741 252.907232 149.576783 255.417913 149.794825 257.928671 150.012867 260.439272 150.230909 262.949483 150.448951 265.459072 150.666993 267.967807 150.885035 270.475455 151.103077 272.981782 151.321119 275.486558 151.539161 277.989548 151.757203 280.490521 151.975245 282.989244 152.193287 285.485484 152.411329 287.979009 152.629371 290.469586 152.847413 292.956982 153.065455 295.440965 153.283497 297.921303 153.501538 300.397762 153.719580 302.870110 153.937622 305.338115 154.155664 307.801544 154.373706 310.260164 154.591748 312.713742 154.809790 315.162047 155.027832 317.604846 155.245874 320.041905 155.463916 322.472993 155.681958 324.897876 155.900000 327.316323 156.118042 329.728100 156.336084 332.132975 156.554126 334.530715 156.772168 336.921088 156.990210 339.303862 157.208252 341.678803 157.426294 344.045679 157.644336 346.404257 157.862378 348.754305 158.080420 351.095591 158.298462 353.427881 158.516503 355.750943 158.734545 358.064544 158.952587 360.368453 159.170629 362.662435 159.388671 364.946259 159.606713 367.219692 159.824755 369.482502 160.042797 371.734456 160.260839 373.975320 160.478881 376.204864 160.696923 378.422853 160.914965 380.629056 161.133007 382.823240 161.351049 385.005172 161.569091 387.174620 161.787133 389.331351 162.005175 391.475133 162.223217 393.605732 162.441259 395.722917 162.659301 397.826454 162.877343 399.916112 163.095385 401.991657 163.313427 404.052857 163.531469 406.099479 163.749510 408.131292 163.967552 410.148061 164.185594 412.149555 164.403636 414.135540 164.621678 416.105786 164.839720 418.060058 165.057762 419.998124 165.275804 421.919751 165.493846 423.824708 165.711888 425.712761 165.929930 427.583678 166.147972 429.437226 166.366014 431.273173 166.584056 433.091286 166.802098 434.891332 167.020140 436.673079 167.238182 438.436294 167.456224 440.180745 167.674266 441.906199 167.892308 443.612424 168.110350 445.299186 168.328392 446.966253 168.546434 448.613394 168.764476 450.240374 168.982517 451.846962 169.200559 453.432924 169.418601 454.998029 169.636643 456.542044 169.854685 458.064736 170.072727 459.565872 170.290769 461.045220 170.508811 462.502547 170.726853 463.937622 170.944895 465.350210 171.162937 466.740080 171.380979 468.106999 171.599021 469.450734 171.817063 470.771053 172.035105 472.067723 172.253147 473.340511 172.471189 474.589186 172.689231 475.813514 172.907273 477.013263 173.125315 478.188200 173.343357 479.338092 173.561399 480.462708 173.779441 481.561813 173.997483 482.635177 174.215524 483.682566 174.433566 484.703748 174.651608 485.698489 174.869650 486.666558 175.087692 487.607722 175.305734 488.521748 175.523776 489.408404 175.741818 490.267520 175.959860 491.099182 176.177902 491.903538 176.395944 492.680738 176.613986 493.430929 176.832028 494.154261 177.050070 494.850883 177.268112 495.520942 177.486154 496.164587 177.704196 496.781968 177.922238 497.373233 178.140280 497.938531 178.358322 498.478009 178.576364 498.991818 178.794406 499.480106 179.012448 499.943021 179.230490 500.380713 179.448531 500.793329 179.666573 501.181018 179.884615 501.543930 180.102657 501.882213 180.320699 502.196015 180.538741 502.485486 180.756783 502.750774 180.974825 502.992027 181.192867 503.209395 181.410909 503.403025 181.628951 503.573068 181.846993 503.719671 182.065035 503.842983 182.283077 503.943153 182.501119 504.020329 182.719161 504.074661 182.937203 504.106296 183.155245 504.115385 183.373287 504.102074 183.591329 504.066514 183.809371 504.008852 184.027413 503.929237 184.245455 503.827819 184.463497 503.704745 184.681538 503.560165 184.899580 503.394227 185.117622 503.207080 185.335664 502.998872 185.553706 502.769753 185.771748 502.519870 185.989790 502.249373 186.207832 501.958410 186.425874 501.647131 186.643916 501.315683 186.861958 500.964215 187.080000 500.592877 187.298042 500.201816 187.516084 499.791182 187.734126 499.361123 187.952168 498.911788 188.170210 498.443325 188.388252 497.955883 188.606294 497.449612 188.824336 496.924659 189.042378 496.381173 189.260420 495.819304 189.478462 495.239199 189.696503 494.641007 189.914545 494.024878 190.132587 493.390959 190.350629 492.739400 190.568671 492.070349 190.786713 491.383955 191.004755 490.680366 191.222797 489.959731 191.440839 489.222200 191.658881 488.467920 191.876923 487.697041 192.094965 486.909710 192.313007 486.106077 192.531049 485.286291 192.749091 484.450499 192.967133 483.598852 193.185175 482.731497 193.403217 481.848583 193.621259 480.950259 193.839301 480.036673 194.057343 479.107975 194.275385 478.164313 194.493427 477.205835 194.711469 476.232690 194.929510 475.245028 195.147552 474.242996 195.365594 473.226744 195.583636 472.196420 195.801678 471.152173 196.019720 470.094151 196.237762 469.022503 196.455804 467.937378 196.673846 466.838925 196.891888 465.727292 197.109930 464.602628 197.327972 463.465081 197.546014 462.314801 197.764056 461.151936 197.982098 459.976634 198.200140 458.789045 198.418182 457.589318 198.636224 456.377599 198.854266 455.154040 199.072308 453.918787 199.290350 452.671991 199.508392 451.413799 199.726434 450.144360 199.944476 448.863823 200.162517 447.572337 200.380559 446.270050 200.598601 444.957112 200.816643 443.633670 201.034685 442.299873 201.252727 440.955870 201.470769 439.601811 201.688811 438.237842 201.906853 436.864114 202.124895 435.480775 202.342937 434.087973 202.560979 432.685858 202.779021 431.274578 202.997063 429.854281 203.215105 428.425117 203.433147 426.987233 203.651189 425.540780 203.869231 424.085904 204.087273 422.622756 204.305315 421.151484 204.523357 419.672236 204.741399 418.185162 204.959441 416.690409 205.177483 415.188127 205.395524 413.678464 205.613566 412.161569 205.831608 410.637591 206.049650 409.106678 206.267692 407.568979 206.485734 406.024643 206.703776 404.473818 206.921818 402.916654 207.139860 401.353298 207.357902 399.783900 207.575944 398.208607 207.793986 396.627570 208.012028 395.040937 208.230070 393.448855 208.448112 391.851475 208.666154 390.248944 208.884196 388.641412 209.102238 387.029027 209.320280 385.411937 209.538322 383.790292 209.756364 382.164240 209.974406 380.533930 210.192448 378.899510 210.410490 377.261130 210.628531 375.618937 210.846573 373.973082 211.064615 372.323711 211.282657 370.670974 211.500699 369.015020 211.718741 367.355998 211.936783 365.694055 212.154825 364.029341 212.372867 362.362005 212.590909 360.692194 212.808951 359.020059 213.026993 357.345747 213.245035 355.669407 213.463077 353.991188 213.681119 352.311239 213.899161 350.629708 214.117203 348.946744 214.335245 347.262496 214.553287 345.577112 214.771329 343.890741 214.989371 342.203532 215.207413 340.515634 215.425455 338.827194 215.643497 337.138362 215.861538 335.449287 216.079580 333.760117 216.297622 332.071001 216.515664 330.382088 216.733706 328.693526 216.951748 327.005464 217.169790 325.318050 217.387832 323.631434 217.605874 321.945764 217.823916 320.261189 218.041958 318.577857 218.260000 316.895918 218.478042 315.215519 218.696084 313.536810 218.914126 311.859939 219.132168 310.185054 219.350210 308.512306 219.568252 306.841842 219.786294 305.173810 220.004336 303.508361 220.222378 301.845642 220.440420 300.185802 220.658462 298.528989 220.876503 296.875354 221.094545 295.225043 221.312587 293.578206 221.530629 291.934992 221.748671 290.295549 221.966713 288.660025 222.184755 287.028571 222.402797 285.401334 222.620839 283.778462 222.838881 282.160106 223.056923 280.546413 223.274965 278.937532 223.493007 277.333611 223.711049 275.734801 223.929091 274.141248 224.147133 272.553102 224.365175 270.970512 224.583217 269.393626 224.801259 267.822593 225.019301 266.257561 225.237343 264.698680 225.455385 263.146098 225.673427 261.599964 225.891469 260.060426 226.109510 258.527633 226.327552 257.001733 226.545594 255.482877 226.763636 253.971211 226.981678 252.466885 227.199720 250.970048 227.417762 249.480848 227.635804 247.999434 227.853846 246.525955 228.071888 245.060559 228.289930 243.603395 228.507972 242.154612 228.726014 240.714358 228.944056 239.282782 229.162098 237.860033 229.380140 236.446260 229.598182 235.041610 229.816224 233.646234 230.034266 232.260279 230.252308 230.883865 230.470350 229.516994 230.688392 228.159639 230.906434 226.811773 231.124476 225.473368 231.342517 224.144398 231.560559 222.824835 231.778601 221.514651 231.996643 220.213821 232.214685 218.922317 232.432727 217.640111 232.650769 216.367176 232.868811 215.103485 233.086853 213.849012 233.304895 212.603728 233.522937 211.367607 233.740979 210.140621 233.959021 208.922744 234.177063 207.713948 234.395105 206.514206 234.613147 205.323490 234.831189 204.141774 235.049231 202.969031 235.267273 201.805233 235.485315 200.650352 235.703357 199.504363 235.921399 198.367238 236.139441 197.238949 236.357483 196.119469 236.575524 195.008772 236.793566 193.906830 237.011608 192.813615 237.229650 191.729101 237.447692 190.653261 237.665734 189.586067 237.883776 188.527493 238.101818 187.477510 238.319860 186.436092 238.537902 185.403212 238.755944 184.378842 238.973986 183.362955 239.192028 182.355525 239.410070 181.356524 239.628112 180.365924 239.846154 179.383699 240.064196 178.409821 240.282238 177.444264 240.500280 176.487000 240.718322 175.538001 240.936364 174.597242 241.154406 173.664694 241.372448 172.740330 241.590490 171.824123 241.808531 170.916047 242.026573 170.016073 242.244615 169.124175 242.462657 168.240326 242.680699 167.364498 242.898741 166.496664 243.116783 165.636797 243.334825 164.784870 243.552867 163.940856 243.770909 163.104727 243.988951 162.276456 244.206993 161.456017 244.425035 160.643381 244.643077 159.838522 244.861119 159.041413 245.079161 158.252026 245.297203 157.470335 245.515245 156.696312 245.733287 155.929929 245.951329 155.171160 246.169371 154.419978 246.387413 153.676355 246.605455 152.940265 246.823497 152.211679 247.041538 151.490571 247.259580 150.776914 247.477622 150.070681 247.695664 149.371844 247.913706 148.680376 248.131748 147.996250 248.349790 147.319439 248.567832 146.649915 248.785874 145.987652 249.003916 145.332622 249.221958 144.684799 249.440000 144.044154 249.658042 143.410661 249.876084 142.784293 250.094126 142.165022 250.312168 141.552822 250.530210 140.947664 250.748252 140.349523 250.966294 139.758370 251.184336 139.174179 251.402378 138.596922 251.620420 138.026572 251.838462 137.463102 252.056503 136.906486 252.274545 136.356695 252.492587 135.813702 252.710629 135.277481 252.928671 134.748004 253.146713 134.225244 253.364755 133.709174 253.582797 133.199766 253.800839 132.696994 254.018881 132.200830 254.236923 131.711248 254.454965 131.228219 254.673007 130.751717 254.891049 130.281715 255.109091 129.818185 255.327133 129.361100 255.545175 128.910434 255.763217 128.466158 255.981259 128.028246 256.199301 127.596671 256.417343 127.171405 256.635385 126.752421 256.853427 126.339693 257.071469 125.933192 257.289510 125.532892 257.507552 125.138765 257.725594 124.750785 257.943636 124.368924 258.161678 123.993155 258.379720 123.623451 258.597762 123.259784 258.815804 122.902128 259.033846 122.550456 259.251888 122.204739 259.469930 121.864951 259.687972 121.531065 259.906014 121.203054 260.124056 120.880890 260.342098 120.564547 260.560140 120.253996 260.778182 119.949212 260.996224 119.650166 261.214266 119.356832 261.432308 119.069182 261.650350 118.787189 261.868392 118.510826 262.086434 118.240067 262.304476 117.974883 262.522517 117.715247 262.740559 117.461133 262.958601 117.212513 263.176643 116.969360 263.394685 116.731647 263.612727 116.499346 263.830769 116.272431 264.048811 116.050875 264.266853 115.834649 264.484895 115.623727 264.702937 115.418083 264.920979 115.217687 265.139021 115.022515 265.357063 114.832537 265.575105 114.647728 265.793147 114.468059 266.011189 114.293504 266.229231 114.124036 266.447273 113.959627 266.665315 113.800251 266.883357 113.645879 267.101399 113.496486 267.319441 113.352043 267.537483 113.212523 267.755524 113.077900 267.973566 112.948146 268.191608 112.823234 268.409650 112.703137 268.627692 112.587828 268.845734 112.477279 269.063776 112.371463 269.281818 112.270354 269.499860 112.173923 269.717902 112.082145 269.935944 111.994990 270.153986 111.912434 270.372028 111.834447 270.590070 111.761004 270.808112 111.692077 271.026154 111.627638 271.244196 111.567661 271.462238 111.512118 271.680280 111.460983 271.898322 111.414227 272.116364 111.371825 272.334406 111.333748 272.552448 111.299970 272.770490 111.270463 272.988531 111.245200 273.206573 111.224154 273.424615 111.207298 273.642657 111.194605 273.860699 111.186047 274.078741 111.181598 274.296783 111.181229 274.514825 111.184915 274.732867 111.192627 274.950909 111.204339 275.168951 111.220024 275.386993 111.239654 275.605035 111.263202 275.823077 111.290640 276.041119 111.321943 276.259161 111.357082 276.477203 111.396030 276.695245 111.438761 276.913287 111.485247 277.131329 111.535460 277.349371 111.589375 277.567413 111.646963 277.785455 111.708197 278.003497 111.773050 278.221538 111.841496 278.439580 111.913506 278.657622 111.989054 278.875664 112.068112 279.093706 112.150654 279.311748 112.236652 279.529790 112.326079 279.747832 112.418907 279.965874 112.515110 280.183916 112.614661 280.401958 112.717532 280.620000 112.823696 280.838042 112.933126 281.056084 113.045795 281.274126 113.161675 281.492168 113.280740 281.710210 113.402962 281.928252 113.528314 282.146294 113.656769 282.364336 113.788299 282.582378 113.922878 282.800420 114.060479 283.018462 114.201073 283.236503 114.344635 283.454545 114.491136 283.672587 114.640551 283.890629 114.792850 284.108671 114.948008 284.326713 115.105997 284.544755 115.266790 284.762797 115.430359 284.980839 115.596673 285.198881 115.765701 285.416923 115.937409 285.634965 116.111768 285.853007 116.288744 286.071049 116.468306 286.289091 116.650423 286.507133 116.835062 286.725175 117.022192 286.943217 117.211781 287.161259 117.403796 287.379301 117.598208 287.597343 117.794982 287.815385 117.994089 288.033427 118.195495 288.251469 118.399170 288.469510 118.605081 288.687552 118.813197 288.905594 119.023485 289.123636 119.235915 289.341678 119.450453 289.559720 119.667070 289.777762 119.885731 289.995804 120.106407 290.213846 120.329065 290.431888 120.553673 290.649930 120.780200 290.867972 121.008614 291.086014 121.238882 291.304056 121.470974 291.522098 121.704857 291.740140 121.940499 291.958182 122.177870 292.176224 122.416936 292.394266 122.657666 292.612308 122.900029 292.830350 123.143993 293.048392 123.389526 293.266434 123.636595 293.484476 123.885170 293.702517 124.135218 293.920559 124.386709 294.138601 124.639609 294.356643 124.893887 294.574685 125.149511 294.792727 125.406450 295.010769 125.664672 295.228811 125.924145 295.446853 126.184837 295.664895 126.446716 295.882937 126.709751 296.100979 126.973910 296.319021 127.239161 296.537063 127.505472 296.755105 127.772812 296.973147 128.041148 297.191189 128.310449 297.409231 128.580683 297.627273 128.851819 297.845315 129.123824 298.063357 129.396667 298.281399 129.670316 298.499441 129.944739 298.717483 130.219904 298.935524 130.495780 299.153566 130.772335 299.371608 131.049536 299.589650 131.327353 299.807692 131.605754 300.025734 131.884706 300.243776 132.164178 300.461818 132.444138 300.679860 132.724554 300.897902 133.005395 301.115944 133.286628 301.333986 133.568223 301.552028 133.850146 301.770070 134.132367 301.988112 134.414854 302.206154 134.697574 302.424196 134.980496 302.642238 135.263588 302.860280 135.546819 303.078322 135.830157 303.296364 136.113569 303.514406 136.397024 303.732448 136.680491 303.950490 136.963937 304.168531 137.247331 304.386573 137.530640 304.604615 137.813834 304.822657 138.096880 305.040699 138.379747 305.258741 138.662402 305.476783 138.944814 305.694825 139.226952 305.912867 139.508783 306.130909 139.790275 306.348951 140.071397 306.566993 140.352118 306.785035 140.632404 307.003077 140.912225 307.221119 141.191549 307.439161 141.470343 307.657203 141.748577 307.875245 142.026218 308.093287 142.303234 308.311329 142.579594 308.529371 142.855266 308.747413 143.130218 308.965455 143.404419 309.183497 143.677836 309.401538 143.950437 309.619580 144.222192 309.837622 144.493068 310.055664 144.763034 310.273706 145.032057 310.491748 145.300105 310.709790 145.567148 310.927832 145.833154 311.145874 146.098089 311.363916 146.361924 311.581958 146.624625 311.800000 146.886161 312.018042 147.146501 312.236084 147.405612 312.454126 147.663463 312.672168 147.920022 312.890210 148.175257 313.108252 148.429136 313.326294 148.681629 313.544336 148.932701 313.762378 149.182323 313.980420 149.430462 314.198462 149.677087 314.416503 149.922165 314.634545 150.165665 314.852587 150.407556 315.070629 150.647804 315.288671 150.886379 315.506713 151.123249 315.724755 151.358381 315.942797 151.591745 316.160839 151.823308 316.378881 152.053039 316.596923 152.280906 316.814965 152.506876 317.033007 152.730919 317.251049 152.953002 317.469091 153.173094 317.687133 153.391162 317.905175 153.607176 318.123217 153.821103 318.341259 154.032911 318.559301 154.242569 318.777343 154.450045 318.995385 154.655307 319.213427 154.858324 319.431469 155.059062 319.649510 155.257492 319.867552 155.453581 320.085594 155.647297 320.303636 155.838608 320.521678 156.027483 320.739720 156.213889 320.957762 156.397796 321.175804 156.579171 321.393846 156.757982 321.611888 156.934198 321.829930 157.107787 322.047972 157.278717 322.266014 157.446956 322.484056 157.612473 322.702098 157.775236 322.920140 157.935212 323.138182 158.092371 323.356224 158.246680 323.574266 158.398107 323.792308 158.546622 324.010350 158.692191 324.228392 158.834783 324.446434 158.974367 324.664476 159.110911 324.882517 159.244382 325.100559 159.374750 325.318601 159.501981 325.536643 159.626046 325.754685 159.746911 325.972727 159.864544 326.190769 159.978915 326.408811 160.089992 326.626853 160.197741 326.844895 160.302133 327.062937 160.403134 327.280979 160.500714 327.499021 160.594840 327.717063 160.685481 327.935105 160.772605 328.153147 160.856179 328.371189 160.936173 328.589231 161.012554 328.807273 161.085291 329.025315 161.154352 329.243357 161.219705 329.461399 161.281318 329.679441 161.339160 329.897483 161.393198 330.115524 161.443401 330.333566 161.489738 330.551608 161.532176 330.769650 161.570683 330.987692 161.605228 331.205734 161.635780 331.423776 161.662305 331.641818 161.684773 331.859860 161.703151 332.077902 161.717409 332.295944 161.727513 332.513986 161.733433 332.732028 161.735136 332.950070 161.732591 333.168112 161.725766 333.386154 161.714629 333.604196 161.699148 333.822238 161.679292 334.040280 161.655028 334.258322 161.626326 334.476364 161.593152 334.694406 161.555477 334.912448 161.513266 335.130490 161.466490 335.348531 161.415115 335.566573 161.359111 335.784615 161.298445 336.002657 161.233086 336.220699 161.163002 336.438741 161.088161 336.656783 161.008531 336.874825 160.924081 337.092867 160.834779 337.310909 160.740592 337.528951 160.641489 337.746993 160.537439 337.965035 160.428410 338.183077 160.314369 338.401119 160.195285 338.619161 160.071127 338.837203 159.941862 339.055245 159.807459 339.273287 159.667899 339.491329 159.523219 339.709371 159.373469 339.927413 159.218699 340.145455 159.058960 340.363497 158.894301 340.581538 158.724772 340.799580 158.550424 341.017622 158.371307 341.235664 158.187470 341.453706 157.998965 341.671748 157.805840 341.889790 157.608147 342.107832 157.405935 342.325874 157.199254 342.543916 156.988155 342.761958 156.772687 342.980000 156.552901 343.198042 156.328847 343.416084 156.100574 343.634126 155.868134 343.852168 155.631576 344.070210 155.390949 344.288252 155.146306 344.506294 154.897694 344.724336 154.645165 344.942378 154.388769 345.160420 154.128556 345.378462 153.864575 345.596503 153.596877 345.814545 153.325513 346.032587 153.050531 346.250629 152.771983 346.468671 152.489918 346.686713 152.204387 346.904755 151.915439 347.122797 151.623125 347.340839 151.327495 347.558881 151.028598 347.776923 150.726486 347.994965 150.421208 348.213007 150.112814 348.431049 149.801354 348.649091 149.486879 348.867133 149.169438 349.085175 148.849082 349.303217 148.525861 349.521259 148.199825 349.739301 147.871024 349.957343 147.539507 350.175385 147.205326 350.393427 146.868531 350.611469 146.529170 350.829510 146.187295 351.047552 145.842956 351.265594 145.496203 351.483636 145.147085 351.701678 144.795653 351.919720 144.441958 352.137762 144.086048 352.355804 143.727975 352.573846 143.367788 352.791888 143.005538 353.009930 142.641274 353.227972 142.275047 353.446014 141.906907 353.664056 141.536903 353.882098 141.165087 354.100140 140.791508 354.318182 140.416216 354.536224 140.039261 354.754266 139.660694 354.972308 139.280564 355.190350 138.898922 355.408392 138.515818 355.626434 138.131301 355.844476 137.745423 356.062517 137.358232 356.280559 136.969780 356.498601 136.580116 356.716643 136.189291 356.934685 135.797354 357.152727 135.404355 357.370769 135.010346 357.588811 134.615375 357.806853 134.219493 358.024895 133.822750 358.242937 133.425196 358.460979 133.026882 358.679021 132.627857 358.897063 132.228171 359.115105 131.827875 359.333147 131.427019 359.551189 131.025652 359.769231 130.623825 359.987273 130.221589 360.205315 129.818992 360.423357 129.416086 360.641399 129.012920 360.859441 128.609544 361.077483 128.206009 361.295524 127.802365 361.513566 127.398661 361.731608 126.994948 361.949650 126.591276 362.167692 126.187696 362.385734 125.784256 362.603776 125.381008 362.821818 124.978001 363.039860 124.575285 363.257902 124.172912 363.475944 123.770930 363.693986 123.369389 363.912028 122.968341 364.130070 122.567835 364.348112 122.167920 364.566154 121.768648 364.784196 121.370069 365.002238 120.972232 365.220280 120.575187 365.438322 120.178985 365.656364 119.783676 365.874406 119.389310 366.092448 118.995937 366.310490 118.603607 366.528531 118.212370 366.746573 117.822276 366.964615 117.433376 367.182657 117.045720 367.400699 116.659357 367.618741 116.274337 367.836783 115.890712 368.054825 115.508531 368.272867 115.127843 368.490909 114.748700 368.708951 114.371151 368.926993 113.995247 369.145035 113.621036 369.363077 113.248571 369.581119 112.877900 369.799161 112.509074 370.017203 112.142143 370.235245 111.777157 370.453287 111.414166 370.671329 111.053221 370.889371 110.694371 371.107413 110.337666 371.325455 109.983157 371.543497 109.630893 371.761538 109.280925 371.979580 108.933303 372.197622 108.588077 372.415664 108.245297 372.633706 107.905014 372.851748 107.567276 373.069790 107.232135 373.287832 106.899641 373.505874 106.569843 373.723916 106.242792 373.941958 105.918538 374.160000 105.597131 374.378042 105.278621 374.596084 104.963057 374.814126 104.650492 375.032168 104.340973 375.250210 104.034552 375.468252 103.731279 375.686294 103.431203 375.904336 103.134376 376.122378 102.840846 376.340420 102.550664 376.558462 102.263880 376.776503 101.980545 376.994545 101.700707 377.212587 101.424419 377.430629 101.151728 377.648671 100.882687 377.866713 100.617344 378.084755 100.355750 378.302797 100.097955 378.520839 99.844009 378.738881 99.593963 378.956923 99.347865 379.174965 99.105767 379.393007 98.867719 379.611049 98.633770 379.829091 98.403971 380.047133 98.178372 380.265175 97.957022 380.483217 97.739973 380.701259 97.527274 380.919301 97.318975 381.137343 97.115127 381.355385 96.915779 381.573427 96.720981 381.791469 96.530785 382.009510 96.345239 382.227552 96.164394 382.445594 95.988300 382.663636 95.817007 382.881678 95.650565 383.099720 95.489025 383.317762 95.332436 383.535804 95.180848 383.753846 95.034313 383.971888 94.892879 384.189930 94.756596 384.407972 94.625516 384.626014 94.499688 384.844056 94.379162 385.062098 94.263989 385.280140 94.154218 385.498182 94.049899 385.716224 93.951083 385.934266 93.857819 386.152308 93.770159 386.370350 93.688151 386.588392 93.611847 386.806434 93.541295 387.024476 93.476547 387.242517 93.417652 387.460559 93.364661 387.678601 93.317623 387.896643 93.276589 388.114685 93.241609 388.332727 93.212733 388.550769 93.190010 388.768811 93.173492 388.986853 93.163228 389.204895 93.159268 389.422937 93.161663 389.640979 93.170462 389.859021 93.185716 390.077063 93.207474 390.295105 93.235788 390.513147 93.270706 390.731189 93.312280 390.949231 93.360558 391.167273 93.415592 391.385315 93.477432 391.603357 93.546127 391.821399 93.621727 392.039441 93.704283 392.257483 93.793845 392.475524 93.890463 392.693566 93.994187 392.911608 94.105067 393.129650 94.223153 393.347692 94.348496 393.565734 94.481145 393.783776 94.621132 394.001818 94.768411 394.219860 94.922920 394.437902 95.084594 394.655944 95.253370 394.873986 95.429183 395.092028 95.611971 395.310070 95.801669 395.528112 95.998213 395.746154 96.201541 395.964196 96.411588 396.182238 96.628290 396.400280 96.851584 396.618322 97.081406 396.836364 97.317692 397.054406 97.560379 397.272448 97.809402 397.490490 98.064699 397.708531 98.326204 397.926573 98.593856 398.144615 98.867589 398.362657 99.147340 398.580699 99.433046 398.798741 99.724642 399.016783 100.022065 399.234825 100.325251 399.452867 100.634137 399.670909 100.948658 399.888951 101.268751 400.106993 101.594352 400.325035 101.925398 400.543077 102.261824 400.761119 102.603568 400.979161 102.950565 401.197203 103.302751 401.415245 103.660063 401.633287 104.022436 401.851329 104.389809 402.069371 104.762115 402.287413 105.139293 402.505455 105.521278 402.723497 105.908005 402.941538 106.299413 403.159580 106.695436 403.377622 107.096012 403.595664 107.501076 403.813706 107.910564 404.031748 108.324414 404.249790 108.742560 404.467832 109.164940 404.685874 109.591490 404.903916 110.022146 405.121958 110.456844 405.340000 110.895520 405.558042 111.338111 405.776084 111.784553 405.994126 112.234783 406.212168 112.688736 406.430210 113.146348 406.648252 113.607557 406.866294 114.072298 407.084336 114.540508 407.302378 115.012122 407.520420 115.487078 407.738462 115.965311 407.956503 116.446757 408.174545 116.931354 408.392587 117.419037 408.610629 117.909742 408.828671 118.403405 409.046713 118.899964 409.264755 119.399354 409.482797 119.901511 409.700839 120.406372 409.918881 120.913874 410.136923 121.423951 410.354965 121.936541 410.573007 122.451579 410.791049 122.969003 411.009091 123.488748 411.227133 124.010751 411.445175 124.534947 411.663217 125.061274 411.881259 125.589667 412.099301 126.120062 412.317343 126.652396 412.535385 127.186606 412.753427 127.722627 412.971469 128.260395 413.189510 128.799848 413.407552 129.340921 413.625594 129.883550 413.843636 130.427672 414.061678 130.973222 414.279720 131.520139 414.497762 132.068356 414.715804 132.617812 414.933846 133.168441 415.151888 133.720181 415.369930 134.272967 415.587972 134.826736 415.806014 135.381424 416.024056 135.936968 416.242098 136.493303 416.460140 137.050366 416.678182 137.608093 416.896224 138.166420 417.114266 138.725285 417.332308 139.284622 417.550350 139.844368 417.768392 140.404460 417.986434 140.964833 418.204476 141.525425 418.422517 142.086170 418.640559 142.647006 418.858601 143.207869 419.076643 143.768695 419.294685 144.329420 419.512727 144.889981 419.730769 145.450314 419.948811 146.010354 420.166853 146.570039 420.384895 147.129305 420.602937 147.688087 420.820979 148.246323 421.039021 148.803947 421.257063 149.360898 421.475105 149.917111 421.693147 150.472521 421.911189 151.027066 422.129231 151.580682 422.347273 152.133305 422.565315 152.684871 422.783357 153.235316 423.001399 153.784577 423.219441 154.332590 423.437483 154.879292 423.655524 155.424618 423.873566 155.968505 424.091608 156.510888 424.309650 157.051706 424.527692 157.590892 424.745734 158.128385 424.963776 158.664120 425.181818 159.198033 425.399860 159.730060 425.617902 160.260139 425.835944 160.788205 426.053986 161.314194 426.272028 161.838043 426.490070 162.359688 426.708112 162.879065 426.926154 163.396110 427.144196 163.910760 427.362238 164.422952 427.580280 164.932620 427.798322 165.439702 428.016364 165.944134 428.234406 166.445852 428.452448 166.944792 428.670490 167.440891 428.888531 167.934084 429.106573 168.424309 429.324615 168.911501 429.542657 169.395597 429.760699 169.876532 429.978741 170.354244 430.196783 170.828668 430.414825 171.299741 430.632867 171.767398 430.850909 172.231577 431.068951 172.692214 431.286993 173.149244 431.505035 173.602604 431.723077 174.052230 431.941119 174.498059 432.159161 174.940026 432.377203 175.378069 432.595245 175.812123 432.813287 176.242124 433.031329 176.668010 433.249371 177.089715 433.467413 177.507177 433.685455 177.920331 433.903497 178.329114 434.121538 178.733463 434.339580 179.133313 434.557622 179.528600 434.775664 179.919261 434.993706 180.305233 435.211748 180.686451 435.429790 181.062852 435.647832 181.434371 435.865874 181.800946 436.083916 182.162513 436.301958 182.519007 436.520000 182.870365 436.738042 183.216523 436.956084 183.557418 437.174126 183.892986 437.392168 184.223163 437.610210 184.547885 437.828252 184.867089 438.046294 185.180711 438.264336 185.488687 438.482378 185.790953 438.700420 186.087446 438.918462 186.378102 439.136503 186.662857 439.354545 186.941647 439.572587 187.214409 439.790629 187.481079 440.008671 187.741593 440.226713 187.995888 440.444755 188.243900 440.662797 188.485564 440.880839 188.720818 441.098881 188.949597 441.316923 189.171839 441.534965 189.387478 441.753007 189.596451 441.971049 189.798695 442.189091 189.994146 442.407133 190.182740 442.625175 190.364414 442.843217 190.539103 443.061259 190.706744 443.279301 190.867273 443.497343 191.020627 443.715385 191.166741 443.933427 191.305552 444.151469 191.436997 444.369510 191.561011 444.587552 191.677530 444.805594 191.786492 445.023636 191.887832 445.241678 191.981486 445.459720 192.067391 445.677762 192.145484 445.895804 192.215699 446.113846 192.277975 446.331888 192.332246 446.549930 192.378449 446.767972 192.416520 446.986014 192.446396 447.204056 192.468013 447.422098 192.481307 447.640140 192.486215 447.858182 192.482672 448.076224 192.470615 448.294266 192.450000 448.512308 192.420857 448.730350 192.383236 448.948392 192.337189 449.166434 192.282766 449.384476 192.220016 449.602517 192.148991 449.820559 192.069741 450.038601 191.982315 450.256643 191.886764 450.474685 191.783139 450.692727 191.671490 450.910769 191.551868 451.128811 191.424322 451.346853 191.288903 451.564895 191.145661 451.782937 190.994647 452.000979 190.835911 452.219021 190.669503 452.437063 190.495474 452.655105 190.313874 452.873147 190.124753 453.091189 189.928162 453.309231 189.724151 453.527273 189.512770 453.745315 189.294070 453.963357 189.068101 454.181399 188.834913 454.399441 188.594558 454.617483 188.347084 454.835524 188.092543 455.053566 187.830984 455.271608 187.562458 455.489650 187.287016 455.707692 187.004708 455.925734 186.715584 456.143776 186.419694 456.361818 186.117089 456.579860 185.807819 456.797902 185.491935 457.015944 185.169487 457.233986 184.840524 457.452028 184.505098 457.670070 184.163259 457.888112 183.815058 458.106154 183.460543 458.324196 183.099767 458.542238 182.732778 458.760280 182.359629 458.978322 181.980368 459.196364 181.595046 459.414406 181.203714 459.632448 180.806422 459.850490 180.403220 460.068531 179.994158 460.286573 179.579288 460.504615 179.158659 460.722657 178.732321 460.940699 178.300325 461.158741 177.862722 461.376783 177.419561 461.594825 176.970893 461.812867 176.516769 462.030909 176.057238 462.248951 175.592351 462.466993 175.122159 462.685035 174.646711 462.903077 174.166058 463.121119 173.680250 463.339161 173.189338 463.557203 172.693372 463.775245 172.192403 463.993287 171.686480 464.211329 171.175654 464.429371 170.659976 464.647413 170.139495 464.865455 169.614263 465.083497 169.084328 465.301538 168.549743 465.519580 168.010557 465.737622 167.466820 465.955664 166.918583 466.173706 166.365895 466.391748 165.808809 466.609790 165.247373 466.827832 164.681638 467.045874 164.111655 467.263916 163.537474 467.481958 162.959144 467.700000 162.376718 467.918042 161.790244 468.136084 161.199773 468.354126 160.605356 468.572168 160.007042 468.790210 159.404883 469.008252 158.798928 469.226294 158.189228 469.444336 157.575834 469.662378 156.958795 469.880420 156.338161 470.098462 155.713985 470.316503 155.086314 470.534545 154.455201 470.752587 153.820694 470.970629 153.182846 471.188671 152.541705 471.406713 151.897323 471.624755 151.249749 471.842797 150.599034 472.060839 149.945228 472.278881 149.288383 472.496923 148.628547 472.714965 147.965771 472.933007 147.300106 473.151049 146.631602 473.369091 145.960309 473.587133 145.286278 473.805175 144.609559 474.023217 143.930203 474.241259 143.248259 474.459301 142.563778 474.677343 141.876811 474.895385 141.187407 475.113427 140.495617 475.331469 139.801492 475.549510 139.105081 475.767552 138.406436 475.985594 137.705606 476.203636 137.002641 476.421678 136.297593 476.639720 135.590511 476.857762 134.881446 477.075804 134.170449 477.293846 133.457568 477.511888 132.742855 477.729930 132.026361 477.947972 131.308135 478.166014 130.588228 478.384056 129.866690 478.602098 129.143571 478.820140 128.418923 479.038182 127.692794 479.256224 126.965236 479.474266 126.236299 479.692308 125.506033 479.910350 124.774489 480.128392 124.041717 480.346434 123.307766 480.564476 122.572689 480.782517 121.836534 481.000559 121.099353 481.218601 120.361195 481.436643 119.622111 481.654685 118.882151 481.872727 118.141366 482.090769 117.399806 482.308811 116.657521 482.526853 115.914562 482.744895 115.170978 482.962937 114.426821 483.180979 113.682141 483.399021 112.936988 483.617063 112.191412 483.835105 111.445463 484.053147 110.699193 484.271189 109.952651 484.489231 109.205888 484.707273 108.458954 484.925315 107.711899 485.143357 106.964773 485.361399 106.217628 485.579441 105.470514 485.797483 104.723480 486.015524 103.976577 486.233566 103.229855 486.451608 102.483366 486.669650 101.737158 486.887692 100.991283 487.105734 100.245790 487.323776 99.500731 487.541818 98.756155 487.759860 98.012113 487.977902 97.268655 488.195944 96.525832 488.413986 95.783693 488.632028 95.042290 488.850070 94.301672 489.068112 93.561889 489.286154 92.822993 489.504196 92.085034 489.722238 91.348061 489.940280 90.612126 490.158322 89.877278 490.376364 89.143568 490.594406 88.411046 490.812448 87.679763 491.030490 86.949769 491.248531 86.221114 491.466573 85.493848 491.684615 84.768023 491.902657 84.043688 492.120699 83.320893 492.338741 82.599689 492.556783 81.880127 492.774825 81.162256 492.992867 80.446127 493.210909 79.731790 493.428951 79.019297 493.646993 78.308696 493.865035 77.600038 494.083077 76.893374 494.301119 76.188754 494.519161 75.486228 494.737203 74.785848 494.955245 74.087662 495.173287 73.391721 495.391329 72.698076 495.609371 72.006778 495.827413 71.317875 496.045455 70.631419 496.263497 69.947461 496.481538 69.266050 496.699580 68.587236 496.917622 67.911071 497.135664 67.237604 497.353706 66.566886 497.571748 65.898967 497.789790 65.233897 498.007832 64.571727 498.225874 63.912508 498.443916 63.256289 498.661958 62.603120 498.880000 61.953053 499.098042 61.306137 499.316084 60.662423 499.534126 60.021961 499.752168 59.384802 499.970210 58.750996 500.188252 58.120593 500.406294 57.493643 500.624336 56.870197 500.842378 56.250306 501.060420 55.634019 501.278462 55.021387 501.496503 54.412460 501.714545 53.807288 501.932587 53.205923 502.150629 52.608414 502.368671 52.014811 502.586713 51.425166 502.804755 50.839520 503.022797 50.257884 503.240839 49.680262 503.458881 49.106657 503.676923 48.537072 503.894965 47.971510 504.113007 47.409974 504.331049 46.852469 504.549091 46.298996 504.767133 45.749559 504.985175 45.204161 505.203217 44.662806 505.421259 44.125496 505.639301 43.592236 505.857343 43.063027 506.075385 42.537873 506.293427 42.016778 506.511469 41.499745 506.729510 40.986776 506.947552 40.477875 507.165594 39.973046 507.383636 39.472291 507.601678 38.975613 507.819720 38.483017 508.037762 37.994504 508.255804 37.510078 508.473846 37.029743 508.691888 36.553502 508.909930 36.081357 509.127972 35.613312 509.346014 35.149370 509.564056 34.689535 509.782098 34.233809 510.000140 33.782196 510.218182 33.334699 510.436224 32.891321 510.654266 32.452065 510.872308 32.016935 511.090350 31.585933 511.308392 31.159064 511.526434 30.736330 511.744476 30.317733 511.962517 29.903279 512.180559 29.492969 512.398601 29.086807 512.616643 28.684796 512.834685 28.286940 513.052727 27.893241 513.270769 27.503702 513.488811 27.118328 513.706853 26.737120 513.924895 26.360083 514.142937 25.987220 514.360979 25.618533 514.579021 25.254025 514.797063 24.893701 515.015105 24.537564 515.233147 24.185615 515.451189 23.837859 515.669231 23.494300 515.887273 23.154939 516.105315 22.819780 516.323357 22.488827 516.541399 22.162082 516.759441 21.839550 516.977483 21.521232 517.195524 21.207132 517.413566 20.897254 517.631608 20.591601 517.849650 20.290175 518.067692 19.992980 518.285734 19.700020 518.503776 19.411297 518.721818 19.126814 518.939860 18.846576 519.157902 18.570584 519.375944 18.298842 519.593986 18.031354 519.812028 17.768122 520.030070 17.509151 520.248112 17.254442 520.466154 17.003999 520.684196 16.757825 520.902238 16.515925 521.120280 16.278299 521.338322 16.044953 521.556364 15.815889 521.774406 15.591111 521.992448 15.370620 522.210490 15.154422 522.428531 14.942518 522.646573 14.734913 522.864615 14.531609 523.082657 14.332609 523.300699 14.137917 523.518741 13.947536 523.736783 13.761469 523.954825 13.579720 524.172867 13.402291 524.390909 13.229185 524.608951 13.060407 524.826993 12.895958 525.045035 12.735843 525.263077 12.580064 525.481119 12.428625 525.699161 12.281529 525.917203 12.138779 526.135245 12.000378 526.353287 11.866329 526.571329 11.736636 526.789371 11.611302 527.007413 11.490330 527.225455 11.373724 527.443497 11.261485 527.661538 11.153619 527.879580 11.050127 528.097622 10.951013 528.315664 10.856280 528.533706 10.765932 528.751748 10.679972 528.969790 10.598402 529.187832 10.521226 529.405874 10.448447 529.623916 10.380069 529.841958 10.316094 530.060000 10.256527 530.278042 10.201369 530.496084 10.150624 530.714126 10.104296 530.932168 10.062387 531.150210 10.024901 531.368252 9.991841 531.586294 9.963210 531.804336 9.939011 532.022378 9.919248 532.240420 9.903924 532.458462 9.893041 532.676503 9.886604 532.894545 9.884615 533.112587 9.887078 533.330629 9.893995 533.548671 9.905371 533.766713 9.921207 533.984755 9.941508 534.202797 9.966276 534.420839 9.995515 534.638881 10.029228 534.856923 10.067418 535.074965 10.110088 535.293007 10.157241 535.511049 10.208882 535.729091 10.265012 535.947133 10.325635 536.165175 10.390755 536.383217 10.460374 536.601259 10.534495 536.819301 10.613123 537.037343 10.696260 537.255385 10.783908 537.473427 10.876073 537.691469 10.972756 537.909510 11.073961 538.127552 11.179690 538.345594 11.289948 538.563636 11.404738 538.781678 11.524062 538.999720 11.647924 539.217762 11.776327 539.435804 11.909274 539.653846 12.046768 539.871888 12.188813 540.089930 12.335412 540.307972 12.486568 540.526014 12.642284 540.744056 12.802564 540.962098 12.967410 541.180140 13.136826 541.398182 13.310815 541.616224 13.489380 541.834266 13.672524 542.052308 13.860251 542.270350 14.052564 542.488392 14.249465 542.706434 14.450959 542.924476 14.657048 543.142517 14.867736 543.360559 15.083025 543.578601 15.302920 543.796643 15.527422 544.014685 15.756536 544.232727 15.990264 544.450769 16.228610 544.668811 16.471577 544.886853 16.719168 545.104895 16.971387 545.322937 17.228236 545.540979 17.489718 545.759021 17.755838 545.977063 18.026597 546.195105 18.302000 546.413147 18.582050 546.631189 18.866749 546.849231 19.156100 547.067273 19.450108 547.285315 19.748776 547.503357 20.052105 547.721399 20.360101 547.939441 20.672765 548.157483 20.990101 548.375524 21.312113 548.593566 21.638803 548.811608 21.970174 549.029650 22.306231 549.247692 22.646975 549.465734 22.992411 549.683776 23.342541 549.901818 23.697368 550.119860 24.056897 550.337902 24.421130 550.555944 24.790069 550.773986 25.163719 550.992028 25.542083 551.210070 25.925164 551.428112 26.312964 551.646154 26.705488 551.864196 27.102738 552.082238 27.504718 552.300280 27.911430 552.518322 28.322879 552.736364 28.739066 552.954406 29.159996 553.172448 29.585672 553.390490 30.016096 553.608531 30.451272 553.826573 30.891204 554.044615 31.335893 554.262657 31.785345 554.480699 32.239561 554.698741 32.698545 554.916783 33.162300 555.134825 33.630829 555.352867 34.104136 555.570909 34.582223 555.788951 35.065095 556.006993 35.552754 556.225035 36.045203 556.443077 36.542445 556.661119 37.044484 556.879161 37.551323 557.097203 38.062965 557.315245 38.579410 557.533287 39.100642 557.751329 39.626641 557.969371 40.157389 558.187413 40.692867 558.405455 41.233055 558.623497 41.777933 558.841538 42.327484 559.059580 42.881686 559.277622 43.440523 559.495664 44.003973 559.713706 44.572018 559.931748 45.144638 560.149790 45.721815 560.367832 46.303529 560.585874 46.889761 560.803916 47.480491 561.021958 48.075701 561.240000 48.675372 561.458042 49.279483 561.676084 49.888016 561.894126 50.500952 562.112168 51.118271 562.330210 51.739954 562.548252 52.365982 562.766294 52.996335 562.984336 53.630995 563.202378 54.269942 563.420420 54.913158 563.638462 55.560622 563.856503 56.212315 564.074545 56.868219 564.292587 57.528314 564.510629 58.192581 564.728671 58.861000 564.946713 59.533553 565.164755 60.210220 565.382797 60.890981 565.600839 61.575819 565.818881 62.264713 566.036923 62.957645 566.254965 63.654594 566.473007 64.355542 566.691049 65.060470 566.909091 65.769359 567.127133 66.482188 567.345175 67.198939 567.563217 67.919593 567.781259 68.644131 567.999301 69.372533 568.217343 70.104780 568.435385 70.840852 568.653427 71.580731 568.871469 72.324398 569.089510 73.071833 569.307552 73.823016 569.525594 74.577929 569.743636 75.336553 569.961678 76.098868 570.179720 76.864855 570.397762 77.634495 570.615804 78.407768 570.833846 79.184655 571.051888 79.965138 571.269930 80.749197 571.487972 81.536812 571.706014 82.327965 571.924056 83.122635 572.142098 83.920805 572.360140 84.722455 572.578182 85.527565 572.796224 86.336116 573.014266 87.148090 573.232308 87.963466 573.450350 88.782226 573.668392 89.604350 573.886434 90.429820 574.104476 91.258615 574.322517 92.090717 574.540559 92.926107 574.758601 93.764765 574.976643 94.606672 575.194685 95.451809 575.412727 96.300156 575.630769 97.151695 575.848811 98.006406 576.066853 98.864270 576.284895 99.725267 576.502937 100.589379 576.720979 101.456586 576.939021 102.326870 577.157063 103.200210 577.375105 104.076587 577.593147 104.955983 577.811189 105.838379 578.029231 106.723754 578.247273 107.612089 578.465315 108.503366 578.683357 109.397566 578.901399 110.294668 579.119441 111.194654 579.337483 112.097505 579.555524 113.003201 579.773566 113.911723 579.991608 114.823052 580.209650 115.737169 580.427692 116.654054 580.645734 117.573688 580.863776 118.496052 581.081818 119.421127 581.299860 120.348893 581.517902 121.279332 581.735944 122.212424 581.953986 123.148150 582.172028 124.086490 582.390070 125.027425 582.608112 125.970937 582.826154 126.917006 583.044196 127.865613 583.262238 128.816738 583.480280 129.770362 583.698322 130.726466 583.916364 131.685031 584.134406 132.646038 584.352448 133.609467 584.570490 134.575299 584.788531 135.543515 585.006573 136.514096 585.224615 137.487022 585.442657 138.462275 585.660699 139.439835 585.878741 140.419682 586.096783 141.401798 586.314825 142.386163 586.532867 143.372758 586.750909 144.361565 586.968951 145.352563 587.186993 146.345733 587.405035 147.341056 587.623077 148.338514 587.841119 149.338086 588.059161 150.339754 588.277203 151.343498 588.495245 152.349300 588.713287 153.357139 588.931329 154.366997 589.149371 155.378854 589.367413 156.392691 589.585455 157.408489 589.803497 158.426230 590.021538 159.445892 590.239580 160.467458 590.457622 161.490908 590.675664 162.516223 590.893706 163.543383 591.111748 164.572370 591.329790 165.603164 591.547832 166.635746 591.765874 167.670096 591.983916 168.706196 592.201958 169.744027 592.420000 170.783568 592.638042 171.824801 592.856084 172.867707 593.074126 173.912266 593.292168 174.958460 593.510210 176.006268 593.728252 177.055672 593.946294 178.106652 594.164336 179.159190 594.382378 180.213265 594.600420 181.268860 594.818462 182.325953 595.036503 183.384528 595.254545 184.444563 595.472587 185.506040 595.690629 186.568940 595.908671 187.633244 596.126713 188.698931 596.344755 189.765984 596.562797 190.834382 596.780839 191.904107 596.998881 192.975139 597.216923 194.047459 597.434965 195.121048 597.653007 196.195887 597.871049 197.271956 598.089091 198.349237 598.307133 199.427709 598.525175 200.507354 598.743217 201.588153 598.961259 202.670085 599.179301 203.753133 599.397343 204.837277 599.615385 205.922497 599.833427 207.008775 600.051469 208.096091 600.269510 209.184426 600.487552 210.273760 600.705594 211.364075 600.923636 212.455351 601.141678 213.547569 601.359720 214.640711 601.577762 215.734755 601.795804 216.829684 602.013846 217.925478 602.231888 219.022118 602.449930 220.119585 602.667972 221.217859 602.886014 222.316922 603.104056 223.416753 603.322098 224.517334 603.540140 225.618646 603.758182 226.720669 603.976224 227.823384 604.194266 228.926772 604.412308 230.030814 604.630350 231.135490 604.848392 232.240782 605.066434 233.346669 605.284476 234.453133 605.502517 235.560155 605.720559 236.667714 605.938601 237.775793 606.156643 238.884372 606.374685 239.993432 606.592727 241.102953 606.810769 242.212916 607.028811 243.323302 607.246853 244.434091 607.464895 245.545266 607.682937 246.656805 607.900979 247.768691 608.119021 248.880903 608.337063 249.993423 608.555105 251.106232 608.773147 252.219309 608.991189 253.332637 609.209231 254.446195 609.427273 255.559964 609.645315 256.673926 609.863357 257.788061 610.081399 258.902350 610.299441 260.016773 610.517483 261.131312 610.735524 262.245947 610.953566 263.360658 611.171608 264.475428 611.389650 265.590235 611.607692 266.705062 611.607692 514.000000" /></g></g><g class="titles"><text class="title plot_title" x="400.0" y="26">On-Nut 50</text></g><g class="plot overlay" transform="translate(156, 46)"><g class="series serie-0 color-0"><g class="dots"><circle class="dot reactive tooltip-trigger" cx="11.992307692307692" cy="180.5931037150059" r="2.5" /><desc class="value">1028000</desc><desc class="x ">11.992307692307692</desc><desc class="y ">180.5931037150059</desc><desc class="x_label">Jan</desc></g><g class="dots"><circle class="dot reactive tooltip-trigger" cx="66.50279720279721" cy="329.06199792833627" r="2.5" /><desc class="value">978000</desc><desc class="x top">66.50279720279721</desc><desc class="y top">329.06199792833627</desc><desc class="x_label">Feb</desc></g><g class="dots"><circle class="dot reactive tooltip-trigger" cx="121.01328671328672" cy="14.307942196075885" r="2.5" /><desc class="value">1084000</desc><desc class="x ">121.01328671328672</desc><desc class="y ">14.307942196075885</desc><desc class="x_label">Mar</desc></g><g class="dots"><circle class="dot reactive tooltip-trigger" cx="175.52377622377622" cy="489.4084036787331" r="2.5" /><desc class="value">924000</desc><desc class="x top">175.52377622377622</desc><desc class="y top">489.4084036787331</desc><desc class="x_label">Apr</desc></g><g class="dots"><circle class="dot reactive tooltip-trigger" cx="230.03426573426574" cy="232.26027890124487" r="2.5" /><desc class="value">1010600</desc><desc class="x ">230.03426573426574</desc><desc class="y ">232.26027890124487</desc><desc class="x_label">May</desc></g><g class="dots"><circle class="dot reactive tooltip-trigger" cx="284.54475524475527" cy="115.26679026114056" r="2.5" /><desc class="value">1050000</desc><desc class="x ">284.54475524475527</desc><desc class="y ">115.26679026114056</desc><desc class="x_label">Jun</desc></g><g class="dots"><circle class="dot reactive tooltip-trigger" cx="339.05524475524476" cy="159.80745852513968" r="2.5" /><desc class="value">1035000</desc><desc class="x left">339.05524475524476</desc><desc class="y left">159.80745852513968</desc><desc class="x_label">Jul</desc></g><g class="dots"><circle class="dot reactive tooltip-trigger" cx="393.56573426573425" cy="94.48114507127428" r="2.5" /><desc class="value">1057000</desc><desc class="x left">393.56573426573425</desc><desc class="y left">94.48114507127428</desc><desc class="x_label">Aug</desc></g><g class="dots"><circle class="dot reactive tooltip-trigger" cx="448.0762237762238" cy="192.47061525207232" r="2.5" /><desc class="value">1024000</desc><desc class="x left">448.0762237762238</desc><desc class="y left">192.47061525207232</desc><desc class="x_label">Sep</desc></g><g class="dots"><circle class="dot reactive tooltip-trigger" cx="502.5867132867133" cy="51.42516574940851" r="2.5" /><desc class="value">1071500</desc><desc class="x left">502.5867132867133</desc><desc class="y left">51.42516574940851</desc><desc class="x_label">Oct</desc></g><g class="dots"><circle class="dot reactive tooltip-trigger" cx="557.0972027972028" cy="38.062965270208736" r="2.5" /><desc class="value">1076000</desc><desc class="x left">557.0972027972028</desc><desc class="y left">38.062965270208736</desc><desc class="x_label">Nov</desc></g><g class="dots"><circle class="dot reactive tooltip-trigger" cx="611.6076923076923" cy="266.70506235873756" r="2.5" /><desc class="value">999000</desc><desc class="x left top">611.6076923076923</desc><desc class="y left top">266.70506235873756</desc><desc class="x_label">Dec</desc></g></g></g><g class="plot text-overlay" transform="translate(156, 46)"><g class="series serie-0 color-0" /></g><g class="plot tooltip-overlay" transform="translate(156, 46)"><g class="tooltip" style="opacity: 0" transform="translate(0 0)"><rect class="tooltip-box" height="0" rx="0" ry="0" width="0" /><g class="text" /></g></g><g class="legends" transform="translate(10, 56)"><g class="legend reactive activate-serie" id="activate-serie-0"><rect class="color-0 reactive" height="12" width="12" x="0.0" y="1.0" /><text x="17.0" y="11.2">On-Nut</text></g></g><g class="legends" transform="translate(790, 56)" /></g></svg>