<?xml version='1.0' encoding='utf-8'?>
<svg xmlns:xlink="http://www.w3.org/1999/xlink" class="pygal-chart" id="chart-ca6b2b6b-5eb0-48cc-adec-6a68c75215b1" viewBox="0 0 800 600" xmlns="http://www.w3.org/2000/svg"><!--Generated with pygal 2.0.11 (etree) ©Kozea 2011-2015 on 2015-12-10--><!--http://pygal.org--><!--http://github.com/Kozea/pygal--><defs><style type="text/css">#chart-ca6b2b6b-5eb0-48cc-adec-6a68c75215b1{-webkit-user-select:none;-webkit-font-smoothing:antialiased;font-family:Consolas,"Liberation Mono",Menlo,Courier,monospace}#chart-ca6b2b6b-5eb0-48cc-adec-6a68c75215b1 .title{font-family:Consolas,"Liberation Mono",Menlo,Courier,monospace;font-size:16px}#chart-ca6b2b6b-5eb0-48cc-adec-6a68c75215b1 .legends .legend text{font-family:Consolas,"Liberation Mono",Menlo,Courier,monospace;font-size:14px}#chart-ca6b2b6b-5eb0-48cc-adec-6a68c75215b1 .axis text{font-family:Consolas,"Liberation Mono",Menlo,Courier,monospace;font-size:10px}#chart-ca6b2b6b-5eb0-48cc-adec-6a68c75215b1 .axis text.major{font-family:Consolas,"Liberation Mono",Menlo,Courier,monospace;font-size:10px}#chart-ca6b2b6b-5eb0-48cc-adec-6a68c75215b1 .text-overlay text.value{font-family:Consolas,"Liberation Mono",Menlo,Courier,monospace;font-size:16px}#chart-ca6b2b6b-5eb0-48cc-adec-6a68c75215b1 .text-overlay text.label{font-family:Consolas,"Liberation Mono",Menlo,Courier,monospace;font-size:10px}#chart-ca6b2b6b-5eb0-48cc-adec-6a68c75215b1 .tooltip{font-family:Consolas,"Liberation Mono",Menlo,Courier,monospace;font-size:14px}#chart-ca6b2b6b-5eb0-48cc-adec-6a68c75215b1 text.no_data{font-family:Consolas,"Liberation Mono",Menlo,Courier,monospace;font-size:64px}
#chart-ca6b2b6b-5eb0-48cc-adec-6a68c75215b1{background-color:black}#chart-ca6b2b6b-5eb0-48cc-adec-6a68c75215b1 path,#chart-ca6b2b6b-5eb0-48cc-adec-6a68c75215b1 line,#chart-ca6b2b6b-5eb0-48cc-adec-6a68c75215b1 rect,#chart-ca6b2b6b-5eb0-48cc-adec-6a68c75215b1 circle{-webkit-transition:250ms;-moz-transition:250ms;transition:250ms}#chart-ca6b2b6b-5eb0-48cc-adec-6a68c75215b1 .graph &gt; .background{fill:black}#chart-ca6b2b6b-5eb0-48cc-adec-6a68c75215b1 .plot &gt; .background{fill:#111}#chart-ca6b2b6b-5eb0-48cc-adec-6a68c75215b1 .graph{fill:#999}#chart-ca6b2b6b-5eb0-48cc-adec-6a68c75215b1 text.no_data{fill:#eee}#chart-ca6b2b6b-5eb0-48cc-adec-6a68c75215b1 .title{fill:#eee}#chart-ca6b2b6b-5eb0-48cc-adec-6a68c75215b1 .legends .legend text{fill:#999}#chart-ca6b2b6b-5eb0-48cc-adec-6a68c75215b1 .legends .legend:hover text{fill:#eee}#chart-ca6b2b6b-5eb0-48cc-adec-6a68c75215b1 .axis .line{stroke:#eee}#chart-ca6b2b6b-5eb0-48cc-adec-6a68c75215b1 .axis .guide.line{stroke:#555}#chart-ca6b2b6b-5eb0-48cc-adec-6a68c75215b1 .axis .major.line{stroke:#999}#chart-ca6b2b6b-5eb0-48cc-adec-6a68c75215b1 .axis text.major{fill:#eee}#chart-ca6b2b6b-5eb0-48cc-adec-6a68c75215b1 .axis.y .guides:hover .guide.line,#chart-ca6b2b6b-5eb0-48cc-adec-6a68c75215b1 .line-graph .axis.x .guides:hover .guide.line,#chart-ca6b2b6b-5eb0-48cc-adec-6a68c75215b1 .stackedline-graph .axis.x .guides:hover .guide.line,#chart-ca6b2b6b-5eb0-48cc-adec-6a68c75215b1 .xy-graph .axis.x .guides:hover .guide.line{stroke:#eee}#chart-ca6b2b6b-5eb0-48cc-adec-6a68c75215b1 .axis .guides:hover text{fill:#eee}#chart-ca6b2b6b-5eb0-48cc-adec-6a68c75215b1 .reactive{fill-opacity:.8}#chart-ca6b2b6b-5eb0-48cc-adec-6a68c75215b1 .reactive.active,#chart-ca6b2b6b-5eb0-48cc-adec-6a68c75215b1 .active .reactive{fill-opacity:.4;stroke-width:4}#chart-ca6b2b6b-5eb0-48cc-adec-6a68c75215b1 .series text{fill:#eee}#chart-ca6b2b6b-5eb0-48cc-adec-6a68c75215b1 .tooltip rect{fill:#111;stroke:#eee;-webkit-transition:opacity 250ms;-moz-transition:opacity 250ms;transition:opacity 250ms}#chart-ca6b2b6b-5eb0-48cc-adec-6a68c75215b1 .tooltip .label{fill:#999}#chart-ca6b2b6b-5eb0-48cc-adec-6a68c75215b1 .tooltip .label{fill:#999}#chart-ca6b2b6b-5eb0-48cc-adec-6a68c75215b1 .tooltip .legend{font-size:.8em;fill:#555}#chart-ca6b2b6b-5eb0-48cc-adec-6a68c75215b1 .tooltip .x_label{font-size:.6em;fill:#eee}#chart-ca6b2b6b-5eb0-48cc-adec-6a68c75215b1 .tooltip .xlink{font-size:.5em;text-decoration:underline}#chart-ca6b2b6b-5eb0-48cc-adec-6a68c75215b1 .tooltip .value{font-size:1.5em}#chart-ca6b2b6b-5eb0-48cc-adec-6a68c75215b1 .map-element{fill:#111;stroke:#555 !important}#chart-ca6b2b6b-5eb0-48cc-adec-6a68c75215b1 .map-element .reactive{fill-opacity:inherit}#chart-ca6b2b6b-5eb0-48cc-adec-6a68c75215b1 .color-0,#chart-ca6b2b6b-5eb0-48cc-adec-6a68c75215b1 .color-0 a:visited{stroke:#ff5995;fill:#ff5995}#chart-ca6b2b6b-5eb0-48cc-adec-6a68c75215b1 .text-overlay .color-0 text{fill:black}
#chart-ca6b2b6b-5eb0-48cc-adec-6a68c75215b1 text.no_data{text-anchor:middle}#chart-ca6b2b6b-5eb0-48cc-adec-6a68c75215b1 .guide.line{fill:none}#chart-ca6b2b6b-5eb0-48cc-adec-6a68c75215b1 .centered{text-anchor:middle}#chart-ca6b2b6b-5eb0-48cc-adec-6a68c75215b1 .title{text-anchor:middle}#chart-ca6b2b6b-5eb0-48cc-adec-6a68c75215b1 .legends .legend text{fill-opacity:1}#chart-ca6b2b6b-5eb0-48cc-adec-6a68c75215b1 .axis.x text{text-anchor:middle}#chart-ca6b2b6b-5eb0-48cc-adec-6a68c75215b1 .axis.x:not(.web) text[transform]{text-anchor:start}#chart-ca6b2b6b-5eb0-48cc-adec-6a68c75215b1 .axis.x:not(.web) text[transform].backwards{text-anchor:end}#chart-ca6b2b6b-5eb0-48cc-adec-6a68c75215b1 .axis.y text{text-anchor:end}#chart-ca6b2b6b-5eb0-48cc-adec-6a68c75215b1 .axis.y text[transform].backwards{text-anchor:start}#chart-ca6b2b6b-5eb0-48cc-adec-6a68c75215b1 .axis.y2 text{text-anchor:start}#chart-ca6b2b6b-5eb0-48cc-adec-6a68c75215b1 .axis.y2 text[transform].backwards{text-anchor:end}#chart-ca6b2b6b-5eb0-48cc-adec-6a68c75215b1 .axis .guide.line{stroke-dasharray:4,4}#chart-ca6b2b6b-5eb0-48cc-adec-6a68c75215b1 .axis .major.guide.line{stroke-dasharray:6,6}#chart-ca6b2b6b-5eb0-48cc-adec-6a68c75215b1 .horizontal .axis.y .guide.line,#chart-ca6b2b6b-5eb0-48cc-adec-6a68c75215b1 .horizontal .axis.y2 .guide.line,#chart-ca6b2b6b-5eb0-48cc-adec-6a68c75215b1 .vertical .axis.x .guide.line{opacity:0}#chart-ca6b2b6b-5eb0-48cc-adec-6a68c75215b1 .horizontal .axis.always_show .guide.line,#chart-ca6b2b6b-5eb0-48cc-adec-6a68c75215b1 .vertical .axis.always_show .guide.line{opacity:1 !important}#chart-ca6b2b6b-5eb0-48cc-adec-6a68c75215b1 .axis.y .guides:hover .guide.line,#chart-ca6b2b6b-5eb0-48cc-adec-6a68c75215b1 .axis.y2 .guides:hover .guide.line,#chart-ca6b2b6b-5eb0-48cc-adec-6a68c75215b1 .axis.x .guides:hover .guide.line{opacity:1}#chart-ca6b2b6b-5eb0-48cc-adec-6a68c75215b1 .axis .guides:hover text{opacity:1}#chart-ca6b2b6b-5eb0-48cc-adec-6a68c75215b1 .nofill{fill:none}#chart-ca6b2b6b-5eb0-48cc-adec-6a68c75215b1 .subtle-fill{fill-opacity:.2}#chart-ca6b2b6b-5eb0-48cc-adec-6a68c75215b1 .dot{stroke-width:1px;fill-opacity:1}#chart-ca6b2b6b-5eb0-48cc-adec-6a68c75215b1 .dot.active{stroke-width:5px}#chart-ca6b2b6b-5eb0-48cc-adec-6a68c75215b1 .dot.negative{fill:transparent}#chart-ca6b2b6b-5eb0-48cc-adec-6a68c75215b1 text,#chart-ca6b2b6b-5eb0-48cc-adec-6a68c75215b1 tspan{stroke:none !important}#chart-ca6b2b6b-5eb0-48cc-adec-6a68c75215b1 .series text.active{opacity:1}#chart-ca6b2b6b-5eb0-48cc-adec-6a68c75215b1 .tooltip rect{fill-opacity:.95;stroke-width:.5}#chart-ca6b2b6b-5eb0-48cc-adec-6a68c75215b1 .tooltip text{fill-opacity:1}#chart-ca6b2b6b-5eb0-48cc-adec-6a68c75215b1 .showable{visibility:hidden}#chart-ca6b2b6b-5eb0-48cc-adec-6a68c75215b1 .showable.shown{visibility:visible}</style><script type="text/javascript">window.pygal = window.pygal || {};window.pygal.config = window.pygal.config || {};window.pygal.config['ca6b2b6b-5eb0-48cc-adec-6a68c75215b1'] = {"css": ["file://style.css", "file://graph.css"], "legend_at_bottom": false, "stroke_style": null, "missing_value_fill_truncation": "x", "tooltip_border_radius": 0, "inner_radius": 0, "min_scale": 4, "show_x_guides": false, "y_label_rotation": 0, "show_only_major_dots": false, "interpolation_precision": 250, "margin_right": null, "x_label_rotation": 0, "dynamic_print_values": false, "margin_top": null, "x_labels_major_count": null, "js": ["//kozea.github.io/pygal.js/2.0.x/pygal-tooltips.min.js"], "interpolation_parameters": {}, "no_prefix": false, "title": "Phra-Khanong 50", "x_labels": ["Jan", "Feb", "Mar", "Apr", "May", "Jun", "Jul", "Aug", "Sep", "Oct", "Nov", "Dec"], "width": 800, "range": null, "show_y_guides": true, "truncate_legend": null, "force_uri_protocol": null, "x_title": null, "interpolate": "cubic", "fill": true, "print_zeroes": true, "margin_left": null, "legend_box_size": 12, "show_minor_y_labels": true, "logarithmic": false, "legend_at_bottom_columns": null, "value_formatter": null, "stroke": true, "margin_bottom": null, "pretty_print": false, "show_minor_x_labels": true, "y_labels_major_count": null, "disable_xml_declaration": false, "y_labels_major_every": null, "truncate_label": null, "stack_from_top": false, "defs": [], "human_readable": false, "include_x_axis": false, "show_legend": true, "tooltip_fancy_mode": true, "y_title": null, "style": {"tooltip_font_size": 14, "major_label_font_family": "Consolas, \"Liberation Mono\", Menlo, Courier, monospace", "value_font_family": "Consolas, \"Liberation Mono\", Menlo, Courier, monospace", "foreground": "#999", "tooltip_font_family": "Consolas, \"Liberation Mono\", Menlo, Courier, monospace", "opacity": ".8", "font_family": "Consolas, \"Liberation Mono\", Menlo, Courier, monospace", "foreground_subtle": "#555", "colors": ["#ff5995", "#b6e354", "#feed6c", "#8cedff", "#9e6ffe", "#899ca1", "#f8f8f2", "#bf4646", "#516083", "#f92672", "#82b414", "#fd971f", "#56c2d6", "#808384", "#8c54fe", "#465457"], "foreground_strong": "#eee", "no_data_font_size": 64, "opacity_hover": ".4", "plot_background": "#111", "value_font_size": 16, "legend_font_family": "Consolas, \"Liberation Mono\", Menlo, Courier, monospace", "value_label_font_size": 10, "major_guide_stroke_dasharray": "6,6", "legend_font_size": 14, "label_font_family": "Consolas, \"Liberation Mono\", Menlo, Courier, monospace", "label_font_size": 10, "transition": "250ms", "title_font_size": 16, "value_label_font_family": "Consolas, \"Liberation Mono\", Menlo, Courier, monospace", "background": "black", "title_font_family": "Consolas, \"Liberation Mono\", Menlo, Courier, monospace", "value_colors": [], "no_data_font_family": "Consolas, \"Liberation Mono\", Menlo, Courier, monospace", "guide_stroke_dasharray": "4,4", "major_label_font_size": 10}, "strict": false, "xrange": null, "rounded_bars": null, "x_labels_major": null, "dots_size": 2.5, "show_dots": true, "order_min": null, "no_data_text": "No data", "y_labels": null, "print_labels": false, "spacing": 10, "y_labels_major": null, "print_values": false, "legends": ["Phra-Khanong"], "zero": 0, "height": 600, "margin": 20, "box_mode": "extremes", "show_y_labels": true, "inverse_y_axis": false, "max_scale": 16, "show_x_labels": true, "explicit_size": false, "x_value_formatter": null, "secondary_range": null, "x_labels_major_every": null, "half_pie": false}</script><script type="text/javascript" xlink:href="//kozea.github.io/pygal.js/2.0.x/pygal-tooltips.min.js" /></defs><title>Phra-Khanong 50</title><g class="graph line-graph vertical"><rect class="background" height="600" width="800" x="0" y="0" /><g class="plot" transform="translate(200, 46)"><rect class="background" height="514" width="579.2" x="0" y="0" /><g class="axis y"><path class="line" d="M0.000000 514.000000 h579.200000" /><g class="guides"><path class="guide line" d="M0.000000 497.724449 h579.200000" /><text class="" x="-5" y="501.2244489609155">240000.0</text><title>240000.0</title></g><g class="guides"><path class="major guide line" d="M0.000000 390.260099 h579.200000" /><text class="major" x="-5" y="393.76009855759827">250000.0</text><title>250000.0</title></g><g class="guides"><path class="guide line" d="M0.000000 282.795748 h579.200000" /><text class="" x="-5" y="286.2957481542811">260000.0</text><title>260000.0</title></g><g class="guides"><path class="guide line" d="M0.000000 175.331398 h579.200000" /><text class="" x="-5" y="178.8313977509639">270000.0</text><title>270000.0</title></g><g class="guides"><path class="guide line" d="M0.000000 67.867047 h579.200000" /><text class="" x="-5" y="71.36704734764663">280000.0</text><title>280000.0</title></g></g><g class="axis x"><g class="guides"><path class="line" d="M11.138462 0.000000 v514.000000" /><text class="" x="11.13846153846154" y="529.0">Jan</text></g><g class="guides"><path class="guide line" d="M61.767832 0.000000 v514.000000" /><text class="" x="61.76783216783217" y="529.0">Feb</text></g><g class="guides"><path class="guide line" d="M112.397203 0.000000 v514.000000" /><text class="" x="112.3972027972028" y="529.0">Mar</text></g><g class="guides"><path class="guide line" d="M163.026573 0.000000 v514.000000" /><text class="" x="163.02657342657344" y="529.0">Apr</text></g><g class="guides"><path class="guide line" d="M213.655944 0.000000 v514.000000" /><text class="" x="213.65594405594408" y="529.0">May</text></g><g class="guides"><path class="guide line" d="M264.285315 0.000000 v514.000000" /><text class="" x="264.2853146853147" y="529.0">Jun</text></g><g class="guides"><path class="guide line" d="M314.914685 0.000000 v514.000000" /><text class="" x="314.9146853146853" y="529.0">Jul</text></g><g class="guides"><path class="guide line" d="M365.544056 0.000000 v514.000000" /><text class="" x="365.54405594405597" y="529.0">Aug</text></g><g class="guides"><path class="guide line" d="M416.173427 0.000000 v514.000000" /><text class="" x="416.17342657342664" y="529.0">Sep</text></g><g class="guides"><path class="guide line" d="M466.802797 0.000000 v514.000000" /><text class="" x="466.8027972027973" y="529.0">Oct</text></g><g class="guides"><path class="guide line" d="M517.432168 0.000000 v514.000000" /><text class="" x="517.4321678321678" y="529.0">Nov</text></g><g class="guides"><path class="guide line" d="M568.061538 0.000000 v514.000000" /><text class="" x="568.0615384615386" y="529.0">Dec</text></g></g><g class="series serie-0 color-0"><path class="line reactive" d="M11.138462 514.000000 L11.138462 89.359917 11.340979 90.469135 11.543497 91.578301 11.746014 92.687360 11.948531 93.796261 12.151049 94.904950 12.353566 96.013376 12.556084 97.121484 12.758601 98.229223 12.961119 99.336538 13.163636 100.443378 13.366154 101.549690 13.568671 102.655421 13.771189 103.760517 13.973706 104.864927 14.176224 105.968597 14.378741 107.071474 14.581259 108.173506 14.783776 109.274639 14.986294 110.374821 15.188811 111.474000 15.391329 112.572122 15.593846 113.669134 15.796364 114.764983 15.998881 115.859617 16.201399 116.952983 16.403916 118.045029 16.606434 119.135700 16.808951 120.224944 17.011469 121.312710 17.213986 122.398942 17.416503 123.483590 17.619021 124.566599 17.821538 125.647918 18.024056 126.727493 18.226573 127.805271 18.429091 128.881200 18.631608 129.955227 18.834126 131.027299 19.036643 132.097363 19.239161 133.165366 19.441678 134.231255 19.644196 135.294978 19.846713 136.356482 20.049231 137.415714 20.251748 138.472621 20.454266 139.527150 20.656783 140.579248 20.859301 141.628863 21.061818 142.675942 21.264336 143.720431 21.466853 144.762279 21.669371 145.801431 21.871888 146.837837 22.074406 147.871441 22.276923 148.902192 22.479441 149.930037 22.681958 150.954923 22.884476 151.976797 23.086993 152.995607 23.289510 154.011299 23.492028 155.023820 23.694545 156.033119 23.897063 157.039141 24.099580 158.041834 24.302098 159.041146 24.504615 160.037023 24.707133 161.029413 24.909650 162.018262 25.112168 163.003519 25.314685 163.985129 25.517203 164.963041 25.719720 165.937201 25.922238 166.907556 26.124755 167.874055 26.327273 168.836643 26.529790 169.795268 26.732308 170.749877 26.934825 171.700418 27.137343 172.646837 27.339860 173.589082 27.542378 174.527100 27.744895 175.460838 27.947413 176.390243 28.149930 177.315262 28.352448 178.235843 28.554965 179.151932 28.757483 180.063477 28.960000 180.970425 29.162517 181.872723 29.365035 182.770319 29.567552 183.663159 29.770070 184.551190 29.972587 185.434361 30.175105 186.312617 30.377622 187.185906 30.580140 188.054176 30.782657 188.917373 30.985175 189.775444 31.187692 190.628337 31.390210 191.475999 31.592727 192.318378 31.795245 193.155419 31.997762 193.987071 32.200280 194.813280 32.402797 195.633994 32.605315 196.449160 32.807832 197.258724 33.010350 198.062635 33.212867 198.860840 33.415385 199.653284 33.617902 200.439917 33.820420 201.220684 34.022937 201.995533 34.225455 202.764411 34.427972 203.527266 34.630490 204.284044 34.833007 205.034693 35.035524 205.779159 35.238042 206.517391 35.440559 207.249334 35.643077 207.974937 35.845594 208.694146 36.048112 209.406909 36.250629 210.113172 36.453147 210.812883 36.655664 211.505990 36.858182 212.192438 37.060699 212.872176 37.263217 213.545151 37.465734 214.211309 37.668252 214.870598 37.870769 215.522965 38.073287 216.168357 38.275804 216.806722 38.478322 217.438006 38.680839 218.062157 38.883357 218.679121 39.085874 219.288847 39.288392 219.891281 39.490909 220.486370 39.693427 221.074061 39.895944 221.654302 40.098462 222.227040 40.300979 222.792222 40.503497 223.349795 40.706014 223.899706 40.908531 224.441902 41.111049 224.976331 41.313566 225.502940 41.516084 226.021676 41.718601 226.532486 41.921119 227.035317 42.123636 227.530117 42.326154 228.016832 42.528671 228.495409 42.731189 228.965797 42.933706 229.427942 43.136224 229.881791 43.338741 230.327291 43.541259 230.764389 43.743776 231.193034 43.946294 231.613171 44.148811 232.024748 44.351329 232.427712 44.553846 232.822011 44.756364 233.207591 44.958881 233.584400 45.161399 233.952384 45.363916 234.311492 45.566434 234.661670 45.768951 235.002864 45.971469 235.335024 46.173986 235.658095 46.376503 235.972024 46.579021 236.276760 46.781538 236.572248 46.984056 236.858437 47.186573 237.135274 47.389091 237.402704 47.591608 237.660677 47.794126 237.909138 47.996643 238.148036 48.199161 238.377317 48.401678 238.596928 48.604196 238.806816 48.806713 239.006929 49.009231 239.197214 49.211748 239.377619 49.414266 239.548089 49.616783 239.708572 49.819301 239.859016 50.021818 239.999368 50.224336 240.129575 50.426853 240.249583 50.629371 240.359341 50.831888 240.458794 51.034406 240.547892 51.236923 240.626580 51.439441 240.694805 51.641958 240.752516 51.844476 240.799659 52.046993 240.836181 52.249510 240.862029 52.452028 240.877151 52.654545 240.881493 52.857063 240.875004 53.059580 240.857630 53.262098 240.829317 53.464615 240.790015 53.667133 240.739668 53.869650 240.678226 54.072168 240.605634 54.274685 240.521840 54.477203 240.426792 54.679720 240.320435 54.882238 240.202719 55.084755 240.073588 55.287273 239.932992 55.489790 239.780877 55.692308 239.617190 55.894825 239.441878 56.097343 239.254888 56.299860 239.056169 56.502378 238.845665 56.704895 238.623326 56.907413 238.389098 57.109930 238.142929 57.312448 237.884764 57.514965 237.614553 57.717483 237.332241 57.920000 237.037776 58.122517 236.731104 58.325035 236.412175 58.527552 236.080933 58.730070 235.737327 58.932587 235.381304 59.135105 235.012811 59.337622 234.631794 59.540140 234.238202 59.742657 233.831982 59.945175 233.413079 60.147692 232.981443 60.350210 232.537019 60.552727 232.079755 60.755245 231.609598 60.957762 231.126496 61.160280 230.630395 61.362797 230.121243 61.565315 229.598986 61.767832 229.063573 61.970350 228.514983 62.172867 227.953332 62.375385 227.378768 62.577902 226.791441 62.780420 226.191498 62.982937 225.579088 63.185455 224.954361 63.387972 224.317464 63.590490 223.668547 63.793007 223.007757 63.995524 222.335244 64.198042 221.651157 64.400559 220.955643 64.603077 220.248852 64.805594 219.530932 65.008112 218.802032 65.210629 218.062301 65.413147 217.311887 65.615664 216.550938 65.818182 215.779604 66.020699 214.998034 66.223217 214.206375 66.425734 213.404776 66.628252 212.593387 66.830769 211.772355 67.033287 210.941830 67.235804 210.101960 67.438322 209.252894 67.640839 208.394780 67.843357 207.527767 68.045874 206.652003 68.248392 205.767638 68.450909 204.874820 68.653427 203.973698 68.855944 203.064420 69.058462 202.147135 69.260979 201.221991 69.463497 200.289138 69.666014 199.348723 69.868531 198.400897 70.071049 197.445806 70.273566 196.483600 70.476084 195.514428 70.678601 194.538437 70.881119 193.555778 71.083636 192.566598 71.286154 191.571046 71.488671 190.569271 71.691189 189.561421 71.893706 188.547646 72.096224 187.528093 72.298741 186.502911 72.501259 185.472250 72.703776 184.436257 72.906294 183.395081 73.108811 182.348872 73.311329 181.297777 73.513846 180.241945 73.716364 179.181526 73.918881 178.116667 74.121399 177.047517 74.323916 175.974225 74.526434 174.896939 74.728951 173.815809 74.931469 172.730983 75.133986 171.642609 75.336503 170.550836 75.539021 169.455813 75.741538 168.357689 75.944056 167.256611 76.146573 166.152730 76.349091 165.046193 76.551608 163.937148 76.754126 162.825746 76.956643 161.712134 77.159161 160.596461 77.361678 159.478876 77.564196 158.359527 77.766713 157.238562 77.969231 156.116132 78.171748 154.992384 78.374266 153.867467 78.576783 152.741529 78.779301 151.614720 78.981818 150.487187 79.184336 149.359080 79.386853 148.230547 79.589371 147.101738 79.791888 145.972799 79.994406 144.843881 80.196923 143.715131 80.399441 142.586699 80.601958 141.458733 80.804476 140.331382 81.006993 139.204795 81.209510 138.079119 81.412028 136.954504 81.614545 135.831098 81.817063 134.709051 82.019580 133.588510 82.222098 132.469624 82.424615 131.352543 82.627133 130.237414 82.829650 129.124386 83.032168 128.013608 83.234685 126.905229 83.437203 125.799397 83.639720 124.696261 83.842238 123.595970 84.044755 122.498671 84.247273 121.404515 84.449790 120.313649 84.652308 119.226222 84.854825 118.142383 85.057343 117.062281 85.259860 115.986063 85.462378 114.913880 85.664895 113.845878 85.867413 112.782208 86.069930 111.723018 86.272448 110.668455 86.474965 109.618670 86.677483 108.573811 86.880000 107.534026 87.082517 106.499464 87.285035 105.470273 87.487552 104.446603 87.690070 103.428602 87.892587 102.416418 88.095105 101.410200 88.297622 100.410098 88.500140 99.416259 88.702657 98.428832 88.905175 97.447966 89.107692 96.473809 89.310210 95.506511 89.512727 94.546220 89.715245 93.593083 89.917762 92.647251 90.120280 91.708872 90.322797 90.778094 90.525315 89.855067 90.727832 88.939938 90.930350 88.032856 91.132867 87.133970 91.335385 86.243429 91.537902 85.361382 91.740420 84.487976 91.942937 83.623361 92.145455 82.767685 92.347972 81.921097 92.550490 81.083746 92.753007 80.255780 92.955524 79.437348 93.158042 78.628598 93.360559 77.829680 93.563077 77.040741 93.765594 76.261931 93.968112 75.493398 94.170629 74.735291 94.373147 73.987758 94.575664 73.250949 94.778182 72.525011 94.980699 71.810094 95.183217 71.106345 95.385734 70.413915 95.588252 69.732951 95.790769 69.063601 95.993287 68.406016 96.195804 67.760343 96.398322 67.126730 96.600839 66.505328 96.803357 65.896283 97.005874 65.299746 97.208392 64.715864 97.410909 64.144787 97.613427 63.586662 97.815944 63.041639 98.018462 62.509866 98.220979 61.991492 98.423497 61.486665 98.626014 60.995535 98.828531 60.518249 99.031049 60.054957 99.233566 59.605807 99.436084 59.170947 99.638601 58.750527 99.841119 58.344695 100.043636 57.953600 100.246154 57.577390 100.448671 57.216215 100.651189 56.870221 100.853706 56.539560 101.056224 56.224378 101.258741 55.924825 101.461259 55.641049 101.663776 55.373199 101.866294 55.121423 102.068811 54.885871 102.271329 54.666691 102.473846 54.464031 102.676364 54.278041 102.878881 54.108868 103.081399 53.956662 103.283916 53.821571 103.486434 53.703744 103.688951 53.603329 103.891469 53.520475 104.093986 53.455331 104.296503 53.408046 104.499021 53.378767 104.701538 53.367644 104.904056 53.374826 105.106573 53.400461 105.309091 53.444697 105.511608 53.507684 105.714126 53.589569 105.916643 53.690502 106.119161 53.810632 106.321678 53.950106 106.524196 54.109074 106.726713 54.287685 106.929231 54.486086 107.131748 54.704426 107.334266 54.942855 107.536783 55.201521 107.739301 55.480572 107.941818 55.780158 108.144336 56.100426 108.346853 56.441525 108.549371 56.803605 108.751888 57.186814 108.954406 57.591300 109.156923 58.017212 109.359441 58.464698 109.561958 58.933908 109.764476 59.424990 109.966993 59.938093 110.169510 60.473365 110.372028 61.030955 110.574545 61.611012 110.777063 62.213684 110.979580 62.839120 111.182098 63.487468 111.384615 64.158878 111.587133 64.853497 111.789650 65.571475 111.992168 66.312961 112.194685 67.078102 112.397203 67.867047 112.599720 68.679888 112.802238 69.516483 113.004755 70.376632 113.207273 71.260137 113.409790 72.166798 113.612308 73.096415 113.814825 74.048791 114.017343 75.023724 114.219860 76.021017 114.422378 77.040469 114.624895 78.081882 114.827413 79.145057 115.029930 80.229793 115.232448 81.335892 115.434965 82.463155 115.637483 83.611382 115.840000 84.780374 116.042517 85.969932 116.245035 87.179856 116.447552 88.409947 116.650070 89.660007 116.852587 90.929835 117.055105 92.219233 117.257622 93.528000 117.460140 94.855939 117.662657 96.202849 117.865175 97.568532 118.067692 98.952788 118.270210 100.355418 118.472727 101.776223 118.675245 103.215003 118.877762 104.671559 119.080280 106.145692 119.282797 107.637202 119.485315 109.145891 119.687832 110.671559 119.890350 112.214007 120.092867 113.773036 120.295385 115.348445 120.497902 116.940037 120.700420 118.547612 120.902937 120.170970 121.105455 121.809912 121.307972 123.464240 121.510490 125.133753 121.713007 126.818253 121.915524 128.517540 122.118042 130.231414 122.320559 131.959678 122.523077 133.702131 122.725594 135.458575 122.928112 137.228809 123.130629 139.012635 123.333147 140.809854 123.535664 142.620265 123.738182 144.443671 123.940699 146.279871 124.143217 148.128667 124.345734 149.989858 124.548252 151.863247 124.750769 153.748633 124.953287 155.645818 125.155804 157.554602 125.358322 159.474785 125.560839 161.406169 125.763357 163.348555 125.965874 165.301743 126.168392 167.265533 126.370909 169.239727 126.573427 171.224125 126.775944 173.218529 126.978462 175.222738 127.180979 177.236553 127.383497 179.259776 127.586014 181.292207 127.788531 183.333647 127.991049 185.383896 128.193566 187.442755 128.396084 189.510026 128.598601 191.585508 128.801119 193.669002 129.003636 195.760310 129.206154 197.859231 129.408671 199.965568 129.611189 202.079119 129.813706 204.199687 130.016224 206.327072 130.218741 208.461075 130.421259 210.601495 130.623776 212.748135 130.826294 214.900795 131.028811 217.059275 131.231329 219.223377 131.433846 221.392901 131.636364 223.567648 131.838881 225.747418 132.041399 227.932013 132.243916 230.121232 132.446434 232.314878 132.648951 234.512749 132.851469 236.714649 133.053986 238.920376 133.256503 241.129732 133.459021 243.342517 133.661538 245.558533 133.864056 247.777580 134.066573 249.999458 134.269091 252.223969 134.471608 254.450914 134.674126 256.680092 134.876643 258.911304 135.079161 261.144353 135.281678 263.379037 135.484196 265.615158 135.686713 267.852517 135.889231 270.090915 136.091748 272.330151 136.294266 274.570028 136.496783 276.810345 136.699301 279.050903 136.901818 281.291504 137.104336 283.531947 137.306853 285.772034 137.509371 288.011565 137.711888 290.250341 137.914406 292.488164 138.116923 294.724832 138.319441 296.960148 138.521958 299.193912 138.724476 301.425925 138.926993 303.655987 139.129510 305.883900 139.332028 308.109463 139.534545 310.332479 139.737063 312.552747 139.939580 314.770068 140.142098 316.984243 140.344615 319.195072 140.547133 321.402357 140.749650 323.605899 140.952168 325.805497 141.154685 328.000953 141.357203 330.192067 141.559720 332.378641 141.762238 334.560474 141.964755 336.737368 142.167273 338.909124 142.369790 341.075541 142.572308 343.236422 142.774825 345.391566 142.977343 347.540774 143.179860 349.683848 143.382378 351.820587 143.584895 353.950793 143.787413 356.074266 143.989930 358.190807 144.192448 360.300217 144.394965 362.402297 144.597483 364.496846 144.800000 366.583667 145.002517 368.662560 145.205035 370.733325 145.407552 372.795763 145.610070 374.849676 145.812587 376.894863 146.015105 378.931125 146.217622 380.958264 146.420140 382.976079 146.622657 384.984373 146.825175 386.982945 147.027692 388.971596 147.230210 390.950126 147.432727 392.918338 147.635245 394.876031 147.837762 396.823006 148.040280 398.759064 148.242797 400.684005 148.445315 402.597631 148.647832 404.499742 148.850350 406.390139 149.052867 408.268622 149.255385 410.134993 149.457902 411.989052 149.660420 413.830600 149.862937 415.659437 150.065455 417.475364 150.267972 419.278183 150.470490 421.067693 150.673007 422.843696 150.875524 424.605992 151.078042 426.354382 151.280559 428.088667 151.483077 429.808647 151.685594 431.514123 151.888112 433.204897 152.090629 434.880768 152.293147 436.541537 152.495664 438.187006 152.698182 439.816975 152.900699 441.431244 153.103217 443.029615 153.305734 444.611888 153.508252 446.177864 153.710769 447.727343 153.913287 449.260127 154.115804 450.776016 154.318322 452.274811 154.520839 453.756312 154.723357 455.220321 154.925874 456.666638 155.128392 458.095064 155.330909 459.505399 155.533427 460.897444 155.735944 462.271001 155.938462 463.625869 156.140979 464.961850 156.343497 466.278744 156.546014 467.576352 156.748531 468.854475 156.951049 470.112914 157.153566 471.351469 157.356084 472.569940 157.558601 473.768130 157.761119 474.945837 157.963636 476.102864 158.166154 477.239011 158.368671 478.354079 158.571189 479.447868 158.773706 480.520179 158.976224 481.570813 159.178741 482.599571 159.381259 483.606253 159.583776 484.590661 159.786294 485.552594 159.988811 486.491854 160.191329 487.408241 160.393846 488.301556 160.596364 489.171600 160.798881 490.018174 161.001399 490.841078 161.203916 491.640113 161.406434 492.415080 161.608951 493.165779 161.811469 493.892012 162.013986 494.593579 162.216503 495.270280 162.419021 495.921917 162.621538 496.548291 162.824056 497.149201 163.026573 497.724449 163.229091 498.273893 163.431608 498.797622 163.634126 499.295783 163.836643 499.768522 164.039161 500.215986 164.241678 500.638321 164.444196 501.035674 164.646713 501.408192 164.849231 501.756021 165.051748 502.079308 165.254266 502.378199 165.456783 502.652841 165.659301 502.903380 165.861818 503.129964 166.064336 503.332738 166.266853 503.511849 166.469371 503.667444 166.671888 503.799670 166.874406 503.908673 167.076923 503.994599 167.279441 504.057595 167.481958 504.097808 167.684476 504.115385 167.886993 504.110471 168.089510 504.083214 168.292028 504.033760 168.494545 503.962255 168.697063 503.868847 168.899580 503.753682 169.102098 503.616906 169.304615 503.458666 169.507133 503.279109 169.709650 503.078380 169.912168 502.856628 170.114685 502.613998 170.317203 502.350637 170.519720 502.066691 170.722238 501.762308 170.924755 501.437633 171.127273 501.092813 171.329790 500.727995 171.532308 500.343326 171.734825 499.938952 171.937343 499.515019 172.139860 499.071675 172.342378 498.609065 172.544895 498.127336 172.747413 497.626636 172.949930 497.107110 173.152448 496.568905 173.354965 496.012168 173.557483 495.437045 173.760000 494.843683 173.962517 494.232228 174.165035 493.602828 174.367552 492.955628 174.570070 492.290775 174.772587 491.608416 174.975105 490.908698 175.177622 490.191766 175.380140 489.457768 175.582657 488.706850 175.785175 487.939159 175.987692 487.154841 176.190210 486.354042 176.392727 485.536911 176.595245 484.703592 176.797762 483.854233 177.000280 482.988980 177.202797 482.107980 177.405315 481.211379 177.607832 480.299325 177.810350 479.371962 178.012867 478.429439 178.215385 477.471902 178.417902 476.499497 178.620420 475.512371 178.822937 474.510670 179.025455 473.494542 179.227972 472.464132 179.430490 471.419587 179.633007 470.361054 179.835524 469.288679 180.038042 468.202609 180.240559 467.102991 180.443077 465.989971 180.645594 464.863696 180.848112 463.724312 181.050629 462.571966 181.253147 461.406805 181.455664 460.228974 181.658182 459.038621 181.860699 457.835893 182.063217 456.620935 182.265734 455.393894 182.468252 454.154918 182.670769 452.904152 182.873287 451.641743 183.075804 450.367838 183.278322 449.082584 183.480839 447.786126 183.683357 446.478612 183.885874 445.160187 184.088392 443.831000 184.290909 442.491196 184.493427 441.140921 184.695944 439.780323 184.898462 438.409548 185.100979 437.028742 185.303497 435.638053 185.506014 434.237626 185.708531 432.827609 185.911049 431.408148 186.113566 429.979389 186.316084 428.541479 186.518601 427.094565 186.721119 425.638793 186.923636 424.174310 187.126154 422.701262 187.328671 421.219797 187.531189 419.730060 187.733706 418.232198 187.936224 416.726358 188.138741 415.212686 188.341259 413.691329 188.543776 412.162434 188.746294 410.626146 188.948811 409.082614 189.151329 407.531983 189.353846 405.974399 189.556364 404.410010 189.758881 402.838962 189.961399 401.261402 190.163916 399.677475 190.366434 398.087330 190.568951 396.491112 190.771469 394.888968 190.973986 393.281044 191.176503 391.667487 191.379021 390.048444 191.581538 388.424062 191.784056 386.794486 191.986573 385.159864 192.189091 383.520341 192.391608 381.876066 192.594126 380.227183 192.796643 378.573841 192.999161 376.916184 193.201678 375.254361 193.404196 373.588517 193.606713 371.918799 193.809231 370.245354 194.011748 368.568328 194.214266 366.887869 194.416783 365.204121 194.619301 363.517233 194.821818 361.827350 195.024336 360.134619 195.226853 358.439187 195.429371 356.741201 195.631888 355.040807 195.834406 353.338151 196.036923 351.633380 196.239441 349.926641 196.441958 348.218080 196.644476 346.507844 196.846993 344.796080 197.049510 343.082933 197.252028 341.368551 197.454545 339.653081 197.657063 337.936668 197.859580 336.219460 198.062098 334.501602 198.264615 332.783242 198.467133 331.064527 198.669650 329.345602 198.872168 327.626614 199.074685 325.907710 199.277203 324.189037 199.479720 322.470741 199.682238 320.752968 199.884755 319.035866 200.087273 317.319580 200.289790 315.604258 200.492308 313.890046 200.694825 312.177090 200.897343 310.465537 201.099860 308.755535 201.302378 307.047228 201.504895 305.340765 201.707413 303.636291 201.909930 301.933953 202.112448 300.233897 202.314965 298.536271 202.517483 296.841221 202.720000 295.148893 202.922517 293.459434 203.125035 291.772991 203.327552 290.089710 203.530070 288.409737 203.732587 286.733220 203.935105 285.060305 204.137622 283.391138 204.340140 281.725867 204.542657 280.064637 204.745175 278.407595 204.947692 276.754888 205.150210 275.106663 205.352727 273.463065 205.555245 271.824243 205.757762 270.190341 205.960280 268.561507 206.162797 266.937887 206.365315 265.319629 206.567832 263.706878 206.770350 262.099781 206.972867 260.498484 207.175385 258.903135 207.377902 257.313880 207.580420 255.730865 207.782937 254.154237 207.985455 252.584143 208.187972 251.020729 208.390490 249.464142 208.593007 247.914528 208.795524 246.372034 208.998042 244.836806 209.200559 243.308992 209.403077 241.788737 209.605594 240.276189 209.808112 238.771493 210.010629 237.274797 210.213147 235.786247 210.415664 234.305989 210.618182 232.834171 210.820699 231.370939 211.023217 229.916438 211.225734 228.470817 211.428252 227.034221 211.630769 225.606798 211.833287 224.188693 212.035804 222.780053 212.238322 221.381026 212.440839 219.991756 212.643357 218.612392 212.845874 217.243080 213.048392 215.883965 213.250909 214.535195 213.453427 213.196917 213.655944 211.869277 213.858462 210.552391 214.060979 209.246252 214.263497 207.950823 214.466014 206.666067 214.668531 205.391948 214.871049 204.128427 215.073566 202.875468 215.276084 201.633033 215.478601 200.401086 215.681119 199.179589 215.883636 197.968506 216.086154 196.767798 216.288671 195.577429 216.491189 194.397362 216.693706 193.227559 216.896224 192.067984 217.098741 190.918600 217.301259 189.779368 217.503776 188.650252 217.706294 187.531216 217.908811 186.422221 218.111329 185.323230 218.313846 184.234207 218.516364 183.155115 218.718881 182.085915 218.921399 181.026572 219.123916 179.977047 219.326434 178.937305 219.528951 177.907307 219.731469 176.887016 219.933986 175.876396 220.136503 174.875409 220.339021 173.884018 220.541538 172.902186 220.744056 171.929875 220.946573 170.967050 221.149091 170.013671 221.351608 169.069704 221.554126 168.135109 221.756643 167.209850 221.959161 166.293891 222.161678 165.387193 222.364196 164.489720 222.566713 163.601434 222.769231 162.722299 222.971748 161.852277 223.174266 160.991331 223.376783 160.139424 223.579301 159.296519 223.781818 158.462579 223.984336 157.637566 224.186853 156.821443 224.389371 156.014174 224.591888 155.215721 224.794406 154.426047 224.996923 153.645115 225.199441 152.872887 225.401958 152.109327 225.604476 151.354397 225.806993 150.608061 226.009510 149.870281 226.212028 149.141019 226.414545 148.420240 226.617063 147.707906 226.819580 147.003978 227.022098 146.308422 227.224615 145.621199 227.427133 144.942271 227.629650 144.271603 227.832168 143.609157 228.034685 142.954895 228.237203 142.308782 228.439720 141.670778 228.642238 141.040848 228.844755 140.418954 229.047273 139.805059 229.249790 139.199126 229.452308 138.601118 229.654825 138.010997 229.857343 137.428727 230.059860 136.854270 230.262378 136.287589 230.464895 135.728648 230.667413 135.177408 230.869930 134.633833 231.072448 134.097886 231.274965 133.569529 231.477483 133.048726 231.680000 132.535439 231.882517 132.029631 232.085035 131.531264 232.287552 131.040303 232.490070 130.556709 232.692587 130.080446 232.895105 129.611476 233.097622 129.149763 233.300140 128.695268 233.502657 128.247956 233.705175 127.807788 233.907692 127.374728 234.110210 126.948739 234.312727 126.529783 234.515245 126.117823 234.717762 125.712822 234.920280 125.314743 235.122797 124.923549 235.325315 124.539203 235.527832 124.161668 235.730350 123.790905 235.932867 123.426879 236.135385 123.069553 236.337902 122.718888 236.540420 122.374848 236.742937 122.037396 236.945455 121.706494 237.147972 121.382106 237.350490 121.064194 237.553007 120.752721 237.755524 120.447650 237.958042 120.148944 238.160559 119.856566 238.363077 119.570479 238.565594 119.290645 238.768112 119.017027 238.970629 118.749588 239.173147 118.488292 239.375664 118.233100 239.578182 117.983976 239.780699 117.740883 239.983217 117.503783 240.185734 117.272640 240.388252 117.047415 240.590769 116.828073 240.793287 116.614576 240.995804 116.406886 241.198322 116.204967 241.400839 116.008782 241.603357 115.818293 241.805874 115.633463 242.008392 115.454255 242.210909 115.280632 242.413427 115.112557 242.615944 114.949993 242.818462 114.792902 243.020979 114.641248 243.223497 114.494993 243.426014 114.354099 243.628531 114.218531 243.831049 114.088251 244.033566 113.963221 244.236084 113.843405 244.438601 113.728765 244.641119 113.619265 244.843636 113.514866 245.046154 113.415533 245.248671 113.321227 245.451189 113.231913 245.653706 113.147551 245.856224 113.068106 246.058741 112.993541 246.261259 112.923817 246.463776 112.858899 246.666294 112.798748 246.868811 112.743328 247.071329 112.692602 247.273846 112.646532 247.476364 112.605081 247.678881 112.568213 247.881399 112.535889 248.083916 112.508074 248.286434 112.484729 248.488951 112.465818 248.691469 112.451303 248.893986 112.441147 249.096503 112.435314 249.299021 112.433766 249.501538 112.436466 249.704056 112.443376 249.906573 112.454460 250.109091 112.469680 250.311608 112.489000 250.514126 112.512382 250.716643 112.539789 250.919161 112.571184 251.121678 112.606530 251.324196 112.645789 251.526713 112.688925 251.729231 112.735901 251.931748 112.786678 252.134266 112.841220 252.336783 112.899491 252.539301 112.961452 252.741818 113.027067 252.944336 113.096299 253.146853 113.169109 253.349371 113.245462 253.551888 113.325320 253.754406 113.408647 253.956923 113.495403 254.159441 113.585554 254.361958 113.679061 254.564476 113.775888 254.766993 113.875996 254.969510 113.979350 255.172028 114.085912 255.374545 114.195645 255.577063 114.308511 255.779580 114.424474 255.982098 114.543496 256.184615 114.665541 256.387133 114.790571 256.589650 114.918548 256.792168 115.049437 256.994685 115.183199 257.197203 115.319798 257.399720 115.459197 257.602238 115.601357 257.804755 115.746243 258.007273 115.893817 258.209790 116.044041 258.412308 116.196880 258.614825 116.352295 258.817343 116.510249 259.019860 116.670706 259.222378 116.833628 259.424895 116.998978 259.627413 117.166719 259.829930 117.336813 260.032448 117.509224 260.234965 117.683915 260.437483 117.860848 260.640000 118.039986 260.842517 118.221293 261.045035 118.404730 261.247552 118.590261 261.450070 118.777848 261.652587 118.967455 261.855105 119.159045 262.057622 119.352579 262.260140 119.548022 262.462657 119.745336 262.665175 119.944483 262.867692 120.145427 263.070210 120.348131 263.272727 120.552557 263.475245 120.758668 263.677762 120.966427 263.880280 121.175798 264.082797 121.386742 264.285315 121.599223 264.487832 121.813206 264.690350 122.028671 264.892867 122.245600 265.095385 122.463975 265.297902 122.683779 265.500420 122.904992 265.702937 123.127599 265.905455 123.351580 266.107972 123.576917 266.310490 123.803594 266.513007 124.031592 266.715524 124.260894 266.918042 124.491481 267.120559 124.723335 267.323077 124.956440 267.525594 125.190777 267.728112 125.426328 267.930629 125.663075 268.133147 125.901001 268.335664 126.140087 268.538182 126.380317 268.740699 126.621671 268.943217 126.864133 269.145734 127.107684 269.348252 127.352307 269.550769 127.597983 269.753287 127.844695 269.955804 128.092426 270.158322 128.341156 270.360839 128.590869 270.563357 128.841547 270.765874 129.093171 270.968392 129.345725 271.170909 129.599189 271.373427 129.853547 271.575944 130.108780 271.778462 130.364870 271.980979 130.621801 272.183497 130.879553 272.386014 131.138109 272.588531 131.397452 272.791049 131.657563 272.993566 131.918424 273.196084 132.180019 273.398601 132.442328 273.601119 132.705334 273.803636 132.969020 274.006154 133.233367 274.208671 133.498358 274.411189 133.763974 274.613706 134.030199 274.816224 134.297013 275.018741 134.564400 275.221259 134.832341 275.423776 135.100819 275.626294 135.369816 275.828811 135.639313 276.031329 135.909294 276.233846 136.179740 276.436364 136.450633 276.638881 136.721956 276.841399 136.993691 277.043916 137.265819 277.246434 137.538324 277.448951 137.811187 277.651469 138.084391 277.853986 138.357917 278.056503 138.631748 278.259021 138.905866 278.461538 139.180253 278.664056 139.454891 278.866573 139.729763 279.069091 140.004851 279.271608 140.280136 279.474126 140.555601 279.676643 140.831229 279.879161 141.107000 280.081678 141.382898 280.284196 141.658905 280.486713 141.935003 280.689231 142.211173 280.891748 142.487399 281.094266 142.763662 281.296783 143.039944 281.499301 143.316229 281.701818 143.592497 281.904336 143.868731 282.106853 144.144913 282.309371 144.421025 282.511888 144.697050 282.714406 144.972969 282.916923 145.248766 283.119441 145.524421 283.321958 145.799918 283.524476 146.075238 283.726993 146.350363 283.929510 146.625276 284.132028 146.899959 284.334545 147.174394 284.537063 147.448563 284.739580 147.722448 284.942098 147.996032 285.144615 148.269297 285.347133 148.542224 285.549650 148.814796 285.752168 149.086996 285.954685 149.358805 286.157203 149.630205 286.359720 149.901179 286.562238 150.171709 286.764755 150.441777 286.967273 150.711365 287.169790 150.980456 287.372308 151.249031 287.574825 151.517073 287.777343 151.784563 287.979860 152.051485 288.182378 152.317820 288.384895 152.583550 288.587413 152.848658 288.789930 153.113125 288.992448 153.376934 289.194965 153.640067 289.397483 153.902507 289.600000 154.164235 289.802517 154.425233 290.005035 154.685484 290.207552 154.944970 290.410070 155.203673 290.612587 155.461576 290.815105 155.718659 291.017622 155.974906 291.220140 156.230299 291.422657 156.484820 291.625175 156.738451 291.827692 156.991174 292.030210 157.242971 292.232727 157.493825 292.435245 157.743718 292.637762 157.992631 292.840280 158.240548 293.042797 158.487450 293.245315 158.733319 293.447832 158.978138 293.650350 159.221888 293.852867 159.464553 294.055385 159.706113 294.257902 159.946552 294.460420 160.185851 294.662937 160.423993 294.865455 160.660959 295.067972 160.896733 295.270490 161.131295 295.473007 161.364629 295.675524 161.596716 295.878042 161.827539 296.080559 162.057079 296.283077 162.285319 296.485594 162.512242 296.688112 162.737828 296.890629 162.962061 297.093147 163.184923 297.295664 163.406396 297.498182 163.626461 297.700699 163.845101 297.903217 164.062299 298.105734 164.278036 298.308252 164.492295 298.510769 164.705057 298.713287 164.916306 298.915804 165.126022 299.118322 165.334189 299.320839 165.540788 299.523357 165.745802 299.725874 165.949213 299.928392 166.151002 300.130909 166.351153 300.333427 166.549647 300.535944 166.746466 300.738462 166.941593 300.940979 167.135010 301.143497 167.326698 301.346014 167.516641 301.548531 167.704820 301.751049 167.891218 301.953566 168.075816 302.156084 168.258597 302.358601 168.439543 302.561119 168.618636 302.763636 168.795858 302.966154 168.971192 303.168671 169.144619 303.371189 169.316123 303.573706 169.485684 303.776224 169.653285 303.978741 169.818909 304.181259 169.982537 304.383776 170.144152 304.586294 170.303735 304.788811 170.461270 304.991329 170.616737 305.193846 170.770120 305.396364 170.921401 305.598881 171.070561 305.801399 171.217582 306.003916 171.362448 306.206434 171.505140 306.408951 171.645641 306.611469 171.783931 306.813986 171.919995 307.016503 172.053813 307.219021 172.185368 307.421538 172.314643 307.624056 172.441619 307.826573 172.566278 308.029091 172.688603 308.231608 172.808576 308.434126 172.926178 308.636643 173.041393 308.839161 173.154202 309.041678 173.264588 309.244196 173.372533 309.446713 173.478018 309.649231 173.581026 309.851748 173.681539 310.054266 173.779540 310.256783 173.875010 310.459301 173.967932 310.661818 174.058288 310.864336 174.146060 311.066853 174.231230 311.269371 174.313780 311.471888 174.393693 311.674406 174.470951 311.876923 174.545535 312.079441 174.617429 312.281958 174.686613 312.484476 174.753071 312.686993 174.816785 312.889510 174.877736 313.092028 174.935907 313.294545 174.991280 313.497063 175.043837 313.699580 175.093561 313.902098 175.140433 314.104615 175.184436 314.307133 175.225552 314.509650 175.263762 314.712168 175.299050 314.914685 175.331398 315.117203 175.360794 315.319720 175.387255 315.522238 175.410807 315.724755 175.431474 315.927273 175.449279 316.129790 175.464246 316.332308 175.476402 316.534825 175.485768 316.737343 175.492371 316.939860 175.496233 317.142378 175.497380 317.344895 175.495836 317.547413 175.491625 317.749930 175.484771 317.952448 175.475298 318.154965 175.463231 318.357483 175.448595 318.560000 175.431412 318.762517 175.411709 318.965035 175.389508 319.167552 175.364835 319.370070 175.337713 319.572587 175.308166 319.775105 175.276220 319.977622 175.241899 320.180140 175.205226 320.382657 175.166226 320.585175 175.124923 320.787692 175.081341 320.990210 175.035506 321.192727 174.987440 321.395245 174.937169 321.597762 174.884717 321.800280 174.830107 322.002797 174.773365 322.205315 174.714514 322.407832 174.653579 322.610350 174.590584 322.812867 174.525554 323.015385 174.458512 323.217902 174.389483 323.420420 174.318491 323.622937 174.245561 323.825455 174.170716 324.027972 174.093982 324.230490 174.015382 324.433007 173.934940 324.635524 173.852682 324.838042 173.768631 325.040559 173.682811 325.243077 173.595247 325.445594 173.505963 325.648112 173.414983 325.850629 173.322332 326.053147 173.228034 326.255664 173.132113 326.458182 173.034593 326.660699 172.935500 326.863217 172.834856 327.065734 172.732687 327.268252 172.629016 327.470769 172.523868 327.673287 172.417268 327.875804 172.309238 328.078322 172.199805 328.280839 172.088992 328.483357 171.976823 328.685874 171.863322 328.888392 171.748515 329.090909 171.632424 329.293427 171.515076 329.495944 171.396493 329.698462 171.276699 329.900979 171.155721 330.103497 171.033581 330.306014 170.910303 330.508531 170.785913 330.711049 170.660435 330.913566 170.533892 331.116084 170.406309 331.318601 170.277710 331.521119 170.148120 331.723636 170.017563 331.926154 169.886063 332.128671 169.753645 332.331189 169.620332 332.533706 169.486149 332.736224 169.351121 332.938741 169.215271 333.141259 169.078624 333.343776 168.941204 333.546294 168.803036 333.748811 168.664143 333.951329 168.524551 334.153846 168.384282 334.356364 168.243363 334.558881 168.101816 334.761399 167.959666 334.963916 167.816938 335.166434 167.673655 335.368951 167.529843 335.571469 167.385524 335.773986 167.240725 335.976503 167.095468 336.179021 166.949778 336.381538 166.803680 336.584056 166.657197 336.786573 166.510354 336.989091 166.363176 337.191608 166.215686 337.394126 166.067909 337.596643 165.919870 337.799161 165.771591 338.001678 165.623099 338.204196 165.474416 338.406713 165.325568 338.609231 165.176578 338.811748 165.027471 339.014266 164.878271 339.216783 164.729003 339.419301 164.579690 339.621818 164.430357 339.824336 164.281028 340.026853 164.131728 340.229371 163.982481 340.431888 163.833311 340.634406 163.684243 340.836923 163.535300 341.039441 163.386507 341.241958 163.237888 341.444476 163.089468 341.646993 162.941271 341.849510 162.793320 342.052028 162.645642 342.254545 162.498258 342.457063 162.351195 342.659580 162.204476 342.862098 162.058126 343.064615 161.912168 343.267133 161.766628 343.469650 161.621529 343.672168 161.476895 343.874685 161.332752 344.077203 161.189123 344.279720 161.046032 344.482238 160.903504 344.684755 160.761563 344.887273 160.620234 345.089790 160.479540 345.292308 160.339506 345.494825 160.200156 345.697343 160.061515 345.899860 159.923607 346.102378 159.786456 346.304895 159.650086 346.507413 159.514522 346.709930 159.379788 346.912448 159.245908 347.114965 159.112906 347.317483 158.980808 347.520000 158.849636 347.722517 158.719416 347.925035 158.590171 348.127552 158.461927 348.330070 158.334706 348.532587 158.208534 348.735105 158.083435 348.937622 157.959433 349.140140 157.836552 349.342657 157.714817 349.545175 157.594252 349.747692 157.474881 349.950210 157.356728 350.152727 157.239819 350.355245 157.124176 350.557762 157.009825 350.760280 156.896789 350.962797 156.785094 351.165315 156.674762 351.367832 156.565819 351.570350 156.458289 351.772867 156.352196 351.975385 156.247564 352.177902 156.144417 352.380420 156.042781 352.582937 155.942679 352.785455 155.844135 352.987972 155.747174 353.190490 155.651820 353.393007 155.558098 353.595524 155.466031 353.798042 155.375644 354.000559 155.286961 354.203077 155.200007 354.405594 155.114805 354.608112 155.031381 354.810629 154.949757 355.013147 154.869960 355.215664 154.792012 355.418182 154.715939 355.620699 154.641763 355.823217 154.569511 356.025734 154.499206 356.228252 154.430872 356.430769 154.364533 356.633287 154.300215 356.835804 154.237941 357.038322 154.177735 357.240839 154.119622 357.443357 154.063625 357.645874 154.009771 357.848392 153.958081 358.050909 153.908582 358.253427 153.861297 358.455944 153.816250 358.658462 153.773466 358.860979 153.732969 359.063497 153.694784 359.266014 153.658933 359.468531 153.625443 359.671049 153.594337 359.873566 153.565640 360.076084 153.539375 360.278601 153.515567 360.481119 153.494240 360.683636 153.475419 360.886154 153.459128 361.088671 153.445391 361.291189 153.434232 361.493706 153.425676 361.696224 153.419748 361.898741 153.416470 362.101259 153.415868 362.303776 153.417966 362.506294 153.422788 362.708811 153.430358 362.911329 153.440701 363.113846 153.453841 363.316364 153.469803 363.518881 153.488610 363.721399 153.510287 363.923916 153.534857 364.126434 153.562347 364.328951 153.592779 364.531469 153.626178 364.733986 153.662568 364.936503 153.701974 365.139021 153.744420 365.341538 153.789929 365.544056 153.838528 365.746573 153.890232 365.949091 153.945036 366.151608 154.002927 366.354126 154.063890 366.556643 154.127912 366.759161 154.194981 366.961678 154.265083 367.164196 154.338205 367.366713 154.414333 367.569231 154.493454 367.771748 154.575555 367.974266 154.660623 368.176783 154.748644 368.379301 154.839605 368.581818 154.933493 368.784336 155.030295 368.986853 155.129996 369.189371 155.232585 369.391888 155.338047 369.594406 155.446369 369.796923 155.557539 369.999441 155.671542 370.201958 155.788366 370.404476 155.907998 370.606993 156.030423 370.809510 156.155629 371.012028 156.283602 371.214545 156.414329 371.417063 156.547797 371.619580 156.683993 371.822098 156.822903 372.024615 156.964514 372.227133 157.108813 372.429650 157.255786 372.632168 157.405421 372.834685 157.557703 373.037203 157.712620 373.239720 157.870158 373.442238 158.030304 373.644755 158.193045 373.847273 158.358368 374.049790 158.526259 374.252308 158.696704 374.454825 158.869691 374.657343 159.045207 374.859860 159.223238 375.062378 159.403770 375.264895 159.586791 375.467413 159.772287 375.669930 159.960245 375.872448 160.150652 376.074965 160.343494 376.277483 160.538759 376.480000 160.736432 376.682517 160.936501 376.885035 161.138952 377.087552 161.343772 377.290070 161.550947 377.492587 161.760466 377.695105 161.972313 377.897622 162.186476 378.100140 162.402942 378.302657 162.621697 378.505175 162.842728 378.707692 163.066022 378.910210 163.291565 379.112727 163.519345 379.315245 163.749347 379.517762 163.981559 379.720280 164.215968 379.922797 164.452559 380.125315 164.691320 380.327832 164.932238 380.530350 165.175299 380.732867 165.420490 380.935385 165.667798 381.137902 165.917209 381.340420 166.168710 381.542937 166.422288 381.745455 166.677929 381.947972 166.935621 382.150490 167.195350 382.353007 167.457102 382.555524 167.720865 382.758042 167.986625 382.960559 168.254369 383.163077 168.524083 383.365594 168.795755 383.568112 169.069371 383.770629 169.344917 383.973147 169.622381 384.175664 169.901750 384.378182 170.183009 384.580699 170.466145 384.783217 170.751146 384.985734 171.037998 385.188252 171.326688 385.390769 171.617203 385.593287 171.909528 385.795804 172.203652 385.998322 172.499560 386.200839 172.797240 386.403357 173.096677 386.605874 173.397860 386.808392 173.700774 387.010909 174.005406 387.213427 174.311743 387.415944 174.619772 387.618462 174.929479 387.820979 175.240852 388.023497 175.553876 388.226014 175.868539 388.428531 176.184827 388.631049 176.502728 388.833566 176.822227 389.036084 177.143311 389.238601 177.465968 389.441119 177.790183 389.643636 178.115944 389.846154 178.443238 390.048671 178.772050 390.251189 179.102368 390.453706 179.434179 390.656224 179.767469 390.858741 180.102225 391.061259 180.438433 391.263776 180.776081 391.466294 181.115155 391.668811 181.455642 391.871329 181.797528 392.073846 182.140801 392.276364 182.485446 392.478881 182.831452 392.681399 183.178803 392.883916 183.527488 393.086434 183.877493 393.288951 184.228804 393.491469 184.581408 393.693986 184.935293 393.896503 185.290444 394.099021 185.646848 394.301538 186.004493 394.504056 186.363365 394.706573 186.723450 394.909091 187.084736 395.111608 187.447208 395.314126 187.810855 395.516643 188.175662 395.719161 188.541616 395.921678 188.908704 396.124196 189.276912 396.326713 189.646228 396.529231 190.016639 396.731748 190.388129 396.934266 190.760688 397.136783 191.134301 397.339301 191.508954 397.541818 191.884635 397.744336 192.261331 397.946853 192.639028 398.149371 193.017713 398.351888 193.397372 398.554406 193.777992 398.756923 194.159561 398.959441 194.542064 399.161958 194.925489 399.364476 195.309821 399.566993 195.695049 399.769510 196.081158 399.972028 196.468136 400.174545 196.855968 400.377063 197.244643 400.579580 197.634146 400.782098 198.024464 400.984615 198.415584 401.187133 198.807492 401.389650 199.200176 401.592168 199.593622 401.794685 199.987817 401.997203 200.382747 402.199720 200.778400 402.402238 201.174761 402.604755 201.571818 402.807273 201.969558 403.009790 202.367966 403.212308 202.767031 403.414825 203.166738 403.617343 203.567074 403.819860 203.968026 404.022378 204.369581 404.224895 204.771726 404.427413 205.174446 404.629930 205.577730 404.832448 205.981563 405.034965 206.385932 405.237483 206.790825 405.440000 207.196227 405.642517 207.602125 405.845035 208.008507 406.047552 208.415359 406.250070 208.822667 406.452587 209.230418 406.655105 209.638600 406.857622 210.047199 407.060140 210.456201 407.262657 210.865593 407.465175 211.275362 407.667692 211.685495 407.870210 212.095978 408.072727 212.506798 408.275245 212.917942 408.477762 213.329397 408.680280 213.741149 408.882797 214.153184 409.085315 214.565491 409.287832 214.978055 409.490350 215.390863 409.692867 215.803902 409.895385 216.217159 410.097902 216.630620 410.300420 217.044271 410.502937 217.458101 410.705455 217.872095 410.907972 218.286240 411.110490 218.700523 411.313007 219.114931 411.515524 219.529450 411.718042 219.944067 411.920559 220.358769 412.123077 220.773543 412.325594 221.188374 412.528112 221.603251 412.730629 222.018159 412.933147 222.433086 413.135664 222.848017 413.338182 223.262941 413.540699 223.677843 413.743217 224.092710 413.945734 224.507529 414.148252 224.922287 414.350769 225.336971 414.553287 225.751566 414.755804 226.166060 414.958322 226.580440 415.160839 226.994693 415.363357 227.408804 415.565874 227.822761 415.768392 228.236550 415.970909 228.650159 416.173427 229.063573 416.375944 229.476777 416.578462 229.889740 416.780979 230.302430 416.983497 230.714813 417.186014 231.126856 417.388531 231.538527 417.591049 231.949792 417.793566 232.360618 417.996084 232.770973 418.198601 233.180822 418.401119 233.590134 418.603636 233.998874 418.806154 234.407010 419.008671 234.814509 419.211189 235.221337 419.413706 235.627463 419.616224 236.032852 419.818741 236.437471 420.021259 236.841288 420.223776 237.244269 420.426294 237.646382 420.628811 238.047593 420.831329 238.447869 421.033846 238.847178 421.236364 239.245485 421.438881 239.642759 421.641399 240.038965 421.843916 240.434071 422.046434 240.828045 422.248951 241.220852 422.451469 241.612460 422.653986 242.002835 422.856503 242.391945 423.059021 242.779757 423.261538 243.166237 423.464056 243.551352 423.666573 243.935070 423.869091 244.317357 424.071608 244.698180 424.274126 245.077507 424.476643 245.455303 424.679161 245.831537 424.881678 246.206175 425.084196 246.579183 425.286713 246.950530 425.489231 247.320181 425.691748 247.688104 425.894266 248.054265 426.096783 248.418632 426.299301 248.781172 426.501818 249.141851 426.704336 249.500637 426.906853 249.857495 427.109371 250.212395 427.311888 250.565301 427.514406 250.916182 427.716923 251.265003 427.919441 251.611733 428.121958 251.956337 428.324476 252.298784 428.526993 252.639039 428.729510 252.977071 428.932028 253.312845 429.134545 253.646328 429.337063 253.977488 429.539580 254.306292 429.742098 254.632706 429.944615 254.956698 430.147133 255.278234 430.349650 255.597281 430.552168 255.913806 430.754685 256.227777 430.957203 256.539159 431.159720 256.847921 431.362238 257.154029 431.564755 257.457449 431.767273 257.758150 431.969790 258.056097 432.172308 258.351258 432.374825 258.643599 432.577343 258.933088 432.779860 259.219692 432.982378 259.503377 433.184895 259.784111 433.387413 260.061860 433.589930 260.336591 433.792448 260.608271 433.994965 260.876868 434.197483 261.142347 434.400000 261.404677 434.602517 261.663824 434.805035 261.919754 435.007552 262.172435 435.210070 262.421835 435.412587 262.667918 435.615105 262.910654 435.817622 263.150008 436.020140 263.385948 436.222657 263.618440 436.425175 263.847451 436.627692 264.072949 436.830210 264.294900 437.032727 264.513271 437.235245 264.728030 437.437762 264.939142 437.640280 265.146576 437.842797 265.350297 438.045315 265.550274 438.247832 265.746472 438.450350 265.938859 438.652867 266.127402 438.855385 266.312067 439.057902 266.492822 439.260420 266.669634 439.462937 266.842469 439.665455 267.011294 439.867972 267.176077 440.070490 267.336784 440.273007 267.493382 440.475524 267.645838 440.678042 267.794119 440.880559 267.938193 441.083077 268.078025 441.285594 268.213583 441.488112 268.344835 441.690629 268.471745 441.893147 268.594283 442.095664 268.712414 442.298182 268.826106 442.500699 268.935325 442.703217 269.040039 442.905734 269.140214 443.108252 269.235818 443.310769 269.326817 443.513287 269.413178 443.715804 269.494868 443.918322 269.571854 444.120839 269.644103 444.323357 269.711582 444.525874 269.774258 444.728392 269.832098 444.930909 269.885069 445.133427 269.933137 445.335944 269.976270 445.538462 270.014435 445.740979 270.047598 445.943497 270.075727 446.146014 270.098788 446.348531 270.116748 446.551049 270.129574 446.753566 270.137234 446.956084 270.139694 447.158601 270.136921 447.361119 270.128882 447.563636 270.115544 447.766154 270.096874 447.968671 270.072838 448.171189 270.043405 448.373706 270.008540 448.576224 269.968211 448.778741 269.922384 448.981259 269.871027 449.183776 269.814106 449.386294 269.751589 449.588811 269.683442 449.791329 269.609632 449.993846 269.530127 450.196364 269.444892 450.398881 269.353896 450.601399 269.257105 450.803916 269.154485 451.006434 269.046005 451.208951 268.931630 451.411469 268.811328 451.613986 268.685066 451.816503 268.552811 452.019021 268.414529 452.221538 268.270187 452.424056 268.119753 452.626573 267.963194 452.829091 267.800475 453.031608 267.631565 453.234126 267.456430 453.436643 267.275038 453.639161 267.087354 453.841678 266.893347 454.044196 266.692982 454.246713 266.486227 454.449231 266.273049 454.651748 266.053415 454.854266 265.827291 455.056783 265.594645 455.259301 265.355444 455.461818 265.109654 455.664336 264.857243 455.866853 264.598177 456.069371 264.332423 456.271888 264.059949 456.474406 263.780721 456.676923 263.494706 456.879441 263.201870 457.081958 262.902182 457.284476 262.595608 457.486993 262.282115 457.689510 261.961670 457.892028 261.634239 458.094545 261.299790 458.297063 260.958290 458.499580 260.609705 458.702098 260.254003 458.904615 259.891150 459.107133 259.521114 459.309650 259.143861 459.512168 258.759358 459.714685 258.367572 459.917203 257.968471 460.119720 257.562020 460.322238 257.148188 460.524755 256.726940 460.727273 256.298245 460.929790 255.862068 461.132308 255.418377 461.334825 254.967139 461.537343 254.508320 461.739860 254.041888 461.942378 253.567809 462.144895 253.086051 462.347413 252.596580 462.549930 252.099363 462.752448 251.594368 462.954965 251.081561 463.157483 250.560909 463.360000 250.032379 463.562517 249.495938 463.765035 248.951553 463.967552 248.399191 464.170070 247.838819 464.372587 247.270403 464.575105 246.693911 464.777622 246.109310 464.980140 245.516566 465.182657 244.915647 465.385175 244.306519 465.587692 243.689150 465.790210 243.063506 465.992727 242.429554 466.195245 241.787261 466.397762 241.136595 466.600280 240.477521 466.802797 239.810008 467.005315 239.134040 467.207832 238.449679 467.410350 237.757004 467.612867 237.056094 467.815385 236.347029 468.017902 235.629888 468.220420 234.904752 468.422937 234.171698 468.625455 233.430808 468.827972 232.682161 469.030490 231.925835 469.233007 231.161911 469.435524 230.390468 469.638042 229.611585 469.840559 228.825342 470.043077 228.031819 470.245594 227.231095 470.448112 226.423250 470.650629 225.608362 470.853147 224.786512 471.055664 223.957779 471.258182 223.122242 471.460699 222.279982 471.663217 221.431077 471.865734 220.575607 472.068252 219.713652 472.270769 218.845291 472.473287 217.970603 472.675804 217.089668 472.878322 216.202567 473.080839 215.309377 473.283357 214.410178 473.485874 213.505051 473.688392 212.594074 473.890909 211.677328 474.093427 210.754891 474.295944 209.826843 474.498462 208.893264 474.700979 207.954233 474.903497 207.009830 475.106014 206.060133 475.308531 205.105224 475.511049 204.145180 475.713566 203.180082 475.916084 202.210010 476.118601 201.235041 476.321119 200.255258 476.523636 199.270737 476.726154 198.281560 476.928671 197.287806 477.131189 196.289554 477.333706 195.286883 477.536224 194.279874 477.738741 193.268605 477.941259 192.253157 478.143776 191.233608 478.346294 190.210039 478.548811 189.182528 478.751329 188.151156 478.953846 187.116001 479.156364 186.077143 479.358881 185.034663 479.561399 183.988638 479.763916 182.939149 479.966434 181.886276 480.168951 180.830097 480.371469 179.770692 480.573986 178.708141 480.776503 177.642524 480.979021 176.573919 481.181538 175.502407 481.384056 174.428066 481.586573 173.350977 481.789091 172.271218 481.991608 171.188870 482.194126 170.104012 482.396643 169.016723 482.599161 167.927082 482.801678 166.835170 483.004196 165.741066 483.206713 164.644849 483.409231 163.546599 483.611748 162.446396 483.814266 161.344318 484.016783 160.240446 484.219301 159.134858 484.421818 158.027635 484.624336 156.918855 484.826853 155.808599 485.029371 154.696946 485.231888 153.583976 485.434406 152.469767 485.636923 151.354400 485.839441 150.237953 486.041958 149.120507 486.244476 148.002141 486.446993 146.882934 486.649510 145.762966 486.852028 144.642317 487.054545 143.521065 487.257063 142.399291 487.459580 141.277074 487.662098 140.154493 487.864615 139.031629 488.067133 137.908559 488.269650 136.785365 488.472168 135.662125 488.674685 134.538919 488.877203 133.415827 489.079720 132.292928 489.282238 131.170301 489.484755 130.048026 489.687273 128.926182 489.889790 127.804850 490.092308 126.684108 490.294825 125.564036 490.497343 124.444713 490.699860 123.326220 490.902378 122.208635 491.104895 121.092038 491.307413 119.976509 491.509930 118.862127 491.712448 117.748971 491.914965 116.637121 492.117483 115.526657 492.320000 114.417658 492.522517 113.310204 492.725035 112.204373 492.927552 111.100246 493.130070 109.997903 493.332587 108.897421 493.535105 107.798882 493.737622 106.702365 493.940140 105.607948 494.142657 104.515713 494.345175 103.425737 494.547692 102.338101 494.750210 101.252884 494.952727 100.170166 495.155245 99.090026 495.357762 98.012543 495.560280 96.937798 495.762797 95.865869 495.965315 94.796836 496.167832 93.730779 496.370350 92.667777 496.572867 91.607910 496.775385 90.551257 496.977902 89.497898 497.180420 88.447912 497.382937 87.401378 497.585455 86.358377 497.787972 85.318988 497.990490 84.283289 498.193007 83.251362 498.395524 82.223284 498.598042 81.199137 498.800559 80.178998 499.003077 79.162948 499.205594 78.151067 499.408112 77.143433 499.610629 76.140126 499.813147 75.141227 500.015664 74.146813 500.218182 73.156965 500.420699 72.171763 500.623217 71.191285 500.825734 70.215611 501.028252 69.244822 501.230769 68.278995 501.433287 67.318212 501.635804 66.362550 501.838322 65.412091 502.040839 64.466912 502.243357 63.527095 502.445874 62.592718 502.648392 61.663860 502.850909 60.740602 503.053427 59.823023 503.255944 58.911202 503.458462 58.005219 503.660979 57.105154 503.863497 56.211085 504.066014 55.323092 504.268531 54.441256 504.471049 53.565654 504.673566 52.696368 504.876084 51.833476 505.078601 50.977058 505.281119 50.127193 505.483636 49.283961 505.686154 48.447442 505.888671 47.617714 506.091189 46.794858 506.293706 45.978952 506.496224 45.170078 506.698741 44.368313 506.901259 43.573737 507.103776 42.786430 507.306294 42.006472 507.508811 41.233942 507.711329 40.468919 507.913846 39.711483 508.116364 38.961714 508.318881 38.219690 508.521399 37.485492 508.723916 36.759199 508.926434 36.040891 509.128951 35.330646 509.331469 34.628545 509.533986 33.934667 509.736503 33.249091 509.939021 32.571898 510.141538 31.903165 510.344056 31.242974 510.546573 30.591404 510.749091 29.948533 510.951608 29.314442 511.154126 28.689210 511.356643 28.072916 511.559161 27.465641 511.761678 26.867463 511.964196 26.278462 512.166713 25.698718 512.369231 25.128309 512.571748 24.567317 512.774266 24.015819 512.976783 23.473896 513.179301 22.941627 513.381818 22.419091 513.584336 21.906369 513.786853 21.403539 513.989371 20.910682 514.191888 20.427875 514.394406 19.955200 514.596923 19.492736 514.799441 19.040562 515.001958 18.598757 515.204476 18.167402 515.406993 17.746575 515.609510 17.336356 515.812028 16.936825 516.014545 16.548061 516.217063 16.170144 516.419580 15.803153 516.622098 15.447167 516.824615 15.102267 517.027133 14.768531 517.229650 14.446040 517.432168 14.134872 517.634685 13.835087 517.837203 13.546659 518.039720 13.269543 518.242238 13.003693 518.444755 12.749065 518.647273 12.505611 518.849790 12.273287 519.052308 12.052046 519.254825 11.841844 519.457343 11.642635 519.659860 11.454373 519.862378 11.277012 520.064895 11.110507 520.267413 10.954812 520.469930 10.809882 520.672448 10.675671 520.874965 10.552133 521.077483 10.439223 521.280000 10.336895 521.482517 10.245104 521.685035 10.163803 521.887552 10.092948 522.090070 10.032493 522.292587 9.982392 522.495105 9.942599 522.697622 9.913069 522.900140 9.893756 523.102657 9.884615 523.305175 9.885600 523.507692 9.896666 523.710210 9.917766 523.912727 9.948855 524.115245 9.989888 524.317762 10.040819 524.520280 10.101603 524.722797 10.172193 524.925315 10.252544 525.127832 10.342611 525.330350 10.442347 525.532867 10.551708 525.735385 10.670648 525.937902 10.799120 526.140420 10.937080 526.342937 11.084482 526.545455 11.241281 526.747972 11.407429 526.950490 11.582883 527.153007 11.767596 527.355524 11.961523 527.558042 12.164618 527.760559 12.376836 527.963077 12.598130 528.165594 12.828456 528.368112 13.067768 528.570629 13.316020 528.773147 13.573166 528.975664 13.839161 529.178182 14.113959 529.380699 14.397515 529.583217 14.689783 529.785734 14.990718 529.988252 15.300273 530.190769 15.618403 530.393287 15.945063 530.595804 16.280207 530.798322 16.623789 531.000839 16.975765 531.203357 17.336087 531.405874 17.704711 531.608392 18.081590 531.810909 18.466680 532.013427 18.859935 532.215944 19.261308 532.418462 19.670756 532.620979 20.088231 532.823497 20.513688 533.026014 20.947082 533.228531 21.388366 533.431049 21.837497 533.633566 22.294427 533.836084 22.759111 534.038601 23.231504 534.241119 23.711559 534.443636 24.199232 534.646154 24.694477 534.848671 25.197248 535.051189 25.707499 535.253706 26.225185 535.456224 26.750261 535.658741 27.282680 535.861259 27.822397 536.063776 28.369367 536.266294 28.923543 536.468811 29.484881 536.671329 30.053334 536.873846 30.628857 537.076364 31.211404 537.278881 31.800931 537.481399 32.397390 537.683916 33.000737 537.886434 33.610926 538.088951 34.227911 538.291469 34.851647 538.493986 35.482088 538.696503 36.119188 538.899021 36.762902 539.101538 37.413185 539.304056 38.069990 539.506573 38.733272 539.709091 39.402985 539.911608 40.079084 540.114126 40.761524 540.316643 41.450258 540.519161 42.145241 540.721678 42.846427 540.924196 43.553771 541.126713 44.267227 541.329231 44.986750 541.531748 45.712293 541.734266 46.443812 541.936783 47.181260 542.139301 47.924593 542.341818 48.673764 542.544336 49.428727 542.746853 50.189438 542.949371 50.955851 543.151888 51.727919 543.354406 52.505598 543.556923 53.288842 543.759441 54.077604 543.961958 54.871841 544.164476 55.671505 544.366993 56.476551 544.569510 57.286934 544.772028 58.102609 544.974545 58.923528 545.177063 59.749648 545.379580 60.580922 545.582098 61.417304 545.784615 62.258750 545.987133 63.105213 546.189650 63.956647 546.392168 64.813008 546.594685 65.674249 546.797203 66.540326 546.999720 67.411191 547.202238 68.286801 547.404755 69.167108 547.607273 70.052068 547.809790 70.941635 548.012308 71.835763 548.214825 72.734407 548.417343 73.637521 548.619860 74.545059 548.822378 75.456977 549.024895 76.373227 549.227413 77.293765 549.429930 78.218545 549.632448 79.147521 549.834965 80.080648 550.037483 81.017880 550.240000 81.959172 550.442517 82.904478 550.645035 83.853752 550.847552 84.806949 551.050070 85.764022 551.252587 86.724928 551.455105 87.689619 551.657622 88.658050 551.860140 89.630176 552.062657 90.605951 552.265175 91.585329 552.467692 92.568266 552.670210 93.554714 552.872727 94.544629 553.075245 95.537965 553.277762 96.534676 553.480280 97.534717 553.682797 98.538042 553.885315 99.544606 554.087832 100.554362 554.290350 101.567266 554.492867 102.583271 554.695385 103.602333 554.897902 104.624405 555.100420 105.649441 555.302937 106.677397 555.505455 107.708227 555.707972 108.741885 555.910490 109.778325 556.113007 110.817501 556.315524 111.859369 556.518042 112.903882 556.720559 113.950996 556.923077 115.000663 557.125594 116.052840 557.328112 117.107479 557.530629 118.164536 557.733147 119.223965 557.935664 120.285720 558.138182 121.349756 558.340699 122.416026 558.543217 123.484486 558.745734 124.555090 558.948252 125.627792 559.150769 126.702547 559.353287 127.779309 559.555804 128.858031 559.758322 129.938670 559.960839 131.021179 560.163357 132.105512 560.365874 133.191625 560.568392 134.279470 560.770909 135.369003 560.973427 136.460178 561.175944 137.552950 561.378462 138.647273 561.580979 139.743100 561.783497 140.840388 561.986014 141.939089 562.188531 143.039159 562.391049 144.140551 562.593566 145.243221 562.796084 146.347122 562.998601 147.452209 563.201119 148.558437 563.403636 149.665759 563.606154 150.774130 563.808671 151.883505 564.011189 152.993837 564.213706 154.105082 564.416224 155.217194 564.618741 156.330126 564.821259 157.443834 565.023776 158.558272 565.226294 159.673394 565.428811 160.789154 565.631329 161.905508 565.833846 163.022409 566.036364 164.139811 566.238881 165.257670 566.441399 166.375939 566.643916 167.494573 566.846434 168.613527 567.048951 169.732754 567.251469 170.852209 567.453986 171.971846 567.656503 173.091621 567.859021 174.211486 568.061538 175.331398 568.061538 514.000000" /></g></g><g class="titles"><text class="title plot_title" x="400.0" y="26">Phra-Khanong 50</text></g><g class="plot overlay" transform="translate(200, 46)"><g class="series serie-0 color-0"><g class="dots"><circle class="dot reactive tooltip-trigger" cx="11.13846153846154" cy="89.3599174283101" r="2.5" /><desc class="value">278000</desc><desc class="x ">11.13846153846154</desc><desc class="y ">89.3599174283101</desc><desc class="x_label">Jan</desc></g><g class="dots"><circle class="dot reactive tooltip-trigger" cx="61.76783216783217" cy="229.06357295262245" r="2.5" /><desc class="value">265000</desc><desc class="x ">61.76783216783217</desc><desc class="y ">229.06357295262245</desc><desc class="x_label">Feb</desc></g><g class="dots"><circle class="dot reactive tooltip-trigger" cx="112.3972027972028" cy="67.86704734764663" r="2.5" /><desc class="value">280000</desc><desc class="x ">112.3972027972028</desc><desc class="y ">67.86704734764663</desc><desc class="x_label">Mar</desc></g><g class="dots"><circle class="dot reactive tooltip-trigger" cx="163.02657342657344" cy="497.7244489609155" r="2.5" /><desc class="value">240000</desc><desc class="x top">163.02657342657344</desc><desc class="y top">497.7244489609155</desc><desc class="x_label">Apr</desc></g><g class="dots"><circle class="dot reactive tooltip-trigger" cx="213.65594405594408" cy="211.86927688809175" r="2.5" /><desc class="value">266600</desc><desc class="x ">213.65594405594408</desc><desc class="y ">211.86927688809175</desc><desc class="x_label">May</desc></g><g class="dots"><circle class="dot reactive tooltip-trigger" cx="264.2853146853147" cy="121.59922254930524" r="2.5" /><desc class="value">275000</desc><desc class="x ">264.2853146853147</desc><desc class="y ">121.59922254930524</desc><desc class="x_label">Jun</desc></g><g class="dots"><circle class="dot reactive tooltip-trigger" cx="314.9146853146853" cy="175.3313977509639" r="2.5" /><desc class="value">270000</desc><desc class="x left">314.9146853146853</desc><desc class="y left">175.3313977509639</desc><desc class="x_label">Jul</desc></g><g class="dots"><circle class="dot reactive tooltip-trigger" cx="365.54405594405597" cy="153.83852767030038" r="2.5" /><desc class="value">272000</desc><desc class="x left">365.54405594405597</desc><desc class="y left">153.83852767030038</desc><desc class="x_label">Aug</desc></g><g class="dots"><circle class="dot reactive tooltip-trigger" cx="416.17342657342664" cy="229.06357295262245" r="2.5" /><desc class="value">265000</desc><desc class="x left">416.17342657342664</desc><desc class="y left">229.06357295262245</desc><desc class="x_label">Sep</desc></g><g class="dots"><circle class="dot reactive tooltip-trigger" cx="466.8027972027973" cy="239.81000799295418" r="2.5" /><desc class="value">264000</desc><desc class="x left">466.8027972027973</desc><desc class="y left">239.81000799295418</desc><desc class="x_label">Oct</desc></g><g class="dots"><circle class="dot reactive tooltip-trigger" cx="517.4321678321678" cy="14.134872145988027" r="2.5" /><desc class="value">285000</desc><desc class="x left">517.4321678321678</desc><desc class="y left">14.134872145988027</desc><desc class="x_label">Nov</desc></g><g class="dots"><circle class="dot reactive tooltip-trigger" cx="568.0615384615386" cy="175.3313977509639" r="2.5" /><desc class="value">270000</desc><desc class="x left">568.0615384615386</desc><desc class="y left">175.3313977509639</desc><desc class="x_label">Dec</desc></g></g></g><g class="plot text-overlay" transform="translate(200, 46)"><g class="series serie-0 color-0" /></g><g class="plot tooltip-overlay" transform="translate(200, 46)"><g class="tooltip" style="opacity: 0" transform="translate(0 0)"><rect class="tooltip-box" height="0" rx="0" ry="0" width="0" /><g class="text" /></g></g><g class="legends" transform="translate(10, 56)"><g class="legend reactive activate-serie" id="activate-serie-0"><rect class="color-0 reactive" height="12" width="12" x="0.0" y="1.0" /><text x="17.0" y="11.2">Phra-Khanong</text></g></g><g class="legends" transform="translate(790, 56)" /></g></svg>