<?xml version='1.0' encoding='utf-8'?>
<svg xmlns:xlink="http://www.w3.org/1999/xlink" class="pygal-chart" id="chart-c6f2768f-2583-43c2-9613-4b2c214aaabf" viewBox="0 0 800 600" xmlns="http://www.w3.org/2000/svg"><!--Generated with pygal 2.0.11 (etree) ©Kozea 2011-2015 on 2015-12-10--><!--http://pygal.org--><!--http://github.com/Kozea/pygal--><defs><style type="text/css">#chart-c6f2768f-2583-43c2-9613-4b2c214aaabf{-webkit-user-select:none;-webkit-font-smoothing:antialiased;font-family:Consolas,"Liberation Mono",Menlo,Courier,monospace}#chart-c6f2768f-2583-43c2-9613-4b2c214aaabf .title{font-family:Consolas,"Liberation Mono",Menlo,Courier,monospace;font-size:16px}#chart-c6f2768f-2583-43c2-9613-4b2c214aaabf .legends .legend text{font-family:Consolas,"Liberation Mono",Menlo,Courier,monospace;font-size:14px}#chart-c6f2768f-2583-43c2-9613-4b2c214aaabf .axis text{font-family:Consolas,"Liberation Mono",Menlo,Courier,monospace;font-size:10px}#chart-c6f2768f-2583-43c2-9613-4b2c214aaabf .axis text.major{font-family:Consolas,"Liberation Mono",Menlo,Courier,monospace;font-size:10px}#chart-c6f2768f-2583-43c2-9613-4b2c214aaabf .text-overlay text.value{font-family:Consolas,"Liberation Mono",Menlo,Courier,monospace;font-size:16px}#chart-c6f2768f-2583-43c2-9613-4b2c214aaabf .text-overlay text.label{font-family:Consolas,"Liberation Mono",Menlo,Courier,monospace;font-size:10px}#chart-c6f2768f-2583-43c2-9613-4b2c214aaabf .tooltip{font-family:Consolas,"Liberation Mono",Menlo,Courier,monospace;font-size:14px}#chart-c6f2768f-2583-43c2-9613-4b2c214aaabf text.no_data{font-family:Consolas,"Liberation Mono",Menlo,Courier,monospace;font-size:64px}
#chart-c6f2768f-2583-43c2-9613-4b2c214aaabf{background-color:black}#chart-c6f2768f-2583-43c2-9613-4b2c214aaabf path,#chart-c6f2768f-2583-43c2-9613-4b2c214aaabf line,#chart-c6f2768f-2583-43c2-9613-4b2c214aaabf rect,#chart-c6f2768f-2583-43c2-9613-4b2c214aaabf circle{-webkit-transition:250ms;-moz-transition:250ms;transition:250ms}#chart-c6f2768f-2583-43c2-9613-4b2c214aaabf .graph &gt; .background{fill:black}#chart-c6f2768f-2583-43c2-9613-4b2c214aaabf .plot &gt; .background{fill:#111}#chart-c6f2768f-2583-43c2-9613-4b2c214aaabf .graph{fill:#999}#chart-c6f2768f-2583-43c2-9613-4b2c214aaabf text.no_data{fill:#eee}#chart-c6f2768f-2583-43c2-9613-4b2c214aaabf .title{fill:#eee}#chart-c6f2768f-2583-43c2-9613-4b2c214aaabf .legends .legend text{fill:#999}#chart-c6f2768f-2583-43c2-9613-4b2c214aaabf .legends .legend:hover text{fill:#eee}#chart-c6f2768f-2583-43c2-9613-4b2c214aaabf .axis .line{stroke:#eee}#chart-c6f2768f-2583-43c2-9613-4b2c214aaabf .axis .guide.line{stroke:#555}#chart-c6f2768f-2583-43c2-9613-4b2c214aaabf .axis .major.line{stroke:#999}#chart-c6f2768f-2583-43c2-9613-4b2c214aaabf .axis text.major{fill:#eee}#chart-c6f2768f-2583-43c2-9613-4b2c214aaabf .axis.y .guides:hover .guide.line,#chart-c6f2768f-2583-43c2-9613-4b2c214aaabf .line-graph .axis.x .guides:hover .guide.line,#chart-c6f2768f-2583-43c2-9613-4b2c214aaabf .stackedline-graph .axis.x .guides:hover .guide.line,#chart-c6f2768f-2583-43c2-9613-4b2c214aaabf .xy-graph .axis.x .guides:hover .guide.line{stroke:#eee}#chart-c6f2768f-2583-43c2-9613-4b2c214aaabf .axis .guides:hover text{fill:#eee}#chart-c6f2768f-2583-43c2-9613-4b2c214aaabf .reactive{fill-opacity:.8}#chart-c6f2768f-2583-43c2-9613-4b2c214aaabf .reactive.active,#chart-c6f2768f-2583-43c2-9613-4b2c214aaabf .active .reactive{fill-opacity:.4;stroke-width:4}#chart-c6f2768f-2583-43c2-9613-4b2c214aaabf .series text{fill:#eee}#chart-c6f2768f-2583-43c2-9613-4b2c214aaabf .tooltip rect{fill:#111;stroke:#eee;-webkit-transition:opacity 250ms;-moz-transition:opacity 250ms;transition:opacity 250ms}#chart-c6f2768f-2583-43c2-9613-4b2c214aaabf .tooltip .label{fill:#999}#chart-c6f2768f-2583-43c2-9613-4b2c214aaabf .tooltip .label{fill:#999}#chart-c6f2768f-2583-43c2-9613-4b2c214aaabf .tooltip .legend{font-size:.8em;fill:#555}#chart-c6f2768f-2583-43c2-9613-4b2c214aaabf .tooltip .x_label{font-size:.6em;fill:#eee}#chart-c6f2768f-2583-43c2-9613-4b2c214aaabf .tooltip .xlink{font-size:.5em;text-decoration:underline}#chart-c6f2768f-2583-43c2-9613-4b2c214aaabf .tooltip .value{font-size:1.5em}#chart-c6f2768f-2583-43c2-9613-4b2c214aaabf .map-element{fill:#111;stroke:#555 !important}#chart-c6f2768f-2583-43c2-9613-4b2c214aaabf .map-element .reactive{fill-opacity:inherit}#chart-c6f2768f-2583-43c2-9613-4b2c214aaabf .color-0,#chart-c6f2768f-2583-43c2-9613-4b2c214aaabf .color-0 a:visited{stroke:#ff5995;fill:#ff5995}#chart-c6f2768f-2583-43c2-9613-4b2c214aaabf .text-overlay .color-0 text{fill:black}
#chart-c6f2768f-2583-43c2-9613-4b2c214aaabf text.no_data{text-anchor:middle}#chart-c6f2768f-2583-43c2-9613-4b2c214aaabf .guide.line{fill:none}#chart-c6f2768f-2583-43c2-9613-4b2c214aaabf .centered{text-anchor:middle}#chart-c6f2768f-2583-43c2-9613-4b2c214aaabf .title{text-anchor:middle}#chart-c6f2768f-2583-43c2-9613-4b2c214aaabf .legends .legend text{fill-opacity:1}#chart-c6f2768f-2583-43c2-9613-4b2c214aaabf .axis.x text{text-anchor:middle}#chart-c6f2768f-2583-43c2-9613-4b2c214aaabf .axis.x:not(.web) text[transform]{text-anchor:start}#chart-c6f2768f-2583-43c2-9613-4b2c214aaabf .axis.x:not(.web) text[transform].backwards{text-anchor:end}#chart-c6f2768f-2583-43c2-9613-4b2c214aaabf .axis.y text{text-anchor:end}#chart-c6f2768f-2583-43c2-9613-4b2c214aaabf .axis.y text[transform].backwards{text-anchor:start}#chart-c6f2768f-2583-43c2-9613-4b2c214aaabf .axis.y2 text{text-anchor:start}#chart-c6f2768f-2583-43c2-9613-4b2c214aaabf .axis.y2 text[transform].backwards{text-anchor:end}#chart-c6f2768f-2583-43c2-9613-4b2c214aaabf .axis .guide.line{stroke-dasharray:4,4}#chart-c6f2768f-2583-43c2-9613-4b2c214aaabf .axis .major.guide.line{stroke-dasharray:6,6}#chart-c6f2768f-2583-43c2-9613-4b2c214aaabf .horizontal .axis.y .guide.line,#chart-c6f2768f-2583-43c2-9613-4b2c214aaabf .horizontal .axis.y2 .guide.line,#chart-c6f2768f-2583-43c2-9613-4b2c214aaabf .vertical .axis.x .guide.line{opacity:0}#chart-c6f2768f-2583-43c2-9613-4b2c214aaabf .horizontal .axis.always_show .guide.line,#chart-c6f2768f-2583-43c2-9613-4b2c214aaabf .vertical .axis.always_show .guide.line{opacity:1 !important}#chart-c6f2768f-2583-43c2-9613-4b2c214aaabf .axis.y .guides:hover .guide.line,#chart-c6f2768f-2583-43c2-9613-4b2c214aaabf .axis.y2 .guides:hover .guide.line,#chart-c6f2768f-2583-43c2-9613-4b2c214aaabf .axis.x .guides:hover .guide.line{opacity:1}#chart-c6f2768f-2583-43c2-9613-4b2c214aaabf .axis .guides:hover text{opacity:1}#chart-c6f2768f-2583-43c2-9613-4b2c214aaabf .nofill{fill:none}#chart-c6f2768f-2583-43c2-9613-4b2c214aaabf .subtle-fill{fill-opacity:.2}#chart-c6f2768f-2583-43c2-9613-4b2c214aaabf .dot{stroke-width:1px;fill-opacity:1}#chart-c6f2768f-2583-43c2-9613-4b2c214aaabf .dot.active{stroke-width:5px}#chart-c6f2768f-2583-43c2-9613-4b2c214aaabf .dot.negative{fill:transparent}#chart-c6f2768f-2583-43c2-9613-4b2c214aaabf text,#chart-c6f2768f-2583-43c2-9613-4b2c214aaabf tspan{stroke:none !important}#chart-c6f2768f-2583-43c2-9613-4b2c214aaabf .series text.active{opacity:1}#chart-c6f2768f-2583-43c2-9613-4b2c214aaabf .tooltip rect{fill-opacity:.95;stroke-width:.5}#chart-c6f2768f-2583-43c2-9613-4b2c214aaabf .tooltip text{fill-opacity:1}#chart-c6f2768f-2583-43c2-9613-4b2c214aaabf .showable{visibility:hidden}#chart-c6f2768f-2583-43c2-9613-4b2c214aaabf .showable.shown{visibility:visible}</style><script type="text/javascript">window.pygal = window.pygal || {};window.pygal.config = window.pygal.config || {};window.pygal.config['c6f2768f-2583-43c2-9613-4b2c214aaabf'] = {"css": ["file://style.css", "file://graph.css"], "legend_at_bottom": false, "stroke_style": null, "missing_value_fill_truncation": "x", "tooltip_border_radius": 0, "inner_radius": 0, "min_scale": 4, "show_x_guides": false, "y_label_rotation": 0, "show_only_major_dots": false, "interpolation_precision": 250, "margin_right": null, "x_label_rotation": 0, "dynamic_print_values": false, "margin_top": null, "x_labels_major_count": null, "js": ["//kozea.github.io/pygal.js/2.0.x/pygal-tooltips.min.js"], "interpolation_parameters": {}, "no_prefix": false, "title": "Sanam-Pao 50", "x_labels": ["Jan", "Feb", "Mar", "Apr", "May", "Jun", "Jul", "Aug", "Sep", "Oct", "Nov", "Dec"], "width": 800, "range": null, "show_y_guides": true, "truncate_legend": null, "force_uri_protocol": null, "x_title": null, "interpolate": "cubic", "fill": true, "print_zeroes": true, "margin_left": null, "legend_box_size": 12, "show_minor_y_labels": true, "logarithmic": false, "legend_at_bottom_columns": null, "value_formatter": null, "stroke": true, "margin_bottom": null, "pretty_print": false, "show_minor_x_labels": true, "y_labels_major_count": null, "disable_xml_declaration": false, "y_labels_major_every": null, "truncate_label": null, "stack_from_top": false, "defs": [], "human_readable": false, "include_x_axis": false, "show_legend": true, "tooltip_fancy_mode": true, "y_title": null, "style": {"tooltip_font_size": 14, "major_label_font_family": "Consolas, \"Liberation Mono\", Menlo, Courier, monospace", "value_font_family": "Consolas, \"Liberation Mono\", Menlo, Courier, monospace", "foreground": "#999", "tooltip_font_family": "Consolas, \"Liberation Mono\", Menlo, Courier, monospace", "opacity": ".8", "font_family": "Consolas, \"Liberation Mono\", Menlo, Courier, monospace", "foreground_subtle": "#555", "colors": ["#ff5995", "#b6e354", "#feed6c", "#8cedff", "#9e6ffe", "#899ca1", "#f8f8f2", "#bf4646", "#516083", "#f92672", "#82b414", "#fd971f", "#56c2d6", "#808384", "#8c54fe", "#465457"], "foreground_strong": "#eee", "no_data_font_size": 64, "opacity_hover": ".4", "plot_background": "#111", "value_font_size": 16, "legend_font_family": "Consolas, \"Liberation Mono\", Menlo, Courier, monospace", "value_label_font_size": 10, "major_guide_stroke_dasharray": "6,6", "legend_font_size": 14, "label_font_family": "Consolas, \"Liberation Mono\", Menlo, Courier, monospace", "label_font_size": 10, "transition": "250ms", "title_font_size": 16, "value_label_font_family": "Consolas, \"Liberation Mono\", Menlo, Courier, monospace", "background": "black", "title_font_family": "Consolas, \"Liberation Mono\", Menlo, Courier, monospace", "value_colors": [], "no_data_font_family": "Consolas, \"Liberation Mono\", Menlo, Courier, monospace", "guide_stroke_dasharray": "4,4", "major_label_font_size": 10}, "strict": false, "xrange": null, "rounded_bars": null, "x_labels_major": null, "dots_size": 2.5, "show_dots": true, "order_min": null, "no_data_text": "No data", "y_labels": null, "print_labels": false, "spacing": 10, "y_labels_major": null, "print_values": false, "legends": ["Sanam-Pao"], "zero": 0, "height": 600, "margin": 20, "box_mode": "extremes", "show_y_labels": true, "inverse_y_axis": false, "max_scale": 16, "show_x_labels": true, "explicit_size": false, "x_value_formatter": null, "secondary_range": null, "x_labels_major_every": null, "half_pie": false}</script><script type="text/javascript" xlink:href="//kozea.github.io/pygal.js/2.0.x/pygal-tooltips.min.js" /></defs><title>Sanam-Pao 50</title><g class="graph line-graph vertical"><rect class="background" height="600" width="800" x="0" y="0" /><g class="plot" transform="translate(175, 46)"><rect class="background" height="514" width="604.4" x="0" y="0" /><g class="axis y"><path class="line" d="M0.000000 514.000000 h604.400000" /><g class="guides"><path class="guide line" d="M0.000000 485.060564 h604.400000" /><text class="" x="-5" y="488.56056383833464">100000.0</text><title>100000.0</title></g><g class="guides"><path class="guide line" d="M0.000000 431.149117 h604.400000" /><text class="" x="-5" y="434.6491168684146">104000.0</text><title>104000.0</title></g><g class="guides"><path class="guide line" d="M0.000000 377.237670 h604.400000" /><text class="" x="-5" y="380.7376698984946">108000.0</text><title>108000.0</title></g><g class="guides"><path class="guide line" d="M0.000000 323.326223 h604.400000" /><text class="" x="-5" y="326.8262229285745">112000.0</text><title>112000.0</title></g><g class="guides"><path class="guide line" d="M0.000000 269.414776 h604.400000" /><text class="" x="-5" y="272.91477595865445">116000.0</text><title>116000.0</title></g><g class="guides"><path class="guide line" d="M0.000000 215.503329 h604.400000" /><text class="" x="-5" y="219.00332898873444">120000.0</text><title>120000.0</title></g><g class="guides"><path class="guide line" d="M0.000000 161.591882 h604.400000" /><text class="" x="-5" y="165.09188201881437">124000.0</text><title>124000.0</title></g><g class="guides"><path class="guide line" d="M0.000000 107.680435 h604.400000" /><text class="" x="-5" y="111.18043504889437">128000.0</text><title>128000.0</title></g><g class="guides"><path class="guide line" d="M0.000000 53.768988 h604.400000" /><text class="" x="-5" y="57.268988078974246">132000.0</text><title>132000.0</title></g></g><g class="axis x"><g class="guides"><path class="line" d="M11.623077 0.000000 v514.000000" /><text class="" x="11.623076923076923" y="529.0">Jan</text></g><g class="guides"><path class="guide line" d="M64.455245 0.000000 v514.000000" /><text class="" x="64.45524475524475" y="529.0">Feb</text></g><g class="guides"><path class="guide line" d="M117.287413 0.000000 v514.000000" /><text class="" x="117.28741258741258" y="529.0">Mar</text></g><g class="guides"><path class="guide line" d="M170.119580 0.000000 v514.000000" /><text class="" x="170.11958041958042" y="529.0">Apr</text></g><g class="guides"><path class="guide line" d="M222.951748 0.000000 v514.000000" /><text class="" x="222.95174825174826" y="529.0">May</text></g><g class="guides"><path class="guide line" d="M275.783916 0.000000 v514.000000" /><text class="" x="275.78391608391604" y="529.0">Jun</text></g><g class="guides"><path class="guide line" d="M328.616084 0.000000 v514.000000" /><text class="" x="328.6160839160839" y="529.0">Jul</text></g><g class="guides"><path class="guide line" d="M381.448252 0.000000 v514.000000" /><text class="" x="381.4482517482517" y="529.0">Aug</text></g><g class="guides"><path class="guide line" d="M434.280420 0.000000 v514.000000" /><text class="" x="434.28041958041956" y="529.0">Sep</text></g><g class="guides"><path class="guide line" d="M487.112587 0.000000 v514.000000" /><text class="" x="487.1125874125874" y="529.0">Oct</text></g><g class="guides"><path class="guide line" d="M539.944755 0.000000 v514.000000" /><text class="" x="539.9447552447552" y="529.0">Nov</text></g><g class="guides"><path class="guide line" d="M592.776923 0.000000 v514.000000" /><text class="" x="592.776923076923" y="529.0">Dec</text></g></g><g class="series serie-0 color-0"><path class="line reactive" d="M11.623077 514.000000 L11.623077 215.503329 11.834406 216.102471 12.045734 216.701581 12.257063 217.300628 12.468392 217.899580 12.679720 218.498405 12.891049 219.097073 13.102378 219.695550 13.313706 220.293806 13.525035 220.891809 13.736364 221.489527 13.947692 222.086928 14.159021 222.683982 14.370350 223.280656 14.581678 223.876918 14.793007 224.472738 15.004336 225.068083 15.215664 225.662921 15.426993 226.257222 15.638322 226.850953 15.849650 227.444083 16.060979 228.036581 16.272308 228.628414 16.483636 229.219550 16.694965 229.809959 16.906294 230.399609 17.117622 230.988468 17.328951 231.576504 17.540280 232.163685 17.751608 232.749981 17.962937 233.335359 18.174266 233.919788 18.385594 234.503236 18.596923 235.085672 18.808252 235.667063 19.019580 236.247379 19.230909 236.826587 19.442238 237.404656 19.653566 237.981555 19.864895 238.557251 20.076224 239.131713 20.287552 239.704909 20.498881 240.276809 20.710210 240.847379 20.921538 241.416589 21.132867 241.984406 21.344196 242.550800 21.555524 243.115739 21.766853 243.679190 21.978182 244.241122 22.189510 244.801504 22.400839 245.360304 22.612168 245.917491 22.823497 246.473032 23.034825 247.026896 23.246154 247.579051 23.457483 248.129466 23.668811 248.678110 23.880140 249.224950 24.091469 249.769954 24.302797 250.313092 24.514126 250.854332 24.725455 251.393641 24.936783 251.930989 25.148112 252.466343 25.359441 252.999673 25.570769 253.530945 25.782098 254.060130 25.993427 254.587194 26.204755 255.112107 26.416084 255.634837 26.627413 256.155352 26.838741 256.673620 27.050070 257.189610 27.261399 257.703291 27.472727 258.214630 27.684056 258.723596 27.895385 259.230157 28.106713 259.734282 28.318042 260.235939 28.529371 260.735097 28.740699 261.231723 28.952028 261.725786 29.163357 262.217255 29.374685 262.706098 29.586014 263.192282 29.797343 263.675778 30.008671 264.156552 30.220000 264.634573 30.431329 265.109811 30.642657 265.582232 30.853986 266.051805 31.065315 266.518499 31.276643 266.982283 31.487972 267.443123 31.699301 267.900990 31.910629 268.355850 32.121958 268.807673 32.333287 269.256427 32.544615 269.702080 32.755944 270.144601 32.967273 270.583958 33.178601 271.020119 33.389930 271.453052 33.601259 271.882727 33.812587 272.309111 34.023916 272.732173 34.235245 273.151881 34.446573 273.568203 34.657902 273.981108 34.869231 274.390564 35.080559 274.796540 35.291888 275.199004 35.503217 275.597924 35.714545 275.993268 35.925874 276.385006 36.137203 276.773104 36.348531 277.157533 36.559860 277.538260 36.771189 277.915253 36.982517 278.288480 37.193846 278.657911 37.405175 279.023514 37.616503 279.385256 37.827832 279.743106 38.039161 280.097033 38.250490 280.447005 38.461818 280.792990 38.673147 281.134957 38.884476 281.472874 39.095804 281.806709 39.307133 282.136431 39.518462 282.462008 39.729790 282.783408 39.941119 283.100600 40.152448 283.413553 40.363776 283.722234 40.575105 284.026611 40.786434 284.326654 40.997762 284.622331 41.209091 284.913609 41.420420 285.200458 41.631748 285.482846 41.843077 285.760740 42.054406 286.034110 42.265734 286.302924 42.477063 286.567150 42.688392 286.826756 42.899720 287.081711 43.111049 287.331983 43.322378 287.577541 43.533706 287.818353 43.745035 288.054387 43.956364 288.285612 44.167692 288.511995 44.379021 288.733506 44.590350 288.950113 44.801678 289.161783 45.013007 289.368487 45.224336 289.570190 45.435664 289.766864 45.646993 289.958474 45.858322 290.144990 46.069650 290.326381 46.280979 290.502614 46.492308 290.673658 46.703636 290.839482 46.914965 291.000053 47.126294 291.155340 47.337622 291.305312 47.548951 291.449936 47.760280 291.589181 47.971608 291.723016 48.182937 291.851408 48.394266 291.974327 48.605594 292.091740 48.816923 292.203617 49.028252 292.309924 49.239580 292.410631 49.450909 292.505706 49.662238 292.595117 49.873566 292.678833 50.084895 292.756822 50.296224 292.829053 50.507552 292.895493 50.718881 292.956112 50.930210 293.010876 51.141538 293.059756 51.352867 293.102719 51.564196 293.139733 51.775524 293.170768 51.986853 293.195790 52.198182 293.214770 52.409510 293.227674 52.620839 293.234472 52.832168 293.235131 53.043497 293.229620 53.254825 293.217908 53.466154 293.199963 53.677483 293.175753 53.888811 293.145246 54.100140 293.108411 54.311469 293.065217 54.522797 293.015631 54.734126 292.959622 54.945455 292.897158 55.156783 292.828208 55.368112 292.752740 55.579441 292.670723 55.790769 292.582124 56.002098 292.486912 56.213427 292.385056 56.424755 292.276523 56.636084 292.161283 56.847413 292.039303 57.058741 291.910553 57.270070 291.774999 57.481399 291.632611 57.692727 291.483357 57.904056 291.327206 58.115385 291.164125 58.326713 290.994083 58.538042 290.817049 58.749371 290.632990 58.960699 290.441876 59.172028 290.243674 59.383357 290.038352 59.594685 289.825881 59.806014 289.606226 60.017343 289.379358 60.228671 289.145244 60.440000 288.903852 60.651329 288.655152 60.862657 288.399111 61.073986 288.135698 61.285315 287.864880 61.496643 287.586628 61.707972 287.300908 61.919301 287.007689 62.130629 286.706940 62.341958 286.398628 62.553287 286.082723 62.764615 285.759193 62.975944 285.428005 63.187273 285.089129 63.398601 284.742532 63.609930 284.388184 63.821259 284.026052 64.032587 283.656105 64.243916 283.278310 64.455245 282.892638 64.666573 282.499076 64.877902 282.097701 65.089231 281.688607 65.300559 281.271892 65.511888 280.847650 65.723217 280.415979 65.934545 279.976975 66.145874 279.530733 66.357203 279.077350 66.568531 278.616921 66.779860 278.149543 66.991189 277.675312 67.202517 277.194325 67.413846 276.706676 67.625175 276.212462 67.836503 275.711780 68.047832 275.204725 68.259161 274.691394 68.470490 274.171882 68.681818 273.646286 68.893147 273.114702 69.104476 272.577225 69.315804 272.033953 69.527133 271.484981 69.738462 270.930404 69.949790 270.370320 70.161119 269.804825 70.372448 269.234014 70.583776 268.657983 70.795105 268.076830 71.006434 267.490648 71.217762 266.899536 71.429091 266.303589 71.640420 265.702903 71.851748 265.097574 72.063077 264.487698 72.274406 263.873371 72.485734 263.254690 72.697063 262.631751 72.908392 262.004649 73.119720 261.373481 73.331049 260.738342 73.542378 260.099330 73.753706 259.456539 73.965035 258.810067 74.176364 258.160009 74.387692 257.506461 74.599021 256.849520 74.810350 256.189281 75.021678 255.525841 75.233007 254.859295 75.444336 254.189741 75.655664 253.517273 75.866993 252.841988 76.078322 252.163982 76.289650 251.483352 76.500979 250.800192 76.712308 250.114601 76.923636 249.426672 77.134965 248.736503 77.346294 248.044190 77.557622 247.349829 77.768951 246.653515 77.980280 245.955346 78.191608 245.255416 78.402937 244.553823 78.614266 243.850662 78.825594 243.146029 79.036923 242.440020 79.248252 241.732733 79.459580 241.024262 79.670909 240.314703 79.882238 239.604154 80.093566 238.892709 80.304895 238.180466 80.516224 237.467519 80.727552 236.753966 80.938881 236.039902 81.150210 235.325424 81.361538 234.610627 81.572867 233.895607 81.784196 233.180462 81.995524 232.465286 82.206853 231.750176 82.418182 231.035228 82.629510 230.320538 82.840839 229.606203 83.052168 228.892317 83.263497 228.178978 83.474825 227.466282 83.686154 226.754324 83.897483 226.043201 84.108811 225.333009 84.320140 224.623843 84.531469 223.915801 84.742797 223.208977 84.954126 222.503469 85.165455 221.799372 85.376783 221.096782 85.588112 220.395796 85.799441 219.696509 86.010769 218.999018 86.222098 218.303419 86.433427 217.609808 86.644755 216.918280 86.856084 216.228933 87.067413 215.541862 87.278741 214.857163 87.490070 214.174932 87.701399 213.495266 87.912727 212.818260 88.124056 212.144011 88.335385 211.472615 88.546713 210.804167 88.758042 210.138764 88.969371 209.476503 89.180699 208.817478 89.392028 208.161787 89.603357 207.509525 89.814685 206.860789 90.026014 206.215673 90.237343 205.574276 90.448671 204.936692 90.660000 204.303018 90.871329 203.673350 91.082657 203.047784 91.293986 202.426416 91.505315 201.809342 91.716643 201.196659 91.927972 200.588461 92.139301 199.984847 92.350629 199.385911 92.561958 198.791749 92.773287 198.202458 92.984615 197.618134 93.195944 197.038874 93.407273 196.464772 93.618601 195.895925 93.829930 195.332430 94.041259 194.774381 94.252587 194.221877 94.463916 193.675012 94.675245 193.133882 94.886573 192.598585 95.097902 192.069215 95.309231 191.545869 95.520559 191.028643 95.731888 190.517633 95.943217 190.012935 96.154545 189.514646 96.365874 189.022861 96.577203 188.537677 96.788531 188.059189 96.999860 187.587494 97.211189 187.122688 97.422517 186.664866 97.633846 186.214126 97.845175 185.770563 98.056503 185.334273 98.267832 184.905352 98.479161 184.483897 98.690490 184.070003 98.901818 183.663766 99.113147 183.265284 99.324476 182.874651 99.535804 182.491964 99.747133 182.117319 99.958462 181.750812 100.169790 181.392539 100.381119 181.042597 100.592448 180.701081 100.803776 180.368087 101.015105 180.043712 101.226434 179.728051 101.437762 179.421202 101.649091 179.123259 101.860420 178.834319 102.071748 178.554478 102.283077 178.283832 102.494406 178.022477 102.705734 177.770510 102.917063 177.528026 103.128392 177.295122 103.339720 177.071893 103.551049 176.858436 103.762378 176.654847 103.973706 176.461222 104.185035 176.277657 104.396364 176.104248 104.607692 175.941091 104.819021 175.788282 105.030350 175.645918 105.241678 175.514094 105.453007 175.392907 105.664336 175.282453 105.875664 175.182827 106.086993 175.094127 106.298322 175.016447 106.509650 174.949884 106.720979 174.894535 106.932308 174.850494 107.143636 174.817860 107.354965 174.796726 107.566294 174.787190 107.777622 174.789348 107.988951 174.803296 108.200280 174.829129 108.411608 174.866945 108.622937 174.916838 108.834266 174.978906 109.045594 175.053244 109.256923 175.139948 109.468252 175.239114 109.679580 175.350839 109.890909 175.475219 110.102238 175.612350 110.313566 175.762327 110.524895 175.925247 110.736224 176.101207 110.947552 176.290301 111.158881 176.492627 111.370210 176.708280 111.581538 176.937356 111.792867 177.179952 112.004196 177.436163 112.215524 177.706087 112.426853 177.989817 112.638182 178.287452 112.849510 178.599087 113.060839 178.924818 113.272168 179.264741 113.483497 179.618953 113.694825 179.987548 113.906154 180.370625 114.117483 180.768278 114.328811 181.180603 114.540140 181.607697 114.751469 182.049657 114.962797 182.506577 115.174126 182.978554 115.385455 183.465684 115.596783 183.968064 115.808112 184.485789 116.019441 185.018955 116.230769 185.567659 116.442098 186.131997 116.653427 186.712064 116.864755 187.307957 117.076084 187.919772 117.287413 188.547606 117.498741 189.191514 117.710070 189.851402 117.921399 190.527132 118.132727 191.218571 118.344056 191.925583 118.555385 192.648031 118.766713 193.385782 118.978042 194.138699 119.189371 194.906647 119.400699 195.689491 119.612028 196.487095 119.823357 197.299325 120.034685 198.126043 120.246014 198.967117 120.457343 199.822409 120.668671 200.691784 120.880000 201.575107 121.091329 202.472244 121.302657 203.383057 121.513986 204.307413 121.725315 205.245175 121.936643 206.196208 122.147972 207.160377 122.359301 208.137547 122.570629 209.127582 122.781958 210.130346 122.993287 211.145705 123.204615 212.173523 123.415944 213.213664 123.627273 214.265993 123.838601 215.330376 124.049930 216.406675 124.261259 217.494757 124.472587 218.594486 124.683916 219.705726 124.895245 220.828341 125.106573 221.962198 125.317902 223.107159 125.529231 224.263090 125.740559 225.429856 125.951888 226.607321 126.163217 227.795349 126.374545 228.993806 126.585874 230.202556 126.797203 231.421463 127.008531 232.650392 127.219860 233.889208 127.431189 235.137776 127.642517 236.395959 127.853846 237.663624 128.065175 238.940633 128.276503 240.226853 128.487832 241.522147 128.699161 242.826380 128.910490 244.139416 129.121818 245.461122 129.333147 246.791360 129.544476 248.129996 129.755804 249.476894 129.967133 250.831919 130.178462 252.194936 130.389790 253.565809 130.601119 254.944402 130.812448 256.330581 131.023776 257.724210 131.235105 259.125153 131.446434 260.533276 131.657762 261.948442 131.869091 263.370518 132.080420 264.799366 132.291748 266.234852 132.503077 267.676840 132.714406 269.125195 132.925734 270.579782 133.137063 272.040465 133.348392 273.507109 133.559720 274.979579 133.771049 276.457738 133.982378 277.941453 134.193706 279.430586 134.405035 280.925004 134.616364 282.424570 134.827692 283.929149 135.039021 285.438607 135.250350 286.952806 135.461678 288.471613 135.673007 289.994892 135.884336 291.522507 136.095664 293.054322 136.306993 294.590204 136.518322 296.130015 136.729650 297.673622 136.940979 299.220887 137.152308 300.771677 137.363636 302.325856 137.574965 303.883288 137.786294 305.443838 137.997622 307.007370 138.208951 308.573750 138.420280 310.142841 138.631608 311.714509 138.842937 313.288618 139.054266 314.865032 139.265594 316.443617 139.476923 318.024237 139.688252 319.606756 139.899580 321.191040 140.110909 322.776952 140.322238 324.364358 140.533566 325.953121 140.744895 327.543108 140.956224 329.134181 141.167552 330.726207 141.378881 332.319049 141.590210 333.912572 141.801538 335.506641 142.012867 337.101121 142.224196 338.695875 142.435524 340.290769 142.646853 341.885668 142.858182 343.480435 143.069510 345.074935 143.280839 346.669034 143.492168 348.262596 143.703497 349.855485 143.914825 351.447566 144.126154 353.038704 144.337483 354.628763 144.548811 356.217607 144.760140 357.805103 144.971469 359.391113 145.182797 360.975503 145.394126 362.558138 145.605455 364.138881 145.816783 365.717598 146.028112 367.294153 146.239441 368.868412 146.450769 370.440237 146.662098 372.009495 146.873427 373.576050 147.084755 375.139765 147.296084 376.700507 147.507413 378.258140 147.718741 379.812527 147.930070 381.363535 148.141399 382.911027 148.352727 384.454868 148.564056 385.994922 148.775385 387.531055 148.986713 389.063131 149.198042 390.591015 149.409371 392.114571 149.620699 393.633663 149.832028 395.148157 150.043357 396.657918 150.254685 398.162808 150.466014 399.662695 150.677343 401.157441 150.888671 402.646911 151.100000 404.130971 151.311329 405.609485 151.522657 407.082317 151.733986 408.549332 151.945315 410.010395 152.156643 411.465370 152.367972 412.914122 152.579301 414.356515 152.790629 415.792415 153.001958 417.221686 153.213287 418.644192 153.424615 420.059798 153.635944 421.468368 153.847273 422.869768 154.058601 424.263862 154.269930 425.650514 154.481259 427.029590 154.692587 428.400953 154.903916 429.764469 155.115245 431.120002 155.326573 432.467416 155.537902 433.806577 155.749231 435.137348 155.960559 436.459595 156.171888 437.773182 156.383217 439.077974 156.594545 440.373836 156.805874 441.660631 157.017203 442.938225 157.228531 444.206482 157.439860 445.465267 157.651189 446.714445 157.862517 447.953880 158.073846 449.183436 158.285175 450.402979 158.496503 451.612373 158.707832 452.811482 158.919161 454.000172 159.130490 455.178306 159.341818 456.345750 159.553147 457.502368 159.764476 458.648025 159.975804 459.782585 160.187133 460.905914 160.398462 462.017874 160.609790 463.118332 160.821119 464.207152 161.032448 465.284198 161.243776 466.349336 161.455105 467.402429 161.666434 468.443342 161.877762 469.471941 162.089091 470.488089 162.300420 471.491651 162.511748 472.482492 162.723077 473.460476 162.934406 474.425469 163.145734 475.377334 163.357063 476.315936 163.568392 477.241141 163.779720 478.152812 163.991049 479.050814 164.202378 479.935012 164.413706 480.805271 164.625035 481.661454 164.836364 482.503427 165.047692 483.331055 165.259021 484.144201 165.470350 484.942731 165.681678 485.726509 165.893007 486.495400 166.104336 487.249269 166.315664 487.987979 166.526993 488.711396 166.738322 489.419385 166.949650 490.111809 167.160979 490.788534 167.372308 491.449424 167.583636 492.094343 167.794965 492.723157 168.006294 493.335731 168.217622 493.931927 168.428951 494.511612 168.640280 495.074650 168.851608 495.620906 169.062937 496.150244 169.274266 496.662528 169.485594 497.157624 169.696923 497.635395 169.908252 498.095708 170.119580 498.538426 170.330909 498.963452 170.542238 499.370847 170.753566 499.760709 170.964895 500.133138 171.176224 500.488230 171.387552 500.826086 171.598881 501.146803 171.810210 501.450481 172.021538 501.737218 172.232867 502.007113 172.444196 502.260264 172.655524 502.496771 172.866853 502.716731 173.078182 502.920243 173.289510 503.107406 173.500839 503.278319 173.712168 503.433081 173.923497 503.571789 174.134825 503.694543 174.346154 503.801441 174.557483 503.892582 174.768811 503.968065 174.980140 504.027988 175.191469 504.072450 175.402797 504.101549 175.614126 504.115385 175.825455 504.114055 176.036783 504.097659 176.248112 504.066295 176.459441 504.020062 176.670769 503.959058 176.882098 503.883382 177.093427 503.793134 177.304755 503.688410 177.516084 503.569311 177.727413 503.435934 177.938741 503.288379 178.150070 503.126743 178.361399 502.951127 178.572727 502.761627 178.784056 502.558344 178.995385 502.341375 179.206713 502.110820 179.418042 501.866777 179.629371 501.609344 179.840699 501.338620 180.052028 501.054704 180.263357 500.757695 180.474685 500.447691 180.686014 500.124791 180.897343 499.789093 181.108671 499.440697 181.320000 499.079700 181.531329 498.706202 181.742657 498.320301 181.953986 497.922095 182.165315 497.511684 182.376643 497.089166 182.587972 496.654640 182.799301 496.208204 183.010629 495.749958 183.221958 495.279998 183.433287 494.798426 183.644615 494.305338 183.855944 493.800834 184.067273 493.285012 184.278601 492.757971 184.489930 492.219810 184.701259 491.670627 184.912587 491.110520 185.123916 490.539590 185.335245 489.957933 185.546573 489.365650 185.757902 488.762838 185.969231 488.149596 186.180559 487.526023 186.391888 486.892217 186.603217 486.248278 186.814545 485.594303 187.025874 484.930391 187.237203 484.256642 187.448531 483.573154 187.659860 482.880025 187.871189 482.177353 188.082517 481.465239 188.293846 480.743780 188.505175 480.013075 188.716503 479.273222 188.927832 478.524321 189.139161 477.766470 189.350490 476.999767 189.561818 476.224312 189.773147 475.440203 189.984476 474.647538 190.195804 473.846416 190.407133 473.036936 190.618462 472.219197 190.829790 471.393297 191.041119 470.559334 191.252448 469.717409 191.463776 468.867618 191.675105 468.010061 191.886434 467.144836 192.097762 466.272043 192.309091 465.391779 192.520420 464.504144 192.731748 463.609236 192.943077 462.707153 193.154406 461.797995 193.365734 460.881860 193.577063 459.958846 193.788392 459.029053 193.999720 458.092578 194.211049 457.149522 194.422378 456.199981 194.633706 455.244056 194.845035 454.281844 195.056364 453.313444 195.267692 452.338955 195.479021 451.358475 195.690350 450.372104 195.901678 449.379940 196.113007 448.382081 196.324336 447.378626 196.535664 446.369674 196.746993 445.355324 196.958322 444.335673 197.169650 443.310821 197.380979 442.280867 197.592308 441.245909 197.803636 440.206045 198.014965 439.161375 198.226294 438.111997 198.437622 437.058009 198.648951 435.999511 198.860280 434.936600 199.071608 433.869377 199.282937 432.797938 199.494266 431.722384 199.705594 430.642812 199.916923 429.559321 200.128252 428.472010 200.339580 427.380978 200.550909 426.286323 200.762238 425.188143 200.973566 424.086539 201.184895 422.981607 201.396224 421.873447 201.607552 420.762158 201.818881 419.647837 202.030210 418.530585 202.241538 417.410498 202.452867 416.287677 202.664196 415.162220 202.875524 414.034225 203.086853 412.903791 203.298182 411.771016 203.509510 410.636000 203.720839 409.498841 203.932168 408.359637 204.143497 407.218488 204.354825 406.075492 204.566154 404.930747 204.777483 403.784353 204.988811 402.636407 205.200140 401.487009 205.411469 400.336257 205.622797 399.184250 205.834126 398.031086 206.045455 396.876865 206.256783 395.721684 206.468112 394.565643 206.679441 393.408840 206.890769 392.251374 207.102098 391.093343 207.313427 389.934846 207.524755 388.775982 207.736084 387.616849 207.947413 386.457546 208.158741 385.298172 208.370070 384.138825 208.581399 382.979604 208.792727 381.820608 209.004056 380.661935 209.215385 379.503684 209.426713 378.345954 209.638042 377.188843 209.849371 376.032449 210.060699 374.876873 210.272028 373.722211 210.483357 372.568564 210.694685 371.416028 210.906014 370.264704 211.117343 369.114690 211.328671 367.966084 211.540000 366.818986 211.751329 365.673493 211.962657 364.529704 212.173986 363.387719 212.385315 362.247635 212.596643 361.109552 212.807972 359.973568 213.019301 358.839781 213.230629 357.708291 213.441958 356.579195 213.653287 355.452594 213.864615 354.328584 214.075944 353.207266 214.287273 352.088737 214.498601 350.973096 214.709930 349.860443 214.921259 348.750874 215.132587 347.644490 215.343916 346.541389 215.555245 345.441670 215.766573 344.345430 215.977902 343.252770 216.189231 342.163786 216.400559 341.078579 216.611888 339.997247 216.823217 338.919888 217.034545 337.846601 217.245874 336.777485 217.457203 335.712638 217.668531 334.652160 217.879860 333.596148 218.091189 332.544701 218.302517 331.497918 218.513846 330.455898 218.725175 329.418740 218.936503 328.386541 219.147832 327.359401 219.359161 326.337418 219.570490 325.320691 219.781818 324.309318 219.993147 323.303399 220.204476 322.303032 220.415804 321.308315 220.627133 320.319347 220.838462 319.336227 221.049790 318.359053 221.261119 317.387925 221.472448 316.422941 221.683776 315.464198 221.895105 314.511797 222.106434 313.565836 222.317762 312.626413 222.529091 311.693627 222.740420 310.767577 222.951748 309.848361 223.163077 308.936057 223.374406 308.030654 223.585734 307.132120 223.797063 306.240426 224.008392 305.355538 224.219720 304.477426 224.431049 303.606058 224.642378 302.741402 224.853706 301.883427 225.065035 301.032101 225.276364 300.187393 225.487692 299.349272 225.699021 298.517705 225.910350 297.692662 226.121678 296.874111 226.333007 296.062020 226.544336 295.256358 226.755664 294.457093 226.966993 293.664194 227.178322 292.877629 227.389650 292.097367 227.600979 291.323377 227.812308 290.555626 228.023636 289.794083 228.234965 289.038717 228.446294 288.289496 228.657622 287.546389 228.868951 286.809364 229.080280 286.078390 229.291608 285.353435 229.502937 284.634468 229.714266 283.921457 229.925594 283.214370 230.136923 282.513177 230.348252 281.817845 230.559580 281.128344 230.770909 280.444641 230.982238 279.766705 231.193566 279.094504 231.404895 278.428008 231.616224 277.767184 231.827552 277.112002 232.038881 276.462428 232.250210 275.818433 232.461538 275.179985 232.672867 274.547051 232.884196 273.919601 233.095524 273.297603 233.306853 272.681025 233.518182 272.069837 233.729510 271.464005 233.940839 270.863500 234.152168 270.268289 234.363497 269.678341 234.574825 269.093625 234.786154 268.514108 234.997483 267.939760 235.208811 267.370548 235.420140 266.806442 235.631469 266.247410 235.842797 265.693420 236.054126 265.144441 236.265455 264.600441 236.476783 264.061390 236.688112 263.527254 236.899441 262.998003 237.110769 262.473606 237.322098 261.954030 237.533427 261.439244 237.744755 260.929217 237.956084 260.423918 238.167413 259.923314 238.378741 259.427374 238.590070 258.936068 238.801399 258.449362 239.012727 257.967226 239.224056 257.489628 239.435385 257.016537 239.646713 256.547920 239.858042 256.083748 240.069371 255.623988 240.280699 255.168608 240.492028 254.717577 240.703357 254.270864 240.914685 253.828437 241.126014 253.390265 241.337343 252.956316 241.548671 252.526558 241.760000 252.100960 241.971329 251.679491 242.182657 251.262118 242.393986 250.848812 242.605315 250.439539 242.816643 250.034269 243.027972 249.632969 243.239301 249.235610 243.450629 248.842158 243.661958 248.452582 243.873287 248.066852 244.084615 247.684935 244.295944 247.306799 244.507273 246.932415 244.718601 246.561749 244.929930 246.194770 245.141259 245.831448 245.352587 245.471749 245.563916 245.115644 245.775245 244.763099 245.986573 244.414085 246.197902 244.068569 246.409231 243.726520 246.620559 243.387906 246.831888 243.052696 247.043217 242.720858 247.254545 242.392360 247.465874 242.067172 247.677203 241.745262 247.888531 241.426598 248.099860 241.111149 248.311189 240.798883 248.522517 240.489768 248.733846 240.183774 248.945175 239.880869 249.156503 239.581020 249.367832 239.284197 249.579161 238.990369 249.790490 238.699503 250.001818 238.411568 250.213147 238.126532 250.424476 237.844365 250.635804 237.565035 250.847133 237.288509 251.058462 237.014757 251.269790 236.743747 251.481119 236.475447 251.692448 236.209827 251.903776 235.946854 252.115105 235.686497 252.326434 235.428725 252.537762 235.173505 252.749091 234.920807 252.960420 234.670599 253.171748 234.422850 253.383077 234.177527 253.594406 233.934600 253.805734 233.694036 254.017063 233.455805 254.228392 233.219875 254.439720 232.986215 254.651049 232.754792 254.862378 232.525575 255.073706 232.298534 255.285035 232.073636 255.496364 231.850849 255.707692 231.630143 255.919021 231.411486 256.130350 231.194846 256.341678 230.980192 256.553007 230.767492 256.764336 230.556714 256.975664 230.347829 257.186993 230.140802 257.398322 229.935604 257.609650 229.732203 257.820979 229.530567 258.032308 229.330665 258.243636 229.132464 258.454965 228.935935 258.666294 228.741045 258.877622 228.547762 259.088951 228.356055 259.300280 228.165893 259.511608 227.977245 259.722937 227.790077 259.934266 227.604360 260.145594 227.420062 260.356923 227.237150 260.568252 227.055594 260.779580 226.875363 260.990909 226.696423 261.202238 226.518745 261.413566 226.342296 261.624895 226.167046 261.836224 225.992961 262.047552 225.820012 262.258881 225.648166 262.470210 225.477393 262.681538 225.307659 262.892867 225.138935 263.104196 224.971188 263.315524 224.804387 263.526853 224.638500 263.738182 224.473496 263.949510 224.309344 264.160839 224.146012 264.372168 223.983468 264.583497 223.821680 264.794825 223.660618 265.006154 223.500250 265.217483 223.340545 265.428811 223.181470 265.640140 223.022994 265.851469 222.865086 266.062797 222.707715 266.274126 222.550848 266.485455 222.394454 266.696783 222.238503 266.908112 222.082961 267.119441 221.927798 267.330769 221.772983 267.542098 221.618483 267.753427 221.464267 267.964755 221.310304 268.176084 221.156562 268.387413 221.003010 268.598741 220.849616 268.810070 220.696348 269.021399 220.543176 269.232727 220.390067 269.444056 220.236991 269.655385 220.083915 269.866713 219.930808 270.078042 219.777639 270.289371 219.624375 270.500699 219.470987 270.712028 219.317441 270.923357 219.163707 271.134685 219.009753 271.346014 218.855547 271.557343 218.701059 271.768671 218.546256 271.980000 218.391106 272.191329 218.235580 272.402657 218.079644 272.613986 217.923268 272.825315 217.766419 273.036643 217.609067 273.247972 217.451180 273.459301 217.292727 273.670629 217.133675 273.881958 216.973994 274.093287 216.813651 274.304615 216.652616 274.515944 216.490857 274.727273 216.328342 274.938601 216.165040 275.149930 216.000919 275.361259 215.835948 275.572587 215.670095 275.783916 215.503329 275.995245 215.335624 276.206573 215.166975 276.417902 214.997385 276.629231 214.826855 276.840559 214.655386 277.051888 214.482980 277.263217 214.309638 277.474545 214.135362 277.685874 213.960153 277.897203 213.784014 278.108531 213.606945 278.319860 213.428947 278.531189 213.250023 278.742517 213.070174 278.953846 212.889402 279.165175 212.707707 279.376503 212.525092 279.587832 212.341558 279.799161 212.157106 280.010490 211.971739 280.221818 211.785457 280.433147 211.598262 280.644476 211.410156 280.855804 211.221139 281.067133 211.031215 281.278462 210.840383 281.489790 210.648646 281.701119 210.456005 281.912448 210.262462 282.123776 210.068018 282.335105 209.872675 282.546434 209.676434 282.757762 209.479296 282.969091 209.281264 283.180420 209.082339 283.391748 208.882521 283.603077 208.681814 283.814406 208.480218 284.025734 208.277734 284.237063 208.074365 284.448392 207.870112 284.659720 207.664976 284.871049 207.458959 285.082378 207.252062 285.293706 207.044287 285.505035 206.835636 285.716364 206.626109 285.927692 206.415709 286.139021 206.204437 286.350350 205.992294 286.561678 205.779282 286.773007 205.565402 286.984336 205.350657 287.195664 205.135047 287.406993 204.918574 287.618322 204.701239 287.829650 204.483045 288.040979 204.263992 288.252308 204.044082 288.463636 203.823317 288.674965 203.601698 288.886294 203.379227 289.097622 203.155904 289.308951 202.931732 289.520280 202.706713 289.731608 202.480847 289.942937 202.254136 290.154266 202.026582 290.365594 201.798186 290.576923 201.568949 290.788252 201.338874 290.999580 201.107962 291.210909 200.876214 291.422238 200.643632 291.633566 200.410217 291.844895 200.175971 292.056224 199.940895 292.267552 199.704991 292.478881 199.468260 292.690210 199.230704 292.901538 198.992325 293.112867 198.753123 293.324196 198.513101 293.535524 198.272259 293.746853 198.030601 293.958182 197.788126 294.169510 197.544836 294.380839 197.300733 294.592168 197.055819 294.803497 196.810095 295.014825 196.563562 295.226154 196.316223 295.437483 196.068078 295.648811 195.819129 295.860140 195.569377 296.071469 195.318825 296.282797 195.067473 296.494126 194.815323 296.705455 194.562377 296.916783 194.308636 297.128112 194.054101 297.339441 193.798775 297.550769 193.542658 297.762098 193.285753 297.973427 193.028060 298.184755 192.769582 298.396084 192.510319 298.607413 192.250273 298.818741 191.989447 299.030070 191.727840 299.241399 191.465455 299.452727 191.202294 299.664056 190.938357 299.875385 190.673646 300.086713 190.408164 300.298042 190.141911 300.509371 189.874888 300.720699 189.607098 300.932028 189.338542 301.143357 189.069221 301.354685 188.799137 301.566014 188.528292 301.777343 188.256686 301.988671 187.984322 302.200000 187.711201 302.411329 187.437325 302.622657 187.162694 302.833986 186.887311 303.045315 186.611177 303.256643 186.334293 303.467972 186.056662 303.679301 185.778284 303.890629 185.499161 304.101958 185.219295 304.313287 184.938686 304.524615 184.657338 304.735944 184.375250 304.947273 184.092426 305.158601 183.808865 305.369930 183.524570 305.581259 183.239542 305.792587 182.953783 306.003916 182.667294 306.215245 182.380077 306.426573 182.092133 306.637902 181.803464 306.849231 181.514071 307.060559 181.223956 307.271888 180.933120 307.483217 180.641565 307.694545 180.349292 307.905874 180.056303 308.117203 179.762599 308.328531 179.468183 308.539860 179.173054 308.751189 178.877216 308.962517 178.580669 309.173846 178.283415 309.385175 177.985455 309.596503 177.686791 309.807832 177.387425 310.019161 177.087358 310.230490 176.786591 310.441818 176.485126 310.653147 176.182965 310.864476 175.880108 311.075804 175.576558 311.287133 175.272317 311.498462 174.967385 311.709790 174.661763 311.921119 174.355455 312.132448 174.048461 312.343776 173.740782 312.555105 173.432420 312.766434 173.123377 312.977762 172.813654 313.189091 172.503253 313.400420 172.192175 313.611748 171.880422 313.823077 171.567995 314.034406 171.254895 314.245734 170.941125 314.457063 170.626686 314.668392 170.311579 314.879720 169.995806 315.091049 169.679368 315.302378 169.362267 315.513706 169.044504 315.725035 168.726081 315.936364 168.406999 316.147692 168.087260 316.359021 167.766866 316.570350 167.445817 316.781678 167.124116 316.993007 166.801764 317.204336 166.478762 317.415664 166.155112 317.626993 165.830816 317.838322 165.505875 318.049650 165.180290 318.260979 164.854063 318.472308 164.527195 318.683636 164.199689 318.894965 163.871545 319.106294 163.542766 319.317622 163.213351 319.528951 162.883304 319.740280 162.552626 319.951608 162.221317 320.162937 161.889381 320.374266 161.556817 320.585594 161.223628 320.796923 160.889815 321.008252 160.555380 321.219580 160.220324 321.430909 159.884649 321.642238 159.548356 321.853566 159.211447 322.064895 158.873923 322.276224 158.535786 322.487552 158.197037 322.698881 157.857677 322.910210 157.517710 323.121538 157.177134 323.332867 156.835954 323.544196 156.494169 323.755524 156.151781 323.966853 155.808793 324.178182 155.465204 324.389510 155.121018 324.600839 154.776235 324.812168 154.430857 325.023497 154.084885 325.234825 153.738322 325.446154 153.391168 325.657483 153.043424 325.868811 152.695094 326.080140 152.346177 326.291469 151.996676 326.502797 151.646592 326.714126 151.295926 326.925455 150.944681 327.136783 150.592857 327.348112 150.240456 327.559441 149.887480 327.770769 149.533929 327.982098 149.179807 328.193427 148.825114 328.404755 148.469851 328.616084 148.114020 328.827413 147.757627 329.038741 147.400687 329.250070 147.043221 329.461399 146.685250 329.672727 146.326794 329.884056 145.967873 330.095385 145.608507 330.306713 145.248717 330.518042 144.888523 330.729371 144.527945 330.940699 144.167004 331.152028 143.805719 331.363357 143.444112 331.574685 143.082201 331.786014 142.720009 331.997343 142.357554 332.208671 141.994857 332.420000 141.631939 332.631329 141.268820 332.842657 140.905520 333.053986 140.542059 333.265315 140.178457 333.476643 139.814736 333.687972 139.450914 333.899301 139.087013 334.110629 138.723053 334.321958 138.359053 334.533287 137.995035 334.744615 137.631019 334.955944 137.267024 335.167273 136.903071 335.378601 136.539181 335.589930 136.175374 335.801259 135.811669 336.012587 135.448088 336.223916 135.084650 336.435245 134.721376 336.646573 134.358286 336.857902 133.995400 337.069231 133.632739 337.280559 133.270323 337.491888 132.908172 337.703217 132.546307 337.914545 132.184747 338.125874 131.823513 338.337203 131.462626 338.548531 131.102105 338.759860 130.741972 338.971189 130.382245 339.182517 130.022946 339.393846 129.664094 339.605175 129.305711 339.816503 128.947815 340.027832 128.590429 340.239161 128.233571 340.450490 127.877262 340.661818 127.521523 340.873147 127.166373 341.084476 126.811834 341.295804 126.457924 341.507133 126.104665 341.718462 125.752077 341.929790 125.400180 342.141119 125.048995 342.352448 124.698541 342.563776 124.348839 342.775105 123.999909 342.986434 123.651772 343.197762 123.304447 343.409091 122.957956 343.620420 122.612318 343.831748 122.267553 344.043077 121.923683 344.254406 121.580726 344.465734 121.238704 344.677063 120.897637 344.888392 120.557545 345.099720 120.218448 345.311049 119.880366 345.522378 119.543321 345.733706 119.207332 345.945035 118.872419 346.156364 118.538602 346.367692 118.205903 346.579021 117.874341 346.790350 117.543937 347.001678 117.214710 347.213007 116.886682 347.424336 116.559872 347.635664 116.234300 347.846993 115.909988 348.058322 115.586955 348.269650 115.265221 348.480979 114.944807 348.692308 114.625733 348.903636 114.308020 349.114965 113.991687 349.326294 113.676755 349.537622 113.363244 349.748951 113.051175 349.960280 112.740567 350.171608 112.431442 350.382937 112.123818 350.594266 111.817718 350.805594 111.513160 351.016923 111.210166 351.228252 110.908755 351.439580 110.608947 351.650909 110.310764 351.862238 110.014225 352.073566 109.719350 352.284895 109.426161 352.496224 109.134676 352.707552 108.844917 352.918881 108.556903 353.130210 108.270656 353.341538 107.986195 353.552867 107.703540 353.764196 107.422712 353.975524 107.143731 354.186853 106.866618 354.398182 106.591392 354.609510 106.318074 354.820839 106.046685 355.032168 105.777243 355.243497 105.509771 355.454825 105.244288 355.666154 104.980814 355.877483 104.719369 356.088811 104.459975 356.300140 104.202651 356.511469 103.947417 356.722797 103.694294 356.934126 103.443302 357.145455 103.194461 357.356783 102.947792 357.568112 102.703314 357.779441 102.461049 357.990769 102.221016 358.202098 101.983236 358.413427 101.747729 358.624755 101.514515 358.836084 101.283615 359.047413 101.055049 359.258741 100.828836 359.470070 100.604999 359.681399 100.383555 359.892727 100.164527 360.104056 99.947934 360.315385 99.733796 360.526713 99.522135 360.738042 99.312969 360.949371 99.106320 361.160699 98.902207 361.372028 98.700651 361.583357 98.501672 361.794685 98.305291 362.006014 98.111528 362.217343 97.920403 362.428671 97.731936 362.640000 97.546147 362.851329 97.363058 363.062657 97.182687 363.273986 97.005056 363.485315 96.830185 363.696643 96.658094 363.907972 96.488803 364.119301 96.322333 364.330629 96.158703 364.541958 95.997935 364.753287 95.840048 364.964615 95.685063 365.175944 95.532999 365.387273 95.383878 365.598601 95.237720 365.809930 95.094544 366.021259 94.954371 366.232587 94.817222 366.443916 94.683117 366.655245 94.552075 366.866573 94.424117 367.077902 94.299264 367.289231 94.177536 367.500559 94.058953 367.711888 93.943535 367.923217 93.831303 368.134545 93.722277 368.345874 93.616477 368.557203 93.513923 368.768531 93.414636 368.979860 93.318636 369.191189 93.225944 369.402517 93.136579 369.613846 93.050562 369.825175 92.967913 370.036503 92.888652 370.247832 92.812800 370.459161 92.740377 370.670490 92.671404 370.881818 92.605900 371.093147 92.543885 371.304476 92.485381 371.515804 92.430408 371.727133 92.378984 371.938462 92.331132 372.149790 92.286871 372.361119 92.246222 372.572448 92.209205 372.783776 92.175839 372.995105 92.146146 373.206434 92.120145 373.417762 92.097858 373.629091 92.079303 373.840420 92.064502 374.051748 92.053475 374.263077 92.046242 374.474406 92.042823 374.685734 92.043239 374.897063 92.047510 375.108392 92.055656 375.319720 92.067697 375.531049 92.083654 375.742378 92.103547 375.953706 92.127396 376.165035 92.155222 376.376364 92.187045 376.587692 92.222885 376.799021 92.262762 377.010350 92.306697 377.221678 92.354710 377.433007 92.406821 377.644336 92.463051 377.855664 92.523419 378.066993 92.587947 378.278322 92.656654 378.489650 92.729560 378.700979 92.806687 378.912308 92.888053 379.123636 92.973681 379.334965 93.063589 379.546294 93.157798 379.757622 93.256328 379.968951 93.359200 380.180280 93.466434 380.391608 93.578050 380.602937 93.694069 380.814266 93.814510 381.025594 93.939394 381.236923 94.068742 381.448252 94.202573 381.659580 94.340898 381.870909 94.483686 382.082238 94.630894 382.293566 94.782483 382.504895 94.938411 382.716224 95.098637 382.927552 95.263119 383.138881 95.431817 383.350210 95.604688 383.561538 95.781692 383.772867 95.962788 383.984196 96.147934 384.195524 96.337089 384.406853 96.530212 384.618182 96.727261 384.829510 96.928196 385.040839 97.132975 385.252168 97.341557 385.463497 97.553901 385.674825 97.769965 385.886154 97.989708 386.097483 98.213089 386.308811 98.440067 386.520140 98.670601 386.731469 98.904649 386.942797 99.142169 387.154126 99.383122 387.365455 99.627465 387.576783 99.875158 387.788112 100.126159 387.999441 100.380426 388.210769 100.637920 388.422098 100.898597 388.633427 101.162418 388.844755 101.429341 389.056084 101.699325 389.267413 101.972328 389.478741 102.248309 389.690070 102.527227 389.901399 102.809041 390.112727 103.093710 390.324056 103.381192 390.535385 103.671446 390.746713 103.964431 390.958042 104.260106 391.169371 104.558429 391.380699 104.859359 391.592028 105.162855 391.803357 105.468876 392.014685 105.777381 392.226014 106.088327 392.437343 106.401675 392.648671 106.717382 392.860000 107.035408 393.071329 107.355711 393.282657 107.678250 393.493986 108.002984 393.705315 108.329872 393.916643 108.658872 394.127972 108.989943 394.339301 109.323044 394.550629 109.658134 394.761958 109.995171 394.973287 110.334115 395.184615 110.674923 395.395944 111.017556 395.607273 111.361970 395.818601 111.708126 396.029930 112.055982 396.241259 112.405497 396.452587 112.756630 396.663916 113.109338 396.875245 113.463582 397.086573 113.819320 397.297902 114.176511 397.509231 114.535113 397.720559 114.895085 397.931888 115.256386 398.143217 115.618975 398.354545 115.982810 398.565874 116.347850 398.777203 116.714055 398.988531 117.081382 399.199860 117.449791 399.411189 117.819241 399.622517 118.189689 399.833846 118.561095 400.045175 118.933418 400.256503 119.306616 400.467832 119.680649 400.679161 120.055474 400.890490 120.431051 401.101818 120.807339 401.313147 121.184295 401.524476 121.561880 401.735804 121.940052 401.947133 122.318769 402.158462 122.697990 402.369790 123.077675 402.581119 123.457781 402.792448 123.838268 403.003776 124.219094 403.215105 124.600219 403.426434 124.981600 403.637762 125.363197 403.849091 125.744969 404.060420 126.126873 404.271748 126.508870 404.483077 126.890918 404.694406 127.272975 404.905734 127.655000 405.117063 128.036952 405.328392 128.418790 405.539720 128.800473 405.751049 129.181959 405.962378 129.563207 406.173706 129.944176 406.385035 130.324825 406.596364 130.705112 406.807692 131.084997 407.019021 131.464437 407.230350 131.843392 407.441678 132.221820 407.653007 132.599681 407.864336 132.976933 408.075664 133.353535 408.286993 133.729445 408.498322 134.104623 408.709650 134.479026 408.920979 134.852615 409.132308 135.225347 409.343636 135.597181 409.554965 135.968077 409.766294 136.337993 409.977622 136.706887 410.188951 137.074719 410.400280 137.441447 410.611608 137.807030 410.822937 138.171427 411.034266 138.534596 411.245594 138.896497 411.456923 139.257088 411.668252 139.616327 411.879580 139.974175 412.090909 140.330588 412.302238 140.685527 412.513566 141.038950 412.724895 141.390815 412.936224 141.741082 413.147552 142.089709 413.358881 142.436655 413.570210 142.781879 413.781538 143.125339 413.992867 143.466994 414.204196 143.806804 414.415524 144.144726 414.626853 144.480721 414.838182 144.814745 415.049510 145.146758 415.260839 145.476720 415.472168 145.804588 415.683497 146.130321 415.894825 146.453879 416.106154 146.775220 416.317483 147.094302 416.528811 147.411085 416.740140 147.725527 416.951469 148.037587 417.162797 148.347224 417.374126 148.654397 417.585455 148.959064 417.796783 149.261184 418.008112 149.560715 418.219441 149.857618 418.430769 150.151850 418.642098 150.443370 418.853427 150.732137 419.064755 151.018110 419.276084 151.301247 419.487413 151.581507 419.698741 151.858850 419.910070 152.133233 420.121399 152.404615 420.332727 152.672956 420.544056 152.938215 420.755385 153.200349 420.966713 153.459317 421.178042 153.715079 421.389371 153.967593 421.600699 154.216818 421.812028 154.462713 422.023357 154.705236 422.234685 154.944347 422.446014 155.180003 422.657343 155.412164 422.868671 155.640789 423.080000 155.865836 423.291329 156.087264 423.502657 156.305031 423.713986 156.519098 423.925315 156.729422 424.136643 156.935961 424.347972 157.138676 424.559301 157.337525 424.770629 157.532466 424.981958 157.723458 425.193287 157.910460 425.404615 158.093430 425.615944 158.272329 425.827273 158.447113 426.038601 158.617743 426.249930 158.784176 426.461259 158.946372 426.672587 159.104289 426.883916 159.257887 427.095245 159.407123 427.306573 159.551957 427.517902 159.692347 427.729231 159.828252 427.940559 159.959632 428.151888 160.086444 428.363217 160.208647 428.574545 160.326201 428.785874 160.439064 428.997203 160.547195 429.208531 160.650552 429.419860 160.749094 429.631189 160.842781 429.842517 160.931570 430.053846 161.015421 430.265175 161.094293 430.476503 161.168143 430.687832 161.236931 430.899161 161.300617 431.110490 161.359157 431.321818 161.412512 431.533147 161.460640 431.744476 161.503499 431.955804 161.541049 432.167133 161.573249 432.378462 161.600056 432.589790 161.621430 432.801119 161.637330 433.012448 161.647714 433.223776 161.652542 433.435105 161.651771 433.646434 161.645361 433.857762 161.633270 434.069091 161.615458 434.280420 161.591882 434.491748 161.562514 434.703077 161.527373 434.914406 161.486489 435.125734 161.439893 435.337063 161.387616 435.548392 161.329689 435.759720 161.266142 435.971049 161.197006 436.182378 161.122313 436.393706 161.042092 436.605035 160.956375 436.816364 160.865192 437.027692 160.768575 437.239021 160.666553 437.450350 160.559158 437.661678 160.446421 437.873007 160.328372 438.084336 160.205042 438.295664 160.076463 438.506993 159.942664 438.718322 159.803676 438.929650 159.659531 439.140979 159.510258 439.352308 159.355890 439.563636 159.196456 439.774965 159.031988 439.986294 158.862516 440.197622 158.688071 440.408951 158.508684 440.620280 158.324385 440.831608 158.135206 441.042937 157.941177 441.254266 157.742329 441.465594 157.538692 441.676923 157.330298 441.888252 157.117178 442.099580 156.899362 442.310909 156.676880 442.522238 156.449764 442.733566 156.218045 442.944895 155.981753 443.156224 155.740919 443.367552 155.495574 443.578881 155.245748 443.790210 154.991473 444.001538 154.732780 444.212867 154.469698 444.424196 154.202259 444.635524 153.930493 444.846853 153.654432 445.058182 153.374106 445.269510 153.089546 445.480839 152.800783 445.692168 152.507847 445.903497 152.210769 446.114825 151.909581 446.326154 151.604312 446.537483 151.294995 446.748811 150.981658 446.960140 150.664334 447.171469 150.343053 447.382797 150.017846 447.594126 149.688743 447.805455 149.355776 448.016783 149.018975 448.228112 148.678371 448.439441 148.333994 448.650769 147.985877 448.862098 147.634048 449.073427 147.278540 449.284755 146.919383 449.496084 146.556607 449.707413 146.190244 449.918741 145.820324 450.130070 145.446878 450.341399 145.069937 450.552727 144.689532 450.764056 144.305693 450.975385 143.918452 451.186713 143.527838 451.398042 143.133883 451.609371 142.736618 451.820699 142.336073 452.032028 141.932280 452.243357 141.525268 452.454685 141.115069 452.666014 140.701714 452.877343 140.285233 453.088671 139.865657 453.300000 139.443017 453.511329 139.017343 453.722657 138.588667 453.933986 138.157020 454.145315 137.722431 454.356643 137.284933 454.567972 136.844554 454.779301 136.401328 454.990629 135.955283 455.201958 135.506452 455.413287 135.054864 455.624615 134.600551 455.835944 134.143543 456.047273 133.683872 456.258601 133.221567 456.469930 132.756660 456.681259 132.289182 456.892587 131.819163 457.103916 131.346634 457.315245 130.871626 457.526573 130.394169 457.737902 129.914295 457.949231 129.432035 458.160559 128.947418 458.371888 128.460476 458.583217 127.971240 458.794545 127.479740 459.005874 126.986007 459.217203 126.490072 459.428531 125.991967 459.639860 125.491720 459.851189 124.989364 460.062517 124.484929 460.273846 123.978446 460.485175 123.469946 460.696503 122.959459 460.907832 122.447017 461.119161 121.932649 461.330490 121.416388 461.541818 120.898263 461.753147 120.378305 461.964476 119.856546 462.175804 119.333016 462.387133 118.807745 462.598462 118.280766 462.809790 117.752107 463.021119 117.221801 463.232448 116.689878 463.443776 116.156368 463.655105 115.621303 463.866434 115.084713 464.077762 114.546630 464.289091 114.007083 464.500420 113.466104 464.711748 112.923723 464.923077 112.379972 465.134406 111.834881 465.345734 111.288480 465.557063 110.740802 465.768392 110.191875 465.979720 109.641732 466.191049 109.090403 466.402378 108.537919 466.613706 107.984310 466.825035 107.429608 467.036364 106.873842 467.247692 106.317045 467.459021 105.759246 467.670350 105.200477 467.881678 104.640768 468.093007 104.080151 468.304336 103.518655 468.515664 102.956312 468.726993 102.393152 468.938322 101.829207 469.149650 101.264506 469.360979 100.699082 469.572308 100.132964 469.783636 99.566183 469.994965 98.998771 470.206294 98.430757 470.417622 97.862174 470.628951 97.293051 470.840280 96.723419 471.051608 96.153309 471.262937 95.582752 471.474266 95.011779 471.685594 94.440421 471.896923 93.868708 472.108252 93.296671 472.319580 92.724340 472.530909 92.151748 472.742238 91.578923 472.953566 91.005898 473.164895 90.432703 473.376224 89.859369 473.587552 89.285927 473.798881 88.712406 474.010210 88.138839 474.221538 87.565256 474.432867 86.991688 474.644196 86.418165 474.855524 85.844719 475.066853 85.271379 475.278182 84.698178 475.489510 84.125145 475.700839 83.552312 475.912168 82.979709 476.123497 82.407367 476.334825 81.835317 476.546154 81.263589 476.757483 80.692215 476.968811 80.121225 477.180140 79.550650 477.391469 78.980521 477.602797 78.410868 477.814126 77.841723 478.025455 77.273116 478.236783 76.705078 478.448112 76.137640 478.659441 75.570832 478.870769 75.004685 479.082098 74.439231 479.293427 73.874499 479.504755 73.310521 479.716084 72.747328 479.927413 72.184949 480.138741 71.623417 480.350070 71.062762 480.561399 70.503014 480.772727 69.944205 480.984056 69.386364 481.195385 68.829524 481.406713 68.273715 481.618042 67.718967 481.829371 67.165311 482.040699 66.612779 482.252028 66.061400 482.463357 65.511206 482.674685 64.962228 482.886014 64.414496 483.097343 63.868041 483.308671 63.322894 483.520000 62.779085 483.731329 62.236646 483.942657 61.695608 484.153986 61.156000 484.365315 60.617854 484.576643 60.081200 484.787972 59.546070 484.999301 59.012494 485.210629 58.480503 485.421958 57.950128 485.633287 57.421400 485.844615 56.894348 486.055944 56.369005 486.267273 55.845401 486.478601 55.323566 486.689930 54.803532 486.901259 54.285329 487.112587 53.768988 487.323916 53.254539 487.535245 52.742003 487.746573 52.231404 487.957902 51.722763 488.169231 51.216100 488.380559 50.711439 488.591888 50.208800 488.803217 49.708205 489.014545 49.209675 489.225874 48.713232 489.437203 48.218899 489.648531 47.726695 489.859860 47.236643 490.071189 46.748765 490.282517 46.263082 490.493846 45.779616 490.705175 45.298388 490.916503 44.819420 491.127832 44.342733 491.339161 43.868349 491.550490 43.396290 491.761818 42.926577 491.973147 42.459232 492.184476 41.994276 492.395804 41.531731 492.607133 41.071619 492.818462 40.613961 493.029790 40.158779 493.241119 39.706094 493.452448 39.255928 493.663776 38.808302 493.875105 38.363238 494.086434 37.920759 494.297762 37.480884 494.509091 37.043636 494.720420 36.609037 494.931748 36.177108 495.143077 35.747870 495.354406 35.321346 495.565734 34.897556 495.777063 34.476523 495.988392 34.058268 496.199720 33.642812 496.411049 33.230177 496.622378 32.820386 496.833706 32.413458 497.045035 32.009417 497.256364 31.608283 497.467692 31.210078 497.679021 30.814824 497.890350 30.422542 498.101678 30.033254 498.313007 29.646981 498.524336 29.263745 498.735664 28.883569 498.946993 28.506472 499.158322 28.132477 499.369650 27.761605 499.580979 27.393879 499.792308 27.029319 500.003636 26.667947 500.214965 26.309785 500.426294 25.954855 500.637622 25.603177 500.848951 25.254774 501.060280 24.909667 501.271608 24.567877 501.482937 24.229427 501.694266 23.894338 501.905594 23.562631 502.116923 23.234328 502.328252 22.909451 502.539580 22.588021 502.750909 22.270060 502.962238 21.955590 503.173566 21.644631 503.384895 21.337206 503.596224 21.033336 503.807552 20.733043 504.018881 20.436348 504.230210 20.143274 504.441538 19.853840 504.652867 19.568070 504.864196 19.285985 505.075524 19.007606 505.286853 18.732954 505.498182 18.462053 505.709510 18.194922 505.920839 17.931584 506.132168 17.672060 506.343497 17.416372 506.554825 17.164542 506.766154 16.916590 506.977483 16.672539 507.188811 16.432410 507.400140 16.196225 507.611469 15.964006 507.822797 15.735773 508.034126 15.511549 508.245455 15.291355 508.456783 15.075213 508.668112 14.863144 508.879441 14.655170 509.090769 14.451312 509.302098 14.251592 509.513427 14.056033 509.724755 13.864654 509.936084 13.677478 510.147413 13.494527 510.358741 13.315821 510.570070 13.141384 510.781399 12.971235 510.992727 12.805397 511.204056 12.643892 511.415385 12.486741 511.626713 12.333965 511.838042 12.185586 512.049371 12.041626 512.260699 11.902106 512.472028 11.767049 512.683357 11.636474 512.894685 11.510405 513.106014 11.388863 513.317343 11.271868 513.528671 11.159444 513.740000 11.051611 513.951329 10.948391 514.162657 10.849806 514.373986 10.755877 514.585315 10.666625 514.796643 10.582073 515.007972 10.502242 515.219301 10.427154 515.430629 10.356830 515.641958 10.291291 515.853287 10.230560 516.064615 10.174658 516.275944 10.123606 516.487273 10.077426 516.698601 10.036140 516.909930 9.999770 517.121259 9.968336 517.332587 9.941860 517.543916 9.920365 517.755245 9.903871 517.966573 9.892400 518.177902 9.885975 518.389231 9.884615 518.600559 9.888344 518.811888 9.897182 519.023217 9.911152 519.234545 9.930274 519.445874 9.954570 519.657203 9.984062 519.868531 10.018772 520.079860 10.058721 520.291189 10.103931 520.502517 10.154423 520.713846 10.210219 520.925175 10.271340 521.136503 10.337808 521.347832 10.409645 521.559161 10.486872 521.770490 10.569511 521.981818 10.657584 522.193147 10.751111 522.404476 10.850115 522.615804 10.954617 522.827133 11.064639 523.038462 11.180202 523.249790 11.301329 523.461119 11.428039 523.672448 11.560356 523.883776 11.698301 524.095105 11.841894 524.306434 11.991159 524.517762 12.146116 524.729091 12.306788 524.940420 12.473194 525.151748 12.645358 525.363077 12.823301 525.574406 13.007045 525.785734 13.196610 525.997063 13.392019 526.208392 13.593293 526.419720 13.800454 526.631049 14.013523 526.842378 14.232522 527.053706 14.457473 527.265035 14.688397 527.476364 14.925315 527.687692 15.168250 527.899021 15.417223 528.110350 15.672255 528.321678 15.933368 528.533007 16.200584 528.744336 16.473924 528.955664 16.753410 529.166993 17.039064 529.378322 17.330906 529.589650 17.628959 529.800979 17.933244 530.012308 18.243783 530.223636 18.560597 530.434965 18.883709 530.646294 19.213139 530.857622 19.548908 531.068951 19.891040 531.280280 20.239555 531.491608 20.594475 531.702937 20.955821 531.914266 21.323616 532.125594 21.697880 532.336923 22.078635 532.548252 22.465904 532.759580 22.859706 532.970909 23.260065 533.182238 23.667001 533.393566 24.080537 533.604895 24.500693 533.816224 24.927491 534.027552 25.360954 534.238881 25.801102 534.450210 26.247957 534.661538 26.701542 534.872867 27.161876 535.084196 27.628982 535.295524 28.102882 535.506853 28.583597 535.718182 29.071148 535.929510 29.565558 536.140839 30.066848 536.352168 30.575039 536.563497 31.090153 536.774825 31.612211 536.986154 32.141236 537.197483 32.677249 537.408811 33.220271 537.620140 33.770324 537.831469 34.327430 538.042797 34.891609 538.254126 35.462885 538.465455 36.041278 538.676783 36.626810 538.888112 37.219502 539.099441 37.819376 539.310769 38.426454 539.522098 39.040758 539.733427 39.662308 539.944755 40.291126 540.156084 40.927227 540.367413 41.570588 540.578741 42.221180 540.790070 42.878976 541.001399 43.543945 541.212727 44.216058 541.424056 44.895286 541.635385 45.581600 541.846713 46.274970 542.058042 46.975369 542.269371 47.682765 542.480699 48.397132 542.692028 49.118438 542.903357 49.846655 543.114685 50.581754 543.326014 51.323705 543.537343 52.072480 543.748671 52.828050 543.960000 53.590384 544.171329 54.359455 544.382657 55.135232 544.593986 55.917687 544.805315 56.706791 545.016643 57.502514 545.227972 58.304827 545.439301 59.113701 545.650629 59.929107 545.861958 60.751016 546.073287 61.579398 546.284615 62.414224 546.495944 63.255466 546.707273 64.103094 546.918601 64.957079 547.129930 65.817392 547.341259 66.684003 547.552587 67.556884 547.763916 68.436005 547.975245 69.321337 548.186573 70.212851 548.397902 71.110518 548.609231 72.014308 548.820559 72.924193 549.031888 73.840143 549.243217 74.762129 549.454545 75.690123 549.665874 76.624094 549.877203 77.564014 550.088531 78.509853 550.299860 79.461583 550.511189 80.419174 550.722517 81.382597 550.933846 82.351823 551.145175 83.326822 551.356503 84.307566 551.567832 85.294026 551.779161 86.286171 551.990490 87.283974 552.201818 88.287405 552.413147 89.296434 552.624476 90.311033 552.835804 91.331173 553.047133 92.356823 553.258462 93.387956 553.469790 94.424542 553.681119 95.466552 553.892448 96.513956 554.103776 97.566726 554.315105 98.624831 554.526434 99.688245 554.737762 100.756936 554.949091 101.830876 555.160420 102.910035 555.371748 103.994385 555.583077 105.083897 555.794406 106.178540 556.005734 107.278287 556.217063 108.383108 556.428392 109.492973 556.639720 110.607854 556.851049 111.727721 557.062378 112.852545 557.273706 113.982298 557.485035 115.116949 557.696364 116.256470 557.907692 117.400832 558.119021 118.550005 558.330350 119.703961 558.541678 120.862669 558.753007 122.026102 558.964336 123.194229 559.175664 124.367022 559.386993 125.544451 559.598322 126.726488 559.809650 127.913102 560.020979 129.104266 560.232308 130.299950 560.443636 131.500124 560.654965 132.704760 560.866294 133.913828 561.077622 135.127299 561.288951 136.345144 561.500280 137.567335 561.711608 138.793840 561.922937 140.024633 562.134266 141.259683 562.345594 142.498961 562.556923 143.742438 562.768252 144.990085 562.979580 146.241872 563.190909 147.497772 563.402238 148.757753 563.613566 150.021788 563.824895 151.289848 564.036224 152.561902 564.247552 153.837921 564.458881 155.117878 564.670210 156.401742 564.881538 157.689484 565.092867 158.981075 565.304196 160.276487 565.515524 161.575689 565.726853 162.878652 565.938182 164.185349 566.149510 165.495748 566.360839 166.809822 566.572168 168.127541 566.783497 169.448876 566.994825 170.773797 567.206154 172.102276 567.417483 173.434283 567.628811 174.769790 567.840140 176.108766 568.051469 177.451184 568.262797 178.797013 568.474126 180.146225 568.685455 181.498790 568.896783 182.854680 569.108112 184.213864 569.319441 185.576315 569.530769 186.942002 569.742098 188.310897 569.953427 189.682970 570.164755 191.058193 570.376084 192.436536 570.587413 193.817970 570.798741 195.202465 571.010070 196.589993 571.221399 197.980525 571.432727 199.374031 571.644056 200.770482 571.855385 202.169850 572.066713 203.572104 572.278042 204.977216 572.489371 206.385156 572.700699 207.795896 572.912028 209.209406 573.123357 210.625657 573.334685 212.044620 573.546014 213.466265 573.757343 214.890564 573.968671 216.317488 574.180000 217.747007 574.391329 219.179092 574.602657 220.613714 574.813986 222.050843 575.025315 223.490452 575.236643 224.932509 575.447972 226.376988 575.659301 227.823857 575.870629 229.273088 576.081958 230.724652 576.293287 232.178519 576.504615 233.634661 576.715944 235.093049 576.927273 236.553652 577.138601 238.016443 577.349930 239.481392 577.561259 240.948469 577.772587 242.417645 577.983916 243.888892 578.195245 245.362181 578.406573 246.837481 578.617902 248.314764 578.829231 249.794001 579.040559 251.275163 579.251888 252.758220 579.463217 254.243143 579.674545 255.729903 579.885874 257.218471 580.097203 258.708818 580.308531 260.200915 580.519860 261.694732 580.731189 263.190240 580.942517 264.687410 581.153846 266.186214 581.365175 267.686621 581.576503 269.188603 581.787832 270.692130 581.999161 272.197174 582.210490 273.703705 582.421818 275.211694 582.633147 276.721111 582.844476 278.231929 583.055804 279.744117 583.267133 281.257646 583.478462 282.772487 583.689790 284.288612 583.901119 285.805990 584.112448 287.324593 584.323776 288.844392 584.535105 290.365357 584.746434 291.887460 584.957762 293.410670 585.169091 294.934959 585.380420 296.460299 585.591748 297.986658 585.803077 299.514010 586.014406 301.042323 586.225734 302.571570 586.437063 304.101720 586.648392 305.632746 586.859720 307.164617 587.071049 308.697304 587.282378 310.230779 587.493706 311.765012 587.705035 313.299974 587.916364 314.835636 588.127692 316.371968 588.339021 317.908942 588.550350 319.446529 588.761678 320.984698 588.973007 322.523422 589.184336 324.062670 589.395664 325.602415 589.606993 327.142626 589.818322 328.683274 590.029650 330.224330 590.240979 331.765766 590.452308 333.307551 590.663636 334.849657 590.874965 336.392055 591.086294 337.934716 591.297622 339.477609 591.508951 341.020707 591.720280 342.563979 591.931608 344.107398 592.142937 345.650933 592.354266 347.194555 592.565594 348.738236 592.776923 350.281946 592.776923 514.000000" /></g></g><g class="titles"><text class="title plot_title" x="400.0" y="26">Sanam-Pao 50</text></g><g class="plot overlay" transform="translate(175, 46)"><g class="series serie-0 color-0"><g class="dots"><circle class="dot reactive tooltip-trigger" cx="11.623076923076923" cy="215.50332898873444" r="2.5" /><desc class="value">120000</desc><desc class="x ">11.623076923076923</desc><desc class="y ">215.50332898873444</desc><desc class="x_label">Jan</desc></g><g class="dots"><circle class="dot reactive tooltip-trigger" cx="64.45524475524475" cy="282.8926377011345" r="2.5" /><desc class="value">115000</desc><desc class="x top">64.45524475524475</desc><desc class="y top">282.8926377011345</desc><desc class="x_label">Feb</desc></g><g class="dots"><circle class="dot reactive tooltip-trigger" cx="117.28741258741258" cy="188.54760550377443" r="2.5" /><desc class="value">122000</desc><desc class="x ">117.28741258741258</desc><desc class="y ">188.54760550377443</desc><desc class="x_label">Mar</desc></g><g class="dots"><circle class="dot reactive tooltip-trigger" cx="170.11958041958042" cy="498.53842558081465" r="2.5" /><desc class="value">99000</desc><desc class="x top">170.11958041958042</desc><desc class="y top">498.53842558081465</desc><desc class="x_label">Apr</desc></g><g class="dots"><circle class="dot reactive tooltip-trigger" cx="222.95174825174826" cy="309.8483611860945" r="2.5" /><desc class="value">113000</desc><desc class="x top">222.95174825174826</desc><desc class="y top">309.8483611860945</desc><desc class="x_label">May</desc></g><g class="dots"><circle class="dot reactive tooltip-trigger" cx="275.78391608391604" cy="215.50332898873444" r="2.5" /><desc class="value">120000</desc><desc class="x ">275.78391608391604</desc><desc class="y ">215.50332898873444</desc><desc class="x_label">Jun</desc></g><g class="dots"><circle class="dot reactive tooltip-trigger" cx="328.6160839160839" cy="148.11402027633437" r="2.5" /><desc class="value">125000</desc><desc class="x left">328.6160839160839</desc><desc class="y left">148.11402027633437</desc><desc class="x_label">Jul</desc></g><g class="dots"><circle class="dot reactive tooltip-trigger" cx="381.4482517482517" cy="94.20257330641437" r="2.5" /><desc class="value">129000</desc><desc class="x left">381.4482517482517</desc><desc class="y left">94.20257330641437</desc><desc class="x_label">Aug</desc></g><g class="dots"><circle class="dot reactive tooltip-trigger" cx="434.28041958041956" cy="161.59188201881437" r="2.5" /><desc class="value">124000</desc><desc class="x left">434.28041958041956</desc><desc class="y left">161.59188201881437</desc><desc class="x_label">Sep</desc></g><g class="dots"><circle class="dot reactive tooltip-trigger" cx="487.1125874125874" cy="53.768988078974246" r="2.5" /><desc class="value">132000</desc><desc class="x left">487.1125874125874</desc><desc class="y left">53.768988078974246</desc><desc class="x_label">Oct</desc></g><g class="dots"><circle class="dot reactive tooltip-trigger" cx="539.9447552447552" cy="40.291126336494244" r="2.5" /><desc class="value">133000</desc><desc class="x left">539.9447552447552</desc><desc class="y left">40.291126336494244</desc><desc class="x_label">Nov</desc></g><g class="dots"><circle class="dot reactive tooltip-trigger" cx="592.776923076923" cy="350.28194641353457" r="2.5" /><desc class="value">110000</desc><desc class="x left top">592.776923076923</desc><desc class="y left top">350.28194641353457</desc><desc class="x_label">Dec</desc></g></g></g><g class="plot text-overlay" transform="translate(175, 46)"><g class="series serie-0 color-0" /></g><g class="plot tooltip-overlay" transform="translate(175, 46)"><g class="tooltip" style="opacity: 0" transform="translate(0 0)"><rect class="tooltip-box" height="0" rx="0" ry="0" width="0" /><g class="text" /></g></g><g class="legends" transform="translate(10, 56)"><g class="legend reactive activate-serie" id="activate-serie-0"><rect class="color-0 reactive" height="12" width="12" x="0.0" y="1.0" /><text x="17.0" y="11.2">Sanam-Pao</text></g></g><g class="legends" transform="translate(790, 56)" /></g></svg>