<?xml version='1.0' encoding='utf-8'?>
<svg xmlns:xlink="http://www.w3.org/1999/xlink" class="pygal-chart" id="chart-56dd89a9-7286-4754-86f5-014fbe88ecaa" viewBox="0 0 800 600" xmlns="http://www.w3.org/2000/svg"><!--Generated with pygal 2.0.11 (etree) ©Kozea 2011-2015 on 2015-12-10--><!--http://pygal.org--><!--http://github.com/Kozea/pygal--><defs><style type="text/css">#chart-56dd89a9-7286-4754-86f5-014fbe88ecaa{-webkit-user-select:none;-webkit-font-smoothing:antialiased;font-family:Consolas,"Liberation Mono",Menlo,Courier,monospace}#chart-56dd89a9-7286-4754-86f5-014fbe88ecaa .title{font-family:Consolas,"Liberation Mono",Menlo,Courier,monospace;font-size:16px}#chart-56dd89a9-7286-4754-86f5-014fbe88ecaa .legends .legend text{font-family:Consolas,"Liberation Mono",Menlo,Courier,monospace;font-size:14px}#chart-56dd89a9-7286-4754-86f5-014fbe88ecaa .axis text{font-family:Consolas,"Liberation Mono",Menlo,Courier,monospace;font-size:10px}#chart-56dd89a9-7286-4754-86f5-014fbe88ecaa .axis text.major{font-family:Consolas,"Liberation Mono",Menlo,Courier,monospace;font-size:10px}#chart-56dd89a9-7286-4754-86f5-014fbe88ecaa .text-overlay text.value{font-family:Consolas,"Liberation Mono",Menlo,Courier,monospace;font-size:16px}#chart-56dd89a9-7286-4754-86f5-014fbe88ecaa .text-overlay text.label{font-family:Consolas,"Liberation Mono",Menlo,Courier,monospace;font-size:10px}#chart-56dd89a9-7286-4754-86f5-014fbe88ecaa .tooltip{font-family:Consolas,"Liberation Mono",Menlo,Courier,monospace;font-size:14px}#chart-56dd89a9-7286-4754-86f5-014fbe88ecaa text.no_data{font-family:Consolas,"Liberation Mono",Menlo,Courier,monospace;font-size:64px}
#chart-56dd89a9-7286-4754-86f5-014fbe88ecaa{background-color:black}#chart-56dd89a9-7286-4754-86f5-014fbe88ecaa path,#chart-56dd89a9-7286-4754-86f5-014fbe88ecaa line,#chart-56dd89a9-7286-4754-86f5-014fbe88ecaa rect,#chart-56dd89a9-7286-4754-86f5-014fbe88ecaa circle{-webkit-transition:250ms;-moz-transition:250ms;transition:250ms}#chart-56dd89a9-7286-4754-86f5-014fbe88ecaa .graph &gt; .background{fill:black}#chart-56dd89a9-7286-4754-86f5-014fbe88ecaa .plot &gt; .background{fill:#111}#chart-56dd89a9-7286-4754-86f5-014fbe88ecaa .graph{fill:#999}#chart-56dd89a9-7286-4754-86f5-014fbe88ecaa text.no_data{fill:#eee}#chart-56dd89a9-7286-4754-86f5-014fbe88ecaa .title{fill:#eee}#chart-56dd89a9-7286-4754-86f5-014fbe88ecaa .legends .legend text{fill:#999}#chart-56dd89a9-7286-4754-86f5-014fbe88ecaa .legends .legend:hover text{fill:#eee}#chart-56dd89a9-7286-4754-86f5-014fbe88ecaa .axis .line{stroke:#eee}#chart-56dd89a9-7286-4754-86f5-014fbe88ecaa .axis .guide.line{stroke:#555}#chart-56dd89a9-7286-4754-86f5-014fbe88ecaa .axis .major.line{stroke:#999}#chart-56dd89a9-7286-4754-86f5-014fbe88ecaa .axis text.major{fill:#eee}#chart-56dd89a9-7286-4754-86f5-014fbe88ecaa .axis.y .guides:hover .guide.line,#chart-56dd89a9-7286-4754-86f5-014fbe88ecaa .line-graph .axis.x .guides:hover .guide.line,#chart-56dd89a9-7286-4754-86f5-014fbe88ecaa .stackedline-graph .axis.x .guides:hover .guide.line,#chart-56dd89a9-7286-4754-86f5-014fbe88ecaa .xy-graph .axis.x .guides:hover .guide.line{stroke:#eee}#chart-56dd89a9-7286-4754-86f5-014fbe88ecaa .axis .guides:hover text{fill:#eee}#chart-56dd89a9-7286-4754-86f5-014fbe88ecaa .reactive{fill-opacity:.8}#chart-56dd89a9-7286-4754-86f5-014fbe88ecaa .reactive.active,#chart-56dd89a9-7286-4754-86f5-014fbe88ecaa .active .reactive{fill-opacity:.4;stroke-width:4}#chart-56dd89a9-7286-4754-86f5-014fbe88ecaa .series text{fill:#eee}#chart-56dd89a9-7286-4754-86f5-014fbe88ecaa .tooltip rect{fill:#111;stroke:#eee;-webkit-transition:opacity 250ms;-moz-transition:opacity 250ms;transition:opacity 250ms}#chart-56dd89a9-7286-4754-86f5-014fbe88ecaa .tooltip .label{fill:#999}#chart-56dd89a9-7286-4754-86f5-014fbe88ecaa .tooltip .label{fill:#999}#chart-56dd89a9-7286-4754-86f5-014fbe88ecaa .tooltip .legend{font-size:.8em;fill:#555}#chart-56dd89a9-7286-4754-86f5-014fbe88ecaa .tooltip .x_label{font-size:.6em;fill:#eee}#chart-56dd89a9-7286-4754-86f5-014fbe88ecaa .tooltip .xlink{font-size:.5em;text-decoration:underline}#chart-56dd89a9-7286-4754-86f5-014fbe88ecaa .tooltip .value{font-size:1.5em}#chart-56dd89a9-7286-4754-86f5-014fbe88ecaa .map-element{fill:#111;stroke:#555 !important}#chart-56dd89a9-7286-4754-86f5-014fbe88ecaa .map-element .reactive{fill-opacity:inherit}#chart-56dd89a9-7286-4754-86f5-014fbe88ecaa .color-0,#chart-56dd89a9-7286-4754-86f5-014fbe88ecaa .color-0 a:visited{stroke:#ff5995;fill:#ff5995}#chart-56dd89a9-7286-4754-86f5-014fbe88ecaa .text-overlay .color-0 text{fill:black}
#chart-56dd89a9-7286-4754-86f5-014fbe88ecaa text.no_data{text-anchor:middle}#chart-56dd89a9-7286-4754-86f5-014fbe88ecaa .guide.line{fill:none}#chart-56dd89a9-7286-4754-86f5-014fbe88ecaa .centered{text-anchor:middle}#chart-56dd89a9-7286-4754-86f5-014fbe88ecaa .title{text-anchor:middle}#chart-56dd89a9-7286-4754-86f5-014fbe88ecaa .legends .legend text{fill-opacity:1}#chart-56dd89a9-7286-4754-86f5-014fbe88ecaa .axis.x text{text-anchor:middle}#chart-56dd89a9-7286-4754-86f5-014fbe88ecaa .axis.x:not(.web) text[transform]{text-anchor:start}#chart-56dd89a9-7286-4754-86f5-014fbe88ecaa .axis.x:not(.web) text[transform].backwards{text-anchor:end}#chart-56dd89a9-7286-4754-86f5-014fbe88ecaa .axis.y text{text-anchor:end}#chart-56dd89a9-7286-4754-86f5-014fbe88ecaa .axis.y text[transform].backwards{text-anchor:start}#chart-56dd89a9-7286-4754-86f5-014fbe88ecaa .axis.y2 text{text-anchor:start}#chart-56dd89a9-7286-4754-86f5-014fbe88ecaa .axis.y2 text[transform].backwards{text-anchor:end}#chart-56dd89a9-7286-4754-86f5-014fbe88ecaa .axis .guide.line{stroke-dasharray:4,4}#chart-56dd89a9-7286-4754-86f5-014fbe88ecaa .axis .major.guide.line{stroke-dasharray:6,6}#chart-56dd89a9-7286-4754-86f5-014fbe88ecaa .horizontal .axis.y .guide.line,#chart-56dd89a9-7286-4754-86f5-014fbe88ecaa .horizontal .axis.y2 .guide.line,#chart-56dd89a9-7286-4754-86f5-014fbe88ecaa .vertical .axis.x .guide.line{opacity:0}#chart-56dd89a9-7286-4754-86f5-014fbe88ecaa .horizontal .axis.always_show .guide.line,#chart-56dd89a9-7286-4754-86f5-014fbe88ecaa .vertical .axis.always_show .guide.line{opacity:1 !important}#chart-56dd89a9-7286-4754-86f5-014fbe88ecaa .axis.y .guides:hover .guide.line,#chart-56dd89a9-7286-4754-86f5-014fbe88ecaa .axis.y2 .guides:hover .guide.line,#chart-56dd89a9-7286-4754-86f5-014fbe88ecaa .axis.x .guides:hover .guide.line{opacity:1}#chart-56dd89a9-7286-4754-86f5-014fbe88ecaa .axis .guides:hover text{opacity:1}#chart-56dd89a9-7286-4754-86f5-014fbe88ecaa .nofill{fill:none}#chart-56dd89a9-7286-4754-86f5-014fbe88ecaa .subtle-fill{fill-opacity:.2}#chart-56dd89a9-7286-4754-86f5-014fbe88ecaa .dot{stroke-width:1px;fill-opacity:1}#chart-56dd89a9-7286-4754-86f5-014fbe88ecaa .dot.active{stroke-width:5px}#chart-56dd89a9-7286-4754-86f5-014fbe88ecaa .dot.negative{fill:transparent}#chart-56dd89a9-7286-4754-86f5-014fbe88ecaa text,#chart-56dd89a9-7286-4754-86f5-014fbe88ecaa tspan{stroke:none !important}#chart-56dd89a9-7286-4754-86f5-014fbe88ecaa .series text.active{opacity:1}#chart-56dd89a9-7286-4754-86f5-014fbe88ecaa .tooltip rect{fill-opacity:.95;stroke-width:.5}#chart-56dd89a9-7286-4754-86f5-014fbe88ecaa .tooltip text{fill-opacity:1}#chart-56dd89a9-7286-4754-86f5-014fbe88ecaa .showable{visibility:hidden}#chart-56dd89a9-7286-4754-86f5-014fbe88ecaa .showable.shown{visibility:visible}</style><script type="text/javascript">window.pygal = window.pygal || {};window.pygal.config = window.pygal.config || {};window.pygal.config['56dd89a9-7286-4754-86f5-014fbe88ecaa'] = {"css": ["file://style.css", "file://graph.css"], "legend_at_bottom": false, "stroke_style": null, "missing_value_fill_truncation": "x", "tooltip_border_radius": 0, "inner_radius": 0, "min_scale": 4, "show_x_guides": false, "y_label_rotation": 0, "show_only_major_dots": false, "interpolation_precision": 250, "margin_right": null, "x_label_rotation": 0, "dynamic_print_values": false, "margin_top": null, "x_labels_major_count": null, "js": ["//kozea.github.io/pygal.js/2.0.x/pygal-tooltips.min.js"], "interpolation_parameters": {}, "no_prefix": false, "title": "Siam 50", "x_labels": ["Jan", "Feb", "Mar", "Apr", "May", "Jun", "Jul", "Aug", "Sep", "Oct", "Nov", "Dec"], "width": 800, "range": null, "show_y_guides": true, "truncate_legend": null, "force_uri_protocol": null, "x_title": null, "interpolate": "cubic", "fill": true, "print_zeroes": true, "margin_left": null, "legend_box_size": 12, "show_minor_y_labels": true, "logarithmic": false, "legend_at_bottom_columns": null, "value_formatter": null, "stroke": true, "margin_bottom": null, "pretty_print": false, "show_minor_x_labels": true, "y_labels_major_count": null, "disable_xml_declaration": false, "y_labels_major_every": null, "truncate_label": null, "stack_from_top": false, "defs": [], "human_readable": false, "include_x_axis": false, "show_legend": true, "tooltip_fancy_mode": true, "y_title": null, "style": {"tooltip_font_size": 14, "major_label_font_family": "Consolas, \"Liberation Mono\", Menlo, Courier, monospace", "value_font_family": "Consolas, \"Liberation Mono\", Menlo, Courier, monospace", "foreground": "#999", "tooltip_font_family": "Consolas, \"Liberation Mono\", Menlo, Courier, monospace", "opacity": ".8", "font_family": "Consolas, \"Liberation Mono\", Menlo, Courier, monospace", "foreground_subtle": "#555", "colors": ["#ff5995", "#b6e354", "#feed6c", "#8cedff", "#9e6ffe", "#899ca1", "#f8f8f2", "#bf4646", "#516083", "#f92672", "#82b414", "#fd971f", "#56c2d6", "#808384", "#8c54fe", "#465457"], "foreground_strong": "#eee", "no_data_font_size": 64, "opacity_hover": ".4", "plot_background": "#111", "value_font_size": 16, "legend_font_family": "Consolas, \"Liberation Mono\", Menlo, Courier, monospace", "value_label_font_size": 10, "major_guide_stroke_dasharray": "6,6", "legend_font_size": 14, "label_font_family": "Consolas, \"Liberation Mono\", Menlo, Courier, monospace", "label_font_size": 10, "transition": "250ms", "title_font_size": 16, "value_label_font_family": "Consolas, \"Liberation Mono\", Menlo, Courier, monospace", "background": "black", "title_font_family": "Consolas, \"Liberation Mono\", Menlo, Courier, monospace", "value_colors": [], "no_data_font_family": "Consolas, \"Liberation Mono\", Menlo, Courier, monospace", "guide_stroke_dasharray": "4,4", "major_label_font_size": 10}, "strict": false, "xrange": null, "rounded_bars": null, "x_labels_major": null, "dots_size": 2.5, "show_dots": true, "order_min": null, "no_data_text": "No data", "y_labels": null, "print_labels": false, "spacing": 10, "y_labels_major": null, "print_values": false, "legends": ["Siam"], "zero": 0, "height": 600, "margin": 20, "box_mode": "extremes", "show_y_labels": true, "inverse_y_axis": false, "max_scale": 16, "show_x_labels": true, "explicit_size": false, "x_value_formatter": null, "secondary_range": null, "x_labels_major_every": null, "half_pie": false}</script><script type="text/javascript" xlink:href="//kozea.github.io/pygal.js/2.0.x/pygal-tooltips.min.js" /></defs><title>Siam 50</title><g class="graph line-graph vertical"><rect class="background" height="600" width="800" x="0" y="0" /><g class="plot" transform="translate(139, 46)"><rect class="background" height="514" width="640.4" x="0" y="0" /><g class="axis y"><path class="line" d="M0.000000 514.000000 h640.400000" /><g class="guides"><path class="major guide line" d="M0.000000 485.991971 h640.400000" /><text class="major" x="-5" y="489.4919710596569">1100000.0</text><title>1100000.0</title></g><g class="guides"><path class="guide line" d="M0.000000 448.237739 h640.400000" /><text class="" x="-5" y="451.7377390260742">1120000.0</text><title>1120000.0</title></g><g class="guides"><path class="guide line" d="M0.000000 410.483507 h640.400000" /><text class="" x="-5" y="413.9835069924915">1140000.0</text><title>1140000.0</title></g><g class="guides"><path class="guide line" d="M0.000000 372.729275 h640.400000" /><text class="" x="-5" y="376.22927495890883">1160000.0</text><title>1160000.0</title></g><g class="guides"><path class="guide line" d="M0.000000 334.975043 h640.400000" /><text class="" x="-5" y="338.47504292532614">1180000.0</text><title>1180000.0</title></g><g class="guides"><path class="major guide line" d="M0.000000 297.220811 h640.400000" /><text class="major" x="-5" y="300.72081089174344">1200000.0</text><title>1200000.0</title></g><g class="guides"><path class="guide line" d="M0.000000 259.466579 h640.400000" /><text class="" x="-5" y="262.9665788581608">1220000.0</text><title>1220000.0</title></g><g class="guides"><path class="guide line" d="M0.000000 221.712347 h640.400000" /><text class="" x="-5" y="225.2123468245781">1240000.0</text><title>1240000.0</title></g><g class="guides"><path class="guide line" d="M0.000000 183.958115 h640.400000" /><text class="" x="-5" y="187.4581147909954">1260000.0</text><title>1260000.0</title></g><g class="guides"><path class="guide line" d="M0.000000 146.203883 h640.400000" /><text class="" x="-5" y="149.7038827574127">1280000.0</text><title>1280000.0</title></g><g class="guides"><path class="major guide line" d="M0.000000 108.449651 h640.400000" /><text class="major" x="-5" y="111.94965072383008">1300000.0</text><title>1300000.0</title></g><g class="guides"><path class="guide line" d="M0.000000 70.695419 h640.400000" /><text class="" x="-5" y="74.19541869024738">1320000.0</text><title>1320000.0</title></g><g class="guides"><path class="guide line" d="M0.000000 32.941187 h640.400000" /><text class="" x="-5" y="36.441186656664684">1340000.0</text><title>1340000.0</title></g></g><g class="axis x"><g class="guides"><path class="line" d="M12.315385 0.000000 v514.000000" /><text class="" x="12.315384615384614" y="529.0">Jan</text></g><g class="guides"><path class="guide line" d="M68.294406 0.000000 v514.000000" /><text class="" x="68.2944055944056" y="529.0">Feb</text></g><g class="guides"><path class="guide line" d="M124.273427 0.000000 v514.000000" /><text class="" x="124.27342657342656" y="529.0">Mar</text></g><g class="guides"><path class="guide line" d="M180.252448 0.000000 v514.000000" /><text class="" x="180.25244755244753" y="529.0">Apr</text></g><g class="guides"><path class="guide line" d="M236.231469 0.000000 v514.000000" /><text class="" x="236.23146853146855" y="529.0">May</text></g><g class="guides"><path class="guide line" d="M292.210490 0.000000 v514.000000" /><text class="" x="292.2104895104895" y="529.0">Jun</text></g><g class="guides"><path class="guide line" d="M348.189510 0.000000 v514.000000" /><text class="" x="348.1895104895105" y="529.0">Jul</text></g><g class="guides"><path class="guide line" d="M404.168531 0.000000 v514.000000" /><text class="" x="404.1685314685314" y="529.0">Aug</text></g><g class="guides"><path class="guide line" d="M460.147552 0.000000 v514.000000" /><text class="" x="460.1475524475524" y="529.0">Sep</text></g><g class="guides"><path class="guide line" d="M516.126573 0.000000 v514.000000" /><text class="" x="516.1265734265735" y="529.0">Oct</text></g><g class="guides"><path class="guide line" d="M572.105594 0.000000 v514.000000" /><text class="" x="572.1055944055943" y="529.0">Nov</text></g><g class="guides"><path class="guide line" d="M628.084615 0.000000 v514.000000" /><text class="" x="628.0846153846153" y="529.0">Dec</text></g></g><g class="series serie-0 color-0"><path class="line reactive" d="M12.315385 514.000000 L12.315385 329.311908 12.539301 330.515794 12.763217 331.719600 12.987133 332.923246 13.211049 334.126651 13.434965 335.329737 13.658881 336.532422 13.882797 337.734627 14.106713 338.936271 14.330629 340.137275 14.554545 341.337559 14.778462 342.537042 15.002378 343.735644 15.226294 344.933286 15.450210 346.129887 15.674126 347.325367 15.898042 348.519646 16.121958 349.712645 16.345874 350.904282 16.569790 352.094479 16.793706 353.283154 17.017622 354.470228 17.241538 355.655622 17.465455 356.839254 17.689371 358.021044 17.913287 359.200914 18.137203 360.378782 18.361119 361.554569 18.585035 362.728194 18.808951 363.899577 19.032867 365.068639 19.256783 366.235300 19.480699 367.399478 19.704615 368.561095 19.928531 369.720070 20.152448 370.876323 20.376364 372.029774 20.600280 373.180344 20.824196 374.327951 21.048112 375.472516 21.272028 376.613959 21.495944 377.752200 21.719860 378.887158 21.943776 380.018754 22.167692 381.146908 22.391608 382.271539 22.615524 383.392568 22.839441 384.509915 23.063357 385.623498 23.287273 386.733239 23.511189 387.839058 23.735105 388.940874 23.959021 390.038606 24.182937 391.132176 24.406853 392.221503 24.630769 393.306507 24.854685 394.387108 25.078601 395.463226 25.302517 396.534781 25.526434 397.601693 25.750350 398.663881 25.974266 399.721266 26.198182 400.773768 26.422098 401.821306 26.646014 402.863801 26.869930 403.901172 27.093846 404.933340 27.317762 405.960224 27.541678 406.981744 27.765594 407.997821 27.989510 409.008374 28.213427 410.013322 28.437343 411.012587 28.661259 412.006088 28.885175 412.993745 29.109091 413.975478 29.333007 414.951207 29.556923 415.920852 29.780839 416.884332 30.004755 417.841568 30.228671 418.792480 30.452587 419.736987 30.676503 420.675010 30.900420 421.606468 31.124336 422.531282 31.348252 423.449371 31.572168 424.360655 31.796084 425.265055 32.020000 426.162490 32.243916 427.052880 32.467832 427.936145 32.691748 428.812205 32.915664 429.680980 33.139580 430.542390 33.363497 431.396355 33.587413 432.242795 33.811329 433.081629 34.035245 433.912778 34.259161 434.736162 34.483077 435.551701 34.706993 436.359314 34.930909 437.158921 35.154825 437.950443 35.378741 438.733799 35.602657 439.508910 35.826573 440.275695 36.050490 441.034074 36.274406 441.783967 36.498322 442.525294 36.722238 443.257976 36.946154 443.981931 37.170070 444.697080 37.393986 445.403343 37.617902 446.100640 37.841818 446.788891 38.065734 447.468015 38.289650 448.137933 38.513566 448.798565 38.737483 449.449830 38.961399 450.091649 39.185315 450.723941 39.409231 451.346627 39.633147 451.959626 39.857063 452.562858 40.080979 453.156243 40.304895 453.739702 40.528811 454.313154 40.752727 454.876518 40.976643 455.429716 41.200559 455.972667 41.424476 456.505290 41.648392 457.027506 41.872308 457.539236 42.096224 458.040397 42.320140 458.530912 42.544056 459.010699 42.767972 459.479679 42.991888 459.937771 43.215804 460.384895 43.439720 460.820972 43.663636 461.245922 43.887552 461.659663 44.111469 462.062117 44.335385 462.453203 44.559301 462.832841 44.783217 463.200952 45.007133 463.557454 45.231049 463.902268 45.454965 464.235314 45.678881 464.556512 45.902797 464.865781 46.126713 465.163043 46.350629 465.448216 46.574545 465.721220 46.798462 465.981977 47.022378 466.230404 47.246294 466.466424 47.470210 466.689954 47.694126 466.900916 47.918042 467.099229 48.141958 467.284814 48.365874 467.457589 48.589790 467.617476 48.813706 467.764394 49.037622 467.898263 49.261538 468.019002 49.485455 468.126533 49.709371 468.220775 49.933287 468.301647 50.157203 468.369070 50.381119 468.422964 50.605035 468.463248 50.828951 468.489843 51.052867 468.502668 51.276783 468.501644 51.500699 468.486690 51.724615 468.457727 51.948531 468.414674 52.172448 468.357451 52.396364 468.285978 52.620280 468.200176 52.844196 468.099963 53.068112 467.985261 53.292028 467.855988 53.515944 467.712066 53.739860 467.553413 53.963776 467.379950 54.187692 467.191597 54.411608 466.988274 54.635524 466.769900 54.859441 466.536395 55.083357 466.287681 55.307273 466.023675 55.531189 465.744299 55.755105 465.449473 55.979021 465.139116 56.202937 464.813148 56.426853 464.471489 56.650769 464.114059 56.874685 463.740779 57.098601 463.351567 57.322517 462.946344 57.546434 462.525031 57.770350 462.087546 57.994266 461.633810 58.218182 461.163743 58.442098 460.677264 58.666014 460.174294 58.889930 459.654753 59.113846 459.118560 59.337762 458.565636 59.561678 457.995900 59.785594 457.409272 60.009510 456.805673 60.233427 456.185022 60.457343 455.547239 60.681259 454.892244 60.905175 454.219958 61.129091 453.530299 61.353007 452.823189 61.576923 452.098546 61.800839 451.356291 62.024755 450.596344 62.248671 449.818625 62.472587 449.023054 62.696503 448.209550 62.920420 447.378033 63.144336 446.528425 63.368252 445.660643 63.592168 444.774610 63.816084 443.870243 64.040000 442.947464 64.263916 442.006192 64.487832 441.046347 64.711748 440.067850 64.935664 439.070619 65.159580 438.054576 65.383497 437.019640 65.607413 435.965730 65.831329 434.892767 66.055245 433.800672 66.279161 432.689363 66.503077 431.558760 66.726993 430.408785 66.950909 429.239356 67.174825 428.050393 67.398741 426.841817 67.622657 425.613547 67.846573 424.365504 68.070490 423.097607 68.294406 421.809777 68.518322 420.501980 68.742238 419.174376 68.966154 417.827172 69.190070 416.460575 69.413986 415.074790 69.637902 413.670026 69.861818 412.246488 70.085734 410.804383 70.309650 409.343918 70.533566 407.865301 70.757483 406.368736 70.981399 404.854432 71.205315 403.322596 71.429231 401.773432 71.653147 400.207150 71.877063 398.623954 72.100979 397.024052 72.324895 395.407651 72.548811 393.774958 72.772727 392.126178 72.996643 390.461520 73.220559 388.781189 73.444476 387.085392 73.668392 385.374337 73.892308 383.648229 74.116224 381.907275 74.340140 380.151683 74.564056 378.381659 74.787972 376.597410 75.011888 374.799142 75.235804 372.987063 75.459720 371.161378 75.683636 369.322295 75.907552 367.470020 76.131469 365.604760 76.355385 363.726723 76.579301 361.836113 76.803217 359.933140 77.027133 358.018008 77.251049 356.090925 77.474965 354.152097 77.698881 352.201732 77.922797 350.240036 78.146713 348.267215 78.370629 346.283477 78.594545 344.289028 78.818462 342.284075 79.042378 340.268824 79.266294 338.243483 79.490210 336.208258 79.714126 334.163356 79.938042 332.108983 80.161958 330.045347 80.385874 327.972654 80.609790 325.891110 80.833706 323.800923 81.057622 321.702300 81.281538 319.595446 81.505455 317.480569 81.729371 315.357875 81.953287 313.227572 82.177203 311.089865 82.401119 308.944962 82.625035 306.793069 82.848951 304.634394 83.072867 302.469142 83.296783 300.297521 83.520699 298.119737 83.744615 295.935997 83.968531 293.746508 84.192448 291.551477 84.416364 289.351109 84.640280 287.145613 84.864196 284.935194 85.088112 282.720060 85.312028 280.500416 85.535944 278.276471 85.759860 276.048430 85.983776 273.816501 86.207692 271.580890 86.431608 269.341803 86.655524 267.099448 86.879441 264.854032 87.103357 262.605760 87.327273 260.354840 87.551189 258.101478 87.775105 255.845882 87.999021 253.588258 88.222937 251.328812 88.446853 249.067752 88.670769 246.805284 88.894685 244.541615 89.118601 242.276951 89.342517 240.011500 89.566434 237.745467 89.790350 235.479061 90.014266 233.212487 90.238182 230.945952 90.462098 228.679664 90.686014 226.413828 90.909930 224.148651 91.133846 221.884341 91.357762 219.621104 91.581678 217.359146 91.805594 215.098675 92.029510 212.839896 92.253427 210.583018 92.477343 208.328246 92.701259 206.075788 92.925175 203.825849 93.149091 201.578638 93.373007 199.334360 93.596923 197.093222 93.820839 194.855431 94.044755 192.621194 94.268671 190.390717 94.492587 188.164208 94.716503 185.941872 94.940420 183.723917 95.164336 181.510549 95.388252 179.301976 95.612168 177.098403 95.836084 174.900038 96.060000 172.707087 96.283916 170.519758 96.507832 168.338256 96.731748 166.162788 96.955664 163.993562 97.179580 161.830784 97.403497 159.674660 97.627413 157.525398 97.851329 155.383204 98.075245 153.248285 98.299161 151.120847 98.523077 149.001098 98.746993 146.889244 98.970909 144.785492 99.194825 142.690049 99.418741 140.603120 99.642657 138.524914 99.866573 136.455637 100.090490 134.395494 100.314406 132.344695 100.538322 130.303444 100.762238 128.271949 100.986154 126.250416 101.210070 124.239052 101.433986 122.238065 101.657902 120.247659 101.881818 118.268044 102.105734 116.299424 102.329650 114.342007 102.553566 112.396000 102.777483 110.461609 103.001399 108.539041 103.225315 106.628503 103.449231 104.730201 103.673147 102.844342 103.897063 100.971134 104.120979 99.110782 104.344895 97.263493 104.568811 95.429475 104.792727 93.608933 105.016643 91.802075 105.240559 90.009108 105.464476 88.230237 105.688392 86.465670 105.912308 84.715614 106.136224 82.980275 106.360140 81.259860 106.584056 79.554576 106.807972 77.864629 107.031888 76.190227 107.255804 74.531575 107.479720 72.888881 107.703636 71.262351 107.927552 69.652193 108.151469 68.058612 108.375385 66.481816 108.599301 64.922012 108.823217 63.379405 109.047133 61.854203 109.271049 60.346613 109.494965 58.856841 109.718881 57.385094 109.942797 55.931579 110.166713 54.496502 110.390629 53.080070 110.614545 51.682490 110.838462 50.303969 111.062378 48.944713 111.286294 47.604930 111.510210 46.284825 111.734126 44.984605 111.958042 43.704479 112.181958 42.444651 112.405874 41.205329 112.629790 39.986719 112.853706 38.789029 113.077622 37.612464 113.301538 36.457233 113.525455 35.323540 113.749371 34.211594 113.973287 33.121601 114.197203 32.053768 114.421119 31.008300 114.645035 29.985406 114.868951 28.985292 115.092867 28.008164 115.316783 27.054230 115.540699 26.123696 115.764615 25.216768 115.988531 24.333654 116.212448 23.474560 116.436364 22.639693 116.660280 21.829260 116.884196 21.043467 117.108112 20.282522 117.332028 19.546630 117.555944 18.835999 117.779860 18.150835 118.003776 17.491345 118.227692 16.857736 118.451608 16.250215 118.675524 15.668988 118.899441 15.114262 119.123357 14.586244 119.347273 14.085140 119.571189 13.611158 119.795105 13.164503 120.019021 12.745383 120.242937 12.354004 120.466853 11.990574 120.690769 11.655299 120.914685 11.348385 121.138601 11.070039 121.362517 10.820469 121.586434 10.599880 121.810350 10.408480 122.034266 10.246475 122.258182 10.114072 122.482098 10.011478 122.706014 9.938899 122.929930 9.896543 123.153846 9.884615 123.377762 9.903324 123.601678 9.952874 123.825594 10.033474 124.049510 10.145329 124.273427 10.288647 124.497343 10.463564 124.721259 10.669930 124.945175 10.907527 125.169091 11.176135 125.393007 11.475535 125.616923 11.805508 125.840839 12.165833 126.064755 12.556292 126.288671 12.976666 126.512587 13.426734 126.736503 13.906278 126.960420 14.415078 127.184336 14.952915 127.408252 15.519569 127.632168 16.114822 127.856084 16.738453 128.080000 17.390243 128.303916 18.069973 128.527832 18.777423 128.751748 19.512375 128.975664 20.274609 129.199580 21.063905 129.423497 21.880043 129.647413 22.722806 129.871329 23.591973 130.095245 24.487324 130.319161 25.408641 130.543077 26.355705 130.766993 27.328295 130.990909 28.326192 131.214825 29.349177 131.438741 30.397031 131.662657 31.469534 131.886573 32.566467 132.110490 33.687610 132.334406 34.832745 132.558322 36.001651 132.782238 37.194109 133.006154 38.409900 133.230070 39.648805 133.453986 40.910604 133.677902 42.195078 133.901818 43.502008 134.125734 44.831173 134.349650 46.182355 134.573566 47.555335 134.797483 48.949892 135.021399 50.365808 135.245315 51.802863 135.469231 53.260837 135.693147 54.739512 135.917063 56.238669 136.140979 57.758086 136.364895 59.297546 136.588811 60.856829 136.812727 62.435716 137.036643 64.033986 137.260559 65.651422 137.484476 67.287802 137.708392 68.942909 137.932308 70.616522 138.156224 72.308423 138.380140 74.018391 138.604056 75.746208 138.827972 77.491654 139.051888 79.254509 139.275804 81.034555 139.499720 82.831572 139.723636 84.645341 139.947552 86.475642 140.171469 88.322255 140.395385 90.184962 140.619301 92.063543 140.843217 93.957779 141.067133 95.867450 141.291049 97.792337 141.514965 99.732221 141.738881 101.686881 141.962797 103.656100 142.186713 105.639657 142.410629 107.637333 142.634545 109.648909 142.858462 111.674164 143.082378 113.712881 143.306294 115.764840 143.530210 117.829820 143.754126 119.907603 143.978042 121.997970 144.201958 124.100701 144.425874 126.215576 144.649790 128.342377 144.873706 130.480883 145.097622 132.630876 145.321538 134.792136 145.545455 136.964444 145.769371 139.147580 145.993287 141.341325 146.217203 143.545460 146.441119 145.759765 146.665035 147.984020 146.888951 150.218008 147.112867 152.461507 147.336783 154.714299 147.560699 156.976164 147.784615 159.246884 148.008531 161.526238 148.232448 163.814007 148.456364 166.109972 148.680280 168.413913 148.904196 170.725611 149.128112 173.044847 149.352028 175.371402 149.575944 177.705055 149.799860 180.045588 150.023776 182.392781 150.247692 184.746415 150.471608 187.106270 150.695524 189.472127 150.919441 191.843767 151.143357 194.220970 151.367273 196.603517 151.591189 198.991189 151.815105 201.383766 152.039021 203.781028 152.262937 206.182757 152.486853 208.588733 152.710769 210.998736 152.934685 213.412548 153.158601 215.829949 153.382517 218.250719 153.606434 220.674639 153.830350 223.101490 154.054266 225.531052 154.278182 227.963106 154.502098 230.397433 154.726014 232.833813 154.949930 235.272027 155.173846 237.711855 155.397762 240.153079 155.621678 242.595478 155.845594 245.038833 156.069510 247.482926 156.293427 249.927536 156.517343 252.372444 156.741259 254.817431 156.965175 257.262277 157.189091 259.706763 157.413007 262.150671 157.636923 264.593779 157.860839 267.035869 158.084755 269.476722 158.308671 271.916118 158.532587 274.353838 158.756503 276.789662 158.980420 279.223371 159.204336 281.654746 159.428252 284.083567 159.652168 286.509615 159.876084 288.932670 160.100000 291.352514 160.323916 293.768926 160.547832 296.181688 160.771748 298.590580 160.995664 300.995382 161.219580 303.395876 161.443497 305.791841 161.667413 308.183059 161.891329 310.569310 162.115245 312.950375 162.339161 315.326034 162.563077 317.696068 162.786993 320.060257 163.010909 322.418383 163.234825 324.770226 163.458741 327.115566 163.682657 329.454184 163.906573 331.785861 164.130490 334.110377 164.354406 336.427513 164.578322 338.737050 164.802238 341.038767 165.026154 343.332447 165.250070 345.617869 165.473986 347.894814 165.697902 350.163063 165.921818 352.422396 166.145734 354.672594 166.369650 356.913437 166.593566 359.144707 166.817483 361.366183 167.041399 363.577647 167.265315 365.778879 167.489231 367.969659 167.713147 370.149769 167.937063 372.318988 168.160979 374.477098 168.384895 376.623880 168.608811 378.759112 168.832727 380.882578 169.056643 382.994056 169.280559 385.093328 169.504476 387.180174 169.728392 389.254375 169.952308 391.315711 170.176224 393.363964 170.400140 395.398913 170.624056 397.420339 170.847972 399.428024 171.071888 401.421747 171.295804 403.401289 171.519720 405.366431 171.743636 407.316954 171.967552 409.252637 172.191469 411.173262 172.415385 413.078610 172.639301 414.968460 172.863217 416.842594 173.087133 418.700793 173.311049 420.542836 173.534965 422.368504 173.758881 424.177578 173.982797 425.969839 174.206713 427.745068 174.430629 429.503044 174.654545 431.243549 174.878462 432.966363 175.102378 434.671266 175.326294 436.358040 175.550210 438.026465 175.774126 439.676322 175.998042 441.307391 176.221958 442.919453 176.445874 444.512288 176.669790 446.085677 176.893706 447.639401 177.117622 449.173241 177.341538 450.686976 177.565455 452.180388 177.789371 453.653258 178.013287 455.105365 178.237203 456.536490 178.461119 457.946415 178.685035 459.334919 178.908951 460.701784 179.132867 462.046789 179.356783 463.369716 179.580699 464.670346 179.804615 465.948458 180.028531 467.203834 180.252448 468.436253 180.476364 469.645553 180.700280 470.831792 180.924196 471.995083 181.148112 473.135541 181.372028 474.253279 181.595944 475.348412 181.819860 476.421054 182.043776 477.471319 182.267692 478.499320 182.491608 479.505172 182.715524 480.488989 182.939441 481.450884 183.163357 482.390972 183.387273 483.309367 183.611189 484.206182 183.835105 485.081532 184.059021 485.935531 184.282937 486.768292 184.506853 487.579931 184.730769 488.370559 184.954685 489.140293 185.178601 489.889245 185.402517 490.617530 185.626434 491.325261 185.850350 492.012554 186.074266 492.679521 186.298182 493.326276 186.522098 493.952935 186.746014 494.559610 186.969930 495.146415 187.193846 495.713466 187.417762 496.260875 187.641678 496.788757 187.865594 497.297225 188.089510 497.786394 188.313427 498.256378 188.537343 498.707291 188.761259 499.139246 188.985175 499.552358 189.209091 499.946741 189.433007 500.322508 189.656923 500.679774 189.880839 501.018653 190.104755 501.339258 190.328671 501.641705 190.552587 501.926105 190.776503 502.192575 191.000420 502.441227 191.224336 502.672176 191.448252 502.885536 191.672168 503.081421 191.896084 503.259944 192.120000 503.421220 192.343916 503.565362 192.567832 503.692486 192.791748 503.802704 193.015664 503.896130 193.239580 503.972880 193.463497 504.033066 193.687413 504.076803 193.911329 504.104204 194.135245 504.115385 194.359161 504.110458 194.583077 504.089537 194.806993 504.052738 195.030909 504.000173 195.254825 503.931957 195.478741 503.848204 195.702657 503.749027 195.926573 503.634541 196.150490 503.504860 196.374406 503.360097 196.598322 503.200367 196.822238 503.025784 197.046154 502.836462 197.270070 502.632515 197.493986 502.414056 197.717902 502.181200 197.941818 501.934060 198.165734 501.672752 198.389650 501.397388 198.613566 501.108082 198.837483 500.804950 199.061399 500.488104 199.285315 500.157659 199.509231 499.813729 199.733147 499.456427 199.957063 499.085869 200.180979 498.702167 200.404895 498.305435 200.628811 497.895789 200.852727 497.473341 201.076643 497.038206 201.300559 496.590497 201.524476 496.130330 201.748392 495.657817 201.972308 495.173073 202.196224 494.676211 202.420140 494.167347 202.644056 493.646593 202.867972 493.114064 203.091888 492.569873 203.315804 492.014136 203.539720 491.446965 203.763636 490.868475 203.987552 490.278779 204.211469 489.677992 204.435385 489.066229 204.659301 488.443601 204.883217 487.810225 205.107133 487.166213 205.331049 486.511680 205.554965 485.846740 205.778881 485.171507 206.002797 484.486094 206.226713 483.790616 206.450629 483.085187 206.674545 482.369921 206.898462 481.644931 207.122378 480.910332 207.346294 480.166238 207.570210 479.412763 207.794126 478.650020 208.018042 477.878125 208.241958 477.097190 208.465874 476.307329 208.689790 475.508658 208.913706 474.701289 209.137622 473.885337 209.361538 473.060916 209.585455 472.228139 209.809371 471.387122 210.033287 470.537977 210.257203 469.680819 210.481119 468.815761 210.705035 467.942919 210.928951 467.062405 211.152867 466.174334 211.376783 465.278820 211.600699 464.375976 211.824615 463.465917 212.048531 462.548757 212.272448 461.624610 212.496364 460.693590 212.720280 459.755810 212.944196 458.811385 213.168112 457.860429 213.392028 456.903056 213.615944 455.939380 213.839860 454.969514 214.063776 453.993573 214.287692 453.011671 214.511608 452.023921 214.735524 451.030439 214.959441 450.031337 215.183357 449.026730 215.407273 448.016732 215.631189 447.001456 215.855105 445.981018 216.079021 444.955530 216.302937 443.925107 216.526853 442.889862 216.750769 441.849911 216.974685 440.805366 217.198601 439.756342 217.422517 438.702953 217.646434 437.645313 217.870350 436.583535 218.094266 435.517735 218.318182 434.448025 218.542098 433.374520 218.766014 432.297333 218.989930 431.216580 219.213846 430.132373 219.437762 429.044827 219.661678 427.954056 219.885594 426.860173 220.109510 425.763294 220.333427 424.663531 220.557343 423.560999 220.781259 422.455812 221.005175 421.348084 221.229091 420.237928 221.453007 419.125459 221.676923 418.010792 221.900839 416.894038 222.124755 415.775314 222.348671 414.654733 222.572587 413.532408 222.796503 412.408454 223.020420 411.282985 223.244336 410.156115 223.468252 409.027957 223.692168 407.898627 223.916084 406.768237 224.140000 405.636902 224.363916 404.504736 224.587832 403.371852 224.811748 402.238366 225.035664 401.104390 225.259580 399.970039 225.483497 398.835427 225.707413 397.700668 225.931329 396.565875 226.155245 395.431164 226.379161 394.296647 226.603077 393.162439 226.826993 392.028654 227.050909 390.895406 227.274825 389.762808 227.498741 388.630975 227.722657 387.500022 227.946573 386.370060 228.170490 385.241206 228.394406 384.113573 228.618322 382.987274 228.842238 381.862425 229.066154 380.739138 229.290070 379.617528 229.513986 378.497708 229.737902 377.379794 229.961818 376.263899 230.185734 375.150136 230.409650 374.038620 230.633566 372.929465 230.857483 371.822785 231.081399 370.718693 231.305315 369.617305 231.529231 368.518733 231.753147 367.423092 231.977063 366.330496 232.200979 365.241059 232.424895 364.154895 232.648811 363.072117 232.872727 361.992841 233.096643 360.917179 233.320559 359.845246 233.544476 358.777156 233.768392 357.713022 233.992308 356.652960 234.216224 355.597082 234.440140 354.545504 234.664056 353.498338 234.887972 352.455699 235.111888 351.417701 235.335804 350.384457 235.559720 349.356083 235.783636 348.332691 236.007552 347.314396 236.231469 346.301313 236.455385 345.293532 236.679301 344.291059 236.903217 343.293877 237.127133 342.301969 237.351049 341.315318 237.574965 340.333908 237.798881 339.357721 238.022797 338.386741 238.246713 337.420950 238.470629 336.460332 238.694545 335.504869 238.918462 334.554545 239.142378 333.609344 239.366294 332.669247 239.590210 331.734238 239.814126 330.804300 240.038042 329.879417 240.261958 328.959571 240.485874 328.044745 240.709790 327.134923 240.933706 326.230088 241.157622 325.330222 241.381538 324.435309 241.605455 323.545332 241.829371 322.660274 242.053287 321.780118 242.277203 320.904847 242.501119 320.034444 242.725035 319.168892 242.948951 318.308175 243.172867 317.452275 243.396783 316.601176 243.620699 315.754861 243.844615 314.913312 244.068531 314.076513 244.292448 313.244447 244.516364 312.417097 244.740280 311.594446 244.964196 310.776477 245.188112 309.963174 245.412028 309.154519 245.635944 308.350495 245.859860 307.551086 246.083776 306.756274 246.307692 305.966043 246.531608 305.180376 246.755524 304.399256 246.979441 303.622666 247.203357 302.850588 247.427273 302.083007 247.651189 301.319905 247.875105 300.561266 248.099021 299.807071 248.322937 299.057306 248.546853 298.311951 248.770769 297.570992 248.994685 296.834410 249.218601 296.102189 249.442517 295.374312 249.666434 294.650762 249.890350 293.931522 250.114266 293.216575 250.338182 292.505905 250.562098 291.799493 250.786014 291.097325 251.009930 290.399381 251.233846 289.705647 251.457762 289.016104 251.681678 288.330736 251.905594 287.649526 252.129510 286.972456 252.353427 286.299511 252.577343 285.630673 252.801259 284.965925 253.025175 284.305250 253.249091 283.648632 253.473007 282.996054 253.696923 282.347497 253.920839 281.702947 254.144755 281.062385 254.368671 280.425795 254.592587 279.793160 254.816503 279.164463 255.040420 278.539688 255.264336 277.918816 255.488252 277.301831 255.712168 276.688717 255.936084 276.079457 256.160000 275.474033 256.383916 274.872428 256.607832 274.274626 256.831748 273.680610 257.055664 273.090363 257.279580 272.503868 257.503497 271.921108 257.727413 271.342066 257.951329 270.766725 258.175245 270.195069 258.399161 269.627080 258.623077 269.062742 258.846993 268.502037 259.070909 267.944948 259.294825 267.391460 259.518741 266.841554 259.742657 266.295214 259.966573 265.752424 260.190490 265.213165 260.414406 264.677422 260.638322 264.145176 260.862238 263.616413 261.086154 263.091113 261.310070 262.569261 261.533986 262.050840 261.757902 261.535833 261.981818 261.024222 262.205734 260.515991 262.429650 260.011123 262.653566 259.509602 262.877483 259.011409 263.101399 258.516529 263.325315 258.024944 263.549231 257.536637 263.773147 257.051592 263.997063 256.569791 264.220979 256.091218 264.444895 255.615856 264.668811 255.143688 264.892727 254.674696 265.116643 254.208865 265.340559 253.746177 265.564476 253.286615 265.788392 252.830162 266.012308 252.376802 266.236224 251.926517 266.460140 251.479290 266.684056 251.035105 266.907972 250.593945 267.131888 250.155793 267.355804 249.720632 267.579720 249.288444 267.803636 248.859214 268.027552 248.432924 268.251469 248.009557 268.475385 247.589096 268.699301 247.171525 268.923217 246.756827 269.147133 246.344983 269.371049 245.935979 269.594965 245.529796 269.818881 245.126419 270.042797 244.725829 270.266713 244.328010 270.490629 243.932945 270.714545 243.540618 270.938462 243.151010 271.162378 242.764107 271.386294 242.379889 271.610210 241.998341 271.834126 241.619446 272.058042 241.243187 272.281958 240.869546 272.505874 240.498507 272.729790 240.130053 272.953706 239.764168 273.177622 239.400833 273.401538 239.040033 273.625455 238.681750 273.849371 238.325967 274.073287 237.972668 274.297203 237.621836 274.521119 237.273453 274.745035 236.927503 274.968951 236.583969 275.192867 236.242833 275.416783 235.904080 275.640699 235.567692 275.864615 235.233652 276.088531 234.901944 276.312448 234.572550 276.536364 234.245453 276.760280 233.920637 276.984196 233.598084 277.208112 233.277778 277.432028 232.959702 277.655944 232.643839 277.879860 232.330172 278.103776 232.018684 278.327692 231.709358 278.551608 231.402178 278.775524 231.097126 278.999441 230.794185 279.223357 230.493339 279.447273 230.194570 279.671189 229.897862 279.895105 229.603198 280.119021 229.310560 280.342937 229.019933 280.566853 228.731298 280.790769 228.444640 281.014685 228.159941 281.238601 227.877184 281.462517 227.596353 281.686434 227.317430 281.910350 227.040399 282.134266 226.765242 282.358182 226.491943 282.582098 226.220485 282.806014 225.950851 283.029930 225.683024 283.253846 225.416987 283.477762 225.152723 283.701678 224.890215 283.925594 224.629447 284.149510 224.370401 284.373427 224.113060 284.597343 223.857408 284.821259 223.603428 285.045175 223.351103 285.269091 223.100416 285.493007 222.851349 285.716923 222.603887 285.940839 222.358011 286.164755 222.113706 286.388671 221.870954 286.612587 221.629739 286.836503 221.390043 287.060420 221.151850 287.284336 220.915142 287.508252 220.679903 287.732168 220.446116 287.956084 220.213764 288.180000 219.982830 288.403916 219.753297 288.627832 219.525148 288.851748 219.298366 289.075664 219.072935 289.299580 218.848837 289.523497 218.626055 289.747413 218.404574 289.971329 218.184375 290.195245 217.965441 290.419161 217.747757 290.643077 217.531305 290.866993 217.316067 291.090909 217.102028 291.314825 216.889170 291.538741 216.677476 291.762657 216.466930 291.986573 216.257514 292.210490 216.049212 292.434406 215.842008 292.658322 215.635891 292.882238 215.430853 293.106154 215.226883 293.330070 215.023974 293.553986 214.822116 293.777902 214.621299 294.001818 214.421515 294.225734 214.222754 294.449650 214.025007 294.673566 213.828265 294.897483 213.632520 295.121399 213.437761 295.345315 213.243979 295.569231 213.051166 295.793147 212.859312 296.017063 212.668408 296.240979 212.478445 296.464895 212.289414 296.688811 212.101305 296.912727 211.914110 297.136643 211.727818 297.360559 211.542422 297.584476 211.357912 297.808392 211.174279 298.032308 210.991513 298.256224 210.809606 298.480140 210.628548 298.704056 210.448330 298.927972 210.268942 299.151888 210.090377 299.375804 209.912624 299.599720 209.735675 299.823636 209.559520 300.047552 209.384150 300.271469 209.209556 300.495385 209.035729 300.719301 208.862659 300.943217 208.690338 301.167133 208.518756 301.391049 208.347905 301.614965 208.177774 301.838881 208.008355 302.062797 207.839639 302.286713 207.671616 302.510629 207.504277 302.734545 207.337614 302.958462 207.171617 303.182378 207.006276 303.406294 206.841583 303.630210 206.677529 303.854126 206.514104 304.078042 206.351299 304.301958 206.189105 304.525874 206.027513 304.749790 205.866514 304.973706 205.706098 305.197622 205.546257 305.421538 205.386981 305.645455 205.228261 305.869371 205.070087 306.093287 204.912452 306.317203 204.755345 306.541119 204.598757 306.765035 204.442679 306.988951 204.287103 307.212867 204.132018 307.436783 203.977417 307.660699 203.823288 307.884615 203.669625 308.108531 203.516416 308.332448 203.363653 308.556364 203.211328 308.780280 203.059430 309.004196 202.907951 309.228112 202.756881 309.452028 202.606211 309.675944 202.455932 309.899860 202.306036 310.123776 202.156512 310.347692 202.007352 310.571608 201.858546 310.795524 201.710085 311.019441 201.561961 311.243357 201.414164 311.467273 201.266684 311.691189 201.119513 311.915105 200.972641 312.139021 200.826060 312.362937 200.679760 312.586853 200.533732 312.810769 200.387966 313.034685 200.242455 313.258601 200.097187 313.482517 199.952155 313.706434 199.807350 313.930350 199.662761 314.154266 199.518380 314.378182 199.374198 314.602098 199.230205 314.826014 199.086393 315.049930 198.942751 315.273846 198.799272 315.497762 198.655946 315.721678 198.512763 315.945594 198.369715 316.169510 198.226792 316.393427 198.083985 316.617343 197.941286 316.841259 197.798684 317.065175 197.656171 317.289091 197.513737 317.513007 197.371374 317.736923 197.229072 317.960839 197.086823 318.184755 196.944616 318.408671 196.802443 318.632587 196.660294 318.856503 196.518161 319.080420 196.376034 319.304336 196.233904 319.528252 196.091762 319.752168 195.949598 319.976084 195.807405 320.200000 195.665172 320.423916 195.522890 320.647832 195.380550 320.871748 195.238143 321.095664 195.095659 321.319580 194.953091 321.543497 194.810428 321.767413 194.667661 321.991329 194.524781 322.215245 194.381779 322.439161 194.238646 322.663077 194.095373 322.886993 193.951950 323.110909 193.808368 323.334825 193.664619 323.558741 193.520692 323.782657 193.376580 324.006573 193.232272 324.230490 193.087759 324.454406 192.943033 324.678322 192.798084 324.902238 192.652903 325.126154 192.507481 325.350070 192.361808 325.573986 192.215876 325.797902 192.069675 326.021818 191.923197 326.245734 191.776431 326.469650 191.629369 326.693566 191.482002 326.917483 191.334321 327.141399 191.186316 327.365315 191.037978 327.589231 190.889298 327.813147 190.740267 328.037063 190.590876 328.260979 190.441115 328.484895 190.290976 328.708811 190.140448 328.932727 189.989524 329.156643 189.838194 329.380559 189.686449 329.604476 189.534279 329.828392 189.381675 330.052308 189.228629 330.276224 189.075131 330.500140 188.921172 330.724056 188.766742 330.947972 188.611833 331.171888 188.456436 331.395804 188.300541 331.619720 188.144139 331.843636 187.987220 332.067552 187.829777 332.291469 187.671799 332.515385 187.513278 332.739301 187.354204 332.963217 187.194568 333.187133 187.034361 333.411049 186.873573 333.634965 186.712197 333.858881 186.550222 334.082797 186.387639 334.306713 186.224439 334.530629 186.060614 334.754545 185.896153 334.978462 185.731048 335.202378 185.565289 335.426294 185.398867 335.650210 185.231774 335.874126 185.064000 336.098042 184.895535 336.321958 184.726372 336.545874 184.556499 336.769790 184.385910 336.993706 184.214593 337.217622 184.042540 337.441538 183.869742 337.665455 183.696190 337.889371 183.521875 338.113287 183.346786 338.337203 183.170916 338.561119 182.994255 338.785035 182.816794 339.008951 182.638524 339.232867 182.459435 339.456783 182.279518 339.680699 182.098765 339.904615 181.917166 340.128531 181.734711 340.352448 181.551393 340.576364 181.367201 340.800280 181.182126 341.024196 180.996160 341.248112 180.809293 341.472028 180.621515 341.695944 180.432819 341.919860 180.243194 342.143776 180.052631 342.367692 179.861122 342.591608 179.668657 342.815524 179.475226 343.039441 179.280822 343.263357 179.085434 343.487273 178.889053 343.711189 178.691671 343.935105 178.493278 344.159021 178.293865 344.382937 178.093423 344.606853 177.891942 344.830769 177.689414 345.054685 177.485829 345.278601 177.281179 345.502517 177.075453 345.726434 176.868643 345.950350 176.660740 346.174266 176.451734 346.398182 176.241616 346.622098 176.030378 346.846014 175.818010 347.069930 175.604502 347.293846 175.389846 347.517762 175.174033 347.741678 174.957053 347.965594 174.738898 348.189510 174.519557 348.413427 174.299030 348.637343 174.077348 348.861259 173.854550 349.085175 173.630675 349.309091 173.405763 349.533007 173.179851 349.756923 172.952980 349.980839 172.725188 350.204755 172.496514 350.428671 172.266998 350.652587 172.036679 350.876503 171.805595 351.100420 171.573786 351.324336 171.341290 351.548252 171.108148 351.772168 170.874397 351.996084 170.640077 352.220000 170.405227 352.443916 170.169886 352.667832 169.934094 352.891748 169.697888 353.115664 169.461309 353.339580 169.224395 353.563497 168.987186 353.787413 168.749720 354.011329 168.512037 354.235245 168.274175 354.459161 168.036174 354.683077 167.798073 354.906993 167.559911 355.130909 167.321726 355.354825 167.083559 355.578741 166.845447 355.802657 166.607431 356.026573 166.369549 356.250490 166.131840 356.474406 165.894343 356.698322 165.657098 356.922238 165.420143 357.146154 165.183518 357.370070 164.947261 357.593986 164.711412 357.817902 164.476009 358.041818 164.241093 358.265734 164.006701 358.489650 163.772873 358.713566 163.539648 358.937483 163.307066 359.161399 163.075164 359.385315 162.843982 359.609231 162.613560 359.833147 162.383936 360.057063 162.155150 360.280979 161.927240 360.504895 161.700245 360.728811 161.474205 360.952727 161.249159 361.176643 161.025145 361.400559 160.802204 361.624476 160.580373 361.848392 160.359692 362.072308 160.140200 362.296224 159.921936 362.520140 159.704939 362.744056 159.489249 362.967972 159.274904 363.191888 159.061943 363.415804 158.850405 363.639720 158.640330 363.863636 158.431757 364.087552 158.224724 364.311469 158.019271 364.535385 157.815437 364.759301 157.613260 364.983217 157.412781 365.207133 157.214037 365.431049 157.017068 365.654965 156.821914 365.878881 156.628612 366.102797 156.437203 366.326713 156.247725 366.550629 156.060218 366.774545 155.874719 366.998462 155.691270 367.222378 155.509908 367.446294 155.330672 367.670210 155.153603 367.894126 154.978738 368.118042 154.806117 368.341958 154.635779 368.565874 154.467762 368.789790 154.302107 369.013706 154.138852 369.237622 153.978037 369.461538 153.819699 369.685455 153.663879 369.909371 153.510615 370.133287 153.359946 370.357203 153.211912 370.581119 153.066552 370.805035 152.923904 371.028951 152.784008 371.252867 152.646903 371.476783 152.512628 371.700699 152.381222 371.924615 152.252723 372.148531 152.127172 372.372448 152.004607 372.596364 151.885067 372.820280 151.768591 373.044196 151.655219 373.268112 151.544989 373.492028 151.437940 373.715944 151.334112 373.939860 151.233544 374.163776 151.136274 374.387692 151.042343 374.611608 150.951787 374.835524 150.864648 375.059441 150.780964 375.283357 150.700774 375.507273 150.624117 375.731189 150.551032 375.955105 150.481558 376.179021 150.415734 376.402937 150.353600 376.626853 150.295194 376.850769 150.240556 377.074685 150.189725 377.298601 150.142739 377.522517 150.099637 377.746434 150.060460 377.970350 150.025245 378.194266 149.994032 378.418182 149.966860 378.642098 149.943768 378.866014 149.924796 379.089930 149.909981 379.313846 149.899364 379.537762 149.892983 379.761678 149.890877 379.985594 149.893086 380.209510 149.899648 380.433427 149.910603 380.657343 149.925990 380.881259 149.945847 381.105175 149.970214 381.329091 149.999130 381.553007 150.032634 381.776923 150.070765 382.000839 150.113562 382.224755 150.161064 382.448671 150.213310 382.672587 150.270339 382.896503 150.332191 383.120420 150.398904 383.344336 150.470518 383.568252 150.547071 383.792168 150.628603 384.016084 150.715152 384.240000 150.806758 384.463916 150.903460 384.687832 151.005297 384.911748 151.112308 385.135664 151.224532 385.359580 151.342008 385.583497 151.464775 385.807413 151.592872 386.031329 151.726339 386.255245 151.865214 386.479161 152.009536 386.703077 152.159345 386.926993 152.314679 387.150909 152.475578 387.374825 152.642081 387.598741 152.814226 387.822657 152.992053 388.046573 153.175601 388.270490 153.364909 388.494406 153.560016 388.718322 153.760962 388.942238 153.967784 389.166154 154.180523 389.390070 154.399217 389.613986 154.623905 389.837902 154.854627 390.061818 155.091421 390.285734 155.334326 390.509650 155.583383 390.733566 155.838629 390.957483 156.100104 391.181399 156.367847 391.405315 156.641896 391.629231 156.922292 391.853147 157.209073 392.077063 157.502278 392.300979 157.801946 392.524895 158.108116 392.748811 158.420827 392.972727 158.740119 393.196643 159.066031 393.420559 159.398601 393.644476 159.737868 393.868392 160.083872 394.092308 160.436652 394.316224 160.796247 394.540140 161.162696 394.764056 161.536037 394.987972 161.916311 395.211888 162.303555 395.435804 162.697810 395.659720 163.099114 395.883636 163.507506 396.107552 163.923025 396.331469 164.345711 396.555385 164.775603 396.779301 165.212739 397.003217 165.657158 397.227133 166.108901 397.451049 166.568005 397.674965 167.034509 397.898881 167.508454 398.122797 167.989878 398.346713 168.478819 398.570629 168.975318 398.794545 169.479413 399.018462 169.991143 399.242378 170.510548 399.466294 171.037666 399.690210 171.572536 399.914126 172.115197 400.138042 172.665690 400.361958 173.224052 400.585874 173.790322 400.809790 174.364541 401.033706 174.946746 401.257622 175.536977 401.481538 176.135273 401.705455 176.741673 401.929371 177.356216 402.153287 177.978942 402.377203 178.609889 402.601119 179.249096 402.825035 179.896602 403.048951 180.552447 403.272867 181.216669 403.496783 181.889308 403.720699 182.570402 403.944615 183.259992 404.168531 183.958115 404.392448 184.664786 404.616364 185.379923 404.840280 186.103419 405.064196 186.835166 405.288112 187.575056 405.512028 188.322983 405.735944 189.078840 405.959860 189.842519 406.183776 190.613913 406.407692 191.392914 406.631608 192.179416 406.855524 192.973311 407.079441 193.774492 407.303357 194.582852 407.527273 195.398283 407.751189 196.220679 407.975105 197.049931 408.199021 197.885934 408.422937 198.728578 408.646853 199.577759 408.870769 200.433367 409.094685 201.295296 409.318601 202.163438 409.542517 203.037687 409.766434 203.917935 409.990350 204.804075 410.214266 205.695999 410.438182 206.593601 410.662098 207.496773 410.886014 208.405408 411.109930 209.319399 411.333846 210.238637 411.557762 211.163017 411.781678 212.092431 412.005594 213.026772 412.229510 213.965932 412.453427 214.909805 412.677343 215.858282 412.901259 216.811257 413.125175 217.768622 413.349091 218.730271 413.573007 219.696096 413.796923 220.665989 414.020839 221.639844 414.244755 222.617554 414.468671 223.599010 414.692587 224.584106 414.916503 225.572735 415.140420 226.564789 415.364336 227.560161 415.588252 228.558744 415.812168 229.560431 416.036084 230.565114 416.260000 231.572686 416.483916 232.583040 416.707832 233.596068 416.931748 234.611664 417.155664 235.629720 417.379580 236.650129 417.603497 237.672784 417.827413 238.697577 418.051329 239.724401 418.275245 240.753150 418.499161 241.783715 418.723077 242.815989 418.946993 243.849866 419.170909 244.885238 419.394825 245.921997 419.618741 246.960037 419.842657 247.999251 420.066573 249.039530 420.290490 250.080768 420.514406 251.122858 420.738322 252.165692 420.962238 253.209163 421.186154 254.253164 421.410070 255.297587 421.633986 256.342326 421.857902 257.387273 422.081818 258.432321 422.305734 259.477362 422.529650 260.522290 422.753566 261.566997 422.977483 262.611376 423.201399 263.655320 423.425315 264.698721 423.649231 265.741472 423.873147 266.783466 424.097063 267.824596 424.320979 268.864755 424.544895 269.903834 424.768811 270.941728 424.992727 271.978328 425.216643 273.013528 425.440559 274.047220 425.664476 275.079297 425.888392 276.109652 426.112308 277.138178 426.336224 278.164766 426.560140 279.189311 426.784056 280.211705 427.007972 281.231840 427.231888 282.249610 427.455804 283.264906 427.679720 284.277623 427.903636 285.287652 428.127552 286.294887 428.351469 287.299220 428.575385 288.300543 428.799301 289.298751 429.023217 290.293734 429.247133 291.285387 429.471049 292.273602 429.694965 293.258272 429.918881 294.239289 430.142797 295.216546 430.366713 296.189936 430.590629 297.159352 430.814545 298.124687 431.038462 299.085832 431.262378 300.042682 431.486294 300.995129 431.710210 301.943065 431.934126 302.886383 432.158042 303.824976 432.381958 304.758738 432.605874 305.687560 432.829790 306.611335 433.053706 307.529956 433.277622 308.443316 433.501538 309.351308 433.725455 310.253824 433.949371 311.150757 434.173287 312.042000 434.397203 312.927446 434.621119 313.806988 434.845035 314.680517 435.068951 315.547927 435.292867 316.409111 435.516783 317.263962 435.740699 318.112372 435.964615 318.954233 436.188531 319.789440 436.412448 320.617884 436.636364 321.439458 436.860280 322.254055 437.084196 323.061568 437.308112 323.861890 437.532028 324.654912 437.755944 325.440529 437.979860 326.218633 438.203776 326.989116 438.427692 327.751872 438.651608 328.506792 438.875524 329.253771 439.099441 329.992700 439.323357 330.723472 439.547273 331.445981 439.771189 332.160119 439.995105 332.865778 440.219021 333.562851 440.442937 334.251232 440.666853 334.930813 440.890769 335.601486 441.114685 336.263145 441.338601 336.915682 441.562517 337.558990 441.786434 338.192962 442.010350 338.817490 442.234266 339.432467 442.458182 340.037787 442.682098 340.633341 442.906014 341.219023 443.129930 341.794725 443.353846 342.360340 443.577762 342.915761 443.801678 343.460880 444.025594 343.995591 444.249510 344.519786 444.473427 345.033357 444.697343 345.536199 444.921259 346.028202 445.145175 346.509261 445.369091 346.979268 445.593007 347.438115 445.816923 347.885696 446.040839 348.321903 446.264755 348.746629 446.488671 349.159766 446.712587 349.561208 446.936503 349.950847 447.160420 350.328576 447.384336 350.694288 447.608252 351.047875 447.832168 351.389231 448.056084 351.718247 448.280000 352.034818 448.503916 352.338835 448.727832 352.630191 448.951748 352.908779 449.175664 353.174492 449.399580 353.427222 449.623497 353.666863 449.847413 353.893307 450.071329 354.106447 450.295245 354.306175 450.519161 354.492385 450.743077 354.664968 450.966993 354.823819 451.190909 354.968829 451.414825 355.099892 451.638741 355.216900 451.862657 355.319746 452.086573 355.408322 452.310490 355.482522 452.534406 355.542238 452.758322 355.587363 452.982238 355.617790 453.206154 355.633411 453.430070 355.634119 453.653986 355.619808 453.877902 355.590369 454.101818 355.545696 454.325734 355.485681 454.549650 355.410217 454.773566 355.319197 454.997483 355.212513 455.221399 355.090059 455.445315 354.951726 455.669231 354.797409 455.893147 354.626999 456.117063 354.440389 456.340979 354.237473 456.564895 354.018143 456.788811 353.782291 457.012727 353.529810 457.236643 353.260594 457.460559 352.974534 457.684476 352.671525 457.908392 352.351457 458.132308 352.014225 458.356224 351.659721 458.580140 351.287837 458.804056 350.898467 459.027972 350.491503 459.251888 350.066838 459.475804 349.624365 459.699720 349.163977 459.923636 348.685565 460.147552 348.189024 460.371469 347.674288 460.595385 347.141461 460.819301 346.590689 461.043217 346.022119 461.267133 345.435897 461.491049 344.832170 461.714965 344.211083 461.938881 343.572784 462.162797 342.917418 462.386713 342.245132 462.610629 341.556072 462.834545 340.850384 463.058462 340.128215 463.282378 339.389711 463.506294 338.635019 463.730210 337.864284 463.954126 337.077654 464.178042 336.275274 464.401958 335.457291 464.625874 334.623851 464.849790 333.775100 465.073706 332.911185 465.297622 332.032253 465.521538 331.138448 465.745455 330.229919 465.969371 329.306810 466.193287 328.369269 466.417203 327.417442 466.641119 326.451475 466.865035 325.471514 467.088951 324.477706 467.312867 323.470198 467.536783 322.449134 467.760699 321.414663 467.984615 320.366929 468.208531 319.306080 468.432448 318.232262 468.656364 317.145621 468.880280 316.046303 469.104196 314.934455 469.328112 313.810224 469.552028 312.673754 469.775944 311.525194 469.999860 310.364688 470.223776 309.192384 470.447692 308.008428 470.671608 306.812966 470.895524 305.606144 471.119441 304.388109 471.343357 303.159007 471.567273 301.918985 471.791189 300.668188 472.015105 299.406764 472.239021 298.134857 472.462937 296.852616 472.686853 295.560186 472.910769 294.257713 473.134685 292.945344 473.358601 291.623225 473.582517 290.291503 473.806434 288.950323 474.030350 287.599832 474.254266 286.240177 474.478182 284.871504 474.702098 283.493958 474.926014 282.107687 475.149930 280.712837 475.373846 279.309554 475.597762 277.897985 475.821678 276.478275 476.045594 275.050571 476.269510 273.615020 476.493427 272.171767 476.717343 270.720960 476.941259 269.262744 477.165175 267.797265 477.389091 266.324671 477.613007 264.845108 477.836923 263.358721 478.060839 261.865657 478.284755 260.366062 478.508671 258.860084 478.732587 257.347867 478.956503 255.829559 479.180420 254.305305 479.404336 252.775253 479.628252 251.239548 479.852168 249.698337 480.076084 248.151766 480.300000 246.599982 480.523916 245.043130 480.747832 243.481357 480.971748 241.914810 481.195664 240.343634 481.419580 238.767977 481.643497 237.187984 481.867413 235.603801 482.091329 234.015576 482.315245 232.423454 482.539161 230.827582 482.763077 229.228106 482.986993 227.625173 483.210909 226.018928 483.434825 224.409519 483.658741 222.797090 483.882657 221.181790 484.106573 219.563763 484.330490 217.943157 484.554406 216.320118 484.778322 214.694792 485.002238 213.067325 485.226154 211.437864 485.450070 209.806556 485.673986 208.173545 485.897902 206.538979 486.121818 204.903005 486.345734 203.265768 486.569650 201.627414 486.793566 199.988091 487.017483 198.347944 487.241399 196.707120 487.465315 195.065765 487.689231 193.424025 487.913147 191.782047 488.137063 190.139977 488.360979 188.497962 488.584895 186.856147 488.808811 185.214679 489.032727 183.573705 489.256643 181.933371 489.480559 180.293822 489.704476 178.655207 489.928392 177.017669 490.152308 175.381357 490.376224 173.746417 490.600140 172.112994 490.824056 170.481235 491.047972 168.851286 491.271888 167.223295 491.495804 165.597406 491.719720 163.973767 491.943636 162.352523 492.167552 160.733822 492.391469 159.117809 492.615385 157.504631 492.839301 155.894433 493.063217 154.287364 493.287133 152.683568 493.511049 151.083192 493.734965 149.486382 493.958881 147.893285 494.182797 146.304048 494.406713 144.718816 494.630629 143.137735 494.854545 141.560952 495.078462 139.988614 495.302378 138.420867 495.526294 136.857857 495.750210 135.299730 495.974126 133.746633 496.198042 132.198712 496.421958 130.656113 496.645874 129.118983 496.869790 127.587469 497.093706 126.061715 497.317622 124.541869 497.541538 123.028078 497.765455 121.520487 497.989371 120.019242 498.213287 118.524491 498.437203 117.036379 498.661119 115.555053 498.885035 114.080658 499.108951 112.613343 499.332867 111.153252 499.556783 109.700532 499.780699 108.255329 500.004615 106.817790 500.228531 105.388062 500.452448 103.966289 500.676364 102.552620 500.900280 101.147199 501.124196 99.750174 501.348112 98.361691 501.572028 96.981895 501.795944 95.610934 502.019860 94.248954 502.243776 92.896101 502.467692 91.552521 502.691608 90.218361 502.915524 88.893767 503.139441 87.578886 503.363357 86.273863 503.587273 84.978845 503.811189 83.693979 504.035105 82.419410 504.259021 81.155285 504.482937 79.901751 504.706853 78.658954 504.930769 77.427040 505.154685 76.206155 505.378601 74.996445 505.602517 73.798058 505.826434 72.611139 506.050350 71.435835 506.274266 70.272292 506.498182 69.120657 506.722098 67.981075 506.946014 66.853693 507.169930 65.738658 507.393846 64.636115 507.617762 63.546211 507.841678 62.469093 508.065594 61.404906 508.289510 60.353798 508.513427 59.315914 508.737343 58.291401 508.961259 57.280404 509.185175 56.283071 509.409091 55.299548 509.633007 54.329981 509.856923 53.374516 510.080839 52.433300 510.304755 51.506479 510.528671 50.594200 510.752587 49.696608 510.976503 48.813850 511.200420 47.946073 511.424336 47.093422 511.648252 46.256045 511.872168 45.434086 512.096084 44.627694 512.320000 43.837013 512.543916 43.062191 512.767832 42.303374 512.991748 41.560708 513.215664 40.834339 513.439580 40.124414 513.663497 39.431078 513.887413 38.754480 514.111329 38.094764 514.335245 37.452077 514.559161 36.826565 514.783077 36.218375 515.006993 35.627653 515.230909 35.054546 515.454825 34.499199 515.678741 33.961760 515.902657 33.442373 516.126573 32.941187 516.350490 32.458303 516.574406 31.993653 516.798322 31.547123 517.022238 31.118601 517.246154 30.707974 517.470070 30.315129 517.693986 29.939954 517.917902 29.582335 518.141818 29.242161 518.365734 28.919318 518.589650 28.613693 518.813566 28.325174 519.037483 28.053649 519.261399 27.799003 519.485315 27.561125 519.709231 27.339902 519.933147 27.135221 520.157063 26.946969 520.380979 26.775034 520.604895 26.619302 520.828811 26.479661 521.052727 26.355999 521.276643 26.248202 521.500559 26.156158 521.724476 26.079754 521.948392 26.018877 522.172308 25.973415 522.396224 25.943254 522.620140 25.928283 522.844056 25.928387 523.067972 25.943456 523.291888 25.973374 523.515804 26.018031 523.739720 26.077314 523.963636 26.151108 524.187552 26.239303 524.411469 26.341784 524.635385 26.458439 524.859301 26.589157 525.083217 26.733822 525.307133 26.892324 525.531049 27.064549 525.754965 27.250385 525.978881 27.449718 526.202797 27.662436 526.426713 27.888426 526.650629 28.127576 526.874545 28.379773 527.098462 28.644903 527.322378 28.922855 527.546294 29.213515 527.770210 29.516771 527.994126 29.832510 528.218042 30.160619 528.441958 30.500985 528.665874 30.853497 528.889790 31.218040 529.113706 31.594502 529.337622 31.982771 529.561538 32.382734 529.785455 32.794277 530.009371 33.217289 530.233287 33.651656 530.457203 34.097265 530.681119 34.554005 530.905035 35.021762 531.128951 35.500423 531.352867 35.989876 531.576783 36.490008 531.800699 37.000706 532.024615 37.521858 532.248531 38.053350 532.472448 38.595070 532.696364 39.146905 532.920280 39.708743 533.144196 40.280470 533.368112 40.861974 533.592028 41.453143 533.815944 42.053863 534.039860 42.664021 534.263776 43.283505 534.487692 43.912203 534.711608 44.550001 534.935524 45.196786 535.159441 45.852447 535.383357 46.516870 535.607273 47.189942 535.831189 47.871550 536.055105 48.561583 536.279021 49.259926 536.502937 49.966469 536.726853 50.681096 536.950769 51.403697 537.174685 52.134158 537.398601 52.872366 537.622517 53.618208 537.846434 54.371573 538.070350 55.132347 538.294266 55.900417 538.518182 56.675671 538.742098 57.457995 538.966014 58.247278 539.189930 59.043406 539.413846 59.846267 539.637762 60.655747 539.861678 61.471735 540.085594 62.294117 540.309510 63.122781 540.533427 63.957613 540.757343 64.798502 540.981259 65.645334 541.205175 66.497996 541.429091 67.356376 541.653007 68.220362 541.876923 69.089840 542.100839 69.964697 542.324755 70.844821 542.548671 71.730100 542.772587 72.620419 542.996503 73.515668 543.220420 74.415732 543.444336 75.320499 543.668252 76.229856 543.892168 77.143691 544.116084 78.061891 544.340000 78.984343 544.563916 79.910935 544.787832 80.841553 545.011748 81.776084 545.235664 82.714417 545.459580 83.656438 545.683497 84.602035 545.907413 85.551094 546.131329 86.503504 546.355245 87.459150 546.579161 88.417922 546.803077 89.379705 547.026993 90.344387 547.250909 91.311856 547.474825 92.281998 547.698741 93.254701 547.922657 94.229852 548.146573 95.207338 548.370490 96.187047 548.594406 97.168865 548.818322 98.152681 549.042238 99.138381 549.266154 100.125852 549.490070 101.114982 549.713986 102.105658 549.937902 103.097768 550.161818 104.091198 550.385734 105.085836 550.609650 106.081568 550.833566 107.078284 551.057483 108.075868 551.281399 109.074210 551.505315 110.073195 551.729231 111.072712 551.953147 112.072647 552.177063 113.072888 552.400979 114.073322 552.624895 115.073836 552.848811 116.074317 553.072727 117.074654 553.296643 118.074732 553.520559 119.074440 553.744476 120.073664 553.968392 121.072292 554.192308 122.070211 554.416224 123.067308 554.640140 124.063471 554.864056 125.058586 555.087972 126.052542 555.311888 127.045225 555.535804 128.036522 555.759720 129.026321 555.983636 130.014508 556.207552 131.000972 556.431469 131.985600 556.655385 132.968278 556.879301 133.948894 557.103217 134.927336 557.327133 135.903490 557.551049 136.877243 557.774965 137.848484 557.998881 138.817099 558.222797 139.782975 558.446713 140.746000 558.670629 141.706061 558.894545 142.663045 559.118462 143.616840 559.342378 144.567332 559.566294 145.514410 559.790210 146.457959 560.014126 147.397868 560.238042 148.334024 560.461958 149.266313 560.685874 150.194624 560.909790 151.118843 561.133706 152.038858 561.357622 152.954556 561.581538 153.865824 561.805455 154.772549 562.029371 155.674619 562.253287 156.571921 562.477203 157.464343 562.701119 158.351770 562.925035 159.234092 563.148951 160.111194 563.372867 160.982964 563.596783 161.849290 563.820699 162.710059 564.044615 163.565157 564.268531 164.414473 564.492448 165.257893 564.716364 166.095304 564.940280 166.926595 565.164196 167.751652 565.388112 168.570362 565.612028 169.382612 565.835944 170.188291 566.059860 170.987285 566.283776 171.779481 566.507692 172.564767 566.731608 173.343030 566.955524 174.114157 567.179441 174.878035 567.403357 175.634552 567.627273 176.383595 567.851189 177.125051 568.075105 177.858807 568.299021 178.584751 568.522937 179.302770 568.746853 180.012751 568.970769 180.714581 569.194685 181.408148 569.418601 182.093339 569.642517 182.770041 569.866434 183.438141 570.090350 184.097527 570.314266 184.748086 570.538182 185.389705 570.762098 186.022271 570.986014 186.645672 571.209930 187.259795 571.433846 187.864527 571.657762 188.459755 571.881678 189.045367 572.105594 189.621250 572.329510 190.187316 572.553427 190.743579 572.777343 191.290080 573.001259 191.826856 573.225175 192.353949 573.449091 192.871396 573.673007 193.379237 573.896923 193.877512 574.120839 194.366260 574.344755 194.845521 574.568671 195.315333 574.792587 195.775737 575.016503 196.226771 575.240420 196.668475 575.464336 197.100888 575.688252 197.524049 575.912168 197.937999 576.136084 198.342776 576.360000 198.738420 576.583916 199.124970 576.807832 199.502465 577.031748 199.870945 577.255664 200.230449 577.479580 200.581017 577.703497 200.922688 577.927413 201.255501 578.151329 201.579496 578.375245 201.894712 578.599161 202.201188 578.823077 202.498964 579.046993 202.788079 579.270909 203.068572 579.494825 203.340484 579.718741 203.603852 579.942657 203.858717 580.166573 204.105119 580.390490 204.343095 580.614406 204.572686 580.838322 204.793932 581.062238 205.006870 581.286154 205.211542 581.510070 205.407985 581.733986 205.596241 581.957902 205.776347 582.181818 205.948343 582.405734 206.112269 582.629650 206.268164 582.853566 206.416068 583.077483 206.556019 583.301399 206.688057 583.525315 206.812222 583.749231 206.928552 583.973147 207.037088 584.197063 207.137869 584.420979 207.230933 584.644895 207.316321 584.868811 207.394071 585.092727 207.464223 585.316643 207.526817 585.540559 207.581892 585.764476 207.629487 585.988392 207.669641 586.212308 207.702394 586.436224 207.727785 586.660140 207.745855 586.884056 207.756641 587.107972 207.760183 587.331888 207.756521 587.555804 207.745694 587.779720 207.727742 588.003636 207.702704 588.227552 207.670618 588.451469 207.631526 588.675385 207.585465 588.899301 207.532475 589.123217 207.472597 589.347133 207.405868 589.571049 207.332328 589.794965 207.252018 590.018881 207.164975 590.242797 207.071240 590.466713 206.970852 590.690629 206.863851 590.914545 206.750274 591.138462 206.630163 591.362378 206.503556 591.586294 206.370493 591.810210 206.231013 592.034126 206.085155 592.258042 205.932959 592.481958 205.774465 592.705874 205.609711 592.929790 205.438737 593.153706 205.261582 593.377622 205.078285 593.601538 204.888887 593.825455 204.693426 594.049371 204.491942 594.273287 204.284474 594.497203 204.071062 594.721119 203.851744 594.945035 203.626561 595.168951 203.395551 595.392867 203.158754 595.616783 202.916210 595.840699 202.667957 596.064615 202.414035 596.288531 202.154484 596.512448 201.889342 596.736364 201.618650 596.960280 201.342446 597.184196 201.060770 597.408112 200.773662 597.632028 200.481160 597.855944 200.183304 598.079860 199.880133 598.303776 199.571687 598.527692 199.258006 598.751608 198.939127 598.975524 198.615092 599.199441 198.285939 599.423357 197.951707 599.647273 197.612436 599.871189 197.268166 600.095105 196.918935 600.319021 196.564784 600.542937 196.205750 600.766853 195.841875 600.990769 195.473197 601.214685 195.099755 601.438601 194.721589 601.662517 194.338738 601.886434 193.951242 602.110350 193.559140 602.334266 193.162472 602.558182 192.761276 602.782098 192.355592 603.006014 191.945459 603.229930 191.530918 603.453846 191.112007 603.677762 190.688765 603.901678 190.261232 604.125594 189.829447 604.349510 189.393450 604.573427 188.953281 604.797343 188.508977 605.021259 188.060579 605.245175 187.608127 605.469091 187.151659 605.693007 186.691215 605.916923 186.226834 606.140839 185.758555 606.364755 185.286419 606.588671 184.810464 606.812587 184.330730 607.036503 183.847255 607.260420 183.360081 607.484336 182.869245 607.708252 182.374787 607.932168 181.876747 608.156084 181.375163 608.380000 180.870076 608.603916 180.361525 608.827832 179.849548 609.051748 179.334186 609.275664 178.815478 609.499580 178.293463 609.723497 177.768180 609.947413 177.239670 610.171329 176.707970 610.395245 176.173121 610.619161 175.635162 610.843077 175.094132 611.066993 174.550071 611.290909 174.003019 611.514825 173.453013 611.738741 172.900094 611.962657 172.344302 612.186573 171.785675 612.410490 171.224253 612.634406 170.660075 612.858322 170.093181 613.082238 169.523610 613.306154 168.951401 613.530070 168.376594 613.753986 167.799228 613.977902 167.219342 614.201818 166.636977 614.425734 166.052170 614.649650 165.464962 614.873566 164.875392 615.097483 164.283500 615.321399 163.689324 615.545315 163.092904 615.769231 162.494279 615.993147 161.893490 616.217063 161.290574 616.440979 160.685572 616.664895 160.078523 616.888811 159.469466 617.112727 158.858441 617.336643 158.245486 617.560559 157.630643 617.784476 157.013948 618.008392 156.395443 618.232308 155.775167 618.456224 155.153158 618.680140 154.529456 618.904056 153.904101 619.127972 153.277132 619.351888 152.648588 619.575804 152.018509 619.799720 151.386934 620.023636 150.753902 620.247552 150.119453 620.471469 149.483626 620.695385 148.846461 620.919301 148.207996 621.143217 147.568272 621.367133 146.927327 621.591049 146.285201 621.814965 145.641934 622.038881 144.997564 622.262797 144.352132 622.486713 143.705676 622.710629 143.058235 622.934545 142.409850 623.158462 141.760560 623.382378 141.110403 623.606294 140.459420 623.830210 139.807649 624.054126 139.155130 624.278042 138.501903 624.501958 137.848006 624.725874 137.193480 624.949790 136.538363 625.173706 135.882695 625.397622 135.226515 625.621538 134.569862 625.845455 133.912777 626.069371 133.255298 626.293287 132.597465 626.517203 131.939316 626.741119 131.280892 626.965035 130.622232 627.188951 129.963375 627.412867 129.304361 627.636783 128.645229 627.860699 127.986017 628.084615 127.326767 628.084615 514.000000" /></g></g><g class="titles"><text class="title plot_title" x="400.0" y="26">Siam 50</text></g><g class="plot overlay" transform="translate(139, 46)"><g class="series serie-0 color-0"><g class="dots"><circle class="dot reactive tooltip-trigger" cx="12.315384615384614" cy="329.31190812028876" r="2.5" /><desc class="value">1183000</desc><desc class="x top">12.315384615384614</desc><desc class="y top">329.31190812028876</desc><desc class="x_label">Jan</desc></g><g class="dots"><circle class="dot reactive tooltip-trigger" cx="68.2944055944056" cy="421.80977660256633" r="2.5" /><desc class="value">1134000</desc><desc class="x top">68.2944055944056</desc><desc class="y top">421.80977660256633</desc><desc class="x_label">Feb</desc></g><g class="dots"><circle class="dot reactive tooltip-trigger" cx="124.27342657342656" cy="10.288647436515078" r="2.5" /><desc class="value">1352000</desc><desc class="x ">124.27342657342656</desc><desc class="y ">10.288647436515078</desc><desc class="x_label">Mar</desc></g><g class="dots"><circle class="dot reactive tooltip-trigger" cx="180.25244755244753" cy="468.436253164041" r="2.5" /><desc class="value">1109300</desc><desc class="x top">180.25244755244753</desc><desc class="y top">468.436253164041</desc><desc class="x_label">Apr</desc></g><g class="dots"><circle class="dot reactive tooltip-trigger" cx="236.23146853146855" cy="346.30131253540094" r="2.5" /><desc class="value">1174000</desc><desc class="x top">236.23146853146855</desc><desc class="y top">346.30131253540094</desc><desc class="x_label">May</desc></g><g class="dots"><circle class="dot reactive tooltip-trigger" cx="292.2104895104895" cy="216.04921201954073" r="2.5" /><desc class="value">1243000</desc><desc class="x ">292.2104895104895</desc><desc class="y ">216.04921201954073</desc><desc class="x_label">Jun</desc></g><g class="dots"><circle class="dot reactive tooltip-trigger" cx="348.1895104895105" cy="174.51955678259975" r="2.5" /><desc class="value">1265000</desc><desc class="x left">348.1895104895105</desc><desc class="y left">174.51955678259975</desc><desc class="x_label">Jul</desc></g><g class="dots"><circle class="dot reactive tooltip-trigger" cx="404.1685314685314" cy="183.9581147909954" r="2.5" /><desc class="value">1260000</desc><desc class="x left">404.1685314685314</desc><desc class="y left">183.9581147909954</desc><desc class="x_label">Aug</desc></g><g class="dots"><circle class="dot reactive tooltip-trigger" cx="460.1475524475524" cy="348.1890241370801" r="2.5" /><desc class="value">1173000</desc><desc class="x left top">460.1475524475524</desc><desc class="y left top">348.1890241370801</desc><desc class="x_label">Sep</desc></g><g class="dots"><circle class="dot reactive tooltip-trigger" cx="516.1265734265735" cy="32.941186656664684" r="2.5" /><desc class="value">1340000</desc><desc class="x left">516.1265734265735</desc><desc class="y left">32.941186656664684</desc><desc class="x_label">Oct</desc></g><g class="dots"><circle class="dot reactive tooltip-trigger" cx="572.1055944055943" cy="189.62124959603284" r="2.5" /><desc class="value">1257000</desc><desc class="x left">572.1055944055943</desc><desc class="y left">189.62124959603284</desc><desc class="x_label">Nov</desc></g><g class="dots"><circle class="dot reactive tooltip-trigger" cx="628.0846153846153" cy="127.3267667406214" r="2.5" /><desc class="value">1290000</desc><desc class="x left">628.0846153846153</desc><desc class="y left">127.3267667406214</desc><desc class="x_label">Dec</desc></g></g></g><g class="plot text-overlay" transform="translate(139, 46)"><g class="series serie-0 color-0" /></g><g class="plot tooltip-overlay" transform="translate(139, 46)"><g class="tooltip" style="opacity: 0" transform="translate(0 0)"><rect class="tooltip-box" height="0" rx="0" ry="0" width="0" /><g class="text" /></g></g><g class="legends" transform="translate(10, 56)"><g class="legend reactive activate-serie" id="activate-serie-0"><rect class="color-0 reactive" height="12" width="12" x="0.0" y="1.0" /><text x="17.0" y="11.2">Siam</text></g></g><g class="legends" transform="translate(790, 56)" /></g></svg>