<?xml version='1.0' encoding='utf-8'?>
<svg xmlns:xlink="http://www.w3.org/1999/xlink" class="pygal-chart" id="chart-3a7b6519-e214-427b-8d87-bfa00cbe3e6a" viewBox="0 0 800 600" xmlns="http://www.w3.org/2000/svg"><!--Generated with pygal 2.0.11 (etree) ©Kozea 2011-2015 on 2015-12-10--><!--http://pygal.org--><!--http://github.com/Kozea/pygal--><defs><style type="text/css">#chart-3a7b6519-e214-427b-8d87-bfa00cbe3e6a{-webkit-user-select:none;-webkit-font-smoothing:antialiased;font-family:Consolas,"Liberation Mono",Menlo,Courier,monospace}#chart-3a7b6519-e214-427b-8d87-bfa00cbe3e6a .title{font-family:Consolas,"Liberation Mono",Menlo,Courier,monospace;font-size:16px}#chart-3a7b6519-e214-427b-8d87-bfa00cbe3e6a .legends .legend text{font-family:Consolas,"Liberation Mono",Menlo,Courier,monospace;font-size:14px}#chart-3a7b6519-e214-427b-8d87-bfa00cbe3e6a .axis text{font-family:Consolas,"Liberation Mono",Menlo,Courier,monospace;font-size:10px}#chart-3a7b6519-e214-427b-8d87-bfa00cbe3e6a .axis text.major{font-family:Consolas,"Liberation Mono",Menlo,Courier,monospace;font-size:10px}#chart-3a7b6519-e214-427b-8d87-bfa00cbe3e6a .text-overlay text.value{font-family:Consolas,"Liberation Mono",Menlo,Courier,monospace;font-size:16px}#chart-3a7b6519-e214-427b-8d87-bfa00cbe3e6a .text-overlay text.label{font-family:Consolas,"Liberation Mono",Menlo,Courier,monospace;font-size:10px}#chart-3a7b6519-e214-427b-8d87-bfa00cbe3e6a .tooltip{font-family:Consolas,"Liberation Mono",Menlo,Courier,monospace;font-size:14px}#chart-3a7b6519-e214-427b-8d87-bfa00cbe3e6a text.no_data{font-family:Consolas,"Liberation Mono",Menlo,Courier,monospace;font-size:64px}
#chart-3a7b6519-e214-427b-8d87-bfa00cbe3e6a{background-color:black}#chart-3a7b6519-e214-427b-8d87-bfa00cbe3e6a path,#chart-3a7b6519-e214-427b-8d87-bfa00cbe3e6a line,#chart-3a7b6519-e214-427b-8d87-bfa00cbe3e6a rect,#chart-3a7b6519-e214-427b-8d87-bfa00cbe3e6a circle{-webkit-transition:250ms;-moz-transition:250ms;transition:250ms}#chart-3a7b6519-e214-427b-8d87-bfa00cbe3e6a .graph &gt; .background{fill:black}#chart-3a7b6519-e214-427b-8d87-bfa00cbe3e6a .plot &gt; .background{fill:#111}#chart-3a7b6519-e214-427b-8d87-bfa00cbe3e6a .graph{fill:#999}#chart-3a7b6519-e214-427b-8d87-bfa00cbe3e6a text.no_data{fill:#eee}#chart-3a7b6519-e214-427b-8d87-bfa00cbe3e6a .title{fill:#eee}#chart-3a7b6519-e214-427b-8d87-bfa00cbe3e6a .legends .legend text{fill:#999}#chart-3a7b6519-e214-427b-8d87-bfa00cbe3e6a .legends .legend:hover text{fill:#eee}#chart-3a7b6519-e214-427b-8d87-bfa00cbe3e6a .axis .line{stroke:#eee}#chart-3a7b6519-e214-427b-8d87-bfa00cbe3e6a .axis .guide.line{stroke:#555}#chart-3a7b6519-e214-427b-8d87-bfa00cbe3e6a .axis .major.line{stroke:#999}#chart-3a7b6519-e214-427b-8d87-bfa00cbe3e6a .axis text.major{fill:#eee}#chart-3a7b6519-e214-427b-8d87-bfa00cbe3e6a .axis.y .guides:hover .guide.line,#chart-3a7b6519-e214-427b-8d87-bfa00cbe3e6a .line-graph .axis.x .guides:hover .guide.line,#chart-3a7b6519-e214-427b-8d87-bfa00cbe3e6a .stackedline-graph .axis.x .guides:hover .guide.line,#chart-3a7b6519-e214-427b-8d87-bfa00cbe3e6a .xy-graph .axis.x .guides:hover .guide.line{stroke:#eee}#chart-3a7b6519-e214-427b-8d87-bfa00cbe3e6a .axis .guides:hover text{fill:#eee}#chart-3a7b6519-e214-427b-8d87-bfa00cbe3e6a .reactive{fill-opacity:.8}#chart-3a7b6519-e214-427b-8d87-bfa00cbe3e6a .reactive.active,#chart-3a7b6519-e214-427b-8d87-bfa00cbe3e6a .active .reactive{fill-opacity:.4;stroke-width:4}#chart-3a7b6519-e214-427b-8d87-bfa00cbe3e6a .series text{fill:#eee}#chart-3a7b6519-e214-427b-8d87-bfa00cbe3e6a .tooltip rect{fill:#111;stroke:#eee;-webkit-transition:opacity 250ms;-moz-transition:opacity 250ms;transition:opacity 250ms}#chart-3a7b6519-e214-427b-8d87-bfa00cbe3e6a .tooltip .label{fill:#999}#chart-3a7b6519-e214-427b-8d87-bfa00cbe3e6a .tooltip .label{fill:#999}#chart-3a7b6519-e214-427b-8d87-bfa00cbe3e6a .tooltip .legend{font-size:.8em;fill:#555}#chart-3a7b6519-e214-427b-8d87-bfa00cbe3e6a .tooltip .x_label{font-size:.6em;fill:#eee}#chart-3a7b6519-e214-427b-8d87-bfa00cbe3e6a .tooltip .xlink{font-size:.5em;text-decoration:underline}#chart-3a7b6519-e214-427b-8d87-bfa00cbe3e6a .tooltip .value{font-size:1.5em}#chart-3a7b6519-e214-427b-8d87-bfa00cbe3e6a .map-element{fill:#111;stroke:#555 !important}#chart-3a7b6519-e214-427b-8d87-bfa00cbe3e6a .map-element .reactive{fill-opacity:inherit}#chart-3a7b6519-e214-427b-8d87-bfa00cbe3e6a .color-0,#chart-3a7b6519-e214-427b-8d87-bfa00cbe3e6a .color-0 a:visited{stroke:#ff5995;fill:#ff5995}#chart-3a7b6519-e214-427b-8d87-bfa00cbe3e6a .text-overlay .color-0 text{fill:black}
#chart-3a7b6519-e214-427b-8d87-bfa00cbe3e6a text.no_data{text-anchor:middle}#chart-3a7b6519-e214-427b-8d87-bfa00cbe3e6a .guide.line{fill:none}#chart-3a7b6519-e214-427b-8d87-bfa00cbe3e6a .centered{text-anchor:middle}#chart-3a7b6519-e214-427b-8d87-bfa00cbe3e6a .title{text-anchor:middle}#chart-3a7b6519-e214-427b-8d87-bfa00cbe3e6a .legends .legend text{fill-opacity:1}#chart-3a7b6519-e214-427b-8d87-bfa00cbe3e6a .axis.x text{text-anchor:middle}#chart-3a7b6519-e214-427b-8d87-bfa00cbe3e6a .axis.x:not(.web) text[transform]{text-anchor:start}#chart-3a7b6519-e214-427b-8d87-bfa00cbe3e6a .axis.x:not(.web) text[transform].backwards{text-anchor:end}#chart-3a7b6519-e214-427b-8d87-bfa00cbe3e6a .axis.y text{text-anchor:end}#chart-3a7b6519-e214-427b-8d87-bfa00cbe3e6a .axis.y text[transform].backwards{text-anchor:start}#chart-3a7b6519-e214-427b-8d87-bfa00cbe3e6a .axis.y2 text{text-anchor:start}#chart-3a7b6519-e214-427b-8d87-bfa00cbe3e6a .axis.y2 text[transform].backwards{text-anchor:end}#chart-3a7b6519-e214-427b-8d87-bfa00cbe3e6a .axis .guide.line{stroke-dasharray:4,4}#chart-3a7b6519-e214-427b-8d87-bfa00cbe3e6a .axis .major.guide.line{stroke-dasharray:6,6}#chart-3a7b6519-e214-427b-8d87-bfa00cbe3e6a .horizontal .axis.y .guide.line,#chart-3a7b6519-e214-427b-8d87-bfa00cbe3e6a .horizontal .axis.y2 .guide.line,#chart-3a7b6519-e214-427b-8d87-bfa00cbe3e6a .vertical .axis.x .guide.line{opacity:0}#chart-3a7b6519-e214-427b-8d87-bfa00cbe3e6a .horizontal .axis.always_show .guide.line,#chart-3a7b6519-e214-427b-8d87-bfa00cbe3e6a .vertical .axis.always_show .guide.line{opacity:1 !important}#chart-3a7b6519-e214-427b-8d87-bfa00cbe3e6a .axis.y .guides:hover .guide.line,#chart-3a7b6519-e214-427b-8d87-bfa00cbe3e6a .axis.y2 .guides:hover .guide.line,#chart-3a7b6519-e214-427b-8d87-bfa00cbe3e6a .axis.x .guides:hover .guide.line{opacity:1}#chart-3a7b6519-e214-427b-8d87-bfa00cbe3e6a .axis .guides:hover text{opacity:1}#chart-3a7b6519-e214-427b-8d87-bfa00cbe3e6a .nofill{fill:none}#chart-3a7b6519-e214-427b-8d87-bfa00cbe3e6a .subtle-fill{fill-opacity:.2}#chart-3a7b6519-e214-427b-8d87-bfa00cbe3e6a .dot{stroke-width:1px;fill-opacity:1}#chart-3a7b6519-e214-427b-8d87-bfa00cbe3e6a .dot.active{stroke-width:5px}#chart-3a7b6519-e214-427b-8d87-bfa00cbe3e6a .dot.negative{fill:transparent}#chart-3a7b6519-e214-427b-8d87-bfa00cbe3e6a text,#chart-3a7b6519-e214-427b-8d87-bfa00cbe3e6a tspan{stroke:none !important}#chart-3a7b6519-e214-427b-8d87-bfa00cbe3e6a .series text.active{opacity:1}#chart-3a7b6519-e214-427b-8d87-bfa00cbe3e6a .tooltip rect{fill-opacity:.95;stroke-width:.5}#chart-3a7b6519-e214-427b-8d87-bfa00cbe3e6a .tooltip text{fill-opacity:1}#chart-3a7b6519-e214-427b-8d87-bfa00cbe3e6a .showable{visibility:hidden}#chart-3a7b6519-e214-427b-8d87-bfa00cbe3e6a .showable.shown{visibility:visible}</style><script type="text/javascript">window.pygal = window.pygal || {};window.pygal.config = window.pygal.config || {};window.pygal.config['3a7b6519-e214-427b-8d87-bfa00cbe3e6a'] = {"css": ["file://style.css", "file://graph.css"], "legend_at_bottom": false, "stroke_style": null, "missing_value_fill_truncation": "x", "tooltip_border_radius": 0, "inner_radius": 0, "min_scale": 4, "show_x_guides": false, "y_label_rotation": 0, "show_only_major_dots": false, "interpolation_precision": 250, "margin_right": null, "x_label_rotation": 0, "dynamic_print_values": false, "margin_top": null, "x_labels_major_count": null, "js": ["//kozea.github.io/pygal.js/2.0.x/pygal-tooltips.min.js"], "interpolation_parameters": {}, "no_prefix": false, "title": "Victory-Monument 50", "x_labels": ["Jan", "Feb", "Mar", "Apr", "May", "Jun", "Jul", "Aug", "Sep", "Oct", "Nov", "Dec"], "width": 800, "range": null, "show_y_guides": true, "truncate_legend": null, "force_uri_protocol": null, "x_title": null, "interpolate": "cubic", "fill": true, "print_zeroes": true, "margin_left": null, "legend_box_size": 12, "show_minor_y_labels": true, "logarithmic": false, "legend_at_bottom_columns": null, "value_formatter": null, "stroke": true, "margin_bottom": null, "pretty_print": false, "show_minor_x_labels": true, "y_labels_major_count": null, "disable_xml_declaration": false, "y_labels_major_every": null, "truncate_label": null, "stack_from_top": false, "defs": [], "human_readable": false, "include_x_axis": false, "show_legend": true, "tooltip_fancy_mode": true, "y_title": null, "style": {"tooltip_font_size": 14, "major_label_font_family": "Consolas, \"Liberation Mono\", Menlo, Courier, monospace", "value_font_family": "Consolas, \"Liberation Mono\", Menlo, Courier, monospace", "foreground": "#999", "tooltip_font_family": "Consolas, \"Liberation Mono\", Menlo, Courier, monospace", "opacity": ".8", "font_family": "Consolas, \"Liberation Mono\", Menlo, Courier, monospace", "foreground_subtle": "#555", "colors": ["#ff5995", "#b6e354", "#feed6c", "#8cedff", "#9e6ffe", "#899ca1", "#f8f8f2", "#bf4646", "#516083", "#f92672", "#82b414", "#fd971f", "#56c2d6", "#808384", "#8c54fe", "#465457"], "foreground_strong": "#eee", "no_data_font_size": 64, "opacity_hover": ".4", "plot_background": "#111", "value_font_size": 16, "legend_font_family": "Consolas, \"Liberation Mono\", Menlo, Courier, monospace", "value_label_font_size": 10, "major_guide_stroke_dasharray": "6,6", "legend_font_size": 14, "label_font_family": "Consolas, \"Liberation Mono\", Menlo, Courier, monospace", "label_font_size": 10, "transition": "250ms", "title_font_size": 16, "value_label_font_family": "Consolas, \"Liberation Mono\", Menlo, Courier, monospace", "background": "black", "title_font_family": "Consolas, \"Liberation Mono\", Menlo, Courier, monospace", "value_colors": [], "no_data_font_family": "Consolas, \"Liberation Mono\", Menlo, Courier, monospace", "guide_stroke_dasharray": "4,4", "major_label_font_size": 10}, "strict": false, "xrange": null, "rounded_bars": null, "x_labels_major": null, "dots_size": 2.5, "show_dots": true, "order_min": null, "no_data_text": "No data", "y_labels": null, "print_labels": false, "spacing": 10, "y_labels_major": null, "print_values": false, "legends": ["Victory-Monument"], "zero": 0, "height": 600, "margin": 20, "box_mode": "extremes", "show_y_labels": true, "inverse_y_axis": false, "max_scale": 16, "show_x_labels": true, "explicit_size": false, "x_value_formatter": null, "secondary_range": null, "x_labels_major_every": null, "half_pie": false}</script><script type="text/javascript" xlink:href="//kozea.github.io/pygal.js/2.0.x/pygal-tooltips.min.js" /></defs><title>Victory-Monument 50</title><g class="graph line-graph vertical"><rect class="background" height="600" width="800" x="0" y="0" /><g class="plot" transform="translate(226, 46)"><rect class="background" height="514" width="554.0" x="0" y="0" /><g class="axis y"><path class="line" d="M0.000000 514.000000 h554.000000" /><g class="guides"><path class="major guide line" d="M0.000000 484.499372 h554.000000" /><text class="major" x="-5" y="487.9993715341118">700000.0</text><title>700000.0</title></g><g class="guides"><path class="guide line" d="M0.000000 451.293707 h554.000000" /><text class="" x="-5" y="454.79370664911664">710000.0</text><title>710000.0</title></g><g class="guides"><path class="guide line" d="M0.000000 418.088042 h554.000000" /><text class="" x="-5" y="421.58804176412144">720000.0</text><title>720000.0</title></g><g class="guides"><path class="guide line" d="M0.000000 384.882377 h554.000000" /><text class="" x="-5" y="388.3823768791263">730000.0</text><title>730000.0</title></g><g class="guides"><path class="guide line" d="M0.000000 351.676712 h554.000000" /><text class="" x="-5" y="355.1767119941311">740000.0</text><title>740000.0</title></g><g class="guides"><path class="major guide line" d="M0.000000 318.471047 h554.000000" /><text class="major" x="-5" y="321.97104710913595">750000.0</text><title>750000.0</title></g><g class="guides"><path class="guide line" d="M0.000000 285.265382 h554.000000" /><text class="" x="-5" y="288.7653822241408">760000.0</text><title>760000.0</title></g><g class="guides"><path class="guide line" d="M0.000000 252.059717 h554.000000" /><text class="" x="-5" y="255.5597173391456">770000.0</text><title>770000.0</title></g><g class="guides"><path class="guide line" d="M0.000000 218.854052 h554.000000" /><text class="" x="-5" y="222.3540524541504">780000.0</text><title>780000.0</title></g><g class="guides"><path class="guide line" d="M0.000000 185.648388 h554.000000" /><text class="" x="-5" y="189.14838756915526">790000.0</text><title>790000.0</title></g><g class="guides"><path class="major guide line" d="M0.000000 152.442723 h554.000000" /><text class="major" x="-5" y="155.94272268416006">800000.0</text><title>800000.0</title></g><g class="guides"><path class="guide line" d="M0.000000 119.237058 h554.000000" /><text class="" x="-5" y="122.73705779916486">810000.0</text><title>810000.0</title></g><g class="guides"><path class="guide line" d="M0.000000 86.031393 h554.000000" /><text class="" x="-5" y="89.53139291416971">820000.0</text><title>820000.0</title></g><g class="guides"><path class="guide line" d="M0.000000 52.825728 h554.000000" /><text class="" x="-5" y="56.325728029174456">830000.0</text><title>830000.0</title></g><g class="guides"><path class="guide line" d="M0.000000 19.620063 h554.000000" /><text class="" x="-5" y="23.120063144179312">840000.0</text><title>840000.0</title></g></g><g class="axis x"><g class="guides"><path class="line" d="M10.653846 0.000000 v514.000000" /><text class="" x="10.653846153846153" y="529.0">Jan</text></g><g class="guides"><path class="guide line" d="M59.080420 0.000000 v514.000000" /><text class="" x="59.08041958041958" y="529.0">Feb</text></g><g class="guides"><path class="guide line" d="M107.506993 0.000000 v514.000000" /><text class="" x="107.506993006993" y="529.0">Mar</text></g><g class="guides"><path class="guide line" d="M155.933566 0.000000 v514.000000" /><text class="" x="155.93356643356643" y="529.0">Apr</text></g><g class="guides"><path class="guide line" d="M204.360140 0.000000 v514.000000" /><text class="" x="204.36013986013987" y="529.0">May</text></g><g class="guides"><path class="guide line" d="M252.786713 0.000000 v514.000000" /><text class="" x="252.78671328671325" y="529.0">Jun</text></g><g class="guides"><path class="guide line" d="M301.213287 0.000000 v514.000000" /><text class="" x="301.2132867132867" y="529.0">Jul</text></g><g class="guides"><path class="guide line" d="M349.639860 0.000000 v514.000000" /><text class="" x="349.6398601398601" y="529.0">Aug</text></g><g class="guides"><path class="guide line" d="M398.066434 0.000000 v514.000000" /><text class="" x="398.06643356643355" y="529.0">Sep</text></g><g class="guides"><path class="guide line" d="M446.493007 0.000000 v514.000000" /><text class="" x="446.493006993007" y="529.0">Oct</text></g><g class="guides"><path class="guide line" d="M494.919580 0.000000 v514.000000" /><text class="" x="494.9195804195804" y="529.0">Nov</text></g><g class="guides"><path class="guide line" d="M543.346154 0.000000 v514.000000" /><text class="" x="543.3461538461538" y="529.0">Dec</text></g></g><g class="series serie-0 color-0"><path class="line reactive" d="M10.653846 514.000000 L10.653846 245.418584 10.847552 246.591504 11.041259 247.764351 11.234965 248.937055 11.428671 250.109544 11.622378 251.281745 11.816084 252.453588 12.009790 253.624999 12.203497 254.795908 12.397203 255.966243 12.590909 257.135931 12.784615 258.304902 12.978322 259.473083 13.172028 260.640402 13.365734 261.806787 13.559441 262.972168 13.753147 264.136472 13.946853 265.299626 14.140559 266.461561 14.334266 267.622202 14.527972 268.781480 14.721678 269.939322 14.915385 271.095656 15.109091 272.250410 15.302797 273.403513 15.496503 274.554893 15.690210 275.704478 15.883916 276.852196 16.077622 277.997976 16.271329 279.141745 16.465035 280.283432 16.658741 281.422966 16.852448 282.560273 17.046154 283.695283 17.239860 284.827923 17.433566 285.958123 17.627273 287.085809 17.820979 288.210911 18.014685 289.333356 18.208392 290.453073 18.402098 291.569990 18.595804 292.684034 18.789510 293.795135 18.983217 294.903221 19.176923 296.008219 19.370629 297.110058 19.564336 298.208666 19.758042 299.303972 19.951748 300.395903 20.145455 301.484387 20.339161 302.569354 20.532867 303.650730 20.726573 304.728445 20.920280 305.802427 21.113986 306.872603 21.307692 307.938902 21.501399 309.001252 21.695105 310.059581 21.888811 311.113818 22.082517 312.163890 22.276224 313.209727 22.469930 314.251255 22.663636 315.288404 22.857343 316.321101 23.051049 317.349275 23.244755 318.372854 23.438462 319.391766 23.632168 320.405940 23.825874 321.415302 24.019580 322.419783 24.213287 323.419310 24.406993 324.413810 24.600699 325.403213 24.794406 326.387447 24.988112 327.366439 25.181818 328.340118 25.375524 329.308412 25.569231 330.271250 25.762937 331.228559 25.956643 332.180268 26.150350 333.126305 26.344056 334.066597 26.537762 335.001075 26.731469 335.929665 26.925175 336.852295 27.118881 337.768895 27.312587 338.679391 27.506294 339.583713 27.700000 340.481789 27.893706 341.373546 28.087413 342.258913 28.281119 343.137819 28.474825 344.010190 28.668531 344.875957 28.862238 345.735046 29.055944 346.587386 29.249650 347.432905 29.443357 348.271531 29.637063 349.103194 29.830769 349.927819 30.024476 350.745337 30.218182 351.555675 30.411888 352.358762 30.605594 353.154525 30.799301 353.942892 30.993007 354.723793 31.186713 355.497155 31.380420 356.262906 31.574126 357.020975 31.767832 357.771290 31.961538 358.513779 32.155245 359.248369 32.348951 359.974991 32.542657 360.693570 32.736364 361.404037 32.930070 362.106319 33.123776 362.800343 33.317483 363.486040 33.511189 364.163335 33.704895 364.832159 33.898601 365.492439 34.092308 366.144102 34.286014 366.787079 34.479720 367.421295 34.673427 368.046681 34.867133 368.663164 35.060839 369.270672 35.254545 369.869133 35.448252 370.458476 35.641958 371.038628 35.835664 371.609519 36.029371 372.171076 36.223077 372.723227 36.416783 373.265901 36.610490 373.799026 36.804196 374.322530 36.997902 374.836341 37.191608 375.340388 37.385315 375.834598 37.579021 376.318900 37.772727 376.793222 37.966434 377.257492 38.160140 377.711639 38.353846 378.155590 38.547552 378.589275 38.741259 379.012620 38.934965 379.425554 39.128671 379.828006 39.322378 380.219904 39.516084 380.601175 39.709790 380.971749 39.903497 381.331553 40.097203 381.680515 40.290909 382.018564 40.484615 382.345627 40.678322 382.661634 40.872028 382.966512 41.065734 383.260190 41.259441 383.542595 41.453147 383.813656 41.646853 384.073301 41.840559 384.321459 42.034266 384.558057 42.227972 384.783023 42.421678 384.996287 42.615385 385.197775 42.809091 385.387417 43.002797 385.565140 43.196503 385.730873 43.390210 385.884544 43.583916 386.026081 43.777622 386.155412 43.971329 386.272466 44.165035 386.377171 44.358741 386.469454 44.552448 386.549244 44.746154 386.616470 44.939860 386.671059 45.133566 386.712940 45.327273 386.742041 45.520979 386.758290 45.714685 386.761615 45.908392 386.751945 46.102098 386.729208 46.295804 386.693331 46.489510 386.644244 46.683217 386.581873 46.876923 386.506149 47.070629 386.416998 47.264336 386.314349 47.458042 386.198130 47.651748 386.068269 47.845455 385.924695 48.039161 385.767336 48.232867 385.596120 48.426573 385.410975 48.620280 385.211829 48.813986 384.998610 49.007692 384.771248 49.201399 384.529669 49.395105 384.273802 49.588811 384.003576 49.782517 383.718919 49.976224 383.419758 50.169930 383.106022 50.363636 382.777639 50.557343 382.434537 50.751049 382.076645 50.944755 381.703891 51.138462 381.316203 51.332168 380.913509 51.525874 380.495737 51.719580 380.062816 51.913287 379.614674 52.106993 379.151238 52.300699 378.672438 52.494406 378.178201 52.688112 377.668456 52.881818 377.143130 53.075524 376.602153 53.269231 376.045452 53.462937 375.472955 53.656643 374.884590 53.850350 374.280286 54.044056 373.659972 54.237762 373.023574 54.431469 372.371022 54.625175 371.702244 54.818881 371.017167 55.012587 370.315720 55.206294 369.597832 55.400000 368.863430 55.593706 368.112442 55.787413 367.344797 55.981119 366.560424 56.174825 365.759249 56.368531 364.941202 56.562238 364.106210 56.755944 363.254203 56.949650 362.385107 57.143357 361.498851 57.337063 360.595364 57.530769 359.674574 57.724476 358.736408 57.918182 357.780795 58.111888 356.807664 58.305594 355.816942 58.499301 354.808557 58.693007 353.782439 58.886713 352.738514 59.080420 351.676712 59.274126 350.597004 59.467832 349.499537 59.661538 348.384502 59.855245 347.252089 60.048951 346.102489 60.242657 344.935893 60.436364 343.752492 60.630070 342.552476 60.823776 341.336035 61.017483 340.103362 61.211189 338.854645 61.404895 337.590076 61.598601 336.309846 61.792308 335.014145 61.986014 333.703165 62.179720 332.377094 62.373427 331.036125 62.567133 329.680448 62.760839 328.310254 62.954545 326.925733 63.148252 325.527076 63.341958 324.114473 63.535664 322.688116 63.729371 321.248195 63.923077 319.794901 64.116783 318.328424 64.310490 316.848955 64.504196 315.356685 64.697902 313.851804 64.891608 312.334504 65.085315 310.804974 65.279021 309.263405 65.472727 307.709989 65.666434 306.144916 65.860140 304.568376 66.053846 302.980560 66.247552 301.381660 66.441259 299.771864 66.634965 298.151365 66.828671 296.520353 67.022378 294.879018 67.216084 293.227552 67.409790 291.566145 67.603497 289.894987 67.797203 288.214269 67.990909 286.524183 68.184615 284.824918 68.378322 283.116665 68.572028 281.399615 68.765734 279.673959 68.959441 277.939888 69.153147 276.197591 69.346853 274.447260 69.540559 272.689086 69.734266 270.923259 69.927972 269.149969 70.121678 267.369408 70.315385 265.581766 70.509091 263.787233 70.702797 261.986002 70.896503 260.178261 71.090210 258.364202 71.283916 256.544016 71.477622 254.717892 71.671329 252.886023 71.865035 251.048598 72.058741 249.205809 72.252448 247.357845 72.446154 245.504898 72.639860 243.647158 72.833566 241.784816 73.027273 239.918063 73.220979 238.047089 73.414685 236.172084 73.608392 234.293241 73.802098 232.410749 73.995804 230.524799 74.189510 228.635581 74.383217 226.743287 74.576923 224.848107 74.770629 222.950232 74.964336 221.049852 75.158042 219.147158 75.351748 217.242341 75.545455 215.335591 75.739161 213.427099 75.932867 211.517056 76.126573 209.605653 76.320280 207.693080 76.513986 205.779527 76.707692 203.865186 76.901399 201.950248 77.095105 200.034902 77.288811 198.119339 77.482517 196.203751 77.676224 194.288328 77.869930 192.373260 78.063636 190.458739 78.257343 188.544955 78.451049 186.632098 78.644755 184.720359 78.838462 182.809929 79.032168 180.900999 79.225874 178.993760 79.419580 177.088401 79.613287 175.185114 79.806993 173.284089 80.000699 171.385518 80.194406 169.489590 80.388112 167.596496 80.581818 165.706428 80.775524 163.819575 80.969231 161.936129 81.162937 160.056280 81.356643 158.180218 81.550350 156.308136 81.744056 154.440222 81.937762 152.576668 82.131469 150.717664 82.325175 148.863402 82.518881 147.014072 82.712587 145.169864 82.906294 143.330969 83.100000 141.497578 83.293706 139.669882 83.487413 137.848071 83.681119 136.032336 83.874825 134.222868 84.068531 132.419857 84.262238 130.623494 84.455944 128.833969 84.649650 127.051474 84.843357 125.276199 85.037063 123.508334 85.230769 121.748071 85.424476 119.995600 85.618182 118.251111 85.811888 116.514796 86.005594 114.786845 86.199301 113.067449 86.393007 111.356798 86.586713 109.655084 86.780420 107.962496 86.974126 106.279225 87.167832 104.605463 87.361538 102.941399 87.555245 101.287225 87.748951 99.643132 87.942657 98.009309 88.136364 96.385947 88.330070 94.773238 88.523776 93.171372 88.717483 91.580539 88.911189 90.000930 89.104895 88.432737 89.298601 86.876149 89.492308 85.331357 89.686014 83.798553 89.879720 82.277925 90.073427 80.769667 90.267133 79.273967 90.460839 77.791017 90.654545 76.321007 90.848252 74.864128 91.041958 73.420572 91.235664 71.990527 91.429371 70.574185 91.623077 69.171738 91.816783 67.783374 92.010490 66.409286 92.204196 65.049664 92.397902 63.704698 92.591608 62.374579 92.785315 61.059498 92.979021 59.759645 93.172727 58.475212 93.366434 57.206388 93.560140 55.953365 93.753846 54.716334 93.947552 53.495484 94.141259 52.291007 94.334965 51.103093 94.528671 49.931932 94.722378 48.777717 94.916084 47.640637 95.109790 46.520882 95.303497 45.418645 95.497203 44.334114 95.690909 43.267482 95.884615 42.218939 96.078322 41.188674 96.272028 40.176880 96.465734 39.183747 96.659441 38.209464 96.853147 37.254224 97.046853 36.318217 97.240559 35.401633 97.434266 34.504663 97.627972 33.627498 97.821678 32.770329 98.015385 31.933345 98.209091 31.116739 98.402797 30.320700 98.596503 29.545419 98.790210 28.791087 98.983916 28.057894 99.177622 27.346032 99.371329 26.655691 99.565035 25.987061 99.758741 25.340333 99.952448 24.715699 100.146154 24.113348 100.339860 23.533471 100.533566 22.976259 100.727273 22.441903 100.920979 21.930593 101.114685 21.442520 101.308392 20.977875 101.502098 20.536848 101.695804 20.119630 101.889510 19.726412 102.083217 19.357385 102.276923 19.012738 102.470629 18.692663 102.664336 18.397351 102.858042 18.126991 103.051748 17.881776 103.245455 17.661895 103.439161 17.467539 103.632867 17.298899 103.826573 17.156165 104.020280 17.039529 104.213986 16.949180 104.407692 16.885310 104.601399 16.848109 104.795105 16.837768 104.988811 16.854478 105.182517 16.898429 105.376224 16.969811 105.569930 17.068817 105.763636 17.195635 105.957343 17.350458 106.151049 17.533475 106.344755 17.744878 106.538462 17.984856 106.732168 18.253602 106.925874 18.551304 107.119580 18.878155 107.313287 19.234344 107.506993 19.620063 107.700699 20.035434 107.894406 20.480307 108.088112 20.954464 108.281818 21.457688 108.475524 21.989760 108.669231 22.550464 108.862937 23.139580 109.056643 23.756891 109.250350 24.402180 109.444056 25.075228 109.637762 25.775817 109.831469 26.503730 110.025175 27.258749 110.218881 28.040656 110.412587 28.849233 110.606294 29.684262 110.800000 30.545526 110.993706 31.432806 111.187413 32.345885 111.381119 33.284544 111.574825 34.248567 111.768531 35.237735 111.962238 36.251830 112.155944 37.290634 112.349650 38.353930 112.543357 39.441500 112.737063 40.553125 112.930769 41.688589 113.124476 42.847672 113.318182 44.030158 113.511888 45.235829 113.705594 46.464466 113.899301 47.715851 114.093007 48.989768 114.286713 50.285997 114.480420 51.604322 114.674126 52.944524 114.867832 54.306385 115.061538 55.689688 115.255245 57.094215 115.448951 58.519747 115.642657 59.966068 115.836364 61.432959 116.030070 62.920202 116.223776 64.427580 116.417483 65.954874 116.611189 67.501867 116.804895 69.068340 116.998601 70.654077 117.192308 72.258859 117.386014 73.882469 117.579720 75.524687 117.773427 77.185298 117.967133 78.864082 118.160839 80.560822 118.354545 82.275300 118.548252 84.007299 118.741958 85.756600 118.935664 87.522985 119.129371 89.306237 119.323077 91.106137 119.516783 92.922469 119.710490 94.755013 119.904196 96.603553 120.097902 98.467871 120.291608 100.347747 120.485315 102.242966 120.679021 104.153308 120.872727 106.078556 121.066434 108.018492 121.260140 109.972899 121.453846 111.941557 121.647552 113.924251 121.841259 115.920761 122.034965 117.930870 122.228671 119.954359 122.422378 121.991012 122.616084 124.040610 122.809790 126.102936 123.003497 128.177771 123.197203 130.264898 123.390909 132.364098 123.584615 134.475155 123.778322 136.597850 123.972028 138.731965 124.165734 140.877282 124.359441 143.033584 124.553147 145.200653 124.746853 147.378270 124.940559 149.566219 125.134266 151.764280 125.327972 153.972237 125.521678 156.189872 125.715385 158.416965 125.909091 160.653301 126.102797 162.898661 126.296503 165.152826 126.490210 167.415580 126.683916 169.686704 126.877622 171.965980 127.071329 174.253191 127.265035 176.548119 127.458741 178.850545 127.652448 181.160253 127.846154 183.477024 128.039860 185.800640 128.233566 188.130884 128.427273 190.467537 128.620979 192.810382 128.814685 195.159201 129.008392 197.513775 129.202098 199.873889 129.395804 202.239322 129.589510 204.609858 129.783217 206.985278 129.976923 209.365366 130.170629 211.749902 130.364336 214.138669 130.558042 216.531449 130.751748 218.928025 130.945455 221.328179 131.139161 223.731691 131.332867 226.138346 131.526573 228.547925 131.720280 230.960210 131.913986 233.374983 132.107692 235.792026 132.301399 238.211122 132.495105 240.632052 132.688811 243.054599 132.882517 245.478546 133.076224 247.903673 133.269930 250.329764 133.463636 252.756599 133.657343 255.183963 133.851049 257.611636 134.044755 260.039401 134.238462 262.467040 134.432168 264.894335 134.625874 267.321068 134.819580 269.747022 135.013287 272.171978 135.206993 274.595719 135.400699 277.018027 135.594406 279.438684 135.788112 281.857471 135.981818 284.274173 136.175524 286.688569 136.369231 289.100443 136.562937 291.509577 136.756643 293.915753 136.950350 296.318752 137.144056 298.718358 137.337762 301.114352 137.531469 303.506517 137.725175 305.894634 137.918881 308.278486 138.112587 310.657854 138.306294 313.032522 138.500000 315.402271 138.693706 317.766883 138.887413 320.126141 139.081119 322.479826 139.274825 324.827721 139.468531 327.169608 139.662238 329.505268 139.855944 331.834486 140.049650 334.157041 140.243357 336.472717 140.437063 338.781295 140.630769 341.082558 140.824476 343.376288 141.018182 345.662267 141.211888 347.940278 141.405594 350.210101 141.599301 352.471521 141.793007 354.724317 141.986713 356.968274 142.180420 359.203172 142.374126 361.428795 142.567832 363.644923 142.761538 365.851341 142.955245 368.047828 143.148951 370.234168 143.342657 372.410143 143.536364 374.575535 143.730070 376.730126 143.923776 378.873698 144.117483 381.006034 144.311189 383.126915 144.504895 385.236124 144.698601 387.333443 144.892308 389.418653 145.086014 391.491538 145.279720 393.551879 145.473427 395.599458 145.667133 397.634058 145.860839 399.655460 146.054545 401.663447 146.248252 403.657802 146.441958 405.638305 146.635664 407.604740 146.829371 409.556888 147.023077 411.494531 147.216783 413.417452 147.410490 415.325433 147.604196 417.218257 147.797902 419.095704 147.991608 420.957557 148.185315 422.803599 148.379021 424.633612 148.572727 426.447377 148.766434 428.244677 148.960140 430.025294 149.153846 431.789010 149.347552 433.535607 149.541259 435.264868 149.734965 436.976575 149.928671 438.670509 150.122378 440.346453 150.316084 442.004189 150.509790 443.643499 150.703497 445.264166 150.897203 446.865971 151.090909 448.448696 151.284615 450.012125 151.478322 451.556038 151.672028 453.080218 151.865734 454.584448 152.059441 456.068508 152.253147 457.532183 152.446853 458.975253 152.640559 460.397500 152.834266 461.798708 153.027972 463.178657 153.221678 464.537131 153.415385 465.873911 153.609091 467.188780 153.802797 468.481519 153.996503 469.751911 154.190210 470.999738 154.383916 472.224782 154.577622 473.426825 154.771329 474.605649 154.965035 475.761037 155.158741 476.892771 155.352448 478.000632 155.546154 479.084404 155.739860 480.143867 155.933566 481.178805 156.127273 482.189057 156.320979 483.174692 156.514685 484.135838 156.708392 485.072623 156.902098 485.985174 157.095804 486.873617 157.289510 487.738082 157.483217 488.578694 157.676923 489.395581 157.870629 490.188870 158.064336 490.958690 158.258042 491.705167 158.451748 492.428428 158.645455 493.128601 158.839161 493.805813 159.032867 494.460192 159.226573 495.091865 159.420280 495.700959 159.613986 496.287602 159.807692 496.851921 160.001399 497.394043 160.195105 497.914096 160.388811 498.412207 160.582517 498.888503 160.776224 499.343112 160.969930 499.776162 161.163636 500.187778 161.357343 500.578089 161.551049 500.947223 161.744755 501.295306 161.938462 501.622465 162.132168 501.928829 162.325874 502.214525 162.519580 502.479679 162.713287 502.724419 162.906993 502.948874 163.100699 503.153168 163.294406 503.337432 163.488112 503.501790 163.681818 503.646372 163.875524 503.771304 164.069231 503.876714 164.262937 503.962729 164.456643 504.029476 164.650350 504.077083 164.844056 504.105676 165.037762 504.115385 165.231469 504.106335 165.425175 504.078654 165.618881 504.032469 165.812587 503.967908 166.006294 503.885099 166.200000 503.784168 166.393706 503.665242 166.587413 503.528450 166.781119 503.373919 166.974825 503.201775 167.168531 503.012146 167.362238 502.805160 167.555944 502.580944 167.749650 502.339626 167.943357 502.081332 168.137063 501.806189 168.330769 501.514326 168.524476 501.205870 168.718182 500.880948 168.911888 500.539687 169.105594 500.182215 169.299301 499.808659 169.493007 499.419146 169.686713 499.013805 169.880420 498.592761 170.074126 498.156142 170.267832 497.704077 170.461538 497.236691 170.655245 496.754113 170.848951 496.256470 171.042657 495.743889 171.236364 495.216498 171.430070 494.674424 171.623776 494.117793 171.817483 493.546735 172.011189 492.961375 172.204895 492.361841 172.398601 491.748262 172.592308 491.120763 172.786014 490.479472 172.979720 489.824517 173.173427 489.156026 173.367133 488.474124 173.560839 487.778940 173.754545 487.070602 173.948252 486.349235 174.141958 485.614969 174.335664 484.867929 174.529371 484.108244 174.723077 483.336041 174.916783 482.551447 175.110490 481.754590 175.304196 480.945596 175.497902 480.124594 175.691608 479.291710 175.885315 478.447072 176.079021 477.590807 176.272727 476.723043 176.466434 475.843906 176.660140 474.953526 176.853846 474.052027 177.047552 473.139539 177.241259 472.216188 177.434965 471.282102 177.628671 470.337407 177.822378 469.382232 178.016084 468.416704 178.209790 467.440950 178.403497 466.455097 178.597203 465.459273 178.790909 464.453606 178.984615 463.438221 179.178322 462.413248 179.372028 461.378812 179.565734 460.335043 179.759441 459.282066 179.953147 458.220009 180.146853 457.149000 180.340559 456.069165 180.534266 454.980633 180.727972 453.883531 180.921678 452.777985 181.115385 451.664124 181.309091 450.542075 181.502797 449.411964 181.696503 448.273920 181.890210 447.128069 182.083916 445.974540 182.277622 444.813459 182.471329 443.644953 182.665035 442.469151 182.858741 441.286179 183.052448 440.096165 183.246154 438.899236 183.439860 437.695520 183.633566 436.485143 183.827273 435.268233 184.020979 434.044918 184.214685 432.815325 184.408392 431.579582 184.602098 430.337814 184.795804 429.090151 184.989510 427.836719 185.183217 426.577645 185.376923 425.313058 185.570629 424.043083 185.764336 422.767850 185.958042 421.487484 186.151748 420.202114 186.345455 418.911867 186.539161 417.616869 186.732867 416.317249 186.926573 415.013134 187.120280 413.704650 187.313986 412.391927 187.507692 411.075090 187.701399 409.754267 187.895105 408.429585 188.088811 407.101173 188.282517 405.769156 188.476224 404.433664 188.669930 403.094822 188.863636 401.752758 189.057343 400.407600 189.251049 399.059475 189.444755 397.708510 189.638462 396.354832 189.832168 394.998570 190.025874 393.639850 190.219580 392.278799 190.413287 390.915546 190.606993 389.550217 190.800699 388.182940 190.994406 386.813842 191.188112 385.443050 191.381818 384.070692 191.575524 382.696895 191.769231 381.321786 191.962937 379.945494 192.156643 378.568144 192.350350 377.189865 192.544056 375.810784 192.737762 374.431028 192.931469 373.050724 193.125175 371.670001 193.318881 370.288984 193.512587 368.907802 193.706294 367.526583 193.900000 366.145452 194.093706 364.764538 194.287413 363.383968 194.481119 362.003870 194.674825 360.624370 194.868531 359.245596 195.062238 357.867675 195.255944 356.490735 195.449650 355.114904 195.643357 353.740307 195.837063 352.367074 196.030769 350.995330 196.224476 349.625204 196.418182 348.256823 196.611888 346.890314 196.805594 345.525805 196.999301 344.163422 197.193007 342.803294 197.386713 341.445547 197.580420 340.090309 197.774126 338.737707 197.967832 337.387869 198.161538 336.040922 198.355245 334.696993 198.548951 333.356209 198.742657 332.018699 198.936364 330.684589 199.130070 329.354007 199.323776 328.027080 199.517483 326.703935 199.711189 325.384700 199.904895 324.069502 200.098601 322.758468 200.292308 321.451726 200.486014 320.149403 200.679720 318.851627 200.873427 317.558525 201.067133 316.270224 201.260839 314.986851 201.454545 313.708534 201.648252 312.435400 201.841958 311.167577 202.035664 309.905192 202.229371 308.648372 202.423077 307.397245 202.616783 306.151937 202.810490 304.912577 203.004196 303.679292 203.197902 302.452209 203.391608 301.231455 203.585315 300.017157 203.779021 298.809444 203.972727 297.608442 204.166434 296.414279 204.360140 295.227082 204.553846 294.046953 204.747552 292.873897 204.941259 291.707892 205.134965 290.548916 205.328671 289.396950 205.522378 288.251970 205.716084 287.113957 205.909790 285.982888 206.103497 284.858744 206.297203 283.741501 206.490909 282.631140 206.684615 281.527639 206.878322 280.430977 207.072028 279.341133 207.265734 278.258085 207.459441 277.181812 207.653147 276.112293 207.846853 275.049506 208.040559 273.993432 208.234266 272.944047 208.427972 271.901332 208.621678 270.865264 208.815385 269.835823 209.009091 268.812988 209.202797 267.796737 209.396503 266.787049 209.590210 265.783902 209.783916 264.787276 209.977622 263.797150 210.171329 262.813501 210.365035 261.836310 210.558741 260.865554 210.752448 259.901213 210.946154 258.943265 211.139860 257.991689 211.333566 257.046464 211.527273 256.107568 211.720979 255.174981 211.914685 254.248681 212.108392 253.328647 212.302098 252.414857 212.495804 251.507292 212.689510 250.605928 212.883217 249.710746 213.076923 248.821723 213.270629 247.938839 213.464336 247.062073 213.658042 246.191402 213.851748 245.326807 214.045455 244.468266 214.239161 243.615757 214.432867 242.769259 214.626573 241.928752 214.820280 241.094213 215.013986 240.265622 215.207692 239.442958 215.401399 238.626198 215.595105 237.815323 215.788811 237.010311 215.982517 236.211140 216.176224 235.417790 216.369930 234.630239 216.563636 233.848466 216.757343 233.072449 216.951049 232.302168 217.144755 231.537601 217.338462 230.778728 217.532168 230.025526 217.725874 229.277975 217.919580 228.536053 218.113287 227.799740 218.306993 227.069013 218.500699 226.343852 218.694406 225.624236 218.888112 224.910143 219.081818 224.201553 219.275524 223.498443 219.469231 222.800793 219.662937 222.108581 219.856643 221.421787 220.050350 220.740388 220.244056 220.064365 220.437762 219.393695 220.631469 218.728357 220.825175 218.068331 221.018881 217.413594 221.212587 216.764127 221.406294 216.119906 221.600000 215.480912 221.793706 214.847123 221.987413 214.218518 222.181119 213.595076 222.374825 212.976775 222.568531 212.363594 222.762238 211.755513 222.955944 211.152509 223.149650 210.554561 223.343357 209.961649 223.537063 209.373751 223.730769 208.790846 223.924476 208.212912 224.118182 207.639929 224.311888 207.071876 224.505594 206.508730 224.699301 205.950471 224.893007 205.397078 225.086713 204.848529 225.280420 204.304803 225.474126 203.765879 225.667832 203.231736 225.861538 202.702352 226.055245 202.177707 226.248951 201.657779 226.442657 201.142546 226.636364 200.631989 226.830070 200.126084 227.023776 199.624812 227.217483 199.128151 227.411189 198.636079 227.604895 198.148576 227.798601 197.665621 227.992308 197.187191 228.186014 196.713267 228.379720 196.243826 228.573427 195.778848 228.767133 195.318310 228.960839 194.862193 229.154545 194.410475 229.348252 193.963134 229.541958 193.520150 229.735664 193.081501 229.929371 192.647165 230.123077 192.217123 230.316783 191.791352 230.510490 191.369831 230.704196 190.952539 230.897902 190.539455 231.091608 190.130558 231.285315 189.725826 231.479021 189.325238 231.672727 188.928774 231.866434 188.536411 232.060140 188.148128 232.253846 187.763905 232.447552 187.383720 232.641259 187.007552 232.834965 186.635380 233.028671 186.267182 233.222378 185.902937 233.416084 185.542625 233.609790 185.186223 233.803497 184.833710 233.997203 184.485066 234.190909 184.140270 234.384615 183.799299 234.578322 183.462133 234.772028 183.128750 234.965734 182.799130 235.159441 182.473250 235.353147 182.151091 235.546853 181.832630 235.740559 181.517847 235.934266 181.206719 236.127972 180.899227 236.321678 180.595348 236.515385 180.295062 236.709091 179.998348 236.902797 179.705183 237.096503 179.415548 237.290210 179.129420 237.483916 178.846778 237.677622 178.567602 237.871329 178.291869 238.065035 178.019560 238.258741 177.750652 238.452448 177.485124 238.646154 177.222956 238.839860 176.964125 239.033566 176.708611 239.227273 176.456393 239.420979 176.207449 239.614685 175.961758 239.808392 175.719299 240.002098 175.480050 240.195804 175.243991 240.389510 175.011100 240.583217 174.781356 240.776923 174.554738 240.970629 174.331224 241.164336 174.110794 241.358042 173.893426 241.551748 173.679098 241.745455 173.467791 241.939161 173.259481 242.132867 173.054149 242.326573 172.851773 242.520280 172.652332 242.713986 172.455804 242.907692 172.262169 243.101399 172.071405 243.295105 171.883490 243.488811 171.698405 243.682517 171.516127 243.876224 171.336635 244.069930 171.159908 244.263636 170.985925 244.457343 170.814665 244.651049 170.646106 244.844755 170.480227 245.038462 170.317008 245.232168 170.156425 245.425874 169.998460 245.619580 169.843090 245.813287 169.690294 246.006993 169.540050 246.200699 169.392339 246.394406 169.247138 246.588112 169.104426 246.781818 168.964182 246.975524 168.826385 247.169231 168.691013 247.362937 168.558046 247.556643 168.427462 247.750350 168.299240 247.944056 168.173359 248.137762 168.049797 248.331469 167.928533 248.525175 167.809546 248.718881 167.692815 248.912587 167.578319 249.106294 167.466036 249.300000 167.355946 249.493706 167.248026 249.687413 167.142256 249.881119 167.038615 250.074825 166.937081 250.268531 166.837633 250.462238 166.740250 250.655944 166.644910 250.849650 166.551593 251.043357 166.460277 251.237063 166.370941 251.430769 166.283564 251.624476 166.198125 251.818182 166.114602 252.011888 166.032974 252.205594 165.953220 252.399301 165.875318 252.593007 165.799248 252.786713 165.724989 252.980420 165.652520 253.174126 165.581829 253.367832 165.512907 253.561538 165.445742 253.755245 165.380323 253.948951 165.316640 254.142657 165.254683 254.336364 165.194441 254.530070 165.135903 254.723776 165.079058 254.917483 165.023897 255.111189 164.970408 255.304895 164.918580 255.498601 164.868404 255.692308 164.819869 255.886014 164.772964 256.079720 164.727678 256.273427 164.684001 256.467133 164.641922 256.660839 164.601431 256.854545 164.562517 257.048252 164.525169 257.241958 164.489378 257.435664 164.455131 257.629371 164.422419 257.823077 164.391231 258.016783 164.361557 258.210490 164.333385 258.404196 164.306705 258.597902 164.281508 258.791608 164.257781 258.985315 164.235514 259.179021 164.214698 259.372727 164.195320 259.566434 164.177372 259.760140 164.160841 259.953846 164.145718 260.147552 164.131991 260.341259 164.119651 260.534965 164.108687 260.728671 164.099087 260.922378 164.090842 261.116084 164.083941 261.309790 164.078373 261.503497 164.074127 261.697203 164.071194 261.890909 164.069562 262.084615 164.069220 262.278322 164.070159 262.472028 164.072368 262.665734 164.075836 262.859441 164.080552 263.053147 164.086506 263.246853 164.093687 263.440559 164.102084 263.634266 164.111688 263.827972 164.122487 264.021678 164.134471 264.215385 164.147629 264.409091 164.161951 264.602797 164.177426 264.796503 164.194043 264.990210 164.211792 265.183916 164.230662 265.377622 164.250643 265.571329 164.271724 265.765035 164.293894 265.958741 164.317143 266.152448 164.341461 266.346154 164.366835 266.539860 164.393257 266.733566 164.420716 266.927273 164.449200 267.120979 164.478699 267.314685 164.509203 267.508392 164.540701 267.702098 164.573182 267.895804 164.606636 268.089510 164.641053 268.283217 164.676420 268.476923 164.712729 268.670629 164.749969 268.864336 164.788128 269.058042 164.827196 269.251748 164.867163 269.445455 164.908018 269.639161 164.949750 269.832867 164.992349 270.026573 165.035805 270.220280 165.080106 270.413986 165.125242 270.607692 165.171202 270.801399 165.217976 270.995105 165.265553 271.188811 165.313923 271.382517 165.363075 271.576224 165.412998 271.769930 165.463683 271.963636 165.515117 272.157343 165.567291 272.351049 165.620194 272.544755 165.673815 272.738462 165.728144 272.932168 165.783170 273.125874 165.838883 273.319580 165.895272 273.513287 165.952326 273.706993 166.010035 273.900699 166.068388 274.094406 166.127375 274.288112 166.186985 274.481818 166.247207 274.675524 166.308031 274.869231 166.369446 275.062937 166.431441 275.256643 166.494007 275.450350 166.557132 275.644056 166.620806 275.837762 166.685018 276.031469 166.749758 276.225175 166.815014 276.418881 166.880777 276.612587 166.947036 276.806294 167.013780 277.000000 167.080999 277.193706 167.148681 277.387413 167.216817 277.581119 167.285396 277.774825 167.354406 277.968531 167.423839 278.162238 167.493682 278.355944 167.563926 278.549650 167.634560 278.743357 167.705572 278.937063 167.776954 279.130769 167.848693 279.324476 167.920779 279.518182 167.993203 279.711888 168.065952 279.905594 168.139018 280.099301 168.212388 280.293007 168.286052 280.486713 168.360001 280.680420 168.434222 280.874126 168.508706 281.067832 168.583442 281.261538 168.658419 281.455245 168.733627 281.648951 168.809056 281.842657 168.884694 282.036364 168.960530 282.230070 169.036556 282.423776 169.112759 282.617483 169.189129 282.811189 169.265655 283.004895 169.342328 283.198601 169.419136 283.392308 169.496069 283.586014 169.573116 283.779720 169.650266 283.973427 169.727510 284.167133 169.804836 284.360839 169.882233 284.554545 169.959692 284.748252 170.037201 284.941958 170.114750 285.135664 170.192329 285.329371 170.269926 285.523077 170.347532 285.716783 170.425135 285.910490 170.502725 286.104196 170.580292 286.297902 170.657824 286.491608 170.735311 286.685315 170.812743 286.879021 170.890109 287.072727 170.967398 287.266434 171.044600 287.460140 171.121704 287.653846 171.198700 287.847552 171.275576 288.041259 171.352323 288.234965 171.428930 288.428671 171.505386 288.622378 171.581680 288.816084 171.657803 289.009790 171.733742 289.203497 171.809489 289.397203 171.885031 289.590909 171.960359 289.784615 172.035462 289.978322 172.110330 290.172028 172.184951 290.365734 172.259315 290.559441 172.333412 290.753147 172.407231 290.946853 172.480761 291.140559 172.553992 291.334266 172.626913 291.527972 172.699514 291.721678 172.771783 291.915385 172.843711 292.109091 172.915287 292.302797 172.986500 292.496503 173.057339 292.690210 173.127794 292.883916 173.197855 293.077622 173.267510 293.271329 173.336749 293.465035 173.405562 293.658741 173.473938 293.852448 173.541866 294.046154 173.609336 294.239860 173.676338 294.433566 173.742859 294.627273 173.808891 294.820979 173.874422 295.014685 173.939441 295.208392 174.003939 295.402098 174.067905 295.595804 174.131327 295.789510 174.194195 295.983217 174.256500 296.176923 174.318229 296.370629 174.379373 296.564336 174.439921 296.758042 174.499862 296.951748 174.559186 297.145455 174.617882 297.339161 174.675940 297.532867 174.733348 297.726573 174.790097 297.920280 174.846176 298.113986 174.901574 298.307692 174.956280 298.501399 175.010284 298.695105 175.063576 298.888811 175.116144 299.082517 175.167978 299.276224 175.219068 299.469930 175.269403 299.663636 175.318972 299.857343 175.367765 300.051049 175.415771 300.244755 175.462979 300.438462 175.509379 300.632168 175.554961 300.825874 175.599714 301.019580 175.643626 301.213287 175.686688 301.406993 175.728894 301.600699 175.770256 301.794406 175.810793 301.988112 175.850522 302.181818 175.889460 302.375524 175.927626 302.569231 175.965037 302.762937 176.001711 302.956643 176.037666 303.150350 176.072919 303.344056 176.107489 303.537762 176.141392 303.731469 176.174646 303.925175 176.207270 304.118881 176.239281 304.312587 176.270696 304.506294 176.301534 304.700000 176.331812 304.893706 176.361547 305.087413 176.390758 305.281119 176.419463 305.474825 176.447678 305.668531 176.475422 305.862238 176.502713 306.055944 176.529567 306.249650 176.556003 306.443357 176.582039 306.637063 176.607692 306.830769 176.632980 307.024476 176.657921 307.218182 176.682532 307.411888 176.706832 307.605594 176.730837 307.799301 176.754565 307.993007 176.778035 308.186713 176.801264 308.380420 176.824270 308.574126 176.847070 308.767832 176.869682 308.961538 176.892124 309.155245 176.914413 309.348951 176.936568 309.542657 176.958606 309.736364 176.980545 309.930070 177.002401 310.123776 177.024195 310.317483 177.045941 310.511189 177.067660 310.704895 177.089368 310.898601 177.111083 311.092308 177.132822 311.286014 177.154604 311.479720 177.176446 311.673427 177.198366 311.867133 177.220382 312.060839 177.242511 312.254545 177.264770 312.448252 177.287179 312.641958 177.309754 312.835664 177.332513 313.029371 177.355474 313.223077 177.378655 313.416783 177.402073 313.610490 177.425746 313.804196 177.449692 313.997902 177.473928 314.191608 177.498473 314.385315 177.523343 314.579021 177.548557 314.772727 177.574132 314.966434 177.600087 315.160140 177.626438 315.353846 177.653203 315.547552 177.680401 315.741259 177.708049 315.934965 177.736164 316.128671 177.764764 316.322378 177.793868 316.516084 177.823493 316.709790 177.853655 316.903497 177.884375 317.097203 177.915668 317.290909 177.947552 317.484615 177.980046 317.678322 178.013167 317.872028 178.046933 318.065734 178.081362 318.259441 178.116470 318.453147 178.152277 318.646853 178.188799 318.840559 178.226054 319.034266 178.264061 319.227972 178.302837 319.421678 178.342398 319.615385 178.382765 319.809091 178.423953 320.002797 178.465980 320.196503 178.508866 320.390210 178.552626 320.583916 178.597279 320.777622 178.642842 320.971329 178.689334 321.165035 178.736772 321.358741 178.785173 321.552448 178.834556 321.746154 178.884938 321.939860 178.936337 322.133566 178.988770 322.327273 179.042256 322.520979 179.096811 322.714685 179.152455 322.908392 179.209203 323.102098 179.267075 323.295804 179.326087 323.489510 179.386258 323.683217 179.447606 323.876923 179.510147 324.070629 179.573900 324.264336 179.638883 324.458042 179.705112 324.651748 179.772607 324.845455 179.841384 325.039161 179.911461 325.232867 179.982856 325.426573 180.055587 325.620280 180.129672 325.813986 180.205127 326.007692 180.281972 326.201399 180.360223 326.395105 180.439898 326.588811 180.521015 326.782517 180.603592 326.976224 180.687647 327.169930 180.773196 327.363636 180.860259 327.557343 180.948852 327.751049 181.038993 327.944755 181.130701 328.138462 181.223992 328.332168 181.318884 328.525874 181.415396 328.719580 181.513545 328.913287 181.613348 329.106993 181.714824 329.300699 181.817989 329.494406 181.922863 329.688112 182.029461 329.881818 182.137803 330.075524 182.247906 330.269231 182.359788 330.462937 182.473466 330.656643 182.588958 330.850350 182.706281 331.044056 182.825454 331.237762 182.946495 331.431469 183.069420 331.625175 183.194248 331.818881 183.320996 332.012587 183.449682 332.206294 183.580324 332.400000 183.712940 332.593706 183.847546 332.787413 183.984162 332.981119 184.122804 333.174825 184.263491 333.368531 184.406240 333.562238 184.551068 333.755944 184.697994 333.949650 184.847035 334.143357 184.998209 334.337063 185.151534 334.530769 185.307027 334.724476 185.464707 334.918182 185.624590 335.111888 185.786694 335.305594 185.951038 335.499301 186.117639 335.693007 186.286514 335.886713 186.457682 336.080420 186.631160 336.274126 186.806965 336.467832 186.985117 336.661538 187.165631 336.855245 187.348526 337.048951 187.533821 337.242657 187.721531 337.436364 187.911676 337.630070 188.104272 337.823776 188.299338 338.017483 188.496891 338.211189 188.696949 338.404895 188.899530 338.598601 189.104652 338.792308 189.312331 338.986014 189.522586 339.179720 189.735435 339.373427 189.950895 339.567133 190.168984 339.760839 190.389720 339.954545 190.613120 340.148252 190.839202 340.341958 191.067985 340.535664 191.299484 340.729371 191.533719 340.923077 191.770707 341.116783 192.010466 341.310490 192.253013 341.504196 192.498366 341.697902 192.746544 341.891608 192.997562 342.085315 193.251440 342.279021 193.508195 342.472727 193.767845 342.666434 194.030407 342.860140 194.295900 343.053846 194.564340 343.247552 194.835746 343.441259 195.110135 343.634965 195.387525 343.828671 195.667934 344.022378 195.951379 344.216084 196.237879 344.409790 196.527450 344.603497 196.820111 344.797203 197.115880 344.990909 197.414773 345.184615 197.716809 345.378322 198.022006 345.572028 198.330380 345.765734 198.641951 345.959441 198.956735 346.153147 199.274751 346.346853 199.596016 346.540559 199.920547 346.734266 200.248363 346.927972 200.579481 347.121678 200.913919 347.315385 201.251695 347.509091 201.592826 347.702797 201.937330 347.896503 202.285225 348.090210 202.636528 348.283916 202.991258 348.477622 203.349431 348.671329 203.711066 348.865035 204.076181 349.058741 204.444792 349.252448 204.816919 349.446154 205.192577 349.639860 205.571787 349.833566 205.954552 350.027273 206.340832 350.220979 206.730576 350.414685 207.123729 350.608392 207.520240 350.802098 207.920056 350.995804 208.323124 351.189510 208.729391 351.383217 209.138806 351.576923 209.551315 351.770629 209.966866 351.964336 210.385406 352.158042 210.806883 352.351748 211.231244 352.545455 211.658436 352.739161 212.088406 352.932867 212.521103 353.126573 212.956474 353.320280 213.394465 353.513986 213.835025 353.707692 214.278100 353.901399 214.723638 354.095105 215.171587 354.288811 215.621893 354.482517 216.074505 354.676224 216.529370 354.869930 216.986434 355.063636 217.445646 355.257343 217.906952 355.451049 218.370301 355.644755 218.835639 355.838462 219.302915 356.032168 219.772074 356.225874 220.243065 356.419580 220.715836 356.613287 221.190332 356.806993 221.666503 357.000699 222.144295 357.194406 222.623655 357.388112 223.104532 357.581818 223.586872 357.775524 224.070622 357.969231 224.555731 358.162937 225.042146 358.356643 225.529813 358.550350 226.018681 358.744056 226.508696 358.937762 226.999807 359.131469 227.491960 359.325175 227.985103 359.518881 228.479183 359.712587 228.974148 359.906294 229.469945 360.100000 229.966522 360.293706 230.463825 360.487413 230.961802 360.681119 231.460401 360.874825 231.959570 361.068531 232.459254 361.262238 232.959402 361.455944 233.459961 361.649650 233.960879 361.843357 234.462103 362.037063 234.963580 362.230769 235.465258 362.424476 235.967084 362.618182 236.469005 362.811888 236.970969 363.005594 237.472923 363.199301 237.974815 363.393007 238.476592 363.586713 238.978202 363.780420 239.479591 363.974126 239.980707 364.167832 240.481498 364.361538 240.981911 364.555245 241.481893 364.748951 241.981392 364.942657 242.480355 365.136364 242.978729 365.330070 243.476463 365.523776 243.973502 365.717483 244.469796 365.911189 244.965290 366.104895 245.459933 366.298601 245.953671 366.492308 246.446453 366.686014 246.938225 366.879720 247.428936 367.073427 247.918531 367.267133 248.406960 367.460839 248.894168 367.654545 249.380104 367.848252 249.864715 368.041958 250.347949 368.235664 250.829752 368.429371 251.310072 368.623077 251.788856 368.816783 252.266052 369.010490 252.741608 369.204196 253.215470 369.397902 253.687586 369.591608 254.157904 369.785315 254.626370 369.979021 255.092932 370.172727 255.557538 370.366434 256.020135 370.560140 256.480671 370.753846 256.939092 370.947552 257.395346 371.141259 257.849380 371.334965 258.301143 371.528671 258.750580 371.722378 259.197640 371.916084 259.642271 372.109790 260.084418 372.303497 260.524031 372.497203 260.961056 372.690909 261.395440 372.884615 261.827131 373.078322 262.256077 373.272028 262.682224 373.465734 263.105521 373.659441 263.525914 373.853147 263.943351 374.046853 264.357779 374.240559 264.769145 374.434266 265.177398 374.627972 265.582485 374.821678 265.984352 375.015385 266.382947 375.209091 266.778218 375.402797 267.170112 375.596503 267.558576 375.790210 267.943558 375.983916 268.325006 376.177622 268.702865 376.371329 269.077085 376.565035 269.447612 376.758741 269.814394 376.952448 270.177377 377.146154 270.536511 377.339860 270.891741 377.533566 271.243015 377.727273 271.590281 377.920979 271.933486 378.114685 272.272577 378.308392 272.607503 378.502098 272.938209 378.695804 273.264644 378.889510 273.586755 379.083217 273.904489 379.276923 274.217794 379.470629 274.526617 379.664336 274.830905 379.858042 275.130607 380.051748 275.425669 380.245455 275.716038 380.439161 276.001662 380.632867 276.282489 380.826573 276.558466 381.020280 276.829540 381.213986 277.095658 381.407692 277.356768 381.601399 277.612818 381.795105 277.863755 381.988811 278.109525 382.182517 278.350077 382.376224 278.585359 382.569930 278.815316 382.763636 279.039897 382.957343 279.259049 383.151049 279.472720 383.344755 279.680856 383.538462 279.883406 383.732168 280.080316 383.925874 280.271534 384.119580 280.457008 384.313287 280.636685 384.506993 280.810511 384.700699 280.978435 384.894406 281.140405 385.088112 281.296366 385.281818 281.446267 385.475524 281.590056 385.669231 281.727678 385.862937 281.859083 386.056643 281.984217 386.250350 282.103027 386.444056 282.215462 386.637762 282.321468 386.831469 282.420993 387.025175 282.513984 387.218881 282.600388 387.412587 282.680154 387.606294 282.753228 387.800000 282.819557 387.993706 282.879090 388.187413 282.931773 388.381119 282.977554 388.574825 283.016381 388.768531 283.048200 388.962238 283.072959 389.155944 283.090606 389.349650 283.101087 389.543357 283.104351 389.737063 283.100344 389.930769 283.089015 390.124476 283.070309 390.318182 283.044176 390.511888 283.010561 390.705594 282.969413 390.899301 282.920679 391.093007 282.864307 391.286713 282.800243 391.480420 282.728435 391.674126 282.648831 391.867832 282.561377 392.061538 282.466022 392.255245 282.362712 392.448951 282.251396 392.642657 282.132020 392.836364 282.004531 393.030070 281.868878 393.223776 281.725007 393.417483 281.572867 393.611189 281.412403 393.804895 281.243565 393.998601 281.066298 394.192308 280.880551 394.386014 280.686271 394.579720 280.483405 394.773427 280.271901 394.967133 280.051706 395.160839 279.822767 395.354545 279.585033 395.548252 279.338449 395.741958 279.082964 395.935664 278.818525 396.129371 278.545079 396.323077 278.262574 396.516783 277.970957 396.710490 277.670176 396.904196 277.360178 397.097902 277.040910 397.291608 276.712319 397.485315 276.374354 397.679021 276.026961 397.872727 275.670088 398.066434 275.303683 398.260140 274.927711 398.453846 274.542220 398.647552 274.147273 398.841259 273.742937 399.034965 273.329276 399.228671 272.906356 399.422378 272.474242 399.616084 272.033000 399.809790 271.582693 400.003497 271.123389 400.197203 270.655151 400.390909 270.178046 400.584615 269.692137 400.778322 269.197492 400.972028 268.694174 401.165734 268.182249 401.359441 267.661782 401.553147 267.132839 401.746853 266.595485 401.940559 266.049785 402.134266 265.495803 402.327972 264.933606 402.521678 264.363259 402.715385 263.784827 402.909091 263.198374 403.102797 262.603967 403.296503 262.001671 403.490210 261.391550 403.683916 260.773671 403.877622 260.148097 404.071329 259.514895 404.265035 258.874130 404.458741 258.225866 404.652448 257.570170 404.846154 256.907106 405.039860 256.236739 405.233566 255.559135 405.427273 254.874360 405.620979 254.182477 405.814685 253.483553 406.008392 252.777653 406.202098 252.064842 406.395804 251.345185 406.589510 250.618747 406.783217 249.885594 406.976923 249.145791 407.170629 248.399403 407.364336 247.646495 407.558042 246.887133 407.751748 246.121381 407.945455 245.349306 408.139161 244.570971 408.332867 243.786443 408.526573 242.995787 408.720280 242.199068 408.913986 241.396350 409.107692 240.587700 409.301399 239.773183 409.495105 238.952864 409.688811 238.126807 409.882517 237.295079 410.076224 236.457744 410.269930 235.614868 410.463636 234.766516 410.657343 233.912753 410.851049 233.053644 411.044755 232.189255 411.238462 231.319651 411.432168 230.444897 411.625874 229.565058 411.819580 228.680200 412.013287 227.790388 412.206993 226.895686 412.400699 225.996161 412.594406 225.091877 412.788112 224.182900 412.981818 223.269295 413.175524 222.351127 413.369231 221.428461 413.562937 220.501363 413.756643 219.569897 413.950350 218.634130 414.144056 217.694126 414.337762 216.749950 414.531469 215.801668 414.725175 214.849345 414.918881 213.893046 415.112587 212.932836 415.306294 211.968782 415.500000 211.000947 415.693706 210.029397 415.887413 209.054197 416.081119 208.075413 416.274825 207.093109 416.468531 206.107352 416.662238 205.118206 416.855944 204.125736 417.049650 203.130008 417.243357 202.131087 417.437063 201.129038 417.630769 200.123926 417.824476 199.115817 418.018182 198.104775 418.211888 197.090867 418.405594 196.074157 418.599301 195.054710 418.793007 194.032592 418.986713 193.007868 419.180420 191.980603 419.374126 190.950863 419.567832 189.918712 419.761538 188.884216 419.955245 187.847440 420.148951 186.808449 420.342657 185.767309 420.536364 184.724085 420.730070 183.678842 420.923776 182.631644 421.117483 181.582559 421.311189 180.531649 421.504895 179.478982 421.698601 178.424622 421.892308 177.368634 422.086014 176.311084 422.279720 175.252037 422.473427 174.191557 422.667133 173.129711 422.860839 172.066564 423.054545 171.002180 423.248252 169.936625 423.441958 168.869964 423.635664 167.802262 423.829371 166.733585 424.023077 165.663998 424.216783 164.593566 424.410490 163.522355 424.604196 162.450429 424.797902 161.377853 424.991608 160.304694 425.185315 159.231016 425.379021 158.156884 425.572727 157.082364 425.766434 156.007520 425.960140 154.932419 426.153846 153.857125 426.347552 152.781704 426.541259 151.706221 426.734965 150.630740 426.928671 149.555328 427.122378 148.480049 427.316084 147.404969 427.509790 146.330153 427.703497 145.255666 427.897203 144.181574 428.090909 143.107941 428.284615 142.034833 428.478322 140.962315 428.672028 139.890452 428.865734 138.819310 429.059441 137.748953 429.253147 136.679448 429.446853 135.610859 429.640559 134.543251 429.834266 133.476690 430.027972 132.411240 430.221678 131.346968 430.415385 130.283938 430.609091 129.222216 430.802797 128.161866 430.996503 127.102955 431.190210 126.045546 431.383916 124.989707 431.577622 123.935500 431.771329 122.882993 431.965035 121.832250 432.158741 120.783337 432.352448 119.736318 432.546154 118.691258 432.739860 117.648224 432.933566 116.607280 433.127273 115.568492 433.320979 114.531924 433.514685 113.497643 433.708392 112.465712 433.902098 111.436198 434.095804 110.409166 434.289510 109.384681 434.483217 108.362807 434.676923 107.343611 434.870629 106.327158 435.064336 105.313512 435.258042 104.302739 435.451748 103.294905 435.645455 102.290074 435.839161 101.288312 436.032867 100.289683 436.226573 99.294254 436.420280 98.302089 436.613986 97.313254 436.807692 96.327814 437.001399 95.345834 437.195105 94.367379 437.388811 93.392514 437.582517 92.421305 437.776224 91.453818 437.969930 90.490116 438.163636 89.530266 438.357343 88.574332 438.551049 87.622381 438.744755 86.674476 438.938462 85.730684 439.132168 84.791069 439.325874 83.855697 439.519580 82.924633 439.713287 81.997943 439.906993 81.075691 440.100699 80.157942 440.294406 79.244763 440.488112 78.336217 440.681818 77.432371 440.875524 76.533290 441.069231 75.639038 441.262937 74.749682 441.456643 73.865286 441.650350 72.985915 441.844056 72.111635 442.037762 71.242511 442.231469 70.378608 442.425175 69.519992 442.618881 68.666727 442.812587 67.818879 443.006294 66.976513 443.200000 66.139695 443.393706 65.308489 443.587413 64.482961 443.781119 63.663176 443.974825 62.849199 444.168531 62.041096 444.362238 61.238931 444.555944 60.442770 444.749650 59.652679 444.943357 58.868721 445.137063 58.090964 445.330769 57.319471 445.524476 56.554308 445.718182 55.795541 445.911888 55.043234 446.105594 54.297452 446.299301 53.558262 446.493007 52.825728 446.686713 52.099902 446.880420 51.380785 447.074126 50.668362 447.267832 49.962622 447.461538 49.263549 447.655245 48.571133 447.848951 47.885358 448.042657 47.206213 448.236364 46.533683 448.430070 45.867756 448.623776 45.208418 448.817483 44.555656 449.011189 43.909457 449.204895 43.269808 449.398601 42.636696 449.592308 42.010107 449.786014 41.390028 449.979720 40.776446 450.173427 40.169347 450.367133 39.568720 450.560839 38.974549 450.754545 38.386823 450.948252 37.805527 451.141958 37.230649 451.335664 36.662176 451.529371 36.100094 451.723077 35.544390 451.916783 34.995051 452.110490 34.452063 452.304196 33.915414 452.497902 33.385091 452.691608 32.861079 452.885315 32.343366 453.079021 31.831939 453.272727 31.326784 453.466434 30.827889 453.660140 30.335239 453.853846 29.848822 454.047552 29.368625 454.241259 28.894634 454.434965 28.426837 454.628671 27.965219 454.822378 27.509769 455.016084 27.060472 455.209790 26.617315 455.403497 26.180285 455.597203 25.749369 455.790909 25.324555 455.984615 24.905827 456.178322 24.493174 456.372028 24.086582 456.565734 23.686039 456.759441 23.291529 456.953147 22.903042 457.146853 22.520562 457.340559 22.144078 457.534266 21.773576 457.727972 21.409042 457.921678 21.050464 458.115385 20.697828 458.309091 20.351122 458.502797 20.010331 458.696503 19.675443 458.890210 19.346444 459.083916 19.023321 459.277622 18.706062 459.471329 18.394652 459.665035 18.089080 459.858741 17.789330 460.052448 17.495391 460.246154 17.207249 460.439860 16.924890 460.633566 16.648303 460.827273 16.377472 461.020979 16.112386 461.214685 15.853031 461.408392 15.599394 461.602098 15.351461 461.795804 15.109220 461.989510 14.872657 462.183217 14.641759 462.376923 14.416512 462.570629 14.196904 462.764336 13.982922 462.958042 13.774552 463.151748 13.571780 463.345455 13.374595 463.539161 13.182982 463.732867 12.996928 463.926573 12.816420 464.120280 12.641446 464.313986 12.471991 464.507692 12.308042 464.701399 12.149587 464.895105 11.996612 465.088811 11.849104 465.282517 11.707049 465.476224 11.570435 465.669930 11.439248 465.863636 11.313476 466.057343 11.193104 466.251049 11.078120 466.444755 10.968510 466.638462 10.864262 466.832168 10.765361 467.025874 10.671796 467.219580 10.583552 467.413287 10.500616 467.606993 10.422976 467.800699 10.350618 467.994406 10.283528 468.188112 10.221695 468.381818 10.165103 468.575524 10.113741 468.769231 10.067595 468.962937 10.026651 469.156643 9.990897 469.350350 9.960320 469.544056 9.934905 469.737762 9.914641 469.931469 9.899513 470.125175 9.889509 470.318881 9.884615 470.512587 9.884819 470.706294 9.890106 470.900000 9.900464 471.093706 9.915880 471.287413 9.936340 471.481119 9.961831 471.674825 9.992339 471.868531 10.027853 472.062238 10.068358 472.255944 10.113841 472.449650 10.164290 472.643357 10.219690 472.837063 10.280029 473.030769 10.345294 473.224476 10.415471 473.418182 10.490546 473.611888 10.570508 473.805594 10.655342 473.999301 10.745036 474.193007 10.839576 474.386713 10.938949 474.580420 11.043142 474.774126 11.152141 474.967832 11.265934 475.161538 11.384507 475.355245 11.507847 475.548951 11.635941 475.742657 11.768775 475.936364 11.906337 476.130070 12.048613 476.323776 12.195590 476.517483 12.347255 476.711189 12.503594 476.904895 12.664595 477.098601 12.830243 477.292308 13.000527 477.486014 13.175433 477.679720 13.354947 477.873427 13.539056 478.067133 13.727747 478.260839 13.921008 478.454545 14.118824 478.648252 14.321182 478.841958 14.528070 479.035664 14.739474 479.229371 14.955381 479.423077 15.175778 479.616783 15.400651 479.810490 15.629987 480.004196 15.863773 480.197902 16.101997 480.391608 16.344644 480.585315 16.591701 480.779021 16.843155 480.972727 17.098994 481.166434 17.359204 481.360140 17.623771 481.553846 17.892682 481.747552 18.165925 481.941259 18.443486 482.134965 18.725351 482.328671 19.011508 482.522378 19.301944 482.716084 19.596645 482.909790 19.895597 483.103497 20.198789 483.297203 20.506206 483.490909 20.817835 483.684615 21.133664 483.878322 21.453678 484.072028 21.777866 484.265734 22.106213 484.459441 22.438706 484.653147 22.775332 484.846853 23.116078 485.040559 23.460931 485.234266 23.809878 485.427972 24.162905 485.621678 24.519999 485.815385 24.881146 486.009091 25.246335 486.202797 25.615551 486.396503 25.988781 486.590210 26.366012 486.783916 26.747232 486.977622 27.132426 487.171329 27.521581 487.365035 27.914685 487.558741 28.311723 487.752448 28.712684 487.946154 29.117553 488.139860 29.526318 488.333566 29.938964 488.527273 30.355480 488.720979 30.775852 488.914685 31.200066 489.108392 31.628110 489.302098 32.059970 489.495804 32.495633 489.689510 32.935085 489.883217 33.378314 490.076923 33.825307 490.270629 34.276050 490.464336 34.730530 490.658042 35.188733 490.851748 35.650647 491.045455 36.116259 491.239161 36.585554 491.432867 37.058521 491.626573 37.535145 491.820280 38.015414 492.013986 38.499314 492.207692 38.986832 492.401399 39.477956 492.595105 39.972670 492.788811 40.470964 492.982517 40.972822 493.176224 41.478233 493.369930 41.987183 493.563636 42.499658 493.757343 43.015646 493.951049 43.535133 494.144755 44.058106 494.338462 44.584552 494.532168 45.114458 494.725874 45.647810 494.919580 46.184595 495.113287 46.724800 495.306993 47.268412 495.500699 47.815416 495.694406 48.365800 495.888112 48.919548 496.081818 49.476648 496.275524 50.037087 496.469231 50.600849 496.662937 51.167922 496.856643 51.738292 497.050350 52.311945 497.244056 52.888868 497.437762 53.469047 497.631469 54.052468 497.825175 54.639117 498.018881 55.228981 498.212587 55.822047 498.406294 56.418299 498.600000 57.017726 498.793706 57.620313 498.987413 58.226046 499.181119 58.834912 499.374825 59.446897 499.568531 60.061987 499.762238 60.680169 499.955944 61.301429 500.149650 61.925754 500.343357 62.553129 500.537063 63.183541 500.730769 63.816976 500.924476 64.453422 501.118182 65.092863 501.311888 65.735286 501.505594 66.380678 501.699301 67.029025 501.893007 67.680313 502.086713 68.334528 502.280420 68.991658 502.474126 69.651687 502.667832 70.314603 502.861538 70.980392 503.055245 71.649040 503.248951 72.320534 503.442657 72.994859 503.636364 73.672003 503.830070 74.351951 504.023776 75.034689 504.217483 75.720205 504.411189 76.408484 504.604895 77.099513 504.798601 77.793278 504.992308 78.489765 505.186014 79.188961 505.379720 79.890852 505.573427 80.595424 505.767133 81.302664 505.960839 82.012558 506.154545 82.725092 506.348252 83.440252 506.541958 84.158026 506.735664 84.878399 506.929371 85.601357 507.123077 86.326887 507.316783 87.054975 507.510490 87.785608 507.704196 88.518772 507.897902 89.254453 508.091608 89.992637 508.285315 90.733311 508.479021 91.476461 508.672727 92.222074 508.866434 92.970135 509.060140 93.720632 509.253846 94.473549 509.447552 95.228875 509.641259 95.986594 509.834965 96.746694 510.028671 97.509161 510.222378 98.273980 510.416084 99.041139 510.609790 99.810624 510.803497 100.582420 510.997203 101.356515 511.190909 102.132894 511.384615 102.911544 511.578322 103.692451 511.772028 104.475602 511.965734 105.260983 512.159441 106.048580 512.353147 106.838380 512.546853 107.630368 512.740559 108.424531 512.934266 109.220856 513.127972 110.019329 513.321678 110.819936 513.515385 111.622663 513.709091 112.427497 513.902797 113.234424 514.096503 114.043430 514.290210 114.854502 514.483916 115.667626 514.677622 116.482789 514.871329 117.299976 515.065035 118.119174 515.258741 118.940369 515.452448 119.763548 515.646154 120.588697 515.839860 121.415803 516.033566 122.244850 516.227273 123.075827 516.420979 123.908719 516.614685 124.743512 516.808392 125.580194 517.002098 126.418749 517.195804 127.259165 517.389510 128.101428 517.583217 128.945524 517.776923 129.791439 517.970629 130.639160 518.164336 131.488674 518.358042 132.339965 518.551748 133.193022 518.745455 134.047829 518.939161 134.904374 519.132867 135.762643 519.326573 136.622621 519.520280 137.484296 519.713986 138.347654 519.907692 139.212680 520.101399 140.079362 520.295105 140.947686 520.488811 141.817637 520.682517 142.689203 520.876224 143.562369 521.069930 144.437122 521.263636 145.313449 521.457343 146.191334 521.651049 147.070766 521.844755 147.951730 522.038462 148.834213 522.232168 149.718200 522.425874 150.603678 522.619580 151.490634 522.813287 152.379054 523.006993 153.268923 523.200699 154.160229 523.394406 155.052958 523.588112 155.947096 523.781818 156.842629 523.975524 157.739544 524.169231 158.637827 524.362937 159.537465 524.556643 160.438443 524.750350 161.340748 524.944056 162.244366 525.137762 163.149284 525.331469 164.055487 525.525175 164.962964 525.718881 165.871698 525.912587 166.781678 526.106294 167.692888 526.300000 168.605317 526.493706 169.518949 526.687413 170.433771 526.881119 171.349770 527.074825 172.266931 527.268531 173.185242 527.462238 174.104688 527.655944 175.025256 527.849650 175.946932 528.043357 176.869703 528.237063 177.793554 528.430769 178.718472 528.624476 179.644444 528.818182 180.571455 529.011888 181.499492 529.205594 182.428542 529.399301 183.358590 529.593007 184.289623 529.786713 185.221628 529.980420 186.154590 530.174126 187.088496 530.367832 188.023332 530.561538 188.959085 530.755245 189.895741 530.948951 190.833286 531.142657 191.771707 531.336364 192.710989 531.530070 193.651119 531.723776 194.592085 531.917483 195.533870 532.111189 196.476463 532.304895 197.419850 532.498601 198.364016 532.692308 199.308948 532.886014 200.254633 533.079720 201.201056 533.273427 202.148205 533.467133 203.096065 533.660839 204.044622 533.854545 204.993864 534.048252 205.943775 534.241958 206.894344 534.435664 207.845555 534.629371 208.797396 534.823077 209.749852 535.016783 210.702911 535.210490 211.656557 535.404196 212.610778 535.597902 213.565560 535.791608 214.520889 535.985315 215.476752 536.179021 216.433135 536.372727 217.390023 536.566434 218.347405 536.760140 219.305265 536.953846 220.263590 537.147552 221.222366 537.341259 222.181581 537.534965 223.141219 537.728671 224.101268 537.922378 225.061713 538.116084 226.022542 538.309790 226.983740 538.503497 227.945294 538.697203 228.907189 538.890909 229.869413 539.084615 230.831952 539.278322 231.794791 539.472028 232.757918 539.665734 233.721319 539.859441 234.684979 540.053147 235.648886 540.246853 236.613025 540.440559 237.577383 540.634266 238.541946 540.827972 239.506701 541.021678 240.471634 541.215385 241.436730 541.409091 242.401978 541.602797 243.367362 541.796503 244.332869 541.990210 245.298486 542.183916 246.264198 542.377622 247.229993 542.571329 248.195855 542.765035 249.161773 542.958741 250.127732 543.152448 251.093718 543.346154 252.059717 543.346154 514.000000" /></g></g><g class="titles"><text class="title plot_title" x="400.0" y="26">Victory-Monument 50</text></g><g class="plot overlay" transform="translate(226, 46)"><g class="series serie-0 color-0"><g class="dots"><circle class="dot reactive tooltip-trigger" cx="10.653846153846153" cy="245.41858436214653" r="2.5" /><desc class="value">772000</desc><desc class="x ">10.653846153846153</desc><desc class="y ">245.41858436214653</desc><desc class="x_label">Jan</desc></g><g class="dots"><circle class="dot reactive tooltip-trigger" cx="59.08041958041958" cy="351.6767119941311" r="2.5" /><desc class="value">740000</desc><desc class="x top">59.08041958041958</desc><desc class="y top">351.6767119941311</desc><desc class="x_label">Feb</desc></g><g class="dots"><circle class="dot reactive tooltip-trigger" cx="107.506993006993" cy="19.620063144179312" r="2.5" /><desc class="value">840000</desc><desc class="x ">107.506993006993</desc><desc class="y ">19.620063144179312</desc><desc class="x_label">Mar</desc></g><g class="dots"><circle class="dot reactive tooltip-trigger" cx="155.93356643356643" cy="481.1788050456123" r="2.5" /><desc class="value">701000</desc><desc class="x top">155.93356643356643</desc><desc class="y top">481.1788050456123</desc><desc class="x_label">Apr</desc></g><g class="dots"><circle class="dot reactive tooltip-trigger" cx="204.36013986013987" cy="295.22708168963936" r="2.5" /><desc class="value">757000</desc><desc class="x top">204.36013986013987</desc><desc class="y top">295.22708168963936</desc><desc class="x_label">May</desc></g><g class="dots"><circle class="dot reactive tooltip-trigger" cx="252.78671328671325" cy="165.72498863815815" r="2.5" /><desc class="value">796000</desc><desc class="x ">252.78671328671325</desc><desc class="y ">165.72498863815815</desc><desc class="x_label">Jun</desc></g><g class="dots"><circle class="dot reactive tooltip-trigger" cx="301.2132867132867" cy="175.6866881036567" r="2.5" /><desc class="value">793000</desc><desc class="x left">301.2132867132867</desc><desc class="y left">175.6866881036567</desc><desc class="x_label">Jul</desc></g><g class="dots"><circle class="dot reactive tooltip-trigger" cx="349.6398601398601" cy="205.5717865001523" r="2.5" /><desc class="value">784000</desc><desc class="x left">349.6398601398601</desc><desc class="y left">205.5717865001523</desc><desc class="x_label">Aug</desc></g><g class="dots"><circle class="dot reactive tooltip-trigger" cx="398.06643356643355" cy="275.30368275864225" r="2.5" /><desc class="value">763000</desc><desc class="x left top">398.06643356643355</desc><desc class="y left top">275.30368275864225</desc><desc class="x_label">Sep</desc></g><g class="dots"><circle class="dot reactive tooltip-trigger" cx="446.493006993007" cy="52.825728029174456" r="2.5" /><desc class="value">830000</desc><desc class="x left">446.493006993007</desc><desc class="y left">52.825728029174456</desc><desc class="x_label">Oct</desc></g><g class="dots"><circle class="dot reactive tooltip-trigger" cx="494.9195804195804" cy="46.18459505217544" r="2.5" /><desc class="value">832000</desc><desc class="x left">494.9195804195804</desc><desc class="y left">46.18459505217544</desc><desc class="x_label">Nov</desc></g><g class="dots"><circle class="dot reactive tooltip-trigger" cx="543.3461538461538" cy="252.0597173391456" r="2.5" /><desc class="value">770000</desc><desc class="x left">543.3461538461538</desc><desc class="y left">252.0597173391456</desc><desc class="x_label">Dec</desc></g></g></g><g class="plot text-overlay" transform="translate(226, 46)"><g class="series serie-0 color-0" /></g><g class="plot tooltip-overlay" transform="translate(226, 46)"><g class="tooltip" style="opacity: 0" transform="translate(0 0)"><rect class="tooltip-box" height="0" rx="0" ry="0" width="0" /><g class="text" /></g></g><g class="legends" transform="translate(10, 56)"><g class="legend reactive activate-serie" id="activate-serie-0"><rect class="color-0 reactive" height="12" width="12" x="0.0" y="1.0" /><text x="17.0" y="11.2">Victory-Monume…</text><title>Victory-Monument</title></g></g><g class="legends" transform="translate(790, 56)" /></g></svg>