<?xml version='1.0' encoding='utf-8'?>
<svg xmlns:xlink="http://www.w3.org/1999/xlink" class="pygal-chart" id="chart-305ed68d-f2a1-4403-af2d-050273c4548d" viewBox="0 0 800 600" xmlns="http://www.w3.org/2000/svg"><!--Generated with pygal 2.0.11 (etree) ©Kozea 2011-2015 on 2015-12-10--><!--http://pygal.org--><!--http://github.com/Kozea/pygal--><defs><style type="text/css">#chart-305ed68d-f2a1-4403-af2d-050273c4548d{-webkit-user-select:none;-webkit-font-smoothing:antialiased;font-family:Consolas,"Liberation Mono",Menlo,Courier,monospace}#chart-305ed68d-f2a1-4403-af2d-050273c4548d .title{font-family:Consolas,"Liberation Mono",Menlo,Courier,monospace;font-size:16px}#chart-305ed68d-f2a1-4403-af2d-050273c4548d .legends .legend text{font-family:Consolas,"Liberation Mono",Menlo,Courier,monospace;font-size:14px}#chart-305ed68d-f2a1-4403-af2d-050273c4548d .axis text{font-family:Consolas,"Liberation Mono",Menlo,Courier,monospace;font-size:10px}#chart-305ed68d-f2a1-4403-af2d-050273c4548d .axis text.major{font-family:Consolas,"Liberation Mono",Menlo,Courier,monospace;font-size:10px}#chart-305ed68d-f2a1-4403-af2d-050273c4548d .text-overlay text.value{font-family:Consolas,"Liberation Mono",Menlo,Courier,monospace;font-size:16px}#chart-305ed68d-f2a1-4403-af2d-050273c4548d .text-overlay text.label{font-family:Consolas,"Liberation Mono",Menlo,Courier,monospace;font-size:10px}#chart-305ed68d-f2a1-4403-af2d-050273c4548d .tooltip{font-family:Consolas,"Liberation Mono",Menlo,Courier,monospace;font-size:14px}#chart-305ed68d-f2a1-4403-af2d-050273c4548d text.no_data{font-family:Consolas,"Liberation Mono",Menlo,Courier,monospace;font-size:64px}
#chart-305ed68d-f2a1-4403-af2d-050273c4548d{background-color:black}#chart-305ed68d-f2a1-4403-af2d-050273c4548d path,#chart-305ed68d-f2a1-4403-af2d-050273c4548d line,#chart-305ed68d-f2a1-4403-af2d-050273c4548d rect,#chart-305ed68d-f2a1-4403-af2d-050273c4548d circle{-webkit-transition:250ms;-moz-transition:250ms;transition:250ms}#chart-305ed68d-f2a1-4403-af2d-050273c4548d .graph &gt; .background{fill:black}#chart-305ed68d-f2a1-4403-af2d-050273c4548d .plot &gt; .background{fill:#111}#chart-305ed68d-f2a1-4403-af2d-050273c4548d .graph{fill:#999}#chart-305ed68d-f2a1-4403-af2d-050273c4548d text.no_data{fill:#eee}#chart-305ed68d-f2a1-4403-af2d-050273c4548d .title{fill:#eee}#chart-305ed68d-f2a1-4403-af2d-050273c4548d .legends .legend text{fill:#999}#chart-305ed68d-f2a1-4403-af2d-050273c4548d .legends .legend:hover text{fill:#eee}#chart-305ed68d-f2a1-4403-af2d-050273c4548d .axis .line{stroke:#eee}#chart-305ed68d-f2a1-4403-af2d-050273c4548d .axis .guide.line{stroke:#555}#chart-305ed68d-f2a1-4403-af2d-050273c4548d .axis .major.line{stroke:#999}#chart-305ed68d-f2a1-4403-af2d-050273c4548d .axis text.major{fill:#eee}#chart-305ed68d-f2a1-4403-af2d-050273c4548d .axis.y .guides:hover .guide.line,#chart-305ed68d-f2a1-4403-af2d-050273c4548d .line-graph .axis.x .guides:hover .guide.line,#chart-305ed68d-f2a1-4403-af2d-050273c4548d .stackedline-graph .axis.x .guides:hover .guide.line,#chart-305ed68d-f2a1-4403-af2d-050273c4548d .xy-graph .axis.x .guides:hover .guide.line{stroke:#eee}#chart-305ed68d-f2a1-4403-af2d-050273c4548d .axis .guides:hover text{fill:#eee}#chart-305ed68d-f2a1-4403-af2d-050273c4548d .reactive{fill-opacity:.8}#chart-305ed68d-f2a1-4403-af2d-050273c4548d .reactive.active,#chart-305ed68d-f2a1-4403-af2d-050273c4548d .active .reactive{fill-opacity:.4;stroke-width:4}#chart-305ed68d-f2a1-4403-af2d-050273c4548d .series text{fill:#eee}#chart-305ed68d-f2a1-4403-af2d-050273c4548d .tooltip rect{fill:#111;stroke:#eee;-webkit-transition:opacity 250ms;-moz-transition:opacity 250ms;transition:opacity 250ms}#chart-305ed68d-f2a1-4403-af2d-050273c4548d .tooltip .label{fill:#999}#chart-305ed68d-f2a1-4403-af2d-050273c4548d .tooltip .label{fill:#999}#chart-305ed68d-f2a1-4403-af2d-050273c4548d .tooltip .legend{font-size:.8em;fill:#555}#chart-305ed68d-f2a1-4403-af2d-050273c4548d .tooltip .x_label{font-size:.6em;fill:#eee}#chart-305ed68d-f2a1-4403-af2d-050273c4548d .tooltip .xlink{font-size:.5em;text-decoration:underline}#chart-305ed68d-f2a1-4403-af2d-050273c4548d .tooltip .value{font-size:1.5em}#chart-305ed68d-f2a1-4403-af2d-050273c4548d .map-element{fill:#111;stroke:#555 !important}#chart-305ed68d-f2a1-4403-af2d-050273c4548d .map-element .reactive{fill-opacity:inherit}#chart-305ed68d-f2a1-4403-af2d-050273c4548d .color-0,#chart-305ed68d-f2a1-4403-af2d-050273c4548d .color-0 a:visited{stroke:#ff5995;fill:#ff5995}#chart-305ed68d-f2a1-4403-af2d-050273c4548d .text-overlay .color-0 text{fill:black}
#chart-305ed68d-f2a1-4403-af2d-050273c4548d text.no_data{text-anchor:middle}#chart-305ed68d-f2a1-4403-af2d-050273c4548d .guide.line{fill:none}#chart-305ed68d-f2a1-4403-af2d-050273c4548d .centered{text-anchor:middle}#chart-305ed68d-f2a1-4403-af2d-050273c4548d .title{text-anchor:middle}#chart-305ed68d-f2a1-4403-af2d-050273c4548d .legends .legend text{fill-opacity:1}#chart-305ed68d-f2a1-4403-af2d-050273c4548d .axis.x text{text-anchor:middle}#chart-305ed68d-f2a1-4403-af2d-050273c4548d .axis.x:not(.web) text[transform]{text-anchor:start}#chart-305ed68d-f2a1-4403-af2d-050273c4548d .axis.x:not(.web) text[transform].backwards{text-anchor:end}#chart-305ed68d-f2a1-4403-af2d-050273c4548d .axis.y text{text-anchor:end}#chart-305ed68d-f2a1-4403-af2d-050273c4548d .axis.y text[transform].backwards{text-anchor:start}#chart-305ed68d-f2a1-4403-af2d-050273c4548d .axis.y2 text{text-anchor:start}#chart-305ed68d-f2a1-4403-af2d-050273c4548d .axis.y2 text[transform].backwards{text-anchor:end}#chart-305ed68d-f2a1-4403-af2d-050273c4548d .axis .guide.line{stroke-dasharray:4,4}#chart-305ed68d-f2a1-4403-af2d-050273c4548d .axis .major.guide.line{stroke-dasharray:6,6}#chart-305ed68d-f2a1-4403-af2d-050273c4548d .horizontal .axis.y .guide.line,#chart-305ed68d-f2a1-4403-af2d-050273c4548d .horizontal .axis.y2 .guide.line,#chart-305ed68d-f2a1-4403-af2d-050273c4548d .vertical .axis.x .guide.line{opacity:0}#chart-305ed68d-f2a1-4403-af2d-050273c4548d .horizontal .axis.always_show .guide.line,#chart-305ed68d-f2a1-4403-af2d-050273c4548d .vertical .axis.always_show .guide.line{opacity:1 !important}#chart-305ed68d-f2a1-4403-af2d-050273c4548d .axis.y .guides:hover .guide.line,#chart-305ed68d-f2a1-4403-af2d-050273c4548d .axis.y2 .guides:hover .guide.line,#chart-305ed68d-f2a1-4403-af2d-050273c4548d .axis.x .guides:hover .guide.line{opacity:1}#chart-305ed68d-f2a1-4403-af2d-050273c4548d .axis .guides:hover text{opacity:1}#chart-305ed68d-f2a1-4403-af2d-050273c4548d .nofill{fill:none}#chart-305ed68d-f2a1-4403-af2d-050273c4548d .subtle-fill{fill-opacity:.2}#chart-305ed68d-f2a1-4403-af2d-050273c4548d .dot{stroke-width:1px;fill-opacity:1}#chart-305ed68d-f2a1-4403-af2d-050273c4548d .dot.active{stroke-width:5px}#chart-305ed68d-f2a1-4403-af2d-050273c4548d .dot.negative{fill:transparent}#chart-305ed68d-f2a1-4403-af2d-050273c4548d text,#chart-305ed68d-f2a1-4403-af2d-050273c4548d tspan{stroke:none !important}#chart-305ed68d-f2a1-4403-af2d-050273c4548d .series text.active{opacity:1}#chart-305ed68d-f2a1-4403-af2d-050273c4548d .tooltip rect{fill-opacity:.95;stroke-width:.5}#chart-305ed68d-f2a1-4403-af2d-050273c4548d .tooltip text{fill-opacity:1}#chart-305ed68d-f2a1-4403-af2d-050273c4548d .showable{visibility:hidden}#chart-305ed68d-f2a1-4403-af2d-050273c4548d .showable.shown{visibility:visible}</style><script type="text/javascript">window.pygal = window.pygal || {};window.pygal.config = window.pygal.config || {};window.pygal.config['305ed68d-f2a1-4403-af2d-050273c4548d'] = {"value_formatter": null, "stroke_style": null, "show_minor_y_labels": true, "truncate_label": null, "explicit_size": false, "x_labels_major_every": null, "margin_right": null, "height": 600, "max_scale": 16, "x_labels_major_count": null, "logarithmic": false, "show_only_major_dots": false, "y_labels_major_count": null, "title": "Chit-Lom 53", "force_uri_protocol": null, "width": 800, "x_value_formatter": null, "half_pie": false, "show_x_guides": false, "style": {"background": "black", "major_guide_stroke_dasharray": "6,6", "no_data_font_size": 64, "no_data_font_family": "Consolas, \"Liberation Mono\", Menlo, Courier, monospace", "value_label_font_family": "Consolas, \"Liberation Mono\", Menlo, Courier, monospace", "value_font_size": 16, "legend_font_size": 14, "transition": "250ms", "value_colors": [], "foreground": "#999", "opacity_hover": ".4", "label_font_family": "Consolas, \"Liberation Mono\", Menlo, Courier, monospace", "major_label_font_size": 10, "opacity": ".8", "major_label_font_family": "Consolas, \"Liberation Mono\", Menlo, Courier, monospace", "tooltip_font_family": "Consolas, \"Liberation Mono\", Menlo, Courier, monospace", "font_family": "Consolas, \"Liberation Mono\", Menlo, Courier, monospace", "value_font_family": "Consolas, \"Liberation Mono\", Menlo, Courier, monospace", "colors": ["#ff5995", "#b6e354", "#feed6c", "#8cedff", "#9e6ffe", "#899ca1", "#f8f8f2", "#bf4646", "#516083", "#f92672", "#82b414", "#fd971f", "#56c2d6", "#808384", "#8c54fe", "#465457"], "title_font_size": 16, "foreground_subtle": "#555", "legend_font_family": "Consolas, \"Liberation Mono\", Menlo, Courier, monospace", "plot_background": "#111", "guide_stroke_dasharray": "4,4", "tooltip_font_size": 14, "foreground_strong": "#eee", "label_font_size": 10, "value_label_font_size": 10, "title_font_family": "Consolas, \"Liberation Mono\", Menlo, Courier, monospace"}, "include_x_axis": false, "stroke": true, "interpolation_precision": 250, "inverse_y_axis": false, "js": ["//kozea.github.io/pygal.js/2.0.x/pygal-tooltips.min.js"], "human_readable": false, "y_labels": null, "missing_value_fill_truncation": "x", "no_prefix": false, "disable_xml_declaration": false, "show_y_guides": true, "no_data_text": "No data", "margin": 20, "show_legend": true, "print_zeroes": true, "spacing": 10, "legend_box_size": 12, "tooltip_border_radius": 0, "legends": ["Chit-Lom"], "y_label_rotation": 0, "order_min": null, "min_scale": 4, "y_labels_major": null, "secondary_range": null, "x_title": null, "show_x_labels": true, "defs": [], "y_title": null, "x_labels": ["Jan", "Feb", "Mar", "Apr", "May", "Jun", "Jul", "Aug", "Sep", "Oct", "Nov", "Dec"], "stack_from_top": false, "print_values": false, "truncate_legend": null, "x_labels_major": null, "css": ["file://style.css", "file://graph.css"], "dots_size": 2.5, "show_y_labels": true, "interpolate": "cubic", "margin_left": null, "print_labels": false, "y_labels_major_every": null, "margin_top": null, "show_minor_x_labels": true, "legend_at_bottom_columns": null, "fill": true, "xrange": null, "strict": false, "zero": 0, "tooltip_fancy_mode": true, "interpolation_parameters": {}, "x_label_rotation": 0, "show_dots": true, "legend_at_bottom": false, "inner_radius": 0, "rounded_bars": null, "range": null, "margin_bottom": null, "box_mode": "extremes", "dynamic_print_values": false, "pretty_print": false}</script><script type="text/javascript" xlink:href="//kozea.github.io/pygal.js/2.0.x/pygal-tooltips.min.js" /></defs><title>Chit-Lom 53</title><g class="graph line-graph vertical"><rect class="background" height="600" width="800" x="0" y="0" /><g class="plot" transform="translate(167, 46)"><rect class="background" height="514" width="612.8" x="0" y="0" /><g class="axis y"><path class="line" d="M0.000000 514.000000 h612.800000" /><g class="guides"><path class="guide line" d="M0.000000 449.344103 h612.800000" /><text class="" x="-5" y="452.84410331406184">300000.0</text><title>300000.0</title></g><g class="guides"><path class="guide line" d="M0.000000 344.490199 h612.800000" /><text class="" x="-5" y="347.9901993997645">400000.0</text><title>400000.0</title></g><g class="guides"><path class="major guide line" d="M0.000000 239.636295 h612.800000" /><text class="major" x="-5" y="243.13629548546714">500000.0</text><title>500000.0</title></g><g class="guides"><path class="guide line" d="M0.000000 134.782392 h612.800000" /><text class="" x="-5" y="138.2823915711698">600000.0</text><title>600000.0</title></g><g class="guides"><path class="guide line" d="M0.000000 29.928488 h612.800000" /><text class="" x="-5" y="33.42848765687245">700000.0</text><title>700000.0</title></g></g><g class="axis x"><g class="guides"><path class="line" d="M11.784615 0.000000 v514.000000" /><text class="" x="11.784615384615384" y="529.0">Jan</text></g><g class="guides"><path class="guide line" d="M65.351049 0.000000 v514.000000" /><text class="" x="65.35104895104894" y="529.0">Feb</text></g><g class="guides"><path class="guide line" d="M118.917483 0.000000 v514.000000" /><text class="" x="118.9174825174825" y="529.0">Mar</text></g><g class="guides"><path class="guide line" d="M172.483916 0.000000 v514.000000" /><text class="" x="172.48391608391609" y="529.0">Apr</text></g><g class="guides"><path class="guide line" d="M226.050350 0.000000 v514.000000" /><text class="" x="226.05034965034966" y="529.0">May</text></g><g class="guides"><path class="guide line" d="M279.616783 0.000000 v514.000000" /><text class="" x="279.6167832167832" y="529.0">Jun</text></g><g class="guides"><path class="guide line" d="M333.183217 0.000000 v514.000000" /><text class="" x="333.1832167832167" y="529.0">Jul</text></g><g class="guides"><path class="guide line" d="M386.749650 0.000000 v514.000000" /><text class="" x="386.74965034965027" y="529.0">Aug</text></g><g class="guides"><path class="guide line" d="M440.316084 0.000000 v514.000000" /><text class="" x="440.31608391608387" y="529.0">Sep</text></g><g class="guides"><path class="guide line" d="M493.882517 0.000000 v514.000000" /><text class="" x="493.8825174825174" y="529.0">Oct</text></g><g class="guides"><path class="guide line" d="M547.448951 0.000000 v514.000000" /><text class="" x="547.448951048951" y="529.0">Nov</text></g><g class="guides"><path class="guide line" d="M601.015385 0.000000 v514.000000" /><text class="" x="601.0153846153845" y="529.0">Dec</text></g></g><g class="series serie-0 color-0"><path class="line reactive" d="M11.784615 514.000000 L11.784615 54.920416 11.998881 55.126930 12.213147 55.333431 12.427413 55.539904 12.641678 55.746334 12.855944 55.952709 13.070210 56.159014 13.284476 56.365235 13.498741 56.571358 13.713007 56.777369 13.927273 56.983254 14.141538 57.189000 14.355804 57.394591 14.570070 57.600015 14.784336 57.805257 14.998601 58.010303 15.212867 58.215139 15.427133 58.419752 15.641399 58.624127 15.855664 58.828250 16.069930 59.032107 16.284196 59.235685 16.498462 59.438968 16.712727 59.641945 16.926993 59.844599 17.141259 60.046918 17.355524 60.248887 17.569790 60.450493 17.784056 60.651721 17.998322 60.852557 18.212587 61.052988 18.426853 61.252999 18.641119 61.452577 18.855385 61.651707 19.069650 61.850376 19.283916 62.048569 19.498182 62.246273 19.712448 62.443473 19.926713 62.640155 20.140979 62.836306 20.355245 63.031912 20.569510 63.226958 20.783776 63.421431 20.998042 63.615317 21.212308 63.808601 21.426573 64.001270 21.640839 64.193309 21.855105 64.384705 22.069371 64.575444 22.283636 64.765511 22.497902 64.954893 22.712168 65.143576 22.926434 65.331545 23.140699 65.518788 23.354965 65.705289 23.569231 65.891035 23.783497 66.076011 23.997762 66.260204 24.212028 66.443601 24.426294 66.626186 24.640559 66.807945 24.854825 66.988866 25.069091 67.168934 25.283357 67.348134 25.497622 67.526453 25.711888 67.703878 25.926154 67.880393 26.140420 68.055985 26.354685 68.230640 26.568951 68.404344 26.783217 68.577083 26.997483 68.748843 27.211748 68.919610 27.426014 69.089370 27.640280 69.258109 27.854545 69.425814 28.068811 69.592469 28.283077 69.758061 28.497343 69.922576 28.711608 70.086001 28.925874 70.248321 29.140140 70.409521 29.354406 70.569589 29.568671 70.728510 29.782937 70.886271 29.997203 71.042856 30.211469 71.198253 30.425734 71.352447 30.640000 71.505424 30.854266 71.657170 31.068531 71.807672 31.282797 71.956915 31.497063 72.104885 31.711329 72.251569 31.925594 72.396952 32.139860 72.541020 32.354126 72.683760 32.568392 72.825157 32.782657 72.965197 32.996923 73.103867 33.211189 73.241152 33.425455 73.377038 33.639720 73.511512 33.853986 73.644560 34.068252 73.776167 34.282517 73.906319 34.496783 74.035003 34.711049 74.162205 34.925315 74.287910 35.139580 74.412104 35.353846 74.534774 35.568112 74.655906 35.782378 74.775485 35.996643 74.893498 36.210909 75.009930 36.425175 75.124768 36.639441 75.237998 36.853706 75.349605 37.067972 75.459576 37.282238 75.567897 37.496503 75.674553 37.710769 75.779531 37.925035 75.882817 38.139301 75.984396 38.353566 76.084256 38.567832 76.182381 38.782098 76.278758 38.996364 76.373372 39.210629 76.466211 39.424895 76.557259 39.639161 76.646503 39.853427 76.733929 40.067692 76.819523 40.281958 76.903270 40.496224 76.985158 40.710490 77.065171 40.924755 77.143297 41.139021 77.219520 41.353287 77.293828 41.567552 77.366205 41.781818 77.436638 41.996084 77.505113 42.210350 77.571617 42.424615 77.636134 42.638881 77.698651 42.853147 77.759155 43.067413 77.817630 43.281678 77.874064 43.495944 77.928441 43.710210 77.980749 43.924476 78.030973 44.138741 78.079099 44.353007 78.125113 44.567273 78.169001 44.781538 78.210750 44.995804 78.250344 45.210070 78.287771 45.424336 78.323016 45.638601 78.356066 45.852867 78.386905 46.067133 78.415521 46.281399 78.441899 46.495664 78.466026 46.709930 78.487886 46.924196 78.507468 47.138462 78.524755 47.352727 78.539735 47.566993 78.552393 47.781259 78.562715 47.995524 78.570688 48.209790 78.576298 48.424056 78.579529 48.638322 78.580369 48.852587 78.578804 49.066853 78.574819 49.281119 78.568401 49.495385 78.559535 49.709650 78.548207 49.923916 78.534404 50.138182 78.518112 50.352448 78.499316 50.566713 78.478003 50.780979 78.454158 50.995245 78.427768 51.209510 78.398819 51.423776 78.367296 51.638042 78.333185 51.852308 78.296474 52.066573 78.257147 52.280839 78.215191 52.495105 78.170591 52.709371 78.123334 52.923636 78.073406 53.137902 78.020793 53.352168 77.965480 53.566434 77.907454 53.780699 77.846701 53.994965 77.783207 54.209231 77.716958 54.423497 77.647939 54.637762 77.576137 54.852028 77.501538 55.066294 77.424128 55.280559 77.343893 55.494825 77.260818 55.709091 77.174891 55.923357 77.086096 56.137622 76.994421 56.351888 76.899850 56.566154 76.802371 56.780420 76.701968 56.994685 76.598628 57.208951 76.492337 57.423217 76.383082 57.637483 76.270847 57.851748 76.155620 58.066014 76.037385 58.280280 75.916130 58.494545 75.791839 58.708811 75.664500 58.923077 75.534098 59.137343 75.400619 59.351608 75.264049 59.565874 75.124374 59.780140 74.981581 59.994406 74.835655 60.208671 74.686581 60.422937 74.534348 60.637203 74.378939 60.851469 74.220342 61.065734 74.058541 61.280000 73.893525 61.494266 73.725277 61.708531 73.553785 61.922797 73.379034 62.137063 73.201010 62.351329 73.019700 62.565594 72.835089 62.779860 72.647164 62.994126 72.455909 63.208392 72.261313 63.422657 72.063359 63.636923 71.862035 63.851189 71.657327 64.065455 71.449220 64.279720 71.237701 64.493986 71.022755 64.708252 70.804368 64.922517 70.582527 65.136783 70.357218 65.351049 70.128426 65.565315 69.896148 65.779580 69.660426 65.993846 69.421311 66.208112 69.178853 66.422378 68.933105 66.636643 68.684119 66.850909 68.431945 67.065175 68.176636 67.279441 67.918243 67.493706 67.656817 67.707972 67.392410 67.922238 67.125074 68.136503 66.854860 68.350769 66.581820 68.565035 66.306004 68.779301 66.027466 68.993566 65.746256 69.207832 65.462425 69.422098 65.176026 69.636364 64.887110 69.850629 64.595729 70.064895 64.301933 70.279161 64.005775 70.493427 63.707306 70.707692 63.406578 70.921958 63.103642 71.136224 62.798549 71.350490 62.491352 71.564755 62.182102 71.779021 61.870850 71.993287 61.557648 72.207552 61.242548 72.421818 60.925601 72.636084 60.606858 72.850350 60.286371 73.064615 59.964192 73.278881 59.640372 73.493147 59.314963 73.707413 58.988016 73.921678 58.659583 74.135944 58.329716 74.350210 57.998465 74.564476 57.665883 74.778741 57.332020 74.993007 56.996930 75.207273 56.660662 75.421538 56.323269 75.635804 55.984803 75.850070 55.645314 76.064336 55.304854 76.278601 54.963475 76.492867 54.621229 76.707133 54.278166 76.921399 53.934339 77.135664 53.589799 77.349930 53.244598 77.564196 52.898786 77.778462 52.552417 77.992727 52.205540 78.206993 51.858209 78.421259 51.510473 78.635524 51.162385 78.849790 50.813997 79.064056 50.465360 79.278322 50.116525 79.492587 49.767544 79.706853 49.418469 79.921119 49.069351 80.135385 48.720241 80.349650 48.371192 80.563916 48.022254 80.778182 47.673480 80.992448 47.324921 81.206713 46.976628 81.420979 46.628653 81.635245 46.281047 81.849510 45.933862 82.063776 45.587150 82.278042 45.240962 82.492308 44.895350 82.706573 44.550365 82.920839 44.206058 83.135105 43.862482 83.349371 43.519688 83.563636 43.177727 83.777902 42.836651 83.992168 42.496512 84.206434 42.157360 84.420699 41.819249 84.634965 41.482228 84.849231 41.146350 85.063497 40.811666 85.277762 40.478228 85.492028 40.146087 85.706294 39.815295 85.920559 39.485903 86.134825 39.157963 86.349091 38.831527 86.563357 38.506646 86.777622 38.183371 86.991888 37.861755 87.206154 37.541848 87.420420 37.223702 87.634685 36.907369 87.848951 36.592900 88.063217 36.280348 88.277483 35.969762 88.491748 35.661196 88.706014 35.354699 88.920280 35.050325 89.134545 34.748125 89.348811 34.448150 89.563077 34.150451 89.777343 33.855080 89.991608 33.562090 90.205874 33.271530 90.420140 32.983453 90.634406 32.697911 90.848671 32.414955 91.062937 32.134636 91.277203 31.857006 91.491469 31.582117 91.705734 31.310020 91.920000 31.040766 92.134266 30.774408 92.348531 30.510996 92.562797 30.250583 92.777063 29.993220 92.991329 29.738958 93.205594 29.487848 93.419860 29.239944 93.634126 28.995295 93.848392 28.753954 94.062657 28.515972 94.276923 28.281401 94.491189 28.050292 94.705455 27.822696 94.919720 27.598666 95.133986 27.378253 95.348252 27.161508 95.562517 26.948483 95.776783 26.739230 95.991049 26.533799 96.205315 26.332243 96.419580 26.134614 96.633846 25.940962 96.848112 25.751339 97.062378 25.565796 97.276643 25.384387 97.490909 25.207161 97.705175 25.034170 97.919441 24.865466 98.133706 24.701101 98.347972 24.541126 98.562238 24.385592 98.776503 24.234551 98.990769 24.088056 99.205035 23.946156 99.419301 23.808904 99.633566 23.676351 99.847832 23.548549 100.062098 23.425550 100.276364 23.307404 100.490629 23.194164 100.704895 23.085881 100.919161 22.982607 101.133427 22.884393 101.347692 22.791290 101.561958 22.703350 101.776224 22.620626 101.990490 22.543167 102.204755 22.471027 102.419021 22.404255 102.633287 22.342905 102.847552 22.287027 103.061818 22.236673 103.276084 22.191895 103.490350 22.152744 103.704615 22.119271 103.918881 22.091529 104.133147 22.069569 104.347413 22.053441 104.561678 22.043199 104.775944 22.038893 104.990210 22.040575 105.204476 22.048296 105.418741 22.062109 105.633007 22.082063 105.847273 22.108213 106.061538 22.140607 106.275804 22.179299 106.490070 22.224340 106.704336 22.275781 106.918601 22.333674 107.132867 22.398070 107.347133 22.469021 107.561399 22.546578 107.775664 22.630794 107.989930 22.721719 108.204196 22.819405 108.418462 22.923904 108.632727 23.035268 108.846993 23.153546 109.061259 23.278793 109.275524 23.411058 109.489790 23.550393 109.704056 23.696850 109.918322 23.850481 110.132587 24.011337 110.346853 24.179469 110.561119 24.354930 110.775385 24.537770 110.989650 24.728041 111.203916 24.925795 111.418182 25.131084 111.632448 25.343958 111.846713 25.564469 112.060979 25.792670 112.275245 26.028611 112.489510 26.272344 112.703776 26.523921 112.918042 26.783392 113.132308 27.050811 113.346573 27.326227 113.560839 27.609694 113.775105 27.901261 113.989371 28.200982 114.203636 28.508906 114.417902 28.825087 114.632168 29.149575 114.846434 29.482423 115.060699 29.823680 115.274965 30.173400 115.489231 30.531634 115.703497 30.898433 115.917762 31.273848 116.132028 31.657932 116.346294 32.050736 116.560559 32.452311 116.774825 32.862709 116.989091 33.281981 117.203357 33.710179 117.417622 34.147355 117.631888 34.593561 117.846154 35.048846 118.060420 35.513264 118.274685 35.986866 118.488951 36.469703 118.703217 36.961827 118.917483 37.463289 119.131748 37.974125 119.346014 38.494303 119.560280 39.023774 119.774545 39.562493 119.988811 40.110410 120.203077 40.667478 120.417343 41.233648 120.631608 41.808874 120.845874 42.393107 121.060140 42.986300 121.274406 43.588404 121.488671 44.199371 121.702937 44.819155 121.917203 45.447707 122.131469 46.084979 122.345734 46.730924 122.560000 47.385493 122.774266 48.048639 122.988531 48.720313 123.202797 49.400469 123.417063 50.089058 123.631329 50.786033 123.845594 51.491345 124.059860 52.204947 124.274126 52.926791 124.488392 53.656829 124.702657 54.395013 124.916923 55.141296 125.131189 55.895629 125.345455 56.657965 125.559720 57.428256 125.773986 58.206454 125.988252 58.992511 126.202517 59.786380 126.416783 60.588012 126.631049 61.397360 126.845315 62.214376 127.059580 63.039012 127.273846 63.871220 127.488112 64.710953 127.702378 65.558162 127.916643 66.412800 128.130909 67.274819 128.345175 68.144171 128.559441 69.020808 128.773706 69.904683 128.987972 70.795747 129.202238 71.693953 129.416503 72.599253 129.630769 73.511599 129.845035 74.430944 130.059301 75.357238 130.273566 76.290436 130.487832 77.230488 130.702098 78.177347 130.916364 79.130965 131.130629 80.091294 131.344895 81.058287 131.559161 82.031895 131.773427 83.012071 131.987692 83.998767 132.201958 84.991935 132.416224 85.991528 132.630490 86.997496 132.844755 88.009794 133.059021 89.028372 133.273287 90.053183 133.487552 91.084179 133.701818 92.121312 133.916084 93.164535 134.130350 94.213799 134.344615 95.269057 134.558881 96.330261 134.773147 97.397363 134.987413 98.470316 135.201678 99.549070 135.415944 100.633580 135.630210 101.723796 135.844476 102.819671 136.058741 103.921157 136.273007 105.028206 136.487273 106.140771 136.701538 107.258803 136.915804 108.382255 137.130070 109.511079 137.344336 110.645227 137.558601 111.784651 137.772867 112.929304 137.987133 114.079137 138.201399 115.234103 138.415664 116.394154 138.629930 117.559242 138.844196 118.729319 139.058462 119.904338 139.272727 121.084250 139.486993 122.269008 139.701259 123.458564 139.915524 124.652870 140.129790 125.851878 140.344056 127.055541 140.558322 128.263810 140.772587 129.476638 140.986853 130.693977 141.201119 131.915778 141.415385 133.141996 141.629650 134.372580 141.843916 135.607484 142.058182 136.846660 142.272448 138.090060 142.486713 139.337636 142.700979 140.589340 142.915245 141.845124 143.129510 143.104941 143.343776 144.368743 143.558042 145.636482 143.772308 146.908110 143.986573 148.183579 144.200839 149.462841 144.415105 150.745849 144.629371 152.032555 144.843636 153.322911 145.057902 154.616868 145.272168 155.914380 145.486434 157.215399 145.700699 158.519876 145.914965 159.827763 146.129231 161.139014 146.343497 162.453580 146.557762 163.771413 146.772028 165.092465 146.986294 166.416689 147.200559 167.744036 147.414825 169.074460 147.629091 170.407911 147.843357 171.744343 148.057622 173.083707 148.271888 174.425956 148.486154 175.771042 148.700420 177.118916 148.914685 178.469532 149.128951 179.822840 149.343217 181.178795 149.557483 182.537346 149.771748 183.898448 149.986014 185.262051 150.200280 186.628108 150.414545 187.996572 150.628811 189.367394 150.843077 190.740527 151.057343 192.115922 151.271608 193.493532 151.485874 194.873310 151.700140 196.255206 151.914406 197.639174 152.128671 199.025165 152.342937 200.413133 152.557203 201.803028 152.771469 203.194803 152.985734 204.588410 153.200000 205.983802 153.414266 207.380931 153.628531 208.779748 153.842797 210.180206 154.057063 211.582257 154.271329 212.985853 154.485594 214.390947 154.699860 215.797490 154.914126 217.205435 155.128392 218.614734 155.342657 220.025339 155.556923 221.437202 155.771189 222.850276 155.985455 224.264512 156.199720 225.679863 156.413986 227.096281 156.628252 228.513717 156.842517 229.932125 157.056783 231.351457 157.271049 232.771664 157.485315 234.192699 157.699580 235.614513 157.913846 237.037060 158.128112 238.460291 158.342378 239.884158 158.556643 241.308614 158.770909 242.733611 158.985175 244.159100 159.199441 245.585035 159.413706 247.011366 159.627972 248.438048 159.842238 249.865030 160.056503 251.292267 160.270769 252.719709 160.485035 254.147310 160.699301 255.575020 160.913566 257.002793 161.127832 258.430581 161.342098 259.858335 161.556364 261.286008 161.770629 262.713553 161.984895 264.140920 162.199161 265.568063 162.413427 266.994933 162.627692 268.421483 162.841958 269.847665 163.056224 271.273432 163.270490 272.698734 163.484755 274.123525 163.699021 275.547756 163.913287 276.971380 164.127552 278.394349 164.341818 279.816614 164.556084 281.238130 164.770350 282.658846 164.984615 284.078716 165.198881 285.497692 165.413147 286.915726 165.627413 288.332769 165.841678 289.748775 166.055944 291.163696 166.270210 292.577483 166.484476 293.990088 166.698741 295.401465 166.913007 296.811564 167.127273 298.220339 167.341538 299.627741 167.555804 301.033723 167.770070 302.438236 167.984336 303.841234 168.198601 305.242667 168.412867 306.642489 168.627133 308.040651 168.841399 309.437105 169.055664 310.831804 169.269930 312.224700 169.484196 313.615746 169.698462 315.004892 169.912727 316.392092 170.126993 317.777297 170.341259 319.160460 170.555524 320.541533 170.769790 321.920468 170.984056 323.297217 171.198322 324.671733 171.412587 326.043967 171.626853 327.413871 171.841119 328.781399 172.055385 330.146502 172.269650 331.509132 172.483916 332.869241 172.698182 334.226784 172.912448 335.581721 173.126713 336.934015 173.340979 338.283629 173.555245 339.630525 173.769510 340.974667 173.983776 342.316017 174.198042 343.654538 174.412308 344.990192 174.626573 346.322943 174.840839 347.652753 175.055105 348.979586 175.269371 350.303402 175.483636 351.624167 175.697902 352.941841 175.912168 354.256388 176.126434 355.567772 176.340699 356.875954 176.554965 358.180897 176.769231 359.482564 176.983497 360.780918 177.197762 362.075921 177.412028 363.367537 177.626294 364.655728 177.840559 365.940457 178.054825 367.221686 178.269091 368.499379 178.483357 369.773498 178.697622 371.044006 178.911888 372.310866 179.126154 373.574040 179.340420 374.833491 179.554685 376.089183 179.768951 377.341077 179.983217 378.589136 180.197483 379.833324 180.411748 381.073603 180.626014 382.309936 180.840280 383.542285 181.054545 384.770614 181.268811 385.994884 181.483077 387.215060 181.697343 388.431103 181.911608 389.642976 182.125874 390.850643 182.340140 392.054066 182.554406 393.253207 182.768671 394.448029 182.982937 395.638496 183.197203 396.824570 183.411469 398.006214 183.625734 399.183390 183.840000 400.356061 184.054266 401.524190 184.268531 402.687741 184.482797 403.846674 184.697063 405.000954 184.911329 406.150543 185.125594 407.295404 185.339860 408.435499 185.554126 409.570792 185.768392 410.701245 185.982657 411.826821 186.196923 412.947483 186.411189 414.063192 186.625455 415.173913 186.839720 416.279609 187.053986 417.380240 187.268252 418.475771 187.482517 419.566165 187.696783 420.651383 187.911049 421.731389 188.125315 422.806146 188.339580 423.875616 188.553846 424.939762 188.768112 425.998547 188.982378 427.051934 189.196643 428.099884 189.410909 429.142362 189.625175 430.179330 189.839441 431.210750 190.053706 432.236586 190.267972 433.256800 190.482238 434.271355 190.696503 435.280214 190.910769 436.283339 191.125035 437.280693 191.339301 438.272239 191.553566 439.257940 191.767832 440.237759 191.982098 441.211657 192.196364 442.179599 192.410629 443.141547 192.624895 444.097463 192.839161 445.047310 193.053427 445.991052 193.267692 446.928650 193.481958 447.860068 193.696224 448.785268 193.910490 449.704214 194.124755 450.616867 194.339021 451.523192 194.553287 452.423149 194.767552 453.316703 194.981818 454.203815 195.196084 455.084450 195.410350 455.958569 195.624615 456.826135 195.838881 457.687111 196.053147 458.541460 196.267413 459.389144 196.481678 460.230127 196.695944 461.064371 196.910210 461.891839 197.124476 462.712493 197.338741 463.526297 197.553007 464.333212 197.767273 465.133203 197.981538 465.926231 198.195804 466.712260 198.410070 467.491252 198.624336 468.263170 198.838601 469.027976 199.052867 469.785634 199.267133 470.536106 199.481399 471.279356 199.695664 472.015345 199.909930 472.744036 200.124196 473.465393 200.338462 474.179378 200.552727 474.885953 200.766993 475.585082 200.981259 476.276728 201.195524 476.960853 201.409790 477.637419 201.624056 478.306390 201.838322 478.967729 202.052587 479.621398 202.266853 480.267359 202.481119 480.905577 202.695385 481.536012 202.909650 482.158629 203.123916 482.773390 203.338182 483.380258 203.552448 483.979195 203.766713 484.570165 203.980979 485.153129 204.195245 485.728051 204.409510 486.294894 204.623776 486.853620 204.838042 487.404193 205.052308 487.946574 205.266573 488.480726 205.480839 489.006613 205.695105 489.524198 205.909371 490.033442 206.123636 490.534308 206.337902 491.026761 206.552168 491.510761 206.766434 491.986272 206.980699 492.453258 207.194965 492.911679 207.409231 493.361500 207.623497 493.802683 207.837762 494.235190 208.052028 494.658985 208.266294 495.074031 208.480559 495.480289 208.694825 495.877724 208.909091 496.266297 209.123357 496.645971 209.337622 497.016709 209.551888 497.378475 209.766154 497.731229 209.980420 498.074937 210.194685 498.409559 210.408951 498.735060 210.623217 499.051401 210.837483 499.358545 211.051748 499.656456 211.266014 499.945096 211.480280 500.224428 211.694545 500.494414 211.908811 500.755017 212.123077 501.006201 212.337343 501.247927 212.551608 501.480159 212.765874 501.702859 212.980140 501.915990 213.194406 502.119515 213.408671 502.313397 213.622937 502.497598 213.837203 502.672081 214.051469 502.836809 214.265734 502.991745 214.480000 503.136852 214.694266 503.272091 214.908531 503.397427 215.122797 503.512821 215.337063 503.618237 215.551329 503.713637 215.765594 503.798984 215.979860 503.874241 216.194126 503.939370 216.408392 503.994335 216.622657 504.039097 216.836923 504.073621 217.051189 504.097868 217.265455 504.111802 217.479720 504.115385 217.693986 504.108579 217.908252 504.091349 218.122517 504.063655 218.336783 504.025462 218.551049 503.976732 218.765315 503.917428 218.979580 503.847512 219.193846 503.766947 219.408112 503.675696 219.622378 503.573722 219.836643 503.460988 220.050909 503.337456 220.265175 503.203089 220.479441 503.057850 220.693706 502.901701 220.907972 502.734606 221.122238 502.556527 221.336503 502.367426 221.550769 502.167268 221.765035 501.956014 221.979301 501.733627 222.193566 501.500070 222.407832 501.255305 222.622098 500.999296 222.836364 500.732005 223.050629 500.453396 223.264895 500.163430 223.479161 499.862070 223.693427 499.549280 223.907692 499.225022 224.121958 498.889259 224.336224 498.541953 224.550490 498.183067 224.764755 497.812565 224.979021 497.430409 225.193287 497.036561 225.407552 496.630984 225.621818 496.213642 225.836084 495.784497 226.050350 495.343511 226.264615 494.890668 226.478881 494.426029 226.693147 493.949677 226.907413 493.461693 227.121678 492.962161 227.335944 492.451161 227.550210 491.928776 227.764476 491.395089 227.978741 490.850181 228.193007 490.294134 228.407273 489.727031 228.621538 489.148953 228.835804 488.559983 229.050070 487.960202 229.264336 487.349694 229.478601 486.728539 229.692867 486.096821 229.907133 485.454621 230.121399 484.802021 230.335664 484.139103 230.549930 483.465950 230.764196 482.782643 230.978462 482.089265 231.192727 481.385898 231.406993 480.672624 231.621259 479.949525 231.835524 479.216683 232.049790 478.474180 232.264056 477.722098 232.478322 476.960520 232.692587 476.189528 232.906853 475.409202 233.121119 474.619627 233.335385 473.820884 233.549650 473.013054 233.763916 472.196220 233.978182 471.370465 234.192448 470.535869 234.406713 469.692516 234.620979 468.840488 234.835245 467.979866 235.049510 467.110732 235.263776 466.233170 235.478042 465.347260 235.692308 464.453085 235.906573 463.550727 236.120839 462.640268 236.335105 461.721790 236.549371 460.795376 236.763636 459.861107 236.977902 458.919066 237.192168 457.969334 237.406434 457.011995 237.620699 456.047129 237.834965 455.074819 238.049231 454.095147 238.263497 453.108195 238.477762 452.114045 238.692028 451.112780 238.906294 450.104481 239.120559 449.089231 239.334825 448.067111 239.549091 447.038204 239.763357 446.002593 239.977622 444.960358 240.191888 443.911582 240.406154 442.856347 240.620420 441.794736 240.834685 440.726829 241.048951 439.652711 241.263217 438.572462 241.477483 437.486165 241.691748 436.393901 241.906014 435.295753 242.120280 434.191804 242.334545 433.082134 242.548811 431.966827 242.763077 430.845964 242.977343 429.719627 243.191608 428.587899 243.405874 427.450861 243.620140 426.308596 243.834406 425.161186 244.048671 424.008713 244.262937 422.851259 244.477203 421.688906 244.691469 420.521736 244.905734 419.349832 245.120000 418.173274 245.334266 416.992147 245.548531 415.806531 245.762797 414.616509 245.977063 413.422162 246.191329 412.223574 246.405594 411.020825 246.619860 409.813999 246.834126 408.603177 247.048392 407.388441 247.262657 406.169874 247.476923 404.947557 247.691189 403.721573 247.905455 402.492003 248.119720 401.258931 248.333986 400.022437 248.548252 398.782604 248.762517 397.539515 248.976783 396.293251 249.191049 395.043894 249.405315 393.791527 249.619580 392.536231 249.833846 391.278089 250.048112 390.017182 250.262378 388.753594 250.476643 387.487405 250.690909 386.218699 250.905175 384.947557 251.119441 383.674060 251.333706 382.398293 251.547972 381.120336 251.762238 379.840271 251.976503 378.558181 252.190769 377.274148 252.405035 375.988254 252.619301 374.700580 252.833566 373.411210 253.047832 372.120225 253.262098 370.827707 253.476364 369.533739 253.690629 368.238402 253.904895 366.941779 254.119161 365.643952 254.333427 364.345002 254.547692 363.045012 254.761958 361.744064 254.976224 360.442240 255.190490 359.139623 255.404755 357.836294 255.619021 356.532335 255.833287 355.227829 256.047552 353.922857 256.261818 352.617502 256.476084 351.311846 256.690350 350.005971 256.904615 348.699959 257.118881 347.393892 257.333147 346.087852 257.547413 344.781921 257.761678 343.476182 257.975944 342.170717 258.190210 340.865607 258.404476 339.560935 258.618741 338.256783 258.833007 336.953232 259.047273 335.650366 259.261538 334.348266 259.475804 333.047014 259.690070 331.746693 259.904336 330.447383 260.118601 329.149169 260.332867 327.852131 260.547133 326.556352 260.761399 325.261914 260.975664 323.968898 261.189930 322.677388 261.404196 321.387465 261.618462 320.099211 261.832727 318.812709 262.046993 317.528040 262.261259 316.245287 262.475524 314.964531 262.689790 313.685855 262.904056 312.409341 263.118322 311.135071 263.332587 309.863127 263.546853 308.593591 263.761119 307.326546 263.975385 306.062073 264.189650 304.800254 264.403916 303.541172 264.618182 302.284909 264.832448 301.031546 265.046713 299.781167 265.260979 298.533852 265.475245 297.289684 265.689510 296.048746 265.903776 294.811119 266.118042 293.576886 266.332308 292.346127 266.546573 291.118927 266.760839 289.895366 266.975105 288.675527 267.189371 287.459492 267.403636 286.247343 267.617902 285.039163 267.832168 283.835032 268.046434 282.635034 268.260699 281.439250 268.474965 280.247762 268.689231 279.060654 268.903497 277.878006 269.117762 276.699901 269.332028 275.526420 269.546294 274.357647 269.760559 273.193663 269.974825 272.034551 270.189091 270.880391 270.403357 269.731267 270.617622 268.587261 270.831888 267.448454 271.046154 266.314929 271.260420 265.186768 271.474685 264.064053 271.688951 262.946866 271.903217 261.835289 272.117483 260.729404 272.331748 259.629294 272.546014 258.535040 272.760280 257.446725 272.974545 256.364430 273.188811 255.288238 273.403077 254.218231 273.617343 253.154491 273.831608 252.097100 274.045874 251.046141 274.260140 250.001694 274.474406 248.963843 274.688671 247.932670 274.902937 246.908256 275.117203 245.890684 275.331469 244.880035 275.545734 243.876393 275.760000 242.879838 275.974266 241.890454 276.188531 240.908321 276.402797 239.933524 276.617063 238.966142 276.831329 238.006259 277.045594 237.053957 277.259860 236.109317 277.474126 235.172422 277.688392 234.243354 277.902657 233.322195 278.116923 232.409027 278.331189 231.503933 278.545455 230.606993 278.759720 229.718292 278.973986 228.837909 279.188252 227.965929 279.402517 227.102432 279.616783 226.247500 279.831049 225.401197 280.045315 224.563503 280.259580 223.734379 280.473846 222.913786 280.688112 222.101685 280.902378 221.298039 281.116643 220.502806 281.330909 219.715950 281.545175 218.937430 281.759441 218.167208 281.973706 217.405246 282.187972 216.651503 282.402238 215.905942 282.616503 215.168524 282.830769 214.439209 283.045035 213.717958 283.259301 213.004734 283.473566 212.299496 283.687832 211.602206 283.902098 210.912826 284.116364 210.231315 284.330629 209.557636 284.544895 208.891750 284.759161 208.233617 284.973427 207.583199 285.187692 206.940457 285.401958 206.305351 285.616224 205.677844 285.830490 205.057896 286.044755 204.445468 286.259021 203.840521 286.473287 203.243018 286.687552 202.652917 286.901818 202.070182 287.116084 201.494772 287.330350 200.926649 287.544615 200.365775 287.758881 199.812110 287.973147 199.265614 288.187413 198.726251 288.401678 198.193980 288.615944 197.668763 288.830210 197.150560 289.044476 196.639333 289.258741 196.135044 289.473007 195.637652 289.687273 195.147120 289.901538 194.663408 290.115804 194.186478 290.330070 193.716290 290.544336 193.252806 290.758601 192.795987 290.972867 192.345794 291.187133 191.902188 291.401399 191.465130 291.615664 191.034581 291.829930 190.610503 292.044196 190.192856 292.258462 189.781602 292.472727 189.376701 292.686993 188.978116 292.901259 188.585807 293.115524 188.199734 293.329790 187.819860 293.544056 187.446145 293.758322 187.078551 293.972587 186.717038 294.186853 186.361568 294.401119 186.012102 294.615385 185.668600 294.829650 185.331025 295.043916 184.999337 295.258182 184.673497 295.472448 184.353466 295.686713 184.039206 295.900979 183.730678 296.115245 183.427842 296.329510 183.130660 296.543776 182.839093 296.758042 182.553102 296.972308 182.272649 297.186573 181.997693 297.400839 181.728198 297.615105 181.464122 297.829371 181.205428 298.043636 180.952077 298.257902 180.704030 298.472168 180.461248 298.686434 180.223692 298.900699 179.991324 299.114965 179.764103 299.329231 179.541992 299.543497 179.324952 299.757762 179.112943 299.972028 178.905927 300.186294 178.703865 300.400559 178.506718 300.614825 178.314448 300.829091 178.127014 301.043357 177.944379 301.257622 177.766503 301.471888 177.593349 301.686154 177.424875 301.900420 177.261045 302.114685 177.101818 302.328951 176.947157 302.543217 176.797022 302.757483 176.651374 302.971748 176.510175 303.186014 176.373385 303.400280 176.240966 303.614545 176.112878 303.828811 175.989084 304.043077 175.869543 304.257343 175.754218 304.471608 175.643068 304.685874 175.536057 304.900140 175.433143 305.114406 175.334290 305.328671 175.239456 305.542937 175.148605 305.757203 175.061697 305.971469 174.978693 306.185734 174.899553 306.400000 174.824241 306.614266 174.752715 306.828531 174.684938 307.042797 174.620871 307.257063 174.560474 307.471329 174.503709 307.685594 174.450538 307.899860 174.400920 308.114126 174.354818 308.328392 174.312191 308.542657 174.273003 308.756923 174.237213 308.971189 174.204782 309.185455 174.175672 309.399720 174.149844 309.613986 174.127260 309.828252 174.107879 310.042517 174.091664 310.256783 174.078574 310.471049 174.068573 310.685315 174.061620 310.899580 174.057676 311.113846 174.056704 311.328112 174.058663 311.542378 174.063516 311.756643 174.071223 311.970909 174.081745 312.185175 174.095043 312.399441 174.111079 312.613706 174.129813 312.827972 174.151207 313.042238 174.175223 313.256503 174.201820 313.470769 174.230960 313.685035 174.262604 313.899301 174.296714 314.113566 174.333250 314.327832 174.372174 314.542098 174.413446 314.756364 174.457028 314.970629 174.502881 315.184895 174.550966 315.399161 174.601245 315.613427 174.653677 315.827692 174.708225 316.041958 174.764849 316.256224 174.823511 316.470490 174.884172 316.684755 174.946792 316.899021 175.011334 317.113287 175.077757 317.327552 175.146024 317.541818 175.216095 317.756084 175.287931 317.970350 175.361494 318.184615 175.436744 318.398881 175.513644 318.613147 175.592153 318.827413 175.672233 319.041678 175.753845 319.255944 175.836950 319.470210 175.921510 319.684476 176.007485 319.898741 176.094837 320.113007 176.183526 320.327273 176.273515 320.541538 176.364763 320.755804 176.457232 320.970070 176.550883 321.184336 176.645678 321.398601 176.741577 321.612867 176.838541 321.827133 176.936532 322.041399 177.035511 322.255664 177.135439 322.469930 177.236276 322.684196 177.337985 322.898462 177.440525 323.112727 177.543860 323.326993 177.647948 323.541259 177.752752 323.755524 177.858233 323.969790 177.964351 324.184056 178.071068 324.398322 178.178346 324.612587 178.286144 324.826853 178.394425 325.041119 178.503149 325.255385 178.612277 325.469650 178.721771 325.683916 178.831592 325.898182 178.941700 326.112448 179.052058 326.326713 179.162625 326.540979 179.273364 326.755245 179.384234 326.969510 179.495199 327.183776 179.606217 327.398042 179.717252 327.612308 179.828263 327.826573 179.939211 328.040839 180.050059 328.255105 180.160767 328.469371 180.271296 328.683636 180.381608 328.897902 180.491663 329.112168 180.601422 329.326434 180.710847 329.540699 180.819899 329.754965 180.928538 329.969231 181.036727 330.183497 181.144426 330.397762 181.251596 330.612028 181.358198 330.826294 181.464194 331.040559 181.569544 331.254825 181.674210 331.469091 181.778153 331.683357 181.881334 331.897622 181.983714 332.111888 182.085254 332.326154 182.185915 332.540420 182.285659 332.754685 182.384446 332.968951 182.482238 333.183217 182.578995 333.397483 182.674687 333.611748 182.769309 333.826014 182.862865 334.040280 182.955360 334.254545 183.046797 334.468811 183.137180 334.683077 183.226513 334.897343 183.314799 335.111608 183.402043 335.325874 183.488248 335.540140 183.573418 335.754406 183.657557 335.968671 183.740668 336.182937 183.822756 336.397203 183.903824 336.611469 183.983877 336.825734 184.062917 337.040000 184.140949 337.254266 184.217977 337.468531 184.294004 337.682797 184.369034 337.897063 184.443071 338.111329 184.516119 338.325594 184.588182 338.539860 184.659263 338.754126 184.729366 338.968392 184.798496 339.182657 184.866656 339.396923 184.933849 339.611189 185.000080 339.825455 185.065352 340.039720 185.129670 340.253986 185.193036 340.468252 185.255455 340.682517 185.316931 340.896783 185.377468 341.111049 185.437069 341.325315 185.495738 341.539580 185.553478 341.753846 185.610295 341.968112 185.666191 342.182378 185.721171 342.396643 185.775237 342.610909 185.828395 342.825175 185.880648 343.039441 185.931999 343.253706 185.982452 343.467972 186.032012 343.682238 186.080683 343.896503 186.128467 344.110769 186.175368 344.325035 186.221392 344.539301 186.266540 344.753566 186.310818 344.967832 186.354229 345.182098 186.396777 345.396364 186.438466 345.610629 186.479298 345.824895 186.519280 346.039161 186.558413 346.253427 186.596702 346.467692 186.634151 346.681958 186.670764 346.896224 186.706544 347.110490 186.741495 347.324755 186.775621 347.539021 186.808926 347.753287 186.841413 347.967552 186.873087 348.181818 186.903952 348.396084 186.934010 348.610350 186.963267 348.824615 186.991725 349.038881 187.019389 349.253147 187.046262 349.467413 187.072348 349.681678 187.097651 349.895944 187.122175 350.110210 187.145924 350.324476 187.168901 350.538741 187.191111 350.753007 187.212556 350.967273 187.233242 351.181538 187.253171 351.395804 187.272348 351.610070 187.290776 351.824336 187.308460 352.038601 187.325402 352.252867 187.341607 352.467133 187.357079 352.681399 187.371821 352.895664 187.385838 353.109930 187.399133 353.324196 187.411709 353.538462 187.423572 353.752727 187.434724 353.966993 187.445169 354.181259 187.454912 354.395524 187.463955 354.609790 187.472303 354.824056 187.479960 355.038322 187.486930 355.252587 187.493216 355.466853 187.498821 355.681119 187.503751 355.895385 187.508009 356.109650 187.511598 356.323916 187.514522 356.538182 187.516786 356.752448 187.518392 356.966713 187.519346 357.180979 187.519650 357.395245 187.519308 357.609510 187.518325 357.823776 187.516704 358.038042 187.514449 358.252308 187.511563 358.466573 187.508051 358.680839 187.503917 358.895105 187.499163 359.109371 187.493795 359.323636 187.487815 359.537902 187.481228 359.752168 187.474038 359.966434 187.466248 360.180699 187.457862 360.394965 187.448883 360.609231 187.439317 360.823497 187.429166 361.037762 187.418435 361.252028 187.407126 361.466294 187.395245 361.680559 187.382794 361.894825 187.369778 362.109091 187.356201 362.323357 187.342066 362.537622 187.327377 362.751888 187.312137 362.966154 187.296352 363.180420 187.280024 363.394685 187.263158 363.608951 187.245756 363.823217 187.227824 364.037483 187.209364 364.251748 187.190381 364.466014 187.170879 364.680280 187.150861 364.894545 187.130331 365.108811 187.109292 365.323077 187.087750 365.537343 187.065707 365.751608 187.043167 365.965874 187.020135 366.180140 186.996614 366.394406 186.972607 366.608671 186.948119 366.822937 186.923154 367.037203 186.897714 367.251469 186.871805 367.465734 186.845430 367.680000 186.818592 367.894266 186.791296 368.108531 186.763546 368.322797 186.735344 368.537063 186.706696 368.751329 186.677604 368.965594 186.648073 369.179860 186.618107 369.394126 186.587708 369.608392 186.556882 369.822657 186.525632 370.036923 186.493961 370.251189 186.461874 370.465455 186.429374 370.679720 186.396466 370.893986 186.363152 371.108252 186.329437 371.322517 186.295325 371.536783 186.260820 371.751049 186.225924 371.965315 186.190643 372.179580 186.154979 372.393846 186.118938 372.608112 186.082521 372.822378 186.045735 373.036643 186.008581 373.250909 185.971064 373.465175 185.933188 373.679441 185.894957 373.893706 185.856374 374.107972 185.817444 374.322238 185.778169 374.536503 185.738555 374.750769 185.698604 374.965035 185.658320 375.179301 185.617709 375.393566 185.576772 375.607832 185.535514 375.822098 185.493939 376.036364 185.452050 376.250629 185.409852 376.464895 185.367349 376.679161 185.324543 376.893427 185.281439 377.107692 185.238041 377.321958 185.194353 377.536224 185.150378 377.750490 185.106120 377.964755 185.061583 378.179021 185.016771 378.393287 184.971687 378.607552 184.926336 378.821818 184.880721 379.036084 184.834846 379.250350 184.788715 379.464615 184.742332 379.678881 184.695700 379.893147 184.648824 380.107413 184.601707 380.321678 184.554353 380.535944 184.506765 380.750210 184.458948 380.964476 184.410906 381.178741 184.362642 381.393007 184.314160 381.607273 184.265464 381.821538 184.216557 382.035804 184.167444 382.250070 184.118129 382.464336 184.068614 382.678601 184.018905 382.892867 183.969004 383.107133 183.918916 383.321399 183.868645 383.535664 183.818193 383.749930 183.767566 383.964196 183.716767 384.178462 183.665799 384.392727 183.614667 384.606993 183.563374 384.821259 183.511924 385.035524 183.460322 385.249790 183.408570 385.464056 183.356672 385.678322 183.304634 385.892587 183.252457 386.106853 183.200146 386.321119 183.147706 386.535385 183.095139 386.749650 183.042449 386.963916 182.989640 387.178182 182.936710 387.392448 182.883655 387.606713 182.830475 387.820979 182.777165 388.035245 182.723723 388.249510 182.670148 388.463776 182.616435 388.678042 182.562583 388.892308 182.508589 389.106573 182.454450 389.320839 182.400164 389.535105 182.345728 389.749371 182.291139 389.963636 182.236395 390.177902 182.181494 390.392168 182.126433 390.606434 182.071208 390.820699 182.015818 391.034965 181.960260 391.249231 181.904532 391.463497 181.848630 391.677762 181.792552 391.892028 181.736295 392.106294 181.679858 392.320559 181.623237 392.534825 181.566429 392.749091 181.509433 392.963357 181.452245 393.177622 181.394863 393.391888 181.337284 393.606154 181.279506 393.820420 181.221527 394.034685 181.163342 394.248951 181.104951 394.463217 181.046350 394.677483 180.987536 394.891748 180.928508 395.106014 180.869262 395.320280 180.809796 395.534545 180.750107 395.748811 180.690193 395.963077 180.630051 396.177343 180.569679 396.391608 180.509073 396.605874 180.448232 396.820140 180.387152 397.034406 180.325831 397.248671 180.264267 397.462937 180.202457 397.677203 180.140398 397.891469 180.078088 398.105734 180.015524 398.320000 179.952703 398.534266 179.889623 398.748531 179.826282 398.962797 179.762676 399.177063 179.698803 399.391329 179.634660 399.605594 179.570246 399.819860 179.505557 400.034126 179.440590 400.248392 179.375343 400.462657 179.309814 400.676923 179.244000 400.891189 179.177898 401.105455 179.111506 401.319720 179.044820 401.533986 178.977840 401.748252 178.910561 401.962517 178.842981 402.176783 178.775098 402.391049 178.706909 402.605315 178.638411 402.819580 178.569602 403.033846 178.500480 403.248112 178.431041 403.462378 178.361283 403.676643 178.291204 403.890909 178.220800 404.105175 178.150070 404.319441 178.079010 404.533706 178.007618 404.747972 177.935892 404.962238 177.863829 405.176503 177.791426 405.390769 177.718680 405.605035 177.645589 405.819301 177.572151 406.033566 177.498363 406.247832 177.424222 406.462098 177.349726 406.676364 177.274871 406.890629 177.199656 407.104895 177.124078 407.319161 177.048134 407.533427 176.971822 407.747692 176.895138 407.961958 176.818081 408.176224 176.740648 408.390490 176.662836 408.604755 176.584643 408.819021 176.506066 409.033287 176.427102 409.247552 176.347749 409.461818 176.268004 409.676084 176.187865 409.890350 176.107328 410.104615 176.026393 410.318881 175.945055 410.533147 175.863312 410.747413 175.781161 410.961678 175.698601 411.175944 175.615628 411.390210 175.532240 411.604476 175.448434 411.818741 175.364208 412.033007 175.279559 412.247273 175.194484 412.461538 175.108980 412.675804 175.023046 412.890070 174.936679 413.104336 174.849876 413.318601 174.762634 413.532867 174.674950 413.747133 174.586823 413.961399 174.498250 414.175664 174.409227 414.389930 174.319753 414.604196 174.229825 414.818462 174.139440 415.032727 174.048595 415.246993 173.957288 415.461259 173.865517 415.675524 173.773278 415.889790 173.680570 416.104056 173.587389 416.318322 173.493733 416.532587 173.399600 416.746853 173.304986 416.961119 173.209890 417.175385 173.114308 417.389650 173.018238 417.603916 172.921677 417.818182 172.824623 418.032448 172.727073 418.246713 172.629025 418.460979 172.530476 418.675245 172.431423 418.889510 172.331864 419.103776 172.231796 419.318042 172.131216 419.532308 172.030123 419.746573 171.928512 419.960839 171.826383 420.175105 171.723731 420.389371 171.620556 420.603636 171.516853 420.817902 171.412620 421.032168 171.307856 421.246434 171.202556 421.460699 171.096719 421.674965 170.990342 421.889231 170.883422 422.103497 170.775957 422.317762 170.667944 422.532028 170.559380 422.746294 170.450264 422.960559 170.340591 423.174825 170.230361 423.389091 170.119569 423.603357 170.008215 423.817622 169.896294 424.031888 169.783804 424.246154 169.670743 424.460420 169.557108 424.674685 169.442897 424.888951 169.328107 425.103217 169.212734 425.317483 169.096778 425.531748 168.980235 425.746014 168.863102 425.960280 168.745377 426.174545 168.627058 426.388811 168.508141 426.603077 168.388624 426.817343 168.268505 427.031608 168.147781 427.245874 168.026448 427.460140 167.904506 427.674406 167.781951 427.888671 167.658780 428.102937 167.534991 428.317203 167.410582 428.531469 167.285549 428.745734 167.159890 428.960000 167.033603 429.174266 166.906684 429.388531 166.779132 429.602797 166.650944 429.817063 166.522116 430.031329 166.392647 430.245594 166.262534 430.459860 166.131775 430.674126 166.000366 430.888392 165.868305 431.102657 165.735589 431.316923 165.602216 431.531189 165.468184 431.745455 165.333489 431.959720 165.198130 432.173986 165.062103 432.388252 164.925405 432.602517 164.788035 432.816783 164.649990 433.031049 164.511267 433.245315 164.371863 433.459580 164.231776 433.673846 164.091003 433.888112 163.949542 434.102378 163.807390 434.316643 163.664545 434.530909 163.521003 434.745175 163.376762 434.959441 163.231821 435.173706 163.086175 435.387972 162.939823 435.602238 162.792761 435.816503 162.644988 436.030769 162.496500 436.245035 162.347296 436.459301 162.197372 436.673566 162.046726 436.887832 161.895355 437.102098 161.743256 437.316364 161.590428 437.530629 161.436867 437.744895 161.282571 437.959161 161.127537 438.173427 160.971763 438.387692 160.815246 438.601958 160.657983 438.816224 160.499973 439.030490 160.341211 439.244755 160.181696 439.459021 160.021425 439.673287 159.860395 439.887552 159.698605 440.101818 159.536050 440.316084 159.372729 440.530350 159.208641 440.744615 159.043791 440.958881 158.878188 441.173147 158.711838 441.387413 158.544750 441.601678 158.376931 441.815944 158.208388 442.030210 158.039129 442.244476 157.869162 442.458741 157.698494 442.673007 157.527133 442.887273 157.355086 443.101538 157.182361 443.315804 157.008966 443.530070 156.834908 443.744336 156.660195 443.958601 156.484834 444.172867 156.308833 444.387133 156.132199 444.601399 155.954940 444.815664 155.777064 445.029930 155.598578 445.244196 155.419490 445.458462 155.239808 445.672727 155.059538 445.886993 154.878689 446.101259 154.697268 446.315524 154.515282 446.529790 154.332740 446.744056 154.149649 446.958322 153.966016 447.172587 153.781849 447.386853 153.597156 447.601119 153.411943 447.815385 153.226220 448.029650 153.039993 448.243916 152.853270 448.458182 152.666058 448.672448 152.478365 448.886713 152.290199 449.100979 152.101567 449.315245 151.912477 449.529510 151.722937 449.743776 151.532953 449.958042 151.342534 450.172308 151.151687 450.386573 150.960420 450.600839 150.768740 450.815105 150.576654 451.029371 150.384172 451.243636 150.191299 451.457902 149.998044 451.672168 149.804414 451.886434 149.610417 452.100699 149.416060 452.314965 149.221351 452.529231 149.026298 452.743497 148.830907 452.957762 148.635188 453.172028 148.439146 453.386294 148.242791 453.600559 148.046128 453.814825 147.849167 454.029091 147.651915 454.243357 147.454378 454.457622 147.256565 454.671888 147.058484 454.886154 146.860141 455.100420 146.661545 455.314685 146.462703 455.528951 146.263623 455.743217 146.064311 455.957483 145.864777 456.171748 145.665027 456.386014 145.465068 456.600280 145.264910 456.814545 145.064558 457.028811 144.864021 457.243077 144.663307 457.457343 144.462422 457.671608 144.261375 457.885874 144.060172 458.100140 143.858822 458.314406 143.657333 458.528671 143.455711 458.742937 143.253964 458.957203 143.052101 459.171469 142.850128 459.385734 142.648053 459.600000 142.445883 459.814266 142.243627 460.028531 142.041292 460.242797 141.838884 460.457063 141.636413 460.671329 141.433886 460.885594 141.231309 461.099860 141.028692 461.314126 140.826040 461.528392 140.623363 461.742657 140.420667 461.956923 140.217960 462.171189 140.015249 462.385455 139.812543 462.599720 139.609848 462.813986 139.407173 463.028252 139.204525 463.242517 139.001911 463.456783 138.799339 463.671049 138.596817 463.885315 138.394353 464.099580 138.191953 464.313846 137.989625 464.528112 137.787378 464.742378 137.585218 464.956643 137.383153 465.170909 137.181191 465.385175 136.979339 465.599441 136.777605 465.813706 136.575996 466.027972 136.374521 466.242238 136.173186 466.456503 135.971999 466.670769 135.770969 466.885035 135.570101 467.099301 135.369405 467.313566 135.168887 467.527832 134.968555 467.742098 134.768417 467.956364 134.568480 468.170629 134.368752 468.384895 134.169240 468.599161 133.969952 468.813427 133.770896 469.027692 133.572079 469.241958 133.373509 469.456224 133.175193 469.670490 132.977139 469.884755 132.779355 470.099021 132.581848 470.313287 132.384625 470.527552 132.187694 470.741818 131.991064 470.956084 131.794740 471.170350 131.598732 471.384615 131.403046 471.598881 131.207691 471.813147 131.012673 472.027413 130.818000 472.241678 130.623680 472.455944 130.429721 472.670210 130.236129 472.884476 130.042914 473.098741 129.850081 473.313007 129.657639 473.527273 129.465596 473.741538 129.273958 473.955804 129.082734 474.170070 128.891931 474.384336 128.701557 474.598601 128.511619 474.812867 128.322125 475.027133 128.133082 475.241399 127.944498 475.455664 127.756381 475.669930 127.568738 475.884196 127.381577 476.098462 127.194905 476.312727 127.008730 476.526993 126.823059 476.741259 126.637900 476.955524 126.453261 477.169790 126.269150 477.384056 126.085572 477.598322 125.902538 477.812587 125.720053 478.026853 125.538126 478.241119 125.356764 478.455385 125.175975 478.669650 124.995765 478.883916 124.816144 479.098182 124.637118 479.312448 124.458696 479.526713 124.280883 479.740979 124.103689 479.955245 123.927121 480.169510 123.751186 480.383776 123.575892 480.598042 123.401246 480.812308 123.227257 481.026573 123.053931 481.240839 122.881276 481.455105 122.709300 481.669371 122.538011 481.883636 122.367415 482.097902 122.197521 482.312168 122.028337 482.526434 121.859868 482.740699 121.692125 482.954965 121.525113 483.169231 121.358840 483.383497 121.193315 483.597762 121.028544 483.812028 120.864535 484.026294 120.701296 484.240559 120.538835 484.454825 120.377158 484.669091 120.216274 484.883357 120.056190 485.097622 119.896914 485.311888 119.738453 485.526154 119.580814 485.740420 119.424006 485.954685 119.268037 486.168951 119.112912 486.383217 118.958641 486.597483 118.805231 486.811748 118.652688 487.026014 118.501022 487.240280 118.350239 487.454545 118.200348 487.668811 118.051355 487.883077 117.903268 488.097343 117.756095 488.311608 117.609843 488.525874 117.464520 488.740140 117.320134 488.954406 117.176692 489.168671 117.034201 489.382937 116.892670 489.597203 116.752106 489.811469 116.612516 490.025734 116.473908 490.240000 116.336290 490.454266 116.199669 490.668531 116.064052 490.882797 115.929448 491.097063 115.795864 491.311329 115.663308 491.525594 115.531786 491.739860 115.401307 491.954126 115.271879 492.168392 115.143508 492.382657 115.016202 492.596923 114.889970 492.811189 114.764818 493.025455 114.640754 493.239720 114.517786 493.453986 114.395921 493.668252 114.275167 493.882517 114.155532 494.096783 114.037019 494.311049 113.919621 494.525315 113.803327 494.739580 113.688126 494.953846 113.574007 495.168112 113.460957 495.382378 113.348967 495.596643 113.238026 495.810909 113.128121 496.025175 113.019242 496.239441 112.911378 496.453706 112.804518 496.667972 112.698651 496.882238 112.593764 497.096503 112.489849 497.310769 112.386892 497.525035 112.284884 497.739301 112.183812 497.953566 112.083666 498.167832 111.984436 498.382098 111.886108 498.596364 111.788674 498.810629 111.692120 499.024895 111.596437 499.239161 111.501613 499.453427 111.407637 499.667692 111.314498 499.881958 111.222185 500.096224 111.130686 500.310490 111.039991 500.524755 110.950088 500.739021 110.860967 500.953287 110.772616 501.167552 110.685023 501.381818 110.598179 501.596084 110.512072 501.810350 110.426690 502.024615 110.342023 502.238881 110.258059 502.453147 110.174788 502.667413 110.092198 502.881678 110.010278 503.095944 109.929016 503.310210 109.848403 503.524476 109.768427 503.738741 109.689076 503.953007 109.610339 504.167273 109.532206 504.381538 109.454665 504.595804 109.377706 504.810070 109.301316 505.024336 109.225485 505.238601 109.150202 505.452867 109.075456 505.667133 109.001235 505.881399 108.927528 506.095664 108.854325 506.309930 108.781614 506.524196 108.709384 506.738462 108.637624 506.952727 108.566323 507.166993 108.495469 507.381259 108.425052 507.595524 108.355060 507.809790 108.285483 508.024056 108.216309 508.238322 108.147527 508.452587 108.079126 508.666853 108.011095 508.881119 107.943422 509.095385 107.876097 509.309650 107.809109 509.523916 107.742445 509.738182 107.676097 509.952448 107.610051 510.166713 107.544297 510.380979 107.478824 510.595245 107.413621 510.809510 107.348676 511.023776 107.283979 511.238042 107.219519 511.452308 107.155283 511.666573 107.091262 511.880839 107.027444 512.095105 106.963818 512.309371 106.900372 512.523636 106.837096 512.737902 106.773979 512.952168 106.711009 513.166434 106.648176 513.380699 106.585467 513.594965 106.522873 513.809231 106.460382 514.023497 106.397982 514.237762 106.335663 514.452028 106.273414 514.666294 106.211223 514.880559 106.149080 515.094825 106.086972 515.309091 106.024890 515.523357 105.962822 515.737622 105.900757 515.951888 105.838683 516.166154 105.776590 516.380420 105.714467 516.594685 105.652302 516.808951 105.590084 517.023217 105.527802 517.237483 105.465445 517.451748 105.403002 517.666014 105.340462 517.880280 105.277814 518.094545 105.215046 518.308811 105.152148 518.523077 105.089108 518.737343 105.025915 518.951608 104.962558 519.165874 104.899026 519.380140 104.835307 519.594406 104.771392 519.808671 104.707268 520.022937 104.642924 520.237203 104.578350 520.451469 104.513534 520.665734 104.448465 520.880000 104.383132 521.094266 104.317524 521.308531 104.251630 521.522797 104.185438 521.737063 104.118938 521.951329 104.052118 522.165594 103.984967 522.379860 103.917475 522.594126 103.849629 522.808392 103.781419 523.022657 103.712835 523.236923 103.643863 523.451189 103.574494 523.665455 103.504717 523.879720 103.434520 524.093986 103.363892 524.308252 103.292822 524.522517 103.221299 524.736783 103.149312 524.951049 103.076849 525.165315 103.003900 525.379580 102.930454 525.593846 102.856499 525.808112 102.782024 526.022378 102.707018 526.236643 102.631470 526.450909 102.555368 526.665175 102.478703 526.879441 102.401462 527.093706 102.323635 527.307972 102.245210 527.522238 102.166176 527.736503 102.086522 527.950769 102.006237 528.165035 101.925310 528.379301 101.843730 528.593566 101.761486 528.807832 101.678566 529.022098 101.594959 529.236364 101.510655 529.450629 101.425641 529.664895 101.339908 529.879161 101.253444 530.093427 101.166237 530.307692 101.078277 530.521958 100.989553 530.736224 100.900053 530.950490 100.809767 531.164755 100.718682 531.379021 100.626789 531.593287 100.534075 531.807552 100.440531 532.021818 100.346144 532.236084 100.250903 532.450350 100.154799 532.664615 100.057818 532.878881 99.959951 533.093147 99.861185 533.307413 99.761511 533.521678 99.660917 533.735944 99.559391 533.950210 99.456923 534.164476 99.353501 534.378741 99.249115 534.593007 99.143753 534.807273 99.037404 535.021538 98.930057 535.235804 98.821701 535.450070 98.712325 535.664336 98.601918 535.878601 98.490468 536.092867 98.377964 536.307133 98.264396 536.521399 98.149751 536.735664 98.034020 536.949930 97.917191 537.164196 97.799253 537.378462 97.680194 537.592727 97.560004 537.806993 97.438671 538.021259 97.316185 538.235524 97.192533 538.449790 97.067706 538.664056 96.941692 538.878322 96.814480 539.092587 96.686058 539.306853 96.556416 539.521119 96.425543 539.735385 96.293426 539.949650 96.160057 540.163916 96.025422 540.378182 95.889511 540.592448 95.752313 540.806713 95.613817 541.020979 95.474011 541.235245 95.332885 541.449510 95.190427 541.663776 95.046627 541.878042 94.901473 542.092308 94.754954 542.306573 94.607058 542.520839 94.457776 542.735105 94.307095 542.949371 94.155005 543.163636 94.001494 543.377902 93.846551 543.592168 93.690166 543.806434 93.532326 544.020699 93.373022 544.234965 93.212241 544.449231 93.049974 544.663497 92.886207 544.877762 92.720932 545.092028 92.554135 545.306294 92.385807 545.520559 92.215936 545.734825 92.044511 545.949091 91.871520 546.163357 91.696954 546.377622 91.520800 546.591888 91.343047 546.806154 91.163685 547.020420 90.982702 547.234685 90.800088 547.448951 90.615830 547.663217 90.429921 547.877483 90.242365 548.091748 90.053168 548.306014 89.862337 548.520280 89.669877 548.734545 89.475797 548.948811 89.280103 549.163077 89.082801 549.377343 88.883897 549.591608 88.683399 549.805874 88.481313 550.020140 88.277646 550.234406 88.072404 550.448671 87.865594 550.662937 87.657222 550.877203 87.447296 551.091469 87.235821 551.305734 87.022805 551.520000 86.808254 551.734266 86.592174 551.948531 86.374573 552.162797 86.155456 552.377063 85.934831 552.591329 85.712704 552.805594 85.489082 553.019860 85.263971 553.234126 85.037378 553.448392 84.809309 553.662657 84.579771 553.876923 84.348772 554.091189 84.116316 554.305455 83.882412 554.519720 83.647066 554.733986 83.410283 554.948252 83.172072 555.162517 82.932437 555.376783 82.691387 555.591049 82.448928 555.805315 82.205066 556.019580 81.959808 556.233846 81.713161 556.448112 81.465130 556.662378 81.215724 556.876643 80.964948 557.090909 80.712808 557.305175 80.459313 557.519441 80.204468 557.733706 79.948279 557.947972 79.690754 558.162238 79.431900 558.376503 79.171722 558.590769 78.910227 558.805035 78.647422 559.019301 78.383314 559.233566 78.117909 559.447832 77.851214 559.662098 77.583235 559.876364 77.313979 560.090629 77.043453 560.304895 76.771663 560.519161 76.498616 560.733427 76.224318 560.947692 75.948777 561.161958 75.671998 561.376224 75.393989 561.590490 75.114756 561.804755 74.834305 562.019021 74.552643 562.233287 74.269778 562.447552 73.985714 562.661818 73.700460 562.876084 73.414021 563.090350 73.126405 563.304615 72.837618 563.518881 72.547666 563.733147 72.256556 563.947413 71.964295 564.161678 71.670889 564.375944 71.376345 564.590210 71.080670 564.804476 70.783870 565.018741 70.485952 565.233007 70.186922 565.447273 69.886788 565.661538 69.585555 565.875804 69.283230 566.090070 68.979820 566.304336 68.675332 566.518601 68.369772 566.732867 68.063147 566.947133 67.755463 567.161399 67.446727 567.375664 67.136946 567.589930 66.826125 567.804196 66.514273 568.018462 66.201395 568.232727 65.887499 568.446993 65.572589 568.661259 65.256675 568.875524 64.939761 569.089790 64.621855 569.304056 64.302962 569.518322 63.983091 569.732587 63.662247 569.946853 63.340437 570.161119 63.017668 570.375385 62.693946 570.589650 62.369277 570.803916 62.043669 571.018182 61.717129 571.232448 61.389662 571.446713 61.061275 571.660979 60.731975 571.875245 60.401769 572.089510 60.070663 572.303776 59.738664 572.518042 59.405778 572.732308 59.072012 572.946573 58.737373 573.160839 58.401867 573.375105 58.065501 573.589371 57.728281 573.803636 57.390214 574.017902 57.051308 574.232168 56.711567 574.446434 56.371000 574.660699 56.029612 574.874965 55.687410 575.089231 55.344401 575.303497 55.000591 575.517762 54.655988 575.732028 54.310597 575.946294 53.964425 576.160559 53.617479 576.374825 53.269766 576.589091 52.921292 576.803357 52.572064 577.017622 52.222087 577.231888 51.871370 577.446154 51.519919 577.660420 51.167739 577.874685 50.814839 578.088951 50.461224 578.303217 50.106901 578.517483 49.751876 578.731748 49.396157 578.946014 49.039750 579.160280 48.682661 579.374545 48.324898 579.588811 47.966466 579.803077 47.607372 580.017343 47.247624 580.231608 46.887227 580.445874 46.526188 580.660140 46.164514 580.874406 45.802212 581.088671 45.439287 581.302937 45.075748 581.517203 44.711599 581.731469 44.346849 581.945734 43.981503 582.160000 43.615568 582.374266 43.249051 582.588531 42.881958 582.802797 42.514296 583.017063 42.146072 583.231329 41.777292 583.445594 41.407963 583.659860 41.038091 583.874126 40.667684 584.088392 40.296747 584.302657 39.925287 584.516923 39.553312 584.731189 39.180826 584.945455 38.807839 585.159720 38.434354 585.373986 38.060380 585.588252 37.685924 585.802517 37.310990 586.016783 36.935587 586.231049 36.559721 586.445315 36.183399 586.659580 35.806626 586.873846 35.429410 587.088112 35.051758 587.302378 34.673675 587.516643 34.295169 587.730909 33.916246 587.945175 33.536913 588.159441 33.157176 588.373706 32.777043 588.587972 32.396519 588.802238 32.015611 589.016503 31.634326 589.230769 31.252670 589.445035 30.870651 589.659301 30.488274 589.873566 30.105547 590.087832 29.722475 590.302098 29.339067 590.516364 28.955327 590.730629 28.571263 590.944895 28.186882 591.159161 27.802189 591.373427 27.417193 591.587692 27.031898 591.801958 26.646312 592.016224 26.260442 592.230490 25.874294 592.444755 25.487875 592.659021 25.101191 592.873287 24.714249 593.087552 24.327056 593.301818 23.939617 593.516084 23.551941 593.730350 23.164033 593.944615 22.775900 594.158881 22.387549 594.373147 21.998986 594.587413 21.610217 594.801678 21.221251 595.015944 20.832092 595.230210 20.442749 595.444476 20.053226 595.658741 19.663532 595.873007 19.273672 596.087273 18.883653 596.301538 18.493482 596.515804 18.103166 596.730070 17.712711 596.944336 17.322123 597.158601 16.931410 597.372867 16.540577 597.587133 16.149632 597.801399 15.758582 598.015664 15.367432 598.229930 14.976189 598.444196 14.584860 598.658462 14.193452 598.872727 13.801971 599.086993 13.410424 599.301259 13.018818 599.515524 12.627158 599.729790 12.235452 599.944056 11.843707 600.158322 11.451928 600.372587 11.060123 600.586853 10.668298 600.801119 10.276460 601.015385 9.884615 601.015385 514.000000" /></g></g><g class="titles"><text class="title plot_title" x="400.0" y="26">Chit-Lom 53</text></g><g class="plot overlay" transform="translate(167, 46)"><g class="series serie-0 color-0"><g class="dots"><circle class="dot reactive tooltip-trigger" cx="11.784615384615384" cy="54.92041565484527" r="2.5" /><desc class="value">676165</desc><desc class="x ">11.784615384615384</desc><desc class="y ">54.92041565484527</desc><desc class="x_label">Jan</desc></g><g class="dots"><circle class="dot reactive tooltip-trigger" cx="65.35104895104894" cy="70.12842587857494" r="2.5" /><desc class="value">661661</desc><desc class="x ">65.35104895104894</desc><desc class="y ">70.12842587857494</desc><desc class="x_label">Feb</desc></g><g class="dots"><circle class="dot reactive tooltip-trigger" cx="118.9174825174825" cy="37.463289192153866" r="2.5" /><desc class="value">692814</desc><desc class="x ">118.9174825174825</desc><desc class="y ">37.463289192153866</desc><desc class="x_label">Mar</desc></g><g class="dots"><circle class="dot reactive tooltip-trigger" cx="172.48391608391609" cy="332.8692412289429" r="2.5" /><desc class="value">411083</desc><desc class="x top">172.48391608391609</desc><desc class="y top">332.8692412289429</desc><desc class="x_label">Apr</desc></g><g class="dots"><circle class="dot reactive tooltip-trigger" cx="226.05034965034966" cy="495.3435109612641" r="2.5" /><desc class="value">256130</desc><desc class="x top">226.05034965034966</desc><desc class="y top">495.3435109612641</desc><desc class="x_label">May</desc></g><g class="dots"><circle class="dot reactive tooltip-trigger" cx="279.6167832167832" cy="226.24750049465052" r="2.5" /><desc class="value">512769</desc><desc class="x ">279.6167832167832</desc><desc class="y ">226.24750049465052</desc><desc class="x_label">Jun</desc></g><g class="dots"><circle class="dot reactive tooltip-trigger" cx="333.1832167832167" cy="182.5789951314631" r="2.5" /><desc class="value">554416</desc><desc class="x left">333.1832167832167</desc><desc class="y left">182.5789951314631</desc><desc class="x_label">Jul</desc></g><g class="dots"><circle class="dot reactive tooltip-trigger" cx="386.74965034965027" cy="183.0424493867643" r="2.5" /><desc class="value">553974</desc><desc class="x left">386.74965034965027</desc><desc class="y left">183.0424493867643</desc><desc class="x_label">Aug</desc></g><g class="dots"><circle class="dot reactive tooltip-trigger" cx="440.31608391608387" cy="159.3727291171508" r="2.5" /><desc class="value">576548</desc><desc class="x left">440.31608391608387</desc><desc class="y left">159.3727291171508</desc><desc class="x_label">Sep</desc></g><g class="dots"><circle class="dot reactive tooltip-trigger" cx="493.8825174825174" cy="114.15553159314925" r="2.5" /><desc class="value">619672</desc><desc class="x left">493.8825174825174</desc><desc class="y left">114.15553159314925</desc><desc class="x_label">Oct</desc></g><g class="dots"><circle class="dot reactive tooltip-trigger" cx="547.448951048951" cy="90.61583016438948" r="2.5" /><desc class="value">642122</desc><desc class="x left">547.448951048951</desc><desc class="y left">90.61583016438948</desc><desc class="x_label">Nov</desc></g><g class="dots"><circle class="dot reactive tooltip-trigger" cx="601.0153846153845" cy="9.884615384615415" r="2.5" /><desc class="value">719116</desc><desc class="x left">601.0153846153845</desc><desc class="y left">9.884615384615415</desc><desc class="x_label">Dec</desc></g></g></g><g class="plot text-overlay" transform="translate(167, 46)"><g class="series serie-0 color-0" /></g><g class="plot tooltip-overlay" transform="translate(167, 46)"><g class="tooltip" style="opacity: 0" transform="translate(0 0)"><rect class="tooltip-box" height="0" rx="0" ry="0" width="0" /><g class="text" /></g></g><g class="legends" transform="translate(10, 56)"><g class="legend reactive activate-serie" id="activate-serie-0"><rect class="color-0 reactive" height="12" width="12" x="0.0" y="1.0" /><text x="17.0" y="11.2">Chit-Lom</text></g></g><g class="legends" transform="translate(790, 56)" /></g></svg>