<?xml version='1.0' encoding='utf-8'?>
<svg xmlns:xlink="http://www.w3.org/1999/xlink" class="pygal-chart" id="chart-db4a8a71-f9d9-4058-ae19-f2d9010241bd" viewBox="0 0 800 600" xmlns="http://www.w3.org/2000/svg"><!--Generated with pygal 2.0.11 (etree) ©Kozea 2011-2015 on 2015-12-10--><!--http://pygal.org--><!--http://github.com/Kozea/pygal--><defs><style type="text/css">#chart-db4a8a71-f9d9-4058-ae19-f2d9010241bd{-webkit-user-select:none;-webkit-font-smoothing:antialiased;font-family:Consolas,"Liberation Mono",Menlo,Courier,monospace}#chart-db4a8a71-f9d9-4058-ae19-f2d9010241bd .title{font-family:Consolas,"Liberation Mono",Menlo,Courier,monospace;font-size:16px}#chart-db4a8a71-f9d9-4058-ae19-f2d9010241bd .legends .legend text{font-family:Consolas,"Liberation Mono",Menlo,Courier,monospace;font-size:14px}#chart-db4a8a71-f9d9-4058-ae19-f2d9010241bd .axis text{font-family:Consolas,"Liberation Mono",Menlo,Courier,monospace;font-size:10px}#chart-db4a8a71-f9d9-4058-ae19-f2d9010241bd .axis text.major{font-family:Consolas,"Liberation Mono",Menlo,Courier,monospace;font-size:10px}#chart-db4a8a71-f9d9-4058-ae19-f2d9010241bd .text-overlay text.value{font-family:Consolas,"Liberation Mono",Menlo,Courier,monospace;font-size:16px}#chart-db4a8a71-f9d9-4058-ae19-f2d9010241bd .text-overlay text.label{font-family:Consolas,"Liberation Mono",Menlo,Courier,monospace;font-size:10px}#chart-db4a8a71-f9d9-4058-ae19-f2d9010241bd .tooltip{font-family:Consolas,"Liberation Mono",Menlo,Courier,monospace;font-size:14px}#chart-db4a8a71-f9d9-4058-ae19-f2d9010241bd text.no_data{font-family:Consolas,"Liberation Mono",Menlo,Courier,monospace;font-size:64px}
#chart-db4a8a71-f9d9-4058-ae19-f2d9010241bd{background-color:black}#chart-db4a8a71-f9d9-4058-ae19-f2d9010241bd path,#chart-db4a8a71-f9d9-4058-ae19-f2d9010241bd line,#chart-db4a8a71-f9d9-4058-ae19-f2d9010241bd rect,#chart-db4a8a71-f9d9-4058-ae19-f2d9010241bd circle{-webkit-transition:250ms;-moz-transition:250ms;transition:250ms}#chart-db4a8a71-f9d9-4058-ae19-f2d9010241bd .graph &gt; .background{fill:black}#chart-db4a8a71-f9d9-4058-ae19-f2d9010241bd .plot &gt; .background{fill:#111}#chart-db4a8a71-f9d9-4058-ae19-f2d9010241bd .graph{fill:#999}#chart-db4a8a71-f9d9-4058-ae19-f2d9010241bd text.no_data{fill:#eee}#chart-db4a8a71-f9d9-4058-ae19-f2d9010241bd .title{fill:#eee}#chart-db4a8a71-f9d9-4058-ae19-f2d9010241bd .legends .legend text{fill:#999}#chart-db4a8a71-f9d9-4058-ae19-f2d9010241bd .legends .legend:hover text{fill:#eee}#chart-db4a8a71-f9d9-4058-ae19-f2d9010241bd .axis .line{stroke:#eee}#chart-db4a8a71-f9d9-4058-ae19-f2d9010241bd .axis .guide.line{stroke:#555}#chart-db4a8a71-f9d9-4058-ae19-f2d9010241bd .axis .major.line{stroke:#999}#chart-db4a8a71-f9d9-4058-ae19-f2d9010241bd .axis text.major{fill:#eee}#chart-db4a8a71-f9d9-4058-ae19-f2d9010241bd .axis.y .guides:hover .guide.line,#chart-db4a8a71-f9d9-4058-ae19-f2d9010241bd .line-graph .axis.x .guides:hover .guide.line,#chart-db4a8a71-f9d9-4058-ae19-f2d9010241bd .stackedline-graph .axis.x .guides:hover .guide.line,#chart-db4a8a71-f9d9-4058-ae19-f2d9010241bd .xy-graph .axis.x .guides:hover .guide.line{stroke:#eee}#chart-db4a8a71-f9d9-4058-ae19-f2d9010241bd .axis .guides:hover text{fill:#eee}#chart-db4a8a71-f9d9-4058-ae19-f2d9010241bd .reactive{fill-opacity:.8}#chart-db4a8a71-f9d9-4058-ae19-f2d9010241bd .reactive.active,#chart-db4a8a71-f9d9-4058-ae19-f2d9010241bd .active .reactive{fill-opacity:.4;stroke-width:4}#chart-db4a8a71-f9d9-4058-ae19-f2d9010241bd .series text{fill:#eee}#chart-db4a8a71-f9d9-4058-ae19-f2d9010241bd .tooltip rect{fill:#111;stroke:#eee;-webkit-transition:opacity 250ms;-moz-transition:opacity 250ms;transition:opacity 250ms}#chart-db4a8a71-f9d9-4058-ae19-f2d9010241bd .tooltip .label{fill:#999}#chart-db4a8a71-f9d9-4058-ae19-f2d9010241bd .tooltip .label{fill:#999}#chart-db4a8a71-f9d9-4058-ae19-f2d9010241bd .tooltip .legend{font-size:.8em;fill:#555}#chart-db4a8a71-f9d9-4058-ae19-f2d9010241bd .tooltip .x_label{font-size:.6em;fill:#eee}#chart-db4a8a71-f9d9-4058-ae19-f2d9010241bd .tooltip .xlink{font-size:.5em;text-decoration:underline}#chart-db4a8a71-f9d9-4058-ae19-f2d9010241bd .tooltip .value{font-size:1.5em}#chart-db4a8a71-f9d9-4058-ae19-f2d9010241bd .map-element{fill:#111;stroke:#555 !important}#chart-db4a8a71-f9d9-4058-ae19-f2d9010241bd .map-element .reactive{fill-opacity:inherit}#chart-db4a8a71-f9d9-4058-ae19-f2d9010241bd .color-0,#chart-db4a8a71-f9d9-4058-ae19-f2d9010241bd .color-0 a:visited{stroke:#ff5995;fill:#ff5995}#chart-db4a8a71-f9d9-4058-ae19-f2d9010241bd .text-overlay .color-0 text{fill:black}
#chart-db4a8a71-f9d9-4058-ae19-f2d9010241bd text.no_data{text-anchor:middle}#chart-db4a8a71-f9d9-4058-ae19-f2d9010241bd .guide.line{fill:none}#chart-db4a8a71-f9d9-4058-ae19-f2d9010241bd .centered{text-anchor:middle}#chart-db4a8a71-f9d9-4058-ae19-f2d9010241bd .title{text-anchor:middle}#chart-db4a8a71-f9d9-4058-ae19-f2d9010241bd .legends .legend text{fill-opacity:1}#chart-db4a8a71-f9d9-4058-ae19-f2d9010241bd .axis.x text{text-anchor:middle}#chart-db4a8a71-f9d9-4058-ae19-f2d9010241bd .axis.x:not(.web) text[transform]{text-anchor:start}#chart-db4a8a71-f9d9-4058-ae19-f2d9010241bd .axis.x:not(.web) text[transform].backwards{text-anchor:end}#chart-db4a8a71-f9d9-4058-ae19-f2d9010241bd .axis.y text{text-anchor:end}#chart-db4a8a71-f9d9-4058-ae19-f2d9010241bd .axis.y text[transform].backwards{text-anchor:start}#chart-db4a8a71-f9d9-4058-ae19-f2d9010241bd .axis.y2 text{text-anchor:start}#chart-db4a8a71-f9d9-4058-ae19-f2d9010241bd .axis.y2 text[transform].backwards{text-anchor:end}#chart-db4a8a71-f9d9-4058-ae19-f2d9010241bd .axis .guide.line{stroke-dasharray:4,4}#chart-db4a8a71-f9d9-4058-ae19-f2d9010241bd .axis .major.guide.line{stroke-dasharray:6,6}#chart-db4a8a71-f9d9-4058-ae19-f2d9010241bd .horizontal .axis.y .guide.line,#chart-db4a8a71-f9d9-4058-ae19-f2d9010241bd .horizontal .axis.y2 .guide.line,#chart-db4a8a71-f9d9-4058-ae19-f2d9010241bd .vertical .axis.x .guide.line{opacity:0}#chart-db4a8a71-f9d9-4058-ae19-f2d9010241bd .horizontal .axis.always_show .guide.line,#chart-db4a8a71-f9d9-4058-ae19-f2d9010241bd .vertical .axis.always_show .guide.line{opacity:1 !important}#chart-db4a8a71-f9d9-4058-ae19-f2d9010241bd .axis.y .guides:hover .guide.line,#chart-db4a8a71-f9d9-4058-ae19-f2d9010241bd .axis.y2 .guides:hover .guide.line,#chart-db4a8a71-f9d9-4058-ae19-f2d9010241bd .axis.x .guides:hover .guide.line{opacity:1}#chart-db4a8a71-f9d9-4058-ae19-f2d9010241bd .axis .guides:hover text{opacity:1}#chart-db4a8a71-f9d9-4058-ae19-f2d9010241bd .nofill{fill:none}#chart-db4a8a71-f9d9-4058-ae19-f2d9010241bd .subtle-fill{fill-opacity:.2}#chart-db4a8a71-f9d9-4058-ae19-f2d9010241bd .dot{stroke-width:1px;fill-opacity:1}#chart-db4a8a71-f9d9-4058-ae19-f2d9010241bd .dot.active{stroke-width:5px}#chart-db4a8a71-f9d9-4058-ae19-f2d9010241bd .dot.negative{fill:transparent}#chart-db4a8a71-f9d9-4058-ae19-f2d9010241bd text,#chart-db4a8a71-f9d9-4058-ae19-f2d9010241bd tspan{stroke:none !important}#chart-db4a8a71-f9d9-4058-ae19-f2d9010241bd .series text.active{opacity:1}#chart-db4a8a71-f9d9-4058-ae19-f2d9010241bd .tooltip rect{fill-opacity:.95;stroke-width:.5}#chart-db4a8a71-f9d9-4058-ae19-f2d9010241bd .tooltip text{fill-opacity:1}#chart-db4a8a71-f9d9-4058-ae19-f2d9010241bd .showable{visibility:hidden}#chart-db4a8a71-f9d9-4058-ae19-f2d9010241bd .showable.shown{visibility:visible}</style><script type="text/javascript">window.pygal = window.pygal || {};window.pygal.config = window.pygal.config || {};window.pygal.config['db4a8a71-f9d9-4058-ae19-f2d9010241bd'] = {"value_formatter": null, "stroke_style": null, "show_minor_y_labels": true, "truncate_label": null, "explicit_size": false, "x_labels_major_every": null, "margin_right": null, "height": 600, "max_scale": 16, "x_labels_major_count": null, "logarithmic": false, "show_only_major_dots": false, "y_labels_major_count": null, "title": "Ekkamai 53", "force_uri_protocol": null, "width": 800, "x_value_formatter": null, "half_pie": false, "show_x_guides": false, "style": {"background": "black", "major_guide_stroke_dasharray": "6,6", "no_data_font_size": 64, "no_data_font_family": "Consolas, \"Liberation Mono\", Menlo, Courier, monospace", "value_label_font_family": "Consolas, \"Liberation Mono\", Menlo, Courier, monospace", "value_font_size": 16, "legend_font_size": 14, "transition": "250ms", "value_colors": [], "foreground": "#999", "opacity_hover": ".4", "label_font_family": "Consolas, \"Liberation Mono\", Menlo, Courier, monospace", "major_label_font_size": 10, "opacity": ".8", "major_label_font_family": "Consolas, \"Liberation Mono\", Menlo, Courier, monospace", "tooltip_font_family": "Consolas, \"Liberation Mono\", Menlo, Courier, monospace", "font_family": "Consolas, \"Liberation Mono\", Menlo, Courier, monospace", "value_font_family": "Consolas, \"Liberation Mono\", Menlo, Courier, monospace", "colors": ["#ff5995", "#b6e354", "#feed6c", "#8cedff", "#9e6ffe", "#899ca1", "#f8f8f2", "#bf4646", "#516083", "#f92672", "#82b414", "#fd971f", "#56c2d6", "#808384", "#8c54fe", "#465457"], "title_font_size": 16, "foreground_subtle": "#555", "legend_font_family": "Consolas, \"Liberation Mono\", Menlo, Courier, monospace", "plot_background": "#111", "guide_stroke_dasharray": "4,4", "tooltip_font_size": 14, "foreground_strong": "#eee", "label_font_size": 10, "value_label_font_size": 10, "title_font_family": "Consolas, \"Liberation Mono\", Menlo, Courier, monospace"}, "include_x_axis": false, "stroke": true, "interpolation_precision": 250, "inverse_y_axis": false, "js": ["//kozea.github.io/pygal.js/2.0.x/pygal-tooltips.min.js"], "human_readable": false, "y_labels": null, "missing_value_fill_truncation": "x", "no_prefix": false, "disable_xml_declaration": false, "show_y_guides": true, "no_data_text": "No data", "margin": 20, "show_legend": true, "print_zeroes": true, "spacing": 10, "legend_box_size": 12, "tooltip_border_radius": 0, "legends": ["Ekkamai"], "y_label_rotation": 0, "order_min": null, "min_scale": 4, "y_labels_major": null, "secondary_range": null, "x_title": null, "show_x_labels": true, "defs": [], "y_title": null, "x_labels": ["Jan", "Feb", "Mar", "Apr", "May", "Jun", "Jul", "Aug", "Sep", "Oct", "Nov", "Dec"], "stack_from_top": false, "print_values": false, "truncate_legend": null, "x_labels_major": null, "css": ["file://style.css", "file://graph.css"], "dots_size": 2.5, "show_y_labels": true, "interpolate": "cubic", "margin_left": null, "print_labels": false, "y_labels_major_every": null, "margin_top": null, "show_minor_x_labels": true, "legend_at_bottom_columns": null, "fill": true, "xrange": null, "strict": false, "zero": 0, "tooltip_fancy_mode": true, "interpolation_parameters": {}, "x_label_rotation": 0, "show_dots": true, "legend_at_bottom": false, "inner_radius": 0, "rounded_bars": null, "range": null, "margin_bottom": null, "box_mode": "extremes", "dynamic_print_values": false, "pretty_print": false}</script><script type="text/javascript" xlink:href="//kozea.github.io/pygal.js/2.0.x/pygal-tooltips.min.js" /></defs><title>Ekkamai 53</title><g class="graph line-graph vertical"><rect class="background" height="600" width="800" x="0" y="0" /><g class="plot" transform="translate(158, 46)"><rect class="background" height="514" width="621.2" x="0" y="0" /><g class="axis y"><path class="line" d="M0.000000 514.000000 h621.200000" /><g class="guides"><path class="guide line" d="M0.000000 468.955179 h621.200000" /><text class="" x="-5" y="472.4551787178938">190000.0</text><title>190000.0</title></g><g class="guides"><path class="major guide line" d="M0.000000 429.768230 h621.200000" /><text class="major" x="-5" y="433.26822969338383">200000.0</text><title>200000.0</title></g><g class="guides"><path class="guide line" d="M0.000000 390.581281 h621.200000" /><text class="" x="-5" y="394.0812806688739">210000.0</text><title>210000.0</title></g><g class="guides"><path class="guide line" d="M0.000000 351.394332 h621.200000" /><text class="" x="-5" y="354.89433164436394">220000.0</text><title>220000.0</title></g><g class="guides"><path class="guide line" d="M0.000000 312.207383 h621.200000" /><text class="" x="-5" y="315.707382619854">230000.0</text><title>230000.0</title></g><g class="guides"><path class="guide line" d="M0.000000 273.020434 h621.200000" /><text class="" x="-5" y="276.52043359534406">240000.0</text><title>240000.0</title></g><g class="guides"><path class="major guide line" d="M0.000000 233.833485 h621.200000" /><text class="major" x="-5" y="237.33348457083412">250000.0</text><title>250000.0</title></g><g class="guides"><path class="guide line" d="M0.000000 194.646536 h621.200000" /><text class="" x="-5" y="198.14653554632417">260000.0</text><title>260000.0</title></g><g class="guides"><path class="guide line" d="M0.000000 155.459587 h621.200000" /><text class="" x="-5" y="158.95958652181423">270000.0</text><title>270000.0</title></g><g class="guides"><path class="guide line" d="M0.000000 116.272637 h621.200000" /><text class="" x="-5" y="119.77263749730423">280000.0</text><title>280000.0</title></g><g class="guides"><path class="guide line" d="M0.000000 77.085688 h621.200000" /><text class="" x="-5" y="80.58568847279429">290000.0</text><title>290000.0</title></g><g class="guides"><path class="major guide line" d="M0.000000 37.898739 h621.200000" /><text class="major" x="-5" y="41.398739448284346">300000.0</text><title>300000.0</title></g></g><g class="axis x"><g class="guides"><path class="line" d="M11.946154 0.000000 v514.000000" /><text class="" x="11.946153846153846" y="529.0">Jan</text></g><g class="guides"><path class="guide line" d="M66.246853 0.000000 v514.000000" /><text class="" x="66.24685314685314" y="529.0">Feb</text></g><g class="guides"><path class="guide line" d="M120.547552 0.000000 v514.000000" /><text class="" x="120.54755244755245" y="529.0">Mar</text></g><g class="guides"><path class="guide line" d="M174.848252 0.000000 v514.000000" /><text class="" x="174.84825174825176" y="529.0">Apr</text></g><g class="guides"><path class="guide line" d="M229.148951 0.000000 v514.000000" /><text class="" x="229.14895104895106" y="529.0">May</text></g><g class="guides"><path class="guide line" d="M283.449650 0.000000 v514.000000" /><text class="" x="283.44965034965037" y="529.0">Jun</text></g><g class="guides"><path class="guide line" d="M337.750350 0.000000 v514.000000" /><text class="" x="337.7503496503497" y="529.0">Jul</text></g><g class="guides"><path class="guide line" d="M392.051049 0.000000 v514.000000" /><text class="" x="392.051048951049" y="529.0">Aug</text></g><g class="guides"><path class="guide line" d="M446.351748 0.000000 v514.000000" /><text class="" x="446.3517482517483" y="529.0">Sep</text></g><g class="guides"><path class="guide line" d="M500.652448 0.000000 v514.000000" /><text class="" x="500.6524475524476" y="529.0">Oct</text></g><g class="guides"><path class="guide line" d="M554.953147 0.000000 v514.000000" /><text class="" x="554.9531468531468" y="529.0">Nov</text></g><g class="guides"><path class="guide line" d="M609.253846 0.000000 v514.000000" /><text class="" x="609.2538461538462" y="529.0">Dec</text></g></g><g class="series serie-0 color-0"><path class="line reactive" d="M11.946154 514.000000 L11.946154 26.640329 12.163357 26.997384 12.380559 27.354423 12.597762 27.711430 12.814965 28.068389 13.032168 28.425284 13.249371 28.782098 13.466573 29.138817 13.683776 29.495423 13.900979 29.851900 14.118182 30.208234 14.335385 30.564407 14.552587 30.920404 14.769790 31.276208 14.986993 31.631804 15.204196 31.987176 15.421399 32.342306 15.638601 32.697181 15.855804 33.051782 16.073007 33.406095 16.290210 33.760104 16.507413 34.113792 16.724615 34.467143 16.941818 34.820141 17.159021 35.172770 17.376224 35.525015 17.593427 35.876858 17.810629 36.228285 18.027832 36.579279 18.245035 36.929824 18.462238 37.279904 18.679441 37.629502 18.896643 37.978604 19.113846 38.327192 19.331049 38.675252 19.548252 39.022766 19.765455 39.369719 19.982657 39.716095 20.199860 40.061877 20.417063 40.407050 20.634266 40.751598 20.851469 41.095504 21.068671 41.438753 21.285874 41.781328 21.503077 42.123214 21.720280 42.464395 21.937483 42.804853 22.154685 43.144574 22.371888 43.483542 22.589091 43.821740 22.806294 44.159152 23.023497 44.495762 23.240699 44.831555 23.457902 45.166513 23.675105 45.500622 23.892308 45.833865 24.109510 46.166226 24.326713 46.497689 24.543916 46.828238 24.761119 47.157857 24.978322 47.486530 25.195524 47.814241 25.412727 48.140974 25.629930 48.466712 25.847133 48.791440 26.064336 49.115142 26.281538 49.437802 26.498741 49.759404 26.715944 50.079931 26.933147 50.399367 27.150350 50.717698 27.367552 51.034906 27.584755 51.350975 27.801958 51.665890 28.019161 51.979634 28.236364 52.292192 28.453566 52.603547 28.670769 52.913683 28.887972 53.222585 29.105175 53.530235 29.322378 53.836620 29.539580 54.141721 29.756783 54.445523 29.973986 54.748011 30.191189 55.049168 30.408392 55.348977 30.625594 55.647424 30.842797 55.944492 31.060000 56.240165 31.277203 56.534426 31.494406 56.827261 31.711608 57.118652 31.928811 57.408584 32.146014 57.697041 32.363217 57.984007 32.580420 58.269465 32.797622 58.553400 33.014825 58.835795 33.232028 59.116636 33.449231 59.395904 33.666434 59.673586 33.883636 59.949663 34.100839 60.224122 34.318042 60.496944 34.535245 60.768115 34.752448 61.037619 34.969650 61.305438 35.186853 61.571558 35.404056 61.835963 35.621259 62.098635 35.838462 62.359560 36.055664 62.618720 36.272867 62.876101 36.490070 63.131686 36.707273 63.385459 36.924476 63.637404 37.141678 63.887505 37.358881 64.135746 37.576084 64.382110 37.793287 64.626583 38.010490 64.869147 38.227692 65.109788 38.444895 65.348487 38.662098 65.585231 38.879301 65.820002 39.096503 66.052785 39.313706 66.283564 39.530909 66.512322 39.748112 66.739044 39.965315 66.963713 40.182517 67.186314 40.399720 67.406830 40.616923 67.625245 40.834126 67.841544 41.051329 68.055710 41.268531 68.267728 41.485734 68.477581 41.702937 68.685253 41.920140 68.890728 42.137343 69.093990 42.354545 69.295024 42.571748 69.493812 42.788951 69.690340 43.006154 69.884590 43.223357 70.076548 43.440559 70.266197 43.657762 70.453520 43.874965 70.638502 44.092168 70.821127 44.309371 71.001379 44.526573 71.179242 44.743776 71.354700 44.960979 71.527736 45.178182 71.698335 45.395385 71.866480 45.612587 72.032156 45.829790 72.195347 46.046993 72.356036 46.264196 72.514207 46.481399 72.669845 46.698601 72.822934 46.915804 72.973457 47.133007 73.121398 47.350210 73.266741 47.567413 73.409471 47.784615 73.549571 48.001818 73.687026 48.219021 73.821818 48.436224 73.953933 48.653427 74.083353 48.870629 74.210064 49.087832 74.334049 49.305035 74.455291 49.522238 74.573776 49.739441 74.689487 49.956643 74.802407 50.173846 74.912522 50.391049 75.019814 50.608252 75.124268 50.825455 75.225868 51.042657 75.324597 51.259860 75.420440 51.477063 75.513381 51.694266 75.603403 51.911469 75.690491 52.128671 75.774629 52.345874 75.855800 52.563077 75.933988 52.780280 76.009178 52.997483 76.081353 53.214685 76.150498 53.431888 76.216596 53.649091 76.279631 53.866294 76.339588 54.083497 76.396450 54.300699 76.450201 54.517902 76.500825 54.735105 76.548306 54.952308 76.592628 55.169510 76.633776 55.386713 76.671732 55.603916 76.706482 55.821119 76.738008 56.038322 76.766295 56.255524 76.791327 56.472727 76.813088 56.689930 76.831562 56.907133 76.846732 57.124336 76.858584 57.341538 76.867100 57.558741 76.872264 57.775944 76.874061 57.993147 76.872475 58.210350 76.867489 58.427552 76.859088 58.644755 76.847256 58.861958 76.831976 59.079161 76.813232 59.296364 76.791008 59.513566 76.765289 59.730769 76.736059 59.947972 76.703300 60.165175 76.666998 60.382378 76.627136 60.599580 76.583698 60.816783 76.536668 61.033986 76.486031 61.251189 76.431769 61.468392 76.373868 61.685594 76.312310 61.902797 76.247081 62.120000 76.178163 62.337203 76.105541 62.554406 76.029200 62.771608 75.949121 62.988811 75.865291 63.206014 75.777693 63.423217 75.686310 63.640420 75.591127 63.857622 75.492127 64.074825 75.389295 64.292028 75.282615 64.509231 75.172070 64.726434 75.057645 64.943636 74.939323 65.160839 74.817089 65.378042 74.690926 65.595245 74.560818 65.812448 74.426750 66.029650 74.288705 66.246853 74.146667 66.464056 74.000631 66.681259 73.850631 66.898462 73.696711 67.115664 73.538917 67.332867 73.377293 67.550070 73.211885 67.767273 73.042736 67.984476 72.869892 68.201678 72.693397 68.418881 72.513297 68.636084 72.329636 68.853287 72.142458 69.070490 71.951809 69.287692 71.757734 69.504895 71.560276 69.722098 71.359482 69.939301 71.155395 70.156503 70.948060 70.373706 70.737523 70.590909 70.523828 70.808112 70.307019 71.025315 70.087143 71.242517 69.864242 71.459720 69.638363 71.676923 69.409549 71.894126 69.177847 72.111329 68.943299 72.328531 68.705952 72.545734 68.465850 72.762937 68.223038 72.980140 67.977560 73.197343 67.729462 73.414545 67.478788 73.631748 67.225583 73.848951 66.969891 74.066154 66.711758 74.283357 66.451228 74.500559 66.188347 74.717762 65.923158 74.934965 65.655706 75.152168 65.386037 75.369371 65.114196 75.586573 64.840226 75.803776 64.564172 76.020979 64.286081 76.238182 64.005995 76.455385 63.723961 76.672587 63.440022 76.889790 63.154224 77.106993 62.866612 77.324196 62.577229 77.541399 62.286122 77.758601 61.993334 77.975804 61.698910 78.193007 61.402896 78.410210 61.105336 78.627413 60.806275 78.844615 60.505757 79.061818 60.203828 79.279021 59.900532 79.496224 59.595914 79.713427 59.290019 79.930629 58.982891 80.147832 58.674575 80.365035 58.365117 80.582238 58.054560 80.799441 57.742950 81.016643 57.430331 81.233846 57.116749 81.451049 56.802247 81.668252 56.486871 81.885455 56.170666 82.102657 55.853676 82.319860 55.535946 82.537063 55.217520 82.754266 54.898445 82.971469 54.578764 83.188671 54.258522 83.405874 53.937764 83.623077 53.616534 83.840280 53.294879 84.057483 52.972841 84.274685 52.650467 84.491888 52.327800 84.709091 52.004886 84.926294 51.681770 85.143497 51.358495 85.360699 51.035108 85.577902 50.711652 85.795105 50.388173 86.012308 50.064715 86.229510 49.741324 86.446713 49.418043 86.663916 49.094917 86.881119 48.771993 87.098322 48.449313 87.315524 48.126923 87.532727 47.804868 87.749930 47.483193 87.967133 47.161942 88.184336 46.841160 88.401538 46.520892 88.618741 46.201182 88.835944 45.882076 89.053147 45.563618 89.270350 45.245853 89.487552 44.928826 89.704755 44.612582 89.921958 44.297164 90.139161 43.982619 90.356364 43.668991 90.573566 43.356324 90.790769 43.044664 91.007972 42.734055 91.225175 42.424542 91.442378 42.116170 91.659580 41.808983 91.876783 41.503027 92.093986 41.198345 92.311189 40.894984 92.528392 40.592987 92.745594 40.292400 92.962797 39.993267 93.180000 39.695633 93.397203 39.399542 93.614406 39.105040 93.831608 38.812172 94.048811 38.520982 94.266014 38.231514 94.483217 37.943814 94.700420 37.657927 94.917622 37.373897 95.134825 37.091769 95.352028 36.811587 95.569231 36.533398 95.786434 36.257244 96.003636 35.983172 96.220839 35.711226 96.438042 35.441450 96.655245 35.173889 96.872448 34.908589 97.089650 34.645594 97.306853 34.384949 97.524056 34.126698 97.741259 33.870887 97.958462 33.617560 98.175664 33.366761 98.392867 33.118537 98.610070 32.872931 98.827273 32.629988 99.044476 32.389753 99.261678 32.152271 99.478881 31.917586 99.696084 31.685744 99.913287 31.456789 100.130490 31.230766 100.347692 31.007719 100.564895 30.787694 100.782098 30.570736 100.999301 30.356888 101.216503 30.146196 101.433706 29.938705 101.650909 29.734459 101.868112 29.533503 102.085315 29.335882 102.302517 29.141641 102.519720 28.950824 102.736923 28.763476 102.954126 28.579643 103.171329 28.399368 103.388531 28.222697 103.605734 28.049675 103.822937 27.880345 104.040140 27.714753 104.257343 27.552945 104.474545 27.394963 104.691748 27.240854 104.908951 27.090662 105.126154 26.944432 105.343357 26.802208 105.560559 26.664036 105.777762 26.529959 105.994965 26.400024 106.212168 26.274275 106.429371 26.152756 106.646573 26.035512 106.863776 25.922588 107.080979 25.814029 107.298182 25.709880 107.515385 25.610185 107.732587 25.514990 107.949790 25.424338 108.166993 25.338275 108.384196 25.256845 108.601399 25.180094 108.818601 25.108066 109.035804 25.040805 109.253007 24.978358 109.470210 24.920767 109.687413 24.868079 109.904615 24.820338 110.121818 24.777588 110.339021 24.739875 110.556224 24.707243 110.773427 24.679738 110.990629 24.657403 111.207832 24.640284 111.425035 24.628425 111.642238 24.621871 111.859441 24.620668 112.076643 24.624859 112.293846 24.634489 112.511049 24.649604 112.728252 24.670248 112.945455 24.696466 113.162657 24.728302 113.379860 24.765802 113.597063 24.809010 113.814266 24.857971 114.031469 24.912730 114.248671 24.973331 114.465874 25.039820 114.683077 25.112241 114.900280 25.190638 115.117483 25.275057 115.334685 25.365543 115.551888 25.462140 115.769091 25.564892 115.986294 25.673846 116.203497 25.789045 116.420699 25.910534 116.637902 26.038358 116.855105 26.172563 117.072308 26.313192 117.289510 26.460290 117.506713 26.613903 117.723916 26.774074 117.941119 26.940849 118.158322 27.114273 118.375524 27.294390 118.592727 27.481246 118.809930 27.674884 119.027133 27.875349 119.244336 28.082688 119.461538 28.296943 119.678741 28.518160 119.895944 28.746385 120.113147 28.981660 120.330350 29.224032 120.547552 29.473545 120.764755 29.730234 120.981958 29.994090 121.199161 30.265097 121.416364 30.543236 121.633566 30.828488 121.850769 31.120837 122.067972 31.420264 122.285175 31.726751 122.502378 32.040281 122.719580 32.360835 122.936783 32.688396 123.153986 33.022945 123.371189 33.364464 123.588392 33.712936 123.805594 34.068343 124.022797 34.430667 124.240000 34.799889 124.457203 35.175992 124.674406 35.558958 124.891608 35.948769 125.108811 36.345407 125.326014 36.748855 125.543217 37.159093 125.760420 37.576104 125.977622 37.999871 126.194825 38.430375 126.412028 38.867598 126.629231 39.311523 126.846434 39.762131 127.063636 40.219405 127.280839 40.683326 127.498042 41.153877 127.715245 41.631040 127.932448 42.114796 128.149650 42.605128 128.366853 43.102018 128.584056 43.605448 128.801259 44.115400 129.018462 44.631856 129.235664 45.154798 129.452867 45.684208 129.670070 46.220068 129.887273 46.762361 130.104476 47.311068 130.321678 47.866171 130.538881 48.427653 130.756084 48.995495 130.973287 49.569680 131.190490 50.150189 131.407692 50.737005 131.624895 51.330110 131.842098 51.929485 132.059301 52.535113 132.276503 53.146977 132.493706 53.765057 132.710909 54.389336 132.928112 55.019796 133.145315 55.656419 133.362517 56.299187 133.579720 56.948083 133.796923 57.603088 134.014126 58.264184 134.231329 58.931353 134.448531 59.604578 134.665734 60.283841 134.882937 60.969123 135.100140 61.660406 135.317343 62.357674 135.534545 63.060907 135.751748 63.770088 135.968951 64.485198 136.186154 65.206221 136.403357 65.933137 136.620559 66.665930 136.837762 67.404580 137.054965 68.149071 137.272168 68.899384 137.489371 69.655501 137.706573 70.417404 137.923776 71.185076 138.140979 71.958498 138.358182 72.737653 138.575385 73.522522 138.792587 74.313087 139.009790 75.109332 139.226993 75.911237 139.444196 76.718784 139.661399 77.531957 139.878601 78.350736 140.095804 79.175104 140.313007 80.005044 140.530210 80.840536 140.747413 81.681563 140.964615 82.528108 141.181818 83.380151 141.399021 84.237676 141.616224 85.100664 141.833427 85.969098 142.050629 86.842959 142.267832 87.722229 142.485035 88.606891 142.702238 89.496927 142.919441 90.392318 143.136643 91.293047 143.353846 92.199096 143.571049 93.110446 143.788252 94.027080 144.005455 94.948981 144.222657 95.876129 144.439860 96.808507 144.657063 97.746097 144.874266 98.688882 145.091469 99.636843 145.308671 100.589962 145.525874 101.548221 145.743077 102.511603 145.960280 103.480089 146.177483 104.453662 146.394685 105.432303 146.611888 106.415994 146.829091 107.404719 147.046294 108.398458 147.263497 109.397194 147.480699 110.400909 147.697902 111.409584 147.915105 112.423203 148.132308 113.441746 148.349510 114.465197 148.566713 115.493537 148.783916 116.526748 149.001119 117.564812 149.218322 118.607711 149.435524 119.655428 149.652727 120.707944 149.869930 121.765242 150.087133 122.827303 150.304336 123.894109 150.521538 124.965644 150.738741 126.041888 150.955944 127.122823 151.173147 128.208433 151.390350 129.298698 151.607552 130.393601 151.824755 131.493124 152.041958 132.597250 152.259161 133.705959 152.476364 134.819234 152.693566 135.937058 152.910769 137.059412 153.127972 138.186278 153.345175 139.317638 153.562378 140.453475 153.779580 141.593770 153.996783 142.738506 154.213986 143.887665 154.431189 145.041228 154.648392 146.199178 154.865594 147.361496 155.082797 148.528166 155.300000 149.699168 155.517203 150.874485 155.734406 152.054099 155.951608 153.237992 156.168811 154.426146 156.386014 155.618544 156.603217 156.815166 156.820420 158.015996 157.037622 159.221015 157.254825 160.430205 157.472028 161.643549 157.689231 162.861029 157.906434 164.082626 158.123636 165.308322 158.340839 166.538100 158.558042 167.771942 158.775245 169.009830 158.992448 170.251746 159.209650 171.497671 159.426853 172.747588 159.644056 174.001479 159.861259 175.259327 160.078462 176.521112 160.295664 177.786818 160.512867 179.056426 160.730070 180.329918 160.947273 181.607276 161.164476 182.888483 161.381678 184.173520 161.598881 185.462370 161.816084 186.755014 162.033287 188.051435 162.250490 189.351615 162.467692 190.655535 162.684895 191.963178 162.902098 193.274526 163.119301 194.589561 163.336503 195.908265 163.553706 197.230620 163.770909 198.556607 163.988112 199.886210 164.205315 201.219411 164.422517 202.556190 164.639720 203.896531 164.856923 205.240415 165.074126 206.587824 165.291329 207.938741 165.508531 209.293147 165.725734 210.651025 165.942937 212.012357 166.160140 213.377124 166.377343 214.745309 166.594545 216.116894 166.811748 217.491861 167.028951 218.870191 167.246154 220.251868 167.463357 221.636873 167.680559 223.025187 167.897762 224.416794 168.114965 225.811675 168.332168 227.209812 168.549371 228.611188 168.766573 230.015784 168.983776 231.423582 169.200979 232.834565 169.418182 234.248714 169.635385 235.666012 169.852587 237.086441 170.069790 238.509982 170.286993 239.936618 170.504196 241.366331 170.721399 242.799103 170.938601 244.234915 171.155804 245.673751 171.373007 247.115592 171.590210 248.560420 171.807413 250.008217 172.024615 251.458965 172.241818 252.912646 172.459021 254.369243 172.676224 255.828737 172.893427 257.291111 173.110629 258.756346 173.327832 260.224424 173.545035 261.695328 173.762238 263.169040 173.979441 264.645542 174.196643 266.124815 174.413846 267.606843 174.631049 269.091606 174.848252 270.579087 175.065455 272.069256 175.282657 273.562035 175.499860 275.057334 175.717063 276.555063 175.934266 278.055133 176.151469 279.557453 176.368671 281.061934 176.585874 282.568484 176.803077 284.077016 177.020280 285.587438 177.237483 287.099661 177.454685 288.613594 177.671888 290.129148 177.889091 291.646233 178.106294 293.164759 178.323497 294.684636 178.540699 296.205774 178.757902 297.728083 178.975105 299.251473 179.192308 300.775854 179.409510 302.301137 179.626713 303.827231 179.843916 305.354047 180.061119 306.881494 180.278322 308.409482 180.495524 309.937923 180.712727 311.466725 180.929930 312.995798 181.147133 314.525054 181.364336 316.054401 181.581538 317.583750 181.798741 319.113012 182.015944 320.642095 182.233147 322.170911 182.450350 323.699369 182.667552 325.227379 182.884755 326.754851 183.101958 328.281696 183.319161 329.807823 183.536364 331.333143 183.753566 332.857566 183.970769 334.381001 184.187972 335.903359 184.405175 337.424550 184.622378 338.944483 184.839580 340.463070 185.056783 341.980219 185.273986 343.495842 185.491189 345.009847 185.708392 346.522146 185.925594 348.032648 186.142797 349.541264 186.360000 351.047903 186.577203 352.552475 186.794406 354.054891 187.011608 355.555060 187.228811 357.052893 187.446014 358.548300 187.663217 360.041190 187.880420 361.531475 188.097622 363.019063 188.314825 364.503865 188.532028 365.985791 188.749231 367.464752 188.966434 368.940656 189.183636 370.413415 189.400839 371.882938 189.618042 373.349136 189.835245 374.811918 190.052448 376.271194 190.269650 377.726875 190.486853 379.178870 190.704056 380.627091 190.921259 382.071446 191.138462 383.511845 191.355664 384.948200 191.572867 386.380420 191.790070 387.808414 192.007273 389.232094 192.224476 390.651369 192.441678 392.066149 192.658881 393.476345 192.876084 394.881865 193.093287 396.282621 193.310490 397.678523 193.527692 399.069480 193.744895 400.455403 193.962098 401.836201 194.179301 403.211785 194.396503 404.582065 194.613706 405.946951 194.830909 407.306353 195.048112 408.660180 195.265315 410.008344 195.482517 411.350754 195.699720 412.687320 195.916923 414.017952 196.134126 415.342561 196.351329 416.661056 196.568531 417.973347 196.785734 419.279345 197.002937 420.578960 197.220140 421.872101 197.437343 423.158679 197.654545 424.438604 197.871748 425.711785 198.088951 426.978134 198.306154 428.237559 198.523357 429.489971 198.740559 430.735281 198.957762 431.973398 199.174965 433.204231 199.392168 434.427693 199.609371 435.643691 199.826573 436.852137 200.043776 438.052941 200.260979 439.246012 200.478182 440.431260 200.695385 441.608597 200.912587 442.777931 201.129790 443.939173 201.346993 445.092232 201.564196 446.237020 201.781399 447.373446 201.998601 448.501419 202.215804 449.620851 202.433007 450.731652 202.650210 451.833730 202.867413 452.926997 203.084615 454.011362 203.301818 455.086735 203.519021 456.153028 203.736224 457.210148 203.953427 458.258008 204.170629 459.296516 204.387832 460.325583 204.605035 461.345118 204.822238 462.355033 205.039441 463.355237 205.256643 464.345639 205.473846 465.326151 205.691049 466.296682 205.908252 467.257143 206.125455 468.207442 206.342657 469.147491 206.559860 470.077200 206.777063 470.996477 206.994266 471.905235 207.211469 472.803382 207.428671 473.690829 207.645874 474.567485 207.863077 475.433262 208.080280 476.288068 208.297483 477.131814 208.514685 477.964411 208.731888 478.785767 208.949091 479.595794 209.166294 480.394400 209.383497 481.181497 209.600699 481.956995 209.817902 482.720803 210.035105 483.472831 210.252308 484.212990 210.469510 484.941189 210.686713 485.657339 210.903916 486.361350 211.121119 487.053132 211.338322 487.732595 211.555524 488.399648 211.772727 489.054203 211.989930 489.696168 212.207133 490.325455 212.424336 490.941973 212.641538 491.545632 212.858741 492.136343 213.075944 492.714015 213.293147 493.278558 213.510350 493.829883 213.727552 494.367899 213.944755 494.892518 214.161958 495.403647 214.379161 495.901199 214.596364 496.385083 214.813566 496.855208 215.030769 497.311485 215.247972 497.753825 215.465175 498.182136 215.682378 498.596330 215.899580 498.996316 216.116783 499.382004 216.333986 499.753305 216.551189 500.110128 216.768392 500.452384 216.985594 500.779982 217.202797 501.092833 217.420000 501.390846 217.637203 501.673933 217.854406 501.942002 218.071608 502.194964 218.288811 502.432729 218.506014 502.655206 218.723217 502.862308 218.940420 503.053942 219.157622 503.230019 219.374825 503.390450 219.592028 503.535144 219.809231 503.664011 220.026434 503.776962 220.243636 503.873907 220.460839 503.954755 220.678042 504.019417 220.895245 504.067802 221.112448 504.099821 221.329650 504.115385 221.546853 504.114402 221.764056 504.096783 221.981259 504.062438 222.198462 504.011277 222.415664 503.943211 222.632867 503.858149 222.850070 503.756001 223.067273 503.636677 223.284476 503.500088 223.501678 503.346143 223.718881 503.174754 223.936084 502.985828 224.153287 502.779278 224.370490 502.555012 224.587692 502.312941 224.804895 502.052975 225.022098 501.775024 225.239301 501.478998 225.456503 501.164807 225.673706 500.832361 225.890909 500.481570 226.108112 500.112345 226.325315 499.724595 226.542517 499.318231 226.759720 498.893162 226.976923 498.449299 227.194126 497.986551 227.411329 497.504829 227.628531 497.004042 227.845734 496.484102 228.062937 495.944917 228.280140 495.386399 228.497343 494.808456 228.714545 494.211000 228.931748 493.593939 229.148951 492.957185 229.366154 492.300685 229.583357 491.624540 229.800559 490.928890 230.017762 490.213871 230.234965 489.479624 230.452168 488.726287 230.669371 487.953999 230.886573 487.162898 231.103776 486.353124 231.320979 485.524814 231.538182 484.678109 231.755385 483.813146 231.972587 482.930065 232.189790 482.029003 232.406993 481.110101 232.624196 480.173496 232.841399 479.219327 233.058601 478.247734 233.275804 477.258854 233.493007 476.252827 233.710210 475.229792 233.927413 474.189887 234.144615 473.133250 234.361818 472.060021 234.579021 470.970339 234.796224 469.864342 235.013427 468.742168 235.230629 467.603958 235.447832 466.449849 235.665035 465.279980 235.882238 464.094490 236.099441 462.893518 236.316643 461.677202 236.533846 460.445681 236.751049 459.199095 236.968252 457.937581 237.185455 456.661278 237.402657 455.370326 237.619860 454.064863 237.837063 452.745028 238.054266 451.410959 238.271469 450.062795 238.488671 448.700675 238.705874 447.324739 238.923077 445.935123 239.140280 444.531968 239.357483 443.115412 239.574685 441.685594 239.791888 440.242653 240.009091 438.786726 240.226294 437.317954 240.443497 435.836475 240.660699 434.342427 240.877902 432.835949 241.095105 431.317181 241.312308 429.786260 241.529510 428.243327 241.746713 426.688518 241.963916 425.121973 242.181119 423.543832 242.398322 421.954232 242.615524 420.353312 242.832727 418.741212 243.049930 417.118069 243.267133 415.484024 243.484336 413.839213 243.701538 412.183777 243.918741 410.517853 244.135944 408.841582 244.353147 407.155100 244.570350 405.458548 244.787552 403.752064 245.004755 402.035786 245.221958 400.309854 245.439161 398.574407 245.656364 396.829582 245.873566 395.075519 246.090769 393.312356 246.307972 391.540233 246.525175 389.759287 246.742378 387.969658 246.959580 386.171485 247.176783 384.364906 247.393986 382.550060 247.611189 380.727086 247.828392 378.896123 248.045594 377.057308 248.262797 375.210782 248.480000 373.356682 248.697203 371.495148 248.914406 369.626319 249.131608 367.750332 249.348811 365.867327 249.566014 363.977443 249.783217 362.080818 250.000420 360.177591 250.217622 358.267901 250.434825 356.351887 250.652028 354.429687 250.869231 352.501440 251.086434 350.567285 251.303636 348.627360 251.520839 346.681805 251.738042 344.730758 251.955245 342.774358 252.172448 340.812743 252.389650 338.846053 252.606853 336.874426 252.824056 334.898001 253.041259 332.916917 253.258462 330.931312 253.475664 328.941325 253.692867 326.947095 253.910070 324.948761 254.127273 322.946461 254.344476 320.940335 254.561678 318.930520 254.778881 316.917157 254.996084 314.900382 255.213287 312.880336 255.430490 310.857157 255.647692 308.830983 255.864895 306.801954 256.082098 304.770209 256.299301 302.735885 256.516503 300.699122 256.733706 298.660058 256.950909 296.618833 257.168112 294.575585 257.385315 292.530453 257.602517 290.483575 257.819720 288.435090 258.036923 286.385138 258.254126 284.333856 258.471329 282.281384 258.688531 280.227860 258.905734 278.173423 259.122937 276.118212 259.340140 274.062366 259.557343 272.006023 259.774545 269.949322 259.991748 267.892402 260.208951 265.835401 260.426154 263.778459 260.643357 261.721714 260.860559 259.665305 261.077762 257.609370 261.294965 255.554049 261.512168 253.499480 261.729371 251.445802 261.946573 249.393154 262.163776 247.341674 262.380979 245.291501 262.598182 243.242774 262.815385 241.195631 263.032587 239.150213 263.249790 237.106656 263.466993 235.065100 263.684196 233.025684 263.901399 230.988546 264.118601 228.953826 264.335804 226.921662 264.553007 224.892192 264.770210 222.865556 264.987413 220.841892 265.204615 218.821339 265.421818 216.804035 265.639021 214.790121 265.856224 212.779733 266.073427 210.773012 266.290629 208.770095 266.507832 206.771122 266.725035 204.776231 266.942238 202.785561 267.159441 200.799251 267.376643 198.817439 267.593846 196.840265 267.811049 194.867867 268.028252 192.900383 268.245455 190.937954 268.462657 188.980716 268.679860 187.028810 268.897063 185.082373 269.114266 183.141545 269.331469 181.206464 269.548671 179.277270 269.765874 177.354100 269.983077 175.437094 270.200280 173.526391 270.417483 171.622128 270.634685 169.724445 270.851888 167.833481 271.069091 165.949375 271.286294 164.072264 271.503497 162.202289 271.720699 160.339587 271.937902 158.484297 272.155105 156.636559 272.372308 154.796510 272.589510 152.964291 272.806713 151.140038 273.023916 149.323892 273.241119 147.515991 273.458322 145.716474 273.675524 143.925479 273.892727 142.143145 274.109930 140.369611 274.327133 138.605016 274.544336 136.849499 274.761538 135.103198 274.978741 133.366251 275.195944 131.638799 275.413147 129.920979 275.630350 128.212930 275.847552 126.514791 276.064755 124.826701 276.281958 123.148799 276.499161 121.481223 276.716364 119.824112 276.933566 118.177604 277.150769 116.541840 277.367972 114.916956 277.585175 113.303093 277.802378 111.700388 278.019580 110.108981 278.236783 108.529011 278.453986 106.960615 278.671189 105.403934 278.888392 103.859105 279.105594 102.326267 279.322797 100.805559 279.540000 99.297121 279.757203 97.801089 279.974406 96.317605 280.191608 94.846805 280.408811 93.388830 280.626014 91.943817 280.843217 90.511905 281.060420 89.093233 281.277622 87.687941 281.494825 86.296166 281.712028 84.918048 281.929231 83.553724 282.146434 82.203335 282.363636 80.867019 282.580839 79.544913 282.798042 78.237158 283.015245 76.943892 283.232448 75.665254 283.449650 74.401382 283.666853 73.152381 283.884056 71.918211 284.101259 70.698800 284.318462 69.494075 284.535664 68.303963 284.752867 67.128391 284.970070 65.967285 285.187273 64.820572 285.404476 63.688180 285.621678 62.570034 285.838881 61.466063 286.056084 60.376193 286.273287 59.300351 286.490490 58.238463 286.707692 57.190456 286.924895 56.156259 287.142098 55.135796 287.359301 54.128996 287.576503 53.135784 287.793706 52.156089 288.010909 51.189837 288.228112 50.236954 288.445315 49.297367 288.662517 48.371005 288.879720 47.457792 289.096923 46.557657 289.314126 45.670526 289.531329 44.796326 289.748531 43.934983 289.965734 43.086426 290.182937 42.250580 290.400140 41.427372 290.617343 40.616730 290.834545 39.818580 291.051748 39.032850 291.268951 38.259465 291.486154 37.498353 291.703357 36.749441 291.920559 36.012656 292.137762 35.287924 292.354965 34.575173 292.572168 33.874328 292.789371 33.185318 293.006573 32.508069 293.223776 31.842508 293.440979 31.188562 293.658182 30.546158 293.875385 29.915222 294.092587 29.295681 294.309790 28.687463 294.526993 28.090494 294.744196 27.504701 294.961399 26.930011 295.178601 26.366351 295.395804 25.813648 295.613007 25.271828 295.830210 24.740819 296.047413 24.220547 296.264615 23.710939 296.481818 23.211923 296.699021 22.723424 296.916224 22.245370 297.133427 21.777688 297.350629 21.320305 297.567832 20.873147 297.785035 20.436142 298.002238 20.009216 298.219441 19.592296 298.436643 19.185309 298.653846 18.788182 298.871049 18.400842 299.088252 18.023215 299.305455 17.655229 299.522657 17.296811 299.739860 16.947886 299.957063 16.608383 300.174266 16.278228 300.391469 15.957348 300.608671 15.645670 300.825874 15.343120 301.043077 15.049626 301.260280 14.765115 301.477483 14.489513 301.694685 14.222747 301.911888 13.964744 302.129091 13.715431 302.346294 13.474735 302.563497 13.242583 302.780699 13.018902 302.997902 12.803618 303.215105 12.596658 303.432308 12.397949 303.649510 12.207419 303.866713 12.024994 304.083916 11.850600 304.301119 11.684166 304.518322 11.525617 304.735524 11.374880 304.952727 11.231884 305.169930 11.096553 305.387133 10.968815 305.604336 10.848598 305.821538 10.735827 306.038741 10.630431 306.255944 10.532335 306.473147 10.441466 306.690350 10.357752 306.907552 10.281119 307.124755 10.211495 307.341958 10.148806 307.559161 10.092978 307.776364 10.043940 307.993566 10.001617 308.210769 9.965937 308.427972 9.936826 308.645175 9.914211 308.862378 9.898020 309.079580 9.888179 309.296783 9.884615 309.513986 9.887255 309.731189 9.896026 309.948392 9.910854 310.165594 9.931667 310.382797 9.958391 310.600000 9.990954 310.817203 10.029281 311.034406 10.073301 311.251608 10.122940 311.468811 10.178124 311.686014 10.238781 311.903217 10.304838 312.120420 10.376221 312.337622 10.452858 312.554825 10.534674 312.772028 10.621598 312.989231 10.713556 313.206434 10.810474 313.423636 10.912280 313.640839 11.018901 313.858042 11.130263 314.075245 11.246294 314.292448 11.366920 314.509650 11.492068 314.726853 11.621665 314.944056 11.755637 315.161259 11.893913 315.378462 12.036418 315.595664 12.183080 315.812867 12.333825 316.030070 12.488580 316.247273 12.647273 316.464476 12.809829 316.681678 12.976177 316.898881 13.146242 317.116084 13.319952 317.333287 13.497233 317.550490 13.678013 317.767692 13.862218 317.984895 14.049776 318.202098 14.240612 318.419301 14.434655 318.636503 14.631830 318.853706 14.832065 319.070909 15.035286 319.288112 15.241421 319.505315 15.450396 319.722517 15.662139 319.939720 15.876575 320.156923 16.093633 320.374126 16.313238 320.591329 16.535318 320.808531 16.759800 321.025734 16.986610 321.242937 17.215676 321.460140 17.446924 321.677343 17.680281 321.894545 17.915674 322.111748 18.153030 322.328951 18.392275 322.546154 18.633338 322.763357 18.876143 322.980559 19.120620 323.197762 19.366693 323.414965 19.614291 323.632168 19.863340 323.849371 20.113766 324.066573 20.365498 324.283776 20.618461 324.500979 20.872583 324.718182 21.127790 324.935385 21.384009 325.152587 21.641168 325.369790 21.899193 325.586993 22.158011 325.804196 22.417548 326.021399 22.677733 326.238601 22.938491 326.455804 23.199749 326.673007 23.461435 326.890210 23.723475 327.107413 23.985796 327.324615 24.248325 327.541818 24.510989 327.759021 24.773715 327.976224 25.036429 328.193427 25.299059 328.410629 25.561531 328.627832 25.823773 328.845035 26.085711 329.062238 26.347271 329.279441 26.608382 329.496643 26.868969 329.713846 27.128961 329.931049 27.388282 330.148252 27.646861 330.365455 27.904625 330.582657 28.161499 330.799860 28.417412 331.017063 28.672290 331.234266 28.926059 331.451469 29.178647 331.668671 29.429981 331.885874 29.679987 332.103077 29.928593 332.320280 30.175725 332.537483 30.421310 332.754685 30.665274 332.971888 30.907546 333.189091 31.148052 333.406294 31.386718 333.623497 31.623471 333.840699 31.858239 334.057902 32.090949 334.275105 32.321526 334.492308 32.549898 334.709510 32.775993 334.926713 32.999736 335.143916 33.221054 335.361119 33.439876 335.578322 33.656126 335.795524 33.869733 336.012727 34.080624 336.229930 34.288724 336.447133 34.493961 336.664336 34.696262 336.881538 34.895554 337.098741 35.091763 337.315944 35.284816 337.533147 35.474641 337.750350 35.661165 337.967552 35.844328 338.184755 36.024137 338.401958 36.200609 338.619161 36.373764 338.836364 36.543622 339.053566 36.710203 339.270769 36.873525 339.487972 37.033608 339.705175 37.190471 339.922378 37.344134 340.139580 37.494616 340.356783 37.641937 340.573986 37.786116 340.791189 37.927172 341.008392 38.065125 341.225594 38.199995 341.442797 38.331800 341.660000 38.460560 341.877203 38.586295 342.094406 38.709023 342.311608 38.828765 342.528811 38.945540 342.746014 39.059367 342.963217 39.170265 343.180420 39.278254 343.397622 39.383354 343.614825 39.485584 343.832028 39.584962 344.049231 39.681509 344.266434 39.775245 344.483636 39.866187 344.700839 39.954357 344.918042 40.039773 345.135245 40.122454 345.352448 40.202421 345.569650 40.279692 345.786853 40.354287 346.004056 40.426225 346.221259 40.495526 346.438462 40.562209 346.655664 40.626294 346.872867 40.687800 347.090070 40.746746 347.307273 40.803151 347.524476 40.857036 347.741678 40.908420 347.958881 40.957322 348.176084 41.003761 348.393287 41.047756 348.610490 41.089328 348.827692 41.128496 349.044895 41.165279 349.262098 41.199696 349.479301 41.231768 349.696503 41.261512 349.913706 41.288949 350.130909 41.314099 350.348112 41.336980 350.565315 41.357611 350.782517 41.376014 350.999720 41.392206 351.216923 41.406207 351.434126 41.418037 351.651329 41.427714 351.868531 41.435260 352.085734 41.440692 352.302937 41.444030 352.520140 41.445294 352.737343 41.444503 352.954545 41.441676 353.171748 41.436834 353.388951 41.429994 353.606154 41.421178 353.823357 41.410403 354.040559 41.397690 354.257762 41.383058 354.474965 41.366526 354.692168 41.348114 354.909371 41.327842 355.126573 41.305728 355.343776 41.281791 355.560979 41.256053 355.778182 41.228531 355.995385 41.199245 356.212587 41.168215 356.429790 41.135460 356.646993 41.101000 356.864196 41.064853 357.081399 41.027040 357.298601 40.987579 357.515804 40.946491 357.733007 40.903794 357.950210 40.859508 358.167413 40.813652 358.384615 40.766246 358.601818 40.717309 358.819021 40.666861 359.036224 40.614921 359.253427 40.561508 359.470629 40.506642 359.687832 40.450343 359.905035 40.392629 360.122238 40.333520 360.339441 40.273035 360.556643 40.211195 360.773846 40.148017 360.991049 40.083522 361.208252 40.017730 361.425455 39.950659 361.642657 39.882329 361.859860 39.812759 362.077063 39.741969 362.294266 39.669978 362.511469 39.596806 362.728671 39.522472 362.945874 39.446995 363.163077 39.370395 363.380280 39.292691 363.597483 39.213903 363.814685 39.134050 364.031888 39.053151 364.249091 38.971226 364.466294 38.888294 364.683497 38.804376 364.900699 38.719489 365.117902 38.633654 365.335105 38.546889 365.552308 38.459215 365.769510 38.370651 365.986713 38.281216 366.203916 38.190930 366.421119 38.099811 366.638322 38.007880 366.855524 37.915156 367.072727 37.821658 367.289930 37.727405 367.507133 37.632418 367.724336 37.536715 367.941538 37.440316 368.158741 37.343240 368.375944 37.245507 368.593147 37.147136 368.810350 37.048146 369.027552 36.948558 369.244755 36.848389 369.461958 36.747661 369.679161 36.646392 369.896364 36.544601 370.113566 36.442308 370.330769 36.339532 370.547972 36.236294 370.765175 36.132611 370.982378 36.028505 371.199580 35.923993 371.416783 35.819096 371.633986 35.713832 371.851189 35.608222 372.068392 35.502284 372.285594 35.396039 372.502797 35.289505 372.720000 35.182702 372.937203 35.075649 373.154406 34.968366 373.371608 34.860873 373.588811 34.753187 373.806014 34.645330 374.023217 34.537320 374.240420 34.429177 374.457622 34.320920 374.674825 34.212569 374.892028 34.104143 375.109231 33.995661 375.326434 33.887143 375.543636 33.778608 375.760839 33.670076 375.978042 33.561567 376.195245 33.453098 376.412448 33.344691 376.629650 33.236363 376.846853 33.128136 377.064056 33.020028 377.281259 32.912058 377.498462 32.804246 377.715664 32.696612 377.932867 32.589174 378.150070 32.481953 378.367273 32.374967 378.584476 32.268236 378.801678 32.161780 379.018881 32.055617 379.236084 31.949768 379.453287 31.844251 379.670490 31.739087 379.887692 31.634294 380.104895 31.529892 380.322098 31.425900 380.539301 31.322338 380.756503 31.219225 380.973706 31.116581 381.190909 31.014424 381.408112 30.912775 381.625315 30.811653 381.842517 30.711077 382.059720 30.611066 382.276923 30.511641 382.494126 30.412820 382.711329 30.314623 382.928531 30.217069 383.145734 30.120177 383.362937 30.023968 383.580140 29.928460 383.797343 29.833674 384.014545 29.739627 384.231748 29.646340 384.448951 29.553833 384.666154 29.462123 384.883357 29.371232 385.100559 29.281179 385.317762 29.191981 385.534965 29.103661 385.752168 29.016235 385.969371 28.929725 386.186573 28.844149 386.403776 28.759527 386.620979 28.675879 386.838182 28.593223 387.055385 28.511579 387.272587 28.430966 387.489790 28.351404 387.706993 28.272913 387.924196 28.195511 388.141399 28.119219 388.358601 28.044055 388.575804 27.970039 388.793007 27.897190 389.010210 27.825528 389.227413 27.755073 389.444615 27.685843 389.661818 27.617858 389.879021 27.551137 390.096224 27.485700 390.313427 27.421566 390.530629 27.358755 390.747832 27.297286 390.965035 27.237179 391.182238 27.178452 391.399441 27.121126 391.616643 27.065220 391.833846 27.010752 392.051049 26.957743 392.268252 26.906209 392.485455 26.856150 392.702657 26.807565 392.919860 26.760452 393.137063 26.714809 393.354266 26.670633 393.571469 26.627922 393.788671 26.586676 394.005874 26.546890 394.223077 26.508564 394.440280 26.471695 394.657483 26.436282 394.874685 26.402321 395.091888 26.369811 395.309091 26.338751 395.526294 26.309137 395.743497 26.280969 395.960699 26.254243 396.177902 26.228958 396.395105 26.205111 396.612308 26.182701 396.829510 26.161726 397.046713 26.142183 397.263916 26.124070 397.481119 26.107386 397.698322 26.092128 397.915524 26.078294 398.132727 26.065882 398.349930 26.054891 398.567133 26.045317 398.784336 26.037159 399.001538 26.030415 399.218741 26.025083 399.435944 26.021160 399.653147 26.018646 399.870350 26.017536 400.087552 26.017831 400.304755 26.019526 400.521958 26.022621 400.739161 26.027114 400.956364 26.033001 401.173566 26.040282 401.390769 26.048954 401.607972 26.059014 401.825175 26.070462 402.042378 26.083295 402.259580 26.097510 402.476783 26.113107 402.693986 26.130082 402.911189 26.148433 403.128392 26.168159 403.345594 26.189258 403.562797 26.211727 403.780000 26.235564 403.997203 26.260768 404.214406 26.287336 404.431608 26.315266 404.648811 26.344556 404.866014 26.375204 405.083217 26.407208 405.300420 26.440566 405.517622 26.475276 405.734825 26.511336 405.952028 26.548743 406.169231 26.587496 406.386434 26.627592 406.603636 26.669030 406.820839 26.711807 407.038042 26.755921 407.255245 26.801371 407.472448 26.848154 407.689650 26.896268 407.906853 26.945711 408.124056 26.996482 408.341259 27.048577 408.558462 27.101995 408.775664 27.156733 408.992867 27.212791 409.210070 27.270165 409.427273 27.328854 409.644476 27.388855 409.861678 27.450167 410.078881 27.512787 410.296084 27.576713 410.513287 27.641944 410.730490 27.708477 410.947692 27.776310 411.164895 27.845441 411.382098 27.915868 411.599301 27.987588 411.816503 28.060601 412.033706 28.134904 412.250909 28.210494 412.468112 28.287370 412.685315 28.365529 412.902517 28.444970 413.119720 28.525690 413.336923 28.607688 413.554126 28.690961 413.771329 28.775508 413.988531 28.861325 414.205734 28.948412 414.422937 29.036765 414.640140 29.126384 414.857343 29.217265 415.074545 29.309407 415.291748 29.402808 415.508951 29.497466 415.726154 29.593378 415.943357 29.690543 416.160559 29.788959 416.377762 29.888622 416.594965 29.989533 416.812168 30.091687 417.029371 30.195084 417.246573 30.299720 417.463776 30.405595 417.680979 30.512706 417.898182 30.621051 418.115385 30.730628 418.332587 30.841434 418.549790 30.953469 418.766993 31.066729 418.984196 31.181212 419.201399 31.296917 419.418601 31.413842 419.635804 31.531984 419.853007 31.651341 420.070210 31.771912 420.287413 31.893694 420.504615 32.016684 420.721818 32.140882 420.939021 32.266285 421.156224 32.392891 421.373427 32.520698 421.590629 32.649704 421.807832 32.779906 422.025035 32.911303 422.242238 33.043893 422.459441 33.177673 422.676643 33.312641 422.893846 33.448796 423.111049 33.586135 423.328252 33.724657 423.545455 33.864358 423.762657 34.005238 423.979860 34.147294 424.197063 34.290524 424.414266 34.434926 424.631469 34.580497 424.848671 34.727237 425.065874 34.875142 425.283077 35.024210 425.500280 35.174441 425.717483 35.325831 425.934685 35.478378 426.151888 35.632080 426.369091 35.786936 426.586294 35.942943 426.803497 36.100100 427.020699 36.258403 427.237902 36.417852 427.455105 36.578443 427.672308 36.740175 427.889510 36.903047 428.106713 37.067054 428.323916 37.232197 428.541119 37.398472 428.758322 37.565878 428.975524 37.734412 429.192727 37.904073 429.409930 38.074858 429.627133 38.246766 429.844336 38.419793 430.061538 38.593939 430.278741 38.769201 430.495944 38.945576 430.713147 39.123064 430.930350 39.301662 431.147552 39.481367 431.364755 39.662179 431.581958 39.844093 431.799161 40.027110 432.016364 40.211226 432.233566 40.396440 432.450769 40.582749 432.667972 40.770151 432.885175 40.958644 433.102378 41.148227 433.319580 41.338897 433.536783 41.530652 433.753986 41.723490 433.971189 41.917409 434.188392 42.112407 434.405594 42.308481 434.622797 42.505630 434.840000 42.703852 435.057203 42.903145 435.274406 43.103506 435.491608 43.304933 435.708811 43.507425 435.926014 43.710980 436.143217 43.915594 436.360420 44.121267 436.577622 44.327996 436.794825 44.535778 437.012028 44.744613 437.229231 44.954498 437.446434 45.165431 437.663636 45.377409 437.880839 45.590431 438.098042 45.804495 438.315245 46.019598 438.532448 46.235739 438.749650 46.452915 438.966853 46.671125 439.184056 46.890366 439.401259 47.110636 439.618462 47.331933 439.835664 47.554256 440.052867 47.777601 440.270070 48.001968 440.487273 48.227353 440.704476 48.453755 440.921678 48.681172 441.138881 48.909602 441.356084 49.139042 441.573287 49.369491 441.790490 49.600947 442.007692 49.833406 442.224895 50.066868 442.442098 50.301331 442.659301 50.536792 442.876503 50.773248 443.093706 51.010699 443.310909 51.249142 443.528112 51.488575 443.745315 51.728996 443.962517 51.970402 444.179720 52.212793 444.396923 52.456165 444.614126 52.700516 444.831329 52.945845 445.048531 53.192150 445.265734 53.439428 445.482937 53.687677 445.700140 53.936896 445.917343 54.187082 446.134545 54.438233 446.351748 54.690347 446.568951 54.943419 446.786154 55.197434 447.003357 55.452371 447.220559 55.708212 447.437762 55.964939 447.654965 56.222532 447.872168 56.480972 448.089371 56.740240 448.306573 57.000317 448.523776 57.261185 448.740979 57.522824 448.958182 57.785215 449.175385 58.048339 449.392587 58.312178 449.609790 58.576713 449.826993 58.841923 450.044196 59.107791 450.261399 59.374298 450.478601 59.641424 450.695804 59.909151 450.913007 60.177460 451.130210 60.446331 451.347413 60.715745 451.564615 60.985684 451.781818 61.256129 451.999021 61.527061 452.216224 61.798461 452.433427 62.070309 452.650629 62.342587 452.867832 62.615276 453.085035 62.888356 453.302238 63.161810 453.519441 63.435618 453.736643 63.709760 453.953846 63.984218 454.171049 64.258974 454.388252 64.534008 454.605455 64.809300 454.822657 65.084833 455.039860 65.360587 455.257063 65.636543 455.474266 65.912682 455.691469 66.188985 455.908671 66.465434 456.125874 66.742008 456.343077 67.018691 456.560280 67.295461 456.777483 67.572301 456.994685 67.849191 457.211888 68.126113 457.429091 68.403047 457.646294 68.679974 457.863497 68.956876 458.080699 69.233734 458.297902 69.510528 458.515105 69.787240 458.732308 70.063850 458.949510 70.340340 459.166713 70.616691 459.383916 70.892883 459.601119 71.168898 459.818322 71.444717 460.035524 71.720320 460.252727 71.995690 460.469930 72.270806 460.687133 72.545650 460.904336 72.820203 461.121538 73.094446 461.338741 73.368360 461.555944 73.641926 461.773147 73.915125 461.990350 74.187938 462.207552 74.460346 462.424755 74.732330 462.641958 75.003871 462.859161 75.274951 463.076364 75.545549 463.293566 75.815648 463.510769 76.085228 463.727972 76.354270 463.945175 76.622756 464.162378 76.890666 464.379580 77.157981 464.596783 77.424683 464.813986 77.690752 465.031189 77.956170 465.248392 78.220917 465.465594 78.484974 465.682797 78.748323 465.900000 79.010945 466.117203 79.272820 466.334406 79.533930 466.551608 79.794255 466.768811 80.053778 466.986014 80.312477 467.203217 80.570336 467.420420 80.827334 467.637622 81.083454 467.854825 81.338675 468.072028 81.592978 468.289231 81.846346 468.506434 82.098759 468.723636 82.350197 468.940839 82.600643 469.158042 82.850076 469.375245 83.098479 469.592448 83.345831 469.809650 83.592115 470.026853 83.837311 470.244056 84.081400 470.461259 84.324363 470.678462 84.566181 470.895664 84.806835 471.112867 85.046307 471.330070 85.284577 471.547273 85.521626 471.764476 85.757436 471.981678 85.991987 472.198881 86.225260 472.416084 86.457237 472.633287 86.687898 472.850490 86.917225 473.067692 87.145198 473.284895 87.371799 473.502098 87.597008 473.719301 87.820807 473.936503 88.043177 474.153706 88.264098 474.370909 88.483552 474.588112 88.701520 474.805315 88.917982 475.022517 89.132920 475.239720 89.346315 475.456923 89.558148 475.674126 89.768399 475.891329 89.977051 476.108531 90.184083 476.325734 90.389478 476.542937 90.593215 476.760140 90.795276 476.977343 90.995643 477.194545 91.194295 477.411748 91.391214 477.628951 91.586382 477.846154 91.779779 478.063357 91.971385 478.280559 92.161184 478.497762 92.349154 478.714965 92.535277 478.932168 92.719535 479.149371 92.901908 479.366573 93.082378 479.583776 93.260925 479.800979 93.437530 480.018182 93.612175 480.235385 93.784840 480.452587 93.955506 480.669790 94.124156 480.886993 94.290768 481.104196 94.455326 481.321399 94.617808 481.538601 94.778198 481.755804 94.936475 481.973007 95.092621 482.190210 95.246616 482.407413 95.398443 482.624615 95.548081 482.841818 95.695512 483.059021 95.840716 483.276224 95.983676 483.493427 96.124371 483.710629 96.262784 483.927832 96.398894 484.145035 96.532683 484.362238 96.664133 484.579441 96.793223 484.796643 96.919935 485.013846 97.044251 485.231049 97.166150 485.448252 97.285615 485.665455 97.402626 485.882657 97.517164 486.099860 97.629210 486.317063 97.738746 486.534266 97.845752 486.751469 97.950209 486.968671 98.052099 487.185874 98.151402 487.403077 98.248099 487.620280 98.342172 487.837483 98.433601 488.054685 98.522368 488.271888 98.608453 488.489091 98.691838 488.706294 98.772503 488.923497 98.850430 489.140699 98.925600 489.357902 98.997993 489.575105 99.067591 489.792308 99.134375 490.009510 99.198325 490.226713 99.259423 490.443916 99.317650 490.661119 99.372987 490.878322 99.425415 491.095524 99.474914 491.312727 99.521467 491.529930 99.565054 491.747133 99.605655 491.964336 99.643252 492.181538 99.677827 492.398741 99.709360 492.615944 99.737831 492.833147 99.763223 493.050350 99.785516 493.267552 99.804691 493.484755 99.820729 493.701958 99.833612 493.919161 99.843320 494.136364 99.849834 494.353566 99.853135 494.570769 99.853205 494.787972 99.850024 495.005175 99.843574 495.222378 99.833835 495.439580 99.820789 495.656783 99.804416 495.873986 99.784697 496.091189 99.761614 496.308392 99.735148 496.525594 99.705279 496.742797 99.671989 496.960000 99.635259 497.177203 99.595069 497.394406 99.551401 497.611608 99.504236 497.828811 99.453554 498.046014 99.399338 498.263217 99.341567 498.480420 99.280223 498.697622 99.215287 498.914825 99.146740 499.132028 99.074563 499.349231 98.998737 499.566434 98.919242 499.783636 98.836061 500.000839 98.749174 500.218042 98.658562 500.435245 98.564207 500.652448 98.466088 500.869650 98.364195 501.086853 98.258548 501.304056 98.149174 501.521259 98.036101 501.738462 97.919356 501.955664 97.798967 502.172867 97.674961 502.390070 97.547366 502.607273 97.416208 502.824476 97.281517 503.041678 97.143319 503.258881 97.001641 503.476084 96.856512 503.693287 96.707958 503.910490 96.556008 504.127692 96.400688 504.344895 96.242027 504.562098 96.080051 504.779301 95.914789 504.996503 95.746267 505.213706 95.574513 505.430909 95.399555 505.648112 95.221421 505.865315 95.040137 506.082517 94.855731 506.299720 94.668232 506.516923 94.477665 506.734126 94.284059 506.951329 94.087441 507.168531 93.887839 507.385734 93.685281 507.602937 93.479793 507.820140 93.271403 508.037343 93.060139 508.254545 92.846029 508.471748 92.629099 508.688951 92.409377 508.906154 92.186891 509.123357 91.961669 509.340559 91.733737 509.557762 91.503123 509.774965 91.269856 509.992168 91.033961 510.209371 90.795468 510.426573 90.554402 510.643776 90.310792 510.860979 90.064666 511.078182 89.816050 511.295385 89.564973 511.512587 89.311462 511.729790 89.055543 511.946993 88.797246 512.164196 88.536597 512.381399 88.273624 512.598601 88.008354 512.815804 87.740814 513.033007 87.471033 513.250210 87.199038 513.467413 86.924856 513.684615 86.648515 513.901818 86.370043 514.119021 86.089466 514.336224 85.806812 514.553427 85.522110 514.770629 85.235385 514.987832 84.946667 515.205035 84.655981 515.422238 84.363357 515.639441 84.068821 515.856643 83.772400 516.073846 83.474124 516.291049 83.174017 516.508252 82.872110 516.725455 82.568428 516.942657 82.262999 517.159860 81.955851 517.377063 81.647012 517.594266 81.336508 517.811469 81.024368 518.028671 80.710619 518.245874 80.395288 518.463077 80.078403 518.680280 79.759991 518.897483 79.440080 519.114685 79.118698 519.331888 78.795871 519.549091 78.471628 519.766294 78.145995 519.983497 77.819001 520.200699 77.490673 520.417902 77.161038 520.635105 76.830124 520.852308 76.497958 521.069510 76.164569 521.286713 75.829982 521.503916 75.494227 521.721119 75.157330 521.938322 74.819319 522.155524 74.480221 522.372727 74.140064 522.589930 73.798876 522.807133 73.456683 523.024336 73.113514 523.241538 72.769396 523.458741 72.424356 523.675944 72.078422 523.893147 71.731622 524.110350 71.383982 524.327552 71.035531 524.544755 70.686295 524.761958 70.336304 524.979161 69.985583 525.196364 69.634160 525.413566 69.282063 525.630769 68.929320 525.847972 68.575958 526.065175 68.222004 526.282378 67.867486 526.499580 67.512432 526.716783 67.156868 526.933986 66.800823 527.151189 66.444324 527.368392 66.087399 527.585594 65.730074 527.802797 65.372378 528.020000 65.014337 528.237203 64.655980 528.454406 64.297334 528.671608 63.938427 528.888811 63.579285 529.106014 63.219937 529.323217 62.860410 529.540420 62.500732 529.757622 62.140929 529.974825 61.781030 530.192028 61.421061 530.409231 61.061052 530.626434 60.701028 530.843636 60.341018 531.060839 59.981048 531.278042 59.621147 531.495245 59.261343 531.712448 58.901661 531.929650 58.542131 532.146853 58.182779 532.364056 57.823633 532.581259 57.464721 532.798462 57.106069 533.015664 56.747706 533.232867 56.389659 533.450070 56.031956 533.667273 55.674624 533.884476 55.317690 534.101678 54.961182 534.318881 54.605127 534.536084 54.249554 534.753287 53.894489 534.970490 53.539960 535.187692 53.185995 535.404895 52.832621 535.622098 52.479865 535.839301 52.127755 536.056503 51.776319 536.273706 51.425584 536.490909 51.075577 536.708112 50.726326 536.925315 50.377859 537.142517 50.030203 537.359720 49.683386 537.576923 49.337434 537.794126 48.992376 538.011329 48.648240 538.228531 48.305051 538.445734 47.962839 538.662937 47.621630 538.880140 47.281453 539.097343 46.942333 539.314545 46.604300 539.531748 46.267381 539.748951 45.931602 539.966154 45.596993 540.183357 45.263579 540.400559 44.931389 540.617762 44.600449 540.834965 44.270789 541.052168 43.942434 541.269371 43.615413 541.486573 43.289754 541.703776 42.965482 541.920979 42.642627 542.138182 42.321216 542.355385 42.001275 542.572587 41.682833 542.789790 41.365917 543.006993 41.050555 543.224196 40.736774 543.441399 40.424601 543.658601 40.114065 543.875804 39.805192 544.093007 39.498011 544.310210 39.192547 544.527413 38.888830 544.744615 38.586887 544.961818 38.286745 545.179021 37.988431 545.396224 37.691974 545.613427 37.397400 545.830629 37.104737 546.047832 36.814013 546.265035 36.525255 546.482238 36.238490 546.699441 35.953747 546.916643 35.671052 547.133846 35.390434 547.351049 35.111919 547.568252 34.835535 547.785455 34.561310 548.002657 34.289271 548.219860 34.019446 548.437063 33.751862 548.654266 33.486546 548.871469 33.223527 549.088671 32.962831 549.305874 32.704487 549.523077 32.448521 549.740280 32.194961 549.957483 31.943835 550.174685 31.695170 550.391888 31.448994 550.609091 31.205334 550.826294 30.964218 551.043497 30.725672 551.260699 30.489726 551.477902 30.256405 551.695105 30.025739 551.912308 29.797753 552.129510 29.572476 552.346713 29.349936 552.563916 29.130159 552.781119 28.913173 552.998322 28.699006 553.215524 28.487685 553.432727 28.279238 553.649930 28.073692 553.867133 27.871075 554.084336 27.671414 554.301538 27.474736 554.518741 27.281070 554.735944 27.090443 554.953147 26.902882 555.170350 26.718407 555.387552 26.537015 555.604755 26.358691 555.821958 26.183423 556.039161 26.011200 556.256364 25.842009 556.473566 25.675837 556.690769 25.512673 556.907972 25.352503 557.125175 25.195315 557.342378 25.041098 557.559580 24.889837 557.776783 24.741523 557.993986 24.596141 558.211189 24.453679 558.428392 24.314126 558.645594 24.177468 558.862797 24.043694 559.080000 23.912790 559.297203 23.784745 559.514406 23.659547 559.731608 23.537182 559.948811 23.417639 560.166014 23.300904 560.383217 23.186967 560.600420 23.075814 560.817622 22.967433 561.034825 22.861811 561.252028 22.758937 561.469231 22.658797 561.686434 22.561380 561.903636 22.466673 562.120839 22.374664 562.338042 22.285340 562.555245 22.198689 562.772448 22.114698 562.989650 22.033356 563.206853 21.954650 563.424056 21.878567 563.641259 21.805096 563.858462 21.734223 564.075664 21.665936 564.292867 21.600223 564.510070 21.537072 564.727273 21.476470 564.944476 21.418405 565.161678 21.362865 565.378881 21.309836 565.596084 21.259307 565.813287 21.211266 566.030490 21.165700 566.247692 21.122596 566.464895 21.081942 566.682098 21.043726 566.899301 21.007936 567.116503 20.974559 567.333706 20.943582 567.550909 20.914994 567.768112 20.888782 567.985315 20.864933 568.202517 20.843436 568.419720 20.824278 568.636923 20.807446 568.854126 20.792928 569.071329 20.780711 569.288531 20.770785 569.505734 20.763135 569.722937 20.757749 569.940140 20.754616 570.157343 20.753723 570.374545 20.755057 570.591748 20.758607 570.808951 20.764359 571.026154 20.772301 571.243357 20.782422 571.460559 20.794708 571.677762 20.809147 571.894965 20.825727 572.112168 20.844436 572.329371 20.865260 572.546573 20.888189 572.763776 20.913208 572.980979 20.940307 573.198182 20.969472 573.415385 21.000692 573.632587 21.033953 573.849790 21.069244 574.066993 21.106552 574.284196 21.145865 574.501399 21.187170 574.718601 21.230455 574.935804 21.275707 575.153007 21.322915 575.370210 21.372066 575.587413 21.423147 575.804615 21.476146 576.021818 21.531051 576.239021 21.587850 576.456224 21.646529 576.673427 21.707077 576.890629 21.769481 577.107832 21.833729 577.325035 21.899809 577.542238 21.967707 577.759441 22.037413 577.976643 22.108912 578.193846 22.182194 578.411049 22.257245 578.628252 22.334054 578.845455 22.412607 579.062657 22.492893 579.279860 22.574899 579.497063 22.658613 579.714266 22.744022 579.931469 22.831114 580.148671 22.919876 580.365874 23.010297 580.583077 23.102364 580.800280 23.196064 581.017483 23.291385 581.234685 23.388315 581.451888 23.486842 581.669091 23.586952 581.886294 23.688634 582.103497 23.791875 582.320699 23.896663 582.537902 24.002986 582.755105 24.110830 582.972308 24.220185 583.189510 24.331036 583.406713 24.443373 583.623916 24.557182 583.841119 24.672452 584.058322 24.789169 584.275524 24.907322 584.492727 25.026898 584.709930 25.147885 584.927133 25.270270 585.144336 25.394041 585.361538 25.519186 585.578741 25.645691 585.795944 25.773546 586.013147 25.902738 586.230350 26.033253 586.447552 26.165080 586.664755 26.298206 586.881958 26.432620 587.099161 26.568308 587.316364 26.705258 587.533566 26.843458 587.750769 26.982896 587.967972 27.123559 588.185175 27.265434 588.402378 27.408510 588.619580 27.552774 588.836783 27.698213 589.053986 27.844816 589.271189 27.992569 589.488392 28.141461 589.705594 28.291480 589.922797 28.442611 590.140000 28.594845 590.357203 28.748167 590.574406 28.902566 590.791608 29.058029 591.008811 29.214544 591.226014 29.372098 591.443217 29.530680 591.660420 29.690276 591.877622 29.850875 592.094825 30.012463 592.312028 30.175029 592.529231 30.338561 592.746434 30.503045 592.963636 30.668470 593.180839 30.834823 593.398042 31.002092 593.615245 31.170264 593.832448 31.339327 594.049650 31.509268 594.266853 31.680076 594.484056 31.851738 594.701259 32.024241 594.918462 32.197574 595.135664 32.371723 595.352867 32.546676 595.570070 32.722422 595.787273 32.898947 596.004476 33.076239 596.221678 33.254286 596.438881 33.433076 596.656084 33.612595 596.873287 33.792833 597.090490 33.973776 597.307692 34.155412 597.524895 34.337728 597.742098 34.520713 597.959301 34.704354 598.176503 34.888638 598.393706 35.073553 598.610909 35.259087 598.828112 35.445227 599.045315 35.631962 599.262517 35.819277 599.479720 36.007163 599.696923 36.195605 599.914126 36.384591 600.131329 36.574110 600.348531 36.764148 600.565734 36.954694 600.782937 37.145735 601.000140 37.337258 601.217343 37.529252 601.434545 37.721703 601.651748 37.914600 601.868951 38.107930 602.086154 38.301681 602.303357 38.495841 602.520559 38.690396 602.737762 38.885335 602.954965 39.080645 603.172168 39.276314 603.389371 39.472329 603.606573 39.668679 603.823776 39.865350 604.040979 40.062331 604.258182 40.259608 604.475385 40.457171 604.692587 40.655005 604.909790 40.853100 605.126993 41.051442 605.344196 41.250019 605.561399 41.448818 605.778601 41.647829 605.995804 41.847037 606.213007 42.046431 606.430210 42.245998 606.647413 42.445726 606.864615 42.645602 607.081818 42.845615 607.299021 43.045751 607.516224 43.245998 607.733427 43.446345 607.950629 43.646778 608.167832 43.847286 608.385035 44.047855 608.602238 44.248474 608.819441 44.449130 609.036643 44.649811 609.253846 44.850504 609.253846 514.000000" /></g></g><g class="titles"><text class="title plot_title" x="400.0" y="26">Ekkamai 53</text></g><g class="plot overlay" transform="translate(158, 46)"><g class="series serie-0 color-0"><g class="dots"><circle class="dot reactive tooltip-trigger" cx="11.946153846153846" cy="26.640328993542653" r="2.5" /><desc class="value">302873</desc><desc class="x ">11.946153846153846</desc><desc class="y ">26.640328993542653</desc><desc class="x_label">Jan</desc></g><g class="dots"><circle class="dot reactive tooltip-trigger" cx="66.24685314685314" cy="74.14666729595604" r="2.5" /><desc class="value">290750</desc><desc class="x ">66.24685314685314</desc><desc class="y ">74.14666729595604</desc><desc class="x_label">Feb</desc></g><g class="dots"><circle class="dot reactive tooltip-trigger" cx="120.54755244755245" cy="29.47354540801473" r="2.5" /><desc class="value">302150</desc><desc class="x ">120.54755244755245</desc><desc class="y ">29.47354540801473</desc><desc class="x_label">Mar</desc></g><g class="dots"><circle class="dot reactive tooltip-trigger" cx="174.84825174825176" cy="270.57908667111707" r="2.5" /><desc class="value">240623</desc><desc class="x top">174.84825174825176</desc><desc class="y top">270.57908667111707</desc><desc class="x_label">Apr</desc></g><g class="dots"><circle class="dot reactive tooltip-trigger" cx="229.14895104895106" cy="492.9571849954061" r="2.5" /><desc class="value">183875</desc><desc class="x top">229.14895104895106</desc><desc class="y top">492.9571849954061</desc><desc class="x_label">May</desc></g><g class="dots"><circle class="dot reactive tooltip-trigger" cx="283.44965034965037" cy="74.40138246461538" r="2.5" /><desc class="value">290685</desc><desc class="x ">283.44965034965037</desc><desc class="y ">74.40138246461538</desc><desc class="x_label">Jun</desc></g><g class="dots"><circle class="dot reactive tooltip-trigger" cx="337.7503496503497" cy="35.66116465898483" r="2.5" /><desc class="value">300571</desc><desc class="x left">337.7503496503497</desc><desc class="y left">35.66116465898483</desc><desc class="x_label">Jul</desc></g><g class="dots"><circle class="dot reactive tooltip-trigger" cx="392.051048951049" cy="26.957743280641182" r="2.5" /><desc class="value">302792</desc><desc class="x left">392.051048951049</desc><desc class="y left">26.957743280641182</desc><desc class="x_label">Aug</desc></g><g class="dots"><circle class="dot reactive tooltip-trigger" cx="446.3517482517483" cy="54.69034710528689" r="2.5" /><desc class="value">295715</desc><desc class="x left">446.3517482517483</desc><desc class="y left">54.69034710528689</desc><desc class="x_label">Sep</desc></g><g class="dots"><circle class="dot reactive tooltip-trigger" cx="500.6524475524476" cy="98.46608786056692" r="2.5" /><desc class="value">284544</desc><desc class="x left">500.6524475524476</desc><desc class="y left">98.46608786056692</desc><desc class="x_label">Oct</desc></g><g class="dots"><circle class="dot reactive tooltip-trigger" cx="554.9531468531468" cy="26.902881552006875" r="2.5" /><desc class="value">302806</desc><desc class="x left">554.9531468531468</desc><desc class="y left">26.902881552006875</desc><desc class="x_label">Nov</desc></g><g class="dots"><circle class="dot reactive tooltip-trigger" cx="609.2538461538462" cy="44.850504205232426" r="2.5" /><desc class="value">298226</desc><desc class="x left">609.2538461538462</desc><desc class="y left">44.850504205232426</desc><desc class="x_label">Dec</desc></g></g></g><g class="plot text-overlay" transform="translate(158, 46)"><g class="series serie-0 color-0" /></g><g class="plot tooltip-overlay" transform="translate(158, 46)"><g class="tooltip" style="opacity: 0" transform="translate(0 0)"><rect class="tooltip-box" height="0" rx="0" ry="0" width="0" /><g class="text" /></g></g><g class="legends" transform="translate(10, 56)"><g class="legend reactive activate-serie" id="activate-serie-0"><rect class="color-0 reactive" height="12" width="12" x="0.0" y="1.0" /><text x="17.0" y="11.2">Ekkamai</text></g></g><g class="legends" transform="translate(790, 56)" /></g></svg>