<?xml version='1.0' encoding='utf-8'?>
<svg xmlns:xlink="http://www.w3.org/1999/xlink" class="pygal-chart" id="chart-1d131cf0-86cb-4e51-a77a-8e405d29aefd" viewBox="0 0 800 600" xmlns="http://www.w3.org/2000/svg"><!--Generated with pygal 2.0.11 (etree) ©Kozea 2011-2015 on 2015-12-10--><!--http://pygal.org--><!--http://github.com/Kozea/pygal--><defs><style type="text/css">#chart-1d131cf0-86cb-4e51-a77a-8e405d29aefd{-webkit-user-select:none;-webkit-font-smoothing:antialiased;font-family:Consolas,"Liberation Mono",Menlo,Courier,monospace}#chart-1d131cf0-86cb-4e51-a77a-8e405d29aefd .title{font-family:Consolas,"Liberation Mono",Menlo,Courier,monospace;font-size:16px}#chart-1d131cf0-86cb-4e51-a77a-8e405d29aefd .legends .legend text{font-family:Consolas,"Liberation Mono",Menlo,Courier,monospace;font-size:14px}#chart-1d131cf0-86cb-4e51-a77a-8e405d29aefd .axis text{font-family:Consolas,"Liberation Mono",Menlo,Courier,monospace;font-size:10px}#chart-1d131cf0-86cb-4e51-a77a-8e405d29aefd .axis text.major{font-family:Consolas,"Liberation Mono",Menlo,Courier,monospace;font-size:10px}#chart-1d131cf0-86cb-4e51-a77a-8e405d29aefd .text-overlay text.value{font-family:Consolas,"Liberation Mono",Menlo,Courier,monospace;font-size:16px}#chart-1d131cf0-86cb-4e51-a77a-8e405d29aefd .text-overlay text.label{font-family:Consolas,"Liberation Mono",Menlo,Courier,monospace;font-size:10px}#chart-1d131cf0-86cb-4e51-a77a-8e405d29aefd .tooltip{font-family:Consolas,"Liberation Mono",Menlo,Courier,monospace;font-size:14px}#chart-1d131cf0-86cb-4e51-a77a-8e405d29aefd text.no_data{font-family:Consolas,"Liberation Mono",Menlo,Courier,monospace;font-size:64px}
#chart-1d131cf0-86cb-4e51-a77a-8e405d29aefd{background-color:black}#chart-1d131cf0-86cb-4e51-a77a-8e405d29aefd path,#chart-1d131cf0-86cb-4e51-a77a-8e405d29aefd line,#chart-1d131cf0-86cb-4e51-a77a-8e405d29aefd rect,#chart-1d131cf0-86cb-4e51-a77a-8e405d29aefd circle{-webkit-transition:250ms;-moz-transition:250ms;transition:250ms}#chart-1d131cf0-86cb-4e51-a77a-8e405d29aefd .graph &gt; .background{fill:black}#chart-1d131cf0-86cb-4e51-a77a-8e405d29aefd .plot &gt; .background{fill:#111}#chart-1d131cf0-86cb-4e51-a77a-8e405d29aefd .graph{fill:#999}#chart-1d131cf0-86cb-4e51-a77a-8e405d29aefd text.no_data{fill:#eee}#chart-1d131cf0-86cb-4e51-a77a-8e405d29aefd .title{fill:#eee}#chart-1d131cf0-86cb-4e51-a77a-8e405d29aefd .legends .legend text{fill:#999}#chart-1d131cf0-86cb-4e51-a77a-8e405d29aefd .legends .legend:hover text{fill:#eee}#chart-1d131cf0-86cb-4e51-a77a-8e405d29aefd .axis .line{stroke:#eee}#chart-1d131cf0-86cb-4e51-a77a-8e405d29aefd .axis .guide.line{stroke:#555}#chart-1d131cf0-86cb-4e51-a77a-8e405d29aefd .axis .major.line{stroke:#999}#chart-1d131cf0-86cb-4e51-a77a-8e405d29aefd .axis text.major{fill:#eee}#chart-1d131cf0-86cb-4e51-a77a-8e405d29aefd .axis.y .guides:hover .guide.line,#chart-1d131cf0-86cb-4e51-a77a-8e405d29aefd .line-graph .axis.x .guides:hover .guide.line,#chart-1d131cf0-86cb-4e51-a77a-8e405d29aefd .stackedline-graph .axis.x .guides:hover .guide.line,#chart-1d131cf0-86cb-4e51-a77a-8e405d29aefd .xy-graph .axis.x .guides:hover .guide.line{stroke:#eee}#chart-1d131cf0-86cb-4e51-a77a-8e405d29aefd .axis .guides:hover text{fill:#eee}#chart-1d131cf0-86cb-4e51-a77a-8e405d29aefd .reactive{fill-opacity:.8}#chart-1d131cf0-86cb-4e51-a77a-8e405d29aefd .reactive.active,#chart-1d131cf0-86cb-4e51-a77a-8e405d29aefd .active .reactive{fill-opacity:.4;stroke-width:4}#chart-1d131cf0-86cb-4e51-a77a-8e405d29aefd .series text{fill:#eee}#chart-1d131cf0-86cb-4e51-a77a-8e405d29aefd .tooltip rect{fill:#111;stroke:#eee;-webkit-transition:opacity 250ms;-moz-transition:opacity 250ms;transition:opacity 250ms}#chart-1d131cf0-86cb-4e51-a77a-8e405d29aefd .tooltip .label{fill:#999}#chart-1d131cf0-86cb-4e51-a77a-8e405d29aefd .tooltip .label{fill:#999}#chart-1d131cf0-86cb-4e51-a77a-8e405d29aefd .tooltip .legend{font-size:.8em;fill:#555}#chart-1d131cf0-86cb-4e51-a77a-8e405d29aefd .tooltip .x_label{font-size:.6em;fill:#eee}#chart-1d131cf0-86cb-4e51-a77a-8e405d29aefd .tooltip .xlink{font-size:.5em;text-decoration:underline}#chart-1d131cf0-86cb-4e51-a77a-8e405d29aefd .tooltip .value{font-size:1.5em}#chart-1d131cf0-86cb-4e51-a77a-8e405d29aefd .map-element{fill:#111;stroke:#555 !important}#chart-1d131cf0-86cb-4e51-a77a-8e405d29aefd .map-element .reactive{fill-opacity:inherit}#chart-1d131cf0-86cb-4e51-a77a-8e405d29aefd .color-0,#chart-1d131cf0-86cb-4e51-a77a-8e405d29aefd .color-0 a:visited{stroke:#ff5995;fill:#ff5995}#chart-1d131cf0-86cb-4e51-a77a-8e405d29aefd .text-overlay .color-0 text{fill:black}
#chart-1d131cf0-86cb-4e51-a77a-8e405d29aefd text.no_data{text-anchor:middle}#chart-1d131cf0-86cb-4e51-a77a-8e405d29aefd .guide.line{fill:none}#chart-1d131cf0-86cb-4e51-a77a-8e405d29aefd .centered{text-anchor:middle}#chart-1d131cf0-86cb-4e51-a77a-8e405d29aefd .title{text-anchor:middle}#chart-1d131cf0-86cb-4e51-a77a-8e405d29aefd .legends .legend text{fill-opacity:1}#chart-1d131cf0-86cb-4e51-a77a-8e405d29aefd .axis.x text{text-anchor:middle}#chart-1d131cf0-86cb-4e51-a77a-8e405d29aefd .axis.x:not(.web) text[transform]{text-anchor:start}#chart-1d131cf0-86cb-4e51-a77a-8e405d29aefd .axis.x:not(.web) text[transform].backwards{text-anchor:end}#chart-1d131cf0-86cb-4e51-a77a-8e405d29aefd .axis.y text{text-anchor:end}#chart-1d131cf0-86cb-4e51-a77a-8e405d29aefd .axis.y text[transform].backwards{text-anchor:start}#chart-1d131cf0-86cb-4e51-a77a-8e405d29aefd .axis.y2 text{text-anchor:start}#chart-1d131cf0-86cb-4e51-a77a-8e405d29aefd .axis.y2 text[transform].backwards{text-anchor:end}#chart-1d131cf0-86cb-4e51-a77a-8e405d29aefd .axis .guide.line{stroke-dasharray:4,4}#chart-1d131cf0-86cb-4e51-a77a-8e405d29aefd .axis .major.guide.line{stroke-dasharray:6,6}#chart-1d131cf0-86cb-4e51-a77a-8e405d29aefd .horizontal .axis.y .guide.line,#chart-1d131cf0-86cb-4e51-a77a-8e405d29aefd .horizontal .axis.y2 .guide.line,#chart-1d131cf0-86cb-4e51-a77a-8e405d29aefd .vertical .axis.x .guide.line{opacity:0}#chart-1d131cf0-86cb-4e51-a77a-8e405d29aefd .horizontal .axis.always_show .guide.line,#chart-1d131cf0-86cb-4e51-a77a-8e405d29aefd .vertical .axis.always_show .guide.line{opacity:1 !important}#chart-1d131cf0-86cb-4e51-a77a-8e405d29aefd .axis.y .guides:hover .guide.line,#chart-1d131cf0-86cb-4e51-a77a-8e405d29aefd .axis.y2 .guides:hover .guide.line,#chart-1d131cf0-86cb-4e51-a77a-8e405d29aefd .axis.x .guides:hover .guide.line{opacity:1}#chart-1d131cf0-86cb-4e51-a77a-8e405d29aefd .axis .guides:hover text{opacity:1}#chart-1d131cf0-86cb-4e51-a77a-8e405d29aefd .nofill{fill:none}#chart-1d131cf0-86cb-4e51-a77a-8e405d29aefd .subtle-fill{fill-opacity:.2}#chart-1d131cf0-86cb-4e51-a77a-8e405d29aefd .dot{stroke-width:1px;fill-opacity:1}#chart-1d131cf0-86cb-4e51-a77a-8e405d29aefd .dot.active{stroke-width:5px}#chart-1d131cf0-86cb-4e51-a77a-8e405d29aefd .dot.negative{fill:transparent}#chart-1d131cf0-86cb-4e51-a77a-8e405d29aefd text,#chart-1d131cf0-86cb-4e51-a77a-8e405d29aefd tspan{stroke:none !important}#chart-1d131cf0-86cb-4e51-a77a-8e405d29aefd .series text.active{opacity:1}#chart-1d131cf0-86cb-4e51-a77a-8e405d29aefd .tooltip rect{fill-opacity:.95;stroke-width:.5}#chart-1d131cf0-86cb-4e51-a77a-8e405d29aefd .tooltip text{fill-opacity:1}#chart-1d131cf0-86cb-4e51-a77a-8e405d29aefd .showable{visibility:hidden}#chart-1d131cf0-86cb-4e51-a77a-8e405d29aefd .showable.shown{visibility:visible}</style><script type="text/javascript">window.pygal = window.pygal || {};window.pygal.config = window.pygal.config || {};window.pygal.config['1d131cf0-86cb-4e51-a77a-8e405d29aefd'] = {"value_formatter": null, "stroke_style": null, "show_minor_y_labels": true, "truncate_label": null, "explicit_size": false, "x_labels_major_every": null, "margin_right": null, "height": 600, "max_scale": 16, "x_labels_major_count": null, "logarithmic": false, "show_only_major_dots": false, "y_labels_major_count": null, "title": "Ratchathewi 53", "force_uri_protocol": null, "width": 800, "x_value_formatter": null, "half_pie": false, "show_x_guides": false, "style": {"background": "black", "major_guide_stroke_dasharray": "6,6", "no_data_font_size": 64, "no_data_font_family": "Consolas, \"Liberation Mono\", Menlo, Courier, monospace", "value_label_font_family": "Consolas, \"Liberation Mono\", Menlo, Courier, monospace", "value_font_size": 16, "legend_font_size": 14, "transition": "250ms", "value_colors": [], "foreground": "#999", "opacity_hover": ".4", "label_font_family": "Consolas, \"Liberation Mono\", Menlo, Courier, monospace", "major_label_font_size": 10, "opacity": ".8", "major_label_font_family": "Consolas, \"Liberation Mono\", Menlo, Courier, monospace", "tooltip_font_family": "Consolas, \"Liberation Mono\", Menlo, Courier, monospace", "font_family": "Consolas, \"Liberation Mono\", Menlo, Courier, monospace", "value_font_family": "Consolas, \"Liberation Mono\", Menlo, Courier, monospace", "colors": ["#ff5995", "#b6e354", "#feed6c", "#8cedff", "#9e6ffe", "#899ca1", "#f8f8f2", "#bf4646", "#516083", "#f92672", "#82b414", "#fd971f", "#56c2d6", "#808384", "#8c54fe", "#465457"], "title_font_size": 16, "foreground_subtle": "#555", "legend_font_family": "Consolas, \"Liberation Mono\", Menlo, Courier, monospace", "plot_background": "#111", "guide_stroke_dasharray": "4,4", "tooltip_font_size": 14, "foreground_strong": "#eee", "label_font_size": 10, "value_label_font_size": 10, "title_font_family": "Consolas, \"Liberation Mono\", Menlo, Courier, monospace"}, "include_x_axis": false, "stroke": true, "interpolation_precision": 250, "inverse_y_axis": false, "js": ["//kozea.github.io/pygal.js/2.0.x/pygal-tooltips.min.js"], "human_readable": false, "y_labels": null, "missing_value_fill_truncation": "x", "no_prefix": false, "disable_xml_declaration": false, "show_y_guides": true, "no_data_text": "No data", "margin": 20, "show_legend": true, "print_zeroes": true, "spacing": 10, "legend_box_size": 12, "tooltip_border_radius": 0, "legends": ["Ratchathewi"], "y_label_rotation": 0, "order_min": null, "min_scale": 4, "y_labels_major": null, "secondary_range": null, "x_title": null, "show_x_labels": true, "defs": [], "y_title": null, "x_labels": ["Jan", "Feb", "Mar", "Apr", "May", "Jun", "Jul", "Aug", "Sep", "Oct", "Nov", "Dec"], "stack_from_top": false, "print_values": false, "truncate_legend": null, "x_labels_major": null, "css": ["file://style.css", "file://graph.css"], "dots_size": 2.5, "show_y_labels": true, "interpolate": "cubic", "margin_left": null, "print_labels": false, "y_labels_major_every": null, "margin_top": null, "show_minor_x_labels": true, "legend_at_bottom_columns": null, "fill": true, "xrange": null, "strict": false, "zero": 0, "tooltip_fancy_mode": true, "interpolation_parameters": {}, "x_label_rotation": 0, "show_dots": true, "legend_at_bottom": false, "inner_radius": 0, "rounded_bars": null, "range": null, "margin_bottom": null, "box_mode": "extremes", "dynamic_print_values": false, "pretty_print": false}</script><script type="text/javascript" xlink:href="//kozea.github.io/pygal.js/2.0.x/pygal-tooltips.min.js" /></defs><title>Ratchathewi 53</title><g class="graph line-graph vertical"><rect class="background" height="600" width="800" x="0" y="0" /><g class="plot" transform="translate(192, 46)"><rect class="background" height="514" width="587.6" x="0" y="0" /><g class="axis y"><path class="line" d="M0.000000 514.000000 h587.600000" /><g class="guides"><path class="guide line" d="M0.000000 491.694687 h587.600000" /><text class="" x="-5" y="495.19468697371667">160000.0</text><title>160000.0</title></g><g class="guides"><path class="guide line" d="M0.000000 450.561814 h587.600000" /><text class="" x="-5" y="454.0618143784643">170000.0</text><title>170000.0</title></g><g class="guides"><path class="guide line" d="M0.000000 409.428942 h587.600000" /><text class="" x="-5" y="412.92894178321194">180000.0</text><title>180000.0</title></g><g class="guides"><path class="guide line" d="M0.000000 368.296069 h587.600000" /><text class="" x="-5" y="371.7960691879596">190000.0</text><title>190000.0</title></g><g class="guides"><path class="major guide line" d="M0.000000 327.163197 h587.600000" /><text class="major" x="-5" y="330.6631965927072">200000.0</text><title>200000.0</title></g><g class="guides"><path class="guide line" d="M0.000000 286.030324 h587.600000" /><text class="" x="-5" y="289.53032399745484">210000.0</text><title>210000.0</title></g><g class="guides"><path class="guide line" d="M0.000000 244.897451 h587.600000" /><text class="" x="-5" y="248.39745140220242">220000.0</text><title>220000.0</title></g><g class="guides"><path class="guide line" d="M0.000000 203.764579 h587.600000" /><text class="" x="-5" y="207.26457880695006">230000.0</text><title>230000.0</title></g><g class="guides"><path class="guide line" d="M0.000000 162.631706 h587.600000" /><text class="" x="-5" y="166.1317062116977">240000.0</text><title>240000.0</title></g><g class="guides"><path class="major guide line" d="M0.000000 121.498834 h587.600000" /><text class="major" x="-5" y="124.99883361644532">250000.0</text><title>250000.0</title></g><g class="guides"><path class="guide line" d="M0.000000 80.365961 h587.600000" /><text class="" x="-5" y="83.86596102119296">260000.0</text><title>260000.0</title></g><g class="guides"><path class="guide line" d="M0.000000 39.233088 h587.600000" /><text class="" x="-5" y="42.73308842594059">270000.0</text><title>270000.0</title></g></g><g class="axis x"><g class="guides"><path class="line" d="M11.300000 0.000000 v514.000000" /><text class="" x="11.3" y="529.0">Jan</text></g><g class="guides"><path class="guide line" d="M62.663636 0.000000 v514.000000" /><text class="" x="62.66363636363637" y="529.0">Feb</text></g><g class="guides"><path class="guide line" d="M114.027273 0.000000 v514.000000" /><text class="" x="114.02727272727273" y="529.0">Mar</text></g><g class="guides"><path class="guide line" d="M165.390909 0.000000 v514.000000" /><text class="" x="165.39090909090908" y="529.0">Apr</text></g><g class="guides"><path class="guide line" d="M216.754545 0.000000 v514.000000" /><text class="" x="216.75454545454548" y="529.0">May</text></g><g class="guides"><path class="guide line" d="M268.118182 0.000000 v514.000000" /><text class="" x="268.1181818181818" y="529.0">Jun</text></g><g class="guides"><path class="guide line" d="M319.481818 0.000000 v514.000000" /><text class="" x="319.4818181818182" y="529.0">Jul</text></g><g class="guides"><path class="guide line" d="M370.845455 0.000000 v514.000000" /><text class="" x="370.8454545454546" y="529.0">Aug</text></g><g class="guides"><path class="guide line" d="M422.209091 0.000000 v514.000000" /><text class="" x="422.20909090909095" y="529.0">Sep</text></g><g class="guides"><path class="guide line" d="M473.572727 0.000000 v514.000000" /><text class="" x="473.5727272727273" y="529.0">Oct</text></g><g class="guides"><path class="guide line" d="M524.936364 0.000000 v514.000000" /><text class="" x="524.9363636363636" y="529.0">Nov</text></g><g class="guides"><path class="guide line" d="M576.300000 0.000000 v514.000000" /><text class="" x="576.3000000000001" y="529.0">Dec</text></g></g><g class="series serie-0 color-0"><path class="line reactive" d="M11.300000 514.000000 L11.300000 79.613229 11.505455 79.999806 11.710909 80.386368 11.916364 80.772899 12.121818 81.159386 12.327273 81.545812 12.532727 81.932163 12.738182 82.318423 12.943636 82.704579 13.149091 83.090614 13.354545 83.476513 13.560000 83.862262 13.765455 84.247846 13.970909 84.633249 14.176364 85.018457 14.381818 85.403453 14.587273 85.788225 14.792727 86.172755 14.998182 86.557030 15.203636 86.941033 15.409091 87.324751 15.614545 87.708168 15.820000 88.091269 16.025455 88.474039 16.230909 88.856463 16.436364 89.238526 16.641818 89.620213 16.847273 90.001508 17.052727 90.382398 17.258182 90.762866 17.463636 91.142897 17.669091 91.522478 17.874545 91.901592 18.080000 92.280224 18.285455 92.658360 18.490909 93.035984 18.696364 93.413082 18.901818 93.789638 19.107273 94.165637 19.312727 94.541065 19.518182 94.915906 19.723636 95.290145 19.929091 95.663767 20.134545 96.036757 20.340000 96.409100 20.545455 96.780781 20.750909 97.151785 20.956364 97.522097 21.161818 97.891702 21.367273 98.260585 21.572727 98.628730 21.778182 98.996123 21.983636 99.362749 22.189091 99.728592 22.394545 100.093638 22.600000 100.457871 22.805455 100.821277 23.010909 101.183841 23.216364 101.545546 23.421818 101.906379 23.627273 102.266325 23.832727 102.625367 24.038182 102.983492 24.243636 103.340684 24.449091 103.696928 24.654545 104.052209 24.860000 104.406512 25.065455 104.759822 25.270909 105.112124 25.476364 105.463403 25.681818 105.813644 25.887273 106.162831 26.092727 106.510950 26.298182 106.857986 26.503636 107.203924 26.709091 107.548748 26.914545 107.892443 27.120000 108.234996 27.325455 108.576389 27.530909 108.916609 27.736364 109.255641 27.941818 109.593469 28.147273 109.930078 28.352727 110.265453 28.558182 110.599579 28.763636 110.932442 28.969091 111.264026 29.174545 111.594315 29.380000 111.923296 29.585455 112.250953 29.790909 112.577270 29.996364 112.902234 30.201818 113.225828 30.407273 113.548038 30.612727 113.868849 30.818182 114.188246 31.023636 114.506213 31.229091 114.822735 31.434545 115.137799 31.640000 115.451387 31.845455 115.763486 32.050909 116.074081 32.256364 116.383156 32.461818 116.690696 32.667273 116.996687 32.872727 117.301113 33.078182 117.603958 33.283636 117.905210 33.489091 118.204851 33.694545 118.502867 33.900000 118.799243 34.105455 119.093964 34.310909 119.387015 34.516364 119.678381 34.721818 119.968047 34.927273 120.255997 35.132727 120.542217 35.338182 120.826692 35.543636 121.109407 35.749091 121.390346 35.954545 121.669494 36.160000 121.946837 36.365455 122.222360 36.570909 122.496047 36.776364 122.767883 36.981818 123.037853 37.187273 123.305943 37.392727 123.572137 37.598182 123.836420 37.803636 124.098777 38.009091 124.359194 38.214545 124.617654 38.420000 124.874144 38.625455 125.128647 38.830909 125.381149 39.036364 125.631635 39.241818 125.880090 39.447273 126.126498 39.652727 126.370846 39.858182 126.613117 40.063636 126.853296 40.269091 127.091369 40.474545 127.327321 40.680000 127.561136 40.885455 127.792799 41.090909 128.022296 41.296364 128.249612 41.501818 128.474730 41.707273 128.697637 41.912727 128.918317 42.118182 129.136755 42.323636 129.352936 42.529091 129.566846 42.734545 129.778468 42.940000 129.987788 43.145455 130.194791 43.350909 130.399463 43.556364 130.601786 43.761818 130.801748 43.967273 130.999333 44.172727 131.194525 44.378182 131.387310 44.583636 131.577672 44.789091 131.765597 44.994545 131.951069 45.200000 132.134074 45.405455 132.314597 45.610909 132.492621 45.816364 132.668133 46.021818 132.841118 46.227273 133.011559 46.432727 133.179443 46.638182 133.344754 46.843636 133.507477 47.049091 133.667597 47.254545 133.825099 47.460000 133.979968 47.665455 134.132189 47.870909 134.281747 48.076364 134.428626 48.281818 134.572812 48.487273 134.714291 48.692727 134.853045 48.898182 134.989062 49.103636 135.122325 49.309091 135.252819 49.514545 135.380530 49.720000 135.505443 49.925455 135.627542 50.130909 135.746812 50.336364 135.863239 50.541818 135.976806 50.747273 136.087501 50.952727 136.195306 51.158182 136.300207 51.363636 136.402190 51.569091 136.501238 51.774545 136.597338 51.980000 136.690473 52.185455 136.780630 52.390909 136.867792 52.596364 136.951945 52.801818 137.033074 53.007273 137.111163 53.212727 137.186198 53.418182 137.258164 53.623636 137.327045 53.829091 137.392827 54.034545 137.455495 54.240000 137.515033 54.445455 137.571426 54.650909 137.624659 54.856364 137.674718 55.061818 137.721587 55.267273 137.765252 55.472727 137.805696 55.678182 137.842906 55.883636 137.876866 56.089091 137.907560 56.294545 137.934975 56.500000 137.959095 56.705455 137.979904 56.910909 137.997389 57.116364 138.011533 57.321818 138.022322 57.527273 138.029741 57.732727 138.033774 57.938182 138.034407 58.143636 138.031624 58.349091 138.025411 58.554545 138.015753 58.760000 138.002634 58.965455 137.986039 59.170909 137.965954 59.376364 137.942363 59.581818 137.915251 59.787273 137.884603 59.992727 137.850405 60.198182 137.812641 60.403636 137.771295 60.609091 137.726354 60.814545 137.677802 61.020000 137.625623 61.225455 137.569804 61.430909 137.510328 61.636364 137.447182 61.841818 137.380348 62.047273 137.309814 62.252727 137.235563 62.458182 137.157581 62.663636 137.075852 62.869091 136.990370 63.074545 136.901154 63.280000 136.808235 63.485455 136.711640 63.690909 136.611399 63.896364 136.507540 64.101818 136.400092 64.307273 136.289084 64.512727 136.174545 64.718182 136.056503 64.923636 135.934987 65.129091 135.810026 65.334545 135.681649 65.540000 135.549884 65.745455 135.414760 65.950909 135.276307 66.156364 135.134552 66.361818 134.989524 66.567273 134.841252 66.772727 134.689766 66.978182 134.535093 67.183636 134.377263 67.389091 134.216304 67.594545 134.052245 67.800000 133.885114 68.005455 133.714942 68.210909 133.541755 68.416364 133.365584 68.621818 133.186456 68.827273 133.004401 69.032727 132.819448 69.238182 132.631624 69.443636 132.440959 69.649091 132.247482 69.854545 132.051222 70.060000 131.852206 70.265455 131.650464 70.470909 131.446025 70.676364 131.238918 70.881818 131.029171 71.087273 130.816812 71.292727 130.601871 71.498182 130.384377 71.703636 130.164358 71.909091 129.941843 72.114545 129.716861 72.320000 129.489440 72.525455 129.259609 72.730909 129.027398 72.936364 128.792834 73.141818 128.555947 73.347273 128.316765 73.552727 128.075317 73.758182 127.831632 73.963636 127.585739 74.169091 127.337666 74.374545 127.087442 74.580000 126.835096 74.785455 126.580657 74.990909 126.324153 75.196364 126.065613 75.401818 125.805066 75.607273 125.542541 75.812727 125.278066 76.018182 125.011671 76.223636 124.743383 76.429091 124.473232 76.634545 124.201247 76.840000 123.927456 77.045455 123.651888 77.250909 123.374571 77.456364 123.095535 77.661818 122.814809 77.867273 122.532420 78.072727 122.248399 78.278182 121.962773 78.483636 121.675571 78.689091 121.386822 78.894545 121.096555 79.100000 120.804799 79.305455 120.511582 79.510909 120.216934 79.716364 119.920882 79.921818 119.623456 80.127273 119.324684 80.332727 119.024595 80.538182 118.723219 80.743636 118.420583 80.949091 118.116716 81.154545 117.811648 81.360000 117.505407 81.565455 117.198022 81.770909 116.889521 81.976364 116.579933 82.181818 116.269287 82.387273 115.957612 82.592727 115.644937 82.798182 115.331290 83.003636 115.016700 83.209091 114.701196 83.414545 114.384806 83.620000 114.067560 83.825455 113.749486 84.030909 113.430613 84.236364 113.110969 84.441818 112.790584 84.647273 112.469486 84.852727 112.147704 85.058182 111.825267 85.263636 111.502203 85.469091 111.178541 85.674545 110.854310 85.880000 110.529539 86.085455 110.204256 86.290909 109.878491 86.496364 109.552272 86.701818 109.225627 86.907273 108.898586 87.112727 108.571177 87.318182 108.243430 87.523636 107.915372 87.729091 107.587032 87.934545 107.258440 88.140000 106.929624 88.345455 106.600613 88.550909 106.271436 88.756364 105.942121 88.961818 105.612697 89.167273 105.283193 89.372727 104.953637 89.578182 104.624059 89.783636 104.294487 89.989091 103.964950 90.194545 103.635477 90.400000 103.306097 90.605455 102.976837 90.810909 102.647728 91.016364 102.318797 91.221818 101.990073 91.427273 101.661586 91.632727 101.333364 91.838182 101.005436 92.043636 100.677831 92.249091 100.350576 92.454545 100.023702 92.660000 99.697236 92.865455 99.371209 93.070909 99.045647 93.276364 98.720581 93.481818 98.396038 93.687273 98.072048 93.892727 97.748640 94.098182 97.425841 94.303636 97.103682 94.509091 96.782190 94.714545 96.461395 94.920000 96.141325 95.125455 95.822008 95.330909 95.503475 95.536364 95.185753 95.741818 94.868871 95.947273 94.552859 96.152727 94.237744 96.358182 93.923555 96.563636 93.610322 96.769091 93.298073 96.974545 92.986836 97.180000 92.676642 97.385455 92.367517 97.590909 92.059492 97.796364 91.752594 98.001818 91.446854 98.207273 91.142298 98.412727 90.838957 98.618182 90.536858 98.823636 90.236031 99.029091 89.936505 99.234545 89.638308 99.440000 89.341468 99.645455 89.046016 99.850909 88.751979 100.056364 88.459386 100.261818 88.168266 100.467273 87.878647 100.672727 87.590560 100.878182 87.304031 101.083636 87.019091 101.289091 86.735767 101.494545 86.454089 101.700000 86.174085 101.905455 85.895784 102.110909 85.619215 102.316364 85.344407 102.521818 85.071388 102.727273 84.800187 102.932727 84.530833 103.138182 84.263355 103.343636 83.997781 103.549091 83.734140 103.754545 83.472461 103.960000 83.212773 104.165455 82.955104 104.370909 82.699483 104.576364 82.445939 104.781818 82.194501 104.987273 81.945198 105.192727 81.698058 105.398182 81.453109 105.603636 81.210382 105.809091 80.969904 106.014545 80.731704 106.220000 80.495812 106.425455 80.262255 106.630909 80.031062 106.836364 79.802263 107.041818 79.575886 107.247273 79.351960 107.452727 79.130514 107.658182 78.911576 107.863636 78.695175 108.069091 78.481340 108.274545 78.270099 108.480000 78.061482 108.685455 77.855518 108.890909 77.652234 109.096364 77.451660 109.301818 77.253824 109.507273 77.058755 109.712727 76.866483 109.918182 76.677035 110.123636 76.490441 110.329091 76.306728 110.534545 76.125927 110.740000 75.948066 110.945455 75.773173 111.150909 75.601278 111.356364 75.432409 111.561818 75.266594 111.767273 75.103863 111.972727 74.944244 112.178182 74.787767 112.383636 74.634459 112.589091 74.484350 112.794545 74.337468 113.000000 74.193843 113.205455 74.053502 113.410909 73.916475 113.616364 73.782791 113.821818 73.652478 114.027273 73.525564 114.232727 73.402078 114.438182 73.282043 114.643636 73.165479 114.849091 73.052409 115.054545 72.942854 115.260000 72.836836 115.465455 72.734375 115.670909 72.635495 115.876364 72.540216 116.081818 72.448560 116.287273 72.360548 116.492727 72.276203 116.698182 72.195545 116.903636 72.118597 117.109091 72.045380 117.314545 71.975915 117.520000 71.910225 117.725455 71.848330 117.930909 71.790252 118.136364 71.736013 118.341818 71.685635 118.547273 71.639138 118.752727 71.596545 118.958182 71.557878 119.163636 71.523157 119.369091 71.492405 119.574545 71.465642 119.780000 71.442891 119.985455 71.424174 120.190909 71.409510 120.396364 71.398924 120.601818 71.392435 120.807273 71.390066 121.012727 71.391837 121.218182 71.397772 121.423636 71.407890 121.629091 71.422215 121.834545 71.440766 122.040000 71.463567 122.245455 71.490639 122.450909 71.522002 122.656364 71.557680 122.861818 71.597692 123.067273 71.642062 123.272727 71.690810 123.478182 71.743958 123.683636 71.801528 123.889091 71.863542 124.094545 71.930020 124.300000 72.000984 124.505455 72.076457 124.710909 72.156459 124.916364 72.241013 125.121818 72.330139 125.327273 72.423859 125.532727 72.522196 125.738182 72.625170 125.943636 72.732803 126.149091 72.845117 126.354545 72.962134 126.560000 73.083874 126.765455 73.210360 126.970909 73.341612 127.176364 73.477654 127.381818 73.618506 127.587273 73.764189 127.792727 73.914726 127.998182 74.070138 128.203636 74.230447 128.409091 74.395673 128.614545 74.565840 128.820000 74.740968 129.025455 74.921079 129.230909 75.106194 129.436364 75.296335 129.641818 75.491525 129.847273 75.691783 130.052727 75.897132 130.258182 76.107594 130.463636 76.323190 130.669091 76.543941 130.874545 76.769870 131.080000 77.000998 131.285455 77.237346 131.490909 77.478935 131.696364 77.725789 131.901818 77.977927 132.107273 78.235373 132.312727 78.498146 132.518182 78.766270 132.723636 79.039765 132.929091 79.318653 133.134545 79.602956 133.340000 79.892695 133.545455 80.187892 133.750909 80.488568 133.956364 80.794746 134.161818 81.106446 134.367273 81.423690 134.572727 81.746500 134.778182 82.074897 134.983636 82.408903 135.189091 82.748540 135.394545 83.093829 135.600000 83.444792 135.805455 83.801450 136.010909 84.163824 136.216364 84.531938 136.421818 84.905811 136.627273 85.285466 136.832727 85.670924 137.038182 86.062207 137.243636 86.459337 137.449091 86.862334 137.654545 87.271221 137.860000 87.686019 138.065455 88.106750 138.270909 88.533435 138.476364 88.966096 138.681818 89.404755 138.887273 89.849433 139.092727 90.300151 139.298182 90.756932 139.503636 91.219797 139.709091 91.688767 139.914545 92.163864 140.120000 92.645109 140.325455 93.132525 140.530909 93.626133 140.736364 94.125954 140.941818 94.632010 141.147273 95.144322 141.352727 95.662913 141.558182 96.187803 141.763636 96.719015 141.969091 97.256569 142.174545 97.800488 142.380000 98.350794 142.585455 98.907506 142.790909 99.470648 142.996364 100.040241 143.201818 100.616306 143.407273 101.198866 143.612727 101.787940 143.818182 102.383552 144.023636 102.985723 144.229091 103.594474 144.434545 104.209827 144.640000 104.831804 144.845455 105.460425 145.050909 106.095714 145.256364 106.737690 145.461818 107.386377 145.667273 108.041795 145.872727 108.703965 146.078182 109.372911 146.283636 110.048653 146.489091 110.731212 146.694545 111.420611 146.900000 112.116871 147.105455 112.820014 147.310909 113.530060 147.516364 114.247033 147.721818 114.970952 147.927273 115.701841 148.132727 116.439720 148.338182 117.184611 148.543636 117.936536 148.749091 118.695516 148.954545 119.461573 149.160000 120.234728 149.365455 121.015003 149.570909 121.802420 149.776364 122.597000 149.981818 123.398765 150.187273 124.207736 150.392727 125.023935 150.598182 125.847384 150.803636 126.678104 151.009091 127.516116 151.214545 128.361443 151.420000 129.214106 151.625455 130.074126 151.830909 130.941525 152.036364 131.816325 152.241818 132.698547 152.447273 133.588212 152.652727 134.485344 152.858182 135.389962 153.063636 136.302088 153.269091 137.221745 153.474545 138.148954 153.680000 139.083736 153.885455 140.026113 154.090909 140.976106 154.296364 141.933737 154.501818 142.899028 154.707273 143.872001 154.912727 144.852676 155.118182 145.841075 155.323636 146.837221 155.529091 147.841134 155.734545 148.852837 155.940000 149.872350 156.145455 150.899695 156.350909 151.934895 156.556364 152.977970 156.761818 154.028942 156.967273 155.087833 157.172727 156.154664 157.378182 157.229457 157.583636 158.312234 157.789091 159.403015 157.994545 160.501823 158.200000 161.608680 158.405455 162.723606 158.610909 163.846624 158.816364 164.977754 159.021818 166.117020 159.227273 167.264441 159.432727 168.420040 159.638182 169.583839 159.843636 170.755858 160.049091 171.936120 160.254545 173.124646 160.460000 174.321457 160.665455 175.526576 160.870909 176.740024 161.076364 177.961822 161.281818 179.191992 161.487273 180.430556 161.692727 181.677535 161.898182 182.932951 162.103636 184.196825 162.309091 185.469179 162.514545 186.750035 162.720000 188.039414 162.925455 189.337337 163.130909 190.643827 163.336364 191.958905 163.541818 193.282592 163.747273 194.614910 163.952727 195.955881 164.158182 197.305526 164.363636 198.663867 164.569091 200.030926 164.774545 201.406723 164.980000 202.791281 165.185455 204.184621 165.390909 205.586765 165.596364 206.997709 165.801818 208.417352 166.007273 209.845564 166.212727 211.282220 166.418182 212.727191 166.623636 214.180350 166.829091 215.641569 167.034545 217.110721 167.240000 218.587679 167.445455 220.072315 167.650909 221.564501 167.856364 223.064111 168.061818 224.571016 168.267273 226.085089 168.472727 227.606202 168.678182 229.134229 168.883636 230.669042 169.089091 232.210512 169.294545 233.758514 169.500000 235.312918 169.705455 236.873598 169.910909 238.440427 170.116364 240.013276 170.321818 241.592019 170.527273 243.176527 170.732727 244.766674 170.938182 246.362331 171.143636 247.963372 171.349091 249.569669 171.554545 251.181094 171.760000 252.797520 171.965455 254.418820 172.170909 256.044865 172.376364 257.675529 172.581818 259.310684 172.787273 260.950203 172.992727 262.593957 173.198182 264.241820 173.403636 265.893665 173.609091 267.549362 173.814545 269.208786 174.020000 270.871809 174.225455 272.538302 174.430909 274.208140 174.636364 275.881193 174.841818 277.557335 175.047273 279.236439 175.252727 280.918376 175.458182 282.603020 175.663636 284.290242 175.869091 285.979915 176.074545 287.671913 176.280000 289.366107 176.485455 291.062369 176.690909 292.760573 176.896364 294.460591 177.101818 296.162295 177.307273 297.865559 177.512727 299.570253 177.718182 301.276252 177.923636 302.983427 178.129091 304.691651 178.334545 306.400797 178.540000 308.110737 178.745455 309.821343 178.950909 311.532489 179.156364 313.244046 179.361818 314.955887 179.567273 316.667885 179.772727 318.379912 179.978182 320.091841 180.183636 321.803544 180.389091 323.514894 180.594545 325.225763 180.800000 326.936023 181.005455 328.645548 181.210909 330.354210 181.416364 332.061881 181.621818 333.768434 181.827273 335.473742 182.032727 337.177676 182.238182 338.880110 182.443636 340.580915 182.649091 342.279965 182.854545 343.977132 183.060000 345.672289 183.265455 347.365307 183.470909 349.056060 183.676364 350.744420 183.881818 352.430260 184.087273 354.113452 184.292727 355.793868 184.498182 357.471381 184.703636 359.145864 184.909091 360.817190 185.114545 362.485230 185.320000 364.149857 185.525455 365.810943 185.730909 367.468362 185.936364 369.121986 186.141818 370.771687 186.347273 372.417338 186.552727 374.058811 186.758182 375.695979 186.963636 377.328715 187.169091 378.956890 187.374545 380.580377 187.580000 382.199050 187.785455 383.812780 187.990909 385.421440 188.196364 387.024902 188.401818 388.623039 188.607273 390.215724 188.812727 391.802829 189.018182 393.384226 189.223636 394.959789 189.429091 396.529389 189.634545 398.092899 189.840000 399.650192 190.045455 401.201140 190.250909 402.745615 190.456364 404.283491 190.661818 405.814639 190.867273 407.338933 191.072727 408.856244 191.278182 410.366446 191.483636 411.869410 191.689091 413.365010 191.894545 414.853118 192.100000 416.333605 192.305455 417.806346 192.510909 419.271212 192.716364 420.728076 192.921818 422.176811 193.127273 423.617288 193.332727 425.049381 193.538182 426.472961 193.743636 427.887903 193.949091 429.294077 194.154545 430.691356 194.360000 432.079614 194.565455 433.458723 194.770909 434.828554 194.976364 436.188981 195.181818 437.539876 195.387273 438.881112 195.592727 440.212561 195.798182 441.534096 196.003636 442.845588 196.209091 444.146912 196.414545 445.437939 196.620000 446.718541 196.825455 447.988592 197.030909 449.247964 197.236364 450.496529 197.441818 451.734159 197.647273 452.960729 197.852727 454.176109 198.058182 455.380172 198.263636 456.572791 198.469091 457.753839 198.674545 458.923188 198.880000 460.080710 199.085455 461.226278 199.290909 462.359765 199.496364 463.481042 199.701818 464.589984 199.907273 465.686461 200.112727 466.770347 200.318182 467.841514 200.523636 468.899834 200.729091 469.945181 200.934545 470.977427 201.140000 471.996443 201.345455 473.002103 201.550909 473.994280 201.756364 474.972845 201.961818 475.937672 202.167273 476.888632 202.372727 477.825599 202.578182 478.748444 202.783636 479.657041 202.989091 480.551261 203.194545 481.430978 203.400000 482.296064 203.605455 483.146391 203.810909 483.981833 204.016364 484.802260 204.221818 485.607547 204.427273 486.397565 204.632727 487.172187 204.838182 487.931286 205.043636 488.674734 205.249091 489.402403 205.454545 490.114166 205.660000 490.809896 205.865455 491.489466 206.070909 492.152746 206.276364 492.799611 206.481818 493.429933 206.687273 494.043584 206.892727 494.640436 207.098182 495.220363 207.303636 495.783236 207.509091 496.328929 207.714545 496.857314 207.920000 497.368263 208.125455 497.861649 208.330909 498.337344 208.536364 498.795221 208.741818 499.235152 208.947273 499.657011 209.152727 500.060668 209.358182 500.445998 209.563636 500.812872 209.769091 501.161163 209.974545 501.490744 210.180000 501.801487 210.385455 502.093264 210.590909 502.365948 210.796364 502.619412 211.001818 502.853528 211.207273 503.068169 211.412727 503.263207 211.618182 503.438514 211.823636 503.593964 212.029091 503.729428 212.234545 503.844780 212.440000 503.939891 212.645455 504.014635 212.850909 504.068883 213.056364 504.102509 213.261818 504.115385 213.467273 504.107382 213.672727 504.078375 213.878182 504.028235 214.083636 503.956835 214.289091 503.864048 214.494545 503.749745 214.700000 503.613800 214.905455 503.456085 215.110909 503.276472 215.316364 503.074834 215.521818 502.851044 215.727273 502.604974 215.932727 502.336496 216.138182 502.045484 216.343636 501.731809 216.549091 501.395344 216.754545 501.035962 216.960000 500.653583 217.165455 500.248318 217.370909 499.820327 217.576364 499.369768 217.781818 498.896800 217.987273 498.401584 218.192727 497.884277 218.398182 497.345039 218.603636 496.784029 218.809091 496.201406 219.014545 495.597329 219.220000 494.971957 219.425455 494.325450 219.630909 493.657967 219.836364 492.969666 220.041818 492.260707 220.247273 491.531248 220.452727 490.781450 220.658182 490.011470 220.863636 489.221469 221.069091 488.411605 221.274545 487.582037 221.480000 486.732925 221.685455 485.864427 221.890909 484.976703 222.096364 484.069912 222.301818 483.144212 222.507273 482.199764 222.712727 481.236725 222.918182 480.255256 223.123636 479.255515 223.329091 478.237661 223.534545 477.201854 223.740000 476.148252 223.945455 475.077015 224.150909 473.988302 224.356364 472.882272 224.561818 471.759083 224.767273 470.618896 224.972727 469.461869 225.178182 468.288161 225.383636 467.097932 225.589091 465.891340 225.794545 464.668545 226.000000 463.429705 226.205455 462.174981 226.410909 460.904530 226.616364 459.618512 226.821818 458.317087 227.027273 457.000412 227.232727 455.668648 227.438182 454.321953 227.643636 452.960487 227.849091 451.584409 228.054545 450.193877 228.260000 448.789051 228.465455 447.370090 228.670909 445.937153 228.876364 444.490399 229.081818 443.029988 229.287273 441.556078 229.492727 440.068828 229.698182 438.568398 229.903636 437.054947 230.109091 435.528633 230.314545 433.989616 230.520000 432.438055 230.725455 430.874110 230.930909 429.297938 231.136364 427.709700 231.341818 426.109554 231.547273 424.497660 231.752727 422.874176 231.958182 421.239262 232.163636 419.593077 232.369091 417.935779 232.574545 416.267529 232.780000 414.588485 232.985455 412.898806 233.190909 411.198651 233.396364 409.488180 233.601818 407.767551 233.807273 406.036924 234.012727 404.296458 234.218182 402.546312 234.423636 400.786644 234.629091 399.017614 234.834545 397.239382 235.040000 395.452106 235.245455 393.655945 235.450909 391.851059 235.656364 390.037606 235.861818 388.215746 236.067273 386.385638 236.272727 384.547440 236.478182 382.701313 236.683636 380.847415 236.889091 378.985904 237.094545 377.116941 237.300000 375.240685 237.505455 373.357294 237.710909 371.466927 237.916364 369.569745 238.121818 367.665905 238.327273 365.755567 238.532727 363.838890 238.738182 361.916033 238.943636 359.987155 239.149091 358.052415 239.354545 356.111973 239.560000 354.165988 239.765455 352.214618 239.970909 350.258023 240.176364 348.296362 240.381818 346.329793 240.587273 344.358477 240.792727 342.382572 240.998182 340.402237 241.203636 338.417631 241.409091 336.428914 241.614545 334.436245 241.820000 332.439782 242.025455 330.439684 242.230909 328.436112 242.436364 326.429224 242.641818 324.419178 242.847273 322.406135 243.052727 320.390254 243.258182 318.371692 243.463636 316.350610 243.669091 314.327167 243.874545 312.301521 244.080000 310.273832 244.285455 308.244259 244.490909 306.212961 244.696364 304.180097 244.901818 302.145827 245.107273 300.110308 245.312727 298.073701 245.518182 296.036165 245.723636 293.997858 245.929091 291.958940 246.134545 289.919569 246.340000 287.879906 246.545455 285.840109 246.750909 283.800337 246.956364 281.760749 247.161818 279.721504 247.367273 277.682762 247.572727 275.644681 247.778182 273.607421 247.983636 271.571141 248.189091 269.535999 248.394545 267.502156 248.600000 265.469770 248.805455 263.439000 249.010909 261.410005 249.216364 259.382944 249.421818 257.357977 249.627273 255.335262 249.832727 253.314960 250.038182 251.297228 250.243636 249.282225 250.449091 247.270112 250.654545 245.261047 250.860000 243.255189 251.065455 241.252698 251.270909 239.253732 251.476364 237.258450 251.681818 235.267012 251.887273 233.279577 252.092727 231.296303 252.298182 229.317351 252.503636 227.342878 252.709091 225.373045 252.914545 223.408009 253.120000 221.447931 253.325455 219.492970 253.530909 217.543284 253.736364 215.599033 253.941818 213.660375 254.147273 211.727471 254.352727 209.800478 254.558182 207.879556 254.763636 205.964865 254.969091 204.056563 255.174545 202.154809 255.380000 200.259762 255.585455 198.371582 255.790909 196.490428 255.996364 194.616459 256.201818 192.749833 256.407273 190.890711 256.612727 189.039250 256.818182 187.195611 257.023636 185.359952 257.229091 183.532433 257.434545 181.713212 257.640000 179.902448 257.845455 178.100301 258.050909 176.306931 258.256364 174.522495 258.461818 172.747153 258.667273 170.981064 258.872727 169.224387 259.078182 167.477282 259.283636 165.739907 259.489091 164.012421 259.694545 162.294985 259.900000 160.587756 260.105455 158.890894 260.310909 157.204557 260.516364 155.528906 260.721818 153.864099 260.927273 152.210295 261.132727 150.567654 261.338182 148.936334 261.543636 147.316495 261.749091 145.708295 261.954545 144.111894 262.160000 142.527451 262.365455 140.955125 262.570909 139.395075 262.776364 137.847460 262.981818 136.312440 263.187273 134.790172 263.392727 133.280818 263.598182 131.784535 263.803636 130.301482 264.009091 128.831820 264.214545 127.375706 264.420000 125.933301 264.625455 124.504762 264.830909 123.090250 265.036364 121.689923 265.241818 120.303940 265.447273 118.932461 265.652727 117.575645 265.858182 116.233650 266.063636 114.906636 266.269091 113.594762 266.474545 112.298188 266.680000 111.017071 266.885455 109.751571 267.090909 108.501848 267.296364 107.268061 267.501818 106.050367 267.707273 104.848928 267.912727 103.663901 268.118182 102.495446 268.323636 101.343681 268.529091 100.208554 268.734545 99.089974 268.940000 97.987849 269.145455 96.902087 269.350909 95.832595 269.556364 94.779282 269.761818 93.742056 269.967273 92.720825 270.172727 91.715495 270.378182 90.725977 270.583636 89.752177 270.789091 88.794003 270.994545 87.851364 271.200000 86.924167 271.405455 86.012320 271.610909 85.115732 271.816364 84.234309 272.021818 83.367961 272.227273 82.516595 272.432727 81.680119 272.638182 80.858441 272.843636 80.051469 273.049091 79.259111 273.254545 78.481275 273.460000 77.717868 273.665455 76.968800 273.870909 76.233977 274.076364 75.513307 274.281818 74.806700 274.487273 74.114062 274.692727 73.435301 274.898182 72.770326 275.103636 72.119044 275.309091 71.481364 275.514545 70.857193 275.720000 70.246440 275.925455 69.649012 276.130909 69.064816 276.336364 68.493763 276.541818 67.935758 276.747273 67.390710 276.952727 66.858527 277.158182 66.339118 277.363636 65.832389 277.569091 65.338249 277.774545 64.856606 277.980000 64.387368 278.185455 63.930442 278.390909 63.485738 278.596364 63.053162 278.801818 62.632622 279.007273 62.224027 279.212727 61.827285 279.418182 61.442303 279.623636 61.068989 279.829091 60.707252 280.034545 60.357000 280.240000 60.018139 280.445455 59.690579 280.650909 59.374227 280.856364 59.068991 281.061818 58.774779 281.267273 58.491500 281.472727 58.219060 281.678182 57.957368 281.883636 57.706332 282.089091 57.465860 282.294545 57.235860 282.500000 57.016240 282.705455 56.806908 282.910909 56.607771 283.116364 56.418737 283.321818 56.239716 283.527273 56.070614 283.732727 55.911339 283.938182 55.761800 284.143636 55.621904 284.349091 55.491560 284.554545 55.370675 284.760000 55.259157 284.965455 55.156915 285.170909 55.063855 285.376364 54.979887 285.581818 54.904918 285.787273 54.838856 285.992727 54.781609 286.198182 54.733085 286.403636 54.693192 286.609091 54.661837 286.814545 54.638930 287.020000 54.624377 287.225455 54.618087 287.430909 54.619968 287.636364 54.629927 287.841818 54.647873 288.047273 54.673713 288.252727 54.707356 288.458182 54.748709 288.663636 54.797681 288.869091 54.854179 289.074545 54.918111 289.280000 54.989386 289.485455 55.067911 289.690909 55.153594 289.896364 55.246343 290.101818 55.346066 290.307273 55.452671 290.512727 55.566067 290.718182 55.686160 290.923636 55.812859 291.129091 55.946072 291.334545 56.085706 291.540000 56.231671 291.745455 56.383873 291.950909 56.542221 292.156364 56.706622 292.361818 56.876985 292.567273 57.053218 292.772727 57.235228 292.978182 57.422923 293.183636 57.616212 293.389091 57.815002 293.594545 58.019201 293.800000 58.228718 294.005455 58.443460 294.210909 58.663335 294.416364 58.888251 294.621818 59.118116 294.827273 59.352838 295.032727 59.592325 295.238182 59.836485 295.443636 60.085226 295.649091 60.338456 295.854545 60.596083 296.060000 60.858014 296.265455 61.124158 296.470909 61.394422 296.676364 61.668716 296.881818 61.946945 297.087273 62.229020 297.292727 62.514846 297.498182 62.804333 297.703636 63.097389 297.909091 63.393921 298.114545 63.693837 298.320000 63.997045 298.525455 64.303454 298.730909 64.612970 298.936364 64.925503 299.141818 65.240960 299.347273 65.559248 299.552727 65.880277 299.758182 66.203954 299.963636 66.530186 300.169091 66.858882 300.374545 67.189951 300.580000 67.523298 300.785455 67.858834 300.990909 68.196465 301.196364 68.536099 301.401818 68.877646 301.607273 69.221011 301.812727 69.566104 302.018182 69.912833 302.223636 70.261105 302.429091 70.610828 302.634545 70.961910 302.840000 71.314260 303.045455 71.667785 303.250909 72.022392 303.456364 72.377991 303.661818 72.734489 303.867273 73.091794 304.072727 73.449814 304.278182 73.808457 304.483636 74.167631 304.689091 74.527243 304.894545 74.887202 305.100000 75.247416 305.305455 75.607793 305.510909 75.968240 305.716364 76.328666 305.921818 76.688978 306.127273 77.049085 306.332727 77.408894 306.538182 77.768313 306.743636 78.127251 306.949091 78.485615 307.154545 78.843314 307.360000 79.200254 307.565455 79.556345 307.770909 79.911494 307.976364 80.265609 308.181818 80.618597 308.387273 80.970368 308.592727 81.320829 308.798182 81.669888 309.003636 82.017452 309.209091 82.363430 309.414545 82.707730 309.620000 83.050260 309.825455 83.390927 310.030909 83.729640 310.236364 84.066307 310.441818 84.400835 310.647273 84.733132 310.852727 85.063107 311.058182 85.390667 311.263636 85.715721 311.469091 86.038175 311.674545 86.357939 311.880000 86.674921 312.085455 86.989027 312.290909 87.300166 312.496364 87.608247 312.701818 87.913176 312.907273 88.214862 313.112727 88.513214 313.318182 88.808138 313.523636 89.099543 313.729091 89.387336 313.934545 89.671427 314.140000 89.951722 314.345455 90.228130 314.550909 90.500558 314.756364 90.768915 314.961818 91.033108 315.167273 91.293046 315.372727 91.548636 315.578182 91.799786 315.783636 92.046405 315.989091 92.288400 316.194545 92.525680 316.400000 92.758151 316.605455 92.985723 316.810909 93.208302 317.016364 93.425798 317.221818 93.638117 317.427273 93.845169 317.632727 94.046860 317.838182 94.243100 318.043636 94.433795 318.249091 94.618853 318.454545 94.798184 318.660000 94.971694 318.865455 95.139292 319.070909 95.300885 319.276364 95.456382 319.481818 95.605690 319.687273 95.748740 319.892727 95.885549 320.098182 96.016156 320.303636 96.140601 320.509091 96.258924 320.714545 96.371164 320.920000 96.477361 321.125455 96.577554 321.330909 96.671784 321.536364 96.760088 321.741818 96.842508 321.947273 96.919082 322.152727 96.989850 322.358182 97.054852 322.563636 97.114127 322.769091 97.167716 322.974545 97.215656 323.180000 97.257988 323.385455 97.294752 323.590909 97.325987 323.796364 97.351732 324.001818 97.372028 324.207273 97.386913 324.412727 97.396427 324.618182 97.400611 324.823636 97.399502 325.029091 97.393142 325.234545 97.381569 325.440000 97.364823 325.645455 97.342944 325.850909 97.315971 326.056364 97.283944 326.261818 97.246902 326.467273 97.204885 326.672727 97.157932 326.878182 97.106083 327.083636 97.049378 327.289091 96.987856 327.494545 96.921556 327.700000 96.850519 327.905455 96.774783 328.110909 96.694389 328.316364 96.609376 328.521818 96.519783 328.727273 96.425650 328.932727 96.327016 329.138182 96.223922 329.343636 96.116406 329.549091 96.004509 329.754545 95.888269 329.960000 95.767727 330.165455 95.642922 330.370909 95.513893 330.576364 95.380680 330.781818 95.243322 330.987273 95.101860 331.192727 94.956332 331.398182 94.806779 331.603636 94.653240 331.809091 94.495753 332.014545 94.334360 332.220000 94.169099 332.425455 94.000011 332.630909 93.827134 332.836364 93.650508 333.041818 93.470172 333.247273 93.286167 333.452727 93.098532 333.658182 92.907306 333.863636 92.712530 334.069091 92.514241 334.274545 92.312481 334.480000 92.107288 334.685455 91.898703 334.890909 91.686764 335.096364 91.471512 335.301818 91.252985 335.507273 91.031224 335.712727 90.806268 335.918182 90.578156 336.123636 90.346929 336.329091 90.112625 336.534545 89.875284 336.740000 89.634946 336.945455 89.391651 337.150909 89.145437 337.356364 88.896344 337.561818 88.644413 337.767273 88.389682 337.972727 88.132192 338.178182 87.871981 338.383636 87.609089 338.589091 87.343556 338.794545 87.075421 339.000000 86.804725 339.205455 86.531505 339.410909 86.255803 339.616364 85.977657 339.821818 85.697108 340.027273 85.414194 340.232727 85.128956 340.438182 84.841432 340.643636 84.551662 340.849091 84.259687 341.054545 83.965545 341.260000 83.669276 341.465455 83.370920 341.670909 83.070515 341.876364 82.768103 342.081818 82.463722 342.287273 82.157412 342.492727 81.849212 342.698182 81.539162 342.903636 81.227301 343.109091 80.913670 343.314545 80.598307 343.520000 80.281252 343.725455 79.962545 343.930909 79.642226 344.136364 79.320333 344.341818 78.996907 344.547273 78.671987 344.752727 78.345612 344.958182 78.017822 345.163636 77.688657 345.369091 77.358156 345.574545 77.026359 345.780000 76.693306 345.985455 76.359035 346.190909 76.023586 346.396364 75.687000 346.601818 75.349315 346.807273 75.010571 347.012727 74.670808 347.218182 74.330066 347.423636 73.988383 347.629091 73.645799 347.834545 73.302354 348.040000 72.958088 348.245455 72.613040 348.450909 72.267249 348.656364 71.920756 348.861818 71.573599 349.067273 71.225818 349.272727 70.877454 349.478182 70.528544 349.683636 70.179130 349.889091 69.829250 350.094545 69.478944 350.300000 69.128252 350.505455 68.777213 350.710909 68.425866 350.916364 68.074252 351.121818 67.722410 351.327273 67.370379 351.532727 67.018199 351.738182 66.665910 351.943636 66.313551 352.149091 65.961161 352.354545 65.608780 352.560000 65.256449 352.765455 64.904205 352.970909 64.552090 353.176364 64.200142 353.381818 63.848400 353.587273 63.496906 353.792727 63.145697 353.998182 62.794815 354.203636 62.444297 354.409091 62.094184 354.614545 61.744516 354.820000 61.395331 355.025455 61.046670 355.230909 60.698572 355.436364 60.351076 355.641818 60.004223 355.847273 59.658051 356.052727 59.312600 356.258182 58.967911 356.463636 58.624021 356.669091 58.280972 356.874545 57.938802 357.080000 57.597551 357.285455 57.257258 357.490909 56.917964 357.696364 56.579708 357.901818 56.242529 358.107273 55.906466 358.312727 55.571560 358.518182 55.237850 358.723636 54.905375 358.929091 54.574176 359.134545 54.244291 359.340000 53.915760 359.545455 53.588623 359.750909 53.262920 359.956364 52.938689 360.161818 52.615970 360.367273 52.294804 360.572727 51.975229 360.778182 51.657285 360.983636 51.341012 361.189091 51.026449 361.394545 50.713635 361.600000 50.402611 361.805455 50.093416 362.010909 49.786090 362.216364 49.480671 362.421818 49.177200 362.627273 48.875716 362.832727 48.576258 363.038182 48.278867 363.243636 47.983582 363.449091 47.690442 363.654545 47.399487 363.860000 47.110756 364.065455 46.824290 364.270909 46.540126 364.476364 46.258307 364.681818 45.978869 364.887273 45.701854 365.092727 45.427301 365.298182 45.155249 365.503636 44.885738 365.709091 44.618808 365.914545 44.354498 366.120000 44.092847 366.325455 43.833895 366.530909 43.577682 366.736364 43.324248 366.941818 43.073631 367.147273 42.825871 367.352727 42.581009 367.558182 42.339083 367.763636 42.100133 367.969091 41.864199 368.174545 41.631320 368.380000 41.401535 368.585455 41.174885 368.790909 40.951409 368.996364 40.731146 369.201818 40.514137 369.407273 40.300419 369.612727 40.090034 369.818182 39.883021 370.023636 39.679418 370.229091 39.479267 370.434545 39.282605 370.640000 39.089474 370.845455 38.899912 371.050909 38.713949 371.256364 38.531577 371.461818 38.352775 371.667273 38.177525 371.872727 38.005809 372.078182 37.837606 372.283636 37.672899 372.489091 37.511668 372.694545 37.353893 372.900000 37.199557 373.105455 37.048640 373.310909 36.901123 373.516364 36.756987 373.721818 36.616214 373.927273 36.478783 374.132727 36.344677 374.338182 36.213876 374.543636 36.086361 374.749091 35.962113 374.954545 35.841113 375.160000 35.723343 375.365455 35.608783 375.570909 35.497414 375.776364 35.389218 375.981818 35.284174 376.187273 35.182266 376.392727 35.083472 376.598182 34.987775 376.803636 34.895155 377.009091 34.805593 377.214545 34.719070 377.420000 34.635569 377.625455 34.555068 377.830909 34.477550 378.036364 34.402995 378.241818 34.331384 378.447273 34.262699 378.652727 34.196921 378.858182 34.134030 379.063636 34.074007 379.269091 34.016834 379.474545 33.962491 379.680000 33.910960 379.885455 33.862221 380.090909 33.816256 380.296364 33.773045 380.501818 33.732570 380.707273 33.694811 380.912727 33.659750 381.118182 33.627368 381.323636 33.597645 381.529091 33.570563 381.734545 33.546102 381.940000 33.524244 382.145455 33.504969 382.350909 33.488260 382.556364 33.474095 382.761818 33.462458 382.967273 33.453328 383.172727 33.446687 383.378182 33.442515 383.583636 33.440795 383.789091 33.441506 383.994545 33.444629 384.200000 33.450147 384.405455 33.458039 384.610909 33.468287 384.816364 33.480872 385.021818 33.495774 385.227273 33.512976 385.432727 33.532457 385.638182 33.554199 385.843636 33.578183 386.049091 33.604389 386.254545 33.632800 386.460000 33.663395 386.665455 33.696157 386.870909 33.731065 387.076364 33.768101 387.281818 33.807246 387.487273 33.848481 387.692727 33.891787 387.898182 33.937145 388.103636 33.984536 388.309091 34.033941 388.514545 34.085340 388.720000 34.138716 388.925455 34.194049 389.130909 34.251320 389.336364 34.310510 389.541818 34.371600 389.747273 34.434571 389.952727 34.499404 390.158182 34.566080 390.363636 34.634580 390.569091 34.704886 390.774545 34.776977 390.980000 34.850836 391.185455 34.926443 391.390909 35.003779 391.596364 35.082825 391.801818 35.163562 392.007273 35.245972 392.212727 35.330034 392.418182 35.415731 392.623636 35.503043 392.829091 35.591952 393.034545 35.682437 393.240000 35.774481 393.445455 35.868064 393.650909 35.963168 393.856364 36.059772 394.061818 36.157859 394.267273 36.257410 394.472727 36.358404 394.678182 36.460824 394.883636 36.564651 395.089091 36.669864 395.294545 36.776446 395.500000 36.884378 395.705455 36.993640 395.910909 37.104213 396.116364 37.216079 396.321818 37.329218 396.527273 37.443612 396.732727 37.559241 396.938182 37.676086 397.143636 37.794129 397.349091 37.913351 397.554545 38.033732 397.760000 38.155253 397.965455 38.277896 398.170909 38.401642 398.376364 38.526471 398.581818 38.652365 398.787273 38.779304 398.992727 38.907270 399.198182 39.036244 399.403636 39.166206 399.609091 39.297137 399.814545 39.429020 400.020000 39.561834 400.225455 39.695561 400.430909 39.830181 400.636364 39.965676 400.841818 40.102027 401.047273 40.239214 401.252727 40.377219 401.458182 40.516023 401.663636 40.655607 401.869091 40.795951 402.074545 40.937037 402.280000 41.078846 402.485455 41.221359 402.690909 41.364556 402.896364 41.508419 403.101818 41.652930 403.307273 41.798067 403.512727 41.943814 403.718182 42.090151 403.923636 42.237058 404.129091 42.384518 404.334545 42.532510 404.540000 42.681016 404.745455 42.830017 404.950909 42.979494 405.156364 43.129428 405.361818 43.279800 405.567273 43.430591 405.772727 43.581782 405.978182 43.733354 406.183636 43.885288 406.389091 44.037565 406.594545 44.190165 406.800000 44.343071 407.005455 44.496263 407.210909 44.649722 407.416364 44.803429 407.621818 44.957366 407.827273 45.111512 408.032727 45.265849 408.238182 45.420359 408.443636 45.575021 408.649091 45.729818 408.854545 45.884730 409.060000 46.039738 409.265455 46.194823 409.470909 46.349966 409.676364 46.505149 409.881818 46.660352 410.087273 46.815556 410.292727 46.970742 410.498182 47.125891 410.703636 47.280985 410.909091 47.436004 411.114545 47.590930 411.320000 47.745742 411.525455 47.900423 411.730909 48.054953 411.936364 48.209314 412.141818 48.363486 412.347273 48.517450 412.552727 48.671187 412.758182 48.824679 412.963636 48.977907 413.169091 49.130850 413.374545 49.283491 413.580000 49.435811 413.785455 49.587790 413.990909 49.739409 414.196364 49.890650 414.401818 50.041493 414.607273 50.191920 414.812727 50.341912 415.018182 50.491448 415.223636 50.640512 415.429091 50.789082 415.634545 50.937142 415.840000 51.084671 416.045455 51.231650 416.250909 51.378061 416.456364 51.523885 416.661818 51.669102 416.867273 51.813694 417.072727 51.957641 417.278182 52.100925 417.483636 52.243527 417.689091 52.385427 417.894545 52.526607 418.100000 52.667048 418.305455 52.806730 418.510909 52.945636 418.716364 53.083744 418.921818 53.221038 419.127273 53.357497 419.332727 53.493103 419.538182 53.627837 419.743636 53.761679 419.949091 53.894612 420.154545 54.026615 420.360000 54.157670 420.565455 54.287757 420.770909 54.416859 420.976364 54.544955 421.181818 54.672028 421.387273 54.798057 421.592727 54.923024 421.798182 55.046909 422.003636 55.169695 422.209091 55.291362 422.414545 55.411894 422.620000 55.531288 422.825455 55.649546 423.030909 55.766667 423.236364 55.882653 423.441818 55.997504 423.647273 56.111221 423.852727 56.223805 424.058182 56.335255 424.263636 56.445573 424.469091 56.554759 424.674545 56.662815 424.880000 56.769740 425.085455 56.875535 425.290909 56.980201 425.496364 57.083739 425.701818 57.186149 425.907273 57.287432 426.112727 57.387589 426.318182 57.486619 426.523636 57.584524 426.729091 57.681305 426.934545 57.776962 427.140000 57.871495 427.345455 57.964906 427.550909 58.057195 427.756364 58.148362 427.961818 58.238409 428.167273 58.327336 428.372727 58.415143 428.578182 58.501832 428.783636 58.587402 428.989091 58.671855 429.194545 58.755191 429.400000 58.837410 429.605455 58.918514 429.810909 58.998504 430.016364 59.077378 430.221818 59.155140 430.427273 59.231788 430.632727 59.307324 430.838182 59.381748 431.043636 59.455061 431.249091 59.527264 431.454545 59.598357 431.660000 59.668340 431.865455 59.737215 432.070909 59.804983 432.276364 59.871643 432.481818 59.937196 432.687273 60.001644 432.892727 60.064986 433.098182 60.127224 433.303636 60.188358 433.509091 60.248388 433.714545 60.307315 433.920000 60.365141 434.125455 60.421865 434.330909 60.477488 434.536364 60.532011 434.741818 60.585435 434.947273 60.637760 435.152727 60.688986 435.358182 60.739115 435.563636 60.788147 435.769091 60.836083 435.974545 60.882923 436.180000 60.928668 436.385455 60.973319 436.590909 61.016876 436.796364 61.059340 437.001818 61.100711 437.207273 61.140991 437.412727 61.180180 437.618182 61.218278 437.823636 61.255286 438.029091 61.291205 438.234545 61.326035 438.440000 61.359778 438.645455 61.392433 438.850909 61.424001 439.056364 61.454484 439.261818 61.483881 439.467273 61.512193 439.672727 61.539422 439.878182 61.565567 440.083636 61.590629 440.289091 61.614609 440.494545 61.637507 440.700000 61.659325 440.905455 61.680062 441.110909 61.699720 441.316364 61.718299 441.521818 61.735799 441.727273 61.752222 441.932727 61.767568 442.138182 61.781838 442.343636 61.795032 442.549091 61.807150 442.754545 61.818195 442.960000 61.828165 443.165455 61.837063 443.370909 61.844888 443.576364 61.851641 443.781818 61.857323 443.987273 61.861934 444.192727 61.865475 444.398182 61.867947 444.603636 61.869351 444.809091 61.869686 445.014545 61.868954 445.220000 61.867155 445.425455 61.864291 445.630909 61.860360 445.836364 61.855365 446.041818 61.849306 446.247273 61.842184 446.452727 61.833998 446.658182 61.824750 446.863636 61.814441 447.069091 61.803071 447.274545 61.790640 447.480000 61.777150 447.685455 61.762601 447.890909 61.746993 448.096364 61.730328 448.301818 61.712606 448.507273 61.693827 448.712727 61.673992 448.918182 61.653103 449.123636 61.631159 449.329091 61.608160 449.534545 61.584109 449.740000 61.559005 449.945455 61.532850 450.150909 61.505642 450.356364 61.477385 450.561818 61.448077 450.767273 61.417720 450.972727 61.386314 451.178182 61.353860 451.383636 61.320359 451.589091 61.285811 451.794545 61.250217 452.000000 61.213577 452.205455 61.175892 452.410909 61.137163 452.616364 61.097391 452.821818 61.056576 453.027273 61.014718 453.232727 60.971819 453.438182 60.927879 453.643636 60.882898 453.849091 60.836878 454.054545 60.789818 454.260000 60.741720 454.465455 60.692585 454.670909 60.642412 454.876364 60.591203 455.081818 60.538957 455.287273 60.485677 455.492727 60.431362 455.698182 60.376013 455.903636 60.319631 456.109091 60.262216 456.314545 60.203770 456.520000 60.144291 456.725455 60.083783 456.930909 60.022244 457.136364 59.959675 457.341818 59.896078 457.547273 59.831453 457.752727 59.765800 457.958182 59.699120 458.163636 59.631414 458.369091 59.562683 458.574545 59.492926 458.780000 59.422146 458.985455 59.350341 459.190909 59.277514 459.396364 59.203664 459.601818 59.128793 459.807273 59.052900 460.012727 58.975988 460.218182 58.898055 460.423636 58.819103 460.629091 58.739133 460.834545 58.658144 461.040000 58.576139 461.245455 58.493117 461.450909 58.409079 461.656364 58.324026 461.861818 58.237958 462.067273 58.150876 462.272727 58.062781 462.478182 57.973673 462.683636 57.883553 462.889091 57.792422 463.094545 57.700279 463.300000 57.607127 463.505455 57.512965 463.710909 57.417794 463.916364 57.321615 464.121818 57.224429 464.327273 57.126236 464.532727 57.027036 464.738182 56.926830 464.943636 56.825620 465.149091 56.723405 465.354545 56.620187 465.560000 56.515965 465.765455 56.410741 465.970909 56.304516 466.176364 56.197289 466.381818 56.089061 466.587273 55.979834 466.792727 55.869608 466.998182 55.758383 467.203636 55.646160 467.409091 55.532939 467.614545 55.418722 467.820000 55.303510 468.025455 55.187301 468.230909 55.070098 468.436364 54.951901 468.641818 54.832711 468.847273 54.712528 469.052727 54.591352 469.258182 54.469185 469.463636 54.346028 469.669091 54.221880 469.874545 54.096742 470.080000 53.970616 470.285455 53.843501 470.490909 53.715398 470.696364 53.586309 470.901818 53.456233 471.107273 53.325172 471.312727 53.193125 471.518182 53.060094 471.723636 52.926080 471.929091 52.791082 472.134545 52.655101 472.340000 52.518139 472.545455 52.380195 472.750909 52.241271 472.956364 52.101367 473.161818 51.960484 473.367273 51.818622 473.572727 51.675782 473.778182 51.531967 473.983636 51.387184 474.189091 51.241444 474.394545 51.094757 474.600000 50.947133 474.805455 50.798582 475.010909 50.649115 475.216364 50.498741 475.421818 50.347471 475.627273 50.195314 475.832727 50.042281 476.038182 49.888382 476.243636 49.733628 476.449091 49.578027 476.654545 49.421591 476.860000 49.264329 477.065455 49.106251 477.270909 48.947369 477.476364 48.787691 477.681818 48.627227 477.887273 48.465989 478.092727 48.303986 478.298182 48.141229 478.503636 47.977726 478.709091 47.813489 478.914545 47.648528 479.120000 47.482852 479.325455 47.316472 479.530909 47.149399 479.736364 46.981641 479.941818 46.813209 480.147273 46.644114 480.352727 46.474365 480.558182 46.303972 480.763636 46.132946 480.969091 45.961297 481.174545 45.789035 481.380000 45.616170 481.585455 45.442712 481.790909 45.268671 481.996364 45.094058 482.201818 44.918882 482.407273 44.743153 482.612727 44.566883 482.818182 44.390080 483.023636 44.212755 483.229091 44.034918 483.434545 43.856579 483.640000 43.677749 483.845455 43.498437 484.050909 43.318654 484.256364 43.138409 484.461818 42.957713 484.667273 42.776576 484.872727 42.595007 485.078182 42.413018 485.283636 42.230618 485.489091 42.047818 485.694545 41.864627 485.900000 41.681056 486.105455 41.497114 486.310909 41.312812 486.516364 41.128160 486.721818 40.943168 486.927273 40.757846 487.132727 40.572205 487.338182 40.386254 487.543636 40.200004 487.749091 40.013464 487.954545 39.826645 488.160000 39.639556 488.365455 39.452209 488.570909 39.264613 488.776364 39.076778 488.981818 38.888715 489.187273 38.700433 489.392727 38.511942 489.598182 38.323254 489.803636 38.134377 490.009091 37.945322 490.214545 37.756099 490.420000 37.566718 490.625455 37.377190 490.830909 37.187524 491.036364 36.997730 491.241818 36.807819 491.447273 36.617801 491.652727 36.427686 491.858182 36.237484 492.063636 36.047205 492.269091 35.856859 492.474545 35.666457 492.680000 35.476008 492.885455 35.285522 493.090909 35.095011 493.296364 34.904483 493.501818 34.713949 493.707273 34.523419 493.912727 34.332903 494.118182 34.142412 494.323636 33.951955 494.529091 33.761542 494.734545 33.571184 494.940000 33.380891 495.145455 33.190673 495.350909 33.000540 495.556364 32.810502 495.761818 32.620569 495.967273 32.430752 496.172727 32.241060 496.378182 32.051503 496.583636 31.862093 496.789091 31.672838 496.994545 31.483749 497.200000 31.294836 497.405455 31.106109 497.610909 30.917579 497.816364 30.729255 498.021818 30.541148 498.227273 30.353267 498.432727 30.165623 498.638182 29.978226 498.843636 29.791086 499.049091 29.604213 499.254545 29.417617 499.460000 29.231308 499.665455 29.045298 499.870909 28.859594 500.076364 28.674209 500.281818 28.489151 500.487273 28.304431 500.692727 28.120059 500.898182 27.936045 501.103636 27.752400 501.309091 27.569133 501.514545 27.386255 501.720000 27.203775 501.925455 27.021704 502.130909 26.840052 502.336364 26.658829 502.541818 26.478045 502.747273 26.297710 502.952727 26.117835 503.158182 25.938429 503.363636 25.759503 503.569091 25.581066 503.774545 25.403129 503.980000 25.225703 504.185455 25.048796 504.390909 24.872419 504.596364 24.696583 504.801818 24.521297 505.007273 24.346572 505.212727 24.172417 505.418182 23.998843 505.623636 23.825860 505.829091 23.653478 506.034545 23.481707 506.240000 23.310558 506.445455 23.140040 506.650909 22.970163 506.856364 22.800937 507.061818 22.632374 507.267273 22.464482 507.472727 22.297273 507.678182 22.130755 507.883636 21.964939 508.089091 21.799836 508.294545 21.635455 508.500000 21.471807 508.705455 21.308902 508.910909 21.146749 509.116364 20.985359 509.321818 20.824742 509.527273 20.664908 509.732727 20.505868 509.938182 20.347630 510.143636 20.190207 510.349091 20.033607 510.554545 19.877840 510.760000 19.722918 510.965455 19.568849 511.170909 19.415644 511.376364 19.263314 511.581818 19.111868 511.787273 18.961316 511.992727 18.811669 512.198182 18.662937 512.403636 18.515129 512.609091 18.368256 512.814545 18.222328 513.020000 18.077355 513.225455 17.933348 513.430909 17.790316 513.636364 17.648269 513.841818 17.507218 514.047273 17.367173 514.252727 17.228144 514.458182 17.090140 514.663636 16.953173 514.869091 16.817251 515.074545 16.682386 515.280000 16.548588 515.485455 16.415866 515.690909 16.284230 515.896364 16.153692 516.101818 16.024260 516.307273 15.895945 516.512727 15.768758 516.718182 15.642707 516.923636 15.517804 517.129091 15.394059 517.334545 15.271481 517.540000 15.150081 517.745455 15.029868 517.950909 14.910854 518.156364 14.793048 518.361818 14.676460 518.567273 14.561100 518.772727 14.446978 518.978182 14.334105 519.183636 14.222491 519.389091 14.112146 519.594545 14.003079 519.800000 13.895301 520.005455 13.788823 520.210909 13.683654 520.416364 13.579804 520.621818 13.477284 520.827273 13.376103 521.032727 13.276272 521.238182 13.177801 521.443636 13.080699 521.649091 12.984978 521.854545 12.890647 522.060000 12.797716 522.265455 12.706196 522.470909 12.616096 522.676364 12.527427 522.881818 12.440199 523.087273 12.354421 523.292727 12.270105 523.498182 12.187260 523.703636 12.105896 523.909091 12.026023 524.114545 11.947652 524.320000 11.870792 524.525455 11.795454 524.730909 11.721648 524.936364 11.649384 525.141818 11.578669 525.347273 11.509500 525.552727 11.441871 525.758182 11.375775 525.963636 11.311207 526.169091 11.248159 526.374545 11.186626 526.580000 11.126602 526.785455 11.068081 526.990909 11.011055 527.196364 10.955520 527.401818 10.901468 527.607273 10.848894 527.812727 10.797791 528.018182 10.748153 528.223636 10.699974 528.429091 10.653248 528.634545 10.607969 528.840000 10.564130 529.045455 10.521725 529.250909 10.480748 529.456364 10.441192 529.661818 10.403052 529.867273 10.366322 530.072727 10.330994 530.278182 10.297063 530.483636 10.264523 530.689091 10.233367 530.894545 10.203590 531.100000 10.175185 531.305455 10.148145 531.510909 10.122465 531.716364 10.098139 531.921818 10.075159 532.127273 10.053521 532.332727 10.033217 532.538182 10.014242 532.743636 9.996590 532.949091 9.980253 533.154545 9.965227 533.360000 9.951504 533.565455 9.939078 533.770909 9.927945 533.976364 9.918096 534.181818 9.909526 534.387273 9.902228 534.592727 9.896198 534.798182 9.891427 535.003636 9.887911 535.209091 9.885642 535.414545 9.884615 535.620000 9.884824 535.825455 9.886262 536.030909 9.888923 536.236364 9.892800 536.441818 9.897888 536.647273 9.904181 536.852727 9.911672 537.058182 9.920355 537.263636 9.930223 537.469091 9.941272 537.674545 9.953493 537.880000 9.966882 538.085455 9.981432 538.290909 9.997136 538.496364 10.013989 538.701818 10.031984 538.907273 10.051116 539.112727 10.071377 539.318182 10.092762 539.523636 10.115264 539.729091 10.138878 539.934545 10.163597 540.140000 10.189415 540.345455 10.216325 540.550909 10.244322 540.756364 10.273399 540.961818 10.303550 541.167273 10.334769 541.372727 10.367049 541.578182 10.400385 541.783636 10.434770 541.989091 10.470198 542.194545 10.506663 542.400000 10.544159 542.605455 10.582678 542.810909 10.622216 543.016364 10.662766 543.221818 10.704322 543.427273 10.746877 543.632727 10.790426 543.838182 10.834961 544.043636 10.880478 544.249091 10.926969 544.454545 10.974429 544.660000 11.022851 544.865455 11.072229 545.070909 11.122557 545.276364 11.173828 545.481818 11.226037 545.687273 11.279178 545.892727 11.333243 546.098182 11.388227 546.303636 11.444124 546.509091 11.500927 546.714545 11.558631 546.920000 11.617228 547.125455 11.676713 547.330909 11.737080 547.536364 11.798322 547.741818 11.860433 547.947273 11.923407 548.152727 11.987238 548.358182 12.051920 548.563636 12.117446 548.769091 12.183809 548.974545 12.251005 549.180000 12.319027 549.385455 12.387868 549.590909 12.457522 549.796364 12.527984 550.001818 12.599246 550.207273 12.671303 550.412727 12.744148 550.618182 12.817776 550.823636 12.892179 551.029091 12.967353 551.234545 13.043290 551.440000 13.119984 551.645455 13.197430 551.850909 13.275621 552.056364 13.354550 552.261818 13.434212 552.467273 13.514601 552.672727 13.595709 552.878182 13.677532 553.083636 13.760062 553.289091 13.843294 553.494545 13.927221 553.700000 14.011837 553.905455 14.097136 554.110909 14.183112 554.316364 14.269758 554.521818 14.357069 554.727273 14.445038 554.932727 14.533658 555.138182 14.622925 555.343636 14.712830 555.549091 14.803369 555.754545 14.894535 555.960000 14.986322 556.165455 15.078723 556.370909 15.171733 556.576364 15.265345 556.781818 15.359553 556.987273 15.454351 557.192727 15.549733 557.398182 15.645691 557.603636 15.742221 557.809091 15.839316 558.014545 15.936970 558.220000 16.035176 558.425455 16.133928 558.630909 16.233221 558.836364 16.333048 559.041818 16.433402 559.247273 16.534277 559.452727 16.635668 559.658182 16.737569 559.863636 16.839971 560.069091 16.942871 560.274545 17.046261 560.480000 17.150135 560.685455 17.254488 560.890909 17.359312 561.096364 17.464602 561.301818 17.570351 561.507273 17.676553 561.712727 17.783203 561.918182 17.890293 562.123636 17.997818 562.329091 18.105771 562.534545 18.214146 562.740000 18.322937 562.945455 18.432139 563.150909 18.541743 563.356364 18.651745 563.561818 18.762138 563.767273 18.872916 563.972727 18.984072 564.178182 19.095602 564.383636 19.207497 564.589091 19.319752 564.794545 19.432362 565.000000 19.545319 565.205455 19.658617 565.410909 19.772251 565.616364 19.886214 565.821818 20.000499 566.027273 20.115102 566.232727 20.230014 566.438182 20.345231 566.643636 20.460746 566.849091 20.576552 567.054545 20.692645 567.260000 20.809016 567.465455 20.925661 567.670909 21.042573 567.876364 21.159745 568.081818 21.277172 568.287273 21.394847 568.492727 21.512765 568.698182 21.630918 568.903636 21.749301 569.109091 21.867908 569.314545 21.986731 569.520000 22.105766 569.725455 22.225006 569.930909 22.344445 570.136364 22.464076 570.341818 22.583893 570.547273 22.703890 570.752727 22.824061 570.958182 22.944400 571.163636 23.064900 571.369091 23.185555 571.574545 23.306359 571.780000 23.427306 571.985455 23.548390 572.190909 23.669604 572.396364 23.790942 572.601818 23.912398 572.807273 24.033966 573.012727 24.155640 573.218182 24.277412 573.423636 24.399278 573.629091 24.521231 573.834545 24.643265 574.040000 24.765373 574.245455 24.887549 574.450909 25.009787 574.656364 25.132082 574.861818 25.254425 575.067273 25.376813 575.272727 25.499237 575.478182 25.621693 575.683636 25.744174 575.889091 25.866673 576.094545 25.989184 576.300000 26.111702 576.300000 514.000000" /></g></g><g class="titles"><text class="title plot_title" x="400.0" y="26">Ratchathewi 53</text></g><g class="plot overlay" transform="translate(192, 46)"><g class="series serie-0 color-0"><g class="dots"><circle class="dot reactive tooltip-trigger" cx="11.3" cy="79.61322945269984" r="2.5" /><desc class="value">260183</desc><desc class="x ">11.3</desc><desc class="y ">79.61322945269984</desc><desc class="x_label">Jan</desc></g><g class="dots"><circle class="dot reactive tooltip-trigger" cx="62.66363636363637" cy="137.07585246826739" r="2.5" /><desc class="value">246213</desc><desc class="x ">62.66363636363637</desc><desc class="y ">137.07585246826739</desc><desc class="x_label">Feb</desc></g><g class="dots"><circle class="dot reactive tooltip-trigger" cx="114.02727272727273" cy="73.5255643086025" r="2.5" /><desc class="value">261663</desc><desc class="x ">114.02727272727273</desc><desc class="y ">73.5255643086025</desc><desc class="x_label">Mar</desc></g><g class="dots"><circle class="dot reactive tooltip-trigger" cx="165.39090909090908" cy="205.5867650629197" r="2.5" /><desc class="value">229557</desc><desc class="x ">165.39090909090908</desc><desc class="y ">205.5867650629197</desc><desc class="x_label">Apr</desc></g><g class="dots"><circle class="dot reactive tooltip-trigger" cx="216.75454545454548" cy="501.0359623400985" r="2.5" /><desc class="value">157729</desc><desc class="x top">216.75454545454548</desc><desc class="y top">501.0359623400985</desc><desc class="x_label">May</desc></g><g class="dots"><circle class="dot reactive tooltip-trigger" cx="268.1181818181818" cy="102.49544647743875" r="2.5" /><desc class="value">254620</desc><desc class="x ">268.1181818181818</desc><desc class="y ">102.49544647743875</desc><desc class="x_label">Jun</desc></g><g class="dots"><circle class="dot reactive tooltip-trigger" cx="319.4818181818182" cy="95.60569031773394" r="2.5" /><desc class="value">256295</desc><desc class="x left">319.4818181818182</desc><desc class="y left">95.60569031773394</desc><desc class="x_label">Jul</desc></g><g class="dots"><circle class="dot reactive tooltip-trigger" cx="370.8454545454546" cy="38.89991215791906" r="2.5" /><desc class="value">270081</desc><desc class="x left">370.8454545454546</desc><desc class="y left">38.89991215791906</desc><desc class="x_label">Aug</desc></g><g class="dots"><circle class="dot reactive tooltip-trigger" cx="422.20909090909095" cy="55.291361887127096" r="2.5" /><desc class="value">266096</desc><desc class="x left">422.20909090909095</desc><desc class="y left">55.291361887127096</desc><desc class="x_label">Sep</desc></g><g class="dots"><circle class="dot reactive tooltip-trigger" cx="473.5727272727273" cy="51.675782386004414" r="2.5" /><desc class="value">266975</desc><desc class="x left">473.5727272727273</desc><desc class="y left">51.675782386004414</desc><desc class="x_label">Oct</desc></g><g class="dots"><circle class="dot reactive tooltip-trigger" cx="524.9363636363636" cy="11.649384063564355" r="2.5" /><desc class="value">276706</desc><desc class="x left">524.9363636363636</desc><desc class="y left">11.649384063564355</desc><desc class="x_label">Nov</desc></g><g class="dots"><circle class="dot reactive tooltip-trigger" cx="576.3000000000001" cy="26.11170206805508" r="2.5" /><desc class="value">273190</desc><desc class="x left">576.3000000000001</desc><desc class="y left">26.11170206805508</desc><desc class="x_label">Dec</desc></g></g></g><g class="plot text-overlay" transform="translate(192, 46)"><g class="series serie-0 color-0" /></g><g class="plot tooltip-overlay" transform="translate(192, 46)"><g class="tooltip" style="opacity: 0" transform="translate(0 0)"><rect class="tooltip-box" height="0" rx="0" ry="0" width="0" /><g class="text" /></g></g><g class="legends" transform="translate(10, 56)"><g class="legend reactive activate-serie" id="activate-serie-0"><rect class="color-0 reactive" height="12" width="12" x="0.0" y="1.0" /><text x="17.0" y="11.2">Ratchathewi</text></g></g><g class="legends" transform="translate(790, 56)" /></g></svg>