<?xml version='1.0' encoding='utf-8'?>
<svg xmlns:xlink="http://www.w3.org/1999/xlink" class="pygal-chart" id="chart-cdea1f1a-3104-4257-b99e-942b3c790bc9" viewBox="0 0 800 600" xmlns="http://www.w3.org/2000/svg"><!--Generated with pygal 2.0.11 (etree) ©Kozea 2011-2015 on 2015-12-10--><!--http://pygal.org--><!--http://github.com/Kozea/pygal--><defs><style type="text/css">#chart-cdea1f1a-3104-4257-b99e-942b3c790bc9{-webkit-user-select:none;-webkit-font-smoothing:antialiased;font-family:Consolas,"Liberation Mono",Menlo,Courier,monospace}#chart-cdea1f1a-3104-4257-b99e-942b3c790bc9 .title{font-family:Consolas,"Liberation Mono",Menlo,Courier,monospace;font-size:16px}#chart-cdea1f1a-3104-4257-b99e-942b3c790bc9 .legends .legend text{font-family:Consolas,"Liberation Mono",Menlo,Courier,monospace;font-size:14px}#chart-cdea1f1a-3104-4257-b99e-942b3c790bc9 .axis text{font-family:Consolas,"Liberation Mono",Menlo,Courier,monospace;font-size:10px}#chart-cdea1f1a-3104-4257-b99e-942b3c790bc9 .axis text.major{font-family:Consolas,"Liberation Mono",Menlo,Courier,monospace;font-size:10px}#chart-cdea1f1a-3104-4257-b99e-942b3c790bc9 .text-overlay text.value{font-family:Consolas,"Liberation Mono",Menlo,Courier,monospace;font-size:16px}#chart-cdea1f1a-3104-4257-b99e-942b3c790bc9 .text-overlay text.label{font-family:Consolas,"Liberation Mono",Menlo,Courier,monospace;font-size:10px}#chart-cdea1f1a-3104-4257-b99e-942b3c790bc9 .tooltip{font-family:Consolas,"Liberation Mono",Menlo,Courier,monospace;font-size:14px}#chart-cdea1f1a-3104-4257-b99e-942b3c790bc9 text.no_data{font-family:Consolas,"Liberation Mono",Menlo,Courier,monospace;font-size:64px}
#chart-cdea1f1a-3104-4257-b99e-942b3c790bc9{background-color:black}#chart-cdea1f1a-3104-4257-b99e-942b3c790bc9 path,#chart-cdea1f1a-3104-4257-b99e-942b3c790bc9 line,#chart-cdea1f1a-3104-4257-b99e-942b3c790bc9 rect,#chart-cdea1f1a-3104-4257-b99e-942b3c790bc9 circle{-webkit-transition:250ms;-moz-transition:250ms;transition:250ms}#chart-cdea1f1a-3104-4257-b99e-942b3c790bc9 .graph &gt; .background{fill:black}#chart-cdea1f1a-3104-4257-b99e-942b3c790bc9 .plot &gt; .background{fill:#111}#chart-cdea1f1a-3104-4257-b99e-942b3c790bc9 .graph{fill:#999}#chart-cdea1f1a-3104-4257-b99e-942b3c790bc9 text.no_data{fill:#eee}#chart-cdea1f1a-3104-4257-b99e-942b3c790bc9 .title{fill:#eee}#chart-cdea1f1a-3104-4257-b99e-942b3c790bc9 .legends .legend text{fill:#999}#chart-cdea1f1a-3104-4257-b99e-942b3c790bc9 .legends .legend:hover text{fill:#eee}#chart-cdea1f1a-3104-4257-b99e-942b3c790bc9 .axis .line{stroke:#eee}#chart-cdea1f1a-3104-4257-b99e-942b3c790bc9 .axis .guide.line{stroke:#555}#chart-cdea1f1a-3104-4257-b99e-942b3c790bc9 .axis .major.line{stroke:#999}#chart-cdea1f1a-3104-4257-b99e-942b3c790bc9 .axis text.major{fill:#eee}#chart-cdea1f1a-3104-4257-b99e-942b3c790bc9 .axis.y .guides:hover .guide.line,#chart-cdea1f1a-3104-4257-b99e-942b3c790bc9 .line-graph .axis.x .guides:hover .guide.line,#chart-cdea1f1a-3104-4257-b99e-942b3c790bc9 .stackedline-graph .axis.x .guides:hover .guide.line,#chart-cdea1f1a-3104-4257-b99e-942b3c790bc9 .xy-graph .axis.x .guides:hover .guide.line{stroke:#eee}#chart-cdea1f1a-3104-4257-b99e-942b3c790bc9 .axis .guides:hover text{fill:#eee}#chart-cdea1f1a-3104-4257-b99e-942b3c790bc9 .reactive{fill-opacity:.8}#chart-cdea1f1a-3104-4257-b99e-942b3c790bc9 .reactive.active,#chart-cdea1f1a-3104-4257-b99e-942b3c790bc9 .active .reactive{fill-opacity:.4;stroke-width:4}#chart-cdea1f1a-3104-4257-b99e-942b3c790bc9 .series text{fill:#eee}#chart-cdea1f1a-3104-4257-b99e-942b3c790bc9 .tooltip rect{fill:#111;stroke:#eee;-webkit-transition:opacity 250ms;-moz-transition:opacity 250ms;transition:opacity 250ms}#chart-cdea1f1a-3104-4257-b99e-942b3c790bc9 .tooltip .label{fill:#999}#chart-cdea1f1a-3104-4257-b99e-942b3c790bc9 .tooltip .label{fill:#999}#chart-cdea1f1a-3104-4257-b99e-942b3c790bc9 .tooltip .legend{font-size:.8em;fill:#555}#chart-cdea1f1a-3104-4257-b99e-942b3c790bc9 .tooltip .x_label{font-size:.6em;fill:#eee}#chart-cdea1f1a-3104-4257-b99e-942b3c790bc9 .tooltip .xlink{font-size:.5em;text-decoration:underline}#chart-cdea1f1a-3104-4257-b99e-942b3c790bc9 .tooltip .value{font-size:1.5em}#chart-cdea1f1a-3104-4257-b99e-942b3c790bc9 .map-element{fill:#111;stroke:#555 !important}#chart-cdea1f1a-3104-4257-b99e-942b3c790bc9 .map-element .reactive{fill-opacity:inherit}#chart-cdea1f1a-3104-4257-b99e-942b3c790bc9 .color-0,#chart-cdea1f1a-3104-4257-b99e-942b3c790bc9 .color-0 a:visited{stroke:#ff5995;fill:#ff5995}#chart-cdea1f1a-3104-4257-b99e-942b3c790bc9 .text-overlay .color-0 text{fill:black}
#chart-cdea1f1a-3104-4257-b99e-942b3c790bc9 text.no_data{text-anchor:middle}#chart-cdea1f1a-3104-4257-b99e-942b3c790bc9 .guide.line{fill:none}#chart-cdea1f1a-3104-4257-b99e-942b3c790bc9 .centered{text-anchor:middle}#chart-cdea1f1a-3104-4257-b99e-942b3c790bc9 .title{text-anchor:middle}#chart-cdea1f1a-3104-4257-b99e-942b3c790bc9 .legends .legend text{fill-opacity:1}#chart-cdea1f1a-3104-4257-b99e-942b3c790bc9 .axis.x text{text-anchor:middle}#chart-cdea1f1a-3104-4257-b99e-942b3c790bc9 .axis.x:not(.web) text[transform]{text-anchor:start}#chart-cdea1f1a-3104-4257-b99e-942b3c790bc9 .axis.x:not(.web) text[transform].backwards{text-anchor:end}#chart-cdea1f1a-3104-4257-b99e-942b3c790bc9 .axis.y text{text-anchor:end}#chart-cdea1f1a-3104-4257-b99e-942b3c790bc9 .axis.y text[transform].backwards{text-anchor:start}#chart-cdea1f1a-3104-4257-b99e-942b3c790bc9 .axis.y2 text{text-anchor:start}#chart-cdea1f1a-3104-4257-b99e-942b3c790bc9 .axis.y2 text[transform].backwards{text-anchor:end}#chart-cdea1f1a-3104-4257-b99e-942b3c790bc9 .axis .guide.line{stroke-dasharray:4,4}#chart-cdea1f1a-3104-4257-b99e-942b3c790bc9 .axis .major.guide.line{stroke-dasharray:6,6}#chart-cdea1f1a-3104-4257-b99e-942b3c790bc9 .horizontal .axis.y .guide.line,#chart-cdea1f1a-3104-4257-b99e-942b3c790bc9 .horizontal .axis.y2 .guide.line,#chart-cdea1f1a-3104-4257-b99e-942b3c790bc9 .vertical .axis.x .guide.line{opacity:0}#chart-cdea1f1a-3104-4257-b99e-942b3c790bc9 .horizontal .axis.always_show .guide.line,#chart-cdea1f1a-3104-4257-b99e-942b3c790bc9 .vertical .axis.always_show .guide.line{opacity:1 !important}#chart-cdea1f1a-3104-4257-b99e-942b3c790bc9 .axis.y .guides:hover .guide.line,#chart-cdea1f1a-3104-4257-b99e-942b3c790bc9 .axis.y2 .guides:hover .guide.line,#chart-cdea1f1a-3104-4257-b99e-942b3c790bc9 .axis.x .guides:hover .guide.line{opacity:1}#chart-cdea1f1a-3104-4257-b99e-942b3c790bc9 .axis .guides:hover text{opacity:1}#chart-cdea1f1a-3104-4257-b99e-942b3c790bc9 .nofill{fill:none}#chart-cdea1f1a-3104-4257-b99e-942b3c790bc9 .subtle-fill{fill-opacity:.2}#chart-cdea1f1a-3104-4257-b99e-942b3c790bc9 .dot{stroke-width:1px;fill-opacity:1}#chart-cdea1f1a-3104-4257-b99e-942b3c790bc9 .dot.active{stroke-width:5px}#chart-cdea1f1a-3104-4257-b99e-942b3c790bc9 .dot.negative{fill:transparent}#chart-cdea1f1a-3104-4257-b99e-942b3c790bc9 text,#chart-cdea1f1a-3104-4257-b99e-942b3c790bc9 tspan{stroke:none !important}#chart-cdea1f1a-3104-4257-b99e-942b3c790bc9 .series text.active{opacity:1}#chart-cdea1f1a-3104-4257-b99e-942b3c790bc9 .tooltip rect{fill-opacity:.95;stroke-width:.5}#chart-cdea1f1a-3104-4257-b99e-942b3c790bc9 .tooltip text{fill-opacity:1}#chart-cdea1f1a-3104-4257-b99e-942b3c790bc9 .showable{visibility:hidden}#chart-cdea1f1a-3104-4257-b99e-942b3c790bc9 .showable.shown{visibility:visible}</style><script type="text/javascript">window.pygal = window.pygal || {};window.pygal.config = window.pygal.config || {};window.pygal.config['cdea1f1a-3104-4257-b99e-942b3c790bc9'] = {"spacing": 10, "inner_radius": 0, "order_min": null, "truncate_label": null, "x_title": null, "style": {"foreground_strong": "#eee", "value_colors": [], "title_font_family": "Consolas, \"Liberation Mono\", Menlo, Courier, monospace", "major_guide_stroke_dasharray": "6,6", "background": "black", "value_font_size": 16, "guide_stroke_dasharray": "4,4", "colors": ["#ff5995", "#b6e354", "#feed6c", "#8cedff", "#9e6ffe", "#899ca1", "#f8f8f2", "#bf4646", "#516083", "#f92672", "#82b414", "#fd971f", "#56c2d6", "#808384", "#8c54fe", "#465457"], "legend_font_family": "Consolas, \"Liberation Mono\", Menlo, Courier, monospace", "no_data_font_size": 64, "legend_font_size": 14, "opacity": ".8", "title_font_size": 16, "foreground_subtle": "#555", "label_font_family": "Consolas, \"Liberation Mono\", Menlo, Courier, monospace", "value_label_font_family": "Consolas, \"Liberation Mono\", Menlo, Courier, monospace", "value_font_family": "Consolas, \"Liberation Mono\", Menlo, Courier, monospace", "major_label_font_size": 10, "no_data_font_family": "Consolas, \"Liberation Mono\", Menlo, Courier, monospace", "major_label_font_family": "Consolas, \"Liberation Mono\", Menlo, Courier, monospace", "tooltip_font_size": 14, "label_font_size": 10, "tooltip_font_family": "Consolas, \"Liberation Mono\", Menlo, Courier, monospace", "transition": "250ms", "value_label_font_size": 10, "plot_background": "#111", "opacity_hover": ".4", "font_family": "Consolas, \"Liberation Mono\", Menlo, Courier, monospace", "foreground": "#999"}, "y_labels_major": null, "inverse_y_axis": false, "show_dots": true, "js": ["//kozea.github.io/pygal.js/2.0.x/pygal-tooltips.min.js"], "range": null, "human_readable": false, "margin": 20, "show_x_labels": true, "legend_box_size": 12, "no_data_text": "No data", "strict": false, "show_minor_y_labels": true, "legend_at_bottom": false, "show_only_major_dots": false, "include_x_axis": false, "x_labels": ["Jan", "Feb", "Mar", "Apr", "May", "Jun", "Jul", "Aug", "Sep", "Oct", "Nov", "Dec"], "x_labels_major": null, "x_label_rotation": 0, "disable_xml_declaration": false, "y_title": null, "show_y_guides": true, "max_scale": 16, "margin_right": null, "defs": [], "tooltip_border_radius": 0, "xrange": null, "print_zeroes": true, "show_legend": true, "no_prefix": false, "y_labels_major_every": null, "fill": true, "width": 800, "min_scale": 4, "title": "Ekkamai 51", "half_pie": false, "x_labels_major_count": null, "zero": 0, "margin_bottom": null, "legends": ["Ekkamai"], "secondary_range": null, "margin_top": null, "margin_left": null, "print_labels": false, "legend_at_bottom_columns": null, "print_values": false, "value_formatter": null, "explicit_size": false, "dynamic_print_values": false, "interpolate": "cubic", "box_mode": "extremes", "interpolation_precision": 250, "x_value_formatter": null, "show_y_labels": true, "height": 600, "force_uri_protocol": null, "interpolation_parameters": {}, "dots_size": 2.5, "logarithmic": false, "stroke_style": null, "pretty_print": false, "stack_from_top": false, "stroke": true, "y_label_rotation": 0, "rounded_bars": null, "y_labels": null, "missing_value_fill_truncation": "x", "show_x_guides": false, "x_labels_major_every": null, "truncate_legend": null, "css": ["file://style.css", "file://graph.css"], "tooltip_fancy_mode": true, "y_labels_major_count": null, "show_minor_x_labels": true}</script><script type="text/javascript" xlink:href="//kozea.github.io/pygal.js/2.0.x/pygal-tooltips.min.js" /></defs><title>Ekkamai 51</title><g class="graph line-graph vertical"><rect class="background" height="600" width="800" x="0" y="0" /><g class="plot" transform="translate(158, 46)"><rect class="background" height="514" width="621.2" x="0" y="0" /><g class="axis y"><path class="line" d="M0.000000 514.000000 h621.200000" /><g class="guides"><path class="major guide line" d="M0.000000 502.865126 h621.200000" /><text class="major" x="-5" y="506.36512641349543">250000.0</text><title>250000.0</title></g><g class="guides"><path class="guide line" d="M0.000000 451.046116 h621.200000" /><text class="" x="-5" y="454.54611632111266">260000.0</text><title>260000.0</title></g><g class="guides"><path class="guide line" d="M0.000000 399.227106 h621.200000" /><text class="" x="-5" y="402.7271062287299">270000.0</text><title>270000.0</title></g><g class="guides"><path class="guide line" d="M0.000000 347.408096 h621.200000" /><text class="" x="-5" y="350.9080961363471">280000.0</text><title>280000.0</title></g><g class="guides"><path class="guide line" d="M0.000000 295.589086 h621.200000" /><text class="" x="-5" y="299.08908604396436">290000.0</text><title>290000.0</title></g><g class="guides"><path class="major guide line" d="M0.000000 243.770076 h621.200000" /><text class="major" x="-5" y="247.2700759515816">300000.0</text><title>300000.0</title></g><g class="guides"><path class="guide line" d="M0.000000 191.951066 h621.200000" /><text class="" x="-5" y="195.45106585919882">310000.0</text><title>310000.0</title></g><g class="guides"><path class="guide line" d="M0.000000 140.132056 h621.200000" /><text class="" x="-5" y="143.63205576681605">320000.0</text><title>320000.0</title></g><g class="guides"><path class="guide line" d="M0.000000 88.313046 h621.200000" /><text class="" x="-5" y="91.81304567443328">330000.0</text><title>330000.0</title></g><g class="guides"><path class="guide line" d="M0.000000 36.494036 h621.200000" /><text class="" x="-5" y="39.994035582050515">340000.0</text><title>340000.0</title></g></g><g class="axis x"><g class="guides"><path class="line" d="M11.946154 0.000000 v514.000000" /><text class="" x="11.946153846153846" y="529.0">Jan</text></g><g class="guides"><path class="guide line" d="M66.246853 0.000000 v514.000000" /><text class="" x="66.24685314685314" y="529.0">Feb</text></g><g class="guides"><path class="guide line" d="M120.547552 0.000000 v514.000000" /><text class="" x="120.54755244755245" y="529.0">Mar</text></g><g class="guides"><path class="guide line" d="M174.848252 0.000000 v514.000000" /><text class="" x="174.84825174825176" y="529.0">Apr</text></g><g class="guides"><path class="guide line" d="M229.148951 0.000000 v514.000000" /><text class="" x="229.14895104895106" y="529.0">May</text></g><g class="guides"><path class="guide line" d="M283.449650 0.000000 v514.000000" /><text class="" x="283.44965034965037" y="529.0">Jun</text></g><g class="guides"><path class="guide line" d="M337.750350 0.000000 v514.000000" /><text class="" x="337.7503496503497" y="529.0">Jul</text></g><g class="guides"><path class="guide line" d="M392.051049 0.000000 v514.000000" /><text class="" x="392.051048951049" y="529.0">Aug</text></g><g class="guides"><path class="guide line" d="M446.351748 0.000000 v514.000000" /><text class="" x="446.3517482517483" y="529.0">Sep</text></g><g class="guides"><path class="guide line" d="M500.652448 0.000000 v514.000000" /><text class="" x="500.6524475524476" y="529.0">Oct</text></g><g class="guides"><path class="guide line" d="M554.953147 0.000000 v514.000000" /><text class="" x="554.9531468531468" y="529.0">Nov</text></g><g class="guides"><path class="guide line" d="M609.253846 0.000000 v514.000000" /><text class="" x="609.2538461538462" y="529.0">Dec</text></g></g><g class="series serie-0 color-0"><path class="line reactive" d="M11.946154 514.000000 L11.946154 77.949244 12.163357 77.330346 12.380559 76.711493 12.597762 76.092732 12.814965 75.474107 13.032168 74.855664 13.249371 74.237448 13.466573 73.619505 13.683776 73.001881 13.900979 72.384620 14.118182 71.767769 14.335385 71.151373 14.552587 70.535477 14.769790 69.920127 14.986993 69.305368 15.204196 68.691246 15.421399 68.077807 15.638601 67.465095 15.855804 66.853156 16.073007 66.242036 16.290210 65.631781 16.507413 65.022435 16.724615 64.414044 16.941818 63.806654 17.159021 63.200310 17.376224 62.595058 17.593427 61.990943 17.810629 61.388011 18.027832 60.786307 18.245035 60.185876 18.462238 59.586764 18.679441 58.989017 18.896643 58.392680 19.113846 57.797799 19.331049 57.204419 19.548252 56.612585 19.765455 56.022343 19.982657 55.433739 20.199860 54.846817 20.417063 54.261625 20.634266 53.678206 20.851469 53.096606 21.068671 52.516872 21.285874 51.939048 21.503077 51.363179 21.720280 50.789313 21.937483 50.217493 22.154685 49.647765 22.371888 49.080175 22.589091 48.514769 22.806294 47.951591 23.023497 47.390688 23.240699 46.832104 23.457902 46.275886 23.675105 45.722078 23.892308 45.170727 24.109510 44.621878 24.326713 44.075575 24.543916 43.531866 24.761119 42.990794 24.978322 42.452406 25.195524 41.916748 25.412727 41.383864 25.629930 40.853800 25.847133 40.326602 26.064336 39.802315 26.281538 39.280984 26.498741 38.762656 26.715944 38.247375 26.933147 37.735187 27.150350 37.226138 27.367552 36.720272 27.584755 36.217637 27.801958 35.718276 28.019161 35.222235 28.236364 34.729561 28.453566 34.240298 28.670769 33.754492 28.887972 33.272189 29.105175 32.793433 29.322378 32.318271 29.539580 31.846747 29.756783 31.378908 29.973986 30.914799 30.191189 30.454465 30.408392 29.997952 30.625594 29.545306 30.842797 29.096571 31.060000 28.651793 31.277203 28.211018 31.494406 27.774292 31.711608 27.341659 31.928811 26.913165 32.146014 26.488856 32.363217 26.068777 32.580420 25.652974 32.797622 25.241493 33.014825 24.834377 33.232028 24.431674 33.449231 24.033429 33.666434 23.639686 33.883636 23.250493 34.100839 22.865893 34.318042 22.485933 34.535245 22.110658 34.752448 21.740113 34.969650 21.374345 35.186853 21.013398 35.404056 20.657318 35.621259 20.306150 35.838462 19.959941 36.055664 19.618735 36.272867 19.282578 36.490070 18.951515 36.707273 18.625592 36.924476 18.304855 37.141678 17.989349 37.358881 17.679119 37.576084 17.374210 37.793287 17.074669 38.010490 16.780541 38.227692 16.491872 38.444895 16.208706 38.662098 15.931089 38.879301 15.659067 39.096503 15.392686 39.313706 15.131990 39.530909 14.877025 39.748112 14.627837 39.965315 14.384472 40.182517 14.146974 40.399720 13.915389 40.616923 13.689763 40.834126 13.470141 41.051329 13.256568 41.268531 13.049091 41.485734 12.847754 41.702937 12.652604 41.920140 12.463685 42.137343 12.281043 42.354545 12.104724 42.571748 11.934772 42.788951 11.771234 43.006154 11.614156 43.223357 11.463581 43.440559 11.319557 43.657762 11.182128 43.874965 11.051340 44.092168 10.927239 44.309371 10.809869 44.526573 10.699277 44.743776 10.595508 44.960979 10.498607 45.178182 10.408620 45.395385 10.325593 45.612587 10.249570 45.829790 10.180597 46.046993 10.118721 46.264196 10.063985 46.481399 10.016437 46.698601 9.976121 46.915804 9.943082 47.133007 9.917367 47.350210 9.899020 47.567413 9.888088 47.784615 9.884615 48.001818 9.888648 48.219021 9.900231 48.436224 9.919411 48.653427 9.946232 48.870629 9.980740 49.087832 10.022981 49.305035 10.072999 49.522238 10.130842 49.739441 10.196554 49.956643 10.270180 50.173846 10.351766 50.391049 10.441357 50.608252 10.539000 50.825455 10.644739 51.042657 10.758621 51.259860 10.880689 51.477063 11.010991 51.694266 11.149571 51.911469 11.296475 52.128671 11.451749 52.345874 11.615437 52.563077 11.787586 52.780280 11.968240 52.997483 12.157446 53.214685 12.355249 53.431888 12.561694 53.649091 12.776827 53.866294 13.000694 54.083497 13.233339 54.300699 13.474808 54.517902 13.725147 54.735105 13.984402 54.952308 14.252617 55.169510 14.529838 55.386713 14.816111 55.603916 15.111482 55.821119 15.415995 56.038322 15.729696 56.255524 16.052631 56.472727 16.384844 56.689930 16.726383 56.907133 17.077292 57.124336 17.437616 57.341538 17.807401 57.558741 18.186693 57.775944 18.575537 57.993147 18.973979 58.210350 19.382063 58.427552 19.799836 58.644755 20.227343 58.861958 20.664630 59.079161 21.111741 59.296364 21.568723 59.513566 22.035621 59.730769 22.512481 59.947972 22.999347 60.165175 23.496266 60.382378 24.003282 60.599580 24.520442 60.816783 25.047791 61.033986 25.585374 61.251189 26.133237 61.468392 26.691425 61.685594 27.259984 61.902797 27.838960 62.120000 28.428397 62.337203 29.028341 62.554406 29.638838 62.771608 30.259934 62.988811 30.891673 63.206014 31.534101 63.423217 32.187264 63.640420 32.851207 63.857622 33.525976 64.074825 34.211616 64.292028 34.908173 64.509231 35.615692 64.726434 36.334218 64.943636 37.063798 65.160839 37.804476 65.378042 38.556298 65.595245 39.319309 65.812448 40.093556 66.029650 40.879083 66.246853 41.675937 66.464056 42.484141 66.681259 43.303638 66.898462 44.134351 67.115664 44.976200 67.332867 45.829108 67.550070 46.692997 67.767273 47.567788 67.984476 48.453403 68.201678 49.349765 68.418881 50.256794 68.636084 51.174412 68.853287 52.102542 69.070490 53.041105 69.287692 53.990023 69.504895 54.949218 69.722098 55.918612 69.939301 56.898126 70.156503 57.887682 70.373706 58.887203 70.590909 59.896609 70.808112 60.915823 71.025315 61.944766 71.242517 62.983361 71.459720 64.031528 71.676923 65.089191 71.894126 66.156271 72.111329 67.232688 72.328531 68.318367 72.545734 69.413227 72.762937 70.517191 72.980140 71.630181 73.197343 72.752119 73.414545 73.882926 73.631748 75.022524 73.848951 76.170836 74.066154 77.327782 74.283357 78.493284 74.500559 79.667265 74.717762 80.849647 74.934965 82.040350 75.152168 83.239297 75.369371 84.446410 75.586573 85.661610 75.803776 86.884820 76.020979 88.115961 76.238182 89.354954 76.455385 90.601722 76.672587 91.856187 76.889790 93.118270 77.106993 94.387894 77.324196 95.664979 77.541399 96.949448 77.758601 98.241222 77.975804 99.540224 78.193007 100.846375 78.410210 102.159597 78.627413 103.479812 78.844615 104.806941 79.061818 106.140907 79.279021 107.481631 79.496224 108.829035 79.713427 110.183041 79.930629 111.543570 80.147832 112.910545 80.365035 114.283887 80.582238 115.663519 80.799441 117.049361 81.016643 118.441336 81.233846 119.839365 81.451049 121.243371 81.668252 122.653274 81.885455 124.068998 82.102657 125.490464 82.319860 126.917593 82.537063 128.350307 82.754266 129.788528 82.971469 131.232179 83.188671 132.681180 83.405874 134.135454 83.623077 135.594922 83.840280 137.059506 84.057483 138.529129 84.274685 140.003711 84.491888 141.483175 84.709091 142.967442 84.926294 144.456435 85.143497 145.950074 85.360699 147.448283 85.577902 148.950982 85.795105 150.458093 86.012308 151.969539 86.229510 153.485241 86.446713 155.005121 86.663916 156.529101 86.881119 158.057102 87.098322 159.589047 87.315524 161.124856 87.532727 162.664453 87.749930 164.207758 87.967133 165.754694 88.184336 167.305182 88.401538 168.859145 88.618741 170.416503 88.835944 171.977180 89.053147 173.541096 89.270350 175.108173 89.487552 176.678334 89.704755 178.251499 89.921958 179.827592 90.139161 181.406533 90.356364 182.988244 90.573566 184.572648 90.790769 186.159666 91.007972 187.749220 91.225175 189.341231 91.442378 190.935623 91.659580 192.532315 91.876783 194.131230 92.093986 195.732291 92.311189 197.335418 92.528392 198.940534 92.745594 200.547560 92.962797 202.156418 93.180000 203.767030 93.397203 205.379318 93.614406 206.993204 93.831608 208.608609 94.048811 210.225456 94.266014 211.843665 94.483217 213.463159 94.700420 215.083860 94.917622 216.705689 95.134825 218.328569 95.352028 219.952420 95.569231 221.577166 95.786434 223.202727 96.003636 224.829025 96.220839 226.455983 96.438042 228.083522 96.655245 229.711564 96.872448 231.340031 97.089650 232.968844 97.306853 234.597926 97.524056 236.227198 97.741259 237.856582 97.958462 239.485999 98.175664 241.115372 98.392867 242.744623 98.610070 244.373672 98.827273 246.002443 99.044476 247.630857 99.261678 249.258835 99.478881 250.886299 99.696084 252.513172 99.913287 254.139375 100.130490 255.764830 100.347692 257.389458 100.564895 259.013182 100.782098 260.635924 100.999301 262.257604 101.216503 263.878145 101.433706 265.497469 101.650909 267.115498 101.868112 268.732152 102.085315 270.347355 102.302517 271.961028 102.519720 273.573093 102.736923 275.183471 102.954126 276.792085 103.171329 278.398856 103.388531 280.003706 103.605734 281.606556 103.822937 283.207329 104.040140 284.805947 104.257343 286.402331 104.474545 287.996403 104.691748 289.588085 104.908951 291.177298 105.126154 292.763965 105.343357 294.348007 105.560559 295.929347 105.777762 297.507905 105.994965 299.083604 106.212168 300.656365 106.429371 302.226111 106.646573 303.792763 106.863776 305.356242 107.080979 306.916472 107.298182 308.473373 107.515385 310.026867 107.732587 311.576877 107.949790 313.123324 108.166993 314.666129 108.384196 316.205215 108.601399 317.740504 108.818601 319.271916 109.035804 320.799375 109.253007 322.322801 109.470210 323.842118 109.687413 325.357245 109.904615 326.868106 110.121818 328.374622 110.339021 329.876715 110.556224 331.374306 110.773427 332.867318 110.990629 334.355673 111.207832 335.839291 111.425035 337.318095 111.642238 338.792008 111.859441 340.260949 112.076643 341.724842 112.293846 343.183608 112.511049 344.637169 112.728252 346.085447 112.945455 347.528364 113.162657 348.965841 113.379860 350.397800 113.597063 351.824163 113.814266 353.244852 114.031469 354.659788 114.248671 356.068894 114.465874 357.472092 114.683077 358.869302 114.900280 360.260447 115.117483 361.645449 115.334685 363.024229 115.551888 364.396710 115.769091 365.762813 115.986294 367.122459 116.203497 368.475572 116.420699 369.822071 116.637902 371.161881 116.855105 372.494921 117.072308 373.821114 117.289510 375.140382 117.506713 376.452647 117.723916 377.757830 117.941119 379.055853 118.158322 380.346639 118.375524 381.630108 118.592727 382.906182 118.809930 384.174784 119.027133 385.435836 119.244336 386.689258 119.461538 387.934973 119.678741 389.172903 119.895944 390.402969 120.113147 391.625094 120.330350 392.839199 120.547552 394.045205 120.764755 395.243053 120.981958 396.432748 121.199161 397.614317 121.416364 398.787782 121.633566 399.953170 121.850769 401.110503 122.067972 402.259808 122.285175 403.401108 122.502378 404.534427 122.719580 405.659791 122.936783 406.777224 123.153986 407.886751 123.371189 408.988395 123.588392 410.082181 123.805594 411.168135 124.022797 412.246280 124.240000 413.316641 124.457203 414.379243 124.674406 415.434109 124.891608 416.481265 125.108811 417.520735 125.326014 418.552544 125.543217 419.576716 125.760420 420.593275 125.977622 421.602246 126.194825 422.603654 126.412028 423.597524 126.629231 424.583878 126.846434 425.562743 127.063636 426.534143 127.280839 427.498102 127.498042 428.454645 127.715245 429.403796 127.932448 430.345579 128.149650 431.280020 128.366853 432.207143 128.584056 433.126972 128.801259 434.039532 129.018462 434.944848 129.235664 435.842943 129.452867 436.733842 129.670070 437.617571 129.887273 438.494153 130.104476 439.363612 130.321678 440.225975 130.538881 441.081264 130.756084 441.929504 130.973287 442.770721 131.190490 443.604938 131.407692 444.432181 131.624895 445.252472 131.842098 446.065838 132.059301 446.872303 132.276503 447.671890 132.493706 448.464625 132.710909 449.250533 132.928112 450.029637 133.145315 450.801962 133.362517 451.567533 133.579720 452.326374 133.796923 453.078510 134.014126 453.823965 134.231329 454.562763 134.448531 455.294930 134.665734 456.020490 134.882937 456.739467 135.100140 457.451886 135.317343 458.157772 135.534545 458.857148 135.751748 459.550039 135.968951 460.236471 136.186154 460.916467 136.403357 461.590051 136.620559 462.257250 136.837762 462.918086 137.054965 463.572584 137.272168 464.220770 137.489371 464.862667 137.706573 465.498300 137.923776 466.127694 138.140979 466.750873 138.358182 467.367861 138.575385 467.978684 138.792587 468.583365 139.009790 469.181929 139.226993 469.774401 139.444196 470.360805 139.661399 470.941166 139.878601 471.515508 140.095804 472.083855 140.313007 472.646233 140.530210 473.202666 140.747413 473.753178 140.964615 474.297793 141.181818 474.836537 141.399021 475.369434 141.616224 475.896508 141.833427 476.417784 142.050629 476.933286 142.267832 477.443040 142.485035 477.947068 142.702238 478.445397 142.919441 478.938050 143.136643 479.425052 143.353846 479.906427 143.571049 480.382200 143.788252 480.852396 144.005455 481.317039 144.222657 481.776153 144.439860 482.229764 144.657063 482.677895 144.874266 483.120571 145.091469 483.557817 145.308671 483.989657 145.525874 484.416115 145.743077 484.837217 145.960280 485.252986 146.177483 485.663448 146.394685 486.068626 146.611888 486.468546 146.829091 486.863231 147.046294 487.252706 147.263497 487.636996 147.480699 488.016126 147.697902 488.390119 147.915105 488.759001 148.132308 489.122796 148.349510 489.481527 148.566713 489.835221 148.783916 490.183901 149.001119 490.527592 149.218322 490.866319 149.435524 491.200105 149.652727 491.528976 149.869930 491.852956 150.087133 492.172069 150.304336 492.486341 150.521538 492.795795 150.738741 493.100456 150.955944 493.400348 151.173147 493.695497 151.390350 493.985926 151.607552 494.271660 151.824755 494.552724 152.041958 494.829142 152.259161 495.100939 152.476364 495.368139 152.693566 495.630766 152.910769 495.888846 153.127972 496.142403 153.345175 496.391461 153.562378 496.636044 153.779580 496.876178 153.996783 497.111887 154.213986 497.343195 154.431189 497.570127 154.648392 497.792707 154.865594 498.010960 155.082797 498.224910 155.300000 498.434583 155.517203 498.640001 155.734406 498.841191 155.951608 499.038176 156.168811 499.230981 156.386014 499.419631 156.603217 499.604150 156.820420 499.784562 157.037622 499.960892 157.254825 500.133165 157.472028 500.301405 157.689231 500.465636 157.906434 500.625883 158.123636 500.782172 158.340839 500.934525 158.558042 501.082968 158.775245 501.227525 158.992448 501.368221 159.209650 501.505080 159.426853 501.638126 159.644056 501.767385 159.861259 501.892881 160.078462 502.014638 160.295664 502.132681 160.512867 502.247034 160.730070 502.357722 160.947273 502.464769 161.164476 502.568200 161.381678 502.668040 161.598881 502.764312 161.816084 502.857042 162.033287 502.946254 162.250490 503.031972 162.467692 503.114221 162.684895 503.193026 162.902098 503.268410 163.119301 503.340399 163.336503 503.409018 163.553706 503.474289 163.770909 503.536239 163.988112 503.594892 164.205315 503.650271 164.422517 503.702402 164.639720 503.751309 164.856923 503.797017 165.074126 503.839550 165.291329 503.878933 165.508531 503.915190 165.725734 503.948345 165.942937 503.978424 166.160140 504.005451 166.377343 504.029450 166.594545 504.050446 166.811748 504.068462 167.028951 504.083525 167.246154 504.095658 167.463357 504.104886 167.680559 504.111234 167.897762 504.114725 168.114965 504.115385 168.332168 504.113237 168.549371 504.108307 168.766573 504.100619 168.983776 504.090198 169.200979 504.077067 169.418182 504.061252 169.635385 504.042777 169.852587 504.021666 170.069790 503.997945 170.286993 503.971637 170.504196 503.942767 170.721399 503.911360 170.938601 503.877440 171.155804 503.841032 171.373007 503.802159 171.590210 503.760848 171.807413 503.717121 172.024615 503.671005 172.241818 503.622522 172.459021 503.571698 172.676224 503.518558 172.893427 503.463125 173.110629 503.405425 173.327832 503.345481 173.545035 503.283319 173.762238 503.218963 173.979441 503.152437 174.196643 503.083765 174.413846 503.012974 174.631049 502.940086 174.848252 502.865126 175.065455 502.788117 175.282657 502.709064 175.499860 502.627972 175.717063 502.544845 175.934266 502.459686 176.151469 502.372501 176.368671 502.283293 176.585874 502.192066 176.803077 502.098824 177.020280 502.003570 177.237483 501.906310 177.454685 501.807047 177.671888 501.705784 177.889091 501.602527 178.106294 501.497278 178.323497 501.390043 178.540699 501.280824 178.757902 501.169627 178.975105 501.056454 179.192308 500.941310 179.409510 500.824200 179.626713 500.705126 179.843916 500.584093 180.061119 500.461106 180.278322 500.336167 180.495524 500.209281 180.712727 500.080452 180.929930 499.949685 181.147133 499.816982 181.364336 499.682348 181.581538 499.545787 181.798741 499.407304 182.015944 499.266901 182.233147 499.124583 182.450350 498.980354 182.667552 498.834218 182.884755 498.686180 183.101958 498.536242 183.319161 498.384409 183.536364 498.230685 183.753566 498.075074 183.970769 497.917581 184.187972 497.758208 184.405175 497.596960 184.622378 497.433841 184.839580 497.268855 185.056783 497.102007 185.273986 496.933299 185.491189 496.762736 185.708392 496.590323 185.925594 496.416062 186.142797 496.239958 186.360000 496.062016 186.577203 495.882238 186.794406 495.700630 187.011608 495.517194 187.228811 495.331936 187.446014 495.144858 187.663217 494.955966 187.880420 494.765262 188.097622 494.572752 188.314825 494.378439 188.532028 494.182326 188.749231 493.984419 188.966434 493.784721 189.183636 493.583236 189.400839 493.379968 189.618042 493.174921 189.835245 492.968099 190.052448 492.759506 190.269650 492.549146 190.486853 492.337023 190.704056 492.123141 190.921259 491.907504 191.138462 491.690117 191.355664 491.470982 191.572867 491.250105 191.790070 491.027488 192.007273 490.803137 192.224476 490.577054 192.441678 490.349245 192.658881 490.119713 192.876084 489.888462 193.093287 489.655495 193.310490 489.420818 193.527692 489.184434 193.744895 488.946348 193.962098 488.706562 194.179301 488.465081 194.396503 488.221909 194.613706 487.977051 194.830909 487.730509 195.048112 487.482289 195.265315 487.232394 195.482517 486.980827 195.699720 486.727594 195.916923 486.472698 196.134126 486.216143 196.351329 485.957933 196.568531 485.698073 196.785734 485.436565 197.002937 485.173414 197.220140 484.908625 197.437343 484.642201 197.654545 484.374145 197.871748 484.104463 198.088951 483.833158 198.306154 483.560234 198.523357 483.285695 198.740559 483.009546 198.957762 482.731789 199.174965 482.452429 199.392168 482.171471 199.609371 481.888918 199.826573 481.604774 200.043776 481.319043 200.260979 481.031729 200.478182 480.742836 200.695385 480.452368 200.912587 480.160330 201.129790 479.866724 201.346993 479.571556 201.564196 479.274829 201.781399 478.976547 201.998601 478.676714 202.215804 478.375334 202.433007 478.072411 202.650210 477.767950 202.867413 477.461953 203.084615 477.154426 203.301818 476.845372 203.519021 476.534795 203.736224 476.222699 203.953427 475.909089 204.170629 475.593967 204.387832 475.277339 204.605035 474.959208 204.822238 474.639578 205.039441 474.318453 205.256643 473.995837 205.473846 473.671734 205.691049 473.346149 205.908252 473.019085 206.125455 472.690545 206.342657 472.360535 206.559860 472.029059 206.777063 471.696119 206.994266 471.361721 207.211469 471.025867 207.428671 470.688563 207.645874 470.349812 207.863077 470.009618 208.080280 469.667986 208.297483 469.324918 208.514685 468.980420 208.731888 468.634495 208.949091 468.287147 209.166294 467.938380 209.383497 467.588199 209.600699 467.236607 209.817902 466.883607 210.035105 466.529205 210.252308 466.173405 210.469510 465.816209 210.686713 465.457623 210.903916 465.097649 211.121119 464.736293 211.338322 464.373559 211.555524 464.009449 211.772727 463.643969 211.989930 463.277121 212.207133 462.908911 212.424336 462.539342 212.641538 462.168419 212.858741 461.796144 213.075944 461.422523 213.293147 461.047559 213.510350 460.671256 213.727552 460.293619 213.944755 459.914651 214.161958 459.534355 214.379161 459.152737 214.596364 458.769801 214.813566 458.385549 215.030769 457.999987 215.247972 457.613118 215.465175 457.224946 215.682378 456.835476 215.899580 456.444710 216.116783 456.052654 216.333986 455.659311 216.551189 455.264686 216.768392 454.868781 216.985594 454.471602 217.202797 454.073152 217.420000 453.673435 217.637203 453.272456 217.854406 452.870218 218.071608 452.466725 218.288811 452.061981 218.506014 451.655990 218.723217 451.248757 218.940420 450.840285 219.157622 450.430578 219.374825 450.019641 219.592028 449.607476 219.809231 449.194089 220.026434 448.779484 220.243636 448.363663 220.460839 447.946632 220.678042 447.528394 220.895245 447.108953 221.112448 446.688314 221.329650 446.266480 221.546853 445.843455 221.764056 445.419243 221.981259 444.993849 222.198462 444.567276 222.415664 444.139528 222.632867 443.710609 222.850070 443.280524 223.067273 442.849276 223.284476 442.416869 223.501678 441.983308 223.718881 441.548596 223.936084 441.112737 224.153287 440.675735 224.370490 440.237595 224.587692 439.798320 224.804895 439.357914 225.022098 438.916382 225.239301 438.473726 225.456503 438.029953 225.673706 437.585064 225.890909 437.139065 226.108112 436.691959 226.325315 436.243750 226.542517 435.794443 226.759720 435.344041 226.976923 434.892548 227.194126 434.439968 227.411329 433.986306 227.628531 433.531565 227.845734 433.075750 228.062937 432.618864 228.280140 432.160911 228.497343 431.701895 228.714545 431.241821 228.931748 430.780692 229.148951 430.318512 229.366154 429.855288 229.583357 429.391037 229.800559 428.925778 230.017762 428.459529 230.234965 427.992310 230.452168 427.524140 230.669371 427.055039 230.886573 426.585025 231.103776 426.114118 231.320979 425.642337 231.538182 425.169701 231.755385 424.696229 231.972587 424.221941 232.189790 423.746855 232.406993 423.270991 232.624196 422.794367 232.841399 422.317004 233.058601 421.838920 233.275804 421.360135 233.493007 420.880667 233.710210 420.400535 233.927413 419.919760 234.144615 419.438360 234.361818 418.956354 234.579021 418.473762 234.796224 417.990602 235.013427 417.506894 235.230629 417.022657 235.447832 416.537911 235.665035 416.052673 235.882238 415.566964 236.099441 415.080803 236.316643 414.594209 236.533846 414.107200 236.751049 413.619797 236.968252 413.132018 237.185455 412.643883 237.402657 412.155410 237.619860 411.666619 237.837063 411.177530 238.054266 410.688160 238.271469 410.198530 238.488671 409.708658 238.705874 409.218565 238.923077 408.728268 239.140280 408.237787 239.357483 407.747141 239.574685 407.256350 239.791888 406.765433 240.009091 406.274408 240.226294 405.783295 240.443497 405.292114 240.660699 404.800882 240.877902 404.309620 241.095105 403.818347 241.312308 403.327082 241.529510 402.835843 241.746713 402.344651 241.963916 401.853524 242.181119 401.362482 242.398322 400.871543 242.615524 400.380727 242.832727 399.890053 243.049930 399.399540 243.267133 398.909208 243.484336 398.419075 243.701538 397.929161 243.918741 397.439484 244.135944 396.950065 244.353147 396.460922 244.570350 395.972075 244.787552 395.483542 245.004755 394.995342 245.221958 394.507496 245.439161 394.020022 245.656364 393.532939 245.873566 393.046266 246.090769 392.560023 246.307972 392.074229 246.525175 391.588903 246.742378 391.104064 246.959580 390.619731 247.176783 390.135924 247.393986 389.652661 247.611189 389.169962 247.828392 388.687846 248.045594 388.206333 248.262797 387.725440 248.480000 387.245188 248.697203 386.765596 248.914406 386.286683 249.131608 385.808467 249.348811 385.330969 249.566014 384.854208 249.783217 384.378201 250.000420 383.902970 250.217622 383.428532 250.434825 382.954908 250.652028 382.482115 250.869231 382.010174 251.086434 381.539104 251.303636 381.068923 251.520839 380.599652 251.738042 380.131308 251.955245 379.663912 252.172448 379.197482 252.389650 378.732038 252.606853 378.267598 252.824056 377.804183 253.041259 377.341810 253.258462 376.880500 253.475664 376.420271 253.692867 375.961143 253.910070 375.503135 254.127273 375.046266 254.344476 374.590555 254.561678 374.136021 254.778881 373.682684 254.996084 373.230563 255.213287 372.779676 255.430490 372.330044 255.647692 371.881684 255.864895 371.434617 256.082098 370.988862 256.299301 370.544437 256.516503 370.101362 256.733706 369.659656 256.950909 369.219339 257.168112 368.780428 257.385315 368.342945 257.602517 367.906907 257.819720 367.472334 258.036923 367.039245 258.254126 366.607660 258.471329 366.177597 258.688531 365.749075 258.905734 365.322114 259.122937 364.896734 259.340140 364.472952 259.557343 364.050789 259.774545 363.630263 259.991748 363.211394 260.208951 362.794201 260.426154 362.378702 260.643357 361.964918 260.860559 361.552867 261.077762 361.142569 261.294965 360.734042 261.512168 360.327306 261.729371 359.922381 261.946573 359.519284 262.163776 359.118036 262.380979 358.718655 262.598182 358.321161 262.815385 357.925573 263.032587 357.531911 263.249790 357.140192 263.466993 356.750437 263.684196 356.362664 263.901399 355.976893 264.118601 355.593143 264.335804 355.211433 264.553007 354.831782 264.770210 354.454210 264.987413 354.078736 265.204615 353.705378 265.421818 353.334156 265.639021 352.965089 265.856224 352.598197 266.073427 352.233498 266.290629 351.871012 266.507832 351.510757 266.725035 351.152754 266.942238 350.797021 267.159441 350.443577 267.376643 350.092442 267.593846 349.743634 267.811049 349.397173 268.028252 349.053078 268.245455 348.711369 268.462657 348.372064 268.679860 348.035182 268.897063 347.700743 269.114266 347.368766 269.331469 347.039270 269.548671 346.712274 269.765874 346.387798 269.983077 346.065861 270.200280 345.746481 270.417483 345.429678 270.634685 345.115471 270.851888 344.803879 271.069091 344.494922 271.286294 344.188618 271.503497 343.884988 271.720699 343.584049 271.937902 343.285821 272.155105 342.990324 272.372308 342.697576 272.589510 342.407597 272.806713 342.120406 273.023916 341.836021 273.241119 341.554463 273.458322 341.275750 273.675524 340.999902 273.892727 340.726938 274.109930 340.456876 274.327133 340.189736 274.544336 339.925538 274.761538 339.664300 274.978741 339.406041 275.195944 339.150781 275.413147 338.898539 275.630350 338.649335 275.847552 338.403186 276.064755 338.160113 276.281958 337.920134 276.499161 337.683270 276.716364 337.449538 276.933566 337.218958 277.150769 336.991550 277.367972 336.767332 277.585175 336.546323 277.802378 336.328544 278.019580 336.114012 278.236783 335.902748 278.453986 335.694769 278.671189 335.490097 278.888392 335.288749 279.105594 335.090745 279.322797 334.896103 279.540000 334.704845 279.757203 334.516987 279.974406 334.332550 280.191608 334.151552 280.408811 333.974014 280.626014 333.799954 280.843217 333.629390 281.060420 333.462343 281.277622 333.298832 281.494825 333.138876 281.712028 332.982493 281.929231 332.829703 282.146434 332.680526 282.363636 332.534980 282.580839 332.393085 282.798042 332.254859 283.015245 332.120323 283.232448 331.989494 283.449650 331.862393 283.666853 331.739031 283.884056 331.619388 284.101259 331.503437 284.318462 331.391153 284.535664 331.282506 284.752867 331.177472 284.970070 331.076022 285.187273 330.978130 285.404476 330.883768 285.621678 330.792910 285.838881 330.705529 286.056084 330.621598 286.273287 330.541090 286.490490 330.463978 286.707692 330.390234 286.924895 330.319833 287.142098 330.252747 287.359301 330.188948 287.576503 330.128411 287.793706 330.071108 288.010909 330.017012 288.228112 329.966096 288.445315 329.918333 288.662517 329.873697 288.879720 329.832160 289.096923 329.793695 289.314126 329.758275 289.531329 329.725874 289.748531 329.696465 289.965734 329.670020 290.182937 329.646512 290.400140 329.625915 290.617343 329.608201 290.834545 329.593344 291.051748 329.581317 291.268951 329.572092 291.486154 329.565643 291.703357 329.561942 291.920559 329.560964 292.137762 329.562680 292.354965 329.567064 292.572168 329.574089 292.789371 329.583728 293.006573 329.595954 293.223776 329.610739 293.440979 329.628058 293.658182 329.647883 293.875385 329.670187 294.092587 329.694942 294.309790 329.722123 294.526993 329.751703 294.744196 329.783653 294.961399 329.817948 295.178601 329.854560 295.395804 329.893462 295.613007 329.934628 295.830210 329.978029 296.047413 330.023641 296.264615 330.071435 296.481818 330.121384 296.699021 330.173462 296.916224 330.227641 297.133427 330.283895 297.350629 330.342197 297.567832 330.402519 297.785035 330.464835 298.002238 330.529117 298.219441 330.595340 298.436643 330.663475 298.653846 330.733496 298.871049 330.805376 299.088252 330.879087 299.305455 330.954604 299.522657 331.031898 299.739860 331.110944 299.957063 331.191714 300.174266 331.274180 300.391469 331.358317 300.608671 331.444097 300.825874 331.531493 301.043077 331.620478 301.260280 331.711026 301.477483 331.803109 301.694685 331.896700 301.911888 331.991772 302.129091 332.088299 302.346294 332.186253 302.563497 332.285608 302.780699 332.386336 302.997902 332.488410 303.215105 332.591804 303.432308 332.696491 303.649510 332.802443 303.866713 332.909634 304.083916 333.018037 304.301119 333.127624 304.518322 333.238369 304.735524 333.350245 304.952727 333.463225 305.169930 333.577281 305.387133 333.692388 305.604336 333.808517 305.821538 333.925642 306.038741 334.043736 306.255944 334.162773 306.473147 334.282724 306.690350 334.403563 306.907552 334.525264 307.124755 334.647799 307.341958 334.771140 307.559161 334.895263 307.776364 335.020138 307.993566 335.145740 308.210769 335.272041 308.427972 335.399014 308.645175 335.526633 308.862378 335.654870 309.079580 335.783698 309.296783 335.913092 309.513986 336.043022 309.731189 336.173463 309.948392 336.304388 310.165594 336.435770 310.382797 336.567581 310.600000 336.699795 310.817203 336.832384 311.034406 336.965323 311.251608 337.098583 311.468811 337.232138 311.686014 337.365961 311.903217 337.500024 312.120420 337.634302 312.337622 337.768767 312.554825 337.903391 312.772028 338.038149 312.989231 338.173013 313.206434 338.307956 313.423636 338.442951 313.640839 338.577971 313.858042 338.712990 314.075245 338.847979 314.292448 338.982914 314.509650 339.117765 314.726853 339.252507 314.944056 339.387112 315.161259 339.521553 315.378462 339.655804 315.595664 339.789838 315.812867 339.923627 316.030070 340.057144 316.247273 340.190363 316.464476 340.323257 316.681678 340.455798 316.898881 340.587960 317.116084 340.719716 317.333287 340.851039 317.550490 340.981901 317.767692 341.112277 317.984895 341.242138 318.202098 341.371458 318.419301 341.500210 318.636503 341.628367 318.853706 341.755901 319.070909 341.882787 319.288112 342.008997 319.505315 342.134505 319.722517 342.259282 319.939720 342.383302 320.156923 342.506539 320.374126 342.628965 320.591329 342.750553 320.808531 342.871277 321.025734 342.991108 321.242937 343.110022 321.460140 343.227989 321.677343 343.344984 321.894545 343.460980 322.111748 343.575949 322.328951 343.689865 322.546154 343.802700 322.763357 343.914428 322.980559 344.025021 323.197762 344.134453 323.414965 344.242697 323.632168 344.349726 323.849371 344.455512 324.066573 344.560030 324.283776 344.663251 324.500979 344.765149 324.718182 344.865697 324.935385 344.964868 325.152587 345.062635 325.369790 345.158970 325.586993 345.253848 325.804196 345.347242 326.021399 345.439123 326.238601 345.529465 326.455804 345.618242 326.673007 345.705426 326.890210 345.790990 327.107413 345.874907 327.324615 345.957151 327.541818 346.037694 327.759021 346.116510 327.976224 346.193571 328.193427 346.268850 328.410629 346.342321 328.627832 346.413957 328.845035 346.483730 329.062238 346.551613 329.279441 346.617581 329.496643 346.681605 329.713846 346.743658 329.931049 346.803715 330.148252 346.861747 330.365455 346.917728 330.582657 346.971631 330.799860 347.023429 331.017063 347.073095 331.234266 347.120601 331.451469 347.165922 331.668671 347.209030 331.885874 347.249898 332.103077 347.288499 332.320280 347.324806 332.537483 347.358792 332.754685 347.390430 332.971888 347.419694 333.189091 347.446555 333.406294 347.470989 333.623497 347.492966 333.840699 347.512461 334.057902 347.529446 334.275105 347.543895 334.492308 347.555780 334.709510 347.565074 334.926713 347.571752 335.143916 347.575784 335.361119 347.577146 335.578322 347.575809 335.795524 347.571746 336.012727 347.564932 336.229930 347.555338 336.447133 347.542938 336.664336 347.527704 336.881538 347.509611 337.098741 347.488630 337.315944 347.464736 337.533147 347.437900 337.750350 347.408096 337.967552 347.375306 338.184755 347.339543 338.401958 347.300832 338.619161 347.259195 338.836364 347.214655 339.053566 347.167235 339.270769 347.116958 339.487972 347.063847 339.705175 347.007926 339.922378 346.949217 340.139580 346.887743 340.356783 346.823528 340.573986 346.756593 340.791189 346.686963 341.008392 346.614661 341.225594 346.539709 341.442797 346.462130 341.660000 346.381948 341.877203 346.299185 342.094406 346.213865 342.311608 346.126010 342.528811 346.035644 342.746014 345.942789 342.963217 345.847469 343.180420 345.749707 343.397622 345.649525 343.614825 345.546947 343.832028 345.441996 344.049231 345.334694 344.266434 345.225065 344.483636 345.113132 344.700839 344.998918 344.918042 344.882446 345.135245 344.763738 345.352448 344.642818 345.569650 344.519709 345.786853 344.394435 346.004056 344.267017 346.221259 344.137479 346.438462 344.005844 346.655664 343.872135 346.872867 343.736375 347.090070 343.598587 347.307273 343.458795 347.524476 343.317020 347.741678 343.173287 347.958881 343.027618 348.176084 342.880036 348.393287 342.730564 348.610490 342.579226 348.827692 342.426044 349.044895 342.271041 349.262098 342.114241 349.479301 341.955665 349.696503 341.795339 349.913706 341.633283 350.130909 341.469523 350.348112 341.304079 350.565315 341.136976 350.782517 340.968237 350.999720 340.797884 351.216923 340.625941 351.434126 340.452430 351.651329 340.277375 351.868531 340.100799 352.085734 339.922724 352.302937 339.743174 352.520140 339.562172 352.737343 339.379740 352.954545 339.195903 353.171748 339.010682 353.388951 338.824101 353.606154 338.636182 353.823357 338.446950 354.040559 338.256426 354.257762 338.064635 354.474965 337.871598 354.692168 337.677340 354.909371 337.481882 355.126573 337.285248 355.343776 337.087462 355.560979 336.888545 355.778182 336.688522 355.995385 336.487415 356.212587 336.285247 356.429790 336.082041 356.646993 335.877820 356.864196 335.672608 357.081399 335.466427 357.298601 335.259300 357.515804 335.051250 357.733007 334.842301 357.950210 334.632475 358.167413 334.421795 358.384615 334.210285 358.601818 333.997968 358.819021 333.784866 359.036224 333.571002 359.253427 333.356400 359.470629 333.141082 359.687832 332.925072 359.905035 332.708392 360.122238 332.491067 360.339441 332.273117 360.556643 332.054568 360.773846 331.835441 360.991049 331.615760 361.208252 331.395547 361.425455 331.174827 361.642657 330.953621 361.859860 330.731953 362.077063 330.509846 362.294266 330.287322 362.511469 330.064406 362.728671 329.841120 362.945874 329.617486 363.163077 329.393529 363.380280 329.169270 363.597483 328.944733 363.814685 328.719942 364.031888 328.494919 364.249091 328.269686 364.466294 328.044268 364.683497 327.818687 364.900699 327.592966 365.117902 327.367129 365.335105 327.141197 365.552308 326.915195 365.769510 326.689145 365.986713 326.463071 366.203916 326.236994 366.421119 326.010939 366.638322 325.784929 366.855524 325.558986 367.072727 325.333133 367.289930 325.107394 367.507133 324.881791 367.724336 324.656348 367.941538 324.431087 368.158741 324.206032 368.375944 323.981206 368.593147 323.756631 368.810350 323.532330 369.027552 323.308328 369.244755 323.084646 369.461958 322.861308 369.679161 322.638336 369.896364 322.415755 370.113566 322.193586 370.330769 321.971852 370.547972 321.750578 370.765175 321.529786 370.982378 321.309498 371.199580 321.089739 371.416783 320.870530 371.633986 320.651895 371.851189 320.433858 372.068392 320.216440 372.285594 319.999665 372.502797 319.783557 372.720000 319.568137 372.937203 319.353430 373.154406 319.139458 373.371608 318.926244 373.588811 318.713811 373.806014 318.502182 374.023217 318.291381 374.240420 318.081430 374.457622 317.872352 374.674825 317.664171 374.892028 317.456909 375.109231 317.250589 375.326434 317.045235 375.543636 316.840869 375.760839 316.637514 375.978042 316.435194 376.195245 316.233932 376.412448 316.033750 376.629650 315.834672 376.846853 315.636720 377.064056 315.439918 377.281259 315.244288 377.498462 315.049854 377.715664 314.856639 377.932867 314.664665 378.150070 314.473957 378.367273 314.284536 378.584476 314.096425 378.801678 313.909649 379.018881 313.724229 379.236084 313.540190 379.453287 313.357553 379.670490 313.176342 379.887692 312.996580 380.104895 312.818290 380.322098 312.641495 380.539301 312.466218 380.756503 312.292482 380.973706 312.120310 381.190909 311.949725 381.408112 311.780750 381.625315 311.613409 381.842517 311.447723 382.059720 311.283717 382.276923 311.121413 382.494126 310.960835 382.711329 310.802004 382.928531 310.644945 383.145734 310.489680 383.362937 310.336233 383.580140 310.184625 383.797343 310.034882 384.014545 309.887024 384.231748 309.741076 384.448951 309.597061 384.666154 309.455001 384.883357 309.314920 385.100559 309.176840 385.317762 309.040785 385.534965 308.906777 385.752168 308.774840 385.969371 308.644997 386.186573 308.517270 386.403776 308.391683 386.620979 308.268259 386.838182 308.147020 387.055385 308.027990 387.272587 307.911192 387.489790 307.796649 387.706993 307.684384 387.924196 307.574420 388.141399 307.466779 388.358601 307.361486 388.575804 307.258562 388.793007 307.158032 389.010210 307.059917 389.227413 306.964241 389.444615 306.871028 389.661818 306.780300 389.879021 306.692079 390.096224 306.606390 390.313427 306.523255 390.530629 306.442697 390.747832 306.364740 390.965035 306.289405 391.182238 306.216717 391.399441 306.146698 391.616643 306.079372 391.833846 306.014761 392.051049 305.952888 392.268252 305.893772 392.485455 305.837409 392.702657 305.783793 392.919860 305.732916 393.137063 305.684771 393.354266 305.639350 393.571469 305.596646 393.788671 305.556651 394.005874 305.519358 394.223077 305.484760 394.440280 305.452849 394.657483 305.423617 394.874685 305.397058 395.091888 305.373163 395.309091 305.351926 395.526294 305.333339 395.743497 305.317394 395.960699 305.304084 396.177902 305.293402 396.395105 305.285340 396.612308 305.279891 396.829510 305.277048 397.046713 305.276802 397.263916 305.279147 397.481119 305.284074 397.698322 305.291578 397.915524 305.301649 398.132727 305.314282 398.349930 305.329467 398.567133 305.347199 398.784336 305.367469 399.001538 305.390270 399.218741 305.415595 399.435944 305.443436 399.653147 305.473785 399.870350 305.506636 400.087552 305.541981 400.304755 305.579812 400.521958 305.620123 400.739161 305.662905 400.956364 305.708151 401.173566 305.755854 401.390769 305.806006 401.607972 305.858600 401.825175 305.913628 402.042378 305.971084 402.259580 306.030959 402.476783 306.093246 402.693986 306.157938 402.911189 306.225027 403.128392 306.294506 403.345594 306.366368 403.562797 306.440604 403.780000 306.517209 403.997203 306.596173 404.214406 306.677490 404.431608 306.761152 404.648811 306.847152 404.866014 306.935483 405.083217 307.026136 405.300420 307.119105 405.517622 307.214382 405.734825 307.311960 405.952028 307.411831 406.169231 307.513988 406.386434 307.618424 406.603636 307.725130 406.820839 307.834100 407.038042 307.945326 407.255245 308.058800 407.472448 308.174516 407.689650 308.292466 407.906853 308.412642 408.124056 308.535037 408.341259 308.659644 408.558462 308.786455 408.775664 308.915462 408.992867 309.046659 409.210070 309.180037 409.427273 309.315590 409.644476 309.453309 409.861678 309.593189 410.078881 309.735220 410.296084 309.879396 410.513287 310.025709 410.730490 310.174152 410.947692 310.324718 411.164895 310.477398 411.382098 310.632186 411.599301 310.789074 411.816503 310.948054 412.033706 311.109120 412.250909 311.272263 412.468112 311.437477 412.685315 311.604754 412.902517 311.774086 413.119720 311.945466 413.336923 312.118887 413.554126 312.294341 413.771329 312.471821 413.988531 312.651319 414.205734 312.832829 414.422937 313.016341 414.640140 313.201850 414.857343 313.389347 415.074545 313.578825 415.291748 313.770277 415.508951 313.963696 415.726154 314.159073 415.943357 314.356402 416.160559 314.555675 416.377762 314.756884 416.594965 314.960023 416.812168 315.165083 417.029371 315.372058 417.246573 315.580940 417.463776 315.791720 417.680979 316.004393 417.898182 316.218951 418.115385 316.435386 418.332587 316.653690 418.549790 316.873857 418.766993 317.095878 418.984196 317.319747 419.201399 317.545456 419.418601 317.772998 419.635804 318.002365 419.853007 318.233549 420.070210 318.466544 420.287413 318.701341 420.504615 318.937934 420.721818 319.176315 420.939021 319.416477 421.156224 319.658411 421.373427 319.902112 421.590629 320.147570 421.807832 320.394780 422.025035 320.643732 422.242238 320.894421 422.459441 321.146839 422.676643 321.400977 422.893846 321.656829 423.111049 321.914387 423.328252 322.173645 423.545455 322.434593 423.762657 322.697226 423.979860 322.961535 424.197063 323.227513 424.414266 323.495153 424.631469 323.764447 424.848671 324.035387 425.065874 324.307968 425.283077 324.582180 425.500280 324.858016 425.717483 325.135470 425.934685 325.414534 426.151888 325.695199 426.369091 325.977460 426.586294 326.261307 426.803497 326.546735 427.020699 326.833735 427.237902 327.122300 427.455105 327.412423 427.672308 327.704096 427.889510 327.997312 428.106713 328.292063 428.323916 328.588343 428.541119 328.886142 428.758322 329.185455 428.975524 329.486273 429.192727 329.788590 429.409930 330.092397 429.627133 330.397687 429.844336 330.704454 430.061538 331.012689 430.278741 331.322385 430.495944 331.633534 430.713147 331.946130 430.930350 332.260165 431.147552 332.575630 431.364755 332.892520 431.581958 333.210826 431.799161 333.530541 432.016364 333.851658 432.233566 334.174169 432.450769 334.498067 432.667972 334.823344 432.885175 335.149993 433.102378 335.478006 433.319580 335.807376 433.536783 336.138096 433.753986 336.470158 433.971189 336.803555 434.188392 337.138279 434.405594 337.474323 434.622797 337.811679 434.840000 338.150340 435.057203 338.490299 435.274406 338.831548 435.491608 339.174080 435.708811 339.517887 435.926014 339.862962 436.143217 340.209297 436.360420 340.556885 436.577622 340.905719 436.794825 341.255791 437.012028 341.607094 437.229231 341.959619 437.446434 342.313361 437.663636 342.668311 437.880839 343.024462 438.098042 343.381807 438.315245 343.740338 438.532448 344.100047 438.749650 344.460928 438.966853 344.822972 439.184056 345.186173 439.401259 345.550523 439.618462 345.916014 439.835664 346.282639 440.052867 346.650391 440.270070 347.019263 440.487273 347.389246 440.704476 347.760333 440.921678 348.132517 441.138881 348.505791 441.356084 348.880147 441.573287 349.255578 441.790490 349.632076 442.007692 350.009633 442.224895 350.388243 442.442098 350.767898 442.659301 351.148591 442.876503 351.530313 443.093706 351.913058 443.310909 352.296819 443.528112 352.681587 443.745315 353.067355 443.962517 353.454116 444.179720 353.841863 444.396923 354.230588 444.614126 354.620284 444.831329 355.010942 445.048531 355.402557 445.265734 355.795120 445.482937 356.188623 445.700140 356.583060 445.917343 356.978423 446.134545 357.374705 446.351748 357.771898 446.568951 358.169991 446.786154 358.568956 447.003357 358.968763 447.220559 359.369380 447.437762 359.770777 447.654965 360.172922 447.872168 360.575784 448.089371 360.979332 448.306573 361.383534 448.523776 361.788361 448.740979 362.193780 448.958182 362.599761 449.175385 363.006272 449.392587 363.413282 449.609790 363.820761 449.826993 364.228676 450.044196 364.636998 450.261399 365.045695 450.478601 365.454735 450.695804 365.864088 450.913007 366.273722 451.130210 366.683607 451.347413 367.093711 451.564615 367.504004 451.781818 367.914453 451.999021 368.325029 452.216224 368.735699 452.433427 369.146433 452.650629 369.557200 452.867832 369.967968 453.085035 370.378707 453.302238 370.789385 453.519441 371.199972 453.736643 371.610435 453.953846 372.020744 454.171049 372.430869 454.388252 372.840777 454.605455 373.250438 454.822657 373.659820 455.039860 374.068893 455.257063 374.477625 455.474266 374.885985 455.691469 375.293942 455.908671 375.701466 456.125874 376.108524 456.343077 376.515086 456.560280 376.921121 456.777483 377.326597 456.994685 377.731484 457.211888 378.135750 457.429091 378.539364 457.646294 378.942296 457.863497 379.344513 458.080699 379.745986 458.297902 380.146682 458.515105 380.546571 458.732308 380.945621 458.949510 381.343802 459.166713 381.741082 459.383916 382.137430 459.601119 382.532816 459.818322 382.927208 460.035524 383.320574 460.252727 383.712884 460.469930 384.104107 460.687133 384.494212 460.904336 384.883167 461.121538 385.270941 461.338741 385.657504 461.555944 386.042823 461.773147 386.426869 461.990350 386.809610 462.207552 387.191014 462.424755 387.571051 462.641958 387.949690 462.859161 388.326899 463.076364 388.702648 463.293566 389.076905 463.510769 389.449639 463.727972 389.820819 463.945175 390.190414 464.162378 390.558392 464.379580 390.924724 464.596783 391.289377 464.813986 391.652320 465.031189 392.013523 465.248392 392.372954 465.465594 392.730583 465.682797 393.086377 465.900000 393.440306 466.117203 393.792339 466.334406 394.142445 466.551608 394.490592 466.768811 394.836750 466.986014 395.180887 467.203217 395.522973 467.420420 395.862975 467.637622 396.200864 467.854825 396.536608 468.072028 396.870175 468.289231 397.201535 468.506434 397.530657 468.723636 397.857509 468.940839 398.182061 469.158042 398.504281 469.375245 398.824138 469.592448 399.141601 469.809650 399.456639 470.026853 399.769221 470.244056 400.079316 470.461259 400.386892 470.678462 400.691918 470.895664 400.994365 471.112867 401.294199 471.330070 401.591391 471.547273 401.885908 471.764476 402.177721 471.981678 402.466797 472.198881 402.753106 472.416084 403.036617 472.633287 403.317298 472.850490 403.595119 473.067692 403.870048 473.284895 404.142054 473.502098 404.411106 473.719301 404.677173 473.936503 404.940224 474.153706 405.200228 474.370909 405.457153 474.588112 405.710969 474.805315 405.961645 475.022517 406.209148 475.239720 406.453449 475.456923 406.694516 475.674126 406.932318 475.891329 407.166823 476.108531 407.398002 476.325734 407.625822 476.542937 407.850252 476.760140 408.071262 476.977343 408.288820 477.194545 408.502896 477.411748 408.713457 477.628951 408.920474 477.846154 409.123914 478.063357 409.323747 478.280559 409.519942 478.497762 409.712467 478.714965 409.901292 478.932168 410.086385 479.149371 410.267715 479.366573 410.445252 479.583776 410.618963 479.800979 410.788818 480.018182 410.954786 480.235385 411.116835 480.452587 411.274936 480.669790 411.429055 480.886993 411.579163 481.104196 411.725228 481.321399 411.867219 481.538601 412.005105 481.755804 412.138855 481.973007 412.268438 482.190210 412.393822 482.407413 412.514977 482.624615 412.631872 482.841818 412.744474 483.059021 412.852754 483.276224 412.956680 483.493427 413.056221 483.710629 413.151346 483.927832 413.242024 484.145035 413.328223 484.362238 413.409913 484.579441 413.487062 484.796643 413.559640 485.013846 413.627615 485.231049 413.690956 485.448252 413.749632 485.665455 413.803612 485.882657 413.852865 486.099860 413.897359 486.317063 413.937064 486.534266 413.971948 486.751469 414.001981 486.968671 414.027131 487.185874 414.047367 487.403077 414.062658 487.620280 414.072973 487.837483 414.078280 488.054685 414.078550 488.271888 414.073750 488.489091 414.063849 488.706294 414.048817 488.923497 414.028622 489.140699 414.003233 489.357902 413.972619 489.575105 413.936749 489.792308 413.895592 490.009510 413.849116 490.226713 413.797291 490.443916 413.740086 490.661119 413.677469 490.878322 413.609409 491.095524 413.535875 491.312727 413.456837 491.529930 413.372262 491.747133 413.282120 491.964336 413.186379 492.181538 413.085010 492.398741 412.977979 492.615944 412.865258 492.833147 412.746813 493.050350 412.622614 493.267552 412.492631 493.484755 412.356831 493.701958 412.215185 493.919161 412.067660 494.136364 411.914225 494.353566 411.754850 494.570769 411.589504 494.787972 411.418154 495.005175 411.240771 495.222378 411.057323 495.439580 410.867778 495.656783 410.672107 495.873986 410.470277 496.091189 410.262258 496.308392 410.048019 496.525594 409.827527 496.742797 409.600753 496.960000 409.367665 497.177203 409.128233 497.394406 408.882424 497.611608 408.630208 497.828811 408.371553 498.046014 408.106429 498.263217 407.834805 498.480420 407.556649 498.697622 407.271931 498.914825 406.980618 499.132028 406.682681 499.349231 406.378087 499.566434 406.066807 499.783636 405.748808 500.000839 405.424060 500.218042 405.092531 500.435245 404.754190 500.652448 404.409007 500.869650 404.056966 501.086853 403.698113 501.304056 403.332510 501.521259 402.960221 501.738462 402.581306 501.955664 402.195829 502.172867 401.803852 502.390070 401.405436 502.607273 401.000644 502.824476 400.589538 503.041678 400.172181 503.258881 399.748634 503.476084 399.318961 503.693287 398.883222 503.910490 398.441481 504.127692 397.993799 504.344895 397.540239 504.562098 397.080864 504.779301 396.615734 504.996503 396.144913 505.213706 395.668463 505.430909 395.186445 505.648112 394.698923 505.865315 394.205958 506.082517 393.707613 506.299720 393.203949 506.516923 392.695030 506.734126 392.180917 506.951329 391.661673 507.168531 391.137359 507.385734 390.608038 507.602937 390.073772 507.820140 389.534624 508.037343 388.990656 508.254545 388.441929 508.471748 387.888507 508.688951 387.330451 508.906154 386.767823 509.123357 386.200686 509.340559 385.629103 509.557762 385.053134 509.774965 384.472843 509.992168 383.888292 510.209371 383.299542 510.426573 382.706657 510.643776 382.109698 510.860979 381.508728 511.078182 380.903809 511.295385 380.295002 511.512587 379.682371 511.729790 379.065978 511.946993 378.445884 512.164196 377.822152 512.381399 377.194845 512.598601 376.564024 512.815804 375.929751 513.033007 375.292090 513.250210 374.651101 513.467413 374.006848 513.684615 373.359392 513.901818 372.708797 514.119021 372.055123 514.336224 371.398433 514.553427 370.738790 514.770629 370.076256 514.987832 369.410892 515.205035 368.742762 515.422238 368.071927 515.639441 367.398450 515.856643 366.722393 516.073846 366.043817 516.291049 365.362786 516.508252 364.679361 516.725455 363.993606 516.942657 363.305581 517.159860 362.615349 517.377063 361.922973 517.594266 361.228514 517.811469 360.532035 518.028671 359.833599 518.245874 359.133267 518.463077 358.431101 518.680280 357.727164 518.897483 357.021518 519.114685 356.314225 519.331888 355.605348 519.549091 354.894949 519.766294 354.183089 519.983497 353.469832 520.200699 352.755238 520.417902 352.039372 520.635105 351.322294 520.852308 350.604068 521.069510 349.884755 521.286713 349.164417 521.503916 348.443117 521.721119 347.720917 521.938322 346.997879 522.155524 346.274065 522.372727 345.549538 522.589930 344.824361 522.807133 344.098594 523.024336 343.372300 523.241538 342.645542 523.458741 341.918382 523.675944 341.190882 523.893147 340.463104 524.110350 339.735110 524.327552 339.006964 524.544755 338.278726 524.761958 337.550459 524.979161 336.822226 525.196364 336.094088 525.413566 335.366108 525.630769 334.638348 525.847972 333.910871 526.065175 333.183738 526.282378 332.457011 526.499580 331.730754 526.716783 331.005028 526.933986 330.279895 527.151189 329.555418 527.368392 328.831659 527.585594 328.108679 527.802797 327.386543 528.020000 326.665310 528.237203 325.945045 528.454406 325.225808 528.671608 324.507663 528.888811 323.790671 529.106014 323.074895 529.323217 322.360397 529.540420 321.647239 529.757622 320.935483 529.974825 320.225192 530.192028 319.516427 530.409231 318.809252 530.626434 318.103728 530.843636 317.399918 531.060839 316.697883 531.278042 315.997686 531.495245 315.299390 531.712448 314.603055 531.929650 313.908746 532.146853 313.216523 532.364056 312.526450 532.581259 311.838587 532.798462 311.152999 533.015664 310.469746 533.232867 309.788891 533.450070 309.110496 533.667273 308.434624 533.884476 307.761336 534.101678 307.090695 534.318881 306.422764 534.536084 305.757604 534.753287 305.095277 534.970490 304.435846 535.187692 303.779373 535.404895 303.125921 535.622098 302.475551 535.839301 301.828326 536.056503 301.184307 536.273706 300.543558 536.490909 299.906141 536.708112 299.272116 536.925315 298.641548 537.142517 298.014498 537.359720 297.391028 537.576923 296.771201 537.794126 296.155078 538.011329 295.542723 538.228531 294.934197 538.445734 294.329562 538.662937 293.728881 538.880140 293.132215 539.097343 292.539628 539.314545 291.951181 539.531748 291.366937 539.748951 290.786958 539.966154 290.211306 540.183357 289.640042 540.400559 289.073231 540.617762 288.510933 540.834965 287.953211 541.052168 287.400127 541.269371 286.851744 541.486573 286.308123 541.703776 285.769327 541.920979 285.235419 542.138182 284.706459 542.355385 284.182511 542.572587 283.663637 542.789790 283.149899 543.006993 282.641359 543.224196 282.138079 543.441399 281.640123 543.658601 281.147551 543.875804 280.660426 544.093007 280.178810 544.310210 279.702766 544.527413 279.232356 544.744615 278.767642 544.961818 278.308687 545.179021 277.855551 545.396224 277.408299 545.613427 276.966991 545.830629 276.531691 546.047832 276.102460 546.265035 275.679360 546.482238 275.262454 546.699441 274.851805 546.916643 274.447474 547.133846 274.049523 547.351049 273.658015 547.568252 273.273012 547.785455 272.894576 548.002657 272.522770 548.219860 272.157656 548.437063 271.799295 548.654266 271.447750 548.871469 271.103084 549.088671 270.765358 549.305874 270.434635 549.523077 270.110978 549.740280 269.794447 549.957483 269.485106 550.174685 269.183016 550.391888 268.888241 550.609091 268.600842 550.826294 268.320881 551.043497 268.048420 551.260699 267.783523 551.477902 267.526251 551.695105 267.276666 551.912308 267.034830 552.129510 266.800806 552.346713 266.574656 552.563916 266.356443 552.781119 266.146228 552.998322 265.944073 553.215524 265.750042 553.432727 265.564195 553.649930 265.386596 553.867133 265.217306 554.084336 265.056389 554.301538 264.903905 554.518741 264.759917 554.735944 264.624488 554.953147 264.497680 555.170350 264.379538 555.387552 264.270045 555.604755 264.169165 555.821958 264.076864 556.039161 263.993107 556.256364 263.917859 556.473566 263.851086 556.690769 263.792752 556.907972 263.742824 557.125175 263.701266 557.342378 263.668043 557.559580 263.643122 557.776783 263.626466 557.993986 263.618042 558.211189 263.617815 558.428392 263.625750 558.645594 263.641811 558.862797 263.665966 559.080000 263.698178 559.297203 263.738413 559.514406 263.786637 559.731608 263.842814 559.948811 263.906909 560.166014 263.978889 560.383217 264.058719 560.600420 264.146363 560.817622 264.241786 561.034825 264.344956 561.252028 264.455835 561.469231 264.574390 561.686434 264.700586 561.903636 264.834389 562.120839 264.975763 562.338042 265.124674 562.555245 265.281086 562.772448 265.444966 562.989650 265.616279 563.206853 265.794990 563.424056 265.981063 563.641259 266.174465 563.858462 266.375161 564.075664 266.583116 564.292867 266.798295 564.510070 267.020663 564.727273 267.250186 564.944476 267.486829 565.161678 267.730558 565.378881 267.981337 565.596084 268.239131 565.813287 268.503907 566.030490 268.775629 566.247692 269.054263 566.464895 269.339774 566.682098 269.632126 566.899301 269.931287 567.116503 270.237220 567.333706 270.549890 567.550909 270.869264 567.768112 271.195307 567.985315 271.527983 568.202517 271.867259 568.419720 272.213098 568.636923 272.565468 568.854126 272.924332 569.071329 273.289656 569.288531 273.661405 569.505734 274.039545 569.722937 274.424042 569.940140 274.814859 570.157343 275.211962 570.374545 275.615318 570.591748 276.024890 570.808951 276.440645 571.026154 276.862547 571.243357 277.290562 571.460559 277.724655 571.677762 278.164791 571.894965 278.610936 572.112168 279.063055 572.329371 279.521113 572.546573 279.985075 572.763776 280.454907 572.980979 280.930574 573.198182 281.412041 573.415385 281.899274 573.632587 282.392237 573.849790 282.890896 574.066993 283.395217 574.284196 283.905164 574.501399 284.420703 574.718601 284.941799 574.935804 285.468417 575.153007 286.000523 575.370210 286.538082 575.587413 287.081059 575.804615 287.629419 576.021818 288.183128 576.239021 288.742151 576.456224 289.306453 576.673427 289.876000 576.890629 290.450757 577.107832 291.030688 577.325035 291.615760 577.542238 292.205937 577.759441 292.801185 577.976643 293.401470 578.193846 294.006756 578.411049 294.617008 578.628252 295.232192 578.845455 295.852273 579.062657 296.477217 579.279860 297.106989 579.497063 297.741553 579.714266 298.380876 579.931469 299.024923 580.148671 299.673658 580.365874 300.327047 580.583077 300.985055 580.800280 301.647648 581.017483 302.314791 581.234685 302.986449 581.451888 303.662588 581.669091 304.343172 581.886294 305.028167 582.103497 305.717538 582.320699 306.411251 582.537902 307.109270 582.755105 307.811561 582.972308 308.518090 583.189510 309.228821 583.406713 309.943720 583.623916 310.662753 583.841119 311.385883 584.058322 312.113077 584.275524 312.844300 584.492727 313.579517 584.709930 314.318694 584.927133 315.061795 585.144336 315.808786 585.361538 316.559632 585.578741 317.314299 585.795944 318.072752 586.013147 318.834955 586.230350 319.600875 586.447552 320.370477 586.664755 321.143725 586.881958 321.920586 587.099161 322.701024 587.316364 323.485004 587.533566 324.272492 587.750769 325.063454 587.967972 325.857854 588.185175 326.655658 588.402378 327.456830 588.619580 328.261337 588.836783 329.069144 589.053986 329.880215 589.271189 330.694516 589.488392 331.512013 589.705594 332.332670 589.922797 333.156453 590.140000 333.983327 590.357203 334.813257 590.574406 335.646210 590.791608 336.482149 591.008811 337.321040 591.226014 338.162849 591.443217 339.007540 591.660420 339.855080 591.877622 340.705433 592.094825 341.558564 592.312028 342.414439 592.529231 343.273023 592.746434 344.134282 592.963636 344.998180 593.180839 345.864683 593.398042 346.733756 593.615245 347.605365 593.832448 348.479474 594.049650 349.356049 594.266853 350.235056 594.484056 351.116459 594.701259 352.000224 594.918462 352.886315 595.135664 353.774699 595.352867 354.665341 595.570070 355.558205 595.787273 356.453258 596.004476 357.350464 596.221678 358.249788 596.438881 359.151197 596.656084 360.054654 596.873287 360.960126 597.090490 361.867578 597.307692 362.776975 597.524895 363.688282 597.742098 364.601464 597.959301 365.516488 598.176503 366.433317 598.393706 367.351918 598.610909 368.272255 598.828112 369.194294 599.045315 370.118000 599.262517 371.043339 599.479720 371.970275 599.696923 372.898774 599.914126 373.828802 600.131329 374.760322 600.348531 375.693302 600.565734 376.627706 600.782937 377.563498 601.000140 378.500646 601.217343 379.439113 601.434545 380.378865 601.651748 381.319868 601.868951 382.262086 602.086154 383.205485 602.303357 384.150030 602.520559 385.095687 602.737762 386.042420 602.954965 386.990196 603.172168 387.938978 603.389371 388.888733 603.606573 389.839426 603.823776 390.791022 604.040979 391.743486 604.258182 392.696783 604.475385 393.650880 604.692587 394.605741 604.909790 395.561330 605.126993 396.517615 605.344196 397.474560 605.561399 398.432129 605.778601 399.390289 605.995804 400.349005 606.213007 401.308242 606.430210 402.267965 606.647413 403.228139 606.864615 404.188731 607.081818 405.149704 607.299021 406.111025 607.516224 407.072658 607.733427 408.034569 607.950629 408.996723 608.167832 409.959086 608.385035 410.921622 608.602238 411.884297 608.819441 412.847077 609.036643 413.809926 609.253846 414.772809 609.253846 514.000000" /></g></g><g class="titles"><text class="title plot_title" x="400.0" y="26">Ekkamai 51</text></g><g class="plot overlay" transform="translate(158, 46)"><g class="series serie-0 color-0"><g class="dots"><circle class="dot reactive tooltip-trigger" cx="11.946153846153846" cy="77.94924365595676" r="2.5" /><desc class="value">332000</desc><desc class="x ">11.946153846153846</desc><desc class="y ">77.94924365595676</desc><desc class="x_label">Jan</desc></g><g class="dots"><circle class="dot reactive tooltip-trigger" cx="66.24685314685314" cy="41.6759365912888" r="2.5" /><desc class="value">339000</desc><desc class="x ">66.24685314685314</desc><desc class="y ">41.6759365912888</desc><desc class="x_label">Feb</desc></g><g class="dots"><circle class="dot reactive tooltip-trigger" cx="120.54755244755245" cy="394.0452052194916" r="2.5" /><desc class="value">271000</desc><desc class="x top">120.54755244755245</desc><desc class="y top">394.0452052194916</desc><desc class="x_label">Mar</desc></g><g class="dots"><circle class="dot reactive tooltip-trigger" cx="174.84825174825176" cy="502.86512641349543" r="2.5" /><desc class="value">250000</desc><desc class="x top">174.84825174825176</desc><desc class="y top">502.86512641349543</desc><desc class="x_label">Apr</desc></g><g class="dots"><circle class="dot reactive tooltip-trigger" cx="229.14895104895106" cy="430.31851228415957" r="2.5" /><desc class="value">264000</desc><desc class="x top">229.14895104895106</desc><desc class="y top">430.31851228415957</desc><desc class="x_label">May</desc></g><g class="dots"><circle class="dot reactive tooltip-trigger" cx="283.44965034965037" cy="331.8623931086323" r="2.5" /><desc class="value">283000</desc><desc class="x top">283.44965034965037</desc><desc class="y top">331.8623931086323</desc><desc class="x_label">Jun</desc></g><g class="dots"><circle class="dot reactive tooltip-trigger" cx="337.7503496503497" cy="347.4080961363471" r="2.5" /><desc class="value">280000</desc><desc class="x left top">337.7503496503497</desc><desc class="y left top">347.4080961363471</desc><desc class="x_label">Jul</desc></g><g class="dots"><circle class="dot reactive tooltip-trigger" cx="392.051048951049" cy="305.9528880624409" r="2.5" /><desc class="value">288000</desc><desc class="x left top">392.051048951049</desc><desc class="y left top">305.9528880624409</desc><desc class="x_label">Aug</desc></g><g class="dots"><circle class="dot reactive tooltip-trigger" cx="446.3517482517483" cy="357.7718981548237" r="2.5" /><desc class="value">278000</desc><desc class="x left top">446.3517482517483</desc><desc class="y left top">357.7718981548237</desc><desc class="x_label">Sep</desc></g><g class="dots"><circle class="dot reactive tooltip-trigger" cx="500.6524475524476" cy="404.4090072379681" r="2.5" /><desc class="value">269000</desc><desc class="x left top">500.6524475524476</desc><desc class="y left top">404.4090072379681</desc><desc class="x_label">Oct</desc></g><g class="dots"><circle class="dot reactive tooltip-trigger" cx="554.9531468531468" cy="264.4976799885347" r="2.5" /><desc class="value">296000</desc><desc class="x left top">554.9531468531468</desc><desc class="y left top">264.4976799885347</desc><desc class="x_label">Nov</desc></g><g class="dots"><circle class="dot reactive tooltip-trigger" cx="609.2538461538462" cy="414.7728092564447" r="2.5" /><desc class="value">267000</desc><desc class="x left top">609.2538461538462</desc><desc class="y left top">414.7728092564447</desc><desc class="x_label">Dec</desc></g></g></g><g class="plot text-overlay" transform="translate(158, 46)"><g class="series serie-0 color-0" /></g><g class="plot tooltip-overlay" transform="translate(158, 46)"><g class="tooltip" style="opacity: 0" transform="translate(0 0)"><rect class="tooltip-box" height="0" rx="0" ry="0" width="0" /><g class="text" /></g></g><g class="legends" transform="translate(10, 56)"><g class="legend reactive activate-serie" id="activate-serie-0"><rect class="color-0 reactive" height="12" width="12" x="0.0" y="1.0" /><text x="17.0" y="11.2">Ekkamai</text></g></g><g class="legends" transform="translate(790, 56)" /></g></svg>