<?xml version='1.0' encoding='utf-8'?>
<svg xmlns:xlink="http://www.w3.org/1999/xlink" class="pygal-chart" id="chart-f80ba627-161b-42e4-a5bd-6927b39d1f9d" viewBox="0 0 800 600" xmlns="http://www.w3.org/2000/svg"><!--Generated with pygal 2.0.11 (etree) ©Kozea 2011-2015 on 2015-12-10--><!--http://pygal.org--><!--http://github.com/Kozea/pygal--><defs><style type="text/css">#chart-f80ba627-161b-42e4-a5bd-6927b39d1f9d{-webkit-user-select:none;-webkit-font-smoothing:antialiased;font-family:Consolas,"Liberation Mono",Menlo,Courier,monospace}#chart-f80ba627-161b-42e4-a5bd-6927b39d1f9d .title{font-family:Consolas,"Liberation Mono",Menlo,Courier,monospace;font-size:16px}#chart-f80ba627-161b-42e4-a5bd-6927b39d1f9d .legends .legend text{font-family:Consolas,"Liberation Mono",Menlo,Courier,monospace;font-size:14px}#chart-f80ba627-161b-42e4-a5bd-6927b39d1f9d .axis text{font-family:Consolas,"Liberation Mono",Menlo,Courier,monospace;font-size:10px}#chart-f80ba627-161b-42e4-a5bd-6927b39d1f9d .axis text.major{font-family:Consolas,"Liberation Mono",Menlo,Courier,monospace;font-size:10px}#chart-f80ba627-161b-42e4-a5bd-6927b39d1f9d .text-overlay text.value{font-family:Consolas,"Liberation Mono",Menlo,Courier,monospace;font-size:16px}#chart-f80ba627-161b-42e4-a5bd-6927b39d1f9d .text-overlay text.label{font-family:Consolas,"Liberation Mono",Menlo,Courier,monospace;font-size:10px}#chart-f80ba627-161b-42e4-a5bd-6927b39d1f9d .tooltip{font-family:Consolas,"Liberation Mono",Menlo,Courier,monospace;font-size:14px}#chart-f80ba627-161b-42e4-a5bd-6927b39d1f9d text.no_data{font-family:Consolas,"Liberation Mono",Menlo,Courier,monospace;font-size:64px}
#chart-f80ba627-161b-42e4-a5bd-6927b39d1f9d{background-color:black}#chart-f80ba627-161b-42e4-a5bd-6927b39d1f9d path,#chart-f80ba627-161b-42e4-a5bd-6927b39d1f9d line,#chart-f80ba627-161b-42e4-a5bd-6927b39d1f9d rect,#chart-f80ba627-161b-42e4-a5bd-6927b39d1f9d circle{-webkit-transition:250ms;-moz-transition:250ms;transition:250ms}#chart-f80ba627-161b-42e4-a5bd-6927b39d1f9d .graph &gt; .background{fill:black}#chart-f80ba627-161b-42e4-a5bd-6927b39d1f9d .plot &gt; .background{fill:#111}#chart-f80ba627-161b-42e4-a5bd-6927b39d1f9d .graph{fill:#999}#chart-f80ba627-161b-42e4-a5bd-6927b39d1f9d text.no_data{fill:#eee}#chart-f80ba627-161b-42e4-a5bd-6927b39d1f9d .title{fill:#eee}#chart-f80ba627-161b-42e4-a5bd-6927b39d1f9d .legends .legend text{fill:#999}#chart-f80ba627-161b-42e4-a5bd-6927b39d1f9d .legends .legend:hover text{fill:#eee}#chart-f80ba627-161b-42e4-a5bd-6927b39d1f9d .axis .line{stroke:#eee}#chart-f80ba627-161b-42e4-a5bd-6927b39d1f9d .axis .guide.line{stroke:#555}#chart-f80ba627-161b-42e4-a5bd-6927b39d1f9d .axis .major.line{stroke:#999}#chart-f80ba627-161b-42e4-a5bd-6927b39d1f9d .axis text.major{fill:#eee}#chart-f80ba627-161b-42e4-a5bd-6927b39d1f9d .axis.y .guides:hover .guide.line,#chart-f80ba627-161b-42e4-a5bd-6927b39d1f9d .line-graph .axis.x .guides:hover .guide.line,#chart-f80ba627-161b-42e4-a5bd-6927b39d1f9d .stackedline-graph .axis.x .guides:hover .guide.line,#chart-f80ba627-161b-42e4-a5bd-6927b39d1f9d .xy-graph .axis.x .guides:hover .guide.line{stroke:#eee}#chart-f80ba627-161b-42e4-a5bd-6927b39d1f9d .axis .guides:hover text{fill:#eee}#chart-f80ba627-161b-42e4-a5bd-6927b39d1f9d .reactive{fill-opacity:.8}#chart-f80ba627-161b-42e4-a5bd-6927b39d1f9d .reactive.active,#chart-f80ba627-161b-42e4-a5bd-6927b39d1f9d .active .reactive{fill-opacity:.4;stroke-width:4}#chart-f80ba627-161b-42e4-a5bd-6927b39d1f9d .series text{fill:#eee}#chart-f80ba627-161b-42e4-a5bd-6927b39d1f9d .tooltip rect{fill:#111;stroke:#eee;-webkit-transition:opacity 250ms;-moz-transition:opacity 250ms;transition:opacity 250ms}#chart-f80ba627-161b-42e4-a5bd-6927b39d1f9d .tooltip .label{fill:#999}#chart-f80ba627-161b-42e4-a5bd-6927b39d1f9d .tooltip .label{fill:#999}#chart-f80ba627-161b-42e4-a5bd-6927b39d1f9d .tooltip .legend{font-size:.8em;fill:#555}#chart-f80ba627-161b-42e4-a5bd-6927b39d1f9d .tooltip .x_label{font-size:.6em;fill:#eee}#chart-f80ba627-161b-42e4-a5bd-6927b39d1f9d .tooltip .xlink{font-size:.5em;text-decoration:underline}#chart-f80ba627-161b-42e4-a5bd-6927b39d1f9d .tooltip .value{font-size:1.5em}#chart-f80ba627-161b-42e4-a5bd-6927b39d1f9d .map-element{fill:#111;stroke:#555 !important}#chart-f80ba627-161b-42e4-a5bd-6927b39d1f9d .map-element .reactive{fill-opacity:inherit}#chart-f80ba627-161b-42e4-a5bd-6927b39d1f9d .color-0,#chart-f80ba627-161b-42e4-a5bd-6927b39d1f9d .color-0 a:visited{stroke:#ff5995;fill:#ff5995}#chart-f80ba627-161b-42e4-a5bd-6927b39d1f9d .text-overlay .color-0 text{fill:black}
#chart-f80ba627-161b-42e4-a5bd-6927b39d1f9d text.no_data{text-anchor:middle}#chart-f80ba627-161b-42e4-a5bd-6927b39d1f9d .guide.line{fill:none}#chart-f80ba627-161b-42e4-a5bd-6927b39d1f9d .centered{text-anchor:middle}#chart-f80ba627-161b-42e4-a5bd-6927b39d1f9d .title{text-anchor:middle}#chart-f80ba627-161b-42e4-a5bd-6927b39d1f9d .legends .legend text{fill-opacity:1}#chart-f80ba627-161b-42e4-a5bd-6927b39d1f9d .axis.x text{text-anchor:middle}#chart-f80ba627-161b-42e4-a5bd-6927b39d1f9d .axis.x:not(.web) text[transform]{text-anchor:start}#chart-f80ba627-161b-42e4-a5bd-6927b39d1f9d .axis.x:not(.web) text[transform].backwards{text-anchor:end}#chart-f80ba627-161b-42e4-a5bd-6927b39d1f9d .axis.y text{text-anchor:end}#chart-f80ba627-161b-42e4-a5bd-6927b39d1f9d .axis.y text[transform].backwards{text-anchor:start}#chart-f80ba627-161b-42e4-a5bd-6927b39d1f9d .axis.y2 text{text-anchor:start}#chart-f80ba627-161b-42e4-a5bd-6927b39d1f9d .axis.y2 text[transform].backwards{text-anchor:end}#chart-f80ba627-161b-42e4-a5bd-6927b39d1f9d .axis .guide.line{stroke-dasharray:4,4}#chart-f80ba627-161b-42e4-a5bd-6927b39d1f9d .axis .major.guide.line{stroke-dasharray:6,6}#chart-f80ba627-161b-42e4-a5bd-6927b39d1f9d .horizontal .axis.y .guide.line,#chart-f80ba627-161b-42e4-a5bd-6927b39d1f9d .horizontal .axis.y2 .guide.line,#chart-f80ba627-161b-42e4-a5bd-6927b39d1f9d .vertical .axis.x .guide.line{opacity:0}#chart-f80ba627-161b-42e4-a5bd-6927b39d1f9d .horizontal .axis.always_show .guide.line,#chart-f80ba627-161b-42e4-a5bd-6927b39d1f9d .vertical .axis.always_show .guide.line{opacity:1 !important}#chart-f80ba627-161b-42e4-a5bd-6927b39d1f9d .axis.y .guides:hover .guide.line,#chart-f80ba627-161b-42e4-a5bd-6927b39d1f9d .axis.y2 .guides:hover .guide.line,#chart-f80ba627-161b-42e4-a5bd-6927b39d1f9d .axis.x .guides:hover .guide.line{opacity:1}#chart-f80ba627-161b-42e4-a5bd-6927b39d1f9d .axis .guides:hover text{opacity:1}#chart-f80ba627-161b-42e4-a5bd-6927b39d1f9d .nofill{fill:none}#chart-f80ba627-161b-42e4-a5bd-6927b39d1f9d .subtle-fill{fill-opacity:.2}#chart-f80ba627-161b-42e4-a5bd-6927b39d1f9d .dot{stroke-width:1px;fill-opacity:1}#chart-f80ba627-161b-42e4-a5bd-6927b39d1f9d .dot.active{stroke-width:5px}#chart-f80ba627-161b-42e4-a5bd-6927b39d1f9d .dot.negative{fill:transparent}#chart-f80ba627-161b-42e4-a5bd-6927b39d1f9d text,#chart-f80ba627-161b-42e4-a5bd-6927b39d1f9d tspan{stroke:none !important}#chart-f80ba627-161b-42e4-a5bd-6927b39d1f9d .series text.active{opacity:1}#chart-f80ba627-161b-42e4-a5bd-6927b39d1f9d .tooltip rect{fill-opacity:.95;stroke-width:.5}#chart-f80ba627-161b-42e4-a5bd-6927b39d1f9d .tooltip text{fill-opacity:1}#chart-f80ba627-161b-42e4-a5bd-6927b39d1f9d .showable{visibility:hidden}#chart-f80ba627-161b-42e4-a5bd-6927b39d1f9d .showable.shown{visibility:visible}</style><script type="text/javascript">window.pygal = window.pygal || {};window.pygal.config = window.pygal.config || {};window.pygal.config['f80ba627-161b-42e4-a5bd-6927b39d1f9d'] = {"spacing": 10, "inner_radius": 0, "order_min": null, "truncate_label": null, "x_title": null, "style": {"foreground_strong": "#eee", "value_colors": [], "title_font_family": "Consolas, \"Liberation Mono\", Menlo, Courier, monospace", "major_guide_stroke_dasharray": "6,6", "background": "black", "value_font_size": 16, "guide_stroke_dasharray": "4,4", "colors": ["#ff5995", "#b6e354", "#feed6c", "#8cedff", "#9e6ffe", "#899ca1", "#f8f8f2", "#bf4646", "#516083", "#f92672", "#82b414", "#fd971f", "#56c2d6", "#808384", "#8c54fe", "#465457"], "legend_font_family": "Consolas, \"Liberation Mono\", Menlo, Courier, monospace", "no_data_font_size": 64, "legend_font_size": 14, "opacity": ".8", "title_font_size": 16, "foreground_subtle": "#555", "label_font_family": "Consolas, \"Liberation Mono\", Menlo, Courier, monospace", "value_label_font_family": "Consolas, \"Liberation Mono\", Menlo, Courier, monospace", "value_font_family": "Consolas, \"Liberation Mono\", Menlo, Courier, monospace", "major_label_font_size": 10, "no_data_font_family": "Consolas, \"Liberation Mono\", Menlo, Courier, monospace", "major_label_font_family": "Consolas, \"Liberation Mono\", Menlo, Courier, monospace", "tooltip_font_size": 14, "label_font_size": 10, "tooltip_font_family": "Consolas, \"Liberation Mono\", Menlo, Courier, monospace", "transition": "250ms", "value_label_font_size": 10, "plot_background": "#111", "opacity_hover": ".4", "font_family": "Consolas, \"Liberation Mono\", Menlo, Courier, monospace", "foreground": "#999"}, "y_labels_major": null, "inverse_y_axis": false, "show_dots": true, "js": ["//kozea.github.io/pygal.js/2.0.x/pygal-tooltips.min.js"], "range": null, "human_readable": false, "margin": 20, "show_x_labels": true, "legend_box_size": 12, "no_data_text": "No data", "strict": false, "show_minor_y_labels": true, "legend_at_bottom": false, "show_only_major_dots": false, "include_x_axis": false, "x_labels": ["Jan", "Feb", "Mar", "Apr", "May", "Jun", "Jul", "Aug", "Sep", "Oct", "Nov", "Dec"], "x_labels_major": null, "x_label_rotation": 0, "disable_xml_declaration": false, "y_title": null, "show_y_guides": true, "max_scale": 16, "margin_right": null, "defs": [], "tooltip_border_radius": 0, "xrange": null, "print_zeroes": true, "show_legend": true, "no_prefix": false, "y_labels_major_every": null, "fill": true, "width": 800, "min_scale": 4, "title": "Phloen-Chit 51", "half_pie": false, "x_labels_major_count": null, "zero": 0, "margin_bottom": null, "legends": ["Phloen-Chit"], "secondary_range": null, "margin_top": null, "margin_left": null, "print_labels": false, "legend_at_bottom_columns": null, "print_values": false, "value_formatter": null, "explicit_size": false, "dynamic_print_values": false, "interpolate": "cubic", "box_mode": "extremes", "interpolation_precision": 250, "x_value_formatter": null, "show_y_labels": true, "height": 600, "force_uri_protocol": null, "interpolation_parameters": {}, "dots_size": 2.5, "logarithmic": false, "stroke_style": null, "pretty_print": false, "stack_from_top": false, "stroke": true, "y_label_rotation": 0, "rounded_bars": null, "y_labels": null, "missing_value_fill_truncation": "x", "show_x_guides": false, "x_labels_major_every": null, "truncate_legend": null, "css": ["file://style.css", "file://graph.css"], "tooltip_fancy_mode": true, "y_labels_major_count": null, "show_minor_x_labels": true}</script><script type="text/javascript" xlink:href="//kozea.github.io/pygal.js/2.0.x/pygal-tooltips.min.js" /></defs><title>Phloen-Chit 51</title><g class="graph line-graph vertical"><rect class="background" height="600" width="800" x="0" y="0" /><g class="plot" transform="translate(192, 46)"><rect class="background" height="514" width="587.6" x="0" y="0" /><g class="axis y"><path class="line" d="M0.000000 514.000000 h587.600000" /><g class="guides"><path class="guide line" d="M0.000000 462.359094 h587.600000" /><text class="" x="-5" y="465.8590944780679">320000.0</text><title>320000.0</title></g><g class="guides"><path class="guide line" d="M0.000000 414.098223 h587.600000" /><text class="" x="-5" y="417.59822287931684">340000.0</text><title>340000.0</title></g><g class="guides"><path class="guide line" d="M0.000000 365.837351 h587.600000" /><text class="" x="-5" y="369.3373512805658">360000.0</text><title>360000.0</title></g><g class="guides"><path class="guide line" d="M0.000000 317.576480 h587.600000" /><text class="" x="-5" y="321.0764796818148">380000.0</text><title>380000.0</title></g><g class="guides"><path class="major guide line" d="M0.000000 269.315608 h587.600000" /><text class="major" x="-5" y="272.8156080830638">400000.0</text><title>400000.0</title></g><g class="guides"><path class="guide line" d="M0.000000 221.054736 h587.600000" /><text class="" x="-5" y="224.5547364843128">420000.0</text><title>420000.0</title></g><g class="guides"><path class="guide line" d="M0.000000 172.793865 h587.600000" /><text class="" x="-5" y="176.2938648855618">440000.0</text><title>440000.0</title></g><g class="guides"><path class="guide line" d="M0.000000 124.532993 h587.600000" /><text class="" x="-5" y="128.03299328681078">460000.0</text><title>460000.0</title></g><g class="guides"><path class="guide line" d="M0.000000 76.272122 h587.600000" /><text class="" x="-5" y="79.77212168805977">480000.0</text><title>480000.0</title></g><g class="guides"><path class="major guide line" d="M0.000000 28.011250 h587.600000" /><text class="major" x="-5" y="31.51125008930876">500000.0</text><title>500000.0</title></g></g><g class="axis x"><g class="guides"><path class="line" d="M11.300000 0.000000 v514.000000" /><text class="" x="11.3" y="529.0">Jan</text></g><g class="guides"><path class="guide line" d="M62.663636 0.000000 v514.000000" /><text class="" x="62.66363636363637" y="529.0">Feb</text></g><g class="guides"><path class="guide line" d="M114.027273 0.000000 v514.000000" /><text class="" x="114.02727272727273" y="529.0">Mar</text></g><g class="guides"><path class="guide line" d="M165.390909 0.000000 v514.000000" /><text class="" x="165.39090909090908" y="529.0">Apr</text></g><g class="guides"><path class="guide line" d="M216.754545 0.000000 v514.000000" /><text class="" x="216.75454545454548" y="529.0">May</text></g><g class="guides"><path class="guide line" d="M268.118182 0.000000 v514.000000" /><text class="" x="268.1181818181818" y="529.0">Jun</text></g><g class="guides"><path class="guide line" d="M319.481818 0.000000 v514.000000" /><text class="" x="319.4818181818182" y="529.0">Jul</text></g><g class="guides"><path class="guide line" d="M370.845455 0.000000 v514.000000" /><text class="" x="370.8454545454546" y="529.0">Aug</text></g><g class="guides"><path class="guide line" d="M422.209091 0.000000 v514.000000" /><text class="" x="422.20909090909095" y="529.0">Sep</text></g><g class="guides"><path class="guide line" d="M473.572727 0.000000 v514.000000" /><text class="" x="473.5727272727273" y="529.0">Oct</text></g><g class="guides"><path class="guide line" d="M524.936364 0.000000 v514.000000" /><text class="" x="524.9363636363636" y="529.0">Nov</text></g><g class="guides"><path class="guide line" d="M576.300000 0.000000 v514.000000" /><text class="" x="576.3000000000001" y="529.0">Dec</text></g></g><g class="series serie-0 color-0"><path class="line reactive" d="M11.300000 514.000000 L11.300000 363.424308 11.505455 361.201428 11.710909 358.978627 11.916364 356.755982 12.121818 354.533571 12.327273 352.311473 12.532727 350.089765 12.738182 347.868526 12.943636 345.647834 13.149091 343.427766 13.354545 341.208402 13.560000 338.989819 13.765455 336.772095 13.970909 334.555308 14.176364 332.339537 14.381818 330.124860 14.587273 327.911354 14.792727 325.699098 14.998182 323.488170 15.203636 321.278647 15.409091 319.070609 15.614545 316.864134 15.820000 314.659298 16.025455 312.456181 16.230909 310.254861 16.436364 308.055416 16.641818 305.857923 16.847273 303.662461 17.052727 301.469108 17.258182 299.277943 17.463636 297.089042 17.669091 294.902485 17.874545 292.718350 18.080000 290.536714 18.285455 288.357656 18.490909 286.181254 18.696364 284.007585 18.901818 281.836729 19.107273 279.668763 19.312727 277.503765 19.518182 275.341813 19.723636 273.182987 19.929091 271.027362 20.134545 268.875019 20.340000 266.726034 20.545455 264.580486 20.750909 262.438454 20.956364 260.300014 21.161818 258.165246 21.367273 256.034227 21.572727 253.907036 21.778182 251.783750 21.983636 249.664448 22.189091 247.549208 22.394545 245.438108 22.600000 243.331227 22.805455 241.228641 23.010909 239.130429 23.216364 237.036671 23.421818 234.947442 23.627273 232.862822 23.832727 230.782889 24.038182 228.707721 24.243636 226.637396 24.449091 224.571992 24.654545 222.511587 24.860000 220.456260 25.065455 218.406088 25.270909 216.361149 25.476364 214.321523 25.681818 212.287286 25.887273 210.258516 26.092727 208.235293 26.298182 206.217694 26.503636 204.205798 26.709091 202.199681 26.914545 200.199423 27.120000 198.205102 27.325455 196.216795 27.530909 194.234581 27.736364 192.258538 27.941818 190.288744 28.147273 188.325278 28.352727 186.368216 28.558182 184.417638 28.763636 182.473621 28.969091 180.536244 29.174545 178.605585 29.380000 176.681721 29.585455 174.764731 29.790909 172.854694 29.996364 170.951686 30.201818 169.055787 30.407273 167.167074 30.612727 165.285626 30.818182 163.411520 31.023636 161.544835 31.229091 159.685649 31.434545 157.834039 31.640000 155.990085 31.845455 154.153864 32.050909 152.325454 32.256364 150.504934 32.461818 148.692381 32.667273 146.887874 32.872727 145.091490 33.078182 143.303308 33.283636 141.523407 33.489091 139.751863 33.694545 137.988755 33.900000 136.234162 34.105455 134.488162 34.310909 132.750831 34.516364 131.022250 34.721818 129.302495 34.927273 127.591645 35.132727 125.889778 35.338182 124.196972 35.543636 122.513305 35.749091 120.838855 35.954545 119.173701 36.160000 117.517921 36.365455 115.871592 36.570909 114.234793 36.776364 112.607602 36.981818 110.990097 37.187273 109.382355 37.392727 107.784457 37.598182 106.196478 37.803636 104.618498 38.009091 103.050594 38.214545 101.492845 38.420000 99.945329 38.625455 98.408124 38.830909 96.881308 39.036364 95.364958 39.241818 93.859154 39.447273 92.363974 39.652727 90.879495 39.858182 89.405795 40.063636 87.942953 40.269091 86.491047 40.474545 85.050155 40.680000 83.620355 40.885455 82.201725 41.090909 80.794343 41.296364 79.398288 41.501818 78.013637 41.707273 76.640468 41.912727 75.278860 42.118182 73.928892 42.323636 72.590640 42.529091 71.264183 42.734545 69.949599 42.940000 68.646966 43.145455 67.356363 43.350909 66.077867 43.556364 64.811557 43.761818 63.557511 43.967273 62.315806 44.172727 61.086522 44.378182 59.869735 44.583636 58.665525 44.789091 57.473969 44.994545 56.295145 45.200000 55.129132 45.405455 53.976007 45.610909 52.835849 45.816364 51.708736 46.021818 50.594746 46.227273 49.493957 46.432727 48.406447 46.638182 47.332294 46.843636 46.271577 47.049091 45.224374 47.254545 44.190761 47.460000 43.170819 47.665455 42.164625 47.870909 41.172256 48.076364 40.193792 48.281818 39.229310 48.487273 38.278888 48.692727 37.342604 48.898182 36.420537 49.103636 35.512765 49.309091 34.619365 49.514545 33.740416 49.720000 32.875997 49.925455 32.026184 50.130909 31.191057 50.336364 30.370693 50.541818 29.565170 50.747273 28.774567 50.952727 27.998961 51.158182 27.238431 51.363636 26.493056 51.569091 25.762912 51.774545 25.048078 51.980000 24.348633 52.185455 23.664653 52.390909 22.996219 52.596364 22.343407 52.801818 21.706295 53.007273 21.084962 53.212727 20.479487 53.418182 19.889946 53.623636 19.316418 53.829091 18.758982 54.034545 18.217715 54.240000 17.692695 54.445455 17.184001 54.650909 16.691710 54.856364 16.215902 55.061818 15.756653 55.267273 15.314043 55.472727 14.888148 55.678182 14.479048 55.883636 14.086820 56.089091 13.711543 56.294545 13.353294 56.500000 13.012152 56.705455 12.688194 56.910909 12.381500 57.116364 12.092147 57.321818 11.820213 57.527273 11.565776 57.732727 11.328914 57.938182 11.109706 58.143636 10.908230 58.349091 10.724563 58.554545 10.558784 58.760000 10.410971 58.965455 10.281202 59.170909 10.169556 59.376364 10.076109 59.581818 10.000941 59.787273 9.944130 59.992727 9.905753 60.198182 9.885889 60.403636 9.884615 60.609091 9.902011 60.814545 9.938154 61.020000 9.993122 61.225455 10.066993 61.430909 10.159845 61.636364 10.271758 61.841818 10.402807 62.047273 10.553073 62.252727 10.722632 62.458182 10.911564 62.663636 11.119945 62.869091 11.347822 63.074545 11.595110 63.280000 11.861692 63.485455 12.147450 63.690909 12.452268 63.896364 12.776028 64.101818 13.118613 64.307273 13.479905 64.512727 13.859788 64.718182 14.258144 64.923636 14.674857 65.129091 15.109808 65.334545 15.562881 65.540000 16.033958 65.745455 16.522922 65.950909 17.029656 66.156364 17.554044 66.361818 18.095966 66.567273 18.655307 66.772727 19.231949 66.978182 19.825775 67.183636 20.436668 67.389091 21.064510 67.594545 21.709185 67.800000 22.370574 68.005455 23.048562 68.210909 23.743030 68.416364 24.453861 68.621818 25.180939 68.827273 25.924146 69.032727 26.683364 69.238182 27.458477 69.443636 28.249367 69.649091 29.055917 69.854545 29.878011 70.060000 30.715530 70.265455 31.568357 70.470909 32.436376 70.676364 33.319469 70.881818 34.217518 71.087273 35.130408 71.292727 36.058019 71.498182 37.000236 71.703636 37.956941 71.909091 38.928017 72.114545 39.913346 72.320000 40.912811 72.525455 41.926296 72.730909 42.953682 72.936364 43.994853 73.141818 45.049692 73.347273 46.118081 73.552727 47.199903 73.758182 48.295041 73.963636 49.403377 74.169091 50.524795 74.374545 51.659177 74.580000 52.806406 74.785455 53.966365 74.990909 55.138936 75.196364 56.324003 75.401818 57.521448 75.607273 58.731154 75.812727 59.953003 76.018182 61.186879 76.223636 62.432664 76.429091 63.690241 76.634545 64.959493 76.840000 66.240303 77.045455 67.532553 77.250909 68.836126 77.456364 70.150905 77.661818 71.476773 77.867273 72.813613 78.072727 74.161307 78.278182 75.519738 78.483636 76.888789 78.689091 78.268342 78.894545 79.658281 79.100000 81.058488 79.305455 82.468847 79.510909 83.889239 79.716364 85.319548 79.921818 86.759656 80.127273 88.209446 80.332727 89.668802 80.538182 91.137605 80.743636 92.615739 80.949091 94.103086 81.154545 95.599529 81.360000 97.104951 81.565455 98.619234 81.770909 100.142263 81.976364 101.673918 82.181818 103.214083 82.387273 104.762642 82.592727 106.319476 82.798182 107.884468 83.003636 109.457502 83.209091 111.038459 83.414545 112.627223 83.620000 114.223677 83.825455 115.827703 84.030909 117.439184 84.236364 119.058004 84.441818 120.684043 84.647273 122.317187 84.852727 123.957316 85.058182 125.604315 85.263636 127.258065 85.469091 128.918450 85.674545 130.585353 85.880000 132.258655 86.085455 133.938241 86.290909 135.623992 86.496364 137.315792 86.701818 139.013523 86.907273 140.717069 87.112727 142.426311 87.318182 144.141133 87.523636 145.861417 87.729091 147.587047 87.934545 149.317904 88.140000 151.053873 88.345455 152.794835 88.550909 154.540674 88.756364 156.291271 88.961818 158.046511 89.167273 159.806275 89.372727 161.570447 89.578182 163.338910 89.783636 165.111545 89.989091 166.888236 90.194545 168.668866 90.400000 170.453318 90.605455 172.241473 90.810909 174.033216 91.016364 175.828429 91.221818 177.626994 91.427273 179.428794 91.632727 181.233713 91.838182 183.041633 92.043636 184.852436 92.249091 186.666006 92.454545 188.482226 92.660000 190.300977 92.865455 192.122143 93.070909 193.945607 93.276364 195.771252 93.481818 197.598960 93.687273 199.428613 93.892727 201.260096 94.098182 203.093290 94.303636 204.928079 94.509091 206.764345 94.714545 208.601970 94.920000 210.440839 95.125455 212.280833 95.330909 214.121835 95.536364 215.963729 95.741818 217.806396 95.947273 219.649720 96.152727 221.493584 96.358182 223.337869 96.563636 225.182460 96.769091 227.027239 96.974545 228.872088 97.180000 230.716890 97.385455 232.561529 97.590909 234.405887 97.796364 236.249846 98.001818 238.093290 98.207273 239.936102 98.412727 241.778163 98.618182 243.619358 98.823636 245.459568 99.029091 247.298676 99.234545 249.136566 99.440000 250.973120 99.645455 252.808220 99.850909 254.641750 100.056364 256.473593 100.261818 258.303631 100.467273 260.131746 100.672727 261.957823 100.878182 263.781743 101.083636 265.603389 101.289091 267.422644 101.494545 269.239392 101.700000 271.053514 101.905455 272.864893 102.110909 274.673413 102.316364 276.478956 102.521818 278.281404 102.727273 280.080641 102.932727 281.876550 103.138182 283.669012 103.343636 285.457912 103.549091 287.243132 103.754545 289.024553 103.960000 290.802061 104.165455 292.575536 104.370909 294.344862 104.576364 296.109922 104.781818 297.870599 104.987273 299.626774 105.192727 301.378332 105.398182 303.125154 105.603636 304.867124 105.809091 306.604125 106.014545 308.336038 106.220000 310.062748 106.425455 311.784136 106.630909 313.500086 106.836364 315.210480 107.041818 316.915202 107.247273 318.614133 107.452727 320.307157 107.658182 321.994156 107.863636 323.675013 108.069091 325.349612 108.274545 327.017834 108.480000 328.679563 108.685455 330.334682 108.890909 331.983072 109.096364 333.624618 109.301818 335.259201 109.507273 336.886705 109.712727 338.507012 109.918182 340.120005 110.123636 341.725567 110.329091 343.323581 110.534545 344.913929 110.740000 346.496494 110.945455 348.071160 111.150909 349.637808 111.356364 351.196322 111.561818 352.746584 111.767273 354.288477 111.972727 355.821885 112.178182 357.346689 112.383636 358.862772 112.589091 360.370018 112.794545 361.868309 113.000000 363.357528 113.205455 364.837558 113.410909 366.308281 113.616364 367.769580 113.821818 369.221338 114.027273 370.663438 114.232727 372.095788 114.438182 373.518392 114.643636 374.931281 114.849091 376.334486 115.054545 377.728037 115.260000 379.111963 115.465455 380.486296 115.670909 381.851066 115.876364 383.206303 116.081818 384.552037 116.287273 385.888298 116.492727 387.215117 116.698182 388.532525 116.903636 389.840550 117.109091 391.139225 117.314545 392.428578 117.520000 393.708641 117.725455 394.979444 117.930909 396.241016 118.136364 397.493388 118.341818 398.736591 118.547273 399.970655 118.752727 401.195610 118.958182 402.411486 119.163636 403.618314 119.369091 404.816123 119.574545 406.004945 119.780000 407.184810 119.985455 408.355747 120.190909 409.517788 120.396364 410.670962 120.601818 411.815299 120.807273 412.950831 121.012727 414.077587 121.218182 415.195597 121.423636 416.304893 121.629091 417.405503 121.834545 418.497459 122.040000 419.580791 122.245455 420.655529 122.450909 421.721703 122.656364 422.779344 122.861818 423.828482 123.067273 424.869147 123.272727 425.901370 123.478182 426.925180 123.683636 427.940609 123.889091 428.947686 124.094545 429.946441 124.300000 430.936906 124.505455 431.919110 124.710909 432.893084 124.916364 433.858857 125.121818 434.816461 125.327273 435.765925 125.532727 436.707280 125.738182 437.640556 125.943636 438.565783 126.149091 439.482992 126.354545 440.392213 126.560000 441.293476 126.765455 442.186812 126.970909 443.072250 127.176364 443.949822 127.381818 444.819557 127.587273 445.681486 127.792727 446.535639 127.998182 447.382046 128.203636 448.220737 128.409091 449.051744 128.614545 449.875096 128.820000 450.690823 129.025455 451.498956 129.230909 452.299525 129.436364 453.092560 129.641818 453.878092 129.847273 454.656151 130.052727 455.426767 130.258182 456.189971 130.463636 456.945793 130.669091 457.694263 130.874545 458.435411 131.080000 459.169267 131.285455 459.895863 131.490909 460.615228 131.696364 461.327393 131.901818 462.032388 132.107273 462.730243 132.312727 463.420988 132.518182 464.104654 132.723636 464.781271 132.929091 465.450869 133.134545 466.113480 133.340000 466.769132 133.545455 467.417856 133.750909 468.059683 133.956364 468.694642 134.161818 469.322765 134.367273 469.944081 134.572727 470.558621 134.778182 471.166415 134.983636 471.767493 135.189091 472.361886 135.394545 472.949624 135.600000 473.530736 135.805455 474.105255 136.010909 474.673209 136.216364 475.234629 136.421818 475.789545 136.627273 476.337989 136.832727 476.879989 137.038182 477.415576 137.243636 477.944781 137.449091 478.467633 137.654545 478.984164 137.860000 479.494403 138.065455 479.998381 138.270909 480.496128 138.476364 480.987675 138.681818 481.473050 138.887273 481.952286 139.092727 482.425412 139.298182 482.892458 139.503636 483.353455 139.709091 483.808433 139.914545 484.257423 140.120000 484.700454 140.325455 485.137557 140.530909 485.568763 140.736364 485.994100 140.941818 486.413601 141.147273 486.827295 141.352727 487.235212 141.558182 487.637383 141.763636 488.033838 141.969091 488.424607 142.174545 488.809721 142.380000 489.189210 142.585455 489.563104 142.790909 489.931433 142.996364 490.294228 143.201818 490.651519 143.407273 491.003337 143.612727 491.349711 143.818182 491.690672 144.023636 492.026250 144.229091 492.356476 144.434545 492.681380 144.640000 493.000992 144.845455 493.315342 145.050909 493.624461 145.256364 493.928379 145.461818 494.227126 145.667273 494.520733 145.872727 494.809230 146.078182 495.092647 146.283636 495.371014 146.489091 495.644362 146.694545 495.912721 146.900000 496.176122 147.105455 496.434594 147.310909 496.688168 147.516364 496.936874 147.721818 497.180743 147.927273 497.419805 148.132727 497.654090 148.338182 497.883628 148.543636 498.108450 148.749091 498.328586 148.954545 498.544066 149.160000 498.754921 149.365455 498.961181 149.570909 499.162875 149.776364 499.360036 149.981818 499.552692 150.187273 499.740874 150.392727 499.924612 150.598182 500.103938 150.803636 500.278880 151.009091 500.449469 151.214545 500.615736 151.420000 500.777711 151.625455 500.935423 151.830909 501.088905 152.036364 501.238184 152.241818 501.383293 152.447273 501.524262 152.652727 501.661119 152.858182 501.793897 153.063636 501.922625 153.269091 502.047333 153.474545 502.168052 153.680000 502.284812 153.885455 502.397644 154.090909 502.506577 154.296364 502.611642 154.501818 502.712869 154.707273 502.810289 154.912727 502.903932 155.118182 502.993827 155.323636 503.080007 155.529091 503.162499 155.734545 503.241336 155.940000 503.316547 156.145455 503.388163 156.350909 503.456214 156.556364 503.520730 156.761818 503.581741 156.967273 503.639278 157.172727 503.693371 157.378182 503.744050 157.583636 503.791346 157.789091 503.835289 157.994545 503.875910 158.200000 503.913237 158.405455 503.947303 158.610909 503.978137 158.816364 504.005769 159.021818 504.030230 159.227273 504.051549 159.432727 504.069758 159.638182 504.084887 159.843636 504.096966 160.049091 504.106024 160.254545 504.112094 160.460000 504.115204 160.665455 504.115385 160.870909 504.112667 161.076364 504.107081 161.281818 504.098657 161.487273 504.087425 161.692727 504.073416 161.898182 504.056659 162.103636 504.037186 162.309091 504.015026 162.514545 503.990210 162.720000 503.962767 162.925455 503.932729 163.130909 503.900126 163.336364 503.864988 163.541818 503.827344 163.747273 503.787226 163.952727 503.744664 164.158182 503.699688 164.363636 503.652328 164.569091 503.602615 164.774545 503.550579 164.980000 503.496250 165.185455 503.439659 165.390909 503.380835 165.596364 503.319807 165.801818 503.256587 166.007273 503.191187 166.212727 503.123618 166.418182 503.053890 166.623636 502.982015 166.829091 502.908003 167.034545 502.831866 167.240000 502.753613 167.445455 502.673256 167.650909 502.590806 167.856364 502.506274 168.061818 502.419670 168.267273 502.331005 168.472727 502.240291 168.678182 502.147537 168.883636 502.052756 169.089091 501.955957 169.294545 501.857152 169.500000 501.756352 169.705455 501.653567 169.910909 501.548808 170.116364 501.442086 170.321818 501.333413 170.527273 501.222798 170.732727 501.110253 170.938182 500.995788 171.143636 500.879415 171.349091 500.761144 171.554545 500.640987 171.760000 500.518953 171.965455 500.395054 172.170909 500.269301 172.376364 500.141705 172.581818 500.012276 172.787273 499.881026 172.992727 499.747964 173.198182 499.613103 173.403636 499.476453 173.609091 499.338024 173.814545 499.197829 174.020000 499.055876 174.225455 498.912178 174.430909 498.766746 174.636364 498.619589 174.841818 498.470720 175.047273 498.320148 175.252727 498.167885 175.458182 498.013942 175.663636 497.858329 175.869091 497.701057 176.074545 497.542138 176.280000 497.381581 176.485455 497.219399 176.690909 497.055601 176.896364 496.890199 177.101818 496.723203 177.307273 496.554625 177.512727 496.384475 177.718182 496.212764 177.923636 496.039503 178.129091 495.864703 178.334545 495.688374 178.540000 495.510528 178.745455 495.331176 178.950909 495.150327 179.156364 494.967994 179.361818 494.784187 179.567273 494.598916 179.772727 494.412194 179.978182 494.224030 180.183636 494.034435 180.389091 493.843421 180.594545 493.650998 180.800000 493.457177 181.005455 493.261968 181.210909 493.065384 181.416364 492.867434 181.621818 492.668130 181.827273 492.467482 182.032727 492.265501 182.238182 492.062199 182.443636 491.857585 182.649091 491.651671 182.854545 491.444468 183.060000 491.235986 183.265455 491.026237 183.470909 490.815231 183.676364 490.602979 183.881818 490.389493 184.087273 490.174782 184.292727 489.958857 184.498182 489.741731 184.703636 489.523413 184.909091 489.303914 185.114545 489.083245 185.320000 488.861417 185.525455 488.638442 185.730909 488.414329 185.936364 488.189089 186.141818 487.962735 186.347273 487.735275 186.552727 487.506722 186.758182 487.277086 186.963636 487.046378 187.169091 486.814608 187.374545 486.581789 187.580000 486.347929 187.785455 486.113042 187.990909 485.877136 188.196364 485.640224 188.401818 485.402316 188.607273 485.163422 188.812727 484.923555 189.018182 484.682724 189.223636 484.440940 189.429091 484.198215 189.634545 483.954558 189.840000 483.709982 190.045455 483.464497 190.250909 483.218114 190.456364 482.970843 190.661818 482.722696 190.867273 482.473683 191.072727 482.223815 191.278182 481.973104 191.483636 481.721559 191.689091 481.469193 191.894545 481.216015 192.100000 480.962036 192.305455 480.707268 192.510909 480.451721 192.716364 480.195407 192.921818 479.938335 193.127273 479.680517 193.332727 479.421964 193.538182 479.162687 193.743636 478.902696 193.949091 478.642002 194.154545 478.380617 194.360000 478.118550 194.565455 477.855814 194.770909 477.592418 194.976364 477.328374 195.181818 477.063693 195.387273 476.798384 195.592727 476.532461 195.798182 476.265932 196.003636 475.998809 196.209091 475.731103 196.414545 475.462825 196.620000 475.193985 196.825455 474.924595 197.030909 474.654665 197.236364 474.384206 197.441818 474.113229 197.647273 473.841745 197.852727 473.569765 198.058182 473.297299 198.263636 473.024359 198.469091 472.750955 198.674545 472.477098 198.880000 472.202800 199.085455 471.928070 199.290909 471.652920 199.496364 471.377361 199.701818 471.101403 199.907273 470.825058 200.112727 470.548336 200.318182 470.271248 200.523636 469.993805 200.729091 469.716018 200.934545 469.437897 201.140000 469.159455 201.345455 468.880700 201.550909 468.601645 201.756364 468.322300 201.961818 468.042676 202.167273 467.762784 202.372727 467.482635 202.578182 467.202239 202.783636 466.921608 202.989091 466.640752 203.194545 466.359682 203.400000 466.078409 203.605455 465.796945 203.810909 465.515299 204.016364 465.233483 204.221818 464.951507 204.427273 464.669382 204.632727 464.387120 204.838182 464.104731 205.043636 463.822226 205.249091 463.539616 205.454545 463.256912 205.660000 462.974124 205.865455 462.691264 206.070909 462.408341 206.276364 462.125368 206.481818 461.842355 206.687273 461.559313 206.892727 461.276253 207.098182 460.993185 207.303636 460.710121 207.509091 460.427071 207.714545 460.144047 207.920000 459.861058 208.125455 459.578116 208.330909 459.295233 208.536364 459.012417 208.741818 458.729682 208.947273 458.447036 209.152727 458.164492 209.358182 457.882061 209.563636 457.599752 209.769091 457.317577 209.974545 457.035546 210.180000 456.753672 210.385455 456.471963 210.590909 456.190432 210.796364 455.909089 211.001818 455.627946 211.207273 455.347012 211.412727 455.066299 211.618182 454.785817 211.823636 454.505578 212.029091 454.225592 212.234545 453.945871 212.440000 453.666424 212.645455 453.387264 212.850909 453.108400 213.056364 452.829844 213.261818 452.551607 213.467273 452.273699 213.672727 451.996131 213.878182 451.718914 214.083636 451.442060 214.289091 451.165578 214.494545 450.889480 214.700000 450.613776 214.905455 450.338478 215.110909 450.063596 215.316364 449.789142 215.521818 449.515125 215.727273 449.241558 215.932727 448.968450 216.138182 448.695812 216.343636 448.423657 216.549091 448.151993 216.754545 447.880833 216.960000 447.610185 217.165455 447.340052 217.370909 447.070433 217.576364 446.801330 217.781818 446.532742 217.987273 446.264670 218.192727 445.997115 218.398182 445.730076 218.603636 445.463555 218.809091 445.197551 219.014545 444.932065 219.220000 444.667097 219.425455 444.402647 219.630909 444.138717 219.836364 443.875306 220.041818 443.612415 220.247273 443.350044 220.452727 443.088194 220.658182 442.826864 220.863636 442.566056 221.069091 442.305770 221.274545 442.046005 221.480000 441.786763 221.685455 441.528044 221.890909 441.269848 222.096364 441.012175 222.301818 440.755026 222.507273 440.498402 222.712727 440.242303 222.918182 439.986728 223.123636 439.731679 223.329091 439.477156 223.534545 439.223159 223.740000 438.969688 223.945455 438.716745 224.150909 438.464329 224.356364 438.212441 224.561818 437.961080 224.767273 437.710249 224.972727 437.459946 225.178182 437.210172 225.383636 436.960928 225.589091 436.712214 225.794545 436.464030 226.000000 436.216378 226.205455 435.969256 226.410909 435.722666 226.616364 435.476607 226.821818 435.231081 227.027273 434.986088 227.232727 434.741628 227.438182 434.497701 227.643636 434.254308 227.849091 434.011449 228.054545 433.769125 228.260000 433.527335 228.465455 433.286081 228.670909 433.045363 228.876364 432.805180 229.081818 432.565534 229.287273 432.326425 229.492727 432.087853 229.698182 431.849819 229.903636 431.612323 230.109091 431.375365 230.314545 431.138946 230.520000 430.903065 230.725455 430.667725 230.930909 430.432924 231.136364 430.198663 231.341818 429.964943 231.547273 429.731765 231.752727 429.499127 231.958182 429.267031 232.163636 429.035478 232.369091 428.804466 232.574545 428.573998 232.780000 428.344073 232.985455 428.114692 233.190909 427.885855 233.396364 427.657562 233.601818 427.429814 233.807273 427.202611 234.012727 426.975953 234.218182 426.749842 234.423636 426.524277 234.629091 426.299258 234.834545 426.074787 235.040000 425.850863 235.245455 425.627487 235.450909 425.404659 235.656364 425.182379 235.861818 424.960649 236.067273 424.739468 236.272727 424.518837 236.478182 424.298756 236.683636 424.079225 236.889091 423.860245 237.094545 423.641816 237.300000 423.423939 237.505455 423.206614 237.710909 422.989841 237.916364 422.773621 238.121818 422.557955 238.327273 422.342841 238.532727 422.128282 238.738182 421.914277 238.943636 421.700826 239.149091 421.487931 239.354545 421.275591 239.560000 421.063806 239.765455 420.852578 239.970909 420.641907 240.176364 420.431792 240.381818 420.222235 240.587273 420.013235 240.792727 419.804793 240.998182 419.596910 241.203636 419.389586 241.409091 419.182821 241.614545 418.976615 241.820000 418.770969 242.025455 418.565884 242.230909 418.361359 242.436364 418.157396 242.641818 417.953994 242.847273 417.751154 243.052727 417.548876 243.258182 417.347160 243.463636 417.146008 243.669091 416.945419 243.874545 416.745394 244.080000 416.545933 244.285455 416.347036 244.490909 416.148704 244.696364 415.950938 244.901818 415.753737 245.107273 415.557102 245.312727 415.361033 245.518182 415.165532 245.723636 414.970597 245.929091 414.776230 246.134545 414.582431 246.340000 414.389200 246.545455 414.196538 246.750909 414.004445 246.956364 413.812922 247.161818 413.621968 247.367273 413.431584 247.572727 413.241771 247.778182 413.052529 247.983636 412.863858 248.189091 412.675759 248.394545 412.488232 248.600000 412.301278 248.805455 412.114896 249.010909 411.929087 249.216364 411.743853 249.421818 411.559192 249.627273 411.375105 249.832727 411.191593 250.038182 411.008657 250.243636 410.826295 250.449091 410.644510 250.654545 410.463301 250.860000 410.282669 251.065455 410.102613 251.270909 409.923135 251.476364 409.744235 251.681818 409.565913 251.887273 409.388169 252.092727 409.211005 252.298182 409.034419 252.503636 408.858413 252.709091 408.682988 252.914545 408.508143 253.120000 408.333878 253.325455 408.160195 253.530909 407.987093 253.736364 407.814573 253.941818 407.642636 254.147273 407.471281 254.352727 407.300509 254.558182 407.130321 254.763636 406.960717 254.969091 406.791697 255.174545 406.623261 255.380000 406.455410 255.585455 406.288145 255.790909 406.121466 255.996364 405.955372 256.201818 405.789865 256.407273 405.624945 256.612727 405.460613 256.818182 405.296867 257.023636 405.133710 257.229091 404.971141 257.434545 404.809161 257.640000 404.647770 257.845455 404.486969 258.050909 404.326758 258.256364 404.167136 258.461818 404.008106 258.667273 403.849666 258.872727 403.691818 259.078182 403.534562 259.283636 403.377898 259.489091 403.221826 259.694545 403.066348 259.900000 402.911462 260.105455 402.757171 260.310909 402.603473 260.516364 402.450370 260.721818 402.297862 260.927273 402.145949 261.132727 401.994631 261.338182 401.843910 261.543636 401.693785 261.749091 401.544256 261.954545 401.395325 262.160000 401.246991 262.365455 401.099255 262.570909 400.952117 262.776364 400.805578 262.981818 400.659638 263.187273 400.514297 263.392727 400.369556 263.598182 400.225415 263.803636 400.081875 264.009091 399.938936 264.214545 399.796597 264.420000 399.654861 264.625455 399.513726 264.830909 399.373194 265.036364 399.233265 265.241818 399.093939 265.447273 398.955216 265.652727 398.817098 265.858182 398.679583 266.063636 398.542674 266.269091 398.406369 266.474545 398.270670 266.680000 398.135576 266.885455 398.001089 267.090909 397.867209 267.296364 397.733935 267.501818 397.601269 267.707273 397.469210 267.912727 397.337760 268.118182 397.206918 268.323636 397.076685 268.529091 396.947060 268.734545 396.818043 268.940000 396.689635 269.145455 396.561833 269.350909 396.434639 269.556364 396.308052 269.761818 396.182072 269.967273 396.056697 270.172727 395.931929 270.378182 395.807766 270.583636 395.684208 270.789091 395.561255 270.994545 395.438906 271.200000 395.317162 271.405455 395.196021 271.610909 395.075484 271.816364 394.955550 272.021818 394.836219 272.227273 394.717491 272.432727 394.599364 272.638182 394.481840 272.843636 394.364917 273.049091 394.248595 273.254545 394.132874 273.460000 394.017753 273.665455 393.903233 273.870909 393.789312 274.076364 393.675991 274.281818 393.563269 274.487273 393.451146 274.692727 393.339622 274.898182 393.228695 275.103636 393.118367 275.309091 393.008636 275.514545 392.899502 275.720000 392.790965 275.925455 392.683024 276.130909 392.575680 276.336364 392.468931 276.541818 392.362778 276.747273 392.257220 276.952727 392.152256 277.158182 392.047888 277.363636 391.944113 277.569091 391.840932 277.774545 391.738345 277.980000 391.636351 278.185455 391.534949 278.390909 391.434140 278.596364 391.333924 278.801818 391.234299 279.007273 391.135265 279.212727 391.036823 279.418182 390.938971 279.623636 390.841710 279.829091 390.745039 280.034545 390.648958 280.240000 390.553467 280.445455 390.458564 280.650909 390.364250 280.856364 390.270525 281.061818 390.177388 281.267273 390.084839 281.472727 389.992877 281.678182 389.901502 281.883636 389.810714 282.089091 389.720512 282.294545 389.630897 282.500000 389.541867 282.705455 389.453423 282.910909 389.365564 283.116364 389.278290 283.321818 389.191600 283.527273 389.105494 283.732727 389.019972 283.938182 388.935034 284.143636 388.850679 284.349091 388.766906 284.554545 388.683716 284.760000 388.601108 284.965455 388.519082 285.170909 388.437637 285.376364 388.356773 285.581818 388.276490 285.787273 388.196788 285.992727 388.117666 286.198182 388.039123 286.403636 387.961160 286.609091 387.883776 286.814545 387.806970 287.020000 387.730744 287.225455 387.655095 287.430909 387.580024 287.636364 387.505530 287.841818 387.431614 288.047273 387.358274 288.252727 387.285511 288.458182 387.213324 288.663636 387.141712 288.869091 387.070676 289.074545 387.000215 289.280000 386.930329 289.485455 386.861018 289.690909 386.792280 289.896364 386.724116 290.101818 386.656526 290.307273 386.589508 290.512727 386.523064 290.718182 386.457191 290.923636 386.391891 291.129091 386.327163 291.334545 386.263006 291.540000 386.199420 291.745455 386.136405 291.950909 386.073960 292.156364 386.012085 292.361818 385.950781 292.567273 385.890045 292.772727 385.829879 292.978182 385.770281 293.183636 385.711252 293.389091 385.652790 293.594545 385.594897 293.800000 385.537571 294.005455 385.480812 294.210909 385.424620 294.416364 385.368994 294.621818 385.313934 294.827273 385.259440 295.032727 385.205511 295.238182 385.152147 295.443636 385.099349 295.649091 385.047114 295.854545 384.995444 296.060000 384.944337 296.265455 384.893794 296.470909 384.843813 296.676364 384.794396 296.881818 384.745541 297.087273 384.697247 297.292727 384.649516 297.498182 384.602346 297.703636 384.555737 297.909091 384.509689 298.114545 384.464201 298.320000 384.419273 298.525455 384.374905 298.730909 384.331096 298.936364 384.287847 299.141818 384.245156 299.347273 384.203023 299.552727 384.161449 299.758182 384.120432 299.963636 384.079972 300.169091 384.040070 300.374545 384.000724 300.580000 383.961935 300.785455 383.923701 300.990909 383.886024 301.196364 383.848902 301.401818 383.812334 301.607273 383.776322 301.812727 383.740864 302.018182 383.705960 302.223636 383.671609 302.429091 383.637812 302.634545 383.604568 302.840000 383.571877 303.045455 383.539738 303.250909 383.508151 303.456364 383.477115 303.661818 383.446632 303.867273 383.416699 304.072727 383.387316 304.278182 383.358485 304.483636 383.330203 304.689091 383.302471 304.894545 383.275288 305.100000 383.248654 305.305455 383.222569 305.510909 383.197032 305.716364 383.172043 305.921818 383.147602 306.127273 383.123709 306.332727 383.100362 306.538182 383.077562 306.743636 383.055308 306.949091 383.033601 307.154545 383.012439 307.360000 382.991822 307.565455 382.971750 307.770909 382.952223 307.976364 382.933241 308.181818 382.914802 308.387273 382.896907 308.592727 382.879555 308.798182 382.862747 309.003636 382.846481 309.209091 382.830757 309.414545 382.815575 309.620000 382.800935 309.825455 382.786837 310.030909 382.773279 310.236364 382.760262 310.441818 382.747785 310.647273 382.735848 310.852727 382.724451 311.058182 382.713594 311.263636 382.703275 311.469091 382.693495 311.674545 382.684253 311.880000 382.675549 312.085455 382.667383 312.290909 382.659754 312.496364 382.652662 312.701818 382.646107 312.907273 382.640088 313.112727 382.634605 313.318182 382.629658 313.523636 382.625246 313.729091 382.621369 313.934545 382.618027 314.140000 382.615219 314.345455 382.612945 314.550909 382.611204 314.756364 382.609997 314.961818 382.609323 315.167273 382.609181 315.372727 382.609572 315.578182 382.610495 315.783636 382.611949 315.989091 382.613935 316.194545 382.616452 316.400000 382.619499 316.605455 382.623077 316.810909 382.627184 317.016364 382.631821 317.221818 382.636988 317.427273 382.642683 317.632727 382.648907 317.838182 382.655659 318.043636 382.662940 318.249091 382.670748 318.454545 382.679083 318.660000 382.687945 318.865455 382.697334 319.070909 382.707249 319.276364 382.717690 319.481818 382.728656 319.687273 382.740148 319.892727 382.752161 320.098182 382.764691 320.303636 382.777737 320.509091 382.791292 320.714545 382.805355 320.920000 382.819921 321.125455 382.834986 321.330909 382.850547 321.536364 382.866601 321.741818 382.883143 321.947273 382.900170 322.152727 382.917678 322.358182 382.935663 322.563636 382.954123 322.769091 382.973052 322.974545 382.992448 323.180000 383.012307 323.385455 383.032625 323.590909 383.053399 323.796364 383.074624 324.001818 383.096297 324.207273 383.118415 324.412727 383.140973 324.618182 383.163969 324.823636 383.187398 325.029091 383.211257 325.234545 383.235542 325.440000 383.260249 325.645455 383.285375 325.850909 383.310916 326.056364 383.336868 326.261818 383.363228 326.467273 383.389992 326.672727 383.417156 326.878182 383.444717 327.083636 383.472671 327.289091 383.501014 327.494545 383.529743 327.700000 383.558854 327.905455 383.588343 328.110909 383.618207 328.316364 383.648441 328.521818 383.679043 328.727273 383.710009 328.932727 383.741334 329.138182 383.773016 329.343636 383.805050 329.549091 383.837433 329.754545 383.870161 329.960000 383.903231 330.165455 383.936639 330.370909 383.970381 330.576364 384.004453 330.781818 384.038852 330.987273 384.073575 331.192727 384.108617 331.398182 384.143974 331.603636 384.179644 331.809091 384.215622 332.014545 384.251905 332.220000 384.288489 332.425455 384.325371 332.630909 384.362546 332.836364 384.400012 333.041818 384.437764 333.247273 384.475798 333.452727 384.514112 333.658182 384.552701 333.863636 384.591561 334.069091 384.630690 334.274545 384.670083 334.480000 384.709737 334.685455 384.749648 334.890909 384.789812 335.096364 384.830226 335.301818 384.870886 335.507273 384.911788 335.712727 384.952928 335.918182 384.994304 336.123636 385.035911 336.329091 385.077746 336.534545 385.119804 336.740000 385.162083 336.945455 385.204578 337.150909 385.247287 337.356364 385.290204 337.561818 385.333327 337.767273 385.376652 337.972727 385.420175 338.178182 385.463893 338.383636 385.507802 338.589091 385.551897 338.794545 385.596177 339.000000 385.640636 339.205455 385.685271 339.410909 385.730079 339.616364 385.775055 339.821818 385.820197 340.027273 385.865500 340.232727 385.910961 340.438182 385.956576 340.643636 386.002342 340.849091 386.048254 341.054545 386.094309 341.260000 386.140504 341.465455 386.186834 341.670909 386.233297 341.876364 386.279888 342.081818 386.326603 342.287273 386.373440 342.492727 386.420394 342.698182 386.467462 342.903636 386.514640 343.109091 386.561924 343.314545 386.609310 343.520000 386.656796 343.725455 386.704377 343.930909 386.752050 344.136364 386.799810 344.341818 386.847655 344.547273 386.895581 344.752727 386.943583 344.958182 386.991659 345.163636 387.039804 345.369091 387.088016 345.574545 387.136289 345.780000 387.184621 345.985455 387.233008 346.190909 387.281446 346.396364 387.329932 346.601818 387.378461 346.807273 387.427031 347.012727 387.475637 347.218182 387.524276 347.423636 387.572945 347.629091 387.621638 347.834545 387.670354 348.040000 387.719087 348.245455 387.767836 348.450909 387.816595 348.656364 387.865361 348.861818 387.914130 349.067273 387.962899 349.272727 388.011665 349.478182 388.060422 349.683636 388.109169 349.889091 388.157900 350.094545 388.206613 350.300000 388.255304 350.505455 388.303969 350.710909 388.352604 350.916364 388.401205 351.121818 388.449770 351.327273 388.498294 351.532727 388.546774 351.738182 388.595206 351.943636 388.643586 352.149091 388.691910 352.354545 388.740176 352.560000 388.788379 352.765455 388.836515 352.970909 388.884582 353.176364 388.932575 353.381818 388.980490 353.587273 389.028324 353.792727 389.076074 353.998182 389.123735 354.203636 389.171304 354.409091 389.218777 354.614545 389.266151 354.820000 389.313421 355.025455 389.360585 355.230909 389.407638 355.436364 389.454577 355.641818 389.501399 355.847273 389.548098 356.052727 389.594673 356.258182 389.641119 356.463636 389.687432 356.669091 389.733609 356.874545 389.779646 357.080000 389.825539 357.285455 389.871286 357.490909 389.916881 357.696364 389.962322 357.901818 390.007604 358.107273 390.052725 358.312727 390.097680 358.518182 390.142466 358.723636 390.187078 358.929091 390.231515 359.134545 390.275770 359.340000 390.319842 359.545455 390.363726 359.750909 390.407419 359.956364 390.450917 360.161818 390.494216 360.367273 390.537313 360.572727 390.580204 360.778182 390.622885 360.983636 390.665352 361.189091 390.707603 361.394545 390.749633 361.600000 390.791438 361.805455 390.833016 362.010909 390.874361 362.216364 390.915471 362.421818 390.956342 362.627273 390.996971 362.832727 391.037352 363.038182 391.077484 363.243636 391.117362 363.449091 391.156982 363.654545 391.196342 363.860000 391.235436 364.065455 391.274262 364.270909 391.312816 364.476364 391.351094 364.681818 391.389092 364.887273 391.426807 365.092727 391.464235 365.298182 391.501373 365.503636 391.538216 365.709091 391.574762 365.914545 391.611006 366.120000 391.646944 366.325455 391.682574 366.530909 391.717891 366.736364 391.752892 366.941818 391.787573 367.147273 391.821930 367.352727 391.855960 367.558182 391.889659 367.763636 391.923024 367.969091 391.956050 368.174545 391.988734 368.380000 392.021072 368.585455 392.053061 368.790909 392.084697 368.996364 392.115976 369.201818 392.146895 369.407273 392.177450 369.612727 392.207637 369.818182 392.237452 370.023636 392.266893 370.229091 392.295955 370.434545 392.324634 370.640000 392.352927 370.845455 392.380831 371.050909 392.408341 371.256364 392.435457 371.461818 392.462179 371.667273 392.488505 371.872727 392.514434 372.078182 392.539967 372.283636 392.565101 372.489091 392.589838 372.694545 392.614175 372.900000 392.638112 373.105455 392.661648 373.310909 392.684783 373.516364 392.707516 373.721818 392.729846 373.927273 392.751773 374.132727 392.773296 374.338182 392.794413 374.543636 392.815125 374.749091 392.835430 374.954545 392.855329 375.160000 392.874819 375.365455 392.893901 375.570909 392.912574 375.776364 392.930837 375.981818 392.948689 376.187273 392.966130 376.392727 392.983158 376.598182 392.999774 376.803636 393.015976 377.009091 393.031764 377.214545 393.047136 377.420000 393.062094 377.625455 393.076634 377.830909 393.090758 378.036364 393.104463 378.241818 393.117750 378.447273 393.130618 378.652727 393.143066 378.858182 393.155093 379.063636 393.166698 379.269091 393.177881 379.474545 393.188642 379.680000 393.198979 379.885455 393.208891 380.090909 393.218378 380.296364 393.227440 380.501818 393.236075 380.707273 393.244283 380.912727 393.252063 381.118182 393.259414 381.323636 393.266336 381.529091 393.272828 381.734545 393.278889 381.940000 393.284518 382.145455 393.289715 382.350909 393.294480 382.556364 393.298810 382.761818 393.302707 382.967273 393.306168 383.172727 393.309193 383.378182 393.311782 383.583636 393.313933 383.789091 393.315646 383.994545 393.316921 384.200000 393.317757 384.405455 393.318152 384.610909 393.318106 384.816364 393.317619 385.021818 393.316689 385.227273 393.315317 385.432727 393.313500 385.638182 393.311240 385.843636 393.308534 386.049091 393.305382 386.254545 393.301783 386.460000 393.297738 386.665455 393.293244 386.870909 393.288301 387.076364 393.282909 387.281818 393.277067 387.487273 393.270774 387.692727 393.264029 387.898182 393.256832 388.103636 393.249182 388.309091 393.241078 388.514545 393.232519 388.720000 393.223505 388.925455 393.214036 389.130909 393.204109 389.336364 393.193726 389.541818 393.182884 389.747273 393.171583 389.952727 393.159823 390.158182 393.147602 390.363636 393.134921 390.569091 393.121778 390.774545 393.108172 390.980000 393.094104 391.185455 393.079571 391.390909 393.064574 391.596364 393.049112 391.801818 393.033184 392.007273 393.016788 392.212727 392.999926 392.418182 392.982595 392.623636 392.964796 392.829091 392.946527 393.034545 392.927787 393.240000 392.908577 393.445455 392.888895 393.650909 392.868740 393.856364 392.848112 394.061818 392.827010 394.267273 392.805434 394.472727 392.783382 394.678182 392.760855 394.883636 392.737850 395.089091 392.714368 395.294545 392.690408 395.500000 392.665969 395.705455 392.641050 395.910909 392.615651 396.116364 392.589770 396.321818 392.563408 396.527273 392.536564 396.732727 392.509236 396.938182 392.481424 397.143636 392.453128 397.349091 392.424346 397.554545 392.395078 397.760000 392.365323 397.965455 392.335081 398.170909 392.304350 398.376364 392.273131 398.581818 392.241421 398.787273 392.209222 398.992727 392.176531 399.198182 392.143348 399.403636 392.109673 399.609091 392.075504 399.814545 392.040842 400.020000 392.005685 400.225455 391.970032 400.430909 391.933883 400.636364 391.897237 400.841818 391.860094 401.047273 391.822452 401.252727 391.784311 401.458182 391.745671 401.663636 391.706530 401.869091 391.666887 402.074545 391.626743 402.280000 391.586097 402.485455 391.544946 402.690909 391.503292 402.896364 391.461133 403.101818 391.418469 403.307273 391.375298 403.512727 391.331621 403.718182 391.287435 403.923636 391.242742 404.129091 391.197539 404.334545 391.151826 404.540000 391.105603 404.745455 391.058869 404.950909 391.011623 405.156364 390.963864 405.361818 390.915591 405.567273 390.866805 405.772727 390.817503 405.978182 390.767686 406.183636 390.717353 406.389091 390.666503 406.594545 390.615135 406.800000 390.563249 407.005455 390.510843 407.210909 390.457918 407.416364 390.404472 407.621818 390.350505 407.827273 390.296015 408.032727 390.241003 408.238182 390.185468 408.443636 390.129408 408.649091 390.072824 408.854545 390.015714 409.060000 389.958077 409.265455 389.899913 409.470909 389.841222 409.676364 389.782002 409.881818 389.722253 410.087273 389.661974 410.292727 389.601165 410.498182 389.539824 410.703636 389.477951 410.909091 389.415545 411.114545 389.352606 411.320000 389.289132 411.525455 389.225124 411.730909 389.160579 411.936364 389.095499 412.141818 389.029881 412.347273 388.963726 412.552727 388.897031 412.758182 388.829798 412.963636 388.762025 413.169091 388.693711 413.374545 388.624855 413.580000 388.555458 413.785455 388.485517 413.990909 388.415033 414.196364 388.344005 414.401818 388.272432 414.607273 388.200313 414.812727 388.127647 415.018182 388.054435 415.223636 387.980674 415.429091 387.906365 415.634545 387.831507 415.840000 387.756098 416.045455 387.680139 416.250909 387.603628 416.456364 387.526566 416.661818 387.448950 416.867273 387.370780 417.072727 387.292057 417.278182 387.212778 417.483636 387.132943 417.689091 387.052552 417.894545 386.971604 418.100000 386.890098 418.305455 386.808033 418.510909 386.725408 418.716364 386.642224 418.921818 386.558479 419.127273 386.474172 419.332727 386.389303 419.538182 386.303871 419.743636 386.217876 419.949091 386.131316 420.154545 386.044191 420.360000 385.956500 420.565455 385.868242 420.770909 385.779417 420.976364 385.690025 421.181818 385.600063 421.387273 385.509532 421.592727 385.418431 421.798182 385.326759 422.003636 385.234516 422.209091 385.141700 422.414545 385.048312 422.620000 384.954358 422.825455 384.859844 423.030909 384.764777 423.236364 384.669163 423.441818 384.573008 423.647273 384.476320 423.852727 384.379104 424.058182 384.281368 424.263636 384.183118 424.469091 384.084361 424.674545 383.985102 424.880000 383.885349 425.085455 383.785108 425.290909 383.684385 425.496364 383.583188 425.701818 383.481523 425.907273 383.379396 426.112727 383.276813 426.318182 383.173783 426.523636 383.070310 426.729091 382.966401 426.934545 382.862064 427.140000 382.757304 427.345455 382.652128 427.550909 382.546543 427.756364 382.440555 427.961818 382.334171 428.167273 382.227398 428.372727 382.120241 428.578182 382.012707 428.783636 381.904804 428.989091 381.796537 429.194545 381.687913 429.400000 381.578939 429.605455 381.469621 429.810909 381.359965 430.016364 381.249979 430.221818 381.139669 430.427273 381.029041 430.632727 380.918102 430.838182 380.806858 431.043636 380.695317 431.249091 380.583484 431.454545 380.471366 431.660000 380.358969 431.865455 380.246301 432.070909 380.133368 432.276364 380.020175 432.481818 379.906731 432.687273 379.793041 432.892727 379.679112 433.098182 379.564951 433.303636 379.450563 433.509091 379.335956 433.714545 379.221136 433.920000 379.106110 434.125455 378.990884 434.330909 378.875465 434.536364 378.759859 434.741818 378.644073 434.947273 378.528113 435.152727 378.411987 435.358182 378.295699 435.563636 378.179258 435.769091 378.062670 435.974545 377.945940 436.180000 377.829077 436.385455 377.712085 436.590909 377.594973 436.796364 377.477745 437.001818 377.360410 437.207273 377.242973 437.412727 377.125441 437.618182 377.007820 437.823636 376.890118 438.029091 376.772340 438.234545 376.654494 438.440000 376.536585 438.645455 376.418620 438.850909 376.300606 439.056364 376.182550 439.261818 376.064457 439.467273 375.946335 439.672727 375.828190 439.878182 375.710029 440.083636 375.591857 440.289091 375.473682 440.494545 375.355511 440.700000 375.237349 440.905455 375.119204 441.110909 375.001081 441.316364 374.882988 441.521818 374.764930 441.727273 374.646916 441.932727 374.528950 442.138182 374.411040 442.343636 374.293191 442.549091 374.175412 442.754545 374.057708 442.960000 373.940086 443.165455 373.822551 443.370909 373.705112 443.576364 373.587774 443.781818 373.470545 443.987273 373.353429 444.192727 373.236435 444.398182 373.119569 444.603636 373.002836 444.809091 372.886244 445.014545 372.769800 445.220000 372.653509 445.425455 372.537379 445.630909 372.421415 445.836364 372.305625 446.041818 372.190015 446.247273 372.074592 446.452727 371.959362 446.658182 371.844331 446.863636 371.729506 447.069091 371.614895 447.274545 371.500502 447.480000 371.386335 447.685455 371.272401 447.890909 371.158706 448.096364 371.045256 448.301818 370.932058 448.507273 370.819119 448.712727 370.706444 448.918182 370.594042 449.123636 370.481918 449.329091 370.370078 449.534545 370.258530 449.740000 370.147279 449.945455 370.036334 450.150909 369.925699 450.356364 369.815381 450.561818 369.705388 450.767273 369.595725 450.972727 369.486399 451.178182 369.377417 451.383636 369.268785 451.589091 369.160510 451.794545 369.052599 452.000000 368.945057 452.205455 368.837892 452.410909 368.731109 452.616364 368.624716 452.821818 368.518720 453.027273 368.413126 453.232727 368.307941 453.438182 368.203171 453.643636 368.098825 453.849091 367.994906 454.054545 367.891424 454.260000 367.788383 454.465455 367.685790 454.670909 367.583653 454.876364 367.481977 455.081818 367.380770 455.287273 367.280037 455.492727 367.179785 455.698182 367.080021 455.903636 366.980751 456.109091 366.881982 456.314545 366.783720 456.520000 366.685973 456.725455 366.588746 456.930909 366.492046 457.136364 366.395879 457.341818 366.300253 457.547273 366.205173 457.752727 366.110647 457.958182 366.016680 458.163636 365.923279 458.369091 365.830452 458.574545 365.738204 458.780000 365.646542 458.985455 365.555472 459.190909 365.465002 459.396364 365.375137 459.601818 365.285884 459.807273 365.197250 460.012727 365.109241 460.218182 365.021864 460.423636 364.935126 460.629091 364.849032 460.834545 364.763590 461.040000 364.678806 461.245455 364.594686 461.450909 364.511237 461.656364 364.428466 461.861818 364.346379 462.067273 364.264983 462.272727 364.184285 462.478182 364.104290 462.683636 364.025005 462.889091 363.946438 463.094545 363.868593 463.300000 363.791479 463.505455 363.715102 463.710909 363.639467 463.916364 363.564583 464.121818 363.490454 464.327273 363.417088 464.532727 363.344492 464.738182 363.272671 464.943636 363.201633 465.149091 363.131384 465.354545 363.061930 465.560000 362.993278 465.765455 362.925435 465.970909 362.858407 466.176364 362.792201 466.381818 362.726823 466.587273 362.662280 466.792727 362.598578 466.998182 362.535724 467.203636 362.473724 467.409091 362.412586 467.614545 362.352315 467.820000 362.292918 468.025455 362.234401 468.230909 362.176772 468.436364 362.120037 468.641818 362.064202 468.847273 362.009273 469.052727 361.955258 469.258182 361.902163 469.463636 361.849995 469.669091 361.798759 469.874545 361.748463 470.080000 361.699113 470.285455 361.650716 470.490909 361.603278 470.696364 361.556806 470.901818 361.511306 471.107273 361.466784 471.312727 361.423249 471.518182 361.380705 471.723636 361.339160 471.929091 361.298619 472.134545 361.259091 472.340000 361.220580 472.545455 361.183094 472.750909 361.146639 472.956364 361.111223 473.161818 361.076850 473.367273 361.043528 473.572727 361.011264 473.778182 360.980063 473.983636 360.949924 474.189091 360.920846 474.394545 360.892828 474.600000 360.865868 474.805455 360.839966 475.010909 360.815119 475.216364 360.791326 475.421818 360.768587 475.627273 360.746899 475.832727 360.726261 476.038182 360.706672 476.243636 360.688130 476.449091 360.670634 476.654545 360.654183 476.860000 360.638775 477.065455 360.624409 477.270909 360.611084 477.476364 360.598797 477.681818 360.587549 477.887273 360.577336 478.092727 360.568159 478.298182 360.560015 478.503636 360.552903 478.709091 360.546823 478.914545 360.541771 479.120000 360.537748 479.325455 360.534751 479.530909 360.532780 479.736364 360.531832 479.941818 360.531907 480.147273 360.533003 480.352727 360.535119 480.558182 360.538253 480.763636 360.542405 480.969091 360.547572 481.174545 360.553753 481.380000 360.560947 481.585455 360.569152 481.790909 360.578367 481.996364 360.588592 482.201818 360.599823 482.407273 360.612061 482.612727 360.625303 482.818182 360.639548 483.023636 360.654795 483.229091 360.671042 483.434545 360.688288 483.640000 360.706532 483.845455 360.725773 484.050909 360.746008 484.256364 360.767237 484.461818 360.789457 484.667273 360.812669 484.872727 360.836870 485.078182 360.862059 485.283636 360.888234 485.489091 360.915395 485.694545 360.943539 485.900000 360.972666 486.105455 361.002774 486.310909 361.033862 486.516364 361.065928 486.721818 361.098971 486.927273 361.132989 487.132727 361.167982 487.338182 361.203947 487.543636 361.240884 487.749091 361.278791 487.954545 361.317666 488.160000 361.357509 488.365455 361.398317 488.570909 361.440090 488.776364 361.482826 488.981818 361.526524 489.187273 361.571182 489.392727 361.616799 489.598182 361.663374 489.803636 361.710905 490.009091 361.759391 490.214545 361.808830 490.420000 361.859221 490.625455 361.910563 490.830909 361.962854 491.036364 362.016093 491.241818 362.070278 491.447273 362.125409 491.652727 362.181484 491.858182 362.238500 492.063636 362.296458 492.269091 362.355356 492.474545 362.415191 492.680000 362.475964 492.885455 362.537672 493.090909 362.600314 493.296364 362.663888 493.501818 362.728395 493.707273 362.793831 493.912727 362.860195 494.118182 362.927487 494.323636 362.995704 494.529091 363.064846 494.734545 363.134911 494.940000 363.205898 495.145455 363.277805 495.350909 363.350631 495.556364 363.424374 495.761818 363.499033 495.967273 363.574607 496.172727 363.651095 496.378182 363.728494 496.583636 363.806804 496.789091 363.886024 496.994545 363.966151 497.200000 364.047184 497.405455 364.129123 497.610909 364.211965 497.816364 364.295710 498.021818 364.380356 498.227273 364.465901 498.432727 364.552344 498.638182 364.639684 498.843636 364.727919 499.049091 364.817049 499.254545 364.907071 499.460000 364.997984 499.665455 365.089787 499.870909 365.182479 500.076364 365.276058 500.281818 365.370522 500.487273 365.465871 500.692727 365.562103 500.898182 365.659216 501.103636 365.757210 501.309091 365.856082 501.514545 365.955832 501.720000 366.056458 501.925455 366.157958 502.130909 366.260332 502.336364 366.363578 502.541818 366.467694 502.747273 366.572680 502.952727 366.678533 503.158182 366.785252 503.363636 366.892837 503.569091 367.001285 503.774545 367.110595 503.980000 367.220767 504.185455 367.331797 504.390909 367.443686 504.596364 367.556431 504.801818 367.670032 505.007273 367.784487 505.212727 367.899794 505.418182 368.015953 505.623636 368.132961 505.829091 368.250818 506.034545 368.369522 506.240000 368.489071 506.445455 368.609465 506.650909 368.730701 506.856364 368.852779 507.061818 368.975697 507.267273 369.099454 507.472727 369.224049 507.678182 369.349479 507.883636 369.475744 508.089091 369.602842 508.294545 369.730772 508.500000 369.859532 508.705455 369.989121 508.910909 370.119539 509.116364 370.250782 509.321818 370.382850 509.527273 370.515742 509.732727 370.649456 509.938182 370.783991 510.143636 370.919345 510.349091 371.055518 510.554545 371.192506 510.760000 371.330311 510.965455 371.468929 511.170909 371.608359 511.376364 371.748601 511.581818 371.889652 511.787273 372.031512 511.992727 372.174178 512.198182 372.317651 512.403636 372.461927 512.609091 372.607006 512.814545 372.752887 513.020000 372.899568 513.225455 373.047047 513.430909 373.195324 513.636364 373.344396 513.841818 373.494263 514.047273 373.644924 514.252727 373.796376 514.458182 373.948618 514.663636 374.101649 514.869091 374.255468 515.074545 374.410074 515.280000 374.565464 515.485455 374.721637 515.690909 374.878593 515.896364 375.036329 516.101818 375.194845 516.307273 375.354139 516.512727 375.514209 516.718182 375.675054 516.923636 375.836674 517.129091 375.999065 517.334545 376.162228 517.540000 376.326160 517.745455 376.490861 517.950909 376.656328 518.156364 376.822561 518.361818 376.989558 518.567273 377.157318 518.772727 377.325839 518.978182 377.495120 519.183636 377.665160 519.389091 377.835957 519.594545 378.007510 519.800000 378.179817 520.005455 378.352878 520.210909 378.526690 520.416364 378.701252 520.621818 378.876564 520.827273 379.052622 521.032727 379.229427 521.238182 379.406977 521.443636 379.585270 521.649091 379.764306 521.854545 379.944082 522.060000 380.124597 522.265455 380.305850 522.470909 380.487839 522.676364 380.670564 522.881818 380.854022 523.087273 381.038213 523.292727 381.223134 523.498182 381.408786 523.703636 381.595165 523.909091 381.782271 524.114545 381.970103 524.320000 382.158659 524.525455 382.347937 524.730909 382.537937 524.936364 382.728656 525.141818 382.920094 525.347273 383.112248 525.552727 383.305114 525.758182 383.498690 525.963636 383.692974 526.169091 383.887961 526.374545 384.083650 526.580000 384.280037 526.785455 384.477119 526.990909 384.674895 527.196364 384.873360 527.401818 385.072512 527.607273 385.272348 527.812727 385.472865 528.018182 385.674061 528.223636 385.875932 528.429091 386.078475 528.634545 386.281688 528.840000 386.485568 529.045455 386.690112 529.250909 386.895317 529.456364 387.101180 529.661818 387.307698 529.867273 387.514869 530.072727 387.722690 530.278182 387.931157 530.483636 388.140267 530.689091 388.350019 530.894545 388.560409 531.100000 388.771434 531.305455 388.983091 531.510909 389.195378 531.716364 389.408291 531.921818 389.621828 532.127273 389.835986 532.332727 390.050762 532.538182 390.266153 532.743636 390.482156 532.949091 390.698768 533.154545 390.915987 533.360000 391.133809 533.565455 391.352232 533.770909 391.571253 533.976364 391.790868 534.181818 392.011076 534.387273 392.231873 534.592727 392.453256 534.798182 392.675223 535.003636 392.897770 535.209091 393.120896 535.414545 393.344595 535.620000 393.568867 535.825455 393.793708 536.030909 394.019115 536.236364 394.245086 536.441818 394.471616 536.647273 394.698705 536.852727 394.926348 537.058182 395.154543 537.263636 395.383287 537.469091 395.612577 537.674545 395.842410 537.880000 396.072784 538.085455 396.303695 538.290909 396.535140 538.496364 396.767117 538.701818 396.999624 538.907273 397.232656 539.112727 397.466211 539.318182 397.700286 539.523636 397.934879 539.729091 398.169986 539.934545 398.405605 540.140000 398.641733 540.345455 398.878366 540.550909 399.115502 540.756364 399.353139 540.961818 399.591272 541.167273 399.829900 541.372727 400.069020 541.578182 400.308628 541.783636 400.548722 541.989091 400.789298 542.194545 401.030355 542.400000 401.271889 542.605455 401.513897 542.810909 401.756376 543.016364 401.999324 543.221818 402.242737 543.427273 402.486614 543.632727 402.730950 543.838182 402.975743 544.043636 403.220990 544.249091 403.466688 544.454545 403.712835 544.660000 403.959427 544.865455 404.206462 545.070909 404.453936 545.276364 404.701848 545.481818 404.950193 545.687273 405.198969 545.892727 405.448174 546.098182 405.697804 546.303636 405.947857 546.509091 406.198329 546.714545 406.449218 546.920000 406.700521 547.125455 406.952235 547.330909 407.204357 547.536364 407.456884 547.741818 407.709814 547.947273 407.963143 548.152727 408.216869 548.358182 408.470988 548.563636 408.725499 548.769091 408.980397 548.974545 409.235680 549.180000 409.491346 549.385455 409.747391 549.590909 410.003813 549.796364 410.260608 550.001818 410.517774 550.207273 410.775308 550.412727 411.033207 550.618182 411.291468 550.823636 411.550089 551.029091 411.809066 551.234545 412.068396 551.440000 412.328077 551.645455 412.588105 551.850909 412.848479 552.056364 413.109195 552.261818 413.370249 552.467273 413.631640 552.672727 413.893365 552.878182 414.155420 553.083636 414.417802 553.289091 414.680510 553.494545 414.943539 553.700000 415.206887 553.905455 415.470552 554.110909 415.734529 554.316364 415.998817 554.521818 416.263413 554.727273 416.528313 554.932727 416.793515 555.138182 417.059016 555.343636 417.324814 555.549091 417.590904 555.754545 417.857284 555.960000 418.123952 556.165455 418.390904 556.370909 418.658139 556.576364 418.925651 556.781818 419.193440 556.987273 419.461502 557.192727 419.729834 557.398182 419.998433 557.603636 420.267297 557.809091 420.536422 558.014545 420.805806 558.220000 421.075446 558.425455 421.345339 558.630909 421.615481 558.836364 421.885871 559.041818 422.156505 559.247273 422.427381 559.452727 422.698495 559.658182 422.969845 559.863636 423.241428 560.069091 423.513240 560.274545 423.785280 560.480000 424.057544 560.685455 424.330029 560.890909 424.602732 561.096364 424.875651 561.301818 425.148783 561.507273 425.422125 561.712727 425.695673 561.918182 425.969426 562.123636 426.243380 562.329091 426.517532 562.534545 426.791879 562.740000 427.066419 562.945455 427.341149 563.150909 427.616066 563.356364 427.891166 563.561818 428.166448 563.767273 428.441908 563.972727 428.717543 564.178182 428.993350 564.383636 429.269328 564.589091 429.545471 564.794545 429.821779 565.000000 430.098248 565.205455 430.374874 565.410909 430.651656 565.616364 430.928591 565.821818 431.205674 566.027273 431.482905 566.232727 431.760278 566.438182 432.037793 566.643636 432.315446 566.849091 432.593234 567.054545 432.871154 567.260000 433.149203 567.465455 433.427379 567.670909 433.705679 567.876364 433.984099 568.081818 434.262637 568.287273 434.541290 568.492727 434.820055 568.698182 435.098929 568.903636 435.377910 569.109091 435.656994 569.314545 435.936178 569.520000 436.215461 569.725455 436.494838 569.930909 436.774307 570.136364 437.053866 570.341818 437.333510 570.547273 437.613238 570.752727 437.893046 570.958182 438.172932 571.163636 438.452893 571.369091 438.732925 571.574545 439.013027 571.780000 439.293195 571.985455 439.573425 572.190909 439.853717 572.396364 440.134065 572.601818 440.414469 572.807273 440.694924 573.012727 440.975428 573.218182 441.255977 573.423636 441.536570 573.629091 441.817204 573.834545 442.097874 574.040000 442.378579 574.245455 442.659316 574.450909 442.940081 574.656364 443.220873 574.861818 443.501687 575.067273 443.782521 575.272727 444.063373 575.478182 444.344239 575.683636 444.625117 575.889091 444.906003 576.094545 445.186895 576.300000 445.467789 576.300000 514.000000" /></g></g><g class="titles"><text class="title plot_title" x="400.0" y="26">Phloen-Chit 51</text></g><g class="plot overlay" transform="translate(192, 46)"><g class="series serie-0 color-0"><g class="dots"><circle class="dot reactive tooltip-trigger" cx="11.3" cy="363.42430770062833" r="2.5" /><desc class="value">361000</desc><desc class="x top">11.3</desc><desc class="y top">363.42430770062833</desc><desc class="x_label">Jan</desc></g><g class="dots"><circle class="dot reactive tooltip-trigger" cx="62.66363636363637" cy="11.119945029745907" r="2.5" /><desc class="value">507000</desc><desc class="x ">62.66363636363637</desc><desc class="y ">11.119945029745907</desc><desc class="x_label">Feb</desc></g><g class="dots"><circle class="dot reactive tooltip-trigger" cx="114.02727272727273" cy="370.6634384404409" r="2.5" /><desc class="value">358000</desc><desc class="x top">114.02727272727273</desc><desc class="y top">370.6634384404409</desc><desc class="x_label">Mar</desc></g><g class="dots"><circle class="dot reactive tooltip-trigger" cx="165.39090909090908" cy="503.38083533700626" r="2.5" /><desc class="value">303000</desc><desc class="x top">165.39090909090908</desc><desc class="y top">503.38083533700626</desc><desc class="x_label">Apr</desc></g><g class="dots"><circle class="dot reactive tooltip-trigger" cx="216.75454545454548" cy="447.88083299844254" r="2.5" /><desc class="value">326000</desc><desc class="x top">216.75454545454548</desc><desc class="y top">447.88083299844254</desc><desc class="x_label">May</desc></g><g class="dots"><circle class="dot reactive tooltip-trigger" cx="268.1181818181818" cy="397.20691781975404" r="2.5" /><desc class="value">347000</desc><desc class="x top">268.1181818181818</desc><desc class="y top">397.20691781975404</desc><desc class="x_label">Jun</desc></g><g class="dots"><circle class="dot reactive tooltip-trigger" cx="319.4818181818182" cy="382.72865634012874" r="2.5" /><desc class="value">353000</desc><desc class="x left top">319.4818181818182</desc><desc class="y left top">382.72865634012874</desc><desc class="x_label">Jul</desc></g><g class="dots"><circle class="dot reactive tooltip-trigger" cx="370.8454545454546" cy="392.38083065987894" r="2.5" /><desc class="value">349000</desc><desc class="x left top">370.8454545454546</desc><desc class="y left top">392.38083065987894</desc><desc class="x_label">Aug</desc></g><g class="dots"><circle class="dot reactive tooltip-trigger" cx="422.20909090909095" cy="385.14169992006623" r="2.5" /><desc class="value">352000</desc><desc class="x left top">422.20909090909095</desc><desc class="y left top">385.14169992006623</desc><desc class="x_label">Sep</desc></g><g class="dots"><circle class="dot reactive tooltip-trigger" cx="473.5727272727273" cy="361.0112641206907" r="2.5" /><desc class="value">362000</desc><desc class="x left top">473.5727272727273</desc><desc class="y left top">361.0112641206907</desc><desc class="x_label">Oct</desc></g><g class="dots"><circle class="dot reactive tooltip-trigger" cx="524.9363636363636" cy="382.72865634012874" r="2.5" /><desc class="value">353000</desc><desc class="x left top">524.9363636363636</desc><desc class="y left top">382.72865634012874</desc><desc class="x_label">Nov</desc></g><g class="dots"><circle class="dot reactive tooltip-trigger" cx="576.3000000000001" cy="445.46778941850505" r="2.5" /><desc class="value">327000</desc><desc class="x left top">576.3000000000001</desc><desc class="y left top">445.46778941850505</desc><desc class="x_label">Dec</desc></g></g></g><g class="plot text-overlay" transform="translate(192, 46)"><g class="series serie-0 color-0" /></g><g class="plot tooltip-overlay" transform="translate(192, 46)"><g class="tooltip" style="opacity: 0" transform="translate(0 0)"><rect class="tooltip-box" height="0" rx="0" ry="0" width="0" /><g class="text" /></g></g><g class="legends" transform="translate(10, 56)"><g class="legend reactive activate-serie" id="activate-serie-0"><rect class="color-0 reactive" height="12" width="12" x="0.0" y="1.0" /><text x="17.0" y="11.2">Phloen-Chit</text></g></g><g class="legends" transform="translate(790, 56)" /></g></svg>