<?xml version='1.0' encoding='utf-8'?>
<svg xmlns:xlink="http://www.w3.org/1999/xlink" class="pygal-chart" id="chart-ae30472d-31ef-43a0-9611-924404e143de" viewBox="0 0 800 600" xmlns="http://www.w3.org/2000/svg"><!--Generated with pygal 2.0.11 (etree) ©Kozea 2011-2015 on 2015-12-10--><!--http://pygal.org--><!--http://github.com/Kozea/pygal--><defs><style type="text/css">#chart-ae30472d-31ef-43a0-9611-924404e143de{-webkit-user-select:none;-webkit-font-smoothing:antialiased;font-family:Consolas,"Liberation Mono",Menlo,Courier,monospace}#chart-ae30472d-31ef-43a0-9611-924404e143de .title{font-family:Consolas,"Liberation Mono",Menlo,Courier,monospace;font-size:16px}#chart-ae30472d-31ef-43a0-9611-924404e143de .legends .legend text{font-family:Consolas,"Liberation Mono",Menlo,Courier,monospace;font-size:14px}#chart-ae30472d-31ef-43a0-9611-924404e143de .axis text{font-family:Consolas,"Liberation Mono",Menlo,Courier,monospace;font-size:10px}#chart-ae30472d-31ef-43a0-9611-924404e143de .axis text.major{font-family:Consolas,"Liberation Mono",Menlo,Courier,monospace;font-size:10px}#chart-ae30472d-31ef-43a0-9611-924404e143de .text-overlay text.value{font-family:Consolas,"Liberation Mono",Menlo,Courier,monospace;font-size:16px}#chart-ae30472d-31ef-43a0-9611-924404e143de .text-overlay text.label{font-family:Consolas,"Liberation Mono",Menlo,Courier,monospace;font-size:10px}#chart-ae30472d-31ef-43a0-9611-924404e143de .tooltip{font-family:Consolas,"Liberation Mono",Menlo,Courier,monospace;font-size:14px}#chart-ae30472d-31ef-43a0-9611-924404e143de text.no_data{font-family:Consolas,"Liberation Mono",Menlo,Courier,monospace;font-size:64px}
#chart-ae30472d-31ef-43a0-9611-924404e143de{background-color:black}#chart-ae30472d-31ef-43a0-9611-924404e143de path,#chart-ae30472d-31ef-43a0-9611-924404e143de line,#chart-ae30472d-31ef-43a0-9611-924404e143de rect,#chart-ae30472d-31ef-43a0-9611-924404e143de circle{-webkit-transition:250ms;-moz-transition:250ms;transition:250ms}#chart-ae30472d-31ef-43a0-9611-924404e143de .graph &gt; .background{fill:black}#chart-ae30472d-31ef-43a0-9611-924404e143de .plot &gt; .background{fill:#111}#chart-ae30472d-31ef-43a0-9611-924404e143de .graph{fill:#999}#chart-ae30472d-31ef-43a0-9611-924404e143de text.no_data{fill:#eee}#chart-ae30472d-31ef-43a0-9611-924404e143de .title{fill:#eee}#chart-ae30472d-31ef-43a0-9611-924404e143de .legends .legend text{fill:#999}#chart-ae30472d-31ef-43a0-9611-924404e143de .legends .legend:hover text{fill:#eee}#chart-ae30472d-31ef-43a0-9611-924404e143de .axis .line{stroke:#eee}#chart-ae30472d-31ef-43a0-9611-924404e143de .axis .guide.line{stroke:#555}#chart-ae30472d-31ef-43a0-9611-924404e143de .axis .major.line{stroke:#999}#chart-ae30472d-31ef-43a0-9611-924404e143de .axis text.major{fill:#eee}#chart-ae30472d-31ef-43a0-9611-924404e143de .axis.y .guides:hover .guide.line,#chart-ae30472d-31ef-43a0-9611-924404e143de .line-graph .axis.x .guides:hover .guide.line,#chart-ae30472d-31ef-43a0-9611-924404e143de .stackedline-graph .axis.x .guides:hover .guide.line,#chart-ae30472d-31ef-43a0-9611-924404e143de .xy-graph .axis.x .guides:hover .guide.line{stroke:#eee}#chart-ae30472d-31ef-43a0-9611-924404e143de .axis .guides:hover text{fill:#eee}#chart-ae30472d-31ef-43a0-9611-924404e143de .reactive{fill-opacity:.8}#chart-ae30472d-31ef-43a0-9611-924404e143de .reactive.active,#chart-ae30472d-31ef-43a0-9611-924404e143de .active .reactive{fill-opacity:.4;stroke-width:4}#chart-ae30472d-31ef-43a0-9611-924404e143de .series text{fill:#eee}#chart-ae30472d-31ef-43a0-9611-924404e143de .tooltip rect{fill:#111;stroke:#eee;-webkit-transition:opacity 250ms;-moz-transition:opacity 250ms;transition:opacity 250ms}#chart-ae30472d-31ef-43a0-9611-924404e143de .tooltip .label{fill:#999}#chart-ae30472d-31ef-43a0-9611-924404e143de .tooltip .label{fill:#999}#chart-ae30472d-31ef-43a0-9611-924404e143de .tooltip .legend{font-size:.8em;fill:#555}#chart-ae30472d-31ef-43a0-9611-924404e143de .tooltip .x_label{font-size:.6em;fill:#eee}#chart-ae30472d-31ef-43a0-9611-924404e143de .tooltip .xlink{font-size:.5em;text-decoration:underline}#chart-ae30472d-31ef-43a0-9611-924404e143de .tooltip .value{font-size:1.5em}#chart-ae30472d-31ef-43a0-9611-924404e143de .map-element{fill:#111;stroke:#555 !important}#chart-ae30472d-31ef-43a0-9611-924404e143de .map-element .reactive{fill-opacity:inherit}#chart-ae30472d-31ef-43a0-9611-924404e143de .color-0,#chart-ae30472d-31ef-43a0-9611-924404e143de .color-0 a:visited{stroke:#ff5995;fill:#ff5995}#chart-ae30472d-31ef-43a0-9611-924404e143de .text-overlay .color-0 text{fill:black}
#chart-ae30472d-31ef-43a0-9611-924404e143de text.no_data{text-anchor:middle}#chart-ae30472d-31ef-43a0-9611-924404e143de .guide.line{fill:none}#chart-ae30472d-31ef-43a0-9611-924404e143de .centered{text-anchor:middle}#chart-ae30472d-31ef-43a0-9611-924404e143de .title{text-anchor:middle}#chart-ae30472d-31ef-43a0-9611-924404e143de .legends .legend text{fill-opacity:1}#chart-ae30472d-31ef-43a0-9611-924404e143de .axis.x text{text-anchor:middle}#chart-ae30472d-31ef-43a0-9611-924404e143de .axis.x:not(.web) text[transform]{text-anchor:start}#chart-ae30472d-31ef-43a0-9611-924404e143de .axis.x:not(.web) text[transform].backwards{text-anchor:end}#chart-ae30472d-31ef-43a0-9611-924404e143de .axis.y text{text-anchor:end}#chart-ae30472d-31ef-43a0-9611-924404e143de .axis.y text[transform].backwards{text-anchor:start}#chart-ae30472d-31ef-43a0-9611-924404e143de .axis.y2 text{text-anchor:start}#chart-ae30472d-31ef-43a0-9611-924404e143de .axis.y2 text[transform].backwards{text-anchor:end}#chart-ae30472d-31ef-43a0-9611-924404e143de .axis .guide.line{stroke-dasharray:4,4}#chart-ae30472d-31ef-43a0-9611-924404e143de .axis .major.guide.line{stroke-dasharray:6,6}#chart-ae30472d-31ef-43a0-9611-924404e143de .horizontal .axis.y .guide.line,#chart-ae30472d-31ef-43a0-9611-924404e143de .horizontal .axis.y2 .guide.line,#chart-ae30472d-31ef-43a0-9611-924404e143de .vertical .axis.x .guide.line{opacity:0}#chart-ae30472d-31ef-43a0-9611-924404e143de .horizontal .axis.always_show .guide.line,#chart-ae30472d-31ef-43a0-9611-924404e143de .vertical .axis.always_show .guide.line{opacity:1 !important}#chart-ae30472d-31ef-43a0-9611-924404e143de .axis.y .guides:hover .guide.line,#chart-ae30472d-31ef-43a0-9611-924404e143de .axis.y2 .guides:hover .guide.line,#chart-ae30472d-31ef-43a0-9611-924404e143de .axis.x .guides:hover .guide.line{opacity:1}#chart-ae30472d-31ef-43a0-9611-924404e143de .axis .guides:hover text{opacity:1}#chart-ae30472d-31ef-43a0-9611-924404e143de .nofill{fill:none}#chart-ae30472d-31ef-43a0-9611-924404e143de .subtle-fill{fill-opacity:.2}#chart-ae30472d-31ef-43a0-9611-924404e143de .dot{stroke-width:1px;fill-opacity:1}#chart-ae30472d-31ef-43a0-9611-924404e143de .dot.active{stroke-width:5px}#chart-ae30472d-31ef-43a0-9611-924404e143de .dot.negative{fill:transparent}#chart-ae30472d-31ef-43a0-9611-924404e143de text,#chart-ae30472d-31ef-43a0-9611-924404e143de tspan{stroke:none !important}#chart-ae30472d-31ef-43a0-9611-924404e143de .series text.active{opacity:1}#chart-ae30472d-31ef-43a0-9611-924404e143de .tooltip rect{fill-opacity:.95;stroke-width:.5}#chart-ae30472d-31ef-43a0-9611-924404e143de .tooltip text{fill-opacity:1}#chart-ae30472d-31ef-43a0-9611-924404e143de .showable{visibility:hidden}#chart-ae30472d-31ef-43a0-9611-924404e143de .showable.shown{visibility:visible}</style><script type="text/javascript">window.pygal = window.pygal || {};window.pygal.config = window.pygal.config || {};window.pygal.config['ae30472d-31ef-43a0-9611-924404e143de'] = {"spacing": 10, "inner_radius": 0, "order_min": null, "truncate_label": null, "x_title": null, "style": {"foreground_strong": "#eee", "value_colors": [], "title_font_family": "Consolas, \"Liberation Mono\", Menlo, Courier, monospace", "major_guide_stroke_dasharray": "6,6", "background": "black", "value_font_size": 16, "guide_stroke_dasharray": "4,4", "colors": ["#ff5995", "#b6e354", "#feed6c", "#8cedff", "#9e6ffe", "#899ca1", "#f8f8f2", "#bf4646", "#516083", "#f92672", "#82b414", "#fd971f", "#56c2d6", "#808384", "#8c54fe", "#465457"], "legend_font_family": "Consolas, \"Liberation Mono\", Menlo, Courier, monospace", "no_data_font_size": 64, "legend_font_size": 14, "opacity": ".8", "title_font_size": 16, "foreground_subtle": "#555", "label_font_family": "Consolas, \"Liberation Mono\", Menlo, Courier, monospace", "value_label_font_family": "Consolas, \"Liberation Mono\", Menlo, Courier, monospace", "value_font_family": "Consolas, \"Liberation Mono\", Menlo, Courier, monospace", "major_label_font_size": 10, "no_data_font_family": "Consolas, \"Liberation Mono\", Menlo, Courier, monospace", "major_label_font_family": "Consolas, \"Liberation Mono\", Menlo, Courier, monospace", "tooltip_font_size": 14, "label_font_size": 10, "tooltip_font_family": "Consolas, \"Liberation Mono\", Menlo, Courier, monospace", "transition": "250ms", "value_label_font_size": 10, "plot_background": "#111", "opacity_hover": ".4", "font_family": "Consolas, \"Liberation Mono\", Menlo, Courier, monospace", "foreground": "#999"}, "y_labels_major": null, "inverse_y_axis": false, "show_dots": true, "js": ["//kozea.github.io/pygal.js/2.0.x/pygal-tooltips.min.js"], "range": null, "human_readable": false, "margin": 20, "show_x_labels": true, "legend_box_size": 12, "no_data_text": "No data", "strict": false, "show_minor_y_labels": true, "legend_at_bottom": false, "show_only_major_dots": false, "include_x_axis": false, "x_labels": ["Jan", "Feb", "Mar", "Apr", "May", "Jun", "Jul", "Aug", "Sep", "Oct", "Nov", "Dec"], "x_labels_major": null, "x_label_rotation": 0, "disable_xml_declaration": false, "y_title": null, "show_y_guides": true, "max_scale": 16, "margin_right": null, "defs": [], "tooltip_border_radius": 0, "xrange": null, "print_zeroes": true, "show_legend": true, "no_prefix": false, "y_labels_major_every": null, "fill": true, "width": 800, "min_scale": 4, "title": "Ratchadamri 51", "half_pie": false, "x_labels_major_count": null, "zero": 0, "margin_bottom": null, "legends": ["Ratchadamri"], "secondary_range": null, "margin_top": null, "margin_left": null, "print_labels": false, "legend_at_bottom_columns": null, "print_values": false, "value_formatter": null, "explicit_size": false, "dynamic_print_values": false, "interpolate": "cubic", "box_mode": "extremes", "interpolation_precision": 250, "x_value_formatter": null, "show_y_labels": true, "height": 600, "force_uri_protocol": null, "interpolation_parameters": {}, "dots_size": 2.5, "logarithmic": false, "stroke_style": null, "pretty_print": false, "stack_from_top": false, "stroke": true, "y_label_rotation": 0, "rounded_bars": null, "y_labels": null, "missing_value_fill_truncation": "x", "show_x_guides": false, "x_labels_major_every": null, "truncate_legend": null, "css": ["file://style.css", "file://graph.css"], "tooltip_fancy_mode": true, "y_labels_major_count": null, "show_minor_x_labels": true}</script><script type="text/javascript" xlink:href="//kozea.github.io/pygal.js/2.0.x/pygal-tooltips.min.js" /></defs><title>Ratchadamri 51</title><g class="graph line-graph vertical"><rect class="background" height="600" width="800" x="0" y="0" /><g class="plot" transform="translate(192, 46)"><rect class="background" height="514" width="587.6" x="0" y="0" /><g class="axis y"><path class="line" d="M0.000000 514.000000 h587.600000" /><g class="guides"><path class="guide line" d="M0.000000 471.633479 h587.600000" /><text class="" x="-5" y="475.133478642937">110000.0</text><title>110000.0</title></g><g class="guides"><path class="guide line" d="M0.000000 364.375567 h587.600000" /><text class="" x="-5" y="367.87556668409877">120000.0</text><title>120000.0</title></g><g class="guides"><path class="guide line" d="M0.000000 257.117655 h587.600000" /><text class="" x="-5" y="260.61765472526054">130000.0</text><title>130000.0</title></g><g class="guides"><path class="guide line" d="M0.000000 149.859743 h587.600000" /><text class="" x="-5" y="153.3597427664223">140000.0</text><title>140000.0</title></g><g class="guides"><path class="major guide line" d="M0.000000 42.601831 h587.600000" /><text class="major" x="-5" y="46.101830807584065">150000.0</text><title>150000.0</title></g></g><g class="axis x"><g class="guides"><path class="line" d="M11.300000 0.000000 v514.000000" /><text class="" x="11.3" y="529.0">Jan</text></g><g class="guides"><path class="guide line" d="M62.663636 0.000000 v514.000000" /><text class="" x="62.66363636363637" y="529.0">Feb</text></g><g class="guides"><path class="guide line" d="M114.027273 0.000000 v514.000000" /><text class="" x="114.02727272727273" y="529.0">Mar</text></g><g class="guides"><path class="guide line" d="M165.390909 0.000000 v514.000000" /><text class="" x="165.39090909090908" y="529.0">Apr</text></g><g class="guides"><path class="guide line" d="M216.754545 0.000000 v514.000000" /><text class="" x="216.75454545454548" y="529.0">May</text></g><g class="guides"><path class="guide line" d="M268.118182 0.000000 v514.000000" /><text class="" x="268.1181818181818" y="529.0">Jun</text></g><g class="guides"><path class="guide line" d="M319.481818 0.000000 v514.000000" /><text class="" x="319.4818181818182" y="529.0">Jul</text></g><g class="guides"><path class="guide line" d="M370.845455 0.000000 v514.000000" /><text class="" x="370.8454545454546" y="529.0">Aug</text></g><g class="guides"><path class="guide line" d="M422.209091 0.000000 v514.000000" /><text class="" x="422.20909090909095" y="529.0">Sep</text></g><g class="guides"><path class="guide line" d="M473.572727 0.000000 v514.000000" /><text class="" x="473.5727272727273" y="529.0">Oct</text></g><g class="guides"><path class="guide line" d="M524.936364 0.000000 v514.000000" /><text class="" x="524.9363636363636" y="529.0">Nov</text></g><g class="guides"><path class="guide line" d="M576.300000 0.000000 v514.000000" /><text class="" x="576.3000000000001" y="529.0">Dec</text></g></g><g class="series serie-0 color-0"><path class="line reactive" d="M11.300000 514.000000 L11.300000 278.569237 11.505455 276.898472 11.710909 275.227764 11.916364 273.557171 12.121818 271.886750 12.327273 270.216559 12.532727 268.546656 12.738182 266.877096 12.943636 265.207939 13.149091 263.539241 13.354545 261.871060 13.560000 260.203453 13.765455 258.536478 13.970909 256.870192 14.176364 255.204653 14.381818 253.539917 14.587273 251.876043 14.792727 250.213088 14.998182 248.551109 15.203636 246.890164 15.409091 245.230310 15.614545 243.571604 15.820000 241.914104 16.025455 240.257868 16.230909 238.602953 16.436364 236.949415 16.641818 235.297314 16.847273 233.646705 17.052727 231.997647 17.258182 230.350197 17.463636 228.704413 17.669091 227.060351 17.874545 225.418069 18.080000 223.777625 18.285455 222.139077 18.490909 220.502480 18.696364 218.867894 18.901818 217.235375 19.107273 215.604981 19.312727 213.976769 19.518182 212.350796 19.723636 210.727121 19.929091 209.105800 20.134545 207.486891 20.340000 205.870452 20.545455 204.256539 20.750909 202.645211 20.956364 201.036524 21.161818 199.430536 21.367273 197.827304 21.572727 196.226887 21.778182 194.629341 21.983636 193.034724 22.189091 191.443092 22.394545 189.854505 22.600000 188.269018 22.805455 186.686690 23.010909 185.107578 23.216364 183.531740 23.421818 181.959232 23.627273 180.390112 23.832727 178.824437 24.038182 177.262266 24.243636 175.703656 24.449091 174.148663 24.654545 172.597345 24.860000 171.049760 25.065455 169.505966 25.270909 167.966019 25.476364 166.429977 25.681818 164.897897 25.887273 163.369837 26.092727 161.845855 26.298182 160.326007 26.503636 158.810352 26.709091 157.298946 26.914545 155.791847 27.120000 154.289113 27.325455 152.790800 27.530909 151.296967 27.736364 149.807670 27.941818 148.322968 28.147273 146.842917 28.352727 145.367575 28.558182 143.896999 28.763636 142.431248 28.969091 140.970377 29.174545 139.514446 29.380000 138.063510 29.585455 136.617628 29.790909 135.176857 29.996364 133.741255 30.201818 132.310878 30.407273 130.885784 30.612727 129.466032 30.818182 128.051677 31.023636 126.642778 31.229091 125.239392 31.434545 123.841576 31.640000 122.449388 31.845455 121.062885 32.050909 119.682126 32.256364 118.307166 32.461818 116.938063 32.667273 115.574876 32.872727 114.217661 33.078182 112.866476 33.283636 111.521378 33.489091 110.182425 33.694545 108.849673 33.900000 107.523182 34.105455 106.203007 34.310909 104.889207 34.516364 103.581838 34.721818 102.280959 34.927273 100.986626 35.132727 99.698898 35.338182 98.417830 35.543636 97.143482 35.749091 95.875911 35.954545 94.615173 36.160000 93.361326 36.365455 92.114428 36.570909 90.874536 36.776364 89.641707 36.981818 88.415999 37.187273 87.197470 37.392727 85.986176 37.598182 84.782176 37.803636 83.585526 38.009091 82.396285 38.214545 81.214509 38.420000 80.040255 38.625455 78.873583 38.830909 77.714547 39.036364 76.563207 39.241818 75.419620 39.447273 74.283843 39.652727 73.155933 39.858182 72.035948 40.063636 70.923945 40.269091 69.819983 40.474545 68.724117 40.680000 67.636406 40.885455 66.556907 41.090909 65.485677 41.296364 64.422774 41.501818 63.368256 41.707273 62.322179 41.912727 61.284602 42.118182 60.255581 42.323636 59.235174 42.529091 58.223439 42.734545 57.220432 42.940000 56.226212 43.145455 55.240835 43.350909 54.264360 43.556364 53.296843 43.761818 52.338342 43.967273 51.388915 44.172727 50.448618 44.378182 49.517510 44.583636 48.595648 44.789091 47.683088 44.994545 46.779889 45.200000 45.886109 45.405455 45.001803 45.610909 44.127031 45.816364 43.261848 46.021818 42.406314 46.227273 41.560484 46.432727 40.724418 46.638182 39.898171 46.843636 39.081801 47.049091 38.275366 47.254545 37.478924 47.460000 36.692531 47.665455 35.916246 47.870909 35.150125 48.076364 34.394226 48.281818 33.648606 48.487273 32.913323 48.692727 32.188434 48.898182 31.473997 49.103636 30.770070 49.309091 30.076708 49.514545 29.393971 49.720000 28.721915 49.925455 28.060598 50.130909 27.410077 50.336364 26.770409 50.541818 26.141653 50.747273 25.523866 50.952727 24.917104 51.158182 24.321426 51.363636 23.736888 51.569091 23.163549 51.774545 22.601465 51.980000 22.050694 52.185455 21.511294 52.390909 20.983322 52.596364 20.466835 52.801818 19.961891 53.007273 19.468547 53.212727 18.986861 53.418182 18.516890 53.623636 18.058691 53.829091 17.612323 54.034545 17.177841 54.240000 16.755305 54.445455 16.344770 54.650909 15.946296 54.856364 15.559938 55.061818 15.185755 55.267273 14.823803 55.472727 14.474141 55.678182 14.136826 55.883636 13.811915 56.089091 13.499466 56.294545 13.199535 56.500000 12.912181 56.705455 12.637461 56.910909 12.375433 57.116364 12.126153 57.321818 11.889679 57.527273 11.666069 57.732727 11.455379 57.938182 11.257669 58.143636 11.072994 58.349091 10.901412 58.554545 10.742982 58.760000 10.597759 58.965455 10.465802 59.170909 10.347168 59.376364 10.241914 59.581818 10.150099 59.787273 10.071778 59.992727 10.007010 60.198182 9.955853 60.403636 9.918363 60.609091 9.894598 60.814545 9.884615 61.020000 9.888473 61.225455 9.906227 61.430909 9.937937 61.636364 9.983658 61.841818 10.043449 62.047273 10.117367 62.252727 10.205469 62.458182 10.307814 62.663636 10.424457 62.869091 10.555436 63.074545 10.700698 63.280000 10.860171 63.485455 11.033782 63.690909 11.221457 63.896364 11.423125 64.101818 11.638711 64.307273 11.868144 64.512727 12.111349 64.718182 12.368255 64.923636 12.638787 65.129091 12.922874 65.334545 13.220442 65.540000 13.531418 65.745455 13.855729 65.950909 14.193303 66.156364 14.544066 66.361818 14.907945 66.567273 15.284868 66.772727 15.674761 66.978182 16.077551 67.183636 16.493166 67.389091 16.921533 67.594545 17.362578 67.800000 17.816229 68.005455 18.282413 68.210909 18.761056 68.416364 19.252086 68.621818 19.755429 68.827273 20.271014 69.032727 20.798766 69.238182 21.338614 69.443636 21.890483 69.649091 22.454301 69.854545 23.029995 70.060000 23.617492 70.265455 24.216720 70.470909 24.827604 70.676364 25.450073 70.881818 26.084053 71.087273 26.729471 71.292727 27.386254 71.498182 28.054330 71.703636 28.733625 71.909091 29.424066 72.114545 30.125581 72.320000 30.838096 72.525455 31.561539 72.730909 32.295837 72.936364 33.040916 73.141818 33.796703 73.347273 34.563127 73.552727 35.340113 73.758182 36.127588 73.963636 36.925481 74.169091 37.733717 74.374545 38.552224 74.580000 39.380930 74.785455 40.219760 74.990909 41.068642 75.196364 41.927503 75.401818 42.796270 75.607273 43.674870 75.812727 44.563230 76.018182 45.461278 76.223636 46.368940 76.429091 47.286143 76.634545 48.212814 76.840000 49.148880 77.045455 50.094269 77.250909 51.048908 77.456364 52.012722 77.661818 52.985641 77.867273 53.967590 78.072727 54.958496 78.278182 55.958287 78.483636 56.966889 78.689091 57.984231 78.894545 59.010238 79.100000 60.044837 79.305455 61.087957 79.510909 62.139523 79.716364 63.199463 79.921818 64.267704 80.127273 65.344174 80.332727 66.428798 80.538182 67.521504 80.743636 68.622219 80.949091 69.730870 81.154545 70.847384 81.360000 71.971689 81.565455 73.103711 81.770909 74.243377 81.976364 75.390614 82.181818 76.545349 82.387273 77.707510 82.592727 78.877024 82.798182 80.053817 83.003636 81.237816 83.209091 82.428949 83.414545 83.627142 83.620000 84.832323 83.825455 86.044419 84.030909 87.263356 84.236364 88.489062 84.441818 89.721464 84.647273 90.960489 84.852727 92.206063 85.058182 93.458114 85.263636 94.716570 85.469091 95.981356 85.674545 97.252400 85.880000 98.529629 86.085455 99.812970 86.290909 101.102351 86.496364 102.397697 86.701818 103.698937 86.907273 105.005997 87.112727 106.318804 87.318182 107.637286 87.523636 108.961368 87.729091 110.290979 87.934545 111.626046 88.140000 112.966495 88.345455 114.312254 88.550909 115.663249 88.756364 117.019407 88.961818 118.380656 89.167273 119.746923 89.372727 121.118135 89.578182 122.494218 89.783636 123.875100 89.989091 125.260708 90.194545 126.650969 90.400000 128.045809 90.605455 129.445157 90.810909 130.848938 91.016364 132.257081 91.221818 133.669511 91.427273 135.086157 91.632727 136.506944 91.838182 137.931801 92.043636 139.360654 92.249091 140.793430 92.454545 142.230057 92.660000 143.670460 92.865455 145.114568 93.070909 146.562308 93.276364 148.013606 93.481818 149.468389 93.687273 150.926585 93.892727 152.388120 94.098182 153.852922 94.303636 155.320918 94.509091 156.792034 94.714545 158.266198 94.920000 159.743337 95.125455 161.223377 95.330909 162.706246 95.536364 164.191871 95.741818 165.680179 95.947273 167.171097 96.152727 168.664552 96.358182 170.160471 96.563636 171.658780 96.769091 173.159408 96.974545 174.662281 97.180000 176.167327 97.385455 177.674471 97.590909 179.183642 97.796364 180.694765 98.001818 182.207770 98.207273 183.722581 98.412727 185.239127 98.618182 186.757334 98.823636 188.277130 99.029091 189.798442 99.234545 191.321195 99.440000 192.845319 99.645455 194.370739 99.850909 195.897383 100.056364 197.425177 100.261818 198.954049 100.467273 200.483926 100.672727 202.014735 100.878182 203.546402 101.083636 205.078856 101.289091 206.612022 101.494545 208.145828 101.700000 209.680202 101.905455 211.215069 102.110909 212.750357 102.316364 214.285994 102.521818 215.821906 102.727273 217.358020 102.932727 218.894263 103.138182 220.430562 103.343636 221.966845 103.549091 223.503038 103.754545 225.039069 103.960000 226.574864 104.165455 228.110350 104.370909 229.645455 104.576364 231.180105 104.781818 232.714228 104.987273 234.247751 105.192727 235.780600 105.398182 237.312703 105.603636 238.843987 105.809091 240.374378 106.014545 241.903805 106.220000 243.432193 106.425455 244.959470 106.630909 246.485563 106.836364 248.010399 107.041818 249.533905 107.247273 251.056008 107.452727 252.576635 107.658182 254.095713 107.863636 255.613170 108.069091 257.128931 108.274545 258.642925 108.480000 260.155078 108.685455 261.665318 108.890909 263.173571 109.096364 264.679764 109.301818 266.183824 109.507273 267.685680 109.712727 269.185256 109.918182 270.682481 110.123636 272.177282 110.329091 273.669585 110.534545 275.159318 110.740000 276.646408 110.945455 278.130782 111.150909 279.612366 111.356364 281.091088 111.561818 282.566875 111.767273 284.039654 111.972727 285.509352 112.178182 286.975895 112.383636 288.439212 112.589091 289.899229 112.794545 291.355873 113.000000 292.809071 113.205455 294.258750 113.410909 295.704838 113.616364 297.147260 113.821818 298.585945 114.027273 300.020820 114.232727 301.451820 114.438182 302.878925 114.643636 304.302120 114.849091 305.721393 115.054545 307.136732 115.260000 308.548124 115.465455 309.955556 115.670909 311.359016 115.876364 312.758490 116.081818 314.153966 116.287273 315.545432 116.492727 316.932874 116.698182 318.316280 116.903636 319.695638 117.109091 321.070934 117.314545 322.442155 117.520000 323.809290 117.725455 325.172325 117.930909 326.531248 118.136364 327.886046 118.341818 329.236706 118.547273 330.583216 118.752727 331.925562 118.958182 333.263733 119.163636 334.597715 119.369091 335.927496 119.574545 337.253064 119.780000 338.574404 119.985455 339.891505 120.190909 341.204354 120.396364 342.512938 120.601818 343.817245 120.807273 345.117262 121.012727 346.412976 121.218182 347.704374 121.423636 348.991444 121.629091 350.274173 121.834545 351.552549 122.040000 352.826558 122.245455 354.096188 122.450909 355.361426 122.656364 356.622259 122.861818 357.878676 123.067273 359.130662 123.272727 360.378206 123.478182 361.621295 123.683636 362.859916 123.889091 364.094056 124.094545 365.323702 124.300000 366.548843 124.505455 367.769464 124.710909 368.985554 124.916364 370.197100 125.121818 371.404089 125.327273 372.606508 125.532727 373.804345 125.738182 374.997587 125.943636 376.186221 126.149091 377.370235 126.354545 378.549616 126.560000 379.724350 126.765455 380.894426 126.970909 382.059831 127.176364 383.220552 127.381818 384.376576 127.587273 385.527891 127.792727 386.674484 127.998182 387.816342 128.203636 388.953453 128.409091 390.085803 128.614545 391.213380 128.820000 392.336172 129.025455 393.454166 129.230909 394.567348 129.436364 395.675707 129.641818 396.779229 129.847273 397.877903 130.052727 398.971714 130.258182 400.060651 130.463636 401.144701 130.669091 402.223850 130.874545 403.298088 131.080000 404.367399 131.285455 405.431773 131.490909 406.491196 131.696364 407.545656 131.901818 408.595139 132.107273 409.639634 132.312727 410.679127 132.518182 411.713605 132.723636 412.743057 132.929091 413.767469 133.134545 414.786829 133.340000 415.801124 133.545455 416.810341 133.750909 417.814467 133.956364 418.813490 134.161818 419.807397 134.367273 420.796176 134.572727 421.779814 134.778182 422.758297 134.983636 423.731614 135.189091 424.699751 135.394545 425.662696 135.600000 426.620436 135.805455 427.572959 136.010909 428.520252 136.216364 429.462302 136.421818 430.399096 136.627273 431.330621 136.832727 432.256866 137.038182 433.177817 137.243636 434.093461 137.449091 435.003787 137.654545 435.908780 137.860000 436.808429 138.065455 437.702721 138.270909 438.591642 138.476364 439.475181 138.681818 440.353325 138.887273 441.226061 139.092727 442.093375 139.298182 442.955257 139.503636 443.811692 139.709091 444.662668 139.914545 445.508173 140.120000 446.348193 140.325455 447.182716 140.530909 448.011730 140.736364 448.835221 140.941818 449.653177 141.147273 450.465586 141.352727 451.272433 141.558182 452.073708 141.763636 452.869397 141.969091 453.659487 142.174545 454.443965 142.380000 455.222820 142.585455 455.996038 142.790909 456.763606 142.996364 457.525512 143.201818 458.281744 143.407273 459.032288 143.612727 459.777131 143.818182 460.516262 144.023636 461.249667 144.229091 461.977333 144.434545 462.699249 144.640000 463.415401 144.845455 464.125776 145.050909 464.830362 145.256364 465.529146 145.461818 466.222116 145.667273 466.909258 145.872727 467.590561 146.078182 468.266010 146.283636 468.935594 146.489091 469.599300 146.694545 470.257116 146.900000 470.909027 147.105455 471.555023 147.310909 472.195090 147.516364 472.829215 147.721818 473.457385 147.927273 474.079589 148.132727 474.695813 148.338182 475.306044 148.543636 475.910270 148.749091 476.508479 148.954545 477.100657 149.160000 477.686791 149.365455 478.266870 149.570909 478.840880 149.776364 479.408808 149.981818 479.970643 150.187273 480.526371 150.392727 481.075979 150.598182 481.619455 150.803636 482.156786 151.009091 482.687960 151.214545 483.212963 151.420000 483.731783 151.625455 484.244408 151.830909 484.750824 152.036364 485.251019 152.241818 485.744981 152.447273 486.232695 152.652727 486.714151 152.858182 487.189335 153.063636 487.658234 153.269091 488.120835 153.474545 488.577127 153.680000 489.027096 153.885455 489.470729 154.090909 489.908015 154.296364 490.338939 154.501818 490.763490 154.707273 491.181655 154.912727 491.593420 155.118182 491.998774 155.323636 492.397704 155.529091 492.790196 155.734545 493.176239 155.940000 493.555820 156.145455 493.928925 156.350909 494.295542 156.556364 494.655659 156.761818 495.009262 156.967273 495.356339 157.172727 495.696878 157.378182 496.030865 157.583636 496.358288 157.789091 496.679135 157.994545 496.993392 158.200000 497.301046 158.405455 497.602086 158.610909 497.896498 158.816364 498.184270 159.021818 498.465388 159.227273 498.739841 159.432727 499.007616 159.638182 499.268699 159.843636 499.523079 160.049091 499.770742 160.254545 500.011676 160.460000 500.245867 160.665455 500.473304 160.870909 500.693974 161.076364 500.907864 161.281818 501.114961 161.487273 501.315252 161.692727 501.508725 161.898182 501.695368 162.103636 501.875166 162.309091 502.048109 162.514545 502.214182 162.720000 502.373374 162.925455 502.525671 163.130909 502.671062 163.336364 502.809532 163.541818 502.941070 163.747273 503.065663 163.952727 503.183298 164.158182 503.293962 164.363636 503.397643 164.569091 503.494327 164.774545 503.584003 164.980000 503.666658 165.185455 503.742279 165.390909 503.810852 165.596364 503.872375 165.801818 503.926880 166.007273 503.974409 166.212727 504.015001 166.418182 504.048700 166.623636 504.075547 166.829091 504.095582 167.034545 504.108847 167.240000 504.115385 167.445455 504.115235 167.650909 504.108440 167.856364 504.095040 168.061818 504.075078 168.267273 504.048595 168.472727 504.015631 168.678182 503.976229 168.883636 503.930430 169.089091 503.878275 169.294545 503.819806 169.500000 503.755064 169.705455 503.684091 169.910909 503.606927 170.116364 503.523615 170.321818 503.434195 170.527273 503.338710 170.732727 503.237200 170.938182 503.129706 171.143636 503.016272 171.349091 502.896936 171.554545 502.771742 171.760000 502.640731 171.965455 502.503943 172.170909 502.361421 172.376364 502.213205 172.581818 502.059338 172.787273 501.899860 172.992727 501.734813 173.198182 501.564238 173.403636 501.388177 173.609091 501.206671 173.814545 501.019762 174.020000 500.827490 174.225455 500.629898 174.430909 500.427027 174.636364 500.218917 174.841818 500.005612 175.047273 499.787151 175.252727 499.563576 175.458182 499.334930 175.663636 499.101252 175.869091 498.862585 176.074545 498.618970 176.280000 498.370448 176.485455 498.117061 176.690909 497.858850 176.896364 497.595857 177.101818 497.328123 177.307273 497.055689 177.512727 496.778596 177.718182 496.496887 177.923636 496.210603 178.129091 495.919784 178.334545 495.624473 178.540000 495.324711 178.745455 495.020538 178.950909 494.711998 179.156364 494.399130 179.361818 494.081977 179.567273 493.760579 179.772727 493.434979 179.978182 493.105217 180.183636 492.771335 180.389091 492.433374 180.594545 492.091377 180.800000 491.745383 181.005455 491.395435 181.210909 491.041575 181.416364 490.683842 181.621818 490.322279 181.827273 489.956928 182.032727 489.587829 182.238182 489.215024 182.443636 488.838554 182.649091 488.458462 182.854545 488.074787 183.060000 487.687572 183.265455 487.296859 183.470909 486.902687 183.676364 486.505099 183.881818 486.104137 184.087273 485.699841 184.292727 485.292253 184.498182 484.881415 184.703636 484.467367 184.909091 484.050152 185.114545 483.629810 185.320000 483.206384 185.525455 482.779913 185.730909 482.350441 185.936364 481.918008 186.141818 481.482655 186.347273 481.044425 186.552727 480.603357 186.758182 480.159495 186.963636 479.712879 187.169091 479.263551 187.374545 478.811552 187.580000 478.356923 187.785455 477.899706 187.990909 477.439942 188.196364 476.977673 188.401818 476.512940 188.607273 476.045784 188.812727 475.576247 189.018182 475.104371 189.223636 474.630196 189.429091 474.153764 189.634545 473.675117 189.840000 473.194296 190.045455 472.711342 190.250909 472.226296 190.456364 471.739201 190.661818 471.250097 190.867273 470.759026 191.072727 470.266029 191.278182 469.771148 191.483636 469.274424 191.689091 468.775898 191.894545 468.275613 192.100000 467.773608 192.305455 467.269927 192.510909 466.764609 192.716364 466.257697 192.921818 465.749232 193.127273 465.239255 193.332727 464.727808 193.538182 464.214932 193.743636 463.700668 193.949091 463.185059 194.154545 462.668144 194.360000 462.149967 194.565455 461.630567 194.770909 461.109987 194.976364 460.588268 195.181818 460.065451 195.387273 459.541578 195.592727 459.016690 195.798182 458.490829 196.003636 457.964036 196.209091 457.436351 196.414545 456.907818 196.620000 456.378477 196.825455 455.848369 197.030909 455.317536 197.236364 454.786020 197.441818 454.253861 197.647273 453.721101 197.852727 453.187782 198.058182 452.653945 198.263636 452.119631 198.469091 451.584882 198.674545 451.049739 198.880000 450.514244 199.085455 449.978437 199.290909 449.442361 199.496364 448.906057 199.701818 448.369566 199.907273 447.832929 200.112727 447.296189 200.318182 446.759386 200.523636 446.222561 200.729091 445.685757 200.934545 445.149014 201.140000 444.612374 201.345455 444.075879 201.550909 443.539569 201.756364 443.003487 201.961818 442.467673 202.167273 441.932169 202.372727 441.397016 202.578182 440.862257 202.783636 440.327931 202.989091 439.794081 203.194545 439.260748 203.400000 438.727974 203.605455 438.195799 203.810909 437.664265 204.016364 437.133414 204.221818 436.603287 204.427273 436.073926 204.632727 435.545371 204.838182 435.017664 205.043636 434.490847 205.249091 433.964961 205.454545 433.440048 205.660000 432.916148 205.865455 432.393304 206.070909 431.871556 206.276364 431.350946 206.481818 430.831515 206.687273 430.313306 206.892727 429.796358 207.098182 429.280714 207.303636 428.766416 207.509091 428.253503 207.714545 427.742019 207.920000 427.232003 208.125455 426.723499 208.330909 426.216546 208.536364 425.711187 208.741818 425.207463 208.947273 424.705414 209.152727 424.205084 209.358182 423.706513 209.563636 423.209742 209.769091 422.714812 209.974545 422.221767 210.180000 421.730645 210.385455 421.241490 210.590909 420.754342 210.796364 420.269244 211.001818 419.786235 211.207273 419.305358 211.412727 418.826654 211.618182 418.350165 211.823636 417.875931 212.029091 417.403995 212.234545 416.934397 212.440000 416.467180 212.645455 416.002384 212.850909 415.540051 213.056364 415.080222 213.261818 414.622939 213.467273 414.168242 213.672727 413.716175 213.878182 413.266777 214.083636 412.820091 214.289091 412.376157 214.494545 411.935017 214.700000 411.496713 214.905455 411.061286 215.110909 410.628777 215.316364 410.199227 215.521818 409.772679 215.727273 409.349173 215.932727 408.928752 216.138182 408.511455 216.343636 408.097325 216.549091 407.686404 216.754545 407.278731 216.960000 406.874341 217.165455 406.473229 217.370909 406.075382 217.576364 405.680787 217.781818 405.289432 217.987273 404.901303 218.192727 404.516388 218.398182 404.134674 218.603636 403.756148 218.809091 403.380796 219.014545 403.008608 219.220000 402.639568 219.425455 402.273665 219.630909 401.910886 219.836364 401.551217 220.041818 401.194646 220.247273 400.841161 220.452727 400.490747 220.658182 400.143393 220.863636 399.799085 221.069091 399.457811 221.274545 399.119557 221.480000 398.784311 221.685455 398.452061 221.890909 398.122792 222.096364 397.796492 222.301818 397.473149 222.507273 397.152750 222.712727 396.835280 222.918182 396.520729 223.123636 396.209083 223.329091 395.900328 223.534545 395.594453 223.740000 395.291444 223.945455 394.991288 224.150909 394.693973 224.356364 394.399486 224.561818 394.107813 224.767273 393.818943 224.972727 393.532861 225.178182 393.249556 225.383636 392.969014 225.589091 392.691222 225.794545 392.416168 226.000000 392.143839 226.205455 391.874222 226.410909 391.607303 226.616364 391.343071 226.821818 391.081512 227.027273 390.822613 227.232727 390.566362 227.438182 390.312746 227.643636 390.061751 227.849091 389.813365 228.054545 389.567575 228.260000 389.324369 228.465455 389.083733 228.670909 388.845654 228.876364 388.610120 229.081818 388.377117 229.287273 388.146634 229.492727 387.918656 229.698182 387.693171 229.903636 387.470167 230.109091 387.249630 230.314545 387.031548 230.520000 386.815907 230.725455 386.602695 230.930909 386.391899 231.136364 386.183506 231.341818 385.977503 231.547273 385.773877 231.752727 385.572616 231.958182 385.373706 232.163636 385.177135 232.369091 384.982890 232.574545 384.790958 232.780000 384.601326 232.985455 384.413981 233.190909 384.228911 233.396364 384.046102 233.601818 383.865541 233.807273 383.687216 234.012727 383.511115 234.218182 383.337223 234.423636 383.165528 234.629091 382.996018 234.834545 382.828679 235.040000 382.663499 235.245455 382.500464 235.450909 382.339562 235.656364 382.180780 235.861818 382.024105 236.067273 381.869524 236.272727 381.717025 236.478182 381.566594 236.683636 381.418219 236.889091 381.271886 237.094545 381.127584 237.300000 380.985298 237.505455 380.845016 237.710909 380.706726 237.916364 380.570414 238.121818 380.436068 238.327273 380.303674 238.532727 380.173220 238.738182 380.044693 238.943636 379.918080 239.149091 379.793368 239.354545 379.670545 239.560000 379.549597 239.765455 379.430512 239.970909 379.313276 240.176364 379.197877 240.381818 379.084302 240.587273 378.972538 240.792727 378.862573 240.998182 378.754393 241.203636 378.647985 241.409091 378.543337 241.614545 378.440436 241.820000 378.339268 242.025455 378.239822 242.230909 378.142084 242.436364 378.046041 242.641818 377.951681 242.847273 377.858990 243.052727 377.767956 243.258182 377.678566 243.463636 377.590806 243.669091 377.504665 243.874545 377.420129 244.080000 377.337185 244.285455 377.255821 244.490909 377.176024 244.696364 377.097780 244.901818 377.021077 245.107273 376.945902 245.312727 376.872242 245.518182 376.800085 245.723636 376.729417 245.929091 376.660225 246.134545 376.592497 246.340000 376.526220 246.545455 376.461381 246.750909 376.397967 246.956364 376.335965 247.161818 376.275363 247.367273 376.216147 247.572727 376.158305 247.778182 376.101823 247.983636 376.046689 248.189091 375.992890 248.394545 375.940414 248.600000 375.889246 248.805455 375.839376 249.010909 375.790788 249.216364 375.743471 249.421818 375.697412 249.627273 375.652598 249.832727 375.609016 250.038182 375.566653 250.243636 375.525497 250.449091 375.485534 250.654545 375.446751 250.860000 375.409137 251.065455 375.372677 251.270909 375.337359 251.476364 375.303170 251.681818 375.270098 251.887273 375.238128 252.092727 375.207250 252.298182 375.177449 252.503636 375.148713 252.709091 375.121028 252.914545 375.094383 253.120000 375.068764 253.325455 375.044158 253.530909 375.020553 253.736364 374.997935 253.941818 374.976292 254.147273 374.955610 254.352727 374.935878 254.558182 374.917082 254.763636 374.899209 254.969091 374.882246 255.174545 374.866181 255.380000 374.851001 255.585455 374.836692 255.790909 374.823242 255.996364 374.810638 256.201818 374.798868 256.407273 374.787917 256.612727 374.777774 256.818182 374.768426 257.023636 374.759859 257.229091 374.752061 257.434545 374.745019 257.640000 374.738720 257.845455 374.733152 258.050909 374.728300 258.256364 374.724154 258.461818 374.720698 258.667273 374.717922 258.872727 374.715811 259.078182 374.714353 259.283636 374.713536 259.489091 374.713346 259.694545 374.713770 259.900000 374.714796 260.105455 374.716410 260.310909 374.718600 260.516364 374.721353 260.721818 374.724656 260.927273 374.728497 261.132727 374.732861 261.338182 374.737738 261.543636 374.743112 261.749091 374.748973 261.954545 374.755306 262.160000 374.762099 262.365455 374.769340 262.570909 374.777014 262.776364 374.785110 262.981818 374.793615 263.187273 374.802515 263.392727 374.811798 263.598182 374.821451 263.803636 374.831461 264.009091 374.841815 264.214545 374.852501 264.420000 374.863504 264.625455 374.874814 264.830909 374.886416 265.036364 374.898298 265.241818 374.910447 265.447273 374.922850 265.652727 374.935494 265.858182 374.948367 266.063636 374.961455 266.269091 374.974746 266.474545 374.988226 266.680000 375.001884 266.885455 375.015705 267.090909 375.029678 267.296364 375.043789 267.501818 375.058025 267.707273 375.072374 267.912727 375.086822 268.118182 375.101358 268.323636 375.115968 268.529091 375.130646 268.734545 375.145385 268.940000 375.160179 269.145455 375.175021 269.350909 375.189905 269.556364 375.204825 269.761818 375.219774 269.967273 375.234745 270.172727 375.249733 270.378182 375.264731 270.583636 375.279732 270.789091 375.294730 270.994545 375.309719 271.200000 375.324692 271.405455 375.339643 271.610909 375.354566 271.816364 375.369453 272.021818 375.384299 272.227273 375.399098 272.432727 375.413842 272.638182 375.428526 272.843636 375.443143 273.049091 375.457686 273.254545 375.472150 273.460000 375.486527 273.665455 375.500812 273.870909 375.514998 274.076364 375.529079 274.281818 375.543047 274.487273 375.556898 274.692727 375.570624 274.898182 375.584219 275.103636 375.597676 275.309091 375.610990 275.514545 375.624153 275.720000 375.637160 275.925455 375.650003 276.130909 375.662678 276.336364 375.675176 276.541818 375.687492 276.747273 375.699620 276.952727 375.711552 277.158182 375.723283 277.363636 375.734806 277.569091 375.746115 277.774545 375.757203 277.980000 375.768064 278.185455 375.778691 278.390909 375.789079 278.596364 375.799220 278.801818 375.809109 279.007273 375.818738 279.212727 375.828102 279.418182 375.837194 279.623636 375.846008 279.829091 375.854536 280.034545 375.862774 280.240000 375.870714 280.445455 375.878351 280.650909 375.885676 280.856364 375.892685 281.061818 375.899371 281.267273 375.905728 281.472727 375.911748 281.678182 375.917426 281.883636 375.922755 282.089091 375.927729 282.294545 375.932341 282.500000 375.936586 282.705455 375.940455 282.910909 375.943945 283.116364 375.947046 283.321818 375.949755 283.527273 375.952063 283.732727 375.953965 283.938182 375.955453 284.143636 375.956523 284.349091 375.957167 284.554545 375.957379 284.760000 375.957152 284.965455 375.956481 285.170909 375.955358 285.376364 375.953778 285.581818 375.951733 285.787273 375.949218 285.992727 375.946226 286.198182 375.942751 286.403636 375.938786 286.609091 375.934325 286.814545 375.929362 287.020000 375.923889 287.225455 375.917901 287.430909 375.911392 287.636364 375.904354 287.841818 375.896782 288.047273 375.888668 288.252727 375.880008 288.458182 375.870794 288.663636 375.861019 288.869091 375.850678 289.074545 375.839764 289.280000 375.828270 289.485455 375.816191 289.690909 375.803520 289.896364 375.790250 290.101818 375.776375 290.307273 375.761888 290.512727 375.746784 290.718182 375.731055 290.923636 375.714696 291.129091 375.697700 291.334545 375.680060 291.540000 375.661771 291.745455 375.642825 291.950909 375.623217 292.156364 375.602940 292.361818 375.581987 292.567273 375.560352 292.772727 375.538029 292.978182 375.515011 293.183636 375.491292 293.389091 375.466866 293.594545 375.441726 293.800000 375.415865 294.005455 375.389278 294.210909 375.361958 294.416364 375.333898 294.621818 375.305092 294.827273 375.275534 295.032727 375.245217 295.238182 375.214135 295.443636 375.182282 295.649091 375.149651 295.854545 375.116235 296.060000 375.082028 296.265455 375.047024 296.470909 375.011217 296.676364 374.974600 296.881818 374.937166 297.087273 374.898910 297.292727 374.859824 297.498182 374.819903 297.703636 374.779140 297.909091 374.737528 298.114545 374.695062 298.320000 374.651734 298.525455 374.607539 298.730909 374.562469 298.936364 374.516520 299.141818 374.469683 299.347273 374.421953 299.552727 374.373324 299.758182 374.323788 299.963636 374.273340 300.169091 374.221973 300.374545 374.169681 300.580000 374.116457 300.785455 374.062295 300.990909 374.007189 301.196364 373.951132 301.401818 373.894117 301.607273 373.836139 301.812727 373.777190 302.018182 373.717265 302.223636 373.656358 302.429091 373.594460 302.634545 373.531568 302.840000 373.467673 303.045455 373.402769 303.250909 373.336851 303.456364 373.269911 303.661818 373.201943 303.867273 373.132941 304.072727 373.062899 304.278182 372.991810 304.483636 372.919667 304.689091 372.846465 304.894545 372.772196 305.100000 372.696855 305.305455 372.620435 305.510909 372.542929 305.716364 372.464331 305.921818 372.384636 306.127273 372.303836 306.332727 372.221924 306.538182 372.138895 306.743636 372.054743 306.949091 371.969460 307.154545 371.883041 307.360000 371.795478 307.565455 371.706766 307.770909 371.616898 307.976364 371.525868 308.181818 371.433670 308.387273 371.340296 308.592727 371.245740 308.798182 371.149997 309.003636 371.053060 309.209091 370.954922 309.414545 370.855576 309.620000 370.755018 309.825455 370.653239 310.030909 370.550234 310.236364 370.445996 310.441818 370.340519 310.647273 370.233797 310.852727 370.125822 311.058182 370.016590 311.263636 369.906092 311.469091 369.794324 311.674545 369.681278 311.880000 369.566947 312.085455 369.451327 312.290909 369.334410 312.496364 369.216189 312.701818 369.096659 312.907273 368.975813 313.112727 368.853645 313.318182 368.730147 313.523636 368.605315 313.729091 368.479141 313.934545 368.351619 314.140000 368.222742 314.345455 368.092505 314.550909 367.960900 314.756364 367.827922 314.961818 367.693564 315.167273 367.557819 315.372727 367.420682 315.578182 367.282145 315.783636 367.142202 315.989091 367.000848 316.194545 366.858075 316.400000 366.713877 316.605455 366.568248 316.810909 366.421181 317.016364 366.272670 317.221818 366.122708 317.427273 365.971290 317.632727 365.818408 317.838182 365.664057 318.043636 365.508229 318.249091 365.350919 318.454545 365.192120 318.660000 365.031826 318.865455 364.870030 319.070909 364.706725 319.276364 364.541906 319.481818 364.375567 319.687273 364.207705 319.892727 364.038342 320.098182 363.867504 320.303636 363.695217 320.509091 363.521507 320.714545 363.346401 320.920000 363.169923 321.125455 362.992102 321.330909 362.812962 321.536364 362.632530 321.741818 362.450832 321.947273 362.267894 322.152727 362.083742 322.358182 361.898403 322.563636 361.711902 322.769091 361.524265 322.974545 361.335520 323.180000 361.145691 323.385455 360.954806 323.590909 360.762889 323.796364 360.569968 324.001818 360.376068 324.207273 360.181216 324.412727 359.985438 324.618182 359.788759 324.823636 359.591206 325.029091 359.392806 325.234545 359.193583 325.440000 358.993565 325.645455 358.792778 325.850909 358.591247 326.056364 358.388999 326.261818 358.186059 326.467273 357.982455 326.672727 357.778212 326.878182 357.573356 327.083636 357.367913 327.289091 357.161911 327.494545 356.955373 327.700000 356.748328 327.905455 356.540800 328.110909 356.332817 328.316364 356.124404 328.521818 355.915587 328.727273 355.706393 328.932727 355.496847 329.138182 355.286976 329.343636 355.076806 329.549091 354.866363 329.754545 354.655673 329.960000 354.444762 330.165455 354.233657 330.370909 354.022383 330.576364 353.810967 330.781818 353.599435 330.987273 353.387812 331.192727 353.176126 331.398182 352.964402 331.603636 352.752666 331.809091 352.540945 332.014545 352.329264 332.220000 352.117651 332.425455 351.906130 332.630909 351.694727 332.836364 351.483471 333.041818 351.272385 333.247273 351.061497 333.452727 350.850832 333.658182 350.640417 333.863636 350.430278 334.069091 350.220440 334.274545 350.010931 334.480000 349.801776 334.685455 349.593001 334.890909 349.384633 335.096364 349.176697 335.301818 348.969221 335.507273 348.762228 335.712727 348.555747 335.918182 348.349803 336.123636 348.144423 336.329091 347.939631 336.534545 347.735456 336.740000 347.531921 336.945455 347.329055 337.150909 347.126883 337.356364 346.925430 337.561818 346.724724 337.767273 346.524790 337.972727 346.325655 338.178182 346.127344 338.383636 345.929884 338.589091 345.733301 338.794545 345.537621 339.000000 345.342870 339.205455 345.149074 339.410909 344.956259 339.616364 344.764452 339.821818 344.573679 340.027273 344.383965 340.232727 344.195338 340.438182 344.007822 340.643636 343.821445 340.849091 343.636232 341.054545 343.452209 341.260000 343.269403 341.465455 343.087840 341.670909 342.907545 341.876364 342.728546 342.081818 342.550867 342.287273 342.374536 342.492727 342.199578 342.698182 342.026020 342.903636 341.853887 343.109091 341.683207 343.314545 341.514004 343.520000 341.346305 343.725455 341.180136 343.930909 341.015523 344.136364 340.852493 344.341818 340.691072 344.547273 340.531285 344.752727 340.373159 344.958182 340.216721 345.163636 340.061995 345.369091 339.909008 345.574545 339.757787 345.780000 339.608357 345.985455 339.460745 346.190909 339.314977 346.396364 339.171079 346.601818 339.029076 346.807273 338.888996 347.012727 338.750864 347.218182 338.614707 347.423636 338.480550 347.629091 338.348419 347.834545 338.218342 348.040000 338.090344 348.245455 337.964450 348.450909 337.840688 348.656364 337.719084 348.861818 337.599662 349.067273 337.482451 349.272727 337.367475 349.478182 337.254761 349.683636 337.144335 349.889091 337.036223 350.094545 336.930452 350.300000 336.827047 350.505455 336.726034 350.710909 336.627440 350.916364 336.531291 351.121818 336.437613 351.327273 336.346432 351.532727 336.257775 351.738182 336.171666 351.943636 336.088133 352.149091 336.007202 352.354545 335.928899 352.560000 335.853249 352.765455 335.780279 352.970909 335.710016 353.176364 335.642485 353.381818 335.577712 353.587273 335.515724 353.792727 335.456546 353.998182 335.400205 354.203636 335.346728 354.409091 335.296139 354.614545 335.248465 354.820000 335.203733 355.025455 335.161969 355.230909 335.123198 355.436364 335.087446 355.641818 335.054741 355.847273 335.025107 356.052727 334.998572 356.258182 334.975161 356.463636 334.954901 356.669091 334.937816 356.874545 334.923935 357.080000 334.913282 357.285455 334.905885 357.490909 334.901768 357.696364 334.900959 357.901818 334.903483 358.107273 334.909366 358.312727 334.918635 358.518182 334.931316 358.723636 334.947435 358.929091 334.967018 359.134545 334.990090 359.340000 335.016679 359.545455 335.046811 359.750909 335.080511 359.956364 335.117806 360.161818 335.158721 360.367273 335.203283 360.572727 335.251519 360.778182 335.303454 360.983636 335.359114 361.189091 335.418525 361.394545 335.481714 361.600000 335.548707 361.805455 335.619529 362.010909 335.694208 362.216364 335.772769 362.421818 335.855238 362.627273 335.941641 362.832727 336.032005 363.038182 336.126356 363.243636 336.224719 363.449091 336.327121 363.654545 336.433589 363.860000 336.544147 364.065455 336.658823 364.270909 336.777643 364.476364 336.900631 364.681818 337.027816 364.887273 337.159223 365.092727 337.294877 365.298182 337.434806 365.503636 337.579035 365.709091 337.727590 365.914545 337.880498 366.120000 338.037784 366.325455 338.199475 366.530909 338.365597 366.736364 338.536176 366.941818 338.711239 367.147273 338.890810 367.352727 339.074917 367.558182 339.263586 367.763636 339.456843 367.969091 339.654713 368.174545 339.857223 368.380000 340.064399 368.585455 340.276268 368.790909 340.492855 368.996364 340.714186 369.201818 340.940288 369.407273 341.171187 369.612727 341.406909 369.818182 341.647480 370.023636 341.892926 370.229091 342.143273 370.434545 342.398548 370.640000 342.658776 370.845455 342.923984 371.050909 343.194186 371.256364 343.469344 371.461818 343.749411 371.667273 344.034338 371.872727 344.324076 372.078182 344.618576 372.283636 344.917789 372.489091 345.221668 372.694545 345.530163 372.900000 345.843225 373.105455 346.160806 373.310909 346.482858 373.516364 346.809330 373.721818 347.140176 373.927273 347.475345 374.132727 347.814790 374.338182 348.158461 374.543636 348.506311 374.749091 348.858289 374.954545 349.214348 375.160000 349.574439 375.365455 349.938513 375.570909 350.306521 375.776364 350.678415 375.981818 351.054146 376.187273 351.433666 376.392727 351.816925 376.598182 352.203875 376.803636 352.594467 377.009091 352.988652 377.214545 353.386382 377.420000 353.787609 377.625455 354.192283 377.830909 354.600355 378.036364 355.011778 378.241818 355.426501 378.447273 355.844478 378.652727 356.265658 378.858182 356.689993 379.063636 357.117435 379.269091 357.547935 379.474545 357.981443 379.680000 358.417913 379.885455 358.857293 380.090909 359.299537 380.296364 359.744595 380.501818 360.192419 380.707273 360.642959 380.912727 361.096168 381.118182 361.551996 381.323636 362.010395 381.529091 362.471315 381.734545 362.934710 381.940000 363.400529 382.145455 363.868723 382.350909 364.339245 382.556364 364.812046 382.761818 365.287077 382.967273 365.764288 383.172727 366.243632 383.378182 366.725060 383.583636 367.208523 383.789091 367.693972 383.994545 368.181359 384.200000 368.670635 384.405455 369.161751 384.610909 369.654659 384.816364 370.149309 385.021818 370.645653 385.227273 371.143643 385.432727 371.643230 385.638182 372.144365 385.843636 372.646999 386.049091 373.151084 386.254545 373.656570 386.460000 374.163410 386.665455 374.671554 386.870909 375.180954 387.076364 375.691562 387.281818 376.203327 387.487273 376.716203 387.692727 377.230139 387.898182 377.745088 388.103636 378.261000 388.309091 378.777828 388.514545 379.295521 388.720000 379.814032 388.925455 380.333312 389.130909 380.853312 389.336364 381.373983 389.541818 381.895277 389.747273 382.417145 389.952727 382.939538 390.158182 383.462408 390.363636 383.985706 390.569091 384.509382 390.774545 385.033390 390.980000 385.557679 391.185455 386.082201 391.390909 386.606908 391.596364 387.131750 391.801818 387.656680 392.007273 388.181647 392.212727 388.706605 392.418182 389.231503 392.623636 389.756293 392.829091 390.280927 393.034545 390.805355 393.240000 391.329530 393.445455 391.853401 393.650909 392.376922 393.856364 392.900043 394.061818 393.422714 394.267273 393.944889 394.472727 394.466517 394.678182 394.987550 394.883636 395.507940 395.089091 396.027638 395.294545 396.546595 395.500000 397.064762 395.705455 397.582090 395.910909 398.098532 396.116364 398.614038 396.321818 399.128559 396.527273 399.642047 396.732727 400.154454 396.938182 400.665730 397.143636 401.175826 397.349091 401.684695 397.554545 402.192287 397.760000 402.698554 397.965455 403.203446 398.170909 403.706916 398.376364 404.208914 398.581818 404.709392 398.787273 405.208302 398.992727 405.705593 399.198182 406.201219 399.403636 406.695129 399.609091 407.187276 399.814545 407.677610 400.020000 408.166083 400.225455 408.652647 400.430909 409.137252 400.636364 409.619850 400.841818 410.100392 401.047273 410.578829 401.252727 411.055113 401.458182 411.529195 401.663636 412.001027 401.869091 412.470559 402.074545 412.937743 402.280000 413.402530 402.485455 413.864871 402.690909 414.324719 402.896364 414.782023 403.101818 415.236736 403.307273 415.688809 403.512727 416.138192 403.718182 416.584838 403.923636 417.028698 404.129091 417.469722 404.334545 417.907862 404.540000 418.343070 404.745455 418.775297 404.950909 419.204494 405.156364 419.630612 405.361818 420.053603 405.567273 420.473418 405.772727 420.890008 405.978182 421.303325 406.183636 421.713320 406.389091 422.119944 406.594545 422.523148 406.800000 422.922884 407.005455 423.319103 407.210909 423.711756 407.416364 424.100796 407.621818 424.486172 407.827273 424.867836 408.032727 425.245740 408.238182 425.619835 408.443636 425.990072 408.649091 426.356402 408.854545 426.718777 409.060000 427.077148 409.265455 427.431467 409.470909 427.781684 409.676364 428.127751 409.881818 428.469620 410.087273 428.807240 410.292727 429.140565 410.498182 429.469545 410.703636 429.794131 410.909091 430.114275 411.114545 430.429929 411.320000 430.741042 411.525455 431.047567 411.730909 431.349455 411.936364 431.646657 412.141818 431.939125 412.347273 432.226810 412.552727 432.509662 412.758182 432.787634 412.963636 433.060677 413.169091 433.328742 413.374545 433.591780 413.580000 433.849743 413.785455 434.102582 413.990909 434.350248 414.196364 434.592692 414.401818 434.829866 414.607273 435.061722 414.812727 435.288209 415.018182 435.509281 415.223636 435.724887 415.429091 435.934980 415.634545 436.139510 415.840000 436.338430 416.045455 436.531689 416.250909 436.719240 416.456364 436.901034 416.661818 437.077022 416.867273 437.247155 417.072727 437.411385 417.278182 437.569663 417.483636 437.721940 417.689091 437.868168 417.894545 438.008297 418.100000 438.142280 418.305455 438.270068 418.510909 438.391611 418.716364 438.506861 418.921818 438.615769 419.127273 438.718288 419.332727 438.814367 419.538182 438.903958 419.743636 438.987013 419.949091 439.063483 420.154545 439.133319 420.360000 439.196473 420.565455 439.252895 420.770909 439.302538 420.976364 439.345351 421.181818 439.381288 421.387273 439.410298 421.592727 439.432334 421.798182 439.447346 422.003636 439.455286 422.209091 439.456105 422.414545 439.449771 422.620000 439.436317 422.825455 439.415791 423.030909 439.388244 423.236364 439.353724 423.441818 439.312280 423.647273 439.263963 423.852727 439.208820 424.058182 439.146902 424.263636 439.078258 424.469091 439.002936 424.674545 438.920986 424.880000 438.832457 425.085455 438.737399 425.290909 438.635860 425.496364 438.527891 425.701818 438.413539 425.907273 438.292855 426.112727 438.165888 426.318182 438.032686 426.523636 437.893300 426.729091 437.747777 426.934545 437.596169 427.140000 437.438523 427.345455 437.274889 427.550909 437.105316 427.756364 436.929854 427.961818 436.748551 428.167273 436.561457 428.372727 436.368622 428.578182 436.170093 428.783636 435.965922 428.989091 435.756156 429.194545 435.540845 429.400000 435.320039 429.605455 435.093786 429.810909 434.862136 430.016364 434.625138 430.221818 434.382841 430.427273 434.135295 430.632727 433.882548 430.838182 433.624650 431.043636 433.361651 431.249091 433.093599 431.454545 432.820543 431.660000 432.542533 431.865455 432.259618 432.070909 431.971848 432.276364 431.679271 432.481818 431.381937 432.687273 431.079895 432.892727 430.773194 433.098182 430.461884 433.303636 430.146013 433.509091 429.825631 433.714545 429.500788 433.920000 429.171531 434.125455 428.837912 434.330909 428.499978 434.536364 428.157779 434.741818 427.811365 434.947273 427.460784 435.152727 427.106086 435.358182 426.747320 435.563636 426.384535 435.769091 426.017781 435.974545 425.647106 436.180000 425.272560 436.385455 424.894192 436.590909 424.512052 436.796364 424.126189 437.001818 423.736651 437.207273 423.343488 437.412727 422.946750 437.618182 422.546485 437.823636 422.142743 438.029091 421.735573 438.234545 421.325024 438.440000 420.911146 438.645455 420.493987 438.850909 420.073597 439.056364 419.650026 439.261818 419.223322 439.467273 418.793534 439.672727 418.360712 439.878182 417.924906 440.083636 417.486164 440.289091 417.044535 440.494545 416.600069 440.700000 416.152815 440.905455 415.702822 441.110909 415.250140 441.316364 414.794817 441.521818 414.336904 441.727273 413.876448 441.932727 413.413500 442.138182 412.948109 442.343636 412.480323 442.549091 412.010193 442.754545 411.537767 442.960000 411.063094 443.165455 410.586224 443.370909 410.107206 443.576364 409.626090 443.781818 409.142923 443.987273 408.657757 444.192727 408.170640 444.398182 407.681620 444.603636 407.190748 444.809091 406.698073 445.014545 406.203644 445.220000 405.707509 445.425455 405.209719 445.630909 404.710323 445.836364 404.209369 446.041818 403.706907 446.247273 403.202987 446.452727 402.697657 446.658182 402.190967 446.863636 401.682965 447.069091 401.173702 447.274545 400.663227 447.480000 400.151587 447.685455 399.638834 447.890909 399.125016 448.096364 398.610182 448.301818 398.094382 448.507273 397.577664 448.712727 397.060079 448.918182 396.541675 449.123636 396.022501 449.329091 395.502607 449.534545 394.982042 449.740000 394.460855 449.945455 393.939095 450.150909 393.416812 450.356364 392.894055 450.561818 392.370873 450.767273 391.847316 450.972727 391.323432 451.178182 390.799271 451.383636 390.274881 451.589091 389.750313 451.794545 389.225616 452.000000 388.700838 452.205455 388.176029 452.410909 387.651238 452.616364 387.126515 452.821818 386.601909 453.027273 386.077468 453.232727 385.553242 453.438182 385.029281 453.643636 384.505633 453.849091 383.982348 454.054545 383.459475 454.260000 382.937063 454.465455 382.415162 454.670909 381.893821 454.876364 381.373088 455.081818 380.853014 455.287273 380.333647 455.492727 379.815036 455.698182 379.297232 455.903636 378.780283 456.109091 378.264237 456.314545 377.749146 456.520000 377.235057 456.725455 376.722021 456.930909 376.210085 457.136364 375.699300 457.341818 375.189715 457.547273 374.681379 457.752727 374.174341 457.958182 373.668650 458.163636 373.164356 458.369091 372.661508 458.574545 372.160155 458.780000 371.660346 458.985455 371.162131 459.190909 370.665559 459.396364 370.170679 459.601818 369.677540 459.807273 369.186191 460.012727 368.696682 460.218182 368.209062 460.423636 367.723381 460.629091 367.239686 460.834545 366.758029 461.040000 366.278457 461.245455 365.801020 461.450909 365.325768 461.656364 364.852749 461.861818 364.382013 462.067273 363.913609 462.272727 363.447587 462.478182 362.983995 462.683636 362.522882 462.889091 362.064299 463.094545 361.608293 463.300000 361.154916 463.505455 360.704214 463.710909 360.256239 463.916364 359.811039 464.121818 359.368663 464.327273 358.929161 464.532727 358.492581 464.738182 358.058974 464.943636 357.628387 465.149091 357.200872 465.354545 356.776476 465.560000 356.355249 465.765455 355.937240 465.970909 355.522498 466.176364 355.111074 466.381818 354.703015 466.587273 354.298371 466.792727 353.897191 466.998182 353.499526 467.203636 353.105423 467.409091 352.714932 467.614545 352.328102 467.820000 351.944983 468.025455 351.565623 468.230909 351.190072 468.436364 350.818380 468.641818 350.450595 468.847273 350.086767 469.052727 349.726945 469.258182 349.371177 469.463636 349.019514 469.669091 348.672005 469.874545 348.328698 470.080000 347.989644 470.285455 347.654891 470.490909 347.324488 470.696364 346.998485 470.901818 346.676931 471.107273 346.359875 471.312727 346.047367 471.518182 345.739455 471.723636 345.436189 471.929091 345.137618 472.134545 344.843792 472.340000 344.554759 472.545455 344.270569 472.750909 343.991271 472.956364 343.716914 473.161818 343.447548 473.367273 343.183222 473.572727 342.923984 473.778182 342.669873 473.983636 342.420880 474.189091 342.176984 474.394545 341.938164 474.600000 341.704401 474.805455 341.475673 475.010909 341.251960 475.216364 341.033241 475.421818 340.819496 475.627273 340.610705 475.832727 340.406846 476.038182 340.207899 476.243636 340.013844 476.449091 339.824661 476.654545 339.640328 476.860000 339.460825 477.065455 339.286131 477.270909 339.116226 477.476364 338.951090 477.681818 338.790702 477.887273 338.635041 478.092727 338.484087 478.298182 338.337819 478.503636 338.196217 478.709091 338.059260 478.914545 337.926928 479.120000 337.799200 479.325455 337.676055 479.530909 337.557473 479.736364 337.443434 479.941818 337.333917 480.147273 337.228901 480.352727 337.128366 480.558182 337.032291 480.763636 336.940656 480.969091 336.853440 481.174545 336.770623 481.380000 336.692184 481.585455 336.618103 481.790909 336.548358 481.996364 336.482930 482.201818 336.421798 482.407273 336.364942 482.612727 336.312340 482.818182 336.263973 483.023636 336.219819 483.229091 336.179859 483.434545 336.144071 483.640000 336.112436 483.845455 336.084932 484.050909 336.061539 484.256364 336.042237 484.461818 336.027004 484.667273 336.015821 484.872727 336.008667 485.078182 336.005522 485.283636 336.006364 485.489091 336.011173 485.694545 336.019930 485.900000 336.032612 486.105455 336.049200 486.310909 336.069673 486.516364 336.094011 486.721818 336.122192 486.927273 336.154198 487.132727 336.190006 487.338182 336.229596 487.543636 336.272948 487.749091 336.320042 487.954545 336.370856 488.160000 336.425371 488.365455 336.483565 488.570909 336.545419 488.776364 336.610911 488.981818 336.680021 489.187273 336.752728 489.392727 336.829013 489.598182 336.908853 489.803636 336.992230 490.009091 337.079122 490.214545 337.169509 490.420000 337.263370 490.625455 337.360685 490.830909 337.461433 491.036364 337.565594 491.241818 337.673147 491.447273 337.784071 491.652727 337.898346 491.858182 338.015952 492.063636 338.136867 492.269091 338.261072 492.474545 338.388546 492.680000 338.519268 492.885455 338.653218 493.090909 338.790375 493.296364 338.930718 493.501818 339.074228 493.707273 339.220883 493.912727 339.370664 494.118182 339.523548 494.323636 339.679517 494.529091 339.838549 494.734545 340.000624 494.940000 340.165722 495.145455 340.333821 495.350909 340.504901 495.556364 340.678942 495.761818 340.855923 495.967273 341.035824 496.172727 341.218623 496.378182 341.404302 496.583636 341.592838 496.789091 341.784211 496.994545 341.978402 497.200000 342.175389 497.405455 342.375152 497.610909 342.577669 497.816364 342.782922 498.021818 342.990889 498.227273 343.201549 498.432727 343.414883 498.638182 343.630869 498.843636 343.849487 499.049091 344.070716 499.254545 344.294537 499.460000 344.520928 499.665455 344.749868 499.870909 344.981338 500.076364 345.215317 500.281818 345.451784 500.487273 345.690718 500.692727 345.932100 500.898182 346.175908 501.103636 346.422122 501.309091 346.670722 501.514545 346.921687 501.720000 347.174996 501.925455 347.430629 502.130909 347.688565 502.336364 347.948784 502.541818 348.211265 502.747273 348.475988 502.952727 348.742933 503.158182 349.012077 503.363636 349.283402 503.569091 349.556886 503.774545 349.832510 503.980000 350.110251 504.185455 350.390091 504.390909 350.672008 504.596364 350.955982 504.801818 351.241992 505.007273 351.530017 505.212727 351.820038 505.418182 352.112034 505.623636 352.405983 505.829091 352.701867 506.034545 352.999663 506.240000 353.299351 506.445455 353.600912 506.650909 353.904324 506.856364 354.209567 507.061818 354.516620 507.267273 354.825463 507.472727 355.136075 507.678182 355.448436 507.883636 355.762525 508.089091 356.078321 508.294545 356.395804 508.500000 356.714954 508.705455 357.035750 508.910909 357.358172 509.116364 357.682198 509.321818 358.007808 509.527273 358.334983 509.732727 358.663700 509.938182 358.993941 510.143636 359.325683 510.349091 359.658907 510.554545 359.993592 510.760000 360.329718 510.965455 360.667263 511.170909 361.006208 511.376364 361.346532 511.581818 361.688215 511.787273 362.031235 511.992727 362.375572 512.198182 362.721206 512.403636 363.068117 512.609091 363.416283 512.814545 363.765684 513.020000 364.116299 513.225455 364.468109 513.430909 364.821092 513.636364 365.175228 513.841818 365.530497 514.047273 365.886877 514.252727 366.244349 514.458182 366.602891 514.663636 366.962483 514.869091 367.323106 515.074545 367.684737 515.280000 368.047357 515.485455 368.410945 515.690909 368.775481 515.896364 369.140943 516.101818 369.507312 516.307273 369.874567 516.512727 370.242687 516.718182 370.611652 516.923636 370.981441 517.129091 371.352034 517.334545 371.723410 517.540000 372.095549 517.745455 372.468429 517.950909 372.842032 518.156364 373.216335 518.361818 373.591319 518.567273 373.966962 518.772727 374.343245 518.978182 374.720147 519.183636 375.097647 519.389091 375.475725 519.594545 375.854360 519.800000 376.233532 520.005455 376.613220 520.210909 376.993403 520.416364 377.374061 520.621818 377.755174 520.827273 378.136721 521.032727 378.518681 521.238182 378.901034 521.443636 379.283760 521.649091 379.666837 521.854545 380.050245 522.060000 380.433964 522.265455 380.817973 522.470909 381.202252 522.676364 381.586780 522.881818 381.971536 523.087273 382.356501 523.292727 382.741653 523.498182 383.126971 523.703636 383.512436 523.909091 383.898027 524.114545 384.283723 524.320000 384.669504 524.525455 385.055349 524.730909 385.441237 524.936364 385.827149 525.141818 386.213067 525.347273 386.598987 525.552727 386.984910 525.758182 387.370835 525.963636 387.756763 526.169091 388.142693 526.374545 388.528625 526.580000 388.914561 526.785455 389.300498 526.990909 389.686438 527.196364 390.072381 527.401818 390.458326 527.607273 390.844273 527.812727 391.230223 528.018182 391.616175 528.223636 392.002130 528.429091 392.388087 528.634545 392.774046 528.840000 393.160008 529.045455 393.545972 529.250909 393.931938 529.456364 394.317907 529.661818 394.703878 529.867273 395.089852 530.072727 395.475827 530.278182 395.861805 530.483636 396.247785 530.689091 396.633768 530.894545 397.019753 531.100000 397.405740 531.305455 397.791729 531.510909 398.177720 531.716364 398.563714 531.921818 398.949710 532.127273 399.335708 532.332727 399.721709 532.538182 400.107711 532.743636 400.493716 532.949091 400.879723 533.154545 401.265731 533.360000 401.651743 533.565455 402.037756 533.770909 402.423771 533.976364 402.809789 534.181818 403.195808 534.387273 403.581830 534.592727 403.967854 534.798182 404.353879 535.003636 404.739907 535.209091 405.125937 535.414545 405.511969 535.620000 405.898003 535.825455 406.284039 536.030909 406.670077 536.236364 407.056117 536.441818 407.442159 536.647273 407.828203 536.852727 408.214249 537.058182 408.600296 537.263636 408.986346 537.469091 409.372398 537.674545 409.758452 537.880000 410.144507 538.085455 410.530565 538.290909 410.916624 538.496364 411.302685 538.701818 411.688748 538.907273 412.074813 539.112727 412.460880 539.318182 412.846949 539.523636 413.233019 539.729091 413.619092 539.934545 414.005166 540.140000 414.391242 540.345455 414.777320 540.550909 415.163399 540.756364 415.549480 540.961818 415.935564 541.167273 416.321648 541.372727 416.707735 541.578182 417.093823 541.783636 417.479913 541.989091 417.866005 542.194545 418.252098 542.400000 418.638193 542.605455 419.024290 542.810909 419.410389 543.016364 419.796489 543.221818 420.182591 543.427273 420.568694 543.632727 420.954799 543.838182 421.340906 544.043636 421.727014 544.249091 422.113124 544.454545 422.499235 544.660000 422.885348 544.865455 423.271463 545.070909 423.657579 545.276364 424.043697 545.481818 424.429816 545.687273 424.815937 545.892727 425.202059 546.098182 425.588183 546.303636 425.974308 546.509091 426.360435 546.714545 426.746563 546.920000 427.132693 547.125455 427.518824 547.330909 427.904956 547.536364 428.291090 547.741818 428.677226 547.947273 429.063363 548.152727 429.449501 548.358182 429.835641 548.563636 430.221782 548.769091 430.607924 548.974545 430.994068 549.180000 431.380213 549.385455 431.766360 549.590909 432.152508 549.796364 432.538657 550.001818 432.924807 550.207273 433.310959 550.412727 433.697112 550.618182 434.083267 550.823636 434.469422 551.029091 434.855579 551.234545 435.241737 551.440000 435.627897 551.645455 436.014057 551.850909 436.400219 552.056364 436.786382 552.261818 437.172546 552.467273 437.558712 552.672727 437.944878 552.878182 438.331046 553.083636 438.717215 553.289091 439.103385 553.494545 439.489557 553.700000 439.875729 553.905455 440.261902 554.110909 440.648077 554.316364 441.034253 554.521818 441.420430 554.727273 441.806607 554.932727 442.192786 555.138182 442.578966 555.343636 442.965147 555.549091 443.351330 555.754545 443.737513 555.960000 444.123697 556.165455 444.509882 556.370909 444.896068 556.576364 445.282255 556.781818 445.668443 556.987273 446.054632 557.192727 446.440822 557.398182 446.827013 557.603636 447.213205 557.809091 447.599398 558.014545 447.985592 558.220000 448.371787 558.425455 448.757982 558.630909 449.144179 558.836364 449.530376 559.041818 449.916574 559.247273 450.302773 559.452727 450.688973 559.658182 451.075174 559.863636 451.461375 560.069091 451.847578 560.274545 452.233781 560.480000 452.619985 560.685455 453.006190 560.890909 453.392395 561.096364 453.778601 561.301818 454.164808 561.507273 454.551016 561.712727 454.937225 561.918182 455.323434 562.123636 455.709644 562.329091 456.095855 562.534545 456.482066 562.740000 456.868278 562.945455 457.254491 563.150909 457.640704 563.356364 458.026918 563.561818 458.413133 563.767273 458.799348 563.972727 459.185564 564.178182 459.571780 564.383636 459.957998 564.589091 460.344215 564.794545 460.730434 565.000000 461.116652 565.205455 461.502872 565.410909 461.889092 565.616364 462.275312 565.821818 462.661533 566.027273 463.047755 566.232727 463.433977 566.438182 463.820200 566.643636 464.206423 566.849091 464.592646 567.054545 464.978870 567.260000 465.365095 567.465455 465.751320 567.670909 466.137545 567.876364 466.523771 568.081818 466.909997 568.287273 467.296223 568.492727 467.682450 568.698182 468.068678 568.903636 468.454906 569.109091 468.841134 569.314545 469.227362 569.520000 469.613591 569.725455 469.999820 569.930909 470.386050 570.136364 470.772279 570.341818 471.158510 570.547273 471.544740 570.752727 471.930971 570.958182 472.317202 571.163636 472.703433 571.369091 473.089664 571.574545 473.475896 571.780000 473.862128 571.985455 474.248360 572.190909 474.634593 572.396364 475.020825 572.601818 475.407058 572.807273 475.793291 573.012727 476.179524 573.218182 476.565757 573.423636 476.951991 573.629091 477.338225 573.834545 477.724458 574.040000 478.110692 574.245455 478.496926 574.450909 478.883160 574.656364 479.269394 574.861818 479.655629 575.067273 480.041863 575.272727 480.428097 575.478182 480.814332 575.683636 481.200566 575.889091 481.586801 576.094545 481.973035 576.300000 482.359270 576.300000 514.000000" /></g></g><g class="titles"><text class="title plot_title" x="400.0" y="26">Ratchadamri 51</text></g><g class="plot overlay" transform="translate(192, 46)"><g class="series serie-0 color-0"><g class="dots"><circle class="dot reactive tooltip-trigger" cx="11.3" cy="278.5692371170282" r="2.5" /><desc class="value">128000</desc><desc class="x top">11.3</desc><desc class="y top">278.5692371170282</desc><desc class="x_label">Jan</desc></g><g class="dots"><circle class="dot reactive tooltip-trigger" cx="62.66363636363637" cy="10.424457219932606" r="2.5" /><desc class="value">153000</desc><desc class="x ">62.66363636363637</desc><desc class="y ">10.424457219932606</desc><desc class="x_label">Feb</desc></g><g class="dots"><circle class="dot reactive tooltip-trigger" cx="114.02727272727273" cy="300.02081950879585" r="2.5" /><desc class="value">126000</desc><desc class="x top">114.02727272727273</desc><desc class="y top">300.02081950879585</desc><desc class="x_label">Mar</desc></g><g class="dots"><circle class="dot reactive tooltip-trigger" cx="165.39090909090908" cy="503.8108522305885" r="2.5" /><desc class="value">107000</desc><desc class="x top">165.39090909090908</desc><desc class="y top">503.8108522305885</desc><desc class="x_label">Apr</desc></g><g class="dots"><circle class="dot reactive tooltip-trigger" cx="216.75454545454548" cy="407.2787314676341" r="2.5" /><desc class="value">116000</desc><desc class="x top">216.75454545454548</desc><desc class="y top">407.2787314676341</desc><desc class="x_label">May</desc></g><g class="dots"><circle class="dot reactive tooltip-trigger" cx="268.1181818181818" cy="375.10135787998263" r="2.5" /><desc class="value">119000</desc><desc class="x top">268.1181818181818</desc><desc class="y top">375.10135787998263</desc><desc class="x_label">Jun</desc></g><g class="dots"><circle class="dot reactive tooltip-trigger" cx="319.4818181818182" cy="364.37556668409877" r="2.5" /><desc class="value">120000</desc><desc class="x left top">319.4818181818182</desc><desc class="y left top">364.37556668409877</desc><desc class="x_label">Jul</desc></g><g class="dots"><circle class="dot reactive tooltip-trigger" cx="370.8454545454546" cy="342.92398429233117" r="2.5" /><desc class="value">122000</desc><desc class="x left top">370.8454545454546</desc><desc class="y left top">342.92398429233117</desc><desc class="x_label">Aug</desc></g><g class="dots"><circle class="dot reactive tooltip-trigger" cx="422.20909090909095" cy="439.45610505528555" r="2.5" /><desc class="value">113000</desc><desc class="x left top">422.20909090909095</desc><desc class="y left top">439.45610505528555</desc><desc class="x_label">Sep</desc></g><g class="dots"><circle class="dot reactive tooltip-trigger" cx="473.5727272727273" cy="342.92398429233117" r="2.5" /><desc class="value">122000</desc><desc class="x left top">473.5727272727273</desc><desc class="y left top">342.92398429233117</desc><desc class="x_label">Oct</desc></g><g class="dots"><circle class="dot reactive tooltip-trigger" cx="524.9363636363636" cy="385.82714907586643" r="2.5" /><desc class="value">118000</desc><desc class="x left top">524.9363636363636</desc><desc class="y left top">385.82714907586643</desc><desc class="x_label">Nov</desc></g><g class="dots"><circle class="dot reactive tooltip-trigger" cx="576.3000000000001" cy="482.35926983882086" r="2.5" /><desc class="value">109000</desc><desc class="x left top">576.3000000000001</desc><desc class="y left top">482.35926983882086</desc><desc class="x_label">Dec</desc></g></g></g><g class="plot text-overlay" transform="translate(192, 46)"><g class="series serie-0 color-0" /></g><g class="plot tooltip-overlay" transform="translate(192, 46)"><g class="tooltip" style="opacity: 0" transform="translate(0 0)"><rect class="tooltip-box" height="0" rx="0" ry="0" width="0" /><g class="text" /></g></g><g class="legends" transform="translate(10, 56)"><g class="legend reactive activate-serie" id="activate-serie-0"><rect class="color-0 reactive" height="12" width="12" x="0.0" y="1.0" /><text x="17.0" y="11.2">Ratchadamri</text></g></g><g class="legends" transform="translate(790, 56)" /></g></svg>