<?xml version='1.0' encoding='utf-8'?>
<svg xmlns:xlink="http://www.w3.org/1999/xlink" class="pygal-chart" id="chart-56a4b446-cde5-4f70-b133-464c73145689" viewBox="0 0 800 600" xmlns="http://www.w3.org/2000/svg"><!--Generated with pygal 2.0.11 (etree) ©Kozea 2011-2015 on 2015-12-10--><!--http://pygal.org--><!--http://github.com/Kozea/pygal--><defs><style type="text/css">#chart-56a4b446-cde5-4f70-b133-464c73145689{-webkit-user-select:none;-webkit-font-smoothing:antialiased;font-family:Consolas,"Liberation Mono",Menlo,Courier,monospace}#chart-56a4b446-cde5-4f70-b133-464c73145689 .title{font-family:Consolas,"Liberation Mono",Menlo,Courier,monospace;font-size:16px}#chart-56a4b446-cde5-4f70-b133-464c73145689 .legends .legend text{font-family:Consolas,"Liberation Mono",Menlo,Courier,monospace;font-size:14px}#chart-56a4b446-cde5-4f70-b133-464c73145689 .axis text{font-family:Consolas,"Liberation Mono",Menlo,Courier,monospace;font-size:10px}#chart-56a4b446-cde5-4f70-b133-464c73145689 .axis text.major{font-family:Consolas,"Liberation Mono",Menlo,Courier,monospace;font-size:10px}#chart-56a4b446-cde5-4f70-b133-464c73145689 .text-overlay text.value{font-family:Consolas,"Liberation Mono",Menlo,Courier,monospace;font-size:16px}#chart-56a4b446-cde5-4f70-b133-464c73145689 .text-overlay text.label{font-family:Consolas,"Liberation Mono",Menlo,Courier,monospace;font-size:10px}#chart-56a4b446-cde5-4f70-b133-464c73145689 .tooltip{font-family:Consolas,"Liberation Mono",Menlo,Courier,monospace;font-size:14px}#chart-56a4b446-cde5-4f70-b133-464c73145689 text.no_data{font-family:Consolas,"Liberation Mono",Menlo,Courier,monospace;font-size:64px}
#chart-56a4b446-cde5-4f70-b133-464c73145689{background-color:black}#chart-56a4b446-cde5-4f70-b133-464c73145689 path,#chart-56a4b446-cde5-4f70-b133-464c73145689 line,#chart-56a4b446-cde5-4f70-b133-464c73145689 rect,#chart-56a4b446-cde5-4f70-b133-464c73145689 circle{-webkit-transition:250ms;-moz-transition:250ms;transition:250ms}#chart-56a4b446-cde5-4f70-b133-464c73145689 .graph &gt; .background{fill:black}#chart-56a4b446-cde5-4f70-b133-464c73145689 .plot &gt; .background{fill:#111}#chart-56a4b446-cde5-4f70-b133-464c73145689 .graph{fill:#999}#chart-56a4b446-cde5-4f70-b133-464c73145689 text.no_data{fill:#eee}#chart-56a4b446-cde5-4f70-b133-464c73145689 .title{fill:#eee}#chart-56a4b446-cde5-4f70-b133-464c73145689 .legends .legend text{fill:#999}#chart-56a4b446-cde5-4f70-b133-464c73145689 .legends .legend:hover text{fill:#eee}#chart-56a4b446-cde5-4f70-b133-464c73145689 .axis .line{stroke:#eee}#chart-56a4b446-cde5-4f70-b133-464c73145689 .axis .guide.line{stroke:#555}#chart-56a4b446-cde5-4f70-b133-464c73145689 .axis .major.line{stroke:#999}#chart-56a4b446-cde5-4f70-b133-464c73145689 .axis text.major{fill:#eee}#chart-56a4b446-cde5-4f70-b133-464c73145689 .axis.y .guides:hover .guide.line,#chart-56a4b446-cde5-4f70-b133-464c73145689 .line-graph .axis.x .guides:hover .guide.line,#chart-56a4b446-cde5-4f70-b133-464c73145689 .stackedline-graph .axis.x .guides:hover .guide.line,#chart-56a4b446-cde5-4f70-b133-464c73145689 .xy-graph .axis.x .guides:hover .guide.line{stroke:#eee}#chart-56a4b446-cde5-4f70-b133-464c73145689 .axis .guides:hover text{fill:#eee}#chart-56a4b446-cde5-4f70-b133-464c73145689 .reactive{fill-opacity:.8}#chart-56a4b446-cde5-4f70-b133-464c73145689 .reactive.active,#chart-56a4b446-cde5-4f70-b133-464c73145689 .active .reactive{fill-opacity:.4;stroke-width:4}#chart-56a4b446-cde5-4f70-b133-464c73145689 .series text{fill:#eee}#chart-56a4b446-cde5-4f70-b133-464c73145689 .tooltip rect{fill:#111;stroke:#eee;-webkit-transition:opacity 250ms;-moz-transition:opacity 250ms;transition:opacity 250ms}#chart-56a4b446-cde5-4f70-b133-464c73145689 .tooltip .label{fill:#999}#chart-56a4b446-cde5-4f70-b133-464c73145689 .tooltip .label{fill:#999}#chart-56a4b446-cde5-4f70-b133-464c73145689 .tooltip .legend{font-size:.8em;fill:#555}#chart-56a4b446-cde5-4f70-b133-464c73145689 .tooltip .x_label{font-size:.6em;fill:#eee}#chart-56a4b446-cde5-4f70-b133-464c73145689 .tooltip .xlink{font-size:.5em;text-decoration:underline}#chart-56a4b446-cde5-4f70-b133-464c73145689 .tooltip .value{font-size:1.5em}#chart-56a4b446-cde5-4f70-b133-464c73145689 .map-element{fill:#111;stroke:#555 !important}#chart-56a4b446-cde5-4f70-b133-464c73145689 .map-element .reactive{fill-opacity:inherit}#chart-56a4b446-cde5-4f70-b133-464c73145689 .color-0,#chart-56a4b446-cde5-4f70-b133-464c73145689 .color-0 a:visited{stroke:#ff5995;fill:#ff5995}#chart-56a4b446-cde5-4f70-b133-464c73145689 .text-overlay .color-0 text{fill:black}
#chart-56a4b446-cde5-4f70-b133-464c73145689 text.no_data{text-anchor:middle}#chart-56a4b446-cde5-4f70-b133-464c73145689 .guide.line{fill:none}#chart-56a4b446-cde5-4f70-b133-464c73145689 .centered{text-anchor:middle}#chart-56a4b446-cde5-4f70-b133-464c73145689 .title{text-anchor:middle}#chart-56a4b446-cde5-4f70-b133-464c73145689 .legends .legend text{fill-opacity:1}#chart-56a4b446-cde5-4f70-b133-464c73145689 .axis.x text{text-anchor:middle}#chart-56a4b446-cde5-4f70-b133-464c73145689 .axis.x:not(.web) text[transform]{text-anchor:start}#chart-56a4b446-cde5-4f70-b133-464c73145689 .axis.x:not(.web) text[transform].backwards{text-anchor:end}#chart-56a4b446-cde5-4f70-b133-464c73145689 .axis.y text{text-anchor:end}#chart-56a4b446-cde5-4f70-b133-464c73145689 .axis.y text[transform].backwards{text-anchor:start}#chart-56a4b446-cde5-4f70-b133-464c73145689 .axis.y2 text{text-anchor:start}#chart-56a4b446-cde5-4f70-b133-464c73145689 .axis.y2 text[transform].backwards{text-anchor:end}#chart-56a4b446-cde5-4f70-b133-464c73145689 .axis .guide.line{stroke-dasharray:4,4}#chart-56a4b446-cde5-4f70-b133-464c73145689 .axis .major.guide.line{stroke-dasharray:6,6}#chart-56a4b446-cde5-4f70-b133-464c73145689 .horizontal .axis.y .guide.line,#chart-56a4b446-cde5-4f70-b133-464c73145689 .horizontal .axis.y2 .guide.line,#chart-56a4b446-cde5-4f70-b133-464c73145689 .vertical .axis.x .guide.line{opacity:0}#chart-56a4b446-cde5-4f70-b133-464c73145689 .horizontal .axis.always_show .guide.line,#chart-56a4b446-cde5-4f70-b133-464c73145689 .vertical .axis.always_show .guide.line{opacity:1 !important}#chart-56a4b446-cde5-4f70-b133-464c73145689 .axis.y .guides:hover .guide.line,#chart-56a4b446-cde5-4f70-b133-464c73145689 .axis.y2 .guides:hover .guide.line,#chart-56a4b446-cde5-4f70-b133-464c73145689 .axis.x .guides:hover .guide.line{opacity:1}#chart-56a4b446-cde5-4f70-b133-464c73145689 .axis .guides:hover text{opacity:1}#chart-56a4b446-cde5-4f70-b133-464c73145689 .nofill{fill:none}#chart-56a4b446-cde5-4f70-b133-464c73145689 .subtle-fill{fill-opacity:.2}#chart-56a4b446-cde5-4f70-b133-464c73145689 .dot{stroke-width:1px;fill-opacity:1}#chart-56a4b446-cde5-4f70-b133-464c73145689 .dot.active{stroke-width:5px}#chart-56a4b446-cde5-4f70-b133-464c73145689 .dot.negative{fill:transparent}#chart-56a4b446-cde5-4f70-b133-464c73145689 text,#chart-56a4b446-cde5-4f70-b133-464c73145689 tspan{stroke:none !important}#chart-56a4b446-cde5-4f70-b133-464c73145689 .series text.active{opacity:1}#chart-56a4b446-cde5-4f70-b133-464c73145689 .tooltip rect{fill-opacity:.95;stroke-width:.5}#chart-56a4b446-cde5-4f70-b133-464c73145689 .tooltip text{fill-opacity:1}#chart-56a4b446-cde5-4f70-b133-464c73145689 .showable{visibility:hidden}#chart-56a4b446-cde5-4f70-b133-464c73145689 .showable.shown{visibility:visible}</style><script type="text/javascript">window.pygal = window.pygal || {};window.pygal.config = window.pygal.config || {};window.pygal.config['56a4b446-cde5-4f70-b133-464c73145689'] = {"spacing": 10, "inner_radius": 0, "order_min": null, "truncate_label": null, "x_title": null, "style": {"foreground_strong": "#eee", "value_colors": [], "title_font_family": "Consolas, \"Liberation Mono\", Menlo, Courier, monospace", "major_guide_stroke_dasharray": "6,6", "background": "black", "value_font_size": 16, "guide_stroke_dasharray": "4,4", "colors": ["#ff5995", "#b6e354", "#feed6c", "#8cedff", "#9e6ffe", "#899ca1", "#f8f8f2", "#bf4646", "#516083", "#f92672", "#82b414", "#fd971f", "#56c2d6", "#808384", "#8c54fe", "#465457"], "legend_font_family": "Consolas, \"Liberation Mono\", Menlo, Courier, monospace", "no_data_font_size": 64, "legend_font_size": 14, "opacity": ".8", "title_font_size": 16, "foreground_subtle": "#555", "label_font_family": "Consolas, \"Liberation Mono\", Menlo, Courier, monospace", "value_label_font_family": "Consolas, \"Liberation Mono\", Menlo, Courier, monospace", "value_font_family": "Consolas, \"Liberation Mono\", Menlo, Courier, monospace", "major_label_font_size": 10, "no_data_font_family": "Consolas, \"Liberation Mono\", Menlo, Courier, monospace", "major_label_font_family": "Consolas, \"Liberation Mono\", Menlo, Courier, monospace", "tooltip_font_size": 14, "label_font_size": 10, "tooltip_font_family": "Consolas, \"Liberation Mono\", Menlo, Courier, monospace", "transition": "250ms", "value_label_font_size": 10, "plot_background": "#111", "opacity_hover": ".4", "font_family": "Consolas, \"Liberation Mono\", Menlo, Courier, monospace", "foreground": "#999"}, "y_labels_major": null, "inverse_y_axis": false, "show_dots": true, "js": ["//kozea.github.io/pygal.js/2.0.x/pygal-tooltips.min.js"], "range": null, "human_readable": false, "margin": 20, "show_x_labels": true, "legend_box_size": 12, "no_data_text": "No data", "strict": false, "show_minor_y_labels": true, "legend_at_bottom": false, "show_only_major_dots": false, "include_x_axis": false, "x_labels": ["Jan", "Feb", "Mar", "Apr", "May", "Jun", "Jul", "Aug", "Sep", "Oct", "Nov", "Dec"], "x_labels_major": null, "x_label_rotation": 0, "disable_xml_declaration": false, "y_title": null, "show_y_guides": true, "max_scale": 16, "margin_right": null, "defs": [], "tooltip_border_radius": 0, "xrange": null, "print_zeroes": true, "show_legend": true, "no_prefix": false, "y_labels_major_every": null, "fill": true, "width": 800, "min_scale": 4, "title": "Victory-Monument 51", "half_pie": false, "x_labels_major_count": null, "zero": 0, "margin_bottom": null, "legends": ["Victory-Monument"], "secondary_range": null, "margin_top": null, "margin_left": null, "print_labels": false, "legend_at_bottom_columns": null, "print_values": false, "value_formatter": null, "explicit_size": false, "dynamic_print_values": false, "interpolate": "cubic", "box_mode": "extremes", "interpolation_precision": 250, "x_value_formatter": null, "show_y_labels": true, "height": 600, "force_uri_protocol": null, "interpolation_parameters": {}, "dots_size": 2.5, "logarithmic": false, "stroke_style": null, "pretty_print": false, "stack_from_top": false, "stroke": true, "y_label_rotation": 0, "rounded_bars": null, "y_labels": null, "missing_value_fill_truncation": "x", "show_x_guides": false, "x_labels_major_every": null, "truncate_legend": null, "css": ["file://style.css", "file://graph.css"], "tooltip_fancy_mode": true, "y_labels_major_count": null, "show_minor_x_labels": true}</script><script type="text/javascript" xlink:href="//kozea.github.io/pygal.js/2.0.x/pygal-tooltips.min.js" /></defs><title>Victory-Monument 51</title><g class="graph line-graph vertical"><rect class="background" height="600" width="800" x="0" y="0" /><g class="plot" transform="translate(226, 46)"><rect class="background" height="514" width="554.0" x="0" y="0" /><g class="axis y"><path class="line" d="M0.000000 514.000000 h554.000000" /><g class="guides"><path class="major guide line" d="M0.000000 462.826529 h554.000000" /><text class="major" x="-5" y="466.32652881032493">700000.0</text><title>700000.0</title></g><g class="guides"><path class="guide line" d="M0.000000 414.151856 h554.000000" /><text class="" x="-5" y="417.6518559895023">720000.0</text><title>720000.0</title></g><g class="guides"><path class="guide line" d="M0.000000 365.477183 h554.000000" /><text class="" x="-5" y="368.97718316867963">740000.0</text><title>740000.0</title></g><g class="guides"><path class="guide line" d="M0.000000 316.802510 h554.000000" /><text class="" x="-5" y="320.30251034785704">760000.0</text><title>760000.0</title></g><g class="guides"><path class="guide line" d="M0.000000 268.127838 h554.000000" /><text class="" x="-5" y="271.62783752703444">780000.0</text><title>780000.0</title></g><g class="guides"><path class="major guide line" d="M0.000000 219.453165 h554.000000" /><text class="major" x="-5" y="222.95316470621185">800000.0</text><title>800000.0</title></g><g class="guides"><path class="guide line" d="M0.000000 170.778492 h554.000000" /><text class="" x="-5" y="174.2784918853892">820000.0</text><title>820000.0</title></g><g class="guides"><path class="guide line" d="M0.000000 122.103819 h554.000000" /><text class="" x="-5" y="125.60381906456661">840000.0</text><title>840000.0</title></g><g class="guides"><path class="guide line" d="M0.000000 73.429146 h554.000000" /><text class="" x="-5" y="76.92914624374396">860000.0</text><title>860000.0</title></g><g class="guides"><path class="guide line" d="M0.000000 24.754473 h554.000000" /><text class="" x="-5" y="28.254473422921365">880000.0</text><title>880000.0</title></g></g><g class="axis x"><g class="guides"><path class="line" d="M10.653846 0.000000 v514.000000" /><text class="" x="10.653846153846153" y="529.0">Jan</text></g><g class="guides"><path class="guide line" d="M59.080420 0.000000 v514.000000" /><text class="" x="59.08041958041958" y="529.0">Feb</text></g><g class="guides"><path class="guide line" d="M107.506993 0.000000 v514.000000" /><text class="" x="107.506993006993" y="529.0">Mar</text></g><g class="guides"><path class="guide line" d="M155.933566 0.000000 v514.000000" /><text class="" x="155.93356643356643" y="529.0">Apr</text></g><g class="guides"><path class="guide line" d="M204.360140 0.000000 v514.000000" /><text class="" x="204.36013986013987" y="529.0">May</text></g><g class="guides"><path class="guide line" d="M252.786713 0.000000 v514.000000" /><text class="" x="252.78671328671325" y="529.0">Jun</text></g><g class="guides"><path class="guide line" d="M301.213287 0.000000 v514.000000" /><text class="" x="301.2132867132867" y="529.0">Jul</text></g><g class="guides"><path class="guide line" d="M349.639860 0.000000 v514.000000" /><text class="" x="349.6398601398601" y="529.0">Aug</text></g><g class="guides"><path class="guide line" d="M398.066434 0.000000 v514.000000" /><text class="" x="398.06643356643355" y="529.0">Sep</text></g><g class="guides"><path class="guide line" d="M446.493007 0.000000 v514.000000" /><text class="" x="446.493006993007" y="529.0">Oct</text></g><g class="guides"><path class="guide line" d="M494.919580 0.000000 v514.000000" /><text class="" x="494.9195804195804" y="529.0">Nov</text></g><g class="guides"><path class="guide line" d="M543.346154 0.000000 v514.000000" /><text class="" x="543.3461538461538" y="529.0">Dec</text></g></g><g class="series serie-0 color-0"><path class="line reactive" d="M10.653846 514.000000 L10.653846 251.091702 10.847552 252.996333 11.041259 254.900868 11.234965 256.805212 11.428671 258.709267 11.622378 260.612939 11.816084 262.516131 12.009790 264.418748 12.203497 266.320693 12.397203 268.221870 12.590909 270.122185 12.784615 272.021539 12.978322 273.919839 13.172028 275.816987 13.365734 277.712889 13.559441 279.607447 13.753147 281.500566 13.946853 283.392150 14.140559 285.282104 14.334266 287.170331 14.527972 289.056734 14.721678 290.941220 14.915385 292.823690 15.109091 294.704051 15.302797 296.582204 15.496503 298.458056 15.690210 300.331509 15.883916 302.202468 16.077622 304.070836 16.271329 305.936519 16.465035 307.799419 16.658741 309.659442 16.852448 311.516490 17.046154 313.370469 17.239860 315.221282 17.433566 317.068833 17.627273 318.913027 17.820979 320.753767 18.014685 322.590957 18.208392 324.424502 18.402098 326.254306 18.595804 328.080272 18.789510 329.902305 18.983217 331.720309 19.176923 333.534188 19.370629 335.343846 19.564336 337.149187 19.758042 338.950115 19.951748 340.746534 20.145455 342.538348 20.339161 344.325462 20.532867 346.107779 20.726573 347.885204 20.920280 349.657640 21.113986 351.424991 21.307692 353.187162 21.501399 354.944057 21.695105 356.695580 21.888811 358.441634 22.082517 360.182125 22.276224 361.916955 22.469930 363.646030 22.663636 365.369252 22.857343 367.086527 23.051049 368.797758 23.244755 370.502849 23.438462 372.201705 23.632168 373.894229 23.825874 375.580325 24.019580 377.259899 24.213287 378.932853 24.406993 380.599091 24.600699 382.258518 24.794406 383.911039 24.988112 385.556556 25.181818 387.194974 25.375524 388.826197 25.569231 390.450129 25.762937 392.066675 25.956643 393.675737 26.150350 395.277221 26.344056 396.871031 26.537762 398.457070 26.731469 400.035242 26.925175 401.605452 27.118881 403.167604 27.312587 404.721601 27.506294 406.267348 27.700000 407.804749 27.893706 409.333708 28.087413 410.854129 28.281119 412.365916 28.474825 413.868974 28.668531 415.363205 28.862238 416.848515 29.055944 418.324806 29.249650 419.791985 29.443357 421.249954 29.637063 422.698617 29.830769 424.137879 30.024476 425.567644 30.218182 426.987815 30.411888 428.398297 30.605594 429.798994 30.799301 431.189810 30.993007 432.570649 31.186713 433.941415 31.380420 435.302012 31.574126 436.652345 31.767832 437.992317 31.961538 439.321832 32.155245 440.640794 32.348951 441.949108 32.542657 443.246677 32.736364 444.533406 32.930070 445.809199 33.123776 447.073960 33.317483 448.327592 33.511189 449.570000 33.704895 450.801088 33.898601 452.020761 34.092308 453.228921 34.286014 454.425473 34.479720 455.610322 34.673427 456.783371 34.867133 457.944524 35.060839 459.093686 35.254545 460.230760 35.448252 461.355651 35.641958 462.468262 35.835664 463.568498 36.029371 464.656263 36.223077 465.731461 36.416783 466.793995 36.610490 467.843771 36.804196 468.880691 36.997902 469.904661 37.191608 470.915583 37.385315 471.913363 37.579021 472.897905 37.772727 473.869111 37.966434 474.826887 38.160140 475.771137 38.353846 476.701764 38.547552 477.618673 38.741259 478.521768 38.934965 479.410952 39.128671 480.286130 39.322378 481.147206 39.516084 481.994084 39.709790 482.826668 39.903497 483.644862 40.097203 484.448570 40.290909 485.237697 40.484615 486.012146 40.678322 486.771821 40.872028 487.516627 41.065734 488.246467 41.259441 488.961245 41.453147 489.660867 41.646853 490.345235 41.840559 491.014254 42.034266 491.667828 42.227972 492.305860 42.421678 492.928256 42.615385 493.534919 42.809091 494.125752 43.002797 494.700661 43.196503 495.259550 43.390210 495.802321 43.583916 496.328880 43.777622 496.839130 43.971329 497.332976 44.165035 497.810322 44.358741 498.271071 44.552448 498.715128 44.746154 499.142396 44.939860 499.552781 45.133566 499.946185 45.327273 500.322514 45.520979 500.681670 45.714685 501.023559 45.908392 501.348084 46.102098 501.655149 46.295804 501.944658 46.489510 502.216516 46.683217 502.470626 46.876923 502.706893 47.070629 502.925221 47.264336 503.125513 47.458042 503.307673 47.651748 503.471607 47.845455 503.617217 48.039161 503.744409 48.232867 503.853085 48.426573 503.943151 48.620280 504.014509 48.813986 504.067065 49.007692 504.100722 49.201399 504.115385 49.395105 504.110956 49.588811 504.087342 49.782517 504.044445 49.976224 503.982169 50.169930 503.900419 50.363636 503.799099 50.557343 503.678113 50.751049 503.537364 50.944755 503.376758 51.138462 503.196197 51.332168 502.995587 51.525874 502.774831 51.719580 502.533833 51.913287 502.272497 52.106993 501.990728 52.300699 501.688429 52.494406 501.365504 52.688112 501.021858 52.881818 500.657395 53.075524 500.272018 53.269231 499.865632 53.462937 499.438141 53.656643 498.989449 53.850350 498.519460 54.044056 498.028078 54.237762 497.515207 54.431469 496.980751 54.625175 496.424614 54.818881 495.846700 55.012587 495.246914 55.206294 494.625160 55.400000 493.981341 55.593706 493.315361 55.787413 492.627125 55.981119 491.916537 56.174825 491.183500 56.368531 490.427920 56.562238 489.649699 56.755944 488.848742 56.949650 488.024953 57.143357 487.178237 57.337063 486.308496 57.530769 485.415636 57.724476 484.499560 57.918182 483.560173 58.111888 482.597377 58.305594 481.611079 58.499301 480.601181 58.693007 479.567587 58.886713 478.510203 59.080420 477.428931 59.274126 476.323727 59.467832 475.194755 59.661538 474.042228 59.855245 472.866361 60.048951 471.667367 60.242657 470.445462 60.436364 469.200859 60.630070 467.933772 60.823776 466.644417 61.017483 465.333006 61.211189 463.999755 61.404895 462.644877 61.598601 461.268587 61.792308 459.871100 61.986014 458.452628 62.179720 457.013388 62.373427 455.553592 62.567133 454.073455 62.760839 452.573191 62.954545 451.053015 63.148252 449.513141 63.341958 447.953783 63.535664 446.375156 63.729371 444.777473 63.923077 443.160949 64.116783 441.525797 64.310490 439.872234 64.504196 438.200472 64.697902 436.510725 64.891608 434.803209 65.085315 433.078137 65.279021 431.335724 65.472727 429.576183 65.666434 427.799730 65.860140 426.006578 66.053846 424.196941 66.247552 422.371035 66.441259 420.529072 66.634965 418.671268 66.828671 416.797836 67.022378 414.908992 67.216084 413.004948 67.409790 411.085920 67.603497 409.152121 67.797203 407.203766 67.990909 405.241069 68.184615 403.264245 68.378322 401.273507 68.572028 399.269070 68.765734 397.251148 68.959441 395.219955 69.153147 393.175706 69.346853 391.118615 69.540559 389.048896 69.734266 386.966763 69.927972 384.872431 70.121678 382.766113 70.315385 380.648025 70.509091 378.518380 70.702797 376.377393 70.896503 374.225277 71.090210 372.062248 71.283916 369.888519 71.477622 367.704304 71.671329 365.509818 71.865035 363.305276 72.058741 361.090891 72.252448 358.866877 72.446154 356.633449 72.639860 354.390821 72.833566 352.139208 73.027273 349.878823 73.220979 347.609881 73.414685 345.332596 73.608392 343.047183 73.802098 340.753855 73.995804 338.452826 74.189510 336.144312 74.383217 333.828527 74.576923 331.505683 74.770629 329.175997 74.964336 326.839682 75.158042 324.496952 75.351748 322.148022 75.545455 319.793105 75.739161 317.432417 75.932867 315.066171 76.126573 312.694581 76.320280 310.317863 76.513986 307.936229 76.707692 305.549895 76.901399 303.159074 77.095105 300.763981 77.288811 298.364830 77.482517 295.961836 77.676224 293.555212 77.869930 291.145173 78.063636 288.731933 78.257343 286.315707 78.451049 283.896708 78.644755 281.475151 78.838462 279.051249 79.032168 276.625219 79.225874 274.197273 79.419580 271.767625 79.613287 269.336491 79.806993 266.904084 80.000699 264.470619 80.194406 262.036309 80.388112 259.601370 80.581818 257.166015 80.775524 254.730458 80.969231 252.294914 81.162937 249.859598 81.356643 247.424722 81.550350 244.990503 81.744056 242.557153 81.937762 240.124887 82.131469 237.693920 82.325175 235.264465 82.518881 232.836737 82.712587 230.410950 82.906294 227.987318 83.100000 225.566056 83.293706 223.147378 83.487413 220.731497 83.681119 218.318630 83.874825 215.908988 84.068531 213.502788 84.262238 211.100243 84.455944 208.701567 84.649650 206.306974 84.843357 203.916679 85.037063 201.530897 85.230769 199.149841 85.424476 196.773725 85.618182 194.402764 85.811888 192.037173 86.005594 189.677164 86.199301 187.322953 86.393007 184.974754 86.586713 182.632781 86.780420 180.297249 86.974126 177.968371 87.167832 175.646362 87.361538 173.331435 87.555245 171.023807 87.748951 168.723689 87.942657 166.431298 88.136364 164.146847 88.330070 161.870550 88.523776 159.602621 88.717483 157.343276 88.911189 155.092727 89.104895 152.851190 89.298601 150.618878 89.492308 148.396007 89.686014 146.182789 89.879720 143.979440 90.073427 141.786173 90.267133 139.603203 90.460839 137.430744 90.654545 135.269010 90.848252 133.118216 91.041958 130.978576 91.235664 128.850304 91.429371 126.733614 91.623077 124.628721 91.816783 122.535839 92.010490 120.455181 92.204196 118.386963 92.397902 116.331399 92.591608 114.288702 92.785315 112.259088 92.979021 110.242770 93.172727 108.239962 93.366434 106.250879 93.560140 104.275735 93.753846 102.314745 93.947552 100.368122 94.141259 98.436081 94.334965 96.518836 94.528671 94.616602 94.722378 92.729592 94.916084 90.858020 95.109790 89.002102 95.303497 87.162051 95.497203 85.338082 95.690909 83.530409 95.884615 81.739245 96.078322 79.964806 96.272028 78.207306 96.465734 76.466958 96.659441 74.743978 96.853147 73.038578 97.046853 71.350975 97.240559 69.681381 97.434266 68.030011 97.627972 66.397079 97.821678 64.782801 98.015385 63.187388 98.209091 61.611057 98.402797 60.054022 98.596503 58.516496 98.790210 56.998693 98.983916 55.500829 99.177622 54.023117 99.371329 52.565772 99.565035 51.129007 99.758741 49.713038 99.952448 48.318078 100.146154 46.944341 100.339860 45.592042 100.533566 44.261396 100.727273 42.952615 100.920979 41.665916 101.114685 40.401511 101.308392 39.159615 101.502098 37.940442 101.695804 36.744207 101.889510 35.571124 102.083217 34.421407 102.276923 33.295270 102.470629 32.192928 102.664336 31.114594 102.858042 30.060484 103.051748 29.030811 103.245455 28.025789 103.439161 27.045634 103.632867 26.090558 103.826573 25.160777 104.020280 24.256504 104.213986 23.377954 104.407692 22.525341 104.601399 21.698880 104.795105 20.898784 104.988811 20.125268 105.182517 19.378546 105.376224 18.658832 105.569930 17.966341 105.763636 17.301287 105.957343 16.663883 106.151049 16.054345 106.344755 15.472887 106.538462 14.919722 106.732168 14.395066 106.925874 13.899131 107.119580 13.432134 107.313287 12.994287 107.506993 12.585805 107.700699 12.206835 107.894406 11.857252 108.088112 11.536865 108.281818 11.245481 108.475524 10.982909 108.669231 10.748957 108.862937 10.543432 109.056643 10.366143 109.250350 10.216898 109.444056 10.095505 109.637762 10.001773 109.831469 9.935508 110.025175 9.896520 110.218881 9.884615 110.412587 9.899604 110.606294 9.941292 110.800000 10.009490 110.993706 10.104003 111.187413 10.224642 111.381119 10.371213 111.574825 10.543526 111.768531 10.741387 111.962238 10.964605 112.155944 11.212988 112.349650 11.486344 112.543357 11.784482 112.737063 12.107208 112.930769 12.454333 113.124476 12.825662 113.318182 13.221005 113.511888 13.640170 113.705594 14.082965 113.899301 14.549197 114.093007 15.038675 114.286713 15.551207 114.480420 16.086601 114.674126 16.644665 114.867832 17.225207 115.061538 17.828035 115.255245 18.452958 115.448951 19.099783 115.642657 19.768318 115.836364 20.458372 116.030070 21.169753 116.223776 21.902268 116.417483 22.655726 116.611189 23.429935 116.804895 24.224702 116.998601 25.039837 117.192308 25.875147 117.386014 26.730440 117.579720 27.605524 117.773427 28.500207 117.967133 29.414298 118.160839 30.347604 118.354545 31.299933 118.548252 32.271095 118.741958 33.260896 118.935664 34.269144 119.129371 35.295649 119.323077 36.340217 119.516783 37.402657 119.710490 38.482778 119.904196 39.580386 120.097902 40.695291 120.291608 41.827300 120.485315 42.976221 120.679021 44.141863 120.872727 45.324033 121.066434 46.522540 121.260140 47.737191 121.453846 48.967795 121.647552 50.214160 121.841259 51.476094 122.034965 52.753405 122.228671 54.045901 122.422378 55.353390 122.616084 56.675680 122.809790 58.012580 123.003497 59.363897 123.197203 60.729439 123.390909 62.109014 123.584615 63.502432 123.778322 64.909499 123.972028 66.330023 124.165734 67.763814 124.359441 69.210678 124.553147 70.670424 124.746853 72.142861 124.940559 73.627795 125.134266 75.125036 125.327972 76.634390 125.521678 78.155668 125.715385 79.688675 125.909091 81.233221 126.102797 82.789114 126.296503 84.356161 126.490210 85.934171 126.683916 87.522952 126.877622 89.122312 127.071329 90.732058 127.265035 92.352000 127.458741 93.981945 127.652448 95.621700 127.846154 97.271076 128.039860 98.929878 128.233566 100.597916 128.427273 102.274997 128.620979 103.960930 128.814685 105.655523 129.008392 107.358583 129.202098 109.069919 129.395804 110.789339 129.589510 112.516651 129.783217 114.251662 129.976923 115.994182 130.170629 117.744018 130.364336 119.500979 130.558042 121.264871 130.751748 123.035504 130.945455 124.812686 131.139161 126.596224 131.332867 128.385927 131.526573 130.181602 131.720280 131.983058 131.913986 133.790103 132.107692 135.602545 132.301399 137.420192 132.495105 139.242852 132.688811 141.070333 132.882517 142.902443 133.076224 144.738991 133.269930 146.579784 133.463636 148.424631 133.657343 150.273339 133.851049 152.125717 134.044755 153.981572 134.238462 155.840713 134.432168 157.702948 134.625874 159.568085 134.819580 161.435932 135.013287 163.306297 135.206993 165.178988 135.400699 167.053813 135.594406 168.930581 135.788112 170.809099 135.981818 172.689176 136.175524 174.570619 136.369231 176.453236 136.562937 178.336837 136.756643 180.221228 136.950350 182.106218 137.144056 183.991614 137.337762 185.877226 137.531469 187.762861 137.725175 189.648327 137.918881 191.533432 138.112587 193.417985 138.306294 195.301793 138.500000 197.184664 138.693706 199.066407 138.887413 200.946829 139.081119 202.825739 139.274825 204.702945 139.468531 206.578255 139.662238 208.451477 139.855944 210.322418 140.049650 212.190888 140.243357 214.056694 140.437063 215.919644 140.630769 217.779546 140.824476 219.636208 141.018182 221.489439 141.211888 223.339047 141.405594 225.184839 141.599301 227.026624 141.793007 228.864210 141.986713 230.697404 142.180420 232.526015 142.374126 234.349852 142.567832 236.168721 142.761538 237.982431 142.955245 239.790791 143.148951 241.593608 143.342657 243.390690 143.536364 245.181846 143.730070 246.966883 143.923776 248.745610 144.117483 250.517834 144.311189 252.283364 144.504895 254.042008 144.698601 255.793574 144.892308 257.537870 145.086014 259.274704 145.279720 261.003884 145.473427 262.725218 145.667133 264.438514 145.860839 266.143581 146.054545 267.840226 146.248252 269.528258 146.441958 271.207484 146.635664 272.877713 146.829371 274.538753 147.023077 276.190411 147.216783 277.832497 147.410490 279.464817 147.604196 281.087180 147.797902 282.699395 147.991608 284.301268 148.185315 285.892609 148.379021 287.473226 148.572727 289.042925 148.766434 290.601516 148.960140 292.148807 149.153846 293.684605 149.347552 295.208719 149.541259 296.720957 149.734965 298.221127 149.928671 299.709036 150.122378 301.184494 150.316084 302.647308 150.509790 304.097286 150.703497 305.534236 150.897203 306.957967 151.090909 308.368285 151.284615 309.765001 151.478322 311.147921 151.672028 312.516853 151.865734 313.871607 152.059441 315.211989 152.253147 316.537808 152.446853 317.848872 152.640559 319.144989 152.834266 320.425967 153.027972 321.691614 153.221678 322.941738 153.415385 324.176148 153.609091 325.394651 153.802797 326.597056 153.996503 327.783170 154.190210 328.952801 154.383916 330.105759 154.577622 331.241850 154.771329 332.360883 154.965035 333.462666 155.158741 334.547007 155.352448 335.613714 155.546154 336.662596 155.739860 337.693459 155.933566 338.706113 156.127273 339.700411 156.320979 340.676392 156.514685 341.634140 156.708392 342.573739 156.902098 343.495274 157.095804 344.398829 157.289510 345.284488 157.483217 346.152335 157.676923 347.002455 157.870629 347.834932 158.064336 348.649851 158.258042 349.447295 158.451748 350.227350 158.645455 350.990098 158.839161 351.735625 159.032867 352.464015 159.226573 353.175352 159.420280 353.869721 159.613986 354.547205 159.807692 355.207890 160.001399 355.851858 160.195105 356.479196 160.388811 357.089986 160.582517 357.684314 160.776224 358.262263 160.969930 358.823918 161.163636 359.369364 161.357343 359.898683 161.551049 360.411962 161.744755 360.909283 161.938462 361.390732 162.132168 361.856393 162.325874 362.306349 162.519580 362.740686 162.713287 363.159488 162.906993 363.562838 163.100699 363.950821 163.294406 364.323522 163.488112 364.681024 163.681818 365.023413 163.875524 365.350772 164.069231 365.663185 164.262937 365.960738 164.456643 366.243514 164.650350 366.511597 164.844056 366.765072 165.037762 367.004024 165.231469 367.228535 165.425175 367.438692 165.618881 367.634577 165.812587 367.816276 166.006294 367.983873 166.200000 368.137451 166.393706 368.277096 166.587413 368.402891 166.781119 368.514921 166.974825 368.613270 167.168531 368.698023 167.362238 368.769263 167.555944 368.827075 167.749650 368.871544 167.943357 368.902753 168.137063 368.920787 168.330769 368.925731 168.524476 368.917668 168.718182 368.896682 168.911888 368.862859 169.105594 368.816283 169.299301 368.757037 169.493007 368.685206 169.686713 368.600874 169.880420 368.504126 170.074126 368.395046 170.267832 368.273718 170.461538 368.140227 170.655245 367.994656 170.848951 367.837091 171.042657 367.667615 171.236364 367.486312 171.430070 367.293268 171.623776 367.088566 171.817483 366.872290 172.011189 366.644526 172.204895 366.405357 172.398601 366.154867 172.592308 365.893141 172.786014 365.620263 172.979720 365.336317 173.173427 365.041388 173.367133 364.735561 173.560839 364.418918 173.754545 364.091545 173.948252 363.753526 174.141958 363.404945 174.335664 363.045887 174.529371 362.676435 174.723077 362.296675 174.916783 361.906690 175.110490 361.506564 175.304196 361.096383 175.497902 360.676230 175.691608 360.246189 175.885315 359.806346 176.079021 359.356783 176.272727 358.897586 176.466434 358.428839 176.660140 357.950626 176.853846 357.463031 177.047552 356.966139 177.241259 356.460034 177.434965 355.944800 177.628671 355.420522 177.822378 354.887283 178.016084 354.345169 178.209790 353.794263 178.403497 353.234650 178.597203 352.666414 178.790909 352.089640 178.984615 351.504411 179.178322 350.910812 179.372028 350.308928 179.565734 349.698841 179.759441 349.080638 179.953147 348.454402 180.146853 347.820218 180.340559 347.178169 180.534266 346.528340 180.727972 345.870816 180.921678 345.205680 181.115385 344.533017 181.309091 343.852911 181.502797 343.165447 181.696503 342.470709 181.890210 341.768781 182.083916 341.059748 182.277622 340.343693 182.471329 339.620701 182.665035 338.890857 182.858741 338.154244 183.052448 337.410947 183.246154 336.661051 183.439860 335.904639 183.633566 335.141796 183.827273 334.372606 184.020979 333.597153 184.214685 332.815522 184.408392 332.027797 184.602098 331.234063 184.795804 330.434403 184.989510 329.628902 185.183217 328.817644 185.376923 328.000714 185.570629 327.178196 185.764336 326.350174 185.958042 325.516732 186.151748 324.677955 186.345455 323.833927 186.539161 322.984732 186.732867 322.130455 186.926573 321.271180 187.120280 320.406991 187.313986 319.537973 187.507692 318.664209 187.701399 317.785785 187.895105 316.902784 188.088811 316.015291 188.282517 315.123389 188.476224 314.227164 188.669930 313.326700 188.863636 312.422081 189.057343 311.513390 189.251049 310.600714 189.444755 309.684135 189.638462 308.763738 189.832168 307.839608 190.025874 306.911828 190.219580 305.980483 190.413287 305.045658 190.606993 304.107436 190.800699 303.165902 190.994406 302.221141 191.188112 301.273236 191.381818 300.322271 191.575524 299.368332 191.769231 298.411502 191.962937 297.451866 192.156643 296.489508 192.350350 295.524512 192.544056 294.556963 192.737762 293.586945 192.931469 292.614541 193.125175 291.639838 193.318881 290.662918 193.512587 289.683866 193.706294 288.702767 193.900000 287.719704 194.093706 286.734762 194.287413 285.748026 194.481119 284.759579 194.674825 283.769506 194.868531 282.777891 195.062238 281.784819 195.255944 280.790373 195.449650 279.794639 195.643357 278.797700 195.837063 277.799640 196.030769 276.800545 196.224476 275.800498 196.418182 274.799583 196.611888 273.797886 196.805594 272.795489 196.999301 271.792478 197.193007 270.788937 197.386713 269.784950 197.580420 268.780601 197.774126 267.775975 197.967832 266.771155 198.161538 265.766227 198.355245 264.761275 198.548951 263.756383 198.742657 262.751634 198.936364 261.747114 199.130070 260.742907 199.323776 259.739097 199.517483 258.735768 199.711189 257.733005 199.904895 256.730892 200.098601 255.729513 200.292308 254.728953 200.486014 253.729296 200.679720 252.730625 200.873427 251.733027 201.067133 250.736584 201.260839 249.741381 201.454545 248.747502 201.648252 247.755032 201.841958 246.764055 202.035664 245.774655 202.229371 244.786917 202.423077 243.800924 202.616783 242.816762 202.810490 241.834514 203.004196 240.854265 203.197902 239.876099 203.391608 238.900100 203.585315 237.926353 203.779021 236.954942 203.972727 235.985951 204.166434 235.019464 204.360140 234.055567 204.553846 233.094329 204.747552 232.135772 204.941259 231.179902 205.134965 230.226727 205.328671 229.276252 205.522378 228.328487 205.716084 227.383436 205.909790 226.441109 206.103497 225.501510 206.297203 224.564649 206.490909 223.630531 206.684615 222.699164 206.878322 221.770555 207.072028 220.844711 207.265734 219.921639 207.459441 219.001346 207.653147 218.083839 207.846853 217.169125 208.040559 216.257211 208.234266 215.348105 208.427972 214.441813 208.621678 213.538342 208.815385 212.637700 209.009091 211.739893 209.202797 210.844929 209.396503 209.952814 209.590210 209.063556 209.783916 208.177162 209.977622 207.293639 210.171329 206.412994 210.365035 205.535233 210.558741 204.660365 210.752448 203.788395 210.946154 202.919332 211.139860 202.053182 211.333566 201.189952 211.527273 200.329649 211.720979 199.472281 211.914685 198.617854 212.108392 197.766376 212.302098 196.917853 212.495804 196.072293 212.689510 195.229702 212.883217 194.390088 213.076923 193.553458 213.270629 192.719819 213.464336 191.889178 213.658042 191.061541 213.851748 190.236917 214.045455 189.415312 214.239161 188.596732 214.432867 187.781186 214.626573 186.968681 214.820280 186.159222 215.013986 185.352818 215.207692 184.549476 215.401399 183.749201 215.595105 182.952003 215.788811 182.157887 215.982517 181.366861 216.176224 180.578931 216.369930 179.794105 216.563636 179.012391 216.757343 178.233794 216.951049 177.458322 217.144755 176.685982 217.338462 175.916781 217.532168 175.150726 217.725874 174.387825 217.919580 173.628083 218.113287 172.871510 218.306993 172.118110 218.500699 171.367892 218.694406 170.620863 218.888112 169.877029 219.081818 169.136397 219.275524 168.398976 219.469231 167.664771 219.662937 166.933790 219.856643 166.206040 220.050350 165.481528 220.244056 164.760260 220.437762 164.042245 220.631469 163.327489 220.825175 162.615999 221.018881 161.907783 221.212587 161.202846 221.406294 160.501197 221.600000 159.802843 221.793706 159.107790 221.987413 158.416045 222.181119 157.727616 222.374825 157.042510 222.568531 156.360733 222.762238 155.682294 222.955944 155.007198 223.149650 154.335453 223.343357 153.667066 223.537063 153.002044 223.730769 152.340394 223.924476 151.682123 224.118182 151.027238 224.311888 150.375747 224.505594 149.727656 224.699301 149.082972 224.893007 148.441703 225.086713 147.803855 225.280420 147.169436 225.474126 146.538452 225.667832 145.910911 225.861538 145.286820 226.055245 144.666186 226.248951 144.049015 226.442657 143.435316 226.636364 142.825094 226.830070 142.218357 227.023776 141.615113 227.217483 141.015368 227.411189 140.419128 227.604895 139.826403 227.798601 139.237197 227.992308 138.651519 228.186014 138.069375 228.379720 137.490773 228.573427 136.915720 228.767133 136.344222 228.960839 135.776287 229.154545 135.211921 229.348252 134.651133 229.541958 134.093928 229.735664 133.540314 229.929371 132.990299 230.123077 132.443888 230.316783 131.901089 230.510490 131.361910 230.704196 130.826357 230.897902 130.294437 231.091608 129.766157 231.285315 129.241525 231.479021 128.720548 231.672727 128.203232 231.866434 127.689584 232.060140 127.179612 232.253846 126.673323 232.447552 126.170724 232.641259 125.671821 232.834965 125.176623 233.028671 124.685135 233.222378 124.197366 233.416084 123.713321 233.609790 123.233009 233.803497 122.756436 233.997203 122.283609 234.190909 121.814535 234.384615 121.349222 234.578322 120.887676 234.772028 120.429905 234.965734 119.975915 235.159441 119.525714 235.353147 119.079309 235.546853 118.636706 235.740559 118.197914 235.934266 117.762938 236.127972 117.331786 236.321678 116.904465 236.515385 116.480982 236.709091 116.061344 236.902797 115.645558 237.096503 115.233631 237.290210 114.825571 237.483916 114.421384 237.677622 114.021078 237.871329 113.624659 238.065035 113.232134 238.258741 112.843511 238.452448 112.458797 238.646154 112.077998 238.839860 111.701123 239.033566 111.328177 239.227273 110.959168 239.420979 110.594102 239.614685 110.232988 239.808392 109.875832 240.002098 109.522641 240.195804 109.173422 240.389510 108.828183 240.583217 108.486930 240.776923 108.149670 240.970629 107.816410 241.164336 107.487158 241.358042 107.161921 241.551748 106.840705 241.745455 106.523518 241.939161 106.210366 242.132867 105.901258 242.326573 105.596199 242.520280 105.295197 242.713986 104.998259 242.907692 104.705392 243.101399 104.416604 243.295105 104.131900 243.488811 103.851288 243.682517 103.574776 243.876224 103.302370 244.069930 103.034078 244.263636 102.769906 244.457343 102.509861 244.651049 102.253951 244.844755 102.002183 245.038462 101.754563 245.232168 101.511099 245.425874 101.271798 245.619580 101.036667 245.813287 100.805713 246.006993 100.578942 246.200699 100.356363 246.394406 100.137982 246.588112 99.923806 246.781818 99.713842 246.975524 99.508098 247.169231 99.306579 247.362937 99.109295 247.556643 98.916250 247.750350 98.727454 247.944056 98.542912 248.137762 98.362631 248.331469 98.186619 248.525175 98.014883 248.718881 97.847430 248.912587 97.684267 249.106294 97.525400 249.300000 97.370838 249.493706 97.220587 249.687413 97.074653 249.881119 96.933045 250.074825 96.795770 250.268531 96.662833 250.462238 96.534243 250.655944 96.410007 250.849650 96.290130 251.043357 96.174622 251.237063 96.063488 251.430769 95.956736 251.624476 95.854372 251.818182 95.756404 252.011888 95.662839 252.205594 95.573684 252.399301 95.488946 252.593007 95.408632 252.786713 95.332749 252.980420 95.261297 253.174126 95.194245 253.367832 95.131555 253.561538 95.073191 253.755245 95.019114 253.948951 94.969285 254.142657 94.923669 254.336364 94.882226 254.530070 94.844919 254.723776 94.811710 254.917483 94.782562 255.111189 94.757436 255.304895 94.736295 255.498601 94.719101 255.692308 94.705816 255.886014 94.696403 256.079720 94.690824 256.273427 94.689041 256.467133 94.691016 256.660839 94.696711 256.854545 94.706089 257.048252 94.719112 257.241958 94.735742 257.435664 94.755941 257.629371 94.779672 257.823077 94.806896 258.016783 94.837577 258.210490 94.871676 258.404196 94.909155 258.597902 94.949977 258.791608 94.994104 258.985315 95.041497 259.179021 95.092121 259.372727 95.145936 259.566434 95.202904 259.760140 95.262989 259.953846 95.326152 260.147552 95.392355 260.341259 95.461562 260.534965 95.533733 260.728671 95.608831 260.922378 95.686818 261.116084 95.767658 261.309790 95.851311 261.503497 95.937740 261.697203 96.026907 261.890909 96.118775 262.084615 96.213305 262.278322 96.310461 262.472028 96.410203 262.665734 96.512496 262.859441 96.617299 263.053147 96.724577 263.246853 96.834290 263.440559 96.946402 263.634266 97.060875 263.827972 97.177670 264.021678 97.296750 264.215385 97.418078 264.409091 97.541615 264.602797 97.667323 264.796503 97.795165 264.990210 97.925104 265.183916 98.057101 265.377622 98.191118 265.571329 98.327118 265.765035 98.465063 265.958741 98.604915 266.152448 98.746637 266.346154 98.890191 266.539860 99.035538 266.733566 99.182642 266.927273 99.331463 267.120979 99.481966 267.314685 99.634111 267.508392 99.787861 267.702098 99.943179 267.895804 100.100026 268.089510 100.258364 268.283217 100.418157 268.476923 100.579366 268.670629 100.741953 268.864336 100.905881 269.058042 101.071111 269.251748 101.237607 269.445455 101.405330 269.639161 101.574242 269.832867 101.744306 270.026573 101.915484 270.220280 102.087739 270.413986 102.261031 270.607692 102.435325 270.801399 102.610581 270.995105 102.786762 271.188811 102.963830 271.382517 103.141749 271.576224 103.320478 271.769930 103.499982 271.963636 103.680222 272.157343 103.861160 272.351049 104.042760 272.544755 104.224981 272.738462 104.407789 272.932168 104.591143 273.125874 104.775007 273.319580 104.959343 273.513287 105.144112 273.706993 105.329278 273.900699 105.514803 274.094406 105.700648 274.288112 105.886776 274.481818 106.073149 274.675524 106.259729 274.869231 106.446479 275.062937 106.633361 275.256643 106.820337 275.450350 107.007369 275.644056 107.194420 275.837762 107.381451 276.031469 107.568425 276.225175 107.755305 276.418881 107.942051 276.612587 108.128628 276.806294 108.314996 277.000000 108.501118 277.193706 108.686957 277.387413 108.872474 277.581119 109.057632 277.774825 109.242392 277.968531 109.426718 278.162238 109.610572 278.355944 109.793914 278.549650 109.976709 278.743357 110.158918 278.937063 110.340503 279.130769 110.521427 279.324476 110.701651 279.518182 110.881139 279.711888 111.059852 279.905594 111.237752 280.099301 111.414801 280.293007 111.590963 280.486713 111.766199 280.680420 111.940471 280.874126 112.113741 281.067832 112.285973 281.261538 112.457127 281.455245 112.627167 281.648951 112.796054 281.842657 112.963751 282.036364 113.130219 282.230070 113.295422 282.423776 113.459321 282.617483 113.621879 282.811189 113.783057 283.004895 113.942819 283.198601 114.101126 283.392308 114.257940 283.586014 114.413224 283.779720 114.566940 283.973427 114.719050 284.167133 114.869517 284.360839 115.018302 284.554545 115.165368 284.748252 115.310676 284.941958 115.454191 285.135664 115.595872 285.329371 115.735684 285.523077 115.873587 285.716783 116.009545 285.910490 116.143519 286.104196 116.275472 286.297902 116.405365 286.491608 116.533162 286.685315 116.658824 286.879021 116.782313 287.072727 116.903592 287.266434 117.022624 287.460140 117.139369 287.653846 117.253791 287.847552 117.365851 288.041259 117.475513 288.234965 117.582737 288.428671 117.687487 288.622378 117.789724 288.816084 117.889411 289.009790 117.986510 289.203497 118.080984 289.397203 118.172794 289.590909 118.261902 289.784615 118.348271 289.978322 118.431864 290.172028 118.512642 290.365734 118.590567 290.559441 118.665603 290.753147 118.737710 290.946853 118.806852 291.140559 118.872990 291.334266 118.936086 291.527972 118.996104 291.721678 119.053005 291.915385 119.106751 292.109091 119.157305 292.302797 119.204629 292.496503 119.248685 292.690210 119.289435 292.883916 119.326841 293.077622 119.360866 293.271329 119.391473 293.465035 119.418622 293.658741 119.442277 293.852448 119.462399 294.046154 119.478952 294.239860 119.491896 294.433566 119.501195 294.627273 119.506810 294.820979 119.508704 295.014685 119.506839 295.208392 119.501177 295.402098 119.491681 295.595804 119.478312 295.789510 119.461033 295.983217 119.439806 296.176923 119.414594 296.370629 119.385358 296.564336 119.352061 296.758042 119.314665 296.951748 119.273132 297.145455 119.227425 297.339161 119.177505 297.532867 119.123335 297.726573 119.064878 297.920280 119.002094 298.113986 118.934948 298.307692 118.863400 298.501399 118.787413 298.695105 118.706949 298.888811 118.621971 299.082517 118.532441 299.276224 118.438320 299.469930 118.339572 299.663636 118.236158 299.857343 118.128041 300.051049 118.015182 300.244755 117.897545 300.438462 117.775091 300.632168 117.647782 300.825874 117.515581 301.019580 117.378451 301.213287 117.236352 301.406993 117.089263 301.600699 116.937226 301.794406 116.780298 301.988112 116.618535 302.181818 116.451996 302.375524 116.280736 302.569231 116.104814 302.762937 115.924286 302.956643 115.739209 303.150350 115.549641 303.344056 115.355638 303.537762 115.157259 303.731469 114.954559 303.925175 114.747596 304.118881 114.536428 304.312587 114.321111 304.506294 114.101702 304.700000 113.878259 304.893706 113.650838 305.087413 113.419497 305.281119 113.184294 305.474825 112.945284 305.668531 112.702525 305.862238 112.456075 306.055944 112.205990 306.249650 111.952328 306.443357 111.695145 306.637063 111.434500 306.830769 111.170448 307.024476 110.903047 307.218182 110.632355 307.411888 110.358428 307.605594 110.081323 307.799301 109.801098 307.993007 109.517809 308.186713 109.231515 308.380420 108.942271 308.574126 108.650135 308.767832 108.355165 308.961538 108.057417 309.155245 107.756948 309.348951 107.453816 309.542657 107.148078 309.736364 106.839791 309.930070 106.529011 310.123776 106.215797 310.317483 105.900205 310.511189 105.582292 310.704895 105.262115 310.898601 104.939733 311.092308 104.615201 311.286014 104.288576 311.479720 103.959917 311.673427 103.629280 311.867133 103.296722 312.060839 102.962301 312.254545 102.626073 312.448252 102.288095 312.641958 101.948425 312.835664 101.607121 313.029371 101.264238 313.223077 100.919834 313.416783 100.573966 313.610490 100.226692 313.804196 99.878069 313.997902 99.528153 314.191608 99.177001 314.385315 98.824672 314.579021 98.471221 314.772727 98.116707 314.966434 97.761186 315.160140 97.404715 315.353846 97.047352 315.547552 96.689154 315.741259 96.330177 315.934965 95.970479 316.128671 95.610117 316.322378 95.249148 316.516084 94.887630 316.709790 94.525618 316.903497 94.163172 317.097203 93.800347 317.290909 93.437200 317.484615 93.073790 317.678322 92.710173 317.872028 92.346406 318.065734 91.982546 318.259441 91.618650 318.453147 91.254776 318.646853 90.890981 318.840559 90.527321 319.034266 90.163854 319.227972 89.800638 319.421678 89.437728 319.615385 89.075183 319.809091 88.713059 320.002797 88.351414 320.196503 87.990304 320.390210 87.629787 320.583916 87.269920 320.777622 86.910760 320.971329 86.552365 321.165035 86.194790 321.358741 85.838094 321.552448 85.482334 321.746154 85.127566 321.939860 84.773848 322.133566 84.421236 322.327273 84.069789 322.520979 83.719563 322.714685 83.370616 322.908392 83.023004 323.102098 82.676784 323.295804 82.332014 323.489510 81.988751 323.683217 81.647052 323.876923 81.306973 324.070629 80.968573 324.264336 80.631909 324.458042 80.297036 324.651748 79.964014 324.845455 79.632898 325.039161 79.303746 325.232867 78.976614 325.426573 78.651561 325.620280 78.328643 325.813986 78.007917 326.007692 77.689441 326.201399 77.373272 326.395105 77.059466 326.588811 76.748080 326.782517 76.439173 326.976224 76.132801 327.169930 75.829021 327.363636 75.527891 327.557343 75.229466 327.751049 74.933806 327.944755 74.640966 328.138462 74.351004 328.332168 74.063977 328.525874 73.779942 328.719580 73.498956 328.913287 73.221077 329.106993 72.946361 329.300699 72.674866 329.494406 72.406648 329.688112 72.141765 329.881818 71.880274 330.075524 71.622232 330.269231 71.367697 330.462937 71.116725 330.656643 70.869373 330.850350 70.625699 331.044056 70.385760 331.237762 70.149612 331.431469 69.917314 331.625175 69.688921 331.818881 69.464492 332.012587 69.244083 332.206294 69.027752 332.400000 68.815555 332.593706 68.607550 332.787413 68.403794 332.981119 68.204344 333.174825 68.009257 333.368531 67.818590 333.562238 67.632401 333.755944 67.450746 333.949650 67.273682 334.143357 67.101268 334.337063 66.933559 334.530769 66.770613 334.724476 66.612488 334.918182 66.459240 335.111888 66.310926 335.305594 66.167603 335.499301 66.029329 335.693007 65.896161 335.886713 65.768156 336.080420 65.645371 336.274126 65.527863 336.467832 65.415689 336.661538 65.308907 336.855245 65.207573 337.048951 65.111745 337.242657 65.021480 337.436364 64.936834 337.630070 64.857866 337.823776 64.784631 338.017483 64.717188 338.211189 64.655593 338.404895 64.599904 338.598601 64.550178 338.792308 64.506471 338.986014 64.468841 339.179720 64.437345 339.373427 64.412041 339.567133 64.392984 339.760839 64.380233 339.954545 64.373845 340.148252 64.373876 340.341958 64.380384 340.535664 64.393426 340.729371 64.413059 340.923077 64.439340 341.116783 64.472327 341.310490 64.512075 341.504196 64.558644 341.697902 64.612089 341.891608 64.672468 342.085315 64.739838 342.279021 64.814255 342.472727 64.895779 342.666434 64.984464 342.860140 65.080369 343.053846 65.183550 343.247552 65.294065 343.441259 65.411971 343.634965 65.537324 343.828671 65.670183 344.022378 65.810604 344.216084 65.958644 344.409790 66.114361 344.603497 66.277812 344.797203 66.449052 344.990909 66.628141 345.184615 66.815135 345.378322 67.010091 345.572028 67.213066 345.765734 67.424117 345.959441 67.643302 346.153147 67.870677 346.346853 68.106300 346.540559 68.350228 346.734266 68.602518 346.927972 68.863227 347.121678 69.132412 347.315385 69.410131 347.509091 69.696440 347.702797 69.991396 347.896503 70.295057 348.090210 70.607480 348.283916 70.928722 348.477622 71.258841 348.671329 71.597892 348.865035 71.945934 349.058741 72.303023 349.252448 72.669216 349.446154 73.044572 349.639860 73.429146 349.833566 73.822972 350.027273 74.225985 350.220979 74.638097 350.414685 75.059217 350.608392 75.489258 350.802098 75.928131 350.995804 76.375747 351.189510 76.832017 351.383217 77.296851 351.576923 77.770162 351.770629 78.251860 351.964336 78.741857 352.158042 79.240063 352.351748 79.746390 352.545455 80.260749 352.739161 80.783051 352.932867 81.313207 353.126573 81.851129 353.320280 82.396726 353.513986 82.949912 353.707692 83.510596 353.901399 84.078690 354.095105 84.654104 354.288811 85.236751 354.482517 85.826542 354.676224 86.423386 354.869930 87.027196 355.063636 87.637883 355.257343 88.255358 355.451049 88.879531 355.644755 89.510315 355.838462 90.147620 356.032168 90.791357 356.225874 91.441437 356.419580 92.097772 356.613287 92.760273 356.806993 93.428851 357.000699 94.103417 357.194406 94.783882 357.388112 95.470157 357.581818 96.162154 357.775524 96.859783 357.969231 97.562956 358.162937 98.271584 358.356643 98.985577 358.550350 99.704848 358.744056 100.429307 358.937762 101.158866 359.131469 101.893435 359.325175 102.632925 359.518881 103.377249 359.712587 104.126316 359.906294 104.880039 360.100000 105.638327 360.293706 106.401093 360.487413 107.168248 360.681119 107.939702 360.874825 108.715366 361.068531 109.495153 361.262238 110.278973 361.455944 111.066736 361.649650 111.858356 361.843357 112.653741 362.037063 113.452804 362.230769 114.255456 362.424476 115.061607 362.618182 115.871170 362.811888 116.684055 363.005594 117.500173 363.199301 118.319435 363.393007 119.141753 363.586713 119.967037 363.780420 120.795199 363.974126 121.626151 364.167832 122.459802 364.361538 123.296064 364.555245 124.134849 364.748951 124.976067 364.942657 125.819630 365.136364 126.665449 365.330070 127.513434 365.523776 128.363498 365.717483 129.215550 365.911189 130.069503 366.104895 130.925267 366.298601 131.782754 366.492308 132.641875 366.686014 133.502540 366.879720 134.364662 367.073427 135.228150 367.267133 136.092917 367.460839 136.958873 367.654545 137.825929 367.848252 138.693998 368.041958 139.562989 368.235664 140.432814 368.429371 141.303384 368.623077 142.174610 368.816783 143.046403 369.010490 143.918675 369.204196 144.791337 369.397902 145.664299 369.591608 146.537473 369.785315 147.410771 369.979021 148.284102 370.172727 149.157379 370.366434 150.030512 370.560140 150.903412 370.753846 151.775992 370.947552 152.648161 371.141259 153.519831 371.334965 154.390913 371.528671 155.261319 371.722378 156.130958 371.916084 156.999744 372.109790 157.867586 372.303497 158.734396 372.497203 159.600084 372.690909 160.464563 372.884615 161.327743 373.078322 162.189535 373.272028 163.049851 373.465734 163.908601 373.659441 164.765697 373.853147 165.621050 374.046853 166.474571 374.240559 167.326171 374.434266 168.175762 374.627972 169.023253 374.821678 169.868558 375.015385 170.711586 375.209091 171.552249 375.402797 172.390457 375.596503 173.226123 375.790210 174.059158 375.983916 174.889471 376.177622 175.716975 376.371329 176.541581 376.565035 177.363199 376.758741 178.181742 376.952448 178.997119 377.146154 179.809243 377.339860 180.618024 377.533566 181.423373 377.727273 182.225202 377.920979 183.023422 378.114685 183.817943 378.308392 184.608678 378.502098 185.395537 378.695804 186.178431 378.889510 186.957271 379.083217 187.731969 379.276923 188.502436 379.470629 189.268583 379.664336 190.030320 379.858042 190.787560 380.051748 191.540213 380.245455 192.288190 380.439161 193.031402 380.632867 193.769762 380.826573 194.503179 381.020280 195.231565 381.213986 195.954831 381.407692 196.672888 381.601399 197.385648 381.795105 198.093021 381.988811 198.794919 382.182517 199.491252 382.376224 200.181932 382.569930 200.866871 382.763636 201.545978 382.957343 202.219166 383.151049 202.886345 383.344755 203.547426 383.538462 204.202322 383.732168 204.850942 383.925874 205.493198 384.119580 206.129001 384.313287 206.758263 384.506993 207.380894 384.700699 207.996805 384.894406 208.605908 385.088112 209.208114 385.281818 209.803333 385.475524 210.391478 385.669231 210.972459 385.862937 211.546187 386.056643 212.112574 386.250350 212.671530 386.444056 213.222967 386.637762 213.766796 386.831469 214.302928 387.025175 214.831274 387.218881 215.351745 387.412587 215.864253 387.606294 216.368708 387.800000 216.865022 387.993706 217.353106 388.187413 217.832870 388.381119 218.304227 388.574825 218.767087 388.768531 219.221362 388.962238 219.666962 389.155944 220.103798 389.349650 220.531782 389.543357 220.950826 389.737063 221.360839 389.930769 221.761733 390.124476 222.153420 390.318182 222.535810 390.511888 222.908815 390.705594 223.272346 390.899301 223.626313 391.093007 223.970629 391.286713 224.305203 391.480420 224.629948 391.674126 224.944774 391.867832 225.249593 392.061538 225.544316 392.255245 225.828853 392.448951 226.103116 392.642657 226.367017 392.836364 226.620465 393.030070 226.863373 393.223776 227.095652 393.417483 227.317212 393.611189 227.527965 393.804895 227.727821 393.998601 227.916693 394.192308 228.094491 394.386014 228.261126 394.579720 228.416510 394.773427 228.560554 394.967133 228.693168 395.160839 228.814264 395.354545 228.923753 395.548252 229.021546 395.741958 229.107554 395.935664 229.181689 396.129371 229.243861 396.323077 229.293982 396.516783 229.331963 396.710490 229.357715 396.904196 229.371149 397.097902 229.372176 397.291608 229.360707 397.485315 229.336654 397.679021 229.299928 397.872727 229.250439 398.066434 229.188099 398.260140 229.112849 398.453846 229.024749 398.647552 228.923889 398.841259 228.810359 399.034965 228.684249 399.228671 228.545648 399.422378 228.394647 399.616084 228.231335 399.809790 228.055803 400.003497 227.868140 400.197203 227.668436 400.390909 227.456782 400.584615 227.233266 400.778322 226.997980 400.972028 226.751013 401.165734 226.492454 401.359441 226.222394 401.553147 225.940924 401.746853 225.648131 401.940559 225.344108 402.134266 225.028942 402.327972 224.702726 402.521678 224.365547 402.715385 224.017497 402.909091 223.658665 403.102797 223.289142 403.296503 222.909016 403.490210 222.518378 403.683916 222.117318 403.877622 221.705926 404.071329 221.284292 404.265035 220.852505 404.458741 220.410656 404.652448 219.958835 404.846154 219.497131 405.039860 219.025634 405.233566 218.544434 405.427273 218.053622 405.620979 217.553287 405.814685 217.043519 406.008392 216.524408 406.202098 215.996043 406.395804 215.458516 406.589510 214.911915 406.783217 214.356331 406.976923 213.791854 407.170629 213.218573 407.364336 212.636578 407.558042 212.045960 407.751748 211.446808 407.945455 210.839213 408.139161 210.223263 408.332867 209.599050 408.526573 208.966662 408.720280 208.326191 408.913986 207.677725 409.107692 207.021355 409.301399 206.357170 409.495105 205.685261 409.688811 205.005718 409.882517 204.318630 410.076224 203.624088 410.269930 202.922180 410.463636 202.212998 410.657343 201.496632 410.851049 200.773170 411.044755 200.042703 411.238462 199.305321 411.432168 198.561114 411.625874 197.810171 411.819580 197.052583 412.013287 196.288440 412.206993 195.517831 412.400699 194.740847 412.594406 193.957577 412.788112 193.168112 412.981818 192.372540 413.175524 191.570953 413.369231 190.763440 413.562937 189.950091 413.756643 189.130995 413.950350 188.306244 414.144056 187.475926 414.337762 186.640132 414.531469 185.798951 414.725175 184.952474 414.918881 184.100790 415.112587 183.243990 415.306294 182.382163 415.500000 181.515399 415.693706 180.643789 415.887413 179.767421 416.081119 178.886387 416.274825 178.000775 416.468531 177.110676 416.662238 176.216180 416.855944 175.317376 417.049650 174.414356 417.243357 173.507207 417.437063 172.596021 417.630769 171.680888 417.824476 170.761896 418.018182 169.839137 418.211888 168.912700 418.405594 167.982675 418.599301 167.049152 418.793007 166.112221 418.986713 165.171972 419.180420 164.228495 419.374126 163.281879 419.567832 162.332214 419.761538 161.379592 419.955245 160.424100 420.148951 159.465831 420.342657 158.504872 420.536364 157.541314 420.730070 156.575248 420.923776 155.606763 421.117483 154.635949 421.311189 153.662895 421.504895 152.687693 421.698601 151.710431 421.892308 150.731200 422.086014 149.750089 422.279720 148.767189 422.473427 147.782590 422.667133 146.796380 422.860839 145.808651 423.054545 144.819493 423.248252 143.828994 423.441958 142.837245 423.635664 141.844337 423.829371 140.850358 424.023077 139.855399 424.216783 138.859550 424.410490 137.862901 424.604196 136.865541 424.797902 135.867560 424.991608 134.869049 425.185315 133.870098 425.379021 132.870796 425.572727 131.871233 425.766434 130.871499 425.960140 129.871684 426.153846 128.871878 426.347552 127.872171 426.541259 126.872653 426.734965 125.873413 426.928671 124.874542 427.122378 123.876130 427.316084 122.878267 427.509790 121.881041 427.703497 120.884545 427.897203 119.888866 428.090909 118.894096 428.284615 117.900323 428.478322 116.907639 428.672028 115.916133 428.865734 114.925895 429.059441 113.937014 429.253147 112.949582 429.446853 111.963686 429.640559 110.979419 429.834266 109.996869 430.027972 109.016127 430.221678 108.037281 430.415385 107.060424 430.609091 106.085643 430.802797 105.113029 430.996503 104.142673 431.190210 103.174663 431.383916 102.209091 431.577622 101.246045 431.771329 100.285616 431.965035 99.327894 432.158741 98.372968 432.352448 97.420929 432.546154 96.471866 432.739860 95.525870 432.933566 94.583029 433.127273 93.643436 433.320979 92.707178 433.514685 91.774346 433.708392 90.845030 433.902098 89.919320 434.095804 88.997306 434.289510 88.079078 434.483217 87.164725 434.676923 86.254338 434.870629 85.348007 435.064336 84.445821 435.258042 83.547870 435.451748 82.654245 435.645455 81.765035 435.839161 80.880330 436.032867 80.000220 436.226573 79.124795 436.420280 78.254144 436.613986 77.388359 436.807692 76.527529 437.001399 75.671743 437.195105 74.821091 437.388811 73.975665 437.582517 73.135552 437.776224 72.300844 437.969930 71.471631 438.163636 70.648001 438.357343 69.830046 438.551049 69.017855 438.744755 68.211518 438.938462 67.411124 439.132168 66.616765 439.325874 65.828529 439.519580 65.046507 439.713287 64.270788 439.906993 63.501463 440.100699 62.738622 440.294406 61.982353 440.488112 61.232749 440.681818 60.489897 440.875524 59.753888 441.069231 59.024813 441.262937 58.302760 441.456643 57.587821 441.650350 56.880084 441.844056 56.179640 442.037762 55.486579 442.231469 54.800990 442.425175 54.122964 442.618881 53.452590 442.812587 52.789958 443.006294 52.135159 443.200000 51.488282 443.393706 50.849418 443.587413 50.218655 443.781119 49.596084 443.974825 48.981795 444.168531 48.375878 444.362238 47.778423 444.555944 47.189519 444.749650 46.609257 444.943357 46.037727 445.137063 45.475018 445.330769 44.921220 445.524476 44.376424 445.718182 43.840719 445.911888 43.314195 446.105594 42.796942 446.299301 42.289050 446.493007 41.790609 446.686713 41.301687 446.880420 40.822264 447.074126 40.352297 447.267832 39.891747 447.461538 39.440569 447.655245 38.998723 447.848951 38.566167 448.042657 38.142858 448.236364 37.728756 448.430070 37.323817 448.623776 36.928001 448.817483 36.541265 449.011189 36.163567 449.204895 35.794866 449.398601 35.435120 449.592308 35.084287 449.786014 34.742324 449.979720 34.409191 450.173427 34.084845 450.367133 33.769245 450.560839 33.462348 450.754545 33.164113 450.948252 32.874498 451.141958 32.593460 451.335664 32.320959 451.529371 32.056952 451.723077 31.801397 451.916783 31.554253 452.110490 31.315478 452.304196 31.085029 452.497902 30.862866 452.691608 30.648945 452.885315 30.443226 453.079021 30.245666 453.272727 30.056223 453.466434 29.874856 453.660140 29.701523 453.853846 29.536182 454.047552 29.378790 454.241259 29.229307 454.434965 29.087690 454.628671 28.953898 454.822378 28.827888 455.016084 28.709619 455.209790 28.599049 455.403497 28.496136 455.597203 28.400838 455.790909 28.313113 455.984615 28.232919 456.178322 28.160215 456.372028 28.094959 456.565734 28.037109 456.759441 27.986622 456.953147 27.943458 457.146853 27.907574 457.340559 27.878928 457.534266 27.857478 457.727972 27.843184 457.921678 27.836002 458.115385 27.835891 458.309091 27.842809 458.502797 27.856714 458.696503 27.877564 458.890210 27.905318 459.083916 27.939934 459.277622 27.981369 459.471329 28.029582 459.665035 28.084531 459.858741 28.146174 460.052448 28.214470 460.246154 28.289376 460.439860 28.370850 460.633566 28.458851 460.827273 28.553337 461.020979 28.654266 461.214685 28.761596 461.408392 28.875285 461.602098 28.995292 461.795804 29.121574 461.989510 29.254089 462.183217 29.392797 462.376923 29.537654 462.570629 29.688620 462.764336 29.845651 462.958042 30.008707 463.151748 30.177746 463.345455 30.352725 463.539161 30.533602 463.732867 30.720337 463.926573 30.912887 464.120280 31.111209 464.313986 31.315263 464.507692 31.525007 464.701399 31.740398 464.895105 31.961395 465.088811 32.187955 465.282517 32.420038 465.476224 32.657600 465.669930 32.900601 465.863636 33.148998 466.057343 33.402750 466.251049 33.661814 466.444755 33.926149 466.638462 34.195713 466.832168 34.470464 467.025874 34.750361 467.219580 35.035360 467.413287 35.325422 467.606993 35.620502 467.800699 35.920561 467.994406 36.225555 468.188112 36.535443 468.381818 36.850184 468.575524 37.169735 468.769231 37.494054 468.962937 37.823100 469.156643 38.156830 469.350350 38.495204 469.544056 38.838178 469.737762 39.185711 469.931469 39.537762 470.125175 39.894288 470.318881 40.255247 470.512587 40.620599 470.706294 40.990300 470.900000 41.364309 471.093706 41.742584 471.287413 42.125083 471.481119 42.511764 471.674825 42.902586 471.868531 43.297507 472.062238 43.696485 472.255944 44.099477 472.449650 44.506442 472.643357 44.917339 472.837063 45.332124 473.030769 45.750758 473.224476 46.173196 473.418182 46.599399 473.611888 47.029323 473.805594 47.462928 473.999301 47.900170 474.193007 48.341009 474.386713 48.785402 474.580420 49.233307 474.774126 49.684684 474.967832 50.139489 475.161538 50.597681 475.355245 51.059218 475.548951 51.524058 475.742657 51.992160 475.936364 52.463481 476.130070 52.937980 476.323776 53.415615 476.517483 53.896343 476.711189 54.380124 476.904895 54.866914 477.098601 55.356673 477.292308 55.849359 477.486014 56.344929 477.679720 56.843341 477.873427 57.344555 478.067133 57.848528 478.260839 58.355217 478.454545 58.864582 478.648252 59.376581 478.841958 59.891171 479.035664 60.408310 479.229371 60.927958 479.423077 61.450071 479.616783 61.974608 479.810490 62.501528 480.004196 63.030788 480.197902 63.562347 480.391608 64.096162 480.585315 64.632192 480.779021 65.170395 480.972727 65.710728 481.166434 66.253152 481.360140 66.797622 481.553846 67.344098 481.747552 67.892537 481.941259 68.442898 482.134965 68.995139 482.328671 69.549219 482.522378 70.105094 482.716084 70.662723 482.909790 71.222065 483.103497 71.783077 483.297203 72.345719 483.490909 72.909947 483.684615 73.475719 483.878322 74.042995 484.072028 74.611733 484.265734 75.181889 484.459441 75.753423 484.653147 76.326293 484.846853 76.900457 485.040559 77.475872 485.234266 78.052498 485.427972 78.630291 485.621678 79.209211 485.815385 79.789216 486.009091 80.370263 486.202797 80.952311 486.396503 81.535317 486.590210 82.119241 486.783916 82.704040 486.977622 83.289672 487.171329 83.876096 487.365035 84.463269 487.558741 85.051150 487.752448 85.639697 487.946154 86.228867 488.139860 86.818620 488.333566 87.408913 488.527273 87.999704 488.720979 88.590952 488.914685 89.182615 489.108392 89.774650 489.302098 90.367016 489.495804 90.959672 489.689510 91.552574 489.883217 92.145682 490.076923 92.738954 490.270629 93.332347 490.464336 93.925819 490.658042 94.519330 490.851748 95.112836 491.045455 95.706297 491.239161 96.299670 491.432867 96.892914 491.626573 97.485986 491.820280 98.078845 492.013986 98.671448 492.207692 99.263755 492.401399 99.855723 492.595105 100.447310 492.788811 101.038474 492.982517 101.629174 493.176224 102.219368 493.369930 102.809013 493.563636 103.398068 493.757343 103.986492 493.951049 104.574241 494.144755 105.161275 494.338462 105.747552 494.532168 106.333029 494.725874 106.917665 494.919580 107.501417 495.113287 108.084253 495.306993 108.666167 495.500699 109.247163 495.694406 109.827246 495.888112 110.406418 496.081818 110.984684 496.275524 111.562047 496.469231 112.138512 496.662937 112.714080 496.856643 113.288758 497.050350 113.862547 497.244056 114.435452 497.437762 115.007476 497.631469 115.578623 497.825175 116.148898 498.018881 116.718302 498.212587 117.286842 498.406294 117.854518 498.600000 118.421337 498.793706 118.987301 498.987413 119.552414 499.181119 120.116680 499.374825 120.680102 499.568531 121.242684 499.762238 121.804430 499.955944 122.365344 500.149650 122.925429 500.343357 123.484688 500.537063 124.043127 500.730769 124.600748 500.924476 125.157554 501.118182 125.713551 501.311888 126.268741 501.505594 126.823128 501.699301 127.376716 501.893007 127.929508 502.086713 128.481509 502.280420 129.032721 502.474126 129.583149 502.667832 130.132797 502.861538 130.681667 503.055245 131.229765 503.248951 131.777092 503.442657 132.323654 503.636364 132.869454 503.830070 133.414495 504.023776 133.958781 504.217483 134.502317 504.411189 135.045105 504.604895 135.587149 504.798601 136.128453 504.992308 136.669021 505.186014 137.208857 505.379720 137.747963 505.573427 138.286345 505.767133 138.824005 505.960839 139.360947 506.154545 139.897175 506.348252 140.432693 506.541958 140.967504 506.735664 141.501612 506.929371 142.035021 507.123077 142.567734 507.316783 143.099755 507.510490 143.631088 507.704196 144.161737 507.897902 144.691705 508.091608 145.220996 508.285315 145.749613 508.479021 146.277561 508.672727 146.804843 508.866434 147.331462 509.060140 147.857423 509.253846 148.382729 509.447552 148.907384 509.641259 149.431392 509.834965 149.954755 510.028671 150.477479 510.222378 150.999566 510.416084 151.521020 510.609790 152.041846 510.803497 152.562046 510.997203 153.081625 511.190909 153.600586 511.384615 154.118932 511.578322 154.636668 511.772028 155.153798 511.965734 155.670324 512.159441 156.186251 512.353147 156.701582 512.546853 157.216321 512.740559 157.730472 512.934266 158.244039 513.127972 158.757024 513.321678 159.269433 513.515385 159.781268 513.709091 160.292533 513.902797 160.803232 514.096503 161.313368 514.290210 161.822946 514.483916 162.331969 514.677622 162.840441 514.871329 163.348365 515.065035 163.855745 515.258741 164.362585 515.452448 164.868889 515.646154 165.374659 515.839860 165.879901 516.033566 166.384617 516.227273 166.888812 516.420979 167.392489 516.614685 167.895651 516.808392 168.398303 517.002098 168.900448 517.195804 169.402089 517.389510 169.903232 517.583217 170.403878 517.776923 170.904032 517.970629 171.403698 518.164336 171.902880 518.358042 172.401580 518.551748 172.899803 518.745455 173.397552 518.939161 173.894832 519.132867 174.391645 519.326573 174.887996 519.520280 175.383888 519.713986 175.879325 519.907692 176.374311 520.101399 176.868849 520.295105 177.362943 520.488811 177.856597 520.682517 178.349814 520.876224 178.842598 521.069930 179.334953 521.263636 179.826883 521.457343 180.318390 521.651049 180.809480 521.844755 181.300155 522.038462 181.790420 522.232168 182.280278 522.425874 182.769732 522.619580 183.258787 522.813287 183.747446 523.006993 184.235712 523.200699 184.723590 523.394406 185.211084 523.588112 185.698196 523.781818 186.184931 523.975524 186.671292 524.169231 187.157284 524.362937 187.642909 524.556643 188.128171 524.750350 188.613074 524.944056 189.097623 525.137762 189.581820 525.331469 190.065669 525.525175 190.549174 525.718881 191.032338 525.912587 191.515166 526.106294 191.997661 526.300000 192.479827 526.493706 192.961667 526.687413 193.443185 526.881119 193.924385 527.074825 194.405270 527.268531 194.885845 527.462238 195.366112 527.655944 195.846076 527.849650 196.325741 528.043357 196.805109 528.237063 197.284186 528.430769 197.762973 528.624476 198.241476 528.818182 198.719697 529.011888 199.197642 529.205594 199.675312 529.399301 200.152712 529.593007 200.629846 529.786713 201.106717 529.980420 201.583329 530.174126 202.059686 530.367832 202.535791 530.561538 203.011648 530.755245 203.487261 530.948951 203.962634 531.142657 204.437770 531.336364 204.912673 531.530070 205.387346 531.723776 205.861794 531.917483 206.336019 532.111189 206.810027 532.304895 207.283820 532.498601 207.757401 532.692308 208.230776 532.886014 208.703947 533.079720 209.176919 533.273427 209.649694 533.467133 210.122277 533.660839 210.594671 533.854545 211.066881 534.048252 211.538908 534.241958 212.010759 534.435664 212.482435 534.629371 212.953942 534.823077 213.425281 535.016783 213.896458 535.210490 214.367476 535.404196 214.838339 535.597902 215.309050 535.791608 215.779612 535.985315 216.250031 536.179021 216.720309 536.372727 217.190450 536.566434 217.660458 536.760140 218.130336 536.953846 218.600089 537.147552 219.069719 537.341259 219.539231 537.534965 220.008628 537.728671 220.477915 537.922378 220.947094 538.116084 221.416169 538.309790 221.885145 538.503497 222.354024 538.697203 222.822811 538.890909 223.291509 539.084615 223.760122 539.278322 224.228654 539.472028 224.697108 539.665734 225.165487 539.859441 225.633797 540.053147 226.102040 540.246853 226.570220 540.440559 227.038341 540.634266 227.506406 540.827972 227.974420 541.021678 228.442385 541.215385 228.910307 541.409091 229.378187 541.602797 229.846030 541.796503 230.313840 541.990210 230.781621 542.183916 231.249376 542.377622 231.717108 542.571329 232.184822 542.765035 232.652521 542.958741 233.120209 543.152448 233.587890 543.346154 234.055567 543.346154 514.000000" /></g></g><g class="titles"><text class="title plot_title" x="400.0" y="26">Victory-Monument 51</text></g><g class="plot overlay" transform="translate(226, 46)"><g class="series serie-0 color-0"><g class="dots"><circle class="dot reactive tooltip-trigger" cx="10.653846153846153" cy="251.09170203974656" r="2.5" /><desc class="value">787000</desc><desc class="x ">10.653846153846153</desc><desc class="y ">251.09170203974656</desc><desc class="x_label">Jan</desc></g><g class="dots"><circle class="dot reactive tooltip-trigger" cx="59.08041958041958" cy="477.4289306565717" r="2.5" /><desc class="value">694000</desc><desc class="x top">59.08041958041958</desc><desc class="y top">477.4289306565717</desc><desc class="x_label">Feb</desc></g><g class="dots"><circle class="dot reactive tooltip-trigger" cx="107.506993006993" cy="12.585805217715688" r="2.5" /><desc class="value">885000</desc><desc class="x ">107.506993006993</desc><desc class="y ">12.585805217715688</desc><desc class="x_label">Mar</desc></g><g class="dots"><circle class="dot reactive tooltip-trigger" cx="155.93356643356643" cy="338.70611311722723" r="2.5" /><desc class="value">751000</desc><desc class="x top">155.93356643356643</desc><desc class="y top">338.70611311722723</desc><desc class="x_label">Apr</desc></g><g class="dots"><circle class="dot reactive tooltip-trigger" cx="204.36013986013987" cy="234.05556655245863" r="2.5" /><desc class="value">794000</desc><desc class="x ">204.36013986013987</desc><desc class="y ">234.05556655245863</desc><desc class="x_label">May</desc></g><g class="dots"><circle class="dot reactive tooltip-trigger" cx="252.78671328671325" cy="95.33274901311415" r="2.5" /><desc class="value">851000</desc><desc class="x ">252.78671328671325</desc><desc class="y ">95.33274901311415</desc><desc class="x_label">Jun</desc></g><g class="dots"><circle class="dot reactive tooltip-trigger" cx="301.2132867132867" cy="117.23635178248435" r="2.5" /><desc class="value">842000</desc><desc class="x left">301.2132867132867</desc><desc class="y left">117.23635178248435</desc><desc class="x_label">Jul</desc></g><g class="dots"><circle class="dot reactive tooltip-trigger" cx="349.6398601398601" cy="73.42914624374396" r="2.5" /><desc class="value">860000</desc><desc class="x left">349.6398601398601</desc><desc class="y left">73.42914624374396</desc><desc class="x_label">Aug</desc></g><g class="dots"><circle class="dot reactive tooltip-trigger" cx="398.06643356643355" cy="229.18809927037637" r="2.5" /><desc class="value">796000</desc><desc class="x left">398.06643356643355</desc><desc class="y left">229.18809927037637</desc><desc class="x_label">Sep</desc></g><g class="dots"><circle class="dot reactive tooltip-trigger" cx="446.493006993007" cy="41.7906089102093" r="2.5" /><desc class="value">873000</desc><desc class="x left">446.493006993007</desc><desc class="y left">41.7906089102093</desc><desc class="x_label">Oct</desc></g><g class="dots"><circle class="dot reactive tooltip-trigger" cx="494.9195804195804" cy="107.50141721831983" r="2.5" /><desc class="value">846000</desc><desc class="x left">494.9195804195804</desc><desc class="y left">107.50141721831983</desc><desc class="x_label">Nov</desc></g><g class="dots"><circle class="dot reactive tooltip-trigger" cx="543.3461538461538" cy="234.05556655245863" r="2.5" /><desc class="value">794000</desc><desc class="x left">543.3461538461538</desc><desc class="y left">234.05556655245863</desc><desc class="x_label">Dec</desc></g></g></g><g class="plot text-overlay" transform="translate(226, 46)"><g class="series serie-0 color-0" /></g><g class="plot tooltip-overlay" transform="translate(226, 46)"><g class="tooltip" style="opacity: 0" transform="translate(0 0)"><rect class="tooltip-box" height="0" rx="0" ry="0" width="0" /><g class="text" /></g></g><g class="legends" transform="translate(10, 56)"><g class="legend reactive activate-serie" id="activate-serie-0"><rect class="color-0 reactive" height="12" width="12" x="0.0" y="1.0" /><text x="17.0" y="11.2">Victory-Monume…</text><title>Victory-Monument</title></g></g><g class="legends" transform="translate(790, 56)" /></g></svg>